<?xml version="1.0" encoding="utf-8"?>
<!-- Generator: Adobe Illustrator 23.0.0, SVG Export Plug-In . SVG Version: 6.00 Build 0)  -->
<svg version="1.1" id="Layer_1" xmlns="http://www.w3.org/2000/svg" xmlns:xlink="http://www.w3.org/1999/xlink" x="0px" y="0px"
	 viewBox="0 0 16 16" style="enable-background:new 0 0 16 16;" xml:space="preserve">
<style type="text/css">
	.st0{fill:#2D2D2D;}
</style>
<g>
	<path class="st0" d="M6,7.7c0.3,1.1,1.1,1.8,2,1.8c0.9,0,1.7-0.8,2-1.8c0.2-0.1,0.4-0.3,0.5-0.6c0.1-0.4,0-0.8-0.2-1
		c0-0.2,0.1-0.3,0.1-0.5c0-0.7-0.4-1.3-0.9-1.3c-0.1,0-0.1,0-0.2,0c0,0,0,0,0,0C9.1,4.1,9,4,8.9,3.9C8.4,3.3,7.3,3.4,6.6,4.1
		C6,4.6,5.7,5.4,5.9,5.9c0,0,0,0.1,0,0.1c0,0,0,0,0,0c-0.3,0.1-0.5,0.6-0.4,1C5.6,7.3,5.8,7.6,6,7.7z"/>
	<path class="st0" d="M5.2,5.4C5.2,5.4,5.2,5.4,5.2,5.4C5.2,5.4,5.2,5.4,5.2,5.4C5,4.8,5.2,4.1,5.8,3.6c0-0.6-0.2-1.2-0.7-1.2
		c0-0.4-0.6-0.6-1.1-0.6c-1.2,0-1.8,0.8-1.7,1.9c0,0,0,0,0,0C2,3.8,1.9,4.2,2,4.6C2.1,4.9,2.2,5,2.4,5.1C2.7,6,3.3,6.6,4,6.6
		c0.3,0,0.5-0.1,0.8-0.2C4.7,5.9,4.8,5.5,5.2,5.4z"/>
	<path class="st0" d="M16,9.5l-0.5-1.6c-0.1-0.3-0.4-0.6-0.7-0.7L14,6.9c-0.1,0-0.1,0-0.2,0.1c-0.1,0.3-0.6,1.2-1.5,1.2
		c-0.6,0-1.2-0.5-1.5-0.8c-0.2,0.4-0.3,1-1,1.5c0.5,0,0.8,0,1.5,0.2c0.7,0.2,1.4,0.7,1.7,1.4c1.4-0.1,2.3-0.4,2.7-0.6
		C16,9.8,16,9.6,16,9.5z"/>
	<path class="st0" d="M0,9.5l0.5-1.6c0.1-0.3,0.4-0.6,0.7-0.7l0.8-0.3c0.1,0,0.1,0,0.2,0.1C2.4,7.1,3.1,8,3.6,8.4
		c0.2,0.2,0.4,0.2,0.6,0c0.3-0.3,0.8-0.8,1-1.1c0.2,0.4,0.3,1,1,1.5c-0.5,0-0.8,0-1.5,0.2c-0.7,0.2-1.4,0.7-1.7,1.4
		C1.4,10.4,0.6,10,0.2,9.8C0,9.8,0,9.6,0,9.5z"/>
	<path class="st0" d="M14.1,5.2c-0.1-0.2,0-0.7,0-1c0.1-0.4,0.1-1-0.2-1.4c0-1-1.6-1-1.6-1c0,0-1.4-0.1-1.6,1.3
		c-0.1,0.2-0.1,0.5-0.1,0.7c0.2,0.2,0.4,0.6,0.4,1.1c0,0.2,0,0.3-0.1,0.5c0,0,0,0.1,0,0.1C11,5.6,11,5.7,11.1,5.7
		c0.3,0.5,0.8,0.7,1.3,0.7c0.4,0,0.7-0.2,1-0.4c0.1,0.2,0.3,0.3,0.6,0.3c0.7,0,0.7-0.8,0.7-0.8S14.4,5.8,14.1,5.2z"/>
	<path class="st0" d="M13.1,12.7l-0.5-1.5c-0.3-0.8-0.9-1.4-1.7-1.5L9.8,9.5c-0.1,0-0.2,0-0.3,0.2C9.2,10.2,8.4,12,8,12
		c-0.4,0-1.2-1.7-1.5-2.3c0-0.1-0.2-0.2-0.3-0.2L5.2,9.7c-0.8,0.2-1.5,0.7-1.7,1.5l-0.5,1.5c-0.1,0.2,0,0.4,0.2,0.5
		c0.6,0.3,2.2,0.9,4.8,0.9c2.6,0,4.2-0.6,4.8-0.9C13,13.2,13.1,12.9,13.1,12.7z"/>
</g>
</svg>
