<svg id="Layer_1" data-name="Layer 1" xmlns="http://www.w3.org/2000/svg" width="128" height="128" viewBox="0 0 128 128"><title>Artboard 41</title><path d="M47.93,109.44h4.7a7.37,7.37,0,0,1,2.71.35A3.06,3.06,0,0,1,56.66,111a3.78,3.78,0,0,1,.54,2,3.87,3.87,0,0,1-.46,1.87,3.06,3.06,0,0,1-1.2,1.24,3.2,3.2,0,0,1,1.64,1.27,3.93,3.93,0,0,1,.59,2.19,4.52,4.52,0,0,1-.76,2.64,3.07,3.07,0,0,1-1.77,1.33,18,18,0,0,1-3.31.18h-4Zm2.36,2.38v3.31h1.57a15.3,15.3,0,0,0,1.74,0,1.44,1.44,0,0,0,.94-.51,1.71,1.71,0,0,0,.34-1.13,1.81,1.81,0,0,0-.27-1,1.16,1.16,0,0,0-.68-.49,13.58,13.58,0,0,0-2.27-.1Zm0,5.7v3.81H52.5a6.86,6.86,0,0,0,1.85-.15,1.35,1.35,0,0,0,.69-.59,2.39,2.39,0,0,0,0-2.28,1.47,1.47,0,0,0-.79-.62,7.27,7.27,0,0,0-2-.17Z"/><path d="M60,109.44h2.36v7.75a18.81,18.81,0,0,0,.09,2.36,2.32,2.32,0,0,0,.75,1.46,2.61,2.61,0,0,0,2.9.15,1.81,1.81,0,0,0,.71-1,12.36,12.36,0,0,0,.19-2.79v-7.92h2.36V117a20.28,20.28,0,0,1-.3,4.16,3.55,3.55,0,0,1-1.39,2.08,4.7,4.7,0,0,1-2.85.8,5.26,5.26,0,0,1-2.86-.66,3.76,3.76,0,0,1-1.5-1.85,14,14,0,0,1-.46-4.41Z"/><path d="M72,123.76V109.44h8v2.42H74.39v3.39h4.92v2.42H74.39v6.09Z"/><path d="M34.07,99.34l.14.29,5.35-.12s-1.82-2.2-1.86-2.2S34.07,99.34,34.07,99.34Z"/><path d="M25.66,62.05a18.91,18.91,0,0,0-1.17,1.87c-.39.72-.76,1.44-1.11,2.18-.54,1.13-1.05,2.27-1.54,3.43.19.68.39,1.35.57,2a7.37,7.37,0,0,1,.28,2.49,4.67,4.67,0,0,1-.13.65c-.06.2-.11.38-.15.58l-.26,1.19c-.09.38-.18.78-.31,1.18C25,75.34,27.05,66.9,25.66,62.05Z"/><path d="M59,20.33a11,11,0,0,0-3.91,1.51,9.71,9.71,0,0,0,.88.94,7.18,7.18,0,0,0,2.43,1.55,6.22,6.22,0,0,0,2.85.25,19,19,0,0,0,2.91-.64A26.77,26.77,0,0,0,67,23,31.52,31.52,0,0,0,72,20.08c-.59,0-1.17,0-1.74,0-.77,0-1.53,0-2.28-.06-1.52,0-3-.16-4.53-.12A23.43,23.43,0,0,0,59,20.33Z"/><path d="M75.25,28.09a2.81,2.81,0,0,1,.26-.25,1,1,0,0,0,.16-.64A5.22,5.22,0,0,0,75.4,26c-.62.39-1.24.78-1.89,1.14-.85.47-1.19.65-2.06,1.05-.21.57-.4,1.13-.64,1.68a9.49,9.49,0,0,1-.44,1A4.62,4.62,0,0,1,69.14,32c-1.2.79-2.45,1.47-3.65,2.23S63,35.69,62.55,37a12.24,12.24,0,0,0-.65,3.78,60.91,60.91,0,0,0,6.51.57,5,5,0,0,0,3-.88,3.08,3.08,0,0,0,1.46-2.62v-.09l0,0a4,4,0,0,1,.68-.82c.24-.24.51-.45.77-.67.44-.36.91-.7,1.38-1-.09-.31-.18-.62-.28-.93l-.38-1.41a11.48,11.48,0,0,1-.33-1.46,6.09,6.09,0,0,1,.3-3A3.79,3.79,0,0,1,75.25,28.09Z"/><path d="M86.86,43.76a8.19,8.19,0,0,1-2.59.36,9.44,9.44,0,0,1-2.64-.31,4.46,4.46,0,0,1-1.46-.62,4.29,4.29,0,0,0-.57-.33,2.52,2.52,0,0,1-.72-.46,1.42,1.42,0,0,1-.38-.92,1.46,1.46,0,0,0-.17-.55,4.51,4.51,0,0,0-.77-1.08l-.24-.28a1.92,1.92,0,0,1-.25-.38c-.13-.24-.21-.48-.31-.71-.17-.47-.66-2.07-.83-2.65-.41.37-2.26,2-2.37,2.18.08.6.12,3.82-5.13,4.21a16.37,16.37,0,0,1-3.51-.28c-1.14-.16-2.28-.37-3.41-.51l-.32,0v-.31c.09-1.45-.18-2.81.4-4.2a5.56,5.56,0,0,1,1.51-2.19c.59-.44,6.14-3.1,7-4.63a12.44,12.44,0,0,0,.66-1.55l-.72.33c-1.16.52-2.34,1-3.53,1.48a10.93,10.93,0,0,1-3.83.84,15.79,15.79,0,0,1-7.64-1.35,9.08,9.08,0,0,1-4.79-5.87,21,21,0,0,1-2.59-.46,9.53,9.53,0,0,0-1.48-.25,1.88,1.88,0,0,0-.71.09l-.73.24a14,14,0,0,1-3,.62,6.75,6.75,0,0,1-1.56-.07l-1.51-.17c-2-.22-4-.42-6.07-.51a17.13,17.13,0,0,0-3,0A11,11,0,0,0,27,24.71a45.75,45.75,0,0,0-4.91,3.52,20.88,20.88,0,0,0-4.22,4.23A31,31,0,0,0,12.8,43.35c-.12.49-.15,1-.24,1.49s-.09,1-.07,1.5c0,1,.1,2,.1,3a59.4,59.4,0,0,1-.33,6.11l-.31,3a11.62,11.62,0,0,0,0,3,30.39,30.39,0,0,1,1,6,5.13,5.13,0,0,1-.23,1.56l-.38,1.47a7.47,7.47,0,0,1-.53,1.5,1.9,1.9,0,0,1-.25.35,1.43,1.43,0,0,0-.19.26,2.68,2.68,0,0,0-.21.66,4.29,4.29,0,0,0-.05,1.43,2.21,2.21,0,0,0,.2.63,4.74,4.74,0,0,1,.34.72,12.68,12.68,0,0,1,.75,3c.11,1.66.2,3.31.29,5,0,.13,0,.27,0,.41,0,5.53-.19,12.45-.09,12.6s.48-.05.76-.11a.58.58,0,0,1,.66.44l.4,1.88,3.75-2a19.81,19.81,0,0,1-1.63-5.88,28.37,28.37,0,0,1,0-6.11h0c0-.29.08-.59.13-.89A44,44,0,0,1,19,77.47,36.24,36.24,0,0,0,20.05,74l.22-1.57c.53-3.8,2-8.08,4.65-10.83,0,0-.92-2.43-1.49-3.85-.28-.73-.51-1.48-.72-2.23s-1.17-6.18-1.29-7a13.09,13.09,0,0,1-.08-2.34,7.84,7.84,0,0,1,.36-2.37l.06.06c.15,1.5,2,12.09,2.51,13.53s1.1,2.75,1.68,4.2A15.35,15.35,0,0,1,27,63.13c.4.48.82,1,1.25,1.4A24.64,24.64,0,0,0,31,67a13.92,13.92,0,0,0,3.14,2,12.3,12.3,0,0,0,1.76.63,14.66,14.66,0,0,0,1.84.38c1.24.2,2.49.31,3.73.43s2.49.14,3.73.15a43.13,43.13,0,0,0,7.26-.47,8.67,8.67,0,0,1-.72-.64,1.89,1.89,0,0,1-.29-.36c-.08-.14-.13-.28-.19-.41s-.19-.53-.28-.79l-.47-1.56A5.85,5.85,0,0,0,49.93,65a11.83,11.83,0,0,1-1.12-3.21c-.26-1.08-.44-2.17-.59-3.26A31.48,31.48,0,0,1,48.11,52c.16-2.19.36-4.35.67-6.52h.08c-.2,2.17-.29,4.35-.33,6.53a31,31,0,0,0,.35,6.46,31.37,31.37,0,0,0,.72,3.16c.14.51.29,1,.47,1.53a7.85,7.85,0,0,0,.58,1.4,6.14,6.14,0,0,1,.59,1.66l.37,1.6a3.55,3.55,0,0,0,.46,1.43l1,1.31,0,0,0,0q1.27,3.2,2.52,6.4l2.29,5.36.46,1.22a8.15,8.15,0,0,1,.37,1.32c.17.88.24,1.75.38,2.59a5.84,5.84,0,0,0,.7,2.24l.05.06v.05a6.21,6.21,0,0,1,.23,1.57c0,.48,0,1,0,1.45,0,1-.09,1.92-.18,2.86-.19,1.79-.55,5.16-.49,5.69s.61.36.61.36a2.63,2.63,0,0,1,.66-.57c.3-.14,1,1,1,1s1.8-1,3.76-2.13c-.39-1.36-1-5.35-1.16-6.11a12.37,12.37,0,0,1-.28-2.3h0a21,21,0,0,1,.91-2.44,6.5,6.5,0,0,0,.42-2.46c0-.85,0-1.72,0-2.54A4.68,4.68,0,0,0,64.45,82l0,0,0,0a24.93,24.93,0,0,1-1.12-4.82l0,0a23.68,23.68,0,0,0-.22-2.65A4.1,4.1,0,0,1,63.28,73a2.41,2.41,0,0,1,.89-1.18,18.63,18.63,0,0,1,2.41-1.15,4.43,4.43,0,0,0,1.63-1.81,23.47,23.47,0,0,0,1.9-4.82h.09a20,20,0,0,1-1.6,5,4.91,4.91,0,0,1-1.75,2.1c-.79.46-1.66.71-2.29,1.17A1.7,1.7,0,0,0,64,73c.48.1,1,.19,1.45.25.31,0,.61.06.92.07a1.21,1.21,0,0,1,.91.47,3.26,3.26,0,0,1,.47,1.88c0,.63,0,1.24,0,1.86,0,0,.1,4.69.38,6.93A33.92,33.92,0,0,0,68.88,88c.16.58.32,1.17.51,1.73a5.57,5.57,0,0,1,.31,2c0,1.31-1,6.7-1.16,7.25s0,.66.43.66,1-1.06,1.39-.82.65,1.33.65,1.33c.65-.27,3.65-1.68,3.86-1.83a15.82,15.82,0,0,1-.41-2c-.12-.71-.22-1.43-.31-2.15-.17-1.47-.35-3-.48-4.43a6.19,6.19,0,0,1,0-1.14A4.71,4.71,0,0,1,74,87.47a4.19,4.19,0,0,0,.51-2.06c0-.73-.17-1.46-.24-2.2l0-1.86A21.37,21.37,0,0,1,75.51,77c.26-.69.59-1.41.79-2.06s.35-1.41.49-2.13c.52-2.91,1-5.86,1.27-8.79v-.1l0-.06a16.41,16.41,0,0,0,2.17-4.45,24,24,0,0,0,1-4.28c-.59.57-1.21,1.11-1.82,1.65l-4.16,3.51-.05-.07,3.93-3.76a24.35,24.35,0,0,0,3.58-4c1-1.54,2-3,3-4.52a21.18,21.18,0,0,0,2.33-4.81,2.76,2.76,0,0,1-.5.3A5.11,5.11,0,0,1,86.86,43.76Z"/><path d="M89.06,37a1.79,1.79,0,0,0-.53-.78,4.5,4.5,0,0,0-1.94-.56,20,20,0,0,0-2.19-.11,17.74,17.74,0,0,0-2.19.09,5,5,0,0,0-2,.47,4.52,4.52,0,0,0-1.1,1.72,11.09,11.09,0,0,0-.64,1.81,4.57,4.57,0,0,1,.65.92,2.25,2.25,0,0,1,.23.88.65.65,0,0,0,.14.4c.18.22.74.43,1.15.8a4.67,4.67,0,0,0,1.18.62l.4.14a6.23,6.23,0,0,0,4.09-.07l.33-.13c.2-.1.41-.2.59-.31s.29-.22.56-.41c.47-.31,1-.44,1.17-.61a.67.67,0,0,0,.06-.12v-.11l0-.19a3.1,3.1,0,0,1,.18-.8,5.53,5.53,0,0,1,.58-1c-.11-.54-.24-1.08-.4-1.61A8.31,8.31,0,0,0,89.06,37Zm-6.51,2.41c-.29.39-.87.11-1.42-.35s-.65-1.56,0-1.85a.93.93,0,0,0,.14.72c.27.15.59.13.94.39S82.86,39,82.55,39.39ZM88,39c-.55.46-1.12.74-1.43.35s0-.84.33-1.09.67-.21.94-.36a.93.93,0,0,0,.13-.75C88.63,37.48,88.52,38.59,88,39Z"/><path d="M93,28.77a1.36,1.36,0,0,0-.31-.58.92.92,0,0,1-.32-.68,3.13,3.13,0,0,1,.27-1.16l-1.77-1.14a8,8,0,0,0-1.64-.86,2.22,2.22,0,0,0-1.74.15,7.21,7.21,0,0,1-3.65.88,7.31,7.31,0,0,1-3.67-.88,2.27,2.27,0,0,0-1.74-.15,8.24,8.24,0,0,0-1.63.86L75.49,26a6.41,6.41,0,0,1,.34,1.22,1.18,1.18,0,0,1-.16.77c-.1.11-.18.19-.24.27a1.43,1.43,0,0,0-.16.3,5.8,5.8,0,0,0-.11,2.81c.18.91.55,1.84.82,2.77s.61,1.85.93,2.76c.17.45.34.9.54,1.34a4.94,4.94,0,0,0,.3.61.92.92,0,0,0,.17.22l.25.26a5.5,5.5,0,0,0,.55-1.62,7.47,7.47,0,0,1,.39-1.09,2.55,2.55,0,0,1,.72-1,5.3,5.3,0,0,1,2.28-.73,17.7,17.7,0,0,1,2.29-.14,16,16,0,0,1,2.29.17,4.8,4.8,0,0,1,2.27.83,2.34,2.34,0,0,1,.62,1.11A7.72,7.72,0,0,1,89.82,38a6.76,6.76,0,0,0,.23,1.36l.25-.28a1,1,0,0,0,.15-.22c.1-.17.2-.39.3-.6.18-.43.35-.87.51-1.31s.58-1.72.58-1.72c.42-1.23.81-2.48,1.14-3.71A6.12,6.12,0,0,0,93,28.77ZM78.22,29.85a2.3,2.3,0,0,1-1.38-.07,1.94,1.94,0,0,1-.85-.92,1.47,1.47,0,0,1,1.55-.21C78.34,29.1,78.34,29.74,78.22,29.85Zm13.44-.07a2.33,2.33,0,0,1-1.39.07c-.12-.11-.12-.75.69-1.2a1.47,1.47,0,0,1,1.55.21A1.89,1.89,0,0,1,91.66,29.78Z"/><path d="M103.23,35.84a7.22,7.22,0,0,0-2.86-1.58l-.11,0-.08-.08a7.27,7.27,0,0,0-3.47-2.43l-.11,0-.06-.06A16.89,16.89,0,0,1,95,29.48,8.12,8.12,0,0,1,94,27.11c-.45-.25-.88-.52-1.32-.79a3,3,0,0,0-.2,1.09.81.81,0,0,0,.31.56,1.62,1.62,0,0,1,.39.65,6.66,6.66,0,0,1,.21,2.91,12.1,12.1,0,0,1-.34,1.41l-.37,1.38c-.19.7-.39,1.39-.6,2.08a14.79,14.79,0,0,0,.5,2.19,3.33,3.33,0,0,0,2.06,2.5,12.08,12.08,0,0,0,3.39.55,16.82,16.82,0,0,0,1.74,0c.58,0,1.13-.13,1.76-.16a15,15,0,0,1,1.79.09,8.09,8.09,0,0,0,.85.06,1.23,1.23,0,0,0,.67-.11,1.79,1.79,0,0,0,.49-1.32,3.27,3.27,0,0,0-.31-1.54A7.94,7.94,0,0,0,103.23,35.84Z"/><path d="M116.08,16.35c-1.09-2.36-3.65-3.82-6.16-4.49a9.93,9.93,0,0,0-3.35-.28,7.7,7.7,0,0,0-1.66.29,3.81,3.81,0,0,0-.87.33,2,2,0,0,0-.46.29,16.27,16.27,0,0,1,5.79.8A7.31,7.31,0,0,1,112,15a7.88,7.88,0,0,1,1.65,2.66,4.47,4.47,0,0,1,.07,3.16,6.77,6.77,0,0,1-1.85,2.58,7.16,7.16,0,0,1-2.7,1.71,7.71,7.71,0,0,1-3.2.19,19.17,19.17,0,0,1-3.06-.7A21.71,21.71,0,0,1,100,23.46a36.62,36.62,0,0,1-5.31-3.22c-.84-.6-1.66-1.2-2.52-1.76a11.51,11.51,0,0,0-2.65-1.42,11.79,11.79,0,0,0-6,.37v0a20.53,20.53,0,0,0-3-.55,6,6,0,0,0-2.9.34,35.81,35.81,0,0,0-5.07,3.27,31.38,31.38,0,0,1-5.28,3.13,25.73,25.73,0,0,1-2.9,1,16.45,16.45,0,0,1-3,.65A7.1,7.1,0,0,1,58.16,25a7.55,7.55,0,0,1-2.61-1.77,6.4,6.4,0,0,1-1.76-2.62A4.7,4.7,0,0,1,54,17.48a8,8,0,0,1,1.69-2.59,7.23,7.23,0,0,1,2.62-1.63A16.83,16.83,0,0,1,64,12.49a1.92,1.92,0,0,0-.46-.3,5.26,5.26,0,0,0-.86-.33,8.21,8.21,0,0,0-1.84-.29,9.75,9.75,0,0,0-3.68.43c-2.35.73-4.65,2.15-5.66,4.35A11.35,11.35,0,0,0,51,23.56,8.46,8.46,0,0,0,55.46,29a14.94,14.94,0,0,0,7.2,1.3,11.21,11.21,0,0,0,3.6-.73c1.18-.44,2.36-.89,3.52-1.38s2.32-1,3.45-1.58,2.2-1.23,3.3-1.88a8.11,8.11,0,0,1,1.75-.85,2.34,2.34,0,0,1,1-.06,4,4,0,0,1,.94.32l.32.11a10.86,10.86,0,0,0,6.46,0l.33-.11a3.92,3.92,0,0,1,.93-.32,2.32,2.32,0,0,1,1,.06,8.26,8.26,0,0,1,1.77.85c1.08.65,2.16,1.3,3.29,1.88s2.28,1.09,3.44,1.58,2.35.94,3.54,1.38a11,11,0,0,0,3.58.73,15,15,0,0,0,7.21-1.3,8.53,8.53,0,0,0,4.44-5.46A11.42,11.42,0,0,0,116.08,16.35Z"/><path d="M35.68,94.89a11.25,11.25,0,0,1-1-1.7,12.37,12.37,0,0,1-.59-1.85,60.65,60.65,0,0,1-1.25-7.41c-.12-1.25-.22-2.49-.24-3.77a6.52,6.52,0,0,1,.24-2,13.26,13.26,0,0,1,.69-1.79,68.3,68.3,0,0,1,3.38-6.25c-1-.3-2-.64-3-1a17.65,17.65,0,0,1-3.45-1.66,12.27,12.27,0,0,1-2.81-2.62c-.28-.36-.54-.73-.79-1.11A15.56,15.56,0,0,1,27,65.39a4.8,4.8,0,0,0,.58,2.29l0,0v.05a2.63,2.63,0,0,1-.07,1.1c-.08.34-.18.67-.28,1-.21.63-.45,1.26-.7,1.88-.51,1.16-1.06,2.29-1.66,3.41a45.12,45.12,0,0,1,2.27,5.68c.67,2,1.28,4,1.81,6.05A18.35,18.35,0,0,1,29.57,90c.08,1,.11,2.09.17,3.14,0,0,.08,2.19.13,3.29a.42.42,0,0,0,.58.37l.46-.18a1,1,0,0,1,1.14.28l1.38,1.57c1.67-.73,2.22-1.16,3.77-1.78A11.57,11.57,0,0,1,35.68,94.89Z"/><path d="M15,100.53l.14.29,5.34-.12s-1.82-2.2-1.86-2.2S15,100.53,15,100.53Z"/><path d="M62.2,102.85l.13.3,5.35-.12s-1.82-2.21-1.86-2.21S62.2,102.85,62.2,102.85Z"/><path d="M71.37,100.86l.14.29,5.34-.12S75,98.83,75,98.83,71.37,100.86,71.37,100.86Z"/></svg>