<svg id="Layer_1" data-name="Layer 1" xmlns="http://www.w3.org/2000/svg" width="128" height="128" viewBox="0 0 128 128"><title>Artboard 44</title><path d="M61.44,102.07a3.9,3.9,0,0,0-2.06-2.94c-.13,0-.29-.07-.43-.11a3.27,3.27,0,0,0-.45,0H55.3l-.08-.06a17.86,17.86,0,0,1-3.07-2.4,8.12,8.12,0,0,1-2.21-3.28,4.44,4.44,0,0,1-.17-1,4.77,4.77,0,0,1,.12-1,18.3,18.3,0,0,1,.58-1.86c.46-1.21,1-2.37,1.53-3.52s1.1-2.29,1.62-3.44c.24-.59.5-1.17.7-1.76a5,5,0,0,0,.34-1.81l.24-7.64c-1.23-.16-3.19-.44-4.88-.68l-1.8-.26h0L46.75,70c-.83,1.47-1.67,3-2.55,4.45a.77.77,0,0,1,.25.33,1,1,0,0,1-.29,1,1.24,1.24,0,0,1-.8.09l-.37.63c.41,1.29.84,2.77,1.12,4.07a34.53,34.53,0,0,1,.69,4.19,7.91,7.91,0,0,1,0,2.17c-.14.68-.25,1.37-.36,2.07s-.22,1.39-.39,2.09a6.83,6.83,0,0,1-.64,1.84c.84.77,1.73,1.52,2.62,2.26l2.84,2.35,5.64,4.56,4,.06h2.05l.94,0Zm-17.1-25a.72.72,0,0,1,.43-.54c.56-.17,1.91.36,1.82.72s-.38.51-.49.64C45.25,78,44.39,77.59,44.34,77.07Zm3.28,7.33a2.42,2.42,0,0,1-1,0A1.58,1.58,0,0,1,47,82.18a1,1,0,0,1,.88,0C48.32,82.62,48.11,84.24,47.62,84.4Zm5.63-9.47c-.14,1.56-.3,1.66-2,1C51.92,75.37,52.45,74.87,53.25,74.93Zm-2,5.75c1.14,1.06.85,2.28.35,3.51-.12.32-.34.49-.64.41s-.41-.27-.4-.41C50.64,83,49.66,81.61,51.27,80.68Zm-2.94-5.54c0-.22.24-.48.32-.61.9-.11,1.57.25,1.55.75,0,.16-.34.44-.57.49C49,75.89,48.42,75.75,48.33,75.14Zm1.23,2.63a2.11,2.11,0,0,1,.93-.12,1.32,1.32,0,0,1-.41,2,1,1,0,0,1-.87-.21A1,1,0,0,1,49.56,77.77Z"/><path d="M103.47,98a.21.21,0,0,0,0,.12l0,0a0,0,0,0,1,0,0A.84.84,0,0,1,103.47,98Z"/><path d="M104.16,97.82a.42.42,0,0,1,0,.15s0,0,0,0A.16.16,0,0,0,104.16,97.82Z"/><path d="M21.08,76.81a1.88,1.88,0,0,1-.14.24,1.76,1.76,0,0,1-.31.3,1.5,1.5,0,0,1-.91.41.92.92,0,0,1-.81-.37c-.24-.31,0-1,.05-1.56l.35,0c-.24-.3-.47-.61-.59-.75a3.68,3.68,0,0,0-.49,0h0a1,1,0,0,1-.73.27,3,3,0,0,1-1.17-.16c0,.89.09,1,1,1.93a2.87,2.87,0,0,1,.51.8c.17.31.32.64.47,1l.16.32.32-.2a20.31,20.31,0,0,0,2.44-1.74A1.7,1.7,0,0,0,21.08,76.81Zm105.76-20c-.21-.35-.41-.7-.59-1.08a11,11,0,0,1-.44-1.16,7,7,0,0,1-.38-2.47,2.57,2.57,0,0,0,0-1.06,5.83,5.83,0,0,0-.36-1,6.69,6.69,0,0,0-1.24-1.84,2.33,2.33,0,0,0-.41-.31,1.51,1.51,0,0,0-.22-.11l-.28-.1-1.12-.39c-1.47-.49-2.65-.92-4.12-1.48a7.89,7.89,0,0,1,.49.65l.06.08v.06l-.1,1.2c.15.32,0,.52.14.84-.22-.29-.43-.58-.64-.88v-.06l-.1-1.13a6.25,6.25,0,0,0-2.77-1.95,1.2,1.2,0,0,0-1.27.38,3.05,3.05,0,0,0-.52,1.5,7.3,7.3,0,0,0,.43,3.48,5.56,5.56,0,0,1-.43,3.76,6.38,6.38,0,0,0-.14-3.56c0-.13-.11-.24-.18-.39a3.19,3.19,0,0,1-.19-.48,6.29,6.29,0,0,1-.24-1,7.45,7.45,0,0,1-.07-1.95,4.29,4.29,0,0,1,.21-1,7.33,7.33,0,0,1-2.6-.51c-.87-.28-1.73-.6-2.61-.83a6.74,6.74,0,0,0-2.67-.25c-.91.09-1.81.25-2.74.34a5.57,5.57,0,0,1-1.86-.07,3.86,3.86,0,0,1-.94-.32l-.43-.2h0q-1-.45-2.07-.84a17,17,0,0,0-5.25-1.15,7,7,0,0,0-4.74,2c-.7.58-1.37,1.21-2.12,1.78a6.3,6.3,0,0,1-2.62,1.24c-1.88.27-3.69.36-5.53.47s-3.68.18-5.52.23-3.68,0-5.52,0-3.7-.28-5.51-.47-3.66-.43-5.48-.67c-.91-.13-1.81-.26-2.73-.42a17.18,17.18,0,0,0-2.68-.3,49.78,49.78,0,0,0-5.46.15,33.71,33.71,0,0,0-5.4.84,13.38,13.38,0,0,0-2.57.86A15,15,0,0,0,33,48.71c-.75.53-1.49,1.08-2.21,1.65-.35.28-1.54,1.54-1.54,1.54s-.59.74-.77,1c-.44.79-.88,1.69-1.24,2.36S26.4,56.82,26,57.64a5.06,5.06,0,0,0-.24.46c-.24.48-.48,1-.71,1.44-.31.65-.61,1.31-.9,2,.62.15,1.49.1,1.49,1,0,.48-.56.53-1.07.51a3.21,3.21,0,0,1-1-.24c-.15.38-.29.77-.44,1.16l.65,0a1.47,1.47,0,0,1,1.63,1c-.06.71-.56.92-1.17.93a1.61,1.61,0,0,1-1.53-.67,28.49,28.49,0,0,1-1.26,2.82c.49.46,1,.9.53,1.5s-.91.42-1.37.07c-.08.16-.17.32-.26.48a1.74,1.74,0,0,1-.11.18,2.88,2.88,0,0,1,.75.62A4.72,4.72,0,0,1,21.43,72a5.4,5.4,0,0,1-1.41.31c-.28,0-.55-.35-.78-.51l-.34.64-.1,0a3.55,3.55,0,0,1-.23.31.18.18,0,0,1-.05.07.69.69,0,0,1,.09.3A2.61,2.61,0,0,1,20.5,76l.58.2a1,1,0,0,1,.61-.26,2.42,2.42,0,0,1,.67.31,14.3,14.3,0,0,0,1.15-1.51,38.12,38.12,0,0,0,3-5.71c.45-1,.86-2,1.25-3a28.09,28.09,0,0,0,1-3.1,38.74,38.74,0,0,1-2.06,6.19,39,39,0,0,1-2.91,5.86A11,11,0,0,1,22.7,76.5a4.44,4.44,0,0,1,.84,1.12c.05.09-.62,1-1.25.86a1.07,1.07,0,0,1-.86-.72,22.62,22.62,0,0,1-2.32,1.7c-.56.37-1.14.71-1.73,1-.4,1.65-.94,3.27-1.44,4.9l-1.68,5.27c-.56,1.75-1.12,3.51-1.63,5.27-.13.44-.26.88-.36,1.32a2.87,2.87,0,0,0-.12,1.25,4.53,4.53,0,0,0,1,2.15l5.86,0a2.92,2.92,0,0,0-.59-1.71,2.78,2.78,0,0,0-.8-.73,1.91,1.91,0,0,0-.95-.33h-.43l0-.39a3.89,3.89,0,0,1,.12-.78l.15-.68c.11-.46.23-.91.35-1.37A20.7,20.7,0,0,1,17.81,92a27.89,27.89,0,0,1,1.36-2.47c.48-.8,1-1.59,1.48-2.37l.06-.08.07-.05a27.54,27.54,0,0,1,3.7-1.72c.63-.25,1.28-.46,1.88-.69s1.22-.52,1.83-.8c2.42-1.12,4.83-2.28,7.21-3.5,1.2-.61,2.38-1.23,3.54-1.87a5,5,0,0,0,1.55-1.15,15.49,15.49,0,0,0,1.2-1.57c.25-.37.54-.82.86-1.31h0s0,0,0,0C44.06,72,46,68.78,46.05,68.71c.33-.71.7-1.38,1-2.09s.67-1.71,1-2.58a41.9,41.9,0,0,1,2.18-5.14,26.7,26.7,0,0,1-1.38,5.43c-.27.71-.6,3.08-1.05,4.28v0a0,0,0,0,1,0,0s0,0,0,0h0a1.63,1.63,0,0,1-.31.54l.5.07a13.49,13.49,0,0,0,2.12.24h.29c1.45,0,2.9.06,4.35.19a12,12,0,0,1,4.32,1,14,14,0,0,0,4,1.29,61.7,61.7,0,0,0,6.93.93l1.14.09.45,0c1.43.07,2.87.14,4.3.1A28.47,28.47,0,0,0,79.72,73h0a1.87,1.87,0,0,0-.55-.69l-.09-.07,0-.12a11.91,11.91,0,0,1,2.27-3.9l.08-.1a2.82,2.82,0,0,0,.65-.82c.09-.15.18-.33.26-.5s.14-.31.2-.46a.94.94,0,0,1,.06-.15s0-.07,0-.12h0c.18-.48.33-1,.47-1.46-.69.1-1.35.26-1.44.1-.69-1.22.93-1,1-1.44.24.08.48.13.71.19.3-1.19.56-2.4.78-3.62h0a.28.28,0,0,0,0-.09,31,31,0,0,0,.55-4.42,17.64,17.64,0,0,1,.06,4.59c0,.26-.06.5-.1.76a1.87,1.87,0,0,1,2.31.08l-2.43.79c-.11.77-.25,1.53-.43,2.29a5.22,5.22,0,0,1,.34.62c-.19.07-.37.18-.56.24-.17.61-.36,1.23-.59,1.82a.84.84,0,0,0-.06.14,6.11,6.11,0,0,1-.55,1.08,3.15,3.15,0,0,1-.68.81,1.1,1.1,0,0,1-.12.11,15.79,15.79,0,0,0-2.54,3.53,2.15,2.15,0,0,1,.42.77,1.36,1.36,0,0,1-.13.86,2.42,2.42,0,0,1-.12.35h0c-.11.35-.23.7-.35,1.06-.66,1.9-1.41,3.86-2,5.7-.39,1.18-.79,2.38-1.22,3.57-.21.58-.44,1.18-.69,1.76a5,5,0,0,1-.46.86,8.76,8.76,0,0,0-.41.81,15.31,15.31,0,0,1-.85,1.73,1.77,1.77,0,0,1-.37.42,1.43,1.43,0,0,1-.26.15.77.77,0,0,0-.13.09,3.87,3.87,0,0,0-.5.68c-.31.52-.59,1.09-.9,1.65a8.85,8.85,0,0,1-.48.83c-.09.13-.19.27-.3.4s-.17.23-.24.35a7.05,7.05,0,0,0-.59,1.68,2.51,2.51,0,0,1-.45,1,.89.89,0,0,1-.29.22l-.08,0h0s0,0,0,0a1,1,0,0,0-.16.28,6.8,6.8,0,0,0-.29,1.73c0,.31,0,.61,0,.9a4.44,4.44,0,0,0,.08.56l7.26,0a4,4,0,0,0-.16-.62,2.81,2.81,0,0,0-.52-.91,2.11,2.11,0,0,0-.82-.59,3.38,3.38,0,0,0-1-.23,1.56,1.56,0,0,1-.79-.16,1,1,0,0,1-.49-.89,1.63,1.63,0,0,1,.9-1.29,20.51,20.51,0,0,0,1.79-1.58c.6-.57,1.19-1.14,1.84-1.69a3.47,3.47,0,0,1,1.16-.75,2.16,2.16,0,0,0,.76-.65,10.67,10.67,0,0,0,1.27-2c.17-.35.34-.76.55-1.14s.42-.72.64-1.07a22.18,22.18,0,0,1,3.09-4,3,3,0,0,1,.56-.42,4.13,4.13,0,0,0,.46-.31,11.28,11.28,0,0,0,.87-.83c.56-.6,1.1-1.21,1.64-1.83s1.07-1.26,1.68-1.85,1.22-1.12,1.85-1.66l.72-.64c.77-.64,1.53-1.29,2.35-1.87.27-.2.55-.39.83-.56a19.3,19.3,0,0,0,4.08-2.77C98,71.44,97,73.2,95.5,74c-.28.2-.57.43-.88.68s-.82.72-1.23,1.12c-.75.72-1.49,1.48-2.11,2a5.73,5.73,0,0,0,.1,2.61,5.43,5.43,0,0,0,.8,1.75c.35.56.71,1.1,1.09,1.63.76,1.06,1.56,2.11,2.41,3.1a34.43,34.43,0,0,0,2.74,2.8c.94.91,1.9,1.82,2.78,2.84a4.43,4.43,0,0,1,1.09,1.82c.07.7.07,1.33.13,2,0,.16,0,.32,0,.47a1.53,1.53,0,0,0,.06.25h0l.24.07.49.14a4.5,4.5,0,0,1,.51.18l.15.09a.52.52,0,0,1,.22.23h0l.07.06c.21.2.49.39.74.59,1.06.76,2.14,1.51,3.23,2.24l0,0,0,0,1,1,7.65,0c-.3-1.64-1.13-3.37-2.7-3.78a11.56,11.56,0,0,0-2.79-.11c-.23,0-.49,0-.67.06h0s0,0,0,0a.36.36,0,0,1-.24.1.45.45,0,0,1-.16,0l-.18,0-.11,0a.76.76,0,0,1-.2-.08,8.64,8.64,0,0,1-1.33-.79,9.89,9.89,0,0,1-1.17-1,5.39,5.39,0,0,1-.51-.63,5.52,5.52,0,0,1-.34-.71l-.6-1.37L105.31,92l-.38-.87-2-4.52v0h0v0l-.28-.65-.28-.65a8.64,8.64,0,0,1-.5-1.43,2.25,2.25,0,0,0-.05-.22h0c-.06-.28-.12-.51-.17-.79v-.08a16.4,16.4,0,0,1-.23-1.85,7.13,7.13,0,0,1,0-1.53,1.94,1.94,0,0,1,.05-.2,2.45,2.45,0,0,1,.08-.39h0c.06-.29.14-.57.2-.85l.77-2.84a40.06,40.06,0,0,0,1.35-5.68c.18-1.6.28-3.39.34-5.07,0-.22,0-.43,0-.65h0a1.48,1.48,0,0,0,0-.21A13.64,13.64,0,0,0,103,64a17.46,17.46,0,0,1,5.47-2.29c1-.29,1.91-.49,2.86-.74a26.84,26.84,0,0,1,3-.54,13.48,13.48,0,0,1,3-.05,2.67,2.67,0,0,1,.83.27,3.27,3.27,0,0,1,.65.51c.38.34.71.71,1,1.07s.66.72,1,1a2,2,0,0,0,.26.2l.08,0h.15c.23,0,.47,0,.72,0,.48,0,1-.05,1.47-.06.2.06.32-.21.44-.4s.15-.33.22-.5a5.07,5.07,0,0,1-1-.08,2.87,2.87,0,0,1-1.78-1.07,3,3,0,0,0,1.82.82,4.83,4.83,0,0,0,1-.05,3.56,3.56,0,0,0,.89-.19c1-1.13,1.89-2.27,2.87-3.38C127.59,58,127.2,57.46,126.84,56.86ZM23.48,72.28c-.21,0-.43-.35-.5-.58s.15-.52.46-.54.24.37.37.54C23.71,71.94,23.93,72.35,23.48,72.28ZM19.24,87.13c-.37-.1-.65-.5-.82-.65-.07-1,.67-1.92,1.39-1.91a.92.92,0,0,1,.69.56C20.65,85.79,19.71,87.26,19.24,87.13Zm4.83-3.07A1.73,1.73,0,0,1,23,85a1.59,1.59,0,0,1-1.34-.45,1.5,1.5,0,0,1,.21-1.35,1.57,1.57,0,0,1,2-.3C24,83.28,24.21,83.76,24.07,84.06Zm55.21,1.06a.91.91,0,0,1-.86-.21,1,1,0,0,1,.35-1.63,1.92,1.92,0,0,1,.92-.11A1.3,1.3,0,0,1,79.28,85.12Zm1.37-4.62a1.75,1.75,0,0,1-1.3.35c-.28-.1-.44-.66-.36-1,.14-.7.81-1,1.54-1.19.23.23.64.42.64.69A1.68,1.68,0,0,1,80.65,80.5ZM97,45.58c1,0,1.74.48,1.62,1.35-.06.47-.21,1.73-1,1.44S96.43,47.05,96,46.52C96,45.51,96.49,45.61,97,45.58Zm1.82,7c0,.17-.34.44-.57.5-.64.12-1.21,0-1.3-.64,0-.21.24-.47.32-.6C98.16,51.74,98.83,52.1,98.82,52.6Zm-9.48-3.24c.06.48-.46.36-.68.48-.68-.12-1.42-.1-1.52-.87-.08-.54.41-.64.85-.58C88.62,48.47,89.28,48.63,89.34,49.36Zm-2.45-4.59c.56.12,1.29.22,1.35,1-.22.72-.79.76-1.38.69s-1.28-.47-1.27-1.15C85.6,44.43,86.43,44.67,86.89,44.77ZM77,47.59l2,.45c-.82.45.1,1.15-.26,1.77C77.74,49.32,75.4,50.05,77,47.59Zm-1.14,2.23c1,0,1.74.49,1.62,1.42-.06.49-.21,1.82-1,1.52s-1.23-1.39-1.67-1.95C74.8,49.75,75.32,49.84,75.83,49.82ZM65.72,49c.55.12,1.3.23,1.35,1-.22.76-.79.8-1.39.73a1.26,1.26,0,0,1-1.27-1.21C64.42,48.59,65.26,48.85,65.72,49Zm-1.94-1-.41.48c-1.63,2.17-2.06,2.15-3.44-.14C61.21,48.1,62.44,47.52,63.78,47.92Zm-5.36,1c.65,0,1.39.33,1.34,1.07a1.32,1.32,0,0,1-1.52,1.18c-.77,0-1-.62-1.24-1.15A1.22,1.22,0,0,1,58.42,48.93Zm-18.86,0c.55-.41,1-.21,1.34.7l-1.49.09C39.45,49.45,39.41,49.05,39.56,48.93ZM38.24,59.66c.06.55,0,1-.81,1-.86-.57-1.71-1.19-1.67-2.44,0-.92.72-1,1.36-.9C38.59,57.51,38.14,58.73,38.24,59.66Zm1.39,4.53c.1,1.14-1,.66-1.45.8-1.12.12-1.93,0-2-1.24s.91-1.32,1.76-1.4C39.33,62.22,39.55,63.36,39.63,64.19ZM35.48,54.1a3.74,3.74,0,0,0-.25-.29c.07-.31.14-.6.23-1l1.14.08c0,.17,0,.33.07.49Zm2.71-5.33c-.44,1.21-1.06,1.3-1.77.83-.17-.12-.17-.47-.25-.72Zm-.85,2.56-3,1A1.85,1.85,0,0,1,37.34,51.33ZM33,53.85a6.4,6.4,0,0,1,1.3.41c.24.14.34.51.5.77a2.86,2.86,0,0,1-.77.28.49.49,0,0,1-.3-.15h0c-.82.08-1.67.33-1.78.14C31.28,54.07,32.9,54.31,33,53.85Zm-4.28,1.49c.15-.58.31-1.13.45-1.64,1-.07,1.06.61,1,1.13s-.45.81-1.08.83l-.43,0C28.7,55.53,28.72,55.44,28.74,55.34Zm-.91,6.48c-.66,0-1.42,0-1.46-.8-.05-.67.62-.73,1.09-.63s1.47-.16,1.49.79C29,61.86,28.33,61.8,27.83,61.82ZM26.77,75.56c-.85-.14-1-.82-1-1.53,0-.43.08-1,.61-.85.94.18.55,1.09.81,1.62C27.22,75.17,27.21,75.64,26.77,75.56Zm.17,7c.72-.57,1.25-1.05,2.06-1C28.85,83,28.69,83.09,26.94,82.51Zm3.19-17a1.07,1.07,0,0,1-1.19-.94c.12-.6.67-.68,1.14-.66s1.21.28,1.19.94S30.62,65.51,30.13,65.52Zm1.57,8.29h0a.86.86,0,0,1-.26-.24,1,1,0,0,1-.16-.71c.07-.43.22-.9.75-.73a5.14,5.14,0,0,1,.56.18h0a6.87,6.87,0,0,1,1.28.41c.24.14.35.5.51.76a2.37,2.37,0,0,1-.78.28.44.44,0,0,1-.29-.15h0l-.34,0a.86.86,0,0,1-.75.31A1.27,1.27,0,0,1,31.7,73.81ZM32.82,78c0-.84.28-1.31,1.2-1.2.29.47.57.94.84,1.4C34.05,78.82,33.5,77.84,32.82,78ZM35,72.54l-.25-.29c.07-.3.14-.59.23-1l1.14.08c0,.17,0,.33.06.48C35.82,72.06,35.42,72.3,35,72.54Zm-1.15-1.78a1.84,1.84,0,0,1,3-1ZM36,68.05c-.17-.11-.16-.48-.24-.72l2-.11C37.29,68.43,36.67,68.51,36,68.05Zm3.54,8c-.24,1.07-1,1.32-2,1.11.41-1.13-.69-2.61.8-3.49C39.59,74,39.77,74.89,39.5,76ZM39,68.17c0-.27,0-.67.15-.78.56-.42,1-.23,1.34.68Zm.58-12.28c-.42,0-.88.06-1.08-.48-.34-.92,1.83-3.93,3.37-3.88.11,0,.43.53.78,1s-.06.89-.35,1.09C41.28,54.26,41.23,56.05,39.54,55.89Zm3.83,1.61c-.11.76-.8.88-1.65.91-.65.1-.84-.52-.8-1,.06-.72.76-.74,1.31-.74S43.5,56.71,43.37,57.5Zm-2.72,3.38c-.17-.92.59-.81,1.15-.72.82.13,1.61.36,1.53,1.44a2,2,0,0,1-1.49,1.66C40.76,62.79,40.8,61.74,40.65,60.88Zm4.71,4.74c-.27.71.17,2-1.1,2a2,2,0,0,1-2.16-1.15,4.2,4.2,0,0,1,2.5-1.81C45.25,64.41,45.52,65.18,45.36,65.62Zm-.62-10.25c-.81,0-1.84-.32-1.84-1.11,0-1.09,1.12-.33,1.65-.59.75.17,1.87-.19,1.76,1C46.24,55.61,45.35,55.39,44.74,55.37Zm3.21-3a2.1,2.1,0,0,1-2.2-1c-.37-.81.29-1.32.88-1.44a1.82,1.82,0,0,0,1.55-1.17,1.34,1.34,0,0,1-.2-.21c.61-1.45,1.62-1.24,2.73-.66a.39.39,0,0,0,.06.33,2.3,2.3,0,0,1,2.44,1.27.24.24,0,0,1,.07.21c.51.39,1.18.92.43,1.47-1,.76-1.8.09-2.32-.88L51,49.47l-.46.32c-.16.58-.71.74-1.11,1.06C49.68,52.08,49,52.38,48,52.41ZM51,57.51c-.86,0-1.6-.34-1.7-1.23s.76-.73,1.24-.78a1.44,1.44,0,0,1,1.62,1C52.14,57.28,51.65,57.51,51,57.51Zm.3-2.94c-.58-.1-1.32-.13-1.4-1a.64.64,0,0,1,.88-.65c.62.19,1.58.08,1.59,1.08C52.4,54.55,51.83,54.6,51.33,54.57Zm2.21,13.26c-.86-.15-1-.87-1-1.62,0-.45.07-1,.6-.89.93.18.55,1.14.81,1.7C54,67.42,54,67.9,53.54,67.83ZM54.6,53.32c-.65,0-1.42,0-1.47-.85,0-.7.63-.77,1.1-.66s1.47-.17,1.49.83C55.73,53.35,55.1,53.29,54.6,53.32Zm2.3,3.91a1.12,1.12,0,0,1-1.2-1c.14-.64.68-.72,1.16-.69s1.2.29,1.18,1S57.4,57.22,56.9,57.23ZM59,66.12A.94.94,0,0,1,58,65c.07-.45.21-1,.75-.77s1.15.28,1.14,1A.89.89,0,0,1,59,66.12Zm.82-8.67c.12-.65.61-.75,1.13-.72s1.33.22,1.45,1c.1.63-.4.65-.84.68A1.54,1.54,0,0,1,59.8,57.45Zm2.73,5.62c-.56-.19-1.42-.08-1.51-.9-.05-.51.49-.66.94-.58s1.16.2,1.32.9C63.2,62.92,62.89,63.19,62.53,63.07Zm.57-10a.81.81,0,0,1-1-.9c0-.93.58-1.23,1.46-1.05.57.1,1.5-.07,1.35.88S63.87,53,63.1,53.1Zm3.22,17.54c-.6-.3-1.68,0-1.54-1.1.09-.67.4-1.47,1.29-1.48a1.56,1.56,0,0,1,1.67,1.37C67.83,70.27,67,70.5,66.32,70.64Zm.72-4.8c-.44-.18-1.2-.1-1.22-.87,0-.55.53-.65,1-.59s1.25,0,1.24.86C68,65.8,67.58,65.91,67,65.84Zm1.21-3.08c-.69-.06-1.55-.23-1.5-1.11,0-.66.71-.74,1.43-.45.5,0,1.42-.35,1.35.86C69.47,62.92,68.77,62.81,68.25,62.76Zm3.36,6.59c-.59-.3-1.67,0-1.52-1.11.08-.66.39-1.46,1.28-1.47a1.58,1.58,0,0,1,1.68,1.37C73.13,69,72.32,69.2,71.61,69.35Zm1.55-11.94c-.2.48-.7.36-1.12.25-.74-.2-1.43-.7-2.25-.35a2,2,0,0,1,.06.42c0,.62,1.26,1.11.28,1.78A1.11,1.11,0,0,1,68.5,59c-.38-.87-.49-1.84.75-2.25-.32-1.84.56-2,1.93-1.32a10,10,0,0,1,1.42.94C72.94,56.63,73.38,56.94,73.16,57.41Zm.67-5.32c-.25.3-.9,0-1.17-.45-.37-.63-.93-1-1.57-.76-1,.44.06.83.13,1.27.12.74-.29,1-1,1-.56-.38-1.81-.34-1.64-.79.39-1.07-.56-2.07,0-2.9.4-.6,1.17,0,1.78.11,1.1.27,2.32.08,3.23,1A1.18,1.18,0,0,1,73.83,52.09Zm6.1,12.11c-.07.56-.46.82-1.08.84l-.43,0c0-.1,0-.19.07-.29.15-.58.3-1.13.45-1.64C79.9,63,80,63.69,79.93,64.2Zm3.55-10.5h-.31a3.23,3.23,0,0,1-.47.05,2.51,2.51,0,0,1-.88-.09l-.57,0c-.85,1.08.42,1,.78,1.2.61.39,1.18.83.87,1.5s-1.1.43-1.66.07c-1.33-.85-2.22-1-1.71,1.06.12.51-.2.65-.61.59-.61-.09-1.35-.42-1.16-1,.47-1.51-.2-1.53-1.41-1.59s-1.3-1.07-1.65-2.33c1.52.63,2.74,1.1,3.93,1.66.31.15.36.87,1,.39s.25-.84-.12-1.24-.94-1.12-.57-1.73,1-.27,1.49.08l.55-.32a7,7,0,0,1,.69.21,1.83,1.83,0,0,1,.47,0c.68,0,1.34.2,1.46,1a.45.45,0,0,1-.16.49A1.06,1.06,0,0,1,83.48,53.7Zm.79-5a.78.78,0,0,1-1-.84c0-.89.58-1.17,1.46-1,.57.1,1.5-.06,1.35.84S85,48.62,84.27,48.69ZM85.66,51c-.11-.54.45-.61.85-.57.63.06,1.37.19,1.44.9s-.61.36-.92.43C86.33,51.78,85.79,51.53,85.66,51Zm.5,8c-.16-.11-.16-.46-.24-.71l2-.11C87.5,59.36,86.87,59.45,86.16,59Zm-1,3.19,1.13.09.08.49c-.4.24-.8.48-1.2.74a3.5,3.5,0,0,0-.24-.3C85.05,62.88,85.11,62.59,85.21,62.16ZM84,79.29c-.12.35-.64.56-1,.78a.56.56,0,0,1-.45-.2,7.63,7.63,0,0,1,.07-1.79c.08-.3.51-.5.79-.75.3.14.63.21.64.32A3.77,3.77,0,0,1,84,79.29Zm.93-6.15a2.84,2.84,0,0,1-1,0,1.6,1.6,0,0,1,.42-2.2,1,1,0,0,1,.88,0C85.63,71.35,85.43,73,84.94,73.14Zm2.47-3.68a1.93,1.93,0,0,1-1.43.4c-.31-.11-.5-.73-.41-1.12.16-.78.9-1.14,1.7-1.32.27.25.72.47.72.77A1.81,1.81,0,0,1,87.41,69.46Zm1.48,5.72A1,1,0,0,1,88,75a1,1,0,0,1,.35-1.64,2.07,2.07,0,0,1,.92-.11A1.3,1.3,0,0,1,88.89,75.18Zm.27-16.08c0-.27,0-.67.15-.79.55-.41,1-.22,1.34.7Zm2-7.44c.34-.1.74-.33,1-.25a1.36,1.36,0,0,1,.88.68,1,1,0,0,1-.29,1,1.47,1.47,0,0,1-1.18,0C91,52.76,91,52.21,91.19,51.66Zm1.59,12.43c-.59-.3-1.67,0-1.53-1.06.09-.63.4-1.38,1.29-1.39a1.54,1.54,0,0,1,1.67,1.29C94.3,63.73,93.49,63.94,92.78,64.09Zm1.42-6.74c-.56-.18-1.43-.07-1.51-.85,0-.48.48-.63.94-.55s1.15.19,1.31.86A.59.59,0,0,1,94.2,57.35Zm.52-2.13c-.85.13-1.71-.3-1.75-.82a.7.7,0,0,1,.42-.54c.56-.17,1.91.36,1.82.71S94.83,55.08,94.72,55.22ZM97,66.71c-.49-.21-1.16-.28-1.2-1,0-.43.16-.88.72-.8a1.25,1.25,0,0,1,1.22,1.2C97.73,66.51,97.44,66.75,97,66.71Zm-.75-7.14c-.14-.64.65-.82,1-.86.72-.09,1.13.54,1.55.94.06.76-.48.87-1,.93A1.3,1.3,0,0,1,96.23,59.57ZM98.47,63c-.1-.57.37-.7.81-.64s1.13.3,1.14,1c0,.36-.2.66-.91.54C99.19,63.76,98.59,63.62,98.47,63ZM95,83.26a1.54,1.54,0,0,1-1.74-.92c.12-.61.61-.71,1.13-.67.68,0,1.33.2,1.46,1C95.91,83.22,95.41,83.24,95,83.26Zm1.56-5.05a.78.78,0,0,1-1-.83c0-.89.58-1.17,1.47-1,.56.09,1.49-.06,1.34.83S97.3,78.15,96.53,78.21Zm2.76,3c-.7.06-1.24-.19-1.36-.76s.44-.62.85-.58c.62.07,1.36.19,1.43.91S99.6,81.18,99.29,81.25ZM99.12,76c-.71-.09-1.28-.47-1.27-1.15,0-.87.84-.62,1.3-.52s1.3.22,1.36,1C100.29,76,99.71,76,99.12,76ZM103,48c.34-.1.74-.33,1-.25a1.38,1.38,0,0,1,.88.68,1.06,1.06,0,0,1-.3,1,1.52,1.52,0,0,1-1.18,0C102.82,49.09,102.83,48.54,103,48Zm-1.36,9.3c-.22-.23-.44-.71,0-.85a2.17,2.17,0,0,1,2.39.9C103.13,58,102.35,58.05,101.67,57.29Zm.32,5.18c.36-.83,1.79-.33,1.87-1.4-.32,0-.28-.07,0-.13s.23-.14.36-.2l.6,1C104.22,63.08,103.52,64.06,102,62.47Zm1.27-8c-.07-.08.08-.45.2-.48.9-.29,1.46.19,2,1A1.75,1.75,0,0,1,103.26,54.46Zm3.31-2.92c-.86.15-1.71-.29-1.76-.81a.69.69,0,0,1,.43-.54c.56-.17,1.9.36,1.82.71S106.68,51.41,106.57,51.54Zm3.52-2.12c-.64.13-1.21,0-1.3-.62,0-.23.24-.48.31-.62.9-.11,1.58.26,1.56.75C110.66,49.1,110.33,49.37,110.09,49.42Zm3.3,10.29a1.33,1.33,0,0,1-1.73-.13c0-.36-.12-.82.06-1a1.5,1.5,0,0,1,1.07-.58,1.35,1.35,0,0,1,1,.65A1.29,1.29,0,0,1,113.39,59.71Zm1.16-5.27c-.25,0-.46-.4-.59-.51.18-.89.84-1.39,1.39-1.19a.87.87,0,0,1,.36.72C115.63,54.1,115.27,54.59,114.55,54.44Zm.82,4.47a.8.8,0,0,1-.46-.6c0-.59,1.06-1.66,1.43-1.46s.44.54.56.7C116.76,58.4,116,59.06,115.37,58.91Zm8.73-1.72a4.43,4.43,0,0,1-.33,1,10.28,10.28,0,0,1-.49.93,5.88,5.88,0,0,1-1.49,1.54l-.07-.06a8.19,8.19,0,0,1,.78-2,15.49,15.49,0,0,1,1-1.63c.2-.28.38-.58.24-.88a2.63,2.63,0,0,0-.61-.78,5.78,5.78,0,0,1-.55-1.26.94.94,0,0,1-.62.14c-1.5-.84-1.26-1.71-1.26-1.71l1.77,0,.76-.28a3.41,3.41,0,0,1-.34,1.54A3.29,3.29,0,0,1,123.9,55a5,5,0,0,1,.28,1.08A2.51,2.51,0,0,1,124.1,57.19ZM17.18,79.7A3,3,0,0,1,15.27,78,2.51,2.51,0,0,1,15,76a9.45,9.45,0,0,1-1.08.49c.23,1.52.46,3.06.7,4.67a2.65,2.65,0,0,1-2.71-2.36,1.84,1.84,0,0,1,.51-1.58,2.25,2.25,0,0,1,.45-.35,13.92,13.92,0,0,1-2.85.54,10.84,10.84,0,0,1-1.14,0c-.08.3-.17.6-.25.9C8.41,79,8.2,79.71,8,80.4c-.05.17-.28.41-.41.4a1.13,1.13,0,0,1-.7-.31,1.87,1.87,0,0,1-.37-2.16A2.7,2.7,0,0,1,6.65,78a1.58,1.58,0,0,1,1-.81,2.76,2.76,0,0,1-.8-.29c-.41.46-.79.91-1.18,1.3a5,5,0,0,1-.54.49,2,2,0,0,1-1.46.21c-.23,0-.59-.78-.49-1s.38-.66.59-1a3,3,0,0,1,.93-.91,2.16,2.16,0,0,1,1-.28,2.69,2.69,0,0,1-.24-.48,2.54,2.54,0,0,1-.08-1.89A.87.87,0,0,1,6,73a1,1,0,0,1,.61.08,2,2,0,0,0,.68.12,2,2,0,0,0,1.28-.43,2.18,2.18,0,0,0,.74-1.15,2.42,2.42,0,0,0,.13-1.36,1.29,1.29,0,0,0-.87-.84c-.5-.17-1-.35-1.51-.5a8,8,0,0,0-3-.35A3.63,3.63,0,0,0,1.48,70,7.15,7.15,0,0,0,.23,72.75a8,8,0,0,0-.14,3.09A5.66,5.66,0,0,0,.5,77.3a5.17,5.17,0,0,0,.84,1.25,11.4,11.4,0,0,0,5.41,3.08A11.72,11.72,0,0,0,11.7,82c-.89-.57-1.79-1.13-2.65-1.75-.15-.11-.17-.46-.17-.71a2,2,0,0,1,.48-1.38,2.81,2.81,0,0,1,2.13-.82,1.85,1.85,0,0,0-.24.33c-1.14,1.59-.3,2.91.89,4.13l-.18.15a9.09,9.09,0,0,0,1-.25,22.66,22.66,0,0,0,4.54-1.92A2,2,0,0,1,17.18,79.7ZM1.29,75.87a.79.79,0,0,1-.71-.11,1.47,1.47,0,0,1-.2-1,2.37,2.37,0,0,1,1.93-2,2.4,2.4,0,0,1,.4-.06c1.5-.15,2,.85,2.46,1.72L3.93,75C3,75.28,2.15,75.59,1.29,75.87Z"/><path d="M33.33,118.49l2.29.89a6.41,6.41,0,0,1-1.79,3.51A4.44,4.44,0,0,1,30.76,124,4.55,4.55,0,0,1,27,122.23a8.49,8.49,0,0,1-1.64-5.51A9,9,0,0,1,27.05,111a4.67,4.67,0,0,1,3.86-1.79,4.42,4.42,0,0,1,3.3,1.34,5.78,5.78,0,0,1,1.39,2.84l-2.34.69a3.12,3.12,0,0,0-.9-1.78,2.2,2.2,0,0,0-1.58-.62,2.51,2.51,0,0,0-2.12,1.13,6.49,6.49,0,0,0-.82,3.74,7,7,0,0,0,.8,3.85,2.44,2.44,0,0,0,2.08,1.14,2.15,2.15,0,0,0,1.62-.73A4.52,4.52,0,0,0,33.33,118.49Z"/><path d="M37.85,123.76V109.44h2.37v5.63h4.65v-5.63h2.37v14.32H44.87V117.5H40.22v6.26Z"/><path d="M49.89,123.76V109.44H58.6v2.42H52.25V115h5.9v2.41h-5.9v3.88h6.56v2.43Z"/><path d="M61,123.76V109.44h8.71v2.42H63.39V115h5.9v2.41h-5.9v3.88H70v2.43Z"/><path d="M74.8,123.76v-11.9H71.31v-2.42h9.33v2.42H77.16v11.9Z"/><path d="M91.77,123.76H89.2l-1-3.25h-4.7l-1,3.25H80l4.57-14.32h2.51Zm-4.36-5.67-1.62-5.31-1.59,5.31Z"/><path d="M93.22,123.76V109.44h2.36v5.63h4.66v-5.63h2.36v14.32h-2.36V117.5H95.58v6.26Z"/></svg>