<svg id="Layer_1" data-name="Layer 1" xmlns="http://www.w3.org/2000/svg" width="128" height="128" viewBox="0 0 128 128"><title>Artboard 45</title><path d="M32.71,109.44H37a6.31,6.31,0,0,1,2.47.37A4.15,4.15,0,0,1,41.05,111a6.53,6.53,0,0,1,1.1,2.26,12.84,12.84,0,0,1,.4,3.44,11.05,11.05,0,0,1-.42,3.23,6.37,6.37,0,0,1-1.07,2.17,4,4,0,0,1-1.55,1.21,5.83,5.83,0,0,1-2.35.41H32.71Zm2.37,2.42v9.47h1.77a4.71,4.71,0,0,0,1.66-.21,2,2,0,0,0,.84-.65,3.66,3.66,0,0,0,.54-1.37,11.59,11.59,0,0,0,.22-2.47,11.74,11.74,0,0,0-.22-2.51,3.34,3.34,0,0,0-.69-1.44,2.17,2.17,0,0,0-1.12-.69,9,9,0,0,0-1.93-.13Z"/><path d="M44.74,109.44H47.1v7.75a18.81,18.81,0,0,0,.09,2.36,2.42,2.42,0,0,0,.75,1.46,2.26,2.26,0,0,0,1.56.52,2.21,2.21,0,0,0,1.34-.37,1.81,1.81,0,0,0,.71-1,12.36,12.36,0,0,0,.19-2.79v-7.92h2.37V117a20.11,20.11,0,0,1-.31,4.16,3.55,3.55,0,0,1-1.39,2.08,4.7,4.7,0,0,1-2.85.8,5.29,5.29,0,0,1-2.86-.66,3.76,3.76,0,0,1-1.5-1.85,14.35,14.35,0,0,1-.46-4.41Z"/><path d="M56.73,123.76V109.44h2.36v14.32Z"/><path d="M61.59,123.76V109.44H64v6.37l4.8-6.37h3.19L67.52,115l4.66,8.74H69.11L65.87,117,64,119.43v4.33Z"/><path d="M73.6,123.76V109.44h8.71v2.42H76V115h5.9v2.41H76v3.88h6.57v2.43Z"/><path d="M84.74,123.76V109.44h5a6.82,6.82,0,0,1,2.73.39,3,3,0,0,1,1.35,1.33,4.68,4.68,0,0,1,.53,2.28,4.27,4.27,0,0,1-.81,2.71,3.6,3.6,0,0,1-2.29,1.29,5.76,5.76,0,0,1,1.26,1.19A17.24,17.24,0,0,1,93.86,121l1.43,2.8H92.46l-1.72-3.12a18.88,18.88,0,0,0-1.25-2.11,1.89,1.89,0,0,0-.71-.59,3.15,3.15,0,0,0-1.19-.16H87.1v6Zm2.36-8.27h1.76a8.51,8.51,0,0,0,2-.14,1.27,1.27,0,0,0,.71-.57,2,2,0,0,0,.28-1.14,1.91,1.91,0,0,0-.28-1.1,1.35,1.35,0,0,0-.74-.57,9.37,9.37,0,0,0-1.92-.11H87.1Z"/><path d="M38,75.37l.33-.49-1.42-.95-5.23-6.88s.61-13.2,2.24-14.5c2.59-.47,6.38-.49,9.2-1.76-1-2.33-2.83-6.1-3.76-6.75-2.33.67-3.93,1.85-6.69,3.4a25.67,25.67,0,0,0-2.46,1.06,5,5,0,0,0-.41,3.21l-2,16s9.57,11.51,9.57,11.83,3.43-2.42,3.43-2.42Z"/><path d="M94.52,65.19c-5.43-3.1-6.9-7-6.91-7.07-.59.19-1.52.54-2.24.71.09.63,0,.24.2,1.57,1.4,8.41.79,12.72.79,12.72s.2,3.88-4,9.5a73.9,73.9,0,0,1-5.27,6.12c-3.9,4.07-9.63,9.42-9.63,9.42L71,99.31l1.18-1.7,1.29.24.93-1.06,2.1-2.39a21.05,21.05,0,0,1,3.07-3.94C83.28,86.67,91.88,78,94,75.7,94,73.16,94.79,67.4,94.52,65.19Z"/><path d="M119.43,94.14a76.92,76.92,0,0,0-.24-8.48,104.37,104.37,0,0,1-.67-15.78c-3.12-2.08-9.16-6.16-11.4-7.67l-.87-.6.13-.11.45-.43c1.37-1.32,4.74-4.75,5.64-7.65a5.3,5.3,0,0,1-.28,3.56c-.68,1.11-1.22,3-.18,6.47.43-2,3.39-5.12,4.22-9,1.08-5.06-8.24-12.64-8.52-12.85-2.54-3.31-5.93-6.37-10-7.6-8.1-2.34-18-1.6-25.9-.64A17.29,17.29,0,0,1,62.68,32c-7.4-3.28-12.3-2.78-16.44-2.78a48.1,48.1,0,0,1-8.11-4.93,20.82,20.82,0,0,1-5-5.62c-.17-.29-.42-.56-.35-.95a4.41,4.41,0,0,1,2.57-2.47,20,20,0,0,0,4.63-1.13,3.69,3.69,0,0,0,2.07-2,10.06,10.06,0,0,0,.87-5.67,1.64,1.64,0,0,0-2-1.26A22.4,22.4,0,0,0,34,8.33a2.29,2.29,0,0,0-1.23,1.83c0,1.92-1.12,2.91-2.65,3.59-.54.24-1,1.26-1.76.36-.44-.53-.16-.93.17-1.29s1-1.21,1.45-1.66c1.2-1.25,2.42-2.47,3.59-3.74a1.21,1.21,0,0,0,.51-1.08A36.33,36.33,0,0,0,28,9.57c.67-1.32,1.35-2.62,2.1-4.06a1.93,1.93,0,0,0-1.13.62,36.55,36.55,0,0,0-5.49,6.1c-.26.37-.46.78-1,.87a5.31,5.31,0,0,0-3,1.76,7,7,0,0,1-2.39,1.58,44,44,0,0,0-8.45,4.71A1.29,1.29,0,0,0,8.15,23c.53.95.35,2.33,1.72,2.78.06,0,.08.17.12.27.6,1.29,1.14,1.61,2.53,1.23a6.72,6.72,0,0,1,3-.14c1.43.24,2.87.5,4.3.78a18.54,18.54,0,0,0,5.19.62l3.05-1.45,2.33-3.48-1.5,4L26,29.55c1.45,2.49,6.3,8,9.43,10.83,0,0,0,0,0,0,.41.37.8.71,1.15,1h0a7,7,0,0,0,.9.65l0,0c.84.58,1.09.63,2.9,1.76a29.81,29.81,0,0,1,3.7,6.47c2.12,2.78,4,4.69,4,6.33-2.13.32-12.18,2.82-12.45,4.08-.42,2-1.7,3.49,1.51,4.79C41.76,67.24,54,80.15,54,80.15l2,2.37,2.47-3-2.61-1.15.45-.79-1.92-1L42.17,64.26,55.64,64a2.46,2.46,0,0,0,2.43-2.52,6.6,6.6,0,0,1,.41-2.28,9.35,9.35,0,0,1,.36-2.9c.34-1.26.81-2.41,1.13-3.59a9.29,9.29,0,0,0,.36-3.64l.11,0a9.3,9.3,0,0,1,.12,3.79c-.19,1.26-.55,2.48-.74,3.67a10,10,0,0,0,0,2.83c5.88,1.24,21.06.37,27.37-2.37a19.08,19.08,0,0,1-.76-3.41,20.77,20.77,0,0,1,.71-9l.1,0c-.77,2.92,0,5.83.43,8.75s1.56,5.88,3.77,7.78a17.79,17.79,0,0,0,3.64,2.67l3.71,1.42c2.77,1.25,5.55,2.52,8.24,4a29.28,29.28,0,0,1,3.85,2.52,6.39,6.39,0,0,1,1.6,1.75c2.33,4.35,3.06,11.78,3.22,13.08h0a33.42,33.42,0,0,1-.49,12.7l3.3.91.22-1.73,1.36-.17ZM25.1,17.35a2.3,2.3,0,0,1-1.24,1.09,2.29,2.29,0,0,1-1.61-.36.35.35,0,0,1-.12-.46,2.3,2.3,0,0,1,1.24-1.09,2.27,2.27,0,0,1,1.61.36A.34.34,0,0,1,25.1,17.35Z"/><polygon points="37.79 80.21 39.51 83.37 42.3 79.11 41.1 78.24 37.79 80.21"/><polygon points="56.26 82.97 58.6 85.72 60.45 80.97 59.1 80.37 56.26 82.97"/><polygon points="65.26 102.08 70.35 102.19 70.45 100.71 67.03 98.94 65.26 102.08"/><polygon points="113.03 103.04 118.12 103.15 118.22 101.67 114.8 99.9 113.03 103.04"/></svg>