<svg id="Layer_1" data-name="Layer 1" xmlns="http://www.w3.org/2000/svg" width="128" height="128" viewBox="0 0 128 128"><title>Artboard 46</title><path d="M48.3,118.49l2.29.89a6.41,6.41,0,0,1-1.78,3.51A4.48,4.48,0,0,1,45.73,124,4.55,4.55,0,0,1,42,122.23a8.55,8.55,0,0,1-1.64-5.51A9,9,0,0,1,42,111a4.68,4.68,0,0,1,3.86-1.79,4.46,4.46,0,0,1,3.31,1.34,6,6,0,0,1,1.39,2.84l-2.35.69a3.17,3.17,0,0,0-.89-1.78,2.24,2.24,0,0,0-1.58-.62,2.51,2.51,0,0,0-2.13,1.13,6.49,6.49,0,0,0-.82,3.74,7,7,0,0,0,.8,3.85,2.45,2.45,0,0,0,2.08,1.14,2.12,2.12,0,0,0,1.62-.73A4.52,4.52,0,0,0,48.3,118.49Z"/><path d="M52.83,123.76V109.44h5a6.89,6.89,0,0,1,2.73.39,3,3,0,0,1,1.35,1.33,4.68,4.68,0,0,1,.52,2.28,4.26,4.26,0,0,1-.8,2.71,3.62,3.62,0,0,1-2.29,1.29,5.76,5.76,0,0,1,1.26,1.19A18.4,18.4,0,0,1,62,121l1.42,2.8H60.54l-1.71-3.12a20,20,0,0,0-1.26-2.11,1.8,1.8,0,0,0-.7-.59,3.19,3.19,0,0,0-1.19-.16h-.49v6Zm2.36-8.27H57a8.56,8.56,0,0,0,2-.14,1.27,1.27,0,0,0,.71-.57,2.14,2.14,0,0,0,.27-1.14,2,2,0,0,0-.27-1.1A1.35,1.35,0,0,0,59,112a9.43,9.43,0,0,0-1.93-.11H55.19Z"/><path d="M64.37,116.69a10.28,10.28,0,0,1,.76-4.22,5.63,5.63,0,0,1,2-2.46,5.22,5.22,0,0,1,3-.81,5.07,5.07,0,0,1,4.1,1.92,8.38,8.38,0,0,1,1.59,5.48,8.52,8.52,0,0,1-1.68,5.61,4.92,4.92,0,0,1-4,1.79,5,5,0,0,1-4-1.77A8.41,8.41,0,0,1,64.37,116.69Zm2.44-.1a6.11,6.11,0,0,0,.94,3.7,2.83,2.83,0,0,0,2.33,1.24,2.79,2.79,0,0,0,2.32-1.23,6.27,6.27,0,0,0,.92-3.76,6.1,6.1,0,0,0-.9-3.68,2.76,2.76,0,0,0-2.34-1.19,2.84,2.84,0,0,0-2.36,1.2A6.21,6.21,0,0,0,66.81,116.59Z"/><path d="M85.33,118.49l2.3.89a6.41,6.41,0,0,1-1.79,3.51A4.46,4.46,0,0,1,82.77,124a4.55,4.55,0,0,1-3.72-1.77,8.49,8.49,0,0,1-1.64-5.51A9,9,0,0,1,79.06,111a4.66,4.66,0,0,1,3.86-1.79,4.42,4.42,0,0,1,3.3,1.34,5.87,5.87,0,0,1,1.39,2.84l-2.34.69a3.12,3.12,0,0,0-.9-1.78,2.22,2.22,0,0,0-1.58-.62,2.5,2.5,0,0,0-2.12,1.13,6.49,6.49,0,0,0-.82,3.74,6.9,6.9,0,0,0,.8,3.85,2.43,2.43,0,0,0,2.08,1.14,2.15,2.15,0,0,0,1.62-.73A4.61,4.61,0,0,0,85.33,118.49Z"/><path d="M87.36,60.69A8.1,8.1,0,0,0,85.72,60a4.69,4.69,0,0,0-1.79,0,18.88,18.88,0,0,0-3.34,1l.13.13A9,9,0,0,0,83,62.65a14.27,14.27,0,0,0,2.57,1,19.62,19.62,0,0,0,2.74.41c1.34.17,2.69.33,4,.48a4.18,4.18,0,0,1-.57-.47,2.45,2.45,0,0,1-.36-.36,3.35,3.35,0,0,0-.3-.35,5.49,5.49,0,0,0-.66-.55C89.43,62.09,88.44,61.3,87.36,60.69Z"/><path d="M127.92,66.32a2,2,0,0,0-.84-.9,10,10,0,0,0-1.31-.68,7.24,7.24,0,0,0-2.64-1.22,7.65,7.65,0,0,0-1.45-.08,3.54,3.54,0,0,0-1.47.32,28.86,28.86,0,0,0-2.5,1.45l0,0h-.06a54.23,54.23,0,0,0-8.83,0c-2.93.21-5.85.62-8.76,1.06l-.12,0-.14-.06a14.19,14.19,0,0,0-1.44-.62,9.91,9.91,0,0,0-1.48-.42,5.23,5.23,0,0,0-1.47-.08,2.34,2.34,0,0,0-1.17.45l-.19.19-.23,0c-1.89-.22-3.75-.5-5.63-.74a20.46,20.46,0,0,1-2.83-.49,12.56,12.56,0,0,1-2.71-1.11,9.28,9.28,0,0,1-2.34-1.76,13.06,13.06,0,0,0-1-1,6.67,6.67,0,0,0-1.12-.79,14.2,14.2,0,0,0-5.09-1.67l-.06.07c-2.25-1.18-4.54-2.28-6.81-3.41s-4.51-2.29-6.8-3.33a16.66,16.66,0,0,0-3.53-1.1c-1.23-.29-2.48-.53-3.73-.73a35,35,0,0,0-7.57-.34h-.1l-.14-.08a10.88,10.88,0,0,0-3.46-.94h-.1l-.06,0A16.87,16.87,0,0,0,39,47.62l-1.76-.55c-.59-.18-1.19-.34-1.79-.49a14,14,0,0,0-2.26-.14,9.5,9.5,0,0,0-4.09-2.91l0-.11a12,12,0,0,1,2.61.71c.23.11.47.19.7.31-.19-.46-.34-1-.57-1.44a15,15,0,0,0-1-1.65,8.2,8.2,0,0,0-1.17-1.52l.07-.09a10.84,10.84,0,0,1,2.81,2.8,5.08,5.08,0,0,1,1,1.82,2.76,2.76,0,0,1-.08,1.58,5.79,5.79,0,0,1,1.62-1.16,15.76,15.76,0,0,1,2.33-.94,24.71,24.71,0,0,1,4.9-1.12,83.42,83.42,0,0,1,10-.7c6.72,0,13.32.7,20,1.21,3.35.37,6.63,1,9.9,1.65l4.88,1,2.45.5c.32.07.64.13.94.17l-.75-.4L87.59,45c-1.34-.64-2.71-1.27-4.07-1.9.41-.23,1-.59.93-.74s-2.36-.06-2.29-.09a7.91,7.91,0,0,0,.46-1,7.66,7.66,0,0,0-2.43.23c.07-.44-.74-.86-1.68-.67l-2.66-1.15c.5-.35.87-.7.71-1s-1.9-.27-3.28-.14h0c.75-.53,1.33-1.07,1-1.37s-2.58.12-3.63.39l-1.29-.46c.26-.39.38-.71.17-.77A2.24,2.24,0,0,0,68.18,36a3.46,3.46,0,0,0-1.21.38c-.21-.07-.42-.12-.63-.18.33-.69.53-1.33.25-1.57s-1.81.26-2.93.83l-.41-.1c.28-.74.45-1.48.07-1.62s-1.67.41-2.79,1c-1.11-.24-2.23-.47-3.35-.66.22-.75.32-1.38,0-1.45a6.36,6.36,0,0,0-2.48,1.06c-.82-.12-1.64-.23-2.47-.33,0-.65-.18-1.17-.52-1.26-.5-.14-1.18.34-1.83,1L49,33c0-.8-.19-1.68-.54-1.69s-1.06.68-1.58,1.53l-1.26-.07c0-.51,0-1-.33-1.13s-1.08.36-1.71,1l-1.47,0c.05-.36.06-.64,0-.7s-.74.2-1.35.68c-1.69,0-3.37,0-5,.07a1,1,0,0,0-.12-.34c-.35-.44-1.06-.14-1.43.11a.84.84,0,0,0-.26.37c-.75.08-1.49.17-2.24.28-.29-.4-.61-.76-.84-.81-.56-.11-1,.63-1.11,1.11h0c-.63.11-1.25.23-1.87.36a1.81,1.81,0,0,0-1-.21c-.24.07-.32.27-.34.52l-1.29.3-.32.1a3,3,0,0,0-1.5-.46c-.41.14-.34.61-.35,1.08l-.95.38c-.61-.32-1.64-.84-2-.72-.54.18-.24,1-.42,1.51l.28.3a16.42,16.42,0,0,0-3.2,2.4,11.32,11.32,0,0,0-2.64,4A16.74,16.74,0,0,0,13,47.7a11.3,11.3,0,0,0,.61,4.82,28.33,28.33,0,0,0,2.31,4.38,20,20,0,0,0,.27,3.2A10,10,0,0,0,17.1,63l1.75,3.4L16.3,63.57a29.13,29.13,0,0,1-1.91-2.64A2.88,2.88,0,0,0,12,59.51a5.06,5.06,0,0,0-2.94,1,3.2,3.2,0,0,0-1,1.11A5.19,5.19,0,0,1,7.07,63c-.78.87-1.84,1.35-2.31,2.09A15.63,15.63,0,0,0,3.59,68c-.18.51-.9.84-1.13,1.37S1.22,71,1,71.5c.16,0,.41.41.27.63C1.83,71.84,3,71,3.57,70.63l.07.09-.2.2a4.59,4.59,0,0,0-1,1.52l-.26.66-.25.32a.65.65,0,0,1,.44.08c.21.13.24.2.24.2A11.89,11.89,0,0,1,4,72.45l.86-.59c.29-.2.61-.36.89-.59l.1,0a5.16,5.16,0,0,1-.73,1.29c.43.11.53.34.59.81.17-.14.37-.1.54-.25a9.76,9.76,0,0,0,.84-.86c.56-.56,1.15-1,1.77-1.6l.11,0a3.59,3.59,0,0,1-.28,1.14c.23,0,.64.37.61.83a8.55,8.55,0,0,0,1.55-1.81,3.93,3.93,0,0,0,.26-1.19c.05-.53.15-1,.23-1.61l.1,0A3.38,3.38,0,0,1,12,69.48c.58.35,1.39.81,1.89,1a9.22,9.22,0,0,0,1.72.73,7.16,7.16,0,0,0,3.66.11,8.91,8.91,0,0,0,1.61-.88,10.3,10.3,0,0,0,1.47-1.14c.93-.75,1-2.15,2.34-3.21l.08-.07c-.11-.75-.17-1.51-.21-2.26-.07-1.11.07-2.23.07-3.34a8.32,8.32,0,0,0-.11-1.6A5.5,5.5,0,0,0,24,57.39a8.71,8.71,0,0,0-2.13-2.49l.06-.09a8.37,8.37,0,0,1,2.53,2.29,5.6,5.6,0,0,1,.78,1.59,8.47,8.47,0,0,1,.3,1.74,18.37,18.37,0,0,1,.15,3.39,16,16,0,0,1-.42,2.75,10.33,10.33,0,0,0,2.43,2.84,15.66,15.66,0,0,0,3.57,2.08c2.55,1.14,5.09,2.4,7.64,3.27s5.33,1.66,8,2.55c2.46.8,4.9,1.67,7.38,2.37.41-.34.82-.7,1.26-1a9.25,9.25,0,0,1,2-1c.73-.23,1.4-.4,2.1-.56s3.67-1.3,3.25-3.62c-.18-1-.44-2-.73-3l.1,0a11.41,11.41,0,0,1,1.5,2.83A3.86,3.86,0,0,1,64,74.92c-.06.45-.05.8-.31,1-4.58,3.42-5.54,1.86-7.53,3.66a18.86,18.86,0,0,0-2.93,2.86A5.49,5.49,0,0,0,51.87,86a8,8,0,0,0,.2,2,6.19,6.19,0,0,0,.71,1.88,3.5,3.5,0,0,0,1.43,1.37c.61.38,1.22.74,1.84,1.07A11.14,11.14,0,0,0,60,93.66a9.46,9.46,0,0,0,2,0,5,5,0,0,1,1.16,0,1.91,1.91,0,0,1,.68.22.89.89,0,0,1,.41,1.07l-.09.22L64,95.2c-.72.23-1.46.57-2.2.88l-.24.1a.64.64,0,0,1,.3.33,4,4,0,0,1,.14.42c1-.23,2.09-.45,3.15-.62,0-.31.05-.61.09-.91h.11c.13,1.06.24,2.13.33,3.19a4,4,0,0,1,.65,0,4.2,4.2,0,0,1,.58.18,8.18,8.18,0,0,1,.23-1.07c.17-.35.25-1.46.43-1.66l.1,0a16.13,16.13,0,0,0,1.43,1.9,3,3,0,0,1,.37,2.09,2.43,2.43,0,0,1,.77-.19,1,1,0,0,1,.68.17v-.23L70.83,99a22.64,22.64,0,0,1-.55-3.24l.1,0a6.31,6.31,0,0,1,1.4,1.7c.22.41.48.62.68,1a1.59,1.59,0,0,1,.45-.61,1.34,1.34,0,0,1,.74-.32c-.55-.79-1-1.69-1.53-2.52l.09-.06c.84.84,1.65,1.71,2.45,2.61a1.37,1.37,0,0,1,.89-1.19c-1-.81-2-1.63-3-2.49h0l0,0c-.68-.66-1.33-1.34-2-2s-1.33-1.34-2-2l-.15-.15,0-.14a3.36,3.36,0,0,0-.74-1.42,1.29,1.29,0,0,0-.54-.44c-.06,0,0,0-.14,0a1.27,1.27,0,0,1-.34,0,1.52,1.52,0,0,1-.54-.27A12.54,12.54,0,0,1,64.27,85s-4.7-1.52-5.63-1.82V83a21.67,21.67,0,0,1,3,0,3.54,3.54,0,0,1,1.54.38c.39.25,1.33.94,1.38.94a2.61,2.61,0,0,1,.51-.09q.5,0,.93-.09a2.58,2.58,0,0,0,.42-.13A1.91,1.91,0,0,1,67,84a6.42,6.42,0,0,1,2,.23c.6.14,1.28.38,1.79.52a.48.48,0,0,0,.48-.12c.14-.1.32-.28.53-.46a14.92,14.92,0,0,0-.39-3.71c-.27-1.33-.63-2.65-1-4l.1,0a21.48,21.48,0,0,1,1.62,3.82,17.35,17.35,0,0,1,.5,2,8.87,8.87,0,0,1,.12,2.07c.48,0,1-.1,1.18-.14a3.84,3.84,0,0,0,.46-.11,2.09,2.09,0,0,0,.4-.16l.28-.14.24.35A5.53,5.53,0,0,0,76,85c.25.24.52.46.79.69a4.13,4.13,0,0,0,2,1h.06a8.53,8.53,0,0,0,2.62.78,20.29,20.29,0,0,0,2.62.31c.39,0,.88,0,1.34,0l1.35,0a12.87,12.87,0,0,0,2.64-.39,5.12,5.12,0,0,1-2.72-.86,7.83,7.83,0,0,1-2.16-2.36,26.36,26.36,0,0,1-2.65-5.61l.11,0a33.94,33.94,0,0,0,3.25,5.12,18,18,0,0,0,2.12,2,13.39,13.39,0,0,0,2.44,1.66s4,1.33,6,2a20.77,20.77,0,0,1,3,1.45l2.9,1.57c1,.51,1.94,1,2.91,1.43a13.56,13.56,0,0,0,3,.8,32.4,32.4,0,0,0,6.46.33h.11l.09,0a44.65,44.65,0,0,0,5.27,1.33,17.83,17.83,0,0,0,2.68.33c.83.16,1.41-.6,1.59-1.39l0-.17.13,0a2,2,0,0,0,.78-.49,1.48,1.48,0,0,0,.29-.37.42.42,0,0,0,.07-.37,2.27,2.27,0,0,0-.61-.95,10.58,10.58,0,0,0,.9-1.92c-.07-.13-.78.84-1.57,1.27a16,16,0,0,0-1.64-1.34,29.53,29.53,0,0,0,0-4.42c-.22-.15-.59,2.23-1.71,3l-.16.16c-.61-.42-1.74-1.26-3-2.32a3.93,3.93,0,0,0-.24-1.35c-.1,0-.2.37-.41.81-.5-.41-1-.85-1.54-1.31a5.24,5.24,0,0,0-.05-1.62c-.11-.06-.27.49-.6,1l-.35-.32c-.49-.46-.62-1.25-1-1.61l-.21-.15a13,13,0,0,0-.05-2.66c-.15-.1-.39,1.29-1,2.13-.13,0-.26-.12-.41-.17l-1.22-.46a2.51,2.51,0,0,0-.18-.92c-.09,0-.16.32-.33.72l-.25-.1A10.51,10.51,0,0,1,107.59,80c-.57-.43-1.09-.9-1.63-1.35s-1.43-5-1.8-5.58a6.18,6.18,0,0,1-.39-.77l.22-.11c.26-.13.51-.26.76-.41l.34-.21.15-.1a1.25,1.25,0,0,1,.34-.19,2.38,2.38,0,0,1,1.14,0c.12.54.26,1,.38,1s.24-.38.36-.87l.23.06c.75.24,1.47.53,2.17.82.15.86.66,3.52,1,3.58s.83-2.83,1-3.63l.61-.3.26-.14c.3.83.74,2,1,2S114,72,114,71.12l.29-.15.4-.22c.24.64.53,1.35.69,1.35s.24-1.11.26-1.86l1.09-.6c.13.59.28,1.17.41,1.2s.4-1,.54-1.7a2,2,0,0,1,1.2-.09c.17.85.44,2,.64,2s.4-.89.56-1.72a8.14,8.14,0,0,0,1.11.18,9.15,9.15,0,0,0,2.52-.17c.14.52.29,1,.41,1s.32-.57.47-1.24a10.11,10.11,0,0,0,1.72-.76c.14.56.3,1,.43,1.06s.4-.88.55-1.71C127.79,67.24,128.17,66.78,127.92,66.32Zm-31.71.19a1.81,1.81,0,0,1,1.53.75,1.84,1.84,0,0,1-1.53.75,1.92,1.92,0,0,1-1.54-.75A1.89,1.89,0,0,1,96.21,66.51Zm8.1,15.21q1.89,1.22,3.81,2.37c1.34.79,2.67,1.6,4,2.25a8.69,8.69,0,0,0,1,.41l1.14.37c.48.18,3.65,1.66,4.3,2.08a8.27,8.27,0,0,1,1,.73,8.83,8.83,0,0,1,1.07,1,2.36,2.36,0,0,1-.12.28,2.52,2.52,0,0,1-2,1.14,11,11,0,0,1-1.14.12,15.87,15.87,0,0,0,0-3.27c-.21-.14-.58,2.24-1.7,3.06a.56.56,0,0,0-.23.27l-1.11,0-1-.1a2.59,2.59,0,0,0,0-.94c-.08-.06-.24.39-.51.86-.2,0-.4,0-.6-.09a12,12,0,0,1-1.39-.42,5.14,5.14,0,0,0,.42-1.38c-.09-.1-.55.66-1.18,1.09a17.46,17.46,0,0,1-2.51-1.41,4.93,4.93,0,0,0,.38-1.28c-.08-.09-.44.48-.94.91l-.5-.33-.1-.07-.05-.07a4.72,4.72,0,0,0-1.73-1.68,9.1,9.1,0,0,0-.06-2.1c-.13-.08-.33.93-.78,1.75-.15,0-.29-.1-.45-.13-.43-.08-.89-.12-1.36-.16a4.22,4.22,0,0,0,.33-1.15c-.08-.1-.51.61-1.11,1a5.53,5.53,0,0,1-1.75-1.09L99,85.48a4.23,4.23,0,0,0,.36-1.23c-.07-.08-.43.47-.92.9a21.33,21.33,0,0,1-2.59-1.45,8.7,8.7,0,0,1-2.88-3.2l-.1-.18.06-.18a8.55,8.55,0,0,1,2-3.41,13.64,13.64,0,0,1,2.37-2.06c-2.33-.59-4.4-1.74-6.62-2.1A7.81,7.81,0,0,0,84.35,75l-.08-.08a8.81,8.81,0,0,1,2.84-2.18A6.8,6.8,0,0,1,90.68,72c2.45.3,4.64,1.36,6.88,1.83a4.43,4.43,0,0,0,1.61.11l.12,0c.12.55.27,1.06.39,1.08s.31-.61.45-1.24c.23-.06.46-.12.68-.2s.44-.15.66-.24c.13.62.29,1.25.43,1.28s.39-.94.53-1.67l.32-.14c.12.81.33,2.12.52,3.88A17.78,17.78,0,0,0,104.31,81.72Z"/><path d="M61.13,96.4s-.93.44-1.5,0a2.07,2.07,0,0,0,1.88.68.82.82,0,0,0-.08-.44A.52.52,0,0,0,61.13,96.4Z"/><path d="M65.76,99s.24,1-.46,1.42c1.44-.6,1.39-1.53,1.39-1.53a1.28,1.28,0,0,0-.56-.09A.49.49,0,0,0,65.76,99Z"/><path d="M8.79,72.25a.43.43,0,0,0-.36,0s-.14.86-.81.79a1.43,1.43,0,0,0,1.52-.42A1.07,1.07,0,0,0,8.79,72.25Z"/><path d="M4.83,73s-.32.79-1,.55a1.33,1.33,0,0,0,1.54,0,1,1,0,0,0-.26-.41A.41.41,0,0,0,4.83,73Z"/><path d="M1.8,73.67s.09.72-.47.8c.74.15,1.13-.65,1.13-.65a.93.93,0,0,0-.36-.2A.35.35,0,0,0,1.8,73.67Z"/><path d="M.8,71.65s-.43.47-.8.14a1,1,0,0,0,1.06.39A.8.8,0,0,0,1,71.83.3.3,0,0,0,.8,71.65Z"/><path d="M69.81,100.5s.24,1.06-.46,1.42c1.43-.6,1.39-1.53,1.39-1.53a1.19,1.19,0,0,0-.56-.08A.47.47,0,0,0,69.81,100.5Z"/><path d="M73.11,98.33a.54.54,0,0,0-.22.41s1,.62.56,1.39c.93-1.46.25-2.12.25-2.12A1.68,1.68,0,0,0,73.11,98.33Z"/><path d="M75.62,96.68a1.24,1.24,0,0,0-.45.35.49.49,0,0,0-.12.4s.94.56.72,1.31C76.32,97.29,75.62,96.68,75.62,96.68Z"/></svg>