<svg id="Layer_1" data-name="Layer 1" xmlns="http://www.w3.org/2000/svg" width="128" height="128" viewBox="0 0 128 128"><title>Artboard 48</title><path d="M36.38,124V109.68h8.71v2.43H38.74v3.17h5.9v2.41h-5.9v3.89H45.3V124Z"/><path d="M47.57,124V109.8h2.37v11.78h5.9V124Z"/><path d="M68.32,124H65.75l-1-3.24H60l-1,3.24H56.53l4.58-14.32h2.51ZM64,118.34,62.34,113l-1.59,5.32Z"/><path d="M69.79,124V109.68H72.1l4.8,9.56v-9.56h2.21V124H76.73L72,114.66V124Z"/><path d="M81.79,109.68h4.32a6.47,6.47,0,0,1,2.47.37,4.1,4.1,0,0,1,1.54,1.24,6.31,6.31,0,0,1,1.1,2.25,12.52,12.52,0,0,1,.4,3.45,11.1,11.1,0,0,1-.42,3.23,6.55,6.55,0,0,1-1.06,2.17,4.15,4.15,0,0,1-1.56,1.2,5.78,5.78,0,0,1-2.34.41H81.79Zm2.36,2.43v9.47h1.78a4.42,4.42,0,0,0,1.65-.22,1.88,1.88,0,0,0,.84-.65,3.67,3.67,0,0,0,.55-1.37,11.58,11.58,0,0,0,.21-2.46,11.06,11.06,0,0,0-.22-2.51,3.43,3.43,0,0,0-.68-1.45,2.19,2.19,0,0,0-1.13-.69,9.84,9.84,0,0,0-1.92-.12Z"/><path d="M114.7,73.07c.59,1.54,2.14,5.41,2.14,5.41a21.94,21.94,0,0,0,1.51-6c0-2.27-1.89-3.9-2-4.53s-.82-1.16-1.31-6.74,0-9.64-.29-14.38a11.05,11.05,0,0,0-.7-3.11c-.2-.51-.41-1-.54-1.32a8.78,8.78,0,0,0-1.39-2.13,7.41,7.41,0,0,0-2-1.6,11.7,11.7,0,0,0-2.39-.92,32.36,32.36,0,0,0-5.09-.94,35.59,35.59,0,0,0-5.16-.23,62.33,62.33,0,0,1-8.62.52q-4.34,0-8.64-.14c-1.45-.06-2.88-.12-4.33-.22A19.38,19.38,0,0,1,71.59,36a18.29,18.29,0,0,1-4-1.73c-1.28-.68-2.47-1.59-3.68-2.22-2.49-1.29-5.39-1.44-8.25-1.52a12.86,12.86,0,0,0-4.11.73c-1.37.42-2.72.91-4.06,1.41s-2.69,1-4.05,1.5a7.87,7.87,0,0,1-2.16.54,8.78,8.78,0,0,1-2.18-.34A30.5,30.5,0,0,1,35,32.79a28.3,28.3,0,0,1-3.81-2,3.89,3.89,0,0,1-1.45.73c-.19.55-.39,1.1-.62,1.64l-.09,0c0-.65.11-1.29.2-1.92v-.12l.19-.1a4,4,0,0,0,1.48-1.18A4,4,0,0,0,31.44,28,15.68,15.68,0,0,0,31.55,26V24.23a8.24,8.24,0,0,0-1.67,1.35,15.16,15.16,0,0,0-1.58,2.05,2.84,2.84,0,0,0-.23.42c0,.19,0,.4-.08.61,0,.41-.07.84-.07,1.25v.3c0,.1,0,.16,0,.34a1.67,1.67,0,0,1-.17.76,11.71,11.71,0,0,1-.7,1.15l-.09,0c.08-.44.25-.87.33-1.27a1.19,1.19,0,0,0,0-.53s-.06-.19-.08-.3a2.29,2.29,0,0,1-.07-.36,1.28,1.28,0,0,0,0-.19,8.84,8.84,0,0,0-1.9.25,5,5,0,0,1-.58.1,1,1,0,0,1-.76-.15,8.19,8.19,0,0,0-1-.35c-.71-.21-1.43-.41-2.15-.56-.36-.08-.72-.15-1.06-.19a2.75,2.75,0,0,0-.47,0c-.1,0-.17.05-.32.15-1.09.86-2,2.2-3.19,3.17a2.54,2.54,0,0,0-1.56,1.53,3.54,3.54,0,0,0-.14,1.91l0,.16v.05A17,17,0,0,0,14,38.39a1.51,1.51,0,0,1-.26.82l-.4.56-.78,1c-.78,1-2.15,2.56-2.8,3.25a.62.62,0,0,0,0,.79l1.4,1.84a1.78,1.78,0,0,0,1.38-.09l0,0a11.19,11.19,0,0,1,1,.75.5.5,0,0,0,.51.08c.5-.21,1-.4,1.51-.57a14.2,14.2,0,0,0,1.73-.82c.59-.31,1.2-.6,1.82-.88a6.45,6.45,0,0,1,1.88-.88c.68-.1,1.38-.11,2-.16a4.38,4.38,0,0,0,.74-.55,9.51,9.51,0,0,0,.71-.71c.45-.5.87-1,1.34-1.5s.94-.85,1.43-1.26A16.54,16.54,0,0,1,27.76,38h.1a19.2,19.2,0,0,1,0,2.4v.1l-.1.11c-.46.49-3.86,4.26-4.19,4.43a14.16,14.16,0,0,0-1.65.17,6.44,6.44,0,0,1,1.69,1.38,24.1,24.1,0,0,1,2,2.47,19.34,19.34,0,0,1,2.92,5.72l.19.79.12.82L29,57.94c.09,1.06.18,2.11.3,3.16s.26,2.1.35,3.15a15.61,15.61,0,0,1,.11,3.07,6.57,6.57,0,0,1,.73.84,8.74,8.74,0,0,1,.6,1,2,2,0,0,0,.64.76,3.66,3.66,0,0,0,.94.41l.34.1,0,.37A1.54,1.54,0,0,0,33.5,72a3.48,3.48,0,0,0,1.25.8,5.25,5.25,0,0,0,3,.12q.82-.37,1.68-.69a14.6,14.6,0,0,1,1.84-.55l.17,0,.14.08a14,14,0,0,0,2,1,16.38,16.38,0,0,0,2.12.69,11.14,11.14,0,0,0,2.21.33,8.66,8.66,0,0,0,1.83-.11.38.38,0,0,0,0-.1c.12-.95.24-1.9.41-2.85,0-.23.09-.46.14-.69a28.41,28.41,0,0,1-9-9.36c-.45-.76-.85-1.56-1.24-2.35s-.75-1.58-1.17-2.34A21.16,21.16,0,0,0,36,51.64a29.46,29.46,0,0,0-4-3.23c1.58.78,3.7,1.53,5,2.79a16.57,16.57,0,0,1,3.22,4.32c.85,1.59,1.76,3.06,2.53,4.63.12.26.25.51.38.77A12.19,12.19,0,0,0,45,63.68C46.08,65,47.8,67,49,68.23a7.2,7.2,0,0,1,1.4,1.24c0-.1.08-.2.13-.3a1.53,1.53,0,0,0,.15-1l0-.05a37.21,37.21,0,0,1-1.58-5.64,20.4,20.4,0,0,1-.34-2.92A9.52,9.52,0,0,1,49,56.6l.09,0A9.59,9.59,0,0,0,49,59.5a21,21,0,0,0,.5,2.83,36.94,36.94,0,0,0,1.79,5.48,2,2,0,0,1-.1,1.66,5.31,5.31,0,0,0-.3,1.29c-.14.93-.24,1.87-.33,2.82s-.17,1.88-.23,2.83-.14,2.82-.15,3.73v.14l-.07.12a6.94,6.94,0,0,0-.7,2.77,15.8,15.8,0,0,0,0,3c0,.13,0,.19.06.33a3.43,3.43,0,0,1,.08.42c0,.27.08.53.11.8,0,.53.07,1.06.07,1.59a12.24,12.24,0,0,1-.07,1.6A21.07,21.07,0,0,1,48.53,95a31.76,31.76,0,0,1-2.15,4.06l2.37.48.5-.75.61,0s.28-1.11.71-3,1.15-2.2,1.29-3.23q.35-3.12.74-6.23v-.06l0,0a4.31,4.31,0,0,0,1.23-2.07,19.28,19.28,0,0,0,.41-2.47c.26-1.68.62-4.26,1-5.91A26.57,26.57,0,0,1,56.87,71c.24-.44.47-.74.69-1.1l.7-1.07A7.6,7.6,0,0,1,60,66.92a6.07,6.07,0,0,0,.49-1.77q.13-.9.18-1.8c.07-1.43.1-2.87.07-4.3s-.09-2.73-.15-4.1-.18-2.73-.32-4.09h.09a15.39,15.39,0,0,1,1,4.07c.17,1.36.26,2.73.35,4.1s.13,2.75.07,4.14c0,.69-.07,1.38-.16,2.08A6.34,6.34,0,0,1,61,67.35l0,.06-.07.06a8,8,0,0,0-2,1.79l-1.32,2c.82-.56,2-1.25,2.5-1.57a19.55,19.55,0,0,1,2.26-1.2,14.41,14.41,0,0,1,2.45-.83,5.48,5.48,0,0,1,2.67,0c1.08.21,2.15.43,3.24.59a33.1,33.1,0,0,0,3.31.31c1.1,0,2.21,0,3.31,0a25,25,0,0,0,3.26-.28,14.44,14.44,0,0,0,3-1c1-.42,2-.89,3-1.37,1.92-.93,3.8-2,5.7-3A10.44,10.44,0,0,0,87,62.42l0-.09a7.76,7.76,0,0,1,6.36.28A11.09,11.09,0,0,1,96,64.3a14,14,0,0,1,2.08,2.34c1.25,1.65,2.33,3.52,3.67,5.08s2.41,3.41,3.67,5l3.77,4.92c.65.93,1,1,1.28,2s.52,2,.71,3.05a52.42,52.42,0,0,1,.87,5.26l.15,1.54.07.77a2.82,2.82,0,0,1-.07.92,5.21,5.21,0,0,1-1.46,2.38l2.22.49.69-1.08.13-.28h.3l.87,0a41.69,41.69,0,0,1-1-6.38c-.41-4.34-.79-13.66-.79-13.66a38.77,38.77,0,0,1-3.65-5.49,8.73,8.73,0,0,1-1-3.3,14,14,0,0,1,.3-3.39v-.06c.63-1.65,1.46-3.18,2.21-4.74a37.47,37.47,0,0,0,2-4.78,17.28,17.28,0,0,0,.71-3,82.19,82.19,0,0,0,.23,9.29,41.94,41.94,0,0,0,1.15,6.8S114,71.15,114.7,73.07ZM19,35.7a1.78,1.78,0,0,1-1.29,0,.26.26,0,0,1-.16-.32,1.74,1.74,0,0,1,.76-1,1.78,1.78,0,0,1,1.29,0,.26.26,0,0,1,.16.32A1.74,1.74,0,0,1,19,35.7Z"/><path d="M21.24,28.31a15.33,15.33,0,0,1,2,.63,7.63,7.63,0,0,1,1.67.56s.1.05.22.06a21.71,21.71,0,0,1,1.77-3.1,67.59,67.59,0,0,0,8.4-14.54,12.54,12.54,0,0,0,.8-3,33.17,33.17,0,0,0-1.81,2.91,132.79,132.79,0,0,1-9,12.29C24,25.56,22.43,26.76,21.24,28.31Z"/><path d="M59.51,84.76A12.54,12.54,0,0,1,59.7,83l.09-.44.05-.36c0-.26,0-.53,0-.81,0-1.11-.06-2.25-.12-3.37-.1-2.18-.27-5.27-.22-7.47l-2.05,1A36.53,36.53,0,0,0,56,76.05c-.45,1.61-.89,4.17-1.21,5.81-.1.56-.19,1.13-.32,1.7.09.26.22.52.34.78s.4.75.61,1.11.44.73.68,1.07a5.69,5.69,0,0,0,.77.94l.08.07,0,.12.52,3c.16,1,.34,2,.47,3a30.15,30.15,0,0,1,.33,3.06,1.6,1.6,0,0,1-.16,1.1,7.28,7.28,0,0,1-.47.82l2.27.47a2,2,0,0,1,.23-.79l.93-.19a36,36,0,0,1-1-6.55A55,55,0,0,1,59.51,84.76Z"/><path d="M21,28.25l.09,0C23.91,24.74,28,20.77,29,18a87,87,0,0,0,2.61-9.16A17.29,17.29,0,0,0,29.93,11c-.83,1.64-2.14,4.16-2.81,5.88A45.11,45.11,0,0,1,22.8,24.3,49.05,49.05,0,0,1,19.61,28l.26,0A7.4,7.4,0,0,1,21,28.25Z"/><path d="M94.05,63.81a9.4,9.4,0,0,0-1-.58c-.17-.09-.35-.16-.52-.23a38.78,38.78,0,0,1-5.43,3.7,18.48,18.48,0,0,1-6.32,2.46c-.16,0-.33,0-.49,0l1.36.67a19,19,0,0,0,1.82.8,8.55,8.55,0,0,1,1-.89,12.37,12.37,0,0,1,1.39-.92,25.3,25.3,0,0,0,2.86-1.69,24.13,24.13,0,0,1,2.66-2A27.61,27.61,0,0,1,94.05,63.81Z"/><path d="M105.73,79.32c-.07-.44-.12-.87-.18-1.31l-.62-.84c-1.23-1.66-2.44-3.33-3.7-5s-2.52-3.29-3.73-4.94a14.36,14.36,0,0,0-2-2.33q-.44-.37-.9-.72c.3,1.29.59,2.58.93,3.86.18.68.38,1.37.61,2a7.15,7.15,0,0,0,.88,1.82l0,.07v.08c.3,1.53.56,3,.93,4.53.19.74.38,1.47.62,2.19a7.82,7.82,0,0,0,.92,2l.07.11V81a30.4,30.4,0,0,1-.17,4.46c-.24,1.79.1,2.16-.72,3.79a53.6,53.6,0,0,1-2.7,4.65c-.89,1.42-1.81,2.8-2.77,4.17l2.26.54,1.15-1.43.18-.23.29.09,1.15.45A11.66,11.66,0,0,1,99,94.76a4.54,4.54,0,0,1,.31-.69c.2-.36.39-.77.58-1.16l1.59-3.34,2.35-4.75c.86-1.53,1.61-2.11,2.36-3.71a4.73,4.73,0,0,1-.24-.85C105.83,80,105.78,79.63,105.73,79.32Z"/><polygon points="44.63 101.92 48.56 101.92 48.63 99.99 46.17 99.6 44.63 101.92"/><polygon points="55.85 101.51 59.78 101.51 59.85 99.57 57.4 99.18 55.85 101.51"/><polygon points="91.3 101.16 95.23 101.16 95.3 99.22 92.84 98.83 91.3 101.16"/><polygon points="108.75 100.73 112.67 100.73 112.75 98.8 110.29 98.41 108.75 100.73"/></svg>