<svg id="Layer_1" data-name="Layer 1" xmlns="http://www.w3.org/2000/svg" width="128" height="128" viewBox="0 0 128 128"><defs><style>.cls-1{fill:#fff;}.cls-2{fill:#d62525;}</style></defs><title>Artboard 52</title><rect class="cls-1" x="4" y="4" width="120" height="120"/><path class="cls-2" d="M120,8V120H8V8H120m8-8H0V128H128V0Z"/><path d="M51.41,102.44l2.29.89a6.41,6.41,0,0,1-1.79,3.51A4.44,4.44,0,0,1,48.84,108a4.55,4.55,0,0,1-3.72-1.77,8.51,8.51,0,0,1-1.64-5.51,9,9,0,0,1,1.65-5.73A4.68,4.68,0,0,1,49,93.14a4.43,4.43,0,0,1,3.3,1.35,5.78,5.78,0,0,1,1.39,2.84L51.34,98a3.18,3.18,0,0,0-.9-1.79,2.25,2.25,0,0,0-1.58-.62,2.52,2.52,0,0,0-2.12,1.14,6.49,6.49,0,0,0-.82,3.74,7,7,0,0,0,.8,3.84,2.43,2.43,0,0,0,2.08,1.15,2.18,2.18,0,0,0,1.62-.73A4.6,4.6,0,0,0,51.41,102.44Z"/><path d="M66.52,107.7H64l-1-3.24h-4.7l-1,3.24H54.73L59.3,93.39h2.51ZM62.16,102l-1.62-5.31L59,102Z"/><path d="M69.4,107.7V95.81H65.92V93.39h9.32v2.42H71.77V107.7Z"/><path d="M81.67,107.7V93.39H84V107.7Z"/><path class="cls-2" d="M31.48,75l2.3.89A6.41,6.41,0,0,1,32,79.38a4.46,4.46,0,0,1-3.07,1.11,4.58,4.58,0,0,1-3.73-1.77,8.57,8.57,0,0,1-1.64-5.51,8.91,8.91,0,0,1,1.66-5.73,4.67,4.67,0,0,1,3.86-1.8A4.46,4.46,0,0,1,32.37,67a5.87,5.87,0,0,1,1.39,2.84l-2.34.69a3.18,3.18,0,0,0-.9-1.79,2.26,2.26,0,0,0-1.58-.62,2.51,2.51,0,0,0-2.12,1.14A6.49,6.49,0,0,0,26,73a6.92,6.92,0,0,0,.8,3.85A2.43,2.43,0,0,0,28.88,78a2.15,2.15,0,0,0,1.62-.73A4.61,4.61,0,0,0,31.48,75Z"/><path class="cls-2" d="M46.6,80.24H44L43,77H38.3l-1,3.24H34.81l4.57-14.31h2.51Zm-4.36-5.66-1.63-5.31L39,74.58Z"/><path class="cls-2" d="M48.05,80.24V65.93h5a7.12,7.12,0,0,1,2.73.38,3.06,3.06,0,0,1,1.35,1.34,4.68,4.68,0,0,1,.53,2.28,4.27,4.27,0,0,1-.81,2.71,3.62,3.62,0,0,1-2.29,1.29,5.76,5.76,0,0,1,1.26,1.19,18.4,18.4,0,0,1,1.36,2.33l1.42,2.79H55.77l-1.72-3.11A21.9,21.9,0,0,0,52.79,75a1.86,1.86,0,0,0-.7-.58,3.19,3.19,0,0,0-1.19-.16h-.49v6ZM50.41,72h1.76a8.56,8.56,0,0,0,2-.14,1.27,1.27,0,0,0,.71-.57,2.14,2.14,0,0,0,.27-1.14,2,2,0,0,0-.27-1.1,1.35,1.35,0,0,0-.74-.57,9.43,9.43,0,0,0-1.93-.11H50.41Z"/><path class="cls-2" d="M67.59,75l2.3.89a6.48,6.48,0,0,1-1.79,3.51A4.47,4.47,0,0,1,65,80.49a4.55,4.55,0,0,1-3.72-1.77,8.57,8.57,0,0,1-1.64-5.51,9,9,0,0,1,1.65-5.73,4.7,4.7,0,0,1,3.87-1.8A4.46,4.46,0,0,1,68.48,67a6,6,0,0,1,1.39,2.84l-2.35.69a3.17,3.17,0,0,0-.89-1.79,2.28,2.28,0,0,0-1.58-.62,2.49,2.49,0,0,0-2.12,1.14A6.48,6.48,0,0,0,62.1,73a7,7,0,0,0,.8,3.85A2.45,2.45,0,0,0,65,78a2.15,2.15,0,0,0,1.63-.73A4.61,4.61,0,0,0,67.59,75Z"/><path class="cls-2" d="M82.7,80.24H80.13l-1-3.24h-4.7l-1,3.24H70.92l4.57-14.31H78Zm-4.36-5.66-1.62-5.31-1.59,5.31Z"/><path class="cls-2" d="M83.55,75.58l2.31-.28c.26,1.83,1.12,2.75,2.56,2.75a2.43,2.43,0,0,0,1.69-.56,1.83,1.83,0,0,0,.62-1.4,1.58,1.58,0,0,0-.22-.83,1.65,1.65,0,0,0-.65-.56A20.33,20.33,0,0,0,87.73,74a7.29,7.29,0,0,1-2.22-1,3.68,3.68,0,0,1-1.12-1.41A4.41,4.41,0,0,1,84,69.68a4.2,4.2,0,0,1,.53-2.1A3.47,3.47,0,0,1,86,66.16a5,5,0,0,1,2.31-.48A4.08,4.08,0,0,1,92.76,70l-2.38.13a2.49,2.49,0,0,0-.67-1.61,2.12,2.12,0,0,0-1.47-.46,2.37,2.37,0,0,0-1.48.4,1.21,1.21,0,0,0-.52,1,1.24,1.24,0,0,0,.47,1,6.73,6.73,0,0,0,2.16.88,8.74,8.74,0,0,1,2.58,1.09,3.72,3.72,0,0,1,1.22,1.47,5.22,5.22,0,0,1,.42,2.19,4.49,4.49,0,0,1-1.15,3.14,4.59,4.59,0,0,1-3.59,1.27C85.48,80.49,83.87,78.85,83.55,75.58Z"/><path class="cls-2" d="M94.69,75.58,97,75.3c.26,1.83,1.11,2.75,2.56,2.75a2.43,2.43,0,0,0,1.69-.56,1.82,1.82,0,0,0,.61-1.4,1.57,1.57,0,0,0-.21-.83,1.61,1.61,0,0,0-.66-.56A19,19,0,0,0,98.87,74a7.29,7.29,0,0,1-2.22-1,3.68,3.68,0,0,1-1.12-1.41,4.27,4.27,0,0,1-.41-1.88,4.1,4.1,0,0,1,.53-2.1,3.41,3.41,0,0,1,1.47-1.42,5,5,0,0,1,2.31-.48A4.09,4.09,0,0,1,103.9,70l-2.38.13a2.54,2.54,0,0,0-.67-1.61,2.15,2.15,0,0,0-1.48-.46,2.34,2.34,0,0,0-1.47.4,1.18,1.18,0,0,0-.52,1,1.24,1.24,0,0,0,.47,1,6.52,6.52,0,0,0,2.16.88,8.74,8.74,0,0,1,2.58,1.09,3.72,3.72,0,0,1,1.22,1.47,5.22,5.22,0,0,1,.42,2.19,4.54,4.54,0,0,1-1.15,3.14,4.6,4.6,0,0,1-3.59,1.27Q95.17,80.49,94.69,75.58Z"/><path class="cls-2" d="M49,55.78V41.47h8.72v2.42H51.32v3.17h5.9v2.42h-5.9v3.88h6.56v2.42Z"/><path class="cls-2" d="M60.15,55.78V41.59h2.36V53.36h5.9v2.42Z"/><path class="cls-2" d="M70.31,55.78V41.47H79v2.42H72.67v3.17h5.9v2.42h-5.9v3.88h6.57v2.42Z"/><path class="cls-2" d="M36.93,31.32V17h8v2.42H39.29v3.39h4.92v2.42H39.29v6.08Z"/><path class="cls-2" d="M47.14,31.32V17h5a7.09,7.09,0,0,1,2.73.38,3.06,3.06,0,0,1,1.35,1.34A4.68,4.68,0,0,1,56.74,21a4.27,4.27,0,0,1-.81,2.71A3.6,3.6,0,0,1,53.64,25,5.76,5.76,0,0,1,54.9,26.2a17.24,17.24,0,0,1,1.36,2.33l1.43,2.79H54.86l-1.72-3.11a18.26,18.26,0,0,0-1.26-2.12,1.86,1.86,0,0,0-.7-.58A3.15,3.15,0,0,0,50,25.35H49.5v6Zm2.36-8.26h1.76a8.51,8.51,0,0,0,2.05-.14,1.27,1.27,0,0,0,.71-.57,2,2,0,0,0,.28-1.14,1.91,1.91,0,0,0-.28-1.1,1.35,1.35,0,0,0-.74-.57,9.37,9.37,0,0,0-1.92-.11H49.5Z"/><path class="cls-2" d="M59.17,31.32V17h8.72v2.42H61.54V22.6h5.9V25h-5.9V28.9H68.1v2.42Z"/><path class="cls-2" d="M69.71,26.66,72,26.38c.26,1.83,1.11,2.75,2.56,2.75a2.43,2.43,0,0,0,1.69-.56,1.82,1.82,0,0,0,.61-1.4,1.57,1.57,0,0,0-.21-.83,1.65,1.65,0,0,0-.65-.56,20.33,20.33,0,0,0-2.13-.73,7.29,7.29,0,0,1-2.22-1,3.76,3.76,0,0,1-1.12-1.41,4.27,4.27,0,0,1-.41-1.88,4.1,4.1,0,0,1,.53-2.1,3.41,3.41,0,0,1,1.47-1.42,5,5,0,0,1,2.31-.48,4.48,4.48,0,0,1,3.24,1.13,4.52,4.52,0,0,1,1.23,3.21l-2.38.13a2.54,2.54,0,0,0-.67-1.61,2.15,2.15,0,0,0-1.48-.46,2.34,2.34,0,0,0-1.47.4,1.18,1.18,0,0,0-.52,1,1.24,1.24,0,0,0,.47,1,6.52,6.52,0,0,0,2.16.88,8.74,8.74,0,0,1,2.58,1.09A3.72,3.72,0,0,1,78.83,25a5.23,5.23,0,0,1,.42,2.2A4.48,4.48,0,0,1,78.1,30.3a4.6,4.6,0,0,1-3.59,1.27Q70.19,31.57,69.71,26.66Z"/><path class="cls-2" d="M81.45,31.32V17h2.36v5.63h4.66V17h2.36V31.32H88.47V25.06H83.81v6.26Z"/></svg>