<svg id="Layer_1" data-name="Layer 1" xmlns="http://www.w3.org/2000/svg" width="128" height="128" viewBox="0 0 128 128"><title>Artboard 59</title><path d="M33.26,124V109.68h2.36V124Z"/><path d="M38.06,124V109.68H41.6l2.14,9.78,2.12-9.78h3.56V124H47.21V112.72L44.87,124H42.59l-2.32-11.28V124Z"/><path d="M52,124V109.68h3.81a11.31,11.31,0,0,1,2.78.21,3.17,3.17,0,0,1,1.73,1.41,6.07,6.07,0,0,1,.09,5.4,3.39,3.39,0,0,1-1.46,1.47,7.5,7.5,0,0,1-3,.43H54.32V124Zm2.37-11.89v4.07h1.31a5.44,5.44,0,0,0,1.79-.19,1.57,1.57,0,0,0,.78-.67,2.21,2.21,0,0,0,.3-1.19,2.16,2.16,0,0,0-.31-1.2,1.56,1.56,0,0,0-.77-.66,7.25,7.25,0,0,0-2-.16Z"/><path d="M72.48,124H69.92l-1-3.24h-4.7l-1,3.24H60.7l4.57-14.32h2.51Zm-4.36-5.66L66.5,113l-1.59,5.32Z"/><path d="M74,124V109.8h2.37v11.78h5.89V124Z"/><path d="M94.74,124H92.17l-1-3.24h-4.7l-1,3.24H83l4.57-14.32H90Zm-4.36-5.66L88.76,113l-1.59,5.32Z"/><path d="M12.54,70.07a15.87,15.87,0,0,1-.11-5.37,11,11,0,0,1,.75-2.61,10.74,10.74,0,0,1,.62-1.22c.22-.38.43-.74.64-1.12l.21-.42c0-1.08-.08-2.15-.15-3.22,0-.32-.05-.65-.1-1a6.67,6.67,0,0,0-.25-.89c-.2-.61-.45-1.21-.7-1.81-.51-1.2-1.06-2.39-1.65-3.56a1.09,1.09,0,0,0-.08-.15l.15.52.56,2.06a10.92,10.92,0,0,1,.43,2.15,16.5,16.5,0,0,1-.26,4.33,6.09,6.09,0,0,1-.86,2c-.37.61-.75,1.22-1.09,1.83a9.29,9.29,0,0,0-.83,1.9,2.64,2.64,0,0,0-.12,1c0,.35,0,.7.06,1a18,18,0,0,0,.78,4.07,13.88,13.88,0,0,0,1.85,3.69,11.51,11.51,0,0,0,2.13,2.17c-.07-.12-.16-.24-.23-.36A17.65,17.65,0,0,1,12.54,70.07Z"/><path d="M73,72a6.07,6.07,0,0,0-.39-4.42l-.06-.09v-.09l-.31-5.9L72,55.62l-.45-4c-.55.29-1.1.58-1.67.85-.86.4-1.73.79-2.62,1.13a11.2,11.2,0,0,1-2.69.76c-.09.14-.17.3-.25.44a22.15,22.15,0,0,1,1.74,4,23.79,23.79,0,0,1,1.15,4.54,41.88,41.88,0,0,0,1.31,4.34,20.77,20.77,0,0,0,1.84,4.25s3.62,14.33,3.55,19A9.52,9.52,0,0,1,73.07,94c-.39.93-.82,1.84-1.28,2.74l3.37,1.74a21.82,21.82,0,0,1,.17-3.94,8.42,8.42,0,0,1,.88-2.09c.31-.6.63-1.18,1-1.76,0,0-2.3-9.56-2.72-11.52S73.38,74,73,72Z"/><path d="M103.55,59.25c-.73-2.28-1.39-4.58-2-6.91-1.72-.88-4.37-2.53-4.37-2.53A16.87,16.87,0,0,0,96,46.48c-.53-1-1.72-3.42-1.92-3.87a17.12,17.12,0,0,1-3.68,2.85c-.21.15-.44.27-.66.4a21.91,21.91,0,0,1,1.12,2c.45.9.87,1.81,1.29,2.73.81,1.85,1.58,3.71,2.33,5.57,1.41,3.75,3.15,7.43,3.85,11.49a14.52,14.52,0,0,1,.21,3.1c0,.26-.06.53-.09.79s-1.94,6-2.73,7.85c-1.59,3.69-3.23,8.81-4.76,12.53v0a6.9,6.9,0,0,1-3.32,4.68l3.46,1.85a4.13,4.13,0,0,1,1.77-3.44.91.91,0,0,0,.26-.48c.2-1,.15-2.8.47-3.2a.77.77,0,0,1,.82-.27s.58.34.7.2A1.29,1.29,0,0,0,95.21,90a1.6,1.6,0,0,1,0-1.27c.9-2.06,3.52-8,5-11.2l1.31-2.92.66-1.46.76-1.41L105.48,67a2,2,0,0,0,.11-1.56C104.87,63.35,104.2,61.3,103.55,59.25Z"/><path d="M112.72,38.66,112,39.84a10.76,10.76,0,0,0,3.83-2.4,5.85,5.85,0,0,0,1.27-2,11.91,11.91,0,0,0,.5-2.42,11.13,11.13,0,0,0,0-2.58,22,22,0,0,0-.57-2.53c-.1-.46-.19-.93-.27-1.4-.17,1.23-.39,2.45-.66,3.65a45,45,0,0,1-1.22,4.41A17.66,17.66,0,0,1,112.72,38.66Z"/><path d="M117.71,74.29,118,68c.1-1.76.19-3.5.31-5.26a2,2,0,0,0-.54-1.49c-.81-.87-1.51-1.79-2.22-2.7-.91-1.2-1.81-2.41-2.74-3.58A14.83,14.83,0,0,1,110.49,51a21.2,21.2,0,0,1-1-4.11s0-.07,0-.11l0-.18h0a8.36,8.36,0,0,1,.79-4.17,36.92,36.92,0,0,1,2.1-4.05,17.4,17.4,0,0,0,1.95-4c.43-1.43.77-2.9,1.07-4.37A39.92,39.92,0,0,0,116,25.6a9.52,9.52,0,0,0,0-2.14,1.09,1.09,0,0,0-.11-.38l0-.08-.09-.1-.17-.19q-.37-.41-.78-.78a29.58,29.58,0,0,0-7.23-5.14A34.1,34.1,0,0,0,99,14.54a44,44,0,0,0-4.48-.25L90,14.21c-1.5,0-3,0-4.52,0a19.23,19.23,0,0,0-4.43.4,41.76,41.76,0,0,0-8.46,3,53.35,53.35,0,0,1-8.4,3.45c-2.93.89-6,1-8.72,2.33a10.25,10.25,0,0,0-3.21,3.05c-.46.59-.95,1.2-1.46,1.75s-1,1.14-1.42,1.74Q48,31.74,46.8,33.66c-.79,1.26-1.5,2.61-2.27,3.91-1.54,2.61-3,5.23-4.53,7.85-.74,1.31-1.49,2.63-2.09,4S36.67,52.17,36,53.53c-1.35,2.72-2.84,5.37-4.38,8a70,70,0,0,1-4.53,6.94,4.49,4.49,0,0,1-.11.83,7.33,7.33,0,0,1-1.23,2.58c.54.46,1.07.93,1.59,1.43l-.06.08c-.71-.39-1.41-.8-2.09-1.23L25,72l.14-.28a8.68,8.68,0,0,0,.94-2.62A3.17,3.17,0,0,0,26,67.86c-.1-.3-.41-.81-.61-1.23-.45-.88-.86-1.77-1.33-2.61-.24-.42-.48-.85-.73-1.24a3.65,3.65,0,0,0-.76-.9,1.57,1.57,0,0,0-1,.78A4.91,4.91,0,0,0,21,64.13a10.53,10.53,0,0,0-.25,3.22c0,.54.06,1.08.13,1.6a8.41,8.41,0,0,0,.42,1.45,12.48,12.48,0,0,0,1.52,2.74l.08.11v.09c0,.94,0,1.89-.13,2.84h-.09c-.18-.89-.32-1.78-.43-2.67l-2.41.74-.07,0-.07-.06a12.62,12.62,0,0,1-1.81-1.61,8.48,8.48,0,0,1-1.5-2,12.67,12.67,0,0,1-1-4.79,15.49,15.49,0,0,1,.09-2.45A7.36,7.36,0,0,1,16.17,61c.68-1.43,1.34-2.87,1.9-4.33a18.59,18.59,0,0,0,1.19-4.45c.16-1.42-.61-2.83-1.37-4.17a27.6,27.6,0,0,0-2.75-3.8c-.43-.49-.87-1-1.33-1.42.44.71.84,1.44,1.23,2.18a32.55,32.55,0,0,1,2.07,4.86,6.08,6.08,0,0,1,.32,2.65A15.45,15.45,0,0,1,17,55.12a27.17,27.17,0,0,1-1.81,5c-.19.4-.42.8-.63,1.17A9.81,9.81,0,0,0,14,62.42a12.7,12.7,0,0,0-.68,2.43,15.26,15.26,0,0,0,0,5.09,19.53,19.53,0,0,0,1.47,4.92A9.21,9.21,0,0,0,18,78.66s-.07,1.37-.12,2.07a6.16,6.16,0,0,0,0,1,1.68,1.68,0,0,0,.26.91l0,0,0,0a1.54,1.54,0,0,1,.41,1.09,10.28,10.28,0,0,1,0,1.11l-.15,2.17a23.56,23.56,0,0,0,.11,4.28,34.24,34.24,0,0,0,.71,4.21c.09.33.18.66.29,1a1.18,1.18,0,0,0,.51.56,4.36,4.36,0,0,0,1.58.56c.5-1.11,1-2.21,1.57-3.29l.1,0c-.24,1-.53,2.05-.83,3.06a6.83,6.83,0,0,0,1.74,0,2.1,2.1,0,0,0,1.43-.69A3,3,0,0,0,26,95.25a14.12,14.12,0,0,0,0-1.84v-.23l.13-.14a28.52,28.52,0,0,0,3.44-4.63,17.69,17.69,0,0,0,1.28-2.58,9.32,9.32,0,0,0,.58-2.31A6.89,6.89,0,0,0,31,80.9c-.38-.68-.78-1.35-1.18-2s-.83-1.46-1.25-2.2l.08-.05c.55.64,1.12,1.26,1.65,1.92s1.06,1.3,1.62,1.94l.07.08,0,.21A4.68,4.68,0,0,1,32,82a39.71,39.71,0,0,1,2-3.76l2.11-3.42c1.41-2.28,2.78-4.59,4.3-6.81a33.11,33.11,0,0,1,2.48-3.24c1-1,1.87-1.92,2.83-2.87a37.16,37.16,0,0,1,3-2.7,20.83,20.83,0,0,0,3-2.53l.1-.1H52c.72.05,1.44.1,2.16.17a12.3,12.3,0,0,0,0-2.5A25.64,25.64,0,0,0,53,49.28l.09,0a25.33,25.33,0,0,1,1.5,4.91,20.14,20.14,0,0,1-.13,5.15c-.39,3.4-1.77,10.13-1.77,10.13a31.47,31.47,0,0,0-1,3.32,11.94,11.94,0,0,0-.16,1.68,16.51,16.51,0,0,0,.13,1.77s-1.67,6-2.54,8.91L47,93A10.87,10.87,0,0,1,46.21,95L44,99.44l3.59,1.91a21.3,21.3,0,0,1,0-3.1A6.72,6.72,0,0,1,48.36,96a2.82,2.82,0,0,1,1.36-1.19c.77-3.09,1.49-6.19,2.18-9.3l1-4.7c.36-1.56,1-4.26,1-4.26a8.16,8.16,0,0,0,1.61-2.17,9,9,0,0,0,.69-2.86s1.54-3.35,2.26-5,1.41-3.35,2-5a27.4,27.4,0,0,1,2.41-5c.38-.63.78-1.25,1.18-1.86h0c.53-.81,1.08-1.6,1.66-2.37a7.69,7.69,0,0,0,.46-1.66l.34-1.78c.2-1.12.45-2.24.72-3.35-1-1.36-2.16-2.65-3.3-3.93s-2.39-2.69-3.61-4l.07-.07c1.33,1.22,2.66,2.44,4,3.7s2.56,2.53,3.77,3.92l.13.14,0,.24a18,18,0,0,1-.77,3.46,16.32,16.32,0,0,1-.69,1.88,6.18,6.18,0,0,1-1.57,2.81c.8-.33,1-.1,1.78-.51s1.66-.9,2.5-1.33,1.69-.86,2.57-1.22,2.79-.94,2.79-.94a16.94,16.94,0,0,0,5.25-.95c1.7-.55,3.4-1.09,5-1.75s3.27-1.35,4.84-2.15a14.92,14.92,0,0,0,3.82-2.8c-.64-1.5-1.21-3-1.8-4.56a21.76,21.76,0,0,1-1.32-6.59c-.15-2.22-.18-4.44-.11-6.66h.1a63.51,63.51,0,0,0,.51,6.61A21.13,21.13,0,0,0,92.74,37c.89,2,1.86,4,2.69,6.07l1.23,3.08.62,1.54a11.9,11.9,0,0,0,.66,1.51c.76.6,1.58,1.1,2.39,1.64a8.57,8.57,0,0,1,2.23,1.94l3.53,4.63,3.53,4.62a21.4,21.4,0,0,1,3,5.1,22,22,0,0,1,1.49,5.73,118.27,118.27,0,0,1-.18,18.91,10.21,10.21,0,0,1-1.29,4l-1.36,2.38s2.89,1.48,3.53,1.79a6.48,6.48,0,0,1,2-3.9,1.29,1.29,0,0,0,.41-1.09l-.38-3.7a.69.69,0,0,1,.67-.76h0c1.23-.4-.14-2.07-.27-2.51S117.56,77.46,117.71,74.29ZM21,81.22a1.91,1.91,0,0,1-1.14.87.29.29,0,0,1-.36-.18,1.57,1.57,0,0,1,1.11-2.29.29.29,0,0,1,.36.17A1.94,1.94,0,0,1,21,81.22Z"/><path d="M41.61,102.68l5.22.11.14-.28s-3.51-2-3.55-2S41.61,102.68,41.61,102.68Z"/><path d="M108.91,101.24l5.22.11.14-.29s-3.51-2-3.54-2S108.91,101.24,108.91,101.24Z"/><path d="M69.31,99.68l5.22.11.14-.28s-3.51-2-3.54-2S69.31,99.68,69.31,99.68Z"/><path d="M85.25,99.68l5.22.11.14-.28s-3.51-2-3.54-2S85.25,99.68,85.25,99.68Z"/></svg>