<svg id="Layer_1" data-name="Layer 1" xmlns="http://www.w3.org/2000/svg" width="128" height="128" viewBox="0 0 128 128"><title>Artboard 65</title><path d="M41.72,116.69a10.29,10.29,0,0,1,.75-4.22,5.77,5.77,0,0,1,2-2.46,5.15,5.15,0,0,1,3-.81,5.09,5.09,0,0,1,4.11,1.92,10.25,10.25,0,0,1-.1,11.09,5.41,5.41,0,0,1-8,0A8.41,8.41,0,0,1,41.72,116.69Zm2.44-.1a6,6,0,0,0,.94,3.7,2.8,2.8,0,0,0,4.64,0,6.27,6.27,0,0,0,.92-3.76,6.17,6.17,0,0,0-.89-3.68,2.91,2.91,0,0,0-4.7,0A6.14,6.14,0,0,0,44.16,116.59Z"/><path d="M55.17,123.76V109.44h5a6.86,6.86,0,0,1,2.73.39,3,3,0,0,1,1.35,1.33,4.68,4.68,0,0,1,.53,2.28,4.27,4.27,0,0,1-.81,2.71,3.62,3.62,0,0,1-2.29,1.29,5.76,5.76,0,0,1,1.26,1.19A17.24,17.24,0,0,1,64.29,121l1.42,2.8H62.89l-1.72-3.12a20,20,0,0,0-1.26-2.11,1.8,1.8,0,0,0-.7-.59,3.15,3.15,0,0,0-1.19-.16h-.49v6Zm2.36-8.27h1.76a8.51,8.51,0,0,0,2.05-.14,1.27,1.27,0,0,0,.71-.57,2.14,2.14,0,0,0,.28-1.14,2,2,0,0,0-.28-1.1,1.35,1.35,0,0,0-.74-.57,9.37,9.37,0,0,0-1.92-.11H57.53Z"/><path d="M67.13,123.76V109.44h2.36v14.32Z"/><path d="M72,109.44h4.71a7.35,7.35,0,0,1,2.7.35A3,3,0,0,1,80.68,111a4,4,0,0,1,.08,3.88,3.06,3.06,0,0,1-1.2,1.24,3.2,3.2,0,0,1,1.64,1.27,3.93,3.93,0,0,1,.59,2.19,4.51,4.51,0,0,1-.75,2.64,3.12,3.12,0,0,1-1.78,1.33,18,18,0,0,1-3.31.18H72Zm2.37,2.38v3.31h1.56a15.07,15.07,0,0,0,1.74,0,1.46,1.46,0,0,0,.95-.51,1.77,1.77,0,0,0,.34-1.13,1.81,1.81,0,0,0-.28-1,1.17,1.17,0,0,0-.67-.49,13.82,13.82,0,0,0-2.28-.1Zm0,5.7v3.81h2.2a7,7,0,0,0,1.86-.15,1.43,1.43,0,0,0,.69-.59,2.15,2.15,0,0,0,.28-1.13,2,2,0,0,0-.3-1.15,1.55,1.55,0,0,0-.79-.62,7.32,7.32,0,0,0-2-.17Z"/><path d="M83.92,123.76V109.44h2.36v14.32Z"/><path d="M42.22,102.79l3.57.08.09-.2s-2.4-1.36-2.42-1.36S42.22,102.79,42.22,102.79Z"/><path d="M49.5,101.73l3.57.08.09-.2s-2.39-1.35-2.42-1.35S49.5,101.73,49.5,101.73Z"/><path d="M87,98.34l3.57.08.1-.19s-2.4-1.36-2.43-1.36S87,98.34,87,98.34Z"/><path d="M99.69,101.94l3.57.07.09-.19s-2.4-1.36-2.42-1.36S99.69,101.94,99.69,101.94Z"/><path d="M45.4,66c-.19-.94-.42-1.88-.7-2.81a9,9,0,0,0-1-1.13,14.16,14.16,0,0,0-1.9-1.44,28.31,28.31,0,0,1-3.89-2.75L38,58a13.36,13.36,0,0,0,2.23,3.18A31.14,31.14,0,0,0,43,64,19.41,19.41,0,0,0,45.4,66Z"/><path d="M55,66.82a15.79,15.79,0,0,0-2.16.75c-.16.91-.32,1.44-.53,2.33l-.85,3.54c-.27,1.17-.57,2.34-.79,3.5a8.11,8.11,0,0,1-.17,2.87,11.14,11.14,0,0,1-.59,1.77c.07.16.16.32.22.49a5.31,5.31,0,0,1,.27,1.23s.6,4.06,1,7.79c.28,2.8.35,5.48.35,5.68a6.15,6.15,0,0,1-.15,1.29,9.08,9.08,0,0,1-.67,2l2.14.83,1.27-2.06s-.64-4-.93-8-.2-7.91-.29-9.3v-.08l0-.09a5,5,0,0,0,.48-1.69,13.93,13.93,0,0,0,.06-1.83L53.6,74a16,16,0,0,1,.54-3.8C54.4,69,54.7,68,55,66.82Z"/><path d="M100.08,74.91a13.32,13.32,0,0,0-1.26-1.09l-1.3-1.08L92.29,68.4c-1.74-1.45-3.49-2.86-5.22-4.34-.85-.74-1.7-1.5-2.5-2.31a14.39,14.39,0,0,1-1.84-2.21l-.08,0-.59.28a12.58,12.58,0,0,0,1.19,1.87c.52.7,1.06,1.39,1.59,2.07l1.61,2c.53.7,1,1.41,1.56,2.08,1.08,1.35,2.24,2.65,3.32,4a23.2,23.2,0,0,1,1.58,2.14,11.6,11.6,0,0,1,.83,2.54,13.67,13.67,0,0,1,.37,2.62c.08,3.16-1.19,6.4-2.32,9.43-1.4,3.76-3.34,7.56-3.34,7.56s2,1.32,2.3,1.51l.36-1.57,1,.2c.35-.86,1.57-5.55,3.42-10.21s4.21-9,5-10.68C100.4,75.29,100.24,75.09,100.08,74.91Z"/><path d="M105.49,69.74c-.61-.63-1.24-1.23-1.89-1.83-1.28-1.2-2.61-2.34-3.86-3.61A5,5,0,0,1,98.31,62a6.52,6.52,0,0,1,.15-2.68,6.45,6.45,0,0,1,1.24-2.38c.54-.71,1.13-1.36,1.71-2a15.77,15.77,0,0,0,3-4.28,8.6,8.6,0,0,0,0-5.12,15.4,15.4,0,0,0-.84-2.48,10.39,10.39,0,0,0-1.26-2.26,2.5,2.5,0,0,0-.43-.43,4.4,4.4,0,0,0-.57-.31l-1.19-.56c-.8-.36-1.6-.71-2.41-1a30.06,30.06,0,0,0-4.94-1.7,15.69,15.69,0,0,0-7.69.66c-.2.06-1.18.52-1.18.52a8.94,8.94,0,0,1-1.3.42c-1.72.44-3.46.74-5.18,1.08a44.3,44.3,0,0,0-5.09,1.16,21.24,21.24,0,0,1-5.2,1.15,93.16,93.16,0,0,1-10.55.72h-.08a23.53,23.53,0,0,0-4.29-.91c-1.46-.2-2.93-.31-4.41-.38-.73,0-1.47,0-2.21,0l-1.1,0a3.32,3.32,0,0,1-1.13-.08,3,3,0,0,1-1.77-1.34c-.35-.49-.66-1-1-1.45a5.17,5.17,0,0,1-.82-1.58,10.79,10.79,0,0,1-.44-1.95,14.37,14.37,0,0,1-.1-2,12.26,12.26,0,0,0,0-1.92c-.11-1.28-.31-2.56-.53-3.83s-.44-2.51-.73-3.74a4.76,4.76,0,0,0-.67.48,2.66,2.66,0,0,0-.91,1.39h-.07A2.41,2.41,0,0,1,37,23.46a7.44,7.44,0,0,1,1.4-1.14l0,0,.08,0a4.52,4.52,0,0,0,1.71-1.55c.25-.33.51-.66.74-1a4,4,0,0,0,.49-1.11,9,9,0,0,0,.28-2.52,7.36,7.36,0,0,0-.13-1.25,1.82,1.82,0,0,0-.41-1s-.1,0-.15-.06-.14,0-.24,0a2.18,2.18,0,0,0-.52.19,7.16,7.16,0,0,0-1.07.61,20.92,20.92,0,0,0-2,1.52,4.28,4.28,0,0,0-.43.39,2.82,2.82,0,0,0-.3.46A8.19,8.19,0,0,0,36,18.13a25.21,25.21,0,0,0-.77,2.42l0,.05,0,0c-.25.21-.5.42-.76.62l-.05-.06c.19-.24.39-.47.59-.71a.57.57,0,0,1,0-.13,8,8,0,0,0-2.06-.3c.35-1.19.64-2.89.86-4a35.65,35.65,0,0,0,.46-3.72A28,28,0,0,0,33.47,6l-1-3.13.3,3.29A43.31,43.31,0,0,1,31.7,16c-.24,1.15-.76,2.84-1,4.07h-.17l-.25,0a32.62,32.62,0,0,0,.94-4c.9-6,.12-8.81-.27-10L30,2.87l.3,3.29A29.36,29.36,0,0,1,29.2,16a38.65,38.65,0,0,1-1.14,4.54,1,1,0,0,0-.11.17l-.26.38c-.71,1-1.41,2.07-2.16,3.07A19.14,19.14,0,0,1,23.07,27l-1.36,1.28a13.82,13.82,0,0,1-1.27,1.11L21,30.62a5.6,5.6,0,0,0,.36.64,2.24,2.24,0,0,0,.32.4,20.4,20.4,0,0,1,2-.51c.64-.38,1.3-.75,2-1.09l0,.06c-.6.51-1.2,1-1.82,1.44v0h-.05l-1.66.56a3.88,3.88,0,0,0,.62.65c.26.19.45.1.76-.1a8.29,8.29,0,0,0,.86-.7,1.9,1.9,0,0,1,.6-.31,1.76,1.76,0,0,1,.69,0,22.3,22.3,0,0,0,2.24.38,2.75,2.75,0,0,0,2-.59l.08-.07,3.27-.94c.07,0,1.49-2.24,1.49-2.24l-.56,2.68-3,1a2,2,0,0,1,.92.84A2.63,2.63,0,0,1,32.62,34c.05.39.07.77.1,1.16a31.1,31.1,0,0,1-.09,4.42,31.33,31.33,0,0,0,1.25,7.12,7.64,7.64,0,0,0,.78,1.78,10.42,10.42,0,0,1,.88,1.85c.49,1.26.85,2.56,1.23,3.85s.68,2.43,1.12,3.56A33.15,33.15,0,0,1,42.21,60a17.78,17.78,0,0,1,2,1.84,19.74,19.74,0,0,0-2.13-4.64l.06-.05a11.79,11.79,0,0,1,1.39,2.24,25.83,25.83,0,0,1,1.07,2.42,29.84,29.84,0,0,1,1.49,5.1,14.81,14.81,0,0,1,.24,2.67,46.06,46.06,0,0,1-.44,7.94v.05a3.84,3.84,0,0,0-.25,1,7.07,7.07,0,0,0-.07,1.13A6.88,6.88,0,0,0,46,81.93l0,0v0c-.14,2.85-.44,11.49-.55,12.92a29.19,29.19,0,0,1-.57,4.33l-.4.62-.57.87,2.22,1L48,99s-.13-4.58.07-9c.15-3.25.64-6.48.72-7.65v-.08l.05-.09a8.89,8.89,0,0,0,1-2.51A7.14,7.14,0,0,0,50,77V76.9l0,0c.25-1.21.58-2.38.9-3.56l1-3.51c.31-1.17.67-2.33.88-3.51A6.26,6.26,0,0,1,54.31,63l0,.05a4.47,4.47,0,0,0-.73,1.13,13.5,13.5,0,0,1,2.65-1.71c.57-.26,1.16-.5,1.74-.73s1.14-.49,1.76-.7a67.71,67.71,0,0,1,7.35-1.66c.61-.11,1.23-.22,1.83-.35a14.58,14.58,0,0,0,1.76-.51c1.18-.39,2.32-.87,3.49-1.32,2.31-.93,4.59-2,7-2.83l0,.38-3.31,1.33c-1.12.55-2.24,1.1-3.38,1.63s-2.29,1-3.48,1.46a14,14,0,0,1-1.84.56c-.62.14-1.23.25-1.84.37-2.46.47-4.95.81-7.33,1.49a29.1,29.1,0,0,0-6.47,3,6.6,6.6,0,0,0-.42,1.74c0,.26-.07.53-.11.78A15.12,15.12,0,0,1,56.54,66a34.45,34.45,0,0,1,3.91-.58,24.71,24.71,0,0,1,3.94-.07c1.3,0,2.6,0,3.9-.07a31.28,31.28,0,0,0,3.87-.51,10.34,10.34,0,0,0,3.25-2,10.08,10.08,0,0,1,1.67-1.07l1.74-.91L82,59a12.47,12.47,0,0,1-.7-2.83,13.09,13.09,0,0,1,0-3.25,12.06,12.06,0,0,1,.83-3.13A12.75,12.75,0,0,1,83.73,47l.07,0A15.07,15.07,0,0,0,82.52,50a14.42,14.42,0,0,0-.6,3.06A13.78,13.78,0,0,0,82,56.1a14,14,0,0,0,.8,3l.09.21c.57,1,17.12,14.84,17.53,15.26a7.09,7.09,0,0,1,1,1.42,11.7,11.7,0,0,0,.92,1.37l0,0v0a9.59,9.59,0,0,1,.55,2.94c.08,1,.1,2,.11,2.91,0,2,0,3.89-.14,5.82s-.24,3.86-.39,5.79A13.45,13.45,0,0,1,101,100l2.73,1,.53-5s.88-.3,1-.3c.55-8,1.23-16,1.83-24A9,9,0,0,0,105.49,69.74ZM30.6,24.12a1.44,1.44,0,0,1-1.09.07.25.25,0,0,1-.18-.28,1.39,1.39,0,0,1,.51-1,1.44,1.44,0,0,1,1.09-.07.25.25,0,0,1,.18.28A1.38,1.38,0,0,1,30.6,24.12Z"/><path d="M104.86,45.46A9.68,9.68,0,0,1,105,50c.87,1.25,1,3.65,1.35,3.84a6.44,6.44,0,0,0,.31-6.9,25.12,25.12,0,0,0-1.64-2.74c-.38-.63-.86-1.26-1.3-1.92.09.21.19.41.27.63A14.87,14.87,0,0,1,104.86,45.46Z"/></svg>