<svg id="Layer_1" data-name="Layer 1" xmlns="http://www.w3.org/2000/svg" width="128" height="128" viewBox="0 0 128 128"><defs><style>.cls-1{fill:#fff;}.cls-2{fill:#d62525;}</style></defs><title>Artboard 68</title><rect class="cls-1" x="4" y="4" width="120" height="120"/><path class="cls-2" d="M120,8V120H8V8H120m8-8H0V128H128V0Z"/><path d="M47.87,105.82l2.3.89a6.48,6.48,0,0,1-1.79,3.51,4.47,4.47,0,0,1-3.08,1.11,4.55,4.55,0,0,1-3.72-1.77,8.54,8.54,0,0,1-1.64-5.5,9,9,0,0,1,1.65-5.74,4.72,4.72,0,0,1,3.87-1.79,4.46,4.46,0,0,1,3.3,1.35,5.86,5.86,0,0,1,1.39,2.84l-2.35.68a3.14,3.14,0,0,0-.89-1.78A2.22,2.22,0,0,0,45.33,99a2.51,2.51,0,0,0-2.12,1.13,6.5,6.5,0,0,0-.83,3.74,7,7,0,0,0,.8,3.85,2.45,2.45,0,0,0,2.08,1.14,2.15,2.15,0,0,0,1.63-.73A4.61,4.61,0,0,0,47.87,105.82Z"/><path d="M63,111.09H60.42l-1-3.24h-4.7l-1,3.24H51.2l4.57-14.32h2.51Zm-4.36-5.67L57,100.11l-1.59,5.31Z"/><path d="M65.87,111.09V99.19H62.38V96.77h9.33v2.42H68.23v11.9Z"/><path d="M78.13,111.09V96.77H80.5v14.32Z"/><path d="M82.9,111.09V96.77h2.36v14.32Z"/><path class="cls-2" d="M30.33,78.37l2.3.88a6.4,6.4,0,0,1-1.79,3.51,4.48,4.48,0,0,1-3.08,1.11A4.57,4.57,0,0,1,24,82.11,8.59,8.59,0,0,1,22.4,76.6a9,9,0,0,1,1.65-5.73,4.69,4.69,0,0,1,3.86-1.8,4.46,4.46,0,0,1,3.31,1.35,5.86,5.86,0,0,1,1.39,2.84l-2.35.68a3.2,3.2,0,0,0-.89-1.78,2.28,2.28,0,0,0-1.58-.62,2.54,2.54,0,0,0-2.13,1.13,6.59,6.59,0,0,0-.82,3.74,7,7,0,0,0,.8,3.85,2.45,2.45,0,0,0,2.08,1.14,2.12,2.12,0,0,0,1.62-.73A4.52,4.52,0,0,0,30.33,78.37Z"/><path class="cls-2" d="M45.44,83.63H42.87l-1-3.24H37.15l-1,3.24H33.66l4.57-14.32h2.51ZM41.08,78l-1.62-5.31L37.87,78Z"/><path class="cls-2" d="M46.89,83.63V69.31h5a6.91,6.91,0,0,1,2.74.39A3,3,0,0,1,56,71a4.52,4.52,0,0,1,.53,2.28,4.27,4.27,0,0,1-.8,2.7,3.58,3.58,0,0,1-2.29,1.29,6,6,0,0,1,1.26,1.2A16.81,16.81,0,0,1,56,80.84l1.43,2.79H54.61L52.9,80.51a21.25,21.25,0,0,0-1.26-2.11,1.91,1.91,0,0,0-.71-.59,3.34,3.34,0,0,0-1.19-.16h-.49v6Zm2.36-8.26H51a9,9,0,0,0,2.05-.14,1.35,1.35,0,0,0,.72-.58,2.09,2.09,0,0,0,.27-1.14,2,2,0,0,0-.27-1.1,1.47,1.47,0,0,0-.75-.57,9.37,9.37,0,0,0-1.92-.11H49.25Z"/><path class="cls-2" d="M66.44,78.37l2.29.88A6.33,6.33,0,0,1,67,82.76a4.48,4.48,0,0,1-3.08,1.11,4.57,4.57,0,0,1-3.72-1.76,8.53,8.53,0,0,1-1.64-5.51,9,9,0,0,1,1.65-5.73A4.69,4.69,0,0,1,64,69.07a4.46,4.46,0,0,1,3.31,1.35,5.77,5.77,0,0,1,1.38,2.84l-2.34.68a3.15,3.15,0,0,0-.9-1.78,2.25,2.25,0,0,0-1.58-.62,2.53,2.53,0,0,0-2.12,1.13A6.51,6.51,0,0,0,61,76.41a7,7,0,0,0,.8,3.85,2.44,2.44,0,0,0,2.08,1.14,2.12,2.12,0,0,0,1.62-.73A4.52,4.52,0,0,0,66.44,78.37Z"/><path class="cls-2" d="M81.55,83.63H79l-1-3.24h-4.7l-1,3.24H69.76l4.57-14.32h2.51ZM77.19,78l-1.62-5.31L74,78Z"/><path class="cls-2" d="M82.39,79l2.32-.27c.26,1.83,1.11,2.74,2.56,2.74A2.44,2.44,0,0,0,89,80.87a1.8,1.8,0,0,0,.61-1.39,1.41,1.41,0,0,0-.87-1.39,18,18,0,0,0-2.13-.74,7.23,7.23,0,0,1-2.21-1A3.84,3.84,0,0,1,83.24,75a4.28,4.28,0,0,1-.42-1.88A4.17,4.17,0,0,1,83.36,71a3.45,3.45,0,0,1,1.47-1.41,5,5,0,0,1,2.31-.48A4.06,4.06,0,0,1,91.6,73.4l-2.37.13a2.57,2.57,0,0,0-.67-1.61,2.15,2.15,0,0,0-1.48-.46,2.32,2.32,0,0,0-1.47.4,1.21,1.21,0,0,0-.52,1,1.27,1.27,0,0,0,.47,1,6.8,6.8,0,0,0,2.16.87A9,9,0,0,1,90.3,75.8a3.75,3.75,0,0,1,1.22,1.48,5.31,5.31,0,0,1,.42,2.19,4.51,4.51,0,0,1-1.15,3.13,4.6,4.6,0,0,1-3.59,1.27C84.32,83.87,82.72,82.24,82.39,79Z"/><path class="cls-2" d="M93.53,79l2.32-.27c.26,1.83,1.11,2.74,2.56,2.74a2.42,2.42,0,0,0,1.68-.56,1.81,1.81,0,0,0,.62-1.39,1.55,1.55,0,0,0-.21-.83,1.6,1.6,0,0,0-.66-.56,18,18,0,0,0-2.13-.74,7.12,7.12,0,0,1-2.21-1A3.74,3.74,0,0,1,94.38,75a4.44,4.44,0,0,1,.11-4A3.56,3.56,0,0,1,96,69.55a5.07,5.07,0,0,1,2.32-.48,4.06,4.06,0,0,1,4.46,4.33l-2.37.13a2.57,2.57,0,0,0-.68-1.61,2.11,2.11,0,0,0-1.47-.46,2.32,2.32,0,0,0-1.47.4,1.21,1.21,0,0,0-.52,1,1.24,1.24,0,0,0,.47,1,6.8,6.8,0,0,0,2.16.87,9,9,0,0,1,2.58,1.09,3.72,3.72,0,0,1,1.21,1.48,5.15,5.15,0,0,1,.42,2.19,4.5,4.5,0,0,1-1.14,3.13,4.62,4.62,0,0,1-3.59,1.27C95.46,83.87,93.86,82.24,93.53,79Z"/><path class="cls-2" d="M47.8,59.17V44.85h8.71v2.42H50.16v3.18h5.9v2.41h-5.9v3.89h6.57v2.42Z"/><path class="cls-2" d="M59,59.17V45h2.36V56.75h5.9v2.42Z"/><path class="cls-2" d="M69.16,59.17V44.85h8.71v2.42H71.52v3.18h5.9v2.41h-5.9v3.89h6.56v2.42Z"/><path class="cls-2" d="M29.75,34.71V20.39h5a6.89,6.89,0,0,1,2.73.39,3,3,0,0,1,1.35,1.34,4.63,4.63,0,0,1,.53,2.28,4.22,4.22,0,0,1-.81,2.7,3.58,3.58,0,0,1-2.29,1.29,5.57,5.57,0,0,1,1.26,1.2,17.68,17.68,0,0,1,1.36,2.33l1.42,2.79H37.47l-1.72-3.12a21.25,21.25,0,0,0-1.26-2.11,1.89,1.89,0,0,0-.7-.59,3.37,3.37,0,0,0-1.19-.16h-.49v6Zm2.36-8.26h1.76a9.1,9.1,0,0,0,2.05-.14,1.33,1.33,0,0,0,.71-.58,2.09,2.09,0,0,0,.28-1.14,2,2,0,0,0-.28-1.1,1.45,1.45,0,0,0-.74-.57A9.37,9.37,0,0,0,34,22.81H32.11Z"/><path class="cls-2" d="M41.78,34.71V20.39h8.71v2.42H44.15V26H50V28.4H44.15v3.89h6.56v2.42Z"/><path class="cls-2" d="M60.43,29.45l2.29.88a6.33,6.33,0,0,1-1.78,3.51A4.48,4.48,0,0,1,57.86,35a4.57,4.57,0,0,1-3.72-1.76,8.59,8.59,0,0,1-1.64-5.51A9,9,0,0,1,54.15,22,4.69,4.69,0,0,1,58,20.15a4.46,4.46,0,0,1,3.31,1.35,5.86,5.86,0,0,1,1.39,2.84L60.36,25a3.2,3.2,0,0,0-.89-1.78,2.28,2.28,0,0,0-1.58-.62,2.54,2.54,0,0,0-2.13,1.13,6.59,6.59,0,0,0-.82,3.74,7,7,0,0,0,.8,3.85,2.45,2.45,0,0,0,2.08,1.14,2.12,2.12,0,0,0,1.62-.73A4.52,4.52,0,0,0,60.43,29.45Z"/><path class="cls-2" d="M65,34.71V20.39h8.71v2.42H67.32V26h5.9V28.4h-5.9v3.89h6.56v2.42Z"/><path class="cls-2" d="M76.11,34.71V20.39h2.31L83.22,30V20.39h2.21V34.71H83.05l-4.73-9.34v9.34Z"/><path class="cls-2" d="M90.77,34.71V22.81H87.28V20.39h9.33v2.42H93.13v11.9Z"/></svg>