<svg id="Layer_1" data-name="Layer 1" xmlns="http://www.w3.org/2000/svg" width="128" height="128" viewBox="0 0 128 128"><title>Artboard 71</title><path d="M46.36,72.19a14.25,14.25,0,0,1-4.45-1.64,28.74,28.74,0,0,1-7.06-5,32.28,32.28,0,0,0-1.18,4.64,16.34,16.34,0,0,0-.24,2.61A8.91,8.91,0,0,1,33,75.49a13.51,13.51,0,0,1-2.85,4.67c-.59.68-1.27,1.32-1.87,1.94-.35.36-.69.74-1,1.11.6,3.13,1.16,6.25,1.64,9.4.49,3,.93,6,1.32,8.94a.74.74,0,0,0,.71.62l6.37.08a2.51,2.51,0,0,0-.16-.9,3,3,0,0,0-.8-1.08,6.33,6.33,0,0,0-2.68-.73.6.6,0,0,1-.53-.53c-.16-1.52-.66-6.23-.92-8.59a3.94,3.94,0,0,1,.37-2.18,6,6,0,0,1,1.48-1.64A27.38,27.38,0,0,1,37.44,84c1.16-.8,2.28-1.65,3.39-2.51a13.42,13.42,0,0,0,2.67-3.11,22.57,22.57,0,0,0,1.92-3.07,15.23,15.23,0,0,0,1.21-3.06ZM86,45.83a38.17,38.17,0,0,0-4.31,5.34,9.31,9.31,0,0,0-.63,1.21,3.4,3.4,0,0,0-.22.6l-.21.7c-.28.91-.6,1.82-.93,2.71a39.56,39.56,0,0,1-2.33,5.26,14.05,14.05,0,0,1-.76,1.26,6,6,0,0,1-.46.6l-.28.3c-.12.1-.26.19-.38.28-1,.45-1.84.65-2.7,1a4.61,4.61,0,0,0-.92.45c-.18,1.37-.61,8.56-.61,8.56,0,2.89-.09,5.77-.1,8.66l0,4.32c0,1.39.26,2.86.38,4.29.25,2.48.5,5,.7,7.43a.83.83,0,0,0,.81.74l8.2.08c0-1.69-2.76-2.35-4.34-2.58a1.38,1.38,0,0,1-1.19-1.24c-.1-1-.26-2.55-.34-3.44l-.18-2.18a8.2,8.2,0,0,1,0-2.21c.56-2.85,1-5.73,1.55-8.59s1.14-5.72,1.77-8.55a54.47,54.47,0,0,1,2.54-8.41v0a40.91,40.91,0,0,0,3.34-8.31c.42-1.43.75-2.9,1-4.38A13.5,13.5,0,0,0,86,45.83Zm18-35.59c-.07-.21-.21-.38-.42-.35a1.28,1.28,0,0,0-.65.42c-.41.41-.58,1-1.06,1.46-.77.47-1.07,1.41-2,2.11a4.38,4.38,0,0,1,.9.37l.8.67c.61.33,1,1,1.53,1.39l.18.13a13.06,13.06,0,0,1,.21-3,9.56,9.56,0,0,1,.41-1.74A3.33,3.33,0,0,0,104,10.24Zm7.64,13.51a1.32,1.32,0,0,0-.62-.42,5.3,5.3,0,0,1-1.92-.63,19.48,19.48,0,0,1-3.39-2.05l.05-.09a10.34,10.34,0,0,1,1,.3,3.47,3.47,0,0,0-.92-1.54c-.52-.37-1.09-.78-1.62-1.2a37.14,37.14,0,0,1-3-2.75,7.92,7.92,0,0,0-.76-.67,2.08,2.08,0,0,0-.89-.37,24.69,24.69,0,0,0-5.93-.21c-.06.14-.1.2-.17.35.23.57.45,1.15.64,1.75l-.1.05c-.36-.48-.69-1-1-1.45l0,0V14.7c-.09-1-.14-1.93-.16-2.9a3.52,3.52,0,0,0-.13-1.21A2.9,2.9,0,0,0,92.2,9.5a.89.89,0,0,0-.52-.26,6.15,6.15,0,0,0-1,.24,4.44,4.44,0,0,0-1.13.77A21.85,21.85,0,0,0,87.22,13c-3,4-.74,6.08-.74,6.08,0,.33.62.63.84.89a1.6,1.6,0,0,0,.42.3l.64.2,1.35.48.29.1-.1.25c-.21.54-.46,1.08-.7,1.61l-.1,0c.06-.48.15-1,.23-1.44l-1.16-.19c-.24-.05-.44-.08-.73-.15a2,2,0,0,1-.79-.43,7.76,7.76,0,0,1-1.51-2.76A46.53,46.53,0,0,0,78,22.45c-1.25,1-5.58,4.39-6.54,5.64l-.13.17-.25,0a11.41,11.41,0,0,0-2.81,1.22c-1,.51-1.91,1.06-2.84,1.61-1.89,1.12-3.74,2.28-5.69,3.35a23.91,23.91,0,0,1-4.19,1.19A14.41,14.41,0,0,1,53.1,36a3.76,3.76,0,0,0-1.9.65c-.64.43-1.35,1-1.63,1.16a9.21,9.21,0,0,1-3.06,1.34,49.58,49.58,0,0,0-6.21,2c-2,.79-4.08,1.57-6.07,2.45S30.67,46,28.92,47.31,25.61,50,23.84,51.17l-.24.24a18.07,18.07,0,0,0-1.92,3.64,30.39,30.39,0,0,0-1.31,4.23,14.64,14.64,0,0,0-.41,4.3L20.37,68c.25,3,.45,5.94.42,9a10.86,10.86,0,0,1-1.29,4.4,18.29,18.29,0,0,1-2.44,3.73A86.53,86.53,0,0,1,15.85,102a.73.73,0,0,0,.72.86h7.66a3.17,3.17,0,0,0-2.95-2.72.73.73,0,0,1-.64-.71,40.38,40.38,0,0,1,.29-6.36,16.07,16.07,0,0,1,1.64-5.26,31.74,31.74,0,0,1,3.16-4.43,26.73,26.73,0,0,1,1.85-2c.67-.63,1.3-1.21,1.89-1.85a13.3,13.3,0,0,0,2.84-4.31,12.66,12.66,0,0,0,.26-3.1,49.35,49.35,0,0,1,1.58-7A12.11,12.11,0,0,1,38.32,58l.07.07a14.18,14.18,0,0,0-1.22,1.69,13.22,13.22,0,0,0-1,1.81c-.3.64-.72,2.18-1,2.79a23.14,23.14,0,0,0,6.86,5.51c1.82,1,4.55,2.06,9.77,1.26,4.1-.63,8-4,10.11-4.51l.13.05c-.41-1.21-.59-2.05-1-3.24-.22-.73-.44-1.44-.69-2.14A20.68,20.68,0,0,1,59.7,59a33.06,33.06,0,0,1-.85-4.59,11.47,11.47,0,0,1,.28-4.63l.09,0a11.34,11.34,0,0,0,.14,4.53,32.08,32.08,0,0,0,1.14,4.41,21.13,21.13,0,0,0,.87,2.1,14.06,14.06,0,0,1,.73,2.25,27.07,27.07,0,0,1,.8,7.3c0,1.54-.17,3.06-.33,4.59q.55,4,1,8c.31,2.69.63,5.35.75,8.08a3.7,3.7,0,0,1-.06,1.13,7.85,7.85,0,0,0-.06.91,50.57,50.57,0,0,0,.22,5.69.81.81,0,0,0,.81.73h6c-.07-.68-.13-1.35-.2-2-.24,0-.94-.16-1.57-.28a1.53,1.53,0,0,1-1.23-1.45c0-1-.09-2.34-.1-2.53,0-.65,0-1.3,0-1.94a38.59,38.59,0,0,1,.38-3.85,6.48,6.48,0,0,1,.19-1l.08-.23a1,1,0,0,0,0-.15,2.9,2.9,0,0,0,0-.43c0-.61,0-1.25,0-1.89l-.06-1.92c0-.66,0-1.27-.07-1.92-.09-1.27-.28-2.54-.33-3.83a28.69,28.69,0,0,1,.25-3.84A22.4,22.4,0,0,1,69,68.73a5.17,5.17,0,0,1,1.17-2.45,6.84,6.84,0,0,1,2.3-1.85c.86-.46,1.83-.75,2.56-1.16a3.51,3.51,0,0,0,.73-.92c.23-.39.46-.79.67-1.21.83-1.66,1.57-3.39,2.29-5.13.35-.88.69-1.75,1-2.63l.22-.67a6.62,6.62,0,0,1,.32-.71.43.43,0,0,1,0-.07,18.71,18.71,0,0,0-.38-2.36c-.25-1.1-.4-2.23-.72-3.33A26.67,26.67,0,0,0,78.07,43,9.57,9.57,0,0,0,76.35,40l.07-.09a9.73,9.73,0,0,1,2.12,2.81A26.69,26.69,0,0,1,80,46a13.38,13.38,0,0,1,1,3.42,10.67,10.67,0,0,1,0,1.39.11.11,0,0,1,0-.06,38.14,38.14,0,0,1,3.67-4.41c1.27-1.4,2.53-2.82,3.7-4.31s2.34-3,3.57-4.44,2.5-2.84,3.79-4.24l0-.06,0,0a22.68,22.68,0,0,0,2.58-1.56,10.72,10.72,0,0,1,1-.61,7.53,7.53,0,0,0-1.53.2c-1.29.46-2.67,1.22-4,1.84L93.77,33A10.54,10.54,0,0,1,95,31.92a16.55,16.55,0,0,1-1.89-.21,15,15,0,0,1-2.42-.61L90.41,31l-.06-.2c-.55-1.78-1.09-3.58-1.6-5.38l.1-.05q1.14,2.43,2.22,4.88a24.26,24.26,0,0,1,4.35,1.34l.1-.09a9.9,9.9,0,0,1,2-1.21,8.46,8.46,0,0,1,4.74.1,9.73,9.73,0,0,0,2.25.19c.41,0,.82,0,1.22,0l2.1-.08.57,0a.77.77,0,0,0,.44-.11c.4-.35.4-.93.58-1.52-.57.15-1,.22-1.56.32a13.65,13.65,0,0,1-2.57.24,5.15,5.15,0,0,1-1.37-.13c-.44-.13-.82-.29-1.23-.44a21.19,21.19,0,0,1-2.3-1.12l0-.09c.86.13,1.68.3,2.5.46.41.09.82.18,1.21.24a7,7,0,0,0,1.13,0l2.47-.2c.79-.07,1.6-.19,2.35-.33a4.87,4.87,0,0,0,.53-.68c.21-.29.41-.58.6-.89a13.92,13.92,0,0,0,.91-1.81A5.08,5.08,0,0,0,111.64,23.75Zm-10.28-3.68a2.29,2.29,0,0,1-1.34.85,2.26,2.26,0,0,1-1.51-.49.28.28,0,0,1-.05-.42,2.17,2.17,0,0,1,1.34-.85,2.27,2.27,0,0,1,1.51.48A.31.31,0,0,1,101.36,20.07Z"/><path d="M35.53,124V109.68H37.9v5.64h4.66v-5.64h2.36V124H42.56v-6.26H37.9V124Z"/><path d="M50.65,124v-6l-4.3-8.29h2.77l2.76,5.66,2.72-5.66h2.73L53,118v6Z"/><path d="M58.71,124V109.68h8.71v2.43H61.07v3.17H67v2.41h-5.9v3.89h6.56V124Z"/><path d="M69.86,124V109.68h2.31l4.8,9.56v-9.56h2.21V124H76.8l-4.73-9.34V124Z"/><path d="M92.47,124H89.9l-1-3.24h-4.7l-1,3.24H80.68l4.57-14.32h2.51Zm-4.36-5.66L86.48,113l-1.59,5.32Z"/></svg>