<svg id="Layer_1" data-name="Layer 1" xmlns="http://www.w3.org/2000/svg" width="128" height="128" viewBox="0 0 128 128"><title>Artboard 74</title><path d="M11,123.76,8.18,109.44h2.43l1.77,9.84,2.14-9.84h2.83l2.06,10,1.81-10H23.6l-2.85,14.32H18.23l-2.35-10.71-2.32,10.71Z"/><path d="M34.7,123.76H32.13l-1-3.25H26.4l-1,3.25H22.91l4.57-14.32H30Zm-4.36-5.67-1.62-5.31-1.59,5.31Z"/><path d="M37.58,123.76v-11.9H34.1v-2.42h9.32v2.42H40v11.9Z"/><path d="M45.17,123.76V109.44h8.71v2.42H47.53V115h5.9v2.41h-5.9v3.88h6.56v2.43Z"/><path d="M56.3,123.76V109.44h5a6.91,6.91,0,0,1,2.74.39,3,3,0,0,1,1.35,1.33,4.68,4.68,0,0,1,.52,2.28,4.26,4.26,0,0,1-.8,2.71,3.62,3.62,0,0,1-2.29,1.29,5.76,5.76,0,0,1,1.26,1.19A18.4,18.4,0,0,1,65.43,121l1.42,2.8H64l-1.71-3.12a20,20,0,0,0-1.26-2.11,1.8,1.8,0,0,0-.7-.59,3.19,3.19,0,0,0-1.19-.16h-.49v6Zm2.37-8.27h1.76a8.56,8.56,0,0,0,2-.14,1.27,1.27,0,0,0,.71-.57,2.14,2.14,0,0,0,.27-1.14,2,2,0,0,0-.27-1.1,1.35,1.35,0,0,0-.74-.57,9.5,9.5,0,0,0-1.93-.11H58.67Z"/><path d="M73.09,109.44h4.7a7.37,7.37,0,0,1,2.71.35A3.06,3.06,0,0,1,81.82,111a4,4,0,0,1,.08,3.88,3.06,3.06,0,0,1-1.2,1.24,3.2,3.2,0,0,1,1.64,1.27,3.93,3.93,0,0,1,.59,2.19,4.45,4.45,0,0,1-.76,2.64,3.07,3.07,0,0,1-1.77,1.33,18,18,0,0,1-3.31.18h-4Zm2.37,2.38v3.31H77a15.18,15.18,0,0,0,1.74,0,1.42,1.42,0,0,0,.94-.51,1.71,1.71,0,0,0,.34-1.13,1.81,1.81,0,0,0-.27-1,1.16,1.16,0,0,0-.68-.49,13.58,13.58,0,0,0-2.27-.1Zm0,5.7v3.81h2.2a7,7,0,0,0,1.86-.15,1.43,1.43,0,0,0,.69-.59,2.46,2.46,0,0,0,0-2.28,1.53,1.53,0,0,0-.8-.62,7.27,7.27,0,0,0-2-.17Z"/><path d="M85.11,109.44h2.36v7.75a18.81,18.81,0,0,0,.09,2.36,2.32,2.32,0,0,0,.75,1.46,2.61,2.61,0,0,0,2.9.15,1.81,1.81,0,0,0,.71-1,12.36,12.36,0,0,0,.19-2.79v-7.92h2.36V117a20.28,20.28,0,0,1-.3,4.16,3.55,3.55,0,0,1-1.39,2.08,4.7,4.7,0,0,1-2.85.8,5.26,5.26,0,0,1-2.86-.66,3.76,3.76,0,0,1-1.5-1.85,14,14,0,0,1-.46-4.41Z"/><path d="M104.68,118.49l2.3.89a6.48,6.48,0,0,1-1.79,3.51,4.47,4.47,0,0,1-3.08,1.11,4.55,4.55,0,0,1-3.72-1.77,8.55,8.55,0,0,1-1.64-5.51A8.91,8.91,0,0,1,98.41,111a4.66,4.66,0,0,1,3.86-1.79,4.45,4.45,0,0,1,3.3,1.34,5.87,5.87,0,0,1,1.39,2.84l-2.35.69a3.11,3.11,0,0,0-.89-1.78,2.22,2.22,0,0,0-1.58-.62A2.48,2.48,0,0,0,100,112.8a6.48,6.48,0,0,0-.83,3.74,6.89,6.89,0,0,0,.81,3.85,2.43,2.43,0,0,0,2.08,1.14,2.15,2.15,0,0,0,1.62-.73A4.61,4.61,0,0,0,104.68,118.49Z"/><path d="M109.23,123.76V109.44h2.36v6.37l4.8-6.37h3.19L115.16,115l4.66,8.74h-3.07L113.51,117l-1.92,2.4v4.33Z"/><path d="M81.3,101.18l.12.25,4.51-.1s-1.53-1.87-1.57-1.87S81.3,101.18,81.3,101.18Z"/><path d="M66.71,102.58l.11.25,4.51-.1s-1.53-1.86-1.56-1.86S66.71,102.58,66.71,102.58Z"/><path d="M39.28,100.92l.12.25,4.51-.1s-1.54-1.86-1.57-1.86S39.28,100.92,39.28,100.92Z"/><path d="M33.7,100.92l.12.25,4.51-.1s-1.54-1.86-1.57-1.86S33.7,100.92,33.7,100.92Z"/><path d="M81.08,98.71a4.69,4.69,0,0,1,0,1.73l3-1.46c-.43-.94-.84-1.9-1.19-2.89a12.75,12.75,0,0,1-.5-1.72l-.28-1.71a30.69,30.69,0,0,1-.5-7c.11-2.29.11-5.53.41-7.87.33-2,.67-3.89,1-5.82a3.73,3.73,0,0,1-.36.32,2.57,2.57,0,0,1-.37.21,2.39,2.39,0,0,0-.22.12c-.33.18-.67.46-1,.71a7,7,0,0,1-2.45,1.08,10.52,10.52,0,0,1-2.6.32c.67,1.77.9,4.55,1.39,6.38.25.94.46,1.9.71,2.84s.54,1.87.75,2.84.44,1.92.59,2.9c.06.49.14,1,.16,1.49l.09,1.47c.11,1.78.23,3.56.43,5.34a.49.49,0,0,0,.38.43A.89.89,0,0,1,81.08,98.71Z"/><path d="M34.27,91.76a5.43,5.43,0,0,1,0-1.57,15.62,15.62,0,0,1,.41-2.25c-.49-1.45-1-2.92-1.54-4.36l0-.16,0-.15c.48-1.46,1-2.9,1.35-4.36.17-.73.31-2.42.38-3.15a4.72,4.72,0,0,0-.26-2.1,11.32,11.32,0,0,0-.95-2,14.32,14.32,0,0,1-1.61,5.58c-.34.42-.69.77-1,1.13a4.85,4.85,0,0,0-1.53,2.14c.4,1.33.92,4.55,1.17,5.86s.52,2.69.82,4,.62,2.67.88,4c.48,2.23-.61,3.43-.28,4s1,.43,1.33.61.13,1.15.13,1.15c.68-.33,2.25-1.18,2.94-1.5a36.48,36.48,0,0,1-1.82-5.37A10.46,10.46,0,0,1,34.27,91.76Z"/><path d="M27.25,58.59A11.54,11.54,0,0,0,27,62.84a18.6,18.6,0,0,0,3,6.9A7.42,7.42,0,0,1,32,72.25c.38,1-.27,2.56-1.84,4.39.69-1.79-.55-3.47-.84-4.15s0-1.33-.11-2a20.21,20.21,0,0,0-1.55-3,21.52,21.52,0,0,1-2-5.91,6.9,6.9,0,0,1,1.63-6,4.47,4.47,0,0,1,1-2.34,21,21,0,0,1,3.54-2.87,20.62,20.62,0,0,1,2.76-1.83C33,50.57,30.78,53.93,31.05,56c.21,1.64,1,5.19,1.37,8.12a32.43,32.43,0,0,1,.17,4,4.13,4.13,0,0,0,.25,1.11,14.5,14.5,0,0,0-1.49-1.64A10.68,10.68,0,0,1,29.82,66a13.81,13.81,0,0,1-1.91-4.07A18,18,0,0,1,27.25,58.59Z"/><path d="M102.48,41.12c-.27-.42-1.14-1.74-1.54-2.43s-1.29-2-1.87-2.78c-.42-.58-1.29-1.56-1.7-2a.66.66,0,0,1-.16-.54,4.67,4.67,0,0,0,0-1.45c.1-.21.18-.36.18-.36a11.76,11.76,0,0,0,1.92-.33,3.9,3.9,0,0,0,1.54-.89,2.8,2.8,0,0,0,.84-1.62,11.51,11.51,0,0,0,.26-1.94.21.21,0,0,0-.24-.19A8.63,8.63,0,0,0,100,27a5.63,5.63,0,0,0-1.38.65,1.79,1.79,0,0,0-.52.46,6.07,6.07,0,0,0-.47.63c-.32.43-.78,1.71-.88,1.73s-.28-.44-.48-.63a5.22,5.22,0,0,0-.45-.33,1.83,1.83,0,0,1,0-.37,9.75,9.75,0,0,0-.8-2.82,17.93,17.93,0,0,0-1.47-2.94c-1-1.57-3.38-4.06-5.12-12.33a54.87,54.87,0,0,1-1-5.57,15.09,15.09,0,0,0-.36,4,27.11,27.11,0,0,0,3.92,13.44,25.62,25.62,0,0,1,2.18,5.76l-.46.18h-.11c-2-2.46-10.23-7.43-10.23-7.43a16.65,16.65,0,0,1-3.16-3,25,25,0,0,1-2.42-3.55c-.35-.63-.67-1.26-1-1.91a8.25,8.25,0,0,1-.71-2.1,21.17,21.17,0,0,1,.19-7.24,12.52,12.52,0,0,0-1.41,7.09,13.76,13.76,0,0,0,.38,2.13,13.62,13.62,0,0,0,.79,2,23.78,23.78,0,0,0,2.24,3.68,30.37,30.37,0,0,0,6,6.23l1.68,1.37c.58.45,1.17.87,1.75,1.33a35.23,35.23,0,0,1,3.2,3l-.06.08c-.22-.19-.44-.36-.66-.54-.26.11-2.07.78-2.32.93l-.2.13-.89-1.31a7.49,7.49,0,0,0-1.51-1.23A11.23,11.23,0,0,0,82,28c-.52-.09-1.73-.78-2.42-.92a.28.28,0,0,0-.33.28,22,22,0,0,0,.49,3A3.35,3.35,0,0,0,81,32.26a4.81,4.81,0,0,0,2.13.88,10.37,10.37,0,0,0,1.1.15,2,2,0,0,1-.17.27c-.38.61-.76,1.26-1.1,1.9a20.37,20.37,0,0,0-1.78,4v0h0a12.25,12.25,0,0,1-2.67,3.16,20.58,20.58,0,0,1-3.28,2.5,3.56,3.56,0,0,1-1,.43,6.77,6.77,0,0,1-1.09,0,10.51,10.51,0,0,0-2,.07,8.31,8.31,0,0,0-3.49,1.58l-.07.06-.07,0a26.72,26.72,0,0,1-4.67.48c-1.54.05-3.08,0-4.63,0-.77,0-1.55-.1-2.32-.17-.39,0-.78-.11-1.2-.19l-.55-.17-.52-.1c-1.48-.19-3-.22-4.57-.34-.76,0-1.53-.1-2.31-.22a7.93,7.93,0,0,1-1.16-.23,6.16,6.16,0,0,0-1.08-.28,14.64,14.64,0,0,0-4.5.36A19.89,19.89,0,0,0,35,48.24c-.93,2.07-2.76,6.43-2.59,8.24.23,2.41,1,4,1.32,7.81A66.11,66.11,0,0,0,35,72.58a8.24,8.24,0,0,1,.35.81,5.51,5.51,0,0,1,.37,2.45c-.08.78-.2,2.5-.37,3.26-.35,1.49-.84,2.9-1.28,4.3,1,2.58,1.9,5.15,2.71,7.79.26.9.49,1.8.73,2.68a7.51,7.51,0,0,1,.2,2.75,8.72,8.72,0,0,0-.08,2.49c.24.29.7,0,1,.23a1.64,1.64,0,0,1,.38.82l2.79-1.43a4.28,4.28,0,0,1-1-1.57c-.42-.94-.8-1.87-1.12-2.83a23.41,23.41,0,0,1-.81-3,15.34,15.34,0,0,1-.14-3.09,22.28,22.28,0,0,1,.37-3.05,6.58,6.58,0,0,1,.48-1.48l.55-1.41,2.25-6.52,0,0c.63-1.17,1-2.59,1.56-3.8s1.89-4.89,2.18-5.48a18,18,0,0,1,1.05-1.54,4.05,4.05,0,0,0,.65-1.63,5.42,5.42,0,0,0,0-1.84l.09,0a5.7,5.7,0,0,1,.4,1.89,4.84,4.84,0,0,1-.45,2A7.72,7.72,0,0,1,46.92,67a21.08,21.08,0,0,0-1.44,2.55c.71.46,2.83,2.36,3.87,3.32a.4.4,0,0,0,.65-.15l.47-1.29.26.07c1.31.36,2.65.66,4,1s2.7.46,4.05.65,2.71.42,4.06.6,2.63.32,4,.48a21.48,21.48,0,0,0-.16-2.53,16.43,16.43,0,0,1-.71-2.08,21.11,21.11,0,0,1-.61-2.37,9,9,0,0,1-.27-2.43,6.67,6.67,0,0,1,.63-2.4h.1c.12.84.14,1.61.22,2.39s0,1.54.07,2.33a23.05,23.05,0,0,0,.31,2.34,14.45,14.45,0,0,0,.81,2.1s0,2.12,0,3.14,0,2-.08,3.06l-.1,4a14.63,14.63,0,0,0,.18,3,43.65,43.65,0,0,1-1.24,10.21s-1.24,3.8-1.05,4.25,1,.36,1,.36a.69.69,0,0,1,.58.6l-.07,1.64a18.29,18.29,0,0,1,3-1.41,10.63,10.63,0,0,1-.69-4.94A20,20,0,0,1,69,92.77a15.83,15.83,0,0,1,.69-3.08h0v0a13.7,13.7,0,0,0,.94-2.86,27,27,0,0,0,.51-3,18.21,18.21,0,0,1,.42-3.16c.21-1,.44-3,.67-4l.17-.76.09-.38,0-.2a1,1,0,0,1,.08-.25,4.4,4.4,0,0,1,1-1.38,13.17,13.17,0,0,1,1.22-1,12.12,12.12,0,0,0,1.21-1,7.32,7.32,0,0,0,1-1.12,14.29,14.29,0,0,1,1-1.24A5.82,5.82,0,0,0,79,68a4.32,4.32,0,0,0,.43-1.46h.09a5.07,5.07,0,0,1-.3,1.57,7.49,7.49,0,0,1-.79,1.38c-.31.44-.6.84-.88,1.29a8.8,8.8,0,0,1-1,1.27c-.78.79-1.63,1.35-2.32,2.1-.09.1-.19.2-.28.32.7,0,1.4-.07,2.1-.17a11.36,11.36,0,0,0,2.45-.51,7.11,7.11,0,0,0,2.15-1.12c.33-.25.63-.54,1-.81l.33-.19.18-.12a3.54,3.54,0,0,0,.38-.39,11.77,11.77,0,0,0,1.34-2.06c.41-.72.77-1.5,1.14-2.25a48.67,48.67,0,0,0,1.89-4.68h0v0a37.51,37.51,0,0,1,1.67-4.7c.67-1.51,1.37-3,2.19-4.47a9,9,0,0,0,1.25-3.91l0,0c-4.9-3.18-5.56-11.37-5-13.09a29.09,29.09,0,0,0,1.86,5.52,12,12,0,0,0,3.65,3.46c0-.62.12-1.15.15-1.48a.41.41,0,0,1,.36-.37c.6-.08,1.83-.23,2.43-.29.38,0,1.14.28,1.4.17a3.85,3.85,0,0,1,.9,0,4,4,0,0,1,.51.48c.5.59,1.06,1.26,1.71,1a2.5,2.5,0,0,0,1.15-1c-.53-.27-1.08-.53-1.6-.83s-1.29-.73-1.9-1.15l0-.09c.72.18,1.42.4,2.13.64s1.16.41,1.74.63a4.17,4.17,0,0,0,.93-1.27A.28.28,0,0,0,102.48,41.12Zm-8.66-6.85a1.89,1.89,0,0,1-1.24.25,1.84,1.84,0,0,1-1-.79.23.23,0,0,1,.07-.32,1.49,1.49,0,0,1,2.22.53A.24.24,0,0,1,93.82,34.27Z"/></svg>