<svg id="Layer_1" data-name="Layer 1" xmlns="http://www.w3.org/2000/svg" width="128" height="128" viewBox="0 0 128 128"><title>Artboard 13 copy 3</title><path d="M35.57,124v-2.62l6.17-9.27H36.27v-2.43h8.59v2.25l-6.43,9.65h6.68V124Z"/><path d="M46.82,124V109.68h8.71v2.43H49.18v3.17h5.9v2.41h-5.9v3.89h6.56V124Z"/><path d="M57.94,109.68h4.71a7.09,7.09,0,0,1,2.7.36,2.85,2.85,0,0,1,1.32,1.24,4,4,0,0,1,.08,3.88,3,3,0,0,1-1.2,1.23,3.2,3.2,0,0,1,1.64,1.27,3.93,3.93,0,0,1,.59,2.19,4.51,4.51,0,0,1-.75,2.64,3.12,3.12,0,0,1-1.78,1.33,18,18,0,0,1-3.31.18h-4Zm2.37,2.39v3.31h1.56c.94,0,1.52,0,1.74,0a1.56,1.56,0,0,0,1-.51,1.79,1.79,0,0,0,.34-1.13,1.77,1.77,0,0,0-.28-1,1.19,1.19,0,0,0-.67-.5,15.81,15.81,0,0,0-2.28-.09Zm0,5.69v3.82h2.2a7,7,0,0,0,1.86-.15,1.4,1.4,0,0,0,.69-.6,2.11,2.11,0,0,0,.28-1.12,2.08,2.08,0,0,0-.3-1.16,1.51,1.51,0,0,0-.79-.62,7.75,7.75,0,0,0-2-.17Z"/><path d="M70,124V109.68h5a6.82,6.82,0,0,1,2.73.39,3,3,0,0,1,1.35,1.34,4.63,4.63,0,0,1,.53,2.28,4.22,4.22,0,0,1-.81,2.7,3.51,3.51,0,0,1-2.29,1.29,5.8,5.8,0,0,1,1.26,1.2,15.66,15.66,0,0,1,1.36,2.33L80.54,124H77.71L76,120.88a20,20,0,0,0-1.25-2.11,1.91,1.91,0,0,0-.71-.59,3.34,3.34,0,0,0-1.19-.16h-.49v6Zm2.36-8.26h1.76a9,9,0,0,0,2-.14,1.38,1.38,0,0,0,.72-.57,2.15,2.15,0,0,0,.27-1.15,2,2,0,0,0-.27-1.1,1.47,1.47,0,0,0-.75-.57,9.72,9.72,0,0,0-1.92-.1H72.35Z"/><path d="M92.61,124H90l-1-3.24h-4.7l-1,3.24H80.82l4.58-14.32h2.51Zm-4.36-5.66L86.63,113,85,118.34Z"/><path d="M19.84,8.76a3.71,3.71,0,0,0,.43,1,2.28,2.28,0,0,0,.8.64l1.12.52a1.88,1.88,0,0,1,.75.57l.38-.35a2.26,2.26,0,0,1,.41-.41l.49-.25a5.2,5.2,0,0,1,1-.31l.44-.11a12.36,12.36,0,0,1-3.77-2.68L21.45,7A4.73,4.73,0,0,1,21,6.51c-.28-.32-.46-.67-.7-1A3.2,3.2,0,0,0,18.85,4.4a12.14,12.14,0,0,0,.31,2C19.34,7.23,19.59,8,19.84,8.76Z"/><path d="M25.73,10l0,.06c.42-.09.84-.16,1.26-.22a6.71,6.71,0,0,1-.48-1.14,8.81,8.81,0,0,1-.15-3.21,13.3,13.3,0,0,1-3.23,1.77C23.46,7.56,25.19,9.37,25.73,10Z"/><path d="M31,6.32A7.27,7.27,0,0,1,31.81,8a17.58,17.58,0,0,1,.39,3.32l.79.78c.11-.2.4-.68.62-1s1.16-2.53,1.55-3.47c-.85-.7-1.47-1.23-1.75-1.47A6.12,6.12,0,0,0,29.77,4.6h0l.21.25A14.63,14.63,0,0,1,31,6.32Z"/><path d="M34.23,11.74a4.28,4.28,0,0,0-.12,1.44l.92.91.64-.85S37,11.7,37.2,11.33a7.56,7.56,0,0,0,.57-1.59L37,9.13A36.61,36.61,0,0,0,34.23,11.74Z"/><path d="M36.61,14a3.31,3.31,0,0,0-.54,1.15l1,1c.41-.33,1.56-1.25,1.62-1.25s1.28-2.4,1.6-3h0c-.24-.19-.48-.38-.71-.58C39.05,11.7,36.92,13.6,36.61,14Z"/><path d="M38.27,17.27,39,18c.3-.27,1.39-1.24,1.42-1.25s1.85-2.13,2.42-2.83l-.55-.45c-.67.56-2.71,2.25-2.74,2.32S38.64,16.85,38.27,17.27Z"/><path d="M40.14,19.11l1.68,1.78L44,19.43s1.22-2,1.85-3l-1-.85h0l-3,2Z"/><path d="M43.18,22.34c.71.76,1.42,1.52,2.14,2.26.36-.3,1.42-1.17,1.48-1.19S49.26,20.68,50,19.8c-.29-.35-.47-.57-.51-.6a15.67,15.67,0,0,0-1.45-1l-2.73,1.92S43.74,21.78,43.18,22.34Z"/><path d="M46.69,26c.33.33.67.66,1,1,.28-.24.95-.84,1-.87a4.71,4.71,0,0,1,1-1.25c.37-.22,2.28-1.15,3.11-1.56l-1.14-1.44c-1,.6-3.88,2.43-4.13,2.61A6,6,0,0,0,46.69,26Z"/><path d="M49,28.14a10.72,10.72,0,0,0,1,.74.15.15,0,0,0,.07,0A22.05,22.05,0,0,1,51.66,27c.25-.2,1.9-1.39,2.57-1.87l-1.35-1.72-3.22,3.07Z"/><path d="M51.47,29.21l1,.12a17.67,17.67,0,0,1,1.19-1.39,12.08,12.08,0,0,1,1.73-1.29l-1.16-1.51c-.56.56-1.85,1.85-1.94,2S51.66,28.75,51.47,29.21Z"/><path d="M57.25,29.05,55.67,27c-.42.72-1.06,2-1.24,2.47C55,29.44,57.09,29.53,57.25,29.05Z"/><path d="M47.88,81.17c.06.54.18,1.14.21,1.63a4,4,0,0,1-.38,1.46,11.75,11.75,0,0,1-.54,1.06c-.52-.17-.89-.07-.65.31a1.06,1.06,0,0,1-.08,1.19c-.16.23-.55.74,0,.3l.2-.14c-.21,1-.43,2.19-.54,3-.06.41-.11.83-.14,1.25L45.8,93c-.1,1-.18,2.07-.27,3.11h0c-.61.28-1.16.6-.64.56a2.85,2.85,0,0,1,.59,0c-.07,1-.18,2.28-.2,3.37a.56.56,0,0,1-.32.5l-1.13.55a1.83,1.83,0,0,0-1,1.65l0,1c-.41-.27-2.87-1.57-2.91-1.61a5.93,5.93,0,0,0,1.19-1.26A13.7,13.7,0,0,0,42.75,95l.09-1.51.32.23c.36.27,0,.3-.08.68s0,.56.37,1.14.46-.31,1-1.33-.19-.19-.55.08-.66,0-.28-.57.58-.45,1-.75,0-.44-.44-.28a3.3,3.3,0,0,1-1.31.07L43,91.46a6.87,6.87,0,0,1,.84.14c1.15.28.6-.27.93-1s.11-.44-.54-.66c-.41-.14-.66.09-1.17.38l.09-1.5c.26,0,.61-.13,1.08-.2,1.38-.22.49-.55,1.21-1.49s.16-.71-.39-.38a5.46,5.46,0,0,1-1.82.64l0-.27V87c-.06-.26-.11-.53-.15-.79a1.13,1.13,0,0,0,.37,0c.37-.14.77-1.44.77-1.44a8.69,8.69,0,0,0-1.31.17c-.05-.57-.09-1.14-.11-1.72a12.73,12.73,0,0,1,2.13.89c.28.28.83-.88.87-1.31s-.48-.5-.82-.17a1.34,1.34,0,0,1-1.15.11,3.47,3.47,0,0,1-1-.44v-.07c0-.47,0-1,0-1.43.1,0,1.82-.94,2.62-1.47S46.28,78,46,78s-1.36.77-1.85.77a4.82,4.82,0,0,0-1.28.42,10.92,10.92,0,0,1,.26-1.65l1.68-.71c.09-.05.39-.41.57-.59-.3.12-1.09.32-2.24.79,0-.48-.07-.95-.11-1.43a6.35,6.35,0,0,0,2.49-1.18,4,4,0,0,1-2.52.67c0-.36,0-.73-.08-1.09a1.55,1.55,0,0,0,.87-.47c.45-.57.8-.35,1.6-.54s.84-.52.84-.52a3.24,3.24,0,0,0-1.55.18c-.81.25-1,.63-1.8.8-.05-.57-.09-1.13-.15-1.7a2.5,2.5,0,0,0,.8-.34c.78-.5,1.28-.84.73-1.46a5.52,5.52,0,0,1-1.64.55c-.14-1.9-.1-3.61-.21-5.43a28.45,28.45,0,0,0,3.38,2.37l2.62,8.24-.81,3.76,0,0v.07Z"/><path d="M112.29,87.23a1.77,1.77,0,0,1,.41,0c0,.48,0,1,0,1.43l-.43-.56S112.17,87.28,112.29,87.23Z"/><path d="M109.81,86.7a7.4,7.4,0,0,0-.42-1.6c.24-.2.6-.47,1.06-.88A3.24,3.24,0,0,1,112.8,84c0,.77-.07,1.64-.08,2.55-.73-.64-1.11-.93-1.43-.94S110.42,86.13,109.81,86.7Z"/><path d="M109.9,87.78c0-.1,0-.22,0-.34.56-.65,1.28-1.42,1.28-1.42a12.27,12.27,0,0,0,.75,2.62,9.28,9.28,0,0,1,.77.65c0,.79,0,1.57,0,2.32,0,.24,0,.55,0,.92a3.79,3.79,0,0,0-1.83.19c-.13,0-.52.07-.94.15V91.51l1.31-.43-.37-1.54-1,.86v-.24Z"/><path d="M112.79,94.48a6.74,6.74,0,0,0-2.81.72V93.63l.16-.17,2.62-.45C112.77,93.45,112.78,94,112.79,94.48Z"/><path d="M112.84,96.25a13.39,13.39,0,0,0-2.86,1v-1.7a22.86,22.86,0,0,1,2.84,0C112.83,95.79,112.84,96,112.84,96.25Z"/><path d="M112.9,98.17l-2.75-.27a20,20,0,0,0,2.7-1.37C112.87,97.09,112.88,97.64,112.9,98.17Z"/><path d="M113.06,101.55v0a.5.5,0,0,1-.4.49,2.07,2.07,0,0,0-1.43,2,3.72,3.72,0,0,0,.08.57L108.2,103A5,5,0,0,0,110,99.68a11.6,11.6,0,0,0,0-1.54l.89.44a16.87,16.87,0,0,1,2-.32C113,99.65,113,100.88,113.06,101.55Z"/><path d="M113.71,77.2a.49.49,0,0,1,0,.15,2.6,2.6,0,0,0-.19.42A18.75,18.75,0,0,0,113,80.9c0,.39-.1,1.39-.16,2.71a5.61,5.61,0,0,1-2.19-.35s-.93.71-1.49,1.23a7.22,7.22,0,0,0-.43-.77c-.43-.68-.88-1.39-1-1.65s-.17-.35-.24-.52a8.9,8.9,0,0,1,1.07-1.22c.45-.38-.53-.07-1.52.17l-.05-.12a15.78,15.78,0,0,1-.44-1.89,6.4,6.4,0,0,1-2.92-2.3l-.12-1.11a13.92,13.92,0,0,1-.08-2.88,15.12,15.12,0,0,1,.58-2.83,29.21,29.21,0,0,1,5.22-10.1,18.47,18.47,0,0,0,1.49-1.78c-.33,1.44-.55,2.89-.83,4.32a20.57,20.57,0,0,0-.2,7.69c-1.71.82-4.49,2.12-4.86,3.48,2.57-1.4,4-.86,4.51-.55s-.43-.66,0-1.33a6.32,6.32,0,0,1,.52-.7,15,15,0,0,0,.52,1.79c-.33.74-.88,1.74-1.36,1.89s-1.47.49-2.16.69c.75-.11,2-.24,2.45-.31s1.19-.84,1.48-1.24a11.23,11.23,0,0,0,1,1.89,6,6,0,0,1-1.75,1.09,5.35,5.35,0,0,0,2.2-.52c.06.07.11.14.17.2a5.57,5.57,0,0,1,1.08.91A.76.76,0,0,1,113.71,77.2Z"/><path d="M115.59,57.19s2.21-10.53,2.08-12.63a16.7,16.7,0,0,0-1.87-6.06,21.5,21.5,0,0,0-1.71-2.73A12.23,12.23,0,0,0,112.43,34a11.31,11.31,0,0,1,1.9,3.74,23.28,23.28,0,0,1,.75,4.58c0,.77.09,1.53.13,2.29a15.17,15.17,0,0,1-.1,2.34,18.24,18.24,0,0,1-1.14,4.5c0,.1-.07.18-.1.27.17,1.73.25,3.47.32,5.22s0,5.71,0,5.71-.91,2.61-1.53,5.26c-.52,2.2-.75,4.44-.9,5.18,0,.09.41,1,.6,1.31a3.59,3.59,0,0,0,.6.74,8.64,8.64,0,0,1,1.25,1.11,1.52,1.52,0,0,1,.39,1,1.16,1.16,0,0,1-.17.58,25,25,0,0,0-.64,2.6,9.37,9.37,0,0,1,1.06,1.42,23.74,23.74,0,0,0,2.64-9.17l-2.25-10.12S115.38,58.27,115.59,57.19Z"/><path d="M113.41,51.22a18.44,18.44,0,0,0,1-3.87l.06-.46v0a15.3,15.3,0,0,0,0-3,4,4,0,0,0-2.44.33,24.21,24.21,0,0,1-4.66,1.93c-1.23.31-2.15,1.12-4.3,1.59s-3.23.67-4.66,1.12-6.23,2.34-7.29,2.28a9.73,9.73,0,0,1-2.15,1.14,7.26,7.26,0,0,0,.12,2,1.1,1.1,0,0,0,.13.34c0,.07.19.29.26.43l.23.4.14.27.12.24a16.15,16.15,0,0,1,.71,1.86c.11.36.32,1.1.58,2,.88-1.64,3.47-3.78,5-3.81a25.41,25.41,0,0,0,6.15-.57c1.68-.49,7.37-.65,10.26-2.41C112.94,52.44,113.18,51.83,113.41,51.22Z"/><path d="M99.51,77a13.4,13.4,0,0,1,3.36.63c0-.4-.07-.81-.11-1.24A27.17,27.17,0,0,0,99,75.28a26.3,26.3,0,0,0-4.29.25,20.1,20.1,0,0,0,.5,2.91A6.49,6.49,0,0,1,99.51,77Z"/><path d="M88.08,62.79c-.3-.95-.74-1.68-1.43-1.77-.92-.12-.88.61-.36,1.57a3.5,3.5,0,0,1,.29.76,6.28,6.28,0,0,1,.59-.27A7.4,7.4,0,0,1,88.08,62.79Z"/><path d="M95.59,79.62c-.1-.25-.19-.5-.27-.76a16.8,16.8,0,0,1,4.23-1,11.44,11.44,0,0,1,3.52,1.48h0c.12.93.22,1.53.22,1.53l.06.73c-1.49-.74-4.22-1.46-4.78-1.73s-1.56.28-2.81,1.23a7.93,7.93,0,0,0-.15-1.45v0Z"/><path d="M96.14,86.37l-.49.37c0-.37-.09-.91-.11-1.51a14.68,14.68,0,0,1,1.35-.79C97.42,84.2,96.65,86,96.14,86.37Z"/><path d="M97.85,89.94a2.42,2.42,0,0,1,1-.38c-.3.74-.6,1.5-.88,2.26-.8-.16-1.39-.42-1.24-.74A4.14,4.14,0,0,1,97.85,89.94Z"/><path d="M94.43,98.91c.2.29.6,1,1,1-.14.65-.26,1.28-.34,1.85a.79.79,0,0,1-.53.66l-1.3.41a2,2,0,0,0-1.24,1.81c-.6-.3-2.34-1.08-3.18-1.57.14-.11.49-.41,1-.85a4.73,4.73,0,0,0,1.25-1.76c.35-.8.8-1.91,1-2.58,0-.11.07-.22.11-.33A10.57,10.57,0,0,0,94.43,97a8.33,8.33,0,0,1,1.74.25c-.13.48-.27,1-.4,1.48C94.75,98.43,94.25,98.65,94.43,98.91Z"/><path d="M96.87,95c-.12.36-.25.77-.39,1.21H94.14s-.74.13-1.52.29c.19-.58.38-1.15.55-1.72h0a22.15,22.15,0,0,1,2.32,0A3.62,3.62,0,0,1,96.87,95Z"/><path d="M96.73,93.23a4.73,4.73,0,0,1,.69.13c0,.11-.07.22-.11.33l-.22.65h0a10.8,10.8,0,0,0-3.52-.79l.19-.59a3.33,3.33,0,0,0,.56.05A14.75,14.75,0,0,1,96.73,93.23Z"/><path d="M102.23,84.67c-.34.38-.7.75-1,1.11L101,86c-1.06-.62-1.94-1-1.69-.32a4.89,4.89,0,0,0,.77,1.37,9.66,9.66,0,0,0-.6,1.14l-.22.48c-.64,0-1,.22-1.78.82-1,.72-2.37.84-1.33,1.89.45.45,1,1,1.49,1.43-.06.15-.11.31-.17.47-.47-.14-1-.29-1.16-.38a7,7,0,0,0-1.61-.53,4.44,4.44,0,0,0-.74,0l.47-1.51c.27-1,.77-2.25,1.06-3h0a3.11,3.11,0,0,0,1.12-.63c.87-.87.78-2.75,1.45-3.81s1.64,0,2.65.48C101.12,84.06,101.66,84.33,102.23,84.67Z"/><path d="M103.4,82.71a1.45,1.45,0,0,1-.05.3,2.77,2.77,0,0,1-.29.6,7.88,7.88,0,0,1-.55.74,24.94,24.94,0,0,0-2.48-2c-1.68-1.09-2.54.72-4.49,2.14a7,7,0,0,1,.06-.93c.06-.48.11-1,.14-1.48,1.12-.61,2.67-1.34,3.37-1.23.91.14,3,.84,4.26,1.18,0,.12,0,.24,0,.36Z"/><path d="M73.53,34c-1,.17-1.93.32-2.91.44a4.29,4.29,0,0,0-.28,2.44C70.78,38,72.51,34.83,73.53,34Z"/><path d="M102.68,74.82c0-.42,0-.83,0-1.24A4.71,4.71,0,0,0,99.11,72a19.76,19.76,0,0,1-4.64-.48c0,1.14.07,2.27.16,3.39a5.47,5.47,0,0,1,3.9-.7A25,25,0,0,0,102.68,74.82Z"/><path d="M84.72,61c-.32-3.46-.65-2.81.66-5.3a11.29,11.29,0,0,1,2.89-3.52c.08-.59.2-1.17.3-1.76.29-1.29.64-2.55,1-3.83l.1,0c-.23,1.29-.43,2.55-.58,3.83.5-.32,1.67-1,3.12-2a51.28,51.28,0,0,1,5.3-2.59c1.17-.62,5.5-1.06,7.34-2.18s2.62-.11,4-1.14a7.71,7.71,0,0,1,4.1-1.29,3.79,3.79,0,0,1,1.26.14,23.43,23.43,0,0,0-.47-2.68,3.89,3.89,0,0,0-1.82-1.45c-2-.76-2.16-.35-3.8-.25s-7.63,2.13-9.24,2.63a29,29,0,0,0-6.65,3.76c-1.42,1.15-2.76,2.63-4,3.24s-5,3.28-5.73,4.62a11,11,0,0,0-.77,6.84c.27,1.14,1.3,5.2,1.42,5.55a4.59,4.59,0,0,0,1,1c.46-.24.91-.5,1.38-.76C85.12,63.52,84.91,63,84.72,61Z"/><path d="M108.85,59v0a19.87,19.87,0,0,0,2.06-2.68,10.84,10.84,0,0,1-4.68.44,10.83,10.83,0,0,0-5,.37,10.73,10.73,0,0,1-4.07.81c-1-.12-4.65,1.71-5.82,2.31.34,1.09.71,2.34,1,3.38,1-1.7,1.83-2.89,3-3.19s1.4-1.11,1.84-1.61.83-.47.63.37-.43,1.1.7.67,4.11-1.4,5.92-.7c1.48.57,2.94,1,3.36,1.17C108.19,59.85,108.52,59.41,108.85,59Z"/><path d="M43.37,29.79c.64-1.79,1.27-4,1.5-4.77l-.72-.78C43.89,25.25,43,28.88,43.37,29.79Z"/><path d="M105.58,63.85c.39-.7.81-1.38,1.25-2.05a5.79,5.79,0,0,0-1.58-.88c-1.28-.51-1.65-.9-3.34-.79a16,16,0,0,0-4.46,1.35,31.24,31.24,0,0,0-4.85,2.83c.16.48.29.89.39,1.15l.05.14a7.46,7.46,0,0,1,3.63-2c1.6-.34,4.3-1.53,6.09-.67a16.08,16.08,0,0,1,2.53,1.48C105.38,64.21,105.48,64,105.58,63.85Z"/><path d="M46.58,34.77c-.62,1.68-.93,3.13.19,3.15.27-.48.8-1.41,1.09-2.08.41-1,1.12-3.72,1.39-4.54.17-.53.42-1.24.57-1.68l-.24-.13a12.28,12.28,0,0,1-1-.81C48.2,29.83,47.12,33.31,46.58,34.77Z"/><path d="M103.26,69.26c.14-.49.3-1,.49-1.45a6.26,6.26,0,0,1-3.73-.06c-1.79-.46-4.53.09-6.09.46a13.55,13.55,0,0,1,.45,1.93c0,.18,0,.36,0,.54,1-.31,2.17.22,3.14-.09a14.37,14.37,0,0,1,5.34.17C103,70.26,103.12,69.76,103.26,69.26Z"/><path d="M104.8,65.36a3.39,3.39,0,0,0-.77-.54c-1.47-.83-1.93-1.63-3.7-1.3a14.74,14.74,0,0,0-3.79,1.33c-1,.42-2.38,1.45-3.12,1.81.14.42.29.84.42,1.26a10.66,10.66,0,0,1,1.73-.66,47.7,47.7,0,0,1,5.55-.87,13.34,13.34,0,0,1,3,.33C104.37,66.26,104.57,65.81,104.8,65.36Z"/><path d="M52.21,40.59c.18-.92.5-2.34.61-3.12a42.6,42.6,0,0,1,1.78-6.29c.22-.33.5-.89.68-1.24-.4,0-.8,0-1.21,0h0a5.58,5.58,0,0,0-.76,1.42,55.65,55.65,0,0,0-1.84,6,4.68,4.68,0,0,1-1.62,3.08c-.84.81-4,6.35-4.91,7.37s-5.37,3.81-6.24,5.59a13.36,13.36,0,0,0-1.1,3s-.4-.64-.79-1.29A13.76,13.76,0,0,0,38.42,59c.1.17.21.34.32.5.95-1.17,2.51-4.34,3.28-5.42,1-1.41,4-3.82,4.56-5.18s4-6.89,4.94-7.69l.69-.59c0,.21-.08.4-.1.54.1-.08.37-.39.64-.63,0-.27,0-.43,0-.43S52.63,40.23,52.21,40.59Z"/><path d="M55.58,76.39l0-1.44c-1-.32-2.38-.72-3-.3a11.52,11.52,0,0,1-3.14,1.06l.08.28.14.41C50.51,76.43,53.53,76.4,55.58,76.39Z"/><path d="M88.34,60.7a4.38,4.38,0,0,1,1.12,2h.14c.74,0,1,.06,1.71.14-.14-.38-1.16-3.45-1.65-4.65-.26-.6-.47-1.23-.7-1.81a7,7,0,0,0-.33-.88l-.21-.44a2.35,2.35,0,0,1-.2-.58,8.81,8.81,0,0,1,0-2.12,13.69,13.69,0,0,0-1.31,2.17,10,10,0,0,0-1.25,4C85.64,59.85,87.42,59.93,88.34,60.7Z"/><path d="M55.5,71.74l0,2.31c-.95,0-2.14.12-3,.16a23.76,23.76,0,0,0-3.33.62l-.36-1.19,1.8-1.21c1-.7,2.41-.19,3.46-.72s.77-1,.77-1a11.32,11.32,0,0,1-1.75.57c-.93.22-2.09.62-1.69,0s.36-1.23,1.26-2S54.07,68,54.29,68s-.4-.77-.4-.77l-.59.26c-.94,1-1.34,2.44-2.35,3.32a27.21,27.21,0,0,1-2.47,1.78l-.54-1.82c.69-.7,1.87-1.92,2.33-2.32.65-.58,1.36-2.16,2.24-2.46.7-.25,2.22-1,2.82-1.3,0,1.14.16,2.32.15,3C55.47,69,55.48,70.38,55.5,71.74Z"/><path d="M57.9,59l-.23.37a8.18,8.18,0,0,1-.72,1,1.36,1.36,0,0,1-.49-.42c-.38-.53.2-1.23-.38-1.73s-.61.58-.8.92a2.64,2.64,0,0,0,0,1.74c.11.33.34.77.47,1.21a2.12,2.12,0,0,0-.11.21A4.37,4.37,0,0,0,55.33,64c-1,.19-2.6,1.5-3.15,1.71s-1.76,1.89-2.49,2.43a23.24,23.24,0,0,0-2,1.86l-.34-1.14c.69-.93,1.9-2.56,2.31-3.07A13.74,13.74,0,0,1,51.19,64c.54-.48,1.54-3.65,1.89-4.52a26,26,0,0,1,1.85-3,3.22,3.22,0,0,1,1.69-.12c.93.19.77.62,1.08,1.42A4.33,4.33,0,0,1,57.9,59Z"/><path d="M60,52.91h0c-.09.47-.21.93-.32,1.38-.29-.45-.85-1.37-1.51-2.62-1-1.84-2.08-1.56-3.14-1.66a13,13,0,0,0-1.5.47,11.69,11.69,0,0,0-2.2,4.37,37.39,37.39,0,0,1-1.87,5.86c-.47,1.06-.13,1.82,0,1.74s1.4-4.71,1.61-5.27a38.74,38.74,0,0,1,1.51-4.48c.45-.63,3-1.57,3.89-1.14A6.16,6.16,0,0,1,58.7,53.2a5.55,5.55,0,0,1,.78,1.73,21.39,21.39,0,0,1-1,2.88v0a13.08,13.08,0,0,0-1.18-1.67c-.43-.47-2.12-.66-2.47-.23s-1.58,2-2,2.61S50,63.47,49.69,64s-1.86,3.14-2.53,4.12l-.37-1.23-.06-.18-.17-.11-.36-.23c.12-.59.39-1.81.7-2.86.43-1.46,1.29-5.29,1.77-7s3.82-7.41,4.85-7.88,1.25,0,2.93.47c-.22-.77-1.21-1.42-2.24-2.84a4.9,4.9,0,0,0-.47-.68c-.39-.52-.22.73-.39,1.29s-.34.38-1.24,1.29-3.49,6.62-3.66,7.74-1.3,3.7-1.38,5a23.69,23.69,0,0,1-1.76,4.9c-.8-.55-1.56-1.12-2.3-1.74a33.78,33.78,0,0,1,2.11-5.92c1.05-1.71,3.23-6.13,3.82-7.39a71.89,71.89,0,0,1,4.14-6,13.66,13.66,0,0,1-.33-4.25c.31-.28.63-.48.71-.12a38,38,0,0,0,1.67,4.86,30.75,30.75,0,0,0,3,4A12,12,0,0,1,59.69,52,3,3,0,0,1,60,52.91Z"/><path d="M56.69,92.88a5.74,5.74,0,0,1-1.31.74c-.3.07-1.26,0-1.92.06l0-.93,1.22,0c.8,0,.16.24.68.45s.41-.69.58-1-.83-.2-1.21,0a4.38,4.38,0,0,1-1.28.25l0-1h.43c.57,0,1.42,0,1.87,0s.21-.34-.17-.34a12.2,12.2,0,0,1-2.15-.15l-.08-2a.3.3,0,0,0,.25,0c.25-.2,1.8,0,2.07,0,.11,0,.46.33.86.73C56.54,90.66,56.63,91.77,56.69,92.88Z"/><path d="M50.7,79v0l-.07-.13a10.79,10.79,0,0,1-.71-1.64c.82,0,2.42-.19,3.07-.21a12.76,12.76,0,0,0,2.6,0l0,2.11h0v.11A4.33,4.33,0,0,0,55,79c-.62,0-2.09-1.1-2.46-1A12.84,12.84,0,0,0,50.7,79Z"/><path d="M56.46,82.19a10.26,10.26,0,0,0-2.83-1.3,1.34,1.34,0,0,0-1.64.68c-.2.42-.44.91-.67,1.41-.09-.43-.24-1.1-.28-1.31a13.29,13.29,0,0,1-.27-1.81h0a1.73,1.73,0,0,1,.34-.49c.66-.66,1.55-.37,2.15-.48s1,.78,2,1.28l.56.3a5.9,5.9,0,0,1,.48,1.2C56.37,81.83,56.42,82,56.46,82.19Z"/><path d="M56.62,83.62h0a8.1,8.1,0,0,1-.07,1.3,8.18,8.18,0,0,1-.36,1.59l0,.11v.1l.18,1.91-1.3-1s-.53-.3-.77,0-.58.29-1.05.5V87.9l-.05-.08a10.15,10.15,0,0,1-.79-1.54,5.58,5.58,0,0,1,1.14-.48c1.2-.35.9-.29,1.13-.62s-.29-.34-.63-.45a4.74,4.74,0,0,0-1.89.89c-.18-.5-.34-1-.49-1.51.45-.68,0-2.14,1.34-2.56s2,1.14,2.61,1.49C55.8,83.15,56.18,83.38,56.62,83.62Z"/><path d="M56.38,93.44a1.65,1.65,0,0,0,.32-.25c0,.34,0,.67,0,1h0L56.07,94S56.14,93.55,56.38,93.44Z"/><path d="M57.11,101.22a.48.48,0,0,1-.25.47l-1.2.68a2.35,2.35,0,0,0-.78,2.29c-.31-.11-2.32-1.32-3-1.7.39-.46,1.19-1.6,1.37-1.9a2.58,2.58,0,0,0,.24-.47,2.18,2.18,0,0,0,.09-.54,36.3,36.3,0,0,0,0-4l-.07-1.57A9.25,9.25,0,0,1,55.32,94c0,.06.77.53,1.43,1,0,1,0,2,.08,3.06S57,100.14,57.11,101.22Z"/><path d="M67.31,53.83A70.73,70.73,0,0,1,64.65,43c-.33-3.07-.9-6.92-.57-8.3a8.27,8.27,0,0,1,.27-.9,8.36,8.36,0,0,1-1.3-.66,15.07,15.07,0,0,0-1.13,5.37,32.07,32.07,0,0,0,1.64,7.95,55.16,55.16,0,0,1,2,8.82c.28,1.87,1,5.55.79,7.16A43.88,43.88,0,0,1,65,67.79h.07a38.73,38.73,0,0,0,3.83.64A3.2,3.2,0,0,0,70,66.21c0-2-1.78-6-1.86-7.54A18.3,18.3,0,0,0,67.31,53.83Z"/><path d="M75.53,58.52a30.47,30.47,0,0,1-1.79-7c-.16-2.46,1.83-5.91,3.59-7.66A3.45,3.45,0,0,1,78.68,42c1.16-.87,4.5-3.82,5.86-4.55a32.68,32.68,0,0,0,5-3.68,23.57,23.57,0,0,1,6-3.19,18.32,18.32,0,0,1,7.51.43,7.42,7.42,0,0,0,3.6.1,30.91,30.91,0,0,0-3-1.2c-.44-.15-.88-.29-1.32-.4h-.16a32.22,32.22,0,0,1-4.52-.22c-2.47-.46-5.82,2-7.5,2.17s-3.42,2.11-4.78,3.23-3.43.71-5.67,2.07S76,41,73.73,43.4s-.64-.8-.56-3.32.64-1.94,1.91-3.38A14.67,14.67,0,0,1,78.51,34c1.92-1,4.71-1,6.3-1.35a14.21,14.21,0,0,0,3.82-2.42L86.16,31c-2.94.86-5.9,1.61-8.9,2.24l-.32.06h0a26,26,0,0,1-2.68,1.36c-1.12.39-2,.92-2.93,3s-.11,4.63,0,6.28,1,10,1.39,11.71,2.34,7.21,2.6,9a12.27,12.27,0,0,0,.81,2.76c.82-.22,1.63-.44,2.44-.68a5,5,0,0,0-.19-2.4C77.8,63,76.05,60.11,75.53,58.52Z"/><path d="M59.54,47.89a48.6,48.6,0,0,1-3.09-7.1c-.38-1.51.09-5.8.43-7.44A11.21,11.21,0,0,1,58.58,30a2.08,2.08,0,0,0-.48-.11h-.6c-.19.25-.6.74-1,1.15a13.64,13.64,0,0,0-2,5.4c-.28,2.24-.45,3.08.34,5.37a23,23,0,0,0,2.39,5.6,28.85,28.85,0,0,1,2.82,4.93,6.55,6.55,0,0,0,0-1.33h.1a11.09,11.09,0,0,1-.1,3.59,23.79,23.79,0,0,1-.85,3.5,17,17,0,0,1-.69,1.74,5.65,5.65,0,0,1-1.14,1.5,0,0,0,0,1,0,0A5.59,5.59,0,0,0,56,65.56c0,.14,0,.45,0,.87,1.17.14,2.37.3,3.57.47.46-2.68,1.93-10.55,2.08-12.05C61.81,53.1,60.33,49.31,59.54,47.89Z"/><path d="M64.58,55.13c-.4-1.13-1.59-5.49-2.44-7.58a29.19,29.19,0,0,1-2-7.81c-.06-2,.13-5.82.56-6.9a3.94,3.94,0,0,1,.57-1l-1-.81-.26-.2c-.52.9-1.17,2.06-1.49,2.66-.57,1.07-.17,4.53-.11,6.56S60.56,46,61,47.38s2,5.43,1.86,7.3A76.39,76.39,0,0,1,59.9,67c1.1.16,2.2.33,3.28.52h0A5.27,5.27,0,0,0,64,66.11c.86-2.15,1.43-2.6,1.37-4A47.08,47.08,0,0,0,64.58,55.13Z"/><path d="M70.87,56.07c-1.26-2.58-1.32-8.59-1.65-11.7s.26-6.62-.2-8.07a2.62,2.62,0,0,1,.07-1.75l-.94.07h0a8.5,8.5,0,0,1-.87-.07A64.31,64.31,0,0,0,66.79,43a100.18,100.18,0,0,0,1.56,11.43c.65,2.4,2.15,9.48,2.8,11.17A4.77,4.77,0,0,1,71,68.47a23.71,23.71,0,0,0,3-.56h0A4.85,4.85,0,0,0,74.24,65C73.78,63.74,72.13,58.65,70.87,56.07Z"/><path d="M36.43,48.17v0c2.49-2.38,7.5-7.66,8-8.41a9.26,9.26,0,0,0,1-4.28,34,34,0,0,1,.83-5.46,13,13,0,0,1,1.22-2.41l0,0-1-1A10.1,10.1,0,0,0,45,29.08c-.3,1-.35,3.23-.77,5.51s-1.76,3.41-3,5.12a52.4,52.4,0,0,1-6.41,6.12c.49.7,1,1.37,1.56,2l.12.13Z"/><path d="M40.06,38c1-1.83,2.64-3.85,2.83-5a8.48,8.48,0,0,1-.32-5.73,22.83,22.83,0,0,1,1.52-3.1l-1.65-1.81C42,23.48,39,30.43,39.23,32.49c.31,2.25-3.8,9.17-5,8.3s3-7,3-8.92,2.54-9.24,3.94-10.95l-1.26-1.39a23.92,23.92,0,0,0-1.66,2.4c-.84,1.42-1.48,9.2-1.94,11.09a25.28,25.28,0,0,1-4.51,7.38c.11.3.23.6.36.89.35.76.74,1.52,1.16,2.25a1.63,1.63,0,0,0,.11.17,5.49,5.49,0,0,1,.83-.46A15,15,0,0,0,40.06,38Z"/><path d="M36.53,26.61a12.68,12.68,0,0,0-1.46,3.52A13,13,0,0,1,31.71,35a10,10,0,0,1-1.33,1h0c.23.78.46,1.55.71,2.31,1.35-2.13,4.18-5.72,4.56-6.8C36.16,30.13,37,27.7,36.53,26.61Z"/><path d="M33.94,31c.46-1,.67-3.48,1.13-5.11a37.86,37.86,0,0,1,3.39-6.73s.27-.46.42-.65l-6.67-7c0,.49.24,1.09.29,1.73A2.32,2.32,0,0,1,31.9,15l-.09-.07a2.29,2.29,0,0,0,.13-1.58c-.12-.51-.42-1-.57-1.65-.3-1.18-.36-2.35-.66-3.35a15.77,15.77,0,0,0-1.52-2.93A10.53,10.53,0,0,0,27.25,3c-.15.38-.29.73-.41,1.11a5,5,0,0,0-.15,1.44,11.37,11.37,0,0,0,.8,3.16,8.25,8.25,0,0,0,1.21,2.14l.46.56.26.26a1.44,1.44,0,0,1,.3.37.57.57,0,0,1-.08.6,1.3,1.3,0,0,1-.36.28,2.85,2.85,0,0,1-.73.29l-.05-.11a4.51,4.51,0,0,0,.58-.46c.19-.16.23-.38.16-.33L29,12.13l-.31-.22a7.43,7.43,0,0,1-.59-.53A6.76,6.76,0,0,1,27,9.93c-.53.17-1.06.34-1.57.55a37.58,37.58,0,0,1-1.61,3.44c-.09.17-.2.41-.32.69,0,.06-.06.14-.09.21-.23.5-.46,1.06-.62,1.45a1.28,1.28,0,0,0-.09.22l-.07.16c0-.11.06-.26.11-.44s.08-.25.12-.4c.13-.42.29-.93.49-1.47.1-.3.22-.62.35-.93s.26-.63.4-.93a8.46,8.46,0,0,1,.38-.8,6.36,6.36,0,0,1,.7-1.1c-.54.26-1.13.49-1.36.93a9.48,9.48,0,0,1-1,1.15h0a35.79,35.79,0,0,0-1.35,6,4.26,4.26,0,0,0-.46.35l-.17.13-.4.32-.31.26L20,19.9l-.76.65c-.69.6-1.44,1.26-2.11,1.88-.27.24-.52.48-.76.71l0,0c.23-.26.59-.62,1-1.05.23-.25.49-.51.75-.78.68-.72,1.4-1.48,1.95-2.08l.45-.5c.19-.2.33-.35.42-.46a40.88,40.88,0,0,1,1.81-5.5,14.8,14.8,0,0,1-1.82,1.42,3.07,3.07,0,0,1-.46.27,2.08,2.08,0,0,0-.31.23,2.3,2.3,0,0,0-.47.62,6,6,0,0,0-.47,1.72,7.61,7.61,0,0,1-.21,1.07,3.7,3.7,0,0,1-.56,1A14.36,14.36,0,0,1,17,20.63c-.47.47-2.39,3.17-2.39,3.17-.85,1-1.7,2-2.47,3.05-.38.52-1,.8-1.27,1.36a2.9,2.9,0,0,0-.52,1.7,4.84,4.84,0,0,0,2,3,2.44,2.44,0,0,0,1.29.06,3.82,3.82,0,0,0,1.28-.63,27.41,27.41,0,0,0,2.23-1.8l.08.07a16.65,16.65,0,0,1-2.08,1.94,5,5,0,0,1-1.44.71,2.68,2.68,0,0,1-1.51,0h0v0h0c.1.38.5,1.39,1,1.27a12.83,12.83,0,0,1,2.84,0c.13,0,.22,0,.28-.1a3.27,3.27,0,0,0,.3-.35,14.26,14.26,0,0,0,1-1.74,7.36,7.36,0,0,1,1.73-.84,12.38,12.38,0,0,0,.41-1.5,6.2,6.2,0,0,1-1.95-.68,9.3,9.3,0,0,0-1.53-.82c-.27-.12-1.3-.71-1.3-.71a2.28,2.28,0,0,1,1.75.35,12.66,12.66,0,0,0,1.74.83,12.81,12.81,0,0,0,2,.52,5.12,5.12,0,0,1-.23,1.66l1.2-.47a3.24,3.24,0,0,1,.13-1,10,10,0,0,0,.11-2.15c0-.61-.34-.91-1-1.45a13.74,13.74,0,0,0-2.26-1.58c-.56-.26-1.35-.54-1.35-.54l.07-.22c.51-.51.8-.46.93-.4a18.14,18.14,0,0,1,2.68,1.76c.88.75,1.74,1,1.66,1.93-.05.6-.06,2.22-.13,3.27l.6-.22L23,30a1.13,1.13,0,0,1,0-.57,13.13,13.13,0,0,0,.65-2.24A3.19,3.19,0,0,0,23,24.67a3.86,3.86,0,0,0-2.22-1.38c-.32-.09-1.89-.33-1.89-.33v-.33c.77-.13,3.45-.16,4.23.86s1.58,2.33,1.3,3.53a8.84,8.84,0,0,0-.57,2.72l2.73-1c0-.44,0-.84-.3-1.05s-.29-1-.47-1.8a9,9,0,0,0-.43-1.76c-.32-.8-.48-1.51-1-1.75s-1.38-1-1.91-1H21s-.22-.23-.22-.23c.67-.69,1.52-.9,2-.5s.88.8,1.28.5,1-1.91,1.5-2c-.25.72,0,1.27-.53,1.75a6.07,6.07,0,0,0-.81.9s1.25.09,1.34.72.7,2.1.86,3a18.34,18.34,0,0,1,.22,3.23c.57-.21,1.15-.42,1.74-.61l.31-.12a4,4,0,0,0-.19-.81c-.2-.56-.52-.88-.41-1.37s-.27-1.15-.24-1.92-.36-3.51-.32-4.61.95-2.21,1.37-3.15c0,0,0-.3-.17-1a9.06,9.06,0,0,0,.44,1.06s-.72,2.6-.77,3.11,0,1.9,0,2.64a8.34,8.34,0,0,0,.1,2.27,7.27,7.27,0,0,0,.67,2,3,3,0,0,1,.28,1.51q.46-.17.93-.36l.45-.19c-.19-.44-.57-1.26-.77-1.69A16,16,0,0,1,29.3,22a19.08,19.08,0,0,1,.24-3.16c.22-1.13-.05-3.51.21-2.51a6.94,6.94,0,0,1,.37,2.33C30,19,30.14,21,30,21.91a9.49,9.49,0,0,0,.36,3.15c.17.83.39,1.66.52,2.12l.47-.2.11,0c-.14-1.48-.69-5.29-.69-6.27,0-1.2.3-4.58.71-5.18a7.68,7.68,0,0,1,.08,2.25,27.06,27.06,0,0,0-.07,4.67,34.17,34.17,0,0,1,.21,4.44l.16-.06.09,0h0a19.42,19.42,0,0,0,.9-1.89,17.53,17.53,0,0,0,.78-2h.1a9.14,9.14,0,0,1-.25,2.17,14.43,14.43,0,0,1-.63,2.14l0,.13,0,.1a1,1,0,0,1-.15.18.4.4,0,0,1-.18.11h-.05l-.06,0-.12,0a3,3,0,0,1-.5.19l-1,.35c-.66.22-1.3.53-2,.79h-.05l-.1,0c.32,1.56.73,3.09,1.17,4.62.1.34.2.67.29,1C30.88,33.6,33.57,31.78,33.94,31Zm-21.31-1.3c-.15.36-1.12,1-1.43.64-.52-.52.2-1.21.2-1.21.55-.26.4-.66.69-.94S12.79,29.32,12.63,29.67Zm6.08-3.23a23.72,23.72,0,0,1,1.93,1.46,1.34,1.34,0,0,1,.11,1.2l-1.27-1.28c-.52-.51-1.06-.63-1.5-1s-2.08-.47-2.2-.51,0-.36,0-.36a1.54,1.54,0,0,1,1.07-.76C17.25,25.11,18.26,26.06,18.71,26.44ZM27.26,11.8v2a10,10,0,0,0-1.34,2.07c-.16-.28-1-.05-1,0l1.74-2Zm-3.87,5.34c-.45-.08.94-2.77,1.2-3.41s1-2.27,1-2.27h.26l-.54,1.68L27,11v.51s-1.73,2.46-2.34,3.43S23.84,17.21,23.39,17.14Zm2.7,3.74a2.47,2.47,0,0,1,.7-1.75,19.65,19.65,0,0,0-.06,2.2c.06.91.21,1.6.23,3C26.41,23.83,26.09,21.71,26.09,20.88Zm.48-4a4.33,4.33,0,0,1,.52.24.33.33,0,0,1,.12.46,2.6,2.6,0,0,1-1.41,1.17A2.53,2.53,0,0,1,24,18.41.32.32,0,0,1,23.9,18a2.57,2.57,0,0,1,1.4-1.17,1.81,1.81,0,0,1,.8,0c.39-.81,1.3-2.64,1.55-2.46S27,16.11,26.57,16.88Zm6.48.26a57.53,57.53,0,0,0-.7,6.15c.1-2.74-.4-5.39,0-6.56s1.34-3.25,1.34-3.25l.54.81A10.52,10.52,0,0,0,33.05,17.14Z"/><path d="M80.26,50c2.38-2.68,5.35-4.07,6.61-5.39a61.09,61.09,0,0,1,6.81-6.28c2.38-1.72,12.37-4.17,14.42-3.51,1.49.48,3.64,1,4.7,1.34a8.43,8.43,0,0,0-1.39-2,10.31,10.31,0,0,0-.75-.73c-1.94-.18-4-.25-4.82-.31-1.46-.09-3.59-1-5.62-.82-2.13.92-5.9,1.6-7.84,2.66a12.09,12.09,0,0,1-4.07,3.34,18.54,18.54,0,0,1-4.45,3.3C82,42.49,79.8,45.28,78,47s-1.75,4.22-1.35,8.05,2.23,6.14,3.17,8.61a5.93,5.93,0,0,1,.52,2.43c.93-.3,1.85-.62,2.74-1h0c-1.4-2.87-2.23-5-2.81-6.09C79.6,57.79,77.88,52.71,80.26,50Z"/><path d="M42,63.22l.19.16c.41-1.54,1.38-5.07,2-5.85A52,52,0,0,0,47.65,52c.6-1.21,2.31-5.43,3.37-6.14s1.51-2.26.86-2.51-1.66.75-2.12,1.41S47.6,49.08,47,50.29a76.24,76.24,0,0,1-5.69,7.84c-.64.68-1.37,1.57-1.89,2.23A21.7,21.7,0,0,0,42,63.22Z"/><path d="M38.69,51.51A32.6,32.6,0,0,1,43.5,47c1.46-.83,4.06-4.91,5-6.18s3.1-8.68,3.1-8.68l.72-2.2a9.09,9.09,0,0,1-1.15-.07,18.42,18.42,0,0,0-1.49,3.21,18.82,18.82,0,0,1-1.58,4.72c.42,0,.45.14-.2.69-1,.88-3.62,4-5.64,6.11a29.84,29.84,0,0,1-5.84,4.81,20.8,20.8,0,0,0,.16,4.33c.29,0,.6,0,.6,0S38.52,51.74,38.69,51.51Z"/><path d="M37.72,104.78l4.81.11.13-.27s-3.24-1.83-3.27-1.83S37.72,104.78,37.72,104.78Z"/><path d="M49.69,105.57l4.82.11.13-.27s-3.24-1.83-3.27-1.83S49.69,105.57,49.69,105.57Z"/><path d="M86.86,105.57l4.81.11.13-.27s-3.24-1.83-3.27-1.83S86.86,105.57,86.86,105.57Z"/><path d="M105.94,105.57l4.82.11.12-.27s-3.23-1.83-3.26-1.83S105.94,105.57,105.94,105.57Z"/></svg>