<?xml version="1.0" encoding="utf-8"?>
<!-- Generator: Adobe Illustrator 23.0.0, SVG Export Plug-In . SVG Version: 6.00 Build 0)  -->
<svg version="1.1" baseProfile="basic" id="Layer_1"
	 xmlns="http://www.w3.org/2000/svg" xmlns:xlink="http://www.w3.org/1999/xlink" x="0px" y="0px" viewBox="0 0 128 128"
	 xml:space="preserve">
<g>
	<g>
		<linearGradient id="SVGID_1_" gradientUnits="userSpaceOnUse" x1="80.5606" y1="66.5535" x2="54.9944" y2="58.0314">
			<stop  offset="0" style="stop-color:#2D2D2D"/>
			<stop  offset="1" style="stop-color:#2D2D2D"/>
		</linearGradient>
		<path fill-rule="evenodd" clip-rule="evenodd" fill="url(#SVGID_1_)" d="M98.2,23.1C86.8,22.2,76,18.6,65.5,12.4h-0.1
			C54.9,18.6,44,22.2,32.7,23.1c-3.6,0.3-7,0.3-10.1,0l-3.7-0.5c-0.1,5.2-0.1,10.9,0.1,17.2c0.3,12.5,1.2,21.7,2.6,27.3
			c4.2,16.3,12.7,29.3,25.7,38.9c4,3,8.2,5.5,12.7,7.6c2.2,1,4,1.7,5.5,2.1h0.1c1.5-0.4,3.8-1.3,6.9-2.8c3.2-1.4,8.4-5.2,15.6-11.3
			c7.2-6.1,12.6-14.5,16.3-25.2c3.7-10.7,5.3-21,5-30.9c-0.3-9.9-0.4-17.4-0.2-22.4C105.3,23.3,101.7,23.3,98.2,23.1z M119.5,13.3
			c-0.2,6.3-0.2,15.5,0.2,27.7c0.4,12.2-1.6,24.9-6.1,38.2c-4.5,13.2-11.2,23.6-20.1,31.1c-8.8,7.5-15.3,12.2-19.2,14
			c-4,1.8-6.8,2.9-8.6,3.4h-0.1c-1.7-0.5-4-1.3-6.7-2.6c-5.5-2.5-10.7-5.6-15.7-9.3C27.3,104,16.7,88,11.6,67.8
			c-1.7-6.9-2.8-18.2-3.2-33.8c-0.2-7.7-0.2-14.7-0.1-21.3l4.6,0.6c4,0.4,8.1,0.4,12.5,0c13.9-1.1,27.4-5.5,40.4-13.2l0,0l0,0
			c13,7.7,26.4,12.1,40.4,13.2C110.5,13.8,114.9,13.8,119.5,13.3z"/>
		<path fill="#9C9C9C" d="M65.6,128C65.6,128,65.6,128,65.6,128c-1.8-0.5-4.1-1.4-6.8-2.6c-5.5-2.5-10.8-5.6-15.7-9.3
			C27.2,104.2,16.5,88,11.3,67.9C9.6,61,8.5,49.6,8.1,34.1C7.9,26.4,7.9,19.3,8,12.8c0-0.1,0-0.1,0.1-0.2c0.1,0,0.1-0.1,0.2-0.1
			l4.6,0.6c3.9,0.4,8.1,0.4,12.4,0C39.2,12.1,52.7,7.7,65.6,0C65.7,0,65.9,0,66,0.1c12.9,7.6,26.4,12,40.2,13.1
			c4.3,0.4,8.8,0.3,13.3-0.1c0.1,0,0.1,0,0.2,0.1c0.1,0,0.1,0.1,0.1,0.2c-0.2,6.3-0.2,15.6,0.2,27.7c0.4,12.2-1.6,25-6.1,38.2
			c-4.5,13.2-11.3,23.7-20.1,31.2c-8.8,7.5-15.3,12.3-19.3,14.1c-3.9,1.8-6.8,2.9-8.6,3.4C65.8,128,65.7,128,65.6,128
			C65.7,128,65.6,128,65.6,128z M8.5,13.1c-0.1,6.4-0.1,13.5,0.1,21c0.4,15.5,1.5,26.9,3.2,33.7c5.1,20,15.8,36.1,31.6,47.9
			c4.9,3.7,10.2,6.8,15.6,9.3c2.7,1.2,5,2.1,6.7,2.6c1.7-0.5,4.6-1.6,8.5-3.4c4-1.8,10.4-6.5,19.2-14c8.8-7.5,15.5-18,20-31
			c4.5-13.1,6.5-26,6.1-38.1c-0.4-11.9-0.5-21.2-0.2-27.4c-4.5,0.4-8.9,0.4-13.1,0.1C92.3,12.6,78.7,8.2,65.8,0.5
			c-13,7.6-26.6,12-40.4,13.1c-4.4,0.4-8.6,0.4-12.5,0L8.5,13.1z M65.4,115.9C65.4,115.9,65.4,115.9,65.4,115.9c-0.1,0-0.1,0-0.2,0
			c-1.4-0.4-3.3-1.1-5.5-2.1c-4.5-2-8.8-4.6-12.7-7.6c-12.9-9.6-21.6-22.8-25.8-39c-1.4-5.7-2.3-14.9-2.6-27.4
			c-0.2-6.3-0.2-12.1-0.1-17.3c0-0.1,0-0.1,0.1-0.2c0.1,0,0.1-0.1,0.2-0.1l3.7,0.5c3.1,0.3,6.5,0.3,10.1,0
			c11.2-0.9,22.2-4.5,32.6-10.7c0,0,0.1,0,0.1,0c0,0,0.1,0,0.2,0C76,18.3,87,21.9,98.2,22.8c3.5,0.3,7.1,0.2,10.8-0.1
			c0.1,0,0.1,0,0.2,0.1c0.1,0,0.1,0.1,0.1,0.2c-0.2,5-0.1,12.6,0.2,22.4c0.3,9.9-1.3,20.4-5,31c-3.7,10.7-9.2,19.2-16.3,25.3
			c-7.2,6.1-12.4,9.9-15.6,11.4C69.3,114.5,67,115.5,65.4,115.9C65.5,115.9,65.5,115.9,65.4,115.9z M19.1,22.8
			c-0.1,5.1-0.1,10.8,0.1,17c0.3,12.5,1.2,21.7,2.6,27.3c4.1,16.2,12.8,29.2,25.6,38.8c3.9,3,8.2,5.5,12.6,7.5c2.2,1,4,1.6,5.4,2
			c1.5-0.4,3.8-1.3,6.9-2.8c3.2-1.4,8.4-5.2,15.5-11.3c7.1-6,12.6-14.5,16.2-25.1c3.6-10.6,5.3-21,5-30.8
			c-0.3-9.7-0.4-17.1-0.2-22.2c-3.6,0.3-7.2,0.3-10.6,0.1c-11.3-0.9-22.2-4.5-32.7-10.7C55,18.8,44,22.4,32.7,23.3
			c-3.6,0.3-7,0.3-10.2,0L19.1,22.8z"/>
	</g>
	<g>
		<path fill="#2D2D2D" d="M99.8,58.3l-4-12.9L95.6,45c-0.5-1.7-1.1-4.2-4-4.2H82c-4.2,0-4.8,2.3-5.3,4.4l-3.5,13.1
			c-0.1,0.6,0,1.2,0.3,1.7c0.3,0.5,0.8,0.8,1.4,0.9c1,0.1,1.9-0.5,2.2-1.4l3-10.7l1.2,0.3l-4.8,18.1c-0.1,0.3,0,0.5,0.1,0.7
			c0.2,0.2,0.4,0.3,0.7,0.3h3V81c0,1.5,1.2,2.8,2.8,2.8c1.5,0,2.8-1.3,2.8-2.8V68.2h1.6v13c0,1.5,1.2,2.7,2.6,2.7s2.6-1.2,2.6-2.7
			v-13h3c0.3,0,0.5-0.1,0.7-0.3c0.2-0.2,0.2-0.5,0.1-0.8L91.2,49l1.1-0.3l3.4,10.7c0.3,1,1.2,1.6,2.2,1.5c0.6-0.1,1.2-0.4,1.5-0.9
			C99.8,59.6,99.9,58.9,99.8,58.3z M85,68.2h-3.8v0L85,68.2L85,68.2z M91.9,68.2L91.9,68.2l-3.6,0v0H91.9z"/>
		<circle fill="#2D2D2D" cx="86.5" cy="34.4" r="5.1"/>
		<path fill="#2D2D2D" d="M67.9,51l-0.1-0.3c-0.4-1.5-1-3.6-3.5-3.6h-8.1c-3.6,0-4.1,2-4.6,3.8l-3,11.2c-0.1,0.5,0,1,0.3,1.5
			c0.3,0.4,0.7,0.7,1.2,0.8c0.9,0.1,1.7-0.4,1.9-1.3l2.6-9l0.9,0.2l-4.1,15.4c-0.1,0.2,0,0.5,0.1,0.7c0.1,0.2,0.4,0.3,0.6,0.3h2.5
			v10.9c0,1.3,1.1,2.4,2.4,2.4c1.3,0,2.4-1.1,2.4-2.4l0-10.9h1.3v11c0,1.3,1,2.3,2.3,2.3c1.3,0,2.3-1,2.3-2.3v-11h2.5
			c0.2,0,0.5-0.1,0.6-0.3c0.2-0.2,0.2-0.5,0.1-0.7l-4.4-15.4l0.8-0.2l2.9,9.1c0.2,0.8,1,1.3,1.8,1.3h0c0.1,0,0.1,0,0.2,0
			c0.5-0.1,1-0.3,1.3-0.8c0.3-0.5,0.4-1,0.3-1.6L67.9,51z M58.6,81.4c0,0.9-0.7,1.6-1.6,1.6c-0.9,0-1.6-0.7-1.6-1.6V70.5h3.1
			L58.6,81.4z M64.5,81.5c0,0.8-0.7,1.5-1.5,1.5c-0.8,0-1.5-0.7-1.5-1.5v-11h2.9V81.5z M70.3,63.1c-0.2,0.2-0.4,0.4-0.7,0.4
			c0,0-0.1,0-0.1,0c-0.4,0-0.8-0.3-1-0.7l-2.9-9.2c0-0.3-0.3-0.6-0.7-0.6l-1.2,0.3c-0.2,0.1-0.4,0.2-0.5,0.4
			c-0.1,0.2-0.1,0.4-0.1,0.6l4.4,15.3H52.2l4.1-15.4c0.1-0.4-0.1-0.8-0.6-1L54.5,53l-0.1,0c-0.3,0-0.6,0.3-0.6,0.6l-2.6,9.1
			c-0.1,0.4-0.6,0.7-1,0.7c-0.3,0-0.5-0.2-0.7-0.4c-0.2-0.2-0.2-0.5-0.1-0.8l3-11.2c0.5-1.8,0.8-3.2,3.8-3.2h8.1
			c1.9,0,2.3,1.6,2.7,3l3.5,11.3C70.6,62.5,70.5,62.8,70.3,63.1z"/>
		<path fill="#2D2D2D" d="M60,46c2.4,0,4.4-2,4.4-4.4s-2-4.4-4.4-4.4c-2.4,0-4.4,2-4.4,4.4S57.5,46,60,46z M60,38
			c2,0,3.5,1.6,3.5,3.5s-1.6,3.5-3.5,3.5c-2,0-3.5-1.6-3.5-3.5S58,38,60,38z"/>
		<path fill="#2D2D2D" d="M44.2,57.9l-0.1-0.3c-0.3-1.2-0.8-2.9-2.8-2.9h-6.4c-2.9,0-3.3,1.6-3.7,3.1l-2.3,8.8
			c-0.1,0.4,0,0.9,0.2,1.2c0.2,0.4,0.6,0.6,1,0.6c0.7,0.1,1.4-0.4,1.6-1.1l2-7l0.6,0.1l-3.2,12c-0.1,0.2,0,0.4,0.1,0.6
			c0.1,0.2,0.3,0.3,0.6,0.3h1.8v8.5c0,1.1,0.9,2,2,2c1.1,0,2-0.9,2-2l0-8.5h0.8v8.6c0,1.1,0.9,1.9,1.9,1.9c1,0,1.9-0.9,1.9-1.9v-8.6
			H44c0.2,0,0.4-0.1,0.6-0.3s0.2-0.4,0.1-0.6l-3.5-12l0.4-0.1l2.3,7.1c0.2,0.7,0.9,1.2,1.6,1.1c0.4,0,0.9-0.3,1.1-0.7
			c0.3-0.4,0.4-0.9,0.2-1.3L44.2,57.9z M36.7,81.8c0,0.6-0.5,1.2-1.1,1.2s-1.1-0.5-1.1-1.2v-8.5h2.3L36.7,81.8z M41.3,81.9
			c0,0.6-0.5,1.1-1,1.1c-0.6,0-1-0.5-1-1.1v-8.6h2.1V81.9z M46,67.4c-0.1,0.2-0.3,0.3-0.5,0.3c-0.3,0-0.6-0.2-0.7-0.5L42.4,60
			c0-0.3-0.3-0.5-0.6-0.5l-1,0.2c-0.2,0.1-0.3,0.2-0.4,0.3c-0.1,0.2-0.1,0.4-0.1,0.5l3.4,11.9H31.9l3.2-11.9
			c0.1-0.4-0.1-0.8-0.5-0.9l-1-0.2l-0.1,0c-0.3,0-0.6,0.2-0.6,0.5l-2,7.1c-0.1,0.3-0.4,0.5-0.7,0.5c-0.2,0-0.3-0.1-0.4-0.3
			c-0.1-0.2-0.1-0.4-0.1-0.5L32,58c0.4-1.4,0.6-2.4,2.9-2.4h6.4c1.3,0,1.6,1,2,2.3l2.8,8.9C46.1,67,46.1,67.2,46,67.4z"/>
		<path fill="#2D2D2D" d="M37.9,54.1c2,0,3.5-1.6,3.5-3.5c0-2-1.6-3.5-3.5-3.5c-2,0-3.5,1.6-3.5,3.5C34.3,52.5,35.9,54.1,37.9,54.1z
			 M37.9,47.9c1.5,0,2.7,1.2,2.7,2.7s-1.2,2.7-2.7,2.7s-2.7-1.2-2.7-2.7S36.4,47.9,37.9,47.9z"/>
	</g>
</g>
</svg>
