<?xml version="1.0" encoding="utf-8"?>
<!-- Generator: Adobe Illustrator 23.0.0, SVG Export Plug-In . SVG Version: 6.00 Build 0)  -->
<svg version="1.1" id="Layer_1" xmlns="http://www.w3.org/2000/svg" xmlns:xlink="http://www.w3.org/1999/xlink" x="0px" y="0px"
	 viewBox="0 0 128 128" enable-background="new 0 0 128 128" xml:space="preserve">
<g>
	<g>
		<linearGradient id="SVGID_1_" gradientUnits="userSpaceOnUse" x1="80.5606" y1="66.5535" x2="54.9944" y2="58.0314">
			<stop  offset="0" style="stop-color:#2D2D2D"/>
			<stop  offset="1" style="stop-color:#2D2D2D"/>
		</linearGradient>
		<path fill-rule="evenodd" clip-rule="evenodd" fill="url(#SVGID_1_)" d="M98.2,23.1C86.8,22.2,76,18.6,65.5,12.4h-0.1
			C54.9,18.6,44,22.2,32.7,23.1c-3.6,0.3-7,0.3-10.1,0l-3.7-0.5c-0.1,5.2-0.1,10.9,0.1,17.2c0.3,12.5,1.2,21.7,2.6,27.3
			c4.2,16.3,12.7,29.3,25.7,38.9c4,3,8.2,5.5,12.7,7.6c2.2,1,4,1.7,5.5,2.1h0.1c1.5-0.4,3.8-1.3,6.9-2.8c3.2-1.4,8.4-5.2,15.6-11.3
			c7.2-6.1,12.6-14.5,16.3-25.2c3.7-10.7,5.3-21,5-30.9c-0.3-9.9-0.4-17.4-0.2-22.4C105.3,23.3,101.7,23.3,98.2,23.1z M119.5,13.3
			c-0.2,6.3-0.2,15.5,0.2,27.7c0.4,12.2-1.6,24.9-6.1,38.2c-4.5,13.2-11.2,23.6-20.1,31.1c-8.8,7.5-15.3,12.2-19.2,14
			c-4,1.8-6.8,2.9-8.6,3.4h-0.1c-1.7-0.5-4-1.3-6.7-2.6c-5.5-2.5-10.7-5.6-15.7-9.3C27.3,104,16.7,88,11.6,67.8
			c-1.7-6.9-2.8-18.2-3.2-33.8c-0.2-7.7-0.2-14.7-0.1-21.3l4.6,0.6c4,0.4,8.1,0.4,12.5,0c13.9-1.1,27.4-5.5,40.4-13.2l0,0l0,0
			c13,7.7,26.4,12.1,40.4,13.2C110.5,13.8,114.9,13.8,119.5,13.3z"/>
		<path fill="#9C9C9C" d="M65.6,128C65.6,128,65.6,128,65.6,128c-1.8-0.5-4.1-1.4-6.8-2.6c-5.5-2.5-10.8-5.6-15.7-9.3
			C27.2,104.2,16.5,88,11.3,67.9C9.6,61,8.5,49.6,8.1,34.1C7.9,26.4,7.9,19.3,8,12.8c0-0.1,0-0.1,0.1-0.2c0.1,0,0.1-0.1,0.2-0.1
			l4.6,0.6c3.9,0.4,8.1,0.4,12.4,0C39.2,12.1,52.7,7.7,65.6,0C65.7,0,65.9,0,66,0.1c12.9,7.6,26.4,12,40.2,13.1
			c4.3,0.4,8.8,0.3,13.3-0.1c0.1,0,0.1,0,0.2,0.1c0.1,0,0.1,0.1,0.1,0.2c-0.2,6.3-0.2,15.6,0.2,27.7c0.4,12.2-1.6,25-6.1,38.2
			c-4.5,13.2-11.3,23.7-20.1,31.2c-8.8,7.5-15.3,12.3-19.3,14.1c-3.9,1.8-6.8,2.9-8.6,3.4C65.8,128,65.7,128,65.6,128
			C65.7,128,65.6,128,65.6,128z M8.5,13.1c-0.1,6.4-0.1,13.5,0.1,21c0.4,15.5,1.5,26.9,3.2,33.7c5.1,20,15.8,36.1,31.6,47.9
			c4.9,3.7,10.2,6.8,15.6,9.3c2.7,1.2,5,2.1,6.7,2.6c1.7-0.5,4.6-1.6,8.5-3.4c4-1.8,10.4-6.5,19.2-14c8.8-7.5,15.5-18,20-31
			c4.5-13.1,6.5-26,6.1-38.1c-0.4-11.9-0.5-21.2-0.2-27.4c-4.5,0.4-8.9,0.4-13.1,0.1C92.3,12.6,78.7,8.2,65.8,0.5
			c-13,7.6-26.6,12-40.4,13.1c-4.4,0.4-8.6,0.4-12.5,0L8.5,13.1z M65.4,115.9C65.4,115.9,65.4,115.9,65.4,115.9c-0.1,0-0.1,0-0.2,0
			c-1.4-0.4-3.3-1.1-5.5-2.1c-4.5-2-8.8-4.6-12.7-7.6c-12.9-9.6-21.6-22.8-25.8-39c-1.4-5.7-2.3-14.9-2.6-27.4
			c-0.2-6.3-0.2-12.1-0.1-17.3c0-0.1,0-0.1,0.1-0.2c0.1,0,0.1-0.1,0.2-0.1l3.7,0.5c3.1,0.3,6.5,0.3,10.1,0
			c11.2-0.9,22.2-4.5,32.6-10.7c0,0,0.1,0,0.1,0c0,0,0.1,0,0.2,0C76,18.3,87,21.9,98.2,22.8c3.5,0.3,7.1,0.2,10.8-0.1
			c0.1,0,0.1,0,0.2,0.1c0.1,0,0.1,0.1,0.1,0.2c-0.2,5-0.1,12.6,0.2,22.4c0.3,9.9-1.3,20.4-5,31c-3.7,10.7-9.2,19.2-16.3,25.3
			c-7.2,6.1-12.4,9.9-15.6,11.4C69.3,114.5,67,115.5,65.4,115.9C65.5,115.9,65.5,115.9,65.4,115.9z M19.1,22.8
			c-0.1,5.1-0.1,10.8,0.1,17c0.3,12.5,1.2,21.7,2.6,27.3c4.1,16.2,12.8,29.2,25.6,38.8c3.9,3,8.2,5.5,12.6,7.5c2.2,1,4,1.6,5.4,2
			c1.5-0.4,3.8-1.3,6.9-2.8c3.2-1.4,8.4-5.2,15.5-11.3c7.1-6,12.6-14.5,16.2-25.1c3.6-10.6,5.3-21,5-30.8
			c-0.3-9.7-0.4-17.1-0.2-22.2c-3.6,0.3-7.2,0.3-10.6,0.1c-11.3-0.9-22.2-4.5-32.7-10.7C55,18.8,44,22.4,32.7,23.3
			c-3.6,0.3-7,0.3-10.2,0L19.1,22.8z"/>
	</g>
	<g>
		<path fill="#2D2D2D" d="M45,70.2c0,0.2,0,0.3-0.1,0.5h1.7v-0.9H45C45,69.9,45,70,45,70.2z"/>
		<rect x="45.6" y="42.6" fill="#2D2D2D" width="2.1" height="2.6"/>
		<rect x="55.8" y="42.6" fill="#2D2D2D" width="2" height="2.6"/>
		<rect x="44.6" y="56.1" fill="#2D2D2D" width="1.2" height="4.5"/>
		<rect x="44.4" y="71.5" fill="#2D2D2D" width="2.3" height="0.7"/>
		<rect x="61.6" y="52.4" fill="#2D2D2D" width="2.6" height="5.3"/>
		<path fill="#2D2D2D" d="M57.9,31.8v10h-2v-2.5C55.8,37.7,57.2,33.3,57.9,31.8z"/>
		<path fill="#2D2D2D" d="M47.7,48.3v14.4h-0.2c-0.4,0-0.8,0.3-0.8,0.8v5.5h-2.1v-7.5h1.3c0.4,0,0.7-0.3,0.7-0.7V56
			c0-0.4-0.3-0.8-0.7-0.8h-1.3v-6.9H47.7z"/>
		<rect x="47.5" y="63.5" fill="#2D2D2D" width="2.9" height="12.7"/>
		<path fill="#2D2D2D" d="M50.4,56.1h-1.2v4.5h1.3v-2.2c0,0,0,0,0,0c0,0,0-0.1,0-0.1L50.4,56.1z"/>
		<polygon fill="#2D2D2D" points="47.7,46 47.7,47.5 44.8,47.5 45.4,46 		"/>
		<path fill="#2D2D2D" d="M47.7,31.7v10h-2.1v-2.5C45.6,37.7,47,33.1,47.7,31.7C47.7,31.7,47.7,31.7,47.7,31.7z"/>
		<rect x="34.5" y="56.1" fill="#2D2D2D" width="1.2" height="4.5"/>
		<polygon fill="#2D2D2D" points="37.5,46 37.5,47.5 34.7,47.5 35.2,46 		"/>
		<rect x="31.1" y="52.4" fill="#2D2D2D" width="2.6" height="11.7"/>
		<path fill="#2D2D2D" d="M37.5,31.7v10h-2.1v-2.5C35.5,37.7,36.9,33.2,37.5,31.7z"/>
		<rect x="35.4" y="42.6" fill="#2D2D2D" width="2.1" height="2.6"/>
		<rect x="41.2" y="52.4" fill="#2D2D2D" width="2.6" height="11.7"/>
		<rect x="34.3" y="71.5" fill="#2D2D2D" width="3.2" height="0.7"/>
		<path fill="#2D2D2D" d="M37.5,69.8v0.9h-2.7c0-0.2,0.1-0.3,0.1-0.5c0-0.1,0-0.3-0.1-0.4H37.5z"/>
		<path fill="#2D2D2D" d="M37.5,48.3v20.6h-3v-7.5h1.3c0.4,0,0.7-0.3,0.7-0.7V56c0-0.4-0.3-0.8-0.7-0.8h-1.3v-6.9H37.5z"/>
		<rect x="39.1" y="56.1" fill="#2D2D2D" width="1.3" height="4.5"/>
		<rect x="80.3" y="69.9" fill="#2D2D2D" width="5" height="5.8"/>
		<polygon fill="#2D2D2D" points="57.9,46 57.9,47.5 55.1,47.5 55.6,46 		"/>
		<rect x="81.6" y="76.5" fill="#2D2D2D" width="3.7" height="8.6"/>
		<rect x="68.7" y="67.3" fill="#2D2D2D" width="3.7" height="1.8"/>
		<rect x="68.7" y="61.8" fill="#2D2D2D" width="3.7" height="4.6"/>
		<rect x="68.1" y="60.4" fill="#2D2D2D" width="4.3" height="0.6"/>
		<rect x="81.6" y="67.3" fill="#2D2D2D" width="3.7" height="1.8"/>
		<rect x="94.3" y="63.5" fill="#2D2D2D" width="2.8" height="12.7"/>
		<rect x="81" y="60.4" fill="#2D2D2D" width="4.3" height="0.6"/>
		<path fill="#2D2D2D" d="M93.5,58.5v22.8h-3.6v-4.8h0.5c0.5,0,0.8-0.4,0.8-0.9v-5.8c0-0.5-0.4-0.9-0.8-0.9h-0.5v-7.3
			c0.4-0.1,0.6-0.4,0.6-0.8v-1.4H80.2V61c0,0.4,0.3,0.7,0.6,0.8V69h-0.5c-0.5,0-0.8,0.4-0.8,0.9v5.8c0,0.1,0,0.2,0.1,0.3h-1.3
			c0-0.1,0.1-0.2,0.1-0.3v-5.8c0-0.5-0.4-0.9-0.8-0.9H77v-7.3c0.4-0.1,0.6-0.4,0.6-0.8v-1.4H67.2V61c0,0.4,0.3,0.7,0.6,0.8V69h-0.5
			c-0.5,0-0.8,0.4-0.8,0.9v5.8c0,0.1,0,0.2,0.1,0.3h-1.3c0-0.1,0.1-0.2,0.1-0.3v-5.8c0-0.5-0.4-0.9-0.8-0.9H64v-7.3
			c0.4-0.1,0.6-0.4,0.6-0.8v-1.4H54.3V61c0,0.4,0.3,0.7,0.6,0.8V69h-0.5c-0.5,0-0.8,0.4-0.8,0.9v5.8c0,0.5,0.4,0.9,0.8,0.9h0.5v4.8
			h-3.6V58.5H93.5z"/>
		<rect x="81.6" y="61.8" fill="#2D2D2D" width="3.7" height="4.6"/>
		<rect x="54.9" y="56.1" fill="#2D2D2D" width="1.1" height="1.6"/>
		<rect x="55.8" y="76.5" fill="#2D2D2D" width="3.7" height="8.6"/>
		<rect x="51.3" y="52.4" fill="#2D2D2D" width="2.8" height="5.3"/>
		<path fill="#2D2D2D" d="M57.9,48.3v9.4h-1V56c0-0.4-0.3-0.8-0.7-0.8h-1.2v-6.9H57.9z"/>
		<rect x="59.4" y="56.1" fill="#2D2D2D" width="1.3" height="1.6"/>
		<rect x="55.8" y="67.3" fill="#2D2D2D" width="3.7" height="1.8"/>
		<rect x="68.7" y="76.5" fill="#2D2D2D" width="3.7" height="8.6"/>
		<rect x="55.2" y="60.4" fill="#2D2D2D" width="4.3" height="0.6"/>
		<rect x="54.4" y="69.9" fill="#2D2D2D" width="5" height="5.8"/>
		<rect x="55.8" y="61.8" fill="#2D2D2D" width="3.7" height="4.6"/>
		<rect x="67.4" y="69.9" fill="#2D2D2D" width="5" height="5.8"/>
		<rect x="59.5" y="69.9" fill="#2D2D2D" width="5" height="5.8"/>
		<rect x="72.4" y="69.9" fill="#2D2D2D" width="5" height="5.8"/>
		<rect x="72.4" y="60.4" fill="#2D2D2D" width="4.3" height="0.6"/>
		<rect x="72.4" y="61.8" fill="#2D2D2D" width="3.7" height="4.6"/>
		<rect x="72.4" y="67.3" fill="#2D2D2D" width="3.7" height="1.8"/>
		<rect x="72.4" y="76.5" fill="#2D2D2D" width="3.7" height="8.6"/>
		<rect x="85.3" y="69.9" fill="#2D2D2D" width="5" height="5.8"/>
		<rect x="85.3" y="60.4" fill="#2D2D2D" width="4.3" height="0.6"/>
		<rect x="85.3" y="61.8" fill="#2D2D2D" width="3.7" height="4.6"/>
		<rect x="85.3" y="67.3" fill="#2D2D2D" width="3.7" height="1.8"/>
		<rect x="85.3" y="76.5" fill="#2D2D2D" width="3.7" height="8.6"/>
		<path fill="#2D2D2D" d="M67.9,76.5v4.7H64v-4.7h0.5c0.4,0,0.7-0.2,0.8-0.6h1.3c0.1,0.3,0.4,0.6,0.8,0.6H67.9z"/>
		<path fill="#2D2D2D" d="M80.8,76.5v4.7H77v-4.7h0.5c0.4,0,0.7-0.2,0.8-0.6h1.3c0.1,0.3,0.4,0.6,0.8,0.6H80.8z"/>
		<rect x="59.5" y="60.4" fill="#2D2D2D" width="4.3" height="0.6"/>
		<rect x="59.5" y="61.8" fill="#2D2D2D" width="3.7" height="4.6"/>
		<rect x="59.5" y="67.3" fill="#2D2D2D" width="3.7" height="1.8"/>
		<rect x="59.5" y="76.5" fill="#2D2D2D" width="3.7" height="8.6"/>
		<path fill="#2D2D2D" d="M39.6,39.1v2.7h-2.1v-10c0,0,0,0,0,0C38.2,33.1,39.6,37.6,39.6,39.1z"/>
		<rect x="37.5" y="42.6" fill="#2D2D2D" width="2.1" height="2.6"/>
		<polygon fill="#2D2D2D" points="40.2,47.5 37.5,47.5 37.5,46 39.7,46 		"/>
		<path fill="#2D2D2D" d="M38.2,56v4.7c0,0.4,0.3,0.7,0.7,0.7h1.4v7.5h-2.8V48.3h2.8l0,6.9H39C38.6,55.2,38.2,55.6,38.2,56z"/>
		<path fill="#2D2D2D" d="M40,70.6h-2.5v-0.9H40c0,0.1,0,0.2,0,0.3C40,70.3,40,70.5,40,70.6z"/>
		<rect x="37.5" y="71.5" fill="#2D2D2D" width="3" height="0.7"/>
		<path fill="#2D2D2D" d="M49.7,39.1v2.7h-2.1v-10C48.3,33.1,49.7,37.6,49.7,39.1z"/>
		<rect x="47.7" y="42.6" fill="#2D2D2D" width="2.1" height="2.6"/>
		<polygon fill="#2D2D2D" points="50.3,47.5 47.7,47.5 47.7,46 49.8,46 		"/>
		<path fill="#2D2D2D" d="M50.5,61.5v1.2h-2.8V48.3h2.8v6.9h-1.4c-0.4,0-0.7,0.3-0.7,0.8v4.7c0,0.4,0.3,0.7,0.7,0.7H50.5z"/>
		<path fill="#2D2D2D" d="M60,39.1v2.7h-2.1v-10c0,0,0-0.1,0-0.1C58.6,33.1,60,37.6,60,39.1z"/>
		<rect x="57.9" y="42.6" fill="#2D2D2D" width="2.1" height="2.6"/>
		<polygon fill="#2D2D2D" points="60.5,47.5 57.9,47.5 57.9,46 60.1,46 		"/>
		<path fill="#2D2D2D" d="M60.7,48.3v6.9h-1.4c-0.4,0-0.7,0.3-0.7,0.8v1.7h-0.7v-9.4H60.7z"/>
	</g>
</g>
</svg>
