<?xml version="1.0" encoding="utf-8"?>
<!-- Generator: Adobe Illustrator 23.0.0, SVG Export Plug-In . SVG Version: 6.00 Build 0)  -->
<svg version="1.1" baseProfile="tiny" id="Layer_1" xmlns="http://www.w3.org/2000/svg" xmlns:xlink="http://www.w3.org/1999/xlink"
	 x="0px" y="0px" viewBox="0 0 128 128" xml:space="preserve">
<g>
	<g>
		<linearGradient id="SVGID_1_" gradientUnits="userSpaceOnUse" x1="80.5606" y1="66.5535" x2="54.9944" y2="58.0314">
			<stop  offset="0" style="stop-color:#2D2D2D"/>
			<stop  offset="1" style="stop-color:#2D2D2D"/>
		</linearGradient>
		<path fill-rule="evenodd" fill="url(#SVGID_1_)" d="M98.2,23.1C86.8,22.2,76,18.6,65.5,12.4h-0.1C54.9,18.6,44,22.2,32.7,23.1
			c-3.6,0.3-7,0.3-10.1,0l-3.7-0.5c-0.1,5.2-0.1,10.9,0.1,17.2c0.3,12.5,1.2,21.7,2.6,27.3c4.2,16.3,12.7,29.3,25.7,38.9
			c4,3,8.2,5.5,12.7,7.6c2.2,1,4,1.7,5.5,2.1h0.1c1.5-0.4,3.8-1.3,6.9-2.8c3.2-1.4,8.4-5.2,15.6-11.3c7.2-6.1,12.6-14.5,16.3-25.2
			c3.7-10.7,5.3-21,5-30.9c-0.3-9.9-0.4-17.4-0.2-22.4C105.3,23.3,101.7,23.3,98.2,23.1z M119.5,13.3c-0.2,6.3-0.2,15.5,0.2,27.7
			c0.4,12.2-1.6,24.9-6.1,38.2c-4.5,13.2-11.2,23.6-20.1,31.1c-8.8,7.5-15.3,12.2-19.2,14c-4,1.8-6.8,2.9-8.6,3.4h-0.1
			c-1.7-0.5-4-1.3-6.7-2.6c-5.5-2.5-10.7-5.6-15.7-9.3C27.3,104,16.7,88,11.6,67.8c-1.7-6.9-2.8-18.2-3.2-33.8
			c-0.2-7.7-0.2-14.7-0.1-21.3l4.6,0.6c4,0.4,8.1,0.4,12.5,0c13.9-1.1,27.4-5.5,40.4-13.2l0,0l0,0c13,7.7,26.4,12.1,40.4,13.2
			C110.5,13.8,114.9,13.8,119.5,13.3z"/>
		<path fill="#9C9C9C" d="M65.6,128C65.6,128,65.6,128,65.6,128c-1.8-0.5-4.1-1.4-6.8-2.6c-5.5-2.5-10.8-5.6-15.7-9.3
			C27.2,104.2,16.5,88,11.3,67.9C9.6,61,8.5,49.6,8.1,34.1C7.9,26.4,7.9,19.3,8,12.8c0-0.1,0-0.1,0.1-0.2c0.1,0,0.1-0.1,0.2-0.1
			l4.6,0.6c3.9,0.4,8.1,0.4,12.4,0C39.2,12.1,52.7,7.7,65.6,0C65.7,0,65.9,0,66,0.1c12.9,7.6,26.4,12,40.2,13.1
			c4.3,0.4,8.8,0.3,13.3-0.1c0.1,0,0.1,0,0.2,0.1c0.1,0,0.1,0.1,0.1,0.2c-0.2,6.3-0.2,15.6,0.2,27.7c0.4,12.2-1.6,25-6.1,38.2
			c-4.5,13.2-11.3,23.7-20.1,31.2c-8.8,7.5-15.3,12.3-19.3,14.1c-3.9,1.8-6.8,2.9-8.6,3.4C65.8,128,65.7,128,65.6,128
			C65.7,128,65.6,128,65.6,128z M8.5,13.1c-0.1,6.4-0.1,13.5,0.1,21c0.4,15.5,1.5,26.9,3.2,33.7c5.1,20,15.8,36.1,31.6,47.9
			c4.9,3.7,10.2,6.8,15.6,9.3c2.7,1.2,5,2.1,6.7,2.6c1.7-0.5,4.6-1.6,8.5-3.4c4-1.8,10.4-6.5,19.2-14c8.8-7.5,15.5-18,20-31
			c4.5-13.1,6.5-26,6.1-38.1c-0.4-11.9-0.5-21.2-0.2-27.4c-4.5,0.4-8.9,0.4-13.1,0.1C92.3,12.6,78.7,8.2,65.8,0.5
			c-13,7.6-26.6,12-40.4,13.1c-4.4,0.4-8.6,0.4-12.5,0L8.5,13.1z M65.4,115.9C65.4,115.9,65.4,115.9,65.4,115.9c-0.1,0-0.1,0-0.2,0
			c-1.4-0.4-3.3-1.1-5.5-2.1c-4.5-2-8.8-4.6-12.7-7.6c-12.9-9.6-21.6-22.8-25.8-39c-1.4-5.7-2.3-14.9-2.6-27.4
			c-0.2-6.3-0.2-12.1-0.1-17.3c0-0.1,0-0.1,0.1-0.2c0.1,0,0.1-0.1,0.2-0.1l3.7,0.5c3.1,0.3,6.5,0.3,10.1,0
			c11.2-0.9,22.2-4.5,32.6-10.7c0,0,0.1,0,0.1,0c0,0,0.1,0,0.2,0C76,18.3,87,21.9,98.2,22.8c3.5,0.3,7.1,0.2,10.8-0.1
			c0.1,0,0.1,0,0.2,0.1c0.1,0,0.1,0.1,0.1,0.2c-0.2,5-0.1,12.6,0.2,22.4c0.3,9.9-1.3,20.4-5,31c-3.7,10.7-9.2,19.2-16.3,25.3
			c-7.2,6.1-12.4,9.9-15.6,11.4C69.3,114.5,67,115.5,65.4,115.9C65.5,115.9,65.5,115.9,65.4,115.9z M19.1,22.8
			c-0.1,5.1-0.1,10.8,0.1,17c0.3,12.5,1.2,21.7,2.6,27.3c4.1,16.2,12.8,29.2,25.6,38.8c3.9,3,8.2,5.5,12.6,7.5c2.2,1,4,1.6,5.4,2
			c1.5-0.4,3.8-1.3,6.9-2.8c3.2-1.4,8.4-5.2,15.5-11.3c7.1-6,12.6-14.5,16.2-25.1c3.6-10.6,5.3-21,5-30.8
			c-0.3-9.7-0.4-17.1-0.2-22.2c-3.6,0.3-7.2,0.3-10.6,0.1c-11.3-0.9-22.2-4.5-32.7-10.7C55,18.8,44,22.4,32.7,23.3
			c-3.6,0.3-7,0.3-10.2,0L19.1,22.8z"/>
	</g>
	<g>
		<path fill="#2D2D2D" d="M70.3,85.1c-1.7-0.1-2.5-0.3-3.1-0.4c-0.6-0.1-1-0.2-2-0.2c-1,0-1.4,0.1-2,0.2c-0.6,0.1-1.3,0.3-2.6,0.4
			l0.4,1c0.2,0.6,1,0.9,1.7,0.8c0.9-0.2,1.8-0.3,2.6-0.3c0.9,0,2,0.1,3.2,0.4c0.8,0.2,1.6-0.2,1.7-0.8L70.3,85.1L70.3,85.1
			L70.3,85.1z"/>
		<path fill="#2D2D2D" d="M61.1,72.9c0,0.1-0.1,0.2,0,0.4l4.1,5.6c0.1,0.1,0.2,0.1,0.3,0.1c0.1,0,0.2,0,0.3-0.1l4.1-5.6
			c0.1-0.2,0.1-0.4,0-0.4c0-0.1-0.1-0.2-0.3-0.2h-8.1C61.2,72.7,61.1,72.9,61.1,72.9z"/>
		<path fill="#2D2D2D" d="M90.7,56.3c-0.5-0.6-0.9-1-1.2-1.6l-0.1-0.2l0.1-0.2c0.2-0.7-0.7-3.4-1.6-5.7c-0.1,0.4-0.2,0.7-0.4,1
			c-0.1,0.3-0.4,0.4-0.7,0.3c-0.3-0.1-0.4-0.4-0.3-0.7c2.3-6,2-12.9-0.9-20.5c-0.2-0.4-0.5-0.7-0.9-0.8c-0.4-0.1-0.8,0-1.1,0.4
			c-2.1,2.2-5.2,5.3-7.1,7.1c-2.5,2.4-5.6,2.3-8.9,2.2c-1.5-0.1-3.1-0.1-4.6,0c-3.6,0.1-7.4,0.3-9.9-2.2c-1.8-1.8-5-5-7.1-7.1
			c-0.3-0.3-0.7-0.4-1.1-0.4c-0.4,0.1-0.8,0.4-0.9,0.8C41,36.4,40.7,43.3,43,49.3c0.1,0.3,0,0.6-0.3,0.7c-0.1,0-0.1,0-0.2,0
			c-0.2,0-0.4-0.1-0.5-0.4c-0.1-0.3-0.2-0.6-0.3-0.9c-0.7,2.2-1.3,4.8-1.1,5.5l0.1,0.2l-0.1,0.2c-0.3,0.6-0.7,1-1.2,1.6
			c-1.5,1.6-3.6,3.9-3.3,10.7c1.2-1,2.5-1.4,2.6-1.5l0.9-0.3l-0.1,0.9c0,0.1-1.4,9.3,2.4,16.1c0.5-2.3,1-3,1.1-3.1l0.6-0.8l0.3,1
			c0,0,1.8,4.9,7.7,8.6c0.6,0.4,1.6,0.9,2.7,1.5c3.4,1.7,8.4,4.1,11.1,8.6c2.6-4.5,7.5-6.9,10.7-8.6c1.1-0.5,2-1,2.5-1.4
			c6-3.8,7.7-8.6,7.8-8.7l0.3-1l0.6,0.8c0.1,0.1,0.6,0.8,1.1,3.1c3.8-6.8,2.4-16,2.4-16.1l-0.1-0.9l0.9,0.3c0.1,0,1.4,0.4,2.6,1.5
			C94.3,60.3,92.2,57.9,90.7,56.3z M83.4,35.1c-0.3-0.7-0.6-1.5-1.1-2.1c-0.2-0.2-0.1-0.6,0.1-0.8c0.2-0.2,0.6-0.1,0.8,0.1
			c3.5,4.6,1.4,12.1,1.3,12.4c-0.1,0.2-0.3,0.4-0.5,0.4c-0.1,0-0.1,0-0.2,0c-0.3-0.1-0.5-0.4-0.4-0.7c0-0.1,1.2-4.3,0.3-8.2
			c-0.8,0.6-2.1,1.9-2.2,3.6c0,0.3-0.3,0.5-0.6,0.5c0,0,0,0,0,0c-0.3,0-0.6-0.3-0.5-0.6C80.5,37.3,82.6,35.6,83.4,35.1z M71.8,55.5
			l7.3-2.8c0.3-0.1,0.6,0,0.7,0.3c0.1,0.3,0,0.6-0.3,0.7L76,55.1c0.6,0.3,1,0.8,1,1.5c0,0.9-0.8,1.7-1.7,1.7c-0.9,0-1.7-0.8-1.7-1.7
			c0-0.2,0-0.5,0.1-0.7l-1.6,0.6c-0.1,0-0.1,0-0.2,0c-0.2,0-0.4-0.1-0.5-0.4C71.3,55.9,71.5,55.6,71.8,55.5z M69.5,71.6
			c0.6,0,1.1,0.3,1.3,0.8c0.3,0.5,0.2,1.1-0.1,1.6l-4.1,5.6c-0.3,0.4-0.7,0.6-1.2,0.6c-0.5,0-0.9-0.2-1.2-0.6L60.2,74
			c-0.3-0.5-0.4-1.1-0.1-1.6c0.3-0.5,0.8-0.8,1.3-0.8H69.5z M50.7,53c0.1-0.3,0.4-0.4,0.7-0.3l7.3,2.8c0.3,0.1,0.4,0.4,0.3,0.7
			c-0.1,0.2-0.3,0.4-0.5,0.4c-0.1,0-0.1,0-0.2,0l-1.6-0.6c0.1,0.2,0.1,0.4,0.1,0.7c0,0.9-0.8,1.7-1.7,1.7c-0.9,0-1.7-0.8-1.7-1.7
			c0-0.7,0.4-1.3,1-1.5L51,53.8C50.8,53.6,50.6,53.3,50.7,53z M46,32.3c0.2-0.2,0.5-0.3,0.8-0.1c0.2,0.2,0.3,0.5,0.1,0.8
			c-0.5,0.6-0.9,1.3-1.1,2.1c0.8,0.5,2.9,2.2,3,4.8c0,0.3-0.2,0.6-0.5,0.6c0,0,0,0,0,0c-0.3,0-0.6-0.2-0.6-0.5
			c-0.1-1.7-1.4-3-2.2-3.6c-0.9,3.9,0.3,8.1,0.3,8.2c0.1,0.3-0.1,0.6-0.4,0.7c-0.1,0-0.1,0-0.2,0c-0.2,0-0.5-0.2-0.5-0.4
			C44.6,44.4,42.5,36.9,46,32.3z M86.5,72.7c-1.7-1.1-3.4-2.2-4.4-2.8l0.6,4l-3.2-1.6l-3,2.7c-0.5,0.5-0.9,1.1-1,1.8
			c-0.5,2.5-1.7,6.5-3.8,7.8c0,0,0,0,0,0.1l-0.5,1.7c-0.3,1-1.3,1.7-2.4,1.7c-0.2,0-0.4,0-0.6-0.1c-1.1-0.2-2.1-0.4-2.9-0.4
			c-0.7,0-1.5,0.1-2.3,0.3c-1.3,0.3-2.6-0.4-3-1.5l-0.5-1.5c-2.6-0.9-3.9-5.4-4.5-8.2c-0.1-0.7-0.5-1.3-1-1.8l-3-2.7l-3.2,1.6l0.6-4
			c-1,0.7-2.7,1.8-4.4,2.8l-2.5,1.5l1.7-2.3c1.7-2.3,3.4-8.8,3.5-8.8c0.1-0.3,0.4-0.5,0.7-0.4c0.3,0.1,0.5,0.4,0.4,0.7
			c-0.1,0.2-1.1,4.3-2.5,7.3c2-1.3,3.6-2.4,3.6-2.4l1.1-0.7l-0.7,4.4l2-1l3.5,3.3c0.1,0.1,0.2,0.2,0.3,0.4
			c0.6-3.1,2.5-10.4,6.1-13.8c0.2-0.2,0.6-0.2,0.8,0c0.2,0.2,0.2,0.6,0,0.8c-4.1,3.9-5.9,13.6-6,14.5c0.1,0.2,0.1,0.3,0.1,0.5
			c0.9,4.4,2.5,7.2,4.1,7.4c1.6-0.1,2.3-0.3,2.9-0.4c0.6-0.1,1.1-0.2,2.2-0.2s1.6,0.1,2.2,0.2c0.6,0.1,1.4,0.3,2.9,0.4
			c1.6-0.2,3.2-3,4.1-7.4c0-0.2,0.1-0.3,0.1-0.5c-0.2-0.9-1.9-10.6-6-14.5c-0.2-0.2-0.2-0.6,0-0.8c0.2-0.2,0.6-0.2,0.8,0
			c3.7,3.4,5.5,10.7,6.1,13.8c0.1-0.1,0.2-0.3,0.3-0.4l3.5-3.3l2,1l-0.7-4.4l1.1,0.7c0,0,1.6,1.1,3.6,2.4c-1.4-2.9-2.5-7-2.5-7.3
			c-0.1-0.3,0.1-0.6,0.4-0.7c0.3-0.1,0.6,0.1,0.7,0.4c0,0.1,1.7,6.6,3.5,8.8l1.7,2.3L86.5,72.7z"/>
	</g>
</g>
</svg>
