<?xml version="1.0" encoding="utf-8"?>
<!-- Generator: Adobe Illustrator 23.0.0, SVG Export Plug-In . SVG Version: 6.00 Build 0)  -->
<svg version="1.1" id="Layer_1" xmlns="http://www.w3.org/2000/svg" xmlns:xlink="http://www.w3.org/1999/xlink" x="0px" y="0px"
	 viewBox="0 0 128 128" enable-background="new 0 0 128 128" xml:space="preserve">
<g>
	<g>
		<linearGradient id="SVGID_1_" gradientUnits="userSpaceOnUse" x1="80.5606" y1="66.5535" x2="54.9944" y2="58.0314">
			<stop  offset="0" style="stop-color:#2D2D2D"/>
			<stop  offset="1" style="stop-color:#2D2D2D"/>
		</linearGradient>
		<path fill-rule="evenodd" clip-rule="evenodd" fill="url(#SVGID_1_)" d="M98.2,23.1C86.8,22.2,76,18.6,65.5,12.4h-0.1
			C54.9,18.6,44,22.2,32.7,23.1c-3.6,0.3-7,0.3-10.1,0l-3.7-0.5c-0.1,5.2-0.1,10.9,0.1,17.2c0.3,12.5,1.2,21.7,2.6,27.3
			c4.2,16.3,12.7,29.3,25.7,38.9c4,3,8.2,5.5,12.7,7.6c2.2,1,4,1.7,5.5,2.1h0.1c1.5-0.4,3.8-1.3,6.9-2.8c3.2-1.4,8.4-5.2,15.6-11.3
			c7.2-6.1,12.6-14.5,16.3-25.2c3.7-10.7,5.3-21,5-30.9c-0.3-9.9-0.4-17.4-0.2-22.4C105.3,23.3,101.7,23.3,98.2,23.1z M119.5,13.3
			c-0.2,6.3-0.2,15.5,0.2,27.7c0.4,12.2-1.6,24.9-6.1,38.2c-4.5,13.2-11.2,23.6-20.1,31.1c-8.8,7.5-15.3,12.2-19.2,14
			c-4,1.8-6.8,2.9-8.6,3.4h-0.1c-1.7-0.5-4-1.3-6.7-2.6c-5.5-2.5-10.7-5.6-15.7-9.3C27.3,104,16.7,88,11.6,67.8
			c-1.7-6.9-2.8-18.2-3.2-33.8c-0.2-7.7-0.2-14.7-0.1-21.3l4.6,0.6c4,0.4,8.1,0.4,12.5,0c13.9-1.1,27.4-5.5,40.4-13.2l0,0l0,0
			c13,7.7,26.4,12.1,40.4,13.2C110.5,13.8,114.9,13.8,119.5,13.3z"/>
		<path fill="#9C9C9C" d="M65.6,128C65.6,128,65.6,128,65.6,128c-1.8-0.5-4.1-1.4-6.8-2.6c-5.5-2.5-10.8-5.6-15.7-9.3
			C27.2,104.2,16.5,88,11.3,67.9C9.6,61,8.5,49.6,8.1,34.1C7.9,26.4,7.9,19.3,8,12.8c0-0.1,0-0.1,0.1-0.2c0.1,0,0.1-0.1,0.2-0.1
			l4.6,0.6c3.9,0.4,8.1,0.4,12.4,0C39.2,12.1,52.7,7.7,65.6,0C65.7,0,65.9,0,66,0.1c12.9,7.6,26.4,12,40.2,13.1
			c4.3,0.4,8.8,0.3,13.3-0.1c0.1,0,0.1,0,0.2,0.1c0.1,0,0.1,0.1,0.1,0.2c-0.2,6.3-0.2,15.6,0.2,27.7c0.4,12.2-1.6,25-6.1,38.2
			c-4.5,13.2-11.3,23.7-20.1,31.2c-8.8,7.5-15.3,12.3-19.3,14.1c-3.9,1.8-6.8,2.9-8.6,3.4C65.8,128,65.7,128,65.6,128
			C65.7,128,65.6,128,65.6,128z M8.5,13.1c-0.1,6.4-0.1,13.5,0.1,21c0.4,15.5,1.5,26.9,3.2,33.7c5.1,20,15.8,36.1,31.6,47.9
			c4.9,3.7,10.2,6.8,15.6,9.3c2.7,1.2,5,2.1,6.7,2.6c1.7-0.5,4.6-1.6,8.5-3.4c4-1.8,10.4-6.5,19.2-14c8.8-7.5,15.5-18,20-31
			c4.5-13.1,6.5-26,6.1-38.1c-0.4-11.9-0.5-21.2-0.2-27.4c-4.5,0.4-8.9,0.4-13.1,0.1C92.3,12.6,78.7,8.2,65.8,0.5
			c-13,7.6-26.6,12-40.4,13.1c-4.4,0.4-8.6,0.4-12.5,0L8.5,13.1z M65.4,115.9C65.4,115.9,65.4,115.9,65.4,115.9c-0.1,0-0.1,0-0.2,0
			c-1.4-0.4-3.3-1.1-5.5-2.1c-4.5-2-8.8-4.6-12.7-7.6c-12.9-9.6-21.6-22.8-25.8-39c-1.4-5.7-2.3-14.9-2.6-27.4
			c-0.2-6.3-0.2-12.1-0.1-17.3c0-0.1,0-0.1,0.1-0.2c0.1,0,0.1-0.1,0.2-0.1l3.7,0.5c3.1,0.3,6.5,0.3,10.1,0
			c11.2-0.9,22.2-4.5,32.6-10.7c0,0,0.1,0,0.1,0c0,0,0.1,0,0.2,0C76,18.3,87,21.9,98.2,22.8c3.5,0.3,7.1,0.2,10.8-0.1
			c0.1,0,0.1,0,0.2,0.1c0.1,0,0.1,0.1,0.1,0.2c-0.2,5-0.1,12.6,0.2,22.4c0.3,9.9-1.3,20.4-5,31c-3.7,10.7-9.2,19.2-16.3,25.3
			c-7.2,6.1-12.4,9.9-15.6,11.4C69.3,114.5,67,115.5,65.4,115.9C65.5,115.9,65.5,115.9,65.4,115.9z M19.1,22.8
			c-0.1,5.1-0.1,10.8,0.1,17c0.3,12.5,1.2,21.7,2.6,27.3c4.1,16.2,12.8,29.2,25.6,38.8c3.9,3,8.2,5.5,12.6,7.5c2.2,1,4,1.6,5.4,2
			c1.5-0.4,3.8-1.3,6.9-2.8c3.2-1.4,8.4-5.2,15.5-11.3c7.1-6,12.6-14.5,16.2-25.1c3.6-10.6,5.3-21,5-30.8
			c-0.3-9.7-0.4-17.1-0.2-22.2c-3.6,0.3-7.2,0.3-10.6,0.1c-11.3-0.9-22.2-4.5-32.7-10.7C55,18.8,44,22.4,32.7,23.3
			c-3.6,0.3-7,0.3-10.2,0L19.1,22.8z"/>
	</g>
	<g>
		<polygon fill="#2D2D2D" points="78.8,56.9 72.6,70.5 63.8,66.4 70,52.9 		"/>
		<polygon fill="#2D2D2D" points="49.6,43.6 43.5,57 34.7,53 40.8,39.6 		"/>
		<polygon fill="#2D2D2D" points="59.3,48 53.2,61.5 44.4,57.5 50.6,44 		"/>
		<polygon fill="#2D2D2D" points="88.5,61.3 82.3,75 73.5,70.9 79.7,57.3 		"/>
		<path fill="#2D2D2D" d="M69.1,52.5L63,65.8c-1.5-1.7-3.3-2.9-5.5-3.5c-1.1-0.3-2.2-0.5-3.3-0.5l6.1-13.3L69.1,52.5z"/>
		<polygon fill="#2D2D2D" points="91.6,58.2 92.9,55.5 42.6,32.3 41.4,35 91.6,58.2 		"/>
		<path fill="#2D2D2D" d="M45,66.1c1.7-2.1,4.2-3.5,6.8-4.1l-19-8.8c0,0-0.1,0-0.1,0L30,59c0,0,0,0.1,0,0.1l14.8,6.8
			C44.9,66,44.9,66,45,66.1z"/>
		<path fill="#2D2D2D" d="M57.2,63.3c-1-0.3-2.1-0.5-3.1-0.5c-4.8,0-9.1,3.2-10.4,7.8c-1.7,5.8,1.6,11.9,7.3,13.6
			c1,0.3,2.1,0.5,3.1,0.5c4.8,0,9.1-3.2,10.4-7.8c0.8-2.8,0.5-5.8-0.9-8.3C62.3,66,60,64.1,57.2,63.3z M59.8,75.4
			c-0.7,2.5-3.1,4.3-5.7,4.3c-0.6,0-1.1-0.1-1.7-0.2c-1.5-0.5-2.8-1.5-3.5-2.9c-0.8-1.4-0.9-3-0.5-4.5c0.7-2.5,3.1-4.3,5.7-4.3
			c0.6,0,1.1,0.1,1.7,0.2c1.5,0.5,2.8,1.5,3.5,2.9C60,72.3,60.2,73.9,59.8,75.4z"/>
		<path fill="#2D2D2D" d="M82.9,76.4l-18.5-8.5c0,0.1,0.1,0.1,0.1,0.2c1.3,2.4,1.7,5,1.3,7.6c0,0,0,0,0.1,0l14.3,6.6
			c0,0,0.1,0,0.1,0L82.9,76.4C82.9,76.4,82.9,76.4,82.9,76.4z"/>
		<path fill="#2D2D2D" d="M55.5,69c-0.5-0.1-0.9-0.2-1.4-0.2c-2.2,0-4.1,1.5-4.7,3.5c-0.4,1.3-0.2,2.6,0.4,3.8
			c0.6,1.2,1.7,2,2.9,2.4c0.5,0.1,0.9,0.2,1.4,0.2c2.2,0,4.1-1.5,4.7-3.5c0.4-1.3,0.2-2.6-0.4-3.8S56.7,69.4,55.5,69z"/>
		<path fill="#2D2D2D" d="M93.8,82.4l-1.1-0.5c-0.2-0.1-0.4,0-0.5,0.2c-0.1,0.2-0.2,0.3-0.4,0.4c-0.2,0.1-0.4,0.1-0.6,0L83,78.7
			l-1,2.2l8.2,3.8c0.2,0.1,0.3,0.2,0.4,0.4c0.1,0.2,0.1,0.4,0,0.6c-0.1,0.2,0,0.4,0.2,0.5l1.1,0.5c0.2,0.1,0.4,0,0.5-0.2l1.7-3.7
			c0-0.1,0-0.2,0-0.3C93.9,82.5,93.9,82.4,93.8,82.4z"/>
		<polygon fill="#2D2D2D" points="51,40.6 49.6,43.6 40.8,39.6 42.2,36.6 		"/>
		<polygon fill="#2D2D2D" points="60.7,45.1 59.3,48 50.6,44 51.9,41 		"/>
		<polygon fill="#2D2D2D" points="70.4,49.6 69.1,52.5 60.3,48.5 61.6,45.5 		"/>
		<polygon fill="#2D2D2D" points="80.1,54 78.8,56.9 70,52.9 71.3,50 		"/>
		<polygon fill="#2D2D2D" points="89.8,58.5 88.5,61.3 79.7,57.3 81,54.5 		"/>
	</g>
</g>
</svg>
