<?xml version="1.0" encoding="utf-8"?>
<!-- Generator: Adobe Illustrator 23.0.0, SVG Export Plug-In . SVG Version: 6.00 Build 0)  -->
<svg version="1.1" id="Layer_1" xmlns="http://www.w3.org/2000/svg" xmlns:xlink="http://www.w3.org/1999/xlink" x="0px" y="0px"
	 viewBox="0 0 128 128" enable-background="new 0 0 128 128" xml:space="preserve">
<g>
	<g>
		<linearGradient id="SVGID_1_" gradientUnits="userSpaceOnUse" x1="80.5606" y1="66.5535" x2="54.9944" y2="58.0314">
			<stop  offset="0" style="stop-color:#2D2D2D"/>
			<stop  offset="1" style="stop-color:#2D2D2D"/>
		</linearGradient>
		<path fill-rule="evenodd" clip-rule="evenodd" fill="url(#SVGID_1_)" d="M98.2,23.1C86.8,22.2,76,18.6,65.5,12.4h-0.1
			C54.9,18.6,44,22.2,32.7,23.1c-3.6,0.3-7,0.3-10.1,0l-3.7-0.5c-0.1,5.2-0.1,10.9,0.1,17.2c0.3,12.5,1.2,21.7,2.6,27.3
			c4.2,16.3,12.7,29.3,25.7,38.9c4,3,8.2,5.5,12.7,7.6c2.2,1,4,1.7,5.5,2.1h0.1c1.5-0.4,3.8-1.3,6.9-2.8c3.2-1.4,8.4-5.2,15.6-11.3
			c7.2-6.1,12.6-14.5,16.3-25.2c3.7-10.7,5.3-21,5-30.9c-0.3-9.9-0.4-17.4-0.2-22.4C105.3,23.3,101.7,23.3,98.2,23.1z M119.5,13.3
			c-0.2,6.3-0.2,15.5,0.2,27.7c0.4,12.2-1.6,24.9-6.1,38.2c-4.5,13.2-11.2,23.6-20.1,31.1c-8.8,7.5-15.3,12.2-19.2,14
			c-4,1.8-6.8,2.9-8.6,3.4h-0.1c-1.7-0.5-4-1.3-6.7-2.6c-5.5-2.5-10.7-5.6-15.7-9.3C27.3,104,16.7,88,11.6,67.8
			c-1.7-6.9-2.8-18.2-3.2-33.8c-0.2-7.7-0.2-14.7-0.1-21.3l4.6,0.6c4,0.4,8.1,0.4,12.5,0c13.9-1.1,27.4-5.5,40.4-13.2l0,0l0,0
			c13,7.7,26.4,12.1,40.4,13.2C110.5,13.8,114.9,13.8,119.5,13.3z"/>
		<path fill="#9C9C9C" d="M65.6,128C65.6,128,65.6,128,65.6,128c-1.8-0.5-4.1-1.4-6.8-2.6c-5.5-2.5-10.8-5.6-15.7-9.3
			C27.2,104.2,16.5,88,11.3,67.9C9.6,61,8.5,49.6,8.1,34.1C7.9,26.4,7.9,19.3,8,12.8c0-0.1,0-0.1,0.1-0.2c0.1,0,0.1-0.1,0.2-0.1
			l4.6,0.6c3.9,0.4,8.1,0.4,12.4,0C39.2,12.1,52.7,7.7,65.6,0C65.7,0,65.9,0,66,0.1c12.9,7.6,26.4,12,40.2,13.1
			c4.3,0.4,8.8,0.3,13.3-0.1c0.1,0,0.1,0,0.2,0.1c0.1,0,0.1,0.1,0.1,0.2c-0.2,6.3-0.2,15.6,0.2,27.7c0.4,12.2-1.6,25-6.1,38.2
			c-4.5,13.2-11.3,23.7-20.1,31.2c-8.8,7.5-15.3,12.3-19.3,14.1c-3.9,1.8-6.8,2.9-8.6,3.4C65.8,128,65.7,128,65.6,128
			C65.7,128,65.6,128,65.6,128z M8.5,13.1c-0.1,6.4-0.1,13.5,0.1,21c0.4,15.5,1.5,26.9,3.2,33.7c5.1,20,15.8,36.1,31.6,47.9
			c4.9,3.7,10.2,6.8,15.6,9.3c2.7,1.2,5,2.1,6.7,2.6c1.7-0.5,4.6-1.6,8.5-3.4c4-1.8,10.4-6.5,19.2-14c8.8-7.5,15.5-18,20-31
			c4.5-13.1,6.5-26,6.1-38.1c-0.4-11.9-0.5-21.2-0.2-27.4c-4.5,0.4-8.9,0.4-13.1,0.1C92.3,12.6,78.7,8.2,65.8,0.5
			c-13,7.6-26.6,12-40.4,13.1c-4.4,0.4-8.6,0.4-12.5,0L8.5,13.1z M65.4,115.9C65.4,115.9,65.4,115.9,65.4,115.9c-0.1,0-0.1,0-0.2,0
			c-1.4-0.4-3.3-1.1-5.5-2.1c-4.5-2-8.8-4.6-12.7-7.6c-12.9-9.6-21.6-22.8-25.8-39c-1.4-5.7-2.3-14.9-2.6-27.4
			c-0.2-6.3-0.2-12.1-0.1-17.3c0-0.1,0-0.1,0.1-0.2c0.1,0,0.1-0.1,0.2-0.1l3.7,0.5c3.1,0.3,6.5,0.3,10.1,0
			c11.2-0.9,22.2-4.5,32.6-10.7c0,0,0.1,0,0.1,0c0,0,0.1,0,0.2,0C76,18.3,87,21.9,98.2,22.8c3.5,0.3,7.1,0.2,10.8-0.1
			c0.1,0,0.1,0,0.2,0.1c0.1,0,0.1,0.1,0.1,0.2c-0.2,5-0.1,12.6,0.2,22.4c0.3,9.9-1.3,20.4-5,31c-3.7,10.7-9.2,19.2-16.3,25.3
			c-7.2,6.1-12.4,9.9-15.6,11.4C69.3,114.5,67,115.5,65.4,115.9C65.5,115.9,65.5,115.9,65.4,115.9z M19.1,22.8
			c-0.1,5.1-0.1,10.8,0.1,17c0.3,12.5,1.2,21.7,2.6,27.3c4.1,16.2,12.8,29.2,25.6,38.8c3.9,3,8.2,5.5,12.6,7.5c2.2,1,4,1.6,5.4,2
			c1.5-0.4,3.8-1.3,6.9-2.8c3.2-1.4,8.4-5.2,15.5-11.3c7.1-6,12.6-14.5,16.2-25.1c3.6-10.6,5.3-21,5-30.8
			c-0.3-9.7-0.4-17.1-0.2-22.2c-3.6,0.3-7.2,0.3-10.6,0.1c-11.3-0.9-22.2-4.5-32.7-10.7C55,18.8,44,22.4,32.7,23.3
			c-3.6,0.3-7,0.3-10.2,0L19.1,22.8z"/>
	</g>
	<g>
		<polygon fill="#2D2D2D" points="96.5,75.7 90.9,76.8 86,78.9 81.1,79.2 80,82.3 81.5,83.9 86.5,82 89.4,80.2 94.6,79.1 97,76.7 		
			"/>
		<polygon fill="#2D2D2D" points="75,59.9 84.3,56.8 89.7,49.9 89.3,48.2 90.7,47.1 90.1,44.2 88.8,38.2 84.6,36.4 85.6,39.8 
			81,42.5 86.4,45.4 79.4,44 76.4,48.4 67.5,54.4 70.6,56.2 77.5,52.5 72.8,58.3 		"/>
		<polygon fill="#2D2D2D" points="39.4,63.4 39.2,59.3 41.2,56.8 42,54.9 38.9,55.1 40.5,53 39.5,52.5 33,55.1 29.8,60 29.5,64.1 
			31.6,64.5 29,67.2 32.2,69.3 34.5,71.9 40.5,72.3 36.5,67.6 		"/>
		<polygon fill="#2D2D2D" points="74.2,46.4 77.3,42.1 82.5,38.4 81.5,35.5 76.7,39.2 71.6,40.2 69.5,44 70.3,45.7 68.3,47.2 
			63.6,51.2 65,52.6 		"/>
		<polygon fill="#2D2D2D" points="56,61.8 53.1,59.8 49.7,66 49.4,69.2 50.7,77.3 49,74.1 48.5,80.1 53.1,84.7 54.3,76.3 53.4,68.9 
					"/>
		<polygon fill="#2D2D2D" points="44.8,55.8 42.3,60.5 42.1,64.5 39.6,67.7 41.2,69.5 43.2,71.5 44.4,65.6 44.5,62.8 46.1,58.6 
			45.6,55.9 		"/>
		<polygon fill="#2D2D2D" points="81.1,71.7 85.7,76.2 89.7,74.5 96.4,73.4 95.6,72.1 93.2,69.6 96.4,69.8 96.2,68.3 89.5,64.6 
			82.3,63.7 78.2,66 82,69.2 74.7,67.7 76,72.4 75.1,76.3 78.1,80 79.4,76.3 83.8,76.6 		"/>
		<polygon fill="#2D2D2D" points="45.6,40.5 47.5,34.8 47.2,41.8 51.8,43.9 58.3,51.8 59.9,48.2 55.3,42.2 61.5,45.8 62.6,43.5 
			58.4,35.4 51.2,31.4 49.7,32 48.4,30.9 45.8,31.8 40.5,33.8 39.4,38 42.4,36.5 		"/>
		<polygon fill="#2D2D2D" points="65.7,69.7 68.8,63.5 66.1,61.3 60.5,56.9 55.1,58.4 58.7,60.8 56.4,66.8 63.2,65.5 56.1,69.2 
			56.7,75.4 55.3,85.5 58,86.1 61.4,77.1 62.2,77.3 60.1,86.6 62.5,87.1 71.5,71.9 70.1,65.2 		"/>
		<polygon fill="#2D2D2D" points="44.9,49.6 48.6,51 50.1,50 51.9,51.7 52.5,54.5 55.6,52.6 50.2,46.3 45.6,44.7 41.5,39.7 39,41 
			43.8,45.7 		"/>
	</g>
</g>
</svg>
