<?xml version="1.0" encoding="utf-8"?>
<!-- Generator: Adobe Illustrator 23.0.0, SVG Export Plug-In . SVG Version: 6.00 Build 0)  -->
<svg version="1.1" id="Layer_1" xmlns="http://www.w3.org/2000/svg" xmlns:xlink="http://www.w3.org/1999/xlink" x="0px" y="0px"
	 viewBox="0 0 128 128" enable-background="new 0 0 128 128" xml:space="preserve">
<g>
	<g>
		<linearGradient id="SVGID_1_" gradientUnits="userSpaceOnUse" x1="80.5606" y1="66.5535" x2="54.9944" y2="58.0314">
			<stop  offset="0" style="stop-color:#2D2D2D"/>
			<stop  offset="1" style="stop-color:#2D2D2D"/>
		</linearGradient>
		<path fill-rule="evenodd" clip-rule="evenodd" fill="url(#SVGID_1_)" d="M98.2,23.1C86.8,22.2,76,18.6,65.5,12.4h-0.1
			C54.9,18.6,44,22.2,32.7,23.1c-3.6,0.3-7,0.3-10.1,0l-3.7-0.5c-0.1,5.2-0.1,10.9,0.1,17.2c0.3,12.5,1.2,21.7,2.6,27.3
			c4.2,16.3,12.7,29.3,25.7,38.9c4,3,8.2,5.5,12.7,7.6c2.2,1,4,1.7,5.5,2.1h0.1c1.5-0.4,3.8-1.3,6.9-2.8c3.2-1.4,8.4-5.2,15.6-11.3
			c7.2-6.1,12.6-14.5,16.3-25.2c3.7-10.7,5.3-21,5-30.9c-0.3-9.9-0.4-17.4-0.2-22.4C105.3,23.3,101.7,23.3,98.2,23.1z M119.5,13.3
			c-0.2,6.3-0.2,15.5,0.2,27.7c0.4,12.2-1.6,24.9-6.1,38.2c-4.5,13.2-11.2,23.6-20.1,31.1c-8.8,7.5-15.3,12.2-19.2,14
			c-4,1.8-6.8,2.9-8.6,3.4h-0.1c-1.7-0.5-4-1.3-6.7-2.6c-5.5-2.5-10.7-5.6-15.7-9.3C27.3,104,16.7,88,11.6,67.8
			c-1.7-6.9-2.8-18.2-3.2-33.8c-0.2-7.7-0.2-14.7-0.1-21.3l4.6,0.6c4,0.4,8.1,0.4,12.5,0c13.9-1.1,27.4-5.5,40.4-13.2l0,0l0,0
			c13,7.7,26.4,12.1,40.4,13.2C110.5,13.8,114.9,13.8,119.5,13.3z"/>
		<path fill="#9C9C9C" d="M65.6,128C65.6,128,65.6,128,65.6,128c-1.8-0.5-4.1-1.4-6.8-2.6c-5.5-2.5-10.8-5.6-15.7-9.3
			C27.2,104.2,16.5,88,11.3,67.9C9.6,61,8.5,49.6,8.1,34.1C7.9,26.4,7.9,19.3,8,12.8c0-0.1,0-0.1,0.1-0.2c0.1,0,0.1-0.1,0.2-0.1
			l4.6,0.6c3.9,0.4,8.1,0.4,12.4,0C39.2,12.1,52.7,7.7,65.6,0C65.7,0,65.9,0,66,0.1c12.9,7.6,26.4,12,40.2,13.1
			c4.3,0.4,8.8,0.3,13.3-0.1c0.1,0,0.1,0,0.2,0.1c0.1,0,0.1,0.1,0.1,0.2c-0.2,6.3-0.2,15.6,0.2,27.7c0.4,12.2-1.6,25-6.1,38.2
			c-4.5,13.2-11.3,23.7-20.1,31.2c-8.8,7.5-15.3,12.3-19.3,14.1c-3.9,1.8-6.8,2.9-8.6,3.4C65.8,128,65.7,128,65.6,128
			C65.7,128,65.6,128,65.6,128z M8.5,13.1c-0.1,6.4-0.1,13.5,0.1,21c0.4,15.5,1.5,26.9,3.2,33.7c5.1,20,15.8,36.1,31.6,47.9
			c4.9,3.7,10.2,6.8,15.6,9.3c2.7,1.2,5,2.1,6.7,2.6c1.7-0.5,4.6-1.6,8.5-3.4c4-1.8,10.4-6.5,19.2-14c8.8-7.5,15.5-18,20-31
			c4.5-13.1,6.5-26,6.1-38.1c-0.4-11.9-0.5-21.2-0.2-27.4c-4.5,0.4-8.9,0.4-13.1,0.1C92.3,12.6,78.7,8.2,65.8,0.5
			c-13,7.6-26.6,12-40.4,13.1c-4.4,0.4-8.6,0.4-12.5,0L8.5,13.1z M65.4,115.9C65.4,115.9,65.4,115.9,65.4,115.9c-0.1,0-0.1,0-0.2,0
			c-1.4-0.4-3.3-1.1-5.5-2.1c-4.5-2-8.8-4.6-12.7-7.6c-12.9-9.6-21.6-22.8-25.8-39c-1.4-5.7-2.3-14.9-2.6-27.4
			c-0.2-6.3-0.2-12.1-0.1-17.3c0-0.1,0-0.1,0.1-0.2c0.1,0,0.1-0.1,0.2-0.1l3.7,0.5c3.1,0.3,6.5,0.3,10.1,0
			c11.2-0.9,22.2-4.5,32.6-10.7c0,0,0.1,0,0.1,0c0,0,0.1,0,0.2,0C76,18.3,87,21.9,98.2,22.8c3.5,0.3,7.1,0.2,10.8-0.1
			c0.1,0,0.1,0,0.2,0.1c0.1,0,0.1,0.1,0.1,0.2c-0.2,5-0.1,12.6,0.2,22.4c0.3,9.9-1.3,20.4-5,31c-3.7,10.7-9.2,19.2-16.3,25.3
			c-7.2,6.1-12.4,9.9-15.6,11.4C69.3,114.5,67,115.5,65.4,115.9C65.5,115.9,65.5,115.9,65.4,115.9z M19.1,22.8
			c-0.1,5.1-0.1,10.8,0.1,17c0.3,12.5,1.2,21.7,2.6,27.3c4.1,16.2,12.8,29.2,25.6,38.8c3.9,3,8.2,5.5,12.6,7.5c2.2,1,4,1.6,5.4,2
			c1.5-0.4,3.8-1.3,6.9-2.8c3.2-1.4,8.4-5.2,15.5-11.3c7.1-6,12.6-14.5,16.2-25.1c3.6-10.6,5.3-21,5-30.8
			c-0.3-9.7-0.4-17.1-0.2-22.2c-3.6,0.3-7.2,0.3-10.6,0.1c-11.3-0.9-22.2-4.5-32.7-10.7C55,18.8,44,22.4,32.7,23.3
			c-3.6,0.3-7,0.3-10.2,0L19.1,22.8z"/>
	</g>
	<g>
		<path fill="#2D2D2D" d="M90.1,51.3l-3.5-3.7c-0.2-0.3-0.6-0.3-0.9-0.2c-0.2,0.1-0.4,0.3-0.5,0.6c-0.1,0.3,0,0.5,0.2,0.7l1.5,1.7
			c0.2,0.2,0.2,0.5,0.1,0.7c-0.1,0.2-0.3,0.4-0.6,0.4h-6.8c-0.5,0-0.9,0.4-0.9,0.9c0,0.5,0.4,0.9,0.9,0.9h0.3c0,0,0.1,0,0.1,0H82
			c0.3,0,0.5,0.2,0.5,0.5s-0.2,0.5-0.5,0.5h-0.4c0,0,0,0-0.1,0h-1.6c-0.5,0.1-0.8,0.4-0.8,0.9c0,0.5,0.4,0.9,0.9,0.9c0,0,0,0,0,0H82
			c0.3,0,0.5,0.2,0.5,0.5c0,0,0,0,0,0c0,0,0,0,0,0c0,0.3-0.2,0.5-0.5,0.5H80c0,0,0,0,0,0c-0.5,0-0.9,0.4-0.9,0.9
			c0,0.5,0.4,0.9,0.9,0.9H82c0,0,0,0,0,0h0.3c0.3,0,0.5,0.2,0.5,0.5s-0.2,0.5-0.5,0.5h-0.9c-0.5,0-0.9,0.4-0.9,0.9
			c0,0.5,0.4,0.9,0.9,0.9h7.2l4.8-1.2v-8l-2.2-0.6C90.8,51.8,90.4,51.6,90.1,51.3z"/>
		<path fill="#2D2D2D" d="M94.3,50.2v12.3h4.9l0-12.3H94.3z M96.9,60.9c-0.4,0-0.7-0.3-0.7-0.7c0-0.4,0.3-0.7,0.7-0.7
			c0.4,0,0.7,0.3,0.7,0.7C97.7,60.5,97.3,60.9,96.9,60.9z"/>
		<polygon fill="#2D2D2D" points="99.3,62.5 99.3,63 99.3,62.5 		"/>
		<path fill="#2D2D2D" d="M41.3,62.1V50.9h-4.5l0,11.2H41.3z M38.9,59.2c0.4,0,0.7,0.3,0.7,0.7c0,0.4-0.3,0.7-0.7,0.7
			c-0.4,0-0.7-0.3-0.7-0.7C38.2,59.5,38.5,59.2,38.9,59.2z"/>
		<path fill="#2D2D2D" d="M52.6,56.2h0.8h1c0,0,0,0,0,0c0.5,0,0.8-0.4,0.8-0.8c0-0.4-0.2-0.7-0.6-0.8c-0.1,0-0.1,0-0.2,0h-0.9H53
			c0,0,0,0-0.1,0h-0.3c-0.2,0-0.4-0.2-0.4-0.4c0-0.2,0.2-0.4,0.4-0.4h1.7h0.1c0,0,0.1,0,0.1,0h0.3c0.5,0,0.8-0.4,0.8-0.8
			c0-0.2-0.1-0.4-0.2-0.6C55.2,52.1,55,52,54.7,52h-4.5h-1.7c-0.2,0-0.4-0.1-0.5-0.3c-0.1-0.2-0.1-0.5,0.1-0.6l1.3-1.6
			c0.2-0.2,0.2-0.4,0.2-0.7c-0.1-0.2-0.2-0.4-0.4-0.5c-0.3-0.1-0.6-0.1-0.9,0.2l-3.1,3.3c-0.3,0.3-0.6,0.5-1,0.6l-2,0.5v7.3l0.7,0.2
			l3.7,0.9h1.9h2.5h1.5h0.6c0.5,0,0.8-0.4,0.8-0.8c0-0.5-0.4-0.8-0.8-0.8c0,0,0,0,0,0h-0.8c-0.2,0-0.4-0.2-0.4-0.4
			c0-0.2,0.2-0.4,0.4-0.4h0.2h0.1c0,0,0,0,0,0h1.5h0.3c0.5,0,0.8-0.4,0.8-0.8c0-0.5-0.4-0.8-0.8-0.8c0,0,0,0,0,0h-1.6h-0.2
			c-0.2,0-0.4-0.2-0.4-0.4c0,0,0,0,0,0c0,0,0,0,0,0C52.1,56.4,52.3,56.2,52.6,56.2z"/>
		<polygon fill="#2D2D2D" points="36.8,62.1 36.8,62.1 36.8,62.5 		"/>
		<polygon fill="#2D2D2D" points="64.1,37.7 68.6,32.4 67.2,32.5 63.4,37 63.9,37.5 		"/>
		<path fill="#2D2D2D" d="M63,37.8L62.1,37c0,0-0.1,0-0.2,0L56,43.6l1.3,1.1L63,37.8z"/>
		<path fill="#2D2D2D" d="M39.3,69.9c-0.2,0.5-0.6,0.9-1.2,1.2l-1.4,0.7c-0.2,0.1-0.4,0.2-0.5,0.4l-6.9,8.2l5.7,4.9l0.6-0.7l8-16.6
			l-2.3-2L39.3,69.9z"/>
		<path fill="#2D2D2D" d="M51.6,69.7c-0.1-0.1-0.2-0.2-0.3-0.3l-2.2-4.1c-0.2-0.3-0.2-0.7-0.1-1l0.2-0.5L48.3,63l-2.6,3.5l1.1,0.2
			c0.3,0.1,0.6,0.2,0.8,0.5l2.7,4.3c0.1,0.1,0.3,0.2,0.4,0.1l1.5-0.9c0.1-0.1,0.1-0.1,0.1-0.2c0-0.1,0-0.2-0.1-0.3L51.6,69.7z"/>
		<polygon fill="#2D2D2D" points="64.8,38.2 65.6,39 76.3,26.3 75.4,25.6 		"/>
		<path fill="#2D2D2D" d="M63.9,38.6L63.9,38.6l-0.2-0.2l-6,7.2l-2.5,3l1.9,1.7l1-0.4c0,0,0,0,0.1-0.1l0.5-1.2
			c0.2-0.5,0.5-1,0.8-1.4l5.7-7.3c0,0,0-0.1,0-0.2L65,39.6l0,0c0,0,0,0,0,0L63.9,38.6L63.9,38.6z"/>
		<path fill="#2D2D2D" d="M51.8,62.2h-2.9l-0.1,0.1l1.2,1C50.3,63.2,51,62.9,51.8,62.2z"/>
		<path fill="#2D2D2D" d="M67.8,56.3c0-0.1-0.2-0.2-0.3-0.2c-0.2,0-0.4,0-0.6,0.1c-2.3,0.3-7.3,0.9-11.2-1.7
			c0.2,0.3,0.3,0.6,0.3,0.9c0,0.5-0.2,1-0.6,1.3c0.4,0.3,0.6,0.8,0.6,1.3c0,0.6-0.3,1.1-0.8,1.4c3,1.5,8,3,13.5,1.1
			c0.2-0.1,0.3-0.2,0.2-0.4C68.6,59,68.1,57.2,67.8,56.3z"/>
		<path fill="#2D2D2D" d="M51,51.1h3.7c0.4,0,0.8,0.2,1.1,0.4l0.6-0.7l-2.2-1.9c-0.2-0.2-0.2-0.4,0-0.6l2.5-3l-1.3-1.1l-3.6,4.3
			c0,0,0,0.1,0,0.2c0.2,0.2,0.3,0.4,0.3,0.7c0,0.3-0.1,0.5-0.2,0.7L51,51.1z"/>
		<path fill="#2D2D2D" d="M46.4,62.2l-4.2-1l-0.1,0v0.1v0.9c0,0.3-0.2,0.6-0.4,0.7L41.4,65l2.5,2.2l3.8-5.1H46.4z"/>
		<path fill="#2D2D2D" d="M72.6,27.9C72.6,27.9,72.6,27.9,72.6,27.9l1.3-1.4l-1-0.8c-0.1-0.1-0.3-0.1-0.4,0l-0.3,0.4
			C72,26.2,72,26.3,72,26.4L72.6,27.9z"/>
	</g>
</g>
</svg>
