<?xml version="1.0" encoding="utf-8"?>
<!-- Generator: Adobe Illustrator 23.0.0, SVG Export Plug-In . SVG Version: 6.00 Build 0)  -->
<svg version="1.1" id="Layer_1" xmlns="http://www.w3.org/2000/svg" xmlns:xlink="http://www.w3.org/1999/xlink" x="0px" y="0px"
	 viewBox="0 0 128 128" enable-background="new 0 0 128 128" xml:space="preserve">
<g>
	<g>
		<linearGradient id="SVGID_1_" gradientUnits="userSpaceOnUse" x1="80.5606" y1="66.5535" x2="54.9944" y2="58.0314">
			<stop  offset="0" style="stop-color:#2D2D2D"/>
			<stop  offset="1" style="stop-color:#2D2D2D"/>
		</linearGradient>
		<path fill-rule="evenodd" clip-rule="evenodd" fill="url(#SVGID_1_)" d="M98.2,23.1C86.8,22.2,76,18.6,65.5,12.4h-0.1
			C54.9,18.6,44,22.2,32.7,23.1c-3.6,0.3-7,0.3-10.1,0l-3.7-0.5c-0.1,5.2-0.1,10.9,0.1,17.2c0.3,12.5,1.2,21.7,2.6,27.3
			c4.2,16.3,12.7,29.3,25.7,38.9c4,3,8.2,5.5,12.7,7.6c2.2,1,4,1.7,5.5,2.1h0.1c1.5-0.4,3.8-1.3,6.9-2.8c3.2-1.4,8.4-5.2,15.6-11.3
			c7.2-6.1,12.6-14.5,16.3-25.2c3.7-10.7,5.3-21,5-30.9c-0.3-9.9-0.4-17.4-0.2-22.4C105.3,23.3,101.7,23.3,98.2,23.1z M119.5,13.3
			c-0.2,6.3-0.2,15.5,0.2,27.7c0.4,12.2-1.6,24.9-6.1,38.2c-4.5,13.2-11.2,23.6-20.1,31.1c-8.8,7.5-15.3,12.2-19.2,14
			c-4,1.8-6.8,2.9-8.6,3.4h-0.1c-1.7-0.5-4-1.3-6.7-2.6c-5.5-2.5-10.7-5.6-15.7-9.3C27.3,104,16.7,88,11.6,67.8
			c-1.7-6.9-2.8-18.2-3.2-33.8c-0.2-7.7-0.2-14.7-0.1-21.3l4.6,0.6c4,0.4,8.1,0.4,12.5,0c13.9-1.1,27.4-5.5,40.4-13.2l0,0l0,0
			c13,7.7,26.4,12.1,40.4,13.2C110.5,13.8,114.9,13.8,119.5,13.3z"/>
		<path fill="#9C9C9C" d="M65.6,128C65.6,128,65.6,128,65.6,128c-1.8-0.5-4.1-1.4-6.8-2.6c-5.5-2.5-10.8-5.6-15.7-9.3
			C27.2,104.2,16.5,88,11.3,67.9C9.6,61,8.5,49.6,8.1,34.1C7.9,26.4,7.9,19.3,8,12.8c0-0.1,0-0.1,0.1-0.2c0.1,0,0.1-0.1,0.2-0.1
			l4.6,0.6c3.9,0.4,8.1,0.4,12.4,0C39.2,12.1,52.7,7.7,65.6,0C65.7,0,65.9,0,66,0.1c12.9,7.6,26.4,12,40.2,13.1
			c4.3,0.4,8.8,0.3,13.3-0.1c0.1,0,0.1,0,0.2,0.1c0.1,0,0.1,0.1,0.1,0.2c-0.2,6.3-0.2,15.6,0.2,27.7c0.4,12.2-1.6,25-6.1,38.2
			c-4.5,13.2-11.3,23.7-20.1,31.2c-8.8,7.5-15.3,12.3-19.3,14.1c-3.9,1.8-6.8,2.9-8.6,3.4C65.8,128,65.7,128,65.6,128
			C65.7,128,65.6,128,65.6,128z M8.5,13.1c-0.1,6.4-0.1,13.5,0.1,21c0.4,15.5,1.5,26.9,3.2,33.7c5.1,20,15.8,36.1,31.6,47.9
			c4.9,3.7,10.2,6.8,15.6,9.3c2.7,1.2,5,2.1,6.7,2.6c1.7-0.5,4.6-1.6,8.5-3.4c4-1.8,10.4-6.5,19.2-14c8.8-7.5,15.5-18,20-31
			c4.5-13.1,6.5-26,6.1-38.1c-0.4-11.9-0.5-21.2-0.2-27.4c-4.5,0.4-8.9,0.4-13.1,0.1C92.3,12.6,78.7,8.2,65.8,0.5
			c-13,7.6-26.6,12-40.4,13.1c-4.4,0.4-8.6,0.4-12.5,0L8.5,13.1z M65.4,115.9C65.4,115.9,65.4,115.9,65.4,115.9c-0.1,0-0.1,0-0.2,0
			c-1.4-0.4-3.3-1.1-5.5-2.1c-4.5-2-8.8-4.6-12.7-7.6c-12.9-9.6-21.6-22.8-25.8-39c-1.4-5.7-2.3-14.9-2.6-27.4
			c-0.2-6.3-0.2-12.1-0.1-17.3c0-0.1,0-0.1,0.1-0.2c0.1,0,0.1-0.1,0.2-0.1l3.7,0.5c3.1,0.3,6.5,0.3,10.1,0
			c11.2-0.9,22.2-4.5,32.6-10.7c0,0,0.1,0,0.1,0c0,0,0.1,0,0.2,0C76,18.3,87,21.9,98.2,22.8c3.5,0.3,7.1,0.2,10.8-0.1
			c0.1,0,0.1,0,0.2,0.1c0.1,0,0.1,0.1,0.1,0.2c-0.2,5-0.1,12.6,0.2,22.4c0.3,9.9-1.3,20.4-5,31c-3.7,10.7-9.2,19.2-16.3,25.3
			c-7.2,6.1-12.4,9.9-15.6,11.4C69.3,114.5,67,115.5,65.4,115.9C65.5,115.9,65.5,115.9,65.4,115.9z M19.1,22.8
			c-0.1,5.1-0.1,10.8,0.1,17c0.3,12.5,1.2,21.7,2.6,27.3c4.1,16.2,12.8,29.2,25.6,38.8c3.9,3,8.2,5.5,12.6,7.5c2.2,1,4,1.6,5.4,2
			c1.5-0.4,3.8-1.3,6.9-2.8c3.2-1.4,8.4-5.2,15.5-11.3c7.1-6,12.6-14.5,16.2-25.1c3.6-10.6,5.3-21,5-30.8
			c-0.3-9.7-0.4-17.1-0.2-22.2c-3.6,0.3-7.2,0.3-10.6,0.1c-11.3-0.9-22.2-4.5-32.7-10.7C55,18.8,44,22.4,32.7,23.3
			c-3.6,0.3-7,0.3-10.2,0L19.1,22.8z"/>
	</g>
	<g>
		
			<rect x="38.4" y="46.1" transform="matrix(0.8519 -0.5237 0.5237 0.8519 -19.3636 27.4812)" fill="#2D2D2D" width="1" height="3.7"/>
		<path fill="#2D2D2D" d="M68.1,31.3c-0.9,0-5.4,2-7.2,2.8c-1.5,0.7-5.2,3-8,4.7c-2.1,1.3-4.5,1.9-5.8,2.1c-0.6,0.1-1.1,0.3-1.6,0.6
			l-2,1.2l2.2,3.6c0.3-0.2,0.8-0.5,1.4-0.9c1.1-0.7,2.5-1.6,3.4-2.1c0.8-0.5,2.2-1.4,3.6-2.5c1.4-1,3-2.2,4.4-3.1
			c2.6-1.7,6.1-2.9,8.6-3.2c2.3-0.2,2.7-0.8,2.6-1.8C69.7,31.8,69.1,31.3,68.1,31.3z"/>
		
			<rect x="39.6" y="43.5" transform="matrix(0.8519 -0.5237 0.5237 0.8519 -17.933 28.8229)" fill="#2D2D2D" width="4.7" height="5.2"/>
		<path fill="#2D2D2D" d="M50.2,57.7c0-0.1,0.1-0.1,0.1-0.2c2.2-1.8,2.8-4.3,3-5L46,47.6l-4.4,2.7l0.7,7.4H50.2z"/>
		<path fill="#2D2D2D" d="M32.4,68.1h26.5c-0.9-1-1.4-2.8-1.4-4.9c0-2.1,0.6-3.9,1.4-4.9H32.4c-1,0-2.1,2-2.1,4.9
			C30.2,66.1,31.4,68.1,32.4,68.1z M44.1,66.7h-8.5c-0.2,0-0.4-0.2-0.4-0.4c0-0.2,0.2-0.4,0.4-0.4h8.5c0.2,0,0.4,0.2,0.4,0.4
			C44.5,66.6,44.3,66.7,44.1,66.7z M54.2,63.4c0,0.2-0.2,0.4-0.4,0.4h-10c-0.2,0-0.4-0.2-0.4-0.4s0.2-0.4,0.4-0.4h10
			C54,63,54.2,63.2,54.2,63.4z M33.6,60.3h12.7c0.2,0,0.4,0.2,0.4,0.4c0,0.2-0.2,0.4-0.4,0.4H33.6c-0.2,0-0.4-0.2-0.4-0.4
			C33.2,60.4,33.4,60.3,33.6,60.3z"/>
		<path fill="#2D2D2D" d="M60.5,61c-0.4,0-0.9,0.9-0.9,2.2c0,1.4,0.5,2.2,0.9,2.2s0.9-0.9,0.9-2.2C61.4,61.9,60.9,61,60.5,61z"/>
		<path fill="#2D2D2D" d="M60.3,58.4c-1,0-2.1,2-2.1,4.9c0,2.9,1.1,4.9,2.1,4.9c1,0,2.1-2,2.1-4.9C62.4,60.4,61.3,58.4,60.3,58.4z
			 M60.5,66.2c-0.9,0-1.6-1.3-1.6-3c0-1.7,0.7-3,1.6-3c0.9,0,1.6,1.3,1.6,3C62.2,65,61.5,66.2,60.5,66.2z"/>
		<path fill="#2D2D2D" d="M63,69c-1,0-2.1,2-2.1,4.9c0,2.9,1.1,4.9,2.1,4.9s2.1-2,2.1-4.9C65.1,71,64,69,63,69z M64.9,73.8
			c0,1.7-0.7,3-1.6,3s-1.6-1.3-1.6-3c0-1.7,0.7-3,1.6-3S64.9,72.1,64.9,73.8z"/>
		<path fill="#2D2D2D" d="M58.3,71.6c-0.4,0-0.9,0.9-0.9,2.2c0,1.4,0.5,2.2,0.9,2.2s0.9-0.9,0.9-2.2C59.2,72.5,58.6,71.6,58.3,71.6z
			"/>
		<path fill="#2D2D2D" d="M56.6,69H55H30.1c-1,0-2.1,2-2.1,4.9c0,2.9,1.1,4.9,2.1,4.9H55h1.5c-0.9-1-1.4-2.8-1.4-4.9
			C55.2,71.7,55.7,69.9,56.6,69z M37.3,74.5h-7.2c-0.2,0-0.4-0.2-0.4-0.4c0-0.2,0.2-0.4,0.4-0.4h7.2c0.2,0,0.4,0.2,0.4,0.4
			C37.7,74.3,37.6,74.5,37.3,74.5z M50.3,76.7h-3.2c-0.2,0-0.4-0.2-0.4-0.4c0-0.2,0.2-0.4,0.4-0.4h3.2c0.2,0,0.4,0.2,0.4,0.4
			C50.7,76.5,50.5,76.7,50.3,76.7z M52.6,72.2h-8.7c-0.2,0-0.4-0.2-0.4-0.4c0-0.2,0.2-0.4,0.4-0.4h8.7c0.2,0,0.4,0.2,0.4,0.4
			C52.9,72.1,52.8,72.2,52.6,72.2z"/>
		<path fill="#2D2D2D" d="M62.4,73.8c0,1.4,0.5,2.2,0.9,2.2s0.9-0.9,0.9-2.2c0-1.4-0.5-2.2-0.9-2.2S62.4,72.5,62.4,73.8z"/>
		<path fill="#2D2D2D" d="M58,69c-1,0-2.1,2-2.1,4.9c0,2.9,1.1,4.9,2.1,4.9c1,0,2.1-2,2.1-4.9C60.2,71,59,69,58,69z M58.3,76.8
			c-0.9,0-1.6-1.3-1.6-3c0-1.7,0.7-3,1.6-3s1.6,1.3,1.6,3C59.9,75.5,59.2,76.8,58.3,76.8z"/>
		<path fill="#2D2D2D" d="M59.5,78.7h2.1c-0.4-0.5-0.8-1.2-1-2C60.3,77.5,59.9,78.2,59.5,78.7z"/>
		<path fill="#2D2D2D" d="M60.5,71c0.2-0.9,0.6-1.6,1-2h-2.1C59.9,69.5,60.3,70.2,60.5,71z"/>
		<path fill="#2D2D2D" d="M76.7,59.1h23.4c0.9,0,1.8-1.8,1.8-4.3c0-2.5-1-4.3-1.8-4.3H76.7c0.7,0.9,1.2,2.4,1.2,4.3
			C77.9,56.7,77.5,58.2,76.7,59.1z M97.3,58h-7.5c-0.2,0-0.4-0.2-0.4-0.4s0.2-0.4,0.4-0.4h7.5c0.2,0,0.4,0.2,0.4,0.4
			S97.5,58,97.3,58z M87.8,52.1h11.3c0.2,0,0.4,0.2,0.4,0.4s-0.2,0.4-0.4,0.4H87.8c-0.2,0-0.4-0.2-0.4-0.4S87.6,52.1,87.8,52.1z
			 M81.1,54.5H90c0.2,0,0.4,0.2,0.4,0.4s-0.2,0.4-0.4,0.4h-8.9c-0.2,0-0.4-0.2-0.4-0.4S80.9,54.5,81.1,54.5z"/>
		<path fill="#2D2D2D" d="M77.3,59.9c-0.9,0-1.8,1.8-1.8,4.3c0,2.5,1,4.3,1.8,4.3s1.8-1.8,1.8-4.3C79.2,61.7,78.2,59.9,77.3,59.9z
			 M77.2,66.9c-0.8,0-1.4-1.1-1.4-2.5c0-1.4,0.6-2.5,1.4-2.5c0.8,0,1.4,1.1,1.4,2.5C78.6,65.8,78,66.9,77.2,66.9z"/>
		<path fill="#2D2D2D" d="M75.1,61.6c0.2-0.7,0.5-1.2,0.8-1.6h-1.7C74.6,60.4,74.9,60.9,75.1,61.6z"/>
		<path fill="#2D2D2D" d="M75.9,54.9c0-1-0.4-1.7-0.6-1.7s-0.6,0.6-0.6,1.7c0,1,0.4,1.7,0.6,1.7S75.9,55.9,75.9,54.9z"/>
		<path fill="#2D2D2D" d="M72.8,62.7c-0.2,0-0.6,0.7-0.6,1.7c0,1.1,0.4,1.7,0.6,1.7s0.6-0.7,0.6-1.7C73.4,63.4,73,62.7,72.8,62.7z"
			/>
		<path fill="#2D2D2D" d="M72.9,59.9c-0.9,0-1.8,1.8-1.8,4.3c0,2.5,1,4.3,1.8,4.3c0.9,0,1.8-1.8,1.8-4.3
			C74.8,61.7,73.8,59.9,72.9,59.9z M72.8,66.9c-0.8,0-1.4-1.1-1.4-2.5c0-1.4,0.6-2.5,1.4-2.5c0.8,0,1.4,1.1,1.4,2.5
			C74.2,65.8,73.6,66.9,72.8,66.9z"/>
		<path fill="#2D2D2D" d="M77.2,62.7c-0.2,0-0.6,0.7-0.6,1.7c0,1.1,0.4,1.7,0.6,1.7s0.6-0.7,0.6-1.7C77.9,63.4,77.5,62.7,77.2,62.7z
			"/>
		<path fill="#2D2D2D" d="M74.3,68.5H76c-0.3-0.4-0.6-1-0.8-1.6C74.9,67.5,74.6,68.1,74.3,68.5z"/>
		<path fill="#2D2D2D" d="M102.2,59.9H80h-1.3c0.7,0.9,1.2,2.4,1.2,4.3c0,1.8-0.5,3.4-1.2,4.3H80h22.2c0.9,0,1.8-1.8,1.8-4.3
			C104,61.7,103,59.9,102.2,59.9z M87.1,66.8h-2.9c-0.2,0-0.4-0.2-0.4-0.4c0-0.2,0.2-0.4,0.4-0.4h2.9c0.2,0,0.4,0.2,0.4,0.4
			C87.5,66.6,87.3,66.8,87.1,66.8z M90,62.8h-7.8c-0.2,0-0.4-0.2-0.4-0.4s0.2-0.4,0.4-0.4H90c0.2,0,0.4,0.2,0.4,0.4
			S90.2,62.8,90,62.8z M102.2,64.8h-6.4c-0.2,0-0.4-0.2-0.4-0.4c0-0.2,0.2-0.4,0.4-0.4h6.4c0.2,0,0.4,0.2,0.4,0.4
			C102.5,64.7,102.4,64.8,102.2,64.8z"/>
		<path fill="#2D2D2D" d="M75.4,59.1c0.9,0,1.8-1.8,1.8-4.3c0-2.5-1-4.3-1.8-4.3s-1.8,1.8-1.8,4.3C73.5,57.3,74.5,59.1,75.4,59.1z
			 M73.9,54.9c0-1.4,0.6-2.4,1.4-2.4s1.4,1,1.4,2.4c0,1.4-0.6,2.4-1.4,2.4S73.9,56.3,73.9,54.9z"/>
	</g>
</g>
</svg>
