<?xml version="1.0" encoding="utf-8"?>
<!-- Generator: Adobe Illustrator 23.0.0, SVG Export Plug-In . SVG Version: 6.00 Build 0)  -->
<svg version="1.1" baseProfile="tiny" id="Layer_1" xmlns="http://www.w3.org/2000/svg" xmlns:xlink="http://www.w3.org/1999/xlink"
	 x="0px" y="0px" viewBox="0 0 128 128" xml:space="preserve">
<g>
	<g>
		<linearGradient id="SVGID_1_" gradientUnits="userSpaceOnUse" x1="80.5606" y1="66.5535" x2="54.9944" y2="58.0314">
			<stop  offset="0" style="stop-color:#2D2D2D"/>
			<stop  offset="1" style="stop-color:#2D2D2D"/>
		</linearGradient>
		<path fill-rule="evenodd" fill="url(#SVGID_1_)" d="M98.2,23.1C86.8,22.2,76,18.6,65.5,12.4h-0.1C54.9,18.6,44,22.2,32.7,23.1
			c-3.6,0.3-7,0.3-10.1,0l-3.7-0.5c-0.1,5.2-0.1,10.9,0.1,17.2c0.3,12.5,1.2,21.7,2.6,27.3c4.2,16.3,12.7,29.3,25.7,38.9
			c4,3,8.2,5.5,12.7,7.6c2.2,1,4,1.7,5.5,2.1h0.1c1.5-0.4,3.8-1.3,6.9-2.8c3.2-1.4,8.4-5.2,15.6-11.3c7.2-6.1,12.6-14.5,16.3-25.2
			c3.7-10.7,5.3-21,5-30.9c-0.3-9.9-0.4-17.4-0.2-22.4C105.3,23.3,101.7,23.3,98.2,23.1z M119.5,13.3c-0.2,6.3-0.2,15.5,0.2,27.7
			c0.4,12.2-1.6,24.9-6.1,38.2c-4.5,13.2-11.2,23.6-20.1,31.1c-8.8,7.5-15.3,12.2-19.2,14c-4,1.8-6.8,2.9-8.6,3.4h-0.1
			c-1.7-0.5-4-1.3-6.7-2.6c-5.5-2.5-10.7-5.6-15.7-9.3C27.3,104,16.7,88,11.6,67.8c-1.7-6.9-2.8-18.2-3.2-33.8
			c-0.2-7.7-0.2-14.7-0.1-21.3l4.6,0.6c4,0.4,8.1,0.4,12.5,0c13.9-1.1,27.4-5.5,40.4-13.2l0,0l0,0c13,7.7,26.4,12.1,40.4,13.2
			C110.5,13.8,114.9,13.8,119.5,13.3z"/>
		<path fill="#9C9C9C" d="M65.6,128C65.6,128,65.6,128,65.6,128c-1.8-0.5-4.1-1.4-6.8-2.6c-5.5-2.5-10.8-5.6-15.7-9.3
			C27.2,104.2,16.5,88,11.3,67.9C9.6,61,8.5,49.6,8.1,34.1C7.9,26.4,7.9,19.3,8,12.8c0-0.1,0-0.1,0.1-0.2c0.1,0,0.1-0.1,0.2-0.1
			l4.6,0.6c3.9,0.4,8.1,0.4,12.4,0C39.2,12.1,52.7,7.7,65.6,0C65.7,0,65.9,0,66,0.1c12.9,7.6,26.4,12,40.2,13.1
			c4.3,0.4,8.8,0.3,13.3-0.1c0.1,0,0.1,0,0.2,0.1c0.1,0,0.1,0.1,0.1,0.2c-0.2,6.3-0.2,15.6,0.2,27.7c0.4,12.2-1.6,25-6.1,38.2
			c-4.5,13.2-11.3,23.7-20.1,31.2c-8.8,7.5-15.3,12.3-19.3,14.1c-3.9,1.8-6.8,2.9-8.6,3.4C65.8,128,65.7,128,65.6,128
			C65.7,128,65.6,128,65.6,128z M8.5,13.1c-0.1,6.4-0.1,13.5,0.1,21c0.4,15.5,1.5,26.9,3.2,33.7c5.1,20,15.8,36.1,31.6,47.9
			c4.9,3.7,10.2,6.8,15.6,9.3c2.7,1.2,5,2.1,6.7,2.6c1.7-0.5,4.6-1.6,8.5-3.4c4-1.8,10.4-6.5,19.2-14c8.8-7.5,15.5-18,20-31
			c4.5-13.1,6.5-26,6.1-38.1c-0.4-11.9-0.5-21.2-0.2-27.4c-4.5,0.4-8.9,0.4-13.1,0.1C92.3,12.6,78.7,8.2,65.8,0.5
			c-13,7.6-26.6,12-40.4,13.1c-4.4,0.4-8.6,0.4-12.5,0L8.5,13.1z M65.4,115.9C65.4,115.9,65.4,115.9,65.4,115.9c-0.1,0-0.1,0-0.2,0
			c-1.4-0.4-3.3-1.1-5.5-2.1c-4.5-2-8.8-4.6-12.7-7.6c-12.9-9.6-21.6-22.8-25.8-39c-1.4-5.7-2.3-14.9-2.6-27.4
			c-0.2-6.3-0.2-12.1-0.1-17.3c0-0.1,0-0.1,0.1-0.2c0.1,0,0.1-0.1,0.2-0.1l3.7,0.5c3.1,0.3,6.5,0.3,10.1,0
			c11.2-0.9,22.2-4.5,32.6-10.7c0,0,0.1,0,0.1,0c0,0,0.1,0,0.2,0C76,18.3,87,21.9,98.2,22.8c3.5,0.3,7.1,0.2,10.8-0.1
			c0.1,0,0.1,0,0.2,0.1c0.1,0,0.1,0.1,0.1,0.2c-0.2,5-0.1,12.6,0.2,22.4c0.3,9.9-1.3,20.4-5,31c-3.7,10.7-9.2,19.2-16.3,25.3
			c-7.2,6.1-12.4,9.9-15.6,11.4C69.3,114.5,67,115.5,65.4,115.9C65.5,115.9,65.5,115.9,65.4,115.9z M19.1,22.8
			c-0.1,5.1-0.1,10.8,0.1,17c0.3,12.5,1.2,21.7,2.6,27.3c4.1,16.2,12.8,29.2,25.6,38.8c3.9,3,8.2,5.5,12.6,7.5c2.2,1,4,1.6,5.4,2
			c1.5-0.4,3.8-1.3,6.9-2.8c3.2-1.4,8.4-5.2,15.5-11.3c7.1-6,12.6-14.5,16.2-25.1c3.6-10.6,5.3-21,5-30.8
			c-0.3-9.7-0.4-17.1-0.2-22.2c-3.6,0.3-7.2,0.3-10.6,0.1c-11.3-0.9-22.2-4.5-32.7-10.7C55,18.8,44,22.4,32.7,23.3
			c-3.6,0.3-7,0.3-10.2,0L19.1,22.8z"/>
	</g>
	<g>
		<path fill="#2D2D2D" d="M76.5,44.4c-5.1-3.2-11.3-1.7-11.4-1.7c0,0,0,0,0,0c0,0-0.1,0-0.1,0c0,0-0.1,0-0.1,0c0,0,0,0,0,0
			c-0.1,0-6.2-1.5-11.4,1.7c-3.3,2-5.5,5.5-6.5,10.3c-0.4,1.8,0.1,3.6,1.4,4.9c1.8,1.8,3.8,3.9,4.7,4.9c1.1-2.1,2.8-3.2,2.8-3.2
			c0.3-0.2,0.6-0.1,0.8,0.2c0.2,0.3,0.1,0.6-0.2,0.8c-0.3,0.2-6.4,4.2-1.4,12.6c0.4,0.6,1.2,0.9,1.9,0.7l6-2.1
			c0.3-0.1,0.7-0.2,1-0.3l-2.7-3.5c-0.3-0.4-0.3-0.8-0.1-1.2c0.2-0.4,0.6-0.7,1.1-0.7h5.5c0.5,0,0.9,0.3,1.1,0.7
			c0.2,0.4,0.2,0.9-0.1,1.2L66,73.2c0.3,0.1,0.7,0.1,1,0.3c1.7,0.6,4.3,1.5,6,2.1c0.7,0.2,1.5,0,1.9-0.7c5.1-8.4-1.1-12.4-1.4-12.6
			c-0.3-0.2-0.3-0.5-0.2-0.8c0.2-0.3,0.5-0.3,0.8-0.2c0,0,1.7,1.1,2.8,3.2c0.9-0.9,3-3,4.7-4.9c1.3-1.3,1.8-3.2,1.4-4.9
			C82,49.9,79.8,46.5,76.5,44.4z M58.9,56c-0.9,0-1.7-0.7-1.7-1.7c0-0.9,0.7-1.7,1.7-1.7c0.9,0,1.7,0.7,1.7,1.7
			C60.5,55.3,59.8,56,58.9,56z M61.6,51.5C61.6,51.5,61.6,51.5,61.6,51.5c0,0-0.6,0.2-1.3,0.1c-0.4,0-0.8,0-1.2-0.1
			c-0.4-0.1-0.9-0.3-1.4-0.4c-1.9-0.6-3.7-1.2-3.7-1.2c0,0,0,0,0-0.1c0,0,0,0,0.1,0c0,0,1.9,0.2,3.9,0.5c0.5,0.1,1,0.1,1.4,0.2
			c0.4,0.1,0.8,0.3,1.2,0.4C61.2,51.1,61.6,51.4,61.6,51.5C61.6,51.5,61.6,51.5,61.6,51.5z M71.1,56c-0.9,0-1.7-0.7-1.7-1.7
			c0-0.9,0.7-1.7,1.7-1.7c0.9,0,1.7,0.7,1.7,1.7C72.8,55.3,72,56,71.1,56z M75.7,49.8c0,0-1.8,0.7-3.7,1.2c-0.5,0.1-0.9,0.3-1.4,0.4
			c-0.4,0.1-0.9,0.1-1.2,0.1c-0.7,0-1.3-0.1-1.3-0.1c0,0-0.1,0,0-0.1c0,0,0,0,0,0c0,0,0.4-0.4,1.1-0.6c0.3-0.2,0.7-0.3,1.2-0.4
			c0.4-0.1,0.9-0.1,1.4-0.2c1.9-0.3,3.9-0.5,3.9-0.5C75.7,49.7,75.8,49.7,75.7,49.8C75.8,49.8,75.8,49.8,75.7,49.8z"/>
		<path fill="#2D2D2D" d="M52.9,43.5c0.3-0.2,0.5-0.3,0.8-0.4c0,0,0-0.1-0.1-0.1c-0.8-1.3-3-5.4-6.2-6.4c-0.1,0-0.2,0-0.3,0
			c-0.1,0-0.2,0.1-0.2,0.2c-0.2,0.8-2.1,8,1,12.2C49.1,46.6,50.8,44.8,52.9,43.5z"/>
		<path fill="#2D2D2D" d="M63.3,74.5l-5,1.8l0.6,2c0.3,1,1.3,1.5,2.2,1.3c1.1-0.3,2.1-0.4,3.1-0.4c1.1,0,2.4,0.2,3.9,0.5
			c1,0.2,2-0.4,2.3-1.4l0.6-2.2c-1.5-0.5-3.1-1.1-4.4-1.6C65.6,74.2,64.4,74.1,63.3,74.5z"/>
		<path fill="#2D2D2D" d="M89.2,40.9c0.2-0.3,0.6-0.5,1-0.4c0.9,0.3,2.4,0.7,3.5,1C86.7,30,75.8,29.1,65,29.9c0,0,0,0,0,0
			c0,0,0,0,0,0C54.2,29.1,43.3,30,36.3,41.5c1.1-0.3,2.6-0.7,3.5-1c0.4-0.1,0.8,0,1,0.4c0.2,0.3,0.2,0.7-0.1,1
			c-3.8,4.3-15,19.2-2.2,35.4c0.2-5.8,1.2-11.2,2.1-15c0.1-0.4,0.5-0.7,1-0.7c0.4,0.1,0.8,0.5,0.7,0.9c-0.5,7-0.6,23.9,9.7,31
			c0.4-3.2,1-6.9,1.3-8.9c0.1-0.4,0.4-0.7,0.8-0.7c0.4,0,0.8,0.2,0.9,0.5C56,87.4,59.2,94.6,65,99.7c5.8-5.1,9-12.3,10.1-15.2
			c0.1-0.4,0.5-0.6,0.9-0.5c0.4,0,0.7,0.3,0.8,0.7c0.2,1.6,0.8,5.6,1.3,8.9c10.3-7.1,10.2-23.9,9.7-31c0-0.5,0.3-0.8,0.7-0.9
			c0.5-0.1,0.9,0.2,1,0.7c0.9,3.7,1.9,9.2,2.1,15c12.9-16.2,1.7-31.1-2.2-35.4C89.1,41.6,89,41.2,89.2,40.9z M70.1,82.7
			C70.1,82.7,70.1,82.7,70.1,82.7C70.1,82.7,70.1,82.7,70.1,82.7z M84.1,54.5c0.5,2.1-0.2,4.4-1.7,5.9c-2,2.1-4.3,4.5-5,5.2
			c0.9,2.3,1,5.6-1.6,9.8c-0.5,0.8-1.4,1.3-2.3,1.3c-0.3,0-0.6,0-0.9-0.2c-0.2-0.1-0.3-0.1-0.5-0.2l-0.5,2.1
			c-0.3,1.3-1.6,2.3-2.9,2.3c-0.2,0-0.5,0-0.7-0.1c-1.4-0.3-2.6-0.5-3.6-0.5c-0.9,0-1.8,0.1-2.8,0.4c-1.5,0.4-3.1-0.5-3.6-2l-0.6-2
			c-1.2,0.4-2.5-0.1-3.1-1.2c-2.5-4.2-2.4-7.5-1.6-9.8c-0.7-0.7-3-3.1-5-5.2c-1.5-1.6-2.1-3.8-1.7-5.9c0.4-1.6,0.8-3.1,1.4-4.4
			c-3.8-4.6-1.7-12.7-1.5-13.6c0.1-0.4,0.4-0.7,0.7-0.9c0.4-0.2,0.8-0.2,1.2-0.1c3.6,1.1,6,5.4,6.8,6.9c0,0.1,0.1,0.1,0.1,0.2
			c4.7-2,9.4-1.1,10.3-0.9c0.9-0.2,5.6-1.1,10.3,0.9c0,0,0.1-0.1,0.1-0.2c0.8-1.4,3.3-5.8,6.8-6.9c0.4-0.1,0.8-0.1,1.2,0.1
			c0.4,0.2,0.6,0.5,0.7,0.9c0.4,1.5,2.3,9.2-1.4,13.6C83.3,51.4,83.7,52.9,84.1,54.5z"/>
		<path fill="#2D2D2D" d="M82.8,36.6c-0.1-0.1-0.2-0.1-0.3,0c-3.2,1-5.5,5-6.2,6.4c0,0,0,0.1-0.1,0.1c0.3,0.1,0.6,0.3,0.8,0.5
			c2.1,1.3,3.8,3.2,5,5.5c3-4.2,1.1-11.3,0.9-12.2C83,36.7,82.9,36.6,82.8,36.6z"/>
		<path fill="#2D2D2D" d="M67.8,69C67.8,69,67.8,69,67.8,69c0-0.1,0-0.1-0.1-0.1h-5.5c0,0,0,0-0.1,0s0,0.1,0,0.1l2.8,3.7
			c0,0,0,0,0,0L67.8,69z"/>
		<path fill="none" stroke="#E08C34" stroke-width="0" stroke-linecap="round" stroke-linejoin="round" d="M70.1,82.7
			C70.1,82.7,70.1,82.7,70.1,82.7"/>
	</g>
</g>
</svg>
