<?xml version="1.0" encoding="utf-8"?>
<!-- Generator: Adobe Illustrator 23.0.0, SVG Export Plug-In . SVG Version: 6.00 Build 0)  -->
<svg version="1.1" id="Layer_1" xmlns="http://www.w3.org/2000/svg" xmlns:xlink="http://www.w3.org/1999/xlink" x="0px" y="0px"
	 viewBox="0 0 128 128" enable-background="new 0 0 128 128" xml:space="preserve">
<g>
	<g>
		<linearGradient id="SVGID_1_" gradientUnits="userSpaceOnUse" x1="80.5606" y1="66.5535" x2="54.9944" y2="58.0314">
			<stop  offset="0" style="stop-color:#2D2D2D"/>
			<stop  offset="1" style="stop-color:#2D2D2D"/>
		</linearGradient>
		<path fill-rule="evenodd" clip-rule="evenodd" fill="url(#SVGID_1_)" d="M98.2,23.1C86.8,22.2,76,18.6,65.5,12.4h-0.1
			C54.9,18.6,44,22.2,32.7,23.1c-3.6,0.3-7,0.3-10.1,0l-3.7-0.5c-0.1,5.2-0.1,10.9,0.1,17.2c0.3,12.5,1.2,21.7,2.6,27.3
			c4.2,16.3,12.7,29.3,25.7,38.9c4,3,8.2,5.5,12.7,7.6c2.2,1,4,1.7,5.5,2.1h0.1c1.5-0.4,3.8-1.3,6.9-2.8c3.2-1.4,8.4-5.2,15.6-11.3
			c7.2-6.1,12.6-14.5,16.3-25.2c3.7-10.7,5.3-21,5-30.9c-0.3-9.9-0.4-17.4-0.2-22.4C105.3,23.3,101.7,23.3,98.2,23.1z M119.5,13.3
			c-0.2,6.3-0.2,15.5,0.2,27.7c0.4,12.2-1.6,24.9-6.1,38.2c-4.5,13.2-11.2,23.6-20.1,31.1c-8.8,7.5-15.3,12.2-19.2,14
			c-4,1.8-6.8,2.9-8.6,3.4h-0.1c-1.7-0.5-4-1.3-6.7-2.6c-5.5-2.5-10.7-5.6-15.7-9.3C27.3,104,16.7,88,11.6,67.8
			c-1.7-6.9-2.8-18.2-3.2-33.8c-0.2-7.7-0.2-14.7-0.1-21.3l4.6,0.6c4,0.4,8.1,0.4,12.5,0c13.9-1.1,27.4-5.5,40.4-13.2l0,0l0,0
			c13,7.7,26.4,12.1,40.4,13.2C110.5,13.8,114.9,13.8,119.5,13.3z"/>
		<path fill="#9C9C9C" d="M65.6,128C65.6,128,65.6,128,65.6,128c-1.8-0.5-4.1-1.4-6.8-2.6c-5.5-2.5-10.8-5.6-15.7-9.3
			C27.2,104.2,16.5,88,11.3,67.9C9.6,61,8.5,49.6,8.1,34.1C7.9,26.4,7.9,19.3,8,12.8c0-0.1,0-0.1,0.1-0.2c0.1,0,0.1-0.1,0.2-0.1
			l4.6,0.6c3.9,0.4,8.1,0.4,12.4,0C39.2,12.1,52.7,7.7,65.6,0C65.7,0,65.9,0,66,0.1c12.9,7.6,26.4,12,40.2,13.1
			c4.3,0.4,8.8,0.3,13.3-0.1c0.1,0,0.1,0,0.2,0.1c0.1,0,0.1,0.1,0.1,0.2c-0.2,6.3-0.2,15.6,0.2,27.7c0.4,12.2-1.6,25-6.1,38.2
			c-4.5,13.2-11.3,23.7-20.1,31.2c-8.8,7.5-15.3,12.3-19.3,14.1c-3.9,1.8-6.8,2.9-8.6,3.4C65.8,128,65.7,128,65.6,128
			C65.7,128,65.6,128,65.6,128z M8.5,13.1c-0.1,6.4-0.1,13.5,0.1,21c0.4,15.5,1.5,26.9,3.2,33.7c5.1,20,15.8,36.1,31.6,47.9
			c4.9,3.7,10.2,6.8,15.6,9.3c2.7,1.2,5,2.1,6.7,2.6c1.7-0.5,4.6-1.6,8.5-3.4c4-1.8,10.4-6.5,19.2-14c8.8-7.5,15.5-18,20-31
			c4.5-13.1,6.5-26,6.1-38.1c-0.4-11.9-0.5-21.2-0.2-27.4c-4.5,0.4-8.9,0.4-13.1,0.1C92.3,12.6,78.7,8.2,65.8,0.5
			c-13,7.6-26.6,12-40.4,13.1c-4.4,0.4-8.6,0.4-12.5,0L8.5,13.1z M65.4,115.9C65.4,115.9,65.4,115.9,65.4,115.9c-0.1,0-0.1,0-0.2,0
			c-1.4-0.4-3.3-1.1-5.5-2.1c-4.5-2-8.8-4.6-12.7-7.6c-12.9-9.6-21.6-22.8-25.8-39c-1.4-5.7-2.3-14.9-2.6-27.4
			c-0.2-6.3-0.2-12.1-0.1-17.3c0-0.1,0-0.1,0.1-0.2c0.1,0,0.1-0.1,0.2-0.1l3.7,0.5c3.1,0.3,6.5,0.3,10.1,0
			c11.2-0.9,22.2-4.5,32.6-10.7c0,0,0.1,0,0.1,0c0,0,0.1,0,0.2,0C76,18.3,87,21.9,98.2,22.8c3.5,0.3,7.1,0.2,10.8-0.1
			c0.1,0,0.1,0,0.2,0.1c0.1,0,0.1,0.1,0.1,0.2c-0.2,5-0.1,12.6,0.2,22.4c0.3,9.9-1.3,20.4-5,31c-3.7,10.7-9.2,19.2-16.3,25.3
			c-7.2,6.1-12.4,9.9-15.6,11.4C69.3,114.5,67,115.5,65.4,115.9C65.5,115.9,65.5,115.9,65.4,115.9z M19.1,22.8
			c-0.1,5.1-0.1,10.8,0.1,17c0.3,12.5,1.2,21.7,2.6,27.3c4.1,16.2,12.8,29.2,25.6,38.8c3.9,3,8.2,5.5,12.6,7.5c2.2,1,4,1.6,5.4,2
			c1.5-0.4,3.8-1.3,6.9-2.8c3.2-1.4,8.4-5.2,15.5-11.3c7.1-6,12.6-14.5,16.2-25.1c3.6-10.6,5.3-21,5-30.8
			c-0.3-9.7-0.4-17.1-0.2-22.2c-3.6,0.3-7.2,0.3-10.6,0.1c-11.3-0.9-22.2-4.5-32.7-10.7C55,18.8,44,22.4,32.7,23.3
			c-3.6,0.3-7,0.3-10.2,0L19.1,22.8z"/>
	</g>
	<g>
		<g>
			<path fill="#2D2D2D" d="M49.5,61.5l0.3-0.3l0.1-0.1c0.4-0.3,0.6-0.8,0.6-1.3c0-0.5-0.2-1-0.5-1.4c-0.4-0.5-0.9-0.7-1.5-0.7
				c-0.5,0-1.1,0.2-1.5,0.6l-0.1,0.1c0,0,0,0,0,0l-2,1.7c-0.1,0.1-0.2,0.3-0.3,0.5c-0.1,0.5-0.4,2.8-2.1,4.4c-0.9,0.9-1.7,1.2-2.3,1
				c-0.3-0.1-0.5,0-0.7,0.1L28.4,76.4l5.3,6l8.9-11.2c0.2-0.3,0.5-0.5,0.8-0.6c0.4-0.1,0.9-0.3,1.5-0.4c0.5-0.2,0.9-0.7,0.8-1.3
				c-0.1-0.5-0.1-1.1,0-1.7c0.3-1.7,1.1-3.3,2.4-4.5L49.5,61.5C49.5,61.5,49.5,61.5,49.5,61.5z"/>
			<path fill="#2D2D2D" d="M56.9,53.4c-0.4-0.2-0.8-0.1-1.1,0.2l-2.1,1.8c-0.2,0.2-0.5,0.3-0.7,0.2c-0.3,0-0.5-0.1-0.7-0.4l-0.8-0.9
				l-2.8,2.5c0.8,0.1,1.5,0.4,2,1c0.5,0.6,0.7,1.3,0.7,2l5.6-4.9c0.3-0.2,0.4-0.6,0.4-0.9C57.3,53.8,57.2,53.5,56.9,53.4z"/>
			<path fill="#2D2D2D" d="M52,60.5l-1.6,1.4l0,0l0.5,0.1c0.2,0.1,0.4,0.3,0.3,0.6c0,0.2-0.2,0.4-0.4,0.4c0,0-0.1,0-0.1,0l-1.2-0.3
				l-0.8,0.8c0,0-0.1,0.1-0.1,0.1c1.6,1.1,2.1,0.8,2.9-0.2c0.6-0.7,0.9-1.5,0.8-2.3C52.3,61,52.2,60.7,52,60.5z"/>
			<path fill="#2D2D2D" d="M57.1,52.5c0.1,0,0.2,0.1,0.3,0.1c0.5,0.3,0.8,0.7,0.9,1.2l7.6-6.6c0.8-0.7,1.3-1.3,1.4-1.9
				c0.1-0.5,0-0.9-0.3-1.4L57.1,52.5z"/>
			<path fill="#2D2D2D" d="M84.7,25.2L52.2,53.8l0.8,0.9c0,0,0.1,0,0.1,0l2.1-1.8c0,0,0,0,0,0c0,0,0,0,0,0l12-10.5c0,0,0,0,0,0
				l18.3-16.1L84.7,25.2z"/>
		</g>
		<rect x="73.1" y="73.6" fill="#2D2D2D" width="6.1" height="3.5"/>
		<rect x="73.9" y="77.6" fill="#2D2D2D" width="4.5" height="5.2"/>
		<rect x="65.7" y="67.9" fill="#2D2D2D" width="5.3" height="0.4"/>
		<rect x="73.9" y="68.7" fill="#2D2D2D" width="4.5" height="2.8"/>
		<rect x="73.9" y="72" fill="#2D2D2D" width="4.5" height="1.1"/>
		<rect x="81.8" y="68.7" fill="#2D2D2D" width="4.5" height="2.8"/>
		<rect x="81" y="73.6" fill="#2D2D2D" width="6.1" height="3.5"/>
		<rect x="81.8" y="77.6" fill="#2D2D2D" width="4.5" height="5.2"/>
		<rect x="73.6" y="67.9" fill="#2D2D2D" width="5.3" height="0.4"/>
		<rect x="66" y="68.7" fill="#2D2D2D" width="4.5" height="2.8"/>
		<rect x="86.2" y="65.3" fill="#2D2D2D" width="0.7" height="1"/>
		<rect x="83.8" y="57.1" fill="#2D2D2D" width="2.5" height="1.6"/>
		<polygon fill="#2D2D2D" points="86.4,59.2 83.7,59.2 83.4,60.1 86.8,60.1 		"/>
		<rect x="65.2" y="73.6" fill="#2D2D2D" width="6.1" height="3.5"/>
		<rect x="61.1" y="69.8" fill="#2D2D2D" width="1.7" height="7.7"/>
		<path fill="#2D2D2D" d="M86.3,55.1c0-0.9-0.9-3.7-1.3-4.5c-0.4,0.8-1.3,3.6-1.3,4.5v1.6h2.5V55.1z"/>
		<path fill="#2D2D2D" d="M84.2,64.8c0.2,0,0.5,0.2,0.5,0.5v1h1v-1c0-0.3,0.2-0.5,0.5-0.5h0.8v-4.2h-3.6l0,4.2H84.2z"/>
		<rect x="81.2" y="63.1" fill="#2D2D2D" width="1.6" height="3.2"/>
		<rect x="81.8" y="72" fill="#2D2D2D" width="4.5" height="1.1"/>
		<rect x="66" y="77.6" fill="#2D2D2D" width="4.5" height="5.2"/>
		<rect x="83.3" y="65.3" fill="#2D2D2D" width="0.8" height="1"/>
		<rect x="66" y="72" fill="#2D2D2D" width="4.5" height="1.1"/>
		<path fill="#2D2D2D" d="M96.6,64.8c0.2,0,0.5,0.2,0.5,0.5v2.9c0,0.3-0.2,0.5-0.5,0.5h-0.8l0,1.9l0,0c0,0,0,0,0,0l0,2.6
			c0,0,0,0,0,0.1h3.6v-4.5h-0.8c-0.2,0-0.5-0.2-0.5-0.5v-2.9c0-0.3,0.2-0.5,0.5-0.5h0.8v-4.2h-3.6l0,4.2H96.6z"/>
		<polygon fill="#2D2D2D" points="98.9,59.2 96.1,59.2 95.9,60.1 99.2,60.1 		"/>
		<rect x="98.6" y="65.3" fill="#2D2D2D" width="0.7" height="2.7"/>
		<path fill="#2D2D2D" d="M98.7,55.1c0-0.9-0.9-3.7-1.3-4.5c-0.4,0.8-1.3,3.6-1.3,4.5v1.6h2.5V55.1z"/>
		<rect x="96.2" y="57.1" fill="#2D2D2D" width="2.5" height="1.6"/>
		<path fill="#2D2D2D" d="M99.1,74.1c0-0.1-0.1-0.2-0.1-0.3c0-0.1,0-0.2,0-0.2H96c0,0.1,0,0.1,0,0.2c0,0.1,0,0.2-0.1,0.3H99.1z"/>
		<rect x="81.5" y="67.9" fill="#2D2D2D" width="5.3" height="0.4"/>
		<rect x="93.7" y="63.1" fill="#2D2D2D" width="1.6" height="7.1"/>
		<rect x="99.8" y="63.1" fill="#2D2D2D" width="1.6" height="7.1"/>
		<rect x="95.6" y="74.6" fill="#2D2D2D" width="3.8" height="0.4"/>
		<rect x="95.8" y="65.3" fill="#2D2D2D" width="0.8" height="2.7"/>
		<path fill="#2D2D2D" d="M91.9,73.6v0.5H93c0-0.1-0.1-0.2-0.1-0.3c0-0.1,0-0.2,0-0.2H91.9z"/>
		<path fill="#2D2D2D" d="M92.6,55.1c0-0.9-0.9-3.7-1.3-4.5C90.9,51.4,90,54.1,90,55v1.6h2.5V55.1z"/>
		<polygon fill="#2D2D2D" points="92.7,59.2 90,59.2 89.7,60.1 93,60.1 		"/>
		<rect x="87.4" y="63.1" fill="#2D2D2D" width="1.7" height="3.2"/>
		<rect x="90" y="57.1" fill="#2D2D2D" width="2.5" height="1.6"/>
		<path fill="#2D2D2D" d="M63.3,80.5h2.2v-2.9h-0.3c-0.3,0-0.5-0.2-0.5-0.5v-3.5c0-0.3,0.2-0.5,0.5-0.5h0.3v-4.4
			c-0.2-0.1-0.4-0.3-0.4-0.5v-0.9h6.3v0.9c0,0.2-0.2,0.4-0.4,0.5v4.4h0.3c0.3,0,0.5,0.2,0.5,0.5v3.5c0,0.3-0.2,0.5-0.5,0.5h-0.3v2.9
			h2.3v-2.9h-0.3c-0.3,0-0.5-0.2-0.5-0.5v-3.5c0-0.3,0.2-0.5,0.5-0.5h0.3v-4.4c-0.2-0.1-0.4-0.3-0.4-0.5v-0.9h6.3v0.9
			c0,0.2-0.2,0.4-0.4,0.5v4.4h0.3c0.3,0,0.5,0.2,0.5,0.5v3.5c0,0.3-0.2,0.5-0.5,0.5H79v2.9h2.3v-2.9H81c-0.3,0-0.5-0.2-0.5-0.5v-3.5
			c0-0.3,0.2-0.5,0.5-0.5h0.3v-4.4c-0.2-0.1-0.4-0.3-0.4-0.5v-0.9h6.3v0.9c0,0.2-0.2,0.4-0.4,0.5v4.4h0.3c0.3,0,0.5,0.2,0.5,0.5v3.5
			c0,0.3-0.2,0.5-0.5,0.5h-0.3v2.9h2.2V66.8H63.3V80.5z"/>
		<rect x="91.9" y="74.6" fill="#2D2D2D" width="1.4" height="0.4"/>
		<rect x="89.6" y="69.8" fill="#2D2D2D" width="1.8" height="7.7"/>
		<path fill="#2D2D2D" d="M91.9,73h1.3v-4.5h-0.8c-0.2,0-0.5-0.2-0.5-0.5v-2.9c0-0.3,0.2-0.5,0.5-0.5h0.8v-4.2h-3.6l0,4.2h0.8
			c0.2,0,0.5,0.2,0.5,0.5v2.9c0,0.3-0.2,0.5-0.5,0.5h-0.8v0.7h1.8c0.3,0,0.5,0.2,0.5,0.5V73z"/>
		<path fill="#2D2D2D" d="M89.6,68h0.8v-2.7h-0.8l0,1.4c0,0,0,0,0,0c0,0,0,0,0,0V68z"/>
		<rect x="92.4" y="65.3" fill="#2D2D2D" width="0.7" height="2.7"/>
	</g>
</g>
</svg>
