<?xml version="1.0" encoding="utf-8"?>
<!-- Generator: Adobe Illustrator 23.0.0, SVG Export Plug-In . SVG Version: 6.00 Build 0)  -->
<svg version="1.1" id="Layer_1" xmlns="http://www.w3.org/2000/svg" xmlns:xlink="http://www.w3.org/1999/xlink" x="0px" y="0px"
	 viewBox="0 0 128 128" enable-background="new 0 0 128 128" xml:space="preserve">
<g>
	<g>
		<linearGradient id="SVGID_1_" gradientUnits="userSpaceOnUse" x1="80.5606" y1="66.5535" x2="54.9944" y2="58.0314">
			<stop  offset="0" style="stop-color:#2D2D2D"/>
			<stop  offset="1" style="stop-color:#2D2D2D"/>
		</linearGradient>
		<path fill-rule="evenodd" clip-rule="evenodd" fill="url(#SVGID_1_)" d="M98.2,23.1C86.8,22.2,76,18.6,65.5,12.4h-0.1
			C54.9,18.6,44,22.2,32.7,23.1c-3.6,0.3-7,0.3-10.1,0l-3.7-0.5c-0.1,5.2-0.1,10.9,0.1,17.2c0.3,12.5,1.2,21.7,2.6,27.3
			c4.2,16.3,12.7,29.3,25.7,38.9c4,3,8.2,5.5,12.7,7.6c2.2,1,4,1.7,5.5,2.1h0.1c1.5-0.4,3.8-1.3,6.9-2.8c3.2-1.4,8.4-5.2,15.6-11.3
			c7.2-6.1,12.6-14.5,16.3-25.2c3.7-10.7,5.3-21,5-30.9c-0.3-9.9-0.4-17.4-0.2-22.4C105.3,23.3,101.7,23.3,98.2,23.1z M119.5,13.3
			c-0.2,6.3-0.2,15.5,0.2,27.7c0.4,12.2-1.6,24.9-6.1,38.2c-4.5,13.2-11.2,23.6-20.1,31.1c-8.8,7.5-15.3,12.2-19.2,14
			c-4,1.8-6.8,2.9-8.6,3.4h-0.1c-1.7-0.5-4-1.3-6.7-2.6c-5.5-2.5-10.7-5.6-15.7-9.3C27.3,104,16.7,88,11.6,67.8
			c-1.7-6.9-2.8-18.2-3.2-33.8c-0.2-7.7-0.2-14.7-0.1-21.3l4.6,0.6c4,0.4,8.1,0.4,12.5,0c13.9-1.1,27.4-5.5,40.4-13.2l0,0l0,0
			c13,7.7,26.4,12.1,40.4,13.2C110.5,13.8,114.9,13.8,119.5,13.3z"/>
		<path fill="#9C9C9C" d="M65.6,128C65.6,128,65.6,128,65.6,128c-1.8-0.5-4.1-1.4-6.8-2.6c-5.5-2.5-10.8-5.6-15.7-9.3
			C27.2,104.2,16.5,88,11.3,67.9C9.6,61,8.5,49.6,8.1,34.1C7.9,26.4,7.9,19.3,8,12.8c0-0.1,0-0.1,0.1-0.2c0.1,0,0.1-0.1,0.2-0.1
			l4.6,0.6c3.9,0.4,8.1,0.4,12.4,0C39.2,12.1,52.7,7.7,65.6,0C65.7,0,65.9,0,66,0.1c12.9,7.6,26.4,12,40.2,13.1
			c4.3,0.4,8.8,0.3,13.3-0.1c0.1,0,0.1,0,0.2,0.1c0.1,0,0.1,0.1,0.1,0.2c-0.2,6.3-0.2,15.6,0.2,27.7c0.4,12.2-1.6,25-6.1,38.2
			c-4.5,13.2-11.3,23.7-20.1,31.2c-8.8,7.5-15.3,12.3-19.3,14.1c-3.9,1.8-6.8,2.9-8.6,3.4C65.8,128,65.7,128,65.6,128
			C65.7,128,65.6,128,65.6,128z M8.5,13.1c-0.1,6.4-0.1,13.5,0.1,21c0.4,15.5,1.5,26.9,3.2,33.7c5.1,20,15.8,36.1,31.6,47.9
			c4.9,3.7,10.2,6.8,15.6,9.3c2.7,1.2,5,2.1,6.7,2.6c1.7-0.5,4.6-1.6,8.5-3.4c4-1.8,10.4-6.5,19.2-14c8.8-7.5,15.5-18,20-31
			c4.5-13.1,6.5-26,6.1-38.1c-0.4-11.9-0.5-21.2-0.2-27.4c-4.5,0.4-8.9,0.4-13.1,0.1C92.3,12.6,78.7,8.2,65.8,0.5
			c-13,7.6-26.6,12-40.4,13.1c-4.4,0.4-8.6,0.4-12.5,0L8.5,13.1z M65.4,115.9C65.4,115.9,65.4,115.9,65.4,115.9c-0.1,0-0.1,0-0.2,0
			c-1.4-0.4-3.3-1.1-5.5-2.1c-4.5-2-8.8-4.6-12.7-7.6c-12.9-9.6-21.6-22.8-25.8-39c-1.4-5.7-2.3-14.9-2.6-27.4
			c-0.2-6.3-0.2-12.1-0.1-17.3c0-0.1,0-0.1,0.1-0.2c0.1,0,0.1-0.1,0.2-0.1l3.7,0.5c3.1,0.3,6.5,0.3,10.1,0
			c11.2-0.9,22.2-4.5,32.6-10.7c0,0,0.1,0,0.1,0c0,0,0.1,0,0.2,0C76,18.3,87,21.9,98.2,22.8c3.5,0.3,7.1,0.2,10.8-0.1
			c0.1,0,0.1,0,0.2,0.1c0.1,0,0.1,0.1,0.1,0.2c-0.2,5-0.1,12.6,0.2,22.4c0.3,9.9-1.3,20.4-5,31c-3.7,10.7-9.2,19.2-16.3,25.3
			c-7.2,6.1-12.4,9.9-15.6,11.4C69.3,114.5,67,115.5,65.4,115.9C65.5,115.9,65.5,115.9,65.4,115.9z M19.1,22.8
			c-0.1,5.1-0.1,10.8,0.1,17c0.3,12.5,1.2,21.7,2.6,27.3c4.1,16.2,12.8,29.2,25.6,38.8c3.9,3,8.2,5.5,12.6,7.5c2.2,1,4,1.6,5.4,2
			c1.5-0.4,3.8-1.3,6.9-2.8c3.2-1.4,8.4-5.2,15.5-11.3c7.1-6,12.6-14.5,16.2-25.1c3.6-10.6,5.3-21,5-30.8
			c-0.3-9.7-0.4-17.1-0.2-22.2c-3.6,0.3-7.2,0.3-10.6,0.1c-11.3-0.9-22.2-4.5-32.7-10.7C55,18.8,44,22.4,32.7,23.3
			c-3.6,0.3-7,0.3-10.2,0L19.1,22.8z"/>
	</g>
	<path fill="#2D2D2D" d="M96.9,65.4c-0.2-0.1-0.5-0.1-0.6,0.1l-13.6,13c-0.1,0.1-0.2,0.3-0.1,0.5c0,0.2,0.1,0.3,0.3,0.4l3.3,1.5
		c-1.7,3.3-5.1,5.4-8.8,5.4c-1.4,0-2.8-0.3-4.1-0.9c-5-2.3-7.2-8.2-4.9-13.1l0.8-1.7c6.6-1.5,10.9-1.1,13.4-0.4
		c-0.1,0.8,0.5,1.8,1.6,2.4c0.5,0.2,0.9,0.3,1.4,0.3c0.8,0,1.4-0.3,1.6-0.9c0.4-0.9-0.3-2.1-1.5-2.7c-0.5-0.2-0.9-0.3-1.4-0.3
		c-0.3,0-0.6,0.1-0.8,0.2c-1.3-0.7-3.6-2.4-7.8-12.8L81,44.2c3.1,0.2,6.1-1.5,7.3-4.4c0.8-1.8,0.9-3.8,0.2-5.7
		c-0.7-1.9-2.1-3.4-3.9-4.2c-1-0.4-2-0.7-3.1-0.7c-2.9,0-5.6,1.7-6.8,4.4c-1.3,2.9-0.7,6.2,1.5,8.4l-3.2,7.1
		c-1.3-3.8-4.4-13.3-3.7-18.3c0.7-0.1,1.4-0.7,1.8-1.6c0.6-1.3,0.3-2.6-0.6-3.1C70.4,26,70.2,26,70,26c-0.8,0-1.6,0.7-2.1,1.7
		c-0.4,0.9-0.4,1.9,0,2.5c0,0-0.1,0.1-0.1,0.1c-0.9,1.2-2.2,2.4-3.7,3.6c-0.3-0.2-0.7-0.3-1.1-0.3c-0.4,0-0.8,0.1-1.1,0.3l-3,2
		c-0.7,0.5-1,1.4-0.8,2.2c-1.2,0.6-2.7,1.3-4.4,2c-0.4-0.5-1-0.9-1.6-0.9c-0.2,0-0.4,0-0.7,0.1L48,40.5c-0.5,0.2-0.9,0.5-1.1,1
		c-0.2,0.3-0.2,0.7-0.2,1c-0.6,0.2-1.1,0.4-1.6,0.5c-1.1,0.4-1.8,0.6-3,0.8c-0.3-0.8-1.1-1.3-2-1.2L36.5,43c-0.5,0.1-1,0.3-1.3,0.7
		c-0.2,0.2-0.3,0.5-0.4,0.7c-1.9,0.1-3.6-0.1-5.1-0.4c0,0-0.1,0-0.1,0c-0.1-0.7-0.7-1.5-1.6-2c-0.5-0.2-0.9-0.3-1.4-0.3
		c-0.8,0-1.4,0.3-1.6,0.9c-0.4,0.9,0.3,2.1,1.5,2.7c0.5,0.2,0.9,0.3,1.4,0.3c0.3,0,0.6-0.1,0.8-0.2c3.5,3.6,6.8,9.7,9.8,17.9
		c4,11,4.5,17,4.2,20.2c-0.7,0.1-1.4,0.8-1.8,1.6c-0.6,1.3-0.3,2.6,0.6,3.1c0.2,0.1,0.4,0.1,0.6,0.1c0.8,0,1.6-0.7,2.1-1.7
		c0.5-1.1,0.4-2.3-0.3-2.9c1.9-2.6,6.5-7.2,17.7-11.3c0.4-0.1,0.7-0.2,1.1-0.4c-1,3.2-1,6.7,0.2,9.9c1.4,3.8,4.2,6.8,7.9,8.5
		c2,0.9,4.1,1.4,6.3,1.4c5.9,0,11.3-3.5,13.8-8.9L97.1,66C97.2,65.8,97.1,65.6,96.9,65.4z M78.5,35.4c0.5-1.2,1.7-1.9,3-1.9
		c0.5,0,0.9,0.1,1.4,0.3c0.8,0.4,1.4,1,1.7,1.8c0.3,0.8,0.3,1.7-0.1,2.5c-0.5,1.2-1.7,1.9-3,1.9c-0.5,0-0.9-0.1-1.4-0.3
		c-0.8-0.4-1.4-1-1.7-1.8C78.1,37.1,78.2,36.2,78.5,35.4z M66.1,64.6l-2.8-1.3l2-4.3l2.5,1.2l0.1,0.5L66.1,64.6z M63.7,69.7
		l-2.9-1.3l2-4.2l2.8,1.3L63.7,69.7z M57.3,73.2l-4.1-1.9l2-4.4l4.3,2l-2,4.3C57.4,73.2,57.4,73.2,57.3,73.2z M45.4,80.6l-1.7-0.8
		c0-0.5-0.1-1.1-0.2-1.6l1.5-3.2l4.3,2l-0.2,0.5c0,0,0,0,0,0C47.6,78.6,46.4,79.7,45.4,80.6z M40.7,66.5l0.8,0.4l-0.4,0.9
		C41,67.4,40.8,67,40.7,66.5z M42.5,67.4l4.2,1.9l-2.1,4.4l-2.1-1c-0.3-1.1-0.6-2.3-0.9-3.5L42.5,67.4z M37.8,58.7l1.1,0.5l-0.5,1.1
		C38.2,59.8,38,59.2,37.8,58.7z M37.2,57.3c-0.5-1.1-1-2.2-1.5-3.2l1.1-2.3l4.5,2.2l-2,4.4L37.2,57.3z M33.5,50.2l2.3,1.1L35.1,53
		C34.6,52,34.1,51.1,33.5,50.2z M39.1,46.8l0.3,0c0,0,0,0,0.1,0l4.2,2L41.7,53l-4.5-2.1l1.8-3.9C39.1,46.9,39.1,46.8,39.1,46.8z
		 M65.8,33.8l2.6,1.2c0,0.3,0.1,0.6,0.1,0.9c0,0,0,0-0.1,0.1l-1.6,3.4l-3.5-1.7l0.8-0.5c0.8-0.6,1.1-1.6,0.6-2.5
		C65.1,34.3,65.5,34.1,65.8,33.8z M69.4,40.5l-1.6-0.8l1-2.2C69,38.6,69.2,39.6,69.4,40.5z M71.6,48l-1-0.5l0.5-1.1
		C71.3,47.1,71.4,47.6,71.6,48z M70.6,45.2l-0.9,2l-4.4-2l2-4.4l2.4,1.1C70,42.9,70.3,44.1,70.6,45.2C70.6,45.1,70.6,45.1,70.6,45.2
		z M72.8,62.4l2.3,1.1L73,67.8l-2.2-1.1L72.8,62.4z M49.8,76.2l-4.3-2l2.1-4.4l4.3,2L49.8,76.2z M48,68.8l2.1-4.4l4.3,2l-2,4.4
		L48,68.8z M50.5,63.5l2-4.3l4.3,2l-2,4.3L50.5,63.5z M52.9,58.3l2-4.3l4.2,2l-2,4.3L52.9,58.3z M52.7,43.1l-1,2.1l-2.1-1L52.7,43.1
		z M54.7,41.2l4.2,1.9l-2.1,4.4l-4.2-1.9L54.7,41.2z M62.1,38.6C62.1,38.5,62.1,38.5,62.1,38.6l0.2-0.2c0,0,0.1,0.1,0.1,0.1l3.9,1.8
		l-2,4.4l-4.2-2L62.1,38.6z M64,45.6l-2,4.4l-4.2-2l2.1-4.4L64,45.6z M61.5,50.9l-1.9,4.2l-4.2-2l2-4.2L61.5,50.9z M56.4,48.5
		l-2,4.2l-4.2-2l2-4.2L56.4,48.5z M54,53.6l-2,4.3l-4.1-2l2-4.2L54,53.6z M60.1,56.5l4.3,2l-2,4.3l-4.3-2L60.1,56.5z M60.5,55.5
		l1.9-4.2l4.1,1.9l0.1,0.5l-1.8,3.8L60.5,55.5z M66.9,55.5l0.6,3.4L65.7,58L66.9,55.5z M70,55.8l-1-1.5l1.4,0.7L70,55.8z M67.2,52
		c-0.1-0.2-0.4-0.3-0.6-0.2c-0.1,0-0.2,0.1-0.3,0.2l-3.5-1.6l2-4.4l4.4,2l-1.9,4.1L67.2,52z M60,39.5c0.2,0,0.4,0,0.6-0.1l-1.3,2.9
		l-3.9-1.8c1.2-0.5,2.3-1,3.3-1.5C59,39.3,59.5,39.5,60,39.5z M46.9,44.1l4.4,2.1l-2,4.2l-4.3-2L46.9,44.1z M48.9,51.2l-2,4.2
		l-4.3-2l1.9-4.2L48.9,51.2z M42.2,54.4l4.2,2l-2,4.3l-4.2-2L42.2,54.4z M47.4,56.8l4.1,2l-2,4.3l-4.2-1.9L47.4,56.8z M49.1,64
		L47,68.4l-4.2-1.9l2.1-4.4L49.1,64z M42.8,74l1.3,0.6l-0.8,1.8C43.1,75.6,43,74.8,42.8,74z M43.8,81l0.8,0.4
		c-0.3,0.3-0.6,0.6-0.8,0.9C43.8,81.9,43.8,81.4,43.8,81z M52.8,72.2l3.3,1.6c-2.1,0.9-3.8,1.9-5.4,2.8L52.8,72.2z M55.7,66l2-4.3
		l4.3,2l-2,4.2L55.7,66z M70.3,67.7l2.1,1c-0.9,0.1-1.8,0.3-2.8,0.5L70.3,67.7z M74.3,68.5c0,0-0.1-0.1-0.1-0.1l-0.3-0.1l2.1-4.4
		l2.7,1.3c0.1,0,0.1,0,0.2,0c0,0,0,0,0,0c0.4,0.6,0.7,1.2,1.1,1.7l-0.7,1.6C77.8,68.3,76.2,68.3,74.3,68.5z M78,63.7l-1.7-0.8
		l0.6-1.3C77.4,62.4,77.7,63.1,78,63.7z M81.5,68.7c-0.4-0.1-0.8-0.1-1.2-0.2l0.4-0.8C80.9,68.1,81.2,68.4,81.5,68.7z M76.4,60.4
		l-1,2.1l-2.3-1.1l1.9-4.1C75.5,58.4,76,59.5,76.4,60.4z M70.8,54.1l-2.7-1.3c0,0,0,0,0-0.1l2-4.3l1.9,0.9c0.2,0.5,0.3,0.8,0.4,1.1
		L70.8,54.1z M68.3,31.3c-0.1,0.8-0.1,1.6,0,2.5L66.6,33C67.2,32.5,67.8,31.9,68.3,31.3z M45.5,44c0.1,0,0.2-0.1,0.3-0.1l-1.8,3.9
		l-2.9-1.4c0.3-0.1,0.5-0.3,0.7-0.6c0.2-0.3,0.4-0.6,0.4-1C43.6,44.7,44.3,44.4,45.5,44z M34.8,45.5c0.2,0.9,1,1.5,1.9,1.5
		c0.1,0,0.1,0,0.2,0l1-0.1l-1.7,3.5l-3.8-1.8c-0.1-0.1-0.2-0.2-0.2-0.4c0,0,0,0,0-0.1l1.3-2.7c0.1,0,0.3,0,0.4,0
		C34.2,45.5,34.5,45.5,34.8,45.5z M32.4,45.5l-0.9,1.9c-0.6-0.8-1.2-1.5-1.8-2.2C30.6,45.3,31.5,45.4,32.4,45.5z M38.9,61.6
		c0.1,0,0.1-0.1,0.1-0.2l0.8-1.7l4.2,2L42,66l-1.5-0.7c-0.1,0-0.1,0-0.2,0c-0.2-0.7-0.5-1.4-0.8-2.2C39.3,62.6,39.1,62.1,38.9,61.6z
		 M61.3,71.7c-0.8,0.3-1.6,0.6-2.4,0.9l1.5-3.3l2.9,1.3c-0.1,0.1-0.1,0.3-0.2,0.4C62.5,71.2,61.9,71.4,61.3,71.7z"/>
</g>
</svg>
