<?xml version="1.0" encoding="utf-8"?>
<!-- Generator: Adobe Illustrator 23.0.0, SVG Export Plug-In . SVG Version: 6.00 Build 0)  -->
<svg version="1.1" baseProfile="basic" id="Layer_1"
	 xmlns="http://www.w3.org/2000/svg" xmlns:xlink="http://www.w3.org/1999/xlink" x="0px" y="0px" viewBox="0 0 128 128"
	 xml:space="preserve">
<g>
	<g>
		<linearGradient id="SVGID_1_" gradientUnits="userSpaceOnUse" x1="80.5606" y1="66.5535" x2="54.9944" y2="58.0314">
			<stop  offset="0" style="stop-color:#2D2D2D"/>
			<stop  offset="1" style="stop-color:#2D2D2D"/>
		</linearGradient>
		<path fill-rule="evenodd" clip-rule="evenodd" fill="url(#SVGID_1_)" d="M98.2,23.1C86.8,22.2,76,18.6,65.5,12.4h-0.1
			C54.9,18.6,44,22.2,32.7,23.1c-3.6,0.3-7,0.3-10.1,0l-3.7-0.5c-0.1,5.2-0.1,10.9,0.1,17.2c0.3,12.5,1.2,21.7,2.6,27.3
			c4.2,16.3,12.7,29.3,25.7,38.9c4,3,8.2,5.5,12.7,7.6c2.2,1,4,1.7,5.5,2.1h0.1c1.5-0.4,3.8-1.3,6.9-2.8c3.2-1.4,8.4-5.2,15.6-11.3
			c7.2-6.1,12.6-14.5,16.3-25.2c3.7-10.7,5.3-21,5-30.9c-0.3-9.9-0.4-17.4-0.2-22.4C105.3,23.3,101.7,23.3,98.2,23.1z M119.5,13.3
			c-0.2,6.3-0.2,15.5,0.2,27.7c0.4,12.2-1.6,24.9-6.1,38.2c-4.5,13.2-11.2,23.6-20.1,31.1c-8.8,7.5-15.3,12.2-19.2,14
			c-4,1.8-6.8,2.9-8.6,3.4h-0.1c-1.7-0.5-4-1.3-6.7-2.6c-5.5-2.5-10.7-5.6-15.7-9.3C27.3,104,16.7,88,11.6,67.8
			c-1.7-6.9-2.8-18.2-3.2-33.8c-0.2-7.7-0.2-14.7-0.1-21.3l4.6,0.6c4,0.4,8.1,0.4,12.5,0c13.9-1.1,27.4-5.5,40.4-13.2l0,0l0,0
			c13,7.7,26.4,12.1,40.4,13.2C110.5,13.8,114.9,13.8,119.5,13.3z"/>
		<path fill="#9C9C9C" d="M65.6,128C65.6,128,65.6,128,65.6,128c-1.8-0.5-4.1-1.4-6.8-2.6c-5.5-2.5-10.8-5.6-15.7-9.3
			C27.2,104.2,16.5,88,11.3,67.9C9.6,61,8.5,49.6,8.1,34.1C7.9,26.4,7.9,19.3,8,12.8c0-0.1,0-0.1,0.1-0.2c0.1,0,0.1-0.1,0.2-0.1
			l4.6,0.6c3.9,0.4,8.1,0.4,12.4,0C39.2,12.1,52.7,7.7,65.6,0C65.7,0,65.9,0,66,0.1c12.9,7.6,26.4,12,40.2,13.1
			c4.3,0.4,8.8,0.3,13.3-0.1c0.1,0,0.1,0,0.2,0.1c0.1,0,0.1,0.1,0.1,0.2c-0.2,6.3-0.2,15.6,0.2,27.7c0.4,12.2-1.6,25-6.1,38.2
			c-4.5,13.2-11.3,23.7-20.1,31.2c-8.8,7.5-15.3,12.3-19.3,14.1c-3.9,1.8-6.8,2.9-8.6,3.4C65.8,128,65.7,128,65.6,128
			C65.7,128,65.6,128,65.6,128z M8.5,13.1c-0.1,6.4-0.1,13.5,0.1,21c0.4,15.5,1.5,26.9,3.2,33.7c5.1,20,15.8,36.1,31.6,47.9
			c4.9,3.7,10.2,6.8,15.6,9.3c2.7,1.2,5,2.1,6.7,2.6c1.7-0.5,4.6-1.6,8.5-3.4c4-1.8,10.4-6.5,19.2-14c8.8-7.5,15.5-18,20-31
			c4.5-13.1,6.5-26,6.1-38.1c-0.4-11.9-0.5-21.2-0.2-27.4c-4.5,0.4-8.9,0.4-13.1,0.1C92.3,12.6,78.7,8.2,65.8,0.5
			c-13,7.6-26.6,12-40.4,13.1c-4.4,0.4-8.6,0.4-12.5,0L8.5,13.1z M65.4,115.9C65.4,115.9,65.4,115.9,65.4,115.9c-0.1,0-0.1,0-0.2,0
			c-1.4-0.4-3.3-1.1-5.5-2.1c-4.5-2-8.8-4.6-12.7-7.6c-12.9-9.6-21.6-22.8-25.8-39c-1.4-5.7-2.3-14.9-2.6-27.4
			c-0.2-6.3-0.2-12.1-0.1-17.3c0-0.1,0-0.1,0.1-0.2c0.1,0,0.1-0.1,0.2-0.1l3.7,0.5c3.1,0.3,6.5,0.3,10.1,0
			c11.2-0.9,22.2-4.5,32.6-10.7c0,0,0.1,0,0.1,0c0,0,0.1,0,0.2,0C76,18.3,87,21.9,98.2,22.8c3.5,0.3,7.1,0.2,10.8-0.1
			c0.1,0,0.1,0,0.2,0.1c0.1,0,0.1,0.1,0.1,0.2c-0.2,5-0.1,12.6,0.2,22.4c0.3,9.9-1.3,20.4-5,31c-3.7,10.7-9.2,19.2-16.3,25.3
			c-7.2,6.1-12.4,9.9-15.6,11.4C69.3,114.5,67,115.5,65.4,115.9C65.5,115.9,65.5,115.9,65.4,115.9z M19.1,22.8
			c-0.1,5.1-0.1,10.8,0.1,17c0.3,12.5,1.2,21.7,2.6,27.3c4.1,16.2,12.8,29.2,25.6,38.8c3.9,3,8.2,5.5,12.6,7.5c2.2,1,4,1.6,5.4,2
			c1.5-0.4,3.8-1.3,6.9-2.8c3.2-1.4,8.4-5.2,15.5-11.3c7.1-6,12.6-14.5,16.2-25.1c3.6-10.6,5.3-21,5-30.8
			c-0.3-9.7-0.4-17.1-0.2-22.2c-3.6,0.3-7.2,0.3-10.6,0.1c-11.3-0.9-22.2-4.5-32.7-10.7C55,18.8,44,22.4,32.7,23.3
			c-3.6,0.3-7,0.3-10.2,0L19.1,22.8z"/>
	</g>
	<g>
		<path fill="#2D2D2D" d="M51.3,81.9c0.1,1.6,1,7.2,4.5,11.2c2.3,2.6,5.3,3.9,8.8,3.9c10.6,0,13.3-12.2,13.8-15.1
			c-2.2,0.1-9.2,0.6-13.8,0.6C60,82.5,53.3,82,51.3,81.9z"/>
		<path fill="#2D2D2D" d="M64.6,81.4c4.6,0,11.7-0.4,13.8-0.6c-0.4-2-1.9-8.4-4.4-10.6c-0.5-0.4-0.8-1.1-0.9-1.7
			c-0.4-3.9-3.3-9.4-8.4-9.4c-5.7,0-7.6,7.5-7.9,9.5c-0.1,0.6-0.3,1.2-0.8,1.7c-2,2.1-3.9,8.6-4.4,10.6C53.6,81,60.1,81.4,64.6,81.4
			z M71.2,75.7c0.2,0,0.4,0,0.5,0.2c0.1,0.1,0.2,0.4,0.1,0.7c-0.1,0.4-0.4,0.8-0.8,1.1c-0.5,0.4-1,0.7-1.4,0.7c-0.2,0-0.4,0-0.5-0.2
			c-0.1-0.1-0.2-0.4-0.1-0.7c0.1-0.4,0.4-0.8,0.8-1.1C70.2,75.9,70.7,75.7,71.2,75.7z M58.6,75.9c0.1-0.1,0.3-0.2,0.5-0.2
			c0.4,0,1,0.2,1.4,0.7c0.4,0.3,0.6,0.8,0.8,1.1c0.1,0.3,0.1,0.6-0.1,0.7c-0.1,0.1-0.3,0.2-0.5,0.2c-0.5,0-1-0.2-1.4-0.7
			c-0.4-0.3-0.6-0.8-0.8-1.1C58.4,76.3,58.4,76,58.6,75.9z"/>
		<path fill="#2D2D2D" d="M64.6,58c5.8,0,9.1,6.1,9.5,10.4c0,0.4,0.2,0.8,0.5,1c0.9,0.8,1.7,2.1,2.4,3.5l4-13.8
			c1-3.6,2.1-7.3,1.1-10.7c-0.6-2-1.4-3.5-2.4-4.5c-2.2-2.2-5-1.7-8.4-1.1c-1.8,0.3-3.8,0.7-6,0.7c-2,0-3.9-0.3-5.7-0.5
			c-4-0.6-7.5-1-10.1,1.6c-1.3,1.3-2.2,3.3-2.5,5.7c-0.3,2.3,0,4.8,0.9,7.1l5.4,15.5c0.6-1.3,1.3-2.5,2-3.3c0.3-0.3,0.5-0.7,0.5-1.1
			C56,65,58.7,58,64.6,58z M74.5,53c-1,0-1.8-0.8-1.8-1.8c0-1,0.8-1.8,1.8-1.8c1,0,1.8,0.8,1.8,1.8C76.3,52.2,75.5,53,74.5,53z
			 M67.4,51.9c0.9-3.2,3.6-5.6,6.5-5.8c2.3-0.2,4.1,0.9,5,1.6c0.2,0.2,0.3,0.5,0.1,0.8c-0.2,0.2-0.5,0.3-0.8,0.1
			c-0.7-0.6-2.3-1.5-4.2-1.3c-2.5,0.2-4.8,2.3-5.6,5.1c-0.1,0.2-0.3,0.4-0.5,0.4c0,0-0.1,0-0.2,0C67.4,52.5,67.3,52.2,67.4,51.9z
			 M51.2,48.4c-0.2,0.2-0.6,0.1-0.8-0.1c-0.2-0.2-0.1-0.6,0.1-0.8c0.9-0.7,2.7-1.8,5-1.6c3,0.3,5.6,2.6,6.5,5.8
			c0.1,0.3-0.1,0.6-0.4,0.7c-0.1,0-0.1,0-0.2,0c-0.2,0-0.4-0.2-0.5-0.4c-0.8-2.8-3.1-4.9-5.6-5.1C53.5,46.9,51.9,47.9,51.2,48.4z
			 M55,53c-1,0-1.8-0.8-1.8-1.8c0-1,0.8-1.8,1.8-1.8c1,0,1.8,0.8,1.8,1.8C56.8,52.2,56,53,55,53z"/>
		<path fill="#2D2D2D" d="M91.7,37.4c-1.1-0.3-1.9-0.2-2.6,0.3c-1.5,1.1-1.7,4.1-1.7,5.2c0,0,0,0,0,0.1c0,0,0,0.1,0,0.1
			c0,0,0,0.1-0.1,0.1c0,0,0,0.1-0.1,0.1c0,0-0.1,0.1-0.1,0.1c0,0,0,0,0,0c0,0,0,0,0,0c-0.1,0-0.1,0-0.2,0.1l0,0l0,0
			c-0.1,0-0.1,0-0.2,0c0,0,0,0,0,0c-0.1,0-0.1-0.1-0.1-0.1c0,0,0,0,0,0c0,0-0.1-0.1-0.1-0.2C86.2,43,79.5,29,63.8,29
			c-15.7,0-20.1,13.5-20.3,14c0,0,0,0,0,0c0,0,0,0.1,0,0.1c0,0,0,0.1-0.1,0.1c0,0,0,0,0,0c0,0-0.1,0.1-0.1,0.1c0,0,0,0-0.1,0
			c0,0-0.1,0-0.1,0c0,0,0,0,0,0c0,0,0,0-0.1,0c0,0,0,0-0.1,0c0,0,0,0,0,0c0,0-0.1,0-0.1-0.1c0,0-0.1,0-0.1-0.1c0,0,0-0.1-0.1-0.1
			c0,0,0-0.1-0.1-0.1c0,0,0-0.1,0-0.1c0,0,0-0.1,0-0.1c0,0,0,0,0,0c0,0,0.2-3.8-1.6-5.2c-0.6-0.5-1.5-0.6-2.6-0.3
			c-4.8,1.4-6.9,8.7-5.6,14.4c1.1,4.6,5.7,9.5,8,10c0.2,0.1,0.5,0.1,0.6-0.1c1.5-1.8,2.5-2.5,2.5-2.5c0.2-0.2,0.6-0.1,0.8,0.1
			c0.2,0.2,0.1,0.6-0.1,0.8c0,0-0.6,0.4-1.6,1.5c0.1,1.6,1.1,16.4,7.7,23c-0.2-1.1-0.3-1.9-0.4-2.2c-0.1-0.6-0.1-1.1,0-1.4
			c0.1-0.5,1-3.8,2.2-6.9l-5.7-16.6c-0.9-2.5-1.2-5.2-0.9-7.6c0.3-2.7,1.2-4.8,2.8-6.3c3-3,6.9-2.4,11-1.9c1.8,0.2,3.7,0.5,5.6,0.5
			c2.1,0,4-0.3,5.8-0.7c3.6-0.6,6.8-1.2,9.4,1.4c1.1,1.1,2.1,2.8,2.7,5c1.1,3.7,0,7.6-1.1,11.3l-4.3,14.9c0,0,0,0.1-0.1,0.1
			c1.2,3.2,1.8,6.6,1.9,6.8c0,0,0,0,0,0.1c0,0,0,0.1,0,0.1c0,0-0.2,1.4-0.7,3.3c6.9-7.1,8-23,8-23.2c0,0,0,0,0,0
			c-0.9-0.9-1.4-1.3-1.4-1.3c-0.2-0.2-0.3-0.5-0.1-0.8c0.2-0.2,0.5-0.3,0.8-0.1c0,0,1,0.7,2.5,2.5c0.1,0.2,0.4,0.1,0.6,0.1
			c2.3-0.6,7-5.5,8-10C98.6,46.1,96.5,38.8,91.7,37.4z M41.7,53.8c-0.1,0.2-0.3,0.4-0.5,0.4c0,0-0.1,0-0.1,0
			c-0.3-0.1-0.5-0.4-0.4-0.7c0.3-1.2-1.8-4.2-3.3-5.9c-0.5,1.5-0.8,3.4,0.1,5.2c0.1,0.3,0,0.6-0.3,0.7c-0.1,0-0.2,0.1-0.2,0.1
			c-0.2,0-0.4-0.1-0.5-0.3c-2.2-4.8,1.7-9.4,1.9-9.6c0.2-0.2,0.5-0.2,0.8-0.1c0.2,0.2,0.2,0.5,0.1,0.8c0,0-0.7,0.9-1.4,2.2
			c0.1,0,0.1,0.1,0.2,0.1C38.4,47.2,42.3,51.6,41.7,53.8z M93.8,53.3c-0.1,0.2-0.3,0.3-0.5,0.3c-0.1,0-0.2,0-0.2-0.1
			c-0.3-0.1-0.4-0.4-0.3-0.7c0.9-1.8,0.6-3.7,0.1-5.2c-1.5,1.7-3.6,4.7-3.3,5.9c0.1,0.3-0.1,0.6-0.4,0.7c0,0-0.1,0-0.1,0
			c-0.2,0-0.5-0.2-0.5-0.4c-0.6-2.2,3.3-6.6,3.7-7.1c0-0.1,0.1-0.1,0.2-0.1c-0.6-1.3-1.4-2.1-1.4-2.2c-0.2-0.2-0.2-0.6,0.1-0.8
			c0.2-0.2,0.6-0.2,0.8,0.1C92.1,43.9,96.1,48.5,93.8,53.3z"/>
	</g>
</g>
</svg>
