<?xml version="1.0" encoding="utf-8"?>
<!-- Generator: Adobe Illustrator 23.0.0, SVG Export Plug-In . SVG Version: 6.00 Build 0)  -->
<svg version="1.1" id="Layer_1" xmlns="http://www.w3.org/2000/svg" xmlns:xlink="http://www.w3.org/1999/xlink" x="0px" y="0px"
	 viewBox="0 0 128 128" enable-background="new 0 0 128 128" xml:space="preserve">
<g>
	<g>
		<linearGradient id="SVGID_1_" gradientUnits="userSpaceOnUse" x1="80.5606" y1="66.5535" x2="54.9944" y2="58.0314">
			<stop  offset="0" style="stop-color:#2D2D2D"/>
			<stop  offset="1" style="stop-color:#2D2D2D"/>
		</linearGradient>
		<path fill-rule="evenodd" clip-rule="evenodd" fill="url(#SVGID_1_)" d="M98.2,23.1C86.8,22.2,76,18.6,65.5,12.4h-0.1
			C54.9,18.6,44,22.2,32.7,23.1c-3.6,0.3-7,0.3-10.1,0l-3.7-0.5c-0.1,5.2-0.1,10.9,0.1,17.2c0.3,12.5,1.2,21.7,2.6,27.3
			c4.2,16.3,12.7,29.3,25.7,38.9c4,3,8.2,5.5,12.7,7.6c2.2,1,4,1.7,5.5,2.1h0.1c1.5-0.4,3.8-1.3,6.9-2.8c3.2-1.4,8.4-5.2,15.6-11.3
			c7.2-6.1,12.6-14.5,16.3-25.2c3.7-10.7,5.3-21,5-30.9c-0.3-9.9-0.4-17.4-0.2-22.4C105.3,23.3,101.7,23.3,98.2,23.1z M119.5,13.3
			c-0.2,6.3-0.2,15.5,0.2,27.7c0.4,12.2-1.6,24.9-6.1,38.2c-4.5,13.2-11.2,23.6-20.1,31.1c-8.8,7.5-15.3,12.2-19.2,14
			c-4,1.8-6.8,2.9-8.6,3.4h-0.1c-1.7-0.5-4-1.3-6.7-2.6c-5.5-2.5-10.7-5.6-15.7-9.3C27.3,104,16.7,88,11.6,67.8
			c-1.7-6.9-2.8-18.2-3.2-33.8c-0.2-7.7-0.2-14.7-0.1-21.3l4.6,0.6c4,0.4,8.1,0.4,12.5,0c13.9-1.1,27.4-5.5,40.4-13.2l0,0l0,0
			c13,7.7,26.4,12.1,40.4,13.2C110.5,13.8,114.9,13.8,119.5,13.3z"/>
		<path fill="#9C9C9C" d="M65.6,128C65.6,128,65.6,128,65.6,128c-1.8-0.5-4.1-1.4-6.8-2.6c-5.5-2.5-10.8-5.6-15.7-9.3
			C27.2,104.2,16.5,88,11.3,67.9C9.6,61,8.5,49.6,8.1,34.1C7.9,26.4,7.9,19.3,8,12.8c0-0.1,0-0.1,0.1-0.2c0.1,0,0.1-0.1,0.2-0.1
			l4.6,0.6c3.9,0.4,8.1,0.4,12.4,0C39.2,12.1,52.7,7.7,65.6,0C65.7,0,65.9,0,66,0.1c12.9,7.6,26.4,12,40.2,13.1
			c4.3,0.4,8.8,0.3,13.3-0.1c0.1,0,0.1,0,0.2,0.1c0.1,0,0.1,0.1,0.1,0.2c-0.2,6.3-0.2,15.6,0.2,27.7c0.4,12.2-1.6,25-6.1,38.2
			c-4.5,13.2-11.3,23.7-20.1,31.2c-8.8,7.5-15.3,12.3-19.3,14.1c-3.9,1.8-6.8,2.9-8.6,3.4C65.8,128,65.7,128,65.6,128
			C65.7,128,65.6,128,65.6,128z M8.5,13.1c-0.1,6.4-0.1,13.5,0.1,21c0.4,15.5,1.5,26.9,3.2,33.7c5.1,20,15.8,36.1,31.6,47.9
			c4.9,3.7,10.2,6.8,15.6,9.3c2.7,1.2,5,2.1,6.7,2.6c1.7-0.5,4.6-1.6,8.5-3.4c4-1.8,10.4-6.5,19.2-14c8.8-7.5,15.5-18,20-31
			c4.5-13.1,6.5-26,6.1-38.1c-0.4-11.9-0.5-21.2-0.2-27.4c-4.5,0.4-8.9,0.4-13.1,0.1C92.3,12.6,78.7,8.2,65.8,0.5
			c-13,7.6-26.6,12-40.4,13.1c-4.4,0.4-8.6,0.4-12.5,0L8.5,13.1z M65.4,115.9C65.4,115.9,65.4,115.9,65.4,115.9c-0.1,0-0.1,0-0.2,0
			c-1.4-0.4-3.3-1.1-5.5-2.1c-4.5-2-8.8-4.6-12.7-7.6c-12.9-9.6-21.6-22.8-25.8-39c-1.4-5.7-2.3-14.9-2.6-27.4
			c-0.2-6.3-0.2-12.1-0.1-17.3c0-0.1,0-0.1,0.1-0.2c0.1,0,0.1-0.1,0.2-0.1l3.7,0.5c3.1,0.3,6.5,0.3,10.1,0
			c11.2-0.9,22.2-4.5,32.6-10.7c0,0,0.1,0,0.1,0c0,0,0.1,0,0.2,0C76,18.3,87,21.9,98.2,22.8c3.5,0.3,7.1,0.2,10.8-0.1
			c0.1,0,0.1,0,0.2,0.1c0.1,0,0.1,0.1,0.1,0.2c-0.2,5-0.1,12.6,0.2,22.4c0.3,9.9-1.3,20.4-5,31c-3.7,10.7-9.2,19.2-16.3,25.3
			c-7.2,6.1-12.4,9.9-15.6,11.4C69.3,114.5,67,115.5,65.4,115.9C65.5,115.9,65.5,115.9,65.4,115.9z M19.1,22.8
			c-0.1,5.1-0.1,10.8,0.1,17c0.3,12.5,1.2,21.7,2.6,27.3c4.1,16.2,12.8,29.2,25.6,38.8c3.9,3,8.2,5.5,12.6,7.5c2.2,1,4,1.6,5.4,2
			c1.5-0.4,3.8-1.3,6.9-2.8c3.2-1.4,8.4-5.2,15.5-11.3c7.1-6,12.6-14.5,16.2-25.1c3.6-10.6,5.3-21,5-30.8
			c-0.3-9.7-0.4-17.1-0.2-22.2c-3.6,0.3-7.2,0.3-10.6,0.1c-11.3-0.9-22.2-4.5-32.7-10.7C55,18.8,44,22.4,32.7,23.3
			c-3.6,0.3-7,0.3-10.2,0L19.1,22.8z"/>
	</g>
	<g>
		<path fill="#2D2D2D" d="M36.4,50.1c0,1.1,0.5,4.1,4.2,5.1c4.1,1.2,10,2.8,11.8,3.3c0-1.5,0-2.9,0-3.5L36.4,50.1z"/>
		<path fill="#2D2D2D" d="M48.3,70.6C48.3,70.6,48.4,70.6,48.3,70.6c0.2,0.9,0.3,1.7,0.1,2.5c-0.7,3.4-3.7,5.8-7.1,5.8
			c-2,0-4-0.9-5.3-2.3C34.6,75,34,73,34.1,71c0.2-2,1.1-3.8,2.8-5.1c1.6-1.2,3.7-1.8,5.7-1.4c1.1,0.2,2.2,0.6,3.2,1.7l3.4-1.9
			c-1.9-2.1-4.9-3.4-7.9-3.4c-6,0-10.8,4.8-10.8,10.8s4.8,10.8,10.8,10.8s10.8-4.8,10.8-10.8c0-0.8-0.2-2.1-0.6-2.9L48.3,70.6z"/>
		<path fill="#2D2D2D" d="M52.8,63.4l-12.3,7c-0.7,0.4-1,1.3-0.6,2.1c0.4,0.7,1.3,1,2.1,0.6l11.7-6.9c-0.1-0.2-0.2-0.4-0.3-0.7
			C53.1,64.9,52.9,64.2,52.8,63.4z"/>
		<path fill="#2D2D2D" d="M40,69.5l4.9-2.8c-0.6-0.6-1.3-0.9-2.4-1.1c-1.7-0.3-3.5,0.1-4.9,1.2c-1.4,1.1-2.2,2.6-2.4,4.3
			c-0.1,1.8,0.4,3.4,1.6,4.7c1.2,1.3,2.8,2,4.5,2c2.9,0,5.5-2.1,6.1-5c0.1-0.5,0.1-1.1,0-1.7L42.5,74c-0.4,0.2-0.9,0.3-1.3,0.3
			c-0.9,0-1.8-0.5-2.2-1.3C38.3,71.8,38.7,70.2,40,69.5z"/>
		<path fill="#2D2D2D" d="M66.5,63.3h-5.1c-1.4,0-2.5,1.1-2.5,2.5c0,1.4,1.1,2.5,2.5,2.5h5.1c1.4,0,2.5-1.1,2.5-2.5
			C69,64.5,67.9,63.3,66.5,63.3z"/>
		<path fill="#2D2D2D" d="M50.4,49.6h13.2c2.2,0,4-1.5,4.4-3.6c-1,0.5-3,1.1-6,1.1c-4.6,0-10.9-1.5-11.1-1.5l-5-1.2l0,0.7
			C45.8,47.6,47.9,49.6,50.4,49.6z"/>
		<path fill="#2D2D2D" d="M93.2,46.6c0,0.1,0,0.2,0.1,0.3l0.1,0c0.7-0.4,1.1-1.2,0.8-2L93,41.3c-0.1-0.4-0.4-0.8-0.8-1
			c-0.4-0.2-0.8-0.2-1.2-0.1c0.2,0.3,0.3,0.6,0.4,0.9L93.2,46.6z"/>
		<path fill="#2D2D2D" d="M64.3,37.2h4.4c0.2,0,0.4,0.1,0.5,0.3l2.2,3.9c0.6-0.5,1.3-1.1,2-1.6l-2.6-4.8l-6.4,0
			c-0.7,0-1.2,0.5-1.2,1.1C63,36.7,63.6,37.2,64.3,37.2z"/>
		<path fill="#2D2D2D" d="M87.9,73.9c-0.3,0.2-0.7,0.2-1.1,0.2c-1,0-1.9-0.5-2.3-1.5l-2.1-4.5c-0.4,0.3-0.7,0.8-0.9,1.3
			c-0.3,0.7-0.5,1.5-0.5,2.3c0,1.6,0.6,3.1,1.7,4.3c1.2,1.2,2.7,1.8,4.3,1.8c0,0,0,0,0,0c3.3,0,6-2.7,6-6c0-3.3-2.7-6-6-6
			c0,0,0,0-0.1,0l2.2,4.7C89.7,71.8,89.2,73.3,87.9,73.9z"/>
		<path fill="#2D2D2D" d="M79.8,55.5c-0.6,0.3-1.2,0.7-1.7,1.1l7.4,15.7c0.3,0.7,1.2,1.1,2,0.7c0.4-0.2,0.6-0.5,0.8-0.8
			c0.1-0.4,0.1-0.8-0.1-1.1l-7.4-15.9C80.4,55.2,80,55.4,79.8,55.5z"/>
		<path fill="#2D2D2D" d="M90.1,61.8c-1.5-0.5-3.2-0.5-5-0.2c-0.1,0-0.1,0-0.2,0l1.5,3.2c0.1,0,0.3,0,0.5,0c3.9,0,7.1,3.2,7.1,7.1
			c0,3.9-3.2,7.1-7.1,7.1c0,0,0,0,0,0c-1.9,0-3.7-0.8-5-2.1c-1.4-1.4-2.1-3.2-2-5.1c0-0.9,0.2-1.8,0.6-2.7c0.3-0.8,0.8-1.4,1.5-1.8
			l-1.7-3.6c-1.1,1.1-3.5,3.6-3.7,7.5c-0.4,5.6,3.7,10.5,9.3,11.2c3,0.3,6-0.6,8.2-2.6c2.2-2,3.5-4.9,3.5-7.9
			C97.5,67.2,94.5,63.2,90.1,61.8z"/>
		<path fill="#2D2D2D" d="M88.3,51.8c1.1-0.2,2-0.7,2.7-1.4c1.2-1.1,1.6-2.2,1.2-3.5l-1.9-5.5c-0.1-0.4-0.3-0.8-0.6-1.2c0,0,0,0,0,0
			c-0.4-0.6-1-1-1.7-1.2c-1.8-0.5-6.4-1.9-10.2-0.5c-4.9,1.8-8.2,6.1-8.8,6.8c-0.1,3-2.6,5.4-5.6,5.4H50.4c-3.1,0-5.6-2.5-5.6-5.6
			l0-0.9L33,41.5c-0.7-0.2-1.4,0-1.9,0.5c-0.5,0.5-0.7,1.2-0.6,1.9c0.4,2.1,1.8,3.8,3.8,4.6l18.7,5.8c0,0,0,0,0,0c0,0,0,0,0.1,0
			h10.4c4.2,0,7.3,1.9,9.6,5.8c0.9-1.2,3.4-4.1,6.1-5.4C81.6,53.5,85.9,52.4,88.3,51.8z M74.6,47.8c-0.6-2.5,1.8-5.2,5.4-6
			c0.7-0.1,1.3-0.2,2-0.2c2.8,0,5,1.3,5.4,3.3c0.3,1.2-0.2,2.6-1.2,3.7c-1,1.1-2.5,1.9-4.2,2.3c-0.7,0.1-1.3,0.2-2,0.2
			C77.2,51.1,75,49.8,74.6,47.8z"/>
		<path fill="#2D2D2D" d="M63.6,55.3H53.4c-0.1,1.7-0.2,7.1,1,9.9c0.8,1.8,2.2,3.7,3.2,5c0.9,1.1,2.3,1.8,3.8,1.8h7.4
			c1.8,0,3.4-1,4.2-2.6l0.1-0.2c1-2.1,1-4.4,0.2-6.5C71.1,57.6,68.1,55.3,63.6,55.3z M61.5,58.2h3.1c0.3,0,0.5,0.2,0.5,0.5
			c0,0.3-0.2,0.5-0.5,0.5h-3.1c-0.3,0-0.5-0.2-0.5-0.5C60.9,58.5,61.2,58.2,61.5,58.2z M66.5,69.4h-5.1c-2,0-3.6-1.6-3.6-3.6
			c0-2,1.6-3.6,3.6-3.6h5.1c2,0,3.6,1.6,3.6,3.6C70.1,67.8,68.5,69.4,66.5,69.4z"/>
		<path fill="#2D2D2D" d="M81.7,49.9c1.5-0.3,2.7-1,3.6-1.9c0.8-0.9,1.2-1.8,1-2.7c-0.3-1.5-2.1-2.5-4.4-2.5c-0.6,0-1.2,0.1-1.8,0.2
			c-2.9,0.7-5,2.8-4.6,4.7c0.3,1.5,2.1,2.5,4.4,2.5C80.5,50.1,81.1,50,81.7,49.9z"/>
	</g>
</g>
</svg>
