<?xml version="1.0" encoding="utf-8"?>
<!-- Generator: Adobe Illustrator 23.0.0, SVG Export Plug-In . SVG Version: 6.00 Build 0)  -->
<svg version="1.1" id="Layer_1" xmlns="http://www.w3.org/2000/svg" xmlns:xlink="http://www.w3.org/1999/xlink" x="0px" y="0px"
	 viewBox="0 0 128 128" enable-background="new 0 0 128 128" xml:space="preserve">
<g>
	<g>
		<linearGradient id="SVGID_1_" gradientUnits="userSpaceOnUse" x1="80.5606" y1="66.5535" x2="54.9944" y2="58.0314">
			<stop  offset="0" style="stop-color:#2D2D2D"/>
			<stop  offset="1" style="stop-color:#2D2D2D"/>
		</linearGradient>
		<path fill-rule="evenodd" clip-rule="evenodd" fill="url(#SVGID_1_)" d="M98.2,23.1C86.8,22.2,76,18.6,65.5,12.4h-0.1
			C54.9,18.6,44,22.2,32.7,23.1c-3.6,0.3-7,0.3-10.1,0l-3.7-0.5c-0.1,5.2-0.1,10.9,0.1,17.2c0.3,12.5,1.2,21.7,2.6,27.3
			c4.2,16.3,12.7,29.3,25.7,38.9c4,3,8.2,5.5,12.7,7.6c2.2,1,4,1.7,5.5,2.1h0.1c1.5-0.4,3.8-1.3,6.9-2.8c3.2-1.4,8.4-5.2,15.6-11.3
			c7.2-6.1,12.6-14.5,16.3-25.2c3.7-10.7,5.3-21,5-30.9c-0.3-9.9-0.4-17.4-0.2-22.4C105.3,23.3,101.7,23.3,98.2,23.1z M119.5,13.3
			c-0.2,6.3-0.2,15.5,0.2,27.7c0.4,12.2-1.6,24.9-6.1,38.2c-4.5,13.2-11.2,23.6-20.1,31.1c-8.8,7.5-15.3,12.2-19.2,14
			c-4,1.8-6.8,2.9-8.6,3.4h-0.1c-1.7-0.5-4-1.3-6.7-2.6c-5.5-2.5-10.7-5.6-15.7-9.3C27.3,104,16.7,88,11.6,67.8
			c-1.7-6.9-2.8-18.2-3.2-33.8c-0.2-7.7-0.2-14.7-0.1-21.3l4.6,0.6c4,0.4,8.1,0.4,12.5,0c13.9-1.1,27.4-5.5,40.4-13.2l0,0l0,0
			c13,7.7,26.4,12.1,40.4,13.2C110.5,13.8,114.9,13.8,119.5,13.3z"/>
		<path fill="#9C9C9C" d="M65.6,128C65.6,128,65.6,128,65.6,128c-1.8-0.5-4.1-1.4-6.8-2.6c-5.5-2.5-10.8-5.6-15.7-9.3
			C27.2,104.2,16.5,88,11.3,67.9C9.6,61,8.5,49.6,8.1,34.1C7.9,26.4,7.9,19.3,8,12.8c0-0.1,0-0.1,0.1-0.2c0.1,0,0.1-0.1,0.2-0.1
			l4.6,0.6c3.9,0.4,8.1,0.4,12.4,0C39.2,12.1,52.7,7.7,65.6,0C65.7,0,65.9,0,66,0.1c12.9,7.6,26.4,12,40.2,13.1
			c4.3,0.4,8.8,0.3,13.3-0.1c0.1,0,0.1,0,0.2,0.1c0.1,0,0.1,0.1,0.1,0.2c-0.2,6.3-0.2,15.6,0.2,27.7c0.4,12.2-1.6,25-6.1,38.2
			c-4.5,13.2-11.3,23.7-20.1,31.2c-8.8,7.5-15.3,12.3-19.3,14.1c-3.9,1.8-6.8,2.9-8.6,3.4C65.8,128,65.7,128,65.6,128
			C65.7,128,65.6,128,65.6,128z M8.5,13.1c-0.1,6.4-0.1,13.5,0.1,21c0.4,15.5,1.5,26.9,3.2,33.7c5.1,20,15.8,36.1,31.6,47.9
			c4.9,3.7,10.2,6.8,15.6,9.3c2.7,1.2,5,2.1,6.7,2.6c1.7-0.5,4.6-1.6,8.5-3.4c4-1.8,10.4-6.5,19.2-14c8.8-7.5,15.5-18,20-31
			c4.5-13.1,6.5-26,6.1-38.1c-0.4-11.9-0.5-21.2-0.2-27.4c-4.5,0.4-8.9,0.4-13.1,0.1C92.3,12.6,78.7,8.2,65.8,0.5
			c-13,7.6-26.6,12-40.4,13.1c-4.4,0.4-8.6,0.4-12.5,0L8.5,13.1z M65.4,115.9C65.4,115.9,65.4,115.9,65.4,115.9c-0.1,0-0.1,0-0.2,0
			c-1.4-0.4-3.3-1.1-5.5-2.1c-4.5-2-8.8-4.6-12.7-7.6c-12.9-9.6-21.6-22.8-25.8-39c-1.4-5.7-2.3-14.9-2.6-27.4
			c-0.2-6.3-0.2-12.1-0.1-17.3c0-0.1,0-0.1,0.1-0.2c0.1,0,0.1-0.1,0.2-0.1l3.7,0.5c3.1,0.3,6.5,0.3,10.1,0
			c11.2-0.9,22.2-4.5,32.6-10.7c0,0,0.1,0,0.1,0c0,0,0.1,0,0.2,0C76,18.3,87,21.9,98.2,22.8c3.5,0.3,7.1,0.2,10.8-0.1
			c0.1,0,0.1,0,0.2,0.1c0.1,0,0.1,0.1,0.1,0.2c-0.2,5-0.1,12.6,0.2,22.4c0.3,9.9-1.3,20.4-5,31c-3.7,10.7-9.2,19.2-16.3,25.3
			c-7.2,6.1-12.4,9.9-15.6,11.4C69.3,114.5,67,115.5,65.4,115.9C65.5,115.9,65.5,115.9,65.4,115.9z M19.1,22.8
			c-0.1,5.1-0.1,10.8,0.1,17c0.3,12.5,1.2,21.7,2.6,27.3c4.1,16.2,12.8,29.2,25.6,38.8c3.9,3,8.2,5.5,12.6,7.5c2.2,1,4,1.6,5.4,2
			c1.5-0.4,3.8-1.3,6.9-2.8c3.2-1.4,8.4-5.2,15.5-11.3c7.1-6,12.6-14.5,16.2-25.1c3.6-10.6,5.3-21,5-30.8
			c-0.3-9.7-0.4-17.1-0.2-22.2c-3.6,0.3-7.2,0.3-10.6,0.1c-11.3-0.9-22.2-4.5-32.7-10.7C55,18.8,44,22.4,32.7,23.3
			c-3.6,0.3-7,0.3-10.2,0L19.1,22.8z"/>
	</g>
	<g>
		<path fill="none" d="M48.8,69l-4.2-4.2l-2,2c0,0,0,0,0,0c-0.1,1.6-0.2,3.1-0.4,4.5l2.1,2.1L48.8,69z"/>
		<path fill="none" d="M42.2,46.9c0.2,1.4,0.3,2.9,0.4,4.4c0,0,0,0,0,0l2.2,2.2l4.3-4.4l-4.5-4.6L42.2,46.9z"/>
		<rect x="46.5" y="61" transform="matrix(0.7071 -0.7071 0.7071 0.7071 -30.7261 53.8188)" fill="none" width="6.2" height="5.9"/>
		<polygon fill="none" points="58.9,68.9 54.6,64.5 50.1,69 54.5,73.3 		"/>
		<polygon fill="none" points="54.1,54 49.8,49.7 45.5,54.2 49.7,58.4 		"/>
		<polygon fill="none" points="50.4,49.1 54.7,53.4 59,49.1 54.6,44.8 		"/>
		<polygon fill="none" points="58.9,58.9 54.7,54.7 50.4,59 54.6,63.2 		"/>
		
			<rect x="76.4" y="60.9" transform="matrix(0.7071 -0.7071 0.7071 0.7071 -22.0077 74.8727)" fill="none" width="5.9" height="6.3"/>
		<path fill="none" d="M86.7,71.2c-0.1-1.3-0.2-2.8-0.3-4.4c0,0-0.1,0-0.1-0.1l-2-2L80.2,69l4.4,4.4L86.7,71.2z"/>
		<path fill="none" d="M49.1,59l-4.2-4.2l-2,2c0,0,0,0,0,0c0,0.7,0,1.4,0,2.1c0,0.9,0,1.9,0,2.8l1.8,1.8L49.1,59z"/>
		<path fill="none" d="M84.3,44.5l-4.4,4.4l4.4,4.4l2-2c0,0,0.1-0.1,0.1-0.1c0.1-1.4,0.2-2.8,0.3-4.3L84.3,44.5z"/>
		<polygon fill="none" points="68.8,68.9 64.5,64.6 60.2,68.9 64.5,73.2 		"/>
		<polygon fill="none" points="78.8,69 74.4,64.5 70.1,68.9 74.5,73.3 		"/>
		<polygon fill="none" points="63.8,63.9 59.5,59.6 55.2,63.9 59.5,68.2 		"/>
		<polygon fill="none" points="73.8,63.9 69.4,59.6 65.1,63.9 69.4,68.2 		"/>
		<path fill="none" d="M44.2,54.2l-1.5-1.5c0,0.9,0.1,1.9,0.1,2.9L44.2,54.2z"/>
		<path fill="none" d="M79.9,59l4.4,4.4l2-2c0-0.8,0-1.7,0-2.6c0-0.2,0-1,0-2.3l-2-2L79.9,59z"/>
		<path fill="none" d="M86.4,65.5c0-0.9-0.1-1.8-0.1-2.7L85,64.1L86.4,65.5z"/>
		<rect x="61.5" y="46.2" transform="matrix(0.7066 -0.7076 0.7076 0.7066 -15.8377 60.03)" fill="none" width="5.9" height="5.9"/>
		<path fill="none" d="M85,54l1.3,1.3c0-0.8,0-1.7,0.1-2.7L85,54z"/>
		<polygon fill="none" points="60.2,58.9 64.5,63.2 68.8,58.9 64.5,54.6 		"/>
		<polygon fill="none" points="65.1,54 69.4,58.2 73.6,54 69.3,49.8 		"/>
		<polygon fill="none" points="55.4,54 59.5,58.3 63.8,54 59.6,49.8 		"/>
		<polygon fill="none" points="74.9,54 79.3,58.4 83.7,54 79.3,49.6 		"/>
		<polygon fill="none" points="70.1,58.9 74.4,63.2 78.6,59 74.2,54.7 		"/>
		<polygon fill="none" points="70,49.1 74.2,53.4 78.6,48.9 74.4,44.7 		"/>
		<path fill="none" d="M42.8,62.9c0,0.8-0.1,1.7-0.1,2.5l1.3-1.3L42.8,62.9z"/>
		<path fill="none" d="M59.5,69.5L55.1,74l4.1,4.1c0.1,0,0.2,0,0.3,0l4.3-4.3L59.5,69.5z"/>
		<path fill="none" d="M61,78c1.1,0,2.3-0.1,3.5-0.1c1.2,0,2.4,0,3.6,0.1l-3.5-3.5L61,78z"/>
		<path fill="none" d="M69.4,69.6l-4.3,4.3l4.3,4.3c0.1,0,0.2,0,0.3,0l4.1-4.1L69.4,69.6z"/>
		<path fill="none" d="M70.9,78.2c2.9,0.2,5.5,0.6,7.8,1.1l0.1-0.1l-4.4-4.5L70.9,78.2z"/>
		<path fill="none" d="M50.1,79l0.2,0.2c2.2-0.5,4.8-0.8,7.7-1l-3.5-3.5L50.1,79z"/>
		<path fill="none" d="M41.3,77.8C41.3,77.8,41.3,77.8,41.3,77.8c-0.2,0.7-0.3,1.4-0.5,2.1c0,0,0,0,0.1,0l1.7,1.7
			c1.6-0.7,3.4-1.4,5.7-1.9c0,0,0,0,0,0l0.6-0.6l-4.4-4.3L41.3,77.8z"/>
		<path fill="none" d="M39.7,83.1c0.6-0.4,1.2-0.7,1.9-1.1l-1.1-1.1C40.2,81.7,40,82.4,39.7,83.1z"/>
		<path fill="none" d="M42.2,72.4c-0.2,1.3-0.4,2.6-0.6,3.8l2.2-2.2L42.2,72.4z"/>
		<path fill="none" d="M80.2,79.1l0.6,0.6c2.3,0.6,4.1,1.2,5.7,2l1.6-1.6c-0.2-0.7-0.4-1.5-0.6-2.4l-2.9-2.9L80.2,79.1z"/>
		<polygon fill="none" points="49.5,69.6 45.1,74 49.5,78.4 53.8,74 		"/>
		<path fill="none" d="M85.2,74l2,2c-0.2-1.1-0.3-2.3-0.4-3.6L85.2,74z"/>
		<path fill="none" d="M89.3,83.2c-0.3-0.5-0.6-1.2-0.9-2.1l-1,1C88.1,82.4,88.7,82.8,89.3,83.2z"/>
		<polygon fill="none" points="79.5,69.6 75.1,74 79.5,78.5 83.9,74 		"/>
		<path fill="#2D2D2D" d="M91.1,83.9c-0.1,0-0.1,0-0.1,0c-1.3-1.5-3.8-5-3.8-25.1c0-0.1-0.1-9.3,1.1-17c0.5-3.1,1.2-5.9,2.3-7.9
			c0.2,0,0.3,0.1,0.5,0.1c0.8,0,1.6-0.4,2.3-1.1c1.1-1.2,1.4-2.7,0.6-3.5c-0.3-0.3-0.7-0.5-1.2-0.5c-0.8,0-1.6,0.4-2.3,1.1
			c-0.9,0.9-1.2,2-1,2.9c-0.8,0.5-3,1.7-6.2,2.7c-0.4-0.6-1.1-1-1.9-1c-0.2,0-0.4,0-0.5,0.1l-4.3,1.1C75.7,36.1,75,37,75,38
			c-1.7,0.2-3.8,0.4-6.1,0.4c-0.2-1-1.1-1.8-2.2-1.8h-4.4c-1.1,0-2,0.8-2.2,1.8c-0.9,0-1.6-0.1-2.2-0.1c-1.4,0-2.4-0.1-3.9-0.3
			c0-1-0.7-2-1.7-2.2l-4.3-1.1c-0.2,0-0.4-0.1-0.5-0.1c-0.8,0-1.5,0.4-1.9,1C43.3,35,41,34,39.4,33c0.3-0.8-0.1-2-1-2.9
			c-0.7-0.7-1.5-1.1-2.3-1.1c-0.5,0-0.9,0.2-1.2,0.5c-0.8,0.8-0.5,2.4,0.6,3.5c0.7,0.7,1.5,1.1,2.3,1.1c0.1,0,0.1,0,0.2,0
			c0,0,0,0.1,0,0.1c1,2.2,1.8,4.8,2.4,7.7c1,4.7,1.5,10.4,1.5,17c0,14.4-2,21.6-3.6,25.1c-0.1,0-0.3-0.1-0.4-0.1
			c-0.8,0-1.6,0.4-2.3,1.1c-1.1,1.2-1.4,2.7-0.6,3.5c0.3,0.3,0.7,0.5,1.2,0.5h0c0.8,0,1.6-0.4,2.3-1.1c1.1-1.1,1.4-2.5,0.7-3.4
			c3.2-2.2,10.5-5.7,25.3-5.7c14.8,0,22.2,3.5,25.3,5.7c-0.6,0.8-0.3,2.2,0.8,3.3c0.7,0.7,1.5,1.1,2.3,1.1c0,0,0,0,0,0
			c0.5,0,0.9-0.2,1.2-0.5c0.8-0.8,0.5-2.4-0.6-3.5C92.7,84.3,91.9,83.9,91.1,83.9z M87.3,76.1l-2-2l1.6-1.6
			C86.9,73.8,87.1,75,87.3,76.1z M49.7,39.9C49.7,39.9,49.7,39.9,49.7,39.9l2,2l2.2,2.2l-4.2,4.3l-4.5-4.6l1.9-1.9l2.1-2.1
			L49.7,39.9z M62.2,41.2h4.4c0.1,0,0.2,0,0.3,0l-0.7,0.7l-1.7,1.7l-1.7-1.7L62,41.2C62.1,41.2,62.2,41.2,62.2,41.2z M68.7,49.1
			l-4.2,4.2l-4.2-4.2l4.2-4.2L68.7,49.1z M79.2,39.9l0.4-0.1l2.1,2.1l1.9,1.9l-4.4,4.4L75,44l2.1-2.1L79.2,39.9z M74.9,54l4.4-4.4
			l4.4,4.4l-4.4,4.4L74.9,54z M78.6,59l-4.2,4.2l-4.3-4.3l4.2-4.2L78.6,59z M84.3,54.6l2,2c0,1.3,0,2.2,0,2.3c0,0.9,0,1.8,0,2.6
			l-2,2L79.9,59L84.3,54.6z M86.3,62.8c0,1,0,1.9,0.1,2.7L85,64.1L86.3,62.8z M86.3,55.3L85,54l1.4-1.4
			C86.4,53.6,86.3,54.5,86.3,55.3z M86.3,51.3l-2,2l-4.4-4.4l4.4-4.4l2.4,2.4c-0.1,1.5-0.2,3-0.3,4.3C86.4,51.3,86.4,51.3,86.3,51.3
			z M78.6,48.9l-4.4,4.4L70,49.1l4.4-4.4L78.6,48.9z M73.6,54l-4.2,4.2L65.1,54l4.2-4.2L73.6,54z M68.8,58.9l-4.3,4.3l-4.3-4.3
			l4.3-4.3L68.8,58.9z M63.8,54l-4.3,4.3L55.4,54l4.3-4.3L63.8,54z M42.8,62.9l1.2,1.2l-1.3,1.3C42.8,64.6,42.8,63.8,42.8,62.9z
			 M42.7,52.7l1.5,1.5l-1.4,1.4C42.8,54.6,42.8,53.6,42.7,52.7z M42.8,61.6c0-0.9,0-1.8,0-2.8c0-0.7,0-1.4,0-2.1c0,0,0,0,0,0l2-2
			l4.2,4.2l-4.4,4.4L42.8,61.6z M45.5,54.2l4.3-4.4l4.3,4.3l-4.3,4.3L45.5,54.2z M54.7,54.7l4.2,4.2l-4.3,4.3L50.4,59L54.7,54.7z
			 M54.7,53.4l-4.3-4.3l4.2-4.3l4.4,4.4L54.7,53.4z M49.1,49.1l-4.3,4.4l-2.2-2.2c0,0,0,0,0,0c-0.1-1.5-0.2-3-0.4-4.4l2.4-2.4
			L49.1,49.1z M42.6,66.8C42.7,66.8,42.7,66.8,42.6,66.8l2-2l4.2,4.2l-4.4,4.4l-2.1-2.1C42.4,69.8,42.6,68.3,42.6,66.8z M45.3,64.1
			l4.4-4.4l4.2,4.2l-4.4,4.4L45.3,64.1z M54.6,64.5l4.3,4.3l-4.4,4.4L50.1,69L54.6,64.5z M55.2,63.9l4.3-4.3l4.3,4.3l-4.3,4.3
			L55.2,63.9z M64.5,64.6l4.3,4.3l-4.3,4.3l-4.3-4.3L64.5,64.6z M65.1,63.9l4.3-4.4l4.3,4.3l-4.4,4.4L65.1,63.9z M74.4,64.5l4.4,4.4
			l-4.4,4.4l-4.4-4.4L74.4,64.5z M75.1,63.9l4.2-4.2l4.4,4.4l-4.2,4.2L75.1,63.9z M84.3,64.8l2,2c0,0,0.1,0.1,0.1,0.1
			c0.1,1.6,0.2,3.1,0.3,4.4l-2.1,2.1L80.2,69L84.3,64.8z M87.4,41.9c-0.2,1.3-0.4,2.5-0.5,3.8L85,43.8l1.9-1.9l0.6-0.6
			C87.5,41.5,87.5,41.7,87.4,41.9z M89.6,34c-0.5,1-0.9,2.2-1.3,3.5l-1.9-1.9C87.9,34.9,89,34.4,89.6,34z M83.7,36.6
			c0.6-0.2,1.2-0.4,1.8-0.6l2.6,2.6c-0.1,0.4-0.2,0.8-0.3,1.2c0,0-0.1,0-0.1,0.1l-2.1,2.1l-1.3,1.3l-1.3-1.3l-2.4-2.4l1.4-0.4
			C83.2,38.8,83.9,37.7,83.7,36.6z M75.2,38.9c0.4,0.8,1.1,1.3,2,1.3c0.1,0,0.2,0,0.3,0l-1.6,1.6l-1.5,1.5l-1.5-1.5l-2.5-2.5
			C72.2,39.3,73.8,39.1,75.2,38.9z M69.6,39.9l2,2l2.1,2.1l-4.4,4.4l-4.2-4.2l2.4-2.4L69.6,39.9z M61.4,41.9l2.4,2.4l-4.2,4.2
			l-4.4-4.4l2.2-2.2l2-2L61.4,41.9z M53.7,39c1.6,0.3,2.6,0.3,4.1,0.3c0.2,0,0.5,0,0.8,0l-2.5,2.6l-1.5,1.6L53,41.9l-1.6-1.6
			c0.1,0,0.2,0,0.3,0C52.6,40.3,53.4,39.8,53.7,39z M40.4,37.7C40,36.3,39.5,35,39,33.8c1,0.6,2.2,1.2,3.6,1.8L40.4,37.7z
			 M40.7,38.7l2.8-2.8c0.6,0.2,1.2,0.4,1.7,0.6c-0.2,1.1,0.5,2.3,1.7,2.6l1.4,0.4l-2.4,2.4l-1.3,1.3l-1.3-1.3l-2.5-2.5
			C40.8,39.1,40.7,38.9,40.7,38.7z M41.4,41.9c-0.1-0.3-0.1-0.5-0.2-0.8l0.8,0.8l1.9,1.9l-1.9,1.9C41.9,44.4,41.7,43.1,41.4,41.9z
			 M42.2,72.4l1.6,1.6l-2.2,2.2C41.8,75,42,73.8,42.2,72.4z M39.7,83.1c0.3-0.7,0.5-1.4,0.8-2.2l1.1,1.1
			C40.9,82.4,40.3,82.8,39.7,83.1z M48.2,79.7C48.2,79.7,48.2,79.7,48.2,79.7c-2.2,0.6-4.1,1.3-5.7,2l-1.7-1.7c0,0,0,0-0.1,0
			c0.2-0.7,0.3-1.3,0.5-2.1c0,0,0,0,0,0l3.1-3.2l4.4,4.3L48.2,79.7z M45.1,74l4.4-4.4l4.4,4.4l-4.4,4.4L45.1,74z M50.3,79.2L50.1,79
			l4.4-4.4l3.5,3.5C55.1,78.4,52.6,78.7,50.3,79.2z M59.3,78.1L55.1,74l4.4-4.4l4.3,4.3l-4.3,4.3C59.5,78.1,59.4,78.1,59.3,78.1z
			 M64.5,77.9c-1.2,0-2.4,0-3.5,0.1l3.5-3.5L68,78C66.9,78,65.7,77.9,64.5,77.9z M69.4,78.1l-4.3-4.3l4.3-4.3l4.4,4.4l-4.1,4.1
			C69.6,78.1,69.5,78.1,69.4,78.1z M78.7,79.2c-2.3-0.5-4.8-0.8-7.8-1.1l3.5-3.5l4.4,4.5L78.7,79.2z M75.1,74l4.4-4.4l4.4,4.4
			l-4.4,4.4L75.1,74z M80.7,79.7l-0.6-0.6l4.4-4.4l2.9,2.9c0.2,0.9,0.4,1.7,0.6,2.4l-1.6,1.6C84.9,80.9,83,80.3,80.7,79.7z
			 M87.3,82.1l1-1c0.3,0.9,0.6,1.6,0.9,2.1C88.7,82.8,88.1,82.4,87.3,82.1z"/>
	</g>
</g>
</svg>
