<?xml version="1.0" encoding="utf-8"?>
<!-- Generator: Adobe Illustrator 23.0.0, SVG Export Plug-In . SVG Version: 6.00 Build 0)  -->
<svg version="1.1" id="Layer_1" xmlns="http://www.w3.org/2000/svg" xmlns:xlink="http://www.w3.org/1999/xlink" x="0px" y="0px"
	 viewBox="0 0 128 128" enable-background="new 0 0 128 128" xml:space="preserve">
<g>
	<g>
		<linearGradient id="SVGID_1_" gradientUnits="userSpaceOnUse" x1="80.5606" y1="66.5535" x2="54.9944" y2="58.0314">
			<stop  offset="0" style="stop-color:#2D2D2D"/>
			<stop  offset="1" style="stop-color:#2D2D2D"/>
		</linearGradient>
		<path fill-rule="evenodd" clip-rule="evenodd" fill="url(#SVGID_1_)" d="M98.2,23.1C86.8,22.2,76,18.6,65.5,12.4h-0.1
			C54.9,18.6,44,22.2,32.7,23.1c-3.6,0.3-7,0.3-10.1,0l-3.7-0.5c-0.1,5.2-0.1,10.9,0.1,17.2c0.3,12.5,1.2,21.7,2.6,27.3
			c4.2,16.3,12.7,29.3,25.7,38.9c4,3,8.2,5.5,12.7,7.6c2.2,1,4,1.7,5.5,2.1h0.1c1.5-0.4,3.8-1.3,6.9-2.8c3.2-1.4,8.4-5.2,15.6-11.3
			c7.2-6.1,12.6-14.5,16.3-25.2c3.7-10.7,5.3-21,5-30.9c-0.3-9.9-0.4-17.4-0.2-22.4C105.3,23.3,101.7,23.3,98.2,23.1z M119.5,13.3
			c-0.2,6.3-0.2,15.5,0.2,27.7c0.4,12.2-1.6,24.9-6.1,38.2c-4.5,13.2-11.2,23.6-20.1,31.1c-8.8,7.5-15.3,12.2-19.2,14
			c-4,1.8-6.8,2.9-8.6,3.4h-0.1c-1.7-0.5-4-1.3-6.7-2.6c-5.5-2.5-10.7-5.6-15.7-9.3C27.3,104,16.7,88,11.6,67.8
			c-1.7-6.9-2.8-18.2-3.2-33.8c-0.2-7.7-0.2-14.7-0.1-21.3l4.6,0.6c4,0.4,8.1,0.4,12.5,0c13.9-1.1,27.4-5.5,40.4-13.2l0,0l0,0
			c13,7.7,26.4,12.1,40.4,13.2C110.5,13.8,114.9,13.8,119.5,13.3z"/>
		<path fill="#9C9C9C" d="M65.6,128C65.6,128,65.6,128,65.6,128c-1.8-0.5-4.1-1.4-6.8-2.6c-5.5-2.5-10.8-5.6-15.7-9.3
			C27.2,104.2,16.5,88,11.3,67.9C9.6,61,8.5,49.6,8.1,34.1C7.9,26.4,7.9,19.3,8,12.8c0-0.1,0-0.1,0.1-0.2c0.1,0,0.1-0.1,0.2-0.1
			l4.6,0.6c3.9,0.4,8.1,0.4,12.4,0C39.2,12.1,52.7,7.7,65.6,0C65.7,0,65.9,0,66,0.1c12.9,7.6,26.4,12,40.2,13.1
			c4.3,0.4,8.8,0.3,13.3-0.1c0.1,0,0.1,0,0.2,0.1c0.1,0,0.1,0.1,0.1,0.2c-0.2,6.3-0.2,15.6,0.2,27.7c0.4,12.2-1.6,25-6.1,38.2
			c-4.5,13.2-11.3,23.7-20.1,31.2c-8.8,7.5-15.3,12.3-19.3,14.1c-3.9,1.8-6.8,2.9-8.6,3.4C65.8,128,65.7,128,65.6,128
			C65.7,128,65.6,128,65.6,128z M8.5,13.1c-0.1,6.4-0.1,13.5,0.1,21c0.4,15.5,1.5,26.9,3.2,33.7c5.1,20,15.8,36.1,31.6,47.9
			c4.9,3.7,10.2,6.8,15.6,9.3c2.7,1.2,5,2.1,6.7,2.6c1.7-0.5,4.6-1.6,8.5-3.4c4-1.8,10.4-6.5,19.2-14c8.8-7.5,15.5-18,20-31
			c4.5-13.1,6.5-26,6.1-38.1c-0.4-11.9-0.5-21.2-0.2-27.4c-4.5,0.4-8.9,0.4-13.1,0.1C92.3,12.6,78.7,8.2,65.8,0.5
			c-13,7.6-26.6,12-40.4,13.1c-4.4,0.4-8.6,0.4-12.5,0L8.5,13.1z M65.4,115.9C65.4,115.9,65.4,115.9,65.4,115.9c-0.1,0-0.1,0-0.2,0
			c-1.4-0.4-3.3-1.1-5.5-2.1c-4.5-2-8.8-4.6-12.7-7.6c-12.9-9.6-21.6-22.8-25.8-39c-1.4-5.7-2.3-14.9-2.6-27.4
			c-0.2-6.3-0.2-12.1-0.1-17.3c0-0.1,0-0.1,0.1-0.2c0.1,0,0.1-0.1,0.2-0.1l3.7,0.5c3.1,0.3,6.5,0.3,10.1,0
			c11.2-0.9,22.2-4.5,32.6-10.7c0,0,0.1,0,0.1,0c0,0,0.1,0,0.2,0C76,18.3,87,21.9,98.2,22.8c3.5,0.3,7.1,0.2,10.8-0.1
			c0.1,0,0.1,0,0.2,0.1c0.1,0,0.1,0.1,0.1,0.2c-0.2,5-0.1,12.6,0.2,22.4c0.3,9.9-1.3,20.4-5,31c-3.7,10.7-9.2,19.2-16.3,25.3
			c-7.2,6.1-12.4,9.9-15.6,11.4C69.3,114.5,67,115.5,65.4,115.9C65.5,115.9,65.5,115.9,65.4,115.9z M19.1,22.8
			c-0.1,5.1-0.1,10.8,0.1,17c0.3,12.5,1.2,21.7,2.6,27.3c4.1,16.2,12.8,29.2,25.6,38.8c3.9,3,8.2,5.5,12.6,7.5c2.2,1,4,1.6,5.4,2
			c1.5-0.4,3.8-1.3,6.9-2.8c3.2-1.4,8.4-5.2,15.5-11.3c7.1-6,12.6-14.5,16.2-25.1c3.6-10.6,5.3-21,5-30.8
			c-0.3-9.7-0.4-17.1-0.2-22.2c-3.6,0.3-7.2,0.3-10.6,0.1c-11.3-0.9-22.2-4.5-32.7-10.7C55,18.8,44,22.4,32.7,23.3
			c-3.6,0.3-7,0.3-10.2,0L19.1,22.8z"/>
	</g>
	<g>
		<path fill="#2D2D2D" d="M71.4,73.3c-0.1-0.6-1.6-0.8-2.6-0.9c-0.6-0.1-1.1-0.2-1.4-0.3c-0.6-0.3-1-0.7-1.2-1
			c-0.4,0.2-0.8,0.3-1.2,0.3c-0.4,0-0.8-0.1-1.2-0.3c-0.2,0.3-0.6,0.7-1.2,1c-0.3,0.1-0.8,0.2-1.4,0.3c-1,0.1-2.4,0.4-2.6,0.9
			c-0.1,0.4,0.5,1,1.2,1.5c0.6,0.5,1.2,1,1.5,1.6c0.2,0.5,0.4,1,0.5,1.4c0.2,0.5,0.3,0.9,0.5,1.2c0.5,0.5,1.3,0.5,1.3,0.5
			c0.1,0,0.2,0,0.3,0.1l1.2,1.1l1-1c0.1-0.1,0.2-0.1,0.3-0.1c0,0,0.8-0.1,1.3-0.5c0.3-0.3,0.4-0.7,0.5-1.2c0.1-0.4,0.2-0.8,0.5-1.4
			c0.3-0.6,0.9-1.1,1.5-1.6C70.9,74.2,71.5,73.7,71.4,73.3z"/>
		<circle fill="#2D2D2D" cx="65" cy="61.2" r="2.9"/>
		<path fill="#2D2D2D" d="M54.4,75.1c1.1-0.8,1.8-2,1.7-3c-0.1-2.7,0.6-9.7,5.1-10.6c0-0.1,0-0.2,0-0.3c0-1,0.4-1.9,1-2.6
			c-1.2-0.8-3.4-2.6-3.4-4.8c0-0.5,0-1,0-1.6c0-2.7,0.1-6-2.5-7.9c-3.1-2.3-8.4-0.1-9.1,0.4c-0.1,0.1-0.3,0.2-0.5,0.3
			C37,51.6,35,56.3,35,59.2c0,6.8,5.1,14.2,11.4,16.4C49.5,76.7,52.4,76.5,54.4,75.1z M49.7,45.8c0-0.4,0.1-0.6,0.1-0.6
			s0,0.2,0.1,0.6c0.1,0.4,0.2,0.9,0.4,1.6c0.1,0.3,0.2,0.7,0.3,1c0.1,0.4,0.3,0.7,0.4,1.1c0.2,0.4,0.3,0.7,0.5,1.1
			c0.2,0.4,0.4,0.7,0.6,1.1c0.1,0.2,0.2,0.4,0.3,0.6c0.1,0.2,0.2,0.4,0.4,0.5c0.3,0.3,0.5,0.7,0.8,1c0.3,0.3,0.5,0.6,0.8,0.9
			c0.3,0.3,0.5,0.5,0.8,0.7c0.5,0.4,0.9,0.8,1.2,1c0.3,0.2,0.5,0.4,0.5,0.4s-0.2-0.1-0.6-0.2c-0.4-0.2-0.9-0.4-1.5-0.8
			c-0.6-0.4-1.2-0.9-1.8-1.5c-0.3-0.3-0.6-0.6-0.9-1c-0.3-0.3-0.6-0.8-0.8-1.1c-0.2-0.4-0.5-0.8-0.6-1.2c-0.2-0.4-0.3-0.8-0.5-1.2
			c-0.3-0.8-0.4-1.6-0.5-2.3C49.7,46.8,49.7,46.2,49.7,45.8z M41.6,59.2c-1.7,0.3-2.9,0.5-2.9,0.5s0.3-0.1,0.7-0.3
			c0.5-0.2,1.2-0.4,2-0.7c0.8-0.2,1.8-0.5,2.9-0.7c0.5-0.1,1.1-0.2,1.7-0.2c0.6-0.1,1.2-0.1,1.8-0.1c0.6,0,1.2,0,1.8,0
			c0.6,0,1.1,0.1,1.7,0.2c1.1,0.1,2.1,0.4,2.9,0.6c0.8,0.2,1.5,0.5,2,0.7c0.5,0.2,0.7,0.3,0.7,0.3s-0.3,0-0.8-0.1
			c-0.5-0.1-1.2-0.2-2.1-0.3c-0.4-0.1-0.9-0.1-1.4-0.2c-0.5-0.1-1-0.1-1.5-0.1c-0.5,0-1.1-0.1-1.6-0.1c-0.6,0-1.1,0-1.7,0
			c-0.6,0-1.1,0-1.7,0.1c-0.6,0-1.1,0.1-1.6,0.1C43.4,58.9,42.4,59,41.6,59.2z M45.5,69.9c-0.2,0.4-0.3,0.6-0.3,0.6s0-0.2,0.1-0.7
			c0.1-0.4,0.2-1,0.5-1.7c0.3-0.7,0.7-1.5,1.3-2.2c0.1-0.2,0.3-0.4,0.5-0.6c0.2-0.2,0.3-0.3,0.5-0.5c0.2-0.2,0.4-0.3,0.6-0.5
			l0.6-0.5c0.4-0.3,0.8-0.5,1.3-0.8c0.4-0.2,0.9-0.4,1.3-0.6c0.4-0.2,0.9-0.3,1.3-0.4c0.4-0.1,0.8-0.1,1.2-0.2c0.7-0.1,1.4,0,1.8,0
			c0.4,0,0.7,0.1,0.7,0.1s-0.2,0-0.7,0.1c-0.4,0.1-1,0.2-1.7,0.4c-0.3,0.1-0.7,0.2-1.1,0.3c-0.4,0.1-0.8,0.3-1.2,0.5
			c-0.4,0.2-0.8,0.4-1.2,0.6c-0.4,0.2-0.8,0.5-1.2,0.7l-0.6,0.4c-0.2,0.1-0.4,0.3-0.5,0.4c-0.2,0.1-0.3,0.3-0.5,0.5
			c-0.2,0.2-0.3,0.3-0.5,0.5c-0.6,0.6-1.1,1.3-1.5,1.9C46,69,45.7,69.5,45.5,69.9z"/>
		<path fill="#2D2D2D" d="M59.7,52.2c0,0.6,0,1.1,0,1.6c0.1,1.6,1.7,3.2,3.3,4.2c0.6-0.4,1.3-0.6,2.1-0.6c0.8,0,1.5,0.2,2.1,0.6
			c1.2-0.9,3-2.7,3.1-4.2c0-0.5,0-1,0-1.6c0-2.7-0.1-6.5,2.9-8.7c0.2-0.2,0.4-0.3,0.7-0.4c-0.3-1.4-2.2-10-8.8-10
			c-6.6,0-8.6,8.5-8.8,10c0.2,0.1,0.5,0.3,0.7,0.4C59.8,45.7,59.8,49.5,59.7,52.2z M67.4,52.2c0-0.6,0.1-1.3,0.3-2
			c0.1-0.7,0.4-1.5,0.5-2.2c0.4-1.5,0.7-3,1-4.2c0.3-1.1,0.5-1.9,0.5-1.9c0,0,0,0,0.1,0c0,0,0,0,0,0.1c0,0-0.1,0.8-0.2,1.9
			c-0.1,1.2-0.4,2.7-0.6,4.3c-0.1,0.8-0.2,1.6-0.3,2.3c-0.1,0.7-0.3,1.4-0.5,1.9c-0.3,1.1-0.7,1.9-0.7,1.9c0,0,0,0-0.1,0
			c0,0,0,0,0,0C67.4,54.2,67.3,53.4,67.4,52.2z M64.6,43.9c0-0.6,0-1.2,0-1.7c0-1.1,0.1-2.2,0.1-3.1c0.1-1.8,0.3-3,0.3-3
			s0.2,1.2,0.3,3c0.1,0.9,0.1,1.9,0.1,3.1c0,0.6,0,1.1,0,1.7c0,0.6,0,1.2,0,1.8c0,0.6,0,1.2,0,1.8c0,0.6,0,1.2,0,1.7
			c0,1.1-0.1,2.2-0.1,3.1c-0.1,1.8-0.3,3-0.3,3s-0.2-1.2-0.3-3c-0.1-0.9-0.1-1.9-0.1-3.1c0-0.6,0-1.1,0-1.7c0-0.6,0-1.2,0-1.8
			C64.6,45.1,64.6,44.5,64.6,43.9z M60.7,41.9C60.7,41.9,60.8,41.9,60.7,41.9c0.1,0,0.2,0.8,0.5,1.9c0.3,1.1,0.6,2.7,1,4.2
			c0.2,0.8,0.4,1.5,0.5,2.2c0.1,0.7,0.2,1.4,0.3,2c0.1,1.2,0,2,0,2c0,0,0,0-0.1,0c0,0,0,0,0,0c0,0-0.4-0.7-0.7-1.9
			c-0.2-0.6-0.3-1.2-0.5-1.9c-0.1-0.7-0.2-1.5-0.3-2.3c-0.2-1.5-0.4-3.1-0.6-4.3C60.8,42.7,60.7,42,60.7,41.9
			C60.7,41.9,60.7,41.9,60.7,41.9z"/>
		<path fill="#2D2D2D" d="M65,70.4c0.8,0,1.3-0.6,1.6-1.2c0.6-1.1,0.6-2.5,0.4-2.7c0,0-0.1-0.1-0.2-0.1c-0.2,0-0.5,0.3-0.7,0.5
			c-0.3,0.3-0.6,0.6-1,0.6c-0.4,0-0.7-0.3-1.1-0.6c-0.3-0.2-0.6-0.5-0.8-0.5c0,0,0,0-0.1,0c-0.2,0.2-0.2,1.5,0.4,2.7
			C63.8,69.8,64.2,70.4,65,70.4z"/>
		<path fill="#2D2D2D" d="M83.3,45.1c-0.3-0.2-0.4-0.3-0.5-0.3c-0.7-0.5-6-2.8-9.1-0.4c-2.6,1.9-2.5,5.2-2.5,7.9c0,0.6,0,1.1,0,1.6
			c-0.1,1.9-2,3.8-3.3,4.8c0.6,0.7,1,1.6,1,2.6c0,0.1,0,0.2,0,0.3c4.4,0.8,5.1,7.8,5,10.6c0,1.1,0.6,2.2,1.7,3c2,1.4,4.9,1.6,8,0.5
			C89.9,73.4,95,66,95,59.2C95,56.3,93,51.6,83.3,45.1z M73,56.4c0.3-0.2,0.7-0.6,1.2-1c0.2-0.2,0.5-0.5,0.8-0.7
			c0.3-0.3,0.5-0.6,0.8-0.9c0.3-0.3,0.5-0.6,0.8-1c0.1-0.2,0.2-0.3,0.4-0.5c0.1-0.2,0.2-0.4,0.3-0.6c0.2-0.4,0.4-0.7,0.6-1.1
			c0.2-0.4,0.4-0.8,0.5-1.1c0.1-0.4,0.3-0.7,0.4-1.1c0.1-0.4,0.2-0.7,0.3-1c0.2-0.6,0.3-1.2,0.4-1.6c0.1-0.4,0.1-0.6,0.1-0.6
			s0,0.2,0.1,0.6c0,0.4,0,1,0,1.6c-0.1,0.7-0.2,1.5-0.5,2.3c-0.1,0.4-0.3,0.8-0.5,1.2c-0.2,0.4-0.4,0.8-0.6,1.2
			c-0.2,0.4-0.5,0.8-0.8,1.1c-0.3,0.4-0.6,0.7-0.9,1c-0.6,0.6-1.2,1.1-1.8,1.5c-0.6,0.4-1.1,0.6-1.5,0.8c-0.4,0.2-0.6,0.2-0.6,0.2
			S72.7,56.7,73,56.4z M83.9,69.9c-0.2-0.4-0.5-0.9-0.8-1.5c-0.4-0.6-0.9-1.3-1.5-1.9c-0.1-0.2-0.3-0.3-0.5-0.5
			c-0.2-0.1-0.3-0.3-0.5-0.5c-0.2-0.1-0.3-0.3-0.5-0.4l-0.6-0.4c-0.4-0.3-0.8-0.5-1.2-0.7c-0.4-0.2-0.8-0.4-1.2-0.6
			c-0.4-0.2-0.8-0.3-1.2-0.5c-0.4-0.1-0.8-0.2-1.1-0.3c-0.7-0.2-1.3-0.3-1.7-0.4c-0.4-0.1-0.7-0.1-0.7-0.1s0.2,0,0.7-0.1
			c0.4,0,1-0.1,1.8,0c0.4,0,0.8,0.1,1.2,0.2c0.4,0.1,0.9,0.2,1.3,0.4c0.4,0.2,0.9,0.3,1.3,0.6c0.4,0.2,0.9,0.5,1.3,0.8l0.6,0.5
			c0.2,0.2,0.4,0.3,0.6,0.5c0.2,0.2,0.3,0.3,0.5,0.5c0.2,0.2,0.3,0.4,0.5,0.6c0.6,0.7,1,1.5,1.3,2.2c0.3,0.7,0.5,1.3,0.5,1.7
			c0.1,0.4,0.1,0.7,0.1,0.7S84.1,70.3,83.9,69.9z M87.9,59.2C87,59,86,58.9,84.9,58.8c-0.5-0.1-1.1-0.1-1.6-0.1
			c-0.6,0-1.1-0.1-1.7-0.1c-0.6,0-1.1,0-1.7,0c-0.6,0-1.1,0-1.6,0.1c-0.5,0-1,0.1-1.5,0.1c-0.5,0.1-0.9,0.1-1.4,0.2
			c-0.9,0.1-1.6,0.3-2.1,0.3c-0.5,0.1-0.8,0.1-0.8,0.1s0.3-0.1,0.7-0.3c0.5-0.2,1.2-0.5,2-0.7c0.8-0.2,1.8-0.5,2.9-0.6
			c0.5-0.1,1.1-0.1,1.7-0.2c0.6,0,1.2,0,1.8,0c0.6,0,1.2,0.1,1.8,0.1c0.6,0,1.1,0.1,1.7,0.2c1.1,0.2,2.1,0.4,2.9,0.7
			c0.8,0.2,1.5,0.5,2,0.7c0.5,0.2,0.7,0.3,0.7,0.3S89.6,59.4,87.9,59.2z"/>
		<path fill="#2D2D2D" d="M83.9,76.5c-1.4,0.5-2.8,0.8-4.1,0.8c-1.8,0-3.4-0.5-4.7-1.4c-1.4-1-2.2-2.5-2.1-3.8
			c0.1-2.3-0.5-8.9-4.3-9.6c-0.5,1.5-2,2.7-3.7,2.7c-1.7,0-3.2-1.1-3.7-2.7c-3.8,0.7-4.4,7.3-4.3,9.6c0.1,1.4-0.7,2.8-2.1,3.8
			c-1.3,1-2.9,1.4-4.7,1.4c-1.3,0-2.7-0.3-4.1-0.8c-0.1,0-0.2-0.1-0.2-0.1c-0.7,2.8-0.6,6.9-0.1,7.4c0.4,0.3,2.4,0.5,4.4-0.1
			c5.4-1.5,10.2-7,10.2-7c0,0,0,0,0.1-0.1c-0.2-0.4-0.7-0.8-1.2-1.2c-0.8-0.7-1.8-1.4-1.5-2.5c0.3-1.2,2-1.4,3.4-1.7
			c0.5-0.1,1-0.1,1.2-0.2c0.5-0.2,0.7-0.6,0.8-0.7c-0.3-0.4-0.5-0.8-0.7-1.4c-0.4-1-0.6-2.7,0.1-3.2c0.2-0.2,0.4-0.2,0.6-0.2
			c0.5,0,1,0.4,1.4,0.7c0.2,0.1,0.4,0.3,0.5,0.4c0,0,0.2-0.2,0.4-0.3c0.4-0.3,0.8-0.7,1.4-0.7c0.3,0,0.5,0.1,0.8,0.2
			c0.7,0.5,0.5,2.1,0.2,3c-0.2,0.6-0.5,1.2-0.8,1.6c0.1,0.2,0.3,0.5,0.8,0.7c0.2,0.1,0.7,0.2,1.2,0.2c1.4,0.2,3.1,0.5,3.4,1.7
			c0.3,1-0.7,1.8-1.5,2.5c-0.5,0.4-1,0.8-1.2,1.2c0,0.1,0,0.1-0.1,0.1c0.9,0.9,5.2,5.5,10,6.9c2.1,0.6,4,0.4,4.4,0.1
			C84.6,83.3,84.7,79.3,83.9,76.5C84,76.5,84,76.5,83.9,76.5z"/>
	</g>
</g>
</svg>
