<?xml version="1.0" encoding="utf-8"?>
<!-- Generator: Adobe Illustrator 23.0.0, SVG Export Plug-In . SVG Version: 6.00 Build 0)  -->
<svg version="1.1" baseProfile="tiny" id="Layer_1" xmlns="http://www.w3.org/2000/svg" xmlns:xlink="http://www.w3.org/1999/xlink"
	 x="0px" y="0px" viewBox="0 0 128 128" xml:space="preserve">
<g>
	<g>
		<linearGradient id="SVGID_1_" gradientUnits="userSpaceOnUse" x1="80.5606" y1="66.5535" x2="54.9944" y2="58.0314">
			<stop  offset="0" style="stop-color:#2D2D2D"/>
			<stop  offset="1" style="stop-color:#2D2D2D"/>
		</linearGradient>
		<path fill-rule="evenodd" fill="url(#SVGID_1_)" d="M98.2,23.1C86.8,22.2,76,18.6,65.5,12.4h-0.1C54.9,18.6,44,22.2,32.7,23.1
			c-3.6,0.3-7,0.3-10.1,0l-3.7-0.5c-0.1,5.2-0.1,10.9,0.1,17.2c0.3,12.5,1.2,21.7,2.6,27.3c4.2,16.3,12.7,29.3,25.7,38.9
			c4,3,8.2,5.5,12.7,7.6c2.2,1,4,1.7,5.5,2.1h0.1c1.5-0.4,3.8-1.3,6.9-2.8c3.2-1.4,8.4-5.2,15.6-11.3c7.2-6.1,12.6-14.5,16.3-25.2
			c3.7-10.7,5.3-21,5-30.9c-0.3-9.9-0.4-17.4-0.2-22.4C105.3,23.3,101.7,23.3,98.2,23.1z M119.5,13.3c-0.2,6.3-0.2,15.5,0.2,27.7
			c0.4,12.2-1.6,24.9-6.1,38.2c-4.5,13.2-11.2,23.6-20.1,31.1c-8.8,7.5-15.3,12.2-19.2,14c-4,1.8-6.8,2.9-8.6,3.4h-0.1
			c-1.7-0.5-4-1.3-6.7-2.6c-5.5-2.5-10.7-5.6-15.7-9.3C27.3,104,16.7,88,11.6,67.8c-1.7-6.9-2.8-18.2-3.2-33.8
			c-0.2-7.7-0.2-14.7-0.1-21.3l4.6,0.6c4,0.4,8.1,0.4,12.5,0c13.9-1.1,27.4-5.5,40.4-13.2l0,0l0,0c13,7.7,26.4,12.1,40.4,13.2
			C110.5,13.8,114.9,13.8,119.5,13.3z"/>
		<path fill="#9C9C9C" d="M65.6,128C65.6,128,65.6,128,65.6,128c-1.8-0.5-4.1-1.4-6.8-2.6c-5.5-2.5-10.8-5.6-15.7-9.3
			C27.2,104.2,16.5,88,11.3,67.9C9.6,61,8.5,49.6,8.1,34.1C7.9,26.4,7.9,19.3,8,12.8c0-0.1,0-0.1,0.1-0.2c0.1,0,0.1-0.1,0.2-0.1
			l4.6,0.6c3.9,0.4,8.1,0.4,12.4,0C39.2,12.1,52.7,7.7,65.6,0C65.7,0,65.9,0,66,0.1c12.9,7.6,26.4,12,40.2,13.1
			c4.3,0.4,8.8,0.3,13.3-0.1c0.1,0,0.1,0,0.2,0.1c0.1,0,0.1,0.1,0.1,0.2c-0.2,6.3-0.2,15.6,0.2,27.7c0.4,12.2-1.6,25-6.1,38.2
			c-4.5,13.2-11.3,23.7-20.1,31.2c-8.8,7.5-15.3,12.3-19.3,14.1c-3.9,1.8-6.8,2.9-8.6,3.4C65.8,128,65.7,128,65.6,128
			C65.7,128,65.6,128,65.6,128z M8.5,13.1c-0.1,6.4-0.1,13.5,0.1,21c0.4,15.5,1.5,26.9,3.2,33.7c5.1,20,15.8,36.1,31.6,47.9
			c4.9,3.7,10.2,6.8,15.6,9.3c2.7,1.2,5,2.1,6.7,2.6c1.7-0.5,4.6-1.6,8.5-3.4c4-1.8,10.4-6.5,19.2-14c8.8-7.5,15.5-18,20-31
			c4.5-13.1,6.5-26,6.1-38.1c-0.4-11.9-0.5-21.2-0.2-27.4c-4.5,0.4-8.9,0.4-13.1,0.1C92.3,12.6,78.7,8.2,65.8,0.5
			c-13,7.6-26.6,12-40.4,13.1c-4.4,0.4-8.6,0.4-12.5,0L8.5,13.1z M65.4,115.9C65.4,115.9,65.4,115.9,65.4,115.9c-0.1,0-0.1,0-0.2,0
			c-1.4-0.4-3.3-1.1-5.5-2.1c-4.5-2-8.8-4.6-12.7-7.6c-12.9-9.6-21.6-22.8-25.8-39c-1.4-5.7-2.3-14.9-2.6-27.4
			c-0.2-6.3-0.2-12.1-0.1-17.3c0-0.1,0-0.1,0.1-0.2c0.1,0,0.1-0.1,0.2-0.1l3.7,0.5c3.1,0.3,6.5,0.3,10.1,0
			c11.2-0.9,22.2-4.5,32.6-10.7c0,0,0.1,0,0.1,0c0,0,0.1,0,0.2,0C76,18.3,87,21.9,98.2,22.8c3.5,0.3,7.1,0.2,10.8-0.1
			c0.1,0,0.1,0,0.2,0.1c0.1,0,0.1,0.1,0.1,0.2c-0.2,5-0.1,12.6,0.2,22.4c0.3,9.9-1.3,20.4-5,31c-3.7,10.7-9.2,19.2-16.3,25.3
			c-7.2,6.1-12.4,9.9-15.6,11.4C69.3,114.5,67,115.5,65.4,115.9C65.5,115.9,65.5,115.9,65.4,115.9z M19.1,22.8
			c-0.1,5.1-0.1,10.8,0.1,17c0.3,12.5,1.2,21.7,2.6,27.3c4.1,16.2,12.8,29.2,25.6,38.8c3.9,3,8.2,5.5,12.6,7.5c2.2,1,4,1.6,5.4,2
			c1.5-0.4,3.8-1.3,6.9-2.8c3.2-1.4,8.4-5.2,15.5-11.3c7.1-6,12.6-14.5,16.2-25.1c3.6-10.6,5.3-21,5-30.8
			c-0.3-9.7-0.4-17.1-0.2-22.2c-3.6,0.3-7.2,0.3-10.6,0.1c-11.3-0.9-22.2-4.5-32.7-10.7C55,18.8,44,22.4,32.7,23.3
			c-3.6,0.3-7,0.3-10.2,0L19.1,22.8z"/>
	</g>
	<g>
		<path fill="#2D2D2D" d="M77.9,53.1c-1.8-1.3-3.7-2.9-5.6-4.9c-1.9-1.9-3.4-3.7-4.7-5.4c-3.8,1.1-7.8,2.9-11,5.9L72,64.1
			C75,60.9,76.8,56.9,77.9,53.1z"/>
		<path fill="#2D2D2D" d="M79,72.7l-7-7c-3.3,3.2-7.3,5-11.1,6.2c2.1,2.9,3.3,5.3,4,6.9C70,78.5,75,76.4,79,72.7z"/>
		<path fill="#2D2D2D" d="M59.7,72.1c-4.3,1.1-8.2,1.3-10.1,1.3c0,0-0.1,0-0.1,0c4.1,3.5,9.1,5.3,14.2,5.3
			C63,77.1,61.7,74.8,59.7,72.1z"/>
		<path fill="#2D2D2D" d="M85.8,57.7c-1.8-0.8-4.2-2-6.9-3.9c-1.1,3.8-3,7.8-6.1,11.1l7,7C83.6,67.9,85.6,62.8,85.8,57.7z"/>
		<path fill="#2D2D2D" d="M68.7,42.4c1.2,1.6,2.6,3.3,4.4,5c1.8,1.8,3.5,3.3,5.2,4.5c1.1-4.4,1.3-8.5,1.1-10.5c0-0.1,0-0.1,0-0.2
			c-0.1,0-0.1,0-0.2,0C77.2,41.1,73.2,41.3,68.7,42.4z"/>
		<path fill="#2D2D2D" d="M49.8,60.6c1.8,1.3,3.7,3,5.7,5c1.8,1.8,3.4,3.6,4.6,5.3c3.8-1.1,7.9-3,11.1-6L55.8,49.4
			C52.8,52.6,50.9,56.7,49.8,60.6z"/>
		<path fill="#2D2D2D" d="M48.5,61c-2.7-1.9-5.1-3.2-6.9-4c0,4.9,1.9,9.9,5.6,14.1C47.2,69.3,47.4,65.4,48.5,61z"/>
		<path fill="#2D2D2D" d="M48.5,72.3c2,0.1,6.1,0,10.5-1.1c-1.2-1.5-2.6-3.2-4.3-4.8c-1.8-1.8-3.6-3.3-5.3-4.6
			c-1.1,4.4-1.3,8.4-1.1,10.4c0,0.1,0,0.1,0,0.2C48.4,72.3,48.5,72.3,48.5,72.3z"/>
		<path fill="#2D2D2D" d="M80.5,42.4c0,1.8-0.1,5.8-1.3,10.2c2.5,1.8,4.8,3.1,6.6,3.9C85.8,51.5,84,46.5,80.5,42.4z"/>
		<path fill="#2D2D2D" d="M49.5,48.8c-0.3,0.4-0.8,0.6-1.3,0.6s-1-0.2-1.3-0.6c-0.5-0.6-1.1-1.5-1.7-2.6c-2.1,2.9-3.3,6.2-3.5,9.7
			c0,0,0.1,0,0.1,0c1.9,0.8,4.3,2,7.1,4C50,56,51.9,52,55,48.6l-3.3-3.3C50.9,46.8,50.1,48.1,49.5,48.8z"/>
		<path fill="#2D2D2D" d="M48.7,48.1c2.1-2.6,6.3-10.5,6.3-13.3c0-3.7-3-6.8-6.8-6.8s-6.8,3-6.8,6.8c0,2.9,4.2,10.7,6.3,13.3
			C48,48.4,48.4,48.4,48.7,48.1z M44.1,34.8c0-2.3,1.9-4.1,4.1-4.1s4.1,1.9,4.1,4.1s-1.9,4.1-4.1,4.1S44.1,37,44.1,34.8z"/>
		<path fill="#2D2D2D" d="M78.2,40.2c-4-3.5-9-5.3-14.1-5.2c0.7,1.6,2,3.8,3.9,6.5C72.4,40.3,76.4,40.1,78.2,40.2z"/>
		<path fill="#2D2D2D" d="M55.8,47.9c3.3-3.1,7.3-5,11-6.1c-2-2.8-3.2-5.2-3.9-6.7c-2.4,0.2-4.9,0.8-7.2,1.9c0,0,0,0-0.1,0
			c-0.6,2.2-2,5-3.4,7.5L55.8,47.9z"/>
		<path fill="#2D2D2D" d="M51.2,34.8c0-1.7-1.4-3-3-3s-3,1.4-3,3s1.4,3,3,3S51.2,36.4,51.2,34.8z"/>
		<path fill="#2D2D2D" d="M66.4,86.8c7.2-0.6,14.1-3.7,19.2-8.9c5.7-5.7,8.9-13.3,8.9-21.3c0.1-8-2.9-15.7-8.5-21.4
			c-0.4-0.4-1.2-0.4-1.6,0l-1.3,1.3c-0.4,0.4-0.4,1.1,0,1.6c9.9,10.3,9.7,26.9-0.4,37c-5,5-11.6,7.7-18.7,7.7c0,0,0,0,0,0
			c-6.9,0-13.4-2.6-18.3-7.3c-0.4-0.4-1.2-0.4-1.6,0l-1.3,1.3c-0.2,0.2-0.3,0.5-0.3,0.8c0,0.3,0.1,0.6,0.4,0.8
			c5.1,4.9,11.7,7.9,18.8,8.4c0,0,0,0,0,0v6.5h-3.1c-1.6,0-3,1.3-3,3V98h16.7v-1.7c0-1.6-1.3-3-3-3h-3.1L66.4,86.8
			C66.4,86.8,66.4,86.8,66.4,86.8z"/>
	</g>
</g>
</svg>
