<?xml version="1.0" encoding="utf-8"?>
<!-- Generator: Adobe Illustrator 23.0.0, SVG Export Plug-In . SVG Version: 6.00 Build 0)  -->
<svg version="1.1" id="Layer_1" xmlns="http://www.w3.org/2000/svg" xmlns:xlink="http://www.w3.org/1999/xlink" x="0px" y="0px"
	 viewBox="0 0 128 128" enable-background="new 0 0 128 128" xml:space="preserve">
<g>
	<g>
		<linearGradient id="SVGID_1_" gradientUnits="userSpaceOnUse" x1="80.5606" y1="66.5535" x2="54.9944" y2="58.0314">
			<stop  offset="0" style="stop-color:#2D2D2D"/>
			<stop  offset="1" style="stop-color:#2D2D2D"/>
		</linearGradient>
		<path fill-rule="evenodd" clip-rule="evenodd" fill="url(#SVGID_1_)" d="M98.2,23.1C86.8,22.2,76,18.6,65.5,12.4h-0.1
			C54.9,18.6,44,22.2,32.7,23.1c-3.6,0.3-7,0.3-10.1,0l-3.7-0.5c-0.1,5.2-0.1,10.9,0.1,17.2c0.3,12.5,1.2,21.7,2.6,27.3
			c4.2,16.3,12.7,29.3,25.7,38.9c4,3,8.2,5.5,12.7,7.6c2.2,1,4,1.7,5.5,2.1h0.1c1.5-0.4,3.8-1.3,6.9-2.8c3.2-1.4,8.4-5.2,15.6-11.3
			c7.2-6.1,12.6-14.5,16.3-25.2c3.7-10.7,5.3-21,5-30.9c-0.3-9.9-0.4-17.4-0.2-22.4C105.3,23.3,101.7,23.3,98.2,23.1z M119.5,13.3
			c-0.2,6.3-0.2,15.5,0.2,27.7c0.4,12.2-1.6,24.9-6.1,38.2c-4.5,13.2-11.2,23.6-20.1,31.1c-8.8,7.5-15.3,12.2-19.2,14
			c-4,1.8-6.8,2.9-8.6,3.4h-0.1c-1.7-0.5-4-1.3-6.7-2.6c-5.5-2.5-10.7-5.6-15.7-9.3C27.3,104,16.7,88,11.6,67.8
			c-1.7-6.9-2.8-18.2-3.2-33.8c-0.2-7.7-0.2-14.7-0.1-21.3l4.6,0.6c4,0.4,8.1,0.4,12.5,0c13.9-1.1,27.4-5.5,40.4-13.2l0,0l0,0
			c13,7.7,26.4,12.1,40.4,13.2C110.5,13.8,114.9,13.8,119.5,13.3z"/>
		<path fill="#9C9C9C" d="M65.6,128C65.6,128,65.6,128,65.6,128c-1.8-0.5-4.1-1.4-6.8-2.6c-5.5-2.5-10.8-5.6-15.7-9.3
			C27.2,104.2,16.5,88,11.3,67.9C9.6,61,8.5,49.6,8.1,34.1C7.9,26.4,7.9,19.3,8,12.8c0-0.1,0-0.1,0.1-0.2c0.1,0,0.1-0.1,0.2-0.1
			l4.6,0.6c3.9,0.4,8.1,0.4,12.4,0C39.2,12.1,52.7,7.7,65.6,0C65.7,0,65.9,0,66,0.1c12.9,7.6,26.4,12,40.2,13.1
			c4.3,0.4,8.8,0.3,13.3-0.1c0.1,0,0.1,0,0.2,0.1c0.1,0,0.1,0.1,0.1,0.2c-0.2,6.3-0.2,15.6,0.2,27.7c0.4,12.2-1.6,25-6.1,38.2
			c-4.5,13.2-11.3,23.7-20.1,31.2c-8.8,7.5-15.3,12.3-19.3,14.1c-3.9,1.8-6.8,2.9-8.6,3.4C65.8,128,65.7,128,65.6,128
			C65.7,128,65.6,128,65.6,128z M8.5,13.1c-0.1,6.4-0.1,13.5,0.1,21c0.4,15.5,1.5,26.9,3.2,33.7c5.1,20,15.8,36.1,31.6,47.9
			c4.9,3.7,10.2,6.8,15.6,9.3c2.7,1.2,5,2.1,6.7,2.6c1.7-0.5,4.6-1.6,8.5-3.4c4-1.8,10.4-6.5,19.2-14c8.8-7.5,15.5-18,20-31
			c4.5-13.1,6.5-26,6.1-38.1c-0.4-11.9-0.5-21.2-0.2-27.4c-4.5,0.4-8.9,0.4-13.1,0.1C92.3,12.6,78.7,8.2,65.8,0.5
			c-13,7.6-26.6,12-40.4,13.1c-4.4,0.4-8.6,0.4-12.5,0L8.5,13.1z M65.4,115.9C65.4,115.9,65.4,115.9,65.4,115.9c-0.1,0-0.1,0-0.2,0
			c-1.4-0.4-3.3-1.1-5.5-2.1c-4.5-2-8.8-4.6-12.7-7.6c-12.9-9.6-21.6-22.8-25.8-39c-1.4-5.7-2.3-14.9-2.6-27.4
			c-0.2-6.3-0.2-12.1-0.1-17.3c0-0.1,0-0.1,0.1-0.2c0.1,0,0.1-0.1,0.2-0.1l3.7,0.5c3.1,0.3,6.5,0.3,10.1,0
			c11.2-0.9,22.2-4.5,32.6-10.7c0,0,0.1,0,0.1,0c0,0,0.1,0,0.2,0C76,18.3,87,21.9,98.2,22.8c3.5,0.3,7.1,0.2,10.8-0.1
			c0.1,0,0.1,0,0.2,0.1c0.1,0,0.1,0.1,0.1,0.2c-0.2,5-0.1,12.6,0.2,22.4c0.3,9.9-1.3,20.4-5,31c-3.7,10.7-9.2,19.2-16.3,25.3
			c-7.2,6.1-12.4,9.9-15.6,11.4C69.3,114.5,67,115.5,65.4,115.9C65.5,115.9,65.5,115.9,65.4,115.9z M19.1,22.8
			c-0.1,5.1-0.1,10.8,0.1,17c0.3,12.5,1.2,21.7,2.6,27.3c4.1,16.2,12.8,29.2,25.6,38.8c3.9,3,8.2,5.5,12.6,7.5c2.2,1,4,1.6,5.4,2
			c1.5-0.4,3.8-1.3,6.9-2.8c3.2-1.4,8.4-5.2,15.5-11.3c7.1-6,12.6-14.5,16.2-25.1c3.6-10.6,5.3-21,5-30.8
			c-0.3-9.7-0.4-17.1-0.2-22.2c-3.6,0.3-7.2,0.3-10.6,0.1c-11.3-0.9-22.2-4.5-32.7-10.7C55,18.8,44,22.4,32.7,23.3
			c-3.6,0.3-7,0.3-10.2,0L19.1,22.8z"/>
	</g>
	<g>
		<path fill="none" d="M71.4,42.7c0.1,0,0.2-0.1,0.3-0.2c0.1-0.2,0.2-0.4,0.4-0.5c0.2-0.1,0.4-0.2,0.5-0.2c0.3,0,0.5,0.1,0.7,0.3
			c0.2,0.2,0.3,0.4,0.3,0.7c0,0.4-0.2,0.8-0.7,1.3l-1.7,1.8c-0.1,0.1-0.1,0.2-0.1,0.3c0,0.1,0,0.2,0.1,0.3c0.1,0.1,0.1,0.1,0.3,0.1
			h2.7c0.1,0,0.2,0,0.2-0.1c0.1-0.1,0.1-0.1,0.1-0.2c0-0.1,0-0.2-0.1-0.2C74.3,46,74.2,46,74.1,46h-1.9l1.2-1.3
			c0.6-0.7,0.9-1.3,0.9-1.9c0-0.3-0.1-0.6-0.2-0.8c-0.1-0.2-0.3-0.4-0.6-0.6c-0.2-0.1-0.5-0.2-0.9-0.2c-0.3,0-0.5,0.1-0.8,0.2
			c-0.3,0.1-0.5,0.3-0.6,0.5c-0.1,0.1-0.1,0.2-0.2,0.2c0,0.1-0.1,0.1-0.1,0.2c0,0.1,0,0.2,0.1,0.2S71.3,42.7,71.4,42.7z"/>
		<path fill="none" d="M68.3,42.8c0.1,0,0.1,0,0.2-0.1l0.7-0.4v4c0,0.1,0,0.2,0.1,0.3c0.1,0.1,0.2,0.1,0.3,0.1s0.2,0,0.3-0.1
			c0.1-0.1,0.1-0.2,0.1-0.3v-4.6c0-0.1,0-0.2-0.1-0.3c-0.1-0.1-0.1-0.1-0.2-0.1c-0.1,0-0.2,0-0.3,0.1l-1.2,0.7
			c-0.1,0-0.1,0.1-0.1,0.1c0,0.1-0.1,0.1-0.1,0.2c0,0.1,0,0.2,0.1,0.3C68.1,42.8,68.2,42.8,68.3,42.8z"/>
		<path fill="none" d="M61.8,46.7h2c0.5,0,0.9-0.1,1.2-0.4c0.3-0.2,0.5-0.6,0.5-1.2c0-0.4-0.1-0.6-0.3-0.9c-0.2-0.2-0.4-0.4-0.7-0.5
			c0.2-0.1,0.4-0.2,0.5-0.4c0.1-0.2,0.2-0.4,0.2-0.7c0-0.4-0.1-0.8-0.4-1c-0.2-0.2-0.6-0.3-1.1-0.3h-2c-0.1,0-0.2,0-0.3,0.1
			c-0.1,0.1-0.1,0.2-0.1,0.3v4.6c0,0.1,0,0.2,0.1,0.3C61.6,46.6,61.7,46.7,61.8,46.7z M62.2,42.1h1.4c0.2,0,0.4,0.1,0.5,0.2
			c0.1,0.1,0.2,0.3,0.2,0.5c0,0.2-0.1,0.4-0.2,0.6c-0.1,0.1-0.3,0.2-0.5,0.2h-1.5V42.1z M62.2,44.3h1.5c0.6,0,1,0.3,1,0.8
			c0,0.3-0.1,0.5-0.3,0.7C64.2,45.9,64,46,63.7,46h-1.5V44.3z"/>
		<path fill="none" d="M75.4,42h1.8l-1.3,1.4c0,0.1-0.1,0.1-0.1,0.1c0,0,0,0.1,0,0.1c0,0.1,0,0.2,0.1,0.2c0.1,0.1,0.1,0.1,0.2,0.1
			c0.1,0,0.1,0,0.3,0c0.2,0,0.3-0.1,0.4-0.1c0.3,0,0.5,0.1,0.7,0.3c0.2,0.2,0.3,0.4,0.3,0.8c0,0.2-0.1,0.4-0.2,0.6
			c-0.1,0.2-0.2,0.3-0.4,0.4c-0.2,0.1-0.4,0.1-0.6,0.1c-0.3,0-0.6-0.1-0.8-0.3c-0.1-0.1-0.2-0.1-0.3-0.1c-0.1,0-0.2,0-0.2,0.1
			c-0.1,0.1-0.1,0.2-0.1,0.3c0,0.1,0.1,0.2,0.2,0.3c0.1,0.1,0.3,0.2,0.5,0.2c0.2,0.1,0.4,0.1,0.6,0.1c0.4,0,0.7-0.1,1-0.2
			c0.3-0.1,0.5-0.4,0.7-0.6c0.2-0.3,0.3-0.6,0.3-1c0-0.3-0.1-0.6-0.2-0.8c-0.1-0.2-0.3-0.4-0.5-0.6c-0.2-0.1-0.5-0.2-0.8-0.2L78,42
			c0.1-0.1,0.1-0.2,0.1-0.3c0-0.1,0-0.2-0.1-0.3c-0.1-0.1-0.2-0.1-0.3-0.1h-2.4c-0.1,0-0.2,0-0.2,0.1C75,41.5,75,41.6,75,41.7
			c0,0.1,0,0.2,0.1,0.2C75.2,42,75.3,42,75.4,42z"/>
		<path fill="none" d="M56.4,46.7c0.1,0,0.1,0,0.2-0.1c0.1,0,0.1-0.1,0.1-0.2l0.5-1.1h2.4l0.5,1.1c0,0.1,0.1,0.1,0.1,0.2
			c0.1,0,0.1,0.1,0.2,0.1c0.1,0,0.2,0,0.2-0.1c0.1-0.1,0.1-0.1,0.1-0.3c0-0.1,0-0.1,0-0.1l-1.9-4.6c0-0.1-0.1-0.1-0.1-0.2
			c-0.1,0-0.1-0.1-0.2-0.1c-0.1,0-0.2,0-0.2,0S58,41.5,58,41.6l-1.9,4.7c0,0.1,0,0.1,0,0.1c0,0.1,0,0.2,0.1,0.2
			C56.2,46.7,56.3,46.7,56.4,46.7z M58.3,42.5l0.9,2.1h-1.8L58.3,42.5z"/>
		<path fill="none" d="M79.6,45.2h2.1v1.2c0,0.1,0,0.2,0.1,0.3c0.1,0.1,0.2,0.1,0.3,0.1c0.1,0,0.2,0,0.3-0.1
			c0.1-0.1,0.1-0.2,0.1-0.3v-1.2h0.4c0.1,0,0.2,0,0.2-0.1c0.1-0.1,0.1-0.1,0.1-0.2s0-0.2-0.1-0.2c-0.1-0.1-0.1-0.1-0.2-0.1h-0.4
			v-2.8c0-0.1,0-0.2-0.1-0.3c-0.1-0.1-0.2-0.1-0.3-0.1c-0.1,0-0.1,0-0.2,0c-0.1,0-0.1,0.1-0.1,0.1l-2.4,3.1
			c-0.1,0.1-0.1,0.2-0.1,0.2c0,0.1,0,0.2,0.1,0.3C79.4,45.1,79.5,45.2,79.6,45.2z M81.7,42.6v1.9h-1.5L81.7,42.6z"/>
		<path fill="none" d="M86.9,50H56.4c-0.3,0-0.5,0.2-0.5,0.5s0.2,0.5,0.5,0.5h30.5c0.3,0,0.5-0.2,0.5-0.5S87.1,50,86.9,50z"/>
		<path fill="none" d="M72.1,63.8H39.2c-0.3,0-0.5,0.2-0.5,0.5s0.2,0.5,0.5,0.5h32.9c0.3,0,0.5-0.2,0.5-0.5S72.4,63.8,72.1,63.8z"/>
		<path fill="none" d="M86.9,57.2H56.4c-0.3,0-0.5,0.2-0.5,0.5s0.2,0.5,0.5,0.5h30.5c0.3,0,0.5-0.2,0.5-0.5S87.1,57.2,86.9,57.2z"/>
		<path fill="none" d="M86.5,43.3c-0.3-0.1-0.6-0.2-0.9-0.2c-0.2,0-0.3,0-0.5,0.1s-0.3,0.1-0.4,0.2L85,42h2c0.1,0,0.2,0,0.2-0.1
			c0.1-0.1,0.1-0.1,0.1-0.2c0-0.1,0-0.2-0.1-0.2c-0.1-0.1-0.1-0.1-0.2-0.1h-2.2c-0.1,0-0.2,0-0.2,0.1c-0.1,0.1-0.1,0.1-0.1,0.2
			l-0.3,2l0,0.1c0,0.1,0,0.2,0.1,0.3c0.1,0.1,0.2,0.1,0.3,0.1c0,0,0.1,0,0.1,0c0.1,0,0.1,0,0.2-0.1c0.1-0.1,0.3-0.1,0.4-0.2
			c0.1,0,0.2-0.1,0.4-0.1c0.3,0,0.6,0.1,0.8,0.3c0.2,0.2,0.3,0.5,0.3,0.8c0,0.2-0.1,0.4-0.2,0.6c-0.1,0.2-0.3,0.3-0.5,0.4
			c-0.2,0.1-0.4,0.2-0.7,0.2c-0.2,0-0.5-0.1-0.7-0.3c-0.1-0.1-0.2-0.1-0.3-0.1c-0.1,0-0.2,0-0.2,0.1c-0.1,0.1-0.1,0.1-0.1,0.2
			c0,0.1,0,0.1,0,0.2c0,0.1,0.1,0.1,0.1,0.2c0.1,0.1,0.3,0.2,0.5,0.3c0.2,0.1,0.4,0.1,0.6,0.1c0.4,0,0.7-0.1,1-0.2s0.6-0.4,0.7-0.7
			c0.2-0.3,0.3-0.6,0.3-1c0-0.3-0.1-0.6-0.2-0.9C87,43.7,86.8,43.5,86.5,43.3z"/>
		<path fill="none" d="M62.2,70.5h-23c-0.3,0-0.5,0.2-0.5,0.5s0.2,0.5,0.5,0.5h23c0.3,0,0.5-0.2,0.5-0.5S62.5,70.5,62.2,70.5z"/>
		<path fill="#2D2D2D" d="M64.4,45.8c0.2-0.1,0.3-0.4,0.3-0.7c0-0.6-0.3-0.8-1-0.8h-1.5V46h1.5C64,46,64.2,45.9,64.4,45.8z"/>
		<polygon fill="#2D2D2D" points="58.3,42.5 57.4,44.6 59.2,44.6 		"/>
		<polygon fill="#2D2D2D" points="81.7,42.6 80.2,44.5 81.7,44.5 		"/>
		<path fill="#2D2D2D" d="M64.2,43.3c0.1-0.1,0.2-0.3,0.2-0.6c0-0.2-0.1-0.4-0.2-0.5c-0.1-0.1-0.3-0.2-0.5-0.2h-1.4v1.5h1.5
			C63.9,43.5,64,43.5,64.2,43.3z"/>
		<path fill="#2D2D2D" d="M93.5,36.7h-59c-0.3,0-0.5,0.2-0.5,0.5v41c0,0.3,0.2,0.5,0.5,0.5h59c0.3,0,0.5-0.2,0.5-0.5v-41
			C94,36.9,93.8,36.7,93.5,36.7z M79.3,44.5l2.4-3.1c0,0,0.1-0.1,0.1-0.1c0.1,0,0.1,0,0.2,0c0.1,0,0.2,0,0.3,0.1
			c0.1,0.1,0.1,0.2,0.1,0.3v2.8h0.4c0.1,0,0.2,0,0.2,0.1c0.1,0.1,0.1,0.1,0.1,0.2s0,0.2-0.1,0.2c-0.1,0.1-0.1,0.1-0.2,0.1h-0.4v1.2
			c0,0.1,0,0.2-0.1,0.3c-0.1,0.1-0.2,0.1-0.3,0.1c-0.1,0-0.2,0-0.3-0.1c-0.1-0.1-0.1-0.2-0.1-0.3v-1.2h-2.1c-0.1,0-0.2,0-0.2-0.1
			c-0.1-0.1-0.1-0.2-0.1-0.3C79.2,44.7,79.2,44.6,79.3,44.5z M75.1,41.4c0.1-0.1,0.1-0.1,0.2-0.1h2.4c0.1,0,0.2,0,0.3,0.1
			c0.1,0.1,0.1,0.2,0.1,0.3c0,0.1,0,0.2-0.1,0.3l-1.2,1.3c0.3,0,0.5,0.1,0.8,0.2c0.2,0.1,0.4,0.3,0.5,0.6c0.1,0.2,0.2,0.5,0.2,0.8
			c0,0.4-0.1,0.7-0.3,1c-0.2,0.3-0.4,0.5-0.7,0.6c-0.3,0.1-0.6,0.2-1,0.2c-0.2,0-0.4,0-0.6-0.1c-0.2-0.1-0.4-0.1-0.5-0.2
			c-0.1-0.1-0.2-0.2-0.2-0.3c0-0.1,0-0.2,0.1-0.3c0.1-0.1,0.2-0.1,0.2-0.1c0.1,0,0.2,0,0.3,0.1c0.2,0.2,0.5,0.3,0.8,0.3
			c0.2,0,0.4,0,0.6-0.1c0.2-0.1,0.3-0.2,0.4-0.4c0.1-0.2,0.2-0.4,0.2-0.6c0-0.3-0.1-0.6-0.3-0.8c-0.2-0.2-0.4-0.3-0.7-0.3
			c-0.1,0-0.2,0-0.4,0.1c-0.1,0-0.2,0-0.3,0c-0.1,0-0.2,0-0.2-0.1c-0.1-0.1-0.1-0.1-0.1-0.2c0-0.1,0-0.1,0-0.1c0,0,0.1-0.1,0.1-0.1
			l1.3-1.4h-1.8c-0.1,0-0.2,0-0.2-0.1C75,41.9,75,41.8,75,41.7C75,41.6,75,41.5,75.1,41.4z M71.1,42.2c0-0.1,0.1-0.1,0.2-0.2
			c0.2-0.2,0.4-0.4,0.6-0.5c0.3-0.1,0.5-0.2,0.8-0.2c0.3,0,0.6,0.1,0.9,0.2c0.2,0.1,0.4,0.3,0.6,0.6c0.1,0.2,0.2,0.5,0.2,0.8
			c0,0.6-0.3,1.2-0.9,1.9L72.2,46h1.9c0.1,0,0.2,0,0.2,0.1c0.1,0.1,0.1,0.1,0.1,0.2c0,0.1,0,0.2-0.1,0.2c-0.1,0.1-0.1,0.1-0.2,0.1
			h-2.7c-0.1,0-0.2,0-0.3-0.1c-0.1-0.1-0.1-0.1-0.1-0.3c0-0.1,0-0.2,0.1-0.3l1.7-1.8c0.5-0.5,0.7-0.9,0.7-1.3c0-0.3-0.1-0.5-0.3-0.7
			c-0.2-0.2-0.4-0.3-0.7-0.3c-0.2,0-0.4,0.1-0.5,0.2c-0.2,0.1-0.3,0.3-0.4,0.5c-0.1,0.1-0.2,0.2-0.3,0.2c-0.1,0-0.2,0-0.2-0.1
			S71,42.5,71,42.4C71,42.3,71,42.3,71.1,42.2z M68,42.3c0-0.1,0.1-0.1,0.1-0.1l1.2-0.7c0.1,0,0.2-0.1,0.3-0.1c0.1,0,0.2,0,0.2,0.1
			c0.1,0.1,0.1,0.2,0.1,0.3v4.6c0,0.1,0,0.2-0.1,0.3c-0.1,0.1-0.2,0.1-0.3,0.1s-0.2,0-0.3-0.1c-0.1-0.1-0.1-0.2-0.1-0.3v-4l-0.7,0.4
			c-0.1,0-0.1,0.1-0.2,0.1c-0.1,0-0.2,0-0.3-0.1c-0.1-0.1-0.1-0.2-0.1-0.3C67.9,42.4,67.9,42.3,68,42.3z M61.4,41.7
			c0-0.1,0-0.2,0.1-0.3c0.1-0.1,0.2-0.1,0.3-0.1h2c0.5,0,0.8,0.1,1.1,0.3c0.2,0.2,0.4,0.6,0.4,1c0,0.2-0.1,0.5-0.2,0.7
			c-0.1,0.2-0.3,0.3-0.5,0.4c0.3,0.1,0.5,0.3,0.7,0.5c0.2,0.2,0.3,0.5,0.3,0.9c0,0.6-0.2,1-0.5,1.2c-0.3,0.2-0.7,0.4-1.2,0.4h-2
			c-0.1,0-0.2,0-0.3-0.1c-0.1-0.1-0.1-0.2-0.1-0.3V41.7z M56.1,46.3l1.9-4.7c0-0.1,0.1-0.1,0.1-0.2s0.1-0.1,0.2,0
			c0.1,0,0.1,0,0.2,0.1c0.1,0,0.1,0.1,0.1,0.2l1.9,4.6c0,0,0,0.1,0,0.1c0,0.1,0,0.2-0.1,0.3c-0.1,0.1-0.1,0.1-0.2,0.1
			c-0.1,0-0.1,0-0.2-0.1c-0.1,0-0.1-0.1-0.1-0.2l-0.5-1.1h-2.4l-0.5,1.1c0,0.1-0.1,0.1-0.1,0.2c-0.1,0-0.1,0.1-0.2,0.1
			c-0.1,0-0.2,0-0.2-0.1c-0.1-0.1-0.1-0.1-0.1-0.2C56,46.4,56,46.3,56.1,46.3z M38.8,42.9c0-0.8,0.6-1.4,1.4-1.4h9.5
			c0.8,0,1.4,0.6,1.4,1.4v12.4c0,0.8-0.6,1.4-1.4,1.4h-9.5c-0.8,0-1.4-0.6-1.4-1.4V42.9z M62.2,71.4h-23c-0.3,0-0.5-0.2-0.5-0.5
			s0.2-0.5,0.5-0.5h23c0.3,0,0.5,0.2,0.5,0.5S62.5,71.4,62.2,71.4z M72.1,64.8H39.2c-0.3,0-0.5-0.2-0.5-0.5s0.2-0.5,0.5-0.5h32.9
			c0.3,0,0.5,0.2,0.5,0.5S72.4,64.8,72.1,64.8z M86.9,58.1H56.4c-0.3,0-0.5-0.2-0.5-0.5s0.2-0.5,0.5-0.5h30.5c0.3,0,0.5,0.2,0.5,0.5
			S87.1,58.1,86.9,58.1z M86.9,51H56.4c-0.3,0-0.5-0.2-0.5-0.5s0.2-0.5,0.5-0.5h30.5c0.3,0,0.5,0.2,0.5,0.5S87.1,51,86.9,51z
			 M87.1,45.8c-0.2,0.3-0.4,0.5-0.7,0.7s-0.7,0.2-1,0.2c-0.2,0-0.4,0-0.6-0.1c-0.2-0.1-0.4-0.2-0.5-0.3c-0.1,0-0.1-0.1-0.1-0.2
			c0-0.1,0-0.1,0-0.2c0-0.1,0-0.1,0.1-0.2c0.1-0.1,0.1-0.1,0.2-0.1c0.1,0,0.2,0,0.3,0.1c0.2,0.2,0.5,0.3,0.7,0.3
			c0.2,0,0.5-0.1,0.7-0.2c0.2-0.1,0.4-0.3,0.5-0.4c0.1-0.2,0.2-0.4,0.2-0.6c0-0.3-0.1-0.6-0.3-0.8c-0.2-0.2-0.5-0.3-0.8-0.3
			c-0.1,0-0.3,0-0.4,0.1c-0.1,0-0.2,0.1-0.4,0.2c-0.1,0-0.1,0.1-0.2,0.1c-0.1,0-0.1,0-0.1,0c-0.1,0-0.3,0-0.3-0.1
			c-0.1-0.1-0.1-0.2-0.1-0.3l0-0.1l0.3-2c0-0.1,0.1-0.1,0.1-0.2c0.1-0.1,0.2-0.1,0.2-0.1H87c0.1,0,0.2,0,0.2,0.1
			c0.1,0.1,0.1,0.1,0.1,0.2c0,0.1,0,0.2-0.1,0.2C87.1,42,87,42,87,42h-2l-0.2,1.3c0.1-0.1,0.2-0.1,0.4-0.2s0.3-0.1,0.5-0.1
			c0.3,0,0.6,0.1,0.9,0.2c0.3,0.1,0.5,0.4,0.6,0.6c0.2,0.3,0.2,0.6,0.2,0.9C87.4,45.2,87.3,45.5,87.1,45.8z"/>
		<path fill="#2D2D2D" d="M40.2,55.7h9.5c0.3,0,0.5-0.2,0.5-0.5V42.9c0-0.3-0.2-0.5-0.5-0.5h-9.5c-0.3,0-0.5,0.2-0.5,0.5v12.4
			C39.7,55.5,39.9,55.7,40.2,55.7z"/>
	</g>
</g>
</svg>
