<?xml version="1.0" encoding="utf-8"?>
<!-- Generator: Adobe Illustrator 23.0.0, SVG Export Plug-In . SVG Version: 6.00 Build 0)  -->
<svg version="1.1" id="Layer_1" xmlns="http://www.w3.org/2000/svg" xmlns:xlink="http://www.w3.org/1999/xlink" x="0px" y="0px"
	 viewBox="0 0 128 128" enable-background="new 0 0 128 128" xml:space="preserve">
<g>
	<g>
		<linearGradient id="SVGID_1_" gradientUnits="userSpaceOnUse" x1="80.5606" y1="66.5535" x2="54.9944" y2="58.0314">
			<stop  offset="0" style="stop-color:#2D2D2D"/>
			<stop  offset="1" style="stop-color:#2D2D2D"/>
		</linearGradient>
		<path fill-rule="evenodd" clip-rule="evenodd" fill="url(#SVGID_1_)" d="M98.2,23.1C86.8,22.2,76,18.6,65.5,12.4h-0.1
			C54.9,18.6,44,22.2,32.7,23.1c-3.6,0.3-7,0.3-10.1,0l-3.7-0.5c-0.1,5.2-0.1,10.9,0.1,17.2c0.3,12.5,1.2,21.7,2.6,27.3
			c4.2,16.3,12.7,29.3,25.7,38.9c4,3,8.2,5.5,12.7,7.6c2.2,1,4,1.7,5.5,2.1h0.1c1.5-0.4,3.8-1.3,6.9-2.8c3.2-1.4,8.4-5.2,15.6-11.3
			c7.2-6.1,12.6-14.5,16.3-25.2c3.7-10.7,5.3-21,5-30.9c-0.3-9.9-0.4-17.4-0.2-22.4C105.3,23.3,101.7,23.3,98.2,23.1z M119.5,13.3
			c-0.2,6.3-0.2,15.5,0.2,27.7c0.4,12.2-1.6,24.9-6.1,38.2c-4.5,13.2-11.2,23.6-20.1,31.1c-8.8,7.5-15.3,12.2-19.2,14
			c-4,1.8-6.8,2.9-8.6,3.4h-0.1c-1.7-0.5-4-1.3-6.7-2.6c-5.5-2.5-10.7-5.6-15.7-9.3C27.3,104,16.7,88,11.6,67.8
			c-1.7-6.9-2.8-18.2-3.2-33.8c-0.2-7.7-0.2-14.7-0.1-21.3l4.6,0.6c4,0.4,8.1,0.4,12.5,0c13.9-1.1,27.4-5.5,40.4-13.2l0,0l0,0
			c13,7.7,26.4,12.1,40.4,13.2C110.5,13.8,114.9,13.8,119.5,13.3z"/>
		<path fill="#9C9C9C" d="M65.6,128C65.6,128,65.6,128,65.6,128c-1.8-0.5-4.1-1.4-6.8-2.6c-5.5-2.5-10.8-5.6-15.7-9.3
			C27.2,104.2,16.5,88,11.3,67.9C9.6,61,8.5,49.6,8.1,34.1C7.9,26.4,7.9,19.3,8,12.8c0-0.1,0-0.1,0.1-0.2c0.1,0,0.1-0.1,0.2-0.1
			l4.6,0.6c3.9,0.4,8.1,0.4,12.4,0C39.2,12.1,52.7,7.7,65.6,0C65.7,0,65.9,0,66,0.1c12.9,7.6,26.4,12,40.2,13.1
			c4.3,0.4,8.8,0.3,13.3-0.1c0.1,0,0.1,0,0.2,0.1c0.1,0,0.1,0.1,0.1,0.2c-0.2,6.3-0.2,15.6,0.2,27.7c0.4,12.2-1.6,25-6.1,38.2
			c-4.5,13.2-11.3,23.7-20.1,31.2c-8.8,7.5-15.3,12.3-19.3,14.1c-3.9,1.8-6.8,2.9-8.6,3.4C65.8,128,65.7,128,65.6,128
			C65.7,128,65.6,128,65.6,128z M8.5,13.1c-0.1,6.4-0.1,13.5,0.1,21c0.4,15.5,1.5,26.9,3.2,33.7c5.1,20,15.8,36.1,31.6,47.9
			c4.9,3.7,10.2,6.8,15.6,9.3c2.7,1.2,5,2.1,6.7,2.6c1.7-0.5,4.6-1.6,8.5-3.4c4-1.8,10.4-6.5,19.2-14c8.8-7.5,15.5-18,20-31
			c4.5-13.1,6.5-26,6.1-38.1c-0.4-11.9-0.5-21.2-0.2-27.4c-4.5,0.4-8.9,0.4-13.1,0.1C92.3,12.6,78.7,8.2,65.8,0.5
			c-13,7.6-26.6,12-40.4,13.1c-4.4,0.4-8.6,0.4-12.5,0L8.5,13.1z M65.4,115.9C65.4,115.9,65.4,115.9,65.4,115.9c-0.1,0-0.1,0-0.2,0
			c-1.4-0.4-3.3-1.1-5.5-2.1c-4.5-2-8.8-4.6-12.7-7.6c-12.9-9.6-21.6-22.8-25.8-39c-1.4-5.7-2.3-14.9-2.6-27.4
			c-0.2-6.3-0.2-12.1-0.1-17.3c0-0.1,0-0.1,0.1-0.2c0.1,0,0.1-0.1,0.2-0.1l3.7,0.5c3.1,0.3,6.5,0.3,10.1,0
			c11.2-0.9,22.2-4.5,32.6-10.7c0,0,0.1,0,0.1,0c0,0,0.1,0,0.2,0C76,18.3,87,21.9,98.2,22.8c3.5,0.3,7.1,0.2,10.8-0.1
			c0.1,0,0.1,0,0.2,0.1c0.1,0,0.1,0.1,0.1,0.2c-0.2,5-0.1,12.6,0.2,22.4c0.3,9.9-1.3,20.4-5,31c-3.7,10.7-9.2,19.2-16.3,25.3
			c-7.2,6.1-12.4,9.9-15.6,11.4C69.3,114.5,67,115.5,65.4,115.9C65.5,115.9,65.5,115.9,65.4,115.9z M19.1,22.8
			c-0.1,5.1-0.1,10.8,0.1,17c0.3,12.5,1.2,21.7,2.6,27.3c4.1,16.2,12.8,29.2,25.6,38.8c3.9,3,8.2,5.5,12.6,7.5c2.2,1,4,1.6,5.4,2
			c1.5-0.4,3.8-1.3,6.9-2.8c3.2-1.4,8.4-5.2,15.5-11.3c7.1-6,12.6-14.5,16.2-25.1c3.6-10.6,5.3-21,5-30.8
			c-0.3-9.7-0.4-17.1-0.2-22.2c-3.6,0.3-7.2,0.3-10.6,0.1c-11.3-0.9-22.2-4.5-32.7-10.7C55,18.8,44,22.4,32.7,23.3
			c-3.6,0.3-7,0.3-10.2,0L19.1,22.8z"/>
	</g>
	<g>
		<path fill="#2D2D2D" d="M36.1,79.2l-1.1,1.6c0,0.6,0.2,1,0.5,1.2l0.9-2C36.5,79.7,36.3,79.4,36.1,79.2z"/>
		<path fill="#2D2D2D" d="M35.5,78.1c0-0.1,0-0.5,0-0.8l-1.3,1.1c0,0.5,0.1,1,0.3,1.3L35.5,78.1C35.5,78.1,35.5,78.1,35.5,78.1z"/>
		<path fill="#2D2D2D" d="M42.7,87.5c-0.1-0.2-0.4-0.7-0.8-1l-0.1,2c0.2,0.5,0.5,0.8,1,0.9l0-1.7L42.7,87.5z"/>
		<path fill="#2D2D2D" d="M35.4,74.6l-1.6,1.3l0,0c-0.3,0.7-0.2,1.2,0,1.5l1.6-1.3C35.4,75.6,35.4,75,35.4,74.6z"/>
		<path fill="#2D2D2D" d="M40.8,85.8c0-0.3-0.3-0.7-0.5-0.9l-0.4,1.9c0.2,0.5,0.5,0.8,0.9,1l0.1-1.9L40.8,85.8z"/>
		<path fill="#2D2D2D" d="M38.5,82.7l-0.4,2c0,0,0,0,0,0c0,0.6,0.5,1.1,0.8,1.4l0.4-2C39.2,83.6,39,83,38.5,82.7z"/>
		<path fill="#2D2D2D" d="M37.2,81l-0.8,1.8c0.1,0.6,0.4,0.9,0.7,1.1l0.5-2.1C37.5,81.6,37.4,81.3,37.2,81z"/>
		<path fill="#2D2D2D" d="M71.1,90.8L71.1,90.8c-0.5,0-1,0-1.4,0.3l1.7,0.9c0.6,0,1.1-0.2,1.4-0.5L71.1,90.8
			C71.1,90.8,71.1,90.8,71.1,90.8z"/>
		<path fill="#2D2D2D" d="M35.6,72.1l-1.7,1l-0.1,0.1c-0.2,0.3-0.3,0.9-0.2,1.3l1.7-1.3C35.4,73,35.6,72.5,35.6,72.1z"/>
		<path fill="#2D2D2D" d="M39.1,60.6l-1.9,0.2l-0.2,0.1c-0.3,0.1-0.5,0.6-0.7,1.1l1.9-0.3C38.5,61.4,38.9,61,39.1,60.6z"/>
		<path fill="#2D2D2D" d="M36.3,67.2l-1.8,0.8l-0.1,0c-0.4,0.2-0.5,0.8-0.5,1.3l2-1.2C36.1,68,36.3,67.6,36.3,67.2z"/>
		<path fill="#2D2D2D" d="M35.5,70.9c0.2-0.3,0.4-0.9,0.4-1.4l-2,1.2l-0.1,0.1c-0.2,0.1-0.3,0.5-0.3,0.9c0,0.2,0,0.3,0,0.4
			L35.5,70.9C35.5,70.9,35.5,70.9,35.5,70.9z"/>
		<path fill="#2D2D2D" d="M67.6,92l1.5,1l0.1,0c0.6,0.1,1,0,1.3-0.2l-1.8-1C68.3,91.8,67.9,91.8,67.6,92z"/>
		<path fill="#2D2D2D" d="M60.2,93.2l1.3,1.6c0.5,0.1,1,0.1,1.3-0.1l-1.4-1.4C61,93.2,60.6,93.1,60.2,93.2z"/>
		<path fill="#2D2D2D" d="M44.8,88.9c-0.1-0.3-0.5-0.6-1-0.8l0,2c0.3,0.6,0.6,0.8,1,0.9L44.8,88.9C44.8,88.9,44.8,88.9,44.8,88.9z"
			/>
		<path fill="#2D2D2D" d="M64,93c-0.1,0-0.3-0.1-0.7-0.1c-0.3,0-0.5,0-0.7,0.1l1.4,1.4c0.6,0.1,1,0,1.3-0.1L64,93L64,93z"/>
		<path fill="#2D2D2D" d="M65.7,92.4c-0.2,0-0.4,0-0.6,0.1l1.3,1.3c0.9,0.2,1.4,0.1,1.8-0.1l-1.7-1.2C66.2,92.5,66,92.4,65.7,92.4z"
			/>
		<path fill="#2D2D2D" d="M40.7,58.4l-2,0.1l-0.1,0c-0.6,0.2-0.9,0.7-1,1.2l2.2-0.3C40,59.2,40.4,58.8,40.7,58.4z"/>
		<path fill="#2D2D2D" d="M57.8,93.2l1,1.6c0.6,0.3,1.1,0.3,1.5,0.2L59,93.3C58.7,93.2,58.2,93.1,57.8,93.2z"/>
		<path fill="#2D2D2D" d="M56.5,93.1c-0.3-0.2-0.7-0.3-1.1-0.3l0.8,1.8c0.5,0.4,1,0.4,1.4,0.3L56.5,93.1
			C56.5,93.1,56.5,93.1,56.5,93.1z"/>
		<path fill="#2D2D2D" d="M46,89.5l0.1,1.8c0.3,0.7,0.7,0.9,1.2,0.9l-0.4-2C46.8,90,46.5,89.7,46,89.5z"/>
		<path fill="#2D2D2D" d="M48.1,90.6l0.4,1.9l0,0c0.3,0.6,0.8,0.8,1.3,0.8l-0.5-2.1C49.1,91,48.6,90.7,48.1,90.6z"/>
		<path fill="#2D2D2D" d="M52.8,92.3l0.8,1.8l0,0c0.3,0.3,0.8,0.4,1.3,0.4l-0.8-1.7C53.7,92.6,53.2,92.4,52.8,92.3z"/>
		<path fill="#2D2D2D" d="M50.5,91.6l0.4,1.9c0.5,0.5,1.1,0.7,1.5,0.7l-0.8-2C51.4,92,50.9,91.7,50.5,91.6z"/>
		<path fill="#2D2D2D" d="M37.8,62.8L36.3,63l-0.4,0.1c-0.3,0.1-0.5,0.6-0.6,1.1l1.8-0.4C37.4,63.6,37.7,63.2,37.8,62.8z"/>
		<path fill="#2D2D2D" d="M79,46.4c0.2,0,0.4,0,0.5,0l-0.9-1.7l-0.1-0.1c-0.3-0.3-1-0.3-1.5-0.3l1.1,2C78.3,46.3,78.6,46.4,79,46.4z
			"/>
		<path fill="#2D2D2D" d="M81.4,46.5C81.4,46.5,81.4,46.5,81.4,46.5c0.1,0,0.1,0,0.2,0c-0.5-0.7-0.7-1.5-0.8-1.9
			c-0.4-0.1-0.8-0.1-1-0.2l0.9,1.9C81,46.4,81.2,46.5,81.4,46.5z"/>
		<path fill="#2D2D2D" d="M77,46.2l-1.1-2c-0.4-0.2-0.9-0.2-1.3-0.2l1.2,1.8C75.9,46,76.4,46.2,77,46.2z"/>
		<path fill="#2D2D2D" d="M82.6,46l1.6-1.3c-0.1-0.5-0.4-1.2-0.6-1.5l-1.6,1.3C82,44.8,82.1,45.5,82.6,46z"/>
		<path fill="#2D2D2D" d="M68.7,45.9c0.2,0,0.3,0,0.4,0l-1.3-1.7c-0.5-0.2-1.1-0.2-1.5,0l1.5,1.6C68,45.8,68.3,45.9,68.7,45.9z"/>
		<path fill="#2D2D2D" d="M71.4,45.9c0.1,0,0.2,0,0.3,0l-1.2-1.7c-0.5-0.2-1-0.2-1.4-0.1l1.3,1.7C70.5,45.8,70.9,45.9,71.4,45.9z"/>
		<path fill="#2D2D2D" d="M74.3,46c0.1,0,0.1,0,0.2,0l-1.3-1.8c-0.5-0.2-1-0.1-1.4-0.1l1.2,1.7C73.3,45.9,73.8,46,74.3,46z"/>
		<path fill="#2D2D2D" d="M84.6,45.8l-1.7,1.4c0,0.2,0,0.6,0.2,1l1.5-1.3C84.7,46.5,84.7,46.1,84.6,45.8z"/>
		<path fill="#2D2D2D" d="M82.3,40.8L80.6,42c0,0.5,0.3,0.9,0.6,1.3c0.1,0.1,0.1,0.2,0.2,0.2l1.6-1.3C83,41.9,82.7,41.2,82.3,40.8z"
			/>
		<path fill="#2D2D2D" d="M42.2,56.6L40,56.4c-0.4,0.1-0.7,0.5-0.9,0.9l2.2-0.1C41.5,57.2,41.9,56.9,42.2,56.6z"/>
		<path fill="#2D2D2D" d="M50.9,49.5c0.4,0,0.9-0.2,1.3-0.4l-1.8-0.9c-0.5,0-0.9,0.2-1.2,0.5L50.9,49.5L50.9,49.5z"/>
		<path fill="#2D2D2D" d="M48,51.8l-1.8-0.6l-0.1,0c-0.6,0-1,0.3-1.2,0.6l1.9,0.5C47.1,52.2,47.6,52.1,48,51.8z"/>
		<path fill="#2D2D2D" d="M48.9,50.9c0.2,0,0.9-0.2,1.2-0.5l-1.8-0.8c-0.7,0-1.1,0.3-1.3,0.6L48.9,50.9L48.9,50.9z"/>
		<path fill="#2D2D2D" d="M44.6,53.7c0.3,0,1-0.3,1.3-0.6l-2-0.5h0c-0.6,0-1,0.3-1.3,0.9l1.7,0.2H44.6z"/>
		<path fill="#2D2D2D" d="M43.9,54.8l-2.2-0.3c-0.5,0.1-0.8,0.5-1,0.9l2.1,0.2C43.1,55.5,43.6,55.1,43.9,54.8z"/>
		<path fill="#2D2D2D" d="M57.9,46.8c0.1,0,0.3,0.1,0.6,0.1c0.3,0,0.5,0,0.7-0.1l-1.6-1.4c-0.4-0.1-1,0-1.5,0.2l1.7,1.1L57.9,46.8z"
			/>
		<path fill="#2D2D2D" d="M61,46.5c0.2,0,0.4,0,0.6-0.1L60,44.9c-0.4,0-0.8,0.1-1.1,0.2l1.6,1.4C60.5,46.5,60.7,46.5,61,46.5z"/>
		<path fill="#2D2D2D" d="M62.9,46.2C62.9,46.2,62.9,46.2,62.9,46.2c0.1,0.1,0.3,0.1,0.7,0.1c0.2,0,0.3,0,0.5,0l-1.6-1.7
			c-0.6-0.2-1-0.2-1.4-0.1L62.9,46.2C62.9,46.2,62.9,46.2,62.9,46.2z"/>
		<path fill="#2D2D2D" d="M53.2,48.4c0.4,0,0.9-0.1,1.3-0.3l-1.9-1c-0.5,0-0.9,0.2-1.2,0.4L53.2,48.4C53.1,48.4,53.1,48.4,53.2,48.4
			z"/>
		<path fill="#2D2D2D" d="M66,46.1c0.2,0,0.4,0,0.6-0.1l-1.5-1.6c-0.4-0.1-0.9-0.1-1.3,0l1.6,1.6C65.5,46.1,65.8,46.1,66,46.1z"/>
		<path fill="#2D2D2D" d="M56.7,47.4l-1.9-1.2c-0.4-0.1-0.9,0.1-1.2,0.3l1.8,0.9C55.9,47.5,56.4,47.5,56.7,47.4z"/>
		<path fill="#2D2D2D" d="M36.3,66c0.2-0.2,0.5-0.6,0.6-1l-1.8,0.4L35,65.5c-0.5,0.4-0.6,1-0.6,1.4L36.3,66L36.3,66z"/>
		<path fill="#2D2D2D" d="M86.6,60.1l1.5-1.4c0.2-0.4,0.1-0.9,0-1.3l-1.6,1.5C86.4,59.3,86.4,59.7,86.6,60.1z"/>
		<path fill="#2D2D2D" d="M80.6,82.9c-0.3,0.2-0.8,0.5-1,0.9l1.9,0.1l0.1,0c0.5-0.1,0.9-0.6,1-1l-1.9,0.1
			C80.7,82.9,80.6,82.9,80.6,82.9z"/>
		<path fill="#2D2D2D" d="M86.1,56.3c-0.1,0.4-0.2,0.9,0,1.4l1.6-1.5l0-0.1c0.2-0.4,0-1-0.3-1.4L86.1,56.3
			C86.1,56.3,86.1,56.3,86.1,56.3z"/>
		<path fill="#2D2D2D" d="M85.7,55.1l1.3-1.5c0.1-0.5-0.1-1-0.3-1.5l-1.3,1.8C85.4,54.5,85.4,54.8,85.7,55.1z"/>
		<path fill="#2D2D2D" d="M84.6,51.7c-0.1,0.4-0.1,0.9,0.2,1.3l1.3-1.8l0,0c0-0.5-0.1-0.9-0.2-1.2L84.6,51.7
			C84.7,51.7,84.6,51.7,84.6,51.7z"/>
		<path fill="#2D2D2D" d="M82.7,79.6l1.7-0.2c0.6-0.4,0.8-0.8,1-1.2l-1.9,0.5C83.1,78.9,82.8,79.2,82.7,79.6z"/>
		<path fill="#2D2D2D" d="M84,50.7l1.2-1.8c0-0.1-0.1-0.5-0.3-0.9l-1.4,1.3C83.6,49.8,83.7,50.4,84,50.7z"/>
		<path fill="#2D2D2D" d="M86.2,67.6l1.7-0.8c0.4-0.5,0.4-1.1,0.3-1.6l-1.6,1C86.3,66.6,86.2,66.9,86.2,67.6z"/>
		<path fill="#2D2D2D" d="M85.8,70.3l1.6-0.9l0.1-0.1c0.1-0.1,0.3-0.4,0.3-1.3L86,68.9C85.9,69.1,85.7,69.7,85.8,70.3z"/>
		<path fill="#2D2D2D" d="M82.1,80.9c-0.4,0.3-0.7,0.5-0.9,0.9l2-0.1c0.5-0.4,0.7-0.8,0.8-1.1L82.1,80.9
			C82.1,80.8,82.1,80.8,82.1,80.9z"/>
		<path fill="#2D2D2D" d="M86.6,64.9l1.5-1l0,0c0.3-0.3,0.3-0.9,0.3-1.3l-1.6,1.1C86.7,64.1,86.5,64.5,86.6,64.9z"/>
		<path fill="#2D2D2D" d="M85.7,71.7c-0.2,0.3-0.3,0.5-0.3,0.9l1.6-0.7c0.4-0.5,0.5-0.9,0.4-1.3l-1.6,0.9
			C85.8,71.6,85.7,71.6,85.7,71.7z"/>
		<path fill="#2D2D2D" d="M86.7,62.5l1.6-1.1c0.3-0.5,0.2-1,0-1.5l-1.5,1.3C86.8,61.5,86.7,62,86.7,62.5z"/>
		<path fill="#2D2D2D" d="M78,85.6l1.9,0.2c0.5-0.1,0.9-0.5,1.1-0.9L79,84.9C78.8,84.9,78.3,85.2,78,85.6z"/>
		<path fill="#2D2D2D" d="M72,90l1.8,0.8c0.7,0,1.1-0.3,1.4-0.6l-2-0.6C72.7,89.7,72.3,89.8,72,90z"/>
		<path fill="#2D2D2D" d="M84.6,75l1.8-0.6c0.4-0.4,0.5-0.9,0.5-1.3l-1.7,0.7C85.1,74.1,84.8,74.5,84.6,75z"/>
		<path fill="#2D2D2D" d="M83.6,77.5l1.9-0.5c0.5-0.5,0.7-1,0.8-1.4l-2,0.6C83.9,76.7,83.7,77.1,83.6,77.5z"/>
		<path fill="#2D2D2D" d="M74.1,88.7l2.1,0.6c0.5,0,0.9-0.4,1.1-0.7l-2-0.4C74.8,88.2,74.3,88.4,74.1,88.7z"/>
		<path fill="#2D2D2D" d="M85.6,45.5c0.1,0.4,0.2,0.9,0.1,1.4c0,0,0,0,0,0c0,0,0,0,0,0l0,0c0,0,0,0,0,0.1c0,0,0,0,0,0
			c0.3,0.6,1,0.8,1.6,0.9L87,46.4C86.7,46,86.2,45.6,85.6,45.5z"/>
		<path fill="#2D2D2D" d="M88.6,48.4c0.4,0.4,0.7,0.5,1,0.6l0.5-1.8c-0.6-0.3-1.3-0.5-1.9-0.5L88.6,48.4z"/>
		<path fill="#2D2D2D" d="M76.2,87.3l1.8,0.4l0,0c0.5-0.1,0.9-0.5,1.1-0.8l-1.9-0.2C76.9,86.7,76.4,86.9,76.2,87.3z"/>
		<path fill="#2D2D2D" d="M93.8,48.3l-0.1,0.5l0.8,0.2c0.2-0.4,0.4-0.7,0.7-0.9l-1.4-0.4C93.9,47.9,93.9,48.1,93.8,48.3z"/>
		<path fill="#2D2D2D" d="M94.3,49.9l-0.8-0.2l-0.1,0.5c-0.1,0.2-0.2,0.4-0.4,0.5l1.4,0.3C94.2,50.6,94.2,50.2,94.3,49.9z"/>
		<path fill="#2D2D2D" d="M97.1,47.4c-0.4,0-0.7,0.1-1.1,0.2c-0.3,0.1-0.5,0.3-0.8,0.5c-0.3,0.3-0.6,0.6-0.7,0.9
			c-0.1,0.3-0.2,0.6-0.3,0.9c-0.1,0.4,0,0.8,0.1,1.1c0,0.1,0,0.2,0.1,0.3c0.4,1.1,1.5,1.8,2.7,1.8c0.4,0,0.7-0.1,1.1-0.2
			c0.7-0.3,1.3-0.8,1.6-1.5c0.3-0.7,0.3-1.5,0-2.2C99.3,48.1,98.3,47.4,97.1,47.4z"/>
		<path fill="#2D2D2D" d="M72.7,33.6c0.2,0.3,0.5,0.4,0.8,0.4c0.2,0,0.4-0.1,0.5-0.1l3.3-2.1c0.4-0.3,0.6-0.9,0.3-1.3l-2.7-4.3
			c-0.5-0.8-1.3-1.2-2.3-1.2c-0.5,0-1,0.1-1.4,0.4l-0.3,0.2c-0.6,0.4-1,1-1.2,1.7c-0.2,0.7,0,1.4,0.4,2L72.7,33.6z"/>
		<path fill="#2D2D2D" d="M76.4,38.1c0.1,0.2,0.3,0.3,0.5,0.3c0.1,0,0.2,0,0.3-0.1l3.1-2c0.3-0.2,0.3-0.5,0.2-0.8
			c-0.2-0.3-0.5-0.3-0.8-0.2l-3.1,2C76.4,37.5,76.3,37.9,76.4,38.1z"/>
		<path fill="#2D2D2D" d="M75.4,36.6c0.1,0.2,0.3,0.3,0.5,0.3c0.1,0,0.2,0,0.3-0.1l3.1-2c0.3-0.2,0.3-0.5,0.2-0.8
			c-0.2-0.3-0.5-0.3-0.8-0.2l-3.1,2C75.3,36,75.2,36.3,75.4,36.6z"/>
		<path fill="#2D2D2D" d="M74.6,34.3c-0.3,0.2-0.3,0.5-0.2,0.8c0.1,0.2,0.3,0.3,0.5,0.3c0.1,0,0.2,0,0.3-0.1l3.1-2
			c0.3-0.2,0.3-0.5,0.2-0.8c-0.2-0.3-0.5-0.3-0.8-0.2L74.6,34.3z"/>
		<path fill="#2D2D2D" d="M80.6,42l1.8-1.1l0.9-0.6l0,0L81,36.7L77.5,39l2,3.1l0.3,0.4L80.6,42z"/>
		<path fill="#2D2D2D" d="M93.3,50.1l0.1-0.5l0.3-0.9l0.1-0.5c0.1-0.2,0-0.4,0-0.6c0,0,0-0.1-0.1-0.1c-0.1-0.2-0.3-0.4-0.6-0.5
			l-2.3-0.6l-0.5-0.1l-0.3,0.9L89.6,49l-0.3,1l0.4,0.1l2.4,0.6c0.1,0,0.2,0,0.3,0c0.2,0,0.4-0.1,0.6-0.2
			C93.1,50.5,93.3,50.4,93.3,50.1z"/>
	</g>
</g>
</svg>
