<svg id="Layer_1" data-name="Layer 1" xmlns="http://www.w3.org/2000/svg" width="128" height="128" viewBox="0 0 128 128"><title>Artboard 42</title><path d="M17,109.44h4.71a7.35,7.35,0,0,1,2.7.35A3,3,0,0,1,25.74,111a4,4,0,0,1,.08,3.88,3.06,3.06,0,0,1-1.2,1.24,3.2,3.2,0,0,1,1.64,1.27,3.93,3.93,0,0,1,.59,2.19,4.51,4.51,0,0,1-.75,2.64,3.12,3.12,0,0,1-1.78,1.33,18,18,0,0,1-3.31.18H17Zm2.37,2.38v3.31h1.56a15.07,15.07,0,0,0,1.74,0,1.42,1.42,0,0,0,.94-.51,1.72,1.72,0,0,0,.35-1.13,1.81,1.81,0,0,0-.28-1,1.16,1.16,0,0,0-.68-.49,13.58,13.58,0,0,0-2.27-.1Zm0,5.7v3.81h2.2a7,7,0,0,0,1.86-.15,1.43,1.43,0,0,0,.69-.59,2.15,2.15,0,0,0,.28-1.13,2,2,0,0,0-.3-1.15,1.55,1.55,0,0,0-.79-.62,7.36,7.36,0,0,0-2-.17Z"/><path d="M29,109.44h2.36v7.75a18.81,18.81,0,0,0,.09,2.36,2.42,2.42,0,0,0,.75,1.46,2.26,2.26,0,0,0,1.56.52,2.21,2.21,0,0,0,1.34-.37,1.81,1.81,0,0,0,.71-1,12.36,12.36,0,0,0,.19-2.79v-7.92H38.4V117a20.11,20.11,0,0,1-.31,4.16,3.55,3.55,0,0,1-1.39,2.08,4.7,4.7,0,0,1-2.85.8,5.29,5.29,0,0,1-2.86-.66,3.76,3.76,0,0,1-1.5-1.85,14,14,0,0,1-.46-4.41Z"/><path d="M40.49,119.09l2.31-.28c.26,1.83,1.12,2.75,2.56,2.75a2.43,2.43,0,0,0,1.69-.56,1.82,1.82,0,0,0,.62-1.39,1.45,1.45,0,0,0-.22-.83,1.51,1.51,0,0,0-.65-.56,16.21,16.21,0,0,0-2.13-.74,7.29,7.29,0,0,1-2.22-1,3.68,3.68,0,0,1-1.12-1.41,4.37,4.37,0,0,1-.41-1.87,4.24,4.24,0,0,1,.53-2.11,3.53,3.53,0,0,1,1.47-1.42,5.08,5.08,0,0,1,2.32-.47,4.45,4.45,0,0,1,3.23,1.12,4.52,4.52,0,0,1,1.23,3.21l-2.37.13a2.55,2.55,0,0,0-.68-1.61,2.11,2.11,0,0,0-1.47-.46,2.37,2.37,0,0,0-1.48.4,1.21,1.21,0,0,0-.52,1,1.24,1.24,0,0,0,.47,1,6.73,6.73,0,0,0,2.16.88,9.1,9.1,0,0,1,2.59,1.09,3.69,3.69,0,0,1,1.21,1.47,5.23,5.23,0,0,1,.42,2.2,4.48,4.48,0,0,1-1.15,3.13A4.59,4.59,0,0,1,45.29,124Q41,124,40.49,119.09Z"/><path d="M52.23,123.76V109.44H54.6v5.63h4.65v-5.63h2.37v14.32H59.25V117.5H54.6v6.26Z"/><path d="M64.26,109.44H69a7.41,7.41,0,0,1,2.71.35A3.06,3.06,0,0,1,73,111a3.78,3.78,0,0,1,.54,2,3.87,3.87,0,0,1-.46,1.87,3.06,3.06,0,0,1-1.2,1.24,3.18,3.18,0,0,1,1.63,1.27,3.85,3.85,0,0,1,.59,2.19,4.51,4.51,0,0,1-.75,2.64,3.06,3.06,0,0,1-1.78,1.33,17.94,17.94,0,0,1-3.31.18h-4Zm2.36,2.38v3.31h1.56a15.07,15.07,0,0,0,1.74,0,1.44,1.44,0,0,0,1-.51,1.71,1.71,0,0,0,.34-1.13,1.74,1.74,0,0,0-.28-1,1.14,1.14,0,0,0-.67-.49,13.58,13.58,0,0,0-2.27-.1Zm0,5.7v3.81h2.2a6.91,6.91,0,0,0,1.86-.15,1.35,1.35,0,0,0,.69-.59,2.39,2.39,0,0,0,0-2.28,1.51,1.51,0,0,0-.79-.62,7.27,7.27,0,0,0-2-.17Z"/><path d="M76.28,109.44h2.36v7.75a18.81,18.81,0,0,0,.09,2.36,2.36,2.36,0,0,0,.74,1.46,2.29,2.29,0,0,0,1.57.52,2.26,2.26,0,0,0,1.34-.37,1.86,1.86,0,0,0,.71-1,13,13,0,0,0,.19-2.79v-7.92h2.36V117a19.42,19.42,0,0,1-.31,4.16A3.49,3.49,0,0,1,84,123.2a4.7,4.7,0,0,1-2.85.8,5.32,5.32,0,0,1-2.87-.66,3.8,3.8,0,0,1-1.49-1.85,14,14,0,0,1-.46-4.41Z"/><path d="M95.85,118.49l2.3.89a6.48,6.48,0,0,1-1.79,3.51A4.48,4.48,0,0,1,93.28,124a4.55,4.55,0,0,1-3.72-1.77,8.55,8.55,0,0,1-1.64-5.51A9,9,0,0,1,89.57,111a4.68,4.68,0,0,1,3.86-1.79,4.46,4.46,0,0,1,3.31,1.34,6,6,0,0,1,1.39,2.84l-2.35.69a3.17,3.17,0,0,0-.89-1.78,2.24,2.24,0,0,0-1.58-.62,2.51,2.51,0,0,0-2.13,1.13,6.57,6.57,0,0,0-.82,3.74,7,7,0,0,0,.8,3.85,2.45,2.45,0,0,0,2.08,1.14,2.12,2.12,0,0,0,1.62-.73A4.52,4.52,0,0,0,95.85,118.49Z"/><path d="M100.4,123.76V109.44h2.36v6.37l4.8-6.37h3.19L106.33,115l4.66,8.74h-3.07L104.68,117l-1.92,2.4v4.33Z"/><path d="M68.18,98.7v1c0,.6.77,1.26.77,1.26h4l-2.29-2.74Z"/><path d="M104.57,19.65c-2.07.4-3.65,1.75-5.46,3.17.06-1.58,1.14-2,1.8-2.77s1.78-1.48,1.69-2.57A27.82,27.82,0,0,1,103.16,8a9.42,9.42,0,0,0-3.07,6.55c-.1,1.06,0,2.19-1.12,2.8a11.21,11.21,0,0,0-4.83,5.72c-.71,1.64-1.61,1.77-2.54.14-.73-1.3-1.28-2.81-2.68-3.52a10.68,10.68,0,0,1-5.53-7.31,4.74,4.74,0,0,0-3.33-3.51c3.44,3.53.19,9.46,4.76,12.65-1.12-.42-2.2-.94-3.34-1.26a2.19,2.19,0,0,0-3,2.61c.5,3.35,2.21,5.07,6,5.71,1.88.32,3.33.94,3,3.12-.25,1.94-.53,3.87-.87,5.8v.19a5.66,5.66,0,0,1-2,3.42,5.24,5.24,0,0,1-2.21,1.07c-.4.08-.8.17-1.2.23a4.58,4.58,0,0,1-.63.05,1.88,1.88,0,0,1-.33,0,.51.51,0,0,1-.2-.06.26.26,0,0,1-.13-.14c-1.59-.49-3.09-1.14-4.64-1.68a46.85,46.85,0,0,0-4.77-1.46A41.11,41.11,0,0,0,60.66,38h-.07c-5.19-.85-10.46-1.56-15.66-.95a41.29,41.29,0,0,0-7.63,1.74c-1.25.39-2.49.84-3.69,1.34-.6.25-1.2.51-1.77.81a5.14,5.14,0,0,0-1.51,1A29.78,29.78,0,0,0,27.65,45c-.39.54-1.93,2.68-2,2.77a3.12,3.12,0,0,0-.27.26,16.22,16.22,0,0,0-1.67,3.42c-.46,1.23-.81,2.49-1.18,3.74a18.54,18.54,0,0,0-.3,7.68,13.7,13.7,0,0,1-1,7.36A6.46,6.46,0,0,0,25,67.46a15.43,15.43,0,0,0,2.35-5,11.62,11.62,0,0,0,.17-2.78l-.11-2.84a35.73,35.73,0,0,1,.09-5.17,4.05,4.05,0,0,1-.12-.47c0,.13.08.28.12.42,0-.15,0-.3.05-.44,0,.17,0,.33,0,.49a26.42,26.42,0,0,0,2.88,6.12,37.9,37.9,0,0,0,4.11,5.3,14.32,14.32,0,0,1,1.16,1.26,7.57,7.57,0,0,1,.81,1.54,12.63,12.63,0,0,1,.82,3.35,10.14,10.14,0,0,1-.17,3.47,13.05,13.05,0,0,1-1.5,3.12A17.07,17.07,0,0,0,34,78.69a2,2,0,0,0-.15.68A1,1,0,0,0,34,80c.24.43.58.88.89,1.33a42.24,42.24,0,0,1,3.9,5.57,11.11,11.11,0,0,1,.72,1.61l.59,1.58,1.2,3.13,2.13,5.6a.55.55,0,0,0,.53.36,4.29,4.29,0,0,1,1,0c.24.09.47.68.47.68.49-.18,2.56-.62,2.56-.62a37,37,0,0,1-4.25-6.8A13.58,13.58,0,0,1,43,90.23l-.69-2.17a36.8,36.8,0,0,1-1.17-4.48A11.84,11.84,0,0,1,41,78.87a22.24,22.24,0,0,1,1.83-4.29c1.38-2.71,3-5.32,3.7-8.22l0-.08.05,0a19.25,19.25,0,0,0,3.61-5.89A13.21,13.21,0,0,0,51,57a14.37,14.37,0,0,0-.16-3.46v0a6.89,6.89,0,0,0-.45-2.33A8.32,8.32,0,0,0,49.23,49a5.41,5.41,0,0,1,2.32,2.08,6.57,6.57,0,0,1,.55,2.37A14.86,14.86,0,0,1,52.38,57a13.45,13.45,0,0,1-.66,3.5l-.1.29c.35-.2.72-.68,1.06-.78.18,0,.7.35.93.45-.11.21-.21.79-.38.92a1.23,1.23,0,0,1-1.71-.29,17.68,17.68,0,0,1-2.21,4A30,30,0,0,0,52.47,65c1.46-.11,3-.1,4.4-.29a10.71,10.71,0,0,0,2.1-.45,5.69,5.69,0,0,1,2.3-.42A7.66,7.66,0,0,1,65,64.94c0-.63-.08-1.24-.11-1.87s0-1.13,0-1.71c0-.3,0-.58,0-.89a2.29,2.29,0,0,1,.31-.85,26,26,0,0,1,1.85-2.91,14,14,0,0,1,2.42-2.51,14.35,14.35,0,0,0-2.1,2.68,24.91,24.91,0,0,0-1.72,2.95,2.28,2.28,0,0,0-.23.76,7.66,7.66,0,0,0,0,.83c0,.57.06,1.14.1,1.7l.3,3.41.7,6.82c.14,1.12.23,2.29.39,3.38A18.15,18.15,0,0,0,67.78,80l0,.1,0,.11L67,88.94c-.11,1.51-.34,3-.55,4.42,0,0-.13,4.2.17,4.46s1-.55,1.24-.42.17.66.17.66l2.15-.61c-.26-1.31-.59-2.75-.79-4.06A29.87,29.87,0,0,1,69,88.81c.1-1.58.35-3,.57-4.54l.74-4.47v0l0-.07c.06-.15.12-.32.18-.5a1.24,1.24,0,0,1-.39-.09c-1.06-.42-.72-2.71-.39-3.55s.75-2.28,1.6-2.35a3.29,3.29,0,0,0,.44-.11c0-.13,0-.26.07-.4l.61-3.59c.18-1.2.37-2.41.5-3.6l0-.19.19,0a7.34,7.34,0,0,0,2.68-1.51A13.14,13.14,0,0,0,78,61.46a9.57,9.57,0,0,0,2.09-5.91,8.3,8.3,0,0,1-1.64,6.23,13.9,13.9,0,0,1-2.17,2.44,8.44,8.44,0,0,1-2.84,1.48c0,.33-.06.64-.1,1A9.87,9.87,0,0,0,76,66.47a8.75,8.75,0,0,0,2.67-1,10,10,0,0,0,2.26-1.66,10.5,10.5,0,0,0,1.73-2.18l.06-.08.08-.06c.42-.31.83-.61,1.24-.94a3.64,3.64,0,0,1-1.11-2.19s-1.3-4.8-.64-4.8,2.16,3.31,2.16,3.31a3.67,3.67,0,0,0,1.89,1.47l.29.1c.63-.53,1.24-1.08,1.84-1.65a27.13,27.13,0,0,0,4.7-5.53,27.9,27.9,0,0,0,2.69-6.77q.19-.72.36-1.44c-1.5.11-3.21-.17-4-1.71,0,0-2.91-4.27-2.36-4.61s3.56,1.75,3.56,1.75c.6.29,2.76-1.11,4-1.73.16-1.68.32-3.16.4-4.9.13-2.35,1-3.61,3.1-3.69,3.8-.15,5.07-2.64,5.88-6.63C107.06,19.82,106.15,19.34,104.57,19.65ZM34,50.35c-.07-.35.49-.85.85-.86s.61,0,.61.49-.3.83-1.07.85C34.29,50.73,34,50.56,34,50.35Zm.66,11.76c-.07-.07-.33-.18-.37-.36s.9-1,1.37-.9a.56.56,0,0,1,.38.35C36.06,61.57,35.31,62.1,34.65,62.11Zm3,2c.21-.79.71-1.07,1.4-.81A1.92,1.92,0,0,1,37.68,64.09Zm1.18-6.51c-.86-.21-.87-.58-.5-.88.36-.53.8-.46,1.46-.14C39.91,57.41,39.19,57.34,38.86,57.58Zm4.71,2.9c-.06.55-.75.33-.67-.24a2.75,2.75,0,0,0,.15-.36c.28-.21.71-.15.71.31C43.69,60.3,43.6,60.48,43.57,60.48Zm-1.43-2.36c-.25.07-.61-.31-.92-.48.44-1,1.06-1,2-.4C43.24,58.13,42.52,58,42.14,58.12Zm1-6.72a10.18,10.18,0,0,1-.63-1c0-.05.18-.24.35-.46.39.35.7.63,1,.9Zm2.12,3.46c-.18-.15-.35-.31-.66-.59a3.57,3.57,0,0,1,.79-.55c.12,0,.48.35.45.39A4.69,4.69,0,0,1,45.23,54.86Zm1.33,1.68a11.69,11.69,0,0,1,.75-1.09l.68.61c-.1.44-.69,1-1,.93S46.53,56.6,46.56,56.54Zm1.68,3.85c-.63.15-.91-.06-1.14-.86a5.93,5.93,0,0,1,.92-.24.61.61,0,0,1,.76.53C48.87,60.24,48.53,60.33,48.24,60.39Zm9,1.29a.89.89,0,0,1,.12-1.29c.33,0,1-.25,1.3.51,0,.15-.12.64-.12.78Zm3.7.65a1.26,1.26,0,0,1-1.55.55c.44-.51,1.41-.61.77-1.64.26,0,.66,0,.74.17A1.14,1.14,0,0,1,61,62.33ZM64.25,62a9.81,9.81,0,0,1-1.09.1c0-.09,0-.18-.08-.28.37-.13.73-.27,1.11-.37.08,0,.21.13.31.2C64.42,61.78,64.36,62,64.25,62ZM66,61.22c0-.45.53-.86,1.22-.83ZM90.49,30a1.22,1.22,0,0,1-1.75-.89.23.23,0,0,1,.14-.27,1.51,1.51,0,0,1,1.09,0,1.46,1.46,0,0,1,.65.87A.24.24,0,0,1,90.49,30Zm4.21,3.46c-.1.21-.83.22-.77.46s.4.37.34.53a1.2,1.2,0,0,1-.83.43,1.28,1.28,0,0,1-.83-.43c0-.14.3-.28.35-.53s-.71-.32-.78-.46.42-.83,1.26-.83S94.82,33.21,94.7,33.42Zm2-3.46a1.53,1.53,0,0,1-1.07,0,.19.19,0,0,1-.13-.25,1.46,1.46,0,0,1,.67-.84,1.53,1.53,0,0,1,1.07,0,.19.19,0,0,1,.12.26A1.46,1.46,0,0,1,96.69,30Z"/><path d="M45.87,100.52v1.37c0,.59.77,1.26.77,1.26h4L48,100.08Z"/><path d="M26.53,99.26v1.22c0,.6.77,1.26.77,1.26h4l-2.47-3Z"/><path d="M35.57,69.28a8.68,8.68,0,0,0-2.51-5.88c-1.5-1.72-2.27-3.71-3.45-5.64a22.84,22.84,0,0,1-2.12-6c-.13,1.71.6,3.5.69,5.19l.14,2a23.86,23.86,0,0,1,.94,5,12.18,12.18,0,0,1-.09,4.81A13.08,13.08,0,0,1,26.93,73c-.48.65-1,1.26-1.48,1.87-.27.31-.51.61-.74.91a2.7,2.7,0,0,0-.44.83c.34,1.73.47,3.4.64,5.1l.42,5.18a15.65,15.65,0,0,1,.06,2.65l-.14,2.6c-.09,1.5-.18,3-.29,4.48a.25.25,0,0,0,.28.28c.31,0,.76,0,.88.1a4.82,4.82,0,0,1,.25,1.46,14.45,14.45,0,0,1,2.1-.32S27.41,93,27.16,90.5c-.05-.68-.11-1.34-.11-2s.12-1.36.17-2a30.56,30.56,0,0,1,.54-4,10.22,10.22,0,0,1,1.62-3.74A31.71,31.71,0,0,1,32,75.66c.89-1,1.81-1.94,2.68-3A7.46,7.46,0,0,0,35.57,69.28Z"/><path d="M82.18,92.48a26.39,26.39,0,0,1-1.33-3.63,59.93,59.93,0,0,1-1-7.6,15.58,15.58,0,0,1-.08-1.93,9.36,9.36,0,0,0-.18-1.82c-.19-1.23-.64-2.42-.78-3.73-.22-2.47-.42-4.76-.55-7.23a8.12,8.12,0,0,1-2.24.53A9.17,9.17,0,0,1,73.35,67c-.1.83-.17,1.36-.28,2.2l-.15,1.06.89,2.52c1.7,1.28,2.34.42,2.7,0s1.06.75,1,2-.45,3.08-1.79,2.91c.11.27.22.55.35.82.36.87.75,1.74,1.14,2.6v.07c.55,2.38,1.13,4.74,1.66,7.14l.19.9a8.09,8.09,0,0,1,.16,1c.06.62.09,1.24.12,1.85.05,1.08-.1,3,.11,3.21s1.15-.23,1.41,0,.63.62.63.62a10.81,10.81,0,0,1,1.87-.27S82.57,93.4,82.18,92.48Z"/><path d="M81.56,96.7v1.11c0,.61.77,1.27.77,1.27h4l-2.4-2.86Z"/></svg>