<svg id="Layer_1" data-name="Layer 1" xmlns="http://www.w3.org/2000/svg" width="128" height="128" viewBox="0 0 128 128"><title>Artboard 43</title><path d="M27.14,109.44h4.7a7.37,7.37,0,0,1,2.71.35A3.06,3.06,0,0,1,35.87,111a3.78,3.78,0,0,1,.54,2,3.87,3.87,0,0,1-.46,1.87,3.06,3.06,0,0,1-1.2,1.24,3.14,3.14,0,0,1,1.63,1.27,3.85,3.85,0,0,1,.59,2.19,4.51,4.51,0,0,1-.75,2.64,3.06,3.06,0,0,1-1.78,1.33,17.86,17.86,0,0,1-3.31.18h-4Zm2.36,2.38v3.31h1.57a15,15,0,0,0,1.73,0,1.44,1.44,0,0,0,1-.51,1.71,1.71,0,0,0,.34-1.13,1.74,1.74,0,0,0-.28-1,1.14,1.14,0,0,0-.67-.49,13.58,13.58,0,0,0-2.27-.1Zm0,5.7v3.81h2.21a6.86,6.86,0,0,0,1.85-.15,1.35,1.35,0,0,0,.69-.59,2.39,2.39,0,0,0,0-2.28,1.47,1.47,0,0,0-.79-.62,7.27,7.27,0,0,0-2-.17Z"/><path d="M39.16,109.44h2.36v7.75a18.81,18.81,0,0,0,.09,2.36,2.32,2.32,0,0,0,.75,1.46,2.61,2.61,0,0,0,2.9.15,1.86,1.86,0,0,0,.71-1,12.36,12.36,0,0,0,.19-2.79v-7.92h2.36V117a19.42,19.42,0,0,1-.31,4.16,3.49,3.49,0,0,1-1.38,2.08A4.7,4.7,0,0,1,44,124a5.32,5.32,0,0,1-2.87-.66,3.8,3.8,0,0,1-1.49-1.85,14,14,0,0,1-.46-4.41Z"/><path d="M50.62,119.09l2.31-.28c.26,1.83,1.11,2.75,2.56,2.75a2.43,2.43,0,0,0,1.69-.56,1.81,1.81,0,0,0,.61-1.39,1.53,1.53,0,0,0-.21-.83,1.48,1.48,0,0,0-.66-.56,16.45,16.45,0,0,0-2.12-.74,7.29,7.29,0,0,1-2.22-1,3.68,3.68,0,0,1-1.12-1.41,4.23,4.23,0,0,1-.41-1.87,4.14,4.14,0,0,1,.53-2.11,3.41,3.41,0,0,1,1.47-1.42,5,5,0,0,1,2.31-.47,4.08,4.08,0,0,1,4.47,4.33l-2.38.13a2.54,2.54,0,0,0-.67-1.61,2.15,2.15,0,0,0-1.48-.46,2.34,2.34,0,0,0-1.47.4,1.18,1.18,0,0,0-.52,1,1.24,1.24,0,0,0,.47,1,6.52,6.52,0,0,0,2.16.88,9,9,0,0,1,2.58,1.09,3.72,3.72,0,0,1,1.22,1.47,5.23,5.23,0,0,1,.42,2.2A4.53,4.53,0,0,1,59,122.73,4.6,4.6,0,0,1,55.42,124Q51.1,124,50.62,119.09Z"/><path d="M62.36,123.76V109.44h2.36v5.63h4.66v-5.63h2.36v14.32H69.38V117.5H64.72v6.26Z"/><path d="M74.39,123.76V109.44h3.8a12.22,12.22,0,0,1,2.79.2,3.22,3.22,0,0,1,1.72,1.42,5.19,5.19,0,0,1,.68,2.79,5.3,5.3,0,0,1-.59,2.61,3.39,3.39,0,0,1-1.46,1.47,7.68,7.68,0,0,1-3,.43H76.75v5.4Zm2.36-11.9v4.07h1.31a6,6,0,0,0,1.8-.18,1.65,1.65,0,0,0,.77-.67,2.15,2.15,0,0,0,.31-1.19,2.2,2.2,0,0,0-.32-1.21,1.5,1.5,0,0,0-.77-.65,7.06,7.06,0,0,0-1.95-.17Z"/><path d="M85.45,123.76V109.44h2.37v14.32Z"/><path d="M95.75,118.5v-2.42h5.11v5.7a6.18,6.18,0,0,1-2.19,1.57,6.79,6.79,0,0,1-2.84.65,5.56,5.56,0,0,1-3.07-.85,5.88,5.88,0,0,1-2.1-2.56,9.6,9.6,0,0,1-.78-4,9.48,9.48,0,0,1,.79-4,5.83,5.83,0,0,1,2-2.51,5.28,5.28,0,0,1,3-.83,4.59,4.59,0,0,1,5,4.2l-2.34.54a3.08,3.08,0,0,0-1-1.69,2.54,2.54,0,0,0-1.68-.58,3,3,0,0,0-2.45,1.17,5.75,5.75,0,0,0-.94,3.59,6.45,6.45,0,0,0,1,3.94,2.79,2.79,0,0,0,2.35,1.16,3.5,3.5,0,0,0,1.44-.33,4.3,4.3,0,0,0,1.34-.89V118.5Z"/><path d="M119.31,73.08a5.8,5.8,0,0,0-2.35,1,6.46,6.46,0,0,0-2.23,3.64c-.13.49-.11,1.54.54,1.85s4-2.74,5.08-5.21C120.73,73.45,120.27,72.88,119.31,73.08Z"/><path d="M78.57,98A8.31,8.31,0,0,1,78,97l-5,1a9.47,9.47,0,0,1,.12,1.59,1.73,1.73,0,0,0,1.38,2c1.6.49,3.21.94,4.82,1.39.82.22,1.07-.19.82-.91A16.85,16.85,0,0,0,78.57,98Z"/><path d="M18.42,93.17l-4.67,1c.1.48.19,1,.25,1.48a2.38,2.38,0,0,0,1.8,2.3c1.2.35,3.86,1.19,5.16,1.52a.43.43,0,0,0,.53-.52,9.34,9.34,0,0,0-2-4.37A9.62,9.62,0,0,1,18.42,93.17Z"/><path d="M118.36,72.55c-1.47-2.09-3-4.15-4.45-6.28a12.4,12.4,0,0,1-2.09-9.82,11.26,11.26,0,0,0,.2-2.84,19.94,19.94,0,0,0-.34-3.28,2.68,2.68,0,0,1,.3-1.87c1.54-3,2.42-6.13,1.56-9.52a1.63,1.63,0,0,0-.07-.26c-.23-.62-.31-1.5-1.11-1.45-.4,0-.75.77-1.15,1.16-1.24,1.27-2.47,2.52-3.84,3.89-1.1-2.26-4.39-3.26-6.27-4,.15.48,1,1.21,1.36,1.94.84,1.73.05,3.67-1,5.31a17.39,17.39,0,0,0,.3-3.64c-.2-2.25-2.73-5.46-2.73-5.46-.82-1.19-1.67-2.36-2.51-3.52-.26-.36-.58-.68-1-1.15a5.89,5.89,0,0,0-.38.8q-.9,3.47-1.75,6.94a11.78,11.78,0,0,0,1,8.86,24.44,24.44,0,0,0,2.18,2.76,5.24,5.24,0,0,1-2.76-2.23A11.76,11.76,0,0,1,92,43.07a25.65,25.65,0,0,1,1.24-7.54c-2.08-3.31-4.12-3.8-7.95-6.34-.46-.3-.93-.58-1.41-.83a14.75,14.75,0,0,0-2-.84c-.8-.27-4.63-1.81-6.6-2.61a.47.47,0,0,0-.63.57c.16.53.12,1.09-.71,1.22-2.81.44-4.48-.76-7.88-.58-6-2.38-18.53-5.64-31.35-3.26-15,3.7-20.78,15.11-21.66,19a48.18,48.18,0,0,0-.74,13.92c.23,2.25-.51,5.85-1.27,8.79a12.08,12.08,0,0,1-1,1.25,5.59,5.59,0,0,0-1.61,3.29c-.22,1.6-.64,3.17-1,4.82a8.26,8.26,0,0,0,3.93-2.66,5.7,5.7,0,0,0,.74-2.06c.23-1.32.4-3.47.46-4.16a90.51,90.51,0,0,0,2.64-11.93c2,3.05,2.44,6,3.18,9.84a11.45,11.45,0,0,1-3.73,11,3.58,3.58,0,0,0-1.11,3.19,31.78,31.78,0,0,1-.72,10.56c-.26,1-.67,2-1,3a4.3,4.3,0,0,0,0,2.27.58.58,0,0,0,.56.42l1.1,0c.15,0,2.66-.67,4.37-.93a5.18,5.18,0,0,1-.46-4c.59-2.59,1.23-5.16,2-7.72a6.45,6.45,0,0,1,2.65-3.41C24,75.93,25.94,74.57,27.7,73a18.82,18.82,0,0,0,4.69-6.78,12.82,12.82,0,0,0-.15-2.66,38.14,38.14,0,0,1,12.23,2.08c5.31,4.3,14.4,3.7,15.78,3.11a7.92,7.92,0,0,1,2.3-.57c2.09,3.33,6.53,13.4,7.64,15.65,1.86,3.77,1.46,7.42.87,11.22,0,.19-.11.67-.19,1.11a.83.83,0,0,0,.66.94l1.35.16s2.88-.63,4.8-1a18,18,0,0,1-1-4.56c-.58-3.84.26-7.53.93-11.25.07-.38.14-.77.17-1.14.21-2.08-2.14-9.27-1.1-11.54,4.14-.25,8-.48,9.23-.52a6.27,6.27,0,0,1,2,0l-2.65-3.08a2,2,0,0,1-.45-.95l-1.25-7.48,3.24,8.13a1.86,1.86,0,0,0,.58.78l6.43,5.15a.93.93,0,0,0,.37,0c1.78-.35,2.9,1.37,4.53,2.15s3.12,1.18,4.68,1.78a3.07,3.07,0,0,1,1,.67A7.22,7.22,0,0,0,109,76.79a9.89,9.89,0,0,1,3.06,1.14,18.13,18.13,0,0,1,2,1.21C113.94,75.74,115.44,73.56,118.36,72.55ZM100.85,58.06a2.09,2.09,0,0,1-1.63.1,2.14,2.14,0,0,1-.93-1.33.38.38,0,0,1,.21-.44,1.67,1.67,0,0,1,2.57,1.23A.37.37,0,0,1,100.85,58.06Z"/><path d="M35.08,65.33c-1,1.1-1.42,1.75-2.34,2.89a2.07,2.07,0,0,0-.38.66c-.72,1.88-1.34,3.8-2.16,5.65a2.89,2.89,0,0,0,.15,2.62A26.11,26.11,0,0,1,34,87.74a16.37,16.37,0,0,0,.78,2.81.72.72,0,0,0,.72.49c.28,0,2.08-.43,2.08-.43s2.73-.52,4.65-.81a7.79,7.79,0,0,0-.48-.65,22.07,22.07,0,0,1-4.31-10.07,4.35,4.35,0,0,1,1.74-4.23,41.49,41.49,0,0,0,3.94-3.79,28.69,28.69,0,0,0,2.13-3.12,36,36,0,0,0-9.3-3A1.13,1.13,0,0,0,35.08,65.33Z"/><path d="M42.54,90.29l-5.72,1.2c0,.3.08.64.12.8a1.91,1.91,0,0,0,1.56,1.63c1.73.4,3.47.81,5.21,1.14.88.17,1.3-.21.82-1.09C43.86,92.74,43.27,91.47,42.54,90.29Z"/><path d="M89.56,94a6.52,6.52,0,0,1-1.38-3.12,26.31,26.31,0,0,0-.58-3.09c-.64-2.15.14-4.17.49-6.21.55-3.23-.57-9.87,0-13-3,0-6.2-.24-9.78,1,0,3.51,2.1,11.68,3.74,14.18a3.52,3.52,0,0,1,.6,1.65c0,1.94,0,3.9,0,5.86a11.84,11.84,0,0,0,.17,2.67c.1.43-.06,1.37.25,1.68s1.1,0,1.52-.08l.31-.2s2.85-.81,4.77-1.1C89.64,94.12,89.61,94,89.56,94Z"/><path d="M90.16,94.92,85,96c-.23,1.61.72,2.27,2,2.74a16.65,16.65,0,0,0,5.43,1.32,4.91,4.91,0,0,0-.2-1.16C91.56,97.57,91,96.19,90.16,94.92Z"/></svg>