<svg id="Layer_1" data-name="Layer 1" xmlns="http://www.w3.org/2000/svg" width="128" height="128" viewBox="0 0 128 128"><title>Artboard 47</title><path d="M33.49,109.68h4.32a6.53,6.53,0,0,1,2.48.37,4.16,4.16,0,0,1,1.53,1.24,6.14,6.14,0,0,1,1.1,2.25,12.52,12.52,0,0,1,.4,3.45,11.48,11.48,0,0,1-.41,3.23,6.56,6.56,0,0,1-1.07,2.17,4.19,4.19,0,0,1-1.55,1.2,5.83,5.83,0,0,1-2.35.41H33.49Zm2.36,2.43v9.47h1.78a4.52,4.52,0,0,0,1.66-.22,2,2,0,0,0,.84-.65,3.69,3.69,0,0,0,.54-1.37,11.58,11.58,0,0,0,.21-2.46,11.06,11.06,0,0,0-.22-2.51,3.32,3.32,0,0,0-.68-1.45,2.19,2.19,0,0,0-1.13-.69,9.84,9.84,0,0,0-1.92-.12Z"/><path d="M45.47,124V109.68h2.36V124Z"/><path d="M50.33,124V109.68h2.36v6.38l4.8-6.38h3.19l-4.42,5.58L60.92,124H57.85l-3.24-6.73-1.92,2.4V124Z"/><path d="M67.08,109.68h4.33a6.5,6.5,0,0,1,2.47.37,4.18,4.18,0,0,1,1.54,1.24,6.48,6.48,0,0,1,1.1,2.25,12.92,12.92,0,0,1,.4,3.45,11.1,11.1,0,0,1-.42,3.23,6.56,6.56,0,0,1-1.07,2.17,4.12,4.12,0,0,1-1.55,1.2,5.83,5.83,0,0,1-2.35.41H67.08Zm2.37,2.43v9.47h1.77a4.45,4.45,0,0,0,1.66-.22,2,2,0,0,0,.84-.65,3.52,3.52,0,0,0,.54-1.37,11.49,11.49,0,0,0,.22-2.46,11.67,11.67,0,0,0-.22-2.51,3.44,3.44,0,0,0-.69-1.45,2.16,2.16,0,0,0-1.13-.69,9.84,9.84,0,0,0-1.92-.12Z"/><path d="M79.06,124V109.68h2.36V124Z"/><path d="M83.92,124V109.68h2.36v6.38l4.8-6.38h3.2l-4.43,5.58L94.51,124H91.44l-3.24-6.73-1.92,2.4V124Z"/><path d="M21.94,14.12c-.45-.51-.92-1.12-.65-1.77a3.52,3.52,0,0,1,.83-1.23c.09.43.18.86.23,1.29s.08.63.18,1a2.23,2.23,0,0,0,.62,1,6.28,6.28,0,0,0,.85.61c.26.17.53.33.77.52a7.36,7.36,0,0,1,1.35,1.17l-.42.08a15.86,15.86,0,0,0-2.69.85c-.28.11-.55.25-.83.37a3.1,3.1,0,0,0,.75-1.79A2.36,2.36,0,0,0,22.61,15,7.52,7.52,0,0,0,21.94,14.12Z"/><path d="M26.77,16.66a8.67,8.67,0,0,0,1.37-1.27c.28-.32.48-.62.73-.92a9.2,9.2,0,0,0,.69-1c.42-.69.76-1.42,1.17-2.09.07-.12.64-1.58.78-1.85a7.77,7.77,0,0,1-1.19,3.89c-.52.87-2.09,3.13-2.09,3.13A7.11,7.11,0,0,0,26.77,16.66Z"/><path d="M65.62,60.11A28,28,0,0,1,69,59.2a15.39,15.39,0,0,0-1.08,2.24c-.33.87-.66,1.74-.94,2.63-.57,1.76-1.06,3.57-1.48,5.34l0,.12v.08a8.55,8.55,0,0,1,0,3,10.47,10.47,0,0,1-.87,3v0h0L64,80.26c-.22,1.51-.41,3-.58,4.56s-.33,3-.55,4.57a25.57,25.57,0,0,0,.1,4.47l-1.19,1.33-.28.31.29.28.5.47c-.11.2-.22.4-.34.59l-.54-.28-.24-.13-.12.2c-.18.3-.36.58-.54.89l-1-.1L59.11,97l1.12-1.15.12-.11v-.19a34.24,34.24,0,0,1,0-4.53c.21-1.48.36-3.06.52-4.56l.43-4.59c.14-1.49.25-3.07.43-4.49a14.78,14.78,0,0,0,1-3,9.64,9.64,0,0,0,.1-3.22l1.6-6.45.86-3.24Z"/><path d="M107.67,66.79a12.12,12.12,0,0,1,2.58,1.76c0,1,0,2-.08,3,0,.29,0,.58-.06.85s-.11.6-.13.86L109.82,75c-.22,2.3-.36,4.61-.53,6.9q-.47,6.74-.69,13.47l-1.12.25-.38.08v.38l.06,4.23c-1.19-.13-2.38-.25-3.58-.36,0,0,0-.07,0-.11s.08-.33.13-.5q.15-.49.33-1c.22-.66.48-1.33.74-2v0h0l.58-4.48L106,87.4c.44-3,.92-6,1.19-9a28.94,28.94,0,0,0,.14-4.57,11.46,11.46,0,0,0-1.29-4.47,18.2,18.2,0,0,0-5.13-5.63c1.07.45,2.15.87,3.19,1.34S106.52,66.21,107.67,66.79Z"/><path d="M110.25,35.27c-.08-.41-.19-.81-.3-1.22,0,0,0,0,0,0a20.73,20.73,0,0,1,2,4.05,12.88,12.88,0,0,1,.31,4.49,14.6,14.6,0,0,1-.5,2.73c0-.18-.08-.35-.13-.54a3.54,3.54,0,0,0-.41-1.18,1.55,1.55,0,0,0-.87-.58c0-.23.09-.45.12-.69A19.22,19.22,0,0,0,110.25,35.27Z"/><path d="M119.34,94.65l0-.5-.22-2-.49-4-1.06-8c-.29-2.67-.48-5.34-.69-8s-.38-5.26-.51-7.9a3.23,3.23,0,0,0-.4-.55,3.88,3.88,0,0,0-.56-.52l-6.84-3.87-1.72-1a5.77,5.77,0,0,1-1.57-1.26A15.44,15.44,0,0,1,104,55.56a8.86,8.86,0,0,1-.94-1.74l.09,0c.06.12.13.22.19.34a34.44,34.44,0,0,0,4-5.51,16.47,16.47,0,0,0,2.36-6.36,17.93,17.93,0,0,0-.43-6.76,19.08,19.08,0,0,0-1.07-3.2,9.42,9.42,0,0,0-.8-1.44,5.82,5.82,0,0,0-1.11-1.17,46.61,46.61,0,0,0-5.57-4.05,25.6,25.6,0,0,0-3-1.64,18.9,18.9,0,0,0-3.23-1,62.42,62.42,0,0,0-6.85-1c-2.31-.19-4.63-.41-6.93-.47a36.6,36.6,0,0,0-13.42,3.13c-1.09.44-2.12.93-3.21,1.39a28.74,28.74,0,0,1-3.37,1,14.09,14.09,0,0,0-1.63.52c-.52.21-1,.47-1.53.73-1,.55-2,1.14-3,1.72-2,1.16-4,2.4-6,3.55-1,.58-2,1.15-3.1,1.67a5.42,5.42,0,0,1-3.67.31A10.24,10.24,0,0,1,38.56,34a9.16,9.16,0,0,1-2.34-2.72,17.63,17.63,0,0,1-1.55-3.18,15.25,15.25,0,0,1-.83-2.92q-.23.24-.45.51c-.46.58-.9,1.17-1.32,1.8l-.1,0a11.89,11.89,0,0,1,1-2.07,5.13,5.13,0,0,1,1.6-1.8,6.64,6.64,0,0,1,1.07-.53c.38-.15.75-.27,1-.4a5.09,5.09,0,0,0,1.66-1.16,4.84,4.84,0,0,0,1.08-1.69,9.46,9.46,0,0,0,.43-2.08c.11-.74.18-1.49.25-2.23,0-.37.06-.74.06-1.1a3.21,3.21,0,0,0,0-.54,1.86,1.86,0,0,0,0-.26v-.08a20.19,20.19,0,0,0-2.9.86,13.49,13.49,0,0,0-2.75,1.49A7.6,7.6,0,0,0,32.33,18a6.85,6.85,0,0,0-1,2.76l0,.2-.11.06-1,.55A10.14,10.14,0,0,1,29,22l0-.11c.14-.09.3-.23.46-.33l.45-.37.82-.63a4.65,4.65,0,0,1,.09-1.06l-.91-.77c-.69.69-1.38,1.36-2.11,2l-.07-.07c.59-1,4.84-4.61,6.19-10.51-.31.51-1,1.31-1.28,1.82l-1.77,2.77a10.26,10.26,0,0,1-1.05,1.33c-.38.41-.76.81-1.16,1.19a21.24,21.24,0,0,1-2.53,2.17l-.05-.08c.63-.89,1.31-1.77,2-2.61a13,13,0,0,0-2.22.61c-.86.31-1.68.69-2.5,1.07s-1.57.88-2.32,1.36a7.55,7.55,0,0,0-1.89,1.62l-.1.17-.13.07a4.83,4.83,0,0,0-1.49,1.16,20,20,0,0,0-1.29,1.57c-.83,1.12-1.63,2.27-2.47,3.41l0,0,0,0a12.58,12.58,0,0,0-3.07,3.31,16.75,16.75,0,0,0-1.11,2c-.3.61-.54,1.23-.79,1.83.42.44.83.91,1.23,1.37,2-.52,4-1,6-1.33l0,.09c-1.32.56-2.67,1-4,1.48a2.66,2.66,0,0,0,1.21.69,2.73,2.73,0,0,0,.89,0l1-.12c1.26-.17,2.55-.33,3.82-.47a31.59,31.59,0,0,1,3.88-.25c.65,0,1.31,0,2,.06.33,0,.66.06,1,.13l.38.1a7.24,7.24,0,0,1,1.52-.77,8.8,8.8,0,0,1,1.07-.25l.94-.2c.42-.76.86-1.51,1.3-2.26l.09,0c-.24.9-.53,1.79-.83,2.67l0,.12-.19.08-1,.4a6,6,0,0,1-1,.39,6.76,6.76,0,0,1-1.08.18v0a53.4,53.4,0,0,0,5.36,8.56A21.94,21.94,0,0,0,35.93,49c1.34,1,2.72,2,4.1,3l2.08,1.46a20,20,0,0,0,2.12,1.24c1.48.75,3,1.48,4.54,2.19,3,1.38,6,2.69,9.07,4,0-.85-.07-1.69-.14-2.53a8,8,0,0,0-.86-1.13,4.25,4.25,0,0,0-1-.8,8.79,8.79,0,0,1-2.38-1.82A8.94,8.94,0,0,1,52,51.84,17.79,17.79,0,0,1,51.25,49l.09,0a22.68,22.68,0,0,0,1.11,2.69A8.33,8.33,0,0,0,54,54a27.11,27.11,0,0,0,2.37,1.55,3.67,3.67,0,0,1,1,1.23,3.43,3.43,0,0,1,.37,1.46c.28,1.42.4,2.83.57,4.25s.28,2.83.33,4.29c-.1,1.42-.2,2.91-.37,4.28a14.16,14.16,0,0,0,.16,4.12v.11L58.31,81c-.11,1.92-.14,3.85-.41,5.77l-.63,5.73a5.11,5.11,0,0,1-.33,1.44,14.3,14.3,0,0,1-.59,1.32c-.4.82-.82,1.62-1.24,2.41l2,1.11.38-.55.15-.22.23.13.55.31.42-.65-.53-.5L58.09,97l.24-.27,1.2-1.31A29.16,29.16,0,0,1,59.41,91c.19-1.55.3-3,.43-4.57l.36-4.6c.15-1.54.25-3,.48-4.63l0,0,0-.09a13.47,13.47,0,0,0,1-2.87,8.45,8.45,0,0,0,.19-3v-.1l0-.09.91-3.23,1-3.23c.34-1.06.69-2.14,1.07-3.21a21.06,21.06,0,0,1,1.34-3.09s1-2.65,1.59-3.95c-.78-1.07-1.79-2.09-2.65-3.2a12.15,12.15,0,0,1-1.11-1.92A7.38,7.38,0,0,1,63.42,47l.08,0,1.27,1.75L66,50.46c.41.58.79,1.19,1.21,1.78a22,22,0,0,1,1.22,1.85l.08.15-.07.14c-.75,1.44-2.65,5.14-2.79,5.6a34.6,34.6,0,0,1,5.14-1.66l2.72-.63L76.22,57a51.33,51.33,0,0,1,5.45-1.29,21.91,21.91,0,0,1,2.81-.27,8,8,0,0,1,2.34.2,20.34,20.34,0,0,1-5.2-10.31,13.08,13.08,0,0,1,.13-3.95A25.29,25.29,0,0,1,84.16,34l.09,0a25.91,25.91,0,0,0-1.09,3.69,22,22,0,0,0-.59,3.76,31.37,31.37,0,0,0,.05,3.76c.1,2.71,3.15,8.15,4.67,10.16,1.46,2.21,3.95,3.15,6.35,4.2a30.13,30.13,0,0,1,3.62,1.67c1.12.57,2.36,1,3.57,1.55s2.45,1,3.65,1.54,2.38,1.11,3.57,1.75a12.12,12.12,0,0,1,3.19,2.52,8.9,8.9,0,0,1,1.83,3.61c.63,2.57,1.09,5.17,1.49,7.77s.86,5.2,1,7.83.4,5.27.58,7.9v.1l-.43,1.51,3.5,1-.75-2.72-.13-.51.54-.06a3.1,3.1,0,0,0,.42-.08h0v-.25ZM25.57,25.55a3.74,3.74,0,0,1-1.81,2.12A3.74,3.74,0,0,1,21,27.45a.58.58,0,0,1-.31-.72,3.82,3.82,0,0,1,1.82-2.13,3.78,3.78,0,0,1,2.78.21A.57.57,0,0,1,25.57,25.55Z"/><path d="M54.88,98.25l2,1-.13.36h-2.4Z"/><path d="M103.72,100.33c.09,0,2.38,1.16,2.38,1.16l-.16.43h-2.88Z"/><path d="M115.6,98c.1,0,2.38,1.15,2.38,1.15l-.16.44H115Z"/><path d="M58.74,97.09l2,1-.13.37h-2.4Z"/></svg>