<svg id="Layer_1" data-name="Layer 1" xmlns="http://www.w3.org/2000/svg" width="128" height="128" viewBox="0 0 128 128"><title>Artboard 49</title><path d="M42.69,109.44h4.7a7.37,7.37,0,0,1,2.71.35A3.06,3.06,0,0,1,51.42,111a3.78,3.78,0,0,1,.54,2,3.87,3.87,0,0,1-.46,1.87,3.06,3.06,0,0,1-1.2,1.24,3.14,3.14,0,0,1,1.63,1.27,3.85,3.85,0,0,1,.59,2.19,4.51,4.51,0,0,1-.75,2.64A3.06,3.06,0,0,1,50,123.58a17.86,17.86,0,0,1-3.31.18h-4Zm2.36,2.38v3.31h1.56a15.07,15.07,0,0,0,1.74,0,1.44,1.44,0,0,0,.95-.51,1.71,1.71,0,0,0,.34-1.13,1.74,1.74,0,0,0-.28-1,1.14,1.14,0,0,0-.67-.49,13.58,13.58,0,0,0-2.27-.1Zm0,5.7v3.81h2.2a6.91,6.91,0,0,0,1.86-.15,1.35,1.35,0,0,0,.69-.59,2.39,2.39,0,0,0,0-2.28,1.51,1.51,0,0,0-.79-.62,7.27,7.27,0,0,0-2-.17Z"/><path d="M54.71,109.44h2.36v7.75a18.81,18.81,0,0,0,.09,2.36,2.32,2.32,0,0,0,.75,1.46,2.61,2.61,0,0,0,2.9.15,1.86,1.86,0,0,0,.71-1,13,13,0,0,0,.19-2.79v-7.92h2.36V117a19.42,19.42,0,0,1-.31,4.16,3.49,3.49,0,0,1-1.38,2.08,4.7,4.7,0,0,1-2.85.8,5.32,5.32,0,0,1-2.87-.66,3.8,3.8,0,0,1-1.49-1.85,14,14,0,0,1-.46-4.41Z"/><path d="M66.83,123.76v-14.2h2.36v11.77h5.9v2.43Z"/><path d="M77.05,123.76v-14.2h2.36v11.77h5.9v2.43Z"/><path d="M96.44,82.28A21.32,21.32,0,0,1,93,89.63a11,11,0,0,1-3.18,3.07l1,.29a13.18,13.18,0,0,0,8.89-1.43c2.2-1.44-.83-4.41-2.11-7.46C96.37,81.21,96.73,81.06,96.44,82.28Z"/><path d="M105.58,69.44a99.09,99.09,0,0,1-7.35-12.5,8.76,8.76,0,0,1-.94-5.3c.11-.8.2-1.58.28-2.38-.61-.07-1.22-.21-1.86-.24s-1.6,0-2.4,0-1.64.16-2.46.28l0-.14a19,19,0,0,1,2.36-.86,14.94,14.94,0,0,1,2.5-.49,9.22,9.22,0,0,1,2-.11c.07-1,.1-2,.1-2.92-.48,0-.93,0-1.41,0-.75,0-1.52-.18-2.33-.18s-1.6.06-2.4.15a22.34,22.34,0,0,0-2.43.39l0-.14a17.47,17.47,0,0,1,2.32-1A13.78,13.78,0,0,1,94,43.45a6.31,6.31,0,0,1,2.6-.11,4.28,4.28,0,0,1,1.2.45A23.63,23.63,0,0,0,96,35.36a10.74,10.74,0,0,1-.6-4.69c.18-3.33-.92-6.15-2.32-9.23-1.21-2.66-.3-6.31-1.52-9.37-.72-1.76-1.91-2.19-3.6-1.38a10.65,10.65,0,0,0-4.67,3.66c-.78,1.25-1.52,1.26-2.64.73-2.14-1-4.34-1.82-6.75-1a5.15,5.15,0,0,1-4-.24l.47,6.68L69,26.74l.19-6.53-1.44-6.52a2.1,2.1,0,0,0-1.23-1.47c-2.2-.94-7.48-3.17-9.58-4a5.38,5.38,0,0,0-3.87,0C48.5,10.06,37,14.89,31,20.31c-1.49,1.35-1,3.16-.24,4.66a4.06,4.06,0,0,1,.35.87c.78,1.18,1.58,2.34,2.43,3.46.35.48.69,1,1.08,1.42s.71,1,1.09,1.4c.75.92,1.5,1.86,2.23,2.8,1.44,1.9,2.86,3.87,4.51,5.65a57.49,57.49,0,0,0,5.25,5c.94.76,1.89,1.5,2.83,2.25s1.86,1.48,2.81,2.2a35.64,35.64,0,0,0,5.94,3.6c2,.9,4.34,1.61,5.71.37a5.53,5.53,0,0,0,1-1.2c.26-.5.51-1,.74-1.57.45-1.09.85-2.26,1.37-3.37l.21.06c-.15,1.21-.27,2.4-.5,3.63a7.86,7.86,0,0,1-1.52,3.65,4.28,4.28,0,0,1-1.88,1.27,5.81,5.81,0,0,1-2.16.27,11.89,11.89,0,0,1-3.86-.95c-2.39-1-4.28-2.71-6.29-4.13a64.6,64.6,0,0,1-10-9,111.55,111.55,0,0,1-9.93-12.44,17,17,0,0,1-1.3-2.46,4.62,4.62,0,0,1-.61.76c-.92,1-1.84,1.92-2.74,2.91A21.12,21.12,0,0,0,22.07,42a44.18,44.18,0,0,0,1.32,19.8c.94,3.4,2,6.92,1.89,10.61-.13,7.24.45,14.49-.26,21.73-.22,2,.66,3.18,2.89,3s4.51-.2,6.75-.34c3.13-.21,3.17-.28,2.2-3.48.69.1,1.1.15,1.5.25,3.06.77,4.71-.55,4.51-3.62-.06-.84-.22-1.66-.31-2.5-.68-5.78.17-11.14,4.34-15.59a13.24,13.24,0,0,0,2.94-4.33c.52-1.38,1.16-1.18,1.87-.19a24.26,24.26,0,0,1,3.12,6c2,5.44,2.71,11.18,4,16.78a13.12,13.12,0,0,1-.43,7.38c-1.09,3-.1,4.56,3.09,4.39,3-.15,6-.49,8.95-.92,2.7-.4,2.79-.69,1.62-3.1-.12-.27-.61-.52-.28-.83,2.53-2.3.06-3.54-1.17-4.76A7.77,7.77,0,0,1,68.19,87a25,25,0,0,1,1.55-10.31c.92-2.56,1.76-5,2.61-7.5A85.13,85.13,0,0,0,83.86,76a9.45,9.45,0,0,1,2,1.28,18.38,18.38,0,0,1-.32,6.77c-.52,1.83-1.29,3.63-3.18,4.22S80,86.86,79.06,85.78s-2-1.23-2.63-.57c-.82.84-2.23,1.94-1.7,3.25a8.21,8.21,0,0,0,8.86,5.1A10.6,10.6,0,0,0,88.35,92a11,11,0,0,0,3.17-3.07,19.53,19.53,0,0,0,3.92-11.16,7.71,7.71,0,0,1,.31-2.49,3.93,3.93,0,0,1,.9-1.39c1.1-1.15-1.5-1.68-1.08-3.34a56.86,56.86,0,0,0,.91-7.87c1.12.36,1.38,1.13,1.81,1.71a41.51,41.51,0,0,0,5.4,6.56c.68.61,1.59,1.48,2.41.86C107.11,71,106.05,70.11,105.58,69.44ZM34,80.18c.58-3.36,1-6.76,3-9.67A21.15,21.15,0,0,1,34,80.18ZM77.32,34a1,1,0,1,1-1,1A1,1,0,0,1,77.32,34ZM95.05,73.43c-1.27,1.66-12.14-8-13.52-9.93s-8.26-7.71-8.9-9c-.2-.41.05-1,.48-1.52a2.87,2.87,0,0,1,4.45,0c1.75,2.15,4.49,5.39,7.43,8.44C90.22,66.91,95.89,72.05,95.05,73.43Z"/></svg>