<svg id="Layer_1" data-name="Layer 1" xmlns="http://www.w3.org/2000/svg" width="128" height="128" viewBox="0 0 128 128"><title>Artboard 50</title><path d="M48.86,17.32V3h8.71V5.42H51.22V8.6h5.9V11h-5.9v3.88h6.56v2.43Z"/><path d="M60.06,17.32V3.12h2.36V14.89h5.9v2.43Z"/><path d="M70.22,17.32V3h8.71V5.42H72.58V8.6h5.9V11h-5.9v3.88h6.56v2.43Z"/><path d="M33.41,123.76v-11.9H29.93v-2.42h9.32v2.42H35.78v11.9Z"/><path d="M41,123.76V109.44h5a6.89,6.89,0,0,1,2.73.39,3,3,0,0,1,1.35,1.33,4.68,4.68,0,0,1,.52,2.28,4.26,4.26,0,0,1-.8,2.71,3.62,3.62,0,0,1-2.29,1.29,5.76,5.76,0,0,1,1.26,1.19A18.4,18.4,0,0,1,50.12,121l1.42,2.8H48.71L47,120.64a20,20,0,0,0-1.26-2.11,1.8,1.8,0,0,0-.7-.59,3.19,3.19,0,0,0-1.19-.16h-.49v6Zm2.36-8.27h1.76a8.56,8.56,0,0,0,2.05-.14,1.27,1.27,0,0,0,.71-.57,2.14,2.14,0,0,0,.27-1.14,2,2,0,0,0-.27-1.1,1.35,1.35,0,0,0-.74-.57,9.43,9.43,0,0,0-1.93-.11H43.36Z"/><path d="M63.62,123.76H61.05l-1-3.25h-4.7l-1,3.25H51.83l4.57-14.32h2.51Zm-4.36-5.67-1.62-5.31L56,118.09Z"/><path d="M72.58,118.49l2.29.89a6.41,6.41,0,0,1-1.79,3.51A4.44,4.44,0,0,1,70,124a4.55,4.55,0,0,1-3.72-1.77,8.49,8.49,0,0,1-1.64-5.51A9,9,0,0,1,66.3,111a4.67,4.67,0,0,1,3.86-1.79,4.42,4.42,0,0,1,3.3,1.34,5.78,5.78,0,0,1,1.39,2.84l-2.34.69a3.12,3.12,0,0,0-.9-1.78,2.2,2.2,0,0,0-1.58-.62,2.51,2.51,0,0,0-2.12,1.13,6.49,6.49,0,0,0-.82,3.74,7,7,0,0,0,.8,3.85A2.44,2.44,0,0,0,70,121.53a2.15,2.15,0,0,0,1.62-.73A4.52,4.52,0,0,0,72.58,118.49Z"/><path d="M77.12,123.76V109.44h2.37v6.37l4.79-6.37h3.2L83.05,115l4.66,8.74H84.65L81.41,117l-1.92,2.4v4.33Z"/><path d="M88.53,119.09l2.32-.28c.26,1.83,1.11,2.75,2.56,2.75A2.44,2.44,0,0,0,95.1,121a1.81,1.81,0,0,0,.61-1.39,1.53,1.53,0,0,0-.21-.83,1.6,1.6,0,0,0-.66-.56,16.21,16.21,0,0,0-2.13-.74,7.1,7.1,0,0,1-2.21-1,3.68,3.68,0,0,1-1.12-1.41A4.23,4.23,0,0,1,89,113.2a4.14,4.14,0,0,1,.54-2.11A3.45,3.45,0,0,1,91,109.67a5.08,5.08,0,0,1,2.32-.47,4.06,4.06,0,0,1,4.46,4.33l-2.37.13a2.54,2.54,0,0,0-.67-1.61,2.15,2.15,0,0,0-1.48-.46,2.32,2.32,0,0,0-1.47.4,1.18,1.18,0,0,0-.52,1,1.24,1.24,0,0,0,.47,1,6.52,6.52,0,0,0,2.16.88,9,9,0,0,1,2.58,1.09,3.61,3.61,0,0,1,1.21,1.47,5.23,5.23,0,0,1,.42,2.2,4.52,4.52,0,0,1-1.14,3.13A4.6,4.6,0,0,1,93.34,124Q89,124,88.53,119.09Z"/><circle cx="33.6" cy="83.31" r="7"/><circle cx="50.69" cy="85.69" r="7"/><circle cx="65.69" cy="73.92" r="7"/><circle cx="80.4" cy="58.84" r="7"/><circle cx="94.4" cy="44.13" r="7"/><circle cx="46.6" cy="68.31" r="7"/><circle cx="62.6" cy="56.31" r="7"/><circle cx="75.35" cy="42.31" r="7"/></svg>