<svg id="Layer_1" data-name="Layer 1" xmlns="http://www.w3.org/2000/svg" width="128" height="128" viewBox="0 0 128 128"><title>Artboard 51</title><path d="M16.64,119.79V105.47h8.71v2.43H19v3.17h5.9v2.41H19v3.89h6.56v2.42Z"/><path d="M27.83,119.79v-14.2H30.2v11.78h5.9v2.42Z"/><path d="M38,119.79V105.47h8.72v2.43H40.36v3.17h5.9v2.41h-5.9v3.89h6.56v2.42Z"/><path d="M57.59,124H56.06a20.66,20.66,0,0,1-1.87-4.65,18.78,18.78,0,0,1-.65-4.76,18,18,0,0,1,.66-4.86,18.89,18.89,0,0,1,1.88-4.5h1.53a34.41,34.41,0,0,0-1.52,5.1,23.17,23.17,0,0,0-.39,4.33,23.57,23.57,0,0,0,.56,5A29.24,29.24,0,0,0,57.59,124Z"/><path d="M59.36,109.42h2.07v1.42a4.05,4.05,0,0,1,1.22-1.25,2.61,2.61,0,0,1,1.43-.41,2.4,2.4,0,0,1,1.42.41,2.93,2.93,0,0,1,1,1.24,4.1,4.1,0,0,1,1.21-1.24,2.47,2.47,0,0,1,1.38-.41,2.64,2.64,0,0,1,1.5.41,2.6,2.6,0,0,1,1,1.19,6.39,6.39,0,0,1,.33,2.37v6.64H69.61v-5.93a5.14,5.14,0,0,0-.27-2.07,1,1,0,0,0-.92-.51,1.39,1.39,0,0,0-1.21.71,5.76,5.76,0,0,0-.46,2.81v5H64.49V114.1a8,8,0,0,0-.18-2.18,1,1,0,0,0-1-.64,1.46,1.46,0,0,0-.92.33,1.8,1.8,0,0,0-.6,1,8.43,8.43,0,0,0-.19,2.17v5H59.36Z"/><path d="M74.31,108v-2.54h2.26V108Zm0,11.78V109.42h2.26v10.37Z"/><path d="M78,119.79l3.05-5.3-2.92-5.07h2.75l1.55,2.67L84,109.42h2.64l-2.85,5,3.13,5.41H84.1l-1.74-3-1.74,3Z"/><path d="M93.34,116.5l2.23.46a4.41,4.41,0,0,1-1.4,2.32,3.94,3.94,0,0,1-5.22-.51,6.26,6.26,0,0,1-1.21-4.11A6.6,6.6,0,0,1,89,110.5a3.25,3.25,0,0,1,2.68-1.32,3.41,3.41,0,0,1,2.86,1.35,7.4,7.4,0,0,1,1.19,4.55v.32H90a3.12,3.12,0,0,0,.56,1.91,1.58,1.58,0,0,0,1.29.67C92.61,118,93.09,117.49,93.34,116.5Zm.11-2.78a3.07,3.07,0,0,0-.51-1.83,1.46,1.46,0,0,0-1.17-.61,1.48,1.48,0,0,0-1.2.63,2.93,2.93,0,0,0-.49,1.81Z"/><path d="M105.51,119.79h-2.09v-1.52a3.91,3.91,0,0,1-1.22,1.32,2.65,2.65,0,0,1-1.45.45,3,3,0,0,1-2.48-1.43,6.68,6.68,0,0,1-1.06-4.06,6.55,6.55,0,0,1,1-4,3.11,3.11,0,0,1,2.55-1.35,2.63,2.63,0,0,1,1.33.36,3.7,3.7,0,0,1,1.13,1.08v-5.15h2.26Zm-6-5.41a6.83,6.83,0,0,0,.24,2.1,2.23,2.23,0,0,0,.68,1,1.6,1.6,0,0,0,1,.35,1.57,1.57,0,0,0,1.29-.81,4.36,4.36,0,0,0,.54-2.42,4.73,4.73,0,0,0-.53-2.58,1.54,1.54,0,0,0-2.67,0A4,4,0,0,0,99.51,114.38Z"/><path d="M107.31,124a29.19,29.19,0,0,0,1.33-4.29,24,24,0,0,0,.56-5,23.17,23.17,0,0,0-.39-4.33,34.41,34.41,0,0,0-1.52-5.1h1.53a19.27,19.27,0,0,1,1.9,4.55,17.54,17.54,0,0,1,.64,4.68,19.52,19.52,0,0,1-.63,4.82,20.26,20.26,0,0,1-1.89,4.72Z"/><path d="M117.51,84.11a4.07,4.07,0,0,0,.44-.64,3.6,3.6,0,0,0,.19-.72,14.62,14.62,0,0,0,.06-1.63,28.17,28.17,0,0,0-.24-3.3l-.25-1.65a8.08,8.08,0,0,1,0-1.77,17.62,17.62,0,0,1,1.94-6.59,11.53,11.53,0,0,1,.94-1.48,11.06,11.06,0,0,0,1-1.28,6.47,6.47,0,0,0,1-3,8.82,8.82,0,0,0-.42-3.25,12,12,0,0,1-.34-3.38c0-1.12.06-2.25.1-3.36l.06-1.68a10.34,10.34,0,0,1,.1-1.73,10.29,10.29,0,0,1,1.28-3.22,22.93,22.93,0,0,0,1.58-2.88,4.85,4.85,0,0,0-.15-3.09,14.11,14.11,0,0,0-1.41-2.9A14.11,14.11,0,0,1,121.21,39c-1,.91-2,1.91-3,2.82l-1,.83h.06c-.08,3,0,6,.13,9a81.89,81.89,0,0,1,.41,9,22.35,22.35,0,0,1-.62,4.52c-.39,1.46-.82,2.9-1.25,4.34s-.88,2.87-1.23,4.32a9.16,9.16,0,0,0-.34,2.18c0,.75,0,1.5,0,2.25v0a25.88,25.88,0,0,0-.07,2.92,5.51,5.51,0,0,0,.07.71,5.74,5.74,0,0,1,.1.74l.09,1.47a5.53,5.53,0,0,0,.26,1.38,1.63,1.63,0,0,0,.3.57,1.09,1.09,0,0,0,.18.19A23.39,23.39,0,0,0,117.51,84.11Z"/><path d="M103.85,20.73l.8-.3a15.92,15.92,0,0,0-3.78,0,16.39,16.39,0,0,0-2.16.64c-.62.22-1.22.48-1.89.75,1.26.43,2.5.89,3.74,1.36A9.22,9.22,0,0,1,103.85,20.73Z"/><path d="M91.35,50c-.12.24-.24.49-.38.72a19,19,0,0,0,.37,2.91c.19,1,.4,2,.63,3l1.4,5.93c.25,1,.49,2,.67,3s.28,2,.48,3c.37,2,.8,4,1.09,6a61,61,0,0,1,.4,6.15l.06,3.05a4.21,4.21,0,0,1-.19,1.6,6.35,6.35,0,0,1-.68,1.44c-.27.44-.57.87-.86,1.28a5.83,5.83,0,0,0-.39.62.94.94,0,0,0-.08.24A.68.68,0,0,0,94,89a13.45,13.45,0,0,0,3,.11c1.92-.07,3.83-.27,5.76-.35a2.51,2.51,0,0,1-.14-.5,5.71,5.71,0,0,1-.14-.79c-.08-.54-.14-1.06-.2-1.57a26.63,26.63,0,0,0-.47-3.1c-.36-2.08-.66-4.17-.87-6.27s-.43-4.2-.56-6.3c-.07-1-.14-2.11-.14-3.17,0-.52,0-1.06,0-1.58a5.39,5.39,0,0,1,.22-1.43,8.83,8.83,0,0,1-1.65-2.38A12.86,12.86,0,0,1,98,58.9a24.25,24.25,0,0,1-.63-5.73h.1a30.17,30.17,0,0,0,1.25,5.53c.29.89.71,1.73,1,2.62s.58,1.69.84,2.59v0a7.24,7.24,0,0,1,2.4.56A7.83,7.83,0,0,1,105,65.86a7.3,7.3,0,0,1,1.29,2.2c.3.73.55,1.47.78,2.21q0-1,0-2c0-1.59.35-3.13.55-4.68A32.77,32.77,0,0,0,108,59c0-1.56-.1-3.12-.22-4.68h.09c.25,1.54.48,3.1.6,4.67a31.25,31.25,0,0,1,0,4.74c-.09,1.57-.18,3.13-.36,4.67-.13,1.23-.28,2.47-.44,3.71.26,1,.5,2.08.67,3.14a12.4,12.4,0,0,1,.2,2.54,2.87,2.87,0,0,1-.11.72,2.94,2.94,0,0,0-.14.52,4.6,4.6,0,0,0,0,1.12c.11,1.57.59,3.1.8,4.84a3.52,3.52,0,0,1-.21,1.37,11.42,11.42,0,0,1-.45,1.2c-.16.39-.34.76-.54,1.15l-.13.23c1.4.06,2.91,0,4.36,0s3,0,4.47,0a5,5,0,0,0-1.22-2l-.25-.24a2.14,2.14,0,0,1-.28-.32,2.37,2.37,0,0,1-.36-.73,6.64,6.64,0,0,1-.22-1.51l0-1.47c0-.46-.14-1-.13-1.47a24.17,24.17,0,0,1,.11-3c0-.75,0-1.5,0-2.25a8.49,8.49,0,0,1,.32-2.25l1-4.4A40.8,40.8,0,0,0,117,60.63c.06-1.48.06-3,0-4.47s-.21-3-.22-4.49a61.05,61.05,0,0,1,.43-9,19.48,19.48,0,0,1-2.34,1.7,9.91,9.91,0,0,1-1.92.88c-.61.25-1.21.55-1.82.85-1.22.61-2.42,1.28-3.67,1.87a16.14,16.14,0,0,1-2,.78c-.36.11-.7.17-1,.25s-.64.18-1,.29a8,8,0,0,1-2.07.52,1.71,1.71,0,0,1-1.15-.37,2.36,2.36,0,0,1-.64-1,11.3,11.3,0,0,1-.55-3.44A14.51,14.51,0,0,1,98,46.37a3.26,3.26,0,0,1-1.32.84,7.15,7.15,0,0,1-1.39.37,11.56,11.56,0,0,1-2.49.13,14.25,14.25,0,0,1-.39,1.69l-.07.22a.46.46,0,0,1-.06.16.53.53,0,0,1-.21.24A.62.62,0,0,1,91.35,50Z"/><path d="M91.09,20.8c.53,0,1.08,0,1.63,0-.52-.36-1-.77-1.47-1.15a3.3,3.3,0,0,0-2-1c-.62.06-1,.71-1.36,1.36-.2.36-.39.75-.58,1.15a7.37,7.37,0,0,1,1.26-.29A17.41,17.41,0,0,1,91.09,20.8Z"/><path d="M87.69,53a4.88,4.88,0,0,0,1-.63c.32-.26.63-.57,1-.87.52-.53,1-1.09,1.52-1.65a.58.58,0,0,1-.11-.18,1.28,1.28,0,0,0-.47-.51,2.29,2.29,0,0,0-1.43-.3h-.06a11.47,11.47,0,0,1-1.51,1.68,25.7,25.7,0,0,1-2,1.75c-.7.55-1.43,1.08-2.17,1.57l-1,.68a.11.11,0,0,0,0,.06h.08l.32,0A17.17,17.17,0,0,0,87.69,53Z"/><path d="M86.07,80c.2,0,2.18-2,2.22-2-2.91-2.59-5.37-6.91-4.45-10.81a58.9,58.9,0,0,1,2.3-6.67c.8-2.31,1.67-4.61,2.39-6.95-.13.09-.26.18-.4.26a13.28,13.28,0,0,1-5.24,1.47l-.35,0a.8.8,0,0,1-.55-.14.76.76,0,0,1-.09-1.12,1.47,1.47,0,0,1,.36-.22l.28-.17.57-.33c.76-.44,1.5-.92,2.22-1.42s1.43-1,2.11-1.59A12.25,12.25,0,0,0,89,48.91h0a.38.38,0,0,1-.15,0,.76.76,0,0,1-.33-.08.7.7,0,0,1-.36-.51.67.67,0,0,1,0-.31c0-.1,0-.09.06-.15a6.2,6.2,0,0,1,.52-.81A7.54,7.54,0,0,1,90,45.67l.08.06c-.28.56-.57,1.11-.8,1.67l-.22.56a2.69,2.69,0,0,1,2.08.48,2.07,2.07,0,0,1,.55.66,22,22,0,0,0,.92-3.48c.25-1.21.45-2.44.62-3.66h.1c0,1.24-.13,2.49-.26,3.72-.07.62-.16,1.24-.26,1.85.77-.21,1.54-.41,2.27-.67a5.14,5.14,0,0,0,2.14-1.15c.63-.71,1.28-1.3,1.82-2a16,16,0,0,0,1.42-2.24,15.72,15.72,0,0,0,1.37-5.26c.14-.89.34-1.76.47-2.65l.36-2.6a5.77,5.77,0,0,1,.12-2.47,5.07,5.07,0,0,1,1.58-2.16,14.29,14.29,0,0,1,2.08-1.51c.74-.43,1.49-.81,2.24-1.17l0,.07c-.69.48-1.38,1-2,1.48a14.48,14.48,0,0,0-1.82,1.66,8,8,0,0,0-1.23,2c-.32.65-.48,1.46-.86,2.22a11.47,11.47,0,0,1-.21,5.34c-.27.89-.64,1.74-.92,2.62s-.46,1.77-.73,2.66a9.14,9.14,0,0,1-1.69,3.24,12.79,12.79,0,0,0,.84,3.42,1.31,1.31,0,0,0,1.33.9,8.33,8.33,0,0,0,1.85-.61c.33-.12.66-.23,1-.33l1-.28a15.52,15.52,0,0,0,1.82-.83l3.61-1.93c.62-.33,1.25-.63,1.9-.9a12.29,12.29,0,0,0,1.82-.78,24.24,24.24,0,0,0,3.23-2.39l3.07-2.72a11.86,11.86,0,0,0,2.67-3,2.33,2.33,0,0,0,.32-1.8,15.77,15.77,0,0,0-.71-1.91,35.61,35.61,0,0,0-1.86-3.64c-1.37-2.35-2.93-4.71-5.44-5.73A20.63,20.63,0,0,0,111.93,21a13.68,13.68,0,0,0-4-.51,10.69,10.69,0,0,0-7.37,2.74h0c-1.57-.44-3.12-1-4.69-1.37a20.16,20.16,0,0,0-2.36-.48,16,16,0,0,0-2.4,0,16.86,16.86,0,0,0-2.39.21,3.59,3.59,0,0,0-2,.85,3.9,3.9,0,0,0-.49,1A5,5,0,0,0,86,24.54c-.06.4-.12.81-.2,1.22l-.14.62a4.54,4.54,0,0,1-.23.65c-.81,1.59-2.13,2.65-3,3.94-1,1.25.19,2.65.72,4.25a5,5,0,0,1,.22,2.58,14.14,14.14,0,0,1-.74,2.39c-.59,1.52-1.25,3-1.82,4.54-.27.76-.53,1.53-.73,2.32a7.76,7.76,0,0,0-.21,1.17A4.83,4.83,0,0,0,80,49.41c.26,1.61.52,3.22.68,4.85a93.44,93.44,0,0,1-.51,14.43C79.62,72.79,82.44,77.49,86.07,80Zm7.58-45.26a1.8,1.8,0,0,1,.51-1.29,1.77,1.77,0,0,1,1.38-.24.33.33,0,0,1,.27.33,1.83,1.83,0,0,1-.52,1.3,1.79,1.79,0,0,1-1.37.24A.33.33,0,0,1,93.65,34.74Z"/><path d="M70.77,54.49h0l1.39-.11c.93-.07,1.86-.14,2.76-.24a10,10,0,0,0,2.64-.59c.85-.28,1.69-.55,2.55-.79-.13-1.1-.28-2.21-.45-3.31,0-.24-.07-.49-.09-.74a28.43,28.43,0,0,1-4.41,3.45A33.32,33.32,0,0,1,70.77,54.49Z"/><path d="M78.42,21.33c-.53-.72-1.09-1.42-1.66-2.1-1.08-1.27-2.15-2.55-3.3-3.76S71.11,13,69.87,11.8a48.59,48.59,0,0,0-3.81-3.39,6.42,6.42,0,0,0-1-.68,2.05,2.05,0,0,0-1-.09,24.11,24.11,0,0,0-2.46.46c-1.65.39-3.3.86-5,1.31-.82.23-1.66.44-2.51.62-.42.09-.85.18-1.29.24a6.27,6.27,0,0,0-1.23.15,4.24,4.24,0,0,0-1.94,1.41A23.72,23.72,0,0,0,48.17,14a15.19,15.19,0,0,1,2.2.91c.9.47,1.82.85,2.77,1.28.24.11.48.23.74.38a1.84,1.84,0,0,1,.41.32,1,1,0,0,1,.31.67,1.55,1.55,0,0,1-.41,1,4,4,0,0,1-.59.63,4.83,4.83,0,0,0-1,1,2.2,2.2,0,0,0-.33,1.2,2.74,2.74,0,0,0,.52,1.22A14.05,14.05,0,0,1,54,24a1.3,1.3,0,0,1,.1.47,2.11,2.11,0,0,1-.06.43l-.17.75-.35,1.46.06.09a5,5,0,0,1,.6,3,4.62,4.62,0,0,1-.57,1.6c-.28.51-.65.89-.86,1.26a22.14,22.14,0,0,0-1.1,2.71,44.67,44.67,0,0,0-1.71,5.29,8.36,8.36,0,0,0,.63,1.68c.33.75.63,1.5.9,2.28.06.18.13.36.18.54a29.9,29.9,0,0,0,3.59-1c1.24-.39,2.48-.81,3.7-1.25s2.45-.86,3.65-1.34c.59-.25,1.22-.49,1.73-.77s1-.68,1.57-1.05a65.15,65.15,0,0,0,5.83-5.09c.94-.89,1.86-1.8,2.74-2.75.44-.47.87-1,1.27-1.44A32,32,0,0,0,77.81,28a11.32,11.32,0,0,0,.57-1.61c.17-.56.33-1.13.53-1.7a6,6,0,0,1,.4-.91,1.21,1.21,0,0,0,0-1.26C79,22.14,78.72,21.72,78.42,21.33ZM52.91,18.44a3,3,0,0,0,.45-.5,1.08,1.08,0,0,0,.19-.33,2.65,2.65,0,0,0-.23-.17c-.18-.11-.4-.21-.63-.32-.92-.41-1.88-.86-2.78-1.37a15.9,15.9,0,0,0-2.73-1.22,32.91,32.91,0,0,0-5.92-1.4,13.58,13.58,0,0,0-6.12,1.72c-1,.48-1.89,1-2.82,1.54S30.49,17.44,29.6,18a5.62,5.62,0,0,0-1.19,1.78.72.72,0,0,0,.1.8A4.44,4.44,0,0,1,29,21a3.9,3.9,0,0,1,.4.51,7.53,7.53,0,0,1,.92,2.27,10,10,0,0,1,.2,1.2c0,.15,0,.3,0,.45q.3-.36.57-.72a17.81,17.81,0,0,0,2.22-5.63l.1,0A17.94,17.94,0,0,1,31.5,25a19.45,19.45,0,0,0-1.67,2.54,4.45,4.45,0,0,0-.62,2.7c0,.1.06.19.09.29a3.31,3.31,0,0,0,.15.33,3.93,3.93,0,0,0,.35.6c.24.36.64.74.94,1.25a9.51,9.51,0,0,1,.64,1.47L32,35.58a29.84,29.84,0,0,1,1,2.93,11.24,11.24,0,0,1,.48,2.36,42.55,42.55,0,0,0,.79-6.2h.1a34.18,34.18,0,0,1-.44,7.13c-.07.3-.14.6-.22.89s-.13.55-.18.83a16.61,16.61,0,0,0-.17,1.73c0,1.05,0,2.12,0,3.18a9,9,0,0,1,.94.45,7.47,7.47,0,0,1,1.15.81,4.63,4.63,0,0,1,.93,1.09,2.53,2.53,0,0,1,.38,1.35h-.1a3,3,0,0,0-.85-1.25c-.23,1.23-.41,2.46-.61,3.7a14,14,0,0,1-.44,2.08c-.23.68-.49,1.32-.72,2a10.31,10.31,0,0,0-.56,2,8.35,8.35,0,0,0,.18,2,17.77,17.77,0,0,1,.24,2.13,2.68,2.68,0,0,1,0,.61,1,1,0,0,1-.16.38.52.52,0,0,1-.27.2A.51.51,0,0,1,33,66l-.22-.08c0,.49,0,1-.06,1.48a26,26,0,0,1,2-2.08,5.41,5.41,0,0,1,1.25-1A2.5,2.5,0,0,1,37.47,64c-.15-1.45-.3-2.9-.4-4.35-.18-2.31,0-4.6-.2-6.85s-.53-4.54-.58-6.84h.1c.41,2.26,1,4.47,1.25,6.78a33.46,33.46,0,0,1,.21,3.46l0,3.42c0,2.29,0,4.58.14,6.87a67.51,67.51,0,0,0,.75,6.81,45.63,45.63,0,0,0,1.72,6.57,13.06,13.06,0,0,0,1.42,3,2.79,2.79,0,0,0,1,.95,3.87,3.87,0,0,0,1.47.31,4.59,4.59,0,0,0,2.87-.93,3.54,3.54,0,0,0,1.36-2.61,2.19,2.19,0,0,0-.44-1.38,6.51,6.51,0,0,0-.58-.6,3,3,0,0,1-.29,2,1.74,1.74,0,0,1-1.16.73,3.66,3.66,0,0,1-.65.06,1.18,1.18,0,0,1-.41-.06,1.07,1.07,0,0,1-.38-.24,2.66,2.66,0,0,1-.61-1.24,8.72,8.72,0,0,1-.23-1.22,21.43,21.43,0,0,1-.12-2.4c0-1.58.19-3.14.31-4.71s.3-3.12.5-4.68.34-3.12.41-4.69.08-3.13.16-4.7a32.39,32.39,0,0,1,.62-4.69,14,14,0,0,1,1.57-4.47l.09,0a17.39,17.39,0,0,0-.67,2.94,7,7,0,0,1,1-1,17.69,17.69,0,0,1,2-1.41c.34-.21.68-.42,1-.63a2.06,2.06,0,0,0,.3-.25.84.84,0,0,0,.05-.33,9.41,9.41,0,0,0-.39-2.25c-.21-.76-.46-1.51-.74-2.26a10.43,10.43,0,0,1-.42-1.16c-.11-.4-.18-.8-.25-1.21a20.73,20.73,0,0,1-.14-4.85h.1a20.57,20.57,0,0,0,.49,4.57A17,17,0,0,1,50,38.52a30.5,30.5,0,0,1,.73-3c.15-.49.3-1,.47-1.46a6.48,6.48,0,0,1,.66-1.49c.32-.5.69-.84.93-1.21a3.63,3.63,0,0,0,.54-1.22,4.56,4.56,0,0,0-.67-2.68,9.76,9.76,0,0,0-.77-1.27c-.27-.42-.61-.79-.89-1.26a18.09,18.09,0,0,1-1.86-5.85l.1,0a18,18,0,0,0,2.19,5.59c.27.4,1.21,1.53,1.44,1.89l.39-1.79a.71.71,0,0,0-.08-.59c-.45-.77-1.47-1.43-1.69-2.7a3,3,0,0,1,.34-1.76A5,5,0,0,1,52.91,18.44ZM33,32.31a.37.37,0,0,1-.4.25,2,2,0,0,1-1.38-.73,2,2,0,0,1-.09-1.55.37.37,0,0,1,.4-.26,2.06,2.06,0,0,1,1.37.73A2,2,0,0,1,33,32.31Zm16.62-1.56A2,2,0,0,1,51,30a.38.38,0,0,1,.4.26,2,2,0,0,1-.1,1.55,2,2,0,0,1-1.37.73.37.37,0,0,1-.4-.25A2,2,0,0,1,49.62,30.75ZM51.71,57a23.74,23.74,0,0,1-.57-4.23c-.07-1.19-.12-2.39-.12-3.59-.26.17-.51.32-.76.46-.64.36-1.3.67-1.93,1,.33,1.29.57,2.61.85,3.91a13,13,0,0,0,.52,2c.24.64.54,1.28.81,1.93a11.17,11.17,0,0,1,.66,2.05,9.15,9.15,0,0,1-.1,2.18,16.13,16.13,0,0,0-.16,2,2.25,2.25,0,0,0,0,.38,1.14,1.14,0,0,0,.11-.11c.1-.12.2-.24.29-.37A6.76,6.76,0,0,0,52.49,61,18.51,18.51,0,0,0,51.71,57Zm-2.39-.3a14,14,0,0,1-.44-2.08c-.21-1.31-.39-2.61-.65-3.91a8.88,8.88,0,0,0-1.55,1.1c0,.33-.09.66-.13,1-.2,1.54-.34,3.09-.56,4.64s-.54,3.1-.66,4.66-.17,3.12-.19,4.69c0,3.13-.19,6.25-.28,9.35l.78.43a34.46,34.46,0,0,1,.47-4.88c.14-.84.31-1.67.53-2.5.11-.41.23-.83.37-1.25s.25-.79.37-1.19c.45-1.62.85-3.27,1.22-4.91a46.32,46.32,0,0,0,.9-4.64C49.44,57,49.37,56.85,49.32,56.68ZM47,78c-.7-.57-1.42-1.12-2.16-1.66,0,.71,0,1.41,0,2.1a7.88,7.88,0,0,0,.12,1.1,1.93,1.93,0,0,0,.32.89s.06.08.1.08.05,0,.16,0a3.17,3.17,0,0,0,.53,0,1.13,1.13,0,0,0,.84-.38,3.26,3.26,0,0,0,.52-1.82ZM44.2,94.22l0,0v0a20.93,20.93,0,0,1-.24-2.45,16.27,16.27,0,0,1,0-2.42,25.17,25.17,0,0,1,.78-4.21c-.11,0-.23,0-.35,0a5,5,0,0,1-1.87-.4,3.49,3.49,0,0,1-1.47-1.34,13.6,13.6,0,0,1-1.45-3.25c-.08-.26-.15-.52-.22-.78a35.26,35.26,0,0,0-2.07,4.12c-.31.76-.51,1.55-.86,2.28-.23.48-.46,1-.72,1.43,0,1.9,0,3.78.1,5.65a16,16,0,0,1,1.32,2.41,8.92,8.92,0,0,1,.5,1.4,4.84,4.84,0,0,1,.18,1.48c1.23,0,6.41.38,8,.5a.27.27,0,0,0,.27-.37A36.27,36.27,0,0,0,44.2,94.22ZM26,95.33c-.23.68-.48,1.35-.7,2a.37.37,0,0,0,.36.49c3.74-.09,7.48-.12,11.23-.16a5.56,5.56,0,0,0-.16-.77,8.62,8.62,0,0,0-.47-1.25,18,18,0,0,0-1.35-2.37l-.08-.13V93c-.08-2.35,0-4.69-.09-7a15.61,15.61,0,0,0-.14-1.69c0-.27-.09-.54-.15-.79l-.29-.81a32.19,32.19,0,0,1-.68-3.5c-.36-2.32-.58-4.63-1-6.93a26.13,26.13,0,0,1,.22-6.5c-.11-.08-.18-.16-.27-.23a4.88,4.88,0,0,1-.37-.45,7.56,7.56,0,0,1-1.49-4.17,11.28,11.28,0,0,1,.25-2.17c.16-.71.37-1.39.56-2.06a27.54,27.54,0,0,0,.84-4c.18-1.12.37-2.24.58-3.36l-.13-.05-.33-.11,0-.35A17.91,17.91,0,0,1,32.39,46a56.18,56.18,0,0,1-7.93-1.68c-1.32-.34-2.63-.74-3.94-1.16-.65-.22-1.3-.43-1.95-.69a9,9,0,0,1-1.89-1,55.75,55.75,0,0,1-6.32-5.32c-1-1-1.93-2-2.86-3L7.37,33a24.51,24.51,0,0,0,.19,3.42c.15,1.38.35,2.76.58,4.12s.46,2.74.78,4.07.83,2.63,1.19,4c1.65,5.33,2.72,10.83,5,15.93,1.08,2.56,2.27,5.08,3.48,7.57a37,37,0,0,1,3,7.89,21.43,21.43,0,0,1,.58,4.24,30,30,0,0,0,.46,4.07,20.46,20.46,0,0,1,.26,2.12,6,6,0,0,1,0,1.12,4.34,4.34,0,0,1-.31,1.09c-.39,1-.81,2.07-1.21,3.11a.34.34,0,0,0,.3.46l3.41.18c.16-.4.32-.79.47-1.19s.37-1,.53-1.44a4.37,4.37,0,0,0,.3-1.46A51,51,0,0,0,26,86.1c-.23-2-.48-4.1-.78-6.14l-.42-3.06c-.17-1-.41-2-.67-3-.35-1.39-.74-2.77-1.14-4.16a11.34,11.34,0,0,1-2-.8,9.89,9.89,0,0,1-2.21-1.52,7.45,7.45,0,0,1-1.46-2.33c-.35-.81-.64-1.64-.92-2.46-1.13-3.28-2-6.61-3.1-9.9l.09,0c1.34,3.19,2.47,6.46,3.76,9.65a19.36,19.36,0,0,0,2.33,4.36,18.69,18.69,0,0,0,3.41,2.7c-.14-.49-.28-1-.41-1.47a25.66,25.66,0,0,1-.7-3.06c-.16-1-.28-2.07-.38-3.1a61.5,61.5,0,0,1-.28-6.22,28.59,28.59,0,0,1,.56-6.19l.1,0a35.21,35.21,0,0,0-.13,6.16c.08,2.06.3,4.11.52,6.15.12,1,.25,2,.43,3a29,29,0,0,0,.73,3c.55,2,1.11,4,1.57,6,.22,1,.41,2,.54,3.09l.27,3.09.6,6.17c.17,2.06.43,4.11.4,6.21a5.17,5.17,0,0,1-.26,1.57C26.3,94.35,26.14,94.84,26,95.33Zm9-45a10.59,10.59,0,0,0-2-.91c0,1.12,0,2.24-.11,3.36A23.74,23.74,0,0,1,32.33,57a18.51,18.51,0,0,0-.78,4,6.76,6.76,0,0,0,1.15,3.68c.09.13.19.25.28.37l.12.11a2.25,2.25,0,0,0,0-.38,16.13,16.13,0,0,0-.16-2,9.15,9.15,0,0,1-.1-2.18,11.17,11.17,0,0,1,.66-2.05c.27-.65.56-1.29.81-1.93a13,13,0,0,0,.52-2c.27-1.25.51-2.5.81-3.74A5,5,0,0,0,35,50.3ZM32.76,67.57A26.2,26.2,0,0,0,33,72.19c.09.41.17.81.25,1.22.09-.44.2-.88.31-1.31.18-.76.51-1.47.72-2.23.37-1.29.63-2.63,1-4C34.41,66.45,33.6,67,32.76,67.57Zm-2.32-33a12.62,12.62,0,0,0-.59-1.35c-.2-.39-.55-.74-.85-1.24a5.3,5.3,0,0,1-.37-.76,4.39,4.39,0,0,1-.25-.84,4.72,4.72,0,0,1,.39-3.05,12.2,12.2,0,0,1,1.09-1.57,4.64,4.64,0,0,0-.07-.64A6.35,6.35,0,0,0,29.5,24c-.25-.74-1.73-3.36-1.78-3.62a1.67,1.67,0,0,1,0-.74A5.65,5.65,0,0,1,29,17.39l0,0,.06,0a31.69,31.69,0,0,1,2.8-1.71,24.68,24.68,0,0,1,2.63-1.16,11.85,11.85,0,0,0-3-3.72,2.55,2.55,0,0,0-1.1-.41,10.27,10.27,0,0,1-1.32-.15c-.88-.17-1.73-.37-2.58-.6-1.69-.45-3.37-.94-5.06-1.35-.84-.19-1.68-.39-2.52-.52a4.37,4.37,0,0,0-1.18-.06,2.36,2.36,0,0,0-.95.53,43,43,0,0,0-3.9,3.42c-1.27,1.2-2.49,2.45-3.68,3.73s-2.33,2.6-3.45,3.94c-.57.66-1.1,1.35-1.63,2-.29.38-.61.79-.88,1.2A2,2,0,0,0,3,24.13a10.6,10.6,0,0,0,1.18,2.3.16.16,0,0,0,0,.08,29.71,29.71,0,0,0,1.6,2.74S6.48,30.48,6.88,31s.88,1,1.34,1.5c.92,1,1.89,1.94,2.88,2.87a56.4,56.4,0,0,0,6.14,5.25,7.94,7.94,0,0,0,1.69,1c.6.27,1.24.5,1.87.74,1.29.47,2.61.89,3.92,1.33s2.55.81,3.84,1.2a32.44,32.44,0,0,0,3.84,1c0-.23,0-.45.07-.68a18.75,18.75,0,0,1,.32-1.92c.06-.25.19-.66.28-.91s.14-.45.21-.68v-.41A31.76,31.76,0,0,0,31.09,36C30.87,35.49,30.64,35,30.44,34.55Z"/><path d="M85.58,95.53A2.21,2.21,0,0,0,85,94.16s0-.35-.31-2.32a8.23,8.23,0,0,0-2-3.72h0c.23-.73.42-1.36.56-1.79a9.81,9.81,0,0,0-5-8.54c-1.65-1-3.48-.81-6-.13-.23.56-.42,1-.45,1a29,29,0,0,1-4,2.76c-.31-.07-2.38-.7-2.38-.7s1.52,0,2,0,3.51-2,4.24-2.92a5,5,0,0,0-.06-1.8,2.27,2.27,0,0,0-.69-1.22l-4.34-4c-2.84-1-5,2.95-7.06,5.13a7.42,7.42,0,0,0-5.55,6.82,7.75,7.75,0,0,0-2.13,7.77c.46,1.23,3.49,4.55,3.49,4.55l1.07-1a13.75,13.75,0,0,1-2.65-3.4,3.54,3.54,0,0,1,0-2.6c.74-.09,1.07-1.18,1.54-1.39s.87.12,1.48.3,1.86-.9,2.19-1.23.89-.09.89-.09.05,1,.09,1.55a.76.76,0,0,0,.62.67l.35-2.31a2.84,2.84,0,0,1,1.49.64c.88.63.38,2.68.28,3.59s-2.89,5.69-3.45,6.78-1.66,3.59-1.66,3.59l-1,1.27a.26.26,0,0,0,.22.41s3.47.1,3.68,0,.09-.59,0-.91a.73.73,0,0,1,.13-.52L64,95.78a18.68,18.68,0,0,0-.37,3.42,9.31,9.31,0,0,0,.41,1.79,1.24,1.24,0,0,0,1.2.89l2.11,0a.68.68,0,0,0,.68-.67v-.69a.4.4,0,0,0-.28-.4,4.91,4.91,0,0,1-1.61-.69,1,1,0,0,1-.2-1.32,18.36,18.36,0,0,0,1.54-3.5c.38-1.14-.37-2.77.28-3.86,1.12,1.13,4.75,1.13,4.75,1.13A4.81,4.81,0,0,1,72,93.69c-.3.52,0,1.09.37,1.92s5.07,4.22,5.07,4.22l0,1.5h5.63c.14-1.13-2.14-3-3.07-3.4a4.78,4.78,0,0,1,.28-3.24A38.55,38.55,0,0,0,82.43,89,20.28,20.28,0,0,1,84,92.1c.25.94.54,2.1.54,2.1a4.45,4.45,0,0,0-.18,1.63,7.06,7.06,0,0,0,1,1.67A6.52,6.52,0,0,0,85.58,95.53ZM58.66,81.38a.92.92,0,0,1-.66,0,.16.16,0,0,1-.09-.18.87.87,0,0,1,.37-.56,1,1,0,0,1,.67,0,.18.18,0,0,1,.09.19A.92.92,0,0,1,58.66,81.38Z"/></svg>