<svg id="Layer_1" data-name="Layer 1" xmlns="http://www.w3.org/2000/svg" width="128" height="128" viewBox="0 0 128 128"><title>Artboard 53</title><path d="M33.62,118.5v-2.42h5.11v5.7a6.18,6.18,0,0,1-2.19,1.57,6.79,6.79,0,0,1-2.84.65,5.5,5.5,0,0,1-3.06-.85,5.83,5.83,0,0,1-2.11-2.56,10.84,10.84,0,0,1,0-8,6,6,0,0,1,2-2.51,5.29,5.29,0,0,1,3-.83A5,5,0,0,1,37,110.26a5.12,5.12,0,0,1,1.63,3.14l-2.35.54a3.07,3.07,0,0,0-1-1.69,2.54,2.54,0,0,0-1.68-.58,3,3,0,0,0-2.46,1.17,5.75,5.75,0,0,0-.93,3.59,6.52,6.52,0,0,0,1,3.94,2.81,2.81,0,0,0,2.36,1.16A3.57,3.57,0,0,0,35,121.2a4.37,4.37,0,0,0,1.33-.89V118.5Z"/><path d="M41.05,123.76V109.44h2.36v14.32Z"/><path d="M45.89,123.76V109.44h5a6.82,6.82,0,0,1,2.73.39A3,3,0,0,1,55,111.16a4.68,4.68,0,0,1,.53,2.28,4.27,4.27,0,0,1-.81,2.71,3.6,3.6,0,0,1-2.29,1.29,5.76,5.76,0,0,1,1.26,1.19A16.22,16.22,0,0,1,55,121l1.43,2.8H53.61l-1.72-3.12a18.88,18.88,0,0,0-1.25-2.11,1.89,1.89,0,0,0-.71-.59,3.12,3.12,0,0,0-1.19-.16h-.49v6Zm2.36-8.27H50a8.45,8.45,0,0,0,2.05-.14,1.27,1.27,0,0,0,.71-.57,2,2,0,0,0,.28-1.14,1.91,1.91,0,0,0-.28-1.1A1.32,1.32,0,0,0,52,112a9.37,9.37,0,0,0-1.92-.11H48.25Z"/><path d="M68.51,123.76H65.94l-1-3.25H60.22l-1,3.25H56.73l4.57-14.32h2.51Zm-4.36-5.67-1.62-5.31-1.59,5.31Z"/><path d="M70,123.76V109.44h8v2.42H72.33v3.39h4.93v2.42H72.33v6.09Z"/><path d="M80.18,123.76V109.44h8.71v2.42H82.54V115h5.9v2.41h-5.9v3.88h6.57v2.43Z"/><path d="M91.32,123.76V109.44H100v2.42H93.68V115h5.9v2.41h-5.9v3.88h6.56v2.43Z"/><path d="M92.17,72.82a3.73,3.73,0,0,0-1.42-2.29L87.62,58.32h0a13.73,13.73,0,0,0-1.94-4.92c-1.17-1.81-9-6.9-11.78-7.11s-3.82-.7-7.63-2.71-4.67-3.49-7.11-7.1c-1.84-2.73-5.72-9.39-9.58-14.9-1.23-2.28-2.82-4.88-3.28-5.69-.57-1-.92-1.55-.55-2.32a3.06,3.06,0,0,1,.5-.61,14.88,14.88,0,0,0,1.85-.16,10.8,10.8,0,0,0,1.61-3c-.24-.37-2.28.07-2.62.3s-.84,1.35-1.38,1.58-.47-.27-.53-.47a4,4,0,0,0-.64-.74l.2-2a1,1,0,0,0,.58-.72.94.94,0,0,0-.73-1.11.89.89,0,0,0-1,.71c-.07.3,0,.92.23,1a2,2,0,0,1-.47,1.28,1.68,1.68,0,0,1-1.14.47c-.34-.07-.81-.64-.88-.74a6.34,6.34,0,0,1,0-1.07.67.67,0,0,0,.46-.73c-.06-.57-.21-1.07-.7-1.07s-.86.59-.86,1a1.79,1.79,0,0,0,.42.86,8.62,8.62,0,0,1-.29,1.47c-.13.27-.67.92-.81,1.23s-.4.33-.87.16-.44-.9-.77-1.24a8.76,8.76,0,0,0-2.75-.57,6.85,6.85,0,0,0,.93,2.49c.37.33,1.92.2,2.15.53a3.06,3.06,0,0,1,.24,1.26l-.66,0v.48h.46a.76.76,0,0,1,1,.74.15.15,0,0,1-.12.17,1.16,1.16,0,0,1-.55,0A12,12,0,0,1,38.7,18a4.32,4.32,0,0,0-1,2.7c.19.86,1.29,1.09,1.91,1.14a2.39,2.39,0,0,0,2-1.14c.15-.41.2-.56.23-.63s2.52-2.12,2.52-2.12L45,15.74,44.78,18l-2.43,2.75a6.33,6.33,0,0,1,.36.83c.2.63,5.95,13.34,7.48,15.58,1.55,4,3.13,8.34,3.13,9.41,0,1.91.19,3.27-1,5.07s-2.21,3.41-1,6.49A9.45,9.45,0,0,0,54.45,62c-.11,2.08,0,4.6.47,5.09.67.78,1.9,4.24.56,6.14s-3.69,9.28-3.69,9.28L57,89.05c0,2.68-.12,5-.1,5.46a15.35,15.35,0,0,1-.37,2l-.76,1.33,2,.89,0-1.75.86-.17-.34-1.7.62-3.74,3.19,4,2.23,1.49.8.46.69-2.08L64.36,95l.07-.53-1-.19s-2.51-3.64-2.73-4L59,87.89c.15-3.42.29-6.86.23-7.1-.11-.51.67-6,.79-8.44a8.53,8.53,0,0,1,.18-1.29l2.57-5.45a40.54,40.54,0,0,0,10.24-.54,1.49,1.49,0,0,0,.13.25,12.29,12.29,0,0,0,.51,4.24c.56,1,2.79,5.92,3.8,7s1.34,2.12.67,3.46S72,94.45,72,94.45l-.62,2.7-.52,1.14,2.39,1-.09-1.88.76-.26-.31-2.3S81.51,81,81.62,79a19.72,19.72,0,0,1,.81-3.4l2,3.12.67,8.88V96L85,98l-.54,1.58,2.32,1L87,98.85l.64-.16L86.78,96s.29-5.3.51-7.2-.2-7.72.4-8.49a11.73,11.73,0,0,0,1.18-3.08,24.38,24.38,0,0,0-.93-2.62,37.6,37.6,0,0,1-2.45-7.49l1-3.56s.65-1.69,1-3.18h0c.8,2.58,1.86,6.88,3,10.11-.24.15-.17,1.3-.08,2.19a4.29,4.29,0,0,0,.89,2.22,5.42,5.42,0,0,0,1.54,1.36A14.9,14.9,0,0,1,92.17,72.82Zm-48.88-58a.92.92,0,0,1-.72.05.17.17,0,0,1-.12-.19A.75.75,0,0,1,43.51,14a.17.17,0,0,1,.12.19A.89.89,0,0,1,43.29,14.78Z"/><polygon points="70.72 98.68 69.59 100.49 73.14 100.56 73.03 99.58 70.72 98.68"/><polygon points="55.5 98.25 54.37 100.06 57.92 100.13 57.81 99.15 55.5 98.25"/><polygon points="65.43 97.46 67.23 98.59 67.31 95.03 66.32 95.14 65.43 97.46"/><polygon points="84.32 100.04 83.19 101.85 86.75 101.92 86.64 100.94 84.32 100.04"/></svg>