<svg id="Layer_1" data-name="Layer 1" xmlns="http://www.w3.org/2000/svg" width="128" height="128" viewBox="0 0 128 128"><title>Artboard 54</title><path d="M22.94,118.5v-2.42h5.11v5.7a6.37,6.37,0,0,1-2.19,1.57A6.79,6.79,0,0,1,23,124a5.56,5.56,0,0,1-3.07-.85,5.88,5.88,0,0,1-2.1-2.56,9.56,9.56,0,0,1-.78-4,9.36,9.36,0,0,1,.79-4,5.83,5.83,0,0,1,2-2.51,5.28,5.28,0,0,1,3-.83,5.08,5.08,0,0,1,3.37,1.06,5.11,5.11,0,0,1,1.62,3.14l-2.34.54a3.08,3.08,0,0,0-1-1.69,2.54,2.54,0,0,0-1.68-.58,3,3,0,0,0-2.45,1.17,5.75,5.75,0,0,0-.94,3.59,6.45,6.45,0,0,0,1,3.94,2.79,2.79,0,0,0,2.35,1.16,3.57,3.57,0,0,0,1.44-.33,4.3,4.3,0,0,0,1.34-.89V118.5Z"/><path d="M30.43,123.76V121h2.24v2.75Z"/><path d="M40.67,118.5v-2.42h5.1v5.7a6.22,6.22,0,0,1-2.18,1.57,6.87,6.87,0,0,1-2.85.65,5.5,5.5,0,0,1-3.06-.85,5.83,5.83,0,0,1-2.11-2.56,10.84,10.84,0,0,1,0-8,6,6,0,0,1,2-2.51,5.29,5.29,0,0,1,3-.83A5,5,0,0,1,44,110.26a5.12,5.12,0,0,1,1.63,3.14l-2.35.54a3.07,3.07,0,0,0-1-1.69,2.54,2.54,0,0,0-1.68-.58,3,3,0,0,0-2.45,1.17,5.68,5.68,0,0,0-.94,3.59,6.52,6.52,0,0,0,1,3.94,2.81,2.81,0,0,0,2.36,1.16,3.57,3.57,0,0,0,1.44-.33,4.25,4.25,0,0,0,1.33-.89V118.5Z"/><path d="M58.76,123.76H56.19l-1-3.25h-4.7l-1,3.25H47l4.57-14.32h2.51Zm-4.36-5.67-1.63-5.31-1.59,5.31Z"/><path d="M59.18,123.76v-2.62l6.17-9.28H59.87v-2.42h8.6v2.25L62,121.33h6.68v2.43Z"/><path d="M70.43,123.76V109.44h8.71v2.42H72.79V115h5.9v2.41h-5.9v3.88h6.56v2.43Z"/><path d="M81.62,123.76v-14.2H84v11.77h5.89v2.43Z"/><path d="M91.84,123.76v-14.2H94.2v11.77h5.9v2.43Z"/><path d="M102,123.76V109.44h8.71v2.42h-6.34V115h5.89v2.41h-5.89v3.88h6.56v2.43Z"/><path d="M44.3,64.83a55.06,55.06,0,0,1-5.2-3.69c-.52-.54-3.22-.72-4-.76h-.6c.76.4,3.27,1.54,4,1.94,2,1.11,4,2.24,6,3.4C44.49,65.41,44.39,65.12,44.3,64.83Z"/><path d="M63.17,92.17l-.79-2.29c-.52-1.53-1-3.06-1.52-4.61-.25-.77-.48-1.55-.69-2.33a19.62,19.62,0,0,1-.59-2.43l-.53-4.82c-.34-3.07-.61-6.14-.86-9.23a38.25,38.25,0,0,1-5.24,0c-.07.13-.16.26-.23.39.87,2.62,1.5,5.29,2.25,7.93.17.66.35,1.33.54,2a9.21,9.21,0,0,0,.31.93l.39,1c.55,1.29,1.06,2.59,1.56,3.89.25.65.51,1.3.75,2l.64,2c.43,1.32.86,2.65,1.21,4a12.78,12.78,0,0,1,.44,2.06,5.08,5.08,0,0,1-.35,2.1c-.39,1.28-1.11,3-1.61,4.28a11.19,11.19,0,0,1,2.78.9c0-.48.11-1.9.19-2.35a3.09,3.09,0,0,1,.53-1.27,9.36,9.36,0,0,0,1.2-2,1.46,1.46,0,0,0,0-.9Z"/><path d="M113.39,95.54c-.45-.49-.57-.11-1-.66l-.33-.48.5-.32a.9.9,0,0,0,.19-.14c0-.38-4.5-24-4.5-24a8.24,8.24,0,0,1-2.12-.89c-.73-.44-1.44-.92-2.12-1.42a27,27,0,0,1-3.8-3.38,6.46,6.46,0,0,1-1.44-2.22,5,5,0,0,1,0-2.64c.42-1.68,1.13-3.18,1.53-4.78a33.91,33.91,0,0,0,.84-4.9c0-.54.07-1.07.08-1.59a16,16,0,0,1,2,6.81c-.07,1.89-.06,2.73-.15,4.7-1.21,4.15,0,4.83,1.24,5.57-.12-2.35,1.47-3.83-.43-5.57a23.17,23.17,0,0,1,.3-5.38,14.65,14.65,0,0,0-1.17-8.23,10.94,10.94,0,0,0-3.62-3.49,9.71,9.71,0,0,0-1.72-1.3c-.71-.43-1.44-.82-2.18-1.23a10.58,10.58,0,0,0-2.24-1,35.81,35.81,0,0,0-9.87-1.07c-1.68,0-3.34,0-5,.07l-2.51.07a20.71,20.71,0,0,0-2.43.31c-6.56,1.17-13.06,2.78-19.62,4.15l-.11,0-.09,0a9.88,9.88,0,0,0-3.56-.39A5.49,5.49,0,0,0,47,43.55a6.69,6.69,0,0,1-.76.63,3.39,3.39,0,0,1-1,.39,13.89,13.89,0,0,1-1.9.38,22.89,22.89,0,0,1-3.8.23A13.82,13.82,0,0,1,37.61,45a3.2,3.2,0,0,1-1.76-1,13.45,13.45,0,0,1-2.18-3.15,41.75,41.75,0,0,1-2.77-6.71.12.12,0,0,0,0,.05l-.05,0h0a3.66,3.66,0,0,0-1.1.93,6.51,6.51,0,0,0-.55,1.47H29a4.34,4.34,0,0,1,.09-1.71,2.54,2.54,0,0,1,.48-.83c.18-.21.74-.3.93-.48.46-.57,1.17-.9,1.56-1.45a3.48,3.48,0,0,0,.69-1.78,10.63,10.63,0,0,0,.17-2.1,11.29,11.29,0,0,0-.13-1.54c-.07-.32-.07-.88-.5-1s-1.18.65-1.36.94-.46.56-.65.9a4.32,4.32,0,0,1-.82,1,4.7,4.7,0,0,0-.62.73,3.67,3.67,0,0,0-.34,1.92,1.88,1.88,0,0,1-.35,1.24,6.31,6.31,0,0,0-.66.88l-.11,0c0-.39.37-.84.33-1.1a8.49,8.49,0,0,0-3.25-1,27.49,27.49,0,0,1,4.72-7.8c.8-1,1.66-1.94,2.52-2.91s1.72-1.95,2.53-3a29.55,29.55,0,0,0,2.13-3.34c1.27-2.29,2.39-5,2.2-7.64,0,0-1.12,2.58-1.77,3.74-.42.7-4.92,7.34-8.12,10.12C26,22.67,24.8,25.7,23.84,26.2a26.57,26.57,0,0,1,5-8.71,27.15,27.15,0,0,0,2.33-3.34,13.15,13.15,0,0,0,1.36-3.7,21.86,21.86,0,0,0,.62-3.95s-1.44,2.57-1.94,3.59A43,43,0,0,1,24.11,20a16.62,16.62,0,0,0-2.39,3.38,35.65,35.65,0,0,0-1.64,3.76c-.49,1.28-.95,2.56-1.36,3.86-.19.58-.66,2.06-.85,2.58h0a16.83,16.83,0,0,0-.65,1.93,7.91,7.91,0,0,0-.12,2v.09l-.07.09A25.78,25.78,0,0,1,15,40c-.67.74-1.45,1.41-2,2.13a4.82,4.82,0,0,0-1.21,2.3,2.72,2.72,0,0,0,1,2c.34,0,.7,0,1.05-.06a4.61,4.61,0,0,0,1.18-.27c.78-.3,1.81-.83,2.58-1.23l-.18.24a12.77,12.77,0,0,1-2.13,1.55,4.39,4.39,0,0,1-1.3.49,5.37,5.37,0,0,1-.7.11c.22.19.64.66.86.8a.93.93,0,0,0,.51.17c.15,0,.22-.06.42-.2a5,5,0,0,1,1.63-.56,4.24,4.24,0,0,1,1.55-.17,6.79,6.79,0,0,0,3-.66,31.22,31.22,0,0,0,4.37-2,12.74,12.74,0,0,0,1.58-1c.21-.55,1-2.53,1.22-3.12v.43c0,.66-.6,2.23-.66,2.86v.05l-.05.09a6.52,6.52,0,0,1-1.51,1.45,5.26,5.26,0,0,1-1.87,1.21l-.72.33a29.69,29.69,0,0,1,2.09,2.68c.7,1,1.4,2.07,2,3.16s1.16,2.22,1.85,3.25a12.39,12.39,0,0,0,2.44,2.79c1,.64,6.4,1.39,7.18,1.56a14,14,0,0,1,2.27.74c.59.24,1.15.52,1.73.76a8.54,8.54,0,0,1-.46-2.12h.11A19.93,19.93,0,0,0,43.64,62c.38.87.8,1.74,1.15,2.63a12.94,12.94,0,0,1,.45,2.68,4.08,4.08,0,0,1,0,1.39,3.89,3.89,0,0,1-.18.73l-.25.62A30.3,30.3,0,0,1,42.4,75a2.69,2.69,0,0,1-.55.58,5.11,5.11,0,0,0-.38.41,6.69,6.69,0,0,0-.67,1c-.38.76-6.11,14.73-6.61,15.88h0l-1,1.33a4.83,4.83,0,0,0-.74,1.51,9,9,0,0,1-.94,1.55,10.21,10.21,0,0,0-1.44,2.16l2.83.82a6.27,6.27,0,0,1,.61-2.46,5.25,5.25,0,0,1,1.41-2,11,11,0,0,0,1.86-3.69c.24-.68.44-1.36.72-2.09s.65-1.35,1-2c1.37-2.6,3.6-5.08,5-7.6s3.18-4.93,4.84-7.32,2.6-4.79,4.24-7.19l0,0,0,0a7.55,7.55,0,0,0,2-2.07,9,9,0,0,0,.51-3l0,0h0a18.42,18.42,0,0,0,0-2.88l.11,0c0,.29.12,1.61.15,2.78a18.22,18.22,0,0,1,2.75-.86,23.22,23.22,0,0,1,3.1-.59,27.63,27.63,0,0,0,3.15-.38,15.08,15.08,0,0,0,3-1,9.45,9.45,0,0,0,1.35-.68,1.82,1.82,0,0,0,.25-.2.81.81,0,0,0,.2-.21c.18-.23.36-.45.55-.65a11.52,11.52,0,0,1,2.63-2,19.46,19.46,0,0,1,3-1.31c.5-.18,1-.32,1.53-.46a7.49,7.49,0,0,1,.79-.18l.4-.08.2,0h.15a13.27,13.27,0,0,1,.59-2l.09,0a17.46,17.46,0,0,0-.7,6.22,9,9,0,0,0,1.67,4.36,16.41,16.41,0,0,0-3.2.78c-1.35.55-3.47.53-5.7.64a46.94,46.94,0,0,0-9,1.47c-2,.52-7-.11-7.22.34a7.43,7.43,0,0,1-1.89,2.29s0,0,0,0A58,58,0,0,1,60.15,65c1.17-.1,2.36-.11,3.52-.21s2.36-.21,3.51-.3A56.8,56.8,0,0,0,74,63.43a54.7,54.7,0,0,0,6.63-2c.11.15.22.29.32.44,1.27,1.66,2.7,3.21,4.13,4.78s2.84,3.18,4.14,4.85S91.78,74.9,93,76.65L93.88,78c.15.23.3.45.44.71a1.21,1.21,0,0,1,.1.2,1.47,1.47,0,0,1,.1.33,2.31,2.31,0,0,1,0,.51A14.77,14.77,0,0,1,93.91,83a127.26,127.26,0,0,1-4.3,12l0,0,0,0a7.94,7.94,0,0,0-.76,1.21c-.1.21-.21.43-.3.65a5.12,5.12,0,0,0-.2.64v.07l0,0-1,1.53,2.72,1,.16-2.45a4.16,4.16,0,0,1,1.22,0A48.36,48.36,0,0,1,92.75,93l1.6-4.79,3.2-9.55c.25-.79.51-1.6.73-2.39.12-.43.24-.69.12-.94a3.68,3.68,0,0,0-.62-.91A17.87,17.87,0,0,0,96,72.78c-.31-.28-.64-.55-1-.85s-.59-.67-.86-1a19.68,19.68,0,0,1-2.69-4.38A9.06,9.06,0,0,1,90.74,64a4.86,4.86,0,0,1,.32-2.68v0l0,0,3.57-5.08c.59-.84,1.19-1.7,1.76-2.56A17.77,17.77,0,0,0,98,51l.1,0a14.82,14.82,0,0,1-1.37,2.8c-.52.91-1.06,1.79-1.61,2.67l-3.33,5.18A5,5,0,0,0,91.81,65a5.78,5.78,0,0,1,1.62.42,4.67,4.67,0,0,1,1,.73l.9.77a25.36,25.36,0,0,0,3.87,2.63c.66.38,1.39.7,2.06,1.15a13.23,13.23,0,0,1,1.9,1.48,21.06,21.06,0,0,1,3.07,3.67A9.61,9.61,0,0,1,107.4,78a22.42,22.42,0,0,1,.66,2.32c.37,1.53.69,3.08,1,4.62.58,3.07,1.36,7,1.84,10.1l1.77,3.18c.52-.52,1.77-1.08,2.22-1.6A12.12,12.12,0,0,1,113.39,95.54ZM21.25,37.4a1.94,1.94,0,0,1-1.37,0,.26.26,0,0,1-.17-.35,1.79,1.79,0,0,1,.81-1.1,1.76,1.76,0,0,1,1.36,0,.26.26,0,0,1,.18.34A1.87,1.87,0,0,1,21.25,37.4Z"/><polygon points="57.85 101.29 61.4 101.29 61.56 100.41 58.54 99.51 57.85 101.29"/><polygon points="29.04 101.92 32.59 101.92 32.75 101.04 29.73 100.14 29.04 101.92"/><polygon points="115.55 97.03 113.07 98.98 114.12 100.57 116.18 97.67 115.55 97.03"/><polygon points="86.1 101.92 89.66 101.92 89.81 101.04 86.79 100.14 86.1 101.92"/></svg>