<svg id="Layer_1" data-name="Layer 1" xmlns="http://www.w3.org/2000/svg" width="128" height="128" viewBox="0 0 128 128"><title>Artboard 55</title><path d="M41.29,123.76V109.44h2.36v6.37l4.8-6.37h3.19L47.22,115l4.66,8.74H48.81L45.57,117l-1.92,2.4v4.33Z"/><path d="M53.28,109.44h2.36v7.75a18.81,18.81,0,0,0,.09,2.36,2.36,2.36,0,0,0,.74,1.46,2.29,2.29,0,0,0,1.57.52,2.26,2.26,0,0,0,1.34-.37,1.86,1.86,0,0,0,.71-1,13,13,0,0,0,.19-2.79v-7.92h2.36V117a19.42,19.42,0,0,1-.31,4.16A3.49,3.49,0,0,1,61,123.2a4.7,4.7,0,0,1-2.85.8,5.32,5.32,0,0,1-2.87-.66,3.8,3.8,0,0,1-1.49-1.85,14,14,0,0,1-.46-4.41Z"/><path d="M65.32,109.44h4.32a6.33,6.33,0,0,1,2.48.37A4.12,4.12,0,0,1,73.65,111a6.2,6.2,0,0,1,1.1,2.26,12.45,12.45,0,0,1,.4,3.44,11.43,11.43,0,0,1-.41,3.23,6.37,6.37,0,0,1-1.07,2.17,4.12,4.12,0,0,1-1.55,1.21,5.83,5.83,0,0,1-2.35.41H65.32Zm2.36,2.42v9.47h1.78a4.79,4.79,0,0,0,1.66-.21,2,2,0,0,0,.84-.65,3.84,3.84,0,0,0,.54-1.37,11.69,11.69,0,0,0,.21-2.47,11.12,11.12,0,0,0-.22-2.51,3.22,3.22,0,0,0-.68-1.44,2.19,2.19,0,0,0-1.13-.69,8.87,8.87,0,0,0-1.92-.13Z"/><path d="M77.35,109.44h2.36v7.75a18.81,18.81,0,0,0,.09,2.36,2.32,2.32,0,0,0,.75,1.46,2.61,2.61,0,0,0,2.9.15,1.86,1.86,0,0,0,.71-1,12.36,12.36,0,0,0,.19-2.79v-7.92h2.36V117a19.42,19.42,0,0,1-.31,4.16A3.49,3.49,0,0,1,85,123.2a4.7,4.7,0,0,1-2.85.8,5.32,5.32,0,0,1-2.87-.66,3.8,3.8,0,0,1-1.49-1.85,14,14,0,0,1-.46-4.41Z"/><path d="M109.81,87.77c-.29-1.76-.44-3.5-.6-5.25L109,79.89c0-.84-.11-1.64-.08-2.52a24.55,24.55,0,0,1-3.33-3.9l-1.52-2.13a10.3,10.3,0,0,1-.73-1.12,5.39,5.39,0,0,1-.49-1.26,14.39,14.39,0,0,1-.37-5.27,48,48,0,0,1,1.19-5.11c.44-1.69,1.71-6.82,1.56-7.57a3.32,3.32,0,0,0-.56-1.31l-.36-.45-.37-.36a18.68,18.68,0,0,0-2.14-1.45L99.6,46.05l-1.11-.68a12.5,12.5,0,0,1,1.62,2.08c.27.47.48,1,.76,1.44a14.39,14.39,0,0,0,.9,1.35,3.87,3.87,0,0,1,.41.75l.3.74a9.56,9.56,0,0,1,.5,1.57,4.62,4.62,0,0,1-.44,3.27l-.07,0a8.18,8.18,0,0,0-.22-3.09c-.12-.5-.24-1-.39-1.51a6.69,6.69,0,0,1-.21-.8,4.31,4.31,0,0,0-.22-.73,7.07,7.07,0,0,0-.75-1.41c-.32-.43-.7-.82-1.05-1.23a11.46,11.46,0,0,1-1.56-2.67l-2.88-1.79c-.57,0-1.13,0-1.71,0A7,7,0,0,1,95,45.26a13.43,13.43,0,0,1,1.11,2.48,18.68,18.68,0,0,1,.61,2.64,12.31,12.31,0,0,1,.16,1.36c0,.46,0,.9,0,1.35,0,.9,0,1.79-.1,2.7a7.82,7.82,0,0,1-.6,2.73,1.52,1.52,0,0,1-.21.33l-.19.26c-.11.17-.21.34-.31.53a7.86,7.86,0,0,0-.5,1.19,15.64,15.64,0,0,0-.61,2.58h-.07a8.89,8.89,0,0,1,.16-2.72,7.82,7.82,0,0,1,.4-1.33,5,5,0,0,1,.33-.65,2.58,2.58,0,0,0,.2-.29,1.38,1.38,0,0,0,.14-.24,10.15,10.15,0,0,0,.61-2.47c.12-.87.23-1.76.38-2.65.06-.44.16-.89.18-1.32a6.43,6.43,0,0,0-.16-1.31,14.89,14.89,0,0,0-.92-2.49c-.35-.81-.68-1.63-1-2.43-.19-.39-.38-.79-.59-1.19a5.36,5.36,0,0,0-.63-1A39.71,39.71,0,0,1,88,43a9.82,9.82,0,0,1,1.18.66,2.1,2.1,0,0,1,.63.66,1.6,1.6,0,0,1,.23.89c0,.6-.23,1.07-.3,1.62a7,7,0,0,0,0,1.58,6.39,6.39,0,0,0,.3,1.46c0,.09.1.25.14.4a3.77,3.77,0,0,1,.1.43,6,6,0,0,1,.07.84,11.17,11.17,0,0,1-.54,3.19l-.07,0c-.09-1.07-.1-2.13-.14-3.16,0-.26,0-.51,0-.75a2.09,2.09,0,0,0,0-.36,2.3,2.3,0,0,0-.1-.36,4,4,0,0,1-.05-1.68c.06-.54.15-1.06.17-1.59a7.3,7.3,0,0,0,0-.81,4.55,4.55,0,0,0,0-.76A1.81,1.81,0,0,0,88.82,44a10.63,10.63,0,0,1-1.1-1.12L87,42.8l-1.32-.17a23.31,23.31,0,0,1,1.73,2.7A6.9,6.9,0,0,1,88.09,47a8.93,8.93,0,0,1,.22,1.78v0a25.47,25.47,0,0,0-.09,2.9c0,1,0,1.94-.13,2.92a20.64,20.64,0,0,0,.1,2.81c0,.48.07,1,.07,1.47a6.19,6.19,0,0,1,0,.74,1.23,1.23,0,0,1-.27.72l0-.05a3,3,0,0,0,0-1.38c-.1-.47-.2-.94-.28-1.42a8.89,8.89,0,0,1-.21-3c.14-1,.23-1.91.39-2.87a19.81,19.81,0,0,0,.31-2.88,6.62,6.62,0,0,0-.47-1.63c-.23-.51-.49-1-.74-1.53a30.22,30.22,0,0,1-1.34-3c-2.23-.27-4.47-.51-6.7-.64l-.87,0a6.2,6.2,0,0,1,.87,2,16.39,16.39,0,0,1,.46,2.4c.08.81.11,1.62.26,2.42a15.85,15.85,0,0,0,.63,2.34c.26.77.51,1.54.73,2.33a15.29,15.29,0,0,1,.58,2.4,28.65,28.65,0,0,1,.06,4.9h-.07c-.32-1.59-.51-3.22-.73-4.8s-.7-3.13-.95-4.74c-.13-.79-.28-1.59-.48-2.38s-.42-1.58-.61-2.38-.28-1.58-.42-2.37a10.24,10.24,0,0,0-.49-2.14c-.34,0-.67,0-1,0a9.94,9.94,0,0,1-2.11-.08c-.28,0-.55-.1-.83-.16a5.51,5.51,0,0,1,.64,2,2.54,2.54,0,0,1-.06.67c0,.11-.07.21-.11.32a.85.85,0,0,0-.09.24,2.86,2.86,0,0,0-.08,1,6.66,6.66,0,0,0,.64,2.17,17.54,17.54,0,0,1,.93,2.19,8.34,8.34,0,0,1,.44,2.37c0,.82,0,1.57,0,2.33a9.52,9.52,0,0,0,1,4.41l-.06.05A4.8,4.8,0,0,1,75.9,57.4,10.14,10.14,0,0,1,75.44,55a9.77,9.77,0,0,1,0-1.21c0-.41.06-.76.06-1.15a13.63,13.63,0,0,0-.15-2.29,6.59,6.59,0,0,0-.75-2.17,8.14,8.14,0,0,1-1-2.19,2.5,2.5,0,0,1,.06-1.3,2.85,2.85,0,0,1,.12-.31,1.09,1.09,0,0,0,.09-.23,1.64,1.64,0,0,0,.1-.49,11.59,11.59,0,0,0-.27-2,11.34,11.34,0,0,1-2.86-1.12A34.26,34.26,0,0,1,71.35,45a8.45,8.45,0,0,0,.15,1.14c0,.37.21.72.28,1.14a3.08,3.08,0,0,1,0,1.21l-.24,1.14a20.74,20.74,0,0,0-.39,2.27c-.07.73,0,1.52-.06,2.29a12.67,12.67,0,0,0,.57,4.52l-.06,0a8,8,0,0,1-1.26-4.55,14.8,14.8,0,0,1,.16-2.38,10.9,10.9,0,0,1,.67-2.28c.13-.37.28-.73.38-1.1a2.32,2.32,0,0,0,0-1.11c-.09-.36-.31-.69-.45-1.08a8.52,8.52,0,0,1-.35-1.15,20.15,20.15,0,0,1-.07-4.59c-1.19-.73-2.27-1.54-3.43-2.23a1.63,1.63,0,0,1,.17.2,3.67,3.67,0,0,1,.4.53,2.56,2.56,0,0,1,.16.33,1.33,1.33,0,0,1,0,.24.72.72,0,0,1-.09.27c-.18.27-.28.33-.37.5a2,2,0,0,0-.16.51A4.45,4.45,0,0,0,67.36,42a17.94,17.94,0,0,0,.36,2.47A14.49,14.49,0,0,1,68.06,47a20.62,20.62,0,0,1-.25,2.54L67.53,52c-.1.83-.21,1.65-.27,2.49a9.8,9.8,0,0,0,0,2.48l-.07,0a6.8,6.8,0,0,1-.48-2.52A21.73,21.73,0,0,1,66.79,52a50.25,50.25,0,0,1,.88-5,6.28,6.28,0,0,0-.17-2.47c-.21-.81-.57-1.58-.71-2.45a3.46,3.46,0,0,1,0-1.36,2.65,2.65,0,0,1,.26-.67,3,3,0,0,1,.42-.49s0-.16-.07-.34-.18-.36-.28-.54l-.39-.72a15.91,15.91,0,0,0-3.13-1.47,6.74,6.74,0,0,0-1.93-.33,5.86,5.86,0,0,0-1.92.35,15.48,15.48,0,0,0-3.58,1.87,18.94,18.94,0,0,0-1.62,1.21,9.78,9.78,0,0,0-.75.68A6.85,6.85,0,0,1,53,41a4.64,4.64,0,0,1-2,.77,17.22,17.22,0,0,1-2.07.25,9.77,9.77,0,0,1-4.08-.87,20.6,20.6,0,0,1-3.64-2c-1.15-.77-2.26-1.57-3.38-2.38l-1.66-1.21a14.72,14.72,0,0,0-1.37-.86,6.86,6.86,0,0,1-1.28,0h0l-.33-.05a1.87,1.87,0,0,0-.46.63,2.4,2.4,0,0,1-.58.83l0,0a2.63,2.63,0,0,0,.35-.89,2,2,0,0,1,.51-.94l.06-.07h.12l.41,0h0a9,9,0,0,0,2.14-.32,4.41,4.41,0,0,0,1-.37,4,4,0,0,0,.83-.67A4.9,4.9,0,0,0,38.73,31,4.67,4.67,0,0,0,39,29a4.65,4.65,0,0,0-.78.15l-1,.28c-.61.21-1.28.48-1.89.75a4.46,4.46,0,0,0-.84.46,5.5,5.5,0,0,0-.73.63,5.08,5.08,0,0,0-1.07,1.62l0,.1,0,0c-.37.26-.75.5-1.13.74a6,6,0,0,1-1.22.59l0-.06a7.88,7.88,0,0,0,1-.81c.14-.11.27-.24.4-.36l-1.9-.47c0,.21,0,.42-.07.62H29.6a7.19,7.19,0,0,1,1.31-4.38,6.14,6.14,0,0,1,1.86-1.43,9.89,9.89,0,0,1,2.13-.93A13.71,13.71,0,0,0,39,24.86a9.42,9.42,0,0,0,2.92-3.24,5,5,0,0,0,.38-1c0-.16.07-.34.11-.51l.09-.58A21.76,21.76,0,0,1,43,17.27c.22-.74.46-1.47.7-2.19l.18-.54a2.53,2.53,0,0,1,.31-.59,3.14,3.14,0,0,1,.39-.48,5.66,5.66,0,0,1,.43-.42,23.76,23.76,0,0,1,3.79-2.66c.94-.56,1.89-1.07,2.88-1.55a15.52,15.52,0,0,0-7.77,3,6.83,6.83,0,0,0-.87.83,3.86,3.86,0,0,0-.58,1,18.26,18.26,0,0,0-.6,2.37,15.05,15.05,0,0,1-1.7,4.68,7.25,7.25,0,0,1-1.64,1.95A10.38,10.38,0,0,1,36.4,24a20.73,20.73,0,0,1-2.35.86c-.79.25-1.6.43-2.33.72a8.28,8.28,0,0,0-3.67,3A13,13,0,0,0,26.17,33H26.1c0-.14,0-.29.06-.44a6.73,6.73,0,0,0-1.58,1.33,7.41,7.41,0,0,0-1.23,1.79l0,.06-.06,0c-.57.53-1.16,1.1-1.72,1.69a23.57,23.57,0,0,0-1.61,1.86c-.26.32-.5.64-.78,1s-.59.59-.89.88c-.57.51-1.16,1-1.76,1.46,0,.5,0,1,0,1.5a6.83,6.83,0,0,0,1,0A10.78,10.78,0,0,0,18.93,44c.46-.08.92-.15,1.38-.26l1.39-.32,0,.06a13,13,0,0,1-1.31.61c-.45.16-.9.34-1.37.46a11.45,11.45,0,0,1-1.44.28c-.22,0-.43,0-.64,0a2,2,0,0,0,.57.33,3.62,3.62,0,0,0,.84.23,2.1,2.1,0,0,0,.83,0,7.56,7.56,0,0,0,.82-.31A2.24,2.24,0,0,1,21,45c.36,0,.6.1.91.14a17.16,17.16,0,0,0,1.76.14,11.91,11.91,0,0,0,3.45-.51,12.94,12.94,0,0,0,3.19-1.45l.23-.13h0c1.19-.7,2-1.29,2-1.29.16-.74.34-1.49.53-2.23h.07c0,.81-.07,1.62-.13,2.43v.1l-.1.07-.63.49c-.21.16-.42.32-.64.46a7.12,7.12,0,0,1-.79.37A37.8,37.8,0,0,0,34.34,48c.65.73,1.36,1.43,2.07,2.1s1.54,1.22,2.34,1.8C40.36,53,42,54.07,43.69,55.07a28.89,28.89,0,0,0,5.25,2.55l.2.07,0,.2c.28,1.23.34,2.47.52,3.65a7.59,7.59,0,0,0,.4,1.69,2.35,2.35,0,0,0,.4.73,6,6,0,0,0,.56.67,8.15,8.15,0,0,0,3,1.87,13.2,13.2,0,0,0,3.31.78,9.55,9.55,0,0,0-.41-1.48,15.66,15.66,0,0,0-2.17-4.2l0-.05a15.36,15.36,0,0,1,2.44,4.13,7.23,7.23,0,0,1,.58,2.38l0,2.39-.12,4.77c0,1.59-.07,3.16-.14,4.79v0l0,0c-.12.34-.23.7-.32,1a3.16,3.16,0,0,0-.07.5,1.43,1.43,0,0,0,.06.48,8.24,8.24,0,0,1,.45,2.29c-.09,1.53-.19,3-.32,4.55s-.25,3-.48,4.52a4.24,4.24,0,0,1-.32,1.12c-.15.35-.28.7-.41,1.05a12.24,12.24,0,0,0-.61,2.16v0l0,0a8.25,8.25,0,0,0-.77,1.1c-.21.36-.42.72-.62,1.09a3.33,3.33,0,0,1,1.19.48,3.51,3.51,0,0,1,1,.88,4.37,4.37,0,0,1,.05-.88,1.73,1.73,0,0,1,.6-1c.28-.24.58-.47.84-.73a1.92,1.92,0,0,0,.56-.81.71.71,0,0,0,0-.2v-.31l0-.57,0-1.12.14-2.23c.2-3,.44-6,.67-9v-.08l.05-.08A8.08,8.08,0,0,0,60,82.74a5.58,5.58,0,0,0,.2-.88,3.27,3.27,0,0,0,0-.44c0-.16,0-.35.05-.51.2-1.31.51-2.56.79-3.81s.61-2.5.93-3.76l.24-.93a4,4,0,0,0,.18-.89c.07-.63.13-1.28.22-1.92A14.54,14.54,0,0,1,63,67.67a5.3,5.3,0,0,1,.35-1,3.29,3.29,0,0,1,.3-.46c.1-.12.2-.24.29-.37a6.79,6.79,0,0,0,1.17-3.47,13.15,13.15,0,0,0-.39-3.77c-.25-1.25-.55-2.5-.89-3.74l.06,0c.41,1.22.78,2.45,1.1,3.71.16.62.3,1.25.41,1.89a8,8,0,0,1,.14,2,7.28,7.28,0,0,1-1.06,3.62,50.2,50.2,0,0,1,6.35.74c1.1.24,2.17.59,3.26.8a13.87,13.87,0,0,0,6.54-.4,12.86,12.86,0,0,0,2.92-1.46l2.9-1.68a9.39,9.39,0,0,1,3-1.22l-.16-.19.06,0,.18.22h0A2.77,2.77,0,0,1,89,61.41a5.6,5.6,0,0,1,.14-1.53,8.48,8.48,0,0,1,1-2.87l.06,0a7.06,7.06,0,0,0-.33,1.43,12.18,12.18,0,0,0-.14,1.47c0,.49,0,1,0,1.45s-.05.94-.05,1.46h0v0h0l3.28,4a1.19,1.19,0,0,0,.08-.16l.07,0a.82.82,0,0,0-.09.19l.9,1.1c.77.9,1.55,1.76,2.36,2.62.4.42.82.84,1.24,1.23a6.31,6.31,0,0,0,1.35,1l0,0,0,0c1,1.12,1.65,2.2,2.58,3.34L102.81,78c.46.57,2.52,4.26,2.52,4.26a19.93,19.93,0,0,1,1.35,2.45,21.29,21.29,0,0,1,.94,2.64,20.63,20.63,0,0,1,.59,2.74c.29,1.84.61,2.12.8,4l.28,2.75a4.86,4.86,0,0,1-.05,1.47,2.93,2.93,0,0,1-.93,1.31,4.24,4.24,0,0,1,1.11.39,4.63,4.63,0,0,1,1,.7l.07-1.8a3.34,3.34,0,0,1,.28-1.38,3.58,3.58,0,0,1,.7-1ZM27.68,36.68a2.54,2.54,0,0,1-1.44.72,2.5,2.5,0,0,1-1.54-.46.19.19,0,0,1,0-.3,2.6,2.6,0,0,1,1.44-.73,2.47,2.47,0,0,1,1.54.47A.19.19,0,0,1,27.68,36.68ZM105.5,53.32a.75.75,0,0,1,.58.07c.27.16.19.37.22.59a12.43,12.43,0,0,1-.65,3c-.21.87-.43,1.75-.55,2.61a13.49,13.49,0,0,0-.08,2.62,6.59,6.59,0,0,0,.18,1.27c1,3.61,2.44,5,3.17,5.42a4.78,4.78,0,0,0,2.19.36,9.5,9.5,0,0,1-2.26-4.9,55.81,55.81,0,0,1,.07-8.9,5.46,5.46,0,0,0-.1-1.41,3.43,3.43,0,0,0-.6-1.23c-.29-.4-.54-.85-.82-1.21a3.94,3.94,0,0,0-.75-.83c-.2-.18-.43-.32-.64-.48a3.41,3.41,0,0,1,.31.86A5,5,0,0,1,105.5,53.32ZM94.26,80.06c-.11-.33-.22-.66-.34-1l-.74-2a13.05,13.05,0,0,1-.67-2A20,20,0,0,1,92,70.85a10.65,10.65,0,0,1,.19-2.12,6.22,6.22,0,0,1,.53-1.63L89.5,62.94a12.35,12.35,0,0,0-2.77,1.59c-.92.63-1.85,1.28-2.81,1.87l-.18.1a8.82,8.82,0,0,0,.68,2,7,7,0,0,0,1.37,1.91l0,0v.06a30.18,30.18,0,0,0,1.1,4.38c.23.72.47,1.44.74,2.14a13.33,13.33,0,0,0,.91,2l0,0,0,0a19.75,19.75,0,0,1,.42,5.15,6.41,6.41,0,0,1-.64,2.57c-.38.77-.8,1.51-1.21,2.26-.84,1.49-1.19,2-2,3.43l-1.31,2.2c-.46.73-.84,1.46-1.37,2.19h0c-.43.31-.85.68-1.26,1s-1,1.28-1.41,1.62a3.62,3.62,0,0,1,1.19.54,3.51,3.51,0,0,1,1,.85l.75-1.12a3.43,3.43,0,0,1,.2-.84,2.82,2.82,0,0,1,.49-.79,2.16,2.16,0,0,1,.8-.53,2.54,2.54,0,0,1,.76-.14l3.92-6.93c1.52-2.68,3.08-5.33,4.61-8v0l0,0a8.08,8.08,0,0,0,.6-.81,2.29,2.29,0,0,0,.37-.81,1.53,1.53,0,0,0-.06-.41C94.36,80.39,94.32,80.22,94.26,80.06ZM59,97.33c-.06-.12-.12-.26-.19-.38l-.08,1.12a1.75,1.75,0,0,1-.44.71c.32.11.66.19,1,.27l.72.16c-.2-.38-.42-.74-.61-1.11Zm-3.1-1.75a.3.3,0,0,1,0-.1,16.49,16.49,0,0,1-1.48-2.86,29.36,29.36,0,0,1-1.1-3.15c-.31-1.07-.54-2.16-.77-3.24s-.38-2.19-.5-3.3v-.05a12.55,12.55,0,0,1,.7-3.22c.49-1,.89-2,1.34-3s1-2,1.52-2.91,1-1.79,1.65-2.63l0-.7.12-2.38a5.36,5.36,0,0,0-.06-.69,11.57,11.57,0,0,1-3.45-.5,9.06,9.06,0,0,1-1.65-.67c-.14,1.43-.3,2.86-.49,4.29s-.4,3-.7,4.55c-.07.38-.16.76-.26,1.13-.07.19-.11.38-.19.57l-.25.53a7,7,0,0,0-.51,2.14,7.74,7.74,0,0,0,.73,4.31v0l0,0c.3,1.24.71,2.44,1.12,3.66.2.61.4,1.22.56,1.85.09.32.17.64.23,1a9,9,0,0,1,.08,1A29.89,29.89,0,0,0,53.1,95a3.46,3.46,0,0,0,.25.88,2.78,2.78,0,0,0,.54.71,15.42,15.42,0,0,0,1.41,1.08A14.57,14.57,0,0,1,55.88,95.58ZM49.5,63.48a7.62,7.62,0,0,1-.5-1.84c-.18-1.16-.26-2.31-.5-3.4-8.21-3.79-11.58-6.56-18.09-14.41a12.16,12.16,0,0,1-3.1,1.5,12.37,12.37,0,0,1-2.7.44A3.85,3.85,0,0,1,26,47.08a7.69,7.69,0,0,1,1,2.28c.39,0,.81-.39,1.14-.84l.3-.4a1.25,1.25,0,0,1,.52-.37,1.78,1.78,0,0,1,1.16,0,2.23,2.23,0,0,1,.94.58,3.62,3.62,0,0,1,.6.86l.95,1.73q1,1.71,2.07,3.33a21.79,21.79,0,0,0,2.43,3,53.5,53.5,0,0,0,6,5A12.3,12.3,0,0,0,46.52,64a7.36,7.36,0,0,0,3.46.27A3.27,3.27,0,0,1,49.5,63.48Zm-23.33-31a13.39,13.39,0,0,1,1.56-4.1,10.93,10.93,0,0,1,.9-1.16,3.19,3.19,0,0,1,.66-1,7.82,7.82,0,0,1,1.3-1.06c.94-.64,2-1.05,2.8-1.74a12,12,0,0,0,2.25-2.31A12.08,12.08,0,0,0,37,18.22a11,11,0,0,0,.64-3.14c0-1.08,0-2.18,0-3.29a9.31,9.31,0,0,1,.08-1.73,4,4,0,0,1,.79-1.61A10.22,10.22,0,0,1,40,6.93a5.56,5.56,0,0,0-2.36,1.52,5.38,5.38,0,0,0-1.1,1.72,5.6,5.6,0,0,0-.21,2.05c0,.7.07,1.41,0,2.13a9.93,9.93,0,0,1-.44,2.1,13.87,13.87,0,0,1-1.89,3.84,9,9,0,0,1-3.54,2.49A10.44,10.44,0,0,0,27,24.9a6.47,6.47,0,0,0-1.75,3.61,31.19,31.19,0,0,0,.23,4.18A3,3,0,0,1,26.17,32.46Z"/><path d="M53.68,100.49l-2,2.31h3.66l.44-.89S55.58,100.86,53.68,100.49Z"/><path d="M79.43,100.19l-2,2.31h3.65l.44-.88S81.33,100.57,79.43,100.19Z"/><path d="M108,100.19l-2,2.31h3.66l.44-.88S109.85,100.57,108,100.19Z"/></svg>