<svg id="Layer_1" data-name="Layer 1" xmlns="http://www.w3.org/2000/svg" width="128" height="128" viewBox="0 0 128 128"><title>Artboard 57</title><path d="M8.31,123.76V109.44h2.36v5.63h4.66v-5.63h2.36v14.32H15.33V117.5H10.67v6.26Z"/><path d="M30.93,123.76H28.36l-1-3.25h-4.7l-1,3.25H19.14l4.57-14.32h2.51Zm-4.36-5.67L25,112.78l-1.6,5.31Z"/><path d="M32.38,123.76V109.44h5a6.89,6.89,0,0,1,2.73.39,3,3,0,0,1,1.35,1.33,4.68,4.68,0,0,1,.53,2.28,4.27,4.27,0,0,1-.81,2.71,3.62,3.62,0,0,1-2.29,1.29,5.76,5.76,0,0,1,1.26,1.19A17.24,17.24,0,0,1,41.5,121l1.42,2.8H40.1l-1.72-3.12a20,20,0,0,0-1.26-2.11,1.8,1.8,0,0,0-.7-.59,3.19,3.19,0,0,0-1.19-.16h-.49v6Zm2.36-8.27H36.5a8.51,8.51,0,0,0,2-.14,1.27,1.27,0,0,0,.71-.57,2.14,2.14,0,0,0,.27-1.14,2,2,0,0,0-.27-1.1,1.35,1.35,0,0,0-.74-.57,9.37,9.37,0,0,0-1.92-.11H34.74Z"/><path d="M47.05,123.76v-11.9H43.56v-2.42h9.33v2.42H49.41v11.9Z"/><path d="M54.63,123.76V109.44h8.71v2.42H57V115h5.89v2.41H57v3.88h6.56v2.43Z"/><path d="M65.76,109.44h4.7a7.37,7.37,0,0,1,2.71.35A3.06,3.06,0,0,1,74.49,111a3.78,3.78,0,0,1,.54,2,3.87,3.87,0,0,1-.46,1.87,3.06,3.06,0,0,1-1.2,1.24A3.14,3.14,0,0,1,75,117.42a3.85,3.85,0,0,1,.59,2.19,4.51,4.51,0,0,1-.75,2.64,3.06,3.06,0,0,1-1.78,1.33,17.86,17.86,0,0,1-3.31.18h-4Zm2.36,2.38v3.31h1.57a15,15,0,0,0,1.73,0,1.44,1.44,0,0,0,1-.51,1.71,1.71,0,0,0,.34-1.13,1.81,1.81,0,0,0-.27-1,1.19,1.19,0,0,0-.68-.49,13.58,13.58,0,0,0-2.27-.1Zm0,5.7v3.81h2.2a6.91,6.91,0,0,0,1.86-.15,1.35,1.35,0,0,0,.69-.59,2.39,2.39,0,0,0,0-2.28,1.51,1.51,0,0,0-.79-.62,7.27,7.27,0,0,0-2-.17Z"/><path d="M77.81,123.76V109.44h8.71v2.42H80.17V115h5.9v2.41h-5.9v3.88h6.56v2.43Z"/><path d="M88.94,123.76V109.44h8.71v2.42H91.31V115H97.2v2.41H91.31v3.88h6.56v2.43Z"/><path d="M99.48,119.09l2.31-.28c.26,1.83,1.11,2.75,2.56,2.75A2.44,2.44,0,0,0,106,121a1.81,1.81,0,0,0,.61-1.39,1.53,1.53,0,0,0-.21-.83,1.56,1.56,0,0,0-.66-.57,18.68,18.68,0,0,0-2.13-.73,7.33,7.33,0,0,1-2.21-1,3.68,3.68,0,0,1-1.12-1.41,4.23,4.23,0,0,1-.42-1.87,4.14,4.14,0,0,1,.54-2.11,3.41,3.41,0,0,1,1.47-1.42,5,5,0,0,1,2.31-.47,4.06,4.06,0,0,1,4.46,4.33l-2.37.13a2.54,2.54,0,0,0-.67-1.61,2.15,2.15,0,0,0-1.48-.46,2.32,2.32,0,0,0-1.47.4,1.18,1.18,0,0,0-.52,1,1.24,1.24,0,0,0,.47,1,6.52,6.52,0,0,0,2.16.88,9,9,0,0,1,2.58,1.09,3.72,3.72,0,0,1,1.22,1.47,5.23,5.23,0,0,1,.42,2.2,4.53,4.53,0,0,1-1.15,3.13,4.6,4.6,0,0,1-3.59,1.27Q100,124,99.48,119.09Z"/><path d="M113.85,123.76v-11.9h-3.48v-2.42h9.32v2.42h-3.47v11.9Z"/><path d="M52.19,102.79H56l.11-.23S53.74,101,53.71,101,52.19,102.79,52.19,102.79Z"/><path d="M52.61,101.56S50.23,100,50.2,100s-1.52,1.78-1.52,1.78H52.5Z"/><path d="M108.5,102.79h3.82l.11-.23S110,101,110,101,108.5,102.79,108.5,102.79Z"/><path d="M90.09,101.79H93.9l.12-.23S91.63,100,91.6,100,90.09,101.79,90.09,101.79Z"/><path d="M52,70.1,51.38,67l-.32-1.56-.13-.61c-.78.17-1.58.32-2.35.43a2.73,2.73,0,0,1,.45.62,10,10,0,0,1,.46.93c.25.65.48,1.3.68,2a24.66,24.66,0,0,1,.84,4c.09,1.44-.59,5.55-.16,7.12a10.12,10.12,0,0,0,1.43,2.71,4,4,0,0,1,.3,1l.06,1c.08,1.37.12,2.73.15,4.09.05,2-.18,5.42-.31,7.19a3.94,3.94,0,0,1-.73,2c-.32.46-.7,1-1,1.42.72.35,1.54.88,2.25,1.19,0,0,1.86-1.93,2-3.34a46.79,46.79,0,0,0,.17-5c0-1.43,0-3.76-.09-5.19,0-1.08-.08-2.17-.18-3.22a11.52,11.52,0,0,1-1-1.7,8.65,8.65,0,0,1-.68-1.93,6.36,6.36,0,0,1-.07-1l0-1,.34-1.93Z"/><path d="M101.22,76.35a28.71,28.71,0,0,0-2.15-3.54c-1.42-1.53-2.8-3.08-4.24-4.57a29.62,29.62,0,0,0-2.25-2.11c-.39-.33-.83-.57-1.27-.89s-.83-.64-1.24-1c-1.24-1.05-2.4-2.19-3.54-3.34a1.64,1.64,0,0,0,.13,1.24L87.9,64.1c.82,1.29,1.68,2.57,2.46,3.91v0l0,0a18.86,18.86,0,0,0,1.22,2.58c.46.84,1,1.68,1.45,2.51s1,1.69,1.46,2.53a18.15,18.15,0,0,1,1.35,2.68h0v0c.33,1.49.24,3,.59,4.35l0,.06v.05c-.41,2.55-.83,5.09-1.29,7.63a16.7,16.7,0,0,1-.43,1.9c-.2.6-.34,1.23-.49,1.85-.28,1.26-.8,3.86-.8,3.86l-1.37,1.5,2.21,1.32.61-.82a.81.81,0,0,1,1-.23s.68.63.86.45c.42-.45.15-1.28-.11-1.84a2.07,2.07,0,0,1-.13-1.32c.34-1.43,1.08-4.56,1.48-6.12.33-1.24.63-2.49,1-3.72l1-3.72v0l0,0,1.2-2.43a8.89,8.89,0,0,0,1-2.45,1.63,1.63,0,0,0-.26-1.14A6.12,6.12,0,0,1,101.22,76.35Z"/><path d="M113,95.76c-.17-.88-.64-4.25-.82-5.42-.33-2.32-.6-4.65-.83-7a13.83,13.83,0,0,1-.52-2.51,12.09,12.09,0,0,1,0-2.62,16.3,16.3,0,0,0-.44-4.81,32.92,32.92,0,0,0-3.87-3.69,15.76,15.76,0,0,1-2.14-1.82,10.67,10.67,0,0,1-1.63-2.32,19.11,19.11,0,0,1-1-2.23,12.78,12.78,0,0,1-.73-2.71,16.38,16.38,0,0,1,.34-5.92v0h0a25.58,25.58,0,0,0,1.23-4.25,16.78,16.78,0,0,0,.4-4.22,27.11,27.11,0,0,1,2.19,3.93,25.25,25.25,0,0,1,.71,2.62,5.37,5.37,0,0,1,.11.7,4.39,4.39,0,0,1,0,.72l0,1.33a21.67,21.67,0,0,1-.19,2.75,5.32,5.32,0,0,1-.17.72,3.17,3.17,0,0,1-.17.38l-.12.2-.07.12a8.2,8.2,0,0,0-.55,1.11,19.29,19.29,0,0,0-1.36,4.63,10.3,10.3,0,0,0,1.49,2,16.43,16.43,0,0,0,2.1,1.71c.7.54,1.36,1.11,2,1.71a24.11,24.11,0,0,1-1.64-3.25,7.94,7.94,0,0,1-.51-1.84,3.29,3.29,0,0,1,.3-2c.5-1.16,1.1-2.22,1.65-3.29a8.46,8.46,0,0,0,.68-1.58,9.63,9.63,0,0,0,.21-1.73,21.73,21.73,0,0,0-.24-3.59c-.09-.59-.19-1.18-.33-1.77a4.34,4.34,0,0,0-.66-1.6c-.64-1-4.6-5.53-6.68-6.24a13.61,13.61,0,0,0-1.29-1.34,9.11,9.11,0,0,0-1.77-1.27,7.89,7.89,0,0,1-1.91-1.23,26.85,26.85,0,0,0-3.37-2.84,9.89,9.89,0,0,0-4.24-.79,20.07,20.07,0,0,0-2.2.06c-.73.09-1.51.12-2.24.15l-4.46.14c-6,.1-11.89.52-17.9-.13a7.61,7.61,0,0,1-1.17-.24A8.79,8.79,0,0,1,60,36l-2-1A11.41,11.41,0,0,0,54,33.64a9.23,9.23,0,0,0-4.2.57,8.45,8.45,0,0,0-3.35,2.61l-.1.12h-.14a27.76,27.76,0,0,1-4.56-.35,24.12,24.12,0,0,1-4.42-1.14,29.06,29.06,0,0,1-4.15-1.86,24.51,24.51,0,0,1-4.16-2.78s-.25-.24-.52-.53l-.86-.18-1.05,1c.09-.15.84-1.29.87-1.29A5.19,5.19,0,0,0,28,29.6l.46,0a8.26,8.26,0,0,0,2-.2,3.81,3.81,0,0,0,1.83-.85,3.33,3.33,0,0,0,1-1.78,11.79,11.79,0,0,0,.19-2.66,7.49,7.49,0,0,0-2.13.34,8.4,8.4,0,0,0-1.86.57,6.13,6.13,0,0,0-1.29,1.19l-1,1.66L26,29.13l-1.34.51,1.27-.83.56-.68c-.2-.24-.68-.71-.68-.71A2.53,2.53,0,0,1,25.29,26a7,7,0,0,1,0-1.12c.67-1.58,1.62-3.82,2.25-5.39a13.66,13.66,0,0,0,.48-1.3,2.74,2.74,0,0,0,.19-1.2,5.7,5.7,0,0,0-1.3-2.21,12.84,12.84,0,0,1-.88-1.2,2.83,2.83,0,0,1-.5-1.65,2.75,2.75,0,0,1,.71-1.58,6.15,6.15,0,0,1,1.16-1,14.71,14.71,0,0,1,1.26-.78A9,9,0,0,1,30,8l1-.33a13,13,0,0,0-4.18.62,6,6,0,0,0-2.46,1.61,2.22,2.22,0,0,0-.53,1.22A5.55,5.55,0,0,0,24,12.5,8,8,0,0,0,25.35,15,4.84,4.84,0,0,1,26,16.56a4,4,0,0,1,0,1.69,6,6,0,0,1-1.47,2.84A23.36,23.36,0,0,1,22,23.64a16,16,0,0,0-.28-3.37,3.52,3.52,0,0,0-1.35-1.71,8.62,8.62,0,0,1-1.69-1.84,8.6,8.6,0,0,1-1.14-2.24,6.28,6.28,0,0,1-.29-2.55,3.58,3.58,0,0,1,.34-1.32,3.14,3.14,0,0,1,.88-1.09c.89-.73,1.84-1.36,2.75-2a10.61,10.61,0,0,0-1.38.31A6.59,6.59,0,0,0,17.41,9a4.46,4.46,0,0,0-1.5,2.25,6,6,0,0,0-.23,1.34,7.45,7.45,0,0,0,0,1.34,7.56,7.56,0,0,0,1.06,2.41c.47.79,1,1.54,1.56,2.31a15.11,15.11,0,0,1,1.53,2.45,9.43,9.43,0,0,1,.62,3.28,14,14,0,0,0-1.13,2.21l-.4-.82a6.52,6.52,0,0,0-1.19-1.29,8.7,8.7,0,0,0-1.8-.73,7.33,7.33,0,0,0-2.1-.52,11.84,11.84,0,0,0,0,2.66,3.27,3.27,0,0,0,.86,1.87,3.93,3.93,0,0,0,1.76,1,8.1,8.1,0,0,0,2,.37h.06l-.09.12-.88,1.06a3.1,3.1,0,0,0-.65,1c-.14.73.72,1.56.68,2.57-.27,1.89-.83,3.6-1.24,5.4s-.89,3.56-1.4,5.33v0l0,.06a19.84,19.84,0,0,0-1,2,7.18,7.18,0,0,0-.34,1,2.54,2.54,0,0,0-.05,1,2.39,2.39,0,0,0,.16.91.26.26,0,0,0,.15.14,1.21,1.21,0,0,0,.39.08,11,11,0,0,1,2.12.33,8.76,8.76,0,0,0,1.37-1.13,3.09,3.09,0,0,0,.93-1.53l0-.16.08-.08a11.07,11.07,0,0,1,1.65-1.29L22.07,45a23.5,23.5,0,0,0,2.64-2.24c.55-.54,1.17-1,1.73-1.47a14.89,14.89,0,0,1,1.88-1.24c.08-1.42.19-2.84.32-4.26h.1c.14,1.5.25,3,.34,4.49v.18l-.17.14A20.59,20.59,0,0,1,27,42.12c-.35.22-1.11.71-1.8,1.17a25.1,25.1,0,0,1,2.19,2c.69.72,1.35,1.46,2,2.21s1.3,1.5,1.91,2.28c.3.39.6.78.91,1.14l1,1.08c1.37,1.45,2.84,2.78,4.33,4.1a29.4,29.4,0,0,1,4.19,4.36l0,0,0,.07a6.23,6.23,0,0,0,1.49,2.29,10,10,0,0,0,1.1.9,4,4,0,0,0,1.16.67,8.62,8.62,0,0,0,2.82.24A4.86,4.86,0,0,0,50.68,64,7.13,7.13,0,0,0,49,61.4c-.34-.32-.83-.6-1.25-.94a13.87,13.87,0,0,1-1.24-1.06,12.58,12.58,0,0,1-2.06-2.49,7.06,7.06,0,0,1-1.2-3h.1a7.23,7.23,0,0,0,1.38,2.79A15.08,15.08,0,0,0,46.9,59a14.62,14.62,0,0,0,1.24,1c.41.31.88.54,1.34.92a6.93,6.93,0,0,1,1.89,2.75c.1.25.19.52.27.79l.18.78.36,1.55.72,3.12,1.32,6.27v.08l0,2c0,.63-.06,1.37,0,1.92A8.86,8.86,0,0,0,54.73,82a10.31,10.31,0,0,0,.88,1.72l0,0v0c.09,1.54.11,3,.13,4.53l.08,4.52c0,1.51,0,3,0,4.53,0,.8-.09,1.38-1.45,3l2.15,1.34A8.33,8.33,0,0,1,57.66,100c.32-.18.73.08,1,0s-.55-4.85-.61-5.66c-.11-1.6-.21-3.2-.28-4.79l-.19-4.8,0-1.21a4.17,4.17,0,0,1,.22-1.33,5.53,5.53,0,0,0,.51-2.14c-.11-1.47-.63-3.06-.76-4.7s-.21-3.2-.26-4.8-.11-3.19-.11-4.8a11,11,0,0,1,.17-2.42,3.66,3.66,0,0,1,.3-.8,5.45,5.45,0,0,0,.44-4.07,0,0,0,0,1,0,0c-.32-.93-.59-1.92-.95-2.9-.18-.49-.37-1-.52-1.51a6.39,6.39,0,0,1-.18-1.62,10.52,10.52,0,0,1,.6-3.11l.09,0a10.2,10.2,0,0,0-.19,3.06,6.42,6.42,0,0,0,.3,1.46c.16.43.42.91.64,1.38a12.8,12.8,0,0,1,1.18,3,8.77,8.77,0,0,1-.11,3.28,7.4,7.4,0,0,0-.79,1.93,5.32,5.32,0,0,0-.07,1,43.86,43.86,0,0,1,7.34.57c2.53.44,5.09,1.17,7.63.8a24.06,24.06,0,0,0,7.24-1.93A11,11,0,0,0,81.6,63c.56-.36,1.11-.71,1.65-1.09,1-.73,2.12-1.4,3.07-2.21-.17-.17-.33-.35-.49-.53q-.51-.59-1-1.2c-.3-.42-.59-.84-.85-1.27s-.51-.88-.75-1.34l-.08-.15,0-.13a11.94,11.94,0,0,1,.63-2.35,20.21,20.21,0,0,1,.92-2.19A39.26,39.26,0,0,1,87,46.43l.09,0a45.08,45.08,0,0,0-1.85,4.29A16.06,16.06,0,0,0,84.18,55c.25.39.5.76.72,1.16s.5.87.74,1.32A46.12,46.12,0,0,0,91.27,64c.4.31.81.63,1.24.91s.89.52,1.32.86a24.66,24.66,0,0,1,2.34,2.1c1.48,1.47,2.48,3.42,3.92,4.92.72.74,1.44,1.49,2.2,2.17a13.35,13.35,0,0,1,2.11,2.4c1.22,1.72,2.66,3.14,3.57,5,.23.48.45,1,.64,1.46a15.87,15.87,0,0,1,.47,1.54c.27,1,.49,2,.7,3.07.42,2,.75,4.1,1.09,6.16l.25,1.53a6.36,6.36,0,0,1,.11.84,6,6,0,0,1,0,.86,11.1,11.1,0,0,1-.69,2.59l2.16,1.18a18.21,18.21,0,0,1,.64-2.76c.19-.16.73.05.9,0a.55.55,0,0,0,.3-.48C114.5,98.15,113.11,96.65,113,95.76ZM24.15,33.83a1.71,1.71,0,0,1-1.21.06.22.22,0,0,1-.15-.28,1.77,1.77,0,0,1,.72-1,1.75,1.75,0,0,1,1.2-.07.23.23,0,0,1,.16.29A1.77,1.77,0,0,1,24.15,33.83Z"/></svg>