<svg id="Layer_1" data-name="Layer 1" xmlns="http://www.w3.org/2000/svg" width="128" height="128" viewBox="0 0 128 128"><title>Artboard 58</title><path d="M39,123.76V109.44h2.36v5.63H46v-5.63H48.4v14.32H46V117.5H41.38v6.26Z"/><path d="M51,123.76V109.44h2.37v14.32Z"/><path d="M55.8,123.76V109.44h3.81a12.05,12.05,0,0,1,2.78.2,3.24,3.24,0,0,1,1.73,1.42,5.19,5.19,0,0,1,.68,2.79,5.3,5.3,0,0,1-.59,2.61,3.39,3.39,0,0,1-1.46,1.47,7.68,7.68,0,0,1-3,.43H58.17v5.4Zm2.37-11.9v4.07h1.31a5.82,5.82,0,0,0,1.79-.18,1.63,1.63,0,0,0,.78-.67,2.24,2.24,0,0,0,.3-1.19,2.2,2.2,0,0,0-.31-1.21,1.59,1.59,0,0,0-.77-.65,7.11,7.11,0,0,0-2-.17Z"/><path d="M66.94,123.76V109.44h3.81a12.05,12.05,0,0,1,2.78.2,3.24,3.24,0,0,1,1.73,1.42,5.19,5.19,0,0,1,.67,2.79,5.3,5.3,0,0,1-.58,2.61,3.36,3.36,0,0,1-1.47,1.47,7.59,7.59,0,0,1-3,.43H69.3v5.4Zm2.36-11.9v4.07h1.31a5.9,5.9,0,0,0,1.8-.18,1.63,1.63,0,0,0,.78-.67,2.24,2.24,0,0,0,.3-1.19,2.2,2.2,0,0,0-.31-1.21,1.59,1.59,0,0,0-.77-.65,7.11,7.11,0,0,0-2-.17Z"/><path d="M77.6,116.69a10.29,10.29,0,0,1,.75-4.22,5.77,5.77,0,0,1,2-2.46,5.17,5.17,0,0,1,3-.81,5.09,5.09,0,0,1,4.11,1.92A8.38,8.38,0,0,1,89,116.6a8.51,8.51,0,0,1-1.67,5.61,5.42,5.42,0,0,1-8,0A8.41,8.41,0,0,1,77.6,116.69Zm2.44-.1a6,6,0,0,0,.94,3.7,2.81,2.81,0,0,0,2.33,1.24,2.77,2.77,0,0,0,2.31-1.23,6.2,6.2,0,0,0,.92-3.76,6.1,6.1,0,0,0-.89-3.68,2.79,2.79,0,0,0-2.34-1.19,2.83,2.83,0,0,0-2.36,1.2A6.14,6.14,0,0,0,80,116.59Z"/><path d="M120.14,91.8a1.22,1.22,0,0,0-1.55.46c-.14.19-.3.37-.64.79.08-.53,0-.8.15-.89,1.48-1.17.57-2.25,0-3.46-1.38-3-1.92-6.26-3.42-9.19-.06-.14-.19-.23,0-.44.92-.88,1.09-2.12.06-2.79a8.22,8.22,0,0,1-3.44-5.37,1.52,1.52,0,0,0-.39-.62c-3.15-3.41-6.29-6.83-10.54-9-2.84-1.43-5.67-2.86-8.44-4.41a43.29,43.29,0,0,0-23.31-5.73,85.21,85.21,0,0,1-17.74-1.36c-9.6-1.54-18.82-.41-27.47,4.15a26.59,26.59,0,0,0-9.86,8.56c-.77.62-2.45,3.1-3,3.61A13.59,13.59,0,0,0,7.36,74c-.13,2.48,1.93,5.4,1.93,5.4s-.46-3.22.33-4.81a12.53,12.53,0,0,0,.91,3.87c.22.55.72,1.9-1.14,4.36a4.73,4.73,0,0,0-.89,2.6A77,77,0,0,1,7.39,93.8,6.52,6.52,0,0,0,8.21,99a5.59,5.59,0,0,0,2.2,1.92c2.07,1.12,5.5.5,5.59.44a3,3,0,0,1,.37-.14c.1,0,.12-.14.22-.2s.3-.1.35-.21-.14-.19-.12-.32c.08-.66-2-.87-2.49-1.14a3,3,0,0,1-.94-3c.6-2.44,1.78-3.9,2.61-6a2.05,2.05,0,0,1,.75-.88,14.37,14.37,0,0,1,11.37-2.81,6.39,6.39,0,0,1,3.51,1.21,20,20,0,0,0-9.27.21c-1.38.34-1.55,1-1.15,2.16.64,1.92,1.93,3.51,2.75,5.32,1.58,3.52,4.68,3.81,7.86,4.06.52,0,2-.43,2.56-.41a.54.54,0,0,0,.5-.46,1,1,0,0,0-.48-1,7.32,7.32,0,0,0-2-.91c-1.12-.45-2.86-4.23-2.45-5.34a2.35,2.35,0,0,1,1-1.21A3.29,3.29,0,0,1,33.26,90a125,125,0,0,1,12.8,2.77c9.11,1.34,13.84,1.41,20.14-3.33v0a7.62,7.62,0,0,0,.85,4.72,5.26,5.26,0,0,1,.58,2.26c.06,2.79,1.57,4.4,4.14,5.18.63.19,1.34.77,1.89.16a11.27,11.27,0,0,0,3.34.43c1.18-.28,1-.06,1.48-.49a2,2,0,0,0-1.22-1.66,11.18,11.18,0,0,1-3.33-2.83c-.43-.56.38-1.69,0-2.35h0a7,7,0,0,1,2.21-8.3c-.16.29-.24.45-.33.6a7.4,7.4,0,0,0,.25,8.77A5.22,5.22,0,0,1,77,98.07c.49,2.76,2.22,4.11,4.88,4.49.65.09,1.44.56,1.9-.13a11.07,11.07,0,0,0,3.36-.08c1.12-.46,1-.21,1.39-.71a2.07,2.07,0,0,0-1.46-1.46,11.15,11.15,0,0,1-3.72-2.28,3.54,3.54,0,0,1-1.12-4.09,18.71,18.71,0,0,0,.62-2.71,25.13,25.13,0,0,0,.35-6.63c.72.51.26,1.38.93,1.77,2.37-1.73,3.17-2.1,1.7,0,2.65,1.11,3,1,3.63-1.75.32-1.36-.84-6.42-.53-6.47s2.11,5.09,1.71,7.15a2.74,2.74,0,0,0,0,1.72A1.14,1.14,0,0,0,92,87.6c.7-.21.19-.76.13-1.11a14.53,14.53,0,0,1,0-5.38c.62-3.08,2.42-5.81,2.39-5.33-.12,2.37-.77,2.29-1.26,4.57-.58,2.67-.63,5.24,1,7.61a2.72,2.72,0,0,0,3,1.47c2.48-.58,4.13.52,5.46,2.45.59.84,1.2,1.67,1.84,2.47a11.07,11.07,0,0,0,5.71,4c-.83-2.56-.47-5.08-.76-7.53A24.58,24.58,0,0,0,108.09,88a22.12,22.12,0,0,1,2.18,2.52c.19,1.84.2,4.16.58,6,.46,2.14,2.21,3.08,4.36,2.59A7.39,7.39,0,0,0,119.67,96a5.42,5.42,0,0,0,1.13-2.82A1.28,1.28,0,0,0,120.14,91.8ZM100.92,81.55a9.43,9.43,0,0,0,.79,6.92A4.84,4.84,0,0,1,100.92,81.55Zm7.44-12.16a2,2,0,0,0-1.36-.63c-.47,0-.72.49-.87.9a2.15,2.15,0,0,0,.32,2.2l.87,1.17c-2.19-1.57-2.53-3.1-1.26-4.55a1.17,1.17,0,0,1,1.77-.24c1.08.75,1.23,2.25,1.42,3.76C108.7,71.77,108.83,70,108.36,69.39ZM112,79.83a1.72,1.72,0,0,1-2-1.92.33.33,0,0,1,.3-.32,2.18,2.18,0,0,1,1.48.46,2.14,2.14,0,0,1,.51,1.46A.33.33,0,0,1,112,79.83Z"/></svg>