<svg id="Layer_1" data-name="Layer 1" xmlns="http://www.w3.org/2000/svg" width="128" height="128" viewBox="0 0 128 128"><title>Artboard 77</title><path d="M6,12.89l2.31-.27c.26,1.83,1.12,2.74,2.56,2.74a2.38,2.38,0,0,0,1.69-.56,1.81,1.81,0,0,0,.62-1.39A1.45,1.45,0,0,0,12.31,12a19.5,19.5,0,0,0-2.13-.74,7.07,7.07,0,0,1-2.22-1A3.84,3.84,0,0,1,6.84,8.88,4.41,4.41,0,0,1,6.43,7,4.26,4.26,0,0,1,7,4.89,3.5,3.5,0,0,1,8.43,3.48,5,5,0,0,1,10.74,3,4.51,4.51,0,0,1,14,4.12a4.52,4.52,0,0,1,1.23,3.22l-2.38.12a2.54,2.54,0,0,0-.67-1.61,2.17,2.17,0,0,0-1.47-.46,2.44,2.44,0,0,0-1.48.4,1.24,1.24,0,0,0-.52,1,1.26,1.26,0,0,0,.47,1,7,7,0,0,0,2.16.88A8.48,8.48,0,0,1,13.9,9.74a3.72,3.72,0,0,1,1.22,1.47,5.15,5.15,0,0,1,.42,2.19,4.51,4.51,0,0,1-1.15,3.14A4.62,4.62,0,0,1,10.8,17.8C7.93,17.8,6.32,16.17,6,12.89Z"/><path d="M17.66,17.56V3.24H20V17.56Z"/><path d="M22.48,3.24H26.8a6.53,6.53,0,0,1,2.48.37,4.08,4.08,0,0,1,1.53,1.24A6.4,6.4,0,0,1,31.92,7.1a13,13,0,0,1,.4,3.45,11.1,11.1,0,0,1-.42,3.23A6.46,6.46,0,0,1,30.83,16a4.14,4.14,0,0,1-1.55,1.21,5.84,5.84,0,0,1-2.35.4H22.48Zm2.37,2.43v9.47h1.77a4.48,4.48,0,0,0,1.66-.22,2,2,0,0,0,.84-.64,3.66,3.66,0,0,0,.54-1.37,11.66,11.66,0,0,0,.22-2.47,11.67,11.67,0,0,0-.22-2.51A3.34,3.34,0,0,0,29,6.49a2.11,2.11,0,0,0-1.13-.7,9.84,9.84,0,0,0-1.92-.12Z"/><path d="M34.54,17.56V3.24h8.71V5.67H36.9V8.84h5.9v2.41H36.9v3.89h6.56v2.42Z"/><path d="M45,13.74V11h4.43v2.74Z"/><path d="M50.73,12.89,53,12.62c.26,1.83,1.12,2.74,2.56,2.74a2.38,2.38,0,0,0,1.69-.56,1.81,1.81,0,0,0,.62-1.39A1.45,1.45,0,0,0,57,12a18.7,18.7,0,0,0-2.13-.74,7.07,7.07,0,0,1-2.22-1,3.84,3.84,0,0,1-1.12-1.41A4.41,4.41,0,0,1,51.16,7a4.26,4.26,0,0,1,.53-2.11,3.56,3.56,0,0,1,1.47-1.41A5.06,5.06,0,0,1,55.47,3a4.51,4.51,0,0,1,3.24,1.12,4.52,4.52,0,0,1,1.23,3.22l-2.38.12a2.54,2.54,0,0,0-.67-1.61,2.17,2.17,0,0,0-1.47-.46,2.44,2.44,0,0,0-1.48.4,1.24,1.24,0,0,0-.52,1,1.26,1.26,0,0,0,.47,1,7,7,0,0,0,2.16.88,8.48,8.48,0,0,1,2.58,1.09,3.64,3.64,0,0,1,1.22,1.47,5.15,5.15,0,0,1,.42,2.19,4.51,4.51,0,0,1-1.15,3.14,4.62,4.62,0,0,1-3.59,1.26C52.66,17.8,51.05,16.17,50.73,12.89Z"/><path d="M65.11,17.56V5.67H61.62V3.24H71V5.67H67.47V17.56Z"/><path d="M72.69,17.56V3.24h5a6.91,6.91,0,0,1,2.74.39A3,3,0,0,1,81.76,5a4.52,4.52,0,0,1,.53,2.28,4.27,4.27,0,0,1-.8,2.7,3.56,3.56,0,0,1-2.29,1.29,6.58,6.58,0,0,1,1.26,1.2,16.81,16.81,0,0,1,1.35,2.33l1.43,2.79H80.41L78.7,14.45a20.63,20.63,0,0,0-1.26-2.12,1.79,1.79,0,0,0-.71-.58,3.08,3.08,0,0,0-1.19-.17h-.49v6ZM75.05,9.3h1.76a9,9,0,0,0,2-.14,1.38,1.38,0,0,0,.72-.57,2.15,2.15,0,0,0,.27-1.15,2,2,0,0,0-.27-1.1,1.47,1.47,0,0,0-.75-.57,9.72,9.72,0,0,0-1.92-.1H75.05Z"/><path d="M84.65,17.56V3.24H87V17.56Z"/><path d="M89.48,17.56V3.24h3.81a11.36,11.36,0,0,1,2.78.21,3.1,3.1,0,0,1,1.72,1.42,5.1,5.1,0,0,1,.68,2.79,5.29,5.29,0,0,1-.58,2.6,3.44,3.44,0,0,1-1.47,1.48,7.69,7.69,0,0,1-3,.42H91.84v5.4ZM91.84,5.67V9.74h1.31A5.55,5.55,0,0,0,95,9.55a1.57,1.57,0,0,0,.78-.67A2.21,2.21,0,0,0,96,7.69a2.16,2.16,0,0,0-.31-1.2,1.54,1.54,0,0,0-.78-.66A7.11,7.11,0,0,0,93,5.67Z"/><path d="M100.63,17.56V3.24h8.71V5.67H103V8.84h5.9v2.41H103v3.89h6.56v2.42Z"/><path d="M111.74,3.24h4.33a6.5,6.5,0,0,1,2.47.37,4.18,4.18,0,0,1,1.54,1.24,6.57,6.57,0,0,1,1.1,2.25,13,13,0,0,1,.4,3.45,11.1,11.1,0,0,1-.42,3.23A6.46,6.46,0,0,1,120.09,16a4.06,4.06,0,0,1-1.55,1.21,5.84,5.84,0,0,1-2.35.4h-4.45Zm2.37,2.43v9.47h1.77a4.45,4.45,0,0,0,1.66-.22,2,2,0,0,0,.84-.64,3.66,3.66,0,0,0,.54-1.37,11.66,11.66,0,0,0,.22-2.47,11.67,11.67,0,0,0-.22-2.51,3.34,3.34,0,0,0-.69-1.44,2.11,2.11,0,0,0-1.13-.7,9.84,9.84,0,0,0-1.92-.12Z"/><path d="M35.74,109.44H38.1v9.06a8.94,8.94,0,0,1-.44,3.27,3.45,3.45,0,0,1-1.31,1.65,3.77,3.77,0,0,1-2.15.58,3.26,3.26,0,0,1-2.65-1.16,5.5,5.5,0,0,1-1-3.51l2.24-.31a4.25,4.25,0,0,0,.32,1.79,1.34,1.34,0,0,0,2.25.2,4.91,4.91,0,0,0,.35-2.32Z"/><path d="M51.41,123.76H48.84l-1-3.25h-4.7l-1,3.25H39.62l4.57-14.32H46.7Zm-4.36-5.67-1.62-5.31-1.59,5.31Z"/><path d="M60.37,118.49l2.29.89a6.47,6.47,0,0,1-1.78,3.51A4.48,4.48,0,0,1,57.8,124a4.55,4.55,0,0,1-3.72-1.77,8.49,8.49,0,0,1-1.64-5.51A9,9,0,0,1,54.09,111,4.67,4.67,0,0,1,58,109.2a4.42,4.42,0,0,1,3.3,1.34,5.78,5.78,0,0,1,1.39,2.84l-2.34.69a3.12,3.12,0,0,0-.9-1.78,2.2,2.2,0,0,0-1.58-.62,2.51,2.51,0,0,0-2.12,1.13,6.49,6.49,0,0,0-.82,3.74,7,7,0,0,0,.8,3.85,2.44,2.44,0,0,0,2.08,1.14,2.13,2.13,0,0,0,1.62-.73A4.52,4.52,0,0,0,60.37,118.49Z"/><path d="M64.91,123.76V109.44h2.37v6.37l4.8-6.37h3.19L70.84,115l4.66,8.74H72.44L69.2,117l-1.92,2.4v4.33Z"/><path d="M87.52,123.76H85l-1-3.25h-4.7l-1,3.25H75.73l4.57-14.32h2.51Zm-4.37-5.67-1.62-5.31-1.59,5.31Z"/><path d="M89,123.76v-14.2h2.37v11.77h5.9v2.43Z"/><path d="M56.82,98.87a1.72,1.72,0,0,1-1.26-.52c-1.78-1.66-6-5.41-5.76-9.37v-.1a30.2,30.2,0,0,1,1.88-5.94c1.36-3.54,2.94-7.81,2.73-10.2A48.55,48.55,0,0,1,43,70.13a.79.79,0,0,1-.42.42c.21.21,5.56,6.87,3,17.81A2.18,2.18,0,0,0,46,90.13c2.52,3,8.7,9.47,10.07,10.83h5.55A7.7,7.7,0,0,0,56.82,98.87ZM78.52,72a70.19,70.19,0,0,1-9.65,1.14C67.72,75.86,65.1,86.69,64,92.21l-.11.42-.42.2a20.67,20.67,0,0,0-4,2.61,6,6,0,0,0-.63.83l-.42.83a11.38,11.38,0,0,1,2,.73c.11,0,.21-.1.32-.1.42-.21,3.14-1.77,5.45-3.23h.1c1.89-.94,3.67-5.94,3.88-7.29.21-5,7.45-13.22,8.6-14.79C78.62,72.22,78.62,72.11,78.52,72ZM127.9,57.32a1.28,1.28,0,0,1-.11-1.77h.11c-1.37-1-3-2.08-4.09-2.81-.63-.41-1-.73-1.26-.83-.84-.63-1.47-2-2.2-4.58a27.71,27.71,0,0,0-4.41-5.42,6.36,6.36,0,0,1-1.25,2,8.76,8.76,0,0,0,.73-2.6c0-.31.11-.52.11-.84,0-.52.1-1.14.1-1.66a22.55,22.55,0,0,0,0-2.6c0-.53-.1-.94-.1-1.36-.11.11-.21.11-.32.21s-.21.31-.31.42a5.48,5.48,0,0,0-.74.93c-.42.63-.73,1.25-1.15,1.88a13.85,13.85,0,0,0-1.57,4.27,5,5,0,0,1-.21-2.5,6.27,6.27,0,0,1,.73-2.4c.11-.21.32-.41.42-.62-.1,0-.21.1-.31.21l-.53.52a2.41,2.41,0,0,0-.42.52,1,1,0,0,0-.42.52,2.27,2.27,0,0,0-.42.62,12.15,12.15,0,0,0-1,2.71,8.69,8.69,0,0,1,0-2.39,46.66,46.66,0,0,0-6.61,1.35c-1.78.62-9,4.27-10.59,4.69l-.21.1h-.21c-5.24-.63-8.28-2.19-11.53-1.25a6,6,0,0,1-3.56-.1c-3.88-1.36-8.18-.42-11,.1-1.68.31-2.73.62-3.46.42A63.57,63.57,0,0,0,47,43.58c-11.32.31-17.61,5.73-17.71,5.83s-.32.21-.42.21-6.19,2.29-11.22,9.89l-.1.21-.21.1C13.42,61.8,6,68.36,2.73,77.94a7.3,7.3,0,0,0-.42,1.46A49.63,49.63,0,0,1,0,86.79c2.2-.41,6.29-1.45,9-3.64A28.55,28.55,0,0,0,15.1,76.8c.52-.73,1-1.46,1.78-2.4a60.51,60.51,0,0,0,3.46-5.52c.1-.31.21-.52.31-.83a12.12,12.12,0,0,1,2.52-4.48A18.91,18.91,0,0,1,25.37,55c0-.1.1-.1.1-.2a14.92,14.92,0,0,1,1.16-1.36,11.8,11.8,0,0,1,1.26-1.14,20.28,20.28,0,0,1,2.83-1.77A21.76,21.76,0,0,0,28.62,53a9.57,9.57,0,0,0-.84,1.35,3.78,3.78,0,0,0-.52,1.15.37.37,0,0,1-.11.31c-.1,0-2.2,3.33-2.1,9.27v2.71a19.86,19.86,0,0,1-4.61,13.64,7.63,7.63,0,0,1-3.56,2c-.21.1-.42.1-.63.21a1,1,0,0,0-.63.52L9,94.92c-.32,2.08-.63,4.27-.74,5.62a6.77,6.77,0,0,0,2.62-2.81l.11-.21c1.05-2.39,3.67-8.64,7.86-10.73,2.52-1.14,5.66-4.16,8.49-6.87,1.57-1.46,3-2.81,4.19-3.75.74-.62,1.68-1.25,2.83-2.08,1.89-1.35,4.3-3.12,6.29-4.79.11,0,.11-.1.21-.1a19.33,19.33,0,0,0,2.52-1.77,11.43,11.43,0,0,0,2.2-2.3,11.71,11.71,0,0,0,1.68-2.7,12.41,12.41,0,0,0,1-3.13,18.43,18.43,0,0,1-.63,3.23,14.57,14.57,0,0,1-1.36,3.13,16.41,16.41,0,0,1-1.89,2.7c2.31.84,10.9,3.23,24.22,2.92a73.71,73.71,0,0,0,9.12-1,13.79,13.79,0,0,1-.74-1.56.84.84,0,0,1-.1-.42v-.52c.42-.84.84-1.67,1.25-2.5s.84-1.56,1.37-2.4A19.12,19.12,0,0,1,83,58.57a20.22,20.22,0,0,0-2.62,4.69c-.32.83-.63,1.67-1,2.5a21.78,21.78,0,0,0-.73,2.39c.52,1.15,3.56,7.29,6.92,10l.1.11a35,35,0,0,1,4,4.27c3,4.06,7.33,10.1,11.11,13a10.07,10.07,0,0,1,1.78,2.81,19.43,19.43,0,0,0,3.46,4.38.1.1,0,0,0,.1.1c1.37,0,5.25-.1,7.45-.1a6.81,6.81,0,0,0-3.67-2.19,4.54,4.54,0,0,1-2.62-1.35,52,52,0,0,1-4.93-6C102.32,93,98.86,86.38,96,84l-.11-.1c-1.36-1.67-2.72-5.1-4.19-7.6A5.15,5.15,0,0,1,92.57,70l.31-.31A7.79,7.79,0,0,0,94,68.26a7.92,7.92,0,0,0,1-1.88,10.51,10.51,0,0,0,.52-2,6.65,6.65,0,0,0,0-2.09A5.5,5.5,0,0,1,96,64.51a8.2,8.2,0,0,1-.11,2.29.39.39,0,0,0-.1.31,67.82,67.82,0,0,0,6.81-7.39l.11-.1.1-.11A70.06,70.06,0,0,1,111,57.22l-.74-.42-1.78-.93-.94-.42c-.11-.1-.32-.1-.53-.31a2.31,2.31,0,0,1-.42-.63l-.1-3.75.84,3.54c.1.11.1.21.21.21a.62.62,0,0,1,.42.11l.94.31,1.89.62,3.77,1.36h.11c1.57.31,3.67,1,5.66,1.66,1.15.42,2.2.73,2.93.94a1.44,1.44,0,0,0,1.16-.1,4.67,4.67,0,0,1-1-.42.1.1,0,0,0-.1-.1L121,57.53l-.32-.21-.1-.1c-.11,0-.11-.1-.21-.1a1.39,1.39,0,0,1-.53-.52c-.1-.21-.31-.32-.42-.53s-.63-.62-.63-.93c.32-.11.84.31,1,.41l.63.32c.21.1.32.1.53.2a1.57,1.57,0,0,1,.63.21l2.51.84a.41.41,0,0,1,.32.1,3.85,3.85,0,0,0,2.41.63,1.58,1.58,0,0,0,1.15-.42ZM69,57.49A25.25,25.25,0,0,1,59,57.6c-6.5-1.25-16-3.65-27.57-1.88,6.92-6.56,15.83-3.12,20.12-1.87,2.31.62,9.23,1,14.26,1,12.48-.94,11-.52,13.74-.94,1.15-.1,4.29,2.19,4.29,2.19S78.15,55.51,69,57.49Zm51-6.31-.21-.1-.31-.21a2.79,2.79,0,0,0-.74-.42l-.62-.31a3.21,3.21,0,0,0-.63-.31.92.92,0,1,1,.52-1.77c.11.1.32.2.42.31l.11.1a2.64,2.64,0,0,1,.52.73l.42.63.63.93V51c.1,0,.1,0,.1.21S120.14,51.18,120,51.18Z"/></svg>