<svg id="Layer_1" data-name="Layer 1" xmlns="http://www.w3.org/2000/svg" width="128" height="128" viewBox="0 0 128 128"><title>Artboard 79</title><path d="M2.06,123.76V109.44H4.42v6.37l4.8-6.37h3.19L8,115l4.67,8.74H9.58L6.34,117l-1.92,2.4v4.33Z"/><path d="M14.13,123.76v-14.2h2.36v11.77h5.9v2.43Z"/><path d="M24.21,123.76V109.44h2.37v14.32Z"/><path d="M29,123.76V109.44h3.81a12.05,12.05,0,0,1,2.78.2,3.24,3.24,0,0,1,1.73,1.42,5.19,5.19,0,0,1,.68,2.79,5.3,5.3,0,0,1-.59,2.61A3.39,3.39,0,0,1,36,117.93a7.68,7.68,0,0,1-3,.43H31.41v5.4Zm2.37-11.9v4.07h1.31a5.82,5.82,0,0,0,1.79-.18,1.63,1.63,0,0,0,.78-.67,2.24,2.24,0,0,0,.31-1.19,2.2,2.2,0,0,0-.32-1.21,1.59,1.59,0,0,0-.77-.65,7.11,7.11,0,0,0-1.95-.17Z"/><path d="M39.58,119.09l2.32-.28c.26,1.83,1.11,2.75,2.56,2.75a2.44,2.44,0,0,0,1.69-.56,1.81,1.81,0,0,0,.61-1.39,1.41,1.41,0,0,0-.87-1.39,16.21,16.21,0,0,0-2.13-.74,7.21,7.21,0,0,1-2.21-1,3.68,3.68,0,0,1-1.12-1.41A4.23,4.23,0,0,1,40,113.2a4.14,4.14,0,0,1,.54-2.11A3.41,3.41,0,0,1,42,109.67a5.14,5.14,0,0,1,2.31-.47,4.06,4.06,0,0,1,4.46,4.33l-2.37.13a2.54,2.54,0,0,0-.67-1.61,2.15,2.15,0,0,0-1.48-.46,2.32,2.32,0,0,0-1.47.4,1.18,1.18,0,0,0-.52,1,1.24,1.24,0,0,0,.47,1,6.52,6.52,0,0,0,2.16.88,9,9,0,0,1,2.58,1.09,3.58,3.58,0,0,1,1.21,1.48,5.15,5.15,0,0,1,.42,2.19A4.52,4.52,0,0,1,48,122.73,4.6,4.6,0,0,1,44.39,124Q40.07,124,39.58,119.09Z"/><path d="M51.32,123.76V109.44h3.81a12.11,12.11,0,0,1,2.78.2,3.18,3.18,0,0,1,1.72,1.42,5.1,5.1,0,0,1,.68,2.79,5.3,5.3,0,0,1-.58,2.61,3.41,3.41,0,0,1-1.47,1.47,7.65,7.65,0,0,1-3,.43H53.68v5.4Zm2.36-11.9v4.07H55a6,6,0,0,0,1.8-.18,1.72,1.72,0,0,0,.78-.67,2.24,2.24,0,0,0,.3-1.19,2.2,2.2,0,0,0-.31-1.21,1.56,1.56,0,0,0-.78-.65,7,7,0,0,0-1.94-.17Z"/><path d="M62.46,123.76V109.44h5a6.91,6.91,0,0,1,2.74.39,3,3,0,0,1,1.35,1.33,4.68,4.68,0,0,1,.52,2.28,4.26,4.26,0,0,1-.8,2.71A3.62,3.62,0,0,1,69,117.44a5.76,5.76,0,0,1,1.26,1.19A18.4,18.4,0,0,1,71.59,121l1.42,2.8H70.18l-1.71-3.12a20,20,0,0,0-1.26-2.11,1.8,1.8,0,0,0-.7-.59,3.19,3.19,0,0,0-1.19-.16h-.49v6Zm2.37-8.27h1.76a8.56,8.56,0,0,0,2-.14,1.27,1.27,0,0,0,.71-.57,2.11,2.11,0,0,0,.27-1.14,2,2,0,0,0-.27-1.1,1.35,1.35,0,0,0-.74-.57,9.5,9.5,0,0,0-1.93-.11H64.83Z"/><path d="M74.42,123.76V109.44h2.37v14.32Z"/><path d="M79.28,123.76V109.44h2.31l4.8,9.56v-9.56H88.6v14.32H86.21l-4.72-9.34v9.34Z"/><path d="M96.76,118.5v-2.42h5.1v5.7a6.22,6.22,0,0,1-2.18,1.57,6.87,6.87,0,0,1-2.85.65,5.52,5.52,0,0,1-3.06-.85,5.83,5.83,0,0,1-2.11-2.56,9.72,9.72,0,0,1-.77-4,9.51,9.51,0,0,1,.78-4,6,6,0,0,1,2-2.51,5.29,5.29,0,0,1,3-.83,5,5,0,0,1,3.36,1.06,5.12,5.12,0,0,1,1.63,3.14l-2.35.54a3.07,3.07,0,0,0-1-1.69,2.54,2.54,0,0,0-1.68-.58,3,3,0,0,0-2.45,1.17,5.68,5.68,0,0,0-.94,3.59,6.52,6.52,0,0,0,1,3.94,2.81,2.81,0,0,0,2.36,1.16,3.57,3.57,0,0,0,1.44-.33,4.25,4.25,0,0,0,1.33-.89V118.5Z"/><path d="M104.26,123.76V109.44H113v2.42h-6.35V115h5.9v2.41h-5.9v3.88h6.57v2.43Z"/><path d="M115.4,123.76V109.44h5a6.86,6.86,0,0,1,2.73.39,3,3,0,0,1,1.35,1.33,4.68,4.68,0,0,1,.53,2.28,4.27,4.27,0,0,1-.81,2.71,3.62,3.62,0,0,1-2.29,1.29,5.76,5.76,0,0,1,1.26,1.19,17.24,17.24,0,0,1,1.36,2.33l1.42,2.8h-2.82l-1.72-3.12a18.36,18.36,0,0,0-1.26-2.11,1.8,1.8,0,0,0-.7-.59,3.15,3.15,0,0,0-1.19-.16h-.49v6Zm2.36-8.27h1.76a8.51,8.51,0,0,0,2-.14,1.27,1.27,0,0,0,.71-.57,2,2,0,0,0,.28-1.14,1.91,1.91,0,0,0-.28-1.1,1.35,1.35,0,0,0-.74-.57,9.37,9.37,0,0,0-1.92-.11h-1.86Z"/><path d="M92.16,10.55c.08-1.13.32-2.35.48-3.48C93,5,93.51.22,93.57,0c0,.11-.1.22-.14.33a45.43,45.43,0,0,0-2,6.06c-.33,1.14-.57,2.19-.81,3.32a23.63,23.63,0,0,0-.49,3.16c.33.08,1.34.43,1.74.51Z"/><path d="M44.86,70.18c-2.43,3.64-6,6.31-8.74,8.26v.24l-1,3.4c2.67,7.93,3.72,11,4.13,12.22l.89-.24a.88.88,0,0,1,1,.57L41.87,97l1.78-.48c-1.22-1.78-3.73-5.83-4.45-9.47-.25-1.06-.41-1.7-.49-2.19A2.67,2.67,0,0,1,39,82.24a16.75,16.75,0,0,0,.89-1.62c0-.08.08-.08.08-.16a13.27,13.27,0,0,1,2.27-1.86c2.59-1.94,6.88-5.1,9.39-9.71a36.06,36.06,0,0,1-5.34-.65C45.51,69.29,44.94,70,44.86,70.18Z"/><path d="M23.68,57.71a11.28,11.28,0,0,0,.75,7.05,8.08,8.08,0,0,1,1-2.89,8,8,0,0,1-.75-1.28A13.72,13.72,0,0,1,23.68,57.71Z"/><path d="M70.43,90.42c.32,3.32.49,5.91.57,6.88l2.1-1c-.08-1-.16-3.57-.57-7a49.17,49.17,0,0,1,0-9.63v-.16a8.37,8.37,0,0,0,0-4.37V75a29.09,29.09,0,0,1,1.14-7.37,13.56,13.56,0,0,1-1.86.16,25.1,25.1,0,0,0-1.38,8.26,9.94,9.94,0,0,1,0,5.1A53.21,53.21,0,0,0,70.43,90.42Z"/><path d="M103.36,25.09c-.48-.24-1-.56-.64-1.05a1.24,1.24,0,0,1,.64-.48,29.94,29.94,0,0,0-5.26-4.13A3.29,3.29,0,0,1,97,18.13a1.29,1.29,0,0,0-.32-.56c-1.78-2.27-6.72-3.08-8.42-3.16h-.08V15a.73.73,0,0,0,.24.56A1.57,1.57,0,0,1,89,16a1.68,1.68,0,0,1-.89,0,1.46,1.46,0,0,1-.81-.89,2.09,2.09,0,0,1-.16-1,5.55,5.55,0,0,0-.16-1.7,3.85,3.85,0,0,0-.81-1.38c-.41-.32-.81-.73-1.3-1.05a22.46,22.46,0,0,0-3.07-1.78c-.24-.08-.57-.25-.81-.33s-.32-.08-.4-.16h-.09c0,.08-.08.16-.08.24-.08.33-.24.65-.32.89a6.29,6.29,0,0,0-.4,3.24,4.79,4.79,0,0,0,.4,1.54,7.18,7.18,0,0,0,1,1.3,4.24,4.24,0,0,0,2.83,1.29,2.41,2.41,0,0,1,1,.24.75.75,0,0,1,.41.33,7.38,7.38,0,0,1,.4.64,2.29,2.29,0,0,1-.08,1.95,11,11,0,0,0-.4-1.22,4.32,4.32,0,0,0-.16.89c0,.08-.09.17-.09.25-1,2.42-2.5,7.2-2.5,9.63a32.9,32.9,0,0,1-.57,5.58C81,38,79.82,40,78,40.63a25.24,25.24,0,0,1-10.85.49C45.67,36.34,35,43.63,34.26,44.44L26.9,52a6.67,6.67,0,0,0-1.22,7.53A56.51,56.51,0,0,0,30,66.29c.49.73,1.05,1.46,1.54,2.27a1.18,1.18,0,0,1,.16.49c0,1,.08,4.45.08,4.45a.72.72,0,0,1-.08.4A42.9,42.9,0,0,1,26,82.08c.72,2,2.75,7.69,4.2,11.49.65,1.78,1.14,2.92,1.38,3.65l.89-.25a.82.82,0,0,1,1,.49l.65,1.62,1.78-.65c-1.38-2.1-4.7-7.53-5.42-11.33-.25-1-.41-1.7-.49-2.19a2.67,2.67,0,0,1,.24-2.59,16.75,16.75,0,0,0,.89-1.62c0-.08.08-.08.08-.16a10.73,10.73,0,0,1,2.68-2.1c2.75-1.86,7-4.78,9.79-8.83v-.08a43.2,43.2,0,0,0,3.88-6.23,10.54,10.54,0,0,0,1.21-3.89v-.16a6,6,0,0,0,0-1.7,6.87,6.87,0,0,0-.24-1.78,13.83,13.83,0,0,0-1.21-3.48,14,14,0,0,1,2,3.16A6.81,6.81,0,0,1,50,57.23a7.66,7.66,0,0,1,.48,1.94v.16a10.51,10.51,0,0,1-1.37,4.54A29.19,29.19,0,0,1,47.45,67c2.35.41,9.55,1.14,14.89-.24v-.24a5.8,5.8,0,0,0-.57-2.35c0-.08-.08-.08-.08-.16-.24-.65-.48-1.22-.65-1.86a12.85,12.85,0,0,1-.4-1.87,15.1,15.1,0,0,1,0-3.8,13.15,13.15,0,0,0,.81,3.56c.24.57.48,1.14.73,1.62a8.25,8.25,0,0,0,.89,1.46c0,.08.08.16.08.24a.08.08,0,0,1,.08.08A9.71,9.71,0,0,1,64,66.38v.16c.16,3.15.56,9.79,2.1,13.11a7.19,7.19,0,0,1,.65,3.48c-.16,3.08-.65,9.15-.81,11.42h.4a.78.78,0,0,1,.81.64l.57,3.4,1.78-1c-.08-1-.16-3.56-.57-7A53.4,53.4,0,0,1,69,81v-.16a7.53,7.53,0,0,0,0-4.38v-.16c0-.22,0-.5,0-.8,0-2.89,1-8.76,3-11.18v-.08c0-.08.08-.08.08-.16a8,8,0,0,1,1.37-1.46,10.9,10.9,0,0,1,1.54-1.13,13,13,0,0,1,3.4-1.7,11.64,11.64,0,0,0-2.91,2.27,9.42,9.42,0,0,0-1.14,1.37,7.7,7.7,0,0,0-1,1.46l-.16.16a.25.25,0,0,1-.08.16c-.16.25-.32.49-.49.81a12.16,12.16,0,0,0,6.72-2.26,4.55,4.55,0,0,0,1.29-1.22C83.38,58.85,89.2,48,90.82,44.28c1.54-3.56.65-13,.41-15a2.55,2.55,0,0,1-.49-.16c-.08,0-.08-.08-.16-.08L89,28.41l-.4-.16a.42.42,0,0,1-.25-.08c-.08,0-.16-.08-.24-.16a1.47,1.47,0,0,1-.4-.57l-.17-.4-1-3.48,1.7,3.15.24.41a.18.18,0,0,0,.17.16c0,.08,0,.08.08.08h.16l.48.08,2,.16c.08,0,.16.08.24.08a10,10,0,0,0,4.21.33,4.75,4.75,0,0,1,2.34.32,6.78,6.78,0,0,0,2.59.41h.08c.25,0,.65-.17,1.38-1.06-.4-.08-.73-.08-1.13-.16l-1-.24-.57-.16c-.24-.08-.41-.08-.57-.25a1.41,1.41,0,0,1,.57-.08h.57a5.33,5.33,0,0,1,1.13-.08c.73,0,1.45.08,2.18.08a.28.28,0,0,0,.16.08h.57c.08,0,.08-.08.16-.16l.33-.4C104.17,26,103.69,25.26,103.36,25.09Zm-7-2.75L96,22.18l-.65-.24-1.21-.57c-.33-.16-.73-.32-1-.49a1.62,1.62,0,0,1-1.38.33,1.81,1.81,0,1,1,.65-3.56,1.74,1.74,0,0,1,1.45,2c.33.24.57.49.89.73l1,.89.48.4.24.25c.09.08.17.08.25.48C96.49,22.5,96.4,22.34,96.32,22.34Z"/><path d="M70.15,98.88s-.05-.08-.05-.08,0-.09,0-.17l-.86.17-.91.33-.74.49a0,0,0,0,0,0,0c0,.08,0,.17,0,.21l.74,1.32a.46.46,0,0,0,.38.2h1.73a.54.54,0,0,0,.33-.16.41.41,0,0,0,0-.37Z"/><path d="M44.12,97.22a.14.14,0,0,0,0-.08s0-.08,0-.17l-.87.17-.91.33-.74.49a0,0,0,0,0,0,0c0,.09,0,.17,0,.21l.74,1.32a.43.43,0,0,0,.37.21h1.73a.53.53,0,0,0,.33-.17.41.41,0,0,0,0-.37Z"/><path d="M36.46,99.33a.14.14,0,0,0,0-.09s0-.08,0-.16l-.86.16-.91.33-.74.5a0,0,0,0,0,0,0,.3.3,0,0,0,0,.2l.74,1.32a.42.42,0,0,0,.37.21h1.73a.47.47,0,0,0,.33-.17.41.41,0,0,0,0-.37Z"/><path d="M73.47,97.5a.19.19,0,0,0,0-.09s0-.08,0-.16l-.87.16-.9.33-.75.5a0,0,0,0,0,0,0c0,.08,0,.17,0,.21l.74,1.32a.42.42,0,0,0,.37.2H73.8a.52.52,0,0,0,.33-.16.41.41,0,0,0,0-.37Z"/></svg>