<svg id="Layer_1" data-name="Layer 1" xmlns="http://www.w3.org/2000/svg" width="128" height="128" viewBox="0 0 128 128"><title>Artboard 61</title><path d="M25,123.76v-14.2h2.36v11.77h5.9v2.43Z"/><path d="M35.12,123.76V109.44h8.71v2.42H37.48V115h5.9v2.41h-5.9v3.88H44v2.43Z"/><path d="M45.77,116.69a10.29,10.29,0,0,1,.75-4.22,5.77,5.77,0,0,1,2-2.46,5.17,5.17,0,0,1,3-.81,5.09,5.09,0,0,1,4.11,1.92,8.38,8.38,0,0,1,1.58,5.48,8.52,8.52,0,0,1-1.68,5.61,5.41,5.41,0,0,1-8,0A8.41,8.41,0,0,1,45.77,116.69Zm2.44-.1a6,6,0,0,0,.94,3.7,2.81,2.81,0,0,0,2.33,1.24,2.77,2.77,0,0,0,2.31-1.23,8.1,8.1,0,0,0,0-7.44,2.79,2.79,0,0,0-2.34-1.19,2.83,2.83,0,0,0-2.36,1.2A6.14,6.14,0,0,0,48.21,116.59Z"/><path d="M59.21,123.76V109.44H63a12.05,12.05,0,0,1,2.78.2,3.24,3.24,0,0,1,1.73,1.42,5.19,5.19,0,0,1,.67,2.79,5.3,5.3,0,0,1-.58,2.61,3.36,3.36,0,0,1-1.47,1.47,7.59,7.59,0,0,1-3,.43H61.57v5.4Zm2.36-11.9v4.07h1.31a5.9,5.9,0,0,0,1.8-.18,1.63,1.63,0,0,0,.78-.67,2.24,2.24,0,0,0,.3-1.19,2.2,2.2,0,0,0-.31-1.21,1.59,1.59,0,0,0-.77-.65,7.11,7.11,0,0,0-2-.17Z"/><path d="M79.74,123.76H77.17l-1-3.25h-4.7l-1,3.25H68l4.58-14.32H75Zm-4.36-5.67-1.62-5.31-1.59,5.31Z"/><path d="M81.19,123.76V109.44h5a6.91,6.91,0,0,1,2.74.39,3,3,0,0,1,1.34,1.33,4.58,4.58,0,0,1,.53,2.28,4.32,4.32,0,0,1-.8,2.71,3.62,3.62,0,0,1-2.29,1.29A6.25,6.25,0,0,1,89,118.63,17.46,17.46,0,0,1,90.31,121l1.43,2.8H88.91l-1.71-3.12a20,20,0,0,0-1.26-2.11,1.82,1.82,0,0,0-.71-.59,3.12,3.12,0,0,0-1.19-.16h-.48v6Zm2.37-8.27h1.75a8.45,8.45,0,0,0,2-.14,1.29,1.29,0,0,0,.72-.57,2.14,2.14,0,0,0,.27-1.14,2,2,0,0,0-.27-1.1,1.37,1.37,0,0,0-.75-.57,9.37,9.37,0,0,0-1.92-.11H83.56Z"/><path d="M93.21,109.44h4.32a6.28,6.28,0,0,1,2.47.37,4.07,4.07,0,0,1,1.54,1.23,6.2,6.2,0,0,1,1.1,2.26,12.45,12.45,0,0,1,.4,3.44,11.05,11.05,0,0,1-.42,3.23,6.36,6.36,0,0,1-1.06,2.17,4.07,4.07,0,0,1-1.56,1.21,5.78,5.78,0,0,1-2.34.41H93.21Zm2.36,2.42v9.47h1.78a4.69,4.69,0,0,0,1.65-.21,1.88,1.88,0,0,0,.84-.65,3.82,3.82,0,0,0,.55-1.37,11.69,11.69,0,0,0,.21-2.47,11.12,11.12,0,0,0-.22-2.51,3.33,3.33,0,0,0-.68-1.44,2.19,2.19,0,0,0-1.13-.69,8.87,8.87,0,0,0-1.92-.13Z"/><path d="M6.19,55.59c-.46-.13-.82-.23-1-.29a6.67,6.67,0,0,1-.15-1.19,1,1,0,0,1,.32-.68A1.9,1.9,0,0,1,7.69,54l.16.22c0-.43.06-.84.08-1.26a9.54,9.54,0,0,1,.33-2,3,3,0,0,1,1.1-1.7,8.27,8.27,0,0,1,3.93-.61,3.67,3.67,0,0,0,1.82-.26,1.38,1.38,0,0,0,.45-1.52,2.44,2.44,0,0,0-1.18-1.28,5.4,5.4,0,0,0-1.76-.6,8.51,8.51,0,0,0-3.75.24,5.68,5.68,0,0,0-3.07,2,4.73,4.73,0,0,0-.32.46,2,2,0,0,1,1.66,1.48A18.56,18.56,0,0,1,7.38,51a10.47,10.47,0,0,0-2.27.67,1.52,1.52,0,0,1-.94.19,22.6,22.6,0,0,0,0,4.58c.47-.15,1-.28,1.44-.45A2.92,2.92,0,0,0,6.19,55.59Z"/><path d="M23.49,67.73c0,.06-.06.11,0,.17s.07.27.17.33a.37.37,0,0,0,.37,0c.28-.31.55-.65.8-1,0,0-.07-.2-.14-.26a.78.78,0,0,1-.22-.9l-.26.24a5.19,5.19,0,0,1-1,.64A.73.73,0,0,1,23.49,67.73Z"/><path d="M16.32,70.39a.72.72,0,0,0-.08-.51,1.34,1.34,0,0,1,0-1.58,8.05,8.05,0,0,1-3.55-1.19,7.93,7.93,0,0,1-2.69-3,15,15,0,0,1-.67-1.41c-.52.43-1.19.37-1.76.65a2.48,2.48,0,0,1-1.22.35,1.18,1.18,0,0,1-.83-.62c-.21-.59.18-1,.63-1.12.69-.26,1.41-.45,2.12-.69A2.3,2.3,0,0,0,8.7,61h0l0-.19-.76-.22a6.1,6.1,0,0,1-.16-1.19,1,1,0,0,1,.33-.69l.09,0c-.1-.57-.19-1.14-.27-1.74,0-.23,0-.46-.06-.7a4.32,4.32,0,0,0-.92.89c-.55.75-1.37.6-2,.94a3.76,3.76,0,0,1-.55.23v0a24.94,24.94,0,0,0,2,7.43A11.91,11.91,0,0,0,11.69,71a9.63,9.63,0,0,0,1.36.59,1.39,1.39,0,0,1,.06-.13c.36-.73,1-.82,1.37-.11a4.78,4.78,0,0,1,.35.76l.43.08a9.51,9.51,0,0,0,1.5.14C16.83,71.62,16.05,71.14,16.32,70.39Zm-5.43-3.63c-.16.3-.42.54-.59.84a7,7,0,0,0-.32.92,1.81,1.81,0,0,1-.72-2.79,3.51,3.51,0,0,1,.83-.75.51.51,0,0,1,.45.18,4.35,4.35,0,0,1,.4,1A1,1,0,0,1,10.89,66.76Z"/><path d="M28.92,68a1.07,1.07,0,0,1-.66-1.28c0-.26.12-.58.37-.54s.31.26.39.46a.41.41,0,0,0,.56.23,1.06,1.06,0,0,1,.39-.09l0,.06.38-.35a.27.27,0,0,0,.08-.07,1.06,1.06,0,0,1,.15-.15l0,0a.72.72,0,0,1-.25-.12.35.35,0,0,1-.15-.47,1.27,1.27,0,0,0-.09-.73,1.79,1.79,0,0,1-.08-1.05c.12-.5.45-.61.75-.21a7.15,7.15,0,0,1,.63,1.07,3.06,3.06,0,0,1,.15.54l-.05,0s0,0,0,.06l.35-.29a1.65,1.65,0,0,1,0-.32l.18-1.47-.17,0a.22.22,0,0,1-.24-.25c0-.2,0-.41,0-.62a.17.17,0,0,1,.07-.13.44.44,0,0,1,.44,0c0-.18,0-.36.05-.54.06-.47.12-1,.17-1.44l-.3,0A.22.22,0,0,1,31.9,60c0-.21,0-.41,0-.63a.16.16,0,0,1,.08-.12.46.46,0,0,1,.57.12c0-.36.09-.73.16-1.1a.92.92,0,0,1-.33-.1c-.33-.22-.73-.41-.52-1.1.24-.32.57-.8.95-1.23,0-.05.24,0,.38,0a.83.83,0,0,1,0-.15,27,27,0,0,1,1.82-4.4c-1.64,2.33-3.2,4.72-4.78,7.12h0c.42,0,.45.36.41.78s0,.58,0,.86-.16.33-.23.33a2.76,2.76,0,0,1-.91-.16c-.1,0-.19-.23-.22-.38h0l-.16.26c-.42.6-.83,1.21-1.27,1.82a1.52,1.52,0,0,1,.37.3,3,3,0,0,1,.61.94c.05.08-.12.36-.24.41a4.19,4.19,0,0,1-1.05.23.88.88,0,0,1-.59-.15,2.09,2.09,0,0,1-.22-.2,19.12,19.12,0,0,1-1.72,2,.49.49,0,0,1,.18-.08.77.77,0,0,1,.81.35,3.11,3.11,0,0,1,.34.8c-.17.18-.29.31-.41.46s-.13.08-.15.13c-.14.33-.23.69-.38,1a1.64,1.64,0,0,1-.38.55,4.91,4.91,0,0,1-1,.81,1.27,1.27,0,0,1-.9.07,2.29,2.29,0,0,1-.82-.6c-.09-.08,0-.37.05-.52a.33.33,0,0,0,0-.42c-.24-.34.16-.5.24-.76a.36.36,0,0,1,0-.09c-.67.27-1.38.47-2.11.71a9.4,9.4,0,0,1-3.19.48,1.33,1.33,0,0,1-.07.29,1.27,1.27,0,0,0-.05.34c0,.22,0,.44,0,.66,0,.44.16.59.6.34.07.22.11.39.16.6.24-.14.45-.27.73-.42a2.17,2.17,0,0,1-.15,1.87,1,1,0,0,1-.19.21l.71,0a14.85,14.85,0,0,0,7.2-2.2A17.15,17.15,0,0,0,28.92,68Zm-2.63-2c.07-1.21.62-1.71,1.51-1.42.2.06.38.35.47.57s-.14.33-.27.45a7.39,7.39,0,0,1-.94.73.64.64,0,0,1-.52.09A.92.92,0,0,1,26.29,66Z"/><path d="M55.32,91.74c.65-2,1.09-4.13,1.6-6.23l.74-3.16c.13-.53.25-1,.41-1.59s.36-1,.56-1.53c.76-1.94,1.61-3.82,2.45-5.7L59.18,73c-2.83-1-5-1.49-7.83-2.59,0,0-3.64,5-4,5.2.43,1.87-.07,2.53.16,4.42s.39,3.8.52,5.71c.06,1,.14,1.92.15,2.88,0,.48,0,1,0,1.45,0,.25,0,.48,0,.74l-.1.72a34.51,34.51,0,0,0-.09,5,1.75,1.75,0,0,0,.43,1.11c.61.72,1.55,1.77,2.15,2.43a1.81,1.81,0,0,0,1.37.58l1.31,0,6.67-.12a2.2,2.2,0,0,0-.41-.86,2.77,2.77,0,0,0-1-.78,5.37,5.37,0,0,0-1.33-.39,11,11,0,0,0-1.41-.11h-.18l-.1-.13a4.34,4.34,0,0,1-.9-1.56,5.81,5.81,0,0,1-.31-1.72,2.88,2.88,0,0,1,.51-1.82A5.46,5.46,0,0,0,55.32,91.74Zm-.59-13.16c.36-.1.7-.18.78.41a7,7,0,0,0,.45,1.2c.13.4-.12.55-.45.58a1.52,1.52,0,0,1-1.3-1.22C54.21,79.14,54.23,78.72,54.73,78.58Zm-4.21,8.91a1.15,1.15,0,0,1,1.1-.77,1.38,1.38,0,0,1,1,.32,1,1,0,0,1,.18.78c0,.16-.25.3-.36.4-.48-.17-.58,0-.7.31-.25.57-1,.74-1.2.26A2.31,2.31,0,0,1,50.52,87.49Zm-.37-3.31A1.28,1.28,0,0,1,50.2,83c.34-.43.66-.51.95-.3.81.57.27,1.33.18,2.07-.2,0-.4.15-.54.07A1.33,1.33,0,0,1,50.15,84.18Zm1.22-11.07c.14-.55.44-.66.69-.23a7,7,0,0,1,.5,1.18,2,2,0,0,1,.07.51h0c0,.08,0,.16,0,.24,0,.49,0,.53-.36.64a.66.66,0,0,1-.74-.11.39.39,0,0,1-.1-.46,1.33,1.33,0,0,0,0-.74A2.15,2.15,0,0,1,51.37,73.11Zm-1.18.22a1.76,1.76,0,0,1,.43-.43c.05,0,.21,0,.24.11a4,4,0,0,1,.16.7.8.8,0,0,1-.05.38c-.1.2-.25.35-.34.54a4.79,4.79,0,0,0-.22.67A1.49,1.49,0,0,1,50.19,73.33Zm-.53,2.22c.06-.13.23-.29.3-.26a.6.6,0,0,1,.29.39c.1.38.25.48.52.34.1,0,.23,0,.36,0l.47-.43c0,.24,0,.38,0,.52,0,.3-.05.61,0,.91s-.16.32-.29.31c-.31,0-.61-.09-.92-.12C49.55,77.14,49.36,76.23,49.66,75.55Zm1.55,20.36A1.32,1.32,0,0,1,50,97a1.19,1.19,0,0,1-1-1,5.83,5.83,0,0,1-.21-1.37c0-.22.25-.43.4-.65.19.14.48.25.55.43.14.37.4.41.71.47C51.29,95.05,51.29,95.05,51.21,95.91Zm2.19-4.43a3.8,3.8,0,0,1-1.58,1.6A4.85,4.85,0,0,1,51.26,92a1.28,1.28,0,0,1,.22-.8,4.42,4.42,0,0,1,.52-.64c.41-.56.76-.65,1.29-.31C53.65,90.48,53.66,90.91,53.4,91.48ZM54.07,86a.6.6,0,0,1-.22-.48c0-.49.11-1,.18-1.52.27.12.41.24.52.22.67-.13.7.27.67.76,0,.29,0,.58,0,.86,0,.12-.15.33-.23.33A2.77,2.77,0,0,1,54.07,86Z"/><path d="M123.77,42.82c-.32-.38-.62-.77-.93-1.16a19.09,19.09,0,0,1-1.5-2,21.29,21.29,0,0,1-1-2.29c-.16-.38-.29-.77-.46-1.13a2.25,2.25,0,0,0-.24-.47,2.46,2.46,0,0,0-.35-.39,23.86,23.86,0,0,0-4.06-2.56A23.35,23.35,0,0,0,111.15,31a.59.59,0,0,1,0,.13c.4.66.78,1.33,1.12,2l-.07.06c-.6-.56-1.15-1.16-1.68-1.76l0,0-.25-.88a11.16,11.16,0,0,0-.6-1.88c-.29-.53-.66-1-1.06-1a1.5,1.5,0,0,0-1.39.84,5.26,5.26,0,0,0-.48,1.83c-.15,1.32.6,3.47.54,4.82a9.85,9.85,0,0,1-.34,2,4.28,4.28,0,0,1-.64,1.39c.17.11.31.28.3.39-.08.78-.25,1.11-.56,1.08s-.71-.66-.67-1a.81.81,0,0,1,.63-.54c1-4.06,0-7.55-.27-7.5l-.34,0a4.61,4.61,0,0,1-.24.77c0,.05-.38,0-.53-.1a1.49,1.49,0,0,1-.5-.43l-.17,0a5.88,5.88,0,0,0-1.56.67c.54-.05.57.32.53.77,0,.29,0,.58,0,.86s-.16.33-.23.33a2.76,2.76,0,0,1-.91-.16.58.58,0,0,1-.23-.49q0-.39.09-.81a16.59,16.59,0,0,0-2.79,2.76,1.75,1.75,0,0,1,1.65.54,3,3,0,0,1,.61.94c0,.08-.12.36-.24.41a4.29,4.29,0,0,1-1,.23.88.88,0,0,1-.58-.14c-.27-.2-.47-.51-.74-.71a3.07,3.07,0,0,0-.43-.26l-.68.92c-.59.79-1.2,1.56-1.85,2.3.14.1.53,0,.46.33,0,0,.28.13.43.16.72.14.76.18.73.77a2.2,2.2,0,0,1-2.37-.45c-.16.16-.3.33-.46.49a5.7,5.7,0,0,1-.91.71,1.73,1.73,0,0,1,1,0c.17,0,.33.28.39.45s-.12.24-.24.32a7.55,7.55,0,0,1-1,.59c-.41.18-.7,0-.71-.35a1.36,1.36,0,0,1,.36-.84l-.17.11c-.62.33-1.24.62-1.86.91-.18.46-.46.67-.85.62a.87.87,0,0,1-.26-.08c-.3.16-.6.32-.89.5a.76.76,0,0,0,.85.08c.29.15.52.25.81.39l-.38.91-.52-.18c-.64.31-1,.93-1.92.91a1.37,1.37,0,0,1-.24-.88l0,.06h-.16l-1,0,.31.81c.13.32.29.64.39,1a.75.75,0,0,1,0,.57c-.07.12-.39.13-.59.2s-.52.13-.6.26a1.45,1.45,0,0,1-1.89,0,.52.52,0,0,1,.22-.78,5.77,5.77,0,0,1,.58-.23l.35-1,0,0c-.2-.47.13-.61.52-.75-1.48,0-2.93-.11-4.4-.21q-3-.23-6-.59c-2-.3-4-.4-6-.57-.16.35-.28.78-1,.69-.35-.19-.88-.44-1.36-.75a.15.15,0,0,1,0-.1c-1.2-.08-2.4-.17-3.61-.24-2-.11-4-.22-6-.26a22.47,22.47,0,0,0-3,.08c-1,.09-2,.2-3,.31q-3,.33-6,.82c-1,.18-2,.37-2.93.61a7,7,0,0,0-2.62,1.06,17.46,17.46,0,0,0-3.59,4.65,29.4,29.4,0,0,0-2.5,5.41,39.88,39.88,0,0,0-1,5.91c-.13,1-.25,2-.41,3a15,15,0,0,1-.68,3l-.09.2.21.83c.08.29.17.57.23.87a.87.87,0,0,1,0,.48.34.34,0,0,1-.31.18c-.22,0-.33.06-.42.28s-.44.25-.64.27-.19-.09-.28-.21c-.41.87-.83,1.73-1.25,2.59-.9,1.81-1.82,3.62-2.89,5.34a29.68,29.68,0,0,0-2.85,5.3l-1.24,2.75c-.2.46-.42.92-.64,1.38-.12.25-.23.49-.36.73a2.69,2.69,0,0,0-.35,1.32c0,.56,0,1.12.06,1.69l.13,2.5.29,4.62a1.25,1.25,0,0,0,.19.56l1.71,2.61a1.13,1.13,0,0,0,1,.52l6.45,0a7.37,7.37,0,0,0-1-1.41,3.4,3.4,0,0,0-2.09-.53l-.32,0-.09-.3a14,14,0,0,1-.59-2.79c-.08-.9-.1-1.79-.1-2.69l.12-.12c1.88-1.59,3.75-3.2,5.59-4.84a64.36,64.36,0,0,0,5.34-5.09c1.61-1.87,3.22-3.76,4.88-5.58.83-.91,1.67-1.83,2.53-2.72a24.37,24.37,0,0,1,2.43-2.33,38.58,38.58,0,0,1,3.09-3.78l1.58-4c.53-1.36,1.09-2.72,1.64-4.09l.08,0a27.65,27.65,0,0,1-1.32,7.23c2.94.61,4.94,1.67,7.76,2.67,1.47.56,2.9,1.19,4.34,1.81s2.81,1.17,4.19,1.81a1.55,1.55,0,0,1,.3-.5,2.09,2.09,0,0,1,.57-.4.38.38,0,0,1,.33.11,2.8,2.8,0,0,1,.23.69.5.5,0,0,1,0,.36,2.53,2.53,0,0,1-.22.26l.86.34a1.2,1.2,0,0,0-.08-.53,1.5,1.5,0,0,1,0-1c.17-.53.58-.63.93-.21a7.25,7.25,0,0,1,.72,1.16,1.94,1.94,0,0,1,.1.49h0a1.92,1.92,0,0,0,0,.24.72.72,0,0,1,0,.39,21.1,21.1,0,0,0,4.25.92c.08-.23.16-.48.23-.71s-.06-.19-.06-.29c0-.26-.08-.52.37-.49.21,0,.43-.18.81-.36.13.44.26.87.4,1.3.07.22.16.44.23.67A19.48,19.48,0,0,0,82.19,78a20.53,20.53,0,0,0,3.91-1.21,6.51,6.51,0,0,0-.49-1.54l-.25-.09-.29-.56.21-.21c-.09-.27-.18-.53-.24-.73s-.05-.24-.08-.37l-.37.39-.21-.41c-.28.3-.74.2-1.07.27s-.64-.39-.75-.68.12-.62.3-.87.41-.2.56-.27c.16-.49.32-1,.46-1.43,0-.08-.06-.19-.06-.29a.61.61,0,0,1,0-.14c-.1-.22-.19-.44-.29-.65a1.62,1.62,0,0,1,1.36-2.52.9.9,0,0,1,.55.22c0-.33,0-.67,0-1s0-.85,0-1.27a.7.7,0,0,1-.92-.28,6,6,0,0,1-.58.56.8.8,0,0,1-.5.16c-.42-.08-.84-.17-1.25-.28a1.71,1.71,0,0,1-1,1.19,5.63,5.63,0,0,0-.76.55c-.31.19-.64.35-1.06.58-.11-.63-.38-1.19-.06-1.78a.26.26,0,0,1,.19-.15c.29,0,.59,0,.88.07.08,0,.19,0,.22,0,.22-.26.59-.39.81-.64-.1,0-.23-.18-.23-.27a.59.59,0,0,0,0-.2.86.86,0,0,1-.14.13,4.73,4.73,0,0,1-.71.45.53.53,0,0,1-.42,0c-.11-.08-.14-.27-.16-.33.15-.73.39-1,.94-1l-.2-.21a2.55,2.55,0,0,1-.4-1c0-.08.37-.23.65-.39a2.53,2.53,0,0,0,.06-.62,1,1,0,0,1,.13-.74.52.52,0,0,1-.18-.1.66.66,0,0,1-.14-.47,3.43,3.43,0,0,1,.24-.67c-.41-.09-.77-.18-1.13-.24s-.63-.37-.36-.74a2.32,2.32,0,0,1,.4-.52.69.69,0,0,1,.84.06,5.41,5.41,0,0,1,.65.51.27.27,0,0,1,.09.23c-.13.38.17.56.37.77a.66.66,0,0,1,.17.48,2.59,2.59,0,0,1,1,.1,2.15,2.15,0,0,1,0,.77,2.31,2.31,0,0,1-.23.67c-.17.34-.36.65-.15,1,0,.07-.07.22-.16.45a1.29,1.29,0,0,1,1.41.42c.07.09.45-.06.69-.1a3.06,3.06,0,0,0-.2-.58,1.27,1.27,0,0,0-.27-.29c.23-.53.42-1,.67-1.49.08-.14.39-.31.49-.26a7.91,7.91,0,0,1,.68.44,22,22,0,0,1,1.25-4.91l.08,0A16.85,16.85,0,0,0,86.42,61v.31l.09.06c.53.3.15.84.39,1.23s0,.81-.4,1.1l-.1.09c0,.75,0,1.5,0,2.25v.24a1.79,1.79,0,0,1,1.66-.5,2.84,2.84,0,0,1,.94.37.49.49,0,0,1,.11.49,4.56,4.56,0,0,1-.74.85.78.78,0,0,1-.5.21c-.48,0-1,0-1.45-.07,0,.32,0,.64,0,1s0,.8-.1,1.21l.35.17-.41.25c-.08.34-.19.7-.26.94A6.6,6.6,0,0,0,86,74c.54-.24,1.13-.37,1.64-.66a2.32,2.32,0,0,1,1-.15.32.32,0,0,1,.28.15.47.47,0,0,1,0,.37,2.25,2.25,0,0,1-.45.35.68.68,0,0,0,0,1.21c0,.3-.07.59-.11.94l-1.23.21v-.6l-.72-.27c.05.15.09.29.14.43l0,0,0,0a34.11,34.11,0,0,1,1.63,5.11c.47,1.72.85,3.46,1.22,5.21s.73,3.49,1,5.25c0,.22.07.43.11.65l.1,0c1.15.58.38,1.34.25,2.08h0c.13.84.25,1.68.38,2.52.29,1,.58,2,.88,3a1.52,1.52,0,0,0,.43.66c.74.66,1.48,1.31,2.24,2a1.4,1.4,0,0,0,1,.34c2.71,0,5.43-.13,8.14-.19a3.73,3.73,0,0,0-.6-.83,4.59,4.59,0,0,0-1.23-.9,6.79,6.79,0,0,0-1.48-.5c-.25-.05-.52-.08-.77-.12l-.81,0h-.36l0-.35c-.33-1.92-.62-3.84-.9-5.77s-.58-3.85-.83-5.77-.52-3.86-.75-5.8c-.12-1-.25-2-.32-3.08a1.78,1.78,0,0,1-.53.31,2,2,0,0,1-.27-3c.19-.24.8-.16,1.21-.15.06,0,.16.18.2.34q.51-.27,1-.57c.24-.17.47-.36.7-.53s.43-.37.59-.53c.46-.88,1-1.74,1.5-2.58s1-1.73,1.52-2.63c.39-.71.77-1.43,1.14-2.15l-.49.34c-.14.09-.41.16-.51.09s-.22-.36-.26-.43c.07-1.21.63-1.69,1.52-1.41a.69.69,0,0,1,.3.27c.19-.4.38-.81.56-1.22l0,0a4.27,4.27,0,0,1-1.06.23.9.9,0,0,1-.58-.14c-.27-.2-.46-.51-.73-.71a5.72,5.72,0,0,0-.86-.47,1.81,1.81,0,0,1,2.86-.26,3.06,3.06,0,0,1,.58.88c.07-.16.15-.32.21-.49l.09,0a42.71,42.71,0,0,1-2.22,5.69l-1.33,2.75a20.12,20.12,0,0,1-1.53,2.66l0,.06h0a4.84,4.84,0,0,1-.8.59,6.08,6.08,0,0,1-.68.33c.6.06,1.34-.59,1.8.35-.2.4-.42.81-.64,1.23a.67.67,0,0,1,.13.35,7.09,7.09,0,0,0,.45,1.21c.13.39-.12.54-.45.57a1.5,1.5,0,0,1-1.18-.81l-.13,0a14.45,14.45,0,0,0-1.49.16,2.58,2.58,0,0,1,1-2.89,7.21,7.21,0,0,1-1,.28,4.74,4.74,0,0,1-.42.3s0,.08,0,.12.13.27,0,.38c.13,1.47.43,2.92.68,4.38.36,1.91.68,3.83,1,5.74s.63,3.84.93,5.76.56,3.62.81,5.43l.49.05q.45.06.87.15a6.7,6.7,0,0,1,1.67.61c.19.1,1,.82,1.17.94,2.92-.13,4.24.09,7.17,0a8.22,8.22,0,0,0-1.56-1.62,9.1,9.1,0,0,0-1.86-.53,8,8,0,0,0-2.39-.33h-.23l-.13-.17a27.89,27.89,0,0,1-1.91-2.69,10.71,10.71,0,0,1-1.41-3.08,5.66,5.66,0,0,1,0-1.75q.09-.81.24-1.62c.18-1.08.4-2.15.65-3.21A52.66,52.66,0,0,1,104,79.88a12.57,12.57,0,0,1,.68-1.5c.29-.5.61-.9.87-1.37.52-1,1-1.93,1.43-2.91.56-1.25,1.06-2.53,1.54-3.82a1.28,1.28,0,0,1-.79.53,1.52,1.52,0,0,1-.07-1.14c0-.12,0-.29,0-.42.06-.35.13-.7.21-1a.21.21,0,0,1,.17-.1.26.26,0,0,1,.17.14,2.32,2.32,0,0,1,.06.38c0,.41.34.56.61.36l.08.06.19-.52-.1,0c-.29,0-.7-.66-.67-1a.84.84,0,0,1,.69-.55.85.85,0,0,1,.5.37c.27-.77.53-1.54.74-2.31a8.63,8.63,0,0,0,.22-3.1c-.15-2.12-.49-4.29-.54-6.47a13.42,13.42,0,0,1,.81-5.69l-3.71-2.07L105.7,42.8c.2.44,1.78,4,2,4.15s2.61.89,4.32,1.44h0a6,6,0,0,1,2.13-.74,3.41,3.41,0,0,1,1.7.1,2.42,2.42,0,0,1,.8.44c.23.25.33.47.5.67a5.21,5.21,0,0,0,1.1,1.1,1.17,1.17,0,0,0,.3.13l.31,0,.75-.23.75-.22a1,1,0,0,0,.3-.38,5.31,5.31,0,0,0,.39-1c-.61-.24-1.21-.51-1.8-.79s-1.43-.74-2.13-1.18l0-.08a23.18,23.18,0,0,1,2.36.57c.59.18,1.17.37,1.74.58.46-.67.91-1.34,1.38-2s.76-1,1.15-1.52A.79.79,0,0,0,123.77,42.82ZM22,89.1a2.29,2.29,0,0,1,.56-.51.35.35,0,0,1,.3.12,3.36,3.36,0,0,1,.28.68.64.64,0,0,1,0,.41c-.1.2-.28.36-.39.57a3.09,3.09,0,0,0-.22.63A1.24,1.24,0,0,1,22,89.1Zm1.56,7.65a1.53,1.53,0,0,1-1.3-1.22c0-.41,0-.83.53-1s.7-.18.78.4A8.41,8.41,0,0,0,24,96.18C24.16,96.57,23.91,96.72,23.57,96.75ZM81,66.73c1,.2,1.08.45.67,1.4L81,66.74ZM77.22,53.56a8.33,8.33,0,0,0,.35,1.26c.3.66-.14,1.27-.06,1.92,0,.27-.22.33-.45.31s-.41-.28-.41-.52c0-.4.08-.81.11-1.21a4.89,4.89,0,0,0,0-.49l-.34.47a2.87,2.87,0,0,1-.57-.19.57.57,0,0,1-.26-.34,1.07,1.07,0,0,1,.77-1.06A6.86,6.86,0,0,1,77.22,53.56ZM74.63,57a.31.31,0,0,0,0-.26c-.42-.58-.17-1.08.18-1.57.63,0,.76.18.61.61a.92.92,0,0,0,0,.29c0,.16,0,.32,0,.49s.14.4.45.22c0,.14.09.27.14.44l.5-.28a1.39,1.39,0,0,1-.05,1.38c-.36.44-.89.21-1.41.25C75.11,58,74.4,57.57,74.63,57Zm-.15,5.28a1.27,1.27,0,0,1-1-1c0-.34.09-.64.48-.74s.6-.06.63.4a6.7,6.7,0,0,0,.28.94C75,62.13,74.75,62.23,74.48,62.24Zm.4-15.93c0-.07.05-.13.07-.19a.84.84,0,0,1,.75-.6c.31,0,.44.14.35.47a2.42,2.42,0,0,1-.63,1.15C74.64,47,74.52,46.93,74.88,46.31Zm-1.47-.4a1.39,1.39,0,0,1,.71-.39c.36-.08.62,0,.51.33a.55.55,0,0,1-.19.18c-.25.08-.33.19-.35.37a.59.59,0,0,1-.4.49c-.27.11-.42.06-.48-.1a.3.3,0,0,0-.12-.13C73,46.51,73.22,46.09,73.41,45.91Zm-.25,1.68c.14,0,.34-.07.42,0,.23.14.5,0,.76-.15s.42-.14.51.1,0,.57-.37.88l-.11.08a1,1,0,0,1-1-.06A1.54,1.54,0,0,1,73,48C73,47.91,73.11,47.73,73.16,47.59Zm-4.9-.48a1.53,1.53,0,0,1,.59,1,8.62,8.62,0,0,0,.47,1.25,9.46,9.46,0,0,1,.27,1.13c-.74-.08-1.46,0-2-.51a.32.32,0,0,1-.1-.25c.11-.32.26-.63.38-.94,0-.08.06-.19,0-.24-.36-.44-.22-1.21-1-1.37-.06,0-.1-.15-.15-.22C67.21,46.52,67.57,46.55,68.26,47.11Zm-2.56.19c.33-.08.6-.07.63.39a6.83,6.83,0,0,0,.28,1c.09.32-.13.41-.4.42a1.26,1.26,0,0,1-1-1C65.23,47.7,65.31,47.39,65.7,47.3Zm0,4.71c.44.26.49.66.22,1.25a3.72,3.72,0,0,1-1.62,1.64,5.25,5.25,0,0,1-.55-1.08A1.3,1.3,0,0,1,64,53a5.11,5.11,0,0,1,.51-.64C64.89,51.89,65.3,51.76,65.73,52Zm-3-1.65a1.35,1.35,0,0,1,1.19,0,.7.7,0,0,1,.45.86c-.06.38-.25.53-.66.43-.11,0-.34.2-.43.36-.3.54-1,.73-1.23.27a2.36,2.36,0,0,1-.15-.81A1.7,1.7,0,0,1,62.78,50.36Zm.7,4.65a1.69,1.69,0,0,1-.67,1.19h-1a2.73,2.73,0,0,1-.47-.69A6.63,6.63,0,0,1,61,54c0-.21.25-.44.39-.66.18.13.45.21.52.38.2.47.58.5,1,.54C63.5,54.33,63.52,54.44,63.48,55Zm-1.64-9.85c.26.12.27.33,0,.55a2.53,2.53,0,0,1-1.16.62c-.52-.53-.6-.62,0-.95a.71.71,0,0,0,.17-.11A.82.82,0,0,1,61.84,45.16Zm-2.05-.84a1.41,1.41,0,0,1,.79,0c.33.12.46.35.22.52a.44.44,0,0,1-.25.06c-.26-.06-.38,0-.5.13a.61.61,0,0,1-.6.19c-.28,0-.36-.16-.32-.32a.32.32,0,0,0,0-.17C59.13,44.6,59.54,44.38,59.79,44.32Zm-1.16,1.24c.12.07.32.12.35.2.1.23.42.22.69.26s.41.1.35.34-.34.46-.8.53h-.14a.83.83,0,0,1-.73-.53,1.33,1.33,0,0,1-.06-.52C58.32,45.75,58.51,45.66,58.63,45.56Zm-2,3.61c.2-.8.79-.93,1.3-.36a11,11,0,0,1,1.17,1.69,2.51,2.51,0,0,1,.19.69h-.07c0,.12,0,.24,0,.36.1.67,0,.8-.68,1a1.56,1.56,0,0,1-1.35-.08c-.25-.17-.48-.28-.29-.72a1.44,1.44,0,0,0-.14-1A2.26,2.26,0,0,1,56.59,49.17Zm-1.31-1c.27.12.27.33,0,.56a2.63,2.63,0,0,1-1.16.62c-.53-.53-.61-.62,0-.95l.17-.12A.84.84,0,0,1,55.28,48.15Zm-2.05-.84a1.33,1.33,0,0,1,.79,0c.33.11.47.34.22.52a.51.51,0,0,1-.25,0,.42.42,0,0,0-.5.13.6.6,0,0,1-.6.19c-.28,0-.36-.15-.32-.32a.32.32,0,0,0,0-.17C52.57,47.6,53,47.37,53.23,47.31ZM53.11,49c.39.05.42.11.35.34s-.34.46-.8.54h-.13a.84.84,0,0,1-.74-.54,1.32,1.32,0,0,1,0-.52c0-.1.22-.19.33-.28s.32.11.35.19S52.84,49,53.11,49Zm-.88-3.75c.27.13.28.35,0,.57a2.36,2.36,0,0,1-1.14.62c-.54-.57-.62-.66,0-1a.74.74,0,0,0,.17-.12A.78.78,0,0,1,52.23,45.26Zm-2.08-.93a1.34,1.34,0,0,1,.79.06c.33.13.48.38.24.55a.36.36,0,0,1-.25.05c-.25-.07-.37,0-.49.12a.56.56,0,0,1-.59.19c-.28,0-.37-.17-.33-.35a.47.47,0,0,0,0-.17C49.5,44.61,49.9,44.38,50.15,44.33ZM49,45.59c.13.07.32.13.36.22s.42.24.7.28.42.13.36.37-.32.47-.77.53h-.14a.91.91,0,0,1-.75-.58,1.27,1.27,0,0,1-.08-.54C48.74,45.78,48.93,45.69,49,45.59ZM47.18,52.1a2,2,0,0,0,.46.2c.72.12.73.12.69.84a4.43,4.43,0,0,0-.06.51c0,.25.2.52-.2.63a.79.79,0,0,1-1-.28,1.2,1.2,0,0,1-.18-.68A9.82,9.82,0,0,1,47.18,52.1Zm-1.67,6.7a1.1,1.1,0,0,1,.61.93c0,.24.33.49.55.69a1.22,1.22,0,0,1,0,1.49c-.21.24-1.06.32-1.27.06a1,1,0,0,1-.14-.63,2.49,2.49,0,0,1,.2-.58,2,2,0,0,0,0-.35c-.57-.09-1.1-.18-1.64-.25a.58.58,0,0,1-.45-.95c.24-.36.34-.83.84-1,.1,0,.22-.08.29,0C44.85,58.39,45.18,58.59,45.51,58.8ZM42.42,53a1.48,1.48,0,0,1-.05-1c.16-.51.56-.61.9-.2A6.35,6.35,0,0,1,44,53a1.87,1.87,0,0,1,.11.48h0v.23c0,.46,0,.49-.46.59a1.11,1.11,0,0,1-1-.13c-.13-.11-.25-.2-.14-.43A1,1,0,0,0,42.42,53ZM43,60.47A3,3,0,0,0,43,61c0,.24.2.52-.2.62a.77.77,0,0,1-1-.27,1.2,1.2,0,0,1-.18-.68,9.47,9.47,0,0,1,.25-1.22,2.15,2.15,0,0,0,.45.2C43.06,59.75,43.07,59.74,43,60.47Zm-.2,2.06a.94.94,0,0,1,.6-.19,8.5,8.5,0,0,1,.88.15,6.22,6.22,0,0,1,.88.11.94.94,0,0,1,0,.54c-.15.36-.3.77-1,.69-.38-.2-.9-.45-1.38-.76C42.72,63,42.73,62.63,42.83,62.53Zm2.34-13.82a2.35,2.35,0,0,1-.4.45.46.46,0,0,1-.32.06,1.23,1.23,0,0,1-.38-.3.22.22,0,0,1,0-.22c.07-.16.21-.32.27-.47a2.44,2.44,0,0,0,.09-.47C45.19,47.73,45.52,48.15,45.17,48.71Zm-2.39-1.62c.38-.15.77-.27,1.15-.41,1-.37,1.46,0,1.28.55a.59.59,0,0,1-.3.3.61.61,0,0,1-.45-.06c-.22-.16-.42-.14-.72.08a2.23,2.23,0,0,1-.43.18l-.45.47c-.06-.13-.1-.21-.13-.29a3.22,3.22,0,0,0-.21-.51C42.4,47.23,42.62,47.15,42.78,47.09Zm-.64,1.51a1.66,1.66,0,0,1,.92-.31c.15,0,.28,0,.24.19a.44.44,0,0,0,.21.4.63.63,0,0,1,.3.55.57.57,0,0,1-.77.48,3.86,3.86,0,0,1-.93-.38.73.73,0,0,1-.22-.24l0,0-.06-.13C41.72,48.88,41.73,48.85,42.14,48.6Zm-1.31,3.64a2.12,2.12,0,0,1,.55-.39.33.33,0,0,1,.32.11,2.7,2.7,0,0,1,.22.66.47.47,0,0,1,0,.35c-.13.19-.32.32-.44.51a3.85,3.85,0,0,0-.27.61A1.15,1.15,0,0,1,40.83,52.24Zm-.64,2.07c.08-.12.3-.27.4-.24a.71.71,0,0,1,.39.37c.13.37.33.47.69.34a1.31,1.31,0,0,1,.47,0l.6-.39v.49a4.83,4.83,0,0,0,0,.85c0,.32-.2.3-.37.29-.41,0-.81-.11-1.22-.15A1,1,0,0,1,40.19,54.31ZM40,64.94c.25,0,.59-.19.86-.39.5-.38.73-.38,1.24.3a1.11,1.11,0,0,1-.1,1.2c-.43.76-.61.8-1,.27-.09-.12-.19-.26-.31-.29a.45.45,0,0,0-.38.15c-.3.54-.58,1.1-.85,1.66s-.78.59-1,.23A6.11,6.11,0,0,1,38,67.2a3,3,0,0,1,0-.88c.39-.36.79-.72,1.18-1.1A.91.91,0,0,1,40,64.94Zm2.34,3.38a1,1,0,0,1-.08.11l-1,1.09c-.25.3-.52.37-.68.08a.71.71,0,0,1,.11-.95,3.1,3.1,0,0,0,.48-1,4.94,4.94,0,0,1,.23-.68c.08-.14.28-.3.4-.29C42.28,66.71,42.61,67.69,42.37,68.32Zm-2.09,1c0,.63-.52,1.34-1,1.21a6.51,6.51,0,0,1-1.3-.69l.14-.17c.1-.22.22-.43.3-.65s.36-.51.63-.42.72.26,1.07.42A.38.38,0,0,1,40.28,69.35Zm-1.2-10.76c.21.15.22.42,0,.7a2.1,2.1,0,0,1-.93.79c-.42-.67-.48-.79,0-1.21l.14-.14C38.59,58.43,38.81,58.39,39.08,58.59Zm-1.63-1.06a.74.74,0,0,1,.63,0,.42.42,0,0,1,.17.66.29.29,0,0,1-.2.07c-.2-.08-.29,0-.39.16a.41.41,0,0,1-.48.25.31.31,0,0,1-.25-.41.71.71,0,0,0,0-.21C36.92,57.89,37.25,57.6,37.45,57.53Zm-.92,1.57c.1.08.25.15.28.25.08.29.33.28.55.33s.33.13.28.43a.79.79,0,0,1-.64.67l-.11,0a.8.8,0,0,1-.58-.68,2.45,2.45,0,0,1-.05-.66C36.28,59.33,36.43,59.22,36.53,59.1Zm-4.12,8.55c0-.11,0-.28,0-.41.06-.35.14-.7.22-1,0,0,.11-.11.16-.11a.31.31,0,0,1,.17.15,2.32,2.32,0,0,1,.06.38c0,.4.34.56.61.35l.46.37c-.07.24-.15.5-.23.79l-.3-.16c-.35.29-.61.79-1.09.83A1.49,1.49,0,0,1,32.41,67.65Zm-.5,5.7a3.61,3.61,0,0,1,.8-.71.5.5,0,0,1,.45.16,5,5,0,0,1,.42,1,.75.75,0,0,1-.06.55c-.3.57-.65,1.12-1,1.71A1.78,1.78,0,0,1,31.91,73.35ZM27.5,93.9c-.36.3-.91.25-1,0a1,1,0,0,1,0-.62c0-.13.22-.21.29-.27s.7,0,.74.26S27.63,93.8,27.5,93.9Zm.2-3a2.32,2.32,0,0,1-.21.48c-.68.49-1.15-.1-1.58-.41-.21-.15-.25-.77-.12-1.09a1.21,1.21,0,0,1,2-.14C27.92,90,27.75,90.51,27.7,90.9Zm1.54-4.78c0,.12,0,.24,0,.36-.05.66-.12.73-.81.76A1.61,1.61,0,0,1,27,86.86c-.21-.22-.41-.39-.13-.77a1.48,1.48,0,0,0,.11-1,2.41,2.41,0,0,1,.16-1.5c.37-.73,1-.82,1.37-.11a8.42,8.42,0,0,1,.71,1.76,3.43,3.43,0,0,1,.08.91Zm1.15-3.59a.63.63,0,0,0-.07-.5,1.41,1.41,0,0,1,.14-1.81.85.85,0,0,0,.09-.22c.85,0,1,.21.83.8a2,2,0,0,0-.06.35c0,.22,0,.44,0,.66,0,.44.16.58.6.34l.16.6.72-.42a2.11,2.11,0,0,1-.15,1.86c-.42.65-1.14.33-1.83.38C31,83.82,30.11,83.33,30.39,82.53Zm2.46,5.83a1.71,1.71,0,0,1-.21.48c-.67.48-1.14-.1-1.57-.41-.21-.15-.25-.78-.13-1.09a1.22,1.22,0,0,1,2-.15C33.07,87.49,32.91,88,32.85,88.36Zm1.38-7.14a2.49,2.49,0,0,1-.13,1,.8.8,0,0,1-.59.4c-.41,0-.52-.41-.5-.76,0-.56.13-1.11.18-1.67a4,4,0,0,0-.06-.55l-.45.61a4.16,4.16,0,0,1-.75-.24.66.66,0,0,1-.31-.42,1.49,1.49,0,0,1,1-1.45c.37-.11.77-.15,1.21-.24a7.89,7.89,0,0,0,.44,1.69C34.52,80.14,34.21,80.66,34.23,81.22Zm-.42-14.68c-.3,0-.71-.66-.67-1a.79.79,0,0,1,.68-.55c.24,0,.57.34.55.51C34.29,66.24,34.12,66.57,33.81,66.54ZM35.72,76a9,9,0,0,1-.22-1.23,2.32,2.32,0,0,1,.27-.76,3.94,3.94,0,0,0,.32-.73c.13-.58.1-.58-.51-.71a.77.77,0,0,0,0-.28c-.39-.63.28-.85.49-1.23,0-.06.32-.06.4,0,.63.53,1.25,1.06,1.84,1.63a3.64,3.64,0,0,1-.12,2c-.22.43-.37.89-.55,1.34,0,.08-.06.23-.09.23a9.26,9.26,0,0,1-1.29,0C36.05,76.26,35.88,76.08,35.72,76Zm4.33,3.16s-.13.08-.15.14c-.13.34-.23.69-.38,1a1.79,1.79,0,0,1-.37.54,5,5,0,0,1-1,.82,1.33,1.33,0,0,1-.9,0,2.18,2.18,0,0,1-.83-.59c-.08-.09,0-.37.06-.51a.36.36,0,0,0,0-.43c-.24-.34.16-.51.24-.76a.39.39,0,0,1,.5-.32.7.7,0,0,1,.35.77c0,.06-.05.12,0,.16s.08.28.18.34a.38.38,0,0,0,.36,0,10.82,10.82,0,0,0,.8-1s-.06-.19-.13-.26a.77.77,0,0,1,.07-1.25,2,2,0,0,1,.51-.33.8.8,0,0,1,.82.36,3.77,3.77,0,0,1,.34.8Zm3.31-3.81a5.59,5.59,0,0,0-.78.28.75.75,0,0,1-.76,0,1.42,1.42,0,0,0-.85.07c-.58.19-.78.12-1-.63-.1-.34.16-.69.46-1a6,6,0,0,1,.49-.39h0v0a1,1,0,0,1-.15-1.53A.84.84,0,0,1,41,71.9l1.14-.65c.31-.18.57-.17.61.12a.64.64,0,0,1-.38.79,3.27,3.27,0,0,0-.72.72l-.71.76h0a2.82,2.82,0,0,1,.45.38c.11.12.14.31.24.44a.24.24,0,0,0,.27,0c.44-.39.84-.82,1.28-1.19a1.69,1.69,0,0,1,.73-.31c.08,0,.15.21.19.35s.12.55.17.83S43.81,75.16,43.36,75.33ZM44.93,72l-.5.52c-.24.26-.46.3-.65.14s-.52-.42-.76-.65a.34.34,0,0,1-.06-.29c.16-.55.9-1,1.25-.77a5.59,5.59,0,0,1,.86,1Zm2.93-5.65c0,.19.14.38.1.53a3.07,3.07,0,0,1-.37.72,3.31,3.31,0,0,1-.45.47.67.67,0,0,1-.79.18c-.18-.08-.45.05-.69.05a3.12,3.12,0,0,1-.8-.09s0-.32,0-.57l-.57-.31c0-.55.09-1.1.13-1.65.39-.09.49.23.67.43s.33.45.53.64a1.22,1.22,0,0,0,.38.19,8.1,8.1,0,0,0,.9-.57c.11-.08.12-.27.17-.42s-.25-.13-.31-.09c-.47.24-.54-.19-.74-.38s-.19-.33-.31-.47-.1-.38.12-.47c.42-.2.85-.36,1.27-.54v.1a5.14,5.14,0,0,0,.55.2.61.61,0,0,1,.56.59c0,.29.18.57.19.85A.53.53,0,0,1,47.86,66.34Zm2.6-10.53c-.15.36-.3.77-1,.69-.37-.2-.9-.45-1.38-.76-.08-.05-.07-.43,0-.54a.88.88,0,0,1,.6-.18,6.45,6.45,0,0,1,.88.14,8.13,8.13,0,0,1,.88.11A.94.94,0,0,1,50.46,55.81Zm.24-1.16a1,1,0,0,1-.14-.64,2.66,2.66,0,0,1,.2-.58,2,2,0,0,0,0-.35c-.56-.09-1.1-.18-1.64-.25a.58.58,0,0,1-.45-.95c.24-.36.35-.83.84-1,.1,0,.23-.08.3,0a11.5,11.5,0,0,1,1,.6,1.09,1.09,0,0,1,.61.93c0,.23.33.48.55.69a1,1,0,0,1-1.27,1.55Zm4,3.65a1.94,1.94,0,0,1-.47,1.49c-.21.21-.22.63-.29,1s-.19.45-.54.35a2.55,2.55,0,0,0-.77,0L52,60.73a9.48,9.48,0,0,1-.18-1.24,2.31,2.31,0,0,1,.23-.78c.08-.22.2-.43.27-.65.14-.4.11-.72-.43-.66,0-.2,0-.33-.06-.47s-.15-.34-.09-.43c.17-.27.38-.66.62-.7a1.35,1.35,0,0,1,.89.38,13,13,0,0,0,1.14,1.09C54.86,57.56,54.7,58,54.7,58.3Zm-1.24-5c0-.38.2-.8.64-.83s.6.32.75.71c.09.23.43.35.65.52V53.6l1-.2v.12l.94-.72c0,.56,0,1,0,1.33s.09.5.13.75a.48.48,0,0,1-.54.55c-.65,0-1.3-.12-2-.16A1.58,1.58,0,0,1,53.46,53.33ZM57.16,58c.12-.16.42-.2.56-.27.17-.49.32-1,.46-1.43,0-.08,0-.19-.06-.29s-.08-.52.37-.48c.21,0,.43-.18.81-.36.13.43.26.86.4,1.29s.32.86.42,1.3a1.16,1.16,0,0,1,0,.76.67.67,0,0,1-.6.23.47.47,0,0,0-.65.32c-.24.56-.81.39-1.21.48-.2,0-.63-.39-.74-.68S57,58.22,57.16,58ZM57,64.63c.08-.4.07-.81.15-1.21A10.36,10.36,0,0,1,57.51,62a.31.31,0,0,1,.57,0,1.71,1.71,0,0,1,.09.45c.09.71.36.88,1.06.69a.17.17,0,0,1,.17,0c.2.15.39.32.64.54-.1.33-.23.7-.37,1.12l-.52-.23-1.54,1.27A1.06,1.06,0,0,1,57,64.63Zm4.36,3.78a.26.26,0,0,1-.23.09c-.28-.09-.55-.21-.83-.31-.07,0-.17-.07-.22,0-.41.28-1.09.18-1.26.82-.05.17-.23.23-.34,0a.73.73,0,0,1-.06-.8,1.79,1.79,0,0,1,1.31-.92A5.14,5.14,0,0,0,60.6,67c.35-.1.71-.17,1.18-.27C61.71,67.32,61.82,67.93,61.35,68.41ZM62.42,62a1,1,0,0,1-1.19.33,1.12,1.12,0,0,1-.34-.45c0-.1,0-.26-.06-.35-.59-.86,0-1.65.18-2.43a8,8,0,0,1,.71-1.51,1.31,1.31,0,0,1,1.5-.57c.32.16.49.64.69,1a1.61,1.61,0,0,1,.14.5c0,.11,0,.3-.08.34-.7.43-.58,1.29-1,1.86,0,0-.08.11-.06.14C63.2,61.46,62.65,61.69,62.42,62Zm2.2,9.07a1.26,1.26,0,0,1-1,0l-.41-.66a2,2,0,0,1,.27-.57,4.42,4.42,0,0,1,.84-.78c.13-.09.38,0,.57,0,0,.16,0,.36,0,.47-.22.31-.09.57,0,.84S65,70.92,64.62,71.11Zm-.42-4.77s0-.32,0-.57l-.57-.31c0-.55.09-1.1.13-1.65.38-.09.49.23.67.43a8.18,8.18,0,0,0,.53.64,1.12,1.12,0,0,0,.38.19,9.07,9.07,0,0,0,.9-.56c.1-.09.12-.28.17-.43-.11,0-.25-.13-.32-.09-.46.24-.54-.19-.73-.38s-.19-.33-.32-.47-.09-.38.12-.47c.42-.2.86-.36,1.28-.54v.1a5.14,5.14,0,0,0,.55.2.63.63,0,0,1,.56.59c0,.29.18.57.19.86a.53.53,0,0,1-.53.6c0,.19.14.38.09.53a2.36,2.36,0,0,1-.82,1.19.66.66,0,0,1-.78.18c-.18-.08-.46.05-.69.05A2.66,2.66,0,0,1,64.2,66.34ZM66.69,72a2.76,2.76,0,0,1-1.67-.4,4.4,4.4,0,0,1,.48-.77,1,1,0,0,1,.59-.16,3.19,3.19,0,0,1,.61.08c.46,0,.7.25.71.63S67.18,72,66.69,72Zm.7-1.76c-.27.11-.43,0-.53-.25,0-.08-.26-.14-.4-.14-.46,0-.84-.34-.65-.68a1.76,1.76,0,0,1,.46-.41,1.26,1.26,0,0,1,1,.09,1,1,0,0,1,.46.77A.54.54,0,0,1,67.39,70.25Zm.38-14.75a1,1,0,0,1-.8.84.36.36,0,0,1-.14,0,1,1,0,0,1-.73-.85,2.89,2.89,0,0,1-.06-.82c0-.17.22-.31.34-.46.12.1.32.19.35.31.1.37.42.36.69.41S67.83,55.12,67.77,55.5Zm0-2.06a.51.51,0,0,1-.6.31.39.39,0,0,1-.32-.51.8.8,0,0,0,0-.27c0-.26.43-.63.68-.71a.88.88,0,0,1,.79.07.52.52,0,0,1,.22.82.27.27,0,0,1-.25.08C68,53.14,67.92,53.21,67.8,53.44Zm.68.51a1.45,1.45,0,0,0,.17-.19c.32-.37.59-.42.94-.17s.27.53,0,.88a2.67,2.67,0,0,1-1.16,1C67.92,54.61,67.84,54.47,68.48,54Zm-.27,6.42c-.08-.09,0-.37.06-.51a.35.35,0,0,0,0-.43c-.24-.34.17-.51.25-.76a.4.4,0,0,1,.49-.32.69.69,0,0,1,.36.77c0,.06-.05.12,0,.16s.08.28.17.34a.37.37,0,0,0,.37,0,9.61,9.61,0,0,0,.8-1s-.06-.19-.14-.25a.78.78,0,0,1,.08-1.26,1.74,1.74,0,0,1,.51-.32.77.77,0,0,1,.81.36,3.23,3.23,0,0,1,.34.79l-.41.45s-.13.09-.15.14c-.13.34-.23.69-.38,1a1.71,1.71,0,0,1-.38.54,4.48,4.48,0,0,1-1,.82A1.26,1.26,0,0,1,69,61,2.15,2.15,0,0,1,68.21,60.37Zm3.06,3.43c-.13.19-.34.33-.46.52a3.16,3.16,0,0,0-.27.64A1.19,1.19,0,0,1,70.19,63a2,2,0,0,1,.56-.4.35.35,0,0,1,.33.11,2.67,2.67,0,0,1,.23.69A.49.49,0,0,1,71.27,63.8Zm.89,2a6.47,6.47,0,0,0,0,.88c0,.33-.2.31-.38.3-.42,0-.83-.11-1.25-.15a1.08,1.08,0,0,1-1-1.65c.07-.12.3-.28.4-.25a.73.73,0,0,1,.4.39c.15.37.35.48.72.35a1.39,1.39,0,0,1,.49,0l.62-.4ZM72,65c-.14-.11-.25-.21-.14-.45a1,1,0,0,0,0-.72,1.59,1.59,0,0,1,0-1c.17-.53.58-.62.94-.2a7.2,7.2,0,0,1,.71,1.16,1.94,1.94,0,0,1,.11.49h0v.24c0,.48,0,.51-.48.61A1.18,1.18,0,0,1,72,65ZM74.1,75a10.69,10.69,0,0,1-1.3-.28l.14-.07c.1-.09.22-.18.31-.27a.7.7,0,0,1,.62-.18c.36.06.72.11,1.07.18.08,0,.15.08.15.12C75.12,74.71,74.57,75,74.1,75Zm.16-1.12a1,1,0,0,1-1,.09,2.79,2.79,0,0,1-.5-.36c-.08-.08,0-.21,0-.36L74,72.74a1.81,1.81,0,0,1,.9-.11,2.73,2.73,0,0,0,.85-.17,1.29,1.29,0,0,1,1.24.13c.25.13.14.32-.1.5-.43.31-.6.33-1,.11a.88.88,0,0,0-.32-.12.87.87,0,0,0-.38.06C74.81,73.36,74.53,73.59,74.26,73.83Zm2.92.19a.26.26,0,0,1-.08,0l-1,.45a.72.72,0,0,1-.69,0c-.13-.11-.25-.24.11-.4a1.39,1.39,0,0,0,.48-.41c.09-.09.12-.2.23-.28a.75.75,0,0,1,.4-.12C77.09,73.36,77.42,73.76,77.18,74ZM77,68.28l-.37-.21-1.06.72c-.23.16-.47.08-.5-.19a4.23,4.23,0,0,1,0-.87,2.13,2.13,0,0,1,.07-.44c.11-.39.22-.78.35-1.16a.25.25,0,0,1,.23-.13.3.3,0,0,1,.21.17.91.91,0,0,1,0,.33c0,.52.37.72.78.53l.57.43C77.21,67.7,77.08,68,77,68.28ZM77,66.55a1.55,1.55,0,0,1-.72-.49c-.12-.14-.07-.4-.09-.58s.58-.65.9-.61.76.42.75.57C77.79,66.17,77.42,66.68,77,66.55Zm-1.2-3.38a.3.3,0,0,1-.1-.24c.11-.32.26-.63.38-1,0-.07.05-.19,0-.23-.36-.44-.22-1.22-1-1.38-.06,0-.1-.15-.15-.22.52-.45.88-.42,1.57.13a1.55,1.55,0,0,1,.59,1,9,9,0,0,0,.47,1.24,11.46,11.46,0,0,1,.27,1.14C77.12,63.61,76.4,63.7,75.82,63.17Zm2.27-3.5c-.11-.09-.09-.34-.11-.51a.59.59,0,0,1,0-.22c.07-.18.13-.36.22-.59a1.2,1.2,0,0,0,.3.17c.54.13.55.13.47.65a2.06,2.06,0,0,0-.07.32c0,.18.11.43-.18.42A1.19,1.19,0,0,1,78.09,59.67Zm1.14.78a5.71,5.71,0,0,1,.79.14c.09,0,.21,0,.29,0s.25.16.27.26c.06.27-.47.75-.86.72-.29-.18-.66-.38-1-.62a.41.41,0,0,1,0-.38A.67.67,0,0,1,79.23,60.45Zm.32-10.52a2.21,2.21,0,0,1-1.46,0c-.26-.13-.47-.22-.3-.55a.89.89,0,0,0-.13-.79A1.06,1.06,0,0,1,78,46.9c.37-.22.65.06.82.21a9.38,9.38,0,0,1,1.09,1.2,2.35,2.35,0,0,1,.27.63l-.09,0a.8.8,0,0,0,0,.27C80.34,49.66,80,49.83,79.55,49.93ZM80.48,47a1.42,1.42,0,0,1-1.28-1c0-.33.06-.66.6-.74.34,0,.62-.08.71.3a5.26,5.26,0,0,0,.45,1C81.09,46.91,80.8,47,80.48,47Zm2.32,7.73c-.08.32-.32.3-.56.17a1.26,1.26,0,0,1-.36-1.38.65.65,0,0,1,.77-.41c.33.1.56.24.37.66A5,5,0,0,0,82.8,54.75Zm2.2.64a9.32,9.32,0,0,0-.19,1.32c-.06.34-.18.67-.31,1.12-.61-.42-1.29-.69-1.54-1.44a.29.29,0,0,1,0-.26l.79-.64c.06-.05.14-.14.13-.2-.1-.56.4-1.17-.21-1.69,0,0,0-.18,0-.27.68-.14,1,.06,1.31.88A1.51,1.51,0,0,1,85,55.39Zm-.16-5.46a1.53,1.53,0,0,0-1.08-.11,1.47,1.47,0,0,1-.66,0c-.15,0-.39-.21-.37-.25a2.57,2.57,0,0,1,.66-.91,1,1,0,0,1,1,.11,6.84,6.84,0,0,0,.87.33,2.09,2.09,0,0,1,.42.3A.62.62,0,0,1,84.84,49.93Zm1.86,2-.16-.05-.72-.08c-.36,0-.52-.16-.52-.43s0-.7,0-1a.32.32,0,0,1,.2-.24c.56-.25,1.37,0,1.38.54A6,6,0,0,1,86.7,52ZM99.82,89l-.48-.07a.3.3,0,0,1-.34-.33c0-.3,0-.59,0-.88a.27.27,0,0,1,.1-.18.63.63,0,0,1,.88.35A2,2,0,0,1,99.82,89Zm.63-5c-.36.29-.92.25-1,0a1.19,1.19,0,0,1,0-.62c0-.12.22-.2.3-.27s.69,0,.74.27S100.57,83.86,100.45,84Zm3.68-51.13a.2.2,0,0,1,.08-.12.44.44,0,0,1,.63.25,1.5,1.5,0,0,1-.12.79,3.24,3.24,0,0,0-.35,0,.21.21,0,0,1-.24-.24C104.13,33.26,104.12,33.05,104.13,32.84Zm-1.85,4.49c.12-.5.45-.61.75-.21a7.41,7.41,0,0,1,.63,1.06,3.05,3.05,0,0,1,.15.56h0c0,.08,0,.17,0,.25.06.44,0,.5-.34.63a.84.84,0,0,1-.84-.05.35.35,0,0,1-.15-.47,1.31,1.31,0,0,0-.09-.72A1.83,1.83,0,0,1,102.28,37.33Zm-1.43,2.29c.15,0,.31.27.4.47a.39.39,0,0,0,.55.23,1.24,1.24,0,0,1,.39-.09l0,.06.46-.42.09.07c0,.27,0,.54,0,.82a1.67,1.67,0,0,0,.06.44c.12.36-.13.35-.28.36-.36,0-.72-.05-1.08-.06-.67,0-1.05-.56-1-1.33C100.51,39.91,100.6,39.59,100.85,39.62Zm2.27,8.29c-.19.23-.16.57-.37.79a10,10,0,0,1-1.12.86,2.94,2.94,0,0,1-.44.35,11.09,11.09,0,0,1-1.07.37L99,49.79s0,0-.07-.06c-.64-.23-.64-.57-.29-1,0,0,0-.15,0-.18-.58-.51.06-.86.29-1.25a.67.67,0,0,1,.49-.25,1,1,0,0,1,.55.37c.1.18,0,.41.09.61s.13.39.29.46a.8.8,0,0,0,.61-.09,10.07,10.07,0,0,0,1-1.19c0-.05-.1-.21-.2-.27a.83.83,0,0,1,0-1.55c.22-.13.43-.37.63-.37a2.94,2.94,0,0,1,1.15.27,1,1,0,0,1,.48,1.29s0,0,0,0C103.25,46.88,103.46,47.51,103.12,47.91Zm.63,3.08a5.89,5.89,0,0,1-.29.9,5.29,5.29,0,0,1-.24.8c0,.05-.39,0-.54-.11-.32-.21-.72-.41-.52-1.09.25-.32.58-.8,1-1.23a.57.57,0,0,1,.53.11A.87.87,0,0,1,103.75,51Zm-4.3,5.87a.22.22,0,0,1-.25-.24c0-.21,0-.42,0-.63a.16.16,0,0,1,.08-.12.44.44,0,0,1,.63.25,1.59,1.59,0,0,1-.12.79ZM99.61,60c0,.29,0,.58,0,.86,0,.12-.15.33-.23.32a2.57,2.57,0,0,1-.91-.16.6.6,0,0,1-.22-.48c0-.49.11-1,.18-1.52.27.12.41.24.52.22C99.61,59.11,99.65,59.5,99.61,60Zm.74-17c.08-.07.14-.15.21-.22a1,1,0,0,1,1.19-.33c.45.2.53.49.26,1a3,3,0,0,1-1.57,1.25C99.63,43.84,99.51,43.67,100.35,43.05ZM100,38a1,1,0,0,1,.46.57c0,.1-.13.33-.26.45a7.39,7.39,0,0,1-.94.73.63.63,0,0,1-.52.09,1.14,1.14,0,0,1-.26-.43C98.58,38.19,99.13,37.7,100,38Zm-1.94,3.85a1.64,1.64,0,0,1,1.27-.74c.63-.12,1.3.44,1.08.9-.06.13-.26.23-.36.31-.49-.15-.59,0-.7.22-.25.43-1,.57-1.21.22A1.08,1.08,0,0,1,98.08,41.84Zm-.63,1.7c.18.1.46.17.53.3.15.3.46.35.79.4.78.12.73.12.71.72s-.44.62-.82.83a.88.88,0,0,1-.33.05,1.08,1.08,0,0,1-1.06-.76A3.69,3.69,0,0,1,97.06,44C97.05,43.85,97.31,43.69,97.45,43.54Zm-.73,3.8c0,.22,0,.39-.19.56s-.23.29-.18.39a1,1,0,0,1-.25,1.12,5.78,5.78,0,0,1-1.25.87,3.69,3.69,0,0,1-.68.27c-.37-.2-.7-.36-1-.55s-.48-.38-.73-.57a2.44,2.44,0,0,1,.25-.24c.27-.21,0-.77.78-.66.41.06.83.13,1.24.15.19,0,.51,0,.57-.14a1,1,0,0,0,.13-.68c0-.16-.25-.3-.34-.39a12.12,12.12,0,0,1-1.15.41.58.58,0,0,1-.42-.23c-.09-.33-.26-.69.15-1a.59.59,0,0,0,.2-.22c.09-.22.22-.23.46-.12a1.82,1.82,0,0,0,.35.06c.56.16.88-.21,1.38-.38C96.16,46.48,96.73,46.8,96.72,47.34ZM93.35,58.21a1.12,1.12,0,0,1,.08,1.37c-.75,1-1.38.16-2.09-.09,0-.27,0-.57.06-.76s.47-.71.77-.78S93,57.73,93.35,58.21Zm-1-14.78c0-.06.13-.15.21-.15.38,0,.77,0,1.15,0,.12,0,.3,0,.35,0,.41-.43,1.29-.6,1.22-1.3,0-.19.18-.32.41-.14s.55.43.46.78a2.14,2.14,0,0,1-1.55,1.56c-.25.09-.4.36-.63.5-.4.23-.82.43-1.36.7C92.44,44.67,92,44.09,92.39,43.43Zm0,7.61c.09.5.22,1,.32,1.5a.18.18,0,0,1-.08.18c-.75.51-.43,1.19-.5,1.81,0,.2-.1.48-.28.57a1.16,1.16,0,0,1-1.21-.26c-.09-.14-.05-.32-.07-.51-.63-.2-.63-.2-.47-1a.86.86,0,0,1-1-.6c-.12-.29-.54-.48-.29-.88s.5-.6,1.08-.25l.26.17a1.1,1.1,0,0,0,.87-.8.59.59,0,0,1,.64-.34C92,50.69,92.37,50.73,92.43,51ZM88.5,49.87a.33.33,0,0,0-.06-.19c-.55-.61,0-1.2.15-1.77a3.75,3.75,0,0,1,.83-1.24,1.09,1.09,0,0,1,1.14-.38.69.69,0,0,1,.92.49.91.91,0,0,1-.11,1c-.39.45-1,1-.78,1.62,0,.07,0,.19,0,.22-.42.19-.56.62-1.13.7S88.55,50.27,88.5,49.87Zm.32,21.06c-.27.13-.7.43-.8.35a4,4,0,0,1-1-1.23c-.26-.53,0-.68.52-1s.75-.74,1.19-1a3.93,3.93,0,0,1,1.41-.48c.33,0,.59.59.4,1a12.9,12.9,0,0,1-.83,1.61,4.27,4.27,0,0,1-.66.69L89,70.86Zm2.24,4.36c-.68.56-1.71.47-1.88-.06a2,2,0,0,1,0-1.16c.08-.23.41-.38.55-.51.41-.21,1.3.1,1.39.5S91.29,75.1,91.06,75.29Zm2,2.37a1.15,1.15,0,0,1-.31.73c0,.06-.34,0-.51-.09a6.27,6.27,0,0,1-1.09-.49c-.43-.26-.39-.62,0-.86C92.09,76.46,92.92,76.76,93.07,77.66Zm-2.76,2.16a18.38,18.38,0,0,0-2.52-1.12l0-.2c.61-.51,1.07-1.23,2-1.29.12,0,.28.15.37.27a1.94,1.94,0,0,1,.31.54c.17.55.69.7,1.12.86a1.31,1.31,0,0,0,1.22.08.45.45,0,0,1,.37,0,.35.35,0,0,1,.08.34c-.17.32-.26.72-.71.81A2.75,2.75,0,0,1,90.31,79.82Zm1.82,8.37c-.35-.19-.88-.44-1.36-.75-.08,0-.08-.43,0-.54a.92.92,0,0,1,.6-.2c.31,0,.62.1.93.14a5.53,5.53,0,0,1,.83.11.87.87,0,0,1,0,.55C93,87.85,92.85,88.28,92.13,88.19Zm2.13,12.7c-.35,0-.57-.09-.79-.1a.5.5,0,0,1-.55-.55c0-.47,0-.94,0-1.41a.4.4,0,0,1,.17-.29,1,1,0,0,1,1.42.57A3.42,3.42,0,0,1,94.26,100.89Zm.37-8.09c-.08.32-.32.3-.56.17a1.24,1.24,0,0,1-.37-1.37c.17-.3.39-.52.78-.42s.55.24.36.66A5.83,5.83,0,0,0,94.63,92.8Zm.87-1.41c.68-.15,1,0,1.31.87a1.55,1.55,0,0,1,0,1.18,8.07,8.07,0,0,0-.19,1.32,11.3,11.3,0,0,1-.32,1.12c-.61-.42-1.29-.69-1.53-1.44a.29.29,0,0,1,0-.26c.25-.22.53-.42.79-.64.06-.05.14-.14.13-.2-.1-.56.4-1.17-.21-1.69C95.48,91.61,95.51,91.47,95.5,91.39ZM94.85,80.9a4.43,4.43,0,0,1,.4,1,.85.85,0,0,1,0,.59c-.16.3-.42.54-.58.84a5.89,5.89,0,0,0-.33.93,1.81,1.81,0,0,1-.71-2.79,3.26,3.26,0,0,1,.82-.75C94.48,80.68,94.78,80.79,94.85,80.9Zm-.74-8.74a16.65,16.65,0,0,0-1,1.32c-.3.35-.65.65-1,1-.07,0-.11,0-.13,0a3.26,3.26,0,0,1-.73-2.28c0-.12.12-.29.21-.31.41-.1.84-.16,1.26-.23.08,0,.2,0,.23-.1.29-.66,1.18-1,.9-2a.44.44,0,0,1,.14-.29,1,1,0,0,1,.5.17A2,2,0,0,1,94.11,72.16ZM91.82,68.4a.83.83,0,0,1,1.13,0c.3.27.51.56,0,.92a7.88,7.88,0,0,0-.88.94c-.28.28-.51.13-.68-.14A1.48,1.48,0,0,1,91.82,68.4Zm3.48-3.57-.93-.13c-.1,0-.2-.09-.29-.07-.55.11-1.08.27-1.63.36a2.34,2.34,0,0,1-1,0,7.67,7.67,0,0,1-1.91-.64,1.94,1.94,0,0,1-.75-1.14A3,3,0,0,1,89,61.78c.07-.19.47-.29.73-.41s.39,0,.42-.09c.33-.8,1-.47,1.58-.5.18,0,.48.15.52.3a.79.79,0,0,1-.15.66c-.17.21-.48.3-.69.49a1.18,1.18,0,0,0-.4.58c0,.13.21.41.37.44a15.78,15.78,0,0,0,1.82.17c.08,0,.22-.16.25-.26.26-1.08.9-1.33,2-.93.55.21.83.46.81,1.05A1.8,1.8,0,0,1,95.3,64.83Zm2-6.71A7.61,7.61,0,0,1,97,59a5,5,0,0,1-.25.8s-.38,0-.53-.11c-.33-.21-.73-.4-.52-1.09.24-.32.57-.8,1-1.23a.59.59,0,0,1,.53.11A.84.84,0,0,1,97.29,58.12Zm-.09-2.43a2,2,0,0,0-1.31.15,1.87,1.87,0,0,1-1-.12c-.11,0-.06-.35-.08-.59L94,54.76A1,1,0,0,1,94,53a.88.88,0,0,1,.57.13c.29.21.52.48.8.71a4.13,4.13,0,0,0,.56.26l.43.24c.06-.06.12-.14.19-.2s.4-.33.61-.48a2.78,2.78,0,0,0,.42-.28.28.28,0,0,0,0-.31.45.45,0,0,0-.39-.07c-.58.28-.8-.12-1.08-.34a8.06,8.06,0,0,1-.71-.77,3.1,3.1,0,0,1,.44-.31c.4-.18.83-.33,1.23-.51s.78.18,1.23.16a.7.7,0,0,1,.79.67c0,.17.23.32.29.49.2.52,0,.82-.6,1.1,0,.17.13.34.17.52s0,.31,0,.4c-.43.42-.89.82-1.36,1.21A.55.55,0,0,1,97.2,55.69Zm2.5,13.4c-.27,0-.56.15-.76.07s-.78-.34-.9-.64-.36-.82.07-1.2a1.13,1.13,0,0,1,1.34-.3C100.6,67.59,99.83,68.36,99.7,69.09ZM102,62.3c-.16.36-.28.79-1,.69a15.25,15.25,0,0,1-1.36-.74c-.09,0-.08-.44,0-.54a.87.87,0,0,1,.6-.2,6,6,0,0,1,.93.14,3.77,3.77,0,0,1,.83.11S102.06,62.14,102,62.3Zm2.07-5c-.16.3-.42.54-.58.83a6.28,6.28,0,0,0-.33.93,1.81,1.81,0,0,1-.72-2.78,3.55,3.55,0,0,1,.83-.76c.08-.05.38.07.45.18a4.35,4.35,0,0,1,.4,1A.89.89,0,0,1,104.06,57.31Zm.2-13.69a.34.34,0,0,1-.31.18c-.22,0-.33.06-.42.28s-.44.25-.64.27-.37-.28-.45-.49.09-.38.19-.53.24-.15.31-.19a2.73,2.73,0,0,0,.2-.89c-.09-.61.31-.64.67-.84.07.27.14.57.22.86s.17.57.23.87A.87.87,0,0,1,104.26,43.62Zm-.09-6.91q-.24,0-.24-.24c0-.21,0-.42,0-.63a.15.15,0,0,1,.07-.12.44.44,0,0,1,.63.25,1.46,1.46,0,0,1-.12.78A2.88,2.88,0,0,0,104.17,36.71Zm-2.5,38.12a1.5,1.5,0,0,1,.43-1.69.81.81,0,0,1,1.12,0c.3.27.51.56,0,.91a8,8,0,0,0-.88,1C102.07,75.25,101.85,75.09,101.67,74.83Zm2.22,2.64c-.14.46-.49.84-.42,1.43,0,.19-.26.46-.44.66s-.24.09-.36.13-.41-.07-.38-.42a.31.31,0,0,0,0-.19c-.31-.6,0-1.15.12-1.7a5.22,5.22,0,0,1,.43-1,.65.65,0,0,1,1.24.33A1.66,1.66,0,0,1,103.89,77.47Zm.59-7.42c-.68,0-1.06-.56-1-1.33,0-.26.12-.57.38-.54s.31.27.4.46a.39.39,0,0,0,.55.23,1.17,1.17,0,0,1,.39-.09l0,.06.46-.42.08.07c0,.27,0,.55,0,.82a1.3,1.3,0,0,0,.06.44c.12.36-.14.36-.28.36C105.2,70.12,104.84,70.06,104.48,70.05Zm2.35-2.5c.06.44,0,.5-.35.63a.82.82,0,0,1-.83-.05.35.35,0,0,1-.15-.47,1.41,1.41,0,0,0-.09-.72,1.92,1.92,0,0,1-.09-1.06c.13-.5.46-.61.76-.21a8,8,0,0,1,.62,1.06,2.58,2.58,0,0,1,.16.56h0A2,2,0,0,0,106.83,67.55Zm-.19-8.81a3.12,3.12,0,0,0-.35,0q-.24,0-.24-.24t0-.63a.2.2,0,0,1,.08-.13.46.46,0,0,1,.63.25A1.59,1.59,0,0,1,106.64,58.74Zm-.57-5.86c0,.28,0,.57,0,.86,0,.12-.15.32-.23.32a2.53,2.53,0,0,1-.91-.16.6.6,0,0,1-.22-.49c0-.48.11-1,.18-1.52.27.13.41.25.51.23C106.07,52,106.1,52.38,106.07,52.88Zm-1.3,7.37c.27.12.41.25.52.23.67-.13.71.26.67.75,0,.29,0,.58,0,.87,0,.12-.15.32-.22.32a2.53,2.53,0,0,1-.91-.16.58.58,0,0,1-.23-.49C104.62,61.29,104.7,60.8,104.77,60.25Zm2.54,11.92a.34.34,0,0,1-.31.18c-.22,0-.34.06-.42.28s-.44.25-.64.27-.37-.28-.45-.49.09-.38.19-.53.24-.15.31-.19a2.73,2.73,0,0,0,.2-.89c-.09-.61.31-.64.67-.84.07.28.14.57.22.86s.17.58.23.87A1,1,0,0,1,107.31,72.17Zm.26-6.86-.35,0A.21.21,0,0,1,107,65q0-.31,0-.63a.16.16,0,0,1,.08-.12.44.44,0,0,1,.63.25A1.61,1.61,0,0,1,107.57,65.31Zm.2-3-.35-.05a.22.22,0,0,1-.25-.24c0-.21,0-.42,0-.63a.16.16,0,0,1,.08-.12.44.44,0,0,1,.63.25A1.59,1.59,0,0,1,107.77,62.31Zm1.14-12.26a.28.28,0,0,1,.11-.18.63.63,0,0,1,.88.35,2.13,2.13,0,0,1-.17,1.1,3.78,3.78,0,0,0-.49-.06.3.3,0,0,1-.33-.34Q108.9,50.49,108.91,50.05Zm-.19,8.55a6.7,6.7,0,0,1-.29.9,5.16,5.16,0,0,1-.24.79c0,.05-.39,0-.54-.1-.32-.21-.72-.41-.52-1.1.25-.32.58-.79,1-1.22.07-.08.44,0,.53.1A.91.91,0,0,1,108.72,58.6Zm-1.55-5.5c.36-.1.7-.18.78.41a7,7,0,0,0,.45,1.2c.13.4-.12.55-.45.58a1.52,1.52,0,0,1-1.3-1.22C106.65,53.66,106.67,53.24,107.17,53.1Zm-1.08-4.83a.37.37,0,0,1,.28.26,2.24,2.24,0,0,1,0,.52,1.76,1.76,0,0,1,0,.46,1.69,1.69,0,0,1-.53.14c-.37,0-.8.07-.82-.33.13-.23.29-.57.52-.91A1,1,0,0,1,106.09,48.27Zm0-6.68-.3-.16c-.35.29-.61.79-1.09.83a1.49,1.49,0,0,1-.06-1.15c0-.11,0-.28,0-.41.06-.35.13-.7.22-1,0,0,.11-.11.16-.11a.31.31,0,0,1,.17.15,2.32,2.32,0,0,1,.06.38c.05.4.34.56.61.35l.46.37C106.24,41,106.16,41.3,106.08,41.59Zm5.27-4.29a2.13,2.13,0,0,1,.57-.51s.25,0,.3.12a2.68,2.68,0,0,1,.27.68.55.55,0,0,1,0,.4c-.11.21-.29.37-.4.57a4.63,4.63,0,0,0-.22.63A1.23,1.23,0,0,1,111.35,37.3Zm-2.29,0a.24.24,0,0,1,.07-.13.46.46,0,0,1,.63.25,1.48,1.48,0,0,1-.12.79,2.88,2.88,0,0,0-.35,0q-.24,0-.24-.24C109.05,37.74,109.05,37.53,109.06,37.32Zm-.17,5.28c0-.41,0-.83.52-1s.7-.18.79.41a7,7,0,0,0,.44,1.2c.13.4-.12.55-.45.58A1.52,1.52,0,0,1,108.89,42.6Zm3.53,4.45c-.12.29-.23.63-.8.56-.28-.15-.71-.35-1.1-.6a.49.49,0,0,1,0-.44.73.73,0,0,1,.48-.16c.25,0,.5.08.75.11a4.71,4.71,0,0,1,.67.09A.67.67,0,0,1,112.42,47.05Zm.36-2.08a3.78,3.78,0,0,0-.49-.06.3.3,0,0,1-.33-.34,8.64,8.64,0,0,1,0-.88.23.23,0,0,1,.1-.17.62.62,0,0,1,.88.35A2.13,2.13,0,0,1,112.78,45Zm1.44-9.18c0-.28,0-.56.35-.66s.48-.12.54.28a4.52,4.52,0,0,0,.3.82c.09.27-.08.37-.31.39A1,1,0,0,1,114.22,35.79Zm2.63,6.31c-.36.29-.91.25-1,0a1.09,1.09,0,0,1,0-.62c0-.12.22-.2.3-.27s.69,0,.74.27S117,42,116.85,42.1ZM117.4,39a2.14,2.14,0,0,1-1.48-.22,2.18,2.18,0,0,1-.78-1.27.26.26,0,0,1,.21-.32,2.15,2.15,0,0,1,1.48.22,2.23,2.23,0,0,1,.79,1.27A.26.26,0,0,1,117.4,39Z"/><path d="M113.29,28.42c-.81-.22-1.82,2.27-1.82,2.27l2.6.84S114.1,28.65,113.29,28.42Z"/></svg>