<svg id="Layer_1" data-name="Layer 1" xmlns="http://www.w3.org/2000/svg" width="128" height="128" viewBox="0 0 128 128"><title>Artboard 62</title><path d="M5.52,123.76v-14.2H7.89v11.77h5.9v2.43Z"/><path d="M15.69,123.76V109.44H24.4v2.42H18.05V115H24v2.41h-5.9v3.88h6.56v2.43Z"/><path d="M26.22,119.09l2.31-.28c.26,1.83,1.12,2.75,2.56,2.75a2.43,2.43,0,0,0,1.69-.56,1.82,1.82,0,0,0,.62-1.39,1.53,1.53,0,0,0-.22-.83,1.59,1.59,0,0,0-.65-.57,20.33,20.33,0,0,0-2.13-.73,7.29,7.29,0,0,1-2.22-1,3.68,3.68,0,0,1-1.12-1.41,4.37,4.37,0,0,1-.41-1.87,4.14,4.14,0,0,1,.53-2.11,3.41,3.41,0,0,1,1.47-1.42A5,5,0,0,1,31,109.2a4.48,4.48,0,0,1,3.24,1.12,4.52,4.52,0,0,1,1.23,3.21l-2.38.13a2.54,2.54,0,0,0-.67-1.61,2.14,2.14,0,0,0-1.47-.46,2.37,2.37,0,0,0-1.48.4,1.18,1.18,0,0,0-.52,1,1.24,1.24,0,0,0,.47,1,6.73,6.73,0,0,0,2.16.88,9,9,0,0,1,2.58,1.09,3.72,3.72,0,0,1,1.22,1.47,5.23,5.23,0,0,1,.42,2.2,4.48,4.48,0,0,1-1.15,3.13A4.59,4.59,0,0,1,31,124Q26.7,124,26.22,119.09Z"/><path d="M37.36,119.09l2.31-.28c.26,1.83,1.11,2.75,2.56,2.75a2.44,2.44,0,0,0,1.69-.56,1.81,1.81,0,0,0,.61-1.39,1.53,1.53,0,0,0-.21-.83,1.62,1.62,0,0,0-.66-.57,19,19,0,0,0-2.12-.73,7.29,7.29,0,0,1-2.22-1,3.68,3.68,0,0,1-1.12-1.41,4.23,4.23,0,0,1-.41-1.87,4.14,4.14,0,0,1,.53-2.11,3.41,3.41,0,0,1,1.47-1.42,5,5,0,0,1,2.31-.47,4.06,4.06,0,0,1,4.46,4.33l-2.37.13a2.54,2.54,0,0,0-.67-1.61,2.15,2.15,0,0,0-1.48-.46,2.32,2.32,0,0,0-1.47.4,1.18,1.18,0,0,0-.52,1,1.24,1.24,0,0,0,.47,1,6.52,6.52,0,0,0,2.16.88,9,9,0,0,1,2.58,1.09,3.72,3.72,0,0,1,1.22,1.47,5.23,5.23,0,0,1,.42,2.2,4.53,4.53,0,0,1-1.15,3.13A4.6,4.6,0,0,1,42.16,124Q37.84,124,37.36,119.09Z"/><path d="M49.1,123.76V109.44h8.71v2.42H51.46V115h5.9v2.41h-5.9v3.88H58v2.43Z"/><path d="M60.24,123.76V109.44h5a6.89,6.89,0,0,1,2.73.39,3,3,0,0,1,1.35,1.33,4.68,4.68,0,0,1,.52,2.28,4.26,4.26,0,0,1-.8,2.71,3.62,3.62,0,0,1-2.29,1.29A5.76,5.76,0,0,1,68,118.63,18.4,18.4,0,0,1,69.36,121l1.42,2.8H68l-1.72-3.12A20,20,0,0,0,65,118.53a1.8,1.8,0,0,0-.7-.59,3.19,3.19,0,0,0-1.19-.16H62.6v6Zm2.36-8.27h1.76a8.56,8.56,0,0,0,2-.14,1.27,1.27,0,0,0,.71-.57,2.14,2.14,0,0,0,.27-1.14,2,2,0,0,0-.27-1.1,1.35,1.35,0,0,0-.74-.57,9.43,9.43,0,0,0-1.93-.11H62.6Z"/><path d="M77.05,123.76V109.44h2.37v6.37l4.79-6.37h3.2L83,115l4.66,8.74H84.58L81.34,117l-1.92,2.4v4.33Z"/><path d="M89,109.44H91.4v7.75a18.81,18.81,0,0,0,.09,2.36,2.32,2.32,0,0,0,.75,1.46,2.61,2.61,0,0,0,2.9.15,1.81,1.81,0,0,0,.71-1,12.36,12.36,0,0,0,.19-2.79v-7.92H98.4V117a20.28,20.28,0,0,1-.3,4.16,3.55,3.55,0,0,1-1.39,2.08,4.7,4.7,0,0,1-2.85.8,5.26,5.26,0,0,1-2.86-.66,3.76,3.76,0,0,1-1.5-1.85,14,14,0,0,1-.46-4.41Z"/><path d="M101.08,109.44h4.33a6.31,6.31,0,0,1,2.47.37,4.07,4.07,0,0,1,1.54,1.23,6.53,6.53,0,0,1,1.1,2.26,12.45,12.45,0,0,1,.4,3.44,11.05,11.05,0,0,1-.42,3.23,6.55,6.55,0,0,1-1.06,2.17,4.07,4.07,0,0,1-1.56,1.21,5.83,5.83,0,0,1-2.35.41h-4.45Zm2.37,2.42v9.47h1.77a4.71,4.71,0,0,0,1.66-.21,2,2,0,0,0,.84-.65,3.66,3.66,0,0,0,.54-1.37,11,11,0,0,0,.22-2.47,11.74,11.74,0,0,0-.22-2.51,3.34,3.34,0,0,0-.69-1.44,2.17,2.17,0,0,0-1.12-.69,9,9,0,0,0-1.93-.13Z"/><path d="M113.11,109.44h2.36v7.75a18.81,18.81,0,0,0,.09,2.36,2.42,2.42,0,0,0,.75,1.46,2.28,2.28,0,0,0,1.56.52,2.21,2.21,0,0,0,1.34-.37,1.81,1.81,0,0,0,.71-1,12.36,12.36,0,0,0,.19-2.79v-7.92h2.37V117a20.11,20.11,0,0,1-.31,4.16,3.55,3.55,0,0,1-1.39,2.08,4.7,4.7,0,0,1-2.85.8,5.29,5.29,0,0,1-2.86-.66,3.76,3.76,0,0,1-1.5-1.85,14.35,14.35,0,0,1-.46-4.41Z"/><path d="M48.72,102.79H52.4l.11-.23s-2.3-1.51-2.33-1.51S48.72,102.79,48.72,102.79Z"/><path d="M93.38,102.79h3.69l.11-.23s-2.3-1.51-2.33-1.51S93.38,102.79,93.38,102.79Z"/><path d="M59.91,101.79H63.6l.1-.23s-2.3-1.51-2.33-1.51S59.91,101.79,59.91,101.79Z"/><path d="M88.46,101.79h3.69l.11-.23s-2.3-1.51-2.33-1.51S88.46,101.79,88.46,101.79Z"/><path d="M62.84,83v-.08c0-1,0-2.17,0-3.27l-.1-3.3c0-2.2-.16-4.38-.16-6.6a12,12,0,0,1-.44-2.64,16.05,16.05,0,0,1,0-2.3c-.85.19-1.7.44-2.54.71-.08.42-.15.85-.21,1.27-.14.9-.24,1.81-.32,2.71,0,.47,0,.89-.06,1.37a12.61,12.61,0,0,1-.19,1.41c-.18,1-.43,1.9-.7,2.83a18.16,18.16,0,0,0,3.07,9.21s.51,3,.71,4.42l.53,4.35c.17,1.45.31,1.91.43,3.36a3.92,3.92,0,0,1-.17,2,2.12,2.12,0,0,1-.86,1.17c.2.13,1.87,1.11,2.09,1.21a6.63,6.63,0,0,1,.23-1.54,5.24,5.24,0,0,1,.49-1.09s1,.22,1-.2c.1-.69-1.38-5.67-1.63-7S63.05,84.35,62.84,83Z"/><path d="M93.86,98.32l.72-.26a1,1,0,0,0,.67-.9A69.66,69.66,0,0,1,96,89.57c.28-1.72.59-3.45.85-5.15a42.07,42.07,0,0,1,1.06-4.79c-.2-.49-.4-1-.62-1.46a14.88,14.88,0,0,0-1-2,33.11,33.11,0,0,0-2.73-3.48c-.48-.56-1-1.12-1.45-1.71s-.88-1.21-1.33-1.82l-2.63-3.63,0,0v0L87.23,63c-.3-.82-.55-1.69-.88-2.44A4.59,4.59,0,0,0,86,60a13.53,13.53,0,0,1-2.5,2.34c-.21.17-.44.31-.66.46,2,2.3,3.83,4.68,5.75,7,1,1.17,2.08,2.33,3,3.62a10,10,0,0,1,1.2,2.09q.48,1.08.87,2.19a11.46,11.46,0,0,1,.6,2.32,8.62,8.62,0,0,1,0,2.38L93.76,87c-.24,2.24-.6,6.14-.78,8.13a4.41,4.41,0,0,1-.87,2.29l-1.54,2.08,2,1.23.72-1.9A.93.93,0,0,1,93.86,98.32Z"/><path d="M99.75,69.93a17.46,17.46,0,0,1-1-2h0a.26.26,0,0,0,0-.08s0,0,0,0a7.55,7.55,0,0,1-.51-3,6.17,6.17,0,0,1,.2-1.58,6.34,6.34,0,0,1,.76-1.41l1.71-2.61a17.43,17.43,0,0,0,1.55-2.65,37.09,37.09,0,0,0,1.93-5.85c0-.26.09-.5.12-.74a4.2,4.2,0,0,0,0-.72,12.79,12.79,0,0,0-.09-1.52,9.8,9.8,0,0,0-.71-2.89,3.31,3.31,0,0,0-.35-.58l-.22-.24-.29-.24c-.38-.32-.8-.62-1.22-.92-.84-.59-1.71-1.15-2.59-1.69s-1.78-1-2.69-1.5c-.46-.23-.93-.43-1.4-.62a7.54,7.54,0,0,0-1.43-.39,30,30,0,0,0-6.15-.21c-1,0-2.07.1-3.13.1s-2.06,0-3.1.09c-2.07.13-4.15.29-6.2.57-1,.12-2.05.34-3.1.41a27.38,27.38,0,0,1-3.14.08A34.46,34.46,0,0,1,62.41,39a19.93,19.93,0,0,0-6.11-.48,20.39,20.39,0,0,0-3,.4,10.91,10.91,0,0,0-1.45.45c-.5.18-1,.32-1.52.45-.79.2-2.1.41-2.1.41a12.17,12.17,0,0,1,.34,3.23,8.72,8.72,0,0,1-1,3.5l-.07,0a14.47,14.47,0,0,0,.44-3.5c0-.58-.12-1.15-.16-1.7a12,12,0,0,0-.21-1.41l-.37,0a6.09,6.09,0,0,1-1.64-.1A3,3,0,0,1,44,39.39a8.44,8.44,0,0,1-1.82-2.64,12.62,12.62,0,0,1-1-3,20.9,20.9,0,0,0-.63-3,14.57,14.57,0,0,0-1.38-2.61,3.47,3.47,0,0,1,.68-1.64,2.66,2.66,0,0,1,1.65-.8,17.88,17.88,0,0,0,3.18-1,3.89,3.89,0,0,0,1.24-1A9.85,9.85,0,0,0,47,22.31a11.75,11.75,0,0,0,1.54-3,4.71,4.71,0,0,0,.18-.81,1.46,1.46,0,0,0,0-.68l0,0h0a1.3,1.3,0,0,0-.29.08,4.09,4.09,0,0,0-.73.31c-.49.26-1,.55-1.45.85s-.93.61-1.51.91c-1.13.45-2.2.72-3.23,1.19a20.42,20.42,0,0,0-2.95,1.77h-.07A4.62,4.62,0,0,1,39,21.56a6.53,6.53,0,0,1,.76-1,6.6,6.6,0,0,1,1.18-1.12A12,12,0,0,0,42,18.55a1.77,1.77,0,0,0,.62-1,1.62,1.62,0,0,0-.31-1.11c-.23-.35-.55-.71-.83-1.14A3.05,3.05,0,0,1,41,13.81a7.74,7.74,0,0,1,.66-2.87,6.92,6.92,0,0,1,1.57-2.43A6,6,0,0,0,45,6.41a2.6,2.6,0,0,0-.26-1.95c0,.22-.07.45-.11.68a1.92,1.92,0,0,1-.3.73,2.57,2.57,0,0,1-.54.55,16.9,16.9,0,0,0-2,1.79,7.38,7.38,0,0,0-.77,1,7,7,0,0,0-.55,1.17,7,7,0,0,0-.62,2.48,8,8,0,0,0,.35,2.55l.19.66.09.33a.92.92,0,0,1,0,.53.93.93,0,0,1-.33.45,3.28,3.28,0,0,0-.31.18c-.19.11-.37.23-.55.35a10.11,10.11,0,0,0-3.26,3.67l-.17.24a5.66,5.66,0,0,1-.92.09,5,5,0,0,1-.89-.17L34,21.6a10.22,10.22,0,0,0-3.31-3.77c-.18-.13-.36-.24-.55-.36a3.18,3.18,0,0,1-.31-.18.79.79,0,0,1-.33-.45.89.89,0,0,1,0-.52l.09-.33.19-.66a8,8,0,0,0,.35-2.55,7.18,7.18,0,0,0-.62-2.48A6.54,6.54,0,0,0,29,9.14a7.76,7.76,0,0,0-.77-1,21.3,21.3,0,0,0-2-1.79,2.79,2.79,0,0,1-.55-.54,2,2,0,0,1-.29-.72q-.07-.36-.12-.69A2.7,2.7,0,0,0,25,6.31a6.14,6.14,0,0,0,1.78,2.1,6.69,6.69,0,0,1,1.57,2.43A7.55,7.55,0,0,1,29,13.71a3,3,0,0,1-.5,1.48c-.28.42-.6.79-.84,1.14a1.65,1.65,0,0,0-.3,1.11,1.75,1.75,0,0,0,.62,1,11.12,11.12,0,0,0,1.09.84,7.39,7.39,0,0,1,1.15,1.08A7.77,7.77,0,0,1,31,21.46a4.66,4.66,0,0,1,.6,1.3l-.05.06A17.11,17.11,0,0,0,28.47,21c-1-.52-2-.79-3.07-1.38s-1.87-1.2-2.83-1.65a2.46,2.46,0,0,0-.66-.21s0,0,0,0h0a.71.71,0,0,0-.06.26,4.79,4.79,0,0,0,.29,1.52,13.66,13.66,0,0,0,1.55,2.92,10,10,0,0,0,1,1.29,3.74,3.74,0,0,0,1.24.9,18.2,18.2,0,0,0,3.12,1,2.68,2.68,0,0,1,1.6.77A3,3,0,0,1,31.38,28s0,.52,0,.77,0,.64,0,1v.47c0,.14,0,.29,0,.44s.13.59.22.89a6.3,6.3,0,0,0,.69,1.63,4.42,4.42,0,0,0,.57.66,2.53,2.53,0,0,0,.31.28.6.6,0,0,0,.28.13,6.94,6.94,0,0,0,.81,0,.59.59,0,0,0,.29-.1.85.85,0,0,0,.27-.25,8.55,8.55,0,0,1,1.53-1.25,9.77,9.77,0,0,0,1.46-1.13,3.57,3.57,0,0,0,.9-1.6,3.27,3.27,0,0,1-.61,1.84,7.26,7.26,0,0,1-1.39,1.38,9.41,9.41,0,0,0-1.33,1.26,1.8,1.8,0,0,1-.42.39,1.28,1.28,0,0,1-.6.22A3.28,3.28,0,0,1,34,35h-.24a1.87,1.87,0,0,1-.32,0,1.63,1.63,0,0,1-.58-.27c-.12-.1-.2-.18-.27-.25a22.25,22.25,0,0,0,.32,2.68c.08.42.16.85.23,1.28.29.17,2.49,1.16,5.58-1.28-1.08,5.06-4.63,4-5.06,3.61.18.74.38,1.48.59,2.21a21.14,21.14,0,0,0,1,2.81l0,0v0a9.14,9.14,0,0,0,1.71,3.77,14.69,14.69,0,0,0,1.32,1.63c.16.17.32.34.48.49h0c.29-.08,2.67.3,5.78-3.7-.25,5.13-2.84,5.63-3.16,5.8l1.79,1.38c1.12.87,2.24,1.71,3.3,2.71l.11.09,0,.16a6.89,6.89,0,0,0,.73,2.11,9.88,9.88,0,0,0,1.25,1.94,7.88,7.88,0,0,0,1.82,1.41c.61.38,1.55.92,2.24,1.32a8.77,8.77,0,0,0-1.79-2.66c-.2-.22-.41-.43-.62-.62a3.18,3.18,0,0,0-.63-.49,2.51,2.51,0,0,1-.82-.71,6,6,0,0,1-.55-.8A12.15,12.15,0,0,1,47.3,58a5.77,5.77,0,0,1-.55-1.84,8.42,8.42,0,0,1,.45-3.7l.07,0a8.41,8.41,0,0,0-.14,3.63,5.22,5.22,0,0,0,.63,1.67,14.13,14.13,0,0,0,.93,1.55,3.51,3.51,0,0,0,1.16,1.15,4.59,4.59,0,0,1,1.53,1.3,10.68,10.68,0,0,1,1,1.64A9.4,9.4,0,0,1,53,68c0,1.09.06,2.18.07,3.28,0,2.18-.3,4.37-.3,6.54v0l0,0a11.46,11.46,0,0,0-.24,2.56,10.69,10.69,0,0,0,.1,1.27,7.69,7.69,0,0,0,.4,1.19s.34,8.64-1,14.82a5.69,5.69,0,0,1-1.41,2.7l2.08,1.44c.77-3.32,2.7-3.82,2.7-4.19,0-.19-.3-.43-.58-.63a1.05,1.05,0,0,1-.46-.92c0-.79.11-2.15.16-3l.23-3.49L55,86.24c.1-1.17.15-2.33.29-3.5v-.06a40.39,40.39,0,0,0,1.43-5.27,12.92,12.92,0,0,1,.41-1.33c.13-.43.25-.87.37-1.31.24-.88.45-1.77.64-2.65a13,13,0,0,0,.2-1.31c0-.44,0-.93.08-1.39.1-.92.22-1.84.37-2.75.07-.46.15-.91.26-1.36A4.5,4.5,0,0,1,59.6,64a14.2,14.2,0,0,0,1.31-2.29,5.94,5.94,0,0,1-.66-2.46,9.65,9.65,0,0,1,.21-2.63l.08,0a10.13,10.13,0,0,0,0,2.58,6.14,6.14,0,0,0,.79,2.39l.05.08,0,.09A12.9,12.9,0,0,1,60,64.22a4.14,4.14,0,0,0-.4,1,13.78,13.78,0,0,1,2.8-1.19,9,9,0,0,1,3.65-.45c1.18.1,2.41.16,3.61.36.59.09,1.19.23,1.77.37a10.33,10.33,0,0,0,1.76.22,26.24,26.24,0,0,0,3.55-.06,9.43,9.43,0,0,0,1.7-.28,4.6,4.6,0,0,0,.76-.29l.8-.4a32.89,32.89,0,0,0,5.89-3.66,6.67,6.67,0,0,0-1.14-1.29,8.76,8.76,0,0,0-2.22-1.34l0-.08a8.13,8.13,0,0,1,1.88.9,5.22,5.22,0,0,1-.82-1.59,7.56,7.56,0,0,1-.19-2.67,15.69,15.69,0,0,1,1.23-5.09l.08,0a17.88,17.88,0,0,0-.52,2.52,14.39,14.39,0,0,0-.16,2.54,18.13,18.13,0,0,0,.33,2.47,12.86,12.86,0,0,0,.67,2.23,6,6,0,0,1,1.6,1.89c.41.83.67,1.64,1,2.45l.93,2.41,2.65,3.54c.45.59.89,1.21,1.35,1.78l1.43,1.71a28.61,28.61,0,0,1,2.73,3.6,9.93,9.93,0,0,1,.52,1l.44,1c.28.7.55,1.41.77,2.13a9,9,0,0,1,.41,2.24,20.75,20.75,0,0,1-.14,2.25L98.32,89l-.91,8.9v0l0,0-2,2.46,2,1.31.52-1.23a1.22,1.22,0,0,1,.7-.67l.77-.29a.74.74,0,0,0,.47-.68c0-.78,0-2.18,0-2.18,0-.58.07-1.12.13-1.67.24-2.17.6-4.3.92-6.44.16-1.09.3-2.12.44-3.23s.4-2.15.62-3.21L103.36,76c-.78-1.32-1.61-2.64-2.41-4ZM33,27.26a1,1,0,0,1-1.5-.63.2.2,0,0,1,.1-.24,1.26,1.26,0,0,1,.91-.06,1.21,1.21,0,0,1,.59.69A.19.19,0,0,1,33,27.26Zm4.85.06a1.23,1.23,0,0,1-.9-.06.19.19,0,0,1-.1-.24,1.17,1.17,0,0,1,.59-.69,1.23,1.23,0,0,1,.9.06.19.19,0,0,1,.1.24A1.17,1.17,0,0,1,37.81,27.32Z"/><path d="M105.86,49.71c-.22-.83-.48-1.66-.77-2.48,0,.14,0,.29,0,.44a13.86,13.86,0,0,1,.09,1.59,4.75,4.75,0,0,1,0,.83c0,.28-.1.54-.16.8a37.51,37.51,0,0,1-2.1,6,17.8,17.8,0,0,1-1.68,2.68l-1.45,2c.12.59.24,1.17.37,1.76a13.78,13.78,0,0,1,2-3.75c.54-.77,1.1-1.51,1.65-2.26A15,15,0,0,0,105.38,55a6.64,6.64,0,0,0,.79-2.62A7.74,7.74,0,0,0,105.86,49.71Z"/></svg>