<svg id="Layer_1" data-name="Layer 1" xmlns="http://www.w3.org/2000/svg" width="128" height="128" viewBox="0 0 128 128"><title>Artboard 63</title><path d="M120.24,77.53a7.35,7.35,0,0,0-2.49,2.74c-.57.35-.78,1-4.83.78s-7.48-5.29-9-8.34c-1.24-2.51-3.25-12.12-4.34-17.7a13.34,13.34,0,0,0-.51-2.62s0-.07,0-.11a20.15,20.15,0,0,0-2.23-4.85,25.9,25.9,0,0,0-4.27-5.11c-5.58-5.19-16.76-5.19-20-3s-14.77.6-18,1.6c-1.2-1.79-5.59-4.39-10.78-6-.56-1.87-3.14-3.52-4.85-4.85.41.52.81,1.06,1.17,1.62a13.92,13.92,0,0,1,2,5.12,17.94,17.94,0,0,1,.1,5.47c-.45,3.61-.85,7.13-2.54,10.18-.86,1.53-1.81,3-2.78,4.42a25.87,25.87,0,0,0-2.62,4.41l-.22,0c.41-3,.92-5.94,1-8.88.06-1.21,0-2.43,0-3.62-1.43,3.36-4.65,5.31-6.68,7.94-1,1.33-1.31,3.35-1.71,4.8a6.33,6.33,0,0,0,.8,4.67l-.17.14a6.75,6.75,0,0,1-1.81-2.14,5.55,5.55,0,0,1-.6-2.94,10.22,10.22,0,0,1,2.31-5.28c2.3-2.89,5-5,7.11-7.8A8.37,8.37,0,0,0,35.5,46c.07-.39.15-.79.24-1.19a5.87,5.87,0,0,0,0-1.45,21.86,21.86,0,0,0-1.2-4.92,33.91,33.91,0,0,0-2.19-4.59,13.58,13.58,0,0,1-1.54-5.22l.21-.07c.85,1.59,1.07,3.1,2.09,4.51a29.59,29.59,0,0,1,2.65,4.81c2.79,6.39,1.44,13.23,1.16,14.73A44.39,44.39,0,0,1,35.83,57c-.17.52-.36,1-.54,1.56.37-.68.76-1.35,1.11-2,.84-1.5,1.65-3,2.37-4.58a26.61,26.61,0,0,0,2.77-9.63A17.19,17.19,0,0,0,39.28,33a36,36,0,0,0-6.22-7.91l.13-.19c.65.34,1.3.7,1.93,1.08-.09-.12-.16-.24-.24-.36-2-3.29-10.37-5.89-14-5.89-2.71,0-6.82,2.76-9.34,4a10.07,10.07,0,0,1,.74,3.12c-.13-.79-1.13-1.77-2.16-2.57a1.18,1.18,0,0,1-.4,0c-1.61-.2-3.4-.2-3.4,1.19s1.31,3.83,2.29,5.79a2.16,2.16,0,0,0-.59,1,2.08,2.08,0,0,0,0,1.23.05.05,0,0,1,0,.05c-.2-.12-.39-.3-.59-.4a1.11,1.11,0,0,0-.29-.1A3.71,3.71,0,0,0,6,33.49l.88.72.66.53L6.4,35.6,3.54,37.75a1.12,1.12,0,0,0,0,1.82c.78.65,1.42,1.18,1.93,1.59.17.14.37.24.61.4a2,2,0,0,0,.13-.49,1.23,1.23,0,0,1,.28-1A2.7,2.7,0,0,1,7,39.62c.32-.22-.37-1.53-.86-1.46l-.46.09a1.78,1.78,0,0,1-1.58-.44l2.19-1.59c1.41-1,2.79-2,4.17-3.08a4.38,4.38,0,0,0,1-1.06,2.69,2.69,0,0,1,1.17-1.21c-.25.77-.49,1.51-.76,2.23-.06.14-.25.23-.38.35s-.6.46-.69.76-1.19,1.3-1.82,2.36a1.73,1.73,0,0,0-.42,1.29l.28-.08a2.81,2.81,0,0,1,1-.1c1.64.14,1.08,2.93,3.67,4.63.86.56,1.15,2.1.2,2.66-.6-.77-1.34-1.91-2.31-2-.8-.08-1.68.55-2.43.28a14.49,14.49,0,0,1-1.76-.8l-1-.47a2.77,2.77,0,0,1-.36.58A1.78,1.78,0,0,1,4,42.44c-.16-.23,0-.52-.07-.8L3.74,41l-.21,0a16.91,16.91,0,0,0,0,1.74c.24,1.15.7,1.61,1.86,1.53a6.85,6.85,0,0,1,2.4.28,9.2,9.2,0,0,1,1.72.74c.18.1.39.16.57.25a1.34,1.34,0,0,0,1.66-.28c.19-.18.39-.33.59-.49l.13.09a4.5,4.5,0,0,1-.18.7,2.59,2.59,0,0,1-3.76,1.11l-.06,0c-.74-.4-1.41-.91-2.34-.54-.34.13-.44-.14-.36-.43s.23-.73.34-1.09l-.22-.08a9,9,0,0,0-.71,1.74c-.07.31.23.72.43,1,.6,1,1,1.9.28,3,0,0,0,.11,0,.21a5.94,5.94,0,0,0,3.52-1.55c0,.11.09.24.14.35-.25.48-.5,1-.78,1.55A2.89,2.89,0,0,0,10,50.46a28.76,28.76,0,0,0,2.44,4.33l0,.05a7.58,7.58,0,0,0,2,2.29,5.46,5.46,0,0,0,2.59,1.35l0,.1a6.54,6.54,0,0,1,.41-2.78,11.1,11.1,0,0,1,3.34-4.31,32,32,0,0,0,3.71-3.55A12.08,12.08,0,0,0,26,45.88a9.07,9.07,0,0,0,.78-2.18c2.11-3.5-.37-9.08-.62-9.62a22.66,22.66,0,0,1,2.24,4.65,8.21,8.21,0,0,1,.14,5.52A7.76,7.76,0,0,1,27,46.59c-.63.67-1.26,1.23-1.88,1.84a29.2,29.2,0,0,0-3.32,3.88c-.95,1.38-2.69,3.09-3.07,4.47a5.81,5.81,0,0,0,.58,4.1c1.27,2.77,4.43,4.9,6.86,7.31l-.11.19a16.37,16.37,0,0,1-4.56-2.62,13.53,13.53,0,0,1-3.09-3.46c3.71,10.35,6.8,13,8.85,13.76a8.27,8.27,0,0,1,1.37-6c-.08.33-1,4.22-.09,6.35a103.16,103.16,0,0,0,4.35,12.75s.82,2.54,2.26,7.68c-7.17.72-6.84,3.5-6.84,3.5l11.17-.51,1-7.57c.23.9.85,3.35,1.79,7.38-7.19.4-7,3.19-7,3.19H46.46l1-5.88A6.12,6.12,0,0,0,47,93.28L46.46,92s1-10.56.58-15c0,0,3.83-3.77,3.59-14C51.9,69.6,52.26,73.4,52.26,73.4l-2.28,4c4.21.32,10.54.2,14.44-1.36a67.19,67.19,0,0,0,10.44-4.64,31.8,31.8,0,0,1,.4-10.13c-.36,12.55,5.6,15,5.6,15a14.54,14.54,0,0,1-1.56.61L80.75,79A9.87,9.87,0,0,1,82,87.47c-.55,1.81-1.15,3.91-1.57,5.76-6,.23-6.18,3.39-6.18,3.39H85.85c0-1.76,1.93-8.35,2.69-10.93l.63.94s-2,5.79-3,10.18C80.12,97,80,100.2,80,100.2H91.57c0-2.19,3-12,3-12l1.6-2a19.18,19.18,0,0,1-2.79-4.79c-.61-2,1.19-18,1.39-19,.1-.51-.28-2.61.62-3.84a35.68,35.68,0,0,0-1.55-4.43,15.31,15.31,0,0,1,2.67,5.06,8.62,8.62,0,0,1,1.63,2.93c1.16,3.53,2.69,8,4,11.1,2.48,5.85,8.22,9,11,9a13.56,13.56,0,0,0,5.32-.9,12,12,0,0,0,3.25-.28s2-.93,3.29-4.31C123.65,76.9,121.78,76.36,120.24,77.53ZM14.8,35.61a2.3,2.3,0,0,1-1.77,0,.42.42,0,0,1-.26-.47,2.3,2.3,0,0,1,.94-1.51,2.29,2.29,0,0,1,1.77,0,.42.42,0,0,1,.27.47A2.4,2.4,0,0,1,14.8,35.61Zm6.36,3.63a5.83,5.83,0,0,1-3.88,3.9,8.23,8.23,0,0,0,2.85-9.06C21.16,35,21.66,37.56,21.16,39.24Zm4.14-8.09c-1.05,1.05-3.14,2.54-4.24,1.21.2,0,.32-.43.41-.87a.91.91,0,0,0-1-1.06,6.32,6.32,0,0,0-1.14.23,5.23,5.23,0,0,1,.42-1.78A6.68,6.68,0,0,1,23.67,26c1.62-.46,3.42-.06,3.53,1.61C27.26,28.44,26.74,29.71,25.3,31.15ZM39,89s0-.42,0-1.12c.51,1.54.94,2.78,1.17,3.43Z"/><path d="M45.39,123.76v-14.2h2.36v11.77h5.9v2.43Z"/><path d="M55.47,123.76V109.44h2.37v14.32Z"/><path d="M59.82,116.69a10.11,10.11,0,0,1,.76-4.22,5.63,5.63,0,0,1,2-2.46,5.15,5.15,0,0,1,3-.81,5.07,5.07,0,0,1,4.1,1.92,8.38,8.38,0,0,1,1.59,5.48,8.52,8.52,0,0,1-1.68,5.61,5.42,5.42,0,0,1-8,0A8.41,8.41,0,0,1,59.82,116.69Zm2.44-.1a6.11,6.11,0,0,0,.94,3.7,2.82,2.82,0,0,0,2.33,1.24,2.79,2.79,0,0,0,2.32-1.23,6.27,6.27,0,0,0,.92-3.76,6.1,6.1,0,0,0-.9-3.68,2.76,2.76,0,0,0-2.34-1.19,2.84,2.84,0,0,0-2.36,1.2A6.21,6.21,0,0,0,62.26,116.59Z"/><path d="M73.29,123.76V109.44H75.6L80.4,119v-9.56h2.21v14.32H80.23l-4.73-9.34v9.34Z"/></svg>