<svg id="Layer_1" data-name="Layer 1" xmlns="http://www.w3.org/2000/svg" width="128" height="128" viewBox="0 0 128 128"><title>Artboard 67</title><path d="M41.72,123.76V109.44h3.81a12.05,12.05,0,0,1,2.78.2A3.2,3.2,0,0,1,50,111.06a5.19,5.19,0,0,1,.68,2.79,5.3,5.3,0,0,1-.59,2.61,3.39,3.39,0,0,1-1.46,1.47,7.68,7.68,0,0,1-3,.43H44.09v5.4Zm2.37-11.9v4.07H45.4a5.82,5.82,0,0,0,1.79-.18,1.63,1.63,0,0,0,.78-.67,2.24,2.24,0,0,0,.3-1.19,2.2,2.2,0,0,0-.31-1.21,1.54,1.54,0,0,0-.77-.65,7.11,7.11,0,0,0-1.95-.17Z"/><path d="M52.84,109.44H55.2v7.75a18.81,18.81,0,0,0,.09,2.36A2.42,2.42,0,0,0,56,121a2.28,2.28,0,0,0,1.56.52,2.21,2.21,0,0,0,1.34-.37,1.81,1.81,0,0,0,.71-1,12.36,12.36,0,0,0,.19-2.79v-7.92h2.37V117a20.11,20.11,0,0,1-.31,4.16,3.55,3.55,0,0,1-1.39,2.08,4.7,4.7,0,0,1-2.85.8,5.29,5.29,0,0,1-2.86-.66,3.76,3.76,0,0,1-1.5-1.85,14.35,14.35,0,0,1-.46-4.41Z"/><path d="M64.93,123.76V109.44h2.36v6.37l4.8-6.37h3.19L70.85,115l4.67,8.74H72.45L69.21,117l-1.92,2.4v4.33Z"/><path d="M76.91,109.44h2.37v7.75a22,22,0,0,0,.08,2.36,2.42,2.42,0,0,0,.75,1.46,2.28,2.28,0,0,0,1.56.52,2.21,2.21,0,0,0,1.34-.37,1.76,1.76,0,0,0,.71-1,12.36,12.36,0,0,0,.19-2.79v-7.92h2.37V117a19.42,19.42,0,0,1-.31,4.16,3.5,3.5,0,0,1-1.39,2.08,4.69,4.69,0,0,1-2.84.8,5.3,5.3,0,0,1-2.87-.66,3.74,3.74,0,0,1-1.49-1.85,14,14,0,0,1-.47-4.41Z"/><path d="M45.42,69.51a17.15,17.15,0,0,1-1.1,1.58c-.77,1-1.62,2-2.42,3h0l0,0A29,29,0,0,0,39.2,76.8h0a22.13,22.13,0,0,1-1.86,3.5,39.62,39.62,0,0,1-2.8,3.9c.15,1.23.38,2.55.55,3.82l.57,4c.38,2.5.68,5,1,7.53l.55-.14.35-.08,0,.34.68,2.49,2-1c-.64-2.65-1.2-5.06-1.66-7.74a9.25,9.25,0,0,1-.16-2.11c.07-.7.15-1.4.28-2.09A18.56,18.56,0,0,1,40,85a5.88,5.88,0,0,1,1.22-1.82c.5-.48,1-1,1.47-1.48a30.9,30.9,0,0,0,2.74-3.12,3.93,3.93,0,0,0,.51-.84,4.46,4.46,0,0,1,.58-1c.44-.56.9-1.09,1.37-1.61s.93-1,1.38-1.58a9.42,9.42,0,0,0,.93-1.25C48.6,71.29,45.59,69.21,45.42,69.51Z"/><path d="M76.06,76c.08,1.6.15,3.2.22,4.8.13,2.32.13,4.69.42,7a6.37,6.37,0,0,1,0,1.85h0c.17.52.33,1.06.48,1.59a12.4,12.4,0,0,1,.39,2.19c.1,1.37.21,3.32.26,4.68l.74.27,0,1.67c.59-.33,1.15-.62,1.69-.89-.16-2-.14-4-.2-6.05,0-.54,0-1.07,0-1.62s0-1.06,0-1.61a2.92,2.92,0,0,1,.13-.82,1.16,1.16,0,0,1,.22-.39.83.83,0,0,0,.16-.31,4.76,4.76,0,0,0,.12-1.56c0-.53-.07-1.07-.07-1.62s0-1.09.08-1.62c.07-1.07.21-2.14.36-3.2.26-2,.56-4,1-5.93-.37.2-.74.39-1.12.55A13.76,13.76,0,0,1,76.06,76Z"/><path d="M97.46,42.64a5.3,5.3,0,0,0,1.19,0,2.89,2.89,0,0,0,1-.26,14.54,14.54,0,0,0,.48-1.86c0-.38-.51-.8-1-1.06a9.36,9.36,0,0,1-1-.45,6.87,6.87,0,0,1-.83-.66,33.71,33.71,0,0,1-2.79-3l0-.06v0c0-.66,0-1.33,0-2a13.89,13.89,0,0,0,.78-1.43,12.86,12.86,0,0,0,2-.35,4.1,4.1,0,0,0,1.63-.94,2.92,2.92,0,0,0,.88-1.71,7.11,7.11,0,0,0,0-2.06,5.83,5.83,0,0,0-1.87.24,6.22,6.22,0,0,0-1.47.7,2.13,2.13,0,0,0-.55.49c-.17.2-.32.43-.49.66a14.11,14.11,0,0,0-.91,1.82l-1.5.71.67-2.89a3.45,3.45,0,0,0-1.46-2.88,15.6,15.6,0,0,0-2.91-1.92,11.37,11.37,0,0,1-5-5.16,10.6,10.6,0,0,1-.72-1.69,10.4,10.4,0,0,1-.35-1.8,30.47,30.47,0,0,1-.17-3.57c0-1.71.11-3.41.22-5.1C83.16,7,83.06,7.6,83,8.17c-.2,1.24-.34,2.49-.43,3.74s-.16,2.49-.15,3.73a12,12,0,0,0,.13,1.83,8.3,8.3,0,0,0,.58,1.72A16.56,16.56,0,0,0,85,22.36a11.15,11.15,0,0,0,2.78,2.4c.52.35,1,.73,1.54,1.12a6,6,0,0,1,1.39,1.37,2.39,2.39,0,0,1,0,2c-.2.57-.66,1.74-.93,2.3a10.71,10.71,0,0,0-2.88-3.39,15.62,15.62,0,0,0-3.75-1.86A22.39,22.39,0,0,1,79,24.9,8.56,8.56,0,0,1,75.77,22a11.07,11.07,0,0,1-1.61-4,30.73,30.73,0,0,1-.54-4.24c-.13-2.33-.09-4.63,0-6.93a21.41,21.41,0,0,0-.45,2.54,30.51,30.51,0,0,0-.25,4.17,21.63,21.63,0,0,0,1.32,8.13A9.48,9.48,0,0,0,76.34,25,5.83,5.83,0,0,0,78,26.19c.59.28,1.3.49,2,.74s1.33.5,2,.77a11.26,11.26,0,0,1,1.92,1,7,7,0,0,1,1.45,1.59c.27.39.79,1.36,1.13,2l-.24-.08c-.65.27-1.3.52-2,.75.34.23.68.45,1,.68l0,.06c-.59-.21-1.79-.74-1.79-.74l-1-1.66a6.61,6.61,0,0,0-1.29-1.18,8.74,8.74,0,0,0-1.86-.57,7.21,7.21,0,0,0-2.13-.34,11.71,11.71,0,0,0,.19,2.65,3.26,3.26,0,0,0,1,1.79,4,4,0,0,0,1.83.85,8.76,8.76,0,0,0,2,.19l.46,0a25,25,0,0,1,1.92,1.79l-.05.05a5.86,5.86,0,0,1-2-.92,25.54,25.54,0,0,0-1.65,6.57c-.19,1.27-.33,2.55-.46,3.84-.06.64-.13,1.28-.22,1.93a8.06,8.06,0,0,1-.45,2,1.89,1.89,0,0,1-.78.87,3.44,3.44,0,0,1-1,.38,8.35,8.35,0,0,1-2.05.07c-.67,0-1.33-.14-2-.22a12,12,0,0,0-1.9-.06c-1.3.05-2.6.16-3.91.24-.66,0-1.31.08-2,.07a10.93,10.93,0,0,1-2-.23,24.55,24.55,0,0,1-3.78-1.13c-.62-.22-1.22-.48-1.82-.73a15.33,15.33,0,0,0-1.86-.57,35.73,35.73,0,0,0-3.86-.65c-1.29-.15-2.59-.27-3.89-.38l-2-.17a17.85,17.85,0,0,0-1.91-.1,10.38,10.38,0,0,0-3.7.84l-1.81.75c-.6.24-1.19.5-1.78.79-1.15.55-2.22,1.23-3.43,1.7a8.47,8.47,0,0,0-1.52,1.22,11.41,11.41,0,0,0-1.21,1.58A6.89,6.89,0,0,0,30.83,56a6.29,6.29,0,0,0-.28,1.92,10.55,10.55,0,0,0,.93,3.8c.51,1.22,1.19,2.38,1.69,3.66a6.85,6.85,0,0,1,.32,1c.07.38.11.67.18,1,.14.65.31,1.31.44,2a8.6,8.6,0,0,1,.06,4.13,7.13,7.13,0,0,1-1,1.81c-.41.55-.84,1.08-1.29,1.58-.89,1-1.83,1.94-2.78,2.88,0,2.07-.1,4.11-.18,6.17l-.17,6.23h0l-.8,6.81.88.17.22,0v.23l.28,1.93,2-1c-.18-2.43-.33-4.87-.43-7.3a32.62,32.62,0,0,1,0-3.83,16.5,16.5,0,0,1,.9-3.76A11.8,11.8,0,0,1,33.59,82l2.59-2.8c.87-.93,1.74-1.85,2.62-2.77s1.38-2,2.42-2.83c.84-1,1.69-1.91,2.51-2.89a15.37,15.37,0,0,0,1.17-1.52,22.63,22.63,0,0,0,1.24-3,7.56,7.56,0,0,0,.24-1.93,6.71,6.71,0,0,0-.19-1.82,16.37,16.37,0,0,1-.55-1.95l.06,0a6.54,6.54,0,0,1,1.16,1.71,4.29,4.29,0,0,1,.42,2.09,7.86,7.86,0,0,1-.47,2c-.23.62-.81,2.09-.86,2.23a49.13,49.13,0,0,0,5.17,3.65c.9.57,1.81,1.15,2.74,1.66.47.25.94.5,1.42.71a8,8,0,0,0,1.49.45,16.53,16.53,0,0,0,3.21.36c1.09,0,2.16-.09,3.24-.17,2.11-.11,4.16-.2,6.31-.13,0-.17-.09-.33-.14-.49a20.56,20.56,0,0,1-1.34-6.93A17.64,17.64,0,0,1,68.29,64a12.29,12.29,0,0,1,1-3.46h.07a22.21,22.21,0,0,0-.65,7A20,20,0,0,0,69.36,71c.32,1.13,1.2,3.34,1.2,3.34s.5,1.87.7,2.8.39,1.86.55,2.81c.32,1.87.56,3.76.75,5.65v0h0a26.52,26.52,0,0,0,0,2.82c0,.47.06.94.11,1.41a12.57,12.57,0,0,0,.21,1.39v.06a14.39,14.39,0,0,0-.2,2.2q0,1.13,0,2.25c0,1.43,0,3.36,0,4.79l.64.27.18.08v.2l-.08,1,1.69-1c-.1-1-.27-2-.4-3.11a19.14,19.14,0,0,1-.13-3.55c0-.59.06-1.17.12-1.77a5.26,5.26,0,0,1,.18-.93,2.18,2.18,0,0,1,.53-.89A2.63,2.63,0,0,0,76,89.52a6.07,6.07,0,0,0,0-1.65,32.14,32.14,0,0,1-.17-3.52c0-1.18,0-2.34,0-3.51,0-1.6.06-6.3.08-7H76l.09,1.88c.53-.62,1.07-1.19,1.55-1.82a16.17,16.17,0,0,0,1.57-2.19,8.83,8.83,0,0,0,.88-2.56,17.92,17.92,0,0,0,.28-2.75h.07a18.82,18.82,0,0,1,0,2.81,9.12,9.12,0,0,1-.73,2.74,8.13,8.13,0,0,1-1.55,2.42,8.32,8.32,0,0,1-2.07,1.57v0a16.35,16.35,0,0,0,4.56-1.48,10.12,10.12,0,0,0,2-1.27,6.61,6.61,0,0,0,1.51-1.73,34,34,0,0,0,2.19-4.25,43.81,43.81,0,0,1,2.05-4.41C89.15,61.39,90,60,90.7,58.55c.37-.72.71-1.45,1-2.19.16-.37.33-.74.46-1.11a6.91,6.91,0,0,0,.27-1.11,22.17,22.17,0,0,0,0-4.75c-.12-1.48-.32-3-.57-4.44l-.2,0a4.71,4.71,0,0,1-.53,0,8.71,8.71,0,0,1-2.06-.31,2.54,2.54,0,0,1-1-.59,5.24,5.24,0,0,1-.65-.84,3.82,3.82,0,0,1-.62-2h.07a5.15,5.15,0,0,0,1,1.67,7.06,7.06,0,0,0,.67.67,2,2,0,0,0,.76.36,18.12,18.12,0,0,0,1.92.38l.49.06h.44a5.66,5.66,0,0,0,1-.16l1-.25a2.46,2.46,0,0,1,1-.09c.7.14,1.33.44,2,.52a1.82,1.82,0,0,0,1.64-.31,3.54,3.54,0,0,0,.77-1,5.09,5.09,0,0,1-.87.14,4.71,4.71,0,0,1-1.31-.17A15.91,15.91,0,0,1,95,42.28l0-.06C95.81,42.37,96.64,42.54,97.46,42.64Zm-6.11-5.91a1.76,1.76,0,0,1-1.28,0,1.71,1.71,0,0,1-.76-1,.26.26,0,0,1,.16-.33,1.73,1.73,0,0,1,1.29,0,1.75,1.75,0,0,1,.76,1A.27.27,0,0,1,91.35,36.73Z"/><path d="M73.58,102.7l.08.17h2.63s-1-1.23-1-1.23S73.58,102.7,73.58,102.7Z"/><path d="M29.49,102l.09.19h3.08s-1.2-1.43-1.22-1.43S29.49,102,29.49,102Z"/><path d="M38.79,102.56l.07.16H41.5s-1-1.23-1-1.23S38.79,102.56,38.79,102.56Z"/><path d="M78.69,100.49l.08.16H81.4s-1-1.23-1-1.23S78.69,100.49,78.69,100.49Z"/></svg>