<svg id="Layer_1" data-name="Layer 1" xmlns="http://www.w3.org/2000/svg" width="128" height="128" viewBox="0 0 128 128"><title>Artboard 80</title><path d="M18.25,12.49l2.31-.27c.26,1.83,1.11,2.74,2.56,2.74a2.38,2.38,0,0,0,1.69-.56A1.8,1.8,0,0,0,25.42,13a1.55,1.55,0,0,0-.21-.83,1.57,1.57,0,0,0-.65-.56,19.5,19.5,0,0,0-2.13-.74,7.07,7.07,0,0,1-2.22-1,3.84,3.84,0,0,1-1.12-1.41,4.27,4.27,0,0,1-.41-1.88,4.16,4.16,0,0,1,.53-2.11,3.45,3.45,0,0,1,1.47-1.41A5,5,0,0,1,23,2.6a4.48,4.48,0,0,1,3.24,1.12,4.52,4.52,0,0,1,1.23,3.22l-2.38.12a2.57,2.57,0,0,0-.67-1.61A2.15,2.15,0,0,0,22.93,5a2.4,2.4,0,0,0-1.47.4,1.21,1.21,0,0,0-.52,1,1.27,1.27,0,0,0,.47,1,6.75,6.75,0,0,0,2.16.88,8.77,8.77,0,0,1,2.58,1.08,3.75,3.75,0,0,1,1.22,1.48A5.15,5.15,0,0,1,27.79,13a4.51,4.51,0,0,1-1.15,3.13,4.6,4.6,0,0,1-3.59,1.27C20.17,17.4,18.57,15.77,18.25,12.49Z"/><path d="M29.5,10.09a10,10,0,0,1,.76-4.21,5.61,5.61,0,0,1,2-2.47,5.21,5.21,0,0,1,2.95-.81A5.09,5.09,0,0,1,39.3,4.52,8.4,8.4,0,0,1,40.89,10a8.55,8.55,0,0,1-1.68,5.62,4.92,4.92,0,0,1-4,1.78,5,5,0,0,1-4-1.76A8.43,8.43,0,0,1,29.5,10.09Zm2.44-.1a6.14,6.14,0,0,0,.94,3.71,2.82,2.82,0,0,0,4.65,0,6.3,6.3,0,0,0,.92-3.77,6.12,6.12,0,0,0-.9-3.68,2.91,2.91,0,0,0-4.7,0A6.21,6.21,0,0,0,31.94,10Z"/><path d="M42.92,2.84h2.37V10.6A21.8,21.8,0,0,0,45.37,13a2.47,2.47,0,0,0,.75,1.47,2.33,2.33,0,0,0,1.56.51A2.28,2.28,0,0,0,49,14.57a1.82,1.82,0,0,0,.71-1,12.1,12.1,0,0,0,.2-2.79V2.84h2.36v7.52A19.59,19.59,0,0,1,52,14.53a3.53,3.53,0,0,1-1.39,2.08,4.64,4.64,0,0,1-2.84.79,5.4,5.4,0,0,1-2.87-.65,3.73,3.73,0,0,1-1.49-1.86,14,14,0,0,1-.47-4.41Z"/><path d="M57.63,17.16V5.27H54.14V2.84h9.33V5.27H60V17.16Z"/><path d="M65.21,17.16V2.84h2.36V8.48h4.66V2.84h2.36V17.16H72.23V10.9H67.57v6.26Z"/><path d="M77.24,17.16V2.84H86V5.27H79.61V8.44h5.9v2.41h-5.9v3.89h6.56v2.42Z"/><path d="M88.38,17.16V2.84h5a6.91,6.91,0,0,1,2.74.39,3,3,0,0,1,1.34,1.34A4.52,4.52,0,0,1,98,6.85a4.27,4.27,0,0,1-.8,2.7,3.54,3.54,0,0,1-2.29,1.29A6.29,6.29,0,0,1,96.15,12a16.81,16.81,0,0,1,1.35,2.33l1.43,2.79H96.1L94.39,14a21.25,21.25,0,0,0-1.26-2.11,2,2,0,0,0-.7-.59,3.44,3.44,0,0,0-1.2-.16h-.48v6ZM90.75,8.9H92.5a9,9,0,0,0,2-.14,1.38,1.38,0,0,0,.72-.57A2.15,2.15,0,0,0,95.54,7a2,2,0,0,0-.27-1.1,1.47,1.47,0,0,0-.75-.57,9.72,9.72,0,0,0-1.92-.1H90.75Z"/><path d="M100.44,17.16V2.84h2.3l4.81,9.56V2.84h2.2V17.16h-2.38l-4.73-9.34v9.34Z"/><path d="M17.47,123.76V109.44h5a6.86,6.86,0,0,1,2.73.39,3,3,0,0,1,1.35,1.33,4.68,4.68,0,0,1,.53,2.28,4.27,4.27,0,0,1-.81,2.71A3.62,3.62,0,0,1,24,117.44a5.76,5.76,0,0,1,1.26,1.19A17.24,17.24,0,0,1,26.59,121l1.42,2.8H25.19l-1.72-3.12a20,20,0,0,0-1.26-2.11,1.8,1.8,0,0,0-.7-.59,3.15,3.15,0,0,0-1.19-.16h-.49v6Zm2.36-8.27h1.76a8.51,8.51,0,0,0,2.05-.14,1.27,1.27,0,0,0,.71-.57,2.14,2.14,0,0,0,.28-1.14,2,2,0,0,0-.28-1.1,1.35,1.35,0,0,0-.74-.57,9.37,9.37,0,0,0-1.92-.11H19.83Z"/><path d="M29.5,123.76V109.44h8.71v2.42H31.87V115h5.9v2.41h-5.9v3.88h6.56v2.43Z"/><path d="M40.64,123.76V109.44h8.71v2.42H43V115h5.9v2.41H43v3.88h6.57v2.43Z"/><path d="M51.76,109.44h4.32a6.28,6.28,0,0,1,2.47.37A4.07,4.07,0,0,1,60.09,111a6.2,6.2,0,0,1,1.1,2.26,12.45,12.45,0,0,1,.4,3.44,11.05,11.05,0,0,1-.42,3.23,6.36,6.36,0,0,1-1.06,2.17,4.07,4.07,0,0,1-1.56,1.21,5.78,5.78,0,0,1-2.34.41H51.76Zm2.36,2.42v9.47H55.9a4.69,4.69,0,0,0,1.65-.21,1.88,1.88,0,0,0,.84-.65,3.82,3.82,0,0,0,.55-1.37,11.69,11.69,0,0,0,.21-2.47,11.12,11.12,0,0,0-.22-2.51,3.22,3.22,0,0,0-.68-1.44,2.19,2.19,0,0,0-1.13-.69,8.87,8.87,0,0,0-1.92-.13Z"/><path d="M63.8,109.44h4.71a7.35,7.35,0,0,1,2.7.35A3,3,0,0,1,72.53,111a4,4,0,0,1,.08,3.88,3,3,0,0,1-1.19,1.24,3.18,3.18,0,0,1,1.63,1.27,3.93,3.93,0,0,1,.59,2.19,4.51,4.51,0,0,1-.75,2.64,3.12,3.12,0,0,1-1.78,1.33,18,18,0,0,1-3.31.18h-4Zm2.37,2.38v3.31h1.56a15.07,15.07,0,0,0,1.74,0,1.46,1.46,0,0,0,1-.51,1.77,1.77,0,0,0,.34-1.13,1.74,1.74,0,0,0-.28-1,1.17,1.17,0,0,0-.67-.49,13.67,13.67,0,0,0-2.27-.1Zm0,5.7v3.81h2.2a7,7,0,0,0,1.86-.15,1.43,1.43,0,0,0,.69-.59,2.15,2.15,0,0,0,.28-1.13,2,2,0,0,0-.3-1.15,1.51,1.51,0,0,0-.79-.62,7.32,7.32,0,0,0-2-.17Z"/><path d="M75.82,109.44h2.36v7.75a18.81,18.81,0,0,0,.09,2.36A2.42,2.42,0,0,0,79,121a2.28,2.28,0,0,0,1.56.52,2.21,2.21,0,0,0,1.34-.37,1.81,1.81,0,0,0,.71-1,12.36,12.36,0,0,0,.19-2.79v-7.92h2.37V117a20.11,20.11,0,0,1-.31,4.16,3.55,3.55,0,0,1-1.39,2.08,4.69,4.69,0,0,1-2.84.8,5.3,5.3,0,0,1-2.87-.66,3.69,3.69,0,0,1-1.49-1.85,14,14,0,0,1-.47-4.41Z"/><path d="M95.4,118.49l2.29.89a6.41,6.41,0,0,1-1.79,3.51A4.46,4.46,0,0,1,92.83,124a4.55,4.55,0,0,1-3.72-1.77,8.49,8.49,0,0,1-1.64-5.51A9,9,0,0,1,89.12,111,4.67,4.67,0,0,1,93,109.2a4.42,4.42,0,0,1,3.3,1.34,5.78,5.78,0,0,1,1.39,2.84l-2.34.69a3.12,3.12,0,0,0-.9-1.78,2.2,2.2,0,0,0-1.58-.62,2.51,2.51,0,0,0-2.12,1.13,6.49,6.49,0,0,0-.82,3.74,6.9,6.9,0,0,0,.8,3.85,2.44,2.44,0,0,0,2.08,1.14,2.15,2.15,0,0,0,1.62-.73A4.61,4.61,0,0,0,95.4,118.49Z"/><path d="M99.94,123.76V109.44h2.36v6.37l4.8-6.37h3.2L105.87,115l4.66,8.74h-3.07L104.23,117l-1.93,2.4v4.33Z"/><path d="M100.9,46.1a2.82,2.82,0,0,1-.54-1.59c-1.62-1.47-4.08-3.71-5.2-4.78a3.19,3.19,0,0,1-.91-1.44,2.06,2.06,0,0,0-1.37-1.43,2.82,2.82,0,0,0-2,.33c-.65.65-2.42.52-3.66.26a4.46,4.46,0,0,1,.2,1.3,1.64,1.64,0,0,1,.2.32c.13.13.19.26.32.39a1.77,1.77,0,0,0,.78.59,2.42,2.42,0,0,1-1-.39,7.46,7.46,0,0,1-.79-.72v-.13a6.42,6.42,0,0,0-.91-2.21,5.48,5.48,0,0,0-1.57-1.69,13.79,13.79,0,0,0-2.09-1.17,11.54,11.54,0,0,0-1.37-.45,12.13,12.13,0,0,0,.27,1.56,13.62,13.62,0,0,0,.91,2.27,5.82,5.82,0,0,0,1.37,1.69c.13,0,.2.13.26.2a3.8,3.8,0,0,0,1,.65,3.84,3.84,0,0,0,1.17.39h.07a.15.15,0,0,1,.13.13,13.15,13.15,0,0,1,.26,1.63c-.2-.39-.39-.85-.59-1.3a5.34,5.34,0,0,1-2-.39c-.59,2.53-4.05,9-5.29,10.21s-3.32.58-5.41.13l-.85-.2a4.64,4.64,0,0,0-1.89-.06,68.48,68.48,0,0,1-10.38.32,15.25,15.25,0,0,1-1.76-.26,83.37,83.37,0,0,0-17.55-1.43c-2.35.26-6.07,2.08-8,3.32a3.7,3.7,0,0,0-1.44,1.75c-1,2.87-.91,8.33-.59,11.13a2.68,2.68,0,0,0,.52,1.3c1.18,1.56,1.24,4,1,5.66-.19,1.17-2,3.51-5.41,7a2.06,2.06,0,0,0-.52,1.36c.06,3.58.39,14.57.45,17.56l.46-.06a.71.71,0,0,1,.78.58l.33,1.56,1.24-.58-1-1.63a5.16,5.16,0,0,1-.59-2C27.75,92,27.42,85.51,27.75,84a7,7,0,0,1,1.63-3.64,3.19,3.19,0,0,0,.46-.39c5.55-4.75,9.13-8,10.7-9.63,1.11-1.17,1.76-1.89,2.22-2.34a11.12,11.12,0,0,0,1.5-1.63l.13-.13a.24.24,0,0,1,.07-.13l.06-.06a12.82,12.82,0,0,0,1.57-1.63,12,12,0,0,0,1.37-1.89,15.64,15.64,0,0,0,1-2.14A15.12,15.12,0,0,0,49,58.07a9.74,9.74,0,0,1-.2,2.4,16,16,0,0,1-.71,2.34A24.18,24.18,0,0,1,46.94,65c-.33.52-.72,1.1-1.11,1.62,1.43.91,7.44,4.1,19,3.38-.07-.32-.13-.58-.2-.84a16.61,16.61,0,0,1-.26-1.82,15.91,15.91,0,0,1-.07-1.82,17.12,17.12,0,0,1,.13-1.82,15.12,15.12,0,0,0,.27,1.75,7.26,7.26,0,0,0,.39,1.69,8.17,8.17,0,0,0,.58,1.63,8.33,8.33,0,0,0,.79,1.49c.06,0,.06.07.06.07s.13.19.13.32,1.11,6.9,1.57,8.66a5.27,5.27,0,0,0,1.11,2.53.59.59,0,0,1,.19.46c0,.84.07,12.09.07,14.7l.46.13a.73.73,0,0,1,.45.52l.59,2.34,1.5-.65-1.24-1.89a1,1,0,0,1-.13-.39l-.52-15v-.19a21.17,21.17,0,0,0,.65-3.06c0-.46.07-2.34.07-4.23s.06-3.77.06-4.36c0-.06.07-.13.07-.19V70c0-.06.06-.06.06-.13a16.38,16.38,0,0,0,.85-2c.26-.71.46-1.36.65-2.08s.33-1.43.46-2.14a12.73,12.73,0,0,0,.13-2.22A12.92,12.92,0,0,1,74,63.73c0,.71,0,1.49-.06,2.21s-.2,1.49-.33,2.21A16.22,16.22,0,0,1,73,70.36v.13c1.44-.39,5.68-1.69,7.64-4.29a30.56,30.56,0,0,1,3.33-3.78,20.75,20.75,0,0,0,2.61-3.12A30.26,30.26,0,0,0,90.4,48.44l-1.11-.19-.92-.13h-.13a.22.22,0,0,0-.19-.07.65.65,0,0,1-.33-.13,1.43,1.43,0,0,1-.46-.46l-2-3.18,2.54,2.79c.13.07.2.13.26.13h.33l.91-.06,1.76-.07h.26c.27,0,.79-.13,1.24-.19l1.24-.2a4.74,4.74,0,0,1,2.48.59c.4.19.85.33,1.18.46,1.11.32,1.37.13,1.37.13l.39-.53-1.37-.58-1-.46L96.33,46a1.38,1.38,0,0,1-.52-.32,2,2,0,0,1,.59.06l.59.13,1.11.26c.39.07.71.2,1.11.26l1.1.26h.07c.13.07.33.07.46.13a.91.91,0,0,0,.71-.26.63.63,0,0,0,.13-.36A.81.81,0,0,1,100.9,46.1ZM94.38,42c-.07.07-.13,0-.2,0l-.2-.06-.32-.13a3.47,3.47,0,0,1-.72-.26l-.65-.26a.89.89,0,0,1-.39.06,1,1,0,1,1,1-1l.46.52.52.52.26.26.13.13C94.38,41.81,94.44,41.81,94.38,42ZM86,32.25a10,10,0,0,0,1.18,2c.26.26.46.58.72.84l.39.39.19.2.07.06c.06,0,.13.07.19.13a2.56,2.56,0,0,0,1.11-.06c.13-.07.33-.2.53-.33a1.35,1.35,0,0,1-.53-.32A9.94,9.94,0,0,1,88,33.35a8.84,8.84,0,0,1-2.09-4.62,9.79,9.79,0,0,1,.66-4.94,8.36,8.36,0,0,1,1.24-2.15,5.34,5.34,0,0,1,1.56-1.41c.09-.05.17-.11.26-.15h-.06l0,0a.18.18,0,0,0-.07.05,6.52,6.52,0,0,0-3,3.16,13.55,13.55,0,0,0-1.17,4.49,8.64,8.64,0,0,0,.06,2.28A6.19,6.19,0,0,0,86,32.25ZM74.47,99.37v.06l.4.52h1.82l-.91-1.1Zm-.58-18.54a6.11,6.11,0,0,1,.58-1.36,4,4,0,0,0,.53-2c.06-.91.13-4.29.26-6.17A18.55,18.55,0,0,1,73,72v2.53c0,2,0,3.77-.06,4.29a24.77,24.77,0,0,1-.66,3.26l.53,14.63,1,1.5L75,97.68,74,95.4c-.06-.06-.06-.13-.06-.26l-.26-13.46c0-.07.06-.2.06-.26ZM71.6,101.19l.33.65v-.07h2.61l-1.18-1.36ZM38.26,99.3l.32.65h2.61L40,98.59ZM34.8,87.21v-.07a12.65,12.65,0,0,1,1-7.61c.39-.72,1.89-3.45,3.26-6-1.89,1.75-4.57,4.16-8,7.09l4.83,15.54.39-.13a.71.71,0,0,1,.92.46l.52,1.43,1.5-.59C38.06,95.53,35.32,90.72,34.8,87.21Zm-6.07,13.91.39.72h2.61l-1.3-1.56ZM27.55,62.49a6.44,6.44,0,0,0,1.05,1.76,6,6,0,0,0,.65.71V64.9c-.39-3-.46-8.65.65-11.78a11.93,11.93,0,0,0-1.43,1.56c-.2.26-.33.59-.52.85s-.13.33-.2.46l-.13.19-.07.26a7.11,7.11,0,0,0-.39,2,12.86,12.86,0,0,0,0,2.15A6.69,6.69,0,0,0,27.55,62.49Z"/></svg>