<svg id="Layer_1" data-name="Layer 1" xmlns="http://www.w3.org/2000/svg" width="128" height="128" viewBox="0 0 128 128"><title>Artboard 81</title><path d="M17.47,123.76V109.44h5a6.86,6.86,0,0,1,2.73.39,3,3,0,0,1,1.35,1.33,4.68,4.68,0,0,1,.53,2.28,4.27,4.27,0,0,1-.81,2.71A3.62,3.62,0,0,1,24,117.44a5.76,5.76,0,0,1,1.26,1.19A17.24,17.24,0,0,1,26.59,121l1.42,2.8H25.19l-1.72-3.12a20,20,0,0,0-1.26-2.11,1.8,1.8,0,0,0-.7-.59,3.15,3.15,0,0,0-1.19-.16h-.49v6Zm2.36-8.27h1.76a8.51,8.51,0,0,0,2.05-.14,1.27,1.27,0,0,0,.71-.57,2.11,2.11,0,0,0,.28-1.14,2,2,0,0,0-.28-1.1,1.35,1.35,0,0,0-.74-.57,9.37,9.37,0,0,0-1.92-.11H19.83Z"/><path d="M29.5,123.76V109.44h8.71v2.42H31.87V115h5.9v2.41h-5.9v3.88h6.56v2.43Z"/><path d="M40.64,123.76V109.44h8.71v2.42H43V115h5.9v2.41H43v3.88h6.57v2.43Z"/><path d="M51.76,109.44h4.32a6.28,6.28,0,0,1,2.47.37A4.07,4.07,0,0,1,60.09,111a6.2,6.2,0,0,1,1.1,2.26,12.45,12.45,0,0,1,.4,3.44,11.05,11.05,0,0,1-.42,3.23,6.36,6.36,0,0,1-1.06,2.17,4.07,4.07,0,0,1-1.56,1.21,5.78,5.78,0,0,1-2.34.41H51.76Zm2.36,2.42v9.47H55.9a4.69,4.69,0,0,0,1.65-.21,1.88,1.88,0,0,0,.84-.65,3.82,3.82,0,0,0,.55-1.37,11.69,11.69,0,0,0,.21-2.47,11,11,0,0,0-.22-2.5,3.21,3.21,0,0,0-.68-1.45,2.19,2.19,0,0,0-1.13-.69,8.87,8.87,0,0,0-1.92-.13Z"/><path d="M63.8,109.44h4.71a7.35,7.35,0,0,1,2.7.35A3,3,0,0,1,72.53,111a4,4,0,0,1,.08,3.88,3,3,0,0,1-1.2,1.24,3.16,3.16,0,0,1,1.64,1.27,3.93,3.93,0,0,1,.59,2.19,4.51,4.51,0,0,1-.75,2.64,3.09,3.09,0,0,1-1.78,1.33,18,18,0,0,1-3.31.18h-4Zm2.37,2.38v3.31h1.56a15.07,15.07,0,0,0,1.74,0,1.46,1.46,0,0,0,1-.51,1.77,1.77,0,0,0,.34-1.13,1.81,1.81,0,0,0-.28-1,1.21,1.21,0,0,0-.67-.49,15.16,15.16,0,0,0-2.28-.1Zm0,5.7v3.81h2.2a7,7,0,0,0,1.86-.15,1.43,1.43,0,0,0,.69-.59,2.15,2.15,0,0,0,.28-1.13,2,2,0,0,0-.3-1.15,1.51,1.51,0,0,0-.79-.62,7.32,7.32,0,0,0-2-.17Z"/><path d="M75.82,109.44h2.36v7.75a18.81,18.81,0,0,0,.09,2.36A2.42,2.42,0,0,0,79,121a2.28,2.28,0,0,0,1.56.52,2.21,2.21,0,0,0,1.34-.37,1.81,1.81,0,0,0,.71-1,12.36,12.36,0,0,0,.19-2.79v-7.92h2.37V117a20.29,20.29,0,0,1-.31,4.17,3.61,3.61,0,0,1-1.39,2.08,4.68,4.68,0,0,1-2.84.79,5.3,5.3,0,0,1-2.87-.66,3.76,3.76,0,0,1-1.5-1.85,14.35,14.35,0,0,1-.46-4.41Z"/><path d="M95.4,118.49l2.29.89a6.41,6.41,0,0,1-1.79,3.51A4.44,4.44,0,0,1,92.83,124a4.55,4.55,0,0,1-3.72-1.77,8.49,8.49,0,0,1-1.64-5.51A9,9,0,0,1,89.12,111,4.67,4.67,0,0,1,93,109.2a4.42,4.42,0,0,1,3.3,1.34,5.78,5.78,0,0,1,1.39,2.84l-2.34.69a3.12,3.12,0,0,0-.9-1.78,2.2,2.2,0,0,0-1.58-.62,2.51,2.51,0,0,0-2.12,1.13,6.49,6.49,0,0,0-.82,3.74,7,7,0,0,0,.8,3.85,2.44,2.44,0,0,0,2.08,1.14,2.15,2.15,0,0,0,1.62-.73A4.61,4.61,0,0,0,95.4,118.49Z"/><path d="M99.94,123.76V109.44h2.36v6.37l4.8-6.37h3.2L105.87,115l4.66,8.74h-3.06L104.23,117l-1.93,2.4v4.33Z"/><path d="M33.72,3.24h4.7a7.12,7.12,0,0,1,2.71.36,3,3,0,0,1,1.32,1.24,3.78,3.78,0,0,1,.54,2,3.78,3.78,0,0,1-.46,1.87A3,3,0,0,1,41.33,10,3.2,3.2,0,0,1,43,11.22a3.93,3.93,0,0,1,.59,2.19,4.45,4.45,0,0,1-.76,2.64A3,3,0,0,1,41,17.38a18,18,0,0,1-3.31.18h-4Zm2.37,2.39V8.94h1.56c.94,0,1.52,0,1.74,0a1.5,1.5,0,0,0,.94-.51,1.73,1.73,0,0,0,.35-1.13,1.79,1.79,0,0,0-.28-1,1.18,1.18,0,0,0-.68-.5,15.53,15.53,0,0,0-2.27-.09Zm0,5.69v3.82h2.2A7,7,0,0,0,40.15,15a1.4,1.4,0,0,0,.69-.6,2.11,2.11,0,0,0,.27-1.12,2.08,2.08,0,0,0-.29-1.16,1.53,1.53,0,0,0-.8-.62,7.7,7.7,0,0,0-2-.17Z"/><path d="M45.28,10.49A10.06,10.06,0,0,1,46,6.28a5.66,5.66,0,0,1,2-2.47A5.25,5.25,0,0,1,51,3a5.09,5.09,0,0,1,4.11,1.92,8.4,8.4,0,0,1,1.59,5.48A8.55,8.55,0,0,1,55,16a5.44,5.44,0,0,1-8,0A8.43,8.43,0,0,1,45.28,10.49Zm2.44-.1a6.05,6.05,0,0,0,.94,3.71A2.83,2.83,0,0,0,51,15.33a2.79,2.79,0,0,0,2.32-1.22,6.3,6.3,0,0,0,.92-3.77,6.12,6.12,0,0,0-.9-3.68,2.91,2.91,0,0,0-4.7,0A6.14,6.14,0,0,0,47.72,10.39Z"/><path d="M58.73,17.56V3.24h2.36V8.88h4.66V3.24h2.37V17.56H65.75V11.3H61.09v6.26Z"/><path d="M70.28,10.49A10.06,10.06,0,0,1,71,6.28a5.66,5.66,0,0,1,2-2.47A5.25,5.25,0,0,1,76,3a5.09,5.09,0,0,1,4.11,1.92,8.4,8.4,0,0,1,1.59,5.48A8.55,8.55,0,0,1,80,16a5.44,5.44,0,0,1-8,0A8.43,8.43,0,0,1,70.28,10.49Zm2.44-.1a6.05,6.05,0,0,0,.94,3.71A2.83,2.83,0,0,0,76,15.33a2.79,2.79,0,0,0,2.32-1.22,6.31,6.31,0,0,0,.91-3.77,6.12,6.12,0,0,0-.89-3.68,2.91,2.91,0,0,0-4.7,0A6.14,6.14,0,0,0,72.72,10.39Z"/><path d="M83.73,17.56V3.24h5a6.91,6.91,0,0,1,2.74.39A3,3,0,0,1,92.8,5a4.63,4.63,0,0,1,.53,2.28,4.22,4.22,0,0,1-.81,2.7,3.51,3.51,0,0,1-2.29,1.29,6,6,0,0,1,1.26,1.2,15.66,15.66,0,0,1,1.36,2.33l1.43,2.79H91.45l-1.72-3.11a19.41,19.41,0,0,0-1.25-2.12,1.79,1.79,0,0,0-.71-.58,3.08,3.08,0,0,0-1.19-.17h-.49v6ZM86.09,9.3h1.76a9,9,0,0,0,2.05-.14,1.38,1.38,0,0,0,.72-.57,2.15,2.15,0,0,0,.27-1.15,2,2,0,0,0-.27-1.1,1.47,1.47,0,0,0-.75-.57A9.72,9.72,0,0,0,88,5.67H86.09Z"/><path d="M101.35,39.88a2.48,2.48,0,0,1-.48-1.5c-3.32-2.59-3.49-3.43-3.55-3.73a3.57,3.57,0,0,0-2.07-2.89A7.44,7.44,0,0,0,92,31.57a4.7,4.7,0,0,1-.25,1.64c0,.12.06.19.06.31s.07.25.13.38a2.46,2.46,0,0,0,.44.69,1.69,1.69,0,0,1-.63-.57,3.08,3.08,0,0,1-.44-.75v-.13a5.76,5.76,0,0,0-.13-1.82,4.68,4.68,0,0,0-.69-1.57,7.4,7.4,0,0,0-1.19-1.26,9.64,9.64,0,0,0-.94-.63c0,.06-.07.19-.07.25a4.39,4.39,0,0,0-.19.88,5.82,5.82,0,0,0,.13,1.83A4.72,4.72,0,0,0,89,32.51a4.31,4.31,0,0,0,1.39,1.26h.06a.25.25,0,0,1,.06.19,8.76,8.76,0,0,1-.25,1.32c-.06-.44-.06-.81-.12-1.19A4.12,4.12,0,0,1,88.46,33c-.06.06-.06.12-.13.19a7,7,0,0,0-.81,1.51c0,.06-2.46,8.81-4.09,11.26-1.32,2-6.29,2.58-10.88,2.89-.44,0-.81.07-1.13.07-.94.12-4.21.37-7.73.63-4.78.31-10.75.81-11.32.88h-.06c-5.16,0-11.06,2.45-12.64,4.53s-1.38,6.41-.75,8.3.5,7-.19,8.68c-.63,1.45-5.72,4.91-7.23,5.92-.31,1.32-1.7,7.42-2.26,8.87s-2.39,7.11-3,9.06l.25.06a.61.61,0,0,1,.5.63v1.57L28,97.63c.19-1.19.82-5.41,1.2-7.23a34.84,34.84,0,0,1,3.9-9.19,63.84,63.84,0,0,1,6.91-5.35c1.89-1.32,3.58-2.57,4.65-3.39,1.83-1.64,5.22-4.66,6.29-7.18l.06-.06c0-.06.07-.06.07-.12l.06-.07a9.41,9.41,0,0,0,1.13-1.57,16,16,0,0,0,.88-1.76,10.45,10.45,0,0,0,.57-2,7.42,7.42,0,0,0,.18-2,7.69,7.69,0,0,1,.13,2.08,12.44,12.44,0,0,1-.31,2.08,17.61,17.61,0,0,1-.7,2,7.49,7.49,0,0,1-.5,1.13c1.76.57,9.18,2.65,20.31,1.95a7.53,7.53,0,0,1-.57-1.25,19.87,19.87,0,0,1-.63-2c-.12-.69-.19-1.38-.25-2.07a11.18,11.18,0,0,1,.19-2.08,7.69,7.69,0,0,0,.13,2.08,9.72,9.72,0,0,0,.56,2,17,17,0,0,0,.88,1.82,11.22,11.22,0,0,0,1.07,1.7,1,1,0,0,1,.13.38v.12c.18,1.32.37,9.94.37,10.32a13.21,13.21,0,0,0,.57,3.9.4.4,0,0,1,.06.25c-.06,1.26-.63,11.2-.75,13.66.56.12.94.31.94.75a13.28,13.28,0,0,1,.32,1.64l1.19-.51c-.31-1.57-1.26-6.35-1.07-8.8.19-2.9.57-6.36.57-6.42s.06-.06.06-.13a16,16,0,0,0,.94-5.6c0-3.27.32-8.18.32-8.24s.06-.13.06-.19A.39.39,0,0,1,78,68l.07-.06a12.41,12.41,0,0,0,1-1.45,11.66,11.66,0,0,0,.82-1.57,16.86,16.86,0,0,0,.56-1.7,8.75,8.75,0,0,0,.19-1.83,5.82,5.82,0,0,1,.13,1.83c-.06.56-.19,1.19-.32,1.82-.12.32-.18.7-.31,1,1.32-.5,4.4-2.08,5-3.84a11.21,11.21,0,0,0,.63-2.77,6.28,6.28,0,0,1,.44-1.95,17.8,17.8,0,0,1,1.44-2.77,21.84,21.84,0,0,0,2-4c.44-1.7,1.63-8.37,1.88-9.94l-.38-.07H91.1c0-.06-.06-.06-.13-.06s-.19-.06-.25-.12a1.37,1.37,0,0,1-.38-.38L88.77,37.3l2.08,2.45c.06.06.12.13.19.13H93a10.3,10.3,0,0,1,2.08,0,10.84,10.84,0,0,1,3,.94,12.12,12.12,0,0,0,1.39.57.83.83,0,0,0,.75,0l.57-.38c-.51-.25-1-.44-1.45-.63L98.39,40,98,39.81a1,1,0,0,1-.44-.25,1.4,1.4,0,0,1,.5.06l.51.13.94.25a4.67,4.67,0,0,0,.94.25l.95.19a.2.2,0,0,1,.18.07h.07l.18-.48A.72.72,0,0,1,101.35,39.88Zm-5.41-4-.13-.06-.25-.13L95,35.41l-.44-.25a.84.84,0,0,1-.38.06.85.85,0,1,1,.88-.82v.07l.31.44.38.44.32.31c.06,0,.06,0,.06.19S96,35.85,95.94,35.85ZM94.81,93.17l-1.45.12.07.76,1.88.75ZM93.36,92.1l1.2-.13-.07-3L88.9,78.32a.39.39,0,0,1-.06-.25,6.69,6.69,0,0,0-2.08-4.22.06.06,0,0,1-.06-.06c-.94-1.2-3.59-5.79-4.47-7.11a11.5,11.5,0,0,1-2.51,1h-.13a7.86,7.86,0,0,1-.5,1.07c0,.18,0,.75-.06,1.63a.44.44,0,0,1,.31.13l6.29,5.09c.06.07.13.19.19.25.38.76,1.07,2,1.57,2.14a.74.74,0,0,1,.31.32c.19.44,3.27,7.17,5,11l.51.12a.59.59,0,0,1,.44.69ZM93,22.32a7,7,0,0,0-1.44,2.58c-.13.5-.25,1-.32,1.45a3.84,3.84,0,0,0,.19,1.45,5.21,5.21,0,0,0,.38,1.38,2.75,2.75,0,0,0,.25.63c.06.13.13.19.19.31s.06.07.06.13.07.06.07.13a7.16,7.16,0,0,1,1.32-.07.06.06,0,0,1-.07-.06,8,8,0,0,1-.75-1.45,7.83,7.83,0,0,1-.69-3.14,6.24,6.24,0,0,1,.94-3,4.67,4.67,0,0,1,1-1.2,3.65,3.65,0,0,1,1.19-.63A4.48,4.48,0,0,0,93,22.32ZM77.65,98.83l-1.32.57.31.69h2.07ZM47.91,78.38l.12-.12c1.83-1.83,7.36-7.37,8.43-10.89a33.56,33.56,0,0,1-4.34-1.13,16.43,16.43,0,0,1-3,4.05c-1.22,1.28-2.51,2.43-3.42,3.25L42,80.08l6,15.86.63.06a.61.61,0,0,1,.44.25l.7.94,1.25-.56c-1.38-2.14-5.4-8.75-5.59-11.33C45.21,82.16,45.83,80.46,47.91,78.38Zm3.77,19.19-1.32.63.32.63h2.07ZM33.45,60.7a40,40,0,0,0,3.77-2.64,9.54,9.54,0,0,1,.44-2A12.55,12.55,0,0,0,33.45,60.7Zm-5,38.19-1.32.57.31.63h2.08Z"/></svg>