<svg id="Layer_1" data-name="Layer 1" xmlns="http://www.w3.org/2000/svg" width="128" height="128" viewBox="0 0 128 128"><title>Artboard 69</title><path d="M40.81,123.76V109.44h5a6.91,6.91,0,0,1,2.74.39,3,3,0,0,1,1.35,1.33,4.68,4.68,0,0,1,.52,2.28,4.32,4.32,0,0,1-.8,2.71,3.62,3.62,0,0,1-2.29,1.29,5.76,5.76,0,0,1,1.26,1.19A18.4,18.4,0,0,1,49.94,121l1.42,2.8H48.53l-1.71-3.12a20,20,0,0,0-1.26-2.11,1.87,1.87,0,0,0-.7-.59,3.19,3.19,0,0,0-1.19-.16h-.49v6Zm2.37-8.27h1.76a8.56,8.56,0,0,0,2.05-.14,1.27,1.27,0,0,0,.71-.57,2.14,2.14,0,0,0,.27-1.14,2,2,0,0,0-.27-1.1A1.35,1.35,0,0,0,47,112a9.5,9.5,0,0,0-1.93-.11H43.18Z"/><path d="M52.36,116.69a10.11,10.11,0,0,1,.76-4.22,5.63,5.63,0,0,1,2-2.46,5.51,5.51,0,0,1,7.06,1.11,8.38,8.38,0,0,1,1.59,5.48,8.52,8.52,0,0,1-1.68,5.61,5.42,5.42,0,0,1-8,0A8.41,8.41,0,0,1,52.36,116.69Zm2.44-.1a6.11,6.11,0,0,0,.94,3.7,2.82,2.82,0,0,0,2.33,1.24,2.79,2.79,0,0,0,2.32-1.23,6.27,6.27,0,0,0,.92-3.76,6.1,6.1,0,0,0-.9-3.68,2.76,2.76,0,0,0-2.34-1.19,2.84,2.84,0,0,0-2.36,1.2A6.21,6.21,0,0,0,54.8,116.59Z"/><path d="M76.4,123.76H73.83l-1-3.25H68.1l-1,3.25H64.61l4.57-14.32h2.51ZM72,118.09l-1.62-5.31-1.59,5.31Z"/><path d="M77.87,123.76V109.44h2.3L85,119v-9.56h2.21v14.32H84.8l-4.72-9.34v9.34Z"/><path d="M34.66,37.41a5.45,5.45,0,0,0,.76-1.32,2.12,2.12,0,0,0,.11-.33.47.47,0,0,0,0-.26,4.32,4.32,0,0,0-.19-.69A3.5,3.5,0,0,1,35.24,33c.1-.55.23-1.09.38-1.62.29-1,.67-2.07,1-3.08a8.94,8.94,0,0,0,.41-1.56,4.19,4.19,0,0,1,.67-1.52,1.66,1.66,0,0,0,.13-1.44,6.4,6.4,0,0,0-.7-1.38c-.27-.45-.57-.88-.88-1.3a7.54,7.54,0,0,0-.47-.61,1.62,1.62,0,0,0-.22-.19c.12-1.24.36-3.13.51-4.31A26.9,26.9,0,0,1,37,11.67c.42-1.4.87-2.79,1.39-4.16A13.73,13.73,0,0,1,39.84,4.7a4.89,4.89,0,0,0-.74.55A10.88,10.88,0,0,0,37.67,7a15.5,15.5,0,0,0-1.86,4.12c-.4,1.47-.86,3-1.31,4.42s-.92,2.91-1.21,4.24c-.4-.06-.79-.11-1.18-.14-.23,0-.45,0-.68.06-.29-1.33-.79-2.87-1.16-4.16-.45-1.46-.91-2.95-1.31-4.42A15.79,15.79,0,0,0,27.11,7a11.51,11.51,0,0,0-1.44-1.72,4.44,4.44,0,0,0-.74-.55,13.73,13.73,0,0,1,1.49,2.81c.53,1.37,1,2.76,1.39,4.16A25.86,25.86,0,0,1,28.68,16c.15,1.17.16,3,.26,4.17a1.29,1.29,0,0,0-.31.14,1.24,1.24,0,0,0-.22.2,7.47,7.47,0,0,0-.46.61,12.32,12.32,0,0,0-.82,1.34,7,7,0,0,0-.6,1.38,1.57,1.57,0,0,0,.16,1.28,4.37,4.37,0,0,1,.62,1.59c.05.29.05.57.08.82s.07.52.12.79c.19,1.06.44,2.11.72,3.16l.44,1.57c.06.27.13.53.18.82a3.39,3.39,0,0,1,0,.9c-.07.29-.15.57-.19.78a.5.5,0,0,0,0,.27,1.49,1.49,0,0,0,.09.31,5.65,5.65,0,0,0,.77,1.29A4,4,0,0,0,32.07,39h.06A3.71,3.71,0,0,0,34.66,37.41Zm2-12.67a.24.24,0,0,1,.14.29,1.53,1.53,0,0,1-.69.94A1.59,1.59,0,0,1,35,26a.24.24,0,0,1-.15-.3,1.28,1.28,0,0,1,1.86-.93Zm-1.2-2.57A10.46,10.46,0,0,1,34.41,24c-.54.68-1.33,2.27.68,3.84.71.55.55,2.86.12,3.81-.37-2.38-1.26-2.33-1.72-3.26C31.87,25.17,35.22,22.37,35.47,22.17ZM27.71,25a.23.23,0,0,1,.14-.29,1.61,1.61,0,0,1,1.17,0,1.6,1.6,0,0,1,.69.94.24.24,0,0,1-.15.3,1.59,1.59,0,0,1-1.16,0A1.53,1.53,0,0,1,27.71,25Zm1.1,6.65c-.43-.95-.59-3.26.12-3.81,2-1.57,1.22-3.16.68-3.84a10.46,10.46,0,0,1-1.06-1.86c.25.2,3.6,3,2,6.25C30.07,29.35,29.18,29.3,28.81,31.68ZM32.13,38a7.32,7.32,0,0,1-1.6-.27c-.68-.13-1.29-1.74-1.34-2.87A6.92,6.92,0,0,1,30.36,32a4.05,4.05,0,0,0,.81.64c.28.14.73-.24.91-.42v-.09l.05.05,0-.05v.09c.19.18.63.56.91.42a4.05,4.05,0,0,0,.81-.64,6.92,6.92,0,0,1,1.17,2.94C35,36,34.4,37.63,33.72,37.76A7.32,7.32,0,0,1,32.13,38Z"/><path d="M37.49,20.1h-.06l-.93.2c.11.13.23.25.33.38a8.35,8.35,0,0,1,.89,1.41,6.36,6.36,0,0,1,.54,1.61,2.21,2.21,0,0,1,0,.77,7,7,0,0,0,1.1-1.5,3.6,3.6,0,0,1,1.35-1.63c.62-.4,1.33-.57,1.8-.9a6.36,6.36,0,0,0,1.27-1.39c.38-.54.75-1.11,1.19-1.66a8.32,8.32,0,0,1,1.84-1.3,6.5,6.5,0,0,1,3.29-.42c.27.05,0-.54-.15-.77a1,1,0,0,0-.73-.4,17.36,17.36,0,0,1-2,0,12,12,0,0,0-6.63,1.67,3,3,0,0,0-.66.66A34.15,34.15,0,0,0,37.52,20Z"/><path d="M26.67,22.1a9,9,0,0,1,.89-1.41c.1-.13.22-.25.33-.38l-.93-.2h-.05l0-.07a34.07,34.07,0,0,0-2.38-3.23,3.21,3.21,0,0,0-.67-.66,11.93,11.93,0,0,0-6.63-1.67,17.32,17.32,0,0,1-2,0,1.05,1.05,0,0,0-.73.4c-.17.23-.42.82-.15.77a6.49,6.49,0,0,1,3.29.42,8.32,8.32,0,0,1,1.84,1.3c.44.55.81,1.12,1.2,1.66a6.09,6.09,0,0,0,1.26,1.39c.47.33,1.18.5,1.8.9A3.62,3.62,0,0,1,25,23a6.61,6.61,0,0,0,1.09,1.5,2.21,2.21,0,0,1,0-.77A6.36,6.36,0,0,1,26.67,22.1Z"/><path d="M55.94,96.75l.15,0,1.19-.46c-.19-2-.31-4-.42-6,0-1.06-.08-2.1,0-3.18.07-.66-.12-1.37-.08-2a24.31,24.31,0,0,1-2-6c-.39-2.28-.94-4.53-1.5-6.79l-1.47-5.92A12.29,12.29,0,0,1,50,66.11c.34,1.37.48,2.23.77,3.64.33,1.57.63,3.13.9,4.72.12.78.24,1.59.32,2.39a22.94,22.94,0,0,0,.34,2.33,26.53,26.53,0,0,0,1.29,4.55v.07l.12,4.85c0,1.62.11,3.23.13,4.85,0,.41,0,.81,0,1.23A3,3,0,0,1,53.52,96a12.15,12.15,0,0,1-1.31,2.1l-.59.73a24.61,24.61,0,0,0,2.49,1.24c.58-1.06,1.16-2.12,1.75-3.17Z"/><path d="M100.84,77.72C99.93,76,99,74.18,98.06,72.43c-.48-.86-.94-1.8-1.42-2.63S95.57,68.13,95,67.3c-.88-1.31-1.37-2-2.29-3.3A16.51,16.51,0,0,1,87,68.15a52.76,52.76,0,0,0,4.06,5.75c1.51,1.82,3.25,3.15,3.62,3.68a7.09,7.09,0,0,1,.83,2.16A15.22,15.22,0,0,1,96,82a10.67,10.67,0,0,1,0,2.26,41.75,41.75,0,0,1-1.71,6.15c-1.43,3.93-3.48,8.2-3.48,8.2s2.11,1.3,2.34,1.46l.32-1.45,1,.19a64.14,64.14,0,0,1,3.34-10.09c1.29-3,2.65-6,4-9C101.48,79,101.16,78.36,100.84,77.72Z"/><path d="M49.85,100.91l3.88.09.1-.22s-2.61-1.47-2.63-1.47S49.85,100.91,49.85,100.91Z"/><path d="M55.4,102.78l3.88.09.1-.22s-2.61-1.47-2.63-1.47S55.4,102.78,55.4,102.78Z"/><path d="M88.89,100.91l3.88.09.11-.22s-2.61-1.47-2.64-1.47S88.89,100.91,88.89,100.91Z"/><path d="M98.7,102.78l3.88.09.1-.22s-2.61-1.47-2.63-1.47S98.7,102.78,98.7,102.78Z"/><path d="M33.6,35c-.19,0-1.07.93-1.47.93s-1.29-.88-1.48-.93-.43.35-.29.75a5.25,5.25,0,0,0,1,1.24c.2.21.37.61.73.61s.52-.4.72-.61a5.25,5.25,0,0,0,1-1.24C34,35.35,33.8,34.94,33.6,35Z"/><path d="M113.42,68.77c-.66-.88-1.77,0-3.31-2.1s-.9-3.66-.48-6.32,2-7.09,2.35-9.2-.66-4.32-4.75-8.42v.13l-.43-.54a27.72,27.72,0,0,0-3.39-3.46,10.46,10.46,0,0,0-4.11-2.34,26.17,26.17,0,0,0-4.76-.81c-1.62-.15-3.26-.23-4.89-.24s-3.27.09-4.91.1l-9.82.14c-1.65,0-3.28,0-4.93,0-.41,0-.83,0-1.25-.09a9.37,9.37,0,0,1-1.24-.26c-.81-.21-1.6-.47-2.38-.75-1.55-.55-3.07-1.16-4.59-1.8-.37-.15-.78-.35-1.11-.45a4.42,4.42,0,0,0-1.1-.26A13.47,13.47,0,0,0,56,32a29.32,29.32,0,0,1-5,.09,11.11,11.11,0,0,1-2.44-.69c-.77-.3-1.53-.61-2.29-.93-1.51-.64-3-1.35-4.46-2.07q-1.11-.54-2.19-1.14a8.65,8.65,0,0,1-1.65-1c-.11.25-1.37,4.23-1.61,5.27-.11.52-.21,1-.28,1.56a3,3,0,0,0,.12,1.41,2.59,2.59,0,0,1,.19.88c-.21,2.74-2.83,4.83-3.93,4.69A12.75,12.75,0,0,0,34,44a10.69,10.69,0,0,0,1.52,2.11c.63.65,1.26,1.32,1.83,2s1.11,1.46,1.71,2.15,1.24,1.33,1.86,2A8.87,8.87,0,0,1,42.3,54a10.53,10.53,0,0,1,.86,1.79,4.36,4.36,0,0,0,0-.51c-.07-1-.25-2.46-.32-3.45-.08-2,.43-3,.42-5h.08a12,12,0,0,1,.45,3,28.78,28.78,0,0,1-.26,2.92c0,1,.12,2,.13,3a9.65,9.65,0,0,0,.43,2.9A12.28,12.28,0,0,0,47,63.56,7.13,7.13,0,0,0,49.37,65a12.92,12.92,0,0,0,2.58.6l-.08-.29a16.82,16.82,0,0,0-.47-1.66,13.66,13.66,0,0,0-.75-1.54,12.83,12.83,0,0,0-2-2.81l0-.07A13.4,13.4,0,0,1,50.88,62a14.59,14.59,0,0,1,.86,1.55c.24.57.36,1.13.55,1.68.67,2.23,1.34,4.47,1.94,6.72s1.24,4.5,1.66,6.81a23.79,23.79,0,0,0,2.29,6.44l0,.06,0,.07c.23,1.63.4,3.22.56,4.83s.33,3.22.42,4.84c0,.42,0,.82,0,1.24a3.52,3.52,0,0,1-.28,1.3,13.92,13.92,0,0,1-1.22,2.18c-.24.34-.73,1-.73,1a17.24,17.24,0,0,0,2.6,1.35l1.71-3.77L63,97.51c-.28-2.27-.61-4.54-.92-6.81s-.78-7.06-.78-7.06a16.59,16.59,0,0,0,.24-2.49,8.14,8.14,0,0,0-.15-1.22A7.31,7.31,0,0,0,61,78.79s-.23-1.65-.25-2.25l0-1.75a16.18,16.18,0,0,0-.1-1.71c-.06-.57-.19-1.1-.3-1.71a40.55,40.55,0,0,1-.64-6.77,8.74,8.74,0,0,1,.71-3.51,12,12,0,0,0,.57-1.61A7.89,7.89,0,0,0,61,57.79a17.31,17.31,0,0,0-.55-3.41,9.94,9.94,0,0,0-1.37-3.17l.06-.05a11.1,11.1,0,0,1,2.08,3.13,15,15,0,0,1,.7,3.46,7.75,7.75,0,0,1,0,1.8,11.07,11.07,0,0,1-.54,1.71,8.65,8.65,0,0,0-.6,3.16,10.43,10.43,0,0,1,3.59.38,26.32,26.32,0,0,1,4.22,1.29,43.5,43.5,0,0,0,8.34,2.17,21.66,21.66,0,0,0,4.33.3,13.2,13.2,0,0,0,4.18-.91,25.63,25.63,0,0,0,7.15-4l-.65-.94c-.62-.77-1.08-1.72-2-2a7.53,7.53,0,0,0-2.67-.73v-.08a8.68,8.68,0,0,1,3,.43,2.6,2.6,0,0,1,1.27.87c.34.38.65.77,1,1.16,1.23,1.58,2.42,3.19,3.59,4.81.58.82,1.15,1.64,1.69,2.5s1,1.73,1.49,2.62c1,1.73,2,3.48,2.88,5.26.45.89.91,1.79,1.33,2.7a13.54,13.54,0,0,1,1,2.9,17.91,17.91,0,0,1,0,6.11,26.64,26.64,0,0,1-1.63,5.84c-.68,1.8-1.44,3.54-2.31,5.35l2.26,1.54.62-1.7,1.35.15q1.55-5.2,3.06-10.43l1.52-5.34a14.25,14.25,0,0,0,.71-2.65,6.94,6.94,0,0,0-.18-2.65,34.58,34.58,0,0,1-3.1-8.16c-.17-.71-.34-1.42-.47-2.15l-.2-1.08a5.53,5.53,0,0,1-.14-1.12,16.69,16.69,0,0,1,1-4.35c.44-1.38.93-2.72,1.42-4.07a11.17,11.17,0,0,1,0,2.07,11,11,0,0,0,.67,5.65,16.19,16.19,0,0,0,1,3.12,4.43,4.43,0,0,1,.45,2c0,1.32.7,2.91,3,5.56C113.86,75.53,114.09,69.66,113.42,68.77Z"/></svg>