<svg id="Layer_1" data-name="Layer 1" xmlns="http://www.w3.org/2000/svg" width="128" height="128" viewBox="0 0 128 128"><title>Artboard 70</title><path d="M36.52,119.09l2.31-.28c.26,1.83,1.12,2.75,2.56,2.75a2.43,2.43,0,0,0,1.69-.56,1.82,1.82,0,0,0,.62-1.39,1.45,1.45,0,0,0-.22-.83,1.59,1.59,0,0,0-.65-.57,18.68,18.68,0,0,0-2.13-.73,7.29,7.29,0,0,1-2.22-1,3.68,3.68,0,0,1-1.12-1.41A4.37,4.37,0,0,1,37,113.2a4.24,4.24,0,0,1,.53-2.11A3.53,3.53,0,0,1,39,109.67a5.08,5.08,0,0,1,2.32-.47,4.45,4.45,0,0,1,3.23,1.12,4.52,4.52,0,0,1,1.23,3.21l-2.37.13a2.55,2.55,0,0,0-.68-1.61,2.11,2.11,0,0,0-1.47-.46,2.37,2.37,0,0,0-1.48.4,1.24,1.24,0,0,0,0,2,6.53,6.53,0,0,0,2.15.88,9,9,0,0,1,2.59,1.09,3.69,3.69,0,0,1,1.21,1.47,5.23,5.23,0,0,1,.42,2.2,4.48,4.48,0,0,1-1.15,3.13A4.59,4.59,0,0,1,41.32,124Q37,124,36.52,119.09Z"/><path d="M58.85,123.76H56.28l-1-3.25h-4.7l-1,3.25H47.06l4.57-14.32h2.51Zm-4.36-5.67-1.62-5.31-1.59,5.31Z"/><path d="M60.29,109.44H65a7.41,7.41,0,0,1,2.71.35A3.06,3.06,0,0,1,69,111a3.78,3.78,0,0,1,.54,2,3.87,3.87,0,0,1-.46,1.87,3.06,3.06,0,0,1-1.2,1.24,3.14,3.14,0,0,1,1.63,1.27,3.85,3.85,0,0,1,.59,2.19,4.51,4.51,0,0,1-.75,2.64,3.06,3.06,0,0,1-1.78,1.33,17.86,17.86,0,0,1-3.31.18h-4Zm2.36,2.38v3.31h1.57a15,15,0,0,0,1.73,0,1.44,1.44,0,0,0,1-.51,1.71,1.71,0,0,0,.34-1.13,1.74,1.74,0,0,0-.28-1,1.14,1.14,0,0,0-.67-.49,13.58,13.58,0,0,0-2.27-.1Zm0,5.7v3.81h2.2a6.91,6.91,0,0,0,1.86-.15,1.35,1.35,0,0,0,.69-.59,2.39,2.39,0,0,0,0-2.28,1.51,1.51,0,0,0-.79-.62,7.27,7.27,0,0,0-2-.17Z"/><path d="M72.39,123.76v-14.2h2.37v11.77h5.89v2.43Z"/><path d="M82.55,123.76V109.44h8.72v2.42H84.92V115h5.9v2.41h-5.9v3.88h6.56v2.43Z"/><path d="M22.46,65.13c.37.75.75,1.5,1.14,2.24.67,1.37,1.41,2.71,2.12,4.09a7.89,7.89,0,0,0,.45-1.23,5.52,5.52,0,0,0,.15-.68,19,19,0,0,1-1.39-2.24,16.1,16.1,0,0,1-1.22-3.14,7.15,7.15,0,0,1-.26-1.7c0-.56,0-1.12,0-1.68a15.88,15.88,0,0,1,.15-1.68,4.68,4.68,0,0,1,.4-1.45,9.38,9.38,0,0,1,0-1.91A9.11,9.11,0,0,1,24.39,54a10.36,10.36,0,0,0-2.32,4,10.09,10.09,0,0,0-.46,4.86A8.93,8.93,0,0,0,22.46,65.13Z"/><path d="M44.2,90.59c-.32-.54-.67-1-1-1.56a8.59,8.59,0,0,1-1.71-3.6,12.56,12.56,0,0,1,.23-3.94l.67-3.77a13.65,13.65,0,0,0,.25-1.85,5.84,5.84,0,0,1,.25-2A30.54,30.54,0,0,1,44,70.7a8,8,0,0,1-3.55-2.12,12.21,12.21,0,0,0-1,1.68,3.67,3.67,0,0,1-.4.63,3.09,3.09,0,0,1-.57.47c-.4.27-.92.6-1.32.83A10.25,10.25,0,0,0,36,72.9a3.15,3.15,0,0,0-.48.41A4.44,4.44,0,0,1,36,75.25,17.66,17.66,0,0,1,36.15,78,22.74,22.74,0,0,1,36,80.7a14.43,14.43,0,0,1-.52,2.55c.39.66.9,1.34,1.38,2l1.52,2.1q1.53,2.1,3,4.23l.74,1.07a5.39,5.39,0,0,0,.74,1c.57.63,1.2,1.25,1.77,1.92A6.42,6.42,0,0,1,46,97.84a5.18,5.18,0,0,0,.17.61,1.67,1.67,0,0,0,.33.5,2,2,0,0,0,1,.52l2.8-1.83c-1.7-1.75-3.37-3.54-4.93-5.45A15,15,0,0,1,44.2,90.59Z"/><path d="M68.61,89.18c-.7.44-1.4.86-2.13,1.25a6.11,6.11,0,0,1,0,.74c0,.33.13.48-.14.82a.54.54,0,0,1-.29.15l-.25,0c-.15,0-.31,0-.47.06l-.8.06c.14.75.17,1,.36,1.71.13.56.31.79.42,1.35a31.64,31.64,0,0,1,2.38-2.25c.51-.42,1-.86,1.56-1.24S70.6,91,70.6,91l.25-3.33S69.3,88.74,68.61,89.18Z"/><path d="M78.88,78.1a11.87,11.87,0,0,0-.6-1.18c-.43-.76-.94-1.49-1.4-2.24-.23-.38-.44-.76-.64-1.17a5.68,5.68,0,0,1-.49-1.27,14.47,14.47,0,0,0-.52-2.11c-.06,1.55-.07,3.12-.07,4.67l0,3.64a1.72,1.72,0,0,1,.45.34,3.76,3.76,0,0,1,.5.77,5.52,5.52,0,0,1,.33.83,2.56,2.56,0,0,1,.11,1,2,2,0,0,1-.24.51,3.38,3.38,0,0,1-.27.36,6.07,6.07,0,0,1-.59.65,8.87,8.87,0,0,1-1.1.93c0,1,.07,2,.11,3.06.91-1.13,1.85-2.22,2.78-3.29l.87-1a5.15,5.15,0,0,0,.73-1,3.76,3.76,0,0,0,.42-2.36A4,4,0,0,0,78.88,78.1Z"/><path d="M82.05,10.53a23.2,23.2,0,0,1,3.6-.73,11.11,11.11,0,0,1,1.41-.08L87,9.7a14.31,14.31,0,0,0-3.06-.45h-.09a18.34,18.34,0,0,1-1.82.93c-.75.34-1.5.65-2.26.95s-1.54.54-2.31.8c-.55.19-1.1.38-1.62.62a22.83,22.83,0,0,0,2.77-.88C79.74,11.25,80.9,10.88,82.05,10.53Z"/><path d="M57.06,39.82l.57.52,1.14,1a32.32,32.32,0,0,1,7-2.43,14.4,14.4,0,0,1,2.47-.34,13.06,13.06,0,0,1,2.5.13c1.64.22,3.22.61,4.8.92a17.69,17.69,0,0,0,2.36.35,6,6,0,0,0,1.12,0,6.75,6.75,0,0,0,1.1-.33c1.52-.52,3.05-1.09,4.57-1.66,3-1.09,5.91-2.18,8.88-3.22l-.29-.36a5.11,5.11,0,0,1-.57-1.05,3.31,3.31,0,0,1-.26-1.2.86.86,0,0,1,0-.16c-1.56.21-3.13.37-4.67.54s-3.06.84-4.6,1.26-3.1.9-4.68,1.24c-.78.18-1.58.34-2.39.48-.41,0-.82.11-1.23.13l-1.21,0c-1.61,0-3.23.07-4.83.09s-3.23,0-4.85,0a8.44,8.44,0,0,1-2.45-.35c-.63-.24-1.32.19-1.89.65a17.82,17.82,0,0,0-3,3.42l.11.14Z"/><path d="M111.28,48a4,4,0,0,0-.28-.59l-.09-.11-.11-.12c-.11-.12-.18-.22-.27-.33-.3-.42-.58-.86-.85-1.27-.56-.84-1.1-1.69-1.66-2.51s-1.17-1.67-1.66-2.55a8.2,8.2,0,0,1-1.13-2.86,6.8,6.8,0,0,1,.23-1.53,12.49,12.49,0,0,1,.75-1.64c2-5,2.83-9.9-.06-17.46a12.13,12.13,0,0,0-2.47-3.81A19.06,19.06,0,0,0,102,11.69a12.9,12.9,0,0,0-1.87-1.24A20.55,20.55,0,0,0,93,8.27c.91.43,1.83.88,2.72,1.38a20.77,20.77,0,0,1,5.46,4.64,18.43,18.43,0,0,1,3.59,6.12,9.57,9.57,0,0,1,.69,3.54c0,1.18,0,2.35,0,3.52s-.12,2.36-.22,3.53-.19,2.11-.37,3.15h0l-.08,0h0c.24-2.21.26-4.47.29-6.71,0-1.16,0-2.33-.1-3.49a9.66,9.66,0,0,0-.74-3.32,32.91,32.91,0,0,0-3.65-5.92,15.39,15.39,0,0,0-5.22-4.36,29,29,0,0,0-3.11-1.54A13.44,13.44,0,0,0,88.9,7.77,24.58,24.58,0,0,0,82,7.68a33,33,0,0,0-6.81,1.4c-1.73.5-3.45,1-5.14,1.63,1.51-.26,3-.6,4.53-.91,1-.19,2-.5,3.09-.63a27.76,27.76,0,0,1,3.14-.29c1-.05,2.1-.07,3.14,0a14.58,14.58,0,0,1,3.16.36A18.46,18.46,0,0,1,93,11.5a19.35,19.35,0,0,1,4.75,4.22c.69.8,1.31,1.63,1.94,2.49a8.61,8.61,0,0,1,1.44,2.87,18.79,18.79,0,0,1,.58,6.32,30.74,30.74,0,0,1-.85,5.64l-.14,0a13.64,13.64,0,0,0-1.87-.77c-.43-.13-1,.41-1.47.31a18.69,18.69,0,0,1,.34,2A3.76,3.76,0,0,1,99,35.93L99,36a4.53,4.53,0,0,0-1.57-1l-.09,0,0-.15c-.22-.72-.37-1.44-.62-2.14a8,8,0,0,0-.38-1,4.75,4.75,0,0,0-.44-.93,7.37,7.37,0,0,0-1.53-1.46A15.46,15.46,0,0,1,93,28.1c0,.58-.12,1.14-.15,1.71A7.85,7.85,0,0,0,93,32.14a3.58,3.58,0,0,0,.33.84,7.54,7.54,0,0,0,.56,1c.4.58,1,1.11,1.43,1.72l.11.14-.05.13a7.62,7.62,0,0,0-.43,1.91h-.07a4.55,4.55,0,0,1-.12-1,3.83,3.83,0,0,1,.1-.88,16,16,0,0,1-1.19-1.15c-2.89,1.27-5.79,2.54-8.7,3.74-1.51.62-3,1.24-4.54,1.82a9.12,9.12,0,0,1-1.24.37,8.14,8.14,0,0,1-1.3,0,19.59,19.59,0,0,1-2.47-.33c-1.61-.3-3.18-.7-4.77-1a12.28,12.28,0,0,0-2.34-.16,15.93,15.93,0,0,0-2.37.27,37.45,37.45,0,0,0-9.13,3.11h-.05c-1.57.18-3.14.4-4.71.6s-3.12.49-4.67.77-3.1.59-4.64.94-3.08.66-4.58,1.11h-.08a11.43,11.43,0,0,0-5,1.52,19.73,19.73,0,0,0-2.22,1.46,13.33,13.33,0,0,0-1.94,1.81l0,0a8.89,8.89,0,0,1-1.82.92c-.54.23-1.08.48-1.62.73A2.78,2.78,0,0,0,24.61,54a6.86,6.86,0,0,0-.3,1.81,10.82,10.82,0,0,0,.46,3.62c.69,2.38,1.65,4.68,2.19,7.16a6,6,0,0,1,.17,2,10.53,10.53,0,0,1-.29,1.9,10.11,10.11,0,0,1-1.7,3.43A26,26,0,0,1,19.76,79c-.33,1.59-.55,3.24-.79,4.87l-.67,5a44.55,44.55,0,0,1-.83,5l-1,4.82a10.08,10.08,0,0,1,1.72,1.61,5,5,0,0,1,1.07,1.84c.35-.26,2.39-1.6,2.5-1.64a8.3,8.3,0,0,1-1.2-1.56,4.15,4.15,0,0,1-.4-1.48c0-.5,0-.95.07-1.43a37.72,37.72,0,0,1,1-5.57,18.26,18.26,0,0,1,2.05-4.9,47.32,47.32,0,0,1,3.61-4.35c2.57-2.7,4.88-5.65,7.58-8.22a9.11,9.11,0,0,1,1.09-.92,9.53,9.53,0,0,1,1.23-.71c.83-.45,1.72-.75,2.09-1.58a10.47,10.47,0,0,1,1.66-2.28,9.16,9.16,0,0,0,1.83-2.82,1.6,1.6,0,0,0,0-.23,16,16,0,0,0,.29-2.22,25.8,25.8,0,0,0-.34-4.62h.06a18.37,18.37,0,0,1,.91,4.62,6.78,6.78,0,0,1-.14,2.41A4.11,4.11,0,0,1,42.42,66s-1.61,1.92-1.75,2.11a13,13,0,0,0,6.47,2.53,31.08,31.08,0,0,0,3.75.22,11.22,11.22,0,0,0,1.85-.11c.62-.09,1.25-.21,1.87-.32a36.45,36.45,0,0,0,3.7-.94c1.21-.38,2.39-.87,3.62-1.27a5,5,0,0,1,2-.28,10.16,10.16,0,0,1,1.93.39,25.62,25.62,0,0,1,3,1.31c-.07-.52-.14-1-.22-1.58A12.44,12.44,0,0,0,68,65.54l-.11-.27-.16-.22a2.1,2.1,0,0,1-.37-.66A8.56,8.56,0,0,1,67,63a26.08,26.08,0,0,1-.33-2.64,28.28,28.28,0,0,1,.48-5.34h.07a33.1,33.1,0,0,0,.22,5.27,24.52,24.52,0,0,0,.42,2.59,7.26,7.26,0,0,0,.36,1.23,1.81,1.81,0,0,0,.26.48,3.4,3.4,0,0,1,.23.3l.18.33a13,13,0,0,1,.7,2.63c.16.88.28,1.76.39,2.64.17,1.81.16,3.54.23,5.32s.1,3.55.21,5.25c.13.65,1,1.45.91,2.47l-.12,2.64L71,91.52s-.18,4.32-.14,5.16l2.08.54.06,0,0,.05,1.53,1.92,2.2-1.74L74,94.58l-.49-11.1.86-3.28c0-1.81,0-3.6,0-5.4s.09-3.64.24-5.47A10.46,10.46,0,0,1,74.83,68a2.45,2.45,0,0,1,.22-.73c.12-.21.24-.4.37-.61.5-.76,1-1.5,1.46-2.28a8.81,8.81,0,0,0,1.53-5.07l.08,0A6.07,6.07,0,0,1,78.27,62a12.4,12.4,0,0,1-1,2.53c-.43.82-.91,1.6-1.37,2.37-.12.2-.23.39-.32.58a1.77,1.77,0,0,0-.15.58c-.07.42-.09.88-.12,1.32,0,.15,0,.3,0,.45l.08.05a5.19,5.19,0,0,0,3.36-2,13.08,13.08,0,0,0,2.12-3.38A6.41,6.41,0,0,1,82.67,62a13.22,13.22,0,0,0,.26-2.89,23.57,23.57,0,0,0-.35-3,8.89,8.89,0,0,0-.89-2.93A10.75,10.75,0,0,0,80,50.6l.07-.05a11.28,11.28,0,0,1,2.15,2.36,9.37,9.37,0,0,1,1.25,3,10.78,10.78,0,0,1,.3,3.25,12,12,0,0,1-.39,2.22l.18-.17c.52-.46,1.07-.89,1.61-1.31s1.07-.83,1.57-1.3a36.27,36.27,0,0,0,2.83-3c.89-1.06,1.69-2.18,2.57-3.26.43-.54.93-1,1.39-1.53s1.08-1.2,1.61-1.82c.41-.47.8-1,1.19-1.45s.58-.74.83-1.13a15.86,15.86,0,0,1-2.56-1.51c-.09-.1-.19-.18-.29-.3A.88.88,0,0,1,94,44.1a1.64,1.64,0,0,1,.17-.92A7.12,7.12,0,0,1,95,41.92c.61-.78,1.33-1.43,1.9-2.19l.07,0a17.25,17.25,0,0,1-1.48,2.51,7.08,7.08,0,0,0-.64,1.21,1.32,1.32,0,0,0-.09.47s0,0,0,.06v0l0,0a1.49,1.49,0,0,0,.22.21,26.37,26.37,0,0,0,2.38,1.5,6.17,6.17,0,0,1,1.2.9,7.2,7.2,0,0,0,1.18.69,16.82,16.82,0,0,0,2.7,1c.46.13.93.23,1.41.34l.71.17a2.65,2.65,0,0,1,.74.31c.93.61,1.32,1.58,2,2.06.53.48,1.42.21,2.09-.3-.3-.16-.6-.32-.89-.49a13.92,13.92,0,0,1-2.45-1.8l0-.06A20.55,20.55,0,0,0,108.88,50c.44.2.9.4,1.36.58a2.84,2.84,0,0,0,.6.16l.12-.09a1.21,1.21,0,0,0,.23-.22,1.55,1.55,0,0,0,.3-.54l.05-.14a.59.59,0,0,0,0-.13,1.42,1.42,0,0,0,0-.3A5,5,0,0,0,111.28,48Zm-8.91-9a1.45,1.45,0,0,1-1.16-.08,1.48,1.48,0,0,1-.54-1,.3.3,0,0,1,.19-.31,1.19,1.19,0,0,1,1.7,1.1A.29.29,0,0,1,102.37,39Z"/><path d="M74.88,100h3.9s-1.52-1.84-1.55-1.84-2.46,1.61-2.46,1.61Z"/><path d="M48.45,100h3.89s-1.51-1.84-1.54-1.84-2.47,1.61-2.47,1.61Z"/><path d="M63.66,92.87l-1,3.77s2.16-1,2.17-1-.92-2.79-.92-2.79Z"/><path d="M19.65,102.87h3.9S22,101,22,101s-2.46,1.6-2.46,1.6Z"/></svg>