<svg id="Layer_1" data-name="Layer 1" xmlns="http://www.w3.org/2000/svg" width="128" height="128" viewBox="0 0 128 128"><title>Artboard 82</title><path d="M28.08,123.76V109.44h3.55l2.13,9.77,2.12-9.77h3.56v14.32h-2.2V112.48L34.9,123.76H32.61l-2.32-11.28v11.28Z"/><path d="M41.5,116.69a10.29,10.29,0,0,1,.75-4.22,5.77,5.77,0,0,1,2-2.46,5.17,5.17,0,0,1,3-.81,5.09,5.09,0,0,1,4.11,1.92,8.38,8.38,0,0,1,1.58,5.48,8.57,8.57,0,0,1-1.67,5.61,5.42,5.42,0,0,1-8,0A8.41,8.41,0,0,1,41.5,116.69Zm2.44-.1a6,6,0,0,0,.94,3.7,2.81,2.81,0,0,0,2.33,1.24,2.77,2.77,0,0,0,2.31-1.23,6.2,6.2,0,0,0,.92-3.76,6.1,6.1,0,0,0-.89-3.68,2.79,2.79,0,0,0-2.34-1.19,2.83,2.83,0,0,0-2.36,1.2A6.14,6.14,0,0,0,43.94,116.59Z"/><path d="M55,123.76V109.44h2.3L62.08,119v-9.56h2.21v14.32H61.9l-4.72-9.34v9.34Z"/><path d="M67,123.76V109.44h2.36v6.37l4.8-6.37h3.19L72.94,115l4.66,8.74H74.53L71.29,117l-1.92,2.4v4.33Z"/><path d="M79,123.76V109.44h8.71v2.42H81.38V115h5.9v2.41h-5.9v3.88H88v2.43Z"/><path d="M93.24,123.76v-6l-4.3-8.29h2.77l2.76,5.66,2.72-5.66h2.73l-4.32,8.31v6Z"/><path d="M35.21,17.32,31,3h2.57l3,10.6L39.43,3H42L37.74,17.32Z"/><path d="M43.35,17.32V3h8.71V5.42H45.71V8.6h5.9V11h-5.9v3.88h6.56v2.43Z"/><path d="M54.49,17.32V3h5a6.89,6.89,0,0,1,2.73.39,3,3,0,0,1,1.35,1.33A4.68,4.68,0,0,1,64.09,7a4.25,4.25,0,0,1-.81,2.71A3.62,3.62,0,0,1,61,11a5.76,5.76,0,0,1,1.26,1.19,18.4,18.4,0,0,1,1.36,2.33L65,17.32H62.21L60.49,14.2a21.25,21.25,0,0,0-1.26-2.11,1.8,1.8,0,0,0-.7-.59,3.19,3.19,0,0,0-1.19-.16h-.49v6Zm2.36-8.27h1.76a8.56,8.56,0,0,0,2-.14,1.27,1.27,0,0,0,.71-.57,2.11,2.11,0,0,0,.27-1.14,2,2,0,0,0-.27-1.1,1.35,1.35,0,0,0-.74-.57,9.43,9.43,0,0,0-1.93-.11H56.85Z"/><path d="M69.24,17.32,65,3h2.57l3,10.6L73.46,3H76L71.77,17.32Z"/><path d="M77.38,17.32V3h8.71V5.42H79.74V8.6h5.9V11h-5.9v3.88H86.3v2.43Z"/><path d="M91.15,17.32V5.42H87.66V3H97V5.42H93.51v11.9Z"/><path d="M100.45,56.69a5.05,5.05,0,0,0,.16-1.29,1.15,1.15,0,0,0-.43-.91l-.23-.15-.24-.1a4,4,0,0,0-.63-.1,9.08,9.08,0,0,0-1.38,0c-1,.07-1.91.18-2.88.27-.5,0-1,.09-1.49.09a4.28,4.28,0,0,1-1.61-.22l0,0,0,0a6.78,6.78,0,0,0-1.81-.78c-.66-.19-1.34-.35-2-.48a20.53,20.53,0,0,0-2.07-.26,6.78,6.78,0,0,0-2,.11l-.24.06,0-.22c-.12-.77-1.49-4.23-1.5-4.42-1,1.66-1.36,2.14-2.06,3.15l-2.44,3.39c-.4.57-.8,1.14-1.18,1.71a18.52,18.52,0,0,0-1,1.63,27.63,27.63,0,0,1,.47,4,5.32,5.32,0,0,0,2.8.57,10.64,10.64,0,0,0,2.93-.84h.06a55,55,0,0,0,5.85-1c1-.23,1.91-.48,2.84-.78A15.85,15.85,0,0,0,92.91,59l.07,0h.07c.79-.12,1.56-.26,2.38-.35a4.49,4.49,0,0,1,.64,0,1.9,1.9,0,0,1,.74.13,1.11,1.11,0,0,1,.39.3,1.71,1.71,0,0,1,.13.23,1.35,1.35,0,0,1,0,.29,2.15,2.15,0,0,1-.19.71c-.36.77-.79,1.42-1.15,2.11a10,10,0,0,0-.51,1,3.22,3.22,0,0,0-.28,1v.1l0,.06a8.77,8.77,0,0,1-1.11,1.09l-.49.42a3.31,3.31,0,0,0-1,1.43,12.65,12.65,0,0,0-.5,1.74,1.15,1.15,0,0,0,0,.6s0,0,0,0a.12.12,0,0,0,.1,0,.53.53,0,0,0,.21-.19,10.27,10.27,0,0,0,.68-1.46c.28-.64.65-1.08,1-.86s-.51,1.53-.51,1.77a5.54,5.54,0,0,0,0,.71.88.88,0,0,0,.07.3c0,.09.08.08.09.08A.74.74,0,0,0,94,70a2.11,2.11,0,0,0,.16-.3,5.56,5.56,0,0,0,.3-.65c.18-.44.33-.9.5-1.35.08-.23.16-.46.26-.69s.3-.83.64-.75-.12,2.42.16,2.46.37-.86.56-1.32a3.42,3.42,0,0,1,.4-.71,1.08,1.08,0,0,1,.39-.33.75.75,0,0,0,.23-.15,7,7,0,0,0,.89-1l.43-.59a1.53,1.53,0,0,1,.14-.17s0,0,.19-.13a.37.37,0,0,1,.41.11.45.45,0,0,1,.1.26v.11l0,.34a4.69,4.69,0,0,0,.24,1.3.85.85,0,0,0,.15.25h.06l.11,0a.38.38,0,0,0,.14-.09,1.61,1.61,0,0,0,.18-1.06c0-.45-.09-.92-.15-1.4l-.19-1.45c-.11-1-.21-1.94-.24-2.93a9.93,9.93,0,0,1,.06-1.53C100.21,57.63,100.34,57.16,100.45,56.69Z"/><polygon points="100.16 66.64 100.16 66.64 100.16 66.64 100.16 66.64"/><path d="M96.45,80.57c1.46-1.42,2.94-2.84,4.29-4.32s2.68-3.07,4.06-4.58c.69-.75,1.39-1.49,2.11-2.22a20.94,20.94,0,0,1,1.84-1.68,47.4,47.4,0,0,0-2-8.29c-.25-.75-.54-1.5-.85-2.25l-.78.74-1.4,1.28a14.06,14.06,0,0,1-1.4,1.28,12.51,12.51,0,0,1-1.22.76c0,.41.06.81.11,1.22l.15,1.44c.06.47.12,1,.14,1.48a4.53,4.53,0,0,1,0,.81,1.54,1.54,0,0,1-.41.88,1.19,1.19,0,0,1-.48.28,1.11,1.11,0,0,1-.25,0l-.12,0H100a.79.79,0,0,1-.34-.14,1.11,1.11,0,0,1-.22-.21,1.6,1.6,0,0,1-.23-.42,4.69,4.69,0,0,1-.22-1,6.8,6.8,0,0,1-1,1.09,1.61,1.61,0,0,1-.39.23.4.4,0,0,0-.15.13,2.58,2.58,0,0,0-.33.55A12.49,12.49,0,0,1,96.5,69a.94.94,0,0,1-.34.35l-.08,0-.12,0a.41.41,0,0,1-.28-.09.5.5,0,0,1-.16-.31,3.11,3.11,0,0,1,0-.8l.06-.72c0-.09,0-.19,0-.29-.1.2-.18.41-.27.63l-.55,1.34c-.1.23-.66,1.57-1.11,1.3-.11-.06-.26-.72-.47-.79s-.56.93-.77,1.31a11.53,11.53,0,0,1-.79,1.27,2.4,2.4,0,0,1-.56.54c-.22.15-.44.26-.64.39a12.34,12.34,0,0,0-1.21.83A17.4,17.4,0,0,0,87,75.93a14.31,14.31,0,0,0-.94,1.1,9.61,9.61,0,0,1-3.54,2.87l-.35.18-.39.16a5.78,5.78,0,0,1-.76.21c-.51.11-1,.17-1.47.26a7.12,7.12,0,0,0-1.36.32,4.22,4.22,0,0,0-.61.28l-.66.37a5.82,5.82,0,0,1-1.44.56,2.7,2.7,0,0,1-1.2,0,3.45,3.45,0,0,1-.64.75,5.36,5.36,0,0,0-.5,1.56,2.9,2.9,0,0,0,.21,1.57l.21.48-.49.14a2.88,2.88,0,0,1-.6.12,1.13,1.13,0,0,1-.4,0v0a2.43,2.43,0,0,1,.09.44,1.26,1.26,0,0,1,0,.32.61.61,0,0,1-.29.41.79.79,0,0,1-.22.09.76.76,0,0,1-.26,0,.89.89,0,0,1-.34-.17,1.87,1.87,0,0,1-.34-.36,5.91,5.91,0,0,1-.39-.68c0,.06,0,.12,0,.19a.87.87,0,0,1-.25.56.63.63,0,0,1-.78,0,1.82,1.82,0,0,1-.56-.77,7.77,7.77,0,0,1-.28-.76c-.07-.23-.12-.46-.18-.7a3.05,3.05,0,0,1-.32.44.71.71,0,0,1-.47.21.57.57,0,0,1-.48-.27,1.81,1.81,0,0,1-.26-.71,6.8,6.8,0,0,1-.11-1.34c0-.34,0-.68,0-1l-.17,0-.47.07c-.32,0-.63.06-.94.08l-.5,0,.37-.32.27-.23a17.64,17.64,0,0,1-2,.15c-.67,0-1.35-.08-2-.1s-1.36,0-2,0a12.53,12.53,0,0,0-1.73.18s1.74,3.1.59,3.88c-.53.36-1.22-.68-1.22-.68,0,.21,0,.43,0,.65,0,.39,0,.78,0,1.18,0,.21,0,.41,0,.63a2.28,2.28,0,0,1-.18.69.86.86,0,0,1-.37.4.56.56,0,0,1-.48,0,.62.62,0,0,1-.21-.13l-.1-.13a1.26,1.26,0,0,1-.15-.4c0-.11,0-.22,0-.32,0-.34.12-1-.07-1s-.12.85-.24,1.28a1.53,1.53,0,0,1-.31.65.83.83,0,0,1-.23.15.49.49,0,0,1-.39,0,.76.76,0,0,1-.27-.4,6,6,0,0,1-.15-1.21c0-.77-.18-.18-.29.23a.83.83,0,0,1-.4.55.71.71,0,0,1-.38,0,.59.59,0,0,1-.32-.2,2.3,2.3,0,0,1-.37-1.17,11.45,11.45,0,0,1,0-1.17c0-.78,0-1.55.06-2.32l0-.57a2.81,2.81,0,0,0,0-.29l-.13.14-.39.44a4.4,4.4,0,0,1-.9.81,1.41,1.41,0,0,1-.64.25.79.79,0,0,1-.75-.33.78.78,0,0,1-.09-.6,22.92,22.92,0,0,1-2.08,1.1,9,9,0,0,1-1.29.46,3.8,3.8,0,0,1-1.43.09c-.25,0-.44-.08-.65-.12l-.64-.11a7,7,0,0,0-1.3-.08,6.16,6.16,0,0,0-1.28.17,5.62,5.62,0,0,0-1.2.46,4.8,4.8,0,0,0-1,.71,5.9,5.9,0,0,1-1,.92,8.34,8.34,0,0,1-2.58,1,44.88,44.88,0,0,1-5,.58l-.05.17-9.93.47,1.14-1.12a10,10,0,0,0-2.05,0,13.47,13.47,0,0,0-2,.39h0c-.12,0-.23.18-.29.37a2.45,2.45,0,0,0-.13.61,11.2,11.2,0,0,0-.07,1.3c0,.88.06,1.76.14,2.63.15,1.62.38,3.23.62,4.83.41-.13.82-.25,1.25-.35A10.89,10.89,0,0,1,19.88,98a6.74,6.74,0,0,1,1.79,0,3.84,3.84,0,0,1,1.61.64,9.2,9.2,0,0,0,3.26.1l.38-.09c.06,0,.21-.1.34-.15l.81-.36,1.63-.69c2.17-.91,4.36-1.78,6.6-2.53,1.12-.36,2.25-.71,3.42-1,.29-.07.58-.13.88-.18a8.87,8.87,0,0,1,.9-.14c.62-.09,1.19-.11,1.78-.15,1.17-.07,2.34-.16,3.53-.19a16.54,16.54,0,0,1,3.52.33c1.53-.16,3.06-.39,4.59-.62s3.1-.49,4.64-.77a40.44,40.44,0,0,1,4.67-.7,15.53,15.53,0,0,1,4.71.22,19.31,19.31,0,0,0,3-.57c1-.25,2-.52,2.95-.81,2-.55,3.91-1.18,5.86-1.79,1-.31,2-.61,2.93-.9s2-.53,3-.73c2-.42,4-.67,5.37-2.18S95,82,96.45,80.57Z"/><path d="M112.72,65.09a52.69,52.69,0,0,0-4.06-12.2,34.4,34.4,0,0,0-7.86-10.07A73.7,73.7,0,0,0,90.54,35a33.57,33.57,0,0,0-5.62-3.1,15.35,15.35,0,0,0-3-.89c-.52-.09-1-.15-1.58-.2-.25,0-.51,0-.76-.06a8.45,8.45,0,0,1,1.34,1.19,11,11,0,0,1,2.24,3.56c.09.27.17.54.25.81a2.25,2.25,0,0,1,1,.16c.34.13.67.27,1,.42.67.29,1.31.6,2,.94,1.28.66,2.52,1.38,3.77,2.09s2.48,1.45,3.67,2.27a38.07,38.07,0,0,1,3.38,2.7c3.58,3.24,8.32,11.71,8.32,11.71l0,.1s.71,1.68,1,2.53a44.92,44.92,0,0,1,2.11,8.38c.22,1.42.37,2.86.47,4.3,0,.71.07,1.44.09,2.16s0,1.45,0,2.17a28.7,28.7,0,0,1-.56,4.32,25.38,25.38,0,0,1-1.3,4.16,24.06,24.06,0,0,1-2,3.86,38.87,38.87,0,0,1-2.6,3.48l0,0v0a17.72,17.72,0,0,1-2.48,2,13.87,13.87,0,0,1-2.87,1.4,15.11,15.11,0,0,1-3.09.74c-1,.15-2.11.19-3.1.3H92l-.1,0A8,8,0,0,0,89.61,96a9.18,9.18,0,0,0-1.17-.07H88a6.56,6.56,0,0,0,4.54,2.73,10.57,10.57,0,0,0,3.12-.14,17.14,17.14,0,0,0,3.05-.88,22.37,22.37,0,0,0,2.88-1.38,16.92,16.92,0,0,0,2.63-1.79,23.48,23.48,0,0,0,4.23-4.77,30.24,30.24,0,0,0,3-5.64,28.79,28.79,0,0,0,1.76-6.15A36.87,36.87,0,0,0,112.72,65.09Z"/><polygon points="33.65 35.85 33.65 35.85 33.66 35.86 33.65 35.85"/><path d="M19.69,47.9l-.25.18c-.16.12-.34.24-.52.35a4,4,0,0,1-1.2.47,4.52,4.52,0,0,1-2.22-.09,6.91,6.91,0,0,0,1.16,1.39,2.57,2.57,0,0,0,1.83.67,1.81,1.81,0,0,0,.31,0,6.27,6.27,0,0,1,2.91,1l.69.46c.22.18.44.36.67.53a5,5,0,0,0,1.53.76,10.44,10.44,0,0,0,3.38.28,6,6,0,0,1,1.64,0,1.83,1.83,0,0,1,.73.32l.09.1a19.42,19.42,0,0,1,1.2,5.23c.07.87.06,1.74.08,2.6.06,1.73.16,3.45.36,5.16v.06s-.57,2.1-.86,3.11l-.88,3c-.3,1-2.33,8-2.73,9-.19.49-.9,1.92-1.05,2.15a4,4,0,0,1-.26.32c-.1.1-2,1.46-2.91,2.06l-2,1.44L25,88.38c1.32,0,2.64-.06,4-.08l.44-1.52,0-.08.06-.08c1.39-1.58,2.74-3.21,4-4.88.64-.83,1.28-1.67,1.87-2.53A22.92,22.92,0,0,0,37,76.6c.27-.92.53-1.85.77-2.77.12-.47.24-1,.34-1.42s.21-1,.27-1.41v0h0q.73-2.66,1.53-5.29t1.58-5.2a4.53,4.53,0,0,1-1.32-.56,4.41,4.41,0,0,1-.6-.44L39,59a41.59,41.59,0,0,0-4.59-3.24l0-.08a43.7,43.7,0,0,1,4.83,3l.56.44a4.07,4.07,0,0,0,.55.37,4.19,4.19,0,0,0,1.24.45,3.79,3.79,0,0,0,1.3,0,11.69,11.69,0,0,0,1.33-.33,32.87,32.87,0,0,1,5.58-1.14,19.62,19.62,0,0,1,2.87-.08c.43,0,.87.07,1.31.14-.76-.42-1.48-.88-2.2-1.37A23.34,23.34,0,0,1,49,54.73a13.2,13.2,0,0,1-2.26-3c.88.87,1.8,1.66,2.74,2.43s1.91,1.5,2.9,2.19c.49.35,1,.71,1.5,1s1,.67,1.52,1,1,.64,1.55,1,1,.64,1.56,1l-.09.24c-.14.94-.34,1.86-.55,2.78l0,.12c-.21,1-4,15.26-4.16,15.72a5.6,5.6,0,0,1-.8,1.38,9,9,0,0,1-1.18,1l-.78.55a3.81,3.81,0,0,0-.85.75,2.8,2.8,0,0,0-.25.35,2.22,2.22,0,0,0-.25.44.5.5,0,0,0,0,.33.29.29,0,0,0,.27.11.6.6,0,0,0,.36-.26,8.46,8.46,0,0,1,1.67-1.32s.25-.15.34,0a6.32,6.32,0,0,1,0,1.36c-.06.77-.11,1.54-.11,2.3a8.7,8.7,0,0,0,.05,1.14,2.27,2.27,0,0,0,.31,1,.29.29,0,0,0,.16.09.31.31,0,0,0,.19,0,.57.57,0,0,0,.23-.37,4.38,4.38,0,0,0,.09-1.1l0-1.16c0-.1,0-.2,0-.31a.69.69,0,0,1,.13-.38.32.32,0,0,1,.36-.07.4.4,0,0,1,.12.1l.06.1a1.11,1.11,0,0,1,.11.32c.16.8-.32,3.35.4,3.35s.25-1.78.36-2.57c0-.28.12-1.17.4-.94a8.24,8.24,0,0,1,.61,2.19s.14.56.56.47.27-.71.27-.71a11.52,11.52,0,0,1-.64-2,1.72,1.72,0,0,1,0-.4.53.53,0,0,1,.11-.22s0,0,.06-.07a.6.6,0,0,1,.13-.09.66.66,0,0,1,.2,0,1,1,0,0,1,.38.09c.2.12.38,1.11.64,1,.71-.17-.05-1.43-.31-1.68a7.39,7.39,0,0,1-.67-.89l-.18-.22.1-.24c.38-1,.78-1.84,1.19-2.75l1.25-2.68q1.28-2.67,2.57-5.32c.86-1.77,1.75-3.53,2.64-5.29s1.7-3.34,2.58-5c-.06-.76-.13-1.51-.16-2.29a5.33,5.33,0,0,1-.25-1.6c-.85-1.18-1.71-2.32-2.57-3.48S61.87,51.62,61,50.34s-1.83-2.54-2.76-3.8S56.33,44,55.36,42.79l0-.07c1.1,1.16,2.11,2.34,3.14,3.54s2,2.42,3,3.64a45.58,45.58,0,0,1,2.85,3.78l.62,1c.19.35.39.7.57,1.05s.34.71.51,1.07l.1.27v-.17A15.51,15.51,0,0,1,66.32,55a27.8,27.8,0,0,1,1.07-5.45,16.58,16.58,0,0,1,1.06-2.25c.39-.72.81-1.42,1.24-2.1.89-1.37,1.81-2.7,2.82-4l.07,0c-.75,1.44-1.53,2.85-2.26,4.28a35.48,35.48,0,0,0-2,4.31,23.23,23.23,0,0,0-.58,2.29c-.18.78-.33,1.56-.46,2.35S67,56.05,67,56.85c0,.39-.06.78-.06,1.17a4.93,4.93,0,0,0,.1,1.11l0,.07v0a35.19,35.19,0,0,0,.08,5.13c.07.85.19,1.71.34,2.55.07.42.15.84.25,1.25,0,.21.1.4.15.61s.13.35.22.57a27.66,27.66,0,0,1,1.34,5A20.58,20.58,0,0,1,69.73,77a11.42,11.42,0,0,1,0,1.31,6.48,6.48,0,0,1-.19,1.3h0a7.14,7.14,0,0,0-1.17.66c-.36.25-.71.5-1,.78-.55.47-1.89,1.18-1.72,1.49s1.56-.42,1.56-.42-.07,1.22-.06,1.65,0,1.74.38,1.81.39-.56.53-1.23a1.54,1.54,0,0,1,.44-.89s.51,3.93,1.18,3.62c.37-.1,0-2.69.39-2.85.87-.13.45,3.07,1,2.81s.15-1.12.18-1.69l-.12-2s.73,3,1.26,2.64-.42-2.18.5-3.45l0-.09.09-.07A3.24,3.24,0,0,0,74,79.91a2,2,0,0,0,0-.32l-.08-.38-.18-.75q-.19-.76-.36-1.56c0-.27-.1-.54-.14-.81a3.39,3.39,0,0,1,0-.46c0-.14,0-.29,0-.43,0-.56.14-1.08.24-1.61.2-1,.43-2.08.66-3.1a30.52,30.52,0,0,0,.59-3.06c.12-1,.18-2.06.2-3.1a31.15,31.15,0,0,0-.47-6.19l0-.15,0-.11a14.9,14.9,0,0,1,1.13-1.83c.4-.58.82-1.14,1.23-1.71L79.34,51a40.52,40.52,0,0,0,2.36-3.4,14.2,14.2,0,0,0,1.35-3.85,15.4,15.4,0,0,0-.22-8.14,10.33,10.33,0,0,0-2.16-3.48,8.23,8.23,0,0,0-3.41-2.21,15.44,15.44,0,0,0-4.06-.71c-1.39-.07-2.78-.06-4.17,0a29.75,29.75,0,0,0-4.13.34,31.32,31.32,0,0,0-4,1,51.07,51.07,0,0,0-7.62,3.26,57.29,57.29,0,0,0-7.1,4.3l-.1.06H46c-1.28,0-2.55.06-3.83.14s-2.56.19-3.83.31h-.14l-.09-.09c-1.56-2.35-6.6-5.84-6.64-5.86A10.56,10.56,0,0,0,29,31.93a19.88,19.88,0,0,1-2.09-.26c-.74-.1-1.48-.16-2.22-.19a20.17,20.17,0,0,0-2.2,0,10,10,0,0,0-2.16.37,7,7,0,0,0-3.64,2.3,2.84,2.84,0,0,0-.59,1v0a5.27,5.27,0,0,0-.2,1.53,1.91,1.91,0,0,0,.2,1.15.83.83,0,0,0,.33.31,9.15,9.15,0,0,1,.82,1,3.63,3.63,0,0,1,.35.68,1.42,1.42,0,0,1,.06.82,1.32,1.32,0,0,1-.13.38c-.06.12-.12.21-.18.32L17,42c-.25.43-.44.87-.72,1.29a2.26,2.26,0,0,1-.25.29,1.36,1.36,0,0,1-.32.23,2.74,2.74,0,0,0-.56.38.49.49,0,0,0-.09.5c.05.22.11.47.15.72a1.91,1.91,0,0,1-.05.82c-.1.29-.21.45-.29.68-.16.39-.3.81-.44,1.22.29.08.59.16.89.26a6.89,6.89,0,0,0,2.08.09,8.68,8.68,0,0,0,2.18-.73l.15,0a.25.25,0,0,1,.19,0l0,.08Zm-3.21-9.84c0-.22,0-.45-.05-.68a4.61,4.61,0,0,0-.15-.72c0-.25-.08-.5-.1-.75s1-1.11,1.63-1.25a5.47,5.47,0,0,1,2.17,0,6.29,6.29,0,0,1,2,.82c.59.35,1.16.71,1.74,1.08a6.11,6.11,0,0,0,2.3-.1,6.94,6.94,0,0,0,2.09-.86A15.84,15.84,0,0,0,30,34.18L30.2,34a1.7,1.7,0,0,1,2.14-.09l2,1.53a5.55,5.55,0,0,1,1.84,2.84l.06.15c0,.11.08.21.12.34a1.93,1.93,0,0,1,.07.43,1.7,1.7,0,0,1-.21.85,1.52,1.52,0,0,1-.26.35l-.17.15-.14.1a3.7,3.7,0,0,1-.61.35,2.26,2.26,0,0,1-.33.13l.14.08a5.09,5.09,0,0,0-.2,4.94l.09.21-.22.09c-1.77.72-4.13,2.58-3.57,4.27s1,2.72,1,2.73l.23.47-.5-.15a11.76,11.76,0,0,1-2-.87c.15.24.13.92-.13.85a5.49,5.49,0,0,0-1.5-.37,9.24,9.24,0,0,1-3.23-.47,12,12,0,0,1-1.49-.62l-.75-.37L22,51.46c-.85-.53-2.14-1.14-1.76-1.53s1.45-.57,1.82-1.23a2,2,0,0,1,.29-1.25,8.61,8.61,0,0,1,1.9-1.28c.82-.47.87-.9,1.2-2.2a10,10,0,0,1-1.71,1.69c-.85.56-1.32.37-1.88.57a1.22,1.22,0,0,1-.41-.29,2.11,2.11,0,0,1-.39-.58,3.06,3.06,0,0,1,.12-2.4,5,5,0,0,1,1.4-1.84l.42-.31c.11-.09.13-.12.15-.21a3.15,3.15,0,0,0-1.27-2.38,4.31,4.31,0,0,0-2-.38c-.72,0-1.43-.08-2.12-.06A3.41,3.41,0,0,0,16.48,38.06Zm3.14,2.35a.18.18,0,0,1-.05-.25,1.75,1.75,0,0,1,1-.84,1.82,1.82,0,0,1,1.26.32.18.18,0,0,1,.05.25,1.71,1.71,0,0,1-1,.84A1.74,1.74,0,0,1,19.62,40.41Z"/><path d="M30.76,38l0,0s0,0,0,0c.44.16,2,.81,1.94,1.83-.12,1.18-.2,1.57-.2,1.57l0,.08A3,3,0,0,0,33.78,41a5.74,5.74,0,0,0,.5-.36c.15-.12.32-.25.46-.38l0-.05a.46.46,0,0,0,.07-.07l0,0,0,0c0-.09.12-.18.16-.27a1.54,1.54,0,0,0,.12-.34,1.59,1.59,0,0,0,0-.72,8.4,8.4,0,0,0-.32-1,6.09,6.09,0,0,0-.48-1,3.8,3.8,0,0,0-.72-.88,1.88,1.88,0,0,0-.68-.4h0a1.21,1.21,0,0,0-.33,0,.81.81,0,0,0-.39.16l.06-.05a1.84,1.84,0,0,0-.61.51,5,5,0,0,0-.39.59,5.88,5.88,0,0,0-.29.62,4.13,4.13,0,0,0-.22.65l0,0Zm2.91-1.69,0,0Z"/></svg>