<svg id="Layer_1" data-name="Layer 1" xmlns="http://www.w3.org/2000/svg" width="128" height="128" viewBox="0 0 128 128"><defs><style>.cls-1{fill:#fff;}.cls-2{fill:#d62525;}</style></defs><title>Artboard 72</title><rect class="cls-1" x="4" y="4" width="120" height="120"/><path class="cls-2" d="M120,8V120H8V8H120m8-8H0V128H128V0Z"/><path d="M45.73,102.71l2.29.89a6.34,6.34,0,0,1-1.79,3.51,4.44,4.44,0,0,1-3.07,1.11,4.57,4.57,0,0,1-3.72-1.76A8.53,8.53,0,0,1,37.8,101a9,9,0,0,1,1.65-5.74,4.7,4.7,0,0,1,3.86-1.79,4.43,4.43,0,0,1,3.3,1.35A5.69,5.69,0,0,1,48,97.61l-2.34.68a3.15,3.15,0,0,0-.9-1.78,2.25,2.25,0,0,0-1.58-.62A2.53,2.53,0,0,0,41.06,97a6.51,6.51,0,0,0-.82,3.74,7,7,0,0,0,.8,3.85,2.44,2.44,0,0,0,2.08,1.14,2.13,2.13,0,0,0,1.62-.73A4.52,4.52,0,0,0,45.73,102.71Z"/><path d="M60.84,108H58.27l-1-3.24h-4.7l-1,3.24H49.05l4.57-14.32h2.51Zm-4.36-5.67L54.86,97l-1.59,5.31Z"/><path d="M63.72,108V96.08H60.24V93.66h9.32v2.42H66.09V108Z"/><path d="M76,108V93.66h2.36V108Z"/><path d="M83.83,108l-4.2-14.32H82.2l3,10.6,2.88-10.6h2.51L86.35,108Z"/><path class="cls-2" d="M31.37,75.26l2.3.88a6.47,6.47,0,0,1-1.79,3.52,4.51,4.51,0,0,1-3.08,1.1A4.57,4.57,0,0,1,25.08,79a8.57,8.57,0,0,1-1.64-5.51,8.91,8.91,0,0,1,1.66-5.73A4.67,4.67,0,0,1,29,66a4.46,4.46,0,0,1,3.3,1.35,5.91,5.91,0,0,1,1.39,2.84l-2.35.68a3.14,3.14,0,0,0-.89-1.78,2.26,2.26,0,0,0-1.58-.62,2.51,2.51,0,0,0-2.12,1.13,6.5,6.5,0,0,0-.83,3.74,6.87,6.87,0,0,0,.81,3.85,2.43,2.43,0,0,0,2.08,1.14,2.17,2.17,0,0,0,1.62-.72A4.69,4.69,0,0,0,31.37,75.26Z"/><path class="cls-2" d="M46.49,80.52H43.92l-1-3.24h-4.7l-1,3.24H34.7L39.27,66.2h2.51Zm-4.37-5.66L40.5,69.54l-1.59,5.32Z"/><path class="cls-2" d="M47.94,80.52V66.2h5a6.89,6.89,0,0,1,2.73.39A3,3,0,0,1,57,67.93a4.63,4.63,0,0,1,.52,2.28,4.21,4.21,0,0,1-.8,2.7,3.54,3.54,0,0,1-2.29,1.29,5.8,5.8,0,0,1,1.26,1.2,17.68,17.68,0,0,1,1.36,2.33l1.42,2.79H55.65L53.94,77.4a21.25,21.25,0,0,0-1.26-2.11,1.89,1.89,0,0,0-.7-.59,3.41,3.41,0,0,0-1.19-.16H50.3v6Zm2.36-8.26h1.76a9.16,9.16,0,0,0,2-.14,1.33,1.33,0,0,0,.71-.58,2.09,2.09,0,0,0,.27-1.14,2,2,0,0,0-.27-1.1,1.45,1.45,0,0,0-.74-.57,9.85,9.85,0,0,0-1.93-.1H50.3Z"/><path class="cls-2" d="M67.48,75.26l2.3.88A6.47,6.47,0,0,1,68,79.66a4.51,4.51,0,0,1-3.08,1.1A4.57,4.57,0,0,1,61.19,79a8.57,8.57,0,0,1-1.64-5.51,9,9,0,0,1,1.65-5.73A4.69,4.69,0,0,1,65.06,66a4.46,4.46,0,0,1,3.31,1.35,5.91,5.91,0,0,1,1.39,2.84l-2.35.68a3.2,3.2,0,0,0-.89-1.78,2.28,2.28,0,0,0-1.58-.62,2.54,2.54,0,0,0-2.13,1.13A6.59,6.59,0,0,0,62,73.3a7,7,0,0,0,.8,3.85,2.45,2.45,0,0,0,2.08,1.14,2.14,2.14,0,0,0,1.62-.72A4.6,4.6,0,0,0,67.48,75.26Z"/><path class="cls-2" d="M82.59,80.52H80l-1-3.24H74.3l-1,3.24H70.81L75.38,66.2h2.51Zm-4.36-5.66-1.62-5.32L75,74.86Z"/><path class="cls-2" d="M83.44,75.85l2.31-.27c.26,1.83,1.12,2.74,2.56,2.74A2.38,2.38,0,0,0,90,77.76a1.81,1.81,0,0,0,.62-1.39,1.55,1.55,0,0,0-.22-.83,1.57,1.57,0,0,0-.65-.56,19.5,19.5,0,0,0-2.13-.74,7.07,7.07,0,0,1-2.22-1,3.84,3.84,0,0,1-1.12-1.41A4.41,4.41,0,0,1,83.87,70a4.16,4.16,0,0,1,.53-2.11,3.45,3.45,0,0,1,1.47-1.41A5,5,0,0,1,88.18,66a4.06,4.06,0,0,1,4.47,4.33l-2.38.13a2.57,2.57,0,0,0-.67-1.61,2.14,2.14,0,0,0-1.47-.46,2.37,2.37,0,0,0-1.48.4,1.23,1.23,0,0,0-.52,1,1.27,1.27,0,0,0,.47,1,7,7,0,0,0,2.16.88,8.77,8.77,0,0,1,2.58,1.08,3.82,3.82,0,0,1,1.22,1.48A5.15,5.15,0,0,1,93,76.36a4.51,4.51,0,0,1-1.15,3.14,4.62,4.62,0,0,1-3.59,1.26C85.36,80.76,83.76,79.13,83.44,75.85Z"/><path class="cls-2" d="M94.58,75.85l2.31-.27c.26,1.83,1.11,2.74,2.56,2.74a2.4,2.4,0,0,0,1.69-.56,1.8,1.8,0,0,0,.61-1.39,1.41,1.41,0,0,0-.87-1.39,18,18,0,0,0-2.13-.74,7.11,7.11,0,0,1-2.21-1,3.84,3.84,0,0,1-1.12-1.41A4.28,4.28,0,0,1,95,70a4.17,4.17,0,0,1,.54-2.11A3.45,3.45,0,0,1,97,66.44,5,5,0,0,1,99.32,66a4.06,4.06,0,0,1,4.46,4.33l-2.37.13a2.57,2.57,0,0,0-.67-1.61,2.15,2.15,0,0,0-1.48-.46,2.32,2.32,0,0,0-1.47.4,1.21,1.21,0,0,0-.52,1,1.27,1.27,0,0,0,.47,1,6.75,6.75,0,0,0,2.16.88,8.77,8.77,0,0,1,2.58,1.08,3.82,3.82,0,0,1,1.22,1.48,5.15,5.15,0,0,1,.42,2.19A4.55,4.55,0,0,1,103,79.5a4.64,4.64,0,0,1-3.59,1.26C96.5,80.76,94.9,79.13,94.58,75.85Z"/><path class="cls-2" d="M48.84,56.06V41.74h8.71v2.43H51.21v3.17h5.9v2.41h-5.9v3.89h6.56v2.42Z"/><path class="cls-2" d="M60,56.06V41.86H62.4V53.64h5.9v2.42Z"/><path class="cls-2" d="M70.2,56.06V41.74h8.71v2.43H72.56v3.17h5.9v2.41h-5.9v3.89h6.57v2.42Z"/><path class="cls-2" d="M47,24.53a10.19,10.19,0,0,1,.76-4.21,5.61,5.61,0,0,1,2-2.47,5.22,5.22,0,0,1,3-.81A5.07,5.07,0,0,1,56.79,19a8.4,8.4,0,0,1,1.59,5.48,8.55,8.55,0,0,1-1.68,5.62,4.91,4.91,0,0,1-4,1.78,5,5,0,0,1-4-1.76A8.43,8.43,0,0,1,47,24.53Zm2.44-.1a6.14,6.14,0,0,0,.94,3.71,2.85,2.85,0,0,0,2.33,1.23A2.81,2.81,0,0,0,55,28.15a6.3,6.3,0,0,0,.92-3.77A6.12,6.12,0,0,0,55,20.7a2.79,2.79,0,0,0-2.34-1.19,2.84,2.84,0,0,0-2.36,1.2A6.21,6.21,0,0,0,49.43,24.43Z"/><path class="cls-2" d="M60.5,31.6V17.4h2.37V29.18h5.9V31.6Z"/><path class="cls-2" d="M70.65,17.28H75a6.5,6.5,0,0,1,2.47.37A4.17,4.17,0,0,1,79,18.88a6.62,6.62,0,0,1,1.1,2.26,12.52,12.52,0,0,1,.4,3.45,11.1,11.1,0,0,1-.42,3.23A6.46,6.46,0,0,1,79,30a4.15,4.15,0,0,1-1.56,1.2,5.83,5.83,0,0,1-2.35.41H70.65ZM73,19.71v9.47h1.78A4.42,4.42,0,0,0,76.44,29a2,2,0,0,0,.84-.65,3.52,3.52,0,0,0,.54-1.37A10.87,10.87,0,0,0,78,24.48,11.67,11.67,0,0,0,77.82,22a3.44,3.44,0,0,0-.69-1.45A2.13,2.13,0,0,0,76,19.83a10,10,0,0,0-1.93-.12Z"/></svg>