<svg id="Layer_1" data-name="Layer 1" xmlns="http://www.w3.org/2000/svg" width="128" height="128" viewBox="0 0 128 128"><title>Artboard 73</title><path d="M23.92,123.76,21.1,109.44h2.44l1.76,9.84,2.14-9.84h2.83l2.06,10,1.81-10h2.38l-2.85,14.32H31.15l-2.34-10.71-2.33,10.71Z"/><path d="M47.62,123.76H45.05l-1-3.25h-4.7l-1,3.25H35.84l4.57-14.32h2.51Zm-4.36-5.67-1.62-5.31-1.59,5.31Z"/><path d="M49.07,123.76V109.44h5a6.91,6.91,0,0,1,2.74.39,3.08,3.08,0,0,1,1.35,1.33,4.68,4.68,0,0,1,.52,2.28,4.32,4.32,0,0,1-.8,2.71,3.62,3.62,0,0,1-2.29,1.29,6.25,6.25,0,0,1,1.26,1.19A17.46,17.46,0,0,1,58.19,121l1.43,2.8H56.79l-1.71-3.12a20,20,0,0,0-1.26-2.11,1.87,1.87,0,0,0-.7-.59,3.21,3.21,0,0,0-1.2-.16h-.48v6Zm2.37-8.27h1.75a8.61,8.61,0,0,0,2.06-.14,1.27,1.27,0,0,0,.71-.57,2.14,2.14,0,0,0,.27-1.14,2,2,0,0,0-.27-1.1,1.35,1.35,0,0,0-.74-.57,9.57,9.57,0,0,0-1.93-.11H51.44Z"/><path d="M63.75,123.76v-11.9H60.26v-2.42h9.33v2.42H66.11v11.9Z"/><path d="M71.33,123.76V109.44h2.36v5.63h4.66v-5.63h2.36v14.32H78.35V117.5H73.69v6.26Z"/><path d="M82.88,116.69a10.29,10.29,0,0,1,.75-4.22,5.77,5.77,0,0,1,2-2.46,5.15,5.15,0,0,1,3-.81,5.09,5.09,0,0,1,4.11,1.92,10.25,10.25,0,0,1-.1,11.09,5.41,5.41,0,0,1-8,0A8.41,8.41,0,0,1,82.88,116.69Zm2.44-.1a6,6,0,0,0,.94,3.7,2.8,2.8,0,0,0,4.64,0,8.1,8.1,0,0,0,0-7.44,2.91,2.91,0,0,0-4.7,0A6.14,6.14,0,0,0,85.32,116.59Z"/><path d="M101.79,118.5v-2.42h5.11v5.7a6.37,6.37,0,0,1-2.19,1.57,6.82,6.82,0,0,1-2.84.65,5.62,5.62,0,0,1-3.07-.85,5.83,5.83,0,0,1-2.11-2.56,9.76,9.76,0,0,1-.77-4,9.48,9.48,0,0,1,.78-4,5.92,5.92,0,0,1,2-2.51,5.23,5.23,0,0,1,3-.83,4.61,4.61,0,0,1,5,4.2l-2.34.54a3.08,3.08,0,0,0-1-1.69,2.54,2.54,0,0,0-1.68-.58,3,3,0,0,0-2.45,1.17,5.68,5.68,0,0,0-.94,3.59,6.45,6.45,0,0,0,1,3.94,2.79,2.79,0,0,0,2.35,1.16,3.57,3.57,0,0,0,1.44-.33,4.25,4.25,0,0,0,1.33-.89V118.5Z"/><path d="M16,47.34c-2.5-.42-3.19-5.08-3.29-5.74l-.14-1s0-.06,0-.09a5,5,0,0,0-.67,2.34c0,1,.1,4.9,4.26,9.26a17.35,17.35,0,0,1-.55-2A5.44,5.44,0,0,1,16,47.34Z"/><path d="M35.86,53.56c4.15-4.35,4.21-8.22,4.25-9.25A5.05,5.05,0,0,0,39.44,42s0,.06,0,.1l-.15,1c-.1.66-.78,5.31-3.29,5.73a5.57,5.57,0,0,1,.42,2.74C36.28,52.26,36,52.9,35.86,53.56Z"/><path d="M30.5,58.08a2,2,0,0,0-.9-1,2.74,2.74,0,0,0-1.53,0c-.54.11-1.08.28-1.61.44a10.3,10.3,0,0,1-3.44.61,13.22,13.22,0,0,1-3.21-.45c.09.91.56,2.42,1.22,2.75a1.74,1.74,0,0,0,1.35-.07A11.88,11.88,0,0,1,24.12,60a6.79,6.79,0,0,1,1.85,0,5.43,5.43,0,0,1,.86.26,2.12,2.12,0,0,0,.64.08c.94,0,1.92-.85,2.68-1.43C30.52,58.69,30.64,58.46,30.5,58.08Z"/><path d="M39.1,67.73a6,6,0,0,1-2.35-2.2A25.66,25.66,0,0,1,35.15,63c-.5-.93-1.81-2.36-2.29-3.29-.18,1.58.7,3.65,1,5.21a18.15,18.15,0,0,0,1.32,4.62l.05.13-.05.2A14.08,14.08,0,0,0,35,73.64c.07,1.32.22.66.35,2s1.43,7.54,1.46,8.84a14.92,14.92,0,0,1-.28,3.93,10,10,0,0,1-.72,1.85L35,92l-1.52,3,3.1,1.28,1.32-2a.91.91,0,0,1,1-.37s.55.54.91.29-.33-5.15.2-7.56c.6-2.61.59-5.42,1.37-7.93a25.58,25.58,0,0,0,.8-3.8v-.85c.17-1.31.34-.62.48-1.94a34.72,34.72,0,0,0,.26-3.52c-.29,0-.58-.1-.88-.18C41.11,68.19,40.18,68.12,39.1,67.73Z"/><path d="M20.2,55.06a2.6,2.6,0,0,0-.3-2L20,53a2.56,2.56,0,0,1,.93,2.14,3.89,3.89,0,0,1-.39,1.6l2.57.41a7.58,7.58,0,0,0,3.25,0L28,56.69a6.91,6.91,0,0,1,1.17-.25c-.09-.15.94-3,1.59-3.44l.08.1c-.19.29-1.29,2.37-.84,3.47a2.7,2.7,0,0,1,1.33,1.13A14.77,14.77,0,0,0,33.2,56a6.12,6.12,0,0,0,1.26-2.05c.14-.4,1.12-3.52.28-5.26a6.45,6.45,0,0,1-1-.75A1.92,1.92,0,0,1,33,46.81a9.83,9.83,0,0,1-.78-5.94A15.78,15.78,0,0,1,34,36.7l.11,0a23.15,23.15,0,0,0-1,4.28,23,23,0,0,0,.35,4.29s.51,1.58,1,1.58a1.83,1.83,0,0,0,.83-.11c.14,0,.48-.41.62-.7a1.37,1.37,0,0,0,.12-.4c0-.08,0-.17-.17-.33A3.63,3.63,0,0,1,35,44.21a1.67,1.67,0,0,1-.13-.78,1.36,1.36,0,0,1,.3-.71A12.78,12.78,0,0,0,36,41.65l.11.05c-.28.86-1.07,1.62-.5,2.23a2.71,2.71,0,0,0,.84.85,1.35,1.35,0,0,1,.49.8,2,2,0,0,1-.1.87,4.09,4.09,0,0,1-.33.7,1.93,1.93,0,0,1-.64.69l-.22.11c.32.08.64.17.93.27a3.77,3.77,0,0,0,.43-.64,16.72,16.72,0,0,0,1.38-5.83s.21-2.08,1.49-.56c.16.32,1.57,2.27.18,7.22a3.28,3.28,0,0,1-.24.54c.16-.18.32-.38.49-.55l.88-.94a4.55,4.55,0,0,0,.7-.9A19.64,19.64,0,0,0,43,44.33a9.06,9.06,0,0,0,.79-1.91c-.15.07-.31.1-.44.15l-.91.25-.44.11a.91.91,0,0,1-.79-.13,1.69,1.69,0,0,1-.56-1.12,23.64,23.64,0,0,1,0-3.67l.12,0a3.78,3.78,0,0,1,.31.64c1-2.82,5-2.6,5.45-2.92a1.26,1.26,0,0,0,.5-1.37c-.18-.51-2.79-1.71-4.12-2.6A10,10,0,0,1,41,29.89a21,21,0,0,1-1.56-2.09l.1-.07c.32.38.64.75,1,1.1a2.69,2.69,0,0,1,0-1.65A4,4,0,0,0,42,26.89a1.78,1.78,0,0,0,.44-.21,4,4,0,0,1,.38-.24,1.78,1.78,0,0,1,.66-.16c.51-.05,1.08,0,1.81-.08a1.77,1.77,0,0,0,.6-.22,1.41,1.41,0,0,0,.52-.54,2.66,2.66,0,0,0,.36-1c.11-.65.12-1.23.18-1.79a5.31,5.31,0,0,1,.41-1.55c.19-.51.46-1,.69-1.63a1.55,1.55,0,0,0,.11-.6,1,1,0,0,0-.24-.58,2.15,2.15,0,0,0-.83-.61l-.06,0h0a.63.63,0,0,1-.12-.11,9,9,0,0,0-2.93.28,3.14,3.14,0,0,0-.57.24,8.56,8.56,0,0,0-2.54,1,26.67,26.67,0,0,0-2.49,1.84c-.52.42-.87.89-1.27,1.27a2.36,2.36,0,0,1-1,.12v-.12a2.5,2.5,0,0,0,1.11-.66c-1.36-.17-2.69-.28-4-.33a19.45,19.45,0,0,0-4.21.22,14.21,14.21,0,0,0-3.8,1.46l.31-.29a5.81,5.81,0,0,0-1.61-2.8,10.27,10.27,0,0,0-2.53-2.09c-.88-.46-1.82-1-2.8-1.38a6.09,6.09,0,0,0-1.61-.53,1.49,1.49,0,0,0-.61,0c-.38.18-.34.27-.48.42a1.12,1.12,0,0,0-.22.56,1.23,1.23,0,0,0,.09.51c.18.56.49,1,.6,1.46a6.94,6.94,0,0,1,.19,1.51c0,1-.16,2-.23,3.12a2.64,2.64,0,0,0,.12.94,1.65,1.65,0,0,0,.72.86,4.26,4.26,0,0,0,1.72.39,5,5,0,0,1,2.72.58,8.8,8.8,0,0,0,.14,1c.12.62.28,1.24.37,1.9l0,.09-.09.08a15,15,0,0,1-2.37,1.41c-.82.41-5.5,1.2-5.78,1.9s-.39,1.25-.14,1.48a25,25,0,0,0,2.78.67,9.4,9.4,0,0,1,1.58.61,10.5,10.5,0,0,1,1.47.87,4.61,4.61,0,0,1,1.25,1.31,3.1,3.1,0,0,1,.38.87,5.23,5.23,0,0,1,.12.86A11.9,11.9,0,0,1,21,42.51h-.12c0-.28-.07-.56-.1-.86a2.54,2.54,0,0,1-1.4.28,2.38,2.38,0,0,0-.75,0,1.18,1.18,0,0,0-.55.32,1.2,1.2,0,0,0-.3.55,1.87,1.87,0,0,0,0,.67A11.29,11.29,0,0,0,18.05,45c.07.25.13.49.22.72a2.07,2.07,0,0,0,.13.26s0,0,.1,0a3.62,3.62,0,0,0,1.22.24,4.65,4.65,0,0,0,2.78-.85s.51-1.3.78-1.89.68-1.1.94-1.69a12.68,12.68,0,0,0,.9-3.92h.13a10.08,10.08,0,0,1-.1,4.23,5.47,5.47,0,0,1-.82,2c-.45.57-2.87,2.86-3.83,3.15a3.68,3.68,0,0,1-1.71.79,7.9,7.9,0,0,1-1.75.08,9.57,9.57,0,0,0-.61,1.9,4,4,0,0,0,.27,2.53,2.07,2.07,0,0,0,.15.25s.08.09.13.13l0,.06a10.66,10.66,0,0,0,1.31,1.38c.51.46,1.08.9,1.66,1.39A3.8,3.8,0,0,0,20.2,55.06Zm16-25.54a2.07,2.07,0,0,1,1.38-.79A.37.37,0,0,1,38,29a2.08,2.08,0,0,1-.14,1.58,2.12,2.12,0,0,1-1.38.77.34.34,0,0,1-.39-.25A2,2,0,0,1,36.24,29.52ZM25.06,31.24a.32.32,0,0,1-.4.19,2.09,2.09,0,0,1-1.23-1,2.15,2.15,0,0,1,0-1.57.33.33,0,0,1,.41-.18,2.08,2.08,0,0,1,1.24,1A2.14,2.14,0,0,1,25.06,31.24Z"/><path d="M94.91,73.6A11.46,11.46,0,0,1,94.63,71a12.8,12.8,0,0,1,.4-2.4,22.23,22.23,0,0,1-1.35-2.37,15.21,15.21,0,0,1-1.34-2.32,13.92,13.92,0,0,0-6.81,4.34,10.49,10.49,0,0,1-1.19,1c.78.84,1.55,1.68,2.32,2.54A10.21,10.21,0,0,1,88,73.5a18.89,18.89,0,0,1,2.81,8.08,33.83,33.83,0,0,1-1.25,8,23.39,23.39,0,0,1-1.67,4.2,21,21,0,0,1-2,2.64l3.34,1,.59-1a.87.87,0,0,1,.71-.44l.66,0a.74.74,0,0,0,.7-.67,42.23,42.23,0,0,1,.68-4.39c.47-1.64.85-3.24,1.28-4.88a48.7,48.7,0,0,1,1.42-4.86A15.42,15.42,0,0,0,96,78.84a14,14,0,0,0,.17-2.33C95.45,74.91,95.18,75.23,94.91,73.6Z"/><path d="M30,99.49c2.15,0,2.91,0,4.89,0a1.39,1.39,0,0,0,1.5-1.1,6.33,6.33,0,0,0,.32-1.17L33,95.81A9.77,9.77,0,0,0,30,99.49Z"/><path d="M46.88,99.12c2.14,0,2.91,0,4.89,0A1.39,1.39,0,0,0,53.26,98a2.89,2.89,0,0,0,.23-.87l-3.91-1.51A10.38,10.38,0,0,0,46.88,99.12Z"/><path d="M83.39,99.59h3.92c2,0,1.63,0,1.83-1.09l-4-1.53A22.11,22.11,0,0,0,83.39,99.59Z"/><path d="M96.12,102.56l6.39.27c.07-.56.14-3.12.2-3.71l-4.39-1.69C97.67,98.42,96.94,101.4,96.12,102.56Z"/><path d="M116,67.31c0-1.75.55-3.44-.33-4.82-1.06-1.66-1.08-3.45-1.23-5.27-.4-5,.21-10-.29-15,.08-.41.18-.83.25-1.24a12.2,12.2,0,0,0-1.56-4.65,2.78,2.78,0,0,0-.77-.83l-1-.74c-.69-.49-1.37-1-2-1.5s-1.33-1-2-1.6l-1-.85a6.25,6.25,0,0,0-.9-.71,9.62,9.62,0,0,0-4.44-1.46,32.49,32.49,0,0,0-9.77.87c-1.62.36-3.24.76-4.86,1.15a24.54,24.54,0,0,1-5,.91,65.83,65.83,0,0,1-10-1,88,88,0,0,1-9.89-2c-6.23-1.35-12.07.66-18.64-.29a3.3,3.3,0,0,1-.37,1.48,17.14,17.14,0,0,1,6.66,4.54l-.57,2.85S45,36.81,41.58,40a5.7,5.7,0,0,1,.3,2l2.66-.72a.17.17,0,0,1,.21.17c-.11.9-.62,2.35-.8,3.17a10.85,10.85,0,0,1-1,2.57,6.61,6.61,0,0,1-.41.62,4.25,4.25,0,0,1-.53.52c-.34.31-.71.57-1.07.84-.63.42-.61,1.68-1.31,2a19.35,19.35,0,0,1-3.36,3c0,3.36-1.64,3.79-2.83,4.5,1.07,1.65,1.13,2.28,2.19,3.9.54.83,1.09,1.66,1.7,2.42a5,5,0,0,0,2.07,1.76c.82.24,1.92.27,2.91.49s1.9.32,2.88.45c1.83.29,3.69.54,5.55.91-.15-.51-.24-1-.37-1.52L50.15,66c0-.19-.1-.38-.16-.57a6.77,6.77,0,0,1-.2-.7A10.78,10.78,0,0,1,49.6,62,12.13,12.13,0,0,1,50,59.4l.12,0A11,11,0,0,0,50.21,62a9.79,9.79,0,0,0,.52,2.45c.08.19.16.37.25.54a5.3,5.3,0,0,1,.32.63A4.39,4.39,0,0,1,51.61,67a9.64,9.64,0,0,1-.3,2.64c.17,1.27.28,2.54.36,3.83.09,1.55.2,1.1.25,2.66a6.29,6.29,0,0,1,0,1.72A4,4,0,0,0,52,81.28l.27.18,0,.27c.07,1.32.06,2.41.05,3.62s-.05,2.36-.13,3.54c0,.6-.08,1.19-.14,1.8a5.47,5.47,0,0,1-.49,1.86,6.06,6.06,0,0,1-1.43,2l3.17,1.14c.3-.5.77-1.32,1.1-1.89a.9.9,0,0,1,1.06-.41s.55.46.95.3-.82-3.16-.65-5.1c.11-1.18.2-2.37.42-3.52s.49-2.25.8-3.36c.2-.68.4-1.33.66-2a5.81,5.81,0,0,0,.31-.79c.09-.27.17-.55.24-.85.68-2.27.65-1.54,1.24-3.85l.86-1.48a35.4,35.4,0,0,0,.75-3.48h0a6,6,0,0,1,.54-1.73,16.5,16.5,0,0,1,1-1.87c.68-1.21,1.65-2.27,2.31-3.38a2.67,2.67,0,0,0,.11-1.74,14.24,14.24,0,0,0-.45-2,31.77,31.77,0,0,0-1.31-3.93l.11,0a30.51,30.51,0,0,1,1.79,3.79,19.63,19.63,0,0,1,.65,2,7.65,7.65,0,0,1,.18,1.1,4,4,0,0,1,0,.6,2.41,2.41,0,0,1-.2.64,24.77,24.77,0,0,1-2.17,3.62c-.78,1.1-1.7,2.1-2.41,3.22,2.76.19,5.45.61,8.17.77a49.83,49.83,0,0,0,8.19.17c2.69-.33,5.52-.71,7.49-2.64s4.4-3.57,7.16-4a18.56,18.56,0,0,1-.94-2.53,10.36,10.36,0,0,1,0-6.21l.29-.74.28-.65a5.76,5.76,0,0,0,.3-1.34,5.14,5.14,0,0,0-.67-2.71,24.43,24.43,0,0,1-1.31-2.72,6.72,6.72,0,0,1-.33-3h.12a6.37,6.37,0,0,0,.55,2.87,23.31,23.31,0,0,0,1.5,2.58,5.57,5.57,0,0,1,.93,3,6.51,6.51,0,0,1-.25,1.59l-.26.76-.22.66A12.37,12.37,0,0,0,92.53,61a43.92,43.92,0,0,0,1.38,5,20.56,20.56,0,0,0,1.4,2.09,27.15,27.15,0,0,0,3.16,3.6,7.56,7.56,0,0,1,1.64,1.92,21.79,21.79,0,0,1,2.18,5.07c.14.81.26,1.62.32,2.45a13.23,13.23,0,0,1,0,2.52,45.87,45.87,0,0,1-.71,4.84,32,32,0,0,1-1.23,4.78,17.72,17.72,0,0,1-2,3.46l3.72,1a4.38,4.38,0,0,1,.3-1.48,2.69,2.69,0,0,1,1.24-.12.45.45,0,0,0,.48-.43c0-1.52-.48-3.49-.1-4.87.56-1.63,1-3.18,1.56-4.8s1-3.2,1.61-4.78a12.1,12.1,0,0,0,.75-2.35,13.93,13.93,0,0,0,.11-2.44c-.66-1.48-1-1.07-1.4-2.61a19.54,19.54,0,0,1-.49-2.42,11.51,11.51,0,0,1,.1-2.5,27,27,0,0,1,1.17-4.77c.48-1.55,1-3.08,1.61-4.57,1.06-3,1.86-6.14,2.77-9.23l1.08-4.06c.17,5,.18,10,.71,14.92a2,2,0,0,1-.35,1.14c-1.59,3.18-1,6.61,1.8,9.4-1.23-2.63.35-5.06-.68-7.77C116,65,115.44,66.23,116,67.31Z"/></svg>