<svg id="Layer_1" data-name="Layer 1" xmlns="http://www.w3.org/2000/svg" width="128" height="128" viewBox="0 0 128 128"><title>Artboard 75</title><path d="M13.12,18.5a19,19,0,0,0,1,3l0,.08v.09a2.64,2.64,0,0,1,0,.28h0a.9.9,0,0,1,.32.23,3.36,3.36,0,0,1,.63,1.49c0,.15,0,.33.11.48s.15.22,0,.33a.33.33,0,0,1-.43.06,3.24,3.24,0,0,0-.47-.28c0,.19.06.38.1.56l.08,0c.62-.09.84.11.92.71,0,.19-.13.24-.24.3l-.27.13c.16.37.35.76.56,1.14l.27.47a14,14,0,0,1,.84,1.64c.28-.92,1.33-1.41,1.81-1.85a1,1,0,0,0,.14-.17l.05-.08.09-.14a3.25,3.25,0,0,1,.43-.61,2.76,2.76,0,0,1,1.33-.82,10.63,10.63,0,0,1,2.76-.25h.27c0-.23-.08-.46-.14-.69s-.17-.68-.27-1a9.24,9.24,0,0,1-1.68-.94c-.6-.4-1.19-.88-1.75-1.17l-.11-.06-.07-.13c-.36-.68-.76-1.33-1.17-2A12.06,12.06,0,0,0,17,17.45a5.33,5.33,0,0,0-1.85-1.34,4.82,4.82,0,0,0-2.18-.36.89.89,0,0,0-.13.46,4.78,4.78,0,0,0,0,.75A11.87,11.87,0,0,0,13.12,18.5Zm3.34,2.78c-.75,0-.75,0-.86-.84A4,4,0,0,1,16.46,21.28Z"/><path d="M108.07,83.61a.18.18,0,0,0,.23.11c.34,0,.57-.51.42-.91,0-.1-.07-.19-.18-.17s-.21,0-.22.19a1,1,0,0,1-.17.57C108.1,83.46,108,83.51,108.07,83.61Z"/><path d="M110.54,85.41v.06a2.86,2.86,0,0,0,.07.57,24,24,0,0,0-1.49,2.9c-.27-.14-.52,0-.78,0s-.48,0-.48-.38.18-.57.43-.55.34-.12.53-.29c.39-.37.62-.88,1-1.28.06-.08.11-.11,0-.19-.28-.27-.13-.45.09-.6a.29.29,0,0,0,.13-.25c0-.13-.12-.36.16-.27a1.33,1.33,0,0,0,.21,0c-.31-.56-.64-1.11-1-1.66a2,2,0,0,1-.05.26,7.7,7.7,0,0,0-.23,1.06.58.58,0,0,1-.66.51c-.3,0-.42-.25-.42-.55a1.12,1.12,0,0,0-.26-.8.7.7,0,0,1-.12-.43c0-.33.08-.62-.23-.83-.09-.06-.19-.35.17-.27s.34-.49.57-.7a.27.27,0,0,0,.06-.12l-.24-.38a.61.61,0,0,0-.07-.1.09.09,0,0,1,0-.06l-.9-1.39-1-1.53,0-.08-.2-.33a12.39,12.39,0,0,1-.78-1.37,20.05,20.05,0,0,1-.73-2.78l-.09-.46c0-.17-.06-.35-.1-.53-.23-1.25-.45-2.49-.56-3.79A16.63,16.63,0,0,1,104,65a42.18,42.18,0,0,1,2-7.33,12.84,12.84,0,0,0-.81,1.88,14.56,14.56,0,0,1-.58,1.64,9.74,9.74,0,0,1-.89,1.88c-.73,1.08-1.57,2-2.36,3a15.39,15.39,0,0,0-2.07,3.08,9,9,0,0,0-.19,3.61,36.27,36.27,0,0,0,.56,3.74,11.36,11.36,0,0,0,.48,1.78c0,.09.07.17.1.26.49.59,4.36,5.36,5.39,8.51a2,2,0,0,1,0-.34,1.08,1.08,0,0,0-.18-.89,1.54,1.54,0,0,1-.37-1.07c0-.66-.25-1.28-.23-2a.65.65,0,0,0-.37-.64,8.58,8.58,0,0,0-.56-1.39c-.43-.73-.69-1.55-1-2.31.34.16.54-.09.75-.35.07-.1.09-.37.27-.22s.41.31.35.49c-.19.59.27.64.48.82a.9.9,0,0,1,.35.54,2.2,2.2,0,0,0,.31.89c.26.4.18.91.34,1.33h0a10.92,10.92,0,0,1,.65,2c.25.74.27,1.54.58,2.27a3.31,3.31,0,0,1,0,1.5c0,.32,0,.55.24.65,0,.12-.11.13-.16.1a1,1,0,0,0-1.14-.24h0a10.55,10.55,0,0,1-.1,3,16,16,0,0,1-.44,1.94c-.2.65-.45,1.25-.66,1.84l-1.35,3.42a2.25,2.25,0,0,1-.16.37,1.27,1.27,0,0,1-.32.3,1.63,1.63,0,0,1-.65.24.35.35,0,0,1-.14,0c-.54-.07-2-.71-3-.2a3.19,3.19,0,0,0-1.31,1.61.49.49,0,0,0,0,.16,1.67,1.67,0,0,0-.08.3q4,0,8,.1a.62.62,0,0,0,.12-.27,119.37,119.37,0,0,1,4.82-14.32,1.6,1.6,0,0,0-.08-1.4S110.54,85.42,110.54,85.41Z"/><path d="M26.39,40.58a21.42,21.42,0,0,1,2.91-.66c.48-.05,1-.14,1.41-.22a1.73,1.73,0,0,0,.58-.17l.12-.05c0-.07.09-.18.14-.29s.11-.25.15-.38h0a1.65,1.65,0,0,0-.08-.47c-.18-.55-.59-1-.6-1.62a2.37,2.37,0,0,0-.29-.71c0-.1-.12-.11-.21-.09s-.21.1-.16.17,0,.58.41.69L30,37a1,1,0,0,1,.55.94l-.08.09a11.24,11.24,0,0,0-1.76-.39.66.66,0,0,1-.58-.74c.1-.7-.07-1.4.09-2.11.07-.29-.32-.46-.55-.63,0,0-.1,0-.1,0-.21.75-.49-.08-.77,0,0,.3.35.34.53.57-.52.08-.74.5-1,.86s-.35.45-.86.34c0,0,0-.07.06-.07.44-.11.45-.12.41-.24-.11-.36-.24-.73-.73-.53a.91.91,0,0,1-.6.09s0-.09,0-.1a1.69,1.69,0,0,0,.61-2.44c-.21-.37-.17-.87-.46-1.26a.72.72,0,0,0-.47-.36,4.3,4.3,0,0,1-.79-.26c-.34-.12-.73-.32-1,.12a.17.17,0,0,1-.13.07,1.28,1.28,0,0,0-1.34.51l0,0a1.86,1.86,0,0,1,.8-.49,2.28,2.28,0,0,1,1.55.29.3.3,0,0,1,.11.41,2.26,2.26,0,0,1-1.21,1,2.09,2.09,0,0,1-1.44-.23,1.83,1.83,0,0,0,.46.88c.2.23.5.48.35.93s.21.77-.05,1.18a4.89,4.89,0,0,1-.88,1.1c.09-.2.17-.39,0-.57s-.31-.37-.12-.68-.55-.91-.86-.9c0,.17.41.19.13.44s-.15.54-.55.41c-.17-.06-.34-.08-.44.14A.43.43,0,0,0,19,36c.2.22.29.54.52.8-.26-.11-.38.2-.71.13s-.67-.09-.71-.55c0,0-.07-.07-.12-.09a7.28,7.28,0,0,0-1.39-.2,1.07,1.07,0,0,0-1.16.58A2.56,2.56,0,0,1,16,35.52a.88.88,0,0,0,.06-1,.61.61,0,0,1,0-.9c.34-.37.43-.91,1-1.14s.54-1.6.26-2c0,0-.06-.11-.09-.12-.29-.05-.58-.16-.86-.23a2.2,2.2,0,0,0-.24.8,11.64,11.64,0,0,0,.08,1.76v.15l-.11.13a14.69,14.69,0,0,1-2.45,2.41c-.89.69-1.82,1.33-2.66,2.05a2.91,2.91,0,0,0-.15,1.24,1.25,1.25,0,0,0,.2.55,5.6,5.6,0,0,0,.41.49l1.74,1.76c.61-.08,1.22-.16,1.85-.2.34,0,.7,0,1.05,0a5.41,5.41,0,0,1,.95.13c.93-.35,1.88-.5,2.76-.75a4.69,4.69,0,0,0,2.51-1.3l.08.05a4.3,4.3,0,0,1-2.35,2c-.71.26-1.41.5-2.08.76l-.68.28-.15.06-.19,0a5.21,5.21,0,0,0-.6-.07h0c-.4,0-.84,0-1.27,0s-.74,0-1.11,0a10.78,10.78,0,0,1,.65,1.17c.26.37.34.22,1,.15a9.8,9.8,0,0,1,1.34,0c.56,0,1.1.13,1.64.21.33,0,.66.11,1,.14a2.23,2.23,0,0,0,1.69-.39c.82-.53,1.57-1.18,2.39-1.75A8.89,8.89,0,0,1,26.39,40.58Z"/><path d="M21.67,26.14a.48.48,0,0,0,.23-.27,4.28,4.28,0,0,0-1.3.29,7,7,0,0,0-1.18.88,0,0,0,0,1,0,0,2.1,2.1,0,0,1-.68.77c-.05,0,0,.2,0,.3a29.56,29.56,0,0,0,.1,3.12c0,.24.06.43-.2.58a.52.52,0,0,0-.23.77,2,2,0,0,1,.1.57.6.6,0,0,1,.8-.21c0-.48.94-.69.4-1.34,0,0,0-.06,0-.09.07-.33.15-.65.19-1,.06-.64.66-.94.9-1.46A1.57,1.57,0,0,0,21,27.6c-.1-.19-.21-.55,0-.64C21.32,26.78,21.36,26.35,21.67,26.14Z"/><path d="M92,74.42c.1-.18.15-.49-.23-.43l.21.46S92,74.43,92,74.42Z"/><path d="M30.09,51.8a.64.64,0,0,0,.07.8l.24.14a15.91,15.91,0,0,1,.4-1.83C30.63,51.27,30.25,51.44,30.09,51.8Z"/><path d="M32.43,54h0A0,0,0,0,1,32.43,54Z"/><path d="M112.63,56.54a1,1,0,0,0-.53-.9c0,.3-.37.5-.36.83a.48.48,0,0,1-.21-.12,13.41,13.41,0,0,0,1.36,2.36c0,.08.13.14.14.22a2.19,2.19,0,0,0,.41.93,2.05,2.05,0,0,0,.94-.45l.07,0v-.1a1.16,1.16,0,0,1,.45-.66q-.25-1-.57-2a1.75,1.75,0,0,1-.23-.24,3.89,3.89,0,0,0-.43-.39c0,.26,0,.63-.45.25C113,56.06,112.82,56.16,112.63,56.54Z"/><path d="M46,63.83c0,.06,0,.13.13.13S46.06,63.85,46,63.83Z"/><path d="M46.38,64.74c0-.06-.1,0-.14,0a.19.19,0,0,0,0,.12s.06,0,.12.08C46.39,64.82,46.4,64.77,46.38,64.74Z"/><path d="M117.06,71.54c0-.13,0-.27,0-.4h0s0,0,0,0c-.2-.32-.61-.57-.38-1a.31.31,0,0,0-.08-.34,5.91,5.91,0,0,1-.76-1.53.18.18,0,0,1-.13.11c-.11,0-.19,0-.28-.09a1.31,1.31,0,0,1-.4-.83c0-.18.1-.23.26-.23A9.24,9.24,0,0,1,115,65c0-.14,0-.36.22-.36s.19.17.21.31c.07.47.5.75.6,1.2.06.28.23.62-.3.61a8.44,8.44,0,0,0,.05,1.23,1.1,1.1,0,0,1,.64.63,2.51,2.51,0,0,0,.38.61c-.29-2.17-.64-4.34-1-6.49-.08,0-.13,0-.17,0a.58.58,0,0,1-.2.54,6.26,6.26,0,0,1,0,.87l-.38-.62h0c-.12,0-.21,0-.31-.08s-.07.16-.19.17l-.09-.39c0-.08-.09-.24-.13-.19-.39.43-.87-.41-1.24.11-.08.11-.14,0-.16-.11s-.16-.38-.24-.58l-.09,0c-.25,0-.16.31-.26.47a1.28,1.28,0,0,1,.28-1.71c0-.17-.17-.34-.2-.52a3.11,3.11,0,0,0-.83-1.87,1.35,1.35,0,0,1-.3-1h0v0a.14.14,0,0,1,0-.06,0,0,0,0,1,0,0h0a5.59,5.59,0,0,0-.63-2.43l0,0a.57.57,0,0,0-.28.23c0,.08-.08.22-.23.15a.25.25,0,0,1-.11-.16c0-.25,0-.51,0-.76a1.58,1.58,0,0,1-.31-.27,2.8,2.8,0,0,1-.52-.78c-.14-.39,0-.35.29-.27,0-.06,0-.18.17-.16a1.16,1.16,0,0,1,.67.44,1.58,1.58,0,0,1,.12-.15.67.67,0,0,1,1.09.12c.35.58.41.58.91.24a.49.49,0,0,1,.76.2,2.12,2.12,0,0,0,.11.21l0-.13c0-.14-.06-.27-.1-.4-.35-.83-.72-1.65-1.1-2.47-.08-.17-.17-.35-.26-.52l0-.07c-.23-.44-.49-.88-.76-1.31-.56-.89-1.17-1.75-1.72-2.6a12.32,12.32,0,0,0-1.71-1.92c-.61-.59-1.26-1.17-1.92-1.72-1.22-.72-2.46-1.45-3.71-2.14l-1-.56-.76-.4,0,0-.07,0c0,.26,0,.6-.46.24-.23-.21-.39-.11-.58.27a1,1,0,0,0-.53-.89c0,.29-.37.49-.36.83-.48-.16-.55-.63-.77-1s-.44-.28-.64,0c0,.08-.09.22-.23.15a.25.25,0,0,1-.11-.16c0-.27,0-.54,0-.81L96,38.55a27.46,27.46,0,0,0-5.76-.68l-.34,0a.31.31,0,0,0-.09.11c-.23.58-.81.49-1.21.73s-.15.25,0,.39c.3.35.78.26,1.15.48l-1,.2c-.09.21.22.24.15.45l-.4,0c-.08,0-.25,0-.22.06.27.51-.68.67-.32,1.2.07.12-.09.11-.16.12l-.63,0-.07.07c0,.25.24.26.36.41A1.3,1.3,0,0,1,85.86,41h0l0,0h0c.11-.18.27-.2.5-.14a1.22,1.22,0,0,1-.28-.91c.5-.27-.27-.23-.11-.42.37-.11.47-.37.25-.66s.05-.34.24-.42.53,0,.41-.41a0,0,0,0,1,0-.06H84.7l-2.26,0a3.12,3.12,0,0,1-.49.23,4.11,4.11,0,0,0-.51.27c.23.13.58.24.08.51-.27.15-.23.34.06.65a1,1,0,0,0-1,.19c.29.08.33.51.65.62-.31.39-.77.3-1.2.38s-.41.31-.19.61c.05.08.17.16.06.26a.18.18,0,0,1-.19.05c-.61-.27-1.34-.37-1.68-1.07a.68.68,0,0,1,.48-1c.67-.12.69-.18.55-.77a.47.47,0,0,1,.44-.64,1,1,0,0,0,.68-.23l.12-.1-1.06,0c-1.83,0-3.63-.06-5.44,0-1.51.06-3,.15-4.53.26a7.1,7.1,0,0,1-.79.22c-.4.09-.87,0-1.21.3s.29.21.23.49a2.6,2.6,0,0,1-1.86.4,2.33,2.33,0,0,0-1.22.14,1.84,1.84,0,0,1-1.63-.24c.22-.3.58-.14.85-.27a2,2,0,0,1-1,0l.69-.56-.4,0h-.09l-.09,0a23.39,23.39,0,0,0-5.88-.73c-.07.18-.26.21-.7.26-.17,0-.36,0-.44.21s-.25.15-.36.13a8.06,8.06,0,0,0-2.48.46c-.09,0-.34,0-.22.23s0,.32.27.25a2.36,2.36,0,0,1,.57,0c-.24.26-.49.15-.7.23,0,.2.14.33.21.5-.12.17-.33,0-.46.1.62.57.59,1.48,1.13,2.09-.06.23-.47-.06-.45.29,0,0,0,0,0,.08l-.09,0c-.21,0-.41-.1-.61-.13s-.44-.19-.37.22c0,.05-.06.16-.09.16-.4,0-.78.28-1.18.28a.73.73,0,0,1-.44-.15,7.82,7.82,0,0,1-2.75-.45c.09-.29.33-.17.5-.23-.21-.06-.4-.09-.5-.27h-.82c.22-.3.72-.28.63-.73.49,0,.56-.57.92-.77.16-.1,0-.19-.15-.22s-.38,0-.39-.15.25-.18.4-.24.21,0,.27-.16c-.13-.24-.39-.26-.6-.35-.54-.23-.6-.47-.24-.91.07-.09.13-.17,0-.27-.4-.44,0-.36.24-.37s.52,0,.78-.06a12.29,12.29,0,0,1-2.05-.51,6.45,6.45,0,0,0-.62-.21l-.34-.1L45.32,37c-.21,0-.4-.09-.61-.12h0A8.75,8.75,0,0,0,43,36.76H42.9l-.08-.07-4.69-4c-1.44-1.25-2.9-2.48-4.43-3.63-.23.38-.46.75-.71,1.13a18.08,18.08,0,0,1-1.18,1.47l-.07-.08c.57-1.08,1.15-2.2,1.6-3.3a7.45,7.45,0,0,0,.29-.82,1.74,1.74,0,0,0,0-.34,1.8,1.8,0,0,0-.07-.38,5.78,5.78,0,0,0-.68-1.53l-.19-.29.25-.33A2.72,2.72,0,0,0,33.43,22,17.13,17.13,0,0,0,32,19.2a21.52,21.52,0,0,0-1.81-2.63,4.81,4.81,0,0,0-2.53-1.78,2.25,2.25,0,0,0-1.45.33,3.19,3.19,0,0,0-1,1.06,15.26,15.26,0,0,0-1.14,2.93l-.26.78-.27.73a3.9,3.9,0,0,0-.11,1.46c.08.8.22,1.64.23,2.49q0,.34,0,.69H24l1.92,0v.09l-1.8.28a28,28,0,0,0,2.75,2.24c.17.11.48.28.26.62-.11.15,0,.22.13.28a5.85,5.85,0,0,0,.56.27c0-.15-.2-.19-.13-.3a.19.19,0,0,1,.28,0c.37.35,1.08.19,1.22.86,0,.14.21.11.33.1a.72.72,0,0,1,.69.37c-.15.29,0,.45.18.71a4.89,4.89,0,0,0,2.24,1.46,8.32,8.32,0,0,1,2.26,1.57,2.43,2.43,0,0,0,.88.57c0,.19-.24.09-.29.24l.69.27c-.21.29-.55.15-.81.35.27.27.37.66.71.88a.33.33,0,0,1,0,.61c-.45.22-.65.67-1,1-.16.11-.37.26-.11.5s.1.22,0,.27-.09.24-.08.3a2,2,0,0,1-.64,1.82c-.24.29-.38.23-.63.24s-.34,0-.47.26-.58.14-.8-.11a3.51,3.51,0,0,0-.55-.47.23.23,0,0,1-.07-.07,3.85,3.85,0,0,1-.69.28c-.5.14-1,.24-1.47.34-1,.17-1.92.29-2.85.5a13.8,13.8,0,0,0-2.68.94,11.81,11.81,0,0,0-1.71,1,9.6,9.6,0,0,1,3.4,3.06c.93,1.29,1.68,2.7,2.51,4A9.31,9.31,0,0,0,29,51.62a0,0,0,0,1,0,0c.13.14.26.28.38.39h0a1.62,1.62,0,0,0,.2.18l.07,0a.36.36,0,0,0,0-.37h0c.46-.19.37-.67.28-.93-.16-.46.05-.85,0-1.27-.19,0-.21-.2-.24-.35,0,.08-.11.16-.2.07s0-.16,0-.23a.17.17,0,0,1,.13-.1.28.28,0,0,1,.16.1c.23,0,.28-.07.08-.21s-.39-.36,0-.64c-.33-.06-.35.14-.4.29s0,.32-.24.28-.2-.26-.14-.39a3,3,0,0,0,.11-1.19c0-.49.07-1,.09-1.47a1.77,1.77,0,0,1,1.49-1.71,2.17,2.17,0,0,0,.65-.31c.22-.1.44-.52.72,0,.05.1.71,0,.93-.15.42-.35,1.07,0,1.38-.59.06-.09.65.52.7.65s-.09.43-.13.64.23.56.42.81.33.24,0,.47a.5.5,0,0,0,0,.68,1,1,0,0,1-.07,1.17c-.13.16-.08.27,0,.42a.84.84,0,0,1-.16,0c-.33-.06-.66-.6-.91-.29a2.43,2.43,0,0,0-.79,1.54c0,.25,0,.48,0,.73a.74.74,0,0,0,1,.63c.18-.06.45-.15.51,0a.7.7,0,0,1,0,.67.5.5,0,0,0,0,.75c.13.13.33.26.23.57s.31.14.46.26.67,0,.34.47c-.06.08.05.22.14.25.5.14.52.77,1.06.91-.26.15-.44,0-.62,0,0,.07,0,.15-.12.1s-.35-.32-.6-.22a11.56,11.56,0,0,0-1.18.55c-.13.07-.14.21-.14.37l.9.57,0,0c.76,1.33,1.24,2.75,1.94,4.05A11.58,11.58,0,0,0,40,63.31a27.22,27.22,0,0,1,3.08,3.34A10.39,10.39,0,0,1,45,70.86v0l0,.33c.12.2.28.38.41.58a3.63,3.63,0,0,1,.71,1.84c-.13-.21-.25-.42-.38-.62a4.79,4.79,0,0,0-.12.71c0,.21,0,.53.41.3.16.38-.05.67-.19,1s-.2.5-.29.75,0,.25.05.37c.13.87.22,1.75.31,2.62a12,12,0,0,1,.1,2.68,42.89,42.89,0,0,0-.22,5.81l.1,0,0,0c.19,0,.46,0,.44.19-.06.51.94.45.55,1.09a.42.42,0,0,0,0,.52c.2.28-.1.65.14,1a3.4,3.4,0,0,0-1.16-.64c.11,1.6.27,2.57.27,2.57s0,.27-.09.69c.13-.21.27-.27.58-.08a1.6,1.6,0,0,0,.44.13c-.28.15-.47.28-.26.62,0,.08,0,.21,0,.31s-.56.32-.13.62a.92.92,0,0,1-.68.34.27.27,0,0,1-.22-.09,36.2,36.2,0,0,1-.65,4.06l-.2.26-.3.24a2,2,0,0,1-.42.11,1.18,1.18,0,0,1-.26,0,7.28,7.28,0,0,0-3.42.73,3.55,3.55,0,0,0-1.36,1.07,4.35,4.35,0,0,0-.71,1.39l.78,0H40a5.46,5.46,0,0,1,.7-1.41,3,3,0,0,1,1.68-1.22,3.31,3.31,0,0,1,.54-.06h1.39A6.7,6.7,0,0,0,46,99.43a.82.82,0,0,0,.52-.36,3.83,3.83,0,0,0,.34-.75c.21-.56.4-1.14.58-1.73.35-1.13.69-2.33.94-3.43a20.48,20.48,0,0,1-.51-3.07,14.56,14.56,0,0,1-.07-1.61A6.46,6.46,0,0,1,48,86.87c0-1.56,0-3.21-.1-4.82s-.14-3.26-.24-4.88c-.06-.8-.1-1.63-.19-2.41s-.26-1.57-.43-2.35a27.87,27.87,0,0,0-1.35-4.55c-1-1-1.88-2.1-2.77-3.18a38.25,38.25,0,0,1-2.6-3.47,25.45,25.45,0,0,1-1.57-4A12.42,12.42,0,0,1,38,52.94h.1a12,12,0,0,0,.94,4.12,28.08,28.08,0,0,0,1.72,3.86,40.74,40.74,0,0,0,2.67,3.28l1.41,1.61s.07,0,.1-.06.13.1.16,0-.06-.14-.13-.16.06-.16,0-.19c-.39-.65.27-.58.45-.83l.06,0h0c.19.17.35,0,.44-.17s-.11-.27-.22-.35a2,2,0,0,0-.34-.18c.22-.14.43.06.58-.13a3.37,3.37,0,0,0-.36-.3c-.53-.35-.55-.79-.07-1.31,0,0,0-.05,0-.07,0-.57.35-1.14.1-1.71a.65.65,0,0,1,0-.17,2,2,0,0,1,.23.77c0,.09,0,.19.07.18s0-.11,0-.18-.06-.49.31-.32c.12.06.06-.24.05-.36-.07-.58.16-.82.68-.68-.33-.25-.28-.75-.48-1.08.65-.05,1,.44,1.17,1a4.06,4.06,0,0,0,.42.63,14.6,14.6,0,0,1,.76,1.65,1,1,0,0,1,0,.34c-.1.06-.1-.18-.21-.1.07.12-.16.19-.05.33a1.11,1.11,0,0,1-.06,1.31c-.25.3,0,.69-.33.87-.06,0,0,.18,0,.28s0,.16-.12.3,0,.07,0,.09c.17.41-.24.9,0,1.29-.27-.32-.5-.67-1-.3-.34-.25-.77-.19-1.13-.38-.16-.08-.33-.25-.31.17-.18,0-.4-.06-.54,0h0c.38.4.76.79,1.14,1.15l.07.08,0,0a28.89,28.89,0,0,1,1.54,4.75,23.59,23.59,0,0,1,.49,2.45c.11.85.15,1.64.21,2.47.11,1.63.2,3.27.28,4.89s.16,3.25.1,5V87l0,.07a5.62,5.62,0,0,0-.17,1.41c0,.5,0,1,0,1.51a17.33,17.33,0,0,0,.46,3l0,.14,0,.09c-.3,1.28-.65,2.43-1,3.64-.2.58-.4,1.18-.64,1.78a4.77,4.77,0,0,1-.45.91,1.75,1.75,0,0,1-1,.67,8,8,0,0,1-2,.18H42.88c-.13,0-.26,0-.39,0a3,3,0,0,0-1.93,2c3.07,0,6.15.11,9.22.13q.09-.63.18-1.23a7.26,7.26,0,0,1,.35-1.39c.3-.87.59-1.75.87-2.65l0,0,0,0a3.5,3.5,0,0,0,.91-1,6.22,6.22,0,0,0,.26-1.3,1.67,1.67,0,0,1,.31-.73,1,1,0,0,1,.74-.34,2.18,2.18,0,0,0,.62-.14c.15-.08.16-.14.14-.36a8.85,8.85,0,0,1-.59-2.49c-.07-.42-.15-.81-.25-1.23a7.44,7.44,0,0,1-.25-1.28,44.08,44.08,0,0,1,0-5.14c0-.85.06-1.69.05-2.52s0-1.72,0-2.57a48.56,48.56,0,0,1,.5-5.11c0-.17.06-.34.08-.51a.55.55,0,0,1-.3.13c-.28,0-.27-.36-.41-.55a3,3,0,0,1,.86-.46h0a17,17,0,0,1,1-3.63c.29-.73.73-1.62.32-2-.19-.22-.48-.46-.74-.75a2.73,2.73,0,0,0-1.08.5.75.75,0,0,1-.95-.24A8.09,8.09,0,0,1,51.35,64c-.13-.31-.05-.65-.24-1-.08-.13.21-.16.3-.28s.25-.09.36,0,.34.39.53.57a.29.29,0,0,0,.23.07c.12,0,.08-.17,0-.27s-.18-.34-.26-.52a.62.62,0,0,1,.35-.89c.2-.09.2.08.24.17.16.39.31.78.44,1.18a1.58,1.58,0,0,0,.31.59,12.34,12.34,0,0,1-.16-5c.07-1.12,0-2.29.17-3.43a3.84,3.84,0,0,1,.11-.59h0a4.83,4.83,0,0,1,.3-1l.09,0a6.47,6.47,0,0,0-.21,1,2.46,2.46,0,0,1,1,0,4.22,4.22,0,0,0,.87,0,15.52,15.52,0,0,1,2,.31c.1,0,.18.14.27.22s-.23,0-.24.14c.15,0,0,.27.23.25a1,1,0,0,1,1.07.86c0,.42.58.44.48.85,0,.09.14.13.24.16s.17.07.17.3c0,0,0,.09,0,.09.48.09.58.79,1.12.79-.48.06-1,0-1,.74-.49.17-.79.61-1.23.83-.2.1-.49.16-.1.4-.14.18-.37.34-.41.53-.1.56-.31.3-.53.11,0,0,0-.09,0-.14l-.09-.11c0-.06-.08-.16-.13-.16-.86,0-.27-.61-.35-.94l.09,0h0c.31-.08.29-.32.21-.52s-.32-.06-.47,0a1.81,1.81,0,0,0-.42.21c.05-.3.38-.37.35-.63a4.77,4.77,0,0,0-.54.15c-.72.29-1.12,0-1.17-.73,0,0,0-.09,0-.1-.5-.33-.69-1-1.37-1.14a1.21,1.21,0,0,1-.16-.1c.34,0,.57.18.84.27l.08-.1c0-.15-.46-.25,0-.49.15-.08-.16-.21-.27-.27-.55-.3-.57-.66,0-1.07a.94.94,0,0,1-.6,0c-.08,1.11,0,2.24,0,3.38a12,12,0,0,0,.39,4.92,3.71,3.71,0,0,0,.52.88c2.8.1,5.91,0,8.71.14A51.23,51.23,0,0,0,72.1,65a23.59,23.59,0,0,0,8.14-1.84,17.26,17.26,0,0,0,1.8-1l1.84-1.12c1.14-.66,2.29-1.31,3.46-1.91a27.12,27.12,0,0,1-.21-5h0a1.6,1.6,0,0,1-.13-.83c0-.12,0-.14-.28-.29s-.23-.6-.06-.72.31.08.35.2a4.21,4.21,0,0,1,.18.72,36.28,36.28,0,0,1,1.35-7.46l.09,0a43.93,43.93,0,0,0-.92,7.38c.12-.17.22-.17.38,0,.28.4.11.76,0,1.14a.92.92,0,0,1-.41-.51,30.12,30.12,0,0,0,.14,3.69,22.85,22.85,0,0,0,.77,3.8l0,.09v.07a20,20,0,0,0,.13,6.28,13.69,13.69,0,0,0,2.39,5.11,3.15,3.15,0,0,0,.22.29l.1.14,0,0,0,.06a4.93,4.93,0,0,0,.23.46c0-.31.29-.5.5-.71a12.55,12.55,0,0,1,1.38-1.53c.11-.08.25-.23.29,0s.3.53.17.85c0,.07,0,.21,0,.25.78.65,0,1-.35,1.24s-.49,1-1,1.22c-.13.07-.06.15.08.19s.3.15.07.31c0,.14-.29.27-.09.39s.28.34.18.47c.79,1.66,1.64,3.29,2.53,4.9a16.35,16.35,0,0,1,1,2,15.08,15.08,0,0,1,1,5.33,1.72,1.72,0,0,1,0,.32h0a5.34,5.34,0,0,1-.18,1.12c-.44,1.47-1,2.85-1.61,4.25s-1.17,2.77-1.84,4.15a3.05,3.05,0,0,1-1.74,1.6,1.1,1.1,0,0,1-.69,0,1.37,1.37,0,0,0-.47-.18,2.59,2.59,0,0,0-1,.08,2.71,2.71,0,0,0-1.69,1.11,5.58,5.58,0,0,0-.76,1.55c2.41,0,4.84.08,7.22,0l.24,0a8.1,8.1,0,0,1,.08-1,4.07,4.07,0,0,1,.74-2c.72-1,1.41-2.08,2.09-3.12s1.38-2.18,2-3.24,1.21-2.24,1.88-3.35A9,9,0,0,1,103,88.42a1.43,1.43,0,0,0,.39-1.28c0-.37-.5-.93-.82-1.46a13.9,13.9,0,0,1-1-1.7c-.54-1.18-1.06-2.33-1.55-3.53-.24-.59-.47-1.2-.68-1.81a11.41,11.41,0,0,1-.47-1.94,32.85,32.85,0,0,1-.48-3.83c0-.66-.07-1.31,0-2a5.42,5.42,0,0,1,.38-2,15.31,15.31,0,0,1,2.29-3.2c.82-1,1.7-1.91,2.43-2.92a17.66,17.66,0,0,0,1.6-3.4c.3-.81.82-1.6,1.18-2.4,0-.1,0-.22,0-.32a31.85,31.85,0,0,0,.37-3.29,15.56,15.56,0,0,0-.31-3.27,9,9,0,0,0-3.21-5.61l.05-.08A9.27,9.27,0,0,1,106.67,50a14.25,14.25,0,0,1,.45,3.38,33.11,33.11,0,0,1-.29,3.35,29.77,29.77,0,0,0-.1,6.6,18.47,18.47,0,0,0,1.81,6.27l0,0c.44,1.17.88,2.34,1.27,3.55a11.83,11.83,0,0,1,.45,1.89,5.5,5.5,0,0,0,.65,1.6,18.89,18.89,0,0,0,1.77,3.21,10.38,10.38,0,0,0,2.36,1.92C115.8,78.61,117.56,74.8,117.06,71.54ZM30.2,25.71l.09,0c-.19.07-.59,0-.26.42a.18.18,0,0,1-.05.13c-.4.18-.61.76-1.2.6a1.07,1.07,0,0,0-.47,0,.51.51,0,0,1-.64-.19c-.19-.3-.24-.76,0-.9s-.29-.4,0-.58,0-.34-.1-.5a1.25,1.25,0,0,1,.58-1.79,2.16,2.16,0,0,0,.8-.33c.13.34-.21.38-.23.58a2.59,2.59,0,0,0,1.58-.49c0,.38-.17.62-.67,1.22.1.15.31,0,.41.15s-.28.23-.37.41c.11.2.33.15.49.23s.17.09.15.19-.12.11-.21.12a3.47,3.47,0,0,0-1,0C29.54,25.25,29.67,25.78,30.2,25.71Zm2.28,1.78a.72.72,0,0,0,.6-.58c.06-.26.18-.42.47-.26-.21.45-.1,1.06-.69,1.3a1.17,1.17,0,0,0-.86.11A.59.59,0,0,1,32.48,27.49Zm-.87,1.44.6-.18-.73.69C31.24,29.2,31.25,29,31.61,28.93Zm11.9,20.24a.62.62,0,0,1,.69,0C43.9,49.33,43.9,49.33,43.51,49.17Zm4.42-5.05c-.27-.13,0-.27-.12-.39s.13-.08.2-.08c.33,0,.65-.13,1-.19a4.88,4.88,0,0,1,3.05.59c-.26.33-.58.12-.92.3.58.22.56.88,1,1.19a1.7,1.7,0,0,1-1.51-.95c-.06-.12-.16-.07-.27-.06A4.12,4.12,0,0,1,47.93,44.12Zm3.72,3.45a.12.12,0,0,1-.09.21,1.58,1.58,0,0,1-1-.59c-.07-.1,0-.2.11-.2A4.44,4.44,0,0,1,51.65,47.57ZM51,46.2l.06-.06a.7.7,0,0,1,.51.33l0,.07-.07,0C51.32,46.49,51.09,46.48,51,46.2Zm-.91,27.93a1.92,1.92,0,0,1-1-.66c.26-.23.5-.37.74,0,.06.08.2.07.3.1s.33,0,.29.29S50.26,74.2,50.11,74.13ZM50,72.3c.1-.27.2,0,.31,0s.24-.3.32,0c.16.49.68.47.77,1,0,.22,0,.32-.16.36-.34-.36-.85-.34-1.16-.8A.67.67,0,0,1,50,72.3Zm1.68,10.47c-.06,0-.29,0,0,.1-.05.28.1.61,0,.81s-.25.58-.51.28c-.08-.09-.21,0-.32-.08s-.28.07-.11-.31c.08-.21-.18-.19-.25-.29.06-.62.42-.51.67-.74A1.14,1.14,0,0,1,51,82a.69.69,0,0,0,0-.1l.07,0a.26.26,0,0,1,.39.16c.07.15.16.14.26.16s.26-.1.27.14A.37.37,0,0,1,51.68,82.77Zm-.16-4.41c.31,0,.55.15.63.7a1,1,0,0,0,.22.51c-.17,0-.64-.42-.67-.68A1.44,1.44,0,0,0,51.52,78.36Zm1.25,2.8-.13,0h0c-.27.16-.55,0-.82,0s-.2-.6,0-.76a4.18,4.18,0,0,1,.56-.49c.1-.08.21-.13.26.13s.12.18.2.24.29.06.27.35S53,81.1,52.77,81.16Zm-.15-12.33a3.91,3.91,0,0,1,.83-.39,1.65,1.65,0,0,1-.75.56,11,11,0,0,0-1.29.89c-.42.31-.39.47,0,.9a1.73,1.73,0,0,0,1,.58c.22.06.22.1.15.35a2.05,2.05,0,0,0-.06,1.45c.28.67.4.76.93.4a.52.52,0,0,1,.15-.06,1.21,1.21,0,0,1-.36,1.08c-.38.32-.38.89-.42,1.42,0,.17,0,.33-.05.64-.67-1-1.65-.75-2.45-1.34a.47.47,0,0,1,.57-.07,7.66,7.66,0,0,0,.93.4c.44.18.66.07.71-.53a5.63,5.63,0,0,0,0-1.36.71.71,0,0,0-.11-.32,1.5,1.5,0,0,1-.34-1c0-.19,0-.39-.27-.37s-.36-.41-.48-.64c-.35-.63-.37-.68-.93-.46,0-.17,0-.33,0-.49a.73.73,0,0,1,0-.25c-.18-.32,0-.43.18-.49A10.51,10.51,0,0,0,52.62,68.83Zm-1.1-19.17a3.39,3.39,0,0,1-2.07-1.76,1.52,1.52,0,0,1,1.26.47c.08.1.22.24.34.08s-.07-.19-.14-.28-.5-.23-.29-.44.49,0,.66.23a1.68,1.68,0,0,1,.16.33c.17.28.21.66.65.72C51.68,49.07,51.35,49.14,51.52,49.66Zm1.32,10.55c0,.14,0,.36-.22.36s-.19-.17-.21-.31c-.07-.47-.5-.75-.6-1.2-.06-.28-.23-.62.3-.61a7.35,7.35,0,0,0,0-1.24c0-.14,0-.25.14-.3s.19,0,.28.09a1.31,1.31,0,0,1,.4.83c0,.18-.1.23-.26.23A9.24,9.24,0,0,1,52.84,60.21ZM81.65,41.36a.82.82,0,0,1-.8,0A.82.82,0,0,1,81.65,41.36Zm-22.44,0c.06-.11.18-.08.28-.08.38,0,.72.28,1.13.13.05,0,.23.13.25.22s-.11.21-.22.23a3.08,3.08,0,0,1-.53,0c-.28,0-.57.06-.76-.25C59.3,41.52,59.13,41.47,59.21,41.32Zm2.33,4.29c-.41,0-.67.25-1,.38,0,.19.25.17.35.35-.34,0-.56.26-.91.22a1.17,1.17,0,0,0,.3.48c0,.06.21.09.12.19-.51.6,0,.92.34,1.3,0,0,0,.09.09.29-.53-.37-1.09-.44-1.44-.87a2.83,2.83,0,0,1-.9-1.75c0-.3.05-.32.25-.35a1,1,0,0,1,.21-.9c.35-.33-.11-1,.48-1.25a.74.74,0,0,0-.12-.17c-.41-.28-.09-.57.06-.74s.45.06.51.18c.16.34.53.44.75.72-.12.14-.29,0-.43.1.06.19.25.21.37.32l-.24.15c.26.07.11.41.32.5s.57.25.92.39l-.33.13C61.29,45.42,61.5,45.39,61.54,45.61Zm3.37,15.28c0-.14-.19-.18-.32-.24s-.47-.06-.44-.35a.56.56,0,0,1,.47-.55l.21,0h0a2.68,2.68,0,0,1,1.32,0c.26,0,.31.6.07.76a7.84,7.84,0,0,1-.9.49C65.17,61.1,65,61.15,64.91,60.89Zm.7,1a.84.84,0,0,0-.34-.51c.26,0,1,.42,1.06.68a1.31,1.31,0,0,0,.29.53C66.13,62.54,65.74,62.4,65.61,61.85Zm1.59-3.48a.86.86,0,0,1,.29.58l.06.1-.11,0a.52.52,0,0,1-.62-.16c-.11-.15-.26-.14-.42-.16s-.42.1-.44-.14.17-.37.41-.41.47,0,0-.1c.09-.28-.15-.61,0-.81s.39-.58.81-.28c.13.09.34,0,.51.08s.45-.07.18.31c-.14.21.29.19.4.29C68.18,58.25,67.6,58.14,67.2,58.37Zm2.71-11.1a2,2,0,0,1-.34-.05,1.08,1.08,0,0,0,.11.18.1.1,0,0,1,0,.05c-.14.09-.57-.2-.39.32,0,.1-.17.06-.25,0l-1.62-.47c.33.19.41.57.58.87l-.11.09-.11.05.13,0c0,.12,0,.24-.17.29l-.15,0c-.21.1.36.45-.15.45-.19,0-.36-.23-.57,0h0c-.16,0-.27-.16-.44-.07s.07.22.15.31.47.37,0,.53a.19.19,0,0,0-.06.35c.11.09.31.2.12.37s-.41,0-.53-.13-.28-.45-.52-.57-.2-.16-.27,0,0,.2,0,.3l0,0a2.43,2.43,0,0,1-1.65-.33.46.46,0,0,1-.07-.14,1.85,1.85,0,0,0-.66-1.35,2.44,2.44,0,0,1-.76-1,.72.72,0,0,0,.3.07c.21,0,.36-.12.46-.38.21-.56.65-.54,1.12-.43a1.74,1.74,0,0,0,.39-.9l0-.06c.38.13.61-.27,1-.22-.22-.2-.31-.39-.17-.65a.3.3,0,0,0-.1-.42c-.29-.15-.22-.35-.11-.57l0,0a1.8,1.8,0,0,1,1.83.2,1.11,1.11,0,0,0,1.23.06,1.4,1.4,0,0,0,.32-1.62c-.33-.34,0-.72-.22-1-.07-.09.18-.12.28-.11.42.06.83.13,1.24.21a.88.88,0,0,0,.6-.06c-.36-.09-.48-.37-.39-.56s.15-.46.49-.52.62-.33,1-.35.34-.37.41-.61A1.16,1.16,0,0,1,73,38.42a6.9,6.9,0,0,1,2.64,0,.43.43,0,0,1,.2.77c-.05,0-.17.12-.11.13.5.15.23.56.31.84-.13.11-.19,0-.27-.08-.26-.11-.38.12-.5.23s.16.16.24.26l.1.12s-.09.08-.13.09c-.49.13-.54.45-.45.94s.28.42.55.53.25.35,0,.54h0c-.24.41.34.19.29.49-.11.07-.44-.15-.5.15s.39.3.44.59c-.44.13-.78-.38-1.22-.21,0,.16.11.15.17.22s.23.14.18.29-.18.13-.3.11-.19,0-.21.11.08.14.14.19l.37.29c.06,0,.14.12.14.15-.46.71.25,1.09.45,1.61a.35.35,0,0,1,0,.12c0,.17-.23.16-.28.29h0c-.39.16-.58.63-1.09.65-.29,0-.1.47-.29.57-.44.23,0,.31.06.45a1.23,1.23,0,0,0,.17.32H74c-.22,0-.56-.33-.59.21-.33,0-.25.54-.61.53-.15.41-.15.41.15.73-.89-.13-2-1-2-1.57l.72.43c.19.12.33,0,.47-.09s-.05-.23-.09-.33c-.18-.5-.63-.81-.86-1.32A1.48,1.48,0,0,0,69.91,47.27Zm7.39,16.4-.49.08a3.52,3.52,0,0,0-1.16.23,3.7,3.7,0,0,1-2,.06l.72-.15a5.09,5.09,0,0,0-.63-.35c-.19-.1-.52-.15-.42.28-.4,0-.62-.27-.86-.51A12.55,12.55,0,0,1,71,61.93c-.08-.11-.23-.25,0-.29s.53-.3.85-.17c.07,0,.21,0,.25,0,.65-.78,1,.05,1.24.35s1,.49,1.22,1c.07.13.15.06.19-.08s.15-.3.31-.07c.14,0,.27.29.39.08.3-.5.52-.09.71.06a1.82,1.82,0,0,0,1.15.37c.08,0,.14,0,.17.07S77.34,63.53,77.3,63.67Zm-.42-14.58a.91.91,0,0,1-.62-.39c-.15-.19,0-.54-.19-.79-.06-.06.18-.14.31-.17,0-.28.11-.37.33-.24s.62.43,1,.67C77.22,48.37,76.89,48.59,76.88,49.09Zm1.68-2.53a.42.42,0,0,1-.46.17,4.31,4.31,0,0,1-1.1-.59c-.17-.14.06-.43,0-.64.67,0,1,.48,1.45.84C78.55,46.39,78.62,46.47,78.56,46.56Zm.52-1.28a.34.34,0,0,1,.32-.12c.54.08.54.08.44-.5l.56.28c.29.16.57.36.67-.2,0-.21.23,0,.35,0l0,0c.4.28.72.58.42,1.13a.84.84,0,0,0,0,.42c0,.66,0,.56-.61.61-1.06.09-1.48-.75-2.11-1.29A.17.17,0,0,1,79.08,45.28Zm1.19,10.84a4.82,4.82,0,0,1-1,.74c.28-.44.25-.84.49-1.16s.43-.18.62,0S80.44,56,80.27,56.12Zm4.1.12c-.32.2-.57.61-1.05.38a.31.31,0,0,0-.34.08,7.05,7.05,0,0,1-1.63.8l0,0,0,0-.09,0a1.09,1.09,0,0,1,.69-.79,4.12,4.12,0,0,0,1.53-1.37.76.76,0,0,1,.49-.32c-.09.21-.37.32-.26.55s.34.18.55.15.21,0,.25.13A.25.25,0,0,1,84.37,56.24Zm-1.23-1.39c0-.27.41-.25.33-.56,0-.11.15-.1.25-.08s.15,0,.16.09,0,.16-.11.2A1.84,1.84,0,0,1,83.14,54.85Zm1.68-1.7c0,.09-.22,0-.23-.14a.81.81,0,0,0-.75.43,1.1,1.1,0,0,1-.62.5c-.23-.24-.31.07-.43.15a.44.44,0,0,1-.48,0c-.22-.11-.17-.27-.09-.44l-.08-.07-.6.24c-.06-.15-.14-.26,0-.43a4.12,4.12,0,0,1,2.32-1.27,1.13,1.13,0,0,0,.45-.23c.11-.07.16-.34.33-.14s.29.39,0,.55a.38.38,0,0,0-.23.26c.32.08.57-.15.88-.3C85.27,52.69,85,52.88,84.82,53.15Zm4,2.07c-.28,0-.39-.17-.41-.43a2.08,2.08,0,0,1,.32-.89c.11.29.63.21.59.52S89.3,55.16,88.84,55.22Zm.79-6.34c-.08.08-.21.18-.33.07s-.57-.37-.5-.78c.33,0,.5.28.72.47S89.74,48.76,89.63,48.88Zm-.22-5.18c-.23-.07-.55,0-.61-.32s.22-.2.36-.17.46.06.52.32S89.54,43.74,89.41,43.7Zm5.88,9.37c.47-.07.75-.5,1.2-.6.28-.06.62-.23.61.3a7.35,7.35,0,0,0,1.24-.05c.14,0,.25,0,.3.14s0,.19-.09.28a1.31,1.31,0,0,1-.83.4c-.18,0-.23-.1-.23-.26a9.24,9.24,0,0,1-2.15.22c-.14,0-.36,0-.36-.22S95.15,53.09,95.29,53.07Zm-1-4.74c.06.07.12.13.09.22a.17.17,0,0,1-.19.15c-.18,0-.35-.14-.55-.09s-.27.22-.48.18C93.54,48,93.88,47.91,94.29,48.33ZM91.52,54.8a.16.16,0,0,0-.12-.19c-.14,0-.24,0-.31.18a1.14,1.14,0,0,1-.73.61c-.25-.41-.21-.92-.6-1.3a.74.74,0,0,1,.24-1c.2-.14.38-.31.56-.46h0s0-.08-.09-.12-.11-.16,0-.25c.56-.5.94-1.28,1.89-1.22-.28.16-.23.63-.67.68-.13,0-.12.12-.06.2a2.78,2.78,0,0,0,.84-.2c.13-.08.16.21.28.3s.09.25,0,.36-.39.34-.57.53a.29.29,0,0,0-.07.23c0,.12.17.08.27,0s.34-.18.52-.26a.62.62,0,0,1,.89.35c.09.2-.08.2-.17.24-.39.15-.78.31-1.18.44A1.17,1.17,0,0,0,91.52,54.8Zm2,12.19a1.31,1.31,0,0,0-.53.29c0-.49.15-.88.7-1a.84.84,0,0,0,.51-.34C94.25,66.19,93.79,67,93.53,67Zm2.25-.18c0,.26-.6.31-.76.07a6.56,6.56,0,0,1-.49-.9c-.08-.15-.13-.33.13-.41s.18-.19.24-.32.06-.47.35-.44a.56.56,0,0,1,.55.47l0,.21h0A2.68,2.68,0,0,1,95.78,66.81Zm5,22.28a2.08,2.08,0,0,1,.89.32c-.29.11-.21.63-.52.59s-.74,0-.8-.5C100.29,89.22,100.5,89.11,100.76,89.09Zm-.91-8.71c.29.22.18.43,0,.62s-.32.1-.46-.08a4.49,4.49,0,0,1-.74-1C99.12,80.17,99.53,80.14,99.85,80.38Zm-1.11,2.16a4.12,4.12,0,0,0,1.37,1.53.76.76,0,0,1,.32.49c-.21-.09-.32-.37-.55-.26s-.18.34-.15.55,0,.21-.13.25a.25.25,0,0,1-.29-.07c-.2-.32-.61-.57-.38-1a.31.31,0,0,0-.08-.34,7.05,7.05,0,0,1-.8-1.63l0,0s0,0,0,0a.36.36,0,0,1,0-.09A1.09,1.09,0,0,1,98.74,82.54ZM98.6,67.85c-.09.13,0,.34-.08.51s.07.45-.31.18c-.21-.14-.19.29-.29.4-.62-.1-.51-.68-.74-1.08a.86.86,0,0,1-.58.29l-.1.06s0-.08,0-.11a.52.52,0,0,1,.16-.62c.15-.11.14-.26.16-.42s-.1-.42.14-.44.37.17.41.41,0,.47.1,0c.28.09.61-.15.81,0S98.9,67.43,98.6,67.85Zm2.22-12.2a4.22,4.22,0,0,0,0,.87,15.52,15.52,0,0,1-.31,2c0,.1-.14.18-.22.27s0-.23-.14-.25c0,.16-.27,0-.25.24A1,1,0,0,1,99,59.86c-.42,0-.44.58-.85.48-.09,0-.13.14-.16.24s-.07.17-.3.17c0,0-.09,0-.09,0-.09.48-.79.58-.79,1.12-.06-.48,0-1-.74-1-.17-.49-.61-.79-.83-1.23-.1-.2-.16-.49-.4-.1-.18-.15-.34-.37-.53-.41-.56-.1-.3-.31-.11-.53,0,0,.09,0,.14,0l.11-.09c.06,0,.16-.08.16-.13,0-.86.61-.27.94-.35l0,.09h0c.08.31.32.29.52.21s.06-.32,0-.47a1.81,1.81,0,0,0-.21-.42c.3,0,.37.38.63.35a4.77,4.77,0,0,0-.15-.54c-.29-.72,0-1.12.73-1.18,0,0,.09,0,.1,0,.33-.5,1-.69,1.14-1.37,0,0,.06-.09.1-.16,0,.34-.18.57-.27.84a.39.39,0,0,0,.1.08c.15,0,.25-.46.49,0,.08.15.21-.16.27-.27.3-.55.66-.57,1.07,0-.16-.48.19-.86.21-1.31A1.6,1.6,0,0,1,100.82,55.65Zm3.05-7.54c-.18-.16-.35-.45-.52-.45-.63,0-.74-.59-1.11-.88s-.28-.06-.37.11c-.22.4,0,.82-.05,1.24l-.52-.83c-.22,0-.15.29-.37.3,0-.13-.06-.26-.1-.39s-.08-.24-.12-.19c-.39.43-.87-.41-1.24.11-.08.11-.14-.05-.16-.11s-.16-.38-.24-.58l-.09,0c-.25,0-.17.31-.26.48A1.33,1.33,0,0,1,99.16,45h0c.2,0,.28.18.3.42.16-.37.47-.44.75-.58h0c.42.38.12-.33.35-.25.23.32.52.32.71,0s.34-.07.48.08.18.51.53.25c.08-.07.19,0,.24.15A32.6,32.6,0,0,1,103.87,48.11Zm9.35,31.24c-.24-.46-.47-.92,0-1.4.1-.11.19-.22.35-.16a.26.26,0,0,1,.19.29C113.62,78.52,113.77,79.08,113.22,79.35Z"/><path d="M46.18,64.54s0,0,0,0h0s0,0,0,0Z"/><path d="M46.9,59.17s0,0,0,0h0a.06.06,0,0,0,0,0Z"/><path d="M109.76,53.89c.07-.33-.05-.45-.29-.48A.48.48,0,0,0,109.76,53.89Z"/><path d="M30.9,53.05a3.08,3.08,0,0,1,.13-.91,5.2,5.2,0,0,0-.45.71Z"/><path d="M24.73,123.76l-2.82-14.32h2.43l1.77,9.84,2.14-9.84h2.83l2.06,10,1.81-10h2.38l-2.85,14.32H32l-2.35-10.71-2.32,10.71Z"/><path d="M38.67,123.76V109.44H41v14.32Z"/><path d="M43.56,123.76v-14.2h2.37v11.77h5.89v2.43Z"/><path d="M53.7,109.44H58a6.31,6.31,0,0,1,2.47.37A4.07,4.07,0,0,1,62,111a6.53,6.53,0,0,1,1.1,2.26,12.45,12.45,0,0,1,.4,3.44,11.05,11.05,0,0,1-.42,3.23,6.36,6.36,0,0,1-1.06,2.17,4.07,4.07,0,0,1-1.56,1.21,5.83,5.83,0,0,1-2.35.41H53.7Zm2.37,2.42v9.47h1.78a4.69,4.69,0,0,0,1.65-.21,2,2,0,0,0,.84-.65,3.66,3.66,0,0,0,.54-1.37,11,11,0,0,0,.22-2.47,11.74,11.74,0,0,0-.22-2.51,3.34,3.34,0,0,0-.69-1.44,2.13,2.13,0,0,0-1.12-.69,9,9,0,0,0-1.93-.13Z"/><path d="M70.5,109.44h4.32a6.33,6.33,0,0,1,2.48.37A4.12,4.12,0,0,1,78.83,111a6.37,6.37,0,0,1,1.11,2.26,12.84,12.84,0,0,1,.4,3.44,11.05,11.05,0,0,1-.42,3.23,6.37,6.37,0,0,1-1.07,2.17,4.12,4.12,0,0,1-1.55,1.21,5.83,5.83,0,0,1-2.35.41H70.5Zm2.36,2.42v9.47h1.78a4.75,4.75,0,0,0,1.66-.21,2,2,0,0,0,.84-.65,3.66,3.66,0,0,0,.54-1.37,11.69,11.69,0,0,0,.21-2.47,11.12,11.12,0,0,0-.22-2.51,3.22,3.22,0,0,0-.68-1.44,2.16,2.16,0,0,0-1.13-.69,8.87,8.87,0,0,0-1.92-.13Z"/><path d="M82.07,116.69a10.11,10.11,0,0,1,.76-4.22,5.69,5.69,0,0,1,2-2.46,5.17,5.17,0,0,1,3-.81,5.09,5.09,0,0,1,4.11,1.92,8.38,8.38,0,0,1,1.59,5.48,8.52,8.52,0,0,1-1.68,5.61,5.42,5.42,0,0,1-8,0A8.41,8.41,0,0,1,82.07,116.69Zm2.44-.1a6,6,0,0,0,.94,3.7,2.81,2.81,0,0,0,2.33,1.24,2.77,2.77,0,0,0,2.31-1.23,6.2,6.2,0,0,0,.92-3.76,6.1,6.1,0,0,0-.89-3.68,2.79,2.79,0,0,0-2.34-1.19,2.83,2.83,0,0,0-2.36,1.2A6.14,6.14,0,0,0,84.51,116.59Z"/><path d="M101,118.5v-2.42h5.11v5.7a6.37,6.37,0,0,1-2.19,1.57,6.79,6.79,0,0,1-2.84.65,5.64,5.64,0,0,1-3.07-.85,5.81,5.81,0,0,1-2.1-2.56,9.6,9.6,0,0,1-.78-4,9.33,9.33,0,0,1,.79-4,5.83,5.83,0,0,1,2-2.51,5.23,5.23,0,0,1,3-.83,4.61,4.61,0,0,1,5,4.2l-2.34.54a3.08,3.08,0,0,0-1-1.69,2.54,2.54,0,0,0-1.68-.58,3,3,0,0,0-2.45,1.17,5.68,5.68,0,0,0-.94,3.59,6.45,6.45,0,0,0,1,3.94,2.79,2.79,0,0,0,2.35,1.16,3.57,3.57,0,0,0,1.44-.33,4.25,4.25,0,0,0,1.33-.89V118.5Z"/></svg>