<svg id="Layer_1" data-name="Layer 1" xmlns="http://www.w3.org/2000/svg" width="128" height="128" viewBox="0 0 128 128"><title>Wildlife glyph</title><path d="M50.82,51.9a41.6,41.6,0,0,1-9.56,15.74,18.17,18.17,0,0,1-2.69,2.27c-4.44,3-9.74,3.25-13.22.58-3.28-2.52-4.53-7.71-2.21-12.63a60.57,60.57,0,0,1,7.17-11.25c5.05-6.45,8.81-13.41,9.49-21.67.24-3-.43-6.07-.44-9.11A100.11,100.11,0,0,1,39.87,5a3.4,3.4,0,0,1,1.05-1.75A1.74,1.74,0,0,1,43.25,3a4.27,4.27,0,0,1,1.27,1.27C52.69,18.52,56.28,33.5,50.82,51.9Z"/><path d="M37.43,1.09a17.21,17.21,0,0,1-2.24,6.16,29.93,29.93,0,0,1-4.65,6.47c-7.33,7.82-9.74,17.19-9.12,27.6.23,3.88.68,7.76.57,11.63a22.89,22.89,0,0,1-1.57,7.17c-1.3,3.49-3.66,6.17-7.64,6.49-4.14.35-7.29-1.66-9.5-5C-.3,56.12-.37,50,.38,43.82,2.9,23.34,14.79,9.47,32.72.87,34.54,0,34.63.33,36.3,0A1,1,0,0,1,37.43,1.09Z"/><path d="M107.94,127.7a12.46,12.46,0,0,1-5-.14c-2-.48-4-1-6-1.35-6.44-1.25-12.75-.11-19.06,1.16a25.25,25.25,0,0,1-11.91-.17,11.42,11.42,0,0,1-6.43-4.11,8.72,8.72,0,0,1-.09-10.58,33.44,33.44,0,0,1,7-7.46c4.81-3.68,9.78-7.09,13.48-12a16.27,16.27,0,0,1,3.27-3c4.34-3.28,9.48-3.63,14-.53,2.76,1.91,5.06,4.47,7.59,6.71,2.93,2.6,5.68,5.5,8.89,7.7,4.27,2.91,7.11,6.36,6.39,11.74-.74,5.58-4,9.32-9.19,11.29A16.18,16.18,0,0,1,107.94,127.7Z"/><path d="M88.75,64.62a21.2,21.2,0,0,1,.67,10.81,26.29,26.29,0,0,1-.8,3.29c-1.14,3.53-3.84,5.08-7.48,5.18s-6.21-1.33-7.74-4.58a16.73,16.73,0,0,1-1.1-10.85,35.51,35.51,0,0,1,3.11-9.16c2.26-4.24,6-4.51,9.39-1.15A16.34,16.34,0,0,1,88.75,64.62Z"/><path d="M70.44,80.19a21.1,21.1,0,0,1,.47,10.7A25.94,25.94,0,0,1,70,94.2c-1.18,3.45-3.94,4.83-7.47,4.91a7.59,7.59,0,0,1-7.66-4.71C53,90,53.12,85.49,54.32,81a26.11,26.11,0,0,1,3-7.07c2.23-3.53,5.72-3.76,8.75-.88A16.46,16.46,0,0,1,70.44,80.19Z"/><path d="M92.72,73.7C93,68.45,94.08,63.64,97,59.41c2.73-3.92,6.35-4.18,9.54-.65,3.58,4,4.41,8.85,4,14a22.27,22.27,0,0,1-1.31,5.91c-1.56,4.23-4.92,6.15-9.3,5.63-3.89-.46-6.31-3-7-7.43C92.83,75.75,92.8,74.63,92.72,73.7Z"/><path d="M110.58,89.32a24.79,24.79,0,0,1,2.91-11.72c2.73-5,6.73-5.4,10.46-1.13,4.19,4.81,5.34,14.59,2.46,20.29-1.5,3-4,4-7.09,4.1s-5.64-1-6.91-3.73A20.37,20.37,0,0,1,110.58,89.32Z"/></svg>