<svg id="Layer_1" data-name="Layer 1" xmlns="http://www.w3.org/2000/svg" width="128" height="128" viewBox="0 0 128 128"><title>Artboard 13 copy 5</title><path d="M100.81,39a2.11,2.11,0,0,1-.39-.92.55.55,0,0,1,.15-.52,1.88,1.88,0,0,1,.4-.27,2.76,2.76,0,0,0,.53-.41,10.56,10.56,0,0,1-1.12.09c-1,0-2.71-.06-2.71-.06s1,1.73,1.25,2.21a4.55,4.55,0,0,1,.29,3.15h0a1.74,1.74,0,0,0,.13.73c.09.27.2.55.31.83a7.14,7.14,0,0,1,.29.89,1.79,1.79,0,0,1,0,1.09l0,0a2.57,2.57,0,0,0-.07,1.26,4,4,0,0,0,.13.6c.56.2,1.09.43,1.62.66.3.13.6.27.89.38a1.88,1.88,0,0,0,.83.15,6.54,6.54,0,0,0,1.8-.46,1.47,1.47,0,0,0,.74-.44,1.44,1.44,0,0,0,.23-.67c-.61-.16-1.22-.31-1.82-.5a14.66,14.66,0,0,1-2-.78c.7.2,1.4.36,2.11.49s1.28.25,1.92.36a8.77,8.77,0,0,0,.51-1.55,1.9,1.9,0,0,1,.55-1l.11-.12c-1.08-.66-2-1.4-3.05-2.08a20.62,20.62,0,0,1-2.9-2.46A7.59,7.59,0,0,1,100.81,39Zm-.89-.78a.76.76,0,0,1-1.16,0,.44.44,0,0,1,0-.53.78.78,0,0,1,1.16,0A.41.41,0,0,1,99.92,38.22Z"/><path d="M107.89,43.84s0,0,0,0Z"/><path d="M42,69c-.59-.85-1.07-1.68-1.58-2.53s-1.05-1.84-1.56-2.76c-1-1.85-2-3.72-2.89-5.65a19,19,0,0,1-1.16-3c-.29-1-.57-2-.8-3.06s-.47-2.06-.66-3.1c0,0,0-.09,0-.13,0,2.34.1,4.67.21,7,.06,1.29.14,2.58.26,3.86a36.72,36.72,0,0,0,.49,3.81v.06a12.52,12.52,0,0,1-.08,1.83,4.09,4.09,0,0,1-.63,1.85,2.7,2.7,0,0,1-.75.72c-.28.19-.51.31-.77.47l-1.53.91c-1,.6-2,1.21-3,1.85-.49.32-1,.64-1.45,1a10.43,10.43,0,0,0-1.32,1l-.09.08-.09,0c-1.24.53-2.48,1-3.76,1.43-.63.22-1.27.43-1.92.61-.34.09-.67.17-1,.24l-.53.1-.5.05A9.88,9.88,0,0,0,13.37,77a5.06,5.06,0,0,0-.73.53,1.4,1.4,0,0,0-.43.52,3.94,3.94,0,0,0-.1.79c0,.32,0,.65,0,1,0,2.62.12,5.26.18,7.92l.59,1s4.77.24,5.8.11l-1-1c-.67-.58-2.91-.38-3.32-.38L13.83,87l-.1-.46a13,13,0,0,1-.27-2.32A4.51,4.51,0,0,1,14,81.74a5,5,0,0,1,1.9-1.58,9.4,9.4,0,0,1,2.2-.81c2.93-.57,5.79-1.16,8.69-1.79l4.32-.94,2.15-.49a11.51,11.51,0,0,0,2.09-.61,18.16,18.16,0,0,0,3.71-2.3c1-.74,1.92-1.53,2.84-2.33C41.93,70.25,42,69.6,42,69Z"/><path d="M113.7,97a4.55,4.55,0,0,0-1.91-.57,7.8,7.8,0,0,0-1.08,0c-.33,0-.78,0-1.19,0a5.85,5.85,0,0,1-2.53-.57,3,3,0,0,1-.6-.43,3.46,3.46,0,0,1-.45-.6c-.22-.36-.39-.71-.58-1.06-.36-.69-.7-1.39-1-2.09q-1-2.1-1.94-4.22t-1.84-4.27c-.29-.72-.59-1.44-.86-2.18s-.56-1.39-.89-2.08c-1.3-2.76-2.91-5.4-4.36-8.16l0-.07v-.09c0-1.62-.18-3.26-.33-4.89s-.33-3.27-.52-4.9-.38-3.26-.59-4.9l-.33-2.44-.18-1.22-.09-.61,0-.1c-.07.16-.15.32-.23.48-.43.77-.88,1.54-1.38,2.27s-1.06,1.44-1.64,2.11c-.3.34-.6.66-.93,1a5.36,5.36,0,0,1-1.13.87l0,0h0c-.45.07-.91.12-1.36.16v0l.21.94.41,1.89L87,65q.8,3.74,1.52,7.47l2.39,2.86,1.22,1.45c.2.24.41.5.6.77l.55.81c1.39,2.14,2.66,4.33,3.92,6.53s2.49,4.41,3.7,6.65c.3.57.59,1.12.87,1.71a8.2,8.2,0,0,0,.4.79,4.64,4.64,0,0,0,.5.69,10.3,10.3,0,0,0,2.66,2.16c1.6.17,3.21.33,4.82.48,1.37.11,2.76.23,4.12.28A1.43,1.43,0,0,0,113.7,97Z"/><path d="M87.7,56.87c.3-.3.6-.61.89-.93.58-.65,1.14-1.32,1.67-2s1.06-1.39,1.53-2.12.28-.39.52-.74A3.49,3.49,0,0,1,90.49,50a4.88,4.88,0,0,1-1.16-2.08,6.58,6.58,0,0,1,.2-4.59l.06,0a6.25,6.25,0,0,0-.25,2.23,7.16,7.16,0,0,0,.49,2.15A7.52,7.52,0,0,0,91,49.52a6.29,6.29,0,0,0,1.52,1.32l.26.12a2.25,2.25,0,0,0,.36.06,6,6,0,0,0,.73,0,8.9,8.9,0,0,0,1.46-.13,14.42,14.42,0,0,0,2.82-.8,10.1,10.1,0,0,0,1.05-.58.87.87,0,0,0,.37-1,7.2,7.2,0,0,1-.46-3.15c.24-1.08-.72-2.54-.39-3.22v0c.35-.89-2.23-5.57-2.21-5.59a42.12,42.12,0,0,0,5.89-.36h0c0-.08-.23-.29-.44-.41A14.68,14.68,0,0,0,99,34.54c-1-.27-2.11-.69-3.12-1a12.34,12.34,0,0,0-3.14-.45,5.69,5.69,0,0,0-3,.87c-.45.27-.89.59-1.36.89a7.29,7.29,0,0,0-1.3,1.05,11,11,0,0,0-1.91,2.52,7.26,7.26,0,0,1,.55-1.12,20.72,20.72,0,0,0-2.34-.2,21.31,21.31,0,0,0-2.77.08,13.21,13.21,0,0,0-2.06.34,8.21,8.21,0,0,0-2.14.8l-.09,0h-.12c-3.84-.41-7.7-.68-11.54-.81s-7.71-.2-11.54,0c-1.92.1-3.82.29-5.72.56-.47.06-.94.16-1.4.24a8.54,8.54,0,0,0-1.49.32l-.68.06a19.22,19.22,0,0,1-2.49-1,30,30,0,0,1-4.68-3.4A10.3,10.3,0,0,1,34,30.87a14.64,14.64,0,0,1-.6-2.29,1.2,1.2,0,0,0-.56-.79,6,6,0,0,0-3.65-.58c-2.89.29-5.2,5.3-5.62,6.64s-5.72,26.81-5.72,26.81a18.39,18.39,0,0,1-.78,2.64l-1,1.92a12.65,12.65,0,0,0-.86,1.94,6.42,6.42,0,0,0-.13,2.1,4.73,4.73,0,0,0,.19,1,2,2,0,0,0,.53.9h.09a.77.77,0,0,0,.55-.2,3.71,3.71,0,0,0,.47-.5,8.56,8.56,0,0,0,.76-1.16,9.32,9.32,0,0,0,.57-1.14,4.16,4.16,0,0,0,.31-1.33c.06-1,0-1.91,0-2.88A11.75,11.75,0,0,1,19,61.18c.3-2.16,4.56-25.46,7.59-29.85a5.93,5.93,0,0,1,1-1.17,2.5,2.5,0,0,1,.73-.48,2.66,2.66,0,0,1,.85-.22,2.43,2.43,0,0,1,2.47,2.16A10.27,10.27,0,0,0,34,36.52a36.61,36.61,0,0,0,4.29,4.23c-.62.23-1.23.46-1.83.71a5.66,5.66,0,0,0-1.08.86,13.42,13.42,0,0,0-1.84,2.2,7.46,7.46,0,0,0-.34,2.76c.12.51.25,1,.38,1.52q.42,1.52.9,3l1,3a18.53,18.53,0,0,0,1.27,2.81c.49.93,1,1.85,1.52,2.75l1.55,2.74c.53.91,1.06,1.81,1.61,2.7s1.11,1.79,1.69,2.57l.14.19v.21c0,2.16-.14,4.29-.25,6.43s-.24,4.27-.38,6.41c-.08,1.06-.16,2.13-.25,3.2,0,.53-.1,1.07-.18,1.63s-.18,1-.3,1.51c-.23,1-.49,2.09-.77,3.13s-.49,1.81-.8,2.73l6.85,3.94,7.27.06a4.81,4.81,0,0,0-1.56-1.73,4,4,0,0,0-1.42-.57,9.17,9.17,0,0,0-1.64-.13,7.4,7.4,0,0,1-3.5-1,3.35,3.35,0,0,1-1.27-1.48,2.54,2.54,0,0,1-.16-1,5,5,0,0,1,.19-.91c.58-2.24,1.21-4.44,1.81-6.66s1.24-4.41,1.69-6.67L50.25,71c.28-1.11.54-2.22.78-3.34.12-.56.24-1.12.31-1.68a5.51,5.51,0,0,0,0-1.67,12.66,12.66,0,0,0-1-3.22c-.46-1.05-.9-2.12-1.31-3.2a29,29,0,0,1-1.06-3.31,13.88,13.88,0,0,1-.3-1.73,15.59,15.59,0,0,1,.08-3,4.84,4.84,0,0,1,.64-1.64,7,7,0,0,1,1.09-1.34,6.33,6.33,0,0,1,1.37-1,12.76,12.76,0,0,0-1.88,2.66A9.06,9.06,0,0,0,48.38,50a4.65,4.65,0,0,0-.15.76,9.27,9.27,0,0,0-.06,1.17c0,.36.06.74.06,1.11l.28.6a42.5,42.5,0,0,0,4.11,2.8,36.14,36.14,0,0,0,5,2.63,15.07,15.07,0,0,0,2.64.86,17.79,17.79,0,0,0,2.76.32,18.56,18.56,0,0,0,2.79,0A12.63,12.63,0,0,0,67.63,60c.83-1.1,1.66-2.23,2.58-3.28a43.3,43.3,0,0,1,2.63-4.61c.47-.76.94-1.51,1.4-2.27.22-.38.44-.77.64-1.17a3.6,3.6,0,0,0,.44-1.24,3.64,3.64,0,0,1-.38,1.28c-.18.4-.38.8-.59,1.19-.41.79-.85,1.56-1.29,2.33A42.74,42.74,0,0,0,70.61,57v0l0,0c-.74.92-1.42,1.88-2.1,2.86,0,.06-.51.72-.71,1s-.24.33-.38.5a.6.6,0,0,1-.11.14.3.3,0,0,1-.1.09l-.1.06s-.73.68-1,1c-.55.56-1.13,1.16-1.62,1.71a4.22,4.22,0,0,0-.36,2.11,4.55,4.55,0,0,1-.26,1.29c-.12.34-.22.73-.33,1.11-.4,1.53-.77,3.1-1.2,4.65a30.79,30.79,0,0,1-1.59,4.59l-1.78,4.43L58,84.75c-.31.75-.57,1.46-1,2.26a13.21,13.21,0,0,0-1,2,2.34,2.34,0,0,0,0,1.84l.05.06,0,.1c.22.93.41,1.84.61,2.75L57,95.17l.37,1.65.05.2,8.19,0c-.18-.24-1.08-1.67-2.09-1.63s-4.31.8-4.82-.29a2.45,2.45,0,0,1-.31-.93,5.41,5.41,0,0,1,.19-1.3c.1-.4.21-.77.33-1.15.23-.75.49-1.48.76-2.21s.58-1.45.9-2.17.71-1.43,1-2.09c1.39-2.72,2.72-5.5,4-8.28a76.19,76.19,0,0,0,3.48-8.47l0-.12.08-.07,9.65-9.21c.8-.78,1.59-1.55,2.35-2.35a10.46,10.46,0,0,0,1.06-1.25c.31-.45.62-.91.91-1.38.59-.94,1.15-1.9,1.67-2.88a14.65,14.65,0,0,0,1.32-3,12.81,12.81,0,0,1-.92,2.58c-.37.83-.78,1.65-1.23,2.45s-.94,1.67-1.45,2.48a10.41,10.41,0,0,1-1,1.33c-.35.4-.71.8-1.08,1.19,1,0,2-.05,3-.12l1.63-.2c.15,0,.11,0,.27,0l1.38-.22A5,5,0,0,0,87.7,56.87Zm2.14-20a12.42,12.42,0,0,1,.52-1.18,3.05,3.05,0,0,1,.53-1.61c.35-.23.9.45,1.1.55a8.77,8.77,0,0,1,2.61,1.74l-.49-.06a4.15,4.15,0,0,0-1-.81,13.35,13.35,0,0,0-1.21-.57c-.21-.09-.57-.49-.71-.43a20.09,20.09,0,0,0-.67,2.58,4.77,4.77,0,0,0-.25,1.15.94.94,0,0,0,.47.82,3.26,3.26,0,0,0,1.15.4v.07a2.35,2.35,0,0,1-1.36-.06,1.4,1.4,0,0,1-.92-1.21A3.54,3.54,0,0,1,89.84,36.86Zm-50.3,6.19c-.41.54-.33,2-1.33,3s-3.12.29-4.57,1a6.33,6.33,0,0,1,1-2.79c.83-1.08,4.21-2.7,4.58-2.78S40,42.51,39.54,43.05Z"/><path d="M28,109.44h4.7a7.41,7.41,0,0,1,2.71.35A3.06,3.06,0,0,1,36.72,111a3.87,3.87,0,0,1,.53,2,3.76,3.76,0,0,1-.46,1.87,3,3,0,0,1-1.19,1.24,3.18,3.18,0,0,1,1.63,1.27,3.93,3.93,0,0,1,.59,2.19,4.51,4.51,0,0,1-.75,2.64,3.09,3.09,0,0,1-1.78,1.33,17.94,17.94,0,0,1-3.31.18H28Zm2.36,2.38v3.31h1.56a15.07,15.07,0,0,0,1.74,0,1.46,1.46,0,0,0,1-.51,1.71,1.71,0,0,0,.34-1.13,1.74,1.74,0,0,0-.28-1,1.14,1.14,0,0,0-.67-.49,13.67,13.67,0,0,0-2.27-.1Zm0,5.7v3.81h2.2a6.91,6.91,0,0,0,1.86-.15,1.43,1.43,0,0,0,.69-.59,2.39,2.39,0,0,0,0-2.28,1.51,1.51,0,0,0-.79-.62,7.27,7.27,0,0,0-2-.17Z"/><path d="M50.62,123.76H48.05l-1-3.25h-4.7l-1,3.25H38.83l4.57-14.32h2.51Zm-4.36-5.67-1.62-5.31-1.59,5.31Z"/><path d="M52.06,109.44h4.7a7.41,7.41,0,0,1,2.71.35A3.06,3.06,0,0,1,60.79,111a4,4,0,0,1,.07,3.88,3,3,0,0,1-1.19,1.24,3.18,3.18,0,0,1,1.63,1.27,3.85,3.85,0,0,1,.59,2.19,4.51,4.51,0,0,1-.75,2.64,3.06,3.06,0,0,1-1.78,1.33,17.94,17.94,0,0,1-3.31.18h-4Zm2.36,2.38v3.31H56a15.07,15.07,0,0,0,1.74,0,1.44,1.44,0,0,0,1-.51,1.71,1.71,0,0,0,.34-1.13,1.74,1.74,0,0,0-.28-1,1.14,1.14,0,0,0-.67-.49,13.58,13.58,0,0,0-2.27-.1Zm0,5.7v3.81h2.2a6.91,6.91,0,0,0,1.86-.15,1.35,1.35,0,0,0,.69-.59,2.39,2.39,0,0,0,0-2.28,1.51,1.51,0,0,0-.79-.62,7.27,7.27,0,0,0-2-.17Z"/><path d="M63.62,116.69a10.29,10.29,0,0,1,.75-4.22,5.77,5.77,0,0,1,2-2.46,5.15,5.15,0,0,1,3-.81,5.09,5.09,0,0,1,4.11,1.92,10.25,10.25,0,0,1-.1,11.09,5.41,5.41,0,0,1-8,0A8.41,8.41,0,0,1,63.62,116.69Zm2.44-.1a6,6,0,0,0,.94,3.7,2.8,2.8,0,0,0,4.64,0,6.27,6.27,0,0,0,.92-3.76,6.17,6.17,0,0,0-.89-3.68,2.91,2.91,0,0,0-4.7,0A6.14,6.14,0,0,0,66.06,116.59Z"/><path d="M76.58,116.69a10.11,10.11,0,0,1,.76-4.22,5.69,5.69,0,0,1,2-2.46,5.17,5.17,0,0,1,3-.81,5.09,5.09,0,0,1,4.11,1.92A8.38,8.38,0,0,1,88,116.6a8.52,8.52,0,0,1-1.68,5.61,5.42,5.42,0,0,1-8,0A8.41,8.41,0,0,1,76.58,116.69Zm2.44-.1a6,6,0,0,0,.94,3.7,2.81,2.81,0,0,0,4.65,0,6.27,6.27,0,0,0,.91-3.76,6.1,6.1,0,0,0-.89-3.68,2.79,2.79,0,0,0-2.34-1.19,2.83,2.83,0,0,0-2.36,1.2A6.14,6.14,0,0,0,79,116.59Z"/><path d="M90.05,123.76V109.44h2.31l4.8,9.56v-9.56h2.21v14.32H97l-4.72-9.34v9.34Z"/><path d="M32.43,17.56v-6l-4.3-8.29h2.78l2.75,5.67,2.72-5.67h2.73l-4.32,8.31v6Z"/><path d="M40.49,17.56V3.24H49.2V5.67H42.85V8.84h5.9v2.41h-5.9v3.89h6.57v2.42Z"/><path d="M51.69,17.56V3.36h2.36V15.14H60v2.42Z"/><path d="M61.91,17.56V3.36h2.36V15.14h5.9v2.42Z"/><path d="M71.58,10.49a10.06,10.06,0,0,1,.76-4.21,5.66,5.66,0,0,1,2-2.47,5.25,5.25,0,0,1,3-.81,5.09,5.09,0,0,1,4.11,1.92A8.4,8.4,0,0,1,83,10.4,8.55,8.55,0,0,1,81.29,16a5.44,5.44,0,0,1-8,0A8.43,8.43,0,0,1,71.58,10.49Zm2.44-.1A6.05,6.05,0,0,0,75,14.1a2.83,2.83,0,0,0,2.33,1.23,2.79,2.79,0,0,0,2.32-1.22,6.31,6.31,0,0,0,.91-3.77,6.12,6.12,0,0,0-.89-3.68,2.91,2.91,0,0,0-4.7,0A6.14,6.14,0,0,0,74,10.39Z"/><path d="M86.69,17.56,83.88,3.24h2.43l1.76,9.84,2.15-9.84H93l2.06,10,1.82-10H99.3L96.45,17.56H93.92L91.58,6.85,89.25,17.56Z"/></svg>