<?xml version="1.0" encoding="utf-8"?>
<!-- Generator: Adobe Illustrator 23.0.0, SVG Export Plug-In . SVG Version: 6.00 Build 0)  -->
<svg version="1.1" id="Layer_1" xmlns="http://www.w3.org/2000/svg" xmlns:xlink="http://www.w3.org/1999/xlink" x="0px" y="0px"
	 viewBox="0 0 50 50" enable-background="new 0 0 50 50" xml:space="preserve">
<g>
	<path fill="#2D2D2D" d="M37,9.3c0-0.6-0.4-1-1-1h-1.4V4.6c0-0.3-0.3-0.6-0.6-0.6h-6.7c-0.3,0-0.6,0.3-0.6,0.6v3.6h-3.5V4.6
		c0-0.3-0.3-0.6-0.6-0.6H16c-0.3,0-0.6,0.3-0.6,0.6v3.6H14c-0.6,0-1,0.4-1,1v15.8h24V9.3z"/>
	<path fill="#2D2D2D" d="M23,27.1H1c-0.6,0-1,0.4-1,1v17.8h24V28.1C24,27.6,23.6,27.1,23,27.1z"/>
	<path fill="#2D2D2D" d="M49,27.1H27c-0.6,0-1,0.4-1,1v17.8h24V28.1C50,27.6,49.6,27.1,49,27.1z"/>
</g>
</svg>
