<?xml version="1.0" encoding="utf-8"?>
<!-- Generator: Adobe Illustrator 23.0.0, SVG Export Plug-In . SVG Version: 6.00 Build 0)  -->
<svg version="1.1" id="Layer_1" xmlns="http://www.w3.org/2000/svg" xmlns:xlink="http://www.w3.org/1999/xlink" x="0px" y="0px"
	 viewBox="0 0 50 50" enable-background="new 0 0 50 50" xml:space="preserve">
<g>
	<polygon points="34.9,20.2 34.9,18.3 30,18.3 30,14.5 20.5,14.5 20.5,18.3 15.6,18.3 15.6,20.2 20.5,20.2 20.5,24 30,24 30,20.2 	
		"/>
	<path d="M39.8,29.8c-0.5-0.5-1.3-0.5-1.9-0.1l-2.2-2.2c4.1-5.2,3.8-12.8-1.1-17.6c-5.2-5.2-13.6-5.2-18.8,0
		c-5.2,5.2-5.2,13.6,0,18.8c4.8,4.8,12.4,5.1,17.6,1.1l2.2,2.2c-0.5,0.6-0.4,1.4,0.1,1.9l9.7,9.7c0.6,0.6,1.5,0.6,2,0l2-2
		c0.6-0.6,0.6-1.5,0-2L39.8,29.8z M17.7,26.8c-4.1-4.1-4.1-10.8,0-15c4.1-4.1,10.9-4.1,15,0c4.1,4.1,4.1,10.8,0,15
		C28.6,30.9,21.9,30.9,17.7,26.8z"/>
	<polygon points="42.4,15.5 42.4,18.3 39.5,18.3 39.5,20.2 42.4,20.2 42.4,23.1 50,23.1 50,15.5 	"/>
	<polygon points="7.6,15.5 0,15.5 0,23.1 7.6,23.1 7.6,20.2 11,20.2 11,18.3 7.6,18.3 	"/>
</g>
</svg>
