<?xml version="1.0" encoding="utf-8"?>
<!-- Generator: Adobe Illustrator 23.0.0, SVG Export Plug-In . SVG Version: 6.00 Build 0)  -->
<svg version="1.1" id="Layer_1" xmlns="http://www.w3.org/2000/svg" xmlns:xlink="http://www.w3.org/1999/xlink" x="0px" y="0px"
	 viewBox="0 0 50 50" enable-background="new 0 0 50 50" xml:space="preserve">
<g>
	<path fill="#2D2D2D" d="M49.4,23.5L26.5,0.6c-0.8-0.8-2.2-0.8-3.1,0L0.6,23.5c-0.8,0.8-0.8,2.2,0,3.1l22.8,22.8
		c0.8,0.8,2.2,0.8,3.1,0l22.8-22.8C50.2,25.7,50.2,24.3,49.4,23.5z M47.2,26.1L26.1,47.2c-0.3,0.3-0.7,0.5-1.1,0.5
		c-0.4,0-0.8-0.2-1.1-0.5L2.8,26.1c-0.3-0.3-0.5-0.7-0.5-1.1s0.2-0.8,0.5-1.1L23.9,2.8c0.6-0.6,1.6-0.6,2.2,0l21.1,21.1
		c0.3,0.3,0.5,0.7,0.5,1.1S47.5,25.8,47.2,26.1z"/>
	<g>
		<path fill="#2D2D2D" d="M45.5,24.5L25.5,4.5c-0.3-0.3-0.8-0.3-1.1,0L4.5,24.5c-0.3,0.3-0.3,0.8,0,1.1l19.9,19.9
			c0.3,0.3,0.8,0.3,1.1,0l19.9-19.9C45.8,25.2,45.8,24.8,45.5,24.5z M36.3,25.5c-2.9,3.9-6.9,6.3-11.3,6.3c-4.4,0-8.4-2.4-11.3-6.3
			c-0.2-0.3-0.2-0.8,0-1.1c2.9-3.9,6.9-6.3,11.3-6.3c4.4,0,8.4,2.4,11.3,6.3C36.6,24.8,36.6,25.2,36.3,25.5z"/>
		<path fill="#2D2D2D" d="M24.7,20.2c-2.4,0.2-4.4,2.1-4.5,4.5c-0.2,2.9,2.2,5.3,5.1,5.1c2.4-0.2,4.4-2.1,4.5-4.5
			C30,22.4,27.6,20,24.7,20.2z M25.2,27.6c-1.6,0.1-2.9-1.2-2.8-2.8c0.1-1.3,1.1-2.3,2.4-2.4c1.6-0.1,2.9,1.2,2.8,2.8
			C27.5,26.5,26.5,27.5,25.2,27.6z"/>
	</g>
</g>
</svg>
