<?xml version="1.0" encoding="utf-8"?>
<!-- Generator: Adobe Illustrator 23.0.0, SVG Export Plug-In . SVG Version: 6.00 Build 0)  -->
<svg version="1.1" id="Layer_1" xmlns="http://www.w3.org/2000/svg" xmlns:xlink="http://www.w3.org/1999/xlink" x="0px" y="0px"
	 viewBox="0 0 50 50" enable-background="new 0 0 50 50" xml:space="preserve">
<g>
	<g>
		<path fill="#2D2D2D" d="M25,0.9c-7.3,0-13.2,5.9-13.2,13.2c0,1.9,0.4,3.7,1.2,5.4c3.3,7.2,9.7,14.9,11.5,17.1
			c0.1,0.2,0.3,0.3,0.6,0.3s0.4-0.1,0.6-0.3c1.9-2.2,8.2-9.8,11.5-17.1c0.8-1.7,1.2-3.5,1.2-5.4C38.2,6.8,32.3,0.9,25,0.9z M25,19.2
			c-3.3,0-6-2.7-6-6c0-3.3,2.7-6,6-6s6,2.7,6,6C31,16.5,28.3,19.2,25,19.2z"/>
	</g>
	<g>
		<path fill="#2D2D2D" d="M30.9,41.9l11.5-10l-1.1-2.6h-7.8c-3.2,4.7-6.4,8.6-7.8,10.1c-0.2,0.2-0.4,0.3-0.6,0.3
			c-0.2,0-0.5-0.1-0.6-0.3c-1.3-1.5-4.6-5.4-7.8-10.1H8.8l-3.6,8l22.3,7.5L30.9,41.9z"/>
		<polygon fill="#2D2D2D" points="43.5,34.6 32.5,44.2 30.6,45.9 40.3,49.1 50,49.1 		"/>
		<polygon fill="#2D2D2D" points="0,49.1 31.5,49.1 4.1,39.9 		"/>
	</g>
</g>
</svg>
