<?xml version="1.0" encoding="utf-8"?>
<!-- Generator: Adobe Illustrator 23.0.0, SVG Export Plug-In . SVG Version: 6.00 Build 0)  -->
<svg version="1.1" id="Layer_1" xmlns="http://www.w3.org/2000/svg" xmlns:xlink="http://www.w3.org/1999/xlink" x="0px" y="0px"
	 viewBox="0 0 50 50" enable-background="new 0 0 50 50" xml:space="preserve">
<path fill="#2D2D2D" d="M48.5,17.7H33.8c-0.8,0-1.5-0.7-1.5-1.5V1.5c0-0.8-0.7-1.5-1.5-1.5H19.1c-0.8,0-1.5,0.7-1.5,1.5v14.8
	c0,0.8-0.7,1.5-1.5,1.5H1.5c-0.8,0-1.5,0.7-1.5,1.5v11.7c0,0.8,0.7,1.5,1.5,1.5h14.8c0.8,0,1.5,0.7,1.5,1.5v14.8
	c0,0.8,0.7,1.5,1.5,1.5h11.7c0.8,0,1.5-0.7,1.5-1.5V33.8c0-0.8,0.7-1.5,1.5-1.5h14.8c0.8,0,1.5-0.7,1.5-1.5V19.1
	C50,18.3,49.3,17.7,48.5,17.7z"/>
</svg>
