<?xml version="1.0" encoding="utf-8"?>
<!-- Generator: Adobe Illustrator 23.0.0, SVG Export Plug-In . SVG Version: 6.00 Build 0)  -->
<svg version="1.1" id="Layer_1" xmlns="http://www.w3.org/2000/svg" xmlns:xlink="http://www.w3.org/1999/xlink" x="0px" y="0px"
	 viewBox="0 0 50 50" enable-background="new 0 0 50 50" xml:space="preserve">
<g>
	<path d="M5.9,25.1l-4.1,0.8c0,0-0.5,4.5,2.6,4.1C7.6,29.5,5.9,25.1,5.9,25.1z"/>
	<path d="M5.8,19.1c0-0.7-0.1-1.4-0.4-2c-0.5-1.4-1.5-3-2.9-2.7c-1.9,0.3-2.9,3.4-2.4,6.1c0.5,2.7,1.5,4.3,1.5,4.3l4-0.8
		C5.6,24,5.8,21.1,5.8,19.1z"/>
	<path d="M11.2,32.1c3,0.5,2.7-3.7,2.7-3.7L10,27.5C10,27.5,8.2,31.6,11.2,32.1z"/>
	<path d="M16,23c0.6-2.7-0.3-5.8-2.1-6.2c-1.4-0.3-2.5,1.2-3.1,2.6c-0.3,0.6-0.4,1.3-0.5,2c-0.1,2,0,4.9,0,4.9l3.9,0.9
		C14.3,27.2,15.3,25.7,16,23z"/>
	<path d="M25,5.4c6.9,0,12.9,3.6,16.3,9l-1.7,0.9l4,1.1l1.1-3.9l-1.8,1C39.2,7.5,32.5,3.5,25,3.5c-7.6,0-14.3,4-17.9,9.9l1.7,0.9
		C12,9,18.1,5.4,25,5.4z"/>
	<path d="M25,44.6c-6.9,0-12.9-3.6-16.3-9l1.7-1l-4-1.1l-1.1,3.9L7,36.6c3.7,5.9,10.3,9.9,17.9,9.9c7.6,0,14.3-4,17.9-10l-1.7-0.9
		C37.9,41,31.9,44.6,25,44.6z"/>
	<path d="M49.6,34.4l-4.2-4.1C45,30,44.5,29.9,44.1,30l-1.3-1.3c2.2-2.7,2-6.6-0.6-9.1c-2.7-2.7-7.2-2.7-9.9,0c-2.7,2.7-2.7,7,0,9.7
		c2.5,2.5,6.5,2.7,9.3,0.5l1.3,1.3c-0.1,0.5,0,0.9,0.4,1.3l4.2,4.1c0.6,0.5,1.5,0.5,2,0l0.1-0.1C50.1,35.8,50.1,35,49.6,34.4z
		 M33.2,28.3c-2.2-2.1-2.2-5.6,0-7.8c2.2-2.1,5.7-2.1,7.9,0c2.2,2.1,2.2,5.6,0,7.8C39,30.4,35.4,30.4,33.2,28.3z"/>
</g>
</svg>
