<?xml version="1.0" encoding="utf-8"?>
<!-- Generator: Adobe Illustrator 23.0.0, SVG Export Plug-In . SVG Version: 6.00 Build 0)  -->
<svg version="1.1" id="Layer_1" xmlns="http://www.w3.org/2000/svg" xmlns:xlink="http://www.w3.org/1999/xlink" x="0px" y="0px"
	 viewBox="0 0 50 50" enable-background="new 0 0 50 50" xml:space="preserve">
<g>
	<path fill="#2D2D2D" d="M43.5,11.4h-9.7c-0.9,0-1.6-0.7-1.6-1.6V0L43.5,11.4z"/>
	<g>
		<path fill="#2D2D2D" d="M31.3,13.8c-0.8,0-1.5-0.7-1.5-1.5V0H8.2C7.3,0,6.5,0.8,6.5,1.7v46.6c0,0.9,0.8,1.7,1.7,1.7h33.6
			c0.9,0,1.7-0.8,1.7-1.7V13.8H31.3z M18,28.3c-0.7,0.6-1.5,0.9-2.7,0.9h-3.2v4.4h-2V22.3h4.9c1.2,0,2.2,0.3,2.9,0.9
			c0.7,0.6,1,1.4,1,2.6C19,26.8,18.6,27.7,18,28.3z M28.7,32.4c-0.5,0.5-1,0.8-1.5,1c-0.5,0.2-1.3,0.3-2.1,0.3h-4.4V22.3h4.3
			c0.8,0,1.5,0.1,2,0.2c0.6,0.2,1.1,0.5,1.6,0.9c1.1,1,1.7,2.4,1.7,4.3C30.3,29.8,29.7,31.3,28.7,32.4z M39.8,24H34v3.1h5.1v1.6H34
			v5h-2V22.3h7.8V24z"/>
		<path fill="#2D2D2D" d="M24.8,24h-2.2v8h2.3c1.2,0,2.1-0.4,2.6-1.1c0.5-0.7,0.8-1.7,0.8-3c0-1.2-0.3-2.2-0.9-2.9
			C26.9,24.3,26,24,24.8,24z"/>
		<path fill="#2D2D2D" d="M14.7,23.9h-2.7v3.9h2.9c1.5,0,2.2-0.6,2.2-1.9C17.1,24.5,16.3,23.9,14.7,23.9z"/>
	</g>
</g>
</svg>
