<?xml version="1.0" encoding="utf-8"?>
<!-- Generator: Adobe Illustrator 23.0.0, SVG Export Plug-In . SVG Version: 6.00 Build 0)  -->
<svg version="1.1" id="Layer_1" xmlns="http://www.w3.org/2000/svg" xmlns:xlink="http://www.w3.org/1999/xlink" x="0px" y="0px"
	 viewBox="0 0 50 50" enable-background="new 0 0 50 50" xml:space="preserve">
<g>
	<path fill="#2D2D2D" d="M12.1,7.8h1c0.8,0,1.4-0.6,1.4-1.4v-5c0-0.8-0.6-1.4-1.4-1.4h-1c-0.8,0-1.4,0.6-1.4,1.4v5
		C10.7,7.1,11.3,7.8,12.1,7.8z"/>
	<path fill="#2D2D2D" d="M36.9,7.8h1c0.8,0,1.4-0.6,1.4-1.4v-5c0-0.8-0.6-1.4-1.4-1.4h-1c-0.8,0-1.4,0.6-1.4,1.4v5
		C35.6,7.1,36.2,7.8,36.9,7.8z"/>
	<path fill="#2D2D2D" d="M48,7.7c0-1.5-1.2-2.8-2.8-2.8h-4.7v1.4c0,1.7-1.4,3.1-3.1,3.1c-1.7,0-3.1-1.4-3.1-3.1V4.9H15.7v1.4
		c0,1.7-1.4,3.1-3.1,3.1S9.5,8,9.5,6.3V4.9H4.7C3.2,4.9,2,6.2,2,7.7v5.7h46V7.7z"/>
	<path fill="#2D2D2D" d="M2,15.1v32.2C2,48.8,3.2,50,4.7,50h40.6c1.5,0,2.8-1.2,2.8-2.8V15.1H2z M14,45.8H6.6v-7.4H14V45.8z
		 M14,36.3H6.6v-7.4H14V36.3z M14,26.7H6.6v-7.4H14V26.7z M23.8,45.8h-7.4v-7.4h7.4V45.8z M23.8,36.3h-7.4v-7.4h7.4V36.3z
		 M23.8,26.7h-7.4v-7.4h7.4V26.7z M33.6,45.8h-7.4v-7.4h7.4V45.8z M33.6,36.3h-7.4v-7.4h7.4V36.3z M33.6,26.7h-7.4v-7.4h7.4V26.7z
		 M43.4,36.3H36v-7.4h7.4V36.3z M43.4,26.7H36v-7.4h7.4V26.7z"/>
	<rect x="37.8" y="21" fill="#2D2D2D" width="3.9" height="3.9"/>
	<rect x="8.3" y="30.6" fill="#2D2D2D" width="3.9" height="4"/>
</g>
</svg>
