<?xml version="1.0" encoding="utf-8"?>
<!-- Generator: Adobe Illustrator 23.0.0, SVG Export Plug-In . SVG Version: 6.00 Build 0)  -->
<svg version="1.1" id="Layer_1" xmlns="http://www.w3.org/2000/svg" xmlns:xlink="http://www.w3.org/1999/xlink" x="0px" y="0px"
	 viewBox="0 0 50 50" enable-background="new 0 0 50 50" xml:space="preserve">
<g>
	<path d="M26.2,26.2c-2.4,2.4-2.5,6.2-0.4,8.7c2.1-2.9,4.3-6.4,5.8-9.8c0.1-0.2,0.2-0.5,0.3-0.7C30,24.1,27.8,24.7,26.2,26.2z"/>
	<path d="M49.6,46.4l-7.2-7.2c-0.5-0.5-1.1-0.5-1.7-0.2L39,37.2c3.2-4.1,2.9-10-0.8-13.8C36.7,22,34.9,21,33,20.6
		c0.3-1.3,0.5-2.6,0.5-3.9C33.4,7.5,25.9,0,16.7,0C7.5,0,0,7.5,0,16.7c0,2.4,0.5,4.7,1.5,6.8C5.6,32.7,13.7,42.4,16,45.1
		c0.2,0.2,0.4,0.3,0.7,0.3c0.3,0,0.5-0.1,0.7-0.3c1.1-1.2,3.3-3.9,5.8-7.2c0.1,0.1,0.2,0.2,0.3,0.3c3.8,3.8,9.7,4,13.8,0.8l1.8,1.8
		c-0.3,0.5-0.2,1.2,0.2,1.7l7.2,7.2c0.6,0.6,1.5,0.6,2,0l1.1-1.1C50.1,47.9,50.1,47,49.6,46.4z M16.7,23.1c-4.2,0-7.6-3.4-7.6-7.6
		c0-4.2,3.4-7.6,7.6-7.6c4.2,0,7.6,3.4,7.6,7.6C24.3,19.8,20.9,23.1,16.7,23.1z M24.9,36.7c-0.2-0.2-0.3-0.3-0.5-0.5
		c-2.7-3.3-2.6-8.1,0.5-11.2c2-2,4.8-2.8,7.4-2.3c1.6,0.3,3.1,1.1,4.3,2.3c3.2,3.2,3.2,8.5,0,11.7C33.4,39.9,28.2,39.9,24.9,36.7z"
		/>
</g>
</svg>
