<?xml version="1.0" encoding="utf-8"?>
<!-- Generator: Adobe Illustrator 23.0.0, SVG Export Plug-In . SVG Version: 6.00 Build 0)  -->
<svg version="1.1" id="Layer_1" xmlns="http://www.w3.org/2000/svg" xmlns:xlink="http://www.w3.org/1999/xlink" x="0px" y="0px"
	 viewBox="0 0 50 50" enable-background="new 0 0 50 50" xml:space="preserve">
<path fill="#2D2D2D" d="M46.3,31.1c-1.3,0-2.4,0.6-3.1,1.6L34,29.3c0.4-1.2,0.6-2.5,0.6-3.9c0-1.7-0.4-3.4-1-4.9l3.6-2.2
	c1,1,2.3,1.7,3.8,1.7c2.9,0,5.3-2.4,5.3-5.3S43.9,9.4,41,9.4s-5.3,2.4-5.3,5.3c0,0.7,0.1,1.4,0.4,2l-3.4,2.1c-2-3.3-5.6-5.6-9.7-5.9
	V9.3c2.1-0.5,3.7-2.3,3.7-4.6c0-2.6-2.1-4.7-4.7-4.7s-4.7,2.1-4.7,4.7c0,2.3,1.7,4.2,3.8,4.6v3.6c-3.6,0.3-6.7,2-8.8,4.7l-5.1-4
	c0.2-0.4,0.3-0.8,0.3-1.2c0-1.7-1.4-3.1-3.1-3.1s-3.1,1.4-3.1,3.1s1.4,3.1,3.1,3.1C5,15.4,5.5,15.3,6,15l5.3,4.1
	c-1.1,1.8-1.7,4-1.7,6.2c0,2.3,0.6,4.4,1.7,6.3L5.9,35c-0.7-0.6-1.7-0.9-2.8-0.8c-2,0.3-3.4,2.1-3.1,4.1s2.1,3.4,4.1,3.1
	c2-0.3,3.4-2.1,3.1-4.1c0-0.3-0.1-0.5-0.2-0.8l5.4-3.3c2.3,2.9,5.8,4.7,9.7,4.7c1.4,0,2.7-0.2,3.9-0.6l1.9,4.5
	c-1.1,0.8-1.9,2.2-1.9,3.7c0,2.5,2.1,4.6,4.6,4.6c2.5,0,4.6-2.1,4.6-4.6c0-2.5-2.1-4.6-4.6-4.6c-0.4,0-0.7,0-1,0.1l-1.9-4.4
	c2.4-1.2,4.3-3.1,5.5-5.5l9.3,3.4c0,0.1,0,0.2,0,0.3c0,2.1,1.7,3.7,3.7,3.7s3.7-1.7,3.7-3.7S48.3,31.1,46.3,31.1z M28,31.9h-5.7
	h-0.1h-5.7c-0.3,0-0.5-0.3-0.5-0.6c0.3-4,4-4.1,4.9-5.2c0.1-0.3-0.1-0.6-0.3-0.8c-1-0.7-1.7-2.1-1.7-3.7c0-2.4,1.5-3.9,3.4-3.9
	c1.9,0,3.4,1.5,3.4,3.9c0,1.6-0.7,2.9-1.7,3.7c-0.3,0.2-0.4,0.5-0.3,0.8l0,0.1c0.9,1.1,4.5,1.2,4.8,5.1C28.5,31.7,28.3,31.9,28,31.9
	z"/>
</svg>
