<?xml version="1.0" encoding="utf-8"?>
<!-- Generator: Adobe Illustrator 23.0.0, SVG Export Plug-In . SVG Version: 6.00 Build 0)  -->
<svg version="1.1" id="Layer_1" xmlns="http://www.w3.org/2000/svg" xmlns:xlink="http://www.w3.org/1999/xlink" x="0px" y="0px"
	 viewBox="0 0 50 50" enable-background="new 0 0 50 50" xml:space="preserve">
<g>
	<path d="M30.1,28.5c-0.4-0.4-0.8-0.5-1.3-0.4l-1.3-1.3c2.1-2.6,1.9-6.5-0.5-8.9c-2.6-2.6-6.9-2.6-9.5,0c-2.6,2.6-2.6,6.9,0,9.5
		c2.4,2.4,6.3,2.6,8.9,0.5l1.3,1.3c-0.1,0.5,0,0.9,0.4,1.3l3.9,3.9c0.6,0.6,1.5,0.6,2,0l0,0c0.6-0.6,0.6-1.5,0-2L30.1,28.5z
		 M18.4,26.4c-2.1-2.1-2.1-5.5,0-7.6c2.1-2.1,5.5-2.1,7.6,0c2.1,2.1,2.1,5.5,0,7.6S20.5,28.5,18.4,26.4z"/>
	<path d="M50,20h-4.6C43.5,12.4,37.6,6.5,30,4.6V0H20v4.6C12.4,6.5,6.5,12.4,4.6,20H0v10h4.6c1.9,7.6,7.8,13.5,15.4,15.4V50h10v-4.6
		c7.6-1.9,13.5-7.8,15.4-15.4H50V20z M30,43.8V40H20v3.8C13.3,42.1,7.9,36.7,6.2,30H10V20H6.2C7.9,13.3,13.3,7.9,20,6.2V10h10V6.2
		c6.7,1.8,12.1,7.1,13.8,13.8H40v10h3.8C42.1,36.7,36.7,42.1,30,43.8z"/>
</g>
</svg>
