<?xml version="1.0" encoding="utf-8"?>
<!-- Generator: Adobe Illustrator 23.0.0, SVG Export Plug-In . SVG Version: 6.00 Build 0)  -->
<svg version="1.1" id="Layer_1" xmlns="http://www.w3.org/2000/svg" xmlns:xlink="http://www.w3.org/1999/xlink" x="0px" y="0px"
	 viewBox="0 0 50 50" enable-background="new 0 0 50 50" xml:space="preserve">
<g>
	<path fill="#2D2D2D" d="M25.1,38H9.9c-3.6,0-6.4-2.9-6.4-6.5s2.9-6.5,6.4-6.5h2v4.8h11.9v-4.8H26c4.5,0,8.2-3.7,8.2-8.3
		c0-4.6-3.7-8.3-8.2-8.3H10.6V4.2H0v10.7h10.6v-4.6H26c3.4,0,6.2,2.8,6.2,6.3c0,3.5-2.8,6.3-6.2,6.3h-2.2v-5.3H11.9v5.2h-2
		c-4.7,0-8.5,3.8-8.5,8.6S5.3,40,9.9,40h15.2v5.8h13.2V32.4H25.1V38z"/>
	<path fill="#2D2D2D" d="M41.4,38.7l0.4-0.1c0.3-0.1,0.6,0,0.9,0.3l0.3,0.3l2.9-2.7l-5.3-1.7L41.4,38.7z"/>
	<path fill="#2D2D2D" d="M41.7,39.1l-0.4,0.1l0.2,1.8c0,0.1,0.1,0.1,0.1,0l1.2-1.3l-0.3-0.3C42.3,39.1,42,39,41.7,39.1z"/>
	<polygon fill="#2D2D2D" points="40.8,34 46.1,35.6 49,26.4 43.7,24.7 	"/>
	<path fill="#2D2D2D" d="M49,21.7l-2.7-0.9c-0.7-0.2-1.4,0.1-1.6,0.7L44,23.8l5.3,1.7l0.7-2.3C50.1,22.6,49.7,22,49,21.7z"/>
</g>
</svg>
