<?xml version="1.0" encoding="utf-8"?>
<!-- Generator: Adobe Illustrator 23.0.0, SVG Export Plug-In . SVG Version: 6.00 Build 0)  -->
<svg version="1.1" id="Layer_1" xmlns="http://www.w3.org/2000/svg" xmlns:xlink="http://www.w3.org/1999/xlink" x="0px" y="0px"
	 viewBox="0 0 50 50" enable-background="new 0 0 50 50" xml:space="preserve">
<path fill="#2D2D2D" d="M49.5,44.2L36.3,31c-0.6-0.6-1.6-0.6-2.2,0L34,31.1l-2.9-2.9c5.4-6.8,4.9-16.8-1.4-23.1
	c-6.8-6.8-17.8-6.8-24.6,0c-6.8,6.8-6.8,17.8,0,24.6c6.3,6.3,16.2,6.8,23.1,1.4l2.9,2.9L31,34.1c-0.6,0.6-0.6,1.6,0,2.2l13.2,13.2
	c0.6,0.6,1.6,0.6,2.2,0l3.1-3.1C50.2,45.8,50.2,44.8,49.5,44.2z M7.6,27.3C2.2,21.8,2.2,13,7.6,7.6c5.4-5.4,14.2-5.4,19.7,0
	c5.4,5.4,5.4,14.2,0,19.7S13,32.7,7.6,27.3z"/>
</svg>
