<?xml version="1.0" encoding="utf-8"?>
<!-- Generator: Adobe Illustrator 23.0.0, SVG Export Plug-In . SVG Version: 6.00 Build 0)  -->
<svg version="1.1" id="Layer_1" xmlns="http://www.w3.org/2000/svg" xmlns:xlink="http://www.w3.org/1999/xlink" x="0px" y="0px"
	 viewBox="0 0 50 50" enable-background="new 0 0 50 50" xml:space="preserve">
<path fill="#2D2D2D" d="M49.7,24.8l-5.3,0c-0.1,0-0.3,0.1-0.3,0.3c-0.1,10.9-9.3,19.7-20.3,19c-9.6-0.6-17.4-8.3-18-17.9
	C5.2,15.1,14,5.8,25,5.8c4.7,0,9,1.7,12.3,4.5l-3.7,3.7c-0.2,0.2,0,0.4,0.2,0.4H45c0.3,0,0.5-0.2,0.5-0.5V2.8c0-0.2-0.3-0.3-0.4-0.2
	l-3.6,3.6C36.7,2,30.3-0.4,23.4,0.1C10.9,0.8,0.8,11,0,23.5C-0.8,38,10.7,50,25,50c13.8,0,24.9-11.1,25-24.9
	C50,25,49.9,24.8,49.7,24.8z"/>
</svg>
