<?xml version="1.0" encoding="utf-8"?>
<!-- Generator: Adobe Illustrator 23.0.0, SVG Export Plug-In . SVG Version: 6.00 Build 0)  -->
<svg version="1.1" id="Layer_1" xmlns="http://www.w3.org/2000/svg" xmlns:xlink="http://www.w3.org/1999/xlink" x="0px" y="0px"
	 viewBox="0 0 50 50" enable-background="new 0 0 50 50" xml:space="preserve">
<g>
	<g>
		<path fill="#2D2D2D" d="M42,24l5.2,5.2l-2,2L40.1,26L42,24z"/>
		<path fill="#2D2D2D" d="M47.6,22l1.7,1.7c1,1,1,2.5,0,3.5L48,28.4l-5.2-5.2l1.3-1.3C45,21,46.6,21,47.6,22z"/>
		
			<rect x="28.4" y="36" transform="matrix(0.7073 -0.7069 0.7069 0.7073 -15.5234 37.2402)" fill="#2D2D2D" width="17.7" height="2.7"/>
		
			<rect x="25.3" y="32.6" transform="matrix(0.7071 -0.7071 0.7071 0.7071 -14.2345 34.1441)" fill="#2D2D2D" width="17.7" height="3.3"/>
		<polygon fill="#2D2D2D" points="25.7,45.5 26.1,46.7 31,45.4 25.8,40.2 24.6,45.1 		"/>
		<path fill="#2D2D2D" d="M23.4,47.7l0.7-2.2l1.2,0.4l0.4,1.2l-2.2,0.7C23.4,47.9,23.3,47.8,23.4,47.7z"/>
	</g>
	<g>
		<rect x="8.3" y="23.6" fill="#2D2D2D" width="24.8" height="3"/>
		<rect x="8.3" y="28.6" fill="#2D2D2D" width="22" height="3"/>
		<rect x="8.3" y="33.6" fill="#2D2D2D" width="15.8" height="3"/>
	</g>
	<rect x="21.7" y="3.5" fill="#2D2D2D" width="4.3" height="9.1"/>
	<g>
		<path fill="#2D2D2D" d="M22.9,39.5H5.7c-0.7,0-1.2-0.5-1.2-1.2V22.2C4.5,21.5,5,21,5.7,21h29.9c0.7,0,1.2,0.5,1.2,1.2v3.5l4.5-4.5
			V10.4l-8.3-8.3H30v11.3c0,0.9-0.7,1.6-1.6,1.6H10.9c-0.9,0-1.6-0.7-1.6-1.6V2.1H2.9C1.3,2.1,0,3.4,0,5v35.6c0,1.6,1.3,2.9,2.9,2.9
			h19.1L22.9,39.5z"/>
		<path fill="#2D2D2D" d="M35.8,43.4h2.6c1.6,0,2.9-1.3,2.9-2.9v-2.6L35.8,43.4z"/>
	</g>
</g>
</svg>
