<?xml version="1.0" encoding="utf-8"?>
<!-- Generator: Adobe Illustrator 23.0.0, SVG Export Plug-In . SVG Version: 6.00 Build 0)  -->
<svg version="1.1" id="Layer_1" xmlns="http://www.w3.org/2000/svg" xmlns:xlink="http://www.w3.org/1999/xlink" x="0px" y="0px"
	 viewBox="0 0 50 50" enable-background="new 0 0 50 50" xml:space="preserve">
<g>
	<path fill="#2D2D2D" d="M40,0h-3.7v13.7c0,1.1-0.9,1.9-1.9,1.9H13.2c-1.1,0-1.9-0.9-1.9-1.9V0H3.5C1.6,0,0,1.6,0,3.5v43
		C0,48.4,1.6,50,3.5,50h43c1.9,0,3.5-1.6,3.5-3.5V10L40,0z M44.6,43.8c0,0.8-0.6,1.4-1.4,1.4H6.9c-0.8,0-1.4-0.6-1.4-1.4V24.3
		c0-0.8,0.6-1.4,1.4-1.4h36.2c0.8,0,1.4,0.6,1.4,1.4V43.8z"/>
	<rect x="26.2" y="1.7" fill="#2D2D2D" width="5.2" height="11"/>
</g>
</svg>
