<?xml version="1.0" encoding="utf-8"?>
<!-- Generator: Adobe Illustrator 23.0.0, SVG Export Plug-In . SVG Version: 6.00 Build 0)  -->
<svg version="1.1" id="Layer_1" xmlns="http://www.w3.org/2000/svg" xmlns:xlink="http://www.w3.org/1999/xlink" x="0px" y="0px"
	 viewBox="0 0 50 50" enable-background="new 0 0 50 50" xml:space="preserve">
<g>
	<path fill="#2D2D2D" d="M13.4,20.9v-17c0-1.4-1.2-2.6-2.6-2.6h-2v47.4h2c1.4,0,2.6-1.2,2.6-2.6V29c1.9-0.4,3.2-2.1,3.2-4.1
		C16.7,23,15.3,21.4,13.4,20.9z"/>
	<path fill="#2D2D2D" d="M31.7,25c0,8.6-7,15.5-15.5,15.5v2.7c10,0,18.2-8.2,18.2-18.2c0-10-8.2-18.2-18.2-18.2v2.7
		C24.8,9.5,31.7,16.4,31.7,25z"/>
	<path fill="#2D2D2D" d="M16.2,0v2.7c12.3,0,22.3,10,22.3,22.3c0,12.3-10,22.3-22.3,22.3V50c13.8,0,25-11.2,25-25
		C41.2,11.2,30,0,16.2,0z"/>
	<path fill="#2D2D2D" d="M25,25c0,4.8-3.9,8.8-8.8,8.8v2.7c6.3,0,11.5-5.2,11.5-11.5c0-6.3-5.1-11.5-11.5-11.5v2.7
		C21,16.2,25,20.2,25,25z"/>
</g>
</svg>
