<?xml version="1.0" encoding="utf-8"?>
<!-- Generator: Adobe Illustrator 23.0.0, SVG Export Plug-In . SVG Version: 6.00 Build 0)  -->
<svg version="1.1" id="Layer_1" xmlns="http://www.w3.org/2000/svg" xmlns:xlink="http://www.w3.org/1999/xlink" x="0px" y="0px"
	 viewBox="0 0 50 50" enable-background="new 0 0 50 50" xml:space="preserve">
<g>
	<path fill="#2D2D2D" d="M45.6,6.1c0,0.8-0.6,1.5-1.4,1.5c-0.8,0-1.4-0.7-1.4-1.5c0-0.8,0.6-1.5,1.4-1.5C45,4.6,45.6,5.3,45.6,6.1z"
		/>
	<path fill="#2D2D2D" d="M45.6,22.1c0,0.8-0.6,1.5-1.4,1.5c-0.8,0-1.4-0.7-1.4-1.5c0-0.8,0.6-1.5,1.4-1.5
		C45,20.6,45.6,21.3,45.6,22.1z"/>
	<path fill="#2D2D2D" d="M45.6,14.1c0,0.8-0.6,1.5-1.4,1.5c-0.8,0-1.4-0.7-1.4-1.5c0-0.8,0.6-1.5,1.4-1.5
		C45,12.6,45.6,13.3,45.6,14.1z"/>
	<path fill="#2D2D2D" d="M48.3,0h-26c-0.9,0-1.7,0.8-1.7,1.8v23.8c3.7,2.5,6.2,6.7,6.2,11.6c0,3.5-1.3,6.7-3.4,9.1H50V1.8
		C50,0.8,49.2,0,48.3,0z M35.3,36.8c-1.4,0-2.6-1.2-2.6-2.6c0-1.5,1.2-2.6,2.6-2.6c1.4,0,2.6,1.2,2.6,2.6
		C37.9,35.6,36.8,36.8,35.3,36.8z M47.3,24.1c0,0.5-0.4,0.9-0.9,0.9H24.3c-0.5,0-0.9-0.4-0.9-0.9v-4c0-0.5,0.4-0.9,0.9-0.9h22.1
		c0.5,0,0.9,0.4,0.9,0.9V24.1z M47.3,16.3c0,0.5-0.4,0.9-0.9,0.9H24.3c-0.5,0-0.9-0.4-0.9-0.9v-4c0-0.5,0.4-0.9,0.9-0.9h22.1
		c0.5,0,0.9,0.4,0.9,0.9V16.3z M47.3,8.5c0,0.5-0.4,0.9-0.9,0.9H24.3c-0.5,0-0.9-0.4-0.9-0.9v-4c0-0.5,0.4-0.9,0.9-0.9h22.1
		c0.5,0,0.9,0.4,0.9,0.9V8.5z"/>
	<g>
		<path fill="#2D2D2D" d="M15.9,35.2c0-1.1-0.7-2.1-2.3-2.1H9.9v4.2h3.8C15.2,37.3,15.9,36.3,15.9,35.2z"/>
		<path fill="#2D2D2D" d="M12.6,24.8C5.6,24.8,0,30.4,0,37.4C0,44.4,5.6,50,12.6,50s12.6-5.6,12.6-12.6
			C25.1,30.4,19.5,24.8,12.6,24.8z M19.1,44h-3l-3.9-4.4H9.9V44H7.4V30.8c2.1,0,4.2,0,6.3,0c3.1,0,4.8,2.1,4.8,4.4
			c0,1.8-0.8,3.6-3.3,4.2l4,4.5V44z"/>
	</g>
</g>
</svg>
