<?xml version="1.0" encoding="utf-8"?>
<!-- Generator: Adobe Illustrator 23.0.0, SVG Export Plug-In . SVG Version: 6.00 Build 0)  -->
<svg version="1.1" id="Layer_1" xmlns="http://www.w3.org/2000/svg" xmlns:xlink="http://www.w3.org/1999/xlink" x="0px" y="0px"
	 viewBox="0 0 50 50" enable-background="new 0 0 50 50" xml:space="preserve">
<g>
	<rect x="14.4" y="14.5" width="13.6" height="2.7"/>
	<path d="M24,25.5c0.9-0.9,1.3-1.1,1.3-1.1H14.4v2.7h8.6C23.1,27.1,23.2,26.4,24,25.5z"/>
	<path d="M14.4,34.3V37h8.3c0,0-0.4-0.6-0.6-1.4c-0.2-0.8-0.2-1.3-0.2-1.3H14.4z"/>
	<path d="M12.1,12.3H5v7.1h7.1V12.3z M10.5,17.9h-4v-4.1h4V17.9z"/>
	<path d="M5,39.2h7.1v-7.1H5V39.2z M6.5,33.6h4v4.1h-4V33.6z"/>
	<path d="M12.1,22.2H5v7.1h7.1V22.2z M10.5,27.8h-4v-4.1h4V27.8z"/>
	<path d="M31.1,42.8c0,1-0.8,1.5-1.8,1.5H3.7c-1,0-1.8-0.8-1.8-1.8V9.3c0-1,0.8-1.8,1.8-1.8h3.1v0.8c0,0.3,0.3,0.6,0.6,0.6h18.3
		c0.3,0,0.6-0.3,0.6-0.6V7.5h3.1c1,0,1.8,0.8,1.8,1.8v12.2H33V6.9c0-1-0.8-1.8-1.8-1.8h-5c0-1-0.8-1.8-1.8-1.8H20
		C19.9,1.4,18.4,0,16.5,0c-1.9,0-3.4,1.4-3.5,3.3H8.6c-1,0-1.8,0.8-1.8,1.8h-5C0.8,5.1,0,5.9,0,6.9v38c0,1,0.8,1.8,1.8,1.8h29.5
		c1,0,1.8-0.8,1.8-1.8v-2.3h-1.9V42.8z M16.5,1.7c0.9,0,1.7,0.7,1.7,1.7S17.4,5,16.5,5c-0.9,0-1.7-0.7-1.7-1.7S15.6,1.7,16.5,1.7z"
		/>
	<path d="M49.6,46.6l-6.4-6.5c-0.4-0.4-1.1-0.5-1.6-0.3l-1.7-1.7c3-3.8,2.7-9.3-0.8-12.8c-3.7-3.8-9.8-3.8-13.6,0
		c-3.7,3.8-3.7,9.9,0,13.6c3.5,3.5,8.9,3.7,12.7,0.8l1.7,1.7c-0.2,0.5-0.1,1.2,0.3,1.6l6.4,6.5c0.6,0.6,1.5,0.6,2,0l0.9-0.9
		C50.1,48.1,50.1,47.2,49.6,46.6z M26.9,37.7c-3-3-3-7.9,0-10.9c3-3,7.8-3,10.8,0c3,3,3,7.9,0,10.9C34.7,40.7,29.9,40.7,26.9,37.7z"
		/>
</g>
</svg>
