<?xml version="1.0" encoding="utf-8"?>
<!-- Generator: Adobe Illustrator 23.0.0, SVG Export Plug-In . SVG Version: 6.00 Build 0)  -->
<svg version="1.1" id="Layer_1" xmlns="http://www.w3.org/2000/svg" xmlns:xlink="http://www.w3.org/1999/xlink" x="0px" y="0px"
	 viewBox="0 0 50 50" enable-background="new 0 0 50 50" xml:space="preserve">
<g>
	<path fill="#2D2D2D" d="M40.8,5.4h-5.4c0-1.1-0.9-1.9-2-1.9h-4.8C28.6,1.5,27,0,25,0s-3.6,1.5-3.7,3.5h-4.8c-1.1,0-1.9,0.9-2,1.9
		H9.2c-1.1,0-1.9,0.9-1.9,1.9v40.7c0,1.1,0.9,1.9,1.9,1.9h31.7c1.1,0,1.9-0.9,1.9-1.9V7.4C42.8,6.3,41.9,5.4,40.8,5.4z M25,1.8
		c1,0,1.8,0.8,1.8,1.8c0,1-0.8,1.8-1.8,1.8s-1.8-0.8-1.8-1.8C23.2,2.6,24,1.8,25,1.8z M40.7,45.4c0,1.1-0.9,1.9-1.9,1.9H11.3
		c-1.1,0-1.9-0.9-1.9-1.9V10c0-1.1,0.9-1.9,1.9-1.9h3.3v0.8c0,0.4,0.3,0.6,0.6,0.6h19.6c0.4,0,0.6-0.3,0.6-0.6V8h3.3
		c1.1,0,1.9,0.9,1.9,1.9V45.4z"/>
	<rect x="20.8" y="18.2" fill="#2D2D2D" width="13.9" height="1.9"/>
	<rect x="20.8" y="14.1" fill="#2D2D2D" width="16.7" height="1.9"/>
	<rect x="20.8" y="29.2" fill="#2D2D2D" width="13.9" height="1.9"/>
	<rect x="20.8" y="25.1" fill="#2D2D2D" width="16.7" height="1.9"/>
	<rect x="20.8" y="40.2" fill="#2D2D2D" width="13.9" height="1.9"/>
	<rect x="20.8" y="36.1" fill="#2D2D2D" width="16.7" height="1.9"/>
	<path fill="#2D2D2D" d="M12.7,20.1h5.9v-5.9h-5.9V20.1z M14.1,15.5h3.2v3.2h-3.2V15.5z"/>
	<path fill="#2D2D2D" d="M12.7,31.1h5.9v-5.9h-5.9V31.1z M14.1,26.5h3.2v3.2h-3.2V26.5z"/>
	<path fill="#2D2D2D" d="M12.7,42.1h5.9v-5.9h-5.9V42.1z M14.1,37.5h3.2v3.2h-3.2V37.5z"/>
</g>
</svg>
