<?xml version="1.0" encoding="utf-8"?>
<!-- Generator: Adobe Illustrator 23.0.0, SVG Export Plug-In . SVG Version: 6.00 Build 0)  -->
<svg version="1.1" id="Layer_1" xmlns="http://www.w3.org/2000/svg" xmlns:xlink="http://www.w3.org/1999/xlink" x="0px" y="0px"
	 viewBox="0 0 50 50" enable-background="new 0 0 50 50" xml:space="preserve">
<path fill="#2D2D2D" d="M41.2,20.7c-1.3-7.3-7.7-12.9-15.4-12.9c-6.2,0-11.5,3.6-14.1,8.8C5.2,17.2,0,22.7,0,29.4
	c0,7.1,5.7,12.8,12.8,12.8c3.5,0,23.1-0.1,26.5-0.1c5.9,0,10.8-4.8,10.8-10.8C50,26,46.2,21.6,41.2,20.7z M25,36.7
	C25,36.7,25,36.7,25,36.7c-5.7,0-10.2-4.6-10.2-10.2c0-0.1,0-0.1,0-0.2h-3.2l5-5l5,5h-3.2c0,0.1,0,0.1,0,0.2c0,3.4,3.3,6.7,6.7,6.7
	c0,0,0,0,0.1,0V36.7z M33.5,31.5l-5-5h3.2c0-0.1,0-0.1,0-0.2c0-3.4-3.3-6.7-6.7-6.7c0,0,0,0-0.1,0v-3.5c0,0,0,0,0.1,0
	c5.6,0,10.2,4.6,10.2,10.2c0,0.1,0,0.1,0,0.2h3.2L33.5,31.5z"/>
</svg>
