<svg id="Layer_1" data-name="Layer 1" xmlns="http://www.w3.org/2000/svg" width="128" height="128" viewBox="0 0 128 128"><defs><style>.cls-1{fill:#24241d;}.cls-2{fill:#896654;}.cls-3{fill:#d8c348;}.cls-4{fill:#2d3236;}.cls-5{fill:#eeeff3;}</style></defs><title>Cockatoo color</title><path d="M48.52,10.67S47.25,9.28,46,9.47s-2.1,1.89-2.1,1.89,1.27,1.38,2.55,1.19S48.52,10.67,48.52,10.67Z"/><path d="M59.55,35.6c-1.57.81-2.79,1.94-4.23,2.38a8.47,8.47,0,0,1-2.25.44,3.07,3.07,0,0,1-2-.41,2.37,2.37,0,0,1-.74-.74,4.33,4.33,0,0,1-.52-1,15.77,15.77,0,0,1-.64-2.39,8.51,8.51,0,0,0,0,2.57,3.93,3.93,0,0,0,1.25,2.46,4.07,4.07,0,0,0,2.72.87,9.06,9.06,0,0,0,2.67-.45A9.55,9.55,0,0,0,58.14,38c.69-.53,1.32-1,2-1.5a18.44,18.44,0,0,0,2-1.6,6.11,6.11,0,0,1,2-1.41,4.87,4.87,0,0,0-2.41.85C61,34.8,60.27,35.22,59.55,35.6Z"/><path d="M50,26.16h.19a5.94,5.94,0,0,1-.35,1.41,3.89,3.89,0,0,0-.1.4.77.77,0,0,0,.07.52.78.78,0,0,0,.46.3,1.78,1.78,0,0,0,.44.06,15.06,15.06,0,0,0,3.16-.32,14,14,0,0,0,3.09-.91,7.07,7.07,0,0,0,1.48-.87,3.58,3.58,0,0,0,.95-1.11c.31-.06.62-.11,1-.19A8.35,8.35,0,0,0,61.7,25,3.8,3.8,0,0,0,63,24.19a2,2,0,0,0,.62-1.37l-.13,0A2.74,2.74,0,0,1,61.38,24c-.83.14-1.72.17-2.65.32l-.42.07-.15.42a3.69,3.69,0,0,1-1.75,1.81,12.45,12.45,0,0,1-2.76,1.11c-.48.14-1,.27-1.48.37a13.13,13.13,0,0,1-1.48.26.89.89,0,0,1-.53-.08c-.07-.06,0-.35,0-.58a5.83,5.83,0,0,0,.16-1.51l1,0a18,18,0,0,0,2.7-.24,5.18,5.18,0,0,0,.73-.18,2,2,0,0,0,.8-.49,1.23,1.23,0,0,0,.31-.59c0-.06,0-.07.07-.13a1.87,1.87,0,0,1,.31-.36,18.34,18.34,0,0,1,1.92-1.51l.53-.38.14-.11.05,0a1.1,1.1,0,0,0,.21-.22.84.84,0,0,0,.1-.37.74.74,0,0,0,0-.28.4.4,0,0,0-.08-.15A1,1,0,0,0,59,21l-.12-.11-.19-.14a8.3,8.3,0,0,0-1.31-.56,20.5,20.5,0,0,0-2.59-.66l-.08.11A25.84,25.84,0,0,0,56.91,21l.54.34-.08,0a8.4,8.4,0,0,0-2.2,1.76,3.29,3.29,0,0,0-.45.72,2.25,2.25,0,0,0-.15.48s-.06.05-.08.08l-.21.12a4.8,4.8,0,0,1-.54.19,19.76,19.76,0,0,1-2.52.43l-1.31.15a8.88,8.88,0,0,1-1.24.13.59.59,0,0,1-.63-.55A6.18,6.18,0,0,1,48,23.68,10.34,10.34,0,0,0,47.72,21l-.14,0a11.31,11.31,0,0,1-.06,2.6,6.28,6.28,0,0,0,0,1.38,1.46,1.46,0,0,0,.33.76,1.29,1.29,0,0,0,.77.37A9.21,9.21,0,0,0,50,26.16Z"/><path d="M127.07,80.14,96.8,81.2c-3.6.11-7.21.24-10.81.32,0-1.87,0-3.74,0-5.6a37.15,37.15,0,0,1,.38-5.46,15.17,15.17,0,0,0,.28-2.91c0-1,0-1.91-.09-2.85-.13-1.89-.37-3.76-.61-5.62l-.41-2.79A18.74,18.74,0,0,0,85,53.47a39.85,39.85,0,0,0-2.28-5.21C81,44.91,76.47,37.85,75.75,32.61a7.17,7.17,0,0,0-1.16-2.33,1.22,1.22,0,0,1-.16-.39c0-.05,0-.06,0-.08s0,0,0,0,0,0,0,0l0-.11a3.42,3.42,0,0,0,0-1.59,9.36,9.36,0,0,0-1.08-2.52,9.46,9.46,0,0,0-.76-1.11c-.26-.34-.5-.65-.75-1l-.11-.16A3.23,3.23,0,0,0,72.3,22a3.13,3.13,0,0,0-.12-.86,8.55,8.55,0,0,0-.62-1.57,31.14,31.14,0,0,0-1.71-2.85c-.32-.47-.59-.91-.95-1.38-.07-.09-.15-.17-.22-.27A4.14,4.14,0,0,0,70,15a6.86,6.86,0,0,0,2.2-.9,10.65,10.65,0,0,0,1.83-1.42c.32-.3.62-.62.91-.94a11.1,11.1,0,0,0,2.85-1.29,9.18,9.18,0,0,0,1.82-1.55A3.42,3.42,0,0,0,80,8.42a2.4,2.4,0,0,0,.17-.32l.07-.2,0-.14c.1-.39.17-.77.23-1.16a10.43,10.43,0,0,0,0-2.37A5,5,0,0,0,79.72,2l-.5-.69-.1.8a3.27,3.27,0,0,1-.94,1.52c-.11.13-.23.26-.34.4a7.25,7.25,0,0,0,.21-1.13,6.85,6.85,0,0,0,0-1.43L77.9.24l-.71.91-.45.51c-.16.18-.33.35-.48.54s-.39.45-.58.68a1,1,0,0,0,0-.16A3.3,3.3,0,0,0,75.49.53L75.21,0l-.38.51a11.83,11.83,0,0,1-4.94,4.2,13.14,13.14,0,0,1-6.5.48L61.68,5c-.56,0-1.12-.1-1.68-.17-1.13-.13-2.25-.31-3.37-.5-1.69-.28-3.38-.6-5.06-.94A34.69,34.69,0,0,0,48,2.31a18.25,18.25,0,0,0-3.32-.54,9.19,9.19,0,0,0-3.37.45,14,14,0,0,0-5.41,3.85,4.38,4.38,0,0,0-1,1.34,3.62,3.62,0,0,0-.24,1.68,11.27,11.27,0,0,0,.85,3.1,3.33,3.33,0,0,0-.38.66,7.49,7.49,0,0,0-.24.9,5,5,0,0,1-.24.86,8.81,8.81,0,0,0-.31.87,9.31,9.31,0,0,0-.36,3.76,6.33,6.33,0,0,0,.51,1.88,11.5,11.5,0,0,0,1,1.65,12.55,12.55,0,0,0,1.17,1.49,4.82,4.82,0,0,0,1.63,1.22l1.09.47-.4-1.12c-.28-.77-.53-1.55-.74-2.33.3.31.6.63.93.92a2.31,2.31,0,0,0,1.64.61,4.59,4.59,0,0,0,.86-.11c.26-.05.52-.09.79-.12A11.71,11.71,0,0,0,44,23.53h0a8.72,8.72,0,0,1,.71,1.68,2.46,2.46,0,0,1,0,1.17,1.49,1.49,0,0,1-.26.48,6.32,6.32,0,0,0-.4.54c-.5.78-.87,1.57-1.31,2.31a19.92,19.92,0,0,1-1.43,2.14,17.07,17.07,0,0,1-1.73,1.9A12.06,12.06,0,0,0,38,35.84a10.35,10.35,0,0,0-1.17,2.5,15.4,15.4,0,0,0-.43,1.75h-.13a5.81,5.81,0,0,0-.36,1.42c-.2.65-.35,1.32-.49,2-.19.91-.35,1.83-.49,2.74-.28,1.84-.5,3.68-.63,5.53-.05.93-.1,1.86-.1,2.8a16.23,16.23,0,0,0,.2,2.84,22.09,22.09,0,0,0,1.93,5.32c.79,1.68,1.63,3.33,2.35,5,.37.83.71,1.66,1,2.5.17.42.26.83.4,1.27s.26.93.41,1.38A40.08,40.08,0,0,0,42.81,78l1.32,2.43c.23.41.44.81.63,1.23a3.38,3.38,0,0,1,.35,1.12l-1.83-.07-4.19-.18-8.39-.43L.92,81.19l-.92,0L.12,82l0,.2,0,.13,0,.24.1.47.2.93.43,1.86c.14.61.29,1.23.46,1.85a15,15,0,0,0,.63,2l.23.54.7,0C5.42,90,21,90,23.54,89.85s5.08-.27,7.62-.45l7.6-.56c.62,0,1.28-.08,1.83-.08s1.31,0,2,0c1.05-.08,2.1-.19,3.13-.35a3.78,3.78,0,0,0,.62,1.84,4.52,4.52,0,0,0,2.29,1.62,13.35,13.35,0,0,0,1,3,4.37,4.37,0,0,0,1.09,1.48,2.85,2.85,0,0,0,.86.5l.31.08a10,10,0,0,0,.26,1.88,7.52,7.52,0,0,0,1,2.29,4.35,4.35,0,0,0,2,1.67,3.5,3.5,0,0,0,2,.17c0,.29-.06.58-.08.87-.28,2.9-.48,5.81-.67,8.71l-.22,4.36a3.62,3.62,0,0,0,.6,2.37,3.46,3.46,0,0,0,.86.89l.92.62.9.6.45.31.24.16a1,1,0,0,0,.38.14,1,1,0,0,0,1.18-.83,2.87,2.87,0,0,0,0-.62l-.06-.54c-.1-.73-.2-1.45-.31-2.17-.06-.36-.12-.72-.2-1.08l-.06-.24.46.27a10.59,10.59,0,0,0,2.77,1.12,13.57,13.57,0,0,0-.32,2.49,5.49,5.49,0,0,0,.27,1.93,2.38,2.38,0,0,0,1.56,1.54c.21.07.3.08.45.12l.42.1.82.27c.28.1.55.21.88.31a1.77,1.77,0,0,0,1.16,0,2.42,2.42,0,0,0,1.36-1.52,7.21,7.21,0,0,0,.23-1.79,3.18,3.18,0,0,0,.47.72,16.64,16.64,0,0,0,2,1.79l0,.74a2.85,2.85,0,0,0,.14,1.35,2.61,2.61,0,0,0,2.11,1.69c.88.15,1.76.27,2.65.34.45,0,.89.06,1.35.06a5.85,5.85,0,0,0,.71,0,3.25,3.25,0,0,0,.38-.08,1.89,1.89,0,0,0,.37-.15,4.21,4.21,0,0,0,2-2.11,5.68,5.68,0,0,0,.43-2.81l-.43-5.27q-.44-4.86-.94-9.7c.4-1.34.69-2.7,1-4.06.34-1.64.61-3.29.86-5,.7.66,1.42,1.28,2.15,1.89l0,0h.09a2.88,2.88,0,0,0,2.08-.45,3.6,3.6,0,0,0,1.28-1.67A4.24,4.24,0,0,0,90,96.58a8.57,8.57,0,0,0-.54-1.91,16.36,16.36,0,0,0-1.92-3.3c-.63-.83-1.63-2-2.46-2.93a35.51,35.51,0,0,1,4.12,0,13.05,13.05,0,0,1,1.59.19c.26,0,.48.12.72.18l.55.13.48.08c1.25.15,2.4.17,3.58.21,4.68.1,9.31,0,14-.13s11.27-.3,15.91-.49l.69,0,.1-.66L127.86,81l.14-.93ZM76.12,37a6.65,6.65,0,0,0,.35.83c.14.27,3.93,7.38,5.51,10.76a40.76,40.76,0,0,1,2,5.14,18.24,18.24,0,0,1,.42,2.69c.12.92.21,1.85.29,2.78.18,1.85.3,3.71.39,5.56a31.7,31.7,0,0,1-.1,5.44,16.84,16.84,0,0,0-.15,2.9c0,.95.08,1.9.18,2.84a52.2,52.2,0,0,0,.79,5.57c-1,0-1.91,0-2.87.06a9.52,9.52,0,0,0,.4-2.27,15.25,15.25,0,0,0-.15-2.13,16.83,16.83,0,0,1,0-2.13A7.55,7.55,0,0,1,83.7,73l-.12-.07a7.06,7.06,0,0,0-1,2,12,12,0,0,0-.47,2.22A7.4,7.4,0,0,0,82,79.39a6,6,0,0,0,.77,2.21h-.08c-.6,0-1.15,0-1.75,0-.44,0-.87,0-1.29,0-.31-.39-.62-.73-.87-1a1,1,0,0,1-.17-.24v-.11c0-.11,0-.16,0-.25s0-.3,0-.44c-.09-1.16-.17-2.29-.2-3.44,0-.13,0-2.5,0-3.41a16.1,16.1,0,0,1,.47-3.38l-.13,0a14.87,14.87,0,0,0-1,3.36,33.32,33.32,0,0,0-.41,3.46h0c-.26.2-.51.4-.75.61s-.53.49-.79.74l-.37.39a.9.9,0,0,1-.24.17.6.6,0,0,1-.46,0,2.88,2.88,0,0,1-.76-.34A17.34,17.34,0,0,1,72.3,76.5l-.47-.32a.39.39,0,0,1-.18-.18,2.32,2.32,0,0,1-.24-.84,11.52,11.52,0,0,1,0-2c0-1.08.17-2.17.21-3.27a.19.19,0,0,0,0-.07,46.37,46.37,0,0,0,2-6.13l-.13,0c-.41,1-.89,1.94-1.37,2.89l-1.43,2.88L70,70.82l-.09.18,0,.09,0,0a.07.07,0,0,1-.06,0s-.11,0-.12,0L68.9,70c-.28-.45-.57-.89-.84-1.34s-.55-.9-.79-1.35A4.26,4.26,0,0,1,66.76,66a12.12,12.12,0,0,1,.08-3c.1-1,.24-2.12.32-3.21a12.77,12.77,0,0,0-.09-3.37,4.27,4.27,0,0,0-.28-.88l-.23-.43-.17-.3a8,8,0,0,1-.56-1.4c-.3-1-.53-2-.74-3.06-.41-2.09-.71-4.2-.94-6.32-.12-1.06-.23-2.12-.3-3.18A11.77,11.77,0,0,1,64,37.72a6.81,6.81,0,0,1,1.24-2.85,5.57,5.57,0,0,1,3-1.72,5.16,5.16,0,0,0,1.44.85,7.48,7.48,0,0,0,1.8.42,7.56,7.56,0,0,0,1.84,0,12.7,12.7,0,0,0,2-.4C75.56,34.38,76,36.5,76.12,37Zm-19.63-32c1.12.26,2.24.5,3.38.69.57.1,1.14.17,1.72.24l1.69.2a21.25,21.25,0,0,0,3.49.21,10.16,10.16,0,0,0,3.51-.74,11.35,11.35,0,0,0,4.78-4.1,3.41,3.41,0,0,1,0,1.06,4.89,4.89,0,0,1-.58,1.79A6.69,6.69,0,0,1,73.37,6a10.38,10.38,0,0,1-1.54,1.25,8.4,8.4,0,0,0,1.71-1.06,7.41,7.41,0,0,0,1.39-1.51,5.32,5.32,0,0,0,.64-1.39,7.1,7.1,0,0,0,1.1-.56A3,3,0,0,0,77,2.48c0,.09,0,.19,0,.29,0,.42-.08.84-.15,1.26a10.54,10.54,0,0,1-.27,1.24,7,7,0,0,1-.53,1.21,2.84,2.84,0,0,0,1.08-.93,4.57,4.57,0,0,0,.53-1l.79-.65a7,7,0,0,0,.76-.69,2,2,0,0,0,.21-.28,4.83,4.83,0,0,1,.27,1.41,9.07,9.07,0,0,1-.14,2.14c-.06.35-.13.7-.22,1l0,.12,0,.07a.75.75,0,0,1-.1.17,2.55,2.55,0,0,1-.3.39,8.93,8.93,0,0,1-1.6,1.38,11.29,11.29,0,0,1-3.93,1.74,20.33,20.33,0,0,1-4.44.25,13.33,13.33,0,0,0,4.56.48l.09,0-1.85,1.15a11.4,11.4,0,0,1-3.34,1.48c-.18-.22-.38-.42-.57-.63a32.83,32.83,0,0,0-2.49-2.25c-.64-.52-1.3-1-2-1.51a9.64,9.64,0,0,0,2.46-.07,9.53,9.53,0,0,0,3-1,5.57,5.57,0,0,0,2.34-2.06,10.28,10.28,0,0,1-2.66,1.31,16.23,16.23,0,0,1-2.83.69,15.6,15.6,0,0,1-2.89.19L62,9.34,60,7.89l-.65-.48c-.23-.17-.46-.35-.7-.5-.48-.32-1-.61-1.45-.88a33.21,33.21,0,0,0-3-1.5l-.34-.15C54.77,4.62,55.63,4.85,56.49,5.06ZM43.8,22.74c-.48.16-1,.25-1.55.37-.27.07-.55.13-.82.21a6.49,6.49,0,0,1-.76.19,1.87,1.87,0,0,1-1.43-.32c-.37-.24-.75-.53-1.13-.79,0-.11-.07-.22-.09-.33a4.51,4.51,0,0,1-.17-1.28v0a1.17,1.17,0,0,1,.23-.13l.67-.26c.45-.17.92-.35,1.38-.54a7.22,7.22,0,0,0,1.37-.67,3,3,0,0,0,.58-.54l.49-.56c.32-.38.62-.77.92-1.17l-1.1,1-.56.48a2.78,2.78,0,0,1-.56.4,24.28,24.28,0,0,1-2.77.88c-.24.07-.48.14-.73.23a2.37,2.37,0,0,0-.41.19l-.14.1a1.18,1.18,0,0,0-.13.18,1.11,1.11,0,0,0-.11.3,5,5,0,0,0,.11,1.64c.09.47.2.92.33,1.37l-.09-.09a12.1,12.1,0,0,1-1.1-1.36,14.37,14.37,0,0,1-.93-1.48,5.77,5.77,0,0,1-.52-1.6,9.81,9.81,0,0,1,0-3.5c0-.3.11-.56.19-.88a6,6,0,0,0,.12-.94,6.08,6.08,0,0,1,.48-1.53,2.63,2.63,0,0,0-.09-.3,8.24,8.24,0,0,1,1.88.36c.6.2,1.18.45,1.76.7,1.16.51,2.3,1.08,3.39,1.69l.06,0h.1a3.32,3.32,0,0,1,1.7,1.1,7.56,7.56,0,0,1,.72.87c.19.26.36.54.52.8-.13,1-.26,2-.42,3.07,0,.26-.08.56-.12.78a1.6,1.6,0,0,1-.23.6A2,2,0,0,1,43.8,22.74Zm-6.09,16a18.18,18.18,0,0,1,1.41-2.09l.61-.75a2.85,2.85,0,0,0,.33,1.72,1.82,1.82,0,0,0,.86.78,2.35,2.35,0,0,0,1.12.16A5.69,5.69,0,0,0,43.82,38a12.07,12.07,0,0,0,2.89-1.85A10.72,10.72,0,0,0,47.94,35a4.53,4.53,0,0,0,.89-1.47,18.35,18.35,0,0,1-2.75,1.77c-.93.54-1.89,1-2.83,1.47a6.26,6.26,0,0,1-1.37.48A.85.85,0,0,1,41,37a2.74,2.74,0,0,1-.54-1.28,5.21,5.21,0,0,1-.08-.57l.39-.49a23.92,23.92,0,0,0,1.61-2.17,18.82,18.82,0,0,0,1.31-2.36c.39-.8.72-1.64,1.11-2.38.1-.19.19-.32.33-.54a2.25,2.25,0,0,0,.28-.72,2.8,2.8,0,0,0-.18-1.42,7.9,7.9,0,0,0-.89-1.62,2.65,2.65,0,0,0,1.35-.94,2.54,2.54,0,0,0,.4-.91c.07-.32.11-.56.17-.84.18-1.09.36-2.17.5-3.27l0-.17-.09-.15A9.51,9.51,0,0,0,46,16.12a9.25,9.25,0,0,0-.82-1,5,5,0,0,0-1-.82,3.23,3.23,0,0,0-1.2-.46c-.57-.28-1.15-.52-1.73-.76s-1.21-.46-1.83-.66A13.36,13.36,0,0,0,37.48,12a6.44,6.44,0,0,0-2-.06c-.14-.44-.29-.84-.39-1.27a7.21,7.21,0,0,1-.25-1.59,3.17,3.17,0,0,1,.28-1.53,4,4,0,0,1,1-1.18,13.27,13.27,0,0,1,5.33-3.48,8.33,8.33,0,0,1,3.1-.32,18,18,0,0,1,3.14.62,36.45,36.45,0,0,1,6,2.35,32.23,32.23,0,0,1,2.82,1.57c.46.28.9.57,1.33.88.22.15.41.32.62.48l.65.52c.87.68,1.75,1.34,2.62,2s1.76,1.29,2.61,1.95,1.71,1.33,2.49,2A14.68,14.68,0,0,1,68,16.08c.33.38.68.84,1,1.25.68.84,1.36,1.69,2,2.59a8.62,8.62,0,0,1,.79,1.38,2.74,2.74,0,0,1-.12,1.82c-.33-.48-.63-.94-1.17-1.8-.92-1.42-1.81-2.87-2.77-4.28l-.12.07,2.28,4.56c.39.75.79,1.51,1.23,2.25.21.37.46.76.69,1.11a8.19,8.19,0,0,1,.59,1,7,7,0,0,1,.7,2.23c0,.07,0,.14,0,.22a11.48,11.48,0,0,0-2.86.43,9.14,9.14,0,0,0-1.36.48,9.74,9.74,0,0,1-1.24.5,3.58,3.58,0,0,1-2.44-.61,4.64,4.64,0,0,1-1.06-.87,1.82,1.82,0,0,1-.54-1.2l-.14,0a2,2,0,0,0,.33,1.49,5.08,5.08,0,0,0,1,1.17,4.38,4.38,0,0,0,3,1.16,5.58,5.58,0,0,0,.83-.13l.72-.16a8.15,8.15,0,0,0,1.39-.48,9.75,9.75,0,0,0,2.4-1.53,2.18,2.18,0,0,1-.06.49l0,.17c0,.1,0,.2,0,.29a1.6,1.6,0,0,0,.06.55,2.76,2.76,0,0,0,.36.77c.55.76,1,1.32,1.47,2,.12.2.22.41.33.62-.62-.16-1.38-.27-1.81-.36s-1.15-.2-1.72-.26-1.14-.09-1.73-.1a13.12,13.12,0,0,0-1.51.07h0C67.3,33.09,67,32.89,65,34.7a5.48,5.48,0,0,0-1.43,2.93,11.86,11.86,0,0,0-.29,3.25c0,1.08.09,2.15.16,3.22.06.8.14,1.59.22,2.38a3.36,3.36,0,0,1-1.31.86,17.21,17.21,0,0,1-1.92.62c-1.32.34-2.64.81-4,1a11.1,11.1,0,0,1-4.1.07,6,6,0,0,1-1.92-.71,3.85,3.85,0,0,1-.82-.62,1.9,1.9,0,0,1-.54-.84h-.14a2,2,0,0,0,.46,1,3.94,3.94,0,0,0,.8.78,6.65,6.65,0,0,0,2,1,12,12,0,0,0,4.41.36,14.81,14.81,0,0,0,4.35-.78,8.29,8.29,0,0,0,2-1.1,4.19,4.19,0,0,0,.82-.86.56.56,0,0,1,0-.08c.12,1.08.27,2.17.44,3.26s.38,2.13.67,3.19a8.84,8.84,0,0,0,.58,1.6l.21.41.14.28a3.09,3.09,0,0,1,.18.65,11.91,11.91,0,0,1-.06,3c-.12,1-.3,2.09-.45,3.17-.07.53-.14,1.07-.18,1.64a7.59,7.59,0,0,0,0,1.77A5.58,5.58,0,0,0,66,68c.27.49.56,1,.86,1.41s.61.9.93,1.34l.48.65.24.33.14.17a1.07,1.07,0,0,0,.26.26,1.34,1.34,0,0,0,1.4.1,1.32,1.32,0,0,0,.52-.5l.07-.15,0-.09.08-.19c-.12.58-.24,1.17-.34,1.76a12.06,12.06,0,0,0-.19,2.19,3.06,3.06,0,0,0,.23,1.22,1.55,1.55,0,0,0,.5.62l.38.31c.51.45,1,1,1.63,1.44a3.5,3.5,0,0,0,1.14.59,2.16,2.16,0,0,0,.78.08A1.84,1.84,0,0,0,76,79.2a2.3,2.3,0,0,0,.54-.54l.29-.43.49-.74-.13,2.05,0,.89a1.32,1.32,0,0,0,.38.81,2.66,2.66,0,0,0,.45.34l.35.17c-.91.1-1.82.23-2.72.38-1.16.21-2.32.44-3.48.67l-1.43.29a3.89,3.89,0,0,0-.79-2.23,3.78,3.78,0,0,0-1.81-1.07,6,6,0,0,0-2-.35,5.74,5.74,0,0,0-1.94.34l0,.13a6.44,6.44,0,0,1,1.82.23,3.52,3.52,0,0,0-2.12,1.43,2.94,2.94,0,0,0-.39.84c0,.1,0,.19-.06.28-.85,0-4.28.06-7,.14l-.29-.39a1.66,1.66,0,0,0,.35-.41,2.53,2.53,0,0,0,.16-.63l.24-1a.9.9,0,0,0,.49,0,.88.88,0,0,0,.55-.62.75.75,0,0,0,0-.21v-.35c0-.3,0-.6,0-.9a6,6,0,0,0,0-1,4,4,0,0,0-.2-1,14.08,14.08,0,0,0-1.87-3.3,17.77,17.77,0,0,1,1.44,3.42,3.73,3.73,0,0,1,.09.87,6.62,6.62,0,0,1-.15.89,8,8,0,0,0-.1,1v.39a.1.1,0,0,1-.07,0s-.05,0-.06,0l-.15-.15-.18-.16a5.23,5.23,0,0,0-.83-.61,2.91,2.91,0,0,0-1-.38,9,9,0,0,0-1-.11,32.41,32.41,0,0,0-3.27,0c-.27-1.29-.5-2.58-.72-3.87-.12-.73-.23-1.46-.29-2.17s-.06-1.43-.08-2.18a22.61,22.61,0,0,0-.16-2.3,8,8,0,0,0-.62-2.36,3.68,3.68,0,0,0-.8-1.12,3.22,3.22,0,0,0-.6-.42l-.44-.24a7.81,7.81,0,0,1-1.56-1.33,22.42,22.42,0,0,1-4.19-7.57A26.07,26.07,0,0,1,40,50.39a13.38,13.38,0,0,1-.17-2.19,7.09,7.09,0,0,1,.28-2.05l1.42.24a8.31,8.31,0,0,0,2.44.07,8.76,8.76,0,0,0,2.41-.54,6.27,6.27,0,0,0,2.15-1.36,2.92,2.92,0,0,0,1-2.35l-.14,0c-.73,1.4-2.14,1.84-3.49,2.33-.68.24-1.39.45-2.12.63s-1.46.33-2.22.47a4.83,4.83,0,0,1-2.27-.08,2.88,2.88,0,0,1-1.57-1.34,6.66,6.66,0,0,1-.8-1.86c-.14-.51-.25-1.06-.38-1.62C37,40.06,37.34,39.39,37.71,38.74Zm29.91,51,.08.67.64,0,.51,0c-.29.55-.68,1-1.1,1.09a1.23,1.23,0,0,1-.29,0,1.31,1.31,0,0,1-.25,0c-.12,0-.16-.06-.23-.25a7.26,7.26,0,0,1-.11-.73,4.61,4.61,0,0,0-.19-.83c-.27-1-.53-2.06-.75-3.1a17.73,17.73,0,0,1-.45-3.14h-.14a15.85,15.85,0,0,0,.12,3.23c.11,1,.25,2.06.45,3.09a3.43,3.43,0,0,1-.74-.62A3,3,0,0,1,64.54,88l0-.67c0-.25,0-.51,0-.77,0-.52-.14-1.05-.17-1.58s-.06-1.06,0-1.58c0-.26,0-.52.06-.76a2,2,0,0,1,.2-.66,3.29,3.29,0,0,1,2-1.63,6.59,6.59,0,0,1,1.15.51c.5.3.84.76,1.3,1l.34.28a5.56,5.56,0,0,0-1,1.14,4.52,4.52,0,0,0-.33.91A9.84,9.84,0,0,0,67.61,86c-.07.62-.08,1.24-.09,1.86A14.34,14.34,0,0,0,67.62,89.75ZM69.83,89,69,89l0-.35c1,0,2.1,0,3.14,0l.85.05a3.44,3.44,0,0,1,.72.17,8.07,8.07,0,0,0,1.73.6,11,11,0,0,0,3.68-.3c.91-.16,1.84-.3,2.77-.41A29,29,0,0,1,80,91.67,11.14,11.14,0,0,1,76.38,95a4.61,4.61,0,0,1-1.07.4l-.55.06c-.2,0-.41,0-.62,0a6,6,0,0,1-2.33-.4A5.09,5.09,0,0,1,70,93.51l-1.12-1.39a3.32,3.32,0,0,0,.72-.67,6.1,6.1,0,0,0,.9-1.57l.32-.8Zm-6.75-1.58c0,.11,0,.22.06.33-2.18-.11-7.29-.19-10.38-.22l.29-1.28c.13-.56.24-1.13.38-1.65,0-.08,0-.17.07-.26,1.49-.12,7.09-.23,9.68-.26,0,.27-.06.55-.08.82,0,.55-.1,1.11-.09,1.67A5,5,0,0,0,63.08,87.44ZM54.39,82.9a2.94,2.94,0,0,1,.19-.29.41.41,0,0,1,.39-.2,2.83,2.83,0,0,1,1,.43Zm-9.68-2.76c-.32-.88-.66-1.74-1-2.6-.68-1.71-1.39-3.4-1.91-5.12-.13-.43-.26-.86-.36-1.29s-.24-.94-.4-1.38a22.78,22.78,0,0,0-1.11-2.63c-.83-1.68-1.76-3.29-2.6-4.91a21.22,21.22,0,0,1-2-5A14.66,14.66,0,0,1,35,54.53c0-.91,0-1.83,0-2.74,0-1.84.16-3.68.34-5.51.09-.92.21-1.84.34-2.75l.18-1a4.48,4.48,0,0,0,.25,1.24,2.92,2.92,0,0,0,.71,1.16,4.35,4.35,0,0,0,2.37,1l1,.16a9.24,9.24,0,0,0-.57,4.3,21.88,21.88,0,0,0,.76,4.47,24.64,24.64,0,0,0,1.58,4.27,16.88,16.88,0,0,0,2.47,3.9,9.18,9.18,0,0,0,1.79,1.6l.53.32a1.73,1.73,0,0,1,.31.22,2.28,2.28,0,0,1,.48.7A11.51,11.51,0,0,1,48.09,70c0,.74,0,1.49.11,2.29s.2,1.51.33,2.26c.25,1.43.58,2.84.92,4.26a17.49,17.49,0,0,0-1.92,3c-.14.28-.26.57-.4.86-.61,0-1.23,0-1.86,0a3,3,0,0,0-.13-1.26C45,81,44.87,80.58,44.71,80.14ZM46,85.73a8,8,0,0,0-.29,2.19V88c-1-.08-2.07-.16-3.09-.29-.63-.06-1.23-.15-1.86-.26s-1.33-.09-2-.11c-2.57-.07-5.12,0-7.67,0s-5.1.15-7.64.34c-2.38.16-16,.35-20,.58-.13-.33-.25-.71-.36-1.06-.19-.59-.36-1.19-.53-1.79l-.48-1.8-.22-.87,20.4.15,8.4.12,8.4,0h4.21c1.25,0,2.48,0,3.74-.09A22.72,22.72,0,0,0,46,85.73Zm1.54,3.64a3.5,3.5,0,0,1-.58-1.53A6.53,6.53,0,0,1,47,86a24.93,24.93,0,0,1,1.16-3.82,19.49,19.49,0,0,1,1.38-3l.09.37.52,0c1.23-.1,2.48-.21,3.69-.2a6.14,6.14,0,0,1,.88,0,1.81,1.81,0,0,1,.74.22,3.92,3.92,0,0,1,.72.45l.38.3s.11,0,.16.07a6.15,6.15,0,0,0-.58.83,1.65,1.65,0,0,0-.31.62,1.31,1.31,0,0,0,0,.28,2,2,0,0,0-.63-.42,1.12,1.12,0,0,0-.64-.08,1.31,1.31,0,0,0-.61.27,5.09,5.09,0,0,0-.7.73,1.34,1.34,0,0,1-.24.24l0,0-.09.07a1.32,1.32,0,0,0-.29.3l-.17.27-.12.24a4.47,4.47,0,0,0-.19.46A10,10,0,0,0,51.63,86c-.1.59-.17,1.19-.23,1.79l-.09.89,0,.32a4.23,4.23,0,0,1-1.48.18A4.82,4.82,0,0,1,48.45,89c0-.15,0-.33.06-.48l.13-.83c.09-.55.2-1.11.31-1.67s.25-1.1.39-1.65a13.08,13.08,0,0,1,.51-1.61l-.13-.07a19.87,19.87,0,0,0-1.26,3.2c-.18.55-.34,1.1-.49,1.65-.08.28-.14.56-.21.85a4.47,4.47,0,0,0-.14,1v.21l.22.12a5.48,5.48,0,0,0,1.88.53l.58,0-.12.66-.06.3A4.9,4.9,0,0,1,47.49,89.37Zm22.85,33.52a2,2,0,0,1-1.14,1c-.35.09-.85-.19-1.43-.44a7.79,7.79,0,0,0-.89-.33,3.47,3.47,0,0,0-.46-.13,3.82,3.82,0,0,1-.42-.12c-.84-.17-1.18-1.37-1.29-2.5-.09-.77-.11-1.57-.15-2.38a6.42,6.42,0,0,0,.89.07,3.4,3.4,0,0,0,2.13-.81,3.73,3.73,0,0,0,1-2,17.4,17.4,0,0,0,.23-4.06,34.12,34.12,0,0,0-.43-3.91.94.94,0,0,1,.1.1l.6.42a5.7,5.7,0,0,0,.72.29,2.68,2.68,0,0,0,.8.06,53.74,53.74,0,0,0-.15,11.06,9.67,9.67,0,0,0,.49,1.9A7.78,7.78,0,0,1,70.34,122.89Zm1.83-1.5a5.56,5.56,0,0,1-1-2.39,35.32,35.32,0,0,1-.49-5.65c-.08-1.75,0-3.51-.11-5.27a2.51,2.51,0,0,0,.66-.14,4.2,4.2,0,0,0,2-1.85,10.21,10.21,0,0,0,.84-1.77c.23,0,.45,0,.67,0a4.36,4.36,0,0,0,3-1.36,7.56,7.56,0,0,0,.58-.69l.42,10.7c0,1.91.12,3.81.12,5.71,0,1,0,1.9,0,2.85a11.88,11.88,0,0,1-.32,2.69.93.93,0,0,1-.08.17l-.08,0a.62.62,0,0,1-.24.08.77.77,0,0,1-.27,0,3.28,3.28,0,0,1-1.21-.19,10.44,10.44,0,0,1-2.41-1.25A16.56,16.56,0,0,1,72.17,121.39ZM84,92.67c-.31,1.82-.58,3.65-.85,5.48s-.51,3.66-.72,5.5c-.12.93-.22,1.87-.32,2.81-.37-3.32-.78-6.63-1.26-9.93.2,7,.71,14.08,1.31,21.1l.48,5.26a4.73,4.73,0,0,1-.29,2.37,3.5,3.5,0,0,1-1.5,1.74,2.27,2.27,0,0,1-1.1.24c-.43,0-.86,0-1.29,0-.87,0-1.75-.09-2.62-.17a2.23,2.23,0,0,1-1.93-1.28,2.87,2.87,0,0,1-.23-1.25l-.05-.69.11.09a10.25,10.25,0,0,0,2.66,1.41,4.14,4.14,0,0,0,1.6.26,1.59,1.59,0,0,0,.43-.06,1.76,1.76,0,0,0,.44-.15l.21-.1a1.26,1.26,0,0,0,.29-.26,2,2,0,0,0,.23-.47,12.73,12.73,0,0,0,.35-3c0-1,0-1.93,0-2.89-.06-1.92-.15-3.84-.31-5.75s-.33-3.81-.53-5.72c-.2-1.67-.4-3.35-.64-5a9,9,0,0,0,1-1.85,17.21,17.21,0,0,0,1.33-5.87A28.18,28.18,0,0,1,78.78,100a8.88,8.88,0,0,1-1.65,2.28,3.36,3.36,0,0,1-2.31,1,4.47,4.47,0,0,1-2.55-.68,6.08,6.08,0,0,1-1.9-2,13.83,13.83,0,0,1-1.8-5.52,10.89,10.89,0,0,0,1.09,5.93,6.43,6.43,0,0,0,2.07,2.4,5.39,5.39,0,0,0,2.26.84,13.92,13.92,0,0,1-1.09,1.49A3.93,3.93,0,0,1,71,107.16a2.11,2.11,0,0,1-1,0c-.16-.06-.3-.15-.45-.22l-.45-.36a11.42,11.42,0,0,1-1.55-1.87,33.83,33.83,0,0,1-2.48-4.4c-.35-.76-.7-1.54-1-2.33a7.82,7.82,0,0,1-.59-2.47,6.06,6.06,0,0,0,.1,2.61,18.45,18.45,0,0,0,.73,2.51,22.26,22.26,0,0,0,2.36,4.67,12,12,0,0,0,1.66,1.93c0,1.31,0,2.62-.08,3.92a19.71,19.71,0,0,1-.51,3.87A3.31,3.31,0,0,1,67,116.5a2.25,2.25,0,0,1-1.55.51A8.15,8.15,0,0,1,62,115.83l-.85-.49-.43-.25-.19-.13s-.07,0-.1-.08a1.45,1.45,0,0,1-.3-.66,5.14,5.14,0,0,1-.12-.9,22.22,22.22,0,0,1,.26-3.87c.19-1.31.41-2.62.64-3.93l.31-2a14.73,14.73,0,0,0,.19-2c-.26,1.3-.65,2.57-1,3.86s-.68,2.58-.94,3.9a18.71,18.71,0,0,0-.45,4.06,5.13,5.13,0,0,0,.13,1.08,2.35,2.35,0,0,0,.53,1.12,2.16,2.16,0,0,0,.27.25l.23.15.43.26.29.17,0,.34c0,.36.06.73.08,1.09,0,.72.06,1.45.07,2.18l0,.54a2.24,2.24,0,0,1,0,.47.34.34,0,0,1-.57.2l-.2-.15-.44-.33-.87-.66-.86-.66a2.54,2.54,0,0,1-.62-.69,2.72,2.72,0,0,1-.38-1.8l.28-4.35c.17-2.91.32-5.81.43-8.72s.18-5.82.26-8.73c-.42,2.51-.72,5.05-1,7.58a5.3,5.3,0,0,1-1.69-.68A5.21,5.21,0,0,1,54,100.5a15.52,15.52,0,0,1-1.08-2c-.23-.5-.48-1-.74-1.54l.35,0a8.27,8.27,0,0,0,3.46-.53,4.86,4.86,0,0,0,1.52-.93A2.07,2.07,0,0,0,58.19,94c.1.12.2.24.31.35a6,6,0,0,0,1.22,1,2.86,2.86,0,0,0,.82.32,2.7,2.7,0,0,0,.85,0A4.17,4.17,0,0,0,64,94.08a6.26,6.26,0,0,1-2.62.79,2.13,2.13,0,0,1-.58-.09,2.1,2.1,0,0,1-.51-.27,5.28,5.28,0,0,1-1-.87c-.64-.65-1.22-1.4-1.82-2.14S56.24,90,55.59,89.25A12.72,12.72,0,0,0,56.75,92,11.8,11.8,0,0,0,58.18,94a2.2,2.2,0,0,1-1,1.15,6.13,6.13,0,0,1-1.46.56,11.05,11.05,0,0,1-3.13.26,2.72,2.72,0,0,1-2.27-1.53c-.55-.81-1-1.71-1.6-2.58a4.39,4.39,0,0,0,1.68.16l.4,0v-.28a3.51,3.51,0,0,0-.08-.88,5.38,5.38,0,0,0-.2-.65A3.9,3.9,0,0,0,51.72,90a1.17,1.17,0,0,0,.35-.2.81.81,0,0,0,.2-.21,1,1,0,0,0,.11-.28c0-.15.06-.26.09-.38,4.32,0,10.71.16,11.32.27l0-.1a4.59,4.59,0,0,0,.81.66,2.7,2.7,0,0,0,1.37.38,2.45,2.45,0,0,1,0,.39,7.58,7.58,0,0,0,.07.86,1.29,1.29,0,0,0,.74.94,3,3,0,0,0,.53.14,2.17,2.17,0,0,0,.51,0,2,2,0,0,0,.81-.28c.27.54.54,1.07.86,1.6a4.91,4.91,0,0,0,1.9,1.94,6.3,6.3,0,0,0,2.65.67c.23,0,.44,0,.68,0l.72-.06a6,6,0,0,0,1.35-.46,10.28,10.28,0,0,0,3.78-3.77,16,16,0,0,0,1.63-3.45l.21,0c.73-.08,1.47-.14,2.2-.2C84.46,89.87,84.21,91.27,84,92.67Zm2.94-.9A24.49,24.49,0,0,1,88.53,95a4.81,4.81,0,0,1,.28,3.27A2.69,2.69,0,0,1,88,99.6a2.32,2.32,0,0,1-1.4.5c-.8-.5-1.6-1-2.42-1.42l.06-.38c.25-1.84.48-3.68.62-5.54A39.87,39.87,0,0,0,85,88.52Zm38.34-4.85c-4.59.1-10.81.16-15.23.2-4.62,0-9.26,0-13.85-.1-1.14,0-2.3-.1-3.36-.22l-.38,0-.3-.07a8.46,8.46,0,0,0-1-.22,15.29,15.29,0,0,0-1.86-.2,25.24,25.24,0,0,0-3.6.12c-1.19.12-2.36.26-3.52.48s-2.32.46-3.46.78c-.59.17-1.1.34-1.64.46a5.55,5.55,0,0,1-1.54.17,7.07,7.07,0,0,1-1.6-.39,3.66,3.66,0,0,0-1-.09l-.89.08C71,88,70,88.16,69,88.37c-.06-.77-.13-1.54-.18-2.31,0-.59-.08-1.18-.08-1.76,0-.23,0-.45,0-.67,1.17-.08,2.29-.3,3.44-.47s2.32-.36,3.49-.51,2.33-.27,3.49-.32a14.23,14.23,0,0,1,1.73,0c.58,0,1.2.06,1.79.06,4.73,0,9.44,0,14.16-.11l29.34-.59Z"/><path class="cls-1" d="M67.61,86c-.07.62-.08,1.24-.09,1.86a14.34,14.34,0,0,0,.1,1.85l.08.67.64,0,.51,0c-.29.55-.68,1-1.1,1.09a1.23,1.23,0,0,1-.29,0,1.31,1.31,0,0,1-.25,0c-.12,0-.16-.06-.23-.25a7.26,7.26,0,0,1-.11-.73,4.61,4.61,0,0,0-.19-.83c-.27-1-.53-2.06-.75-3.1a17.73,17.73,0,0,1-.45-3.14h-.14a15.85,15.85,0,0,0,.12,3.23c.11,1,.25,2.06.45,3.09a3.43,3.43,0,0,1-.74-.62A3,3,0,0,1,64.54,88l0-.67c0-.25,0-.51,0-.77,0-.52-.14-1.05-.17-1.58s-.06-1.06,0-1.58c0-.26,0-.52.06-.76a2,2,0,0,1,.2-.66,3.29,3.29,0,0,1,2-1.63,6.59,6.59,0,0,1,1.15.51c.5.3.84.76,1.3,1l.34.28a5.56,5.56,0,0,0-1,1.14,4.52,4.52,0,0,0-.33.91A9.84,9.84,0,0,0,67.61,86Z"/><path class="cls-1" d="M56.69,80.36a6.15,6.15,0,0,0-.58.83,1.65,1.65,0,0,0-.31.62,1.31,1.31,0,0,0,0,.28,2,2,0,0,0-.63-.42,1.12,1.12,0,0,0-.64-.08,1.31,1.31,0,0,0-.61.27,5.09,5.09,0,0,0-.7.73,1.34,1.34,0,0,1-.24.24l0,0-.09.07a1.32,1.32,0,0,0-.29.3l-.17.27-.12.24a4.47,4.47,0,0,0-.19.46A10,10,0,0,0,51.63,86c-.1.59-.17,1.19-.23,1.79l-.09.89,0,.32a4.23,4.23,0,0,1-1.48.18A4.82,4.82,0,0,1,48.45,89c0-.15,0-.33.06-.48l.13-.83c.09-.55.2-1.11.31-1.67s.25-1.1.39-1.65a13.08,13.08,0,0,1,.51-1.61l-.13-.07a19.87,19.87,0,0,0-1.26,3.2c-.18.55-.34,1.1-.49,1.65-.08.28-.14.56-.21.85a4.47,4.47,0,0,0-.14,1v.21l.22.12a5.48,5.48,0,0,0,1.88.53l.58,0-.12.66-.06.3a4.9,4.9,0,0,1-2.63-1.77,3.5,3.5,0,0,1-.58-1.53A6.53,6.53,0,0,1,47,86a24.93,24.93,0,0,1,1.16-3.82,19.49,19.49,0,0,1,1.38-3l.09.37.52,0c1.23-.1,2.48-.21,3.69-.2a6.14,6.14,0,0,1,.88,0,1.81,1.81,0,0,1,.74.22,3.92,3.92,0,0,1,.72.45l.38.3S56.64,80.33,56.69,80.36Z"/><path class="cls-2" d="M96.83,82.29c-4.72.07-9.43.14-14.16.11-.59,0-1.21,0-1.79-.06a14.23,14.23,0,0,0-1.73,0c-1.16,0-2.33.17-3.49.32s-2.33.33-3.49.51-2.27.39-3.44.47c0,.22,0,.44,0,.67,0,.58,0,1.17.08,1.76,0,.77.12,1.54.18,2.31,1-.21,2.07-.38,3.13-.5l.89-.08a3.66,3.66,0,0,1,1,.09,7.07,7.07,0,0,0,1.6.39,5.55,5.55,0,0,0,1.54-.17c.54-.12,1-.29,1.64-.46,1.14-.32,2.3-.56,3.46-.78s2.33-.36,3.52-.48a25.24,25.24,0,0,1,3.6-.12,15.29,15.29,0,0,1,1.86.2,8.46,8.46,0,0,1,1,.22l.3.07.38,0c1.06.12,2.22.18,3.36.22,4.59.14,9.23.12,13.85.1,4.42,0,10.64-.1,15.23-.2l.89-5.22Z"/><path class="cls-2" d="M63.18,84.1c-2.59,0-8.19.14-9.68.26,0,.09,0,.18-.07.26-.14.52-.25,1.09-.38,1.65l-.29,1.28c3.09,0,8.2.11,10.38.22,0-.11,0-.22-.06-.33a5,5,0,0,1-.07-.85c0-.56.05-1.12.09-1.67C63.12,84.65,63.15,84.37,63.18,84.1Z"/><path class="cls-2" d="M39.07,83.08l-8.4,0-8.4-.12-20.4-.15.22.87.48,1.8c.17.6.34,1.2.53,1.79.11.35.23.73.36,1.06,3.94-.23,17.58-.42,20-.58,2.54-.19,5.09-.28,7.64-.34s5.1-.08,7.67,0c.65,0,1.27,0,2,.11s1.23.2,1.86.26c1,.13,2.06.21,3.09.29v-.09A8,8,0,0,1,46,85.73,22.72,22.72,0,0,1,47,83c-1.26.09-2.49.07-3.74.09Z"/><path class="cls-3" d="M79.69,4.31a9.07,9.07,0,0,1-.14,2.14c-.06.35-.13.7-.22,1l0,.12,0,.07a.75.75,0,0,1-.1.17,2.55,2.55,0,0,1-.3.39,8.93,8.93,0,0,1-1.6,1.38,11.29,11.29,0,0,1-3.93,1.74,20.33,20.33,0,0,1-4.44.25,13.33,13.33,0,0,0,4.56.48l.09,0-1.85,1.15a11.4,11.4,0,0,1-3.34,1.48c-.18-.22-.38-.42-.57-.63a32.83,32.83,0,0,0-2.49-2.25c-.64-.52-1.3-1-2-1.51a9.64,9.64,0,0,0,2.46-.07,9.53,9.53,0,0,0,3-1,5.57,5.57,0,0,0,2.34-2.06,10.28,10.28,0,0,1-2.66,1.31,16.23,16.23,0,0,1-2.83.69,15.6,15.6,0,0,1-2.89.19L62,9.34,60,7.89l-.65-.48c-.23-.17-.46-.35-.7-.5-.48-.32-1-.61-1.45-.88a33.21,33.21,0,0,0-3-1.5l-.34-.15c.86.24,1.72.47,2.58.68,1.12.26,2.24.5,3.38.69.57.1,1.14.17,1.72.24l1.69.2a21.25,21.25,0,0,0,3.49.21,10.16,10.16,0,0,0,3.51-.74,11.35,11.35,0,0,0,4.78-4.1,3.41,3.41,0,0,1,0,1.06,4.89,4.89,0,0,1-.58,1.79A6.69,6.69,0,0,1,73.37,6a10.38,10.38,0,0,1-1.54,1.25,8.4,8.4,0,0,0,1.71-1.06,7.41,7.41,0,0,0,1.39-1.51,5.32,5.32,0,0,0,.64-1.39,7.1,7.1,0,0,0,1.1-.56A3,3,0,0,0,77,2.48c0,.09,0,.19,0,.29,0,.42-.08.84-.15,1.26a10.54,10.54,0,0,1-.27,1.24,7,7,0,0,1-.53,1.21,2.84,2.84,0,0,0,1.08-.93,4.57,4.57,0,0,0,.53-1l.79-.65a7,7,0,0,0,.76-.69,2,2,0,0,0,.21-.28A4.83,4.83,0,0,1,79.69,4.31Z"/><path class="cls-4" d="M45.65,17.53c-.13,1-.26,2-.42,3.07,0,.26-.08.56-.12.78a1.6,1.6,0,0,1-.23.6,2,2,0,0,1-1.08.76c-.48.16-1,.25-1.55.37-.27.07-.55.13-.82.21a6.49,6.49,0,0,1-.76.19,1.87,1.87,0,0,1-1.43-.32c-.37-.24-.75-.53-1.13-.79,0-.11-.07-.22-.09-.33a4.51,4.51,0,0,1-.17-1.28v0a1.17,1.17,0,0,1,.23-.13l.67-.26c.45-.17.92-.35,1.38-.54a7.22,7.22,0,0,0,1.37-.67,3,3,0,0,0,.58-.54l.49-.56c.32-.38.62-.77.92-1.17l-1.1,1-.56.48a2.78,2.78,0,0,1-.56.4,24.28,24.28,0,0,1-2.77.88c-.24.07-.48.14-.73.23a2.37,2.37,0,0,0-.41.19l-.14.1a1.18,1.18,0,0,0-.13.18,1.11,1.11,0,0,0-.11.3,5,5,0,0,0,.11,1.64c.09.47.2.92.33,1.37l-.09-.09a12.1,12.1,0,0,1-1.1-1.36,14.37,14.37,0,0,1-.93-1.48,5.77,5.77,0,0,1-.52-1.6,9.81,9.81,0,0,1,0-3.5c0-.3.11-.56.19-.88a6,6,0,0,0,.12-.94,6.08,6.08,0,0,1,.48-1.53,2.63,2.63,0,0,0-.09-.3,8.24,8.24,0,0,1,1.88.36c.6.2,1.18.45,1.76.7,1.16.51,2.3,1.08,3.39,1.69l.06,0h.1a3.32,3.32,0,0,1,1.7,1.1,7.56,7.56,0,0,1,.72.87C45.32,17,45.49,17.27,45.65,17.53Z"/><path class="cls-5" d="M88.53,95a24.49,24.49,0,0,0-1.59-3.26l-2-3.25a39.87,39.87,0,0,1-.14,4.24c-.14,1.86-.37,3.7-.62,5.54l-.06.38c.82.45,1.62.92,2.42,1.42a2.32,2.32,0,0,0,1.4-.5,2.69,2.69,0,0,0,.86-1.3A4.81,4.81,0,0,0,88.53,95Z"/><path class="cls-5" d="M70.57,108.08a2.68,2.68,0,0,1-.8-.06,5.7,5.7,0,0,1-.72-.29l-.6-.42a.94.94,0,0,0-.1-.1,34.12,34.12,0,0,1,.43,3.91,17.4,17.4,0,0,1-.23,4.06,3.73,3.73,0,0,1-1,2,3.4,3.4,0,0,1-2.13.81,6.42,6.42,0,0,1-.89-.07c0,.81.06,1.61.15,2.38.11,1.13.45,2.33,1.29,2.5a3.82,3.82,0,0,0,.42.12,3.47,3.47,0,0,1,.46.13,7.79,7.79,0,0,1,.89.33c.58.25,1.08.53,1.43.44a2,2,0,0,0,1.14-1,7.78,7.78,0,0,0,.57-1.85,9.67,9.67,0,0,1-.49-1.9A53.74,53.74,0,0,1,70.57,108.08Z"/><path class="cls-5" d="M76.72,124.4a3.28,3.28,0,0,0,1.21.19.77.77,0,0,0,.27,0,.62.62,0,0,0,.24-.08l.08,0a.93.93,0,0,0,.08-.17,11.88,11.88,0,0,0,.32-2.69c0-.95,0-1.89,0-2.85,0-1.9-.08-3.8-.12-5.71l-.42-10.7a7.56,7.56,0,0,1-.58.69,4.36,4.36,0,0,1-3,1.36c-.22,0-.44,0-.67,0a10.21,10.21,0,0,1-.84,1.77,4.2,4.2,0,0,1-2,1.85,2.51,2.51,0,0,1-.66.14c.06,1.76,0,3.52.11,5.27a35.32,35.32,0,0,0,.49,5.65,5.56,5.56,0,0,0,1,2.39,16.56,16.56,0,0,0,2.14,1.76A10.44,10.44,0,0,0,76.72,124.4Z"/><path class="cls-5" d="M82.47,88.66l-.21,0a16,16,0,0,1-1.63,3.45,10.28,10.28,0,0,1-3.78,3.77,6,6,0,0,1-1.35.46l-.72.06c-.24,0-.45,0-.68,0a6.3,6.3,0,0,1-2.65-.67,4.91,4.91,0,0,1-1.9-1.94c-.32-.53-.59-1.06-.86-1.6a2,2,0,0,1-.81.28,2.17,2.17,0,0,1-.51,0,3,3,0,0,1-.53-.14,1.29,1.29,0,0,1-.74-.94,7.58,7.58,0,0,1-.07-.86,2.45,2.45,0,0,0,0-.39,2.7,2.7,0,0,1-1.37-.38,4.59,4.59,0,0,1-.81-.66l0,.1c-.61-.11-7-.22-11.32-.27,0,.12,0,.23-.09.38a1,1,0,0,1-.11.28.81.81,0,0,1-.2.21,1.17,1.17,0,0,1-.35.2,3.9,3.9,0,0,1-1.22.16,5.38,5.38,0,0,1,.2.65,3.51,3.51,0,0,1,.08.88V92l-.4,0a4.39,4.39,0,0,1-1.68-.16c.56.87,1.05,1.77,1.6,2.58A2.72,2.72,0,0,0,52.56,96a11.05,11.05,0,0,0,3.13-.26,6.13,6.13,0,0,0,1.46-.56,2.2,2.2,0,0,0,1-1.15A11.8,11.8,0,0,1,56.75,92a12.72,12.72,0,0,1-1.16-2.71c.65.74,1.24,1.5,1.84,2.25s1.18,1.49,1.82,2.14a5.28,5.28,0,0,0,1,.87,2.1,2.1,0,0,0,.51.27,2.13,2.13,0,0,0,.58.09A6.26,6.26,0,0,0,64,94.08a4.17,4.17,0,0,1-2.56,1.61,2.7,2.7,0,0,1-.85,0,2.86,2.86,0,0,1-.82-.32,6,6,0,0,1-1.22-1c-.11-.11-.21-.23-.31-.35a2.07,2.07,0,0,1-.73,1.55,4.86,4.86,0,0,1-1.52.93,8.27,8.27,0,0,1-3.46.53l-.35,0c.26.52.51,1,.74,1.54a15.52,15.52,0,0,0,1.08,2A5.21,5.21,0,0,0,55.41,102a5.3,5.3,0,0,0,1.69.68c.25-2.53.55-5.07,1-7.58-.08,2.91-.13,5.82-.26,8.73s-.26,5.81-.43,8.72l-.28,4.35a2.72,2.72,0,0,0,.38,1.8,2.54,2.54,0,0,0,.62.69l.86.66.87.66.44.33.2.15A.34.34,0,0,0,61,121a2.24,2.24,0,0,0,0-.47l0-.54c0-.73,0-1.46-.07-2.18,0-.36,0-.73-.08-1.09l0-.34-.29-.17-.43-.26-.23-.15a2.16,2.16,0,0,1-.27-.25,2.35,2.35,0,0,1-.53-1.12,5.13,5.13,0,0,1-.13-1.08,18.71,18.71,0,0,1,.45-4.06c.26-1.32.59-2.61.94-3.9s.74-2.56,1-3.86a14.73,14.73,0,0,1-.19,2l-.31,2c-.23,1.31-.45,2.62-.64,3.93a22.22,22.22,0,0,0-.26,3.87,5.14,5.14,0,0,0,.12.9,1.45,1.45,0,0,0,.3.66s.07.05.1.08l.19.13.43.25.85.49A8.15,8.15,0,0,0,65.43,117,2.25,2.25,0,0,0,67,116.5a3.31,3.31,0,0,0,.77-1.51,19.71,19.71,0,0,0,.51-3.87c.09-1.3.08-2.61.08-3.92a12,12,0,0,1-1.66-1.93,22.26,22.26,0,0,1-2.36-4.67,18.45,18.45,0,0,1-.73-2.51,6.06,6.06,0,0,1-.1-2.61A7.82,7.82,0,0,0,64.08,98c.29.79.64,1.57,1,2.33a33.83,33.83,0,0,0,2.48,4.4,11.42,11.42,0,0,0,1.55,1.87l.45.36c.15.07.29.16.45.22a2.11,2.11,0,0,0,1,0,3.93,3.93,0,0,0,1.87-1.37A13.92,13.92,0,0,0,74,104.3a5.39,5.39,0,0,1-2.26-.84,6.43,6.43,0,0,1-2.07-2.4,10.89,10.89,0,0,1-1.09-5.93,13.83,13.83,0,0,0,1.8,5.52,6.08,6.08,0,0,0,1.9,2,4.47,4.47,0,0,0,2.55.68,3.36,3.36,0,0,0,2.31-1A8.88,8.88,0,0,0,78.78,100a28.18,28.18,0,0,0,2.07-5.51,17.21,17.21,0,0,1-1.33,5.87,9,9,0,0,1-1,1.85c.24,1.67.44,3.35.64,5,.2,1.91.37,3.81.53,5.72s.25,3.83.31,5.75c0,1,0,1.92,0,2.89a12.73,12.73,0,0,1-.35,3,2,2,0,0,1-.23.47,1.26,1.26,0,0,1-.29.26l-.21.1a1.76,1.76,0,0,1-.44.15,1.59,1.59,0,0,1-.43.06,4.14,4.14,0,0,1-1.6-.26A10.25,10.25,0,0,1,73.74,124l-.11-.09.05.69a2.87,2.87,0,0,0,.23,1.25,2.23,2.23,0,0,0,1.93,1.28c.87.08,1.75.15,2.62.17.43,0,.86,0,1.29,0a2.27,2.27,0,0,0,1.1-.24,3.5,3.5,0,0,0,1.5-1.74,4.73,4.73,0,0,0,.29-2.37l-.48-5.26c-.6-7-1.11-14-1.31-21.1.48,3.3.89,6.61,1.26,9.93.1-.94.2-1.88.32-2.81.21-1.84.46-3.67.72-5.5s.54-3.66.85-5.48c.21-1.4.46-2.8.67-4.21C83.94,88.52,83.2,88.58,82.47,88.66Z"/><path class="cls-5" d="M48.53,74.59c-.13-.75-.25-1.49-.33-2.26s-.08-1.55-.11-2.29a11.51,11.51,0,0,0-.61-4.12,2.28,2.28,0,0,0-.48-.7,1.73,1.73,0,0,0-.31-.22l-.53-.32a9.18,9.18,0,0,1-1.79-1.6,16.88,16.88,0,0,1-2.47-3.9,24.64,24.64,0,0,1-1.58-4.27,21.88,21.88,0,0,1-.76-4.47,9.24,9.24,0,0,1,.57-4.3l-1-.16a4.35,4.35,0,0,1-2.37-1,2.92,2.92,0,0,1-.71-1.16,4.48,4.48,0,0,1-.25-1.24l-.18,1c-.13.91-.25,1.83-.34,2.75C35.15,48.11,35,50,35,51.79c0,.91,0,1.83,0,2.74a14.66,14.66,0,0,0,.29,2.68,21.22,21.22,0,0,0,2,5c.84,1.62,1.77,3.23,2.6,4.91A22.78,22.78,0,0,1,41,69.75c.16.44.27.93.4,1.38s.23.86.36,1.29c.52,1.72,1.23,3.41,1.91,5.12.35.86.69,1.72,1,2.6.16.44.31.88.43,1.34a3,3,0,0,1,.13,1.26c.63,0,1.25,0,1.86,0,.14-.29.26-.58.4-.86a17.49,17.49,0,0,1,1.92-3C49.11,77.43,48.78,76,48.53,74.59Z"/><path class="cls-5" d="M35.52,11.94a6.44,6.44,0,0,1,2,.06,13.36,13.36,0,0,1,1.89.46c.62.2,1.23.41,1.83.66s1.16.48,1.73.76a3.23,3.23,0,0,1,1.2.46,5,5,0,0,1,1,.82,9.25,9.25,0,0,1,.82,1,9.51,9.51,0,0,1,.69,1.05l.09.15,0,.17c-.14,1.1-.32,2.18-.5,3.27-.06.28-.1.52-.17.84a2.54,2.54,0,0,1-.4.91,2.65,2.65,0,0,1-1.35.94,7.9,7.9,0,0,1,.89,1.62,2.8,2.8,0,0,1,.18,1.42,2.25,2.25,0,0,1-.28.72c-.14.22-.23.35-.33.54-.39.74-.72,1.58-1.11,2.38a18.82,18.82,0,0,1-1.31,2.36,23.92,23.92,0,0,1-1.61,2.17l-.39.49a5.21,5.21,0,0,0,.08.57A2.74,2.74,0,0,0,41,37a.85.85,0,0,0,.92.24,6.26,6.26,0,0,0,1.37-.48c.94-.43,1.9-.93,2.83-1.47a18.35,18.35,0,0,0,2.75-1.77A4.53,4.53,0,0,1,47.94,35a10.72,10.72,0,0,1-1.23,1.2A12.07,12.07,0,0,1,43.82,38a5.69,5.69,0,0,1-1.78.52,2.35,2.35,0,0,1-1.12-.16,1.82,1.82,0,0,1-.86-.78,2.85,2.85,0,0,1-.33-1.72l-.61.75a18.18,18.18,0,0,0-1.41,2.09c-.37.65-.75,1.32-1.17,2,.13.56.24,1.11.38,1.62a6.66,6.66,0,0,0,.8,1.86,2.88,2.88,0,0,0,1.57,1.34,4.83,4.83,0,0,0,2.27.08c.76-.14,1.49-.3,2.22-.47s1.44-.39,2.12-.63c1.35-.49,2.76-.93,3.49-2.33l.14,0a2.92,2.92,0,0,1-1,2.35,6.27,6.27,0,0,1-2.15,1.36,8.76,8.76,0,0,1-2.41.54,8.31,8.31,0,0,1-2.44-.07l-1.42-.24a7.09,7.09,0,0,0-.28,2.05A13.38,13.38,0,0,0,40,50.39a26.07,26.07,0,0,0,1.09,4.28,22.42,22.42,0,0,0,4.19,7.57,7.81,7.81,0,0,0,1.56,1.33l.44.24a3.22,3.22,0,0,1,.6.42,3.68,3.68,0,0,1,.8,1.12,8,8,0,0,1,.62,2.36,22.61,22.61,0,0,1,.16,2.3c0,.75,0,1.49.08,2.18s.17,1.44.29,2.17c.22,1.29.45,2.58.72,3.87a32.41,32.41,0,0,1,3.27,0,9,9,0,0,1,1,.11,2.91,2.91,0,0,1,1,.38,5.23,5.23,0,0,1,.83.61l.18.16.15.15s0,0,.06,0a.1.1,0,0,0,.07,0v-.39a8,8,0,0,1,.1-1,6.62,6.62,0,0,0,.15-.89,3.73,3.73,0,0,0-.09-.87,17.77,17.77,0,0,0-1.44-3.42,14.08,14.08,0,0,1,1.87,3.3,4,4,0,0,1,.2,1,6,6,0,0,1,0,1c0,.3,0,.6,0,.9v.35a.75.75,0,0,1,0,.21.88.88,0,0,1-.55.62.9.9,0,0,1-.49,0l-.24,1a2.53,2.53,0,0,1-.16.63,1.66,1.66,0,0,1-.35.41l.29.39c2.72-.08,6.15-.13,7-.14,0-.09,0-.18.06-.28a2.94,2.94,0,0,1,.39-.84A3.52,3.52,0,0,1,66,80.14a6.44,6.44,0,0,0-1.82-.23l0-.13a5.74,5.74,0,0,1,1.94-.34,6,6,0,0,1,2,.35,3.78,3.78,0,0,1,1.81,1.07,3.89,3.89,0,0,1,.79,2.23l1.43-.29c1.16-.23,2.32-.46,3.48-.67.9-.15,1.81-.28,2.72-.38L78,81.58a2.66,2.66,0,0,1-.45-.34,1.32,1.32,0,0,1-.38-.81l0-.89.13-2.05-.49.74-.29.43a2.3,2.3,0,0,1-.54.54,1.84,1.84,0,0,1-.81.29,2.16,2.16,0,0,1-.78-.08,3.5,3.5,0,0,1-1.14-.59c-.62-.47-1.12-1-1.63-1.44l-.38-.31a1.55,1.55,0,0,1-.5-.62,3.06,3.06,0,0,1-.23-1.22A12.06,12.06,0,0,1,70.7,73c.1-.59.22-1.18.34-1.76l-.08.19,0,.09-.07.15a1.32,1.32,0,0,1-.52.5,1.34,1.34,0,0,1-1.4-.1,1.07,1.07,0,0,1-.26-.26l-.14-.17-.24-.33-.48-.65c-.32-.44-.63-.89-.93-1.34S66.29,68.44,66,68a5.58,5.58,0,0,1-.7-1.69,7.59,7.59,0,0,1,0-1.77c0-.57.11-1.11.18-1.64.15-1.08.33-2.13.45-3.17a11.91,11.91,0,0,0,.06-3,3.09,3.09,0,0,0-.18-.65l-.14-.28-.21-.41a8.84,8.84,0,0,1-.58-1.6c-.29-1.06-.49-2.13-.67-3.19s-.32-2.18-.44-3.26a.56.56,0,0,0,0,.08,4.19,4.19,0,0,1-.82.86,8.29,8.29,0,0,1-2,1.1,14.81,14.81,0,0,1-4.35.78,12,12,0,0,1-4.41-.36,6.65,6.65,0,0,1-2-1,3.94,3.94,0,0,1-.8-.78,2,2,0,0,1-.46-1H49a1.9,1.9,0,0,0,.54.84,3.85,3.85,0,0,0,.82.62,6,6,0,0,0,1.92.71,11.1,11.1,0,0,0,4.1-.07c1.39-.22,2.71-.69,4-1a17.21,17.21,0,0,0,1.92-.62,3.36,3.36,0,0,0,1.31-.86c-.08-.79-.16-1.58-.22-2.38-.07-1.07-.14-2.14-.16-3.22a11.86,11.86,0,0,1,.29-3.25A5.48,5.48,0,0,1,65,34.7c2-1.81,2.29-1.61,3.41-1.72h0a13.12,13.12,0,0,1,1.51-.07c.59,0,1.16,0,1.73.1s1.14.14,1.72.26,1.19.2,1.81.36c-.11-.21-.21-.42-.33-.62-.42-.69-.92-1.25-1.47-2a2.76,2.76,0,0,1-.36-.77,1.6,1.6,0,0,1-.06-.55c0-.09,0-.19,0-.29l0-.17a2.18,2.18,0,0,0,.06-.49,9.75,9.75,0,0,1-2.4,1.53,8.15,8.15,0,0,1-1.39.48l-.72.16a5.58,5.58,0,0,1-.83.13,4.38,4.38,0,0,1-3-1.16,5.08,5.08,0,0,1-1-1.17,2,2,0,0,1-.33-1.49l.14,0a1.82,1.82,0,0,0,.54,1.2,4.64,4.64,0,0,0,1.06.87,3.58,3.58,0,0,0,2.44.61,9.74,9.74,0,0,0,1.24-.5A9.14,9.14,0,0,1,70.26,29a11.48,11.48,0,0,1,2.86-.43c0-.08,0-.15,0-.22a7,7,0,0,0-.7-2.23,8.19,8.19,0,0,0-.59-1c-.23-.35-.48-.74-.69-1.11-.44-.74-.84-1.5-1.23-2.25l-2.28-4.56.12-.07c1,1.41,1.85,2.86,2.77,4.28.54.86.84,1.32,1.17,1.8a2.74,2.74,0,0,0,.12-1.82A8.62,8.62,0,0,0,71,19.92c-.59-.9-1.27-1.75-2-2.59-.35-.41-.7-.87-1-1.25A14.68,14.68,0,0,0,66.91,15c-.78-.71-1.62-1.39-2.49-2S62.69,11.62,61.81,11s-1.75-1.31-2.62-2l-.65-.52c-.21-.16-.4-.33-.62-.48-.43-.31-.87-.6-1.33-.88a32.23,32.23,0,0,0-2.82-1.57,36.45,36.45,0,0,0-6-2.35,18,18,0,0,0-3.14-.62,8.33,8.33,0,0,0-3.1.32,13.27,13.27,0,0,0-5.33,3.48,4,4,0,0,0-1,1.18,3.17,3.17,0,0,0-.28,1.53,7.21,7.21,0,0,0,.25,1.59C35.23,11.1,35.38,11.5,35.52,11.94ZM64.11,33.52a6.11,6.11,0,0,0-2,1.41,18.44,18.44,0,0,1-2,1.6c-.65.47-1.28,1-2,1.5a9.55,9.55,0,0,1-2.36,1.27,9.06,9.06,0,0,1-2.67.45,4.07,4.07,0,0,1-2.72-.87,3.93,3.93,0,0,1-1.25-2.46,8.51,8.51,0,0,1,0-2.57,15.77,15.77,0,0,0,.64,2.39,4.33,4.33,0,0,0,.52,1,2.37,2.37,0,0,0,.74.74,3.07,3.07,0,0,0,2,.41A8.47,8.47,0,0,0,55.32,38c1.44-.44,2.66-1.57,4.23-2.38.72-.38,1.43-.8,2.15-1.23A4.87,4.87,0,0,1,64.11,33.52Zm-14.2-8.17,1.31-.15a19.76,19.76,0,0,0,2.52-.43,4.8,4.8,0,0,0,.54-.19l.21-.12s.08-.06.08-.08a2.25,2.25,0,0,1,.15-.48,3.29,3.29,0,0,1,.45-.72,8.4,8.4,0,0,1,2.2-1.76l.08,0L56.91,21a25.84,25.84,0,0,1-2.25-1.45l.08-.11a20.5,20.5,0,0,1,2.59.66,8.3,8.3,0,0,1,1.31.56l.19.14L59,21a1,1,0,0,1,.08.11.4.4,0,0,1,.08.15.74.74,0,0,1,0,.28.84.84,0,0,1-.1.37,1.1,1.1,0,0,1-.21.22l-.05,0-.14.11-.53.38a18.34,18.34,0,0,0-1.92,1.51,1.87,1.87,0,0,0-.31.36c0,.06,0,.07-.07.13a1.23,1.23,0,0,1-.31.59,2,2,0,0,1-.8.49,5.18,5.18,0,0,1-.73.18,18,18,0,0,1-2.7.24l-1,0a5.83,5.83,0,0,1-.16,1.51c0,.23-.07.52,0,.58a.89.89,0,0,0,.53.08,13.13,13.13,0,0,0,1.48-.26c.5-.1,1-.23,1.48-.37a12.45,12.45,0,0,0,2.76-1.11,3.69,3.69,0,0,0,1.75-1.81l.15-.42.42-.07c.93-.15,1.82-.18,2.65-.32a2.74,2.74,0,0,0,2.1-1.17l.13,0A2,2,0,0,1,63,24.19,3.8,3.8,0,0,1,61.7,25a8.35,8.35,0,0,1-1.38.42c-.33.08-.64.13-1,.19a3.58,3.58,0,0,1-.95,1.11,7.07,7.07,0,0,1-1.48.87,14,14,0,0,1-3.09.91,15.06,15.06,0,0,1-3.16.32,1.78,1.78,0,0,1-.44-.06.78.78,0,0,1-.46-.3.77.77,0,0,1-.07-.52,3.89,3.89,0,0,1,.1-.4,5.94,5.94,0,0,0,.35-1.41H50a9.21,9.21,0,0,1-1.4,0,1.29,1.29,0,0,1-.77-.37,1.46,1.46,0,0,1-.33-.76,6.28,6.28,0,0,1,0-1.38,11.31,11.31,0,0,0,.06-2.6l.14,0A10.34,10.34,0,0,1,48,23.68,6.18,6.18,0,0,0,48,24.93a.59.59,0,0,0,.63.55A8.88,8.88,0,0,0,49.91,25.35ZM46,9.47c1.28-.19,2.55,1.2,2.55,1.2s-.81,1.69-2.1,1.88-2.55-1.19-2.55-1.19S44.68,9.67,46,9.47Z"/><path class="cls-5" d="M69.56,91.45a3.32,3.32,0,0,1-.72.67L70,93.51A5.09,5.09,0,0,0,71.81,95a6,6,0,0,0,2.33.4c.21,0,.42,0,.62,0l.55-.06a4.61,4.61,0,0,0,1.07-.4A11.14,11.14,0,0,0,80,91.67a29,29,0,0,0,1.92-2.93c-.93.11-1.86.25-2.77.41a11,11,0,0,1-3.68.3,8.07,8.07,0,0,1-1.73-.6,3.44,3.44,0,0,0-.72-.17l-.85-.05c-1,0-2.09,0-3.14,0L69,89l.82,0,1,.06-.32.8A6.1,6.1,0,0,1,69.56,91.45Z"/><path class="cls-5" d="M71.52,34.42a7.48,7.48,0,0,1-1.8-.42,5.16,5.16,0,0,1-1.44-.85,5.57,5.57,0,0,0-3,1.72A6.81,6.81,0,0,0,64,37.72a11.77,11.77,0,0,0-.14,3.14c.07,1.06.18,2.12.3,3.18.23,2.12.53,4.23.94,6.32.21,1,.44,2.07.74,3.06a8,8,0,0,0,.56,1.4l.17.3.23.43a4.27,4.27,0,0,1,.28.88,12.77,12.77,0,0,1,.09,3.37c-.08,1.09-.22,2.16-.32,3.21a12.12,12.12,0,0,0-.08,3,4.26,4.26,0,0,0,.51,1.27c.24.45.51.9.79,1.35s.56.89.84,1.34l.78,1.17s.07,0,.12,0a.07.07,0,0,0,.06,0l0,0,0-.09.09-.18.72-1.43,1.43-2.88c.48-1,1-1.91,1.37-2.89l.13,0a46.37,46.37,0,0,1-2,6.13.19.19,0,0,1,0,.07c0,1.1-.17,2.19-.21,3.27a11.52,11.52,0,0,0,0,2,2.32,2.32,0,0,0,.24.84.39.39,0,0,0,.18.18l.47.32A17.34,17.34,0,0,0,74,77.66a2.88,2.88,0,0,0,.76.34.6.6,0,0,0,.46,0,.9.9,0,0,0,.24-.17l.37-.39c.26-.25.51-.51.79-.74s.49-.41.75-.61h0a33.32,33.32,0,0,1,.41-3.46,14.87,14.87,0,0,1,1-3.36l.13,0a16.1,16.1,0,0,0-.47,3.38c0,.91,0,3.28,0,3.41,0,1.15.11,2.28.2,3.44,0,.14,0,.29,0,.44s0,.14,0,.25v.11a1,1,0,0,0,.17.24c.25.31.56.65.87,1,.42,0,.85,0,1.29,0,.6,0,1.15,0,1.75,0h.08A6,6,0,0,1,82,79.39a7.4,7.4,0,0,1,.13-2.25,12,12,0,0,1,.47-2.22,7.06,7.06,0,0,1,1-2l.12.07a7.55,7.55,0,0,0-.43,2.09,16.83,16.83,0,0,0,0,2.13,15.25,15.25,0,0,1,.15,2.13,9.52,9.52,0,0,1-.4,2.27c1,0,1.91,0,2.87-.06A52.2,52.2,0,0,1,85.06,76c-.1-.94-.16-1.89-.18-2.84a16.84,16.84,0,0,1,.15-2.9,31.7,31.7,0,0,0,.1-5.44c-.09-1.85-.21-3.71-.39-5.56-.08-.93-.17-1.86-.29-2.78A18.24,18.24,0,0,0,84,53.75a40.76,40.76,0,0,0-2-5.14c-1.58-3.38-5.37-10.49-5.51-10.76a6.65,6.65,0,0,1-.35-.83c-.17-.52-.56-2.64-.75-3a12.7,12.7,0,0,1-2,.4A7.56,7.56,0,0,1,71.52,34.42Z"/></svg>