<svg id="Layer_1" data-name="Layer 1" xmlns="http://www.w3.org/2000/svg" width="128" height="128" viewBox="0 0 128 128"><defs><style>.cls-1{fill:#2d3236;}.cls-2{fill:#9c8a6e;}.cls-3{fill:#145799;}.cls-4{fill:#3f3d35;}.cls-5{fill:#cee9f4;}.cls-6{fill:#73717c;}</style></defs><title>Cassowary color</title><path d="M114,12.89a2.76,2.76,0,0,0-.52-.91,4.13,4.13,0,0,0-.8-.66,9.63,9.63,0,0,0-1.82-.9,9.68,9.68,0,0,0-1.8-.65,14.17,14.17,0,0,0-.85-2.83,8.45,8.45,0,0,0-1.7-2.54,12.33,12.33,0,0,0-1.15-1l-1.19-.91A14.28,14.28,0,0,0,101.55.89,6,6,0,0,0,100,.43l-.42,0a1.21,1.21,0,0,1-.3,0,5.27,5.27,0,0,1-.64-.19A2.68,2.68,0,0,0,97.7,0a2.23,2.23,0,0,0-.51.09c-.14.05-.28.08-.41.14a3.83,3.83,0,0,0-1.42,1,4.9,4.9,0,0,0-1.11,3.08,5.54,5.54,0,0,0,.24,1.56c.11.37.22.74.34,1.1a2.4,2.4,0,0,0-.37.28A9.88,9.88,0,0,0,91.86,12a10,10,0,0,0-.25,2.73,14.56,14.56,0,0,0,.45,2.68c.23.86.51,1.71.82,2.53s.66,1.64,1,2.43L95,24.73c.17.39.34.78.46,1.15a3,3,0,0,1,.11.53,3.88,3.88,0,0,1,0,.59,6.84,6.84,0,0,1-.63,2.39,11.66,11.66,0,0,1-1.22,2.21,6,6,0,0,1-1.55-.16,10.27,10.27,0,0,1-1.26-.34c-.84-.28-1.67-.59-2.51-.91-1.67-.65-3.33-1.32-5-2a23.54,23.54,0,0,0-2.62-.82c-.9-.17-1.78-.28-2.67-.42q-2.67-.37-5.34-.71c-3.57-.42-7.13-.84-10.75-1a32.73,32.73,0,0,0-5.43.3c-1.79.2-3.57.48-5.34.77-3.55.6-7.08,1.29-10.58,2.16-1.75.43-3.49.91-5.22,1.5a12.39,12.39,0,0,0-1.28.48l-.65.26-.63.31a16.66,16.66,0,0,0-2.33,1.52,37.89,37.89,0,0,0-7.37,8,48.48,48.48,0,0,0-5.35,9.47,45,45,0,0,0-3.66,11.5,30.05,30.05,0,0,0-.43,6.07c.09,2,.24,4,.45,6s.47,4,.78,6c.16,1,.34,2,.54,3,.1.49.21,1,.34,1.47.07.25.14.49.22.74a3.2,3.2,0,0,0,.35.77.51.51,0,0,0,.38.22.37.37,0,0,0,.28-.13l.1-.12a3.18,3.18,0,0,0,.17-.4q.12-.37.21-.75c.12-.49.21-1,.31-1.48.18-1,.34-2,.49-3,0-.16,0-.32.07-.49a9.5,9.5,0,0,0,.51,1.38,8.88,8.88,0,0,0,.5.9,5.65,5.65,0,0,0,.64.84l.92,1,.15-1.33c.09-.76.06-1.52.08-2.28l0-2.28c0-.76,0-1.52-.05-2.28,0-.61-.08-1.22-.17-1.83l.16-.08a33,33,0,0,0,3.36-2.15,10.24,10.24,0,0,0,1.37-1.21,11.06,11.06,0,0,1,2.69.26,11.38,11.38,0,0,1,1.51.45,6.08,6.08,0,0,1,.68.31c.2.12.42.28.45.38v0l0,0a2.07,2.07,0,0,0,1,.61,6.25,6.25,0,0,0,1,.23,14.91,14.91,0,0,0,2,.14,16.48,16.48,0,0,0,2-.11c.34,0,.67-.09,1-.16A4.14,4.14,0,0,0,39,72a14.86,14.86,0,0,0,1.52.7c.61.25,1.22.47,1.85.67s1.26.38,1.91.52c.32.06.65.12,1,.15s.41,0,.62,0l.06.76c.06,1,0,2.07,0,3.12s-.08,2.08-.13,3.13c0,.52,0,1-.06,1.58,0,.26,0,.53,0,.8a3.12,3.12,0,0,0,.13.93l0,.1.11.07.15.08c.18,1.14.56,2.72.72,3.84a12,12,0,0,0,.36,1.74,4.27,4.27,0,0,0,1.07,1.52c.13,2.17.17,4.37.26,6.56l.21,6.63.18,6.63c.06,2.18.1,4.37.21,6.55-.12.52-.24,1-.37,1.56l-.24.89a1.64,1.64,0,0,0,.08.64c0,.16.09.31.14.45a31.15,31.15,0,0,0,1.47,3.14l.2.38.11.21a1.71,1.71,0,0,0,.21.26,1.22,1.22,0,0,0,.56.3.85.85,0,0,0,.32,0,1.42,1.42,0,0,0,.27,0H52a5.76,5.76,0,0,1,1,2,0,0,0,0,0,.07,0,3.88,3.88,0,0,0,.37-2.43,1.16,1.16,0,0,0,.29-.25,1.06,1.06,0,0,0,.15-1.06l-.31-.8c-.12-.33-.25-.65-.38-1a10.27,10.27,0,0,0,1.42.94c.59.34,1.2.65,1.81,1s1.25.57,1.89.82c.32.12.64.24,1,.34a4.28,4.28,0,0,0,.54.12,3.84,3.84,0,0,0,.55,0l1,0a.81.81,0,0,0,.47-.16.74.74,0,0,0,.13-.12,4.61,4.61,0,0,1,2.37.91s.07,0,.06,0a2.44,2.44,0,0,0-1.86-2.12.32.32,0,0,0,0-.14.88.88,0,0,0-.62-.77l-.57-.17.15-.14a4.37,4.37,0,0,1,2.25,1.22s.06,0,.06,0A2.19,2.19,0,0,0,62.2,122a.94.94,0,0,0,0-.3v-.15l-.19,0a13.89,13.89,0,0,1-2.66-1c-.43-.22-.84-.47-1.25-.72l-1.06-.63a7.07,7.07,0,0,0-.32-.92c-.14-.35-.28-.69-.43-1-.29-.68-.61-1.35-.92-2l-.23-.5-.11-.24a1.15,1.15,0,0,1-.06-.21,3.09,3.09,0,0,1-.1-.45,4.17,4.17,0,0,1-.09-.51c-.11-.71-.17-1.44-.24-2.17-.26-2.92-.39-5.87-.53-8.81-.07-1.48-.12-3-.24-4.44a23.53,23.53,0,0,1,0-4.36c.06-.73.16-1.46.29-2.17a6.78,6.78,0,0,1,.3-1c.13-.35.24-.7.35-1.06.21-.71.4-1.42.56-2.15a11.35,11.35,0,0,0,.27-1.65,2.12,2.12,0,0,0,.92-.89c.18-.38.32-.74.46-1.11a.14.14,0,0,0,0-.06,15.24,15.24,0,0,0,.42,1.83,4.28,4.28,0,0,0,1,1.52c.13,2.17.17,4.37.26,6.56l.21,6.63.18,6.63c.05,2.19.09,4.37.22,6.55L59,114.53c-.07.26-.13.52-.2.74l0,0,0,.15a.85.85,0,0,0,0,.28l0,.17,0,.13a3.62,3.62,0,0,0,.2.44,22,22,0,0,0,1.85,2.78l.25.32.06.08.1.12.22.19a1.4,1.4,0,0,0,1.08.2l.45-.1a0,0,0,0,1,0,0,5.48,5.48,0,0,1,2.17,2.06,0,0,0,0,0,.07,0,3.82,3.82,0,0,0-.52-2.58.59.59,0,0,0-.09-.81l-.14-.15-.27-.31-.81-.87c.54.35,1.11.6,1.67.9.71.34,1.41.68,2.13,1l2.14,1,.54.23.15.06h0l.09,0h.43l1.17,0H72l.13-.25a1.42,1.42,0,0,1,.08-.18,4.46,4.46,0,0,1,2,.87s.07,0,.06,0a2.59,2.59,0,0,0-1.53-2l0-.06.21-.47-.51-.16-1-.31.24-.22a4.36,4.36,0,0,1,2.37,1s.07,0,.06,0a2.19,2.19,0,0,0-1.85-2c0-.06,0-.11,0-.17v-.15l-.18,0a13.73,13.73,0,0,1-2.67-1c-.42-.22-.83-.47-1.25-.72L67.2,114a9,9,0,0,0-.31-.92c-.14-.35-.29-.69-.44-1-.29-.69-.61-1.36-.92-2l-.23-.5-.11-.25c0-.09,0-.14-.06-.2a3.26,3.26,0,0,1-.1-.46c0-.17-.07-.33-.09-.51-.1-.71-.17-1.44-.23-2.16-.27-2.92-.4-5.87-.54-8.82-.07-1.48-.12-2.94-.24-4.44a23.53,23.53,0,0,1,0-4.36c.07-.73.16-1.46.3-2.17a6.32,6.32,0,0,1,.29-1c.13-.36.5-.74.61-1.09s.26-.91.37-1.36a41,41,0,0,1,2-4.79,36.7,36.7,0,0,1,3-4.55,10.55,10.55,0,0,1,1.91-1.87A3.35,3.35,0,0,1,73,71.2a3,3,0,0,1,.6-.19L75,70.7c1.8-.44,3.57-1,5.33-1.54a54.16,54.16,0,0,0,10.12-4.51,38.77,38.77,0,0,0,8.76-6.86,28.86,28.86,0,0,0,3.45-4.42,26.25,26.25,0,0,0,2.55-5,29.64,29.64,0,0,0,1.95-11,13.17,13.17,0,0,0,0-1.4L107,34.56c-.09-.93-.2-1.85-.32-2.78s-.29-1.84-.5-2.75-.54-1.79-.88-2.67a16,16,0,0,0-1.24-2.53,17.72,17.72,0,0,0-1.67-2.25,15.61,15.61,0,0,1-1.61-2.19,3.4,3.4,0,0,1-.56-2.52,9.31,9.31,0,0,1,1.16-1,11,11,0,0,1,1.33-.94,8.76,8.76,0,0,1,1.42-.68l1.11-.41.56-.06a2.57,2.57,0,0,0,.38-.08c.11,0,.2,0,.31-.06s.45,0,.68,0c.45,0,.92,0,1.39.07.94.08,1.89.21,2.82.38a5.29,5.29,0,0,1,2.51,1l.27.23.06-.32A4,4,0,0,0,114,12.89ZM95.09,4.4a4.56,4.56,0,0,1,1.16-2.34,3.16,3.16,0,0,1,1-.68,3.36,3.36,0,0,1,.5-.16,1.75,1.75,0,0,1,.54.08,6.83,6.83,0,0,0,.81.16l.23,0h.54a4.9,4.9,0,0,1,1.32.29,13.28,13.28,0,0,1,2.56,1.33,19.67,19.67,0,0,1,2.37,1.72,8.06,8.06,0,0,1,1.79,2.26,13.79,13.79,0,0,1,1,2.72,3.68,3.68,0,0,1-2.14.36,1.3,1.3,0,0,1-.52-.27c-.15-.12-.27-.29-.45-.46a5.87,5.87,0,0,0-1.09-.78,16.25,16.25,0,0,0-2.4-1.1,14.38,14.38,0,0,0-2.55-.73c-.47-.07-.87-.1-1.31-.15s-.87-.1-1.32-.13a5.87,5.87,0,0,0-1.38.07,2.65,2.65,0,0,0-.75.25c0-.36,0-.71,0-1.06A6.46,6.46,0,0,1,95.09,4.4ZM92.8,12.2A9,9,0,0,1,95,7.83a2.91,2.91,0,0,1,2.17-.59c.82,0,1.74.12,2.56.18a14.75,14.75,0,0,1,2.49.59,16.51,16.51,0,0,1,1.91.76,2.79,2.79,0,0,0-1.33.17,3.11,3.11,0,0,0-1.48,1.56,6.14,6.14,0,0,1-.47.82,2.22,2.22,0,0,1-.66.59,1.9,1.9,0,0,1-1.72.16,2.86,2.86,0,0,1-.81-.52,1.87,1.87,0,0,0-1-.39,3,3,0,0,0-2.05.49,1.89,1.89,0,0,0-.69.87c-.15.32-.25.65-.37,1a1.82,1.82,0,0,1-.49.76,1.29,1.29,0,0,1-.41.25A9.17,9.17,0,0,1,92.8,12.2ZM20.51,77.59c-.09.75-.18,1.49-.28,2.24,0,.3-.09.59-.14.89l-.36-.43c-.39-.45-.79-.92-1.23-1.38.21-1.44.41-2.89.58-4.34.59-.3,1.17-.61,1.75-.93C20.8,75,20.64,76.27,20.51,77.59Zm41.18,46.52h0Zm-6.91-37q-.28,1.06-.66,2.1c-.12.35-.25.7-.38,1s.09.61,0,1c-.17.73-.3,1.46-.4,2.2a22.22,22.22,0,0,0-.2,4.47c.07,1.46.07,2.94.09,4.41.05,3,.07,5.91.2,8.88,0,.74.09,1.48.18,2.24,0,.19,0,.38.08.58a3.67,3.67,0,0,0,.15.62c0,.11.07.24.11.32l.12.26.24.5,1,2,.47,1a6.34,6.34,0,0,1,.36.92l.09.29.2.09c.41.18.85.42,1.3.64s.9.43,1.37.62a11.74,11.74,0,0,0,2.73.74,1.59,1.59,0,0,1-.29.66,4.58,4.58,0,0,1-.34.43L61,123l-1.93-.56a10.25,10.25,0,0,1-1.87-.7l-.07.06a5.49,5.49,0,0,0,1.7,1.22,16.66,16.66,0,0,0,1.89.83c.31.12.63.23,1,.32l-.09.23-.19.48v0h0a0,0,0,0,1,0,0l-1,0a3.67,3.67,0,0,1-.47,0,3.79,3.79,0,0,1-.45-.07q-.48-.12-1-.27c-.64-.19-1.27-.42-1.9-.67s-1.25-.5-1.87-.78a10.18,10.18,0,0,1-1.62-.9c0-.14-.1-.28-.16-.42l-.12,0c.12.56.24,1.11.37,1.66l.19.83a.54.54,0,0,1-.12.54c-.14.14-.26.14-.59.18l-.85.11a.36.36,0,0,1-.15,0l-.1,0a.41.41,0,0,1-.17-.12,1.33,1.33,0,0,1-.12-.26l-.17-.39c-.44-1-.89-2.08-1.23-3.11,0-.12-.07-.25-.1-.37a.62.62,0,0,1,0-.18l0-.11.07-.22c0-.14.09-.28.13-.42.15-.56.29-1.11.43-1.67v-.17c-.07-2.21-.22-4.42-.35-6.63l-.41-6.62-.42-6.63c-.14-2.21-.29-4.41-.51-6.63v-.07l-.06,0a3.54,3.54,0,0,1-.83-1.42,11.79,11.79,0,0,1-.42-1.68c-.21-1.13-.31-2.28-.53-3.42a11.1,11.1,0,0,0,1.43.43,18,18,0,0,0,2.31.4,16.67,16.67,0,0,0,2.35.11,7.75,7.75,0,0,0,2.09-.35A14.76,14.76,0,0,1,54.78,87.09ZM64.6,84c-.12.34-.25.69-.39,1a7.91,7.91,0,0,0-.36,1.07c-.17.73-.3,1.46-.4,2.2a22.25,22.25,0,0,0-.19,4.47c.06,1.46.07,2.94.09,4.41,0,3,.06,5.91.19,8.88,0,.74.1,1.48.18,2.24,0,.19.05.38.09.58a3.56,3.56,0,0,0,.14.62c0,.11.08.24.12.33l.36.75,1,2,.46,1a7.28,7.28,0,0,1,.37.91l.08.29.21.09c.41.19.85.42,1.29.65s.9.42,1.37.61a11.76,11.76,0,0,0,2.73.75,1.42,1.42,0,0,1-.28.65,4.7,4.7,0,0,1-.35.43l-1.38-.39-1.31-.41a6.36,6.36,0,0,1-1.27-.51l-.06.07a4.35,4.35,0,0,0,1.12.89,12.6,12.6,0,0,0,1.26.66,21.74,21.74,0,0,0,2.16.82l-.3.76-.89,0h-.36l-.1,0-.55-.19-2.19-.8L65.22,118a14.34,14.34,0,0,1-2.07-.93l0,0h0l0,0,0,0c.3.46.61.91.92,1.35l.23.34.11.17.08.12a.1.1,0,0,1,0,.08l-.25,0-1.62.19a.53.53,0,0,1-.47-.13.3.3,0,0,1-.08-.08l-.08-.13-.22-.35A26.67,26.67,0,0,1,60,116c-.05-.11-.1-.22-.13-.31v-.05c.1-.28.18-.53.25-.79.16-.54.28-1.07.41-1.6l0-.07v-.1c-.06-2.21-.21-4.42-.34-6.62l-.41-6.63-.42-6.63c-.15-2.21-.29-4.41-.52-6.63v-.07l0,0A3.61,3.61,0,0,1,58,85a10.59,10.59,0,0,1-.42-1.68c0-.16-.06-.33-.09-.5a22.91,22.91,0,0,1,5.46-.32,5.33,5.33,0,0,1,1.94.4l.08,0C64.84,83.3,64.72,83.65,64.6,84Zm40.7-54.77c.19.88.28,1.79.42,2.68s.18,1.8.23,2.71L106,36q0,.67,0,1.35l0,1.36c0,.45-.08.9-.11,1.35-.06.9-.22,1.79-.36,2.68A30.91,30.91,0,0,1,104,47.92a27.13,27.13,0,0,1-2.37,4.84,28.38,28.38,0,0,1-3.25,4.32A37.09,37.09,0,0,1,90,63.91a54.48,54.48,0,0,1-9.92,4.6c-1.72.6-3.47,1.14-5.25,1.59l-1.33.34a4.39,4.39,0,0,0-.7.23,4.5,4.5,0,0,0-.64.38,10.81,10.81,0,0,0-2,2,34.17,34.17,0,0,0-3,4.67A42.5,42.5,0,0,0,65,82.35c-2.15-.94-5.68-.42-7.53-.17.11-.33.22-.66.32-1,.46-1.46.92-2.91,1.39-4.33a12.25,12.25,0,0,1,.84-2l1.15-1.95L63.48,69c.77-1.32,1.52-2.66,2.23-4a6.08,6.08,0,0,0,.7-4.54l-.11,0a5.27,5.27,0,0,1-.17,2.2,7.64,7.64,0,0,1-.95,2c-.79,1.29-1.65,2.56-2.49,3.82L60.17,72.3c-.41.65-.84,1.27-1.24,2a13.92,13.92,0,0,0-1,2.2c-.53,1.46-.92,2.94-1.37,4.39-.21.73-.43,1.45-.67,2.16-.12.35-.25.7-.39,1a1.15,1.15,0,0,1-.56.49,5.75,5.75,0,0,1-2,.43,13.62,13.62,0,0,1-2.21,0,18.38,18.38,0,0,1-2.21-.32A7.83,7.83,0,0,1,46.65,84c0-.14,0-.33,0-.52s0-.5,0-.76c0-.52,0-1,0-1.56,0-1.05.06-2.1.06-3.15s0-2.11-.11-3.17a8.63,8.63,0,0,0-.74-3.14,13.07,13.07,0,0,1-.87-3,29.11,29.11,0,0,1-.45-3.09,29.58,29.58,0,0,1-.12-3.12,9.9,9.9,0,0,1,.47-3.07l-.11,0a9.5,9.5,0,0,0-.57,3.11,27.78,27.78,0,0,0,0,3.16,30.46,30.46,0,0,0,.35,3.14,14.58,14.58,0,0,0,.81,3.08,6.18,6.18,0,0,1,.51,1.94,11.24,11.24,0,0,1-1.35-.55l-1.74-.82L41,71.61l-1.72-.8L39,70.66l-.3.18a3,3,0,0,1-.71.3,8.1,8.1,0,0,1-.88.23,14.17,14.17,0,0,1-1.85.23,13,13,0,0,1-1.87,0,6.13,6.13,0,0,1-.89-.14,1.8,1.8,0,0,1-.68-.31,1.59,1.59,0,0,0-.72-.58,5.21,5.21,0,0,0-.8-.3A11.46,11.46,0,0,0,28.68,70a11.89,11.89,0,0,0-2.6-.06l0,0a5.58,5.58,0,0,0,.57-.91c.15-.3.3-.6.44-.9a30.67,30.67,0,0,0,1.47-3.68l-.1-.06c-.77,1.08-1.48,2.19-2.19,3.29-.17.27-.35.54-.53.81a5.69,5.69,0,0,1-.53.71,13.56,13.56,0,0,1-1.43,1.16c-1,.77-2.08,1.53-3.16,2.26-.67.44-1.36.87-2.06,1.27l.56-1c.41-.78.8-1.57,1.16-2.37a43.49,43.49,0,0,0,1.92-4.89l-.11,0a45.25,45.25,0,0,1-2.26,4.71c-.42.76-.85,1.51-1.3,2.25a25,25,0,0,1-1.42,2.15l-.89,1.16,1.37-.54c.45-.18.88-.39,1.31-.59-.3,1.74-.6,3.48-.93,5.21-.19,1-.38,2-.6,2.93-.11.48-.22,1-.36,1.44a5.05,5.05,0,0,1-.22.69l0,.09a3,3,0,0,1-.15-.42c-.07-.23-.13-.47-.19-.71-.11-.47-.21-1-.3-1.45-.17-1-.32-2-.45-2.94q-.39-3-.62-5.94c-.16-2-.3-4-.35-6a28.79,28.79,0,0,1,.51-5.85,46.65,46.65,0,0,1,3.69-11.19l0,0h0a40.22,40.22,0,0,1,2.36-4.74q1.34-2.3,2.86-4.49a47.25,47.25,0,0,1,3.27-4.17,29.09,29.09,0,0,1,3.79-3.66A15.91,15.91,0,0,1,33.39,32l.57-.29.6-.25c.4-.17.81-.33,1.23-.47,1.66-.59,3.38-1.08,5.11-1.52,3.45-.89,7-1.61,10.48-2.23,1.76-.31,3.53-.59,5.3-.81A32.48,32.48,0,0,1,62,26.12c3.56.14,7.13.53,10.69.93,1.78.2,3.55.42,5.33.66.88.13,1.78.23,2.64.39a20.79,20.79,0,0,1,2.52.78c1.68.6,3.35,1.26,5,1.89.84.32,1.68.63,2.55.9a8.23,8.23,0,0,0,1.34.35,6.3,6.3,0,0,0,1.23.07A6.35,6.35,0,0,0,93,35.2a4.87,4.87,0,0,0,1,1.63c.21.23.46.42.68.63l.75.52.08-.09-.56-.69a8.06,8.06,0,0,1-.47-.72A5.16,5.16,0,0,1,93.88,35a27.55,27.55,0,0,1-.07-3A9.65,9.65,0,0,0,96.4,27.1a5.51,5.51,0,0,0,.07-.71,3,3,0,0,0-.1-.75,12.53,12.53,0,0,0-.4-1.31l-.45-1.13a12.33,12.33,0,0,1,2.36.21,4.88,4.88,0,0,1,2.45,1.25,5.68,5.68,0,0,1,.47.51l.44.56a3.88,3.88,0,0,0,1.12,1.05,2.79,2.79,0,0,0,2.36.31C104.94,27.8,105.14,28.52,105.3,29.24Zm-2.84-14.73a11.44,11.44,0,0,0-2.29,2.32l0,0a2.51,2.51,0,0,0-.09,1.41,5.69,5.69,0,0,0,.47,1.33A15.89,15.89,0,0,0,102,21.9a18.06,18.06,0,0,1,1.5,2.26,14.63,14.63,0,0,1,1.07,2.47,1.87,1.87,0,0,0,.07.22,2.88,2.88,0,0,1-2-.57,4.24,4.24,0,0,1-.52-.43,3.63,3.63,0,0,1-.47-.49l-.5-.55c-.18-.18-.36-.35-.55-.51a5.38,5.38,0,0,0-2.72-1.19,12.54,12.54,0,0,0-2.45,0L95,21.9c-.34-.8-.67-1.59-1-2.4s-.6-1.59-.83-2.41a12.44,12.44,0,0,1-.53-2.43,1.56,1.56,0,0,0,.58-.18,2.09,2.09,0,0,0,.72-.82l.43-.92a2,2,0,0,1,.54-.69,2.59,2.59,0,0,1,1.71-.7,1.33,1.33,0,0,1,.86.35,3.79,3.79,0,0,0,.8.68,2.12,2.12,0,0,0,2.15,0,3,3,0,0,0,.88-.69,4.9,4.9,0,0,0,.53-.92c.08-.16.16-.32.24-.46a.8.8,0,1,0,.79-.86l-.08,0a1,1,0,0,1,.17-.13A3.42,3.42,0,0,1,104.58,9h0a5.81,5.81,0,0,1,1.06.68l.22.22a1.43,1.43,0,0,0,.26.23,1.27,1.27,0,0,0,.29.18c-.5.28-1.62,1-2,1.22l-2.4,1a2,2,0,0,0,.17.33l.16.3.35.58,0,.06h.1l.54,0A6.17,6.17,0,0,0,102.46,14.51Zm9-.95c-.94-.2-1.88-.38-2.85-.5a11.67,11.67,0,0,0-1.46-.1,6.66,6.66,0,0,0-.76.06l-.39.09-.32.08a17.29,17.29,0,0,1-2.72.27l-.38-.43-.34-.48a9.35,9.35,0,0,0,2.33-.68l.22-.14a40.09,40.09,0,0,1,4.66.78,6.12,6.12,0,0,1,4,1.76A6.53,6.53,0,0,0,111.49,13.56Zm.48-.88a8.82,8.82,0,0,0-2.39-.64,29.14,29.14,0,0,0-4.64-.38,6,6,0,0,0,.73-.51,4.13,4.13,0,0,0,.83-.84,1.52,1.52,0,0,0,.28.09,4.2,4.2,0,0,0,2.28-.45,10.39,10.39,0,0,1,1.78.61,9.46,9.46,0,0,1,1.74.95,4.07,4.07,0,0,1,.72.65,2.73,2.73,0,0,1,.43.83,3.67,3.67,0,0,1,.18,1.5A4.69,4.69,0,0,0,112,12.68Z"/><path class="cls-1" d="M20.83,73.64c0,1.32-.19,2.63-.32,4-.09.75-.18,1.49-.28,2.24,0,.3-.09.59-.14.89l-.36-.43c-.39-.45-.79-.92-1.23-1.38.21-1.44.41-2.89.58-4.34C19.67,74.27,20.25,74,20.83,73.64Z"/><path class="cls-2" d="M60.73,123.82c.31.12.63.23,1,.32l-.09.23-.19.48v0h0a0,0,0,0,1,0,0l-1,0a3.67,3.67,0,0,1-.47,0,3.79,3.79,0,0,1-.45-.07q-.48-.12-1-.27c-.64-.19-1.27-.42-1.9-.67s-1.25-.5-1.87-.78a10.18,10.18,0,0,1-1.62-.9c0-.14-.1-.28-.16-.42l-.12,0c.12.56.24,1.11.37,1.66l.19.83a.54.54,0,0,1-.12.54c-.14.14-.26.14-.59.18l-.85.11a.36.36,0,0,1-.15,0l-.1,0a.41.41,0,0,1-.17-.12,1.33,1.33,0,0,1-.12-.26l-.17-.39c-.44-1-.89-2.08-1.23-3.11,0-.12-.07-.25-.1-.37a.62.62,0,0,1,0-.18l0-.11.07-.22c0-.14.09-.28.13-.42.15-.56.29-1.11.43-1.67v-.17c-.07-2.21-.22-4.42-.35-6.63l-.41-6.62-.42-6.63c-.14-2.21-.29-4.41-.51-6.63v-.07l-.06,0a3.54,3.54,0,0,1-.83-1.42,11.79,11.79,0,0,1-.42-1.68c-.21-1.13-.31-2.28-.53-3.42a11.1,11.1,0,0,0,1.43.43,18,18,0,0,0,2.31.4,16.67,16.67,0,0,0,2.35.11,7.75,7.75,0,0,0,2.09-.35,14.76,14.76,0,0,1-.31,1.5q-.28,1.06-.66,2.1c-.12.35-.25.7-.38,1s.09.61,0,1c-.17.73-.3,1.46-.4,2.2a22.22,22.22,0,0,0-.2,4.47c.07,1.46.07,2.94.09,4.41.05,3,.07,5.91.2,8.88,0,.74.09,1.48.18,2.24,0,.19,0,.38.08.58a3.67,3.67,0,0,0,.15.62c0,.11.07.24.11.32l.12.26.24.5,1,2,.47,1a6.34,6.34,0,0,1,.36.92l.09.29.2.09c.41.18.85.42,1.3.64s.9.43,1.37.62a11.74,11.74,0,0,0,2.73.74,1.59,1.59,0,0,1-.29.66,4.58,4.58,0,0,1-.34.43L61,123l-1.93-.56a10.25,10.25,0,0,1-1.87-.7l-.07.06a5.49,5.49,0,0,0,1.7,1.22A16.66,16.66,0,0,0,60.73,123.82Z"/><path class="cls-2" d="M69.64,118.25a21.74,21.74,0,0,0,2.16.82l-.3.76-.89,0h-.36l-.1,0-.55-.19-2.19-.8L65.22,118a14.34,14.34,0,0,1-2.07-.93l0,0h0l0,0,0,0c.3.46.61.91.92,1.35l.23.34.11.17.08.12a.1.1,0,0,1,0,.08l-.25,0-1.62.19a.53.53,0,0,1-.47-.13.3.3,0,0,1-.08-.08l-.08-.13-.22-.35A26.67,26.67,0,0,1,60,116c-.05-.11-.1-.22-.13-.31v-.05c.1-.28.18-.53.25-.79.16-.54.28-1.07.41-1.6l0-.07v-.1c-.06-2.21-.21-4.42-.34-6.62l-.41-6.63-.42-6.63c-.15-2.21-.29-4.41-.52-6.63v-.07l0,0A3.61,3.61,0,0,1,58,85a10.59,10.59,0,0,1-.42-1.68c0-.16-.06-.33-.09-.5a22.91,22.91,0,0,1,5.46-.32,5.33,5.33,0,0,1,1.94.4l.08,0c-.11.36-.23.71-.35,1.07s-.25.69-.39,1a7.91,7.91,0,0,0-.36,1.07c-.17.73-.3,1.46-.4,2.2a22.25,22.25,0,0,0-.19,4.47c.06,1.46.07,2.94.09,4.41,0,3,.06,5.91.19,8.88,0,.74.1,1.48.18,2.24,0,.19.05.38.09.58a3.56,3.56,0,0,0,.14.62c0,.11.08.24.12.33l.36.75,1,2,.46,1a7.28,7.28,0,0,1,.37.91l.08.29.21.09c.41.19.85.42,1.29.65s.9.42,1.37.61a11.76,11.76,0,0,0,2.73.75,1.42,1.42,0,0,1-.28.65,4.7,4.7,0,0,1-.35.43l-1.38-.39-1.31-.41a6.36,6.36,0,0,1-1.27-.51l-.06.07a4.35,4.35,0,0,0,1.12.89A12.6,12.6,0,0,0,69.64,118.25Z"/><path class="cls-1" d="M106,36q0,.67,0,1.35l0,1.36c0,.45-.08.9-.11,1.35-.06.9-.22,1.79-.36,2.68A30.91,30.91,0,0,1,104,47.92a27.13,27.13,0,0,1-2.37,4.84,28.38,28.38,0,0,1-3.25,4.32A37.09,37.09,0,0,1,90,63.91a54.48,54.48,0,0,1-9.92,4.6c-1.72.6-3.47,1.14-5.25,1.59l-1.33.34a4.39,4.39,0,0,0-.7.23,4.5,4.5,0,0,0-.64.38,10.81,10.81,0,0,0-2,2,34.17,34.17,0,0,0-3,4.67A42.5,42.5,0,0,0,65,82.35c-2.15-.94-5.68-.42-7.53-.17.11-.33.22-.66.32-1,.46-1.46.92-2.91,1.39-4.33a12.25,12.25,0,0,1,.84-2l1.15-1.95L63.48,69c.77-1.32,1.52-2.66,2.23-4a6.08,6.08,0,0,0,.7-4.54l-.11,0a5.27,5.27,0,0,1-.17,2.2,7.64,7.64,0,0,1-.95,2c-.79,1.29-1.65,2.56-2.49,3.82L60.17,72.3c-.41.65-.84,1.27-1.24,2a13.92,13.92,0,0,0-1,2.2c-.53,1.46-.92,2.94-1.37,4.39-.21.73-.43,1.45-.67,2.16-.12.35-.25.7-.39,1a1.15,1.15,0,0,1-.56.49,5.75,5.75,0,0,1-2,.43,13.62,13.62,0,0,1-2.21,0,18.38,18.38,0,0,1-2.21-.32A7.83,7.83,0,0,1,46.65,84c0-.14,0-.33,0-.52s0-.5,0-.76c0-.52,0-1,0-1.56,0-1.05.06-2.1.06-3.15s0-2.11-.11-3.17a8.63,8.63,0,0,0-.74-3.14,13.07,13.07,0,0,1-.87-3,29.11,29.11,0,0,1-.45-3.09,29.58,29.58,0,0,1-.12-3.12,9.9,9.9,0,0,1,.47-3.07l-.11,0a9.5,9.5,0,0,0-.57,3.11,27.78,27.78,0,0,0,0,3.16,30.46,30.46,0,0,0,.35,3.14,14.58,14.58,0,0,0,.81,3.08,6.18,6.18,0,0,1,.51,1.94,11.24,11.24,0,0,1-1.35-.55l-1.74-.82L41,71.61l-1.72-.8L39,70.66l-.3.18a3,3,0,0,1-.71.3,8.1,8.1,0,0,1-.88.23,14.17,14.17,0,0,1-1.85.23,13,13,0,0,1-1.87,0,6.13,6.13,0,0,1-.89-.14,1.8,1.8,0,0,1-.68-.31,1.59,1.59,0,0,0-.72-.58,5.21,5.21,0,0,0-.8-.3A11.46,11.46,0,0,0,28.68,70a11.89,11.89,0,0,0-2.6-.06l0,0a5.58,5.58,0,0,0,.57-.91c.15-.3.3-.6.44-.9a30.67,30.67,0,0,0,1.47-3.68l-.1-.06c-.77,1.08-1.48,2.19-2.19,3.29-.17.27-.35.54-.53.81a5.69,5.69,0,0,1-.53.71,13.56,13.56,0,0,1-1.43,1.16c-1,.77-2.08,1.53-3.16,2.26-.67.44-1.36.87-2.06,1.27l.56-1c.41-.78.8-1.57,1.16-2.37a43.49,43.49,0,0,0,1.92-4.89l-.11,0a45.25,45.25,0,0,1-2.26,4.71c-.42.76-.85,1.51-1.3,2.25a25,25,0,0,1-1.42,2.15l-.89,1.16,1.37-.54c.45-.18.88-.39,1.31-.59-.3,1.74-.6,3.48-.93,5.21-.19,1-.38,2-.6,2.93-.11.48-.22,1-.36,1.44a5.05,5.05,0,0,1-.22.69l0,.09a3,3,0,0,1-.15-.42c-.07-.23-.13-.47-.19-.71-.11-.47-.21-1-.3-1.45-.17-1-.32-2-.45-2.94q-.39-3-.62-5.94c-.16-2-.3-4-.35-6a28.79,28.79,0,0,1,.51-5.85,46.65,46.65,0,0,1,3.69-11.19l0,0h0a40.22,40.22,0,0,1,2.36-4.74q1.34-2.3,2.86-4.49a47.25,47.25,0,0,1,3.27-4.17,29.09,29.09,0,0,1,3.79-3.66A15.91,15.91,0,0,1,33.39,32l.57-.29.6-.25c.4-.17.81-.33,1.23-.47,1.66-.59,3.38-1.08,5.11-1.52,3.45-.89,7-1.61,10.48-2.23,1.76-.31,3.53-.59,5.3-.81A32.48,32.48,0,0,1,62,26.12c3.56.14,7.13.53,10.69.93,1.78.2,3.55.42,5.33.66.88.13,1.78.23,2.64.39a20.79,20.79,0,0,1,2.52.78c1.68.6,3.35,1.26,5,1.89.84.32,1.68.63,2.55.9a8.23,8.23,0,0,0,1.34.35,6.3,6.3,0,0,0,1.23.07A6.35,6.35,0,0,0,93,35.2a4.87,4.87,0,0,0,1,1.63c.21.23.46.42.68.63l.75.52.08-.09-.56-.69a8.06,8.06,0,0,1-.47-.72A5.16,5.16,0,0,1,93.88,35a27.55,27.55,0,0,1-.07-3A9.65,9.65,0,0,0,96.4,27.1a5.51,5.51,0,0,0,.07-.71,3,3,0,0,0-.1-.75,12.53,12.53,0,0,0-.4-1.31l-.45-1.13a12.33,12.33,0,0,1,2.36.21,4.88,4.88,0,0,1,2.45,1.25,5.68,5.68,0,0,1,.47.51l.44.56a3.88,3.88,0,0,0,1.12,1.05,2.79,2.79,0,0,0,2.36.31c.22.71.42,1.43.58,2.15.19.88.28,1.79.42,2.68s.18,1.8.23,2.71Z"/><path class="cls-3" d="M104.58,26.63a1.87,1.87,0,0,0,.07.22,2.88,2.88,0,0,1-2-.57,4.24,4.24,0,0,1-.52-.43,3.63,3.63,0,0,1-.47-.49l-.5-.55c-.18-.18-.36-.35-.55-.51a5.38,5.38,0,0,0-2.72-1.19,12.54,12.54,0,0,0-2.45,0L95,21.9c-.34-.8-.67-1.59-1-2.4s-.6-1.59-.83-2.41a12.44,12.44,0,0,1-.53-2.43,1.56,1.56,0,0,0,.58-.18,2.09,2.09,0,0,0,.72-.82l.43-.92a2,2,0,0,1,.54-.69,2.59,2.59,0,0,1,1.71-.7,1.33,1.33,0,0,1,.86.35,3.79,3.79,0,0,0,.8.68,2.12,2.12,0,0,0,2.15,0,3,3,0,0,0,.88-.69,4.9,4.9,0,0,0,.53-.92c.08-.16.16-.32.24-.46a.8.8,0,1,0,.79-.86l-.08,0a1,1,0,0,1,.17-.13A3.42,3.42,0,0,1,104.58,9h0a5.81,5.81,0,0,1,1.06.68l.22.22a1.43,1.43,0,0,0,.26.23,1.27,1.27,0,0,0,.29.18c-.5.28-1.62,1-2,1.22l-2.4,1a2,2,0,0,0,.17.33l.16.3.35.58,0,.06h.1l.54,0a6.17,6.17,0,0,0-1,.65,11.44,11.44,0,0,0-2.29,2.32l0,0a2.51,2.51,0,0,0-.09,1.41,5.69,5.69,0,0,0,.47,1.33A15.89,15.89,0,0,0,102,21.9a18.06,18.06,0,0,1,1.5,2.26A14.63,14.63,0,0,1,104.58,26.63Z"/><path class="cls-4" d="M113.47,14.27a6.53,6.53,0,0,0-2-.71c-.94-.2-1.88-.38-2.85-.5a11.67,11.67,0,0,0-1.46-.1,6.66,6.66,0,0,0-.76.06l-.39.09-.32.08a17.29,17.29,0,0,1-2.72.27l-.38-.43-.34-.48a9.35,9.35,0,0,0,2.33-.68l.22-.14a40.09,40.09,0,0,1,4.66.78A6.12,6.12,0,0,1,113.47,14.27Z"/><path class="cls-4" d="M113.91,14.49A4.69,4.69,0,0,0,112,12.68a8.82,8.82,0,0,0-2.39-.64,29.14,29.14,0,0,0-4.64-.38,6,6,0,0,0,.73-.51,4.13,4.13,0,0,0,.83-.84,1.52,1.52,0,0,0,.28.09,4.2,4.2,0,0,0,2.28-.45,10.39,10.39,0,0,1,1.78.61,9.46,9.46,0,0,1,1.74.95,4.07,4.07,0,0,1,.72.65,2.73,2.73,0,0,1,.43.83A3.67,3.67,0,0,1,113.91,14.49Z"/><path class="cls-5" d="M104.13,8.77a2.79,2.79,0,0,0-1.33.17,3.11,3.11,0,0,0-1.48,1.56,6.14,6.14,0,0,1-.47.82,2.22,2.22,0,0,1-.66.59,1.9,1.9,0,0,1-1.72.16,2.86,2.86,0,0,1-.81-.52,1.87,1.87,0,0,0-1-.39,3,3,0,0,0-2.05.49,1.89,1.89,0,0,0-.69.87c-.15.32-.25.65-.37,1a1.82,1.82,0,0,1-.49.76,1.29,1.29,0,0,1-.41.25,9.17,9.17,0,0,1,.13-2.28A9,9,0,0,1,95,7.83a2.91,2.91,0,0,1,2.17-.59c.82,0,1.74.12,2.56.18a14.75,14.75,0,0,1,2.49.59A16.51,16.51,0,0,1,104.13,8.77Z"/><path class="cls-6" d="M109,9.81a3.68,3.68,0,0,1-2.14.36,1.3,1.3,0,0,1-.52-.27c-.15-.12-.27-.29-.45-.46a5.87,5.87,0,0,0-1.09-.78,16.25,16.25,0,0,0-2.4-1.1,14.38,14.38,0,0,0-2.55-.73c-.47-.07-.87-.1-1.31-.15s-.87-.1-1.32-.13a5.87,5.87,0,0,0-1.38.07,2.65,2.65,0,0,0-.75.25c0-.36,0-.71,0-1.06a6.46,6.46,0,0,1,.06-1.41,4.56,4.56,0,0,1,1.16-2.34,3.16,3.16,0,0,1,1-.68,3.36,3.36,0,0,1,.5-.16,1.75,1.75,0,0,1,.54.08,6.83,6.83,0,0,0,.81.16l.23,0h.54a4.9,4.9,0,0,1,1.32.29,13.28,13.28,0,0,1,2.56,1.33,19.67,19.67,0,0,1,2.37,1.72,8.06,8.06,0,0,1,1.79,2.26A13.79,13.79,0,0,1,109,9.81Z"/></svg>