<svg id="Layer_1" data-name="Layer 1" xmlns="http://www.w3.org/2000/svg" width="128" height="128" viewBox="0 0 128 128"><defs><style>.cls-1{fill:#7f4738;}.cls-2{fill:#6d5c4b;}.cls-3{fill:#e5e1df;}.cls-4{fill:#6d3c29;}.cls-5{fill:#8e513c;}.cls-6{fill:#543126;}.cls-7{fill:#42251d;}.cls-8{fill:#916a5a;}</style></defs><title>Tree kangaroo color</title><path class="cls-1" d="M106.41,119.25a1.35,1.35,0,0,1-.7,1c-.48.3-1,.59-1.46.87A41.76,41.76,0,0,1,91.67,126a42.82,42.82,0,0,1-13.46.52,51.86,51.86,0,0,1-6.65-1.23,51.24,51.24,0,0,1-6.43-2.07,44.15,44.15,0,0,1-6-3,46.89,46.89,0,0,1-5.51-3.9,47.85,47.85,0,0,1-4.89-4.66,55.19,55.19,0,0,1-4.23-5.3,71,71,0,0,1-6.6-11.88,99.78,99.78,0,0,1-4.59-12.86c-.63-2.19-2.42-10.68-3-12.66,1.4-.36,2.58-.64,4-1l1.51-.3c.43,2,2.39,10.48,3,12.7a86.83,86.83,0,0,0,4.31,13,60.73,60.73,0,0,0,6.71,12,46.89,46.89,0,0,0,9.59,9.85,44.12,44.12,0,0,0,5.82,3.71,45.47,45.47,0,0,0,6.33,2.74,34.15,34.15,0,0,0,13.69,1.55,52,52,0,0,0,13.43-3.07c1.09-.39,2.16-.81,3.22-1.25l1.59-.66.79-.35a2.26,2.26,0,0,1,.67-.22,1.37,1.37,0,0,1,1.52,1.57Z"/><path class="cls-2" d="M126.89,91l-2-.79c-.89-.37-1.81-.74-2.63-1.15l-.14-.08h0s0,0,0,0,0,0,0,0l0,0,0-.06-.11-.08,0,0-.1-.06-.17-.09-.67-.33-17.75-4.51-2.66-1.22C97,81,93.48,79.4,90,77.59c-.87-.45-1.71-.91-2.55-1.42A14.2,14.2,0,0,0,84.79,75a34.2,34.2,0,0,0-5.72-1.35c-1-.15-1.94-.27-2.92-.36-.49,0-1-.08-1.48-.1-.24,0-.49,0-.74,0s-.48,0-.7,0A2.21,2.21,0,0,1,72,72.7,10.07,10.07,0,0,1,71,71.76c-.71-.67-1.45-1.33-2.22-2-.19-.16-.39-.3-.58-.45l-.3-.23-.32-.22a7.82,7.82,0,0,0-1.39-.69,15.75,15.75,0,0,0-2.89-.81,50.91,50.91,0,0,0-5.86-.71c-2-.15-3.91-.23-5.85-.34a42.45,42.45,0,0,1-5.71-.62,15.13,15.13,0,0,0-3-.25h-.75l-.75,0-.74,0-.74.08c-2,.21-3.91.56-5.83,1-3.76.79-23.87,7-27.52,8.21a7,7,0,0,1-2.64-2.31A13.46,13.46,0,0,1,2.13,69,24.71,24.71,0,0,1,1.25,65,29.61,29.61,0,0,1,1,61.29C2.3,60.7,20.09,55,21.46,54.4c.73-.3,1.48-.59,2.21-.86s1.51-.44,2.27-.66c1.52-.44,3-.88,4.58-1.29s2.76-.74,4.14-1.06l-.12.79,0,.21.11.09c.7.61,1.37,1.23,2,1.88S38,55,38.32,55.41a1.17,1.17,0,0,0,.4.3s3.51,1.29,5.1,2,5.34,2.78,5.34,2.78a.44.44,0,0,0,.51-.1l1-1.09c.31.32.7.78,1,1.09a.12.12,0,0,0,.21-.06,2.22,2.22,0,0,0-.46-1.8l.71-.77a.82.82,0,0,0,.21-.66.85.85,0,0,0-.13-.31.12.12,0,0,0,0-.05A13.32,13.32,0,0,0,53.36,56a12.53,12.53,0,0,1,1.23,1.33.12.12,0,0,0,.21-.06,2.22,2.22,0,0,0-.54-1.89l.2-.16c.3-.27.38-.58.3-.71A8.54,8.54,0,0,0,53,53a2.78,2.78,0,0,0,.38-.54,10.89,10.89,0,0,1,1.73.6.12.12,0,0,0,.16-.15,2.16,2.16,0,0,0-.8-1.12l3.6.77a43.82,43.82,0,0,0,4.38.61s0,0,0,0c.07.25.07.39.18.78a3,3,0,0,0,.42.79,11.11,11.11,0,0,0,2.15,2.13L66,59.06a.35.35,0,0,0,.39.23l.63-.12A10.32,10.32,0,0,1,67.2,61a.12.12,0,0,0,.2.07A2.31,2.31,0,0,0,68.06,59l.54-.1a.35.35,0,0,0,.29-.35l0-.85,1.19,1.82a.36.36,0,0,0,.49.1l.52-.36a9.49,9.49,0,0,1,1.09,1.58.12.12,0,0,0,.21,0A2.28,2.28,0,0,0,72,58.6l.25-.17a.35.35,0,0,0,.1-.47l-.63-1.05L73.76,58a.24.24,0,0,0,.33-.13l.22-.71c.37.25.82.62,1.14.87a.12.12,0,0,0,.19-.1,2.32,2.32,0,0,0-1-1.84l.08-.24a6.24,6.24,0,0,1,1.13.2l.06.14a3.11,3.11,0,0,0,.54.68c.18.2.38.39.57.58.62.58,1.78,1.59,2.27,2a.59.59,0,0,0,.32.13,9.33,9.33,0,0,1,.49,1.88.12.12,0,0,0,.21.05,2.32,2.32,0,0,0,.39-2.17.31.31,0,0,1,.19.11l1,1.3a.67.67,0,0,0,.5.26h.37l0,0c.21.06.43,1.28.57,2a.11.11,0,0,0,.2,0,2.25,2.25,0,0,0,.44-2,.42.42,0,0,0,.35-.55l-.4-1.18,1.66,1.12a.49.49,0,0,0,.65-.09l.22-.25a14.15,14.15,0,0,1,1.17,1.74.13.13,0,0,0,.24,0,2.39,2.39,0,0,0,0-1.58c1.45,1,3,1.9,4.46,2.8,2,1.18,4,2.26,6.06,3.33s20.52,6,22.59,7,3.94,1.89,5.93,2.79l0,7.65C126.85,86.21,126.87,88.62,126.89,91Z"/><path class="cls-3" d="M87,58.79a6,6,0,0,0-.56.3,4.1,4.1,0,0,0-.5.35l-.22.2L83.84,58.5a.47.47,0,0,0-.6.09l0,0a.47.47,0,0,0-.08.48l.36.94a.37.37,0,0,1-.33.5h-.69a.33.33,0,0,1-.29-.13L81,59a.27.27,0,0,0-.29-.08l-.83.27a.58.58,0,0,1-.55-.11c-.7-.63-2.42-2.32-2.6-2.52a3,3,0,0,1-.45-.6c0-.06-.11-.27-.11-.27a1,1,0,0,1,.11-.77.35.35,0,0,0,0-.41,34.13,34.13,0,0,1-2.16-2.83l-1-1.59a11.7,11.7,0,0,1-.75-1.64c-.46-1.13-.79-2.32-1.27-3.46-.37-.87-.75-1.75-1.19-2.6a9,9,0,0,1,.51-1.17c.59-1.13,1.31-2.24,2-3.41A13.86,13.86,0,0,0,73.35,36a5.17,5.17,0,0,0,.18-.51c.06-.14.09-.28.16-.42a2.14,2.14,0,0,1,.1-.22c.16.33.33.67.5,1A11.9,11.9,0,0,1,75,37.58a1.8,1.8,0,0,1,.06.85c0,.07,0,.12-.07.2l-.09.23c0,.16-.1.32-.14.49a5,5,0,0,0-.08,2,5,5,0,0,0,.26,1c.07.17.12.29.17.44s.09.29.14.44c.17.6.31,1.23.48,1.86a15,15,0,0,0,.6,1.87,4.84,4.84,0,0,0,1.16,1.73l.18.17.22-.09a2.3,2.3,0,0,0,.88-.73,4.85,4.85,0,0,0,.53-.89,6.14,6.14,0,0,0,.25-.59c.12.91.24,1.83.39,2.75s.23,1.73.31,2.61c.06.65.22,1.85.3,2.44a1.46,1.46,0,0,0,.26.66,7.32,7.32,0,0,0,.49.63,3.09,3.09,0,0,0,1,.69,6.43,6.43,0,0,0,1,.36,6.76,6.76,0,0,1,.93.31,9,9,0,0,1,1.73.92A5.19,5.19,0,0,1,87,58.79Z"/><path class="cls-3" d="M73.87,55.79l-.25,1.05a.24.24,0,0,1-.33.15l-2.73-1.26a.1.1,0,0,0-.13.14l1.31,2a.35.35,0,0,1-.19.53,1.42,1.42,0,0,0-.79.54.35.35,0,0,1-.59,0c-.35-.53-1.18-1.81-1.54-2.38a.11.11,0,0,0-.19.06l0,1.48a.35.35,0,0,1-.31.34l-1.29.16a.36.36,0,0,1-.38-.26L66,56.59a.58.58,0,0,0-.15-.25,16.6,16.6,0,0,1-1.9-2.13,2.7,2.7,0,0,1-.26-.55c0-.1-.07-.46-.13-.69-.1-.51-.22-1-.36-1.49-.51-1.95-1.12-3.87-1.64-5.79a13,13,0,0,1-.33-1.41c-.08-.48-.13-1-.19-1.47-.11-1-.2-2-.29-3l-.5-5.58c0-.14,0-.29,0-.43a19.63,19.63,0,0,0,.5-2.08c.55-.54,1.08-1.1,1.62-1.64a12.38,12.38,0,0,1,1-.92,3.36,3.36,0,0,1,.54-.39.93.93,0,0,1,.53-.18c.12,0,.2.1.27.29a1.94,1.94,0,0,1,.08.6,7.52,7.52,0,0,1-.15,1.32c-.17.9-.4,1.78-.56,2.72A5.41,5.41,0,0,0,64,35a1.48,1.48,0,0,0,.36.86,1.07,1.07,0,0,0,.4.26.44.44,0,0,1,.18.09,2.87,2.87,0,0,1,.54,1c.14.41.27.85.39,1.28.26.88.5,1.78.84,2.66a6.2,6.2,0,0,0,.67,1.27,2,2,0,0,0,.57.5.83.83,0,0,0,.49.08c-.08.55-.16,1.07-.23,1.62a18.14,18.14,0,0,0-.12,4.11c.08.72.23,1.36.36,2s.26,1.3.42,2l.06.26.23.11c1.54.8,3.07,1.61,4.62,2.39A.24.24,0,0,1,73.87,55.79Z"/><path class="cls-3" d="M50.22,55.2c-.14.14.92,1.32,1.21,1.7a.33.33,0,0,1,0,.45l-1.8,1.52a.44.44,0,0,1-.53,0,16.72,16.72,0,0,0-1.89-1.15,26.43,26.43,0,0,0-2.73-1.18c-.93-.33-1.86-.64-2.82-.9s-1.46-.59-2.29-.74a1.17,1.17,0,0,1-.59-.29c-.57-.52-1.12-1-1.65-1.6s-1.33-1-1.86-1.71c.28-.8.6-1.6.9-2.39s.63-1.64,1-2.44.63-1.29,1-1.94c.55,0,1.1-.1,1.65-.16a4.91,4.91,0,0,0,2.1-.88,12.53,12.53,0,0,0,1.71-1.44c.52-.53,1-1.07,1.5-1.6.12-.13.24-.26.36-.37a1.76,1.76,0,0,0,.4-.55,4.57,4.57,0,0,0,.38-1.11,18.79,18.79,0,0,0,.38-2.18l.27-2.16a8.87,8.87,0,0,1,.39-1.84c0,.18.11.35.17.51a13.87,13.87,0,0,1-.06,3.47,22,22,0,0,1-.7,3.36,10.24,10.24,0,0,1-.58,1.56c-.23.54-.47,1.08-.7,1.64a15.83,15.83,0,0,0-1.09,3.48,5.89,5.89,0,0,0-.08,1.88,2.07,2.07,0,0,0,1.17,1.5,5.79,5.79,0,0,0,1.8.56,5.88,5.88,0,0,0,.94.1c.15,0,.33,0,.47,0l.37,0c1.07.15,4.24.94,4.24.94S53,52,53,52.3a5.43,5.43,0,0,1-.16.61l-.36-.2a5.19,5.19,0,0,0-2-.61c0,.15,1.11.78,1.64,1.18s1.79,1.46,1.79,1.46S52.42,56.21,52,56.66C52,56.66,50.35,55.06,50.22,55.2Z"/><path class="cls-3" d="M62.36,52.9a9.35,9.35,0,0,0-1.85-.67,15.61,15.61,0,0,0-2.35-.32A25.34,25.34,0,0,1,54,51.08a.62.62,0,0,0-.33-.48l-.23-.12a9.1,9.1,0,0,0-.85-.37l-.55-.2A4.56,4.56,0,0,0,51.49,48a7,7,0,0,0-1.6-1.78A10.91,10.91,0,0,0,48,44.86a6.88,6.88,0,0,0-1.9-.69l.42-.85.7-1.35c.76-.55,1.55-1.07,2.34-1.58,1.18-.78,2.38-1.53,3.58-2.3.6-.38,1.2-.75,1.82-1.2l.53-.45c.45,1.22.84,2.46,1.2,3.71a44.13,44.13,0,0,1,1.11,4.43,8.6,8.6,0,0,1,.11,1.08v.59a2.77,2.77,0,0,0,.09.66,5.86,5.86,0,0,0,1.14,2.22,11.13,11.13,0,0,0,1.67,1.69,11.89,11.89,0,0,0,1.29,1h0C62.16,52.15,62.26,52.53,62.36,52.9Z"/><path class="cls-3" d="M60.29,28.86,60.09,30c-.07.41-.11.83-.14,1.25a22.07,22.07,0,0,0,0,2.44,4.34,4.34,0,0,0-2.09-.09,6.34,6.34,0,0,0-2.11.88,8.84,8.84,0,0,0-.9.68c-.27.24-.55.53-.76.73-.48.46-1,.9-1.59,1.34-1.12.87-2.25,1.72-3.37,2.61-.53.44-1.06.88-1.58,1.34A7.29,7.29,0,0,0,48,40a11.7,11.7,0,0,0,.32-1.83,12.67,12.67,0,0,0,.07-1.85A8.61,8.61,0,0,0,47.68,33a5.4,5.4,0,0,1,2.11-2.74,10.62,10.62,0,0,1,3.42-1.41l.46-.11.43-.07c.3,0,.6,0,.9,0,.61,0,1.23,0,1.86.06C58,28.75,59.12,28.83,60.29,28.86Z"/><path class="cls-4" d="M87.4,5.28a2.94,2.94,0,0,1-.05.59,5.17,5.17,0,0,0-1.14-.35,6,6,0,0,0-3.7.54,2.37,2.37,0,0,0-.46-.53c.45-.92.89-1.84,1.32-2.75.11-.23.24-.5.35-.68l.44-.67a4.56,4.56,0,0,1,.56-.58l.16.08a7.23,7.23,0,0,1,1.18.95,7.2,7.2,0,0,1,1,1.15,1.83,1.83,0,0,1,.21.66,6.82,6.82,0,0,1,.09.79A5.31,5.31,0,0,1,87.4,5.28Z"/><path class="cls-5" d="M98,19.65c.61,0,.26.72,1.74.72a3.38,3.38,0,0,0-.23-2,1.4,1.4,0,0,0-.23-.36L99.23,18l-.11-.11-.22-.2c-.27-.27-.54-.54-.8-.82a39.53,39.53,0,0,1-2.91-3.53l0-.05,0-.07a4.3,4.3,0,0,0-1-1.54,13,13,0,0,0-1.44-1.32c-1-.83-2.16-1.59-3.24-2.41l-.81-.62c-.27-.21-.52-.42-.78-.6a5.8,5.8,0,0,0-5.36-.62l0,.06A4.23,4.23,0,0,1,83,7.4,8.68,8.68,0,0,1,83,9.89c.24.24.46.49.69.73L82.85,10V9.92a10.54,10.54,0,0,0-.37-2.4A5,5,0,0,0,82,6.46a2,2,0,0,0-.82-.66A9.58,9.58,0,0,0,79,5.06a20.6,20.6,0,0,0-2.06-.35,11.82,11.82,0,0,0-.46,1.72,5.15,5.15,0,0,0,0,2,2.67,2.67,0,0,0,.15.48c.07.16.14.32.22.47a10.63,10.63,0,0,0,.53.93,15.8,15.8,0,0,0,1.32,1.73l0,0v0c-.05.19-.09.37-.15.55a3.54,3.54,0,0,1-.18.55,3.7,3.7,0,0,0,.07-.57l0-.5c-.23-.19-.44-.39-.65-.6a7.94,7.94,0,0,0-1.27,2,24.73,24.73,0,0,0-1,2.33,27.55,27.55,0,0,0-1.25,4.84A8.3,8.3,0,0,0,74.28,22c0,.44,0,.86-.07,1.28a9.87,9.87,0,0,0,0,2.38,1.53,1.53,0,0,0,.47.87,3.13,3.13,0,0,1,.76,1.19,6.26,6.26,0,0,1,.4,2,8.39,8.39,0,0,0,.45-1,19,19,0,0,0,.59-1.85A11.36,11.36,0,0,0,77.25,25,3.54,3.54,0,0,0,77,23.09l.11-.07a3.56,3.56,0,0,1,.52,2,12.41,12.41,0,0,1-.16,2A17,17,0,0,1,77,29a10.61,10.61,0,0,1-.8,1.9c-.63,1.22-1.49,2.27-2.09,3.37-.08.15-.16.3-.23.45.2.35.41.7.62,1.05a11.32,11.32,0,0,1,.9,1.73,2.28,2.28,0,0,1,.14,1.05c0,.08,0,.2-.08.26s0,.15-.07.22a3.63,3.63,0,0,0-.1.45,4.54,4.54,0,0,0,0,1.8,4.29,4.29,0,0,0,.27.86c.06.12.14.29.2.45s.12.31.17.46l.61,1.84c.21.6.41,1.19.65,1.75a6,6,0,0,0,.71,1.31,1.71,1.71,0,0,0,.4-.32,5.27,5.27,0,0,0,.59-.72c.22-.31.42-.64.62-1-.09-.63-.17-1.26-.27-1.88-.07-.44-.14-.87-.23-1.3,0-.21-.08-.42-.13-.64s-.1-.4-.15-.66a11.9,11.9,0,0,1-.12-2.78c0-.9.13-1.79.18-2.67a14.75,14.75,0,0,0,0-2.57v-.09a6.2,6.2,0,0,1,.37-1.62,8.6,8.6,0,0,0,.39-1.42,7.91,7.91,0,0,0,.1-1.46,7.78,7.78,0,0,1,0-.82,4.39,4.39,0,0,1,.14-.82,9.07,9.07,0,0,1,1.5-2.84c.3-.43.61-.84.9-1.25.14-.21.27-.42.4-.63l.13-.26-.08,0-.33-.1a1.74,1.74,0,0,1-.33-.18,4.13,4.13,0,0,1-.87-1A12.17,12.17,0,0,1,80,18.77a19.89,19.89,0,0,1-.77-2.25c.37.7.73,1.4,1.12,2.08a15.56,15.56,0,0,0,1.27,1.95,3.52,3.52,0,0,0,.76.74l.19.09.24.06.58.12c.77.15,1.54.32,2.3.49q2.81.39,5.6.88c.93.15,1.85.39,2.77.52a5.28,5.28,0,0,0,1.37.07,2.08,2.08,0,0,0,.87-.45L96.16,23l-.51-.26-1-.54c-.33-.17-.67-.34-1-.49a4.79,4.79,0,0,0-1.07-.35,6.91,6.91,0,0,1,2.18.63l1,.44.52.22a4.11,4.11,0,0,0,.49.17,2.13,2.13,0,0,0,1.8-.76,7.94,7.94,0,0,0,.74-.79,1.81,1.81,0,0,0,.37-.66,1.37,1.37,0,0,1-1,.5,1.5,1.5,0,0,1-1.12-.72C97.2,19.78,98,19.65,98,19.65ZM92.55,15.7c-.15-.08-.28-.18-.42-.24l-.23-.11a1.13,1.13,0,0,1,.06.32.94.94,0,1,1-1.88,0,.91.91,0,0,1,.36-.72q-.42,0-.93-.06a1.7,1.7,0,0,1,.93-.6,2.08,2.08,0,0,1,1.16,0,2.12,2.12,0,0,1,1,.64,2,2,0,0,1,.3.47A2.18,2.18,0,0,1,93,16,4.72,4.72,0,0,1,92.55,15.7Z"/><path class="cls-5" d="M73.41,23.15c-.06.42-.11.85-.13,1.29a4.71,4.71,0,0,0,.11,1.38,2.78,2.78,0,0,0,.3.69,2.13,2.13,0,0,0,.51.56,2.79,2.79,0,0,1,.7.87,9.35,9.35,0,0,1,.81,2l-.27.46c-.7,1.08-1.57,2.06-2.33,3.24a8.2,8.2,0,0,0-.5.93c-.08.16-.14.34-.21.5s-.11.29-.17.43a17.17,17.17,0,0,1-.91,1.67c-.67,1.12-1.41,2.22-2.07,3.43a7.54,7.54,0,0,0-.78,2l0,.23a1,1,0,0,1-.75-.65A6.35,6.35,0,0,1,67.26,41c-.22-.87-.38-1.77-.58-2.68A13.81,13.81,0,0,0,66.3,37a5.15,5.15,0,0,0-.3-.69,2.33,2.33,0,0,0-.5-.68,1.19,1.19,0,0,0-.47-.25.22.22,0,0,1-.12-.05.78.78,0,0,1-.18-.4,5,5,0,0,1,0-1.27c.11-.89.3-1.79.43-2.72a8.27,8.27,0,0,0,.09-1.42,2.25,2.25,0,0,0-.14-.75.92.92,0,0,0-.23-.37.68.68,0,0,0-.46-.19,1.41,1.41,0,0,0-.75.28,6.22,6.22,0,0,0-.56.46c-.34.32-.65.66-1,1l-1.4,1.6,0-.16c.07-.41.12-.83.15-1.24l.07-1.2c.48-1,1-2,1.52-3,.27-.5.55-1,.84-1.48a11.53,11.53,0,0,1,1-1.4L64.28,23a10.12,10.12,0,0,0-1.13,1.31c-.34.46-.67.92-1,1.4-.63,1-1.23,1.93-1.82,2.92h0a15.91,15.91,0,0,0-3.4-.82,10.68,10.68,0,0,0-2-.05,8.39,8.39,0,0,0-1,.13l-.5.13-.46.15a11,11,0,0,0-3.48,1.72,5.64,5.64,0,0,0-1.93,2.94.3.3,0,0,0,0-.08,8.55,8.55,0,0,1,.07-2.42,8.12,8.12,0,0,0,.1-1.42,4.36,4.36,0,0,0-.29-1.46c-.09-.24-.22-.45-.33-.68s-.27-.42-.42-.6a5,5,0,0,0-.49-.56,4,4,0,0,0-.6-.48,7.59,7.59,0,0,0-2.72-1,20.73,20.73,0,0,0-5.56-.11c-.92.1-1.83.24-2.73.43a15.24,15.24,0,0,0-2.65.79l0,.08a16.06,16.06,0,0,1,2.66-.62c.9-.13,1.81-.22,2.71-.26a20.18,20.18,0,0,1,5.39.36,6.49,6.49,0,0,1,2.38,1,3.83,3.83,0,0,1,.87.88c.14.16.24.35.37.52a5.77,5.77,0,0,1,.29.55A5.43,5.43,0,0,1,47,30.34a9.47,9.47,0,0,0,.08,1.4c0,.15.07.3.11.45A7.1,7.1,0,0,0,46.46,34c-.2.71-.36,1.42-.51,2.13s-.31,1.41-.5,2.08a5.42,5.42,0,0,1-.35.94l-.11.17a.88.88,0,0,1-.14.15l-.4.4c-.51.54-1,1.09-1.46,1.61A15.14,15.14,0,0,1,41.46,43a5.07,5.07,0,0,1-1.78,1c-.5.14-1,.28-1.49.44.05-.12.11-.24.17-.36l.6-1.22.31-.6a3.63,3.63,0,0,1,.34-.54l0-.12a.89.89,0,0,0-.33.21L39,42c-.17.17-.32.35-.47.53-.3.35-.57.72-.85,1.1A25.75,25.75,0,0,0,36.19,46c-.22.4-.44.82-.63,1.26,0,0,0,0,0,0-.67.45-1.41,2.44-4.85,3.13a5.09,5.09,0,0,1-1.56.23A3.13,3.13,0,0,1,27.67,50a12.4,12.4,0,0,1-2.48-2.53l-.11.06a11.88,11.88,0,0,0,2.19,3,3.91,3.91,0,0,0,1.72,1l.17,0c-1.13.26-2.25.52-3.38.8l-1.11.27c-.8-1.3-1.57-2.63-2.27-4a45.27,45.27,0,0,1-2.06-4.41,12.44,12.44,0,0,1-.51-2.28c-.11-.8-.19-1.6-.26-2.41-.14-1.61-.27-8.12-.21-9.74A34.39,34.39,0,0,1,19.75,25,6.2,6.2,0,0,1,20,23.86a10.39,10.39,0,0,1,.43-1.07,23.78,23.78,0,0,1,1.12-2.11,44.69,44.69,0,0,1,2.72-4Q25.75,14.75,27.4,13a43.08,43.08,0,0,1,3.48-3.41,31.32,31.32,0,0,1,3.88-2.93c.34-.23.7-.4,1.05-.61s.73-.36,1.11-.51a20,20,0,0,1,2.29-.81,26.58,26.58,0,0,1,9.65-.63,45.62,45.62,0,0,1,4.8.75A37.75,37.75,0,0,1,58.3,6.07l.06,0h0c1.34.22,2.68.55,4,.89s2.66.73,4,1.12,2.66.79,4,1.2,2.66.82,4,1.25l.1,0,.07-.06c.51-.4,1-.82,1.52-1.23.07.13.14.27.22.4a10.22,10.22,0,0,0,.66.92,11.67,11.67,0,0,0,.82.9,7.81,7.81,0,0,0-1.41,1.91,21.17,21.17,0,0,0-1.11,2.3,27.09,27.09,0,0,0-1.52,4.88c0,.21-.07.43-.09.65l-.06.64C73.52,22.32,73.47,22.74,73.41,23.15Z"/><path class="cls-6" d="M40.05,24.11c-3.64-1.08-7.34-2-7.08-4.88s4.23-6.81,7.08-7.44,12.51-1.11,16.47,0,11.17,3.42,10,5.83-4.72,4-4.27,5.41-.42,3.6-1.7,5.8a16.16,16.16,0,0,0-9.9.62,7.31,7.31,0,0,0-3.1,3.5c-.61-2.12,1-3.6-.23-5.4A7,7,0,0,0,43,24.68C41.85,24.47,40.05,24.11,40.05,24.11Z"/><path class="cls-7" d="M65.16,29.74c.12-1.11,4.76-5.37,5.77-4.5s2.6-2.15,2.91-.94-.51,1.61.06,2.22a9.18,9.18,0,0,1,1.83,2.69c0,.55.11,1.74.11,1.74s-.41.66-.93,1.52c-.82,1.36-1.94,3.24-2.31,4-.61,1.26-3.73,6.44-3.73,6.44a1.19,1.19,0,0,1-.8,0,2.53,2.53,0,0,1-.82-1.17c-2.15-4.65-1.46-5.27-1.46-5.27l-1.19-1,.21-3.19Z"/><path class="cls-7" d="M80.26,26.62c-.51,1.45-.62.39-1.18,1.13-.9,1.17-2.34,3.71-3.81,4.07-1.14,1.79-1.74,2.71-1.74,2.71s2.2,3.12,2,4-.83,2-.55,2.63S77,47.11,77,47.11l.77,1,2-2.52-.72-6,.33-6.24S80,30.59,80,30,80.26,26.62,80.26,26.62Z"/><path class="cls-3" d="M98.18,19.84c.6,0,.25.73,1.7.74a3.5,3.5,0,0,0-.23-2,1.18,1.18,0,0,0-.22-.36l-.08-.08-.12-.1-.2-.21c-.28-.28-.53-.56-.79-.84a37.39,37.39,0,0,1-2.85-3.61l0,0,0-.07a4.49,4.49,0,0,0-.94-1.59A14,14,0,0,0,93,10.3c-1-.83-2.11-1.62-3.16-2.45L89,7.22c-.27-.22-.51-.44-.78-.63a5.48,5.48,0,0,0-1.72-.83,5.28,5.28,0,0,0-2.62,0,19.42,19.42,0,0,1,.6,2.14c.38,1.27-.69,2.23-.32,2.65a3.4,3.4,0,0,1,.52,2.32c-.21.43-.85,1.82-2.17,1.88s-2.22,1.9-1.63,4L81,19s0,0,0,0a17.74,17.74,0,0,0,1.1,1.74,3.33,3.33,0,0,0,.75.75.66.66,0,0,0,.18.1l.24.06.57.12q1.13.24,2.25.51,2.75.39,5.47.89c.91.16,1.82.4,2.71.54a3.63,3.63,0,0,0,1.14,0h0l.09,0,.18-.06h0a1.22,1.22,0,0,0,.6-.46c-.16-.06.25.2-1.47-.74-.33-.18-.66-.35-1-.5a4.59,4.59,0,0,0-1-.37,7.3,7.3,0,0,1,2.13.65l1,.45.51.22a4.27,4.27,0,0,0,.49.18l.26,0h.07a3.15,3.15,0,0,0,.42-.09l.11,0a2.94,2.94,0,0,0,.9-.66c.25-.25.49-.52.73-.81a2,2,0,0,0,.36-.67,1.36,1.36,0,0,1-1,.51,1.47,1.47,0,0,1-1.09-.73C97.36,20,98.18,19.84,98.18,19.84Z"/><path class="cls-8" d="M92.86,21.3c.2.58-.21,2-1.06,2.06,3,.44,4,.36,4.17.1s.65-.66.65-.66a3.42,3.42,0,0,0,1.28.12A6.71,6.71,0,0,0,100,21c.23-.52.53-2.1.1-2.68s-3.77,1-5.26,1S92.86,21.3,92.86,21.3Z"/><path d="M128,75.81v-.36l-.32-.14c-2.1-.92-4.2-1.86-6.28-2.82s-20.6-5.82-22.66-6.82-4.12-2-6.16-3.09c-1.64-.86-3.26-1.75-4.84-2.7a3.69,3.69,0,0,0-.19-.35l.18,0a.46.46,0,0,0,.28-.68,5.44,5.44,0,0,0-.63-.92,7,7,0,0,0-.86-.69,10.77,10.77,0,0,0-1.9-1c-.33-.13-1.66-.51-1.93-.64a2.39,2.39,0,0,1-.85-.67,1.59,1.59,0,0,1-.35-1c0-.7-.07-1.4-.14-2.1-.09-.9-.18-1.78-.33-2.69-.3-1.72-1.09-7.06-1.14-7.28s-.12-.46-.15-.64a10.55,10.55,0,0,1-.11-2.53L79.75,36a16.17,16.17,0,0,0,0-2.69A5.46,5.46,0,0,1,80,32a8.59,8.59,0,0,0,.4-1.57,9.69,9.69,0,0,0,.07-1.61,6.07,6.07,0,0,1,0-.73,4.08,4.08,0,0,1,.11-.7,8.54,8.54,0,0,1,1.33-2.62c.29-.42,1.16-1.72,1.29-2s.22-.42.22-.42c.7.18,1.42.34,2.13.51h0q2.8.42,5.62.74c.94.09,1.87.24,2.84.27a5.15,5.15,0,0,0,1.46-.12,2,2,0,0,0,.67-.29,1.29,1.29,0,0,0,.33-.33l.2.07a1.88,1.88,0,0,0,1.26-.1,3.67,3.67,0,0,0,1-.64,9.2,9.2,0,0,0,.84-.81,2.69,2.69,0,0,0,.62-1.12,3.53,3.53,0,0,0,.09-1.25,4.21,4.21,0,0,0-.29-1.2,1.82,1.82,0,0,0-.38-.6,26.51,26.51,0,0,1-4-4.64,5.17,5.17,0,0,0-1.13-1.76A13.49,13.49,0,0,0,93.2,9.72C92.1,8.9,91,8.17,89.85,7.42c-.57-.38-1.07-.77-1.68-1.15a7.69,7.69,0,0,0-.76-.38,2.37,2.37,0,0,0,.21-.58,5.66,5.66,0,0,0,.16-.82,7.94,7.94,0,0,0,0-.85,2.39,2.39,0,0,0-.17-.91,5.94,5.94,0,0,0-1-1.4A6.48,6.48,0,0,0,85.3.19a1.23,1.23,0,0,0-.23-.11A.81.81,0,0,0,84.7,0a1.12,1.12,0,0,0-.62.26,3.51,3.51,0,0,0-.6.73c-.15.26-.27.49-.4.73a5.64,5.64,0,0,0-.32.81,19.11,19.11,0,0,0-.77,3,4.15,4.15,0,0,0-.43-.3,7,7,0,0,0-1.18-.55,11.33,11.33,0,0,0-1.22-.37,17.68,17.68,0,0,0-2.5-.44l-.33,0-.11.32a11.44,11.44,0,0,0-.56,2.2,5.42,5.42,0,0,0,.11,2.33,3.18,3.18,0,0,0,.21.54l-1.57,1c-1.26-.54-2.52-1.06-3.79-1.55s-2.61-1-3.93-1.43S64,6.35,62.7,6,60,5.24,58.65,5a32.55,32.55,0,0,0-9.73-1.76,32.86,32.86,0,0,0-5,.17,27.77,27.77,0,0,0-4.86.92,20.56,20.56,0,0,0-4.57,1.91A37.77,37.77,0,0,0,30.45,9a48.2,48.2,0,0,0-3.73,3.27Q25,14.06,23.39,16A41.31,41.31,0,0,0,20.5,20a23.62,23.62,0,0,0-1.23,2.21,10.65,10.65,0,0,0-.51,1.19,6.94,6.94,0,0,0-.34,1.28,49.65,49.65,0,0,0-.37,9.95c.08,1.65.2,3.29.4,4.93.1.83.22,1.65.38,2.47a11.49,11.49,0,0,0,.69,2.46,44.62,44.62,0,0,0,5,8.09l-1,.28c-.78.26-1.52.52-2.27.79-1.5.54-19.41,6.28-20.9,6.87L0,60.66V61a29.54,29.54,0,0,0,.21,4.21,25.75,25.75,0,0,0,.84,4.14,14.49,14.49,0,0,0,1.78,3.91,8.15,8.15,0,0,0,3.34,2.91l.22.1.24-.08c2.26-.74,20.76-6.51,23.07-7.1.21.89,2.43,10.46,3,12.68A97.8,97.8,0,0,0,37,94.79a68.28,68.28,0,0,0,6.51,12.15,55.87,55.87,0,0,0,4.25,5.46,49.48,49.48,0,0,0,5,4.86,43.76,43.76,0,0,0,11.88,7.14,47.5,47.5,0,0,0,6.61,2.11,52.37,52.37,0,0,0,6.82,1.22,43.39,43.39,0,0,0,13.83-.66,42.8,42.8,0,0,0,12.87-5c.5-.29,1-.59,1.48-.9a2.38,2.38,0,0,0-1.48-4.41,2.81,2.81,0,0,0-.94.31l-.79.34-1.56.67c-1,.44-2.11.86-3.17,1.26a51.42,51.42,0,0,1-13.19,3.12A33.53,33.53,0,0,1,71.73,121a43.2,43.2,0,0,1-12-6.27,46.47,46.47,0,0,1-9.56-9.64A60.23,60.23,0,0,1,43.4,93.25a86.77,86.77,0,0,1-4.22-13C38.6,78.05,37,69.6,36.51,67.59c1.25-.23,2.21-.42,3.47-.58a19.9,19.9,0,0,1,5.61,0,43.09,43.09,0,0,0,5.92.57l5.83.25a49.94,49.94,0,0,1,5.76.58,16.77,16.77,0,0,1,2.75.69,6.37,6.37,0,0,1,1.24.57l.29.18.29.21.58.43c.77.57,1.51,1.19,2.23,1.84a12.7,12.7,0,0,0,1.17,1,2.84,2.84,0,0,0,1.53.52,6.54,6.54,0,0,0,.77,0h.71c.48,0,1,0,1.45,0,1,.06,1.93.16,2.89.29a32.36,32.36,0,0,1,5.66,1.26,14.07,14.07,0,0,1,2.64,1.15c.83.49,1.69,1,2.55,1.44,3.46,1.81,7,3.53,10.44,5.28l2.62,1.31,1.3.66,17.05,4.23.15.09.06,0v0h0l.08.07a.64.64,0,0,0,.14.12l.18.11c.91.5,1.78.88,2.68,1.29l2.69,1.18.72.3v-.79c0-2.67,0-5.33,0-8ZM79.59,46.56c.12.91.24,1.83.39,2.75s.23,1.73.31,2.61c.06.65.22,1.85.3,2.44a1.46,1.46,0,0,0,.26.66,7.32,7.32,0,0,0,.49.63,3.09,3.09,0,0,0,1,.69,6.43,6.43,0,0,0,1,.36,6.76,6.76,0,0,1,.93.31,9,9,0,0,1,1.73.92,5.19,5.19,0,0,1,1,.86,6,6,0,0,0-.56.3,4.1,4.1,0,0,0-.5.35l-.22.2L83.84,58.5a.47.47,0,0,0-.6.09l0,0a.47.47,0,0,0-.08.48l.36.94a.37.37,0,0,1-.33.5h-.69a.33.33,0,0,1-.29-.13L81,59a.27.27,0,0,0-.29-.08l-.83.27a.58.58,0,0,1-.55-.11c-.7-.63-2.42-2.32-2.6-2.52a3,3,0,0,1-.45-.6c0-.06-.11-.27-.11-.27a1,1,0,0,1,.11-.77.35.35,0,0,0,0-.41,34.13,34.13,0,0,1-2.16-2.83l-1-1.59a11.7,11.7,0,0,1-.75-1.64c-.46-1.13-.79-2.32-1.27-3.46-.37-.87-.75-1.75-1.19-2.6a9,9,0,0,1,.51-1.17c.59-1.13,1.31-2.24,2-3.41A13.86,13.86,0,0,0,73.35,36a5.17,5.17,0,0,0,.18-.51c.06-.14.09-.28.16-.42a2.14,2.14,0,0,1,.1-.22c.16.33.33.67.5,1A11.9,11.9,0,0,1,75,37.58a1.8,1.8,0,0,1,.06.85c0,.07,0,.12-.07.2l-.09.23c0,.16-.1.32-.14.49a5,5,0,0,0-.08,2,5,5,0,0,0,.26,1c.07.17.12.29.17.44s.09.29.14.44c.17.6.31,1.23.48,1.86a15,15,0,0,0,.6,1.87,4.84,4.84,0,0,0,1.16,1.73l.18.17.22-.09a2.3,2.3,0,0,0,.88-.73,4.85,4.85,0,0,0,.53-.89A6.14,6.14,0,0,0,79.59,46.56Zm-3.87,9a1.75,1.75,0,0,0-.86-.12l.09-.27-5-2.92c-.11-.56-.22-1.13-.32-1.69s-.24-1.31-.29-1.91a17.58,17.58,0,0,1,.21-3.81l.23-1.56c.16.69.36,1.37.57,2a30.44,30.44,0,0,0,1.46,3.43,13.71,13.71,0,0,0,.92,1.67L73.78,52l1.1,1.5c.28.36.56.73.87,1.08a.38.38,0,0,1,.06.38,1.24,1.24,0,0,0-.1.39A1.22,1.22,0,0,0,75.72,55.57Zm-5.29.3,1.31,2a.35.35,0,0,1-.19.53,1.42,1.42,0,0,0-.79.54.35.35,0,0,1-.59,0c-.35-.53-1.18-1.81-1.54-2.38a.11.11,0,0,0-.19.06l0,1.48a.35.35,0,0,1-.31.34l-1.29.16a.36.36,0,0,1-.38-.26L66,56.59a.58.58,0,0,0-.15-.25,16.6,16.6,0,0,1-1.9-2.13,2.7,2.7,0,0,1-.26-.55c0-.1-.07-.46-.13-.69-.1-.51-.22-1-.36-1.49-.51-1.95-1.12-3.87-1.64-5.79a13,13,0,0,1-.33-1.41c-.08-.48-.13-1-.19-1.47-.11-1-.2-2-.29-3l-.5-5.58c0-.14,0-.29,0-.43a19.63,19.63,0,0,0,.5-2.08c.55-.54,1.08-1.1,1.62-1.64a12.38,12.38,0,0,1,1-.92,3.36,3.36,0,0,1,.54-.39.93.93,0,0,1,.53-.18c.12,0,.2.1.27.29a1.94,1.94,0,0,1,.08.6,7.52,7.52,0,0,1-.15,1.32c-.17.9-.4,1.78-.56,2.72A5.41,5.41,0,0,0,64,35a1.48,1.48,0,0,0,.36.86,1.07,1.07,0,0,0,.4.26.44.44,0,0,1,.18.09,2.87,2.87,0,0,1,.54,1c.14.41.27.85.39,1.28.26.88.5,1.78.84,2.66a6.2,6.2,0,0,0,.67,1.27,2,2,0,0,0,.57.5.83.83,0,0,0,.49.08c-.08.55-.16,1.07-.23,1.62a18.14,18.14,0,0,0-.12,4.11c.08.72.23,1.36.36,2s.26,1.3.42,2l.06.26.23.11c1.54.8,3.07,1.61,4.62,2.39a.24.24,0,0,1,.11.27l-.25,1.05a.24.24,0,0,1-.33.15l-2.73-1.26A.1.1,0,0,0,70.43,55.87ZM52.06,53.28c.53.41,1.79,1.46,1.79,1.46S52.42,56.21,52,56.66c0,0-1.69-1.6-1.82-1.46s.92,1.32,1.21,1.7a.33.33,0,0,1,0,.45l-1.8,1.52a.44.44,0,0,1-.53,0,16.72,16.72,0,0,0-1.89-1.15,26.43,26.43,0,0,0-2.73-1.18c-.93-.33-1.86-.64-2.82-.9s-1.46-.59-2.29-.74a1.17,1.17,0,0,1-.59-.29c-.57-.52-1.12-1-1.65-1.6s-1.33-1-1.86-1.71c.28-.8.6-1.6.9-2.39s.63-1.64,1-2.44.63-1.29,1-1.94c.55,0,1.1-.1,1.65-.16a4.91,4.91,0,0,0,2.1-.88,12.53,12.53,0,0,0,1.71-1.44c.52-.53,1-1.07,1.5-1.6.12-.13.24-.26.36-.37a1.76,1.76,0,0,0,.4-.55,4.57,4.57,0,0,0,.38-1.11,18.79,18.79,0,0,0,.38-2.18l.27-2.16a8.87,8.87,0,0,1,.39-1.84c0,.18.11.35.17.51a13.87,13.87,0,0,1-.06,3.47,22,22,0,0,1-.7,3.36,10.24,10.24,0,0,1-.58,1.56c-.23.54-.47,1.08-.7,1.64a15.83,15.83,0,0,0-1.09,3.48,5.89,5.89,0,0,0-.08,1.88,2.07,2.07,0,0,0,1.17,1.5,5.79,5.79,0,0,0,1.8.56,5.88,5.88,0,0,0,.94.1c.15,0,.33,0,.47,0l.37,0c1.07.15,4.24.94,4.24.94S53,52,53,52.3a5.43,5.43,0,0,1-.16.61l-.36-.2a5.19,5.19,0,0,0-2-.61C50.39,52.25,51.53,52.88,52.06,53.28Zm-6.09-9a6.54,6.54,0,0,1,1.7,1,13.69,13.69,0,0,1,1.62,1.52c.49.55.85,1.2,1.3,1.75.3.37.58.75.88,1.14l-.6-.17A6.76,6.76,0,0,0,49,49.3a3.37,3.37,0,0,0-.52.05l-.42.08a7.71,7.71,0,0,1-.84.1,3.55,3.55,0,0,1-1.65-.23,1.43,1.43,0,0,1-.93-1.19A3.81,3.81,0,0,1,45,46.48a17.29,17.29,0,0,1,.72-1.59Zm6.64,5.78-.55-.2A4.56,4.56,0,0,0,51.49,48a7,7,0,0,0-1.6-1.78A10.91,10.91,0,0,0,48,44.86a6.88,6.88,0,0,0-1.9-.69l.42-.85.7-1.35c.76-.55,1.55-1.07,2.34-1.58,1.18-.78,2.38-1.53,3.58-2.3.6-.38,1.2-.75,1.82-1.2l.53-.45c.45,1.22.84,2.46,1.2,3.71a44.13,44.13,0,0,1,1.11,4.43,8.6,8.6,0,0,1,.11,1.08v.59a2.77,2.77,0,0,0,.09.66,5.86,5.86,0,0,0,1.14,2.22,11.13,11.13,0,0,0,1.67,1.69,11.89,11.89,0,0,0,1.29,1h0c.11.37.21.75.31,1.12a9.35,9.35,0,0,0-1.85-.67,15.61,15.61,0,0,0-2.35-.32A25.34,25.34,0,0,1,54,51.08a.62.62,0,0,0-.33-.48l-.23-.12A9.1,9.1,0,0,0,52.61,50.11ZM47.68,33a5.4,5.4,0,0,1,2.11-2.74,10.62,10.62,0,0,1,3.42-1.41l.46-.11.43-.07c.3,0,.6,0,.9,0,.61,0,1.23,0,1.86.06,1.13.05,2.26.13,3.43.16L60.09,30c-.07.41-.11.83-.14,1.25a22.07,22.07,0,0,0,0,2.44,4.34,4.34,0,0,0-2.09-.09,6.34,6.34,0,0,0-2.11.88,8.84,8.84,0,0,0-.9.68c-.27.24-.55.53-.76.73-.48.46-1,.9-1.59,1.34-1.12.87-2.25,1.72-3.37,2.61-.53.44-1.06.88-1.58,1.34A7.29,7.29,0,0,0,48,40a11.7,11.7,0,0,0,.32-1.83,12.67,12.67,0,0,0,.07-1.85A8.61,8.61,0,0,0,47.68,33Zm12.38,9.88c0,.51.07,1,.13,1.53A14.3,14.3,0,0,0,60.48,46c.41,1.68.87,3.34,1.34,5A27.65,27.65,0,0,1,60,48.5a8.33,8.33,0,0,1-1-1.86,2.12,2.12,0,0,1-.11-.47l0-.23c0-.09,0-.22,0-.33a7.5,7.5,0,0,0-.22-1.2A40.88,40.88,0,0,0,57.15,40c-.49-1.24-1-2.47-1.57-3.66l.14-.12c.26-.22.51-.44.77-.64a8.48,8.48,0,0,1,1.65-1.07A7,7,0,0,1,60,33.91c0,.12,0,.23.05.34C60,35.12,60,36,60,36.84s0,2,0,3S60,41.88,60.06,42.89ZM83.37,2.78c.11-.23.24-.5.35-.68l.44-.67a4.56,4.56,0,0,1,.56-.58l.16.08a7.23,7.23,0,0,1,1.18.95,7.2,7.2,0,0,1,1,1.15,1.83,1.83,0,0,1,.21.66,6.82,6.82,0,0,1,.09.79,5.31,5.31,0,0,1,0,.8,2.94,2.94,0,0,1-.05.59,5.17,5.17,0,0,0-1.14-.35,6,6,0,0,0-3.7.54,2.37,2.37,0,0,0-.46-.53C82.5,4.61,82.94,3.69,83.37,2.78ZM76.45,6.43a11.82,11.82,0,0,1,.46-1.72A20.6,20.6,0,0,1,79,5.06a9.58,9.58,0,0,1,2.23.74,2,2,0,0,1,.82.66,5,5,0,0,1,.45,1.06,10.54,10.54,0,0,1,.37,2.4V10l.88.65c-.23-.24-.45-.49-.69-.73A8.68,8.68,0,0,0,83,7.4a4.23,4.23,0,0,0-.4-1.25l0-.06a5.8,5.8,0,0,1,5.36.62c.26.18.51.39.78.6l.81.62c1.08.82,2.2,1.58,3.24,2.41a13,13,0,0,1,1.44,1.32,4.3,4.3,0,0,1,1,1.54l0,.07,0,.05a39.53,39.53,0,0,0,2.91,3.53c.26.28.53.55.8.82l.22.2.11.11.09.07a1.4,1.4,0,0,1,.23.36,3.38,3.38,0,0,1,.23,2c-1.48,0-1.13-.72-1.74-.72,0,0-.84.13-.48.72a1.5,1.5,0,0,0,1.12.72,1.37,1.37,0,0,0,1-.5,1.81,1.81,0,0,1-.37.66,7.94,7.94,0,0,1-.74.79,2.13,2.13,0,0,1-1.8.76,4.11,4.11,0,0,1-.49-.17l-.52-.22-1-.44a6.91,6.91,0,0,0-2.18-.63,4.79,4.79,0,0,1,1.07.35c.34.15.68.32,1,.49l1,.54.51.26.17.09a2.08,2.08,0,0,1-.87.45,5.28,5.28,0,0,1-1.37-.07c-.92-.13-1.84-.37-2.77-.52q-2.79-.49-5.6-.88c-.76-.17-1.53-.34-2.3-.49l-.58-.12-.24-.06-.19-.09a3.52,3.52,0,0,1-.76-.74,15.56,15.56,0,0,1-1.27-1.95c-.39-.68-.75-1.38-1.12-2.08A19.89,19.89,0,0,0,80,18.77a12.17,12.17,0,0,0,1.11,2.15,4.13,4.13,0,0,0,.87,1,1.74,1.74,0,0,0,.33.18l.33.1.08,0-.13.26c-.13.21-.26.42-.4.63-.29.41-.6.82-.9,1.25a9.07,9.07,0,0,0-1.5,2.84,4.39,4.39,0,0,0-.14.82,7.78,7.78,0,0,0,0,.82,7.91,7.91,0,0,1-.1,1.46,8.6,8.6,0,0,1-.39,1.42,6.2,6.2,0,0,0-.37,1.62v.09a14.75,14.75,0,0,1,0,2.57c-.05.88-.14,1.77-.18,2.67a11.9,11.9,0,0,0,.12,2.78c0,.26.1.46.15.66s.1.43.13.64c.09.43.16.86.23,1.3.1.62.18,1.25.27,1.88-.2.34-.4.67-.62,1a5.27,5.27,0,0,1-.59.72,1.71,1.71,0,0,1-.4.32,6,6,0,0,1-.71-1.31c-.24-.56-.44-1.15-.65-1.75L75.93,43c-.05-.15-.11-.31-.17-.46s-.14-.33-.2-.45a4.29,4.29,0,0,1-.27-.86,4.54,4.54,0,0,1,0-1.8,3.63,3.63,0,0,1,.1-.45c0-.07,0-.14.07-.22s0-.18.08-.26a2.28,2.28,0,0,0-.14-1.05,11.32,11.32,0,0,0-.9-1.73c-.21-.35-.42-.7-.62-1.05.07-.15.15-.3.23-.45.6-1.1,1.46-2.15,2.09-3.37A10.61,10.61,0,0,0,77,29a17,17,0,0,0,.46-2,12.41,12.41,0,0,0,.16-2,3.56,3.56,0,0,0-.52-2l-.11.07A3.54,3.54,0,0,1,77.25,25a11.36,11.36,0,0,1-.34,1.92,19,19,0,0,1-.59,1.85,8.39,8.39,0,0,1-.45,1,6.26,6.26,0,0,0-.4-2,3.13,3.13,0,0,0-.76-1.19,1.53,1.53,0,0,1-.47-.87,9.87,9.87,0,0,1,0-2.38c0-.42.05-.84.07-1.28a8.3,8.3,0,0,1,.07-1.23,27.55,27.55,0,0,1,1.25-4.84,24.73,24.73,0,0,1,1-2.33,7.94,7.94,0,0,1,1.27-2c.21.21.42.41.65.6l0,.5a3.7,3.7,0,0,1-.07.57,3.54,3.54,0,0,0,.18-.55c.06-.18.1-.36.15-.55v0l0,0a15.8,15.8,0,0,1-1.32-1.73,10.63,10.63,0,0,1-.53-.93c-.08-.15-.15-.31-.22-.47a2.67,2.67,0,0,1-.15-.48A5.15,5.15,0,0,1,76.45,6.43Zm-54,42.15a45.27,45.27,0,0,1-2.06-4.41,12.44,12.44,0,0,1-.51-2.28c-.11-.8-.19-1.6-.26-2.41-.14-1.61-.27-8.12-.21-9.74A34.39,34.39,0,0,1,19.75,25,6.2,6.2,0,0,1,20,23.86a10.39,10.39,0,0,1,.43-1.07,23.78,23.78,0,0,1,1.12-2.11,44.69,44.69,0,0,1,2.72-4Q25.75,14.75,27.4,13a43.08,43.08,0,0,1,3.48-3.41,31.32,31.32,0,0,1,3.88-2.93c.34-.23.7-.4,1.05-.61s.73-.36,1.11-.51a20,20,0,0,1,2.29-.81,26.58,26.58,0,0,1,9.65-.63,45.62,45.62,0,0,1,4.8.75A37.75,37.75,0,0,1,58.3,6.07l.06,0h0c1.34.22,2.68.55,4,.89s2.66.73,4,1.12,2.66.79,4,1.2,2.66.82,4,1.25l.1,0,.07-.06c.51-.4,1-.82,1.52-1.23.07.13.14.27.22.4a10.22,10.22,0,0,0,.66.92,11.67,11.67,0,0,0,.82.9,7.81,7.81,0,0,0-1.41,1.91,21.17,21.17,0,0,0-1.11,2.3,27.09,27.09,0,0,0-1.52,4.88c0,.21-.07.43-.09.65l-.06.64c0,.41-.09.83-.15,1.24s-.11.85-.13,1.29a4.71,4.71,0,0,0,.11,1.38,2.78,2.78,0,0,0,.3.69,2.13,2.13,0,0,0,.51.56,2.79,2.79,0,0,1,.7.87,9.35,9.35,0,0,1,.81,2l-.27.46c-.7,1.08-1.57,2.06-2.33,3.24a8.2,8.2,0,0,0-.5.93c-.08.16-.14.34-.21.5s-.11.29-.17.43a17.17,17.17,0,0,1-.91,1.67c-.67,1.12-1.41,2.22-2.07,3.43a7.54,7.54,0,0,0-.78,2l0,.23a1,1,0,0,1-.75-.65A6.35,6.35,0,0,1,67.26,41c-.22-.87-.38-1.77-.58-2.68A13.81,13.81,0,0,0,66.3,37a5.15,5.15,0,0,0-.3-.69,2.33,2.33,0,0,0-.5-.68,1.19,1.19,0,0,0-.47-.25.22.22,0,0,1-.12-.05.78.78,0,0,1-.18-.4,5,5,0,0,1,0-1.27c.11-.89.3-1.79.43-2.72a8.27,8.27,0,0,0,.09-1.42,2.25,2.25,0,0,0-.14-.75.92.92,0,0,0-.23-.37.68.68,0,0,0-.46-.19,1.41,1.41,0,0,0-.75.28,6.22,6.22,0,0,0-.56.46c-.34.32-.65.66-1,1l-1.4,1.6,0-.16c.07-.41.12-.83.15-1.24l.07-1.2c.48-1,1-2,1.52-3,.27-.5.55-1,.84-1.48a11.53,11.53,0,0,1,1-1.4L64.28,23a10.12,10.12,0,0,0-1.13,1.31c-.34.46-.67.92-1,1.4-.63,1-1.23,1.93-1.82,2.92h0a15.91,15.91,0,0,0-3.4-.82,10.68,10.68,0,0,0-2-.05,8.39,8.39,0,0,0-1,.13l-.5.13-.46.15a11,11,0,0,0-3.48,1.72,5.64,5.64,0,0,0-1.93,2.94.3.3,0,0,0,0-.08,8.55,8.55,0,0,1,.07-2.42,8.12,8.12,0,0,0,.1-1.42,4.36,4.36,0,0,0-.29-1.46c-.09-.24-.22-.45-.33-.68s-.27-.42-.42-.6a5,5,0,0,0-.49-.56,4,4,0,0,0-.6-.48,7.59,7.59,0,0,0-2.72-1,20.73,20.73,0,0,0-5.56-.11c-.92.1-1.83.24-2.73.43a15.24,15.24,0,0,0-2.65.79l0,.08a16.06,16.06,0,0,1,2.66-.62c.9-.13,1.81-.22,2.71-.26a20.18,20.18,0,0,1,5.39.36,6.49,6.49,0,0,1,2.38,1,3.83,3.83,0,0,1,.87.88c.14.16.24.35.37.52a5.77,5.77,0,0,1,.29.55A5.43,5.43,0,0,1,47,30.34a9.47,9.47,0,0,0,.08,1.4c0,.15.07.3.11.45A7.1,7.1,0,0,0,46.46,34c-.2.71-.36,1.42-.51,2.13s-.31,1.41-.5,2.08a5.42,5.42,0,0,1-.35.94l-.11.17a.88.88,0,0,1-.14.15l-.4.4c-.51.54-1,1.09-1.46,1.61A15.14,15.14,0,0,1,41.46,43a5.07,5.07,0,0,1-1.78,1c-.5.14-1,.28-1.49.44.05-.12.11-.24.17-.36l.6-1.22.31-.6a3.63,3.63,0,0,1,.34-.54l0-.12a.89.89,0,0,0-.33.21L39,42c-.17.17-.32.35-.47.53-.3.35-.57.72-.85,1.1A25.75,25.75,0,0,0,36.19,46c-.22.4-.44.82-.63,1.26,0,0,0,0,0,0-.67.45-1.41,2.44-4.85,3.13a5.09,5.09,0,0,1-1.56.23A3.13,3.13,0,0,1,27.67,50a12.4,12.4,0,0,1-2.48-2.53l-.11.06a11.88,11.88,0,0,0,2.19,3,3.91,3.91,0,0,0,1.72,1l.17,0c-1.13.26-2.25.52-3.38.8l-1.11.27C23.87,51.27,23.1,49.94,22.4,48.58ZM38.74,80.37a86.83,86.83,0,0,0,4.31,13,60.73,60.73,0,0,0,6.71,12,46.89,46.89,0,0,0,9.59,9.85,44.12,44.12,0,0,0,5.82,3.71,45.47,45.47,0,0,0,6.33,2.74,34.15,34.15,0,0,0,13.69,1.55,52,52,0,0,0,13.43-3.07c1.09-.39,2.16-.81,3.22-1.25l1.59-.66.79-.35a2.26,2.26,0,0,1,.67-.22,1.37,1.37,0,0,1,1.52,1.57,1.35,1.35,0,0,1-.7,1c-.48.3-1,.59-1.46.87A41.76,41.76,0,0,1,91.67,126a42.82,42.82,0,0,1-13.46.52,51.86,51.86,0,0,1-6.65-1.23,51.24,51.24,0,0,1-6.43-2.07,44.15,44.15,0,0,1-6-3,46.89,46.89,0,0,1-5.51-3.9,47.85,47.85,0,0,1-4.89-4.66,55.19,55.19,0,0,1-4.23-5.3,71,71,0,0,1-6.6-11.88,99.78,99.78,0,0,1-4.59-12.86c-.63-2.19-2.42-10.68-3-12.66,1.4-.36,2.58-.64,4-1l1.51-.3C36.22,69.68,38.18,78.15,38.74,80.37Zm86.18,9.86c-.89-.37-1.81-.74-2.63-1.15l-.14-.08h0s0,0,0,0,0,0,0,0l0,0,0-.06-.11-.08,0,0-.1-.06-.17-.09-.67-.33-17.75-4.51-2.66-1.22C97,81,93.48,79.4,90,77.59c-.87-.45-1.71-.91-2.55-1.42A14.2,14.2,0,0,0,84.79,75a34.2,34.2,0,0,0-5.72-1.35c-1-.15-1.94-.27-2.92-.36-.49,0-1-.08-1.48-.1-.24,0-.49,0-.74,0s-.48,0-.7,0A2.21,2.21,0,0,1,72,72.7,10.07,10.07,0,0,1,71,71.76c-.71-.67-1.45-1.33-2.22-2-.19-.16-.39-.3-.58-.45l-.3-.23-.32-.22a7.82,7.82,0,0,0-1.39-.69,15.75,15.75,0,0,0-2.89-.81,50.91,50.91,0,0,0-5.86-.71c-2-.15-3.91-.23-5.85-.34a42.45,42.45,0,0,1-5.71-.62,15.13,15.13,0,0,0-3-.25h-.75l-.75,0-.74,0-.74.08c-2,.21-3.91.56-5.83,1-3.76.79-23.87,7-27.52,8.21a7,7,0,0,1-2.64-2.31A13.46,13.46,0,0,1,2.13,69,24.71,24.71,0,0,1,1.25,65,29.61,29.61,0,0,1,1,61.29C2.3,60.7,20.09,55,21.46,54.4c.73-.3,1.48-.59,2.21-.86s1.51-.44,2.27-.66c1.52-.44,3-.88,4.58-1.29s2.76-.74,4.14-1.06l-.12.79,0,.21.11.09c.7.61,1.37,1.23,2,1.88S38,55,38.32,55.41a1.17,1.17,0,0,0,.4.3s3.51,1.29,5.1,2,5.34,2.78,5.34,2.78a.44.44,0,0,0,.51-.1l1-1.09c.31.32.7.78,1,1.09a.12.12,0,0,0,.21-.06,2.22,2.22,0,0,0-.46-1.8l.71-.77a.82.82,0,0,0,.21-.66.85.85,0,0,0-.13-.31.12.12,0,0,0,0-.05A13.32,13.32,0,0,0,53.36,56a12.53,12.53,0,0,1,1.23,1.33.12.12,0,0,0,.21-.06,2.22,2.22,0,0,0-.54-1.89l.2-.16c.3-.27.38-.58.3-.71A8.54,8.54,0,0,0,53,53a2.78,2.78,0,0,0,.38-.54,10.89,10.89,0,0,1,1.73.6.12.12,0,0,0,.16-.15,2.16,2.16,0,0,0-.8-1.12l3.6.77a43.82,43.82,0,0,0,4.38.61s0,0,0,0c.07.25.07.39.18.78a3,3,0,0,0,.42.79,11.11,11.11,0,0,0,2.15,2.13L66,59.06a.35.35,0,0,0,.39.23l.63-.12A10.32,10.32,0,0,1,67.2,61a.12.12,0,0,0,.2.07A2.31,2.31,0,0,0,68.06,59l.54-.1a.35.35,0,0,0,.29-.35l0-.85,1.19,1.82a.36.36,0,0,0,.49.1l.52-.36a9.49,9.49,0,0,1,1.09,1.58.12.12,0,0,0,.21,0A2.28,2.28,0,0,0,72,58.6l.25-.17a.35.35,0,0,0,.1-.47l-.63-1.05L73.76,58a.24.24,0,0,0,.33-.13l.22-.71c.37.25.82.62,1.14.87a.12.12,0,0,0,.19-.1,2.32,2.32,0,0,0-1-1.84l.08-.24a6.24,6.24,0,0,1,1.13.2l.06.14a3.11,3.11,0,0,0,.54.68c.18.2.38.39.57.58.62.58,1.78,1.59,2.27,2a.59.59,0,0,0,.32.13,9.33,9.33,0,0,1,.49,1.88.12.12,0,0,0,.21.05,2.32,2.32,0,0,0,.39-2.17.31.31,0,0,1,.19.11l1,1.3a.67.67,0,0,0,.5.26h.37l0,0c.21.06.43,1.28.57,2a.11.11,0,0,0,.2,0,2.25,2.25,0,0,0,.44-2,.42.42,0,0,0,.35-.55l-.4-1.18,1.66,1.12a.49.49,0,0,0,.65-.09l.22-.25a14.15,14.15,0,0,1,1.17,1.74.13.13,0,0,0,.24,0,2.39,2.39,0,0,0,0-1.58c1.45,1,3,1.9,4.46,2.8,2,1.18,4,2.26,6.06,3.33s20.52,6,22.59,7,3.94,1.89,5.93,2.79l0,7.65c0,2.4,0,4.81,0,7.21Z"/><path d="M93,16a4.72,4.72,0,0,1-.46-.26c-.15-.08-.28-.18-.42-.24l-.23-.11a1.13,1.13,0,0,1,.06.32.94.94,0,1,1-1.88,0,.91.91,0,0,1,.36-.72q-.42,0-.93-.06a1.7,1.7,0,0,1,.93-.6,2.08,2.08,0,0,1,1.16,0,2.12,2.12,0,0,1,1,.64,2,2,0,0,1,.3.47A2.18,2.18,0,0,1,93,16Z"/></svg>