<svg id="Layer_1" data-name="Layer 1" xmlns="http://www.w3.org/2000/svg" width="128" height="128" viewBox="0 0 128 128"><defs><style>.cls-1{fill:#a3917f;}.cls-2{fill:#876a54;}.cls-3{fill:#493f3e;}.cls-4{fill:#e5e1df;}</style></defs><title>Cuscus color</title><path d="M100.94,9l-.08,0A7,7,0,0,0,99.17,7.4a2.19,2.19,0,0,0-2.07-.33,1.8,1.8,0,0,0-1,1.66,3.84,3.84,0,0,0,.52,2.08l0,.08V11q0,.88.09,1.77c0,.58.11,1.17.2,1.75A9.53,9.53,0,0,0,98,17.9l-.07.06a4.81,4.81,0,0,1-1.19-1.46,7.65,7.65,0,0,1-.69-1.77,10.28,10.28,0,0,1-.27-3.66,4.52,4.52,0,0,1-.38-2.4,2.77,2.77,0,0,1,.44-1.25,2.1,2.1,0,0,1,1.07-.82,2,2,0,0,1,1.31,0,3.29,3.29,0,0,1,1.11.59A7.11,7.11,0,0,1,100.94,9Z"/><path class="cls-1" d="M127.12,96c-.7,2.71-2.35,4-4.12,5.23-10.81,7.74-22,10.08-37.14,12.08l-.3,0a71.11,71.11,0,0,1-16-.6l-.63-.1c-1.15-.87-2.32-1.66-3.44-2.48-.6-.44-1.21-.87-1.78-1.32a5.52,5.52,0,0,1-1.43-1.51c-.36-.62-.63-1.33-.95-2a13.42,13.42,0,0,0-1.12-2.08c0-.06-.08-.1-.11-.15a25.78,25.78,0,0,0,8.22,4.06c13.93,4,39.73-3.52,45.22-5.45l.22-.08a35.37,35.37,0,0,0,8-4.23,3.3,3.3,0,0,0,.24-4.85c-.26-.29-3.07-1.54-3-3.07a2.43,2.43,0,0,1,1-1.52c1.28-1.2,4,.47,5.85,2.25A6.2,6.2,0,0,1,127.12,96Z"/><path class="cls-2" d="M42.62,100.38c-1.68,2.27-8.28,18.3-8.82,19.32s-1.09,2.06-1.67,3.06a14.82,14.82,0,0,1-2,2.79,3.86,3.86,0,0,1-2.77,1.4l-3.51,0-14-.15-3.5,0-1.76,0H3.27a1.58,1.58,0,0,1-.32,0,2.15,2.15,0,0,1-1.52-2,2.75,2.75,0,0,1,.19-1.36l.72-1.56c2-4.23,4-17,6.19-21.18,1.08-2.06,2.16-4.12,3.3-6.15s2.25-4.06,3.47-6a45.29,45.29,0,0,1,3.93-5.61,12.79,12.79,0,0,1,1.14-1.18,5.34,5.34,0,0,1,.61-.48c.2-.15.48-.33.72-.49,1-.66,1.94-1.36,2.87-2.09q2.79-2.19,5.35-4.61c1.58-1.53,3.14-3.09,4.6-4.74a34.67,34.67,0,0,0-.49,14,32.88,32.88,0,0,0,2.5,8,38.05,38.05,0,0,0,4.33,7.15C41.42,99,42,99.7,42.62,100.38Z"/><path class="cls-3" d="M68.33,66.15c.93.38,1.85.64,2.77.93l1.35.44a7.94,7.94,0,0,1,1.16.52c-.2.36-.41.7-.63,1a2.15,2.15,0,0,0-.75-.75,6.16,6.16,0,0,0-1.15-.57,7.67,7.67,0,0,0-2.47-.52,10.93,10.93,0,0,0,2.25,1.11l1.14.42a4.71,4.71,0,0,1,.91.42l-.17.25-.24.29a.42.42,0,0,1-.25.12c-.2,0-.27-.06-.56-.25A4,4,0,0,0,70,69a3.85,3.85,0,0,0-1.75.27,20,20,0,0,1-2.62.15l-2.73,0c-.92,0-1.83,0-2.75.06s-1.68.08-2.53.18a4.3,4.3,0,0,0-1.86-1,10,10,0,0,0-2.2-.33l-.67,0,1.48-.13c1.06-.1,2.11-.24,3.17-.38l.79-.12.4-.06a3.28,3.28,0,0,0,.45-.11,5.72,5.72,0,0,0,1.59-.77A14.69,14.69,0,0,0,64,63.44l.54.1c.41.07.82.13,1.22.17.81.1,1.62.15,2.42.19h.1c.32,0,.68-.06,1-.07s.69,0,1,0,.68,0,1,0a6.42,6.42,0,0,1,.86.14,1.72,1.72,0,0,1-.06.62,5,5,0,0,1-.22.61l-.25-.08a15.11,15.11,0,0,0-1.52-.29,3.85,3.85,0,0,0-1.55,0,7.54,7.54,0,0,1,1.47.37l1.44.45,1.43.46a12.4,12.4,0,0,1,1.22.45c-.15.44-.32.88-.52,1.33a3.05,3.05,0,0,0-1-.87,6.27,6.27,0,0,0-1.38-.6,9.14,9.14,0,0,0-1.45-.31A5.78,5.78,0,0,0,68.33,66.15Z"/><path class="cls-2" d="M115,44.44a11.48,11.48,0,0,1-1.34,3.92,24.63,24.63,0,0,1-2.15,3.6,10.13,10.13,0,0,1-1.39,1.54l-1.56,1.44-6.26,5.75L89.76,72.2l-.55.5.65.35a5.63,5.63,0,0,0,2,.66,2.8,2.8,0,0,0,.58,0,1.87,1.87,0,0,0,.3,0h0a2.17,2.17,0,0,1,.1.28A9.45,9.45,0,0,1,93,75.7c0,.46,0,.93,0,1.4-.78.2-1.6.36-2.41.49s-1.92.27-2.88.34a33,33,0,0,1-5.8-.09h-.16c-1.42.23-2.85.43-4.27.7L75.39,79l-1.06.23-1,.29-2.09.59c-.69.21-1.37.47-2,.7-1.38.44-2.7,1-4.05,1.58a51.52,51.52,0,0,0-7.6,4.25c-.6.4-1.19.82-1.77,1.27s-1.14.91-1.7,1.38-1.1,1-1.63,1.48c-.26.25-.53.51-.78.78l-.34.36A34.42,34.42,0,0,1,48,83a32.31,32.31,0,0,1,.07-14.64,17,17,0,0,0,1.88.12c1.16.27,2.35.42,3.5.63a13.93,13.93,0,0,1,2,.51,3.65,3.65,0,0,1,1.53,1l.17.22.31,0c1.78-.1,3.61-.09,5.44-.14.91,0,1.83,0,2.75-.1a14.92,14.92,0,0,0,2.82-.36h.07l0,0a3.31,3.31,0,0,1,2.82-.07l.41.18a1,1,0,0,0,.58,0,.89.89,0,0,0,.44-.32,2.23,2.23,0,0,0,.22-.39A7.58,7.58,0,0,0,73.61,68l.15.08-.1-.15a4.86,4.86,0,0,0,1-1.4l.08-.15-.16-.12a6.74,6.74,0,0,0-1.43-.7c-.36-.14-.74-.24-1.11-.35a3.2,3.2,0,0,0,.4-.51,2.56,2.56,0,0,0,.23-.47,1.12,1.12,0,0,0,.07-.59v-.09l-.14-.1a4.91,4.91,0,0,0-2.18-.81,7.43,7.43,0,0,0-1.15-.09,8.44,8.44,0,0,0-1.11.06,17.54,17.54,0,0,0-2.4.12c-.41,0-.82.11-1.22.19l-.24,0c.26-.37.52-.75.76-1.13a44.91,44.91,0,0,0,3-5.7,7.38,7.38,0,0,0,.58-1.58,6.53,6.53,0,0,0,.15-1.7l0-.34c3.51-1.4,11.4-6.1,13.57-7.4.19.07.37.16.56.24a23.34,23.34,0,0,0,2.76.88,11.57,11.57,0,0,0,1.47.28,6.78,6.78,0,0,0,.79,0h.68c1.85,0,3.74.11,5.62.17l2.82.09.71,0a2.87,2.87,0,0,0,.42,0,1,1,0,0,0,.48-.22,3,3,0,0,0,.27-.3l.22-.27.45-.55.09-.11h0l.53.09a1.32,1.32,0,0,0,.62-.12,2.87,2.87,0,0,0,1-.55.9.9,0,0,0,.35-.68.52.52,0,0,0-.13-.3,1.14,1.14,0,0,0,.39-.5,1.47,1.47,0,0,0,.08-.25.74.74,0,0,0,0-.33.92.92,0,0,0-.36-.54,1.09,1.09,0,0,0-.3-.13l-.23-.05-.47-.07-.91,0c-1,0-2.06,0-3.08,0l1.07-.17.09,0a.44.44,0,0,0,.17-.06.59.59,0,0,0,.26-.3.56.56,0,0,0,0-.4l0-.19a1.07,1.07,0,0,0,0-.21.66.66,0,0,0-.26-.36.68.68,0,0,0-.44-.14l-.23,0a27.4,27.4,0,0,1-3,0,7.68,7.68,0,0,1-1.4-.16,3.12,3.12,0,0,1-1.17-.52,5.84,5.84,0,0,1-.78-.65l8.54-2.3,4.1-1.11a9.45,9.45,0,0,1,4.16-.21,8.58,8.58,0,0,1,6.15,5.12A8.08,8.08,0,0,1,115,44.44Z"/><path class="cls-3" d="M125.94,17.3a.67.67,0,0,0,.66.72,2.72,2.72,0,0,0,.14-1,2.85,2.85,0,0,0-1.29-2.32c-.94-.63-1.87-1.28-2.79-1.94a52.76,52.76,0,0,1-5.31-4.32l0,0,0,0a15.21,15.21,0,0,0-4.73-4.65,15.61,15.61,0,0,0-6.31-2.2,10.44,10.44,0,0,0-1.67-.08l-.41,0-.39.07-.86.18c-1.14.21-2.28.38-3.41.56-2.25.36-6.79,1.36-6.79,1.36a7.21,7.21,0,0,0-1.52-.16c-.51,0-1,.06-1.55.11-1,.09-2.09.16-3.13.19h-.09l-.1-.06A18.69,18.69,0,0,0,82.37,2a17.79,17.79,0,0,0-4.22-.68,20.91,20.91,0,0,0-4.26.28,19.17,19.17,0,0,0-4.06,1.14l-.69,0-.08,0-.16,0-.35-.08c-.25-.05-.5-.09-.76-.12-.51-.08-1-.13-1.57-.18-1.06-.08-2.13-.14-3.2-.17-2.14,0-4.3-.06-6.46,0a37.85,37.85,0,0,0-6.31.55,36.73,36.73,0,0,0-6.1,1.68,38.68,38.68,0,0,0-11,6.34,34.17,34.17,0,0,0-4.52,4.48,26,26,0,0,0-3.41,5.33,47.33,47.33,0,0,0-3.95,12.2,41.64,41.64,0,0,0-.7,6.39,26,26,0,0,0,.53,6.36q.18.78.42,1.53c.18.5.37,1,.56,1.51.4,1,.84,2,1.34,2.93a42.08,42.08,0,0,0,3.4,5.49,84.15,84.15,0,0,0,8.55,9.76l-.11.12.09,0a39.8,39.8,0,0,0-1.19,8.11A33.34,33.34,0,0,0,37.5,90.67a36,36,0,0,0,4.38,6.8,43.13,43.13,0,0,0,12.39,10.3A38.76,38.76,0,0,0,61.68,111a49.26,49.26,0,0,0,5.42,1.33,17.71,17.71,0,0,1-2.28-1.1,9.72,9.72,0,0,1-1.91-1.43,8.86,8.86,0,0,1-.82-.91,5.23,5.23,0,0,1-.68-1.07,20.77,20.77,0,0,1-.82-2.21,12.49,12.49,0,0,0-.9-2,9,9,0,0,0-1.19-1.75,30.55,30.55,0,0,1-3.81-3.82,33.35,33.35,0,0,1-2.87-4.09,1.27,1.27,0,0,1-.24.07v-.48a35,35,0,0,1-4-10.34,32.3,32.3,0,0,1,.69-16.36l.18.05c-.15.48-.27,1-.39,1.46a21.51,21.51,0,0,0,3-.32c1-.16,2.09-.34,3.12-.54l3.12-.61.77-.15.38-.08a3,3,0,0,0,.32-.09A4.61,4.61,0,0,0,60,65.78a11.84,11.84,0,0,0,2.15-2.1A28.68,28.68,0,0,0,64,61.19a44.22,44.22,0,0,0,3.13-5.43,6.63,6.63,0,0,0,.56-1.39,5.34,5.34,0,0,0,.17-1.45,9.06,9.06,0,0,0-.59-3,20.28,20.28,0,0,0-3.11-5.38,6.8,6.8,0,0,0-2.36-1.91,31.21,31.21,0,0,0-2.88-1.3l-2.26-.91a30,30,0,0,1-5.61.49,28.77,28.77,0,0,1-5.91-.6,19.21,19.21,0,0,1-5.62-2.1,7.82,7.82,0,0,1-3.8-4.51A9.28,9.28,0,0,0,40,37.39a25.08,25.08,0,0,0,5.41,1.72c.94.22,1.88.36,2.83.51l1.43.2q.72.06,1.44.15c1.78.17,3.56.28,5.37.41-1.15-.46-2.3-.94-3.41-1.48l0-.12c1.94.85,4,1.51,6,2.23,1,.37,2,.74,3,1.21a11.75,11.75,0,0,1,1.41.82,5.59,5.59,0,0,1,1.07,1c-.56-.75-1-1.56-1.63-2.32a24.74,24.74,0,0,0-2.14-2.44,15.83,15.83,0,0,0-2.48-2.13l.06-.11a15.11,15.11,0,0,1,2.84,1.76,26.59,26.59,0,0,1,2.48,2.26,12.83,12.83,0,0,1,2.15,2.61,10.93,10.93,0,0,1,.58,1.25,3,3,0,0,1,.56-.82,7.34,7.34,0,0,1,1.51-1.16,19.63,19.63,0,0,1,3.23-1.57,25.84,25.84,0,0,1,2.72-.83c-.42-.38-.82-.77-1.21-1.16a21.28,21.28,0,0,1-3.47-4.57c-.09-.18-.17-.37-.25-.56a8,8,0,0,1-1.57-1.13,6.92,6.92,0,0,1-1.49-2.18,8.07,8.07,0,0,1-.76-2.54c-.1-.86-.27-2.53-.06-2.57s.78,3.32,1.69,4.61c.45.66,1.07,1.17,1.55,1.83l.38.52c0-.29,0-.58,0-.87.1-.95.25-1.88.42-2.81s.35-1.86.56-2.78l.32-1.38c.13-.47.29-1.44.42-1.39a17.62,17.62,0,0,1-.5,2.82c-.17.92-.31,1.85-.44,2.78S69.79,31,69.74,32a7.55,7.55,0,0,0,0,1.35,4.19,4.19,0,0,0,.5,1.21,20.8,20.8,0,0,0,3.5,4.3,18.78,18.78,0,0,0,4.41,3.29,36.19,36.19,0,0,0,5.13,2.17,25.46,25.46,0,0,0,2.64.76,10.54,10.54,0,0,0,1.31.22,3.39,3.39,0,0,0,.63,0h.73c1,0,1.9.08,2.85.16l2.82.27c.94.1,1.88.22,2.81.35l.71.09c.29,0,.33.06.45,0l.75-.7c-.54-.21-1.08-.41-1.62-.64l0-.12,1.67.38c.21,0,.43-.06.64-.07l.51,0a1.15,1.15,0,0,0,.37-.14,7.73,7.73,0,0,0,.82-.47,1.31,1.31,0,0,0,.19-.17,0,0,0,0,0,0,0,1.11,1.11,0,0,0-.16-.12,7.54,7.54,0,0,0-1.92-.56c-.68-.14-1.37-.27-2-.44V43c.69.08,1.38.13,2.07.19a7.67,7.67,0,0,1,2.11.42.75.75,0,0,1,.21.12,1.57,1.57,0,0,0,.13-.47c0-.06,0-.14,0-.18a.34.34,0,0,0,0-.12.37.37,0,0,0-.17-.16.28.28,0,0,0-.12,0l-.2,0c-.14,0-.28-.07-.43-.09a8.34,8.34,0,0,0-.87-.16c-.59-.09-1.18-.16-1.78-.21s-1.19-.13-1.79-.17V42h.05l0-.07c.46-.25.94-.45,1.41-.67l.09,0a0,0,0,0,0,0,0h0s0,0,0,0l-.07-.18,0,0-.1,0a15.13,15.13,0,0,1-3.16.43,6.9,6.9,0,0,1-1.67-.14,4.38,4.38,0,0,1-1.62-.79,12.67,12.67,0,0,1-2.12-2.46l-.9-1.25-.46-.6a5.13,5.13,0,0,1-.45-.73,11.58,11.58,0,0,1-.93-3.06,21.79,21.79,0,0,1-.28-3.12,13.57,13.57,0,0,1,.07-1.56,4,4,0,0,1,.48-1.5c.08.06-.21,1-.23,1.51a13,13,0,0,0,.06,1.53,20.14,20.14,0,0,0,.52,3l.15.58a15,15,0,0,1,2.66-1.55c1-.48,2-.93,3-1.35s2-.8,3.08-1.17a25.22,25.22,0,0,1,3.2-.95c.69-.13,1.34-.23,2-.32h-.06c-.68-.12-1.34-.33-2-.48l-2-.48-.23,0L97,26.34c-.52-1.47-1.57-4.41-1.38-4.49s1.36,2.63,2,4l1.86.22c.68.08,1.37.11,2,.22a15.39,15.39,0,0,1,2,.5c.33.11.67.23,1,.36l1.38-.2,3.23-.45c1.07-.17,2.18-.3,3.18-.52l.11,0h.08a6,6,0,0,0,1.39-.14c.5-.09,1-.21,1.5-.33,1-.26,2-.55,3-.79a13.6,13.6,0,0,1,1.57-.3,5.59,5.59,0,0,0,1.44-.39,4.62,4.62,0,0,0,2-1.64,6.19,6.19,0,0,1-1.5.08l-.25,0-.2,0c-.12,0-.26,0-.39-.06a7,7,0,0,0-.8,0,10.21,10.21,0,0,0-1.65.14,7.91,7.91,0,0,0-.81.19,1.72,1.72,0,0,0-.71.32l-.11-.05a1.68,1.68,0,0,1,.73-.51,8,8,0,0,1,.82-.3,9.58,9.58,0,0,1,1.69-.36,8.64,8.64,0,0,1,.88,0c.15,0,.3,0,.45,0l.23,0h.17a6.21,6.21,0,0,0,1.55-.26c.27-.07.53-.15.79-.24a5.5,5.5,0,0,0,.73-.26,1.93,1.93,0,0,0,.92-.93c.09-.17.18-.49.27-.73l.1-.29a1.6,1.6,0,0,1-2.17-1.7C124.14,16.19,125.83,15.5,125.94,17.3ZM100.86,9A7,7,0,0,0,99.17,7.4a2.19,2.19,0,0,0-2.07-.33,1.8,1.8,0,0,0-1,1.66,3.84,3.84,0,0,0,.52,2.08l0,.08V11q0,.88.09,1.77c0,.58.11,1.17.2,1.75A9.53,9.53,0,0,0,98,17.9l-.07.06a4.81,4.81,0,0,1-1.19-1.46,7.65,7.65,0,0,1-.69-1.77,10.28,10.28,0,0,1-.27-3.66,4.52,4.52,0,0,1-.38-2.4,2.77,2.77,0,0,1,.44-1.25,2.1,2.1,0,0,1,1.07-.82,2,2,0,0,1,1.31,0,3.29,3.29,0,0,1,1.11.59A7.11,7.11,0,0,1,100.94,9Zm11.56,5.9c-1.64,0-3-2.28-3-2.28s1.33-2.29,3-2.29,3,2.29,3,2.29S114.07,14.92,112.42,14.92Z"/><path class="cls-4" d="M120.64,24.52c.17-.17,1.15-.41,1.52-.76a13.77,13.77,0,0,0,1.43-1.68s-3.23.1-4,.1a5.2,5.2,0,0,0-2.64.65c-1.33,1.26-4.12,1.37-6.21,1.73-4.45.76-9.11.67-10.15.07-1.53-.88-1.82-2-3.32-3s-1.43-.66-1.7.43c.74,1.43.42,1.94,1.28,3s-3.67,1.23-4.63,2.51-5.37.81-5.76.77A27.43,27.43,0,0,0,87.2,33s5.35-2.61,7.2-2.82c.92-.1,3.75-1.29,6.85-1.82s6.4-.73,7.33-.9c1.85-.33,5.09-1.06,5.09-1.06Z"/><path class="cls-4" d="M88.41,36.1c1,.65,2.86,2.39,2.18,2.67s-.51,1.19-1.52.4-.79-.47-1.75-2.06a14.59,14.59,0,0,1-2-4.39c-.49-1.8-.71-1.8-.58-3.43s-.3-2.18.44-1.73.71,1,1.1,2.13.35,3.54,1,4.52S88.41,36.1,88.41,36.1Z"/><path class="cls-4" d="M70,34.76c-.32.89-.47,2.47-1.66,2.62s-2.62.5-4.3.69-2,2.42-1.68,2.3,3.14,3.89,3.76,5,.47,0,1.15-.89,6-3.61,7.56-4c-.18-.34-2.48-2.44-3.13-3.36S70,34.76,70,34.76Z"/><path class="cls-4" d="M53.1,38.91s5.11.85,5.52-1.7C60.53,39.38,65.51,42,67,48.07c-.89-2.73-4.61-5.74-7.17-6.64S53.1,38.91,53.1,38.91Z"/><path class="cls-4" d="M52.56,40.48c.22.06,6.36,1.17,6.36,2.94,1.32-.36,5.69,4.09,7.2,7.39s.57,5.47.66,6.43a8,8,0,0,0,1-6.72c-.6-1.85-4.66-8.48-6.81-10-.75-.55-4.39-.07-4.39-.07Z"/><path d="M126,89.79a10.93,10.93,0,0,0-4.18-2.62,2.35,2.35,0,0,0-.7-.14,2.47,2.47,0,0,0-1.38.3,2.51,2.51,0,0,0-1.28,2.38A2.45,2.45,0,0,0,119,91a2.42,2.42,0,0,0,.51.5c.09.07.2.13.29.19l.21.12a7.45,7.45,0,0,1,.82.52,5,5,0,0,1,.69.57,2.65,2.65,0,0,1,.82,2.13c-.15.88,0,2.24-9,5.72-5.08,1.86-27.59,8.68-44.59,5.64l-.46-.11a27.15,27.15,0,0,1-13.2-8.73,32,32,0,0,1-2.86-4,2.22,2.22,0,0,0,.21-.2l.17-.2.35-.38c.23-.25.47-.5.72-.74.48-.49,1-1,1.51-1.43s1.05-.91,1.61-1.33,1.11-.85,1.68-1.25a48.59,48.59,0,0,1,7.27-4.21c1.29-.54,2.56-1.15,3.9-1.6.66-.23,1.31-.49,2-.7l2-.61,1-.3,1-.24,2.06-.49c1.36-.28,2.74-.49,4.11-.73a33.55,33.55,0,0,0,5.93,0c1-.09,2-.22,3-.39a29.24,29.24,0,0,0,3-.67l.4-.12v-.42c0-.65,0-1.29,0-1.94a9.58,9.58,0,0,0-.27-2,2.35,2.35,0,0,0-.23-.57,1.45,1.45,0,0,0-.27-.33.91.91,0,0,0-.57-.21,1.73,1.73,0,0,0-.27,0l-.08,0a.86.86,0,0,1-.17,0,2.16,2.16,0,0,1-.36,0,4.33,4.33,0,0,1-.9-.21l11.76-11.15L109,55.42,110.54,54A10.65,10.65,0,0,0,112,52.31a25,25,0,0,0,2.14-3.72,12.12,12.12,0,0,0,1.33-4.1,9.06,9.06,0,0,0-.35-4.43,8.78,8.78,0,0,0-6.27-5.38,11.84,11.84,0,0,0-4.71.19l-13,3.7c-.33-.35-.64-.73-1-1.11l-1-1.2-.52-.59a4.76,4.76,0,0,1-.39-.57,9.54,9.54,0,0,1-.87-2.18,22.34,22.34,0,0,1,2.82-1.17c1-.36,2.06-.7,3.1-1A63,63,0,0,1,99.56,29c2.1-.26,4.32-.53,6.47-.83l3.25-.5c1.08-.17,2.13-.36,3.24-.64a7.46,7.46,0,0,0,1.56-.2q.78-.21,1.53-.45c1-.32,2-.67,3-1,.5-.16,1-.3,1.48-.43a5.83,5.83,0,0,0,1.52-.58,4.52,4.52,0,0,0,1.87-2.05,1.52,1.52,0,0,0,.21,0l.86-.17a6.36,6.36,0,0,0,.87-.26,3,3,0,0,0,1.5-1.34,5.64,5.64,0,0,0,.36-.83l.33-.81a7,7,0,0,0,.3-.85,4.7,4.7,0,0,0,.12-1,4.18,4.18,0,0,0-1.82-3.39c-.93-.62-1.87-1.24-2.8-1.88a52.74,52.74,0,0,1-5.31-4A16.12,16.12,0,0,0,113,3,16.27,16.27,0,0,0,106.3.9a11.59,11.59,0,0,0-1.77,0l-.45.05-.45.1-.82.2c-1.12.25-2.25.46-3.38.68a57.52,57.52,0,0,0-6.7,1.55,7.83,7.83,0,0,0-1.53-.31c-.54,0-1.06,0-1.58,0-1,0-2,0-3,0a16.79,16.79,0,0,0-3.93-2,18.77,18.77,0,0,0-4.44-1,20.86,20.86,0,0,0-8.72,1l-.18-.05L68.9,1c-.28-.06-.57-.12-.84-.16C67.5.69,67,.62,66.39.56,65.29.44,64.19.36,63.1.3,60.91.16,58.72.16,56.54.17a34,34,0,0,0-13,2.45A40.09,40.09,0,0,0,32.17,9.49a36.54,36.54,0,0,0-4.63,4.76,27.64,27.64,0,0,0-3.49,5.67,48.84,48.84,0,0,0-3.83,12.57,33.55,33.55,0,0,0,.1,13.13c.14.53.3,1.07.49,1.59s.4,1,.61,1.53c.43,1,.91,2,1.43,3a44.19,44.19,0,0,0,3.58,5.49,83.77,83.77,0,0,0,8.78,9.56h0c-.21.69-.41,1.39-.58,2.09-1.72,1.53-3.46,3-5.26,4.47s-3.66,2.88-5.57,4.18q-.7.49-1.44,1c-.48.32-1,.63-1.46.92-.25.16-.48.28-.75.47a6.64,6.64,0,0,0-.79.57A12.76,12.76,0,0,0,18,81.68a41.85,41.85,0,0,0-4.28,5.73c-1.26,2-2.46,4-3.58,6.09s-2.19,4.16-3.22,6.26c-2.06,4.22-4,17.11-5.89,21.4L.28,122.8A4.06,4.06,0,0,0,0,124.87a3.93,3.93,0,0,0,.81,1.94A3.08,3.08,0,0,0,2.72,128a3.56,3.56,0,0,0,.55,0H4.58l1.76,0,3.5,0,14-.15,3.51,0a4.08,4.08,0,0,0,1.85-.52A6.12,6.12,0,0,0,30.65,126a15.23,15.23,0,0,0,2-3c.58-1,1.09-2.09,1.61-3.13s7.15-16.6,8.83-19a43.67,43.67,0,0,0,10.38,8.26,40.66,40.66,0,0,0,7.67,3.44c2.66.87,14.08,2.65,24.61,1.54,13.35-1.4,27.28-4.74,38.06-12.63a10.8,10.8,0,0,0,3.92-5.29,6.85,6.85,0,0,0-.39-4.52A8.59,8.59,0,0,0,126,89.79ZM100,36.58l4.1-1.11a9.45,9.45,0,0,1,4.16-.21,8.58,8.58,0,0,1,6.15,5.12,8.08,8.08,0,0,1,.59,4.06,11.48,11.48,0,0,1-1.34,3.92,24.63,24.63,0,0,1-2.15,3.6,10.13,10.13,0,0,1-1.39,1.54l-1.56,1.44-6.26,5.75L89.76,72.2l-.55.5.65.35a5.63,5.63,0,0,0,2,.66,2.8,2.8,0,0,0,.58,0,1.87,1.87,0,0,0,.3,0h0a2.17,2.17,0,0,1,.1.28A9.45,9.45,0,0,1,93,75.7c0,.46,0,.93,0,1.4-.78.2-1.6.36-2.41.49s-1.92.27-2.88.34a33,33,0,0,1-5.8-.09h-.16c-1.42.23-2.85.43-4.27.7L75.39,79l-1.06.23-1,.29-2.09.59c-.69.21-1.37.47-2,.7-1.38.44-2.7,1-4.05,1.58a51.52,51.52,0,0,0-7.6,4.25c-.6.4-1.19.82-1.77,1.27s-1.14.91-1.7,1.38-1.1,1-1.63,1.48c-.26.25-.53.51-.78.78l-.34.36A34.42,34.42,0,0,1,48,83a32.31,32.31,0,0,1,.07-14.64,17,17,0,0,0,1.88.12c1.16.27,2.35.42,3.5.63a13.93,13.93,0,0,1,2,.51,3.65,3.65,0,0,1,1.53,1l.17.22.31,0c1.78-.1,3.61-.09,5.44-.14.91,0,1.83,0,2.75-.1a14.92,14.92,0,0,0,2.82-.36h.07l0,0a3.31,3.31,0,0,1,2.82-.07l.41.18a1,1,0,0,0,.58,0,.89.89,0,0,0,.44-.32,2.23,2.23,0,0,0,.22-.39A7.58,7.58,0,0,0,73.61,68c-.2.36-.41.7-.63,1a2.15,2.15,0,0,0-.75-.75,6.16,6.16,0,0,0-1.15-.57,7.67,7.67,0,0,0-2.47-.52,10.93,10.93,0,0,0,2.25,1.11l1.14.42a4.71,4.71,0,0,1,.91.42l-.17.25-.24.29a.42.42,0,0,1-.25.12c-.2,0-.27-.06-.56-.25A4,4,0,0,0,70,69a3.85,3.85,0,0,0-1.75.27,20,20,0,0,1-2.62.15l-2.73,0c-.92,0-1.83,0-2.75.06s-1.68.08-2.53.18a4.3,4.3,0,0,0-1.86-1,10,10,0,0,0-2.2-.33l-.67,0,1.48-.13c1.06-.1,2.11-.24,3.17-.38l.79-.12.4-.06a3.28,3.28,0,0,0,.45-.11,5.72,5.72,0,0,0,1.59-.77A14.69,14.69,0,0,0,64,63.44l.54.1c.41.07.82.13,1.22.17.81.1,1.62.15,2.42.19h.1c.32,0,.68-.06,1-.07s.69,0,1,0,.68,0,1,0a6.42,6.42,0,0,1,.86.14,1.72,1.72,0,0,1-.06.62,5,5,0,0,1-.22.61l-.25-.08a15.11,15.11,0,0,0-1.52-.29,3.85,3.85,0,0,0-1.55,0,7.54,7.54,0,0,1,1.47.37l1.44.45,1.43.46a12.4,12.4,0,0,1,1.22.45c-.15.44-.32.88-.52,1.33a3.05,3.05,0,0,0-1-.87,6.27,6.27,0,0,0-1.38-.6,9.14,9.14,0,0,0-1.45-.31,5.78,5.78,0,0,0-1.5,0c.93.38,1.85.64,2.77.93l1.35.44a7.94,7.94,0,0,1,1.16.52l.15.08-.1-.15a4.86,4.86,0,0,0,1-1.4l.08-.15-.16-.12a6.74,6.74,0,0,0-1.43-.7c-.36-.14-.74-.24-1.11-.35a3.2,3.2,0,0,0,.4-.51,2.56,2.56,0,0,0,.23-.47,1.12,1.12,0,0,0,.07-.59v-.09l-.14-.1a4.91,4.91,0,0,0-2.18-.81,7.43,7.43,0,0,0-1.15-.09,8.44,8.44,0,0,0-1.11.06,17.54,17.54,0,0,0-2.4.12c-.41,0-.82.11-1.22.19l-.24,0c.26-.37.52-.75.76-1.13a44.91,44.91,0,0,0,3-5.7,7.38,7.38,0,0,0,.58-1.58,6.53,6.53,0,0,0,.15-1.7l0-.34c3.51-1.4,11.4-6.1,13.57-7.4.19.07.37.16.56.24a23.34,23.34,0,0,0,2.76.88,11.57,11.57,0,0,0,1.47.28,6.78,6.78,0,0,0,.79,0h.68c1.85,0,3.74.11,5.62.17l2.82.09.71,0a2.87,2.87,0,0,0,.42,0,1,1,0,0,0,.48-.22,3,3,0,0,0,.27-.3l.22-.27.45-.55.09-.11h0l.53.09a1.32,1.32,0,0,0,.62-.12,2.87,2.87,0,0,0,1-.55.9.9,0,0,0,.35-.68.52.52,0,0,0-.13-.3,1.14,1.14,0,0,0,.39-.5,1.47,1.47,0,0,0,.08-.25.74.74,0,0,0,0-.33.92.92,0,0,0-.36-.54,1.09,1.09,0,0,0-.3-.13l-.23-.05-.47-.07-.91,0c-1,0-2.06,0-3.08,0l1.07-.17.09,0a.44.44,0,0,0,.17-.06.59.59,0,0,0,.26-.3.56.56,0,0,0,0-.4l0-.19a1.07,1.07,0,0,0,0-.21.66.66,0,0,0-.26-.36.68.68,0,0,0-.44-.14l-.23,0a27.4,27.4,0,0,1-3,0,7.68,7.68,0,0,1-1.4-.16,3.12,3.12,0,0,1-1.17-.52,5.84,5.84,0,0,1-.78-.65ZM51.58,92v.45L51.34,92A.49.49,0,0,1,51.58,92ZM68.05,49.67c-.08-.19-.18-.37-.26-.56s-.08-.41-.12-.61-.13-.57-.18-.84a4.8,4.8,0,0,1-.08-1.54,2.77,2.77,0,0,1,.15-.66,2.4,2.4,0,0,1,.33-.56A5.35,5.35,0,0,1,69,43.76a18,18,0,0,1,2.91-1.82,25.55,25.55,0,0,1,2.65-1.24A16.43,16.43,0,0,0,77.7,43a38.43,38.43,0,0,0,3.59,1.76c-2,1.17-9.3,5.31-12.71,6.67A11.28,11.28,0,0,0,68.05,49.67Zm-34.25,70c-.55,1-1.09,2.06-1.67,3.06a14.82,14.82,0,0,1-2,2.79,3.86,3.86,0,0,1-2.77,1.4l-3.51,0-14-.15-3.5,0-1.76,0H3.27a1.58,1.58,0,0,1-.32,0,2.15,2.15,0,0,1-1.52-2,2.75,2.75,0,0,1,.19-1.36l.72-1.56c2-4.23,4-17,6.19-21.18,1.08-2.06,2.16-4.12,3.3-6.15s2.25-4.06,3.47-6a45.29,45.29,0,0,1,3.93-5.61,12.79,12.79,0,0,1,1.14-1.18,5.34,5.34,0,0,1,.61-.48c.2-.15.48-.33.72-.49,1-.66,1.94-1.36,2.87-2.09q2.79-2.19,5.35-4.61c1.58-1.53,3.14-3.09,4.6-4.74a34.67,34.67,0,0,0-.49,14,32.88,32.88,0,0,0,2.5,8,38.05,38.05,0,0,0,4.33,7.15c.56.72,1.15,1.42,1.76,2.1C40.94,102.65,34.34,118.68,33.8,119.7ZM61.68,111a38.76,38.76,0,0,1-7.41-3.18,43.13,43.13,0,0,1-12.39-10.3,36,36,0,0,1-4.38-6.8A33.34,33.34,0,0,1,34.17,74.9a39.8,39.8,0,0,1,1.19-8.11l-.09,0,.11-.12a84.15,84.15,0,0,1-8.55-9.76,42.08,42.08,0,0,1-3.4-5.49c-.5-1-.94-1.94-1.34-2.93-.19-.51-.38-1-.56-1.51s-.3-1-.42-1.53a26,26,0,0,1-.53-6.36,41.64,41.64,0,0,1,.7-6.39,47.33,47.33,0,0,1,3.95-12.2,26,26,0,0,1,3.41-5.33,34.17,34.17,0,0,1,4.52-4.48,38.68,38.68,0,0,1,11-6.34,36.73,36.73,0,0,1,6.1-1.68,37.85,37.85,0,0,1,6.31-.55c2.16,0,4.32,0,6.46,0,1.07,0,2.14.09,3.2.17.53.05,1.06.1,1.57.18.26,0,.51.07.76.12l.35.08.16,0,.08,0,.69,0a19.17,19.17,0,0,1,4.06-1.14,20.91,20.91,0,0,1,4.26-.28A17.79,17.79,0,0,1,82.37,2a18.69,18.69,0,0,1,3.95,1.72l.1.06h.09c1,0,2.09-.1,3.13-.19.52-.05,1-.1,1.55-.11a7.21,7.21,0,0,1,1.52.16s4.54-1,6.79-1.36c1.13-.18,2.27-.35,3.41-.56l.86-.18.39-.07.41,0a10.44,10.44,0,0,1,1.67.08,15.61,15.61,0,0,1,6.31,2.2,15.21,15.21,0,0,1,4.73,4.65l0,0,0,0a52.76,52.76,0,0,0,5.31,4.32c.92.66,1.85,1.31,2.79,1.94a2.85,2.85,0,0,1,1.29,2.32,2.72,2.72,0,0,1-.14,1,.67.67,0,0,1-.66-.72c-.11-1.8-1.8-1.11-1.83,0a1.6,1.6,0,0,0,2.17,1.7l-.1.29c-.09.24-.18.56-.27.73a1.93,1.93,0,0,1-.92.93,5.5,5.5,0,0,1-.73.26c-.26.09-.52.17-.79.24a6.21,6.21,0,0,1-1.55.26h-.17l-.23,0c-.15,0-.3,0-.45,0a8.64,8.64,0,0,0-.88,0,9.58,9.58,0,0,0-1.69.36,8,8,0,0,0-.82.3,1.68,1.68,0,0,0-.73.51l.11.05a1.72,1.72,0,0,1,.71-.32,7.91,7.91,0,0,1,.81-.19,10.21,10.21,0,0,1,1.65-.14,7,7,0,0,1,.8,0c.13,0,.27,0,.39.06l.2,0,.25,0a6.19,6.19,0,0,0,1.5-.08,4.62,4.62,0,0,1-2,1.64,5.59,5.59,0,0,1-1.44.39,13.6,13.6,0,0,0-1.57.3c-1,.24-2,.53-3,.79-.5.12-1,.24-1.5.33a6,6,0,0,1-1.39.14h-.08l-.11,0c-1,.22-2.11.35-3.18.52l-3.23.45-1.38.2c-.33-.13-.67-.25-1-.36a15.39,15.39,0,0,0-2-.5c-.67-.11-1.36-.14-2-.22l-1.86-.22c-.65-1.33-1.82-4-2-4s.86,3,1.38,4.49l.07.19.23,0,2,.48c.66.15,1.32.36,2,.48h.06c-.64.09-1.29.19-2,.32a25.22,25.22,0,0,0-3.2.95c-1,.37-2.07.75-3.08,1.17s-2,.87-3,1.35a15,15,0,0,0-2.66,1.55l-.15-.58a20.14,20.14,0,0,1-.52-3,13,13,0,0,1-.06-1.53c0-.5.31-1.45.23-1.51a4,4,0,0,0-.48,1.5,13.57,13.57,0,0,0-.07,1.56,21.79,21.79,0,0,0,.28,3.12,11.58,11.58,0,0,0,.93,3.06,5.13,5.13,0,0,0,.45.73l.46.6.9,1.25a12.67,12.67,0,0,0,2.12,2.46,4.38,4.38,0,0,0,1.62.79,6.9,6.9,0,0,0,1.67.14A15.13,15.13,0,0,0,97.93,41l.1,0,0,0,.07.18s0,0,0,0h0a0,0,0,0,1,0,0l-.09,0c-.47.22-.95.42-1.41.67l0,.07h-.05v.07c.6,0,1.2.1,1.79.17s1.19.12,1.78.21a8.34,8.34,0,0,1,.87.16c.15,0,.29.06.43.09l.2,0a.28.28,0,0,1,.12,0A.37.37,0,0,1,102,43a.34.34,0,0,1,0,.12s0,.12,0,.18a1.57,1.57,0,0,1-.13.47.75.75,0,0,0-.21-.12,7.67,7.67,0,0,0-2.11-.42c-.69-.06-1.38-.11-2.07-.19v.06c.67.17,1.36.3,2,.44a7.54,7.54,0,0,1,1.92.56,1.11,1.11,0,0,1,.16.12,0,0,0,0,1,0,0,1.31,1.31,0,0,1-.19.17,7.73,7.73,0,0,1-.82.47,1.15,1.15,0,0,1-.37.14l-.51,0c-.21,0-.43,0-.64.07l-1.67-.38,0,.12c.54.23,1.08.43,1.62.64l-.75.7c-.12.07-.16.05-.45,0l-.71-.09c-.93-.13-1.87-.25-2.81-.35l-2.82-.27c-.95-.08-1.89-.14-2.85-.16h-.73a3.39,3.39,0,0,1-.63,0A10.54,10.54,0,0,1,85.94,45a25.46,25.46,0,0,1-2.64-.76,36.19,36.19,0,0,1-5.13-2.17,18.78,18.78,0,0,1-4.41-3.29,20.8,20.8,0,0,1-3.5-4.3,4.19,4.19,0,0,1-.5-1.21,7.55,7.55,0,0,1,0-1.35c.05-.93.16-1.87.29-2.8s.27-1.86.44-2.78a17.62,17.62,0,0,0,.5-2.82c-.13-.05-.29.92-.42,1.39l-.32,1.38c-.21.92-.4,1.85-.56,2.78s-.32,1.86-.42,2.81c0,.29,0,.58,0,.87l-.38-.52c-.48-.66-1.1-1.17-1.55-1.83-.91-1.29-1.46-4.61-1.69-4.61s0,1.71.06,2.57a8.07,8.07,0,0,0,.76,2.54,6.92,6.92,0,0,0,1.49,2.18,8,8,0,0,0,1.57,1.13c.08.19.16.38.25.56a21.28,21.28,0,0,0,3.47,4.57c.39.39.79.78,1.21,1.16a25.84,25.84,0,0,0-2.72.83,19.63,19.63,0,0,0-3.23,1.57,7.34,7.34,0,0,0-1.51,1.16,3,3,0,0,0-.56.82,10.93,10.93,0,0,0-.58-1.25,12.83,12.83,0,0,0-2.15-2.61,26.59,26.59,0,0,0-2.48-2.26A15.11,15.11,0,0,0,58.33,37l-.06.11a15.83,15.83,0,0,1,2.48,2.13,24.74,24.74,0,0,1,2.14,2.44c.59.76,1.07,1.57,1.63,2.32a5.59,5.59,0,0,0-1.07-1A11.75,11.75,0,0,0,62,42.22c-1-.47-2-.84-3-1.21-2-.72-4-1.38-6-2.23l0,.12c1.11.54,2.26,1,3.41,1.48-1.81-.13-3.59-.24-5.37-.41q-.72-.09-1.44-.15l-1.43-.2c-1-.15-1.89-.29-2.83-.51A25.08,25.08,0,0,1,40,37.39a9.28,9.28,0,0,1-4.27-3.65,7.82,7.82,0,0,0,3.8,4.51,19.21,19.21,0,0,0,5.62,2.1,28.77,28.77,0,0,0,5.91.6,30,30,0,0,0,5.61-.49l2.26.91a31.21,31.21,0,0,1,2.88,1.3,6.8,6.8,0,0,1,2.36,1.91A20.28,20.28,0,0,1,67.28,50a9.06,9.06,0,0,1,.59,3,5.34,5.34,0,0,1-.17,1.45,6.63,6.63,0,0,1-.56,1.39A44.22,44.22,0,0,1,64,61.19a28.68,28.68,0,0,1-1.85,2.49A11.84,11.84,0,0,1,60,65.78a4.61,4.61,0,0,1-1.22.68,3,3,0,0,1-.32.09l-.38.08-.77.15-3.12.61c-1,.2-2.08.38-3.12.54a21.51,21.51,0,0,1-3,.32c.12-.49.24-1,.39-1.46l-.18-.05a32.3,32.3,0,0,0-.69,16.36,35,35,0,0,0,4,10.34v.48a1.27,1.27,0,0,0,.24-.07,33.35,33.35,0,0,0,2.87,4.09,30.55,30.55,0,0,0,3.81,3.82,9,9,0,0,1,1.19,1.75,12.49,12.49,0,0,1,.9,2,20.77,20.77,0,0,0,.82,2.21,5.23,5.23,0,0,0,.68,1.07,8.86,8.86,0,0,0,.82.91,9.72,9.72,0,0,0,1.91,1.43,17.71,17.71,0,0,0,2.28,1.1A49.26,49.26,0,0,1,61.68,111Zm65.44-15c-.7,2.71-2.35,4-4.12,5.23-10.81,7.74-22,10.08-37.14,12.08l-.3,0a71.11,71.11,0,0,1-16-.6l-.63-.1c-1.15-.87-2.32-1.66-3.44-2.48-.6-.44-1.21-.87-1.78-1.32a5.52,5.52,0,0,1-1.43-1.51c-.36-.62-.63-1.33-.95-2a13.42,13.42,0,0,0-1.12-2.08c0-.06-.08-.1-.11-.15a25.78,25.78,0,0,0,8.22,4.06c13.93,4,39.73-3.52,45.22-5.45l.22-.08a35.37,35.37,0,0,0,8-4.23,3.3,3.3,0,0,0,.24-4.85c-.26-.29-3.07-1.54-3-3.07a2.43,2.43,0,0,1,1-1.52c1.28-1.2,4,.47,5.85,2.25A6.2,6.2,0,0,1,127.12,96Z"/><path d="M115.4,12.64s-1.33,2.28-3,2.28-3-2.28-3-2.28,1.33-2.29,3-2.29S115.4,12.64,115.4,12.64Z"/></svg>