<svg id="Layer_1" data-name="Layer 1" xmlns="http://www.w3.org/2000/svg" width="128" height="128" viewBox="0 0 128 128"><defs><style>.cls-1{fill:#726b6f;}.cls-2{fill:#493632;}.cls-3{fill:#54433e;}.cls-4{fill:#dcc18c;}.cls-5{fill:#c39b55;}</style></defs><title>Echidna color</title><path class="cls-1" d="M18.7,96.63a21.23,21.23,0,0,0-3,.59c-1.89.51-3.64,1.31-5.49,1.78s-3.7,1-5.57,1.41c-.93.21-1.89.42-2.8.55-.42.05-.77,0-.9-.23a1.47,1.47,0,0,1-.09-1,7.51,7.51,0,0,1,.52-.86,3.69,3.69,0,0,1,.68-.74,2.71,2.71,0,0,1,.87-.47L4,97.3c1.43-.42,2.86-.89,4.27-1.43A31,31,0,0,0,12.38,94a10.55,10.55,0,0,0,3.41-2.85.07.07,0,0,1,.09,0,6.81,6.81,0,0,1,1.47,1,3.94,3.94,0,0,1,1.07,1.31A4.56,4.56,0,0,1,18.76,95,5.52,5.52,0,0,1,18.7,96.63Z"/><path class="cls-2" d="M40.57,79.41c.25.81.58,4,.86,4.81l-.26,1.85c0,.49.49,1.15.53,1.6l.77.51c.21.82,1,3.36,1.23,3.84.1.23.33.52.22.74s-.69.73-.88,1a2.39,2.39,0,0,0-.47,1,11.5,11.5,0,0,1-.18,3.05,1.84,1.84,0,0,1-.09.25c1.56.27,5.16,1.63,5.79,1.59l.11,0a9.07,9.07,0,0,0,1.49.4c.51.1,1.05.18,1.56.32s1,.31,1.46.48l.11,0a14,14,0,0,0,2.71.05,5.62,5.62,0,0,1-.93-.76l-.37-.37.5.08c.79.14,1.59.28,2.38.38s1.61.17,2.41.31a14.52,14.52,0,0,1,2.34.66,12.9,12.9,0,0,1,2.18,1l0,0c.6,0,2-.12,3.11-.07-.38-.14-.76-.29-1.13-.45a12.19,12.19,0,0,1-1.29-.68,2.43,2.43,0,0,1-.61-.43,4.44,4.44,0,0,1-.47-.61,15.93,15.93,0,0,1,2.87.17c.67.09,1.34.21,2,.36l.8.19a29.1,29.1,0,0,1,4,1.44c.53,0,1.55,0,2,0l-.07-.09.06-.09.2-.27,0-.09.08,0c.65.12,1.29.23,1.94.32s1.31.13,2,.24,1.27.28,1.9.44l1.23.35,2.81.63c1.44.31,3,.64,3.38.67l.44,0c.59,0,1.18.1,1.77.13,1.19,0,2.38.07,3.55.06s2.36-.06,3.56,0a14.08,14.08,0,0,1,2.45.41c.35.08,1.75,0,3,.09,1.06,0,2.22.42,2.74.41a.8.8,0,0,0,.16-.21,1.14,1.14,0,0,0-.4-.31c-.41-.25-.77-.55-1.07-.76l0-.08h0a11.37,11.37,0,0,1,3.94.18,8.58,8.58,0,0,1,1.88.72,7.22,7.22,0,0,1,.86.54.91.91,0,0,1,.37.5.38.38,0,0,1,0,.1,6.17,6.17,0,0,0,2.06.25h.71l1.38-.38c.74-.2,1.46-.42,2.19-.64l-.5-.2a2.5,2.5,0,0,1-1.07-.75,1.84,1.84,0,0,1-.34-.85,9.46,9.46,0,0,1-1.68.08,2.74,2.74,0,0,1-1-.17h0a1.77,1.77,0,0,1-.31-.15,2.11,2.11,0,0,1-.8-1l-.07-.19h.18a20.78,20.78,0,0,0,2.35-.34l1.39-.29a4.67,4.67,0,0,0-.07-1.11c-.21,0-.41,0-.62-.08a6.72,6.72,0,0,1-2-.76A3.4,3.4,0,0,1,112.59,98a5.94,5.94,0,0,1,1,0,.75.75,0,0,0-.11-.36c-.21,0-.42,0-.64,0a6.8,6.8,0,0,1-1.18-.15,4.32,4.32,0,0,1-1.16-.4,2.2,2.2,0,0,1-.89-.9,2.28,2.28,0,0,1-.26-1.21c.94.17,2,.39,3.06.62h0s.41-.71.7-1.17l-.07-1.39,0-.35,0-.12.11,0a20.77,20.77,0,0,0,2.33-.44c.77-.19,1.57-.43,2.38-.61l.53-.1a20.92,20.92,0,0,0-.63-3.61c-.3,0-.59,0-.89,0-.62,0-1.22,0-1.84,0a4.94,4.94,0,0,1-1.82-.67l-.15-.06,0-.14,0-.33v-.1l.07,0c.28-.15.55-.32.85-.47a6,6,0,0,1,.93-.32,7.36,7.36,0,0,1,1.93-.2l.29,0-1-2.71c-.52-.16-1-.36-1.52-.55,0,0-.15-1.43.14-1.47l.45-.05c-.33-.18-.9-.47-1.09-.56-.72.31-.6-.74.21-.79a17.55,17.55,0,0,0-.8-1.79c-.36-.14-.11-1,.37-1-.28-.66-1.23-2.32-1.23-2.32v0l-.5-.13-1-.25-.36.29-1.28-1,.45-.23a12.5,12.5,0,0,1-1.56-.91c-.11.12-.22.23-.34.34-.31.28-.81-.77-.39-.87a26.82,26.82,0,0,1-3.13-3l-.64.3-1.28-1.12c.32-.17.72-.48,1.13-.67a13.46,13.46,0,0,1-3-.13,1.32,1.32,0,0,1,.49-.57c-1.49-.59-2.87-1.3-4.26-2l-.91-.48c-.52.43-1,.88-1.57,1.31l-1-1.52c.42-.19.84-.35,1.27-.51-.65-.36-1.59-.9-2.33-1.36a19.11,19.11,0,0,1-1.92.69,11.9,11.9,0,0,1-3,.49,4.56,4.56,0,0,1,1.08-1.07A11.94,11.94,0,0,1,90,61.09,7.2,7.2,0,0,1,86.76,60c-.3.15-.59.32-.88.47l-.62.32.18-.7a1.39,1.39,0,0,0,.13-.44v-.1c-1.11.33-2.23.65-3.35,1l-.31.09.12-.28a4.37,4.37,0,0,1,.74-1.29c-.69.2-1-.18-1.58-.28-.15,0-.47,0-.62,0-.62.8-6.36,1-5.1-.06l.71-.53c-.37.1-1,.15-1.21-.17l-2.74-.08a5.91,5.91,0,0,0-2.46.51c-.39.47-4.08.58-3.45-.21a4.77,4.77,0,0,0-1.87,1.25c-1.47,2.26-3,.36-2.25-.62a11.47,11.47,0,0,0-2.54,1.09c-.16.22-.3.42-.48.64a4,4,0,0,1-.63.55c-.46.31-.87.55-1.38.84a8.54,8.54,0,0,1,.42-2.15,10.19,10.19,0,0,1-1.23.6,5.31,5.31,0,0,1-1.28.31,7.83,7.83,0,0,1-1.26,1.18l-.48.36.19-.54c.05-.13.11-.25.16-.37-.5.23-2,1-2.42,1.21-.41.78-2.19,1-2,.77-.84.57-2.89,2.13-3.6,2.62-.39.25-.53.2-.57.07a2.87,2.87,0,0,0-.37.11,13.9,13.9,0,0,0-2.21,1.16c-.43.33-1.16,1.28-1.54,1.58-.07.17-.15.34-.23.51-.36.75-.78,1.48-1.21,2.2-.09.13-.44.62-.52.75.32-.07.86.48,1.08.71.12-.32.2.29-.08.39a44.14,44.14,0,0,0,.32,5.06Z"/><path class="cls-3" d="M114,103c0,.07,0,3.66,0,3.73l-.26.07-2.59.67-.65-.3a9.38,9.38,0,0,0-1.22-.48c-.42-.13-.84-.23-1.26-.34l-.63-.18a2.12,2.12,0,0,0-.69,0h-.09l0,.1-.08.19-.06.12.13.09a7.34,7.34,0,0,0,1,.78c.41.2.78.37,1.18.54l1.62.71a14.48,14.48,0,0,0-1.3,4.19c-.31,1.59.13,3.4-.4,3.78a1.9,1.9,0,0,1-.78.34c-.34.09-.69.14-1.09.22-.77.14-1.52.32-2.27.51l-2.9.78c.52-.46,1.09-.9,1.66-1.36a14.29,14.29,0,0,0,1.62-1.4,6.18,6.18,0,0,0,1.26-1.94,10.52,10.52,0,0,0,.55-4.23l-.17,0A20.66,20.66,0,0,1,105,113.3a5.67,5.67,0,0,1-1.18,1.35c-.47.39-1,.75-1.59,1.17a10.64,10.64,0,0,0-3,3.2,4.6,4.6,0,0,0-.62,2.32,4.16,4.16,0,0,0,.19,1.18s0,0,0,0a2.35,2.35,0,0,0-1,.17,3,3,0,0,0-1.31,1.12,4,4,0,0,0-1.86.23,1.86,1.86,0,0,0-.9.81,2.11,2.11,0,0,0-.21.8,5.21,5.21,0,0,1-1.74-.45c-.64-.28-1.25-.67-1.93-1a5.31,5.31,0,0,1,.2-.56,1.16,1.16,0,0,1,.92-.8v-.17a1.12,1.12,0,0,0-.76.19,1.87,1.87,0,0,0-.55.57,10,10,0,0,0-.52.95,1.9,1.9,0,0,1-.9-1,2.33,2.33,0,0,1,.21-1.64,3.65,3.65,0,0,1,.47-.73l.34-.38a3.33,3.33,0,0,0,.36-.56,4.5,4.5,0,0,0,.39-2.41,15.33,15.33,0,0,0-1.1-4.22,8.29,8.29,0,0,0-1.11-2,5,5,0,0,0-2-1.49,22.46,22.46,0,0,0-4.2-.93,15.25,15.25,0,0,1-1.9-.53,17.5,17.5,0,0,0-2.09-.57,39.46,39.46,0,0,0-8.38-.79h-.13l-.1.05a9.59,9.59,0,0,0-3.46,3.59,25.66,25.66,0,0,0-2,4.38,26.71,26.71,0,0,0-1.28,4.63,13.87,13.87,0,0,1-1.3,3.51,2.4,2.4,0,0,1-1.36,1.28,6.4,6.4,0,0,1-1.61.22c-.56-.06-1.13-.34-1.73-.39a2,2,0,0,0,0-.24,1.58,1.58,0,0,0-.47-.8,1.76,1.76,0,0,0-.81-.4h-.11a1.21,1.21,0,0,0-.29-.48,1.59,1.59,0,0,0-1.11-.46,3.42,3.42,0,0,0-.81.08,1.56,1.56,0,0,0-.24-.35,2,2,0,0,0-.76-.5l.05,0c.39-.22.8-.44,1.22-.69l.32-.19.16-.1.24-.2a1.89,1.89,0,0,0,.54-1A7.3,7.3,0,0,0,54,116l-.28-1.35a5.09,5.09,0,0,1-.14-1.2l0-.35-.24-.19a6.62,6.62,0,0,1-1.2-1.49c-.38-.58-.74-1.19-1.11-1.79a17,17,0,0,0-2.6-3.48l-.06-.07-.07,0a19.05,19.05,0,0,1-4.18-2.45c-1.15-.81-2.27-1.71-3.48-2.46,0,0,1.21-2.57,1.59-3.55a12.79,12.79,0,0,1,2,.6c.85.37,22.77,2,24.85,2.31Z"/><path class="cls-3" d="M43,88.66c-.12-.1-.7-.7-.7-.7a9.93,9.93,0,0,0,.23-2.37,8.85,8.85,0,0,1-1.77.17,7.64,7.64,0,0,1-2.14-.31,8,8,0,0,1,1.91-1l.86-.27a.82.82,0,0,0,.58-1c-.42-1.2-1.08-3.17-1.39-3.79l-.34.2-.29-.2a3.24,3.24,0,0,0,.34-.89c0-.23-.3-5-.3-5l0,0v-.05a3.47,3.47,0,0,1,.16-.55,1.9,1.9,0,0,0-1-.75,12,12,0,0,1-1.11,1.55s-2.19.56-3.36.88c-.44.11-3,1-3.5,1.18a23.2,23.2,0,0,0-6.15,3.84A31.79,31.79,0,0,0,20.16,85c-.24.33-.48.66-.71,1l-.66,1L18,88a35.8,35.8,0,0,1-2.14,3s-.07.11-.06.15a7.48,7.48,0,0,1,1.75.63,4.36,4.36,0,0,1,.74.56,4,4,0,0,1,.29.29.79.79,0,0,1,.17.2,2.47,2.47,0,0,1,.21.27,3.08,3.08,0,0,1,.61,1.9,2.45,2.45,0,0,1-.68,1.59,12.09,12.09,0,0,1,1.34,0,17,17,0,0,1,2.37,0c.84,0,1.66.26,2.46.37a18.26,18.26,0,0,0,2.43.21,8.51,8.51,0,0,0,2.31-.2l.16,0,.16.06c1.64.59,3.31,1.14,5,1.64,1.47.44,3,.81,4.44,1.11A19.85,19.85,0,0,0,40.8,97.3a18,18,0,0,0,1-2.67,1.66,1.66,0,0,1,.5-.89c.27-.28.62-.69.87-.94a.82.82,0,0,0,.21-.67A20.13,20.13,0,0,1,43,88.66ZM23.46,93.13a1.75,1.75,0,1,1,1.74-1.74A1.74,1.74,0,0,1,23.46,93.13ZM40.07,81.59h.8l-.69.32c-.53.24-1.07.45-1.6.67a15.09,15.09,0,0,1-1.62.63,6.4,6.4,0,0,1-1.74.18,5.67,5.67,0,0,1-1.74-.29A5.74,5.74,0,0,1,35,82.29a9.78,9.78,0,0,1,1.66-.47A16.81,16.81,0,0,1,40.07,81.59Zm-7.55-4.28a6.45,6.45,0,0,0,1.25-.45c.41-.19.84-.41,1.27-.56a13.24,13.24,0,0,1,2.47-.58,2.85,2.85,0,0,1,.24.3l0,.06-.08.07a17.39,17.39,0,0,1-2.57,1.71l-.69.35a3.65,3.65,0,0,1-.74.32.92.92,0,0,1-.52,0,.8.8,0,0,1-.39-.32,3.79,3.79,0,0,1-.35-.74l0-.12ZM29.85,83a2,2,0,0,1-1.6-.15,3.81,3.81,0,0,1,1.1-1.16A6,6,0,0,1,30.78,81a15.71,15.71,0,0,1,3-.55l1-.1-.87.42a11.55,11.55,0,0,0-1.35.72c-.43.28-.84.61-1.28.89A4.78,4.78,0,0,1,29.85,83Zm12.4,7.22h-.11a17.59,17.59,0,0,1-3.08-.06l-.76-.1a3.77,3.77,0,0,1-.8-.16.87.87,0,0,1-.43-.3.85.85,0,0,1-.14-.48,3.8,3.8,0,0,1,.14-.8l0-.13.12,0a8.58,8.58,0,0,0,1.28.34c.45.08.92.14,1.36.26a13.31,13.31,0,0,1,2.37.92c0,.11,0,.24,0,.38Z"/><path class="cls-2" d="M52.75,118.53c-.58,0-1.15-.1-1.69-.2A6.44,6.44,0,0,1,50,118a2.43,2.43,0,0,1-.63-.36,1,1,0,0,1,.08-.18,5.19,5.19,0,0,1,.28-.46l.16-.25.08-.14.12-.22a2.58,2.58,0,0,0,.11-1.73c-.11-.47-.26-.86-.39-1.25a8.93,8.93,0,0,1-.5-2.26l0-.65a5,5,0,0,0-.14-.69,5.91,5.91,0,0,0-.52-1.24,12.14,12.14,0,0,0-2.51-2.86,12.89,12.89,0,0,0,1.81,1,18.15,18.15,0,0,1,2.25,3.39c.34.62.67,1.25,1,1.87a8.27,8.27,0,0,0,1.15,1.61,6.88,6.88,0,0,0,.1,1.25l.21,1.37A7,7,0,0,1,52.75,118.53Z"/><path class="cls-4" d="M32.8,78.21a.8.8,0,0,0,.39.32.92.92,0,0,0,.52,0,3.65,3.65,0,0,0,.74-.32l.69-.35a19.12,19.12,0,0,0,2.57-1.71l.08-.07,0-.07c-.08-.11-.17-.21-.24-.29A13.24,13.24,0,0,0,35,76.3c-.43.15-.86.37-1.27.56a7.19,7.19,0,0,1-1.25.45l-.11,0,0,.13A3.79,3.79,0,0,0,32.8,78.21Z"/><path class="cls-5" d="M38.66,85.45a7.64,7.64,0,0,0,2.14.31,9,9,0,0,0,2.13-.23,16.58,16.58,0,0,0,2-.74c.65-.27,1.31-.53,2-.84l.7-.33h-.8a23.55,23.55,0,0,0-4.18.32,14.64,14.64,0,0,0-2,.55A8,8,0,0,0,38.66,85.45Z"/><path class="cls-5" d="M38.58,82.59c.53-.23,1.07-.43,1.6-.67l.69-.32h-.8a17.56,17.56,0,0,0-3.39.22,12.05,12.05,0,0,0-1.66.47,6.08,6.08,0,0,0-1.54.83,5.67,5.67,0,0,0,1.74.29A6.4,6.4,0,0,0,37,83.22,15.09,15.09,0,0,0,38.58,82.59Z"/><path class="cls-4" d="M50.88,90.13A9.09,9.09,0,0,0,49,89.2a12.49,12.49,0,0,0-2-.57c-.69-.12-1.39-.16-2.08-.24s-1.36-.21-2.05-.34L42.34,88l.36.38a5.63,5.63,0,0,0,1.82,1.21,11,11,0,0,0,2.06.66,12,12,0,0,0,2.15.22A6.15,6.15,0,0,0,50.88,90.13Z"/><path class="cls-4" d="M42.23,89.74a13.31,13.31,0,0,0-2.37-.92,12.58,12.58,0,0,0-1.36-.27,7.5,7.5,0,0,1-1.28-.33l-.12,0,0,.13a3.8,3.8,0,0,0-.14.8.85.85,0,0,0,.14.48.87.87,0,0,0,.43.3,3.77,3.77,0,0,0,.8.16l.76.1a17.59,17.59,0,0,0,3.08.06h.11v-.08C42.25,90,42.24,89.85,42.23,89.74Z"/><path class="cls-4" d="M64.23,98.64a.72.72,0,0,0,.29.13l.47.12A3.51,3.51,0,0,0,66,99a18.49,18.49,0,0,0,2-.16A26.1,26.1,0,0,0,71.83,98a31.75,31.75,0,0,0,3.68-1.35c.6-.24,1.19-.52,1.79-.77l.89-.41a3.71,3.71,0,0,0,.53-.26,1,1,0,0,0,.24,0A18.22,18.22,0,0,0,81,95.07a28.22,28.22,0,0,0,4.08-.88A33.69,33.69,0,0,0,89,92.76c.64-.25,1.27-.54,1.91-.81l.94-.43.47-.21L92.8,91l0,0v0l-.08-.2c-2.59.33-5.4.76-8.15,1.34-1.39.3-2.71.67-4.06.94-.68.15-1.36.28-2,.4-.34.06-.68.1-1,.19A1,1,0,0,0,77,94a.78.78,0,0,0-.17.28.49.49,0,0,0,.06.38,1,1,0,0,0,.21.24.73.73,0,0,0,.3.13h0c-2,.28-4,.61-6.08,1-1.31.29-2.55.64-3.83.9-.63.14-1.27.26-1.91.37-.32.07-.63.1-1,.19a.85.85,0,0,0-.48.28A.68.68,0,0,0,64,98a.43.43,0,0,0,.06.37A.72.72,0,0,0,64.23,98.64Z"/><path class="cls-5" d="M60.64,96.85a4.13,4.13,0,0,0,.88-.07q.42,0,.84-.12A23.64,23.64,0,0,0,65.68,96c1.09-.35,2.14-.78,3.18-1.22.52-.24,1-.44,1.55-.71l.76-.38a1.47,1.47,0,0,0,.7-.61l.14-.27H71.7a6.71,6.71,0,0,0-.82-.06c-.32,0-.54.09-.82.13l-1.58.28c-1,.19-2.1.39-3.14.62s-2.09.48-3.12.74l-1.56.41a1.66,1.66,0,0,0-.75.37l-.64.53a2.14,2.14,0,0,0,.53.72A1.4,1.4,0,0,0,60.64,96.85Z"/><path class="cls-4" d="M91.44,102.2a20.91,20.91,0,0,0,6.75-1.62h0v0l0-.16a5.23,5.23,0,0,0-1.74-.24c-.57,0-1.15,0-1.72,0-1.16,0-2.31,0-3.46,0s-2.29.17-3.44.22a12.42,12.42,0,0,0-1.73.24c-.28.05-.56.11-.85.15a1.06,1.06,0,0,0-.44.21.7.7,0,0,0-.2.19l0,.08a.27.27,0,0,0,0,.09v0l0,0,0,.12a1.8,1.8,0,0,0,.25.4,1.43,1.43,0,0,0,.15.18.56.56,0,0,0,.3.16,7.16,7.16,0,0,0,.9,0c.57,0,1.15,0,1.73,0C89.13,102.31,90.29,102.3,91.44,102.2Z"/><path class="cls-4" d="M101.86,105.3a19.41,19.41,0,0,0-3.54-.68c-1.2-.06-2.39,0-3.56,0s-2.36,0-3.55-.06c-.59,0-1.18-.08-1.77-.13a4,4,0,0,0-.92,0,1.23,1.23,0,0,0-.48.16.38.38,0,0,0-.12.15l0,.13a.75.75,0,0,0,0,.26.91.91,0,0,0,.67.81,7.14,7.14,0,0,0,.91.17c.58.1,1.16.21,1.75.29a17.33,17.33,0,0,0,3.6.21c1.2-.06,2.38-.21,3.56-.37.59-.08,1.17-.19,1.76-.28l.88-.15a3,3,0,0,0,.87-.22l0,0v0Z"/><path class="cls-5" d="M71.2,100.58a2.2,2.2,0,0,0,.52.17l.49.09a7.5,7.5,0,0,0,2,0c1.27-.09,2.54-.18,3.81-.3s2.53-.27,3.8-.42A16.89,16.89,0,0,0,85.47,99c-1.12,0-2.35-.14-3.68-.21-.65,0-1.33,0-2,0s-1.24.05-1.86.07c-1.24.08-2.48.22-3.72.28-.62,0-1.24,0-1.86.06h-.94a3,3,0,0,0-.89.41l-.21.09.17.17C70.74,100,70.85,100.34,71.2,100.58Z"/><path class="cls-4" d="M90.87,97a26.07,26.07,0,0,1,3.85-.1l0-.32a41.1,41.1,0,0,0-7.75-.9,31.75,31.75,0,0,0-3.9.21,24.8,24.8,0,0,0-3.84.74l-.05,0v0l0,.45a17.77,17.77,0,0,0,3.89.48A31.46,31.46,0,0,0,87,97.43C88.31,97.3,89.58,97.08,90.87,97Z"/><path class="cls-4" d="M75.45,103.26l-.77-.38a30.4,30.4,0,0,0-5.31-2,24.3,24.3,0,0,0-2.8-.55,15.93,15.93,0,0,0-2.87-.17,4.44,4.44,0,0,0,.47.61,2.71,2.71,0,0,0,.61.43,14.37,14.37,0,0,0,1.29.68,12.29,12.29,0,0,0,2.77.9,25.74,25.74,0,0,0,2.89.3c1,.07,1.92.13,2.88.17Z"/><path class="cls-4" d="M52.37,96.83a10.28,10.28,0,0,0,2.47-.27,20.94,20.94,0,0,0,2.34-.83c.76-.31,1.51-.63,2.26-1l.69-.34h-.8a30.5,30.5,0,0,0-4.85.39,16.14,16.14,0,0,0-2.36.64,9.77,9.77,0,0,0-2.24,1.07A9.78,9.78,0,0,0,52.37,96.83Z"/><path class="cls-4" d="M59.52,100.68c-.8-.14-1.61-.21-2.41-.31s-1.59-.24-2.38-.38l-.5-.08.37.37a6.48,6.48,0,0,0,2.11,1.38,13,13,0,0,0,2.39.76,13.85,13.85,0,0,0,2.49.27,8,8,0,0,0,2.5-.31,12.09,12.09,0,0,0-2.23-1A14.52,14.52,0,0,0,59.52,100.68Z"/><path class="cls-4" d="M79.68,102.3c-.65-.11-1.3-.17-2-.24s-1.29-.2-1.94-.32l-.08,0,0,.09-.2.27-.06.09.07.09c.18.26.23.67.67.94a5.62,5.62,0,0,0,1,.44,9.2,9.2,0,0,0,2.13.4,11,11,0,0,0,2.15-.07,5.33,5.33,0,0,0,2.08-.66c-.69-.26-1.28-.38-1.92-.57S80.32,102.42,79.68,102.3Z"/><path class="cls-5" d="M52.71,100.94c-.47-.17-1-.34-1.46-.48s-1-.22-1.56-.32a9.07,9.07,0,0,1-1.49-.4l-.11,0,0,.13a3.93,3.93,0,0,0-.15.93.91.91,0,0,0,.16.54,1,1,0,0,0,.47.33,4.9,4.9,0,0,0,.93.18l.88.11a25.15,25.15,0,0,0,3.58.1H54v-.09c0-.15,0-.3,0-.43C53.63,101.3,53.17,101.13,52.71,100.94Z"/><path class="cls-5" d="M94.09,102.36a8.9,8.9,0,0,0-2.35.66,14.11,14.11,0,0,0,2.38.61,13.89,13.89,0,0,0,2.42.25,16.5,16.5,0,0,0,2.43-.22,6.25,6.25,0,0,0,2.35-.7l.32-.19-.38-.12a10.75,10.75,0,0,0-2.38-.45,18,18,0,0,0-4.79.16Z"/><path class="cls-4" d="M75.31,103.81a4,4,0,0,0-1.26-.31,2.47,2.47,0,0,0-1.3.28,1.62,1.62,0,0,0,.86,1,3.38,3.38,0,0,0,1.24.39c.43,0,.85,0,1.27,0a7.53,7.53,0,0,1,1.23.21l.76.17-.66-.5A10.54,10.54,0,0,0,75.31,103.81Z"/><path class="cls-4" d="M30,75.71a3.35,3.35,0,0,0,.65-1.12c.13-.41.19-.83.31-1.23a8.28,8.28,0,0,1,.47-1.16l.35-.7-.64.53a11,11,0,0,0-1.74,1.8A4.13,4.13,0,0,0,28.8,75a2.46,2.46,0,0,0,0,1.32A1.62,1.62,0,0,0,30,75.71Z"/><path class="cls-4" d="M34.8,80.35l-1,.09a16.55,16.55,0,0,0-3,.56,5.64,5.64,0,0,0-1.43.67,3.81,3.81,0,0,0-1.1,1.16,2.09,2.09,0,0,0,1.6.15,4.94,4.94,0,0,0,1.46-.6c.43-.28.84-.61,1.27-.89a10.22,10.22,0,0,1,1.35-.72Z"/><path class="cls-4" d="M34,74.27a5.19,5.19,0,0,0,.69-1.47c.15-.51.24-1,.38-1.55a13.41,13.41,0,0,1,.54-1.5l.39-.92-.7.77a17,17,0,0,0-1.92,2.53,6,6,0,0,0-.63,1.5C32.6,74.19,33.66,74.73,34,74.27Z"/><path class="cls-4" d="M95.1,69a4.55,4.55,0,0,0,.52-.55c.14-.21.24-.43.37-.63l0,0,0,0-.17-.15a4.43,4.43,0,0,0-.69.26l-.63.33-1.26.67-2.49,1.37c-1.65.94-3.31,1.86-4.93,2.85l-4.82,3c-.79.53-1.54,1.12-2.3,1.69l-1.12.88a2,2,0,0,0-.3.24,1.46,1.46,0,0,0-.2.33c-.11.23-.19.46-.29.65l-.07.14.15.08c.2.09.4.24.62.36a1.46,1.46,0,0,0,.38.17.77.77,0,0,0,.45,0c.48-.09,1-.18,1.45-.29a9.63,9.63,0,0,0,1.44-.46,9.82,9.82,0,0,0,1.32-.74,53.71,53.71,0,0,0,4.83-3.39c1.55-1.2,3-2.48,4.51-3.79.73-.65,1.44-1.33,2.16-2Z"/><path class="cls-4" d="M87,77.59a.67.67,0,0,0-.3.68,2.79,2.79,0,0,0,.31.6,2,2,0,0,0,.42.53.92.92,0,0,0,.73.23,3.53,3.53,0,0,0,.64-.19l.59-.2c.79-.27,1.59-.52,2.36-.86a11.91,11.91,0,0,0,2.21-1.25c.69-.46,1.37-.95,2.06-1.42,1.37-.94,2.72-1.91,4.07-2.88l2-1.49A13.89,13.89,0,0,0,104,69.75l0,0,0,0-.1-.14c-1.63.52-3.12,1.21-4.66,1.85s-3.05,1.34-4.55,2.06-3,1.46-4.45,2.28L88.09,77C87.72,77.18,87.36,77.34,87,77.59Z"/><path class="cls-4" d="M109.83,76.58l-.59.38-1.18.78c-.78.52-1.57,1-2.33,1.58A39.46,39.46,0,0,1,101,82.26,55.27,55.27,0,0,1,96,84.59l-2.62,1A26.85,26.85,0,0,0,90.87,87h0v0l.06.32a4.93,4.93,0,0,0,1.48.24c.49-.06,1-.12,1.46-.21a26.31,26.31,0,0,0,2.88-.6,18.44,18.44,0,0,0,2.78-1A15.43,15.43,0,0,0,102,84.25c1.58-1.14,3.13-2.33,4.74-3.44a12,12,0,0,0,3.94-4.32L111,76l-.54.28Z"/><path class="cls-4" d="M78.1,72.3c.6-.52,1.18-1.06,1.76-1.61q.44-.41.84-.84l.42-.42a6,6,0,0,0,.35-.53c-.34.1-.77.16-1.19.29s-.74.27-1.11.43c-.72.32-1.45.63-2.16,1A44.23,44.23,0,0,0,72.88,73c-1.33.86-2.6,1.8-3.9,2.68-.65.45-1.31.89-2,1.31-.17.12-.33.2-.5.34a2.27,2.27,0,0,0-.41.47c-.24.33-.42.69-.64,1l-.06.08,0,.1.22.39.06.1h.12c.37,0,.76,0,1.2,0a1.68,1.68,0,0,0,.63-.21l.53-.27c.7-.36,1.4-.74,2.09-1.14a47,47,0,0,0,4-2.54A46.25,46.25,0,0,0,78.1,72.3Z"/><path class="cls-4" d="M70.62,59.91l-1.87,2.24-.46.56a1.27,1.27,0,0,0-.31.73,1.39,1.39,0,0,0,.22.73,4,4,0,0,0,.45.62c.6-.65,1.31-1.41,1.86-2.12a20.91,20.91,0,0,1,1.88-2c1.3-1.33,2.61-2.64,3.86-4L80,52.52c.64-.68,1.27-1.36,1.92-2l1-1,.49-.5c.18-.19.29-.4.43-.57l.07-.1-.08-.09-.2-.24-.09-.11-.13.09a53.75,53.75,0,0,0-4.84,3.3c-1.47,1.34-2.77,2.76-4.08,4.21S71.88,58.42,70.62,59.91Z"/><path class="cls-4" d="M64.65,60.52A11.89,11.89,0,0,0,64,61.6a12,12,0,0,0-.58,1.13l-.26.58-.19.61a5.66,5.66,0,0,0-.24,1.28A29.63,29.63,0,0,0,66.48,62c1.15-1.15,2.26-2.34,3.3-3.59s2-2.56,3-3.8A46.53,46.53,0,0,1,76.11,51l.35-.36-.48.08-.65.1a3.23,3.23,0,0,0-.62.21,7,7,0,0,0-1.17.55,17.73,17.73,0,0,0-2.1,1.44,31.05,31.05,0,0,0-3.69,3.47A28.68,28.68,0,0,0,64.65,60.52Z"/><path class="cls-4" d="M70.06,85.86c-1.55.71-3,1.43-4.58,2.26a2.09,2.09,0,0,0,1,1,2,2,0,0,0,1.38,0c.86-.24,1.72-.48,2.56-.79a38,38,0,0,0,4.9-2.13c1.58-.83,3.07-1.81,4.63-2.66.77-.44,1.56-.83,2.34-1.25l1.19-.61a4,4,0,0,0,1.11-.81l.52-.53-.72.22q-2.43.73-4.83,1.58c-1.6.55-3.2,1.13-4.77,1.76S71.61,85.16,70.06,85.86Z"/><path class="cls-5" d="M81.23,70.83c-.65.55-1.23,1.12-1.84,1.68C78.2,73.66,77,74.85,75.82,76c-.59.57-1.22,1.1-1.84,1.66a10.41,10.41,0,0,0-.93.86.5.5,0,0,0-.11.4.93.93,0,0,0,.15.35c.13.18.26.34.4.5l.08.1.13-.06a17.28,17.28,0,0,0,4.08-2.61,34.13,34.13,0,0,0,3.48-3.32c1.1-1.17,2.11-2.42,3.09-3.69a45.21,45.21,0,0,0,2.73-4c-1.18,1-2.49,2-3.85,3Z"/><path class="cls-4" d="M77.11,60.1a35.22,35.22,0,0,0-3.71,2.71c-1.17,1-2.27,2-3.41,3.07-.56.52-1.14,1-1.71,1.52-.26.25-.66.46-.75,1A1.62,1.62,0,0,0,68,69.5l.08.11.15-.08A27.32,27.32,0,0,0,72,67.24a34.72,34.72,0,0,0,3.4-2.76c1.07-1,2.07-2.05,3-3.13a42.4,42.4,0,0,0,2.77-3.41A24.86,24.86,0,0,0,77.11,60.1Z"/><path class="cls-5" d="M84,60.29c-.83.37-1.59.7-2.38,1.1a16.74,16.74,0,0,0-2.23,1.35c-1.43,1-2.85,2-4.25,3S72.43,67.85,71,68.85l-1,.76a8.73,8.73,0,0,0-1,.79c-.32.3-.61.63-.9.95l-.22.24a1,1,0,0,0-.19.31c-.09.22-.15.42-.24.61l-.16.36.38-.13a23.87,23.87,0,0,0,4.58-2.43c1.44-.94,2.86-1.91,4.22-3s2.71-2.12,4-3.24,2.56-2.29,3.76-3.52l0,0v0Z"/><path class="cls-4" d="M97.82,62.25a32.19,32.19,0,0,0-4.11,1.43,15.59,15.59,0,0,0-1.92,1.06c-.62.42-1.15.88-1.73,1.32-1.12.91-2.2,1.86-3.34,2.74-.56.45-1.14.88-1.72,1.3a3.69,3.69,0,0,0-.81.77,1,1,0,0,0-.21.58c0,.19,0,.37,0,.53l0,.18h.2c.15,0,.33,0,.52,0a1.19,1.19,0,0,0,.32,0,1.06,1.06,0,0,0,.28-.13l.94-.5a17.19,17.19,0,0,0,1.84-1.1c1.15-.85,2.27-1.7,3.38-2.57s2.2-1.77,3.29-2.67c.55-.44,1.08-.91,1.62-1.36l.81-.7A4.53,4.53,0,0,1,98,62.5l0,0,0,0Z"/><path class="cls-5" d="M62.52,58.4c-.82,1.14-1.65,2.24-2.46,3.4a12.72,12.72,0,0,0-.83,1.94l-.17.5a1,1,0,0,0-.11.56,3.72,3.72,0,0,0,.32,1l.1.27.2-.22a49.29,49.29,0,0,0,4.89-6.43,78.07,78.07,0,0,0,4-7l0,0,0,0-.27-.23-1.51,1.43-.78.77c-.24.26-.46.53-.68.8C64.26,56.21,63.37,57.29,62.52,58.4Z"/><path class="cls-4" d="M95.39,88.22c-.81.14-1.63.21-2.46.33a2.13,2.13,0,0,0-1.18.56,2.48,2.48,0,0,0-.53,1.21l0,.22h.24A49.37,49.37,0,0,0,101,89.17c1.57-.38,3.12-.86,4.65-1.39a37.88,37.88,0,0,0,4.49-1.89c-1.52.26-3.12.47-4.79.69s-3.41.5-5.07.83S97,88,95.39,88.22Z"/><path class="cls-4" d="M87.89,56.35l-3.25,1.58A6.47,6.47,0,0,0,83,58.8a4.11,4.11,0,0,0-1,1.55l-.12.29.31-.09c1.12-.31,2.24-.63,3.35-1v.1a1.39,1.39,0,0,1-.13.44l-.18.7.62-.32c1.6-.82,3.21-1.72,4.73-2.65S93.6,56,95,55.23a9.46,9.46,0,0,0-3.67-.08,11.15,11.15,0,0,0-1.78.48C89,55.83,88.44,56.1,87.89,56.35Z"/><path class="cls-4" d="M73.25,93a5.41,5.41,0,0,0,.93-.07l.89-.13A27.09,27.09,0,0,0,78.6,92,36,36,0,0,0,82,90.71c.55-.25,1.11-.47,1.64-.75l.81-.4a1.58,1.58,0,0,0,.73-.65l.15-.27H85a7.41,7.41,0,0,0-.86-.06c-.34,0-.58.09-.87.13L81.57,89c-1.11.21-2.23.41-3.33.66s-2.21.51-3.32.77l-1.64.43a1.87,1.87,0,0,0-.8.39l-.68.56a2,2,0,0,0,.56.76A1.59,1.59,0,0,0,73.25,93Z"/><path class="cls-5" d="M124.52,87.09a25.57,25.57,0,0,0-3.7-1.07,28.77,28.77,0,0,0-3.82-.53,7.36,7.36,0,0,0-1.93.19,6,6,0,0,0-.93.33c-.3.15-.57.32-.85.46l-.07,0v.1l0,.33,0,.14.15,0a4.77,4.77,0,0,0,1.82.68c.62,0,1.22,0,1.84,0,1.22,0,2.44.13,3.66.26s2.44.27,3.66.45l1.84.25a5.19,5.19,0,0,0,1.89,0A16.76,16.76,0,0,0,124.52,87.09Z"/><path class="cls-5" d="M79.44,55.71c-1.35.95-2.69,1.91-4,3s-2.44,2.22-3.6,3.39-2.29,2.37-3.36,3.64l-.08.09.09.11.31.39.11.13.14-.11c2.56-2.06,5.08-4.15,7.55-6.31,1.24-1.06,2.46-2.16,3.68-3.26s2.41-2.22,3.59-3.36l0,0,0,0L83.62,53C82.16,53.9,80.81,54.78,79.44,55.71Z"/><path class="cls-4" d="M123.37,81.64a23.74,23.74,0,0,0-3.32-.74,22.55,22.55,0,0,0-3.39-.24,12,12,0,0,0-1.7.13,4,4,0,0,0-.84.2,1.5,1.5,0,0,0-.76.45,1.93,1.93,0,0,0,.29.34,3.18,3.18,0,0,0,.4.17l.77.31c.51.19,1,.4,1.56.57a13.19,13.19,0,0,0,1.65.39,15.85,15.85,0,0,0,1.67.13c1.11,0,2.22,0,3.32,0s2.21.05,3.31.14l.45,0-.32-.33a4.88,4.88,0,0,0-1.48-.94A13.51,13.51,0,0,0,123.37,81.64Z"/><path class="cls-4" d="M104.46,65.18a11.45,11.45,0,0,0-1.89.58,4.6,4.6,0,0,0-.88.46A1.73,1.73,0,0,0,101,67a15.64,15.64,0,0,0,3.8.08l3.73-.38c1.25-.08,2.49-.22,3.74-.29s2.5-.09,3.75-.08h.58l-.5-.31a9.7,9.7,0,0,0-3.79-1.12,25.84,25.84,0,0,0-3.93-.16A24.46,24.46,0,0,0,104.46,65.18Z"/><path class="cls-4" d="M52,85.79c.55-.18,1-.36,1.53-.55,1-.37,2-.74,3-1.14s2-.83,2.94-1.26a22.75,22.75,0,0,0,2.84-1.51l0,0,0,0-.09-.21a31.74,31.74,0,0,0-3.27.41,19.1,19.1,0,0,0-3.17.89c-1,.39-2,.82-3.06,1.13a4.93,4.93,0,0,0-1.47.77,4.8,4.8,0,0,0-1.07,1.3l-.14.26h.31A6.55,6.55,0,0,0,52,85.79Z"/><path class="cls-4" d="M57.18,62c.51-.29.92-.53,1.38-.84a4.6,4.6,0,0,0,.63-.55c.18-.22.32-.42.48-.64.6-.87,1.22-1.71,1.77-2.61s1.06-1.83,1.62-2.72,1.18-1.74,1.81-2.59l.67-.9-.92.68A29.17,29.17,0,0,0,59.74,56,11.78,11.78,0,0,0,58,58.79,9,9,0,0,0,57.18,62Z"/><path class="cls-4" d="M79.53,66a23.62,23.62,0,0,0-2.78,1.86,15.17,15.17,0,0,0-2.44,2.31,15.67,15.67,0,0,0,3.23-1,18.57,18.57,0,0,0,3-1.5,31.19,31.19,0,0,0,2.7-2c.88-.68,1.75-1.37,2.59-2.1l.68-.59-.86.3A38,38,0,0,0,79.53,66Z"/><path class="cls-5" d="M56.78,69.35a27.68,27.68,0,0,0-2,2.09c-.63.71-1.26,1.42-1.87,2.15l-.05.07,0,.1.12.31,0,.12.14,0c.22,0,.46,0,.74,0a.87.87,0,0,0,.42-.17l.3-.21c.4-.28.79-.58,1.17-.89a23.56,23.56,0,0,0,2.16-2c.68-.7,1.3-1.44,1.91-2.2a21.72,21.72,0,0,0,1.68-2.43,15.52,15.52,0,0,0-2.56,1.35A19.1,19.1,0,0,0,56.78,69.35Z"/><path class="cls-4" d="M110.23,82.1c.79-.33,1.53-.74,2.29-1.12a25.2,25.2,0,0,1,2.32-1l.1,0v-.13l0-.25,0-.15h-.17c-.87.05-1.74.11-2.6.2s-1.73.34-2.54.41a4.09,4.09,0,0,0-1.35.29A5.11,5.11,0,0,0,107,81a22.26,22.26,0,0,0-1.87,1.89,8.29,8.29,0,0,0,2.59-.08A11.86,11.86,0,0,0,110.23,82.1Z"/><path class="cls-5" d="M53.72,88.85l-.46.09A1.54,1.54,0,0,0,53,89a.37.37,0,0,0-.16.15.28.28,0,0,0,0,.28.93.93,0,0,0,.43.29l.41.16a14.93,14.93,0,0,1,1.62.6,4.1,4.1,0,0,0,1,.64,1.66,1.66,0,0,0,1.22,0c.75-.23,1.51-.45,2.24-.73s1.46-.58,2.18-.89a14.4,14.4,0,0,0,2.12-1h0l.06,0v-.06l0-.28V88H64c-1.15,0-2.3.13-3.46.19s-2.34.7-3.31.61A19.29,19.29,0,0,0,53.72,88.85Z"/><path class="cls-4" d="M59.14,84.31a2.35,2.35,0,0,0-1.17.92,2.12,2.12,0,0,0-.26,1.42,11.54,11.54,0,0,0,2.58-.59,19.69,19.69,0,0,0,2.42-1c.77-.41,1.5-.89,2.26-1.31a22.88,22.88,0,0,1,2.34-1.13l.94-.38-1,.09a21.42,21.42,0,0,0-2.74.52c-.9.22-1.8.42-2.69.66S60,84,59.14,84.31Z"/><path class="cls-5" d="M70.93,82.94a14.18,14.18,0,0,0-2.44,1,22.62,22.62,0,0,0-2.23,1.33c-.72.49-1.4,1-2.11,1.54a1.89,1.89,0,0,0,.38.63.87.87,0,0,0,.72.31,1.91,1.91,0,0,0,.72-.24c.21-.1.41-.21.61-.32.81-.44,1.63-.85,2.4-1.36s1.52-1,2.31-1.51c.39-.24.8-.45,1.2-.67l.62-.31a2.58,2.58,0,0,0,.34-.19c.12-.12.16-.19.24-.27l.32-.34-.49,0A10.79,10.79,0,0,0,70.93,82.94Z"/><path class="cls-5" d="M104.6,67.28a3.59,3.59,0,0,0-1.72.46c-1,.5-2.07,1-3.06,1.54l-1.49.85c-.48.3-1,.6-1.47.88-1,.55-2,1.06-3,1.55l-.15.07.08.17.09.22.07.15.18-.06c1-.37,2.11-.77,3.17-1.2s2.12-.85,3.14-1.31c2.06-.92,4-1.86,5.88-2.71a2.46,2.46,0,0,0-.79-.43A2.93,2.93,0,0,0,104.6,67.28Z"/><path class="cls-4" d="M67.09,92.64a17.76,17.76,0,0,0,2.48-.87c.81-.33,1.61-.66,2.4-1l.69-.34h-.8a33,33,0,0,0-5.14.43,18.18,18.18,0,0,0-2.51.66,10.71,10.71,0,0,0-2.37,1.13,10.34,10.34,0,0,0,2.63.32A11,11,0,0,0,67.09,92.64Z"/><path class="cls-4" d="M60.39,71c-.81.66-1.57,1.37-2.35,2.07s-1.57,1.35-2.37,2l-.1.09.08.13.25.36.09.14.16-.1c1.77-1.07,3.53-2.17,5.2-3.42.83-.63,1.62-1.31,2.39-2A17,17,0,0,0,65.87,68,15,15,0,0,0,63,69.3,22.69,22.69,0,0,0,60.39,71Z"/><path class="cls-5" d="M54.11,81c.82-.6,1.57-1.27,2.34-1.92l2.31-1.93L60,76.06l-1.48.79c-1.76.94-3.55,1.8-5.29,2.82a21.08,21.08,0,0,0-2.48,1.72,11.4,11.4,0,0,0-2.14,2.19A14.57,14.57,0,0,0,51.5,82.5,18.89,18.89,0,0,0,54.11,81Z"/><path class="cls-4" d="M66.28,69.77c-.29.16-.53.32-.8.48-.52.33-1,.65-1.55,1s-1,.73-1.49,1.11l-.72.59a1,1,0,0,0-.28.44c0,.16-.1.26-.17.46l.45.25a.67.67,0,0,0,.55.1,7.94,7.94,0,0,0,.95-.28,4,4,0,0,0,.89-.47c.26-.19.51-.4.75-.61.48-.44.93-.91,1.43-1.31.25-.2.5-.39.77-.58s.31-.66.44-.91l.13-.24h-.3C67.05,69.8,66.78,69.58,66.28,69.77Z"/><path class="cls-5" d="M46.12,69.38l-.34,1,.65-.79c1.24-1.52,2.44-3.07,3.52-4.7.53-.83,1-1.68,1.48-2.55a16.41,16.41,0,0,0,1.15-2.75,27.5,27.5,0,0,0-2,2.18,22.71,22.71,0,0,0-1.8,2.34c-.53.84-1,1.73-1.42,2.61A26.24,26.24,0,0,0,46.12,69.38Z"/><path class="cls-5" d="M107.36,73.23a10.32,10.32,0,0,0,1-.79,4.67,4.67,0,0,0,.44-.45l.2-.25c.07-.11.1-.23.15-.31a7.52,7.52,0,0,0-2.43.5A11,11,0,0,0,104.49,73c-.68.46-1.3,1-2,1.45a16.65,16.65,0,0,1-2,1.27l-.27.15.21-.25-.11-.1s-.09,0-.09,0l0,0-.22.06-.44.13-.87.25-1.73.52c-1.15.37-2.31.71-3.43,1.17s-2.21,1-3.29,1.56c-.54.27-1.08.54-1.61.83l-.39.22a.88.88,0,0,0-.44.28,1.75,1.75,0,0,0-.29,1,.29.29,0,0,0,.06.19.45.45,0,0,0,.12.12,1,1,0,0,0,.25.13,1.14,1.14,0,0,0,.54.09l.91-.18a7.83,7.83,0,0,0,1.77-.59c1.07-.57,2.14-1.13,3.19-1.72s2.09-1.22,3.12-1.84L99,76.79l.77-.49a1.9,1.9,0,0,0,.37-.28.34.34,0,0,0,.06-.06l.34.1a2.4,2.4,0,0,0,1.34-.06c.37-.1.74-.23,1.09-.36-1.4.66-2.77,1.33-4.14,2-.85.46-1.71.92-2.55,1.41s-1.65,1-2.5,1.47A37.8,37.8,0,0,1,88.52,83c-.91.36-1.82.66-2.75.94-.46.16-.92.26-1.4.45a1.06,1.06,0,0,0-.6.56.8.8,0,0,0,.22.83,1.91,1.91,0,0,0,.68.41,1.14,1.14,0,0,0,.43.08h.1c-.65.2-1.29.39-1.94.56s-1.22.32-1.84.46l-.47.1a.75.75,0,0,0-.44.31,9.33,9.33,0,0,0-.53.81l-.12.18.22.07a3.28,3.28,0,0,0,1,.31c.39-.06.64-.12,1-.19l1.85-.39c1.24-.27,2.47-.54,3.7-.84l1.84-.47a13.93,13.93,0,0,0,1.8-.69,15.17,15.17,0,0,0,3.22-2l0,0v0l-.1-.24c-.58.1-1.23.19-1.89.32s-1.24.25-1.86.39l-1.5.35c.21-.08.42-.16.62-.26,1.77-.86,3.48-1.76,5.16-2.74s3.34-2,5-3c.81-.55,1.57-1.16,2.33-1.76l1.13-.92a3.17,3.17,0,0,0,.56-.49c.15-.2.26-.42.4-.61l0,0,0,0-.19-.19c.41-.19.81-.38,1.2-.6A19.79,19.79,0,0,0,107.36,73.23Z"/><path class="cls-4" d="M113.8,69a12.5,12.5,0,0,0-2.21.12,20.36,20.36,0,0,0-2.16.38l-.53.13.53.21a14.64,14.64,0,0,0,4.19,1h.16c-.35.23-.72.45-1,.69a21.73,21.73,0,0,1-2.35,1.44c-.81.43-1.64.84-2.5,1.2l-1.29.55a11.21,11.21,0,0,0-1.21.75l0,0v0l.05.16a2.8,2.8,0,0,0,.62.15h0c-.51.28-1,.61-1.52.87l-.39.19a1.66,1.66,0,0,0-.41.22,6,6,0,0,0-.5.73L103,78l.26.06a2.51,2.51,0,0,0,.95.22,7.33,7.33,0,0,0,.9-.26,8.3,8.3,0,0,0,1.64-.8,9.12,9.12,0,0,0,1.4-1.15c.25-.26.47-.5.69-.76a6.76,6.76,0,0,0,2.18-1.13c.77-.6,1.52-1.23,2.32-1.79A6.4,6.4,0,0,0,115,70.83l.77,0a10.86,10.86,0,0,0,2.15-.32,8.11,8.11,0,0,0-2-1A7.53,7.53,0,0,0,113.8,69Z"/><path class="cls-5" d="M116.16,76.75l-.13.09-.82-.14a5.58,5.58,0,0,0-2.56.13l-.43.16.45.19a48.82,48.82,0,0,0,4.71,1.72c1.59.46,3.11.86,4.46,1.28A7.78,7.78,0,0,0,120,78.42a9.25,9.25,0,0,0-2.27-1.18l-.24-.06c1.27.11,2.55.19,3.82.2,1.66,0,3.23-.07,4.64,0a7.75,7.75,0,0,0-2.3-1.15,8.93,8.93,0,0,0-2.5-.48,14.27,14.27,0,0,0-2.54.19A5.48,5.48,0,0,0,116.16,76.75Z"/><path class="cls-4" d="M49.47,76a20,20,0,0,0,2.81-4l0-.06,0,0L52,71.72c-.57.43-1.15.93-1.74,1.42s-1.19,1-1.76,1.61-1.12,1.2-1.67,1.78a22.24,22.24,0,0,1-1.74,1.63l-.07.06,0,.1.17.4.05.11.14,0,.6-.07a1.11,1.11,0,0,0,.34-.08,1.27,1.27,0,0,0,.31-.18,12.14,12.14,0,0,0,1-.74A18.1,18.1,0,0,0,49.47,76Z"/><path class="cls-4" d="M81.29,58.5l-.29.27.38,0a2.11,2.11,0,0,0,.71-.09l.61-.19c.39-.13.78-.28,1.17-.44.77-.32,1.53-.66,2.28-1s1.46-.8,2.17-1.23a8.49,8.49,0,0,0,2-1.59c-.35.1-.74.17-1.18.26s-.91.21-1.31.34c-.79.26-1.58.54-2.35.87a12.09,12.09,0,0,0-2.25,1.18A16.88,16.88,0,0,0,81.29,58.5Z"/><path class="cls-4" d="M122.25,92.19c-.76.09-1.5.27-2.24.42l-2.22.43-.55.11.53.22a7.07,7.07,0,0,0,2.28.43,19.27,19.27,0,0,0,2.28,0,17.25,17.25,0,0,0,2.26-.29,6.7,6.7,0,0,0,2.19-.75,9.11,9.11,0,0,0-2.24-.53A10.32,10.32,0,0,0,122.25,92.19Z"/><path class="cls-5" d="M111.08,89.56a21.76,21.76,0,0,0-2.42.55,13.8,13.8,0,0,0-2.37.86,8.12,8.12,0,0,0,2.52.35A10.93,10.93,0,0,0,111.3,91c.82-.2,1.6-.49,2.39-.73s1.6-.43,2.41-.62l1.1-.25-1.15-.09A21.22,21.22,0,0,0,111.08,89.56Z"/><path class="cls-4" d="M80.24,85.46c-.37.06-.74.13-1.1.22a20,20,0,0,0-2.13.64c-.69.26-1.36.57-2,.89a10.49,10.49,0,0,0-1.91,1.2,6.49,6.49,0,0,0,2.28,0,9.14,9.14,0,0,0,2.19-.55,20.88,20.88,0,0,0,2-1c.65-.36,1.31-.71,1.94-1.14l.34-.23-.42-.08A3.5,3.5,0,0,0,80.24,85.46Z"/><path class="cls-4" d="M49.57,80.38c.5-.51,1-1.07,1.42-1.59s1-1,1.49-1.5l-.23-.24a34,34,0,0,1-3.57,2,11,11,0,0,0-1.74,1.16,6,6,0,0,0-1.38,1.59l0,0,0,0a2,2,0,0,0,.18.29,5.8,5.8,0,0,0,1.1-.06,5.76,5.76,0,0,0,1-.41A6.13,6.13,0,0,0,49.57,80.38Z"/><path class="cls-4" d="M40.78,71.42a5.6,5.6,0,0,0-.76,2v.05l0,0,.27.21a5.38,5.38,0,0,0,1-.43,6.43,6.43,0,0,0,.81-.73,6.06,6.06,0,0,0,1.19-1.8c.29-.65.53-1.32.79-2s.58-1.27.88-1.9h0l0,0-.31-.15A33.16,33.16,0,0,1,42,69.73,10.35,10.35,0,0,0,40.78,71.42Z"/><path class="cls-4" d="M114.22,73.18a4.45,4.45,0,0,0-1.93.66L112,74l.34.11a10.52,10.52,0,0,0,3.85.49c.65,0,1.29-.12,1.92-.21s1.23-.18,1.92-.36a4.92,4.92,0,0,0-1.86-.86,7.88,7.88,0,0,0-2-.26A14.81,14.81,0,0,0,114.22,73.18Z"/><path class="cls-4" d="M101.85,60.55a15.09,15.09,0,0,0-1.68,1.15,4,4,0,0,0-1.4,1.51l-.13.3.36-.08a11.8,11.8,0,0,0,1.54-.45c0,.1,0,.2.06.28.81,0,1.68,0,2.56,0s1.77,0,2.69-.14l2.73-.33c.9-.08,1.79-.13,2.69-.13h.14v-.5l-.13,0a13.06,13.06,0,0,0-5.42-.42,28.88,28.88,0,0,0-4.54,1c.45-.2.9-.42,1.33-.66s1.1-.71,1.62-1.08a14.61,14.61,0,0,0,1.52-1.27,5.37,5.37,0,0,0-2.05.17A8.47,8.47,0,0,0,101.85,60.55Z"/><path class="cls-5" d="M114.69,83l-.31-.21a5,5,0,0,0-2-.89,3,3,0,0,0-1.15,0c-.36.08-.71.19-1.08.3-.72.23-1.42.51-2.06.77s-1.25.49-1.81.67a13.84,13.84,0,0,0,2,.28,12.51,12.51,0,0,0,2,0,19.09,19.09,0,0,0,2-.39c.66-.15,1.32-.29,2-.46Z"/><path class="cls-4" d="M50.62,70.17l0,.07,0,0,.28.17A27.75,27.75,0,0,0,54,67.59c.49-.56.93-1.14,1.41-1.68A2.39,2.39,0,0,0,56,63.84l0-.22-.21.12a10.08,10.08,0,0,0-3.1,2.82,16.45,16.45,0,0,0-1.12,1.77C51.22,68.93,50.91,69.55,50.62,70.17Z"/><path class="cls-5" d="M90.08,61.06a14.87,14.87,0,0,0-1.22.86A4.56,4.56,0,0,0,87.78,63a11.9,11.9,0,0,0,3-.49,14.68,14.68,0,0,0,2.78-1.08l.16-.09a2.89,2.89,0,0,0-.41.38,12.42,12.42,0,0,0,3-.05,15.07,15.07,0,0,0,2.9-.67,28.69,28.69,0,0,0,2.72-1.19c.89-.42,1.78-.83,2.67-1.27l.47-.24-.53-.08a9.1,9.1,0,0,0-3,.19,24.7,24.7,0,0,0-5.67,1.74,8.34,8.34,0,0,0-.8.38c.34-.22.68-.44,1-.67.82-.54,1.65-1.08,2.46-1.64l.44-.3h-.54a9.64,9.64,0,0,0-2.95.62,28.71,28.71,0,0,0-2.75,1.11A27.25,27.25,0,0,0,90.08,61.06Z"/><path class="cls-4" d="M63.72,74.87c-.61.29-1.18.65-1.75,1l-1.72,1-.37.21.44.09a4.68,4.68,0,0,0,2.08-.12,12,12,0,0,0,1.95-.64,12.57,12.57,0,0,0,1.79-1A5.5,5.5,0,0,0,67.64,74a8.79,8.79,0,0,0-2,.26A9.85,9.85,0,0,0,63.72,74.87Z"/><path class="cls-4" d="M56.49,58.83c.34-.57.65-1.17,1-1.75s.61-1.14.91-1.82a10,10,0,0,0-1.63,1.27,9.36,9.36,0,0,0-1.36,1.52,14.35,14.35,0,0,0-1,1.8c-.3.61-.6,1.23-.84,1.87l-.19.54.48-.36A10.86,10.86,0,0,0,56.49,58.83Z"/><path class="cls-4" d="M107.61,87.8c-.71.14-1.4.33-2.1.52s-1.34.38-2.08.67a6.51,6.51,0,0,0,2.2.31,11.41,11.41,0,0,0,2.18-.2c.71-.16,1.41-.39,2.1-.59s1.4-.37,2.1-.62l.71-.25-.78-.09A15.33,15.33,0,0,0,107.61,87.8Z"/><path class="cls-5" d="M40,79.3l0,.08,0,0c.09.07.19.12.26.17a10.94,10.94,0,0,0,1.87-1.34c.31-.28.59-.62.87-.92a5.8,5.8,0,0,1,.89-.83l.09-.07-.1-.1c-.21-.21-.41-.43-.61-.65l-.11-.12-.17.12-.23.18v0a5.19,5.19,0,0,0,.49-1,1.22,1.22,0,0,0,0-1.13l-.09-.14-.19.12a4.1,4.1,0,0,0-.78.59,4,4,0,0,0-.67.75,3.79,3.79,0,0,0-.43.91A2.5,2.5,0,0,0,41,77a2.61,2.61,0,0,0,.54-.18l.19-.11c-.18.17-.37.33-.54.51A5.2,5.2,0,0,0,40,79.3Zm1.24-2.65a1.16,1.16,0,0,1-.2.29A3,3,0,0,0,41.25,76.65Z"/><path class="cls-5" d="M47.08,71.18a4.2,4.2,0,0,0-1.13.6,4,4,0,0,0-.91.87,6.07,6.07,0,0,0-.59,1.13L44,74.92l0,.07.09.09.21.22.11.11.15-.14a18,18,0,0,0,1.6-1.79,13.64,13.64,0,0,0,1.28-2l0-.08-.06,0A1.87,1.87,0,0,0,47.08,71.18Z"/><path class="cls-4" d="M46.77,78.5l-.08,0-.13.06-.23.13-.44.28a9.68,9.68,0,0,0-.82.61,9.86,9.86,0,0,0-.76.69,6.73,6.73,0,0,0-.71.78s0,.11-.07.16l-.11.16-.12.17,0,.09s-.06,0,0,.17l0,0,.06,0a6.22,6.22,0,0,0,2.18-1.13,6.8,6.8,0,0,0,1.71-1.83l.11-.18-.16-.16a.37.37,0,0,0-.31-.08C46.77,78.49,46.8,78.49,46.77,78.5Z"/><path class="cls-4" d="M45,65.46l.12.09.13-.15c.63-.79,1.18-1.63,1.73-2.48a21.36,21.36,0,0,0,1.37-2.7l0-.07,0,0a.92.92,0,0,0-.21-.12A6,6,0,0,0,47,61.07a7.34,7.34,0,0,0-.9,1.25c-.24.46-.42,1-.62,1.43s-.42.93-.66,1.39l-.05.09.11.09Z"/><path class="cls-4" d="M52.21,65.9c-.3.31-.6.7-.9,1.08s-.6.82-.88,1.27-.5,1-.74,1.42A9.42,9.42,0,0,1,48.85,71l-.08.1.12.1.31.24.13.09.12-.14c.63-.8,1.2-1.63,1.75-2.48.26-.43.51-.87.74-1.32s.46-.9.66-1.37l0-.09-.07,0Z"/><path class="cls-4" d="M49.8,62.08a6,6,0,0,0,1.12-1.31,8.07,8.07,0,0,0,.43-.89,3.54,3.54,0,0,1,.48-.8l.06-.08-.09-.08c-.12-.09-.22-.18-.33-.28l-.1-.09-.14.14c-.2.23-.41.45-.58.69s-.37.48-.53.73a8.93,8.93,0,0,0-.82,1.6l-.06.16.1,0A2.69,2.69,0,0,0,49.8,62.08Z"/><path class="cls-5" d="M106.34,97.83c.49-.15,1-.33,1.45-.5l.72-.25a2.82,2.82,0,0,0,.71-.32l0,0v0a1.05,1.05,0,0,0,0-.19,15.36,15.36,0,0,0-3.1-.12c-1,.11-2,.3-3,.5s-2,.33-3,.46c-.5.06-1,.1-1.52.14a3.12,3.12,0,0,0-.78.11,1.11,1.11,0,0,0-.4.21.35.35,0,0,0-.09.15l0,.12a.66.66,0,0,0,0,.24.8.8,0,0,0,.7.61,7.41,7.41,0,0,0,.79,0c.51,0,1,0,1.54,0a14.66,14.66,0,0,0,3.09-.31C104.38,98.44,105.36,98.14,106.34,97.83Z"/><path class="cls-4" d="M110.54,97.14a4.7,4.7,0,0,0,1.16.4,6.8,6.8,0,0,0,1.18.15c.79,0,1.58,0,2.36,0a20.92,20.92,0,0,0,2.36-.15l.82-.12-.81-.28c-1.36-.47-2.79-.91-4.2-1.25s-2.79-.6-4-.83a2.28,2.28,0,0,0,.26,1.21A2.2,2.2,0,0,0,110.54,97.14Z"/><path class="cls-5" d="M119.08,106.55c-1.67-.1-3.34-.14-5-.09H114v0c0,.11,0,.21-.07.3a8.82,8.82,0,0,0,2.4,1.14,9.69,9.69,0,0,0,2.62.32,20.23,20.23,0,0,0,2.61-.31l1.29-.23.64-.11.32-.07.17,0s0,0,.14-.05a.43.43,0,0,0,.07-.08l-.12-.29C122.4,106.85,120.74,106.69,119.08,106.55Z"/><path class="cls-4" d="M106,105.94l.55.1c.46.08.91.17,1.37.21l1.38.11a14.87,14.87,0,0,1,2.73.48l.15,0,.06-.18a1.09,1.09,0,0,0,0-.6.91.91,0,0,0-.37-.5,6.13,6.13,0,0,0-.86-.54,8.58,8.58,0,0,0-1.88-.72,11.37,11.37,0,0,0-3.94-.18h0l0,.08c.3.21.66.51,1.07.76a1.14,1.14,0,0,1,.4.31.81.81,0,0,1-.21.26Z"/><path class="cls-4" d="M121.3,104c-.76-.16-1.54-.27-2.28-.39l-1.09-.22a7.37,7.37,0,0,0,1.85-.9c.34-.22.68-.5,1-.77s.63-.54.91-.73l-2,.2c-.7.06-1.44.13-2.2.24s-1.53.3-2.26.45a20.6,20.6,0,0,1-2.19.31h-.18l.07.19a2.11,2.11,0,0,0,.8,1,2.47,2.47,0,0,0,1.27.32,9.46,9.46,0,0,0,1.68-.08,1.88,1.88,0,0,0,.34.85,2.5,2.5,0,0,0,1.07.75,9,9,0,0,0,2.39.68,7.39,7.39,0,0,0,2.48-.14c.38-.09.81-.23,1.24-.35s.77-.28,1.11-.36l-1.93-.53C122.75,104.36,122.05,104.15,121.3,104Z"/><path class="cls-5" d="M118.28,100.56a15.28,15.28,0,0,0,2.14,0l.41,0-.31-.28a3.63,3.63,0,0,0-1-.56c-.31-.15-.63-.27-.95-.39a19.38,19.38,0,0,0-2-.65c-.65-.18-1.32-.32-2-.45a8.87,8.87,0,0,0-2.08-.16,3.4,3.4,0,0,0,1.54,1.55,6.72,6.72,0,0,0,2,.76A17.22,17.22,0,0,0,118.28,100.56Z"/><path class="cls-4" d="M118.78,94c-1-.24-2-.46-3.1-.64a13.69,13.69,0,0,0,2-.47,21.08,21.08,0,0,0,2.09-.82c.34-.15.68-.33,1-.49l.49-.27.26-.15a.68.68,0,0,0,.08-.34c-1.23.18-2.65.37-4.1.7-.74.18-1.46.42-2.17.61a17,17,0,0,1-2.12.44l-.1,0v.12l0,.35c-.4,0-.81,0-1.21-.09a20.14,20.14,0,0,1-2.33-.35l-.14,0v0a43.77,43.77,0,0,0-8.15-.93,32,32,0,0,0-4.15.22A28.08,28.08,0,0,0,93,92.7H93v.05l0,.47a19.33,19.33,0,0,0,4.12.5,33.24,33.24,0,0,0,4.12-.16c1.37-.14,2.72-.37,4.09-.49a29.36,29.36,0,0,1,4-.11l0,.08,0,.11.13.07A14.57,14.57,0,0,0,114,94.62a15.27,15.27,0,0,0,4.77-.21h.07v-.05A3.11,3.11,0,0,0,118.78,94Z"/><path class="cls-4" d="M111,104.24a14.27,14.27,0,0,0,1.68.43,14,14,0,0,0,1.71.2,5.93,5.93,0,0,0,1.77-.1,4.77,4.77,0,0,0-1.5-1,7.16,7.16,0,0,0-1.69-.51,17.32,17.32,0,0,0-1.76-.11,8.19,8.19,0,0,0-1.78,0l-.38.06.33.25A5.34,5.34,0,0,0,111,104.24Z"/><path class="cls-4" d="M107.52,103h0v0l.05-.06a1.06,1.06,0,0,0-.1-.9,1.94,1.94,0,0,0-.68-.6,8.56,8.56,0,0,0-1.48-.75,12.22,12.22,0,0,0-3.33-.59h-1l.93.34c.57.21,1.13.41,1.71.57a5.38,5.38,0,0,1,.8.26.45.45,0,0,1,.13.09.25.25,0,0,1-.06.14l-.21.32.34.16c.45.21.92.38,1.38.57S107,102.88,107.52,103Z"/><path class="cls-4" d="M112.82,100a4.05,4.05,0,0,0-.88.31l.11,0a1.88,1.88,0,0,0,.68.16,6.72,6.72,0,0,0,.75.14c.35,0,.71,0,1,0l.21,0a5.43,5.43,0,0,1,.56.09l.11,0,.74.2-.65-.52a2.85,2.85,0,0,0-1.75-.55A4.42,4.42,0,0,0,112.82,100Z"/><path class="cls-4" d="M111.62,107.75l-1.19-.54a9.38,9.38,0,0,0-1.22-.48c-.42-.13-.84-.23-1.26-.34l-.63-.18a2.48,2.48,0,0,0-.69,0h-.09l-.05.1-.08.19-.06.12.13.09a7.34,7.34,0,0,0,1,.78c.41.2.78.37,1.18.54.78.35,1.56.7,2.35,1s1.6.61,2.4.9,1.61.57,2.46.78h0v0l.08-.21a25.77,25.77,0,0,0-2.14-1.54C113.16,108.55,112.4,108.13,111.62,107.75Z"/><path d="M31.73,91.84A3.34,3.34,0,0,0,33.46,90a4.28,4.28,0,0,0,.11-2.6,3,3,0,0,0-.65-1.22,1.26,1.26,0,0,0-.72-.42,1.1,1.1,0,0,0-.81.18,2.83,2.83,0,0,0-.88,1A5,5,0,0,0,30,88.11a6.24,6.24,0,0,1,1.66-1.57.48.48,0,0,1,.63.2,2.3,2.3,0,0,1,.42.92,4.55,4.55,0,0,1,.08,2.17A4.66,4.66,0,0,1,31.73,91.84Z"/><path d="M23.46,89.64a1.75,1.75,0,1,0,1.74,1.75A1.74,1.74,0,0,0,23.46,89.64Z"/><path d="M117.24,118.44a8.71,8.71,0,0,1-2.51.74,2,2,0,0,0,1-1.22,4.09,4.09,0,0,1-2.73.48,10.42,10.42,0,0,1-2.81-1.18,2.3,2.3,0,0,0,.29-.59,4,4,0,0,0,.2-1.36,6.13,6.13,0,0,0,0-.62l0-.53c0-.35,0-.71,0-1.08,0-1.35,0-2.75.06-4.18l-.29-.12A14.48,14.48,0,0,0,109,113c-.31,1.59.13,3.4-.4,3.78a1.84,1.84,0,0,1-.78.34c-.34.09-.69.14-1.09.22-.77.14-1.52.32-2.27.51l-2.9.78c.52-.46,1.09-.9,1.66-1.36a14.29,14.29,0,0,0,1.62-1.4,6.18,6.18,0,0,0,1.26-1.94,10.52,10.52,0,0,0,.55-4.23l-.17,0a20.66,20.66,0,0,1-1.55,3.69,5.67,5.67,0,0,1-1.18,1.35c-.47.39-1,.75-1.59,1.17a10.64,10.64,0,0,0-3,3.2,4.6,4.6,0,0,0-.62,2.32,4.16,4.16,0,0,0,.19,1.18v0a2.35,2.35,0,0,0-1,.17,3,3,0,0,0-1.31,1.12,4,4,0,0,0-1.86.23,1.86,1.86,0,0,0-.9.81,2.13,2.13,0,0,0-.22.8,5.09,5.09,0,0,1-1.73-.45c-.64-.28-1.25-.67-1.93-1a5.31,5.31,0,0,1,.2-.56A1.16,1.16,0,0,1,91,123v-.17a1.12,1.12,0,0,0-.76.19,1.87,1.87,0,0,0-.55.57,10,10,0,0,0-.52.95,1.9,1.9,0,0,1-.9-1,2.33,2.33,0,0,1,.21-1.64,3.65,3.65,0,0,1,.47-.73l.34-.38a3.33,3.33,0,0,0,.36-.56,4.5,4.5,0,0,0,.39-2.41,15.33,15.33,0,0,0-1.1-4.22,8.29,8.29,0,0,0-1.11-2,5,5,0,0,0-2-1.49,22.46,22.46,0,0,0-4.2-.93,15.25,15.25,0,0,1-1.9-.53,17.5,17.5,0,0,0-2.09-.57,39.46,39.46,0,0,0-8.38-.79h-.13l-.1,0a9.59,9.59,0,0,0-3.46,3.59,25.66,25.66,0,0,0-2.05,4.38,26.71,26.71,0,0,0-1.28,4.63A14.35,14.35,0,0,1,61,123.19a2.7,2.7,0,0,1-1.77,1.32,3.8,3.8,0,0,1-1.18.11c-.56-.06-1.14-.14-1.74-.19a2,2,0,0,0,0-.24,1.58,1.58,0,0,0-.47-.8A1.76,1.76,0,0,0,55,123h-.11a1.21,1.21,0,0,0-.29-.48,1.59,1.59,0,0,0-1.11-.46,3.42,3.42,0,0,0-.81.08,1.56,1.56,0,0,0-.24-.35,2,2,0,0,0-.76-.5l0,0c.39-.22.8-.44,1.22-.69l.32-.19.16-.1.24-.2a1.89,1.89,0,0,0,.54-.95,7.3,7.3,0,0,0-.16-3.07l-.28-1.35a5.09,5.09,0,0,1-.14-1.2l0-.35-.24-.19a6.62,6.62,0,0,1-1.2-1.49c-.38-.58-.74-1.19-1.11-1.79a17,17,0,0,0-2.6-3.48l-.06-.07-.07,0a19.05,19.05,0,0,1-4.18-2.45c-1.15-.81-2.27-1.71-3.48-2.46a20.52,20.52,0,0,0,1.73-3.33,10.62,10.62,0,0,0,.52-3.43c.19-.24.37-.49.53-.74A6.66,6.66,0,0,0,44,92.61l.08-.2-.05-.12c-.15-.4-.33-.79-.5-1.18S43.21,90.33,43,90l-.17,0c0,.43.1.85.16,1.27l.15,1a8,8,0,0,1-.61.72,7.5,7.5,0,0,1-.56.54,1.52,1.52,0,0,0-.45.81,21.08,21.08,0,0,1-.74,2.94,19.85,19.85,0,0,1-1.21,2.39c-1.48-.3-3-.67-4.44-1.11-1.68-.5-3.35-1-5-1.64L30,96.88l-.16,0a8.51,8.51,0,0,1-2.31.2,18.26,18.26,0,0,1-2.43-.21c-.8-.11-1.62-.32-2.46-.37a17,17,0,0,0-2.37,0,12.09,12.09,0,0,0-1.34,0A2.5,2.5,0,0,0,19.61,95a3.08,3.08,0,0,0-.61-1.9,4.54,4.54,0,0,0-1.41-1.32,7.57,7.57,0,0,0-1.74-.68A34.15,34.15,0,0,0,18,88c.69-1,1.39-2.08,2.12-3.08a31.79,31.79,0,0,1,4.92-5.42,23.2,23.2,0,0,1,6.15-3.84q.69-.28,1.41-.54l.8-.26c.42-.13.85-.27,1.29-.38,1.2-.33,2.43-.6,3.67-.87-.29,0-2.66,0-3.82.08l-.31,0c-.71.12-1.27.16-1.62.24a14.93,14.93,0,0,0-1.86.48c-.05,0-1.53.52-2,.76a19.8,19.8,0,0,0-4.77,3A25.58,25.58,0,0,0,21.26,81a26.13,26.13,0,0,0-2.2,3.18,32.26,32.26,0,0,0-1.75,3.41l-1.44,3.19a2.06,2.06,0,0,1-.36.56,10.89,10.89,0,0,1-3.3,2.28,34.2,34.2,0,0,1-4.14,1.63c-1.41.47-2.85.86-4.28,1.28l-1.09.31a3.58,3.58,0,0,0-1.11.58A5.74,5.74,0,0,0,.15,99.31l0,.09v0a2.24,2.24,0,0,0,.17,1.74,1.4,1.4,0,0,0,.83.57,2.34,2.34,0,0,0,.87,0c1-.16,1.92-.38,2.86-.6,1.88-.45,3.75-.94,5.6-1.52s3.6-1.46,5.42-2a18,18,0,0,1,4.29-1v0a15.5,15.5,0,0,1,2.45.22c.81.11,1.58.38,2.4.57a20.72,20.72,0,0,0,2.5.43,9.86,9.86,0,0,0,2.42,0c1.6.68,3.2,1.32,4.83,1.93s3.35,1.2,5.1,1.66a44.87,44.87,0,0,1,4,2.58c.4.33.82.65,1.24,1l-.06.06A14.52,14.52,0,0,1,47.86,109a5,5,0,0,1,.33,1.08,3.29,3.29,0,0,1,.05.54l0,.58a9.68,9.68,0,0,0,.3,2.61,9.57,9.57,0,0,1,.21,1.16.89.89,0,0,1-.11.69l0,0-.09.12-.19.25a6.26,6.26,0,0,0-.39.6,2.29,2.29,0,0,0-.28.84c-1.33.43-3.2,1-3.66,1.9.92-.13,2.13-.63,2.9-.69-.8.55-1.14,1.14-1.11,1.66A26.32,26.32,0,0,1,48.45,119a2.61,2.61,0,0,0,.37.19,1.45,1.45,0,0,0-.85,1.32c.85-.49,1.59-.88,1.93-1a5.27,5.27,0,0,0,1.12,0c.2,0,.39-.06.58-.09l-.69.33a8.59,8.59,0,0,0-1.33.79,3.74,3.74,0,0,0-.66.66,2.32,2.32,0,0,0-.42,1l-.16,1.06a7.79,7.79,0,0,0-.62.76c-.38.61-.22,1.41.42,1.3.51-.84,2.33-1.64,3.22-1.92l.06.27a3.67,3.67,0,0,0-.31.31c-.72.87-1.69,1.93-1.18,2.44s.82-.06,1.64-.84a12.05,12.05,0,0,1,2.06-1.42v.06a2,2,0,0,0-1,.79,4,4,0,0,0-.63,2.36,18.87,18.87,0,0,1,3.2-2v.17l.56-.07c.69-.1,1.47-.07,2.25-.16a5.87,5.87,0,0,0,1.18-.23c1.16-.39,2.21-.54,3.47-5.17a25.77,25.77,0,0,1,1.48-4.5,26.05,26.05,0,0,1,2.19-4.15,8.81,8.81,0,0,1,3.08-3.05,38.39,38.39,0,0,1,7.95,1,16.71,16.71,0,0,1,1.89.62,16.51,16.51,0,0,0,2.06.67,27.3,27.3,0,0,1,3.86,1,4.52,4.52,0,0,1,2.16,2.62,16.9,16.9,0,0,1,1.17,3.73,3.35,3.35,0,0,1-.11,1.66,2.68,2.68,0,0,1-.18.33l-.32.42a4.17,4.17,0,0,0-.53,1.08,3.39,3.39,0,0,0,0,2.41,2.79,2.79,0,0,0,1.81,1.5l.33.09.1-.27c.08-.21.14-.42.2-.63.61.35,1.17.8,1.81,1.16a5.54,5.54,0,0,0,2.19.71l.3,0v-.3c2.45,2.29,6.07,1.88,9.54,1.93s5.88-2.32,6.15-3.58a8.88,8.88,0,0,1-2.39,1.25,8.11,8.11,0,0,0,1.31-2.42,7.68,7.68,0,0,1-2.79,1.7,1.75,1.75,0,0,0,.31-1.07c-2.69,1.28-3.72.63-4.4.07a1.57,1.57,0,0,0-1.52-.24l-.09-.45c-.1-.45-.21-.72-.27-1a3,3,0,0,1,.5-2.42,6.08,6.08,0,0,1,.62-.74c1-.09,2-.2,3-.32.69.84,5.35,2.15,8,2.15,2.91,0,6-1.51,7.11-2-.94-.07-2.35.57-4.14.76A3.79,3.79,0,0,0,117.24,118.44ZM18.7,96.61a21.23,21.23,0,0,0-3,.59c-1.89.51-3.64,1.31-5.49,1.78s-3.7,1-5.57,1.41c-.93.21-1.89.42-2.8.55-.42,0-.77,0-.9-.23a1.47,1.47,0,0,1-.09-1,7.51,7.51,0,0,1,.52-.86,3.69,3.69,0,0,1,.68-.74,2.71,2.71,0,0,1,.87-.47L4,97.28c1.43-.42,2.86-.89,4.27-1.43A31,31,0,0,0,12.38,94a9.92,9.92,0,0,0,3.45-2.8,6.32,6.32,0,0,1,1.52.93,3.94,3.94,0,0,1,1.07,1.31A4.56,4.56,0,0,1,18.76,95,5.52,5.52,0,0,1,18.7,96.61Zm30.61,21s0,0,0,0Zm1.75.72A6.44,6.44,0,0,1,50,118a2.43,2.43,0,0,1-.63-.36,1.73,1.73,0,0,1,.08-.18,5.19,5.19,0,0,1,.28-.46l.16-.25.08-.14.12-.22a2.58,2.58,0,0,0,.11-1.73c-.11-.47-.26-.86-.39-1.25a8.93,8.93,0,0,1-.5-2.26l0-.65a5,5,0,0,0-.14-.69,5.91,5.91,0,0,0-.52-1.24,12.14,12.14,0,0,0-2.51-2.86,13.37,13.37,0,0,0,1.8,1,17.71,17.71,0,0,1,2.26,3.39c.34.62.67,1.25,1,1.87a8.27,8.27,0,0,0,1.15,1.61,6.88,6.88,0,0,0,.1,1.25l.21,1.37a7,7,0,0,1,.08,2.25C52.17,118.48,51.6,118.43,51.06,118.33Z"/><path class="cls-4" d="M39.53,71.58c.43-.72.85-1.45,1.21-2.2s.68-1.54,1-2.28A18.07,18.07,0,0,1,43.09,65l.44-.62-.67.4A6.87,6.87,0,0,0,41,66.57a19.14,19.14,0,0,0-1.42,2.16,18.67,18.67,0,0,0-1.09,2.36,8.88,8.88,0,0,0-.38,1.24A3.53,3.53,0,0,0,38,73a1.13,1.13,0,0,0,.08.69A17.63,17.63,0,0,0,39.53,71.58Z"/></svg>