<svg id="Layer_1" data-name="Layer 1" xmlns="http://www.w3.org/2000/svg" width="128" height="128" viewBox="0 0 128 128"><defs><style>.cls-1{fill:#2d2d2d;}</style></defs><title>Artboard 1</title><path d="M41.84,109.44h4.7a7.37,7.37,0,0,1,2.71.35A3.06,3.06,0,0,1,50.57,111a3.78,3.78,0,0,1,.54,2,3.87,3.87,0,0,1-.46,1.87,3.06,3.06,0,0,1-1.2,1.24,3.14,3.14,0,0,1,1.63,1.27,3.85,3.85,0,0,1,.59,2.19,4.51,4.51,0,0,1-.75,2.64,3.06,3.06,0,0,1-1.78,1.33,17.86,17.86,0,0,1-3.31.18h-4Zm2.36,2.38v3.31h1.57a15,15,0,0,0,1.73,0,1.44,1.44,0,0,0,1-.51,1.71,1.71,0,0,0,.34-1.13,1.74,1.74,0,0,0-.28-1,1.14,1.14,0,0,0-.67-.49,13.58,13.58,0,0,0-2.27-.1Zm0,5.7v3.81h2.2a6.91,6.91,0,0,0,1.86-.15,1.35,1.35,0,0,0,.69-.59,2.39,2.39,0,0,0,0-2.28,1.51,1.51,0,0,0-.79-.62,7.27,7.27,0,0,0-2-.17Z"/><path d="M53.4,116.69a10.29,10.29,0,0,1,.75-4.22,5.77,5.77,0,0,1,2-2.46,5.25,5.25,0,0,1,3-.81,5.09,5.09,0,0,1,4.11,1.92,8.38,8.38,0,0,1,1.58,5.48,8.52,8.52,0,0,1-1.68,5.61,5.41,5.41,0,0,1-8,0A8.41,8.41,0,0,1,53.4,116.69Zm2.44-.1a6,6,0,0,0,.94,3.7,2.81,2.81,0,0,0,2.33,1.24,2.77,2.77,0,0,0,2.31-1.23,8.1,8.1,0,0,0,0-7.44,2.79,2.79,0,0,0-2.34-1.19,2.82,2.82,0,0,0-2.36,1.2A6.14,6.14,0,0,0,55.84,116.59Z"/><path d="M77.43,123.76H74.87l-1-3.25h-4.7l-1,3.25H65.65l4.57-14.32h2.51Zm-4.36-5.67-1.62-5.31-1.59,5.31Z"/><path d="M80.32,123.76v-11.9H76.83v-2.42h9.33v2.42H82.68v11.9Z"/><path class="cls-1" d="M52,30.73h8.69a1.23,1.23,0,0,1,1.19,1.19V53.17h4.66V31.92a1.22,1.22,0,0,1,1.18-1.19H83a1.26,1.26,0,0,1,.87.4L103.35,53c.08.08.08.08.08.16h5.92L86,26.47H52a2.13,2.13,0,0,0,0,4.26Z"/><path class="cls-1" d="M124.76,62.26A48.45,48.45,0,0,0,128,55.54H6.16l1.35,6.72Z"/><path class="cls-1" d="M124.05,81a17.45,17.45,0,0,1-11.54-4.5c2.53-1.82,9.25-7.11,11.78-12.88H7.74l2.93,14.46a17.06,17.06,0,0,1-9.48,3,1.19,1.19,0,1,0,0,2.37,19.61,19.61,0,0,0,15.32-7.58,19.29,19.29,0,0,0,30.66,0,19.29,19.29,0,0,0,30.66,0,19.28,19.28,0,0,0,30.65,0,19.52,19.52,0,0,0,15.33,7.58A1.22,1.22,0,0,0,125,82.25,1,1,0,0,0,124.05,81Z"/></svg>