<svg id="Layer_1" data-name="Layer 1" xmlns="http://www.w3.org/2000/svg" width="128" height="128" viewBox="0 0 128 128"><title>Artboard 2</title><path d="M41.7,3.24h4.7a7.15,7.15,0,0,1,2.71.36,3,3,0,0,1,1.32,1.24,3.78,3.78,0,0,1,.54,2,3.79,3.79,0,0,1-.47,1.87A3,3,0,0,1,49.31,10a3.18,3.18,0,0,1,1.63,1.27,3.85,3.85,0,0,1,.59,2.19,4.51,4.51,0,0,1-.75,2.64A3,3,0,0,1,49,17.38a17.94,17.94,0,0,1-3.31.18h-4Zm2.36,2.39V8.94h1.56c.94,0,1.52,0,1.74,0a1.53,1.53,0,0,0,1-.51,1.73,1.73,0,0,0,.34-1.13,1.72,1.72,0,0,0-.28-1,1.16,1.16,0,0,0-.67-.5,15.53,15.53,0,0,0-2.27-.09Zm0,5.69v3.82h2.2A6.91,6.91,0,0,0,48.12,15a1.33,1.33,0,0,0,.69-.6,2,2,0,0,0,.28-1.12,2.08,2.08,0,0,0-.3-1.16,1.51,1.51,0,0,0-.79-.62,7.7,7.7,0,0,0-2-.17Z"/><path d="M53.71,3.24h2.37V11a18.61,18.61,0,0,0,.09,2.35,2.41,2.41,0,0,0,.74,1.47,2.67,2.67,0,0,0,2.91.15,1.88,1.88,0,0,0,.71-1,13,13,0,0,0,.19-2.79V3.24h2.36v7.52a19.59,19.59,0,0,1-.31,4.17A3.53,3.53,0,0,1,61.39,17a4.69,4.69,0,0,1-2.85.79,5.4,5.4,0,0,1-2.87-.65,3.78,3.78,0,0,1-1.49-1.86,14,14,0,0,1-.47-4.41Z"/><path d="M65.17,12.89l2.32-.27c.26,1.83,1.11,2.74,2.56,2.74a2.4,2.4,0,0,0,1.69-.56,1.8,1.8,0,0,0,.61-1.39,1.57,1.57,0,0,0-.21-.83,1.61,1.61,0,0,0-.66-.56,18,18,0,0,0-2.13-.74,7,7,0,0,1-2.21-1A3.84,3.84,0,0,1,66,8.88,4.28,4.28,0,0,1,65.6,7a4.17,4.17,0,0,1,.54-2.11,3.45,3.45,0,0,1,1.47-1.41A5,5,0,0,1,69.92,3a4.48,4.48,0,0,1,3.23,1.12,4.44,4.44,0,0,1,1.23,3.22L72,7.46a2.6,2.6,0,0,0-.67-1.61,2.2,2.2,0,0,0-1.48-.46,2.38,2.38,0,0,0-1.47.4,1.21,1.21,0,0,0-.52,1,1.26,1.26,0,0,0,.47,1,6.75,6.75,0,0,0,2.16.88,8.48,8.48,0,0,1,2.58,1.09,3.72,3.72,0,0,1,1.22,1.47,5.31,5.31,0,0,1,.42,2.19,4.55,4.55,0,0,1-1.15,3.14A4.64,4.64,0,0,1,70,17.8C67.1,17.8,65.5,16.17,65.17,12.89Z"/><path d="M76.92,17.56V3.24h2.36V8.88h4.66V3.24H86.3V17.56H83.94V11.3H79.28v6.26Z"/><path d="M38.59,123.76v-11.9H35.11v-2.42h9.32v2.42H41v11.9Z"/><path d="M46.18,123.76V109.44h5a6.89,6.89,0,0,1,2.73.39,3,3,0,0,1,1.35,1.33,4.68,4.68,0,0,1,.53,2.28,4.27,4.27,0,0,1-.81,2.71,3.62,3.62,0,0,1-2.29,1.29,5.76,5.76,0,0,1,1.26,1.19A18.4,18.4,0,0,1,55.3,121l1.42,2.8H53.9l-1.72-3.12a20,20,0,0,0-1.26-2.11,1.8,1.8,0,0,0-.7-.59,3.19,3.19,0,0,0-1.19-.16h-.49v6Zm2.36-8.27H50.3a8.56,8.56,0,0,0,2.05-.14,1.27,1.27,0,0,0,.71-.57,2.14,2.14,0,0,0,.27-1.14,2,2,0,0,0-.27-1.1,1.35,1.35,0,0,0-.74-.57,9.43,9.43,0,0,0-1.93-.11H48.54Z"/><path d="M68.8,123.76H66.23l-1-3.25H60.5l-1,3.25H57l4.57-14.32h2.51Zm-4.36-5.67-1.62-5.31-1.59,5.31Z"/><path d="M77.76,118.49l2.29.89a6.47,6.47,0,0,1-1.78,3.51A4.48,4.48,0,0,1,75.19,124a4.55,4.55,0,0,1-3.72-1.77,8.49,8.49,0,0,1-1.64-5.51A9,9,0,0,1,71.48,111a4.67,4.67,0,0,1,3.86-1.79,4.42,4.42,0,0,1,3.3,1.34A5.78,5.78,0,0,1,80,113.38l-2.34.69a3.12,3.12,0,0,0-.9-1.78,2.2,2.2,0,0,0-1.58-.62,2.51,2.51,0,0,0-2.12,1.13,6.49,6.49,0,0,0-.82,3.74,7,7,0,0,0,.8,3.85,2.44,2.44,0,0,0,2.08,1.14,2.13,2.13,0,0,0,1.62-.73A4.52,4.52,0,0,0,77.76,118.49Z"/><path d="M82.3,123.76V109.44h2.37v6.37l4.79-6.37h3.2L88.23,115l4.66,8.74H89.83L86.59,117l-1.92,2.4v4.33Z"/><path d="M3.64,94.7A3.64,3.64,0,0,1,0,91.06c0-1.62,0-1.62,12.09-14.36,6.05-6.38,13.11-13.79,17.15-18a14.5,14.5,0,0,1,10.65-4.46c12.65.19,22.4-.36,26.77-1.53a4.8,4.8,0,0,0,1.53-.74c9.39-6.72,49-34.14,49.42-34.41a3.64,3.64,0,1,1,4.14,6c-.4.28-40,27.66-49.33,34.35a11.79,11.79,0,0,1-3.89,1.85C62,61.44,49.31,61.63,39.78,61.49a7,7,0,0,0-5.27,2.21c-16,16.8-26.65,28-27.91,29.48A3.64,3.64,0,0,1,3.64,94.7Zm3.64-3.63Zm0,0h0Z"/><path d="M8.32,114.78a3.64,3.64,0,0,1-3.64-3.64c0-1.62,0-1.62,12.09-14.36,6.05-6.38,13.11-13.79,17.15-18a14.54,14.54,0,0,1,10.65-4.47c12.64.19,22.4-.36,26.77-1.52A5,5,0,0,0,72.87,72c9.39-6.72,49-34.14,49.42-34.42a3.64,3.64,0,0,1,4.14,6c-.4.27-40,27.66-49.33,34.34a11.82,11.82,0,0,1-3.89,1.86C66.72,81.53,54,81.72,44.46,81.57a7.18,7.18,0,0,0-5.27,2.21c-16,16.8-26.65,28-27.92,29.48A3.62,3.62,0,0,1,8.32,114.78ZM12,111.15Zm0,0Z"/></svg>