<svg id="Layer_1" data-name="Layer 1" xmlns="http://www.w3.org/2000/svg" width="128" height="128" viewBox="0 0 128 128"><defs><style>.cls-1{fill:#77d37d;}</style></defs><title>Artboard 13</title><path d="M25,118.49l2.29.89a6.41,6.41,0,0,1-1.78,3.51A4.48,4.48,0,0,1,22.4,124a4.55,4.55,0,0,1-3.72-1.77A8.55,8.55,0,0,1,17,116.72,9,9,0,0,1,18.69,111a4.68,4.68,0,0,1,3.86-1.79,4.46,4.46,0,0,1,3.31,1.34,6,6,0,0,1,1.39,2.84l-2.35.69a3.17,3.17,0,0,0-.89-1.78,2.24,2.24,0,0,0-1.58-.62,2.51,2.51,0,0,0-2.13,1.13,6.57,6.57,0,0,0-.82,3.74,7,7,0,0,0,.8,3.85,2.45,2.45,0,0,0,2.08,1.14A2.12,2.12,0,0,0,24,120.8,4.52,4.52,0,0,0,25,118.49Z"/><path d="M29.5,123.76V109.44h2.36v5.63h4.66v-5.63h2.36v14.32H36.52V117.5H31.86v6.26Z"/><path d="M52.12,123.76H49.55l-1-3.25h-4.7l-1,3.25H40.33l4.57-14.32h2.51Zm-4.36-5.67-1.62-5.31-1.59,5.31Z"/><path d="M53.57,123.76V109.44h5a6.86,6.86,0,0,1,2.73.39,3,3,0,0,1,1.35,1.33,4.68,4.68,0,0,1,.53,2.28,4.27,4.27,0,0,1-.81,2.71,3.62,3.62,0,0,1-2.29,1.29,5.76,5.76,0,0,1,1.26,1.19A17.24,17.24,0,0,1,62.69,121l1.42,2.8H61.29l-1.72-3.12a18.36,18.36,0,0,0-1.26-2.11,1.8,1.8,0,0,0-.7-.59,3.15,3.15,0,0,0-1.19-.16h-.49v6Zm2.36-8.27h1.76a8.51,8.51,0,0,0,2.05-.14,1.27,1.27,0,0,0,.71-.57,2,2,0,0,0,.28-1.14,1.91,1.91,0,0,0-.28-1.1,1.35,1.35,0,0,0-.74-.57,9.37,9.37,0,0,0-1.92-.11H55.93Z"/><path d="M73.11,118.49l2.3.89a6.48,6.48,0,0,1-1.79,3.51A4.46,4.46,0,0,1,70.55,124a4.58,4.58,0,0,1-3.73-1.77,8.55,8.55,0,0,1-1.64-5.51A8.91,8.91,0,0,1,66.84,111a4.66,4.66,0,0,1,3.86-1.79,4.45,4.45,0,0,1,3.3,1.34,5.87,5.87,0,0,1,1.39,2.84l-2.34.69a3.18,3.18,0,0,0-.9-1.78,2.22,2.22,0,0,0-1.58-.62,2.48,2.48,0,0,0-2.12,1.13,6.49,6.49,0,0,0-.82,3.74,6.9,6.9,0,0,0,.8,3.85,2.43,2.43,0,0,0,2.08,1.14,2.15,2.15,0,0,0,1.62-.73A4.61,4.61,0,0,0,73.11,118.49Z"/><path d="M77.15,116.69a10.11,10.11,0,0,1,.76-4.22,5.63,5.63,0,0,1,2-2.46,5.21,5.21,0,0,1,3-.81A5.09,5.09,0,0,1,87,111.12a8.38,8.38,0,0,1,1.59,5.48,8.52,8.52,0,0,1-1.68,5.61,5.42,5.42,0,0,1-8,0A8.41,8.41,0,0,1,77.15,116.69Zm2.44-.1a6.11,6.11,0,0,0,.94,3.7,2.81,2.81,0,0,0,4.65,0,6.27,6.27,0,0,0,.92-3.76,6.1,6.1,0,0,0-.9-3.68,2.77,2.77,0,0,0-2.34-1.19,2.83,2.83,0,0,0-2.36,1.2A6.21,6.21,0,0,0,79.59,116.59Z"/><path d="M101.19,123.76H98.62l-1-3.25h-4.7l-1,3.25H89.4L94,109.44h2.51Zm-4.36-5.67-1.62-5.31-1.59,5.31Z"/><path d="M102.7,123.76v-14.2h2.36v11.77H111v2.43Z"/><path d="M36.47,76.57a27.71,27.71,0,0,1-.13-6.17c.95-6.89,3.2-9.59,3.74-12.2,1-4.89-1.43-10.15-4.34-13.64a8.78,8.78,0,0,1-1.31,5.62c-1.16,1.73-6.1,4.12-6.4,12.26S36.47,76.57,36.47,76.57Z"/><path d="M99.3,68.38c1.52,2.85,1.72,8.55.61,11.6,3.45-3.56,7.22-7.22,7.22-12.72S101.63,55.26,98,52s-4.68-8.85-2.24-16.18c0,0-10.17,6.21-10.17,15.16S97.77,65.54,99.3,68.38Z"/><path d="M83.77,48.75c0,3.74-6.37,12-8.49,13.64,1-6.37-5.66-16.27-5.66-16.27s-.45,11.79-7.17,11.79c-2.42,0-5.56-2.59-8.89-4.82-2.73,4.25-.81,10.31-.81,10.31a18.46,18.46,0,0,1-8.48-15.46c0-10.4,5.75-10.51,5.86-13.33a21.12,21.12,0,0,0-.6-5.46s6.66,3.54,7.36,9.7,2.23,6.16,3.94,7.42c1.12-1.86,2.43-5.6,1.32-8.33-.94-2.32-3.12-6.09-3.76-9.83H71.71A110.27,110.27,0,0,0,79,36.83,19,19,0,0,1,83.77,48.75Z"/><polygon points="52.91 79.09 28.67 81.65 20.87 90.42 28.03 101.39 54.01 101.39 62.53 90.42 52.91 79.09"/><path d="M86.65,78l-20,11.7-4.14,5,5.24,6.7H99.08l8-11.15s-6.1-5-9.64-7.49S86.65,78,86.65,78Z"/><path d="M45.23,73.76C49,74.44,55.9,76,55.9,76L65,86.77,85.56,74.59S71.06,64.48,67,63.26C62.53,64.23,52.3,66.87,45.23,73.76Z"/><path class="cls-1" d="M49.78,13.78a7.46,7.46,0,0,1,.73-3.33A5.34,5.34,0,0,1,52.4,8.19,4.81,4.81,0,0,1,55,7.44a4.52,4.52,0,0,1,3.87,1.93,7.47,7.47,0,0,1,1.4,4.52,8,8,0,0,1-.73,3.47,5.56,5.56,0,0,1-1.92,2.33,4.65,4.65,0,0,1-2.61.78,4.8,4.8,0,0,1-3.77-1.73A7.37,7.37,0,0,1,49.78,13.78Zm2.77.18a4.63,4.63,0,0,0,.74,2.86,2.16,2.16,0,0,0,1.78,1,2.14,2.14,0,0,0,1.75-1,4.74,4.74,0,0,0,.73-2.88,4.66,4.66,0,0,0-.74-2.83,2.17,2.17,0,0,0-1.77-1,2.14,2.14,0,0,0-1.76,1A4.7,4.7,0,0,0,52.55,14Z"/><path class="cls-1" d="M62.92,20.18V3h2.7V20.18Z"/><path class="cls-1" d="M78.22,20.18H75.71V18.35a4.61,4.61,0,0,1-1.46,1.59,3.25,3.25,0,0,1-1.74.53,3.67,3.67,0,0,1-3-1.71,8,8,0,0,1-1.27-4.87A7.84,7.84,0,0,1,69.5,9.07a3.7,3.7,0,0,1,3-1.63,3.13,3.13,0,0,1,1.6.44,4.27,4.27,0,0,1,1.36,1.3V3h2.71ZM71,13.69a8.23,8.23,0,0,0,.29,2.52,2.53,2.53,0,0,0,.82,1.24,1.79,1.79,0,0,0,2.74-.54A5.2,5.2,0,0,0,75.53,14a5.74,5.74,0,0,0-.64-3.09,1.84,1.84,0,0,0-3.21,0A4.84,4.84,0,0,0,71,13.69Z"/></svg>