<svg id="Layer_1" data-name="Layer 1" xmlns="http://www.w3.org/2000/svg" width="128" height="128" viewBox="0 0 128 128"><title>Artboard 17</title><path d="M45.42,124V112.11H41.94v-2.43h9.32v2.43H47.79V124Z"/><path d="M53,124V109.68h5a6.89,6.89,0,0,1,2.73.39,3,3,0,0,1,1.35,1.34,4.63,4.63,0,0,1,.53,2.28,4.22,4.22,0,0,1-.81,2.7,3.54,3.54,0,0,1-2.29,1.29,5.8,5.8,0,0,1,1.26,1.2,16.6,16.6,0,0,1,1.36,2.33L63.55,124H60.73L59,120.88a21.25,21.25,0,0,0-1.26-2.11,1.89,1.89,0,0,0-.7-.59,3.41,3.41,0,0,0-1.19-.16h-.49v6Zm2.36-8.26h1.76a9.1,9.1,0,0,0,2-.14,1.36,1.36,0,0,0,.71-.57,2.15,2.15,0,0,0,.27-1.15,2,2,0,0,0-.27-1.1,1.45,1.45,0,0,0-.74-.57,9.72,9.72,0,0,0-1.92-.1H55.37Z"/><path d="M75.63,124H73.06l-1-3.24h-4.7l-1,3.24H63.84l4.57-14.32h2.51Zm-4.36-5.66L69.65,113l-1.59,5.32Z"/><path d="M77.07,124V109.68h3.81a11.36,11.36,0,0,1,2.78.21,3.12,3.12,0,0,1,1.72,1.41,5.16,5.16,0,0,1,.68,2.8,5.29,5.29,0,0,1-.58,2.6A3.36,3.36,0,0,1,84,118.17a7.43,7.43,0,0,1-3,.43H79.43V124Zm2.36-11.89v4.07h1.31a5.55,5.55,0,0,0,1.8-.19,1.57,1.57,0,0,0,.78-.67,2.21,2.21,0,0,0,.3-1.19,2.16,2.16,0,0,0-.31-1.2,1.54,1.54,0,0,0-.78-.66,7.11,7.11,0,0,0-1.94-.16Z"/><path d="M46.25,17.56V3.24h8V5.67H48.62V9.05h4.92v2.43H48.62v6.08Z"/><path d="M56.39,17.56V3.24h2.36V17.56Z"/><path d="M60.62,12.89l2.31-.27c.26,1.83,1.12,2.74,2.56,2.74a2.38,2.38,0,0,0,1.69-.56,1.81,1.81,0,0,0,.62-1.39A1.45,1.45,0,0,0,66.93,12a19.5,19.5,0,0,0-2.13-.74,7.07,7.07,0,0,1-2.22-1,3.84,3.84,0,0,1-1.12-1.41A4.41,4.41,0,0,1,61.05,7a4.26,4.26,0,0,1,.53-2.11,3.56,3.56,0,0,1,1.47-1.41A5.06,5.06,0,0,1,65.36,3,4.48,4.48,0,0,1,68.6,4.12a4.52,4.52,0,0,1,1.23,3.22l-2.38.12a2.52,2.52,0,0,0-.67-1.61,2.17,2.17,0,0,0-1.47-.46,2.44,2.44,0,0,0-1.48.4,1.23,1.23,0,0,0-.52,1,1.27,1.27,0,0,0,.47,1,7,7,0,0,0,2.16.88,8.77,8.77,0,0,1,2.58,1.08,3.73,3.73,0,0,1,1.22,1.48,5.15,5.15,0,0,1,.42,2.19A4.51,4.51,0,0,1,69,16.54a4.62,4.62,0,0,1-3.59,1.26C62.55,17.8,60.94,16.17,60.62,12.89Z"/><path d="M72.36,17.56V3.24h2.37V8.88h4.65V3.24h2.37V17.56H79.38V11.3H74.73v6.26Z"/><path d="M103,61.76l-.51-35.62s0,0,0,0a.66.66,0,0,0,0-.13c0-.67-.35-2.84-4.8-2.84-2.81,0-5.84.89-5.84,2.84,0,0,0,.07,0,.11s0,0,0,.06V43.25l-5.66-.75.14-15.33h0c0-2-2.74-2.84-5.28-2.84s-5.28.88-5.28,2.84v.07l1,13.4c0,.33,0,.67,0,1l-.13,5.2-6.91-1V29.34c0-1.95-2.64-2.19-5.18-2.19-3.84,0-4.36,1.34-4.36,2.19V45.92H52.89V34.87c0-1.95-2.75-1.71-5.28-2.1s-5.28.15-5.28,2.1V45.92H35V35.86s0-.07,0-.11c0-2-3.38-2.46-6-2.09s-4.55.14-4.55,2.09c0,0,0,.08,0,.12s0,0,0,.05l1,51.76a1,1,0,0,0,1,1h0a1,1,0,0,0,1-1L27.25,73h5.68l.64,10.89-.64,1.67a1,1,0,0,0,2.07,0V69.74h7.33v7.58a1,1,0,0,0,2.07,0V66.47h6.42V78.35a1,1,0,0,0,2.07,0V48l7.36,1V74.89a1,1,0,0,0,2.07,0V64.73h5.4V74.89a1,1,0,0,0,2.07,0V65.76l6.46-1-.44,17.66a1,1,0,0,0,1,1.06h0a1,1,0,0,0,1-1l.39-15.24H84l-.14,16.23a1,1,0,0,0,1,1h0a1,1,0,0,0,1-1l.27-31.77,5.73-.77v27a1,1,0,0,0,2.07,0V69.34l7.24.78L101.49,81a1,1,0,0,0,1,1h0a1,1,0,0,0,1-1.07ZM47.61,34.1a5.24,5.24,0,0,1,3.16.77,5.24,5.24,0,0,1-3.16.77,5.27,5.27,0,0,1-3.16-.77A5.24,5.24,0,0,1,47.61,34.1Zm3.21,3.08V49.77H44.4V37.18a7.11,7.11,0,0,0,2.76.88A12.19,12.19,0,0,0,50.82,37.18Zm-24.27.9a14.4,14.4,0,0,0,3.95.48,5.34,5.34,0,0,0,2.43-.5V63.64H27.06ZM29.72,35a5.24,5.24,0,0,1,3.16.77,4.53,4.53,0,0,1-3,.77,6,6,0,0,1-3.34-.77A5.24,5.24,0,0,1,29.72,35Zm-2.51,35-.11-4.22h5.83V71ZM35,66.64V49l7.33-1v19.7Zm9.4-2.24V51.84h6.42V63.37Zm56.09-36,.22,15.15H94V28.22a11,11,0,0,0,3.77.61A8,8,0,0,0,100.49,28.42Zm.31,21.35H94V45.63h6.78ZM94,51.84h6.87l.15,10,0,.85H94Zm3.77-26.63c2,0,2.66.55,2.73.78.25.77-.69.77-2.73.77A7.13,7.13,0,0,1,94.07,26,7,7,0,0,1,97.73,25.21ZM78.87,40.55l-.83-11a9.46,9.46,0,0,0,3,.48,9.17,9.17,0,0,0,3.19-.53l-.1,11.08Zm2.22-14.17a5.17,5.17,0,0,1,3.16.78c-.09,1.06-1.39.77-3.16.77a5.24,5.24,0,0,1-3.16-.77C77.75,26.21,79.31,26.38,81.09,26.38Zm-18.77,5.5a14,14,0,0,0,3.18.59c1.11,0,1.27-.46,2.22-.82V51.88h-5.4Zm2.31-3.75a4.17,4.17,0,0,1,3,1.21c-.16,1.49-1.38.77-3.16.77-1,0-2.18-.2-2.18-.77S63.58,28.13,64.63,28.13ZM62.32,62.66V53.94h5.4v8.72Zm7.47,0V48.9h6.86L76.3,62.66Zm8.52,2.47.56-22.51h5.29L84,64.09Zm7.86-16.58,0-4,5.67.76v3.48ZM94,67.26V64.73h7.1l.08,3.3Z"/><path d="M31.64,86.58c2.64,1.26,5,3.1,7.7,4.26a30.75,30.75,0,0,0,11.4,2.68c.89,0,1.76,1.13,2.4,1.83,1.29,1.41,1.29,1.15,2.62,2.51.79.8,2.73,1.77,3.72,1.43s.08-1.19.25-2.15c.05-.32-.61-.77-.58-1.1.18-1.81-1.3-1.59-1.07-1.7a2.5,2.5,0,0,1,1.69-.08A12.32,12.32,0,0,0,67.89,93c1.37-.79,2.64-1,3.72.58.13.18.36.42.52.4,2.24-.39,2.48.74,4.35,1.54,2.28,1,4.92,1.56,6-.94l0-.14c1.24-3.09-1.88-3-2-5.52,0-.14-.22-.14-.47-.3,2.7-.84,3.46-.9,5.84.65a65.36,65.36,0,0,0,5.94,3.31,9.39,9.39,0,0,0,1.59.63c.76.23,1.27-.07,1.41-1,.4-2.62-1.42-5.14-1.28-7.77.15-2.81,2.23-5.74,1.86-8.58-.14-1.1-.58-1.38-1.52-1-3,1.22-5.63,3.05-8.45,4.55-1,.54-4.49,3.36-13-2.88a45.2,45.2,0,0,0-3.79-2.57c-1.44-.84-.7-2.53-1.08-2.75-1.16-.67-4.44-2.81-6.19-3.35s-1.49.51-2.89,0a1.44,1.44,0,0,0-1,.1c-1.06.93-2.44-.66-2.74.17-.57,1.53-2.32,1-3.26,1.13C44.12,70.53,37.92,74.57,32,79.32c-1.2,1-1.25,1.58-.24,2.86.48.62,1,1.21,1.51,1.83-.41.54-.94.28-1.37.44s-1,.22-1.13.82A1.21,1.21,0,0,0,31.64,86.58ZM41,80.74a2.16,2.16,0,1,1,2.16,2.16A2.15,2.15,0,0,1,41,80.74Z"/></svg>