<svg id="Layer_1" data-name="Layer 1" xmlns="http://www.w3.org/2000/svg" width="128" height="128" viewBox="0 0 128 128"><defs><style>.cls-1{fill:#6167ab;}.cls-2{fill:#61ce63;}</style></defs><title>Artboard 19</title><path d="M48.26,118.49l2.3.89a6.48,6.48,0,0,1-1.79,3.51A4.48,4.48,0,0,1,45.69,124,4.55,4.55,0,0,1,42,122.23a8.55,8.55,0,0,1-1.64-5.51A9,9,0,0,1,42,111a4.68,4.68,0,0,1,3.86-1.79,4.46,4.46,0,0,1,3.31,1.34,6,6,0,0,1,1.39,2.84l-2.35.69a3.17,3.17,0,0,0-.89-1.78,2.24,2.24,0,0,0-1.58-.62,2.51,2.51,0,0,0-2.13,1.13,6.57,6.57,0,0,0-.82,3.74,7,7,0,0,0,.8,3.85,2.45,2.45,0,0,0,2.08,1.14,2.12,2.12,0,0,0,1.62-.73A4.52,4.52,0,0,0,48.26,118.49Z"/><path d="M63.37,123.76H60.8l-1-3.25h-4.7l-1,3.25H51.59l4.57-14.32h2.51ZM59,118.09l-1.62-5.31-1.59,5.31Z"/><path d="M64.78,123.76V109.44h3.55l2.13,9.77,2.12-9.77h3.56v14.32H73.93V112.48l-2.34,11.28H69.31L67,112.48v11.28Z"/><path d="M78.67,123.76V109.44h3.81a12.22,12.22,0,0,1,2.79.2A3.22,3.22,0,0,1,87,111.06a5.19,5.19,0,0,1,.68,2.79,5.3,5.3,0,0,1-.59,2.61,3.39,3.39,0,0,1-1.46,1.47,7.68,7.68,0,0,1-3,.43H81v5.4ZM81,111.86v4.07h1.31a6,6,0,0,0,1.8-.18,1.65,1.65,0,0,0,.77-.67,2.15,2.15,0,0,0,.31-1.19,2.2,2.2,0,0,0-.32-1.21,1.5,1.5,0,0,0-.77-.65,7.06,7.06,0,0,0-2-.17Z"/><path class="cls-1" d="M31.25,17.56V3.24h8V5.67H33.61V9.05h4.92v2.43H33.61v6.08Z"/><path class="cls-1" d="M41.38,17.56V3.24h2.36V17.56Z"/><path class="cls-1" d="M45.61,12.89l2.32-.27c.26,1.83,1.11,2.74,2.55,2.74a2.38,2.38,0,0,0,1.69-.56,1.81,1.81,0,0,0,.62-1.39,1.49,1.49,0,0,0-.22-.83,1.57,1.57,0,0,0-.65-.56,18,18,0,0,0-2.13-.74,7.07,7.07,0,0,1-2.22-1,3.81,3.81,0,0,1-1.11-1.41A4.28,4.28,0,0,1,46,7a4.26,4.26,0,0,1,.53-2.11A3.56,3.56,0,0,1,48,3.48,5.07,5.07,0,0,1,50.36,3a4.45,4.45,0,0,1,3.23,1.12,4.52,4.52,0,0,1,1.23,3.22l-2.37.12a2.57,2.57,0,0,0-.68-1.61,2.16,2.16,0,0,0-1.47-.46,2.44,2.44,0,0,0-1.48.4,1.22,1.22,0,0,0-.51,1,1.24,1.24,0,0,0,.47,1,6.75,6.75,0,0,0,2.16.88,8.77,8.77,0,0,1,2.58,1.08,3.79,3.79,0,0,1,1.21,1.48,5.15,5.15,0,0,1,.42,2.19A4.51,4.51,0,0,1,54,16.54a4.61,4.61,0,0,1-3.58,1.26C47.54,17.8,45.94,16.17,45.61,12.89Z"/><path class="cls-1" d="M57.35,17.56V3.24h2.37V8.88h4.66V3.24h2.36V17.56H64.38V11.3H59.72v6.26Z"/><path class="cls-1" d="M69.31,17.56V3.24h2.37V17.56Z"/><path class="cls-1" d="M74.17,17.56V3.24h2.31l4.8,9.56V3.24h2.21V17.56H81.1L76.38,8.22v9.34Z"/><path class="cls-1" d="M91.65,12.31V9.88h5.1v5.71a6.34,6.34,0,0,1-2.18,1.56,6.72,6.72,0,0,1-2.85.65A5.5,5.5,0,0,1,88.66,17a5.77,5.77,0,0,1-2.11-2.56,9.69,9.69,0,0,1-.77-4,9.55,9.55,0,0,1,.78-4,6,6,0,0,1,2-2.51,5.37,5.37,0,0,1,3-.83A5,5,0,0,1,95,4.07,5.1,5.1,0,0,1,96.6,7.21l-2.35.54a3,3,0,0,0-1-1.69,2.55,2.55,0,0,0-1.68-.59,3,3,0,0,0-2.45,1.18,5.66,5.66,0,0,0-.94,3.59,6.51,6.51,0,0,0,1,3.93,2.78,2.78,0,0,0,2.36,1.16A3.55,3.55,0,0,0,93,15a4.63,4.63,0,0,0,1.33-.89V12.31Z"/><path d="M108.1,97.06,65.83,37.54,73.28,27a1.5,1.5,0,0,0-2.45-1.73L64,34.93l-6.83-9.71A1.5,1.5,0,1,0,54.72,27l7.45,10.59L19.9,97.06H49.69V74.75H78.31V97.06Z"/><path class="cls-2" d="M49.78,64.22a7.54,7.54,0,0,1,.73-3.34,5.31,5.31,0,0,1,1.89-2.25A4.81,4.81,0,0,1,55,57.88a4.52,4.52,0,0,1,3.87,1.93,7.44,7.44,0,0,1,1.4,4.51,8,8,0,0,1-.73,3.48,5.56,5.56,0,0,1-1.92,2.33,4.65,4.65,0,0,1-2.61.78,4.77,4.77,0,0,1-3.77-1.74A7.36,7.36,0,0,1,49.78,64.22Zm2.77.17a4.71,4.71,0,0,0,.73,2.87,2.22,2.22,0,0,0,1.79,1,2.14,2.14,0,0,0,1.75-1,4.74,4.74,0,0,0,.73-2.88,4.64,4.64,0,0,0-.74-2.83,2.18,2.18,0,0,0-1.77-1,2.15,2.15,0,0,0-1.76,1A4.68,4.68,0,0,0,52.55,64.39Z"/><path class="cls-2" d="M62.92,70.62V53.44h2.7V70.62Z"/><path class="cls-2" d="M78.22,70.62H75.71V68.79a4.61,4.61,0,0,1-1.46,1.59,3.25,3.25,0,0,1-1.74.53,3.67,3.67,0,0,1-3-1.71,8,8,0,0,1-1.27-4.88A7.86,7.86,0,0,1,69.5,59.5a3.72,3.72,0,0,1,3-1.62,3.12,3.12,0,0,1,1.6.43,4.38,4.38,0,0,1,1.36,1.3V53.44h2.71ZM71,64.12a8.23,8.23,0,0,0,.29,2.52,2.56,2.56,0,0,0,.82,1.25,1.79,1.79,0,0,0,2.74-.55,5.16,5.16,0,0,0,.66-2.9,5.78,5.78,0,0,0-.64-3.1,1.85,1.85,0,0,0-3.21,0A4.83,4.83,0,0,0,71,64.12Z"/></svg>