<svg id="Layer_1" data-name="Layer 1" xmlns="http://www.w3.org/2000/svg" width="128" height="128" viewBox="0 0 128 128"><defs><style>.cls-1{fill:#d62525;}</style></defs><title>Artboard 30</title><rect x="40.37" y="41.95" width="9.63" height="48.02" rx="0.52" transform="translate(59.87 -12.63) rotate(45)"/><rect x="70.65" y="32.66" width="9.63" height="6.01" rx="0.52" transform="translate(47.33 -42.92) rotate(45)"/><path d="M42.4,29.61s15.11-4,29.1,10S82.15,69.36,82.15,69.36s-5.25-10.9-17.36-23S42.4,29.61,42.4,29.61Z"/><polygon points="73.65 80.26 81.68 73.5 96.47 78.66 83.48 85.82 73.65 80.26"/><polygon points="85.92 88.26 98.88 80.68 102.99 98.91 83.09 98.91 85.92 88.26"/><polygon points="82.5 87.74 79.88 98.91 62.95 98.91 71.93 82.35 82.5 87.74"/><path d="M67.82,79.4H59.48a1.16,1.16,0,1,1,0-2.31h8.34a1.16,1.16,0,0,1,0,2.31Z"/><path d="M71.91,72.56a1.17,1.17,0,0,1-.81-.33l-5.58-5.44a1.16,1.16,0,0,1,0-1.64,1.14,1.14,0,0,1,1.63,0l5.59,5.45a1.16,1.16,0,0,1,0,1.63A1.18,1.18,0,0,1,71.91,72.56Z"/><path d="M89.74,69.84a1.16,1.16,0,0,1-.48-.11,1.15,1.15,0,0,1-.57-1.53l2.87-6.28a1.16,1.16,0,0,1,2.11,1l-2.88,6.28A1.14,1.14,0,0,1,89.74,69.84Z"/><path class="cls-1" d="M38.37,11.52,35.92,11a4.67,4.67,0,0,1,1.47-2.71,4.59,4.59,0,0,1,3-.83A5.67,5.67,0,0,1,43,7.92a2.86,2.86,0,0,1,1.29,1.31,7.94,7.94,0,0,1,.38,3l0,3.85a15.81,15.81,0,0,0,.13,2.41,8.82,8.82,0,0,0,.48,1.68H42.54l-.35-1.36a5,5,0,0,1-1.49,1.24,3.6,3.6,0,0,1-1.68.41,3.18,3.18,0,0,1-2.43-1,3.7,3.7,0,0,1-1-2.67A4.23,4.23,0,0,1,36,15a3.11,3.11,0,0,1,1.09-1.26,7.26,7.26,0,0,1,2.25-.83A13.17,13.17,0,0,0,42,12.06a3.87,3.87,0,0,0-.15-1.36,1.11,1.11,0,0,0-.54-.53A2.38,2.38,0,0,0,40.18,10a1.8,1.8,0,0,0-1.14.33A2.35,2.35,0,0,0,38.37,11.52ZM42,14.2a14.19,14.19,0,0,1-1.61.5,3.7,3.7,0,0,0-1.64.73,1.4,1.4,0,0,0-.39,1,1.76,1.76,0,0,0,.43,1.2,1.36,1.36,0,0,0,1.07.49A2,2,0,0,0,41,17.76a2.17,2.17,0,0,0,.78-.94,6.07,6.07,0,0,0,.22-2Z"/><path class="cls-1" d="M56.68,11.4,54,12c-.19-1.31-.81-2-1.85-2a1.88,1.88,0,0,0-1.61.85,5,5,0,0,0-.62,2.85,6,6,0,0,0,.61,3.14,1.9,1.9,0,0,0,1.64.92,1.65,1.65,0,0,0,1.26-.52,3.64,3.64,0,0,0,.7-1.85l2.66.55q-.83,4.5-4.72,4.5a4.06,4.06,0,0,1-3.7-1.9A8.32,8.32,0,0,1,47.18,14a7.59,7.59,0,0,1,1.36-4.88,4.82,4.82,0,0,1,6.52-.72A5.49,5.49,0,0,1,56.68,11.4Z"/><path class="cls-1" d="M63.86,7.73v2.63H62v5a10,10,0,0,0,.09,1.89.64.64,0,0,0,.66.47,2.91,2.91,0,0,0,1.08-.31L64.09,20a4.48,4.48,0,0,1-2.12.49A2.6,2.6,0,0,1,60.31,20a2.44,2.44,0,0,1-.83-1.42,14.69,14.69,0,0,1-.16-2.77V10.36H58.08V7.73h1.24V5.26L62,3.34V7.73Z"/><path class="cls-1" d="M66.23,6.05V3h2.71V6.05Zm0,14.13V7.73h2.71V20.18Z"/><path class="cls-1" d="M75,20.18,70.87,7.73H73.7l1.92,6.36.57,2.12.57-2.12,1.95-6.36h2.77L77.41,20.18Z"/><path class="cls-1" d="M89.54,16.23l2.68.55a5.33,5.33,0,0,1-1.67,2.78,4.29,4.29,0,0,1-2.77.91A4.25,4.25,0,0,1,84.28,19,7.55,7.55,0,0,1,82.82,14a7.89,7.89,0,0,1,1.47-5A3.9,3.9,0,0,1,87.5,7.44a4.07,4.07,0,0,1,3.43,1.62,8.82,8.82,0,0,1,1.43,5.47v.38H85.59a3.8,3.8,0,0,0,.66,2.29A1.93,1.93,0,0,0,87.8,18C88.67,18,89.25,17.42,89.54,16.23Zm.14-3.34a3.59,3.59,0,0,0-.62-2.19,1.71,1.71,0,0,0-2.84,0,3.38,3.38,0,0,0-.58,2.16Z"/><path d="M13.87,123.76V109.44h3.54l2.14,9.77,2.12-9.77h3.56v14.32H23V112.48l-2.34,11.28H18.4l-2.32-11.28v11.28Z"/><path d="M27.69,123.76V109.44h2.37v14.32Z"/><path d="M32.55,123.76V109.44h2.31l4.8,9.56v-9.56h2.21v14.32H39.48l-4.72-9.34v9.34Z"/><path d="M44.49,123.76V109.44h2.36v14.32Z"/><path d="M49.35,123.76V109.44h2.3L56.46,119v-9.56h2.2v14.32H56.28l-4.73-9.34v9.34Z"/><path d="M66.82,118.5v-2.42h5.11v5.7a6.18,6.18,0,0,1-2.19,1.57,6.79,6.79,0,0,1-2.84.65,5.56,5.56,0,0,1-3.07-.85,5.88,5.88,0,0,1-2.1-2.56,9.6,9.6,0,0,1-.78-4,9.48,9.48,0,0,1,.79-4,5.83,5.83,0,0,1,2-2.51,5.28,5.28,0,0,1,3-.83,4.59,4.59,0,0,1,5,4.2l-2.34.54a3.08,3.08,0,0,0-1-1.69,2.54,2.54,0,0,0-1.68-.58,3,3,0,0,0-2.45,1.17,5.75,5.75,0,0,0-.94,3.59,6.45,6.45,0,0,0,1,3.94,2.79,2.79,0,0,0,2.35,1.16,3.5,3.5,0,0,0,1.44-.33,4.3,4.3,0,0,0,1.34-.89V118.5Z"/><path d="M78.48,119.09l2.32-.28c.26,1.83,1.11,2.75,2.56,2.75A2.42,2.42,0,0,0,85,121a1.79,1.79,0,0,0,.62-1.39,1.53,1.53,0,0,0-.21-.83,1.6,1.6,0,0,0-.66-.56,16.21,16.21,0,0,0-2.13-.74,7.1,7.1,0,0,1-2.21-1,3.59,3.59,0,0,1-1.12-1.41,4.42,4.42,0,0,1,.11-4,3.53,3.53,0,0,1,1.47-1.42,5.08,5.08,0,0,1,2.32-.47,4.06,4.06,0,0,1,4.46,4.33l-2.37.13a2.55,2.55,0,0,0-.68-1.61,2.11,2.11,0,0,0-1.47-.46,2.32,2.32,0,0,0-1.47.4,1.18,1.18,0,0,0-.52,1,1.21,1.21,0,0,0,.47,1,6.52,6.52,0,0,0,2.16.88,9,9,0,0,1,2.58,1.09,3.69,3.69,0,0,1,1.21,1.47,5.23,5.23,0,0,1,.42,2.2,4.52,4.52,0,0,1-1.14,3.13A4.62,4.62,0,0,1,83.29,124Q79,124,78.48,119.09Z"/><path d="M90.15,123.76V109.44h2.36v14.32Z"/><path d="M97.62,123.76v-11.9H94.14v-2.42h9.32v2.42H100v11.9Z"/><path d="M105.21,123.76V109.44h8.71v2.42h-6.35V115h5.9v2.41h-5.9v3.88h6.56v2.43Z"/></svg>