<svg id="Layer_1" data-name="Layer 1" xmlns="http://www.w3.org/2000/svg" width="128" height="128" viewBox="0 0 128 128"><defs><style>.cls-1{fill:#0961f5;}</style></defs><title>Artboard 37</title><path d="M29.13,119.09l2.31-.28c.27,1.83,1.12,2.75,2.56,2.75a2.43,2.43,0,0,0,1.69-.56,1.82,1.82,0,0,0,.62-1.39,1.45,1.45,0,0,0-.22-.83,1.51,1.51,0,0,0-.65-.56,16.21,16.21,0,0,0-2.13-.74,7.29,7.29,0,0,1-2.22-1A3.68,3.68,0,0,1,30,115.07a4.37,4.37,0,0,1-.41-1.87,4.24,4.24,0,0,1,.53-2.11,3.53,3.53,0,0,1,1.47-1.42,5.08,5.08,0,0,1,2.32-.47,4.45,4.45,0,0,1,3.23,1.12,4.52,4.52,0,0,1,1.23,3.21l-2.37.13a2.55,2.55,0,0,0-.68-1.61,2.11,2.11,0,0,0-1.47-.46,2.37,2.37,0,0,0-1.48.4,1.2,1.2,0,0,0-.51,1,1.23,1.23,0,0,0,.46,1,6.73,6.73,0,0,0,2.16.88A9,9,0,0,1,37,115.93a3.69,3.69,0,0,1,1.21,1.47,5.23,5.23,0,0,1,.42,2.2,4.48,4.48,0,0,1-1.15,3.13A4.59,4.59,0,0,1,33.93,124Q29.63,124,29.13,119.09Z"/><path d="M40.38,116.69a10.28,10.28,0,0,1,.76-4.22,5.77,5.77,0,0,1,2-2.46,5.22,5.22,0,0,1,3-.81,5.06,5.06,0,0,1,4.1,1.92,8.38,8.38,0,0,1,1.59,5.48,8.52,8.52,0,0,1-1.68,5.61,4.92,4.92,0,0,1-4,1.79,5,5,0,0,1-4-1.77A8.46,8.46,0,0,1,40.38,116.69Zm2.45-.1a6,6,0,0,0,.94,3.7,2.8,2.8,0,0,0,4.64,0,6.27,6.27,0,0,0,.92-3.76,6.17,6.17,0,0,0-.89-3.68,2.91,2.91,0,0,0-4.7,0A6.14,6.14,0,0,0,42.83,116.59Z"/><path d="M53.81,109.44h2.36v7.75a18.81,18.81,0,0,0,.09,2.36A2.32,2.32,0,0,0,57,121a2.61,2.61,0,0,0,2.9.15,1.86,1.86,0,0,0,.71-1,12.36,12.36,0,0,0,.19-2.79v-7.92h2.36V117a20.28,20.28,0,0,1-.3,4.16,3.55,3.55,0,0,1-1.39,2.08,4.7,4.7,0,0,1-2.85.8,5.26,5.26,0,0,1-2.86-.66,3.76,3.76,0,0,1-1.5-1.85,14,14,0,0,1-.46-4.41Z"/><path d="M65.87,123.76V109.44h5a6.91,6.91,0,0,1,2.74.39A3.08,3.08,0,0,1,75,111.16a4.68,4.68,0,0,1,.52,2.28,4.32,4.32,0,0,1-.8,2.71,3.62,3.62,0,0,1-2.29,1.29,6.25,6.25,0,0,1,1.26,1.19A17.46,17.46,0,0,1,75,121l1.43,2.8H73.59l-1.71-3.12a20,20,0,0,0-1.26-2.11,1.87,1.87,0,0,0-.7-.59,3.21,3.21,0,0,0-1.2-.16h-.48v6Zm2.37-8.27H70a8.45,8.45,0,0,0,2.05-.14,1.26,1.26,0,0,0,.72-.57,2.14,2.14,0,0,0,.27-1.14,2,2,0,0,0-.27-1.1A1.35,1.35,0,0,0,72,112a9.57,9.57,0,0,0-1.93-.11H68.24Z"/><path d="M85.42,118.49l2.29.89a6.41,6.41,0,0,1-1.78,3.51A4.48,4.48,0,0,1,82.85,124a4.55,4.55,0,0,1-3.72-1.77,8.55,8.55,0,0,1-1.64-5.51A9,9,0,0,1,79.14,111,4.68,4.68,0,0,1,83,109.2a4.46,4.46,0,0,1,3.31,1.34,5.86,5.86,0,0,1,1.38,2.84l-2.34.69a3.17,3.17,0,0,0-.89-1.78,2.24,2.24,0,0,0-1.58-.62,2.51,2.51,0,0,0-2.13,1.13,6.49,6.49,0,0,0-.82,3.74,7,7,0,0,0,.8,3.85,2.44,2.44,0,0,0,2.08,1.14,2.12,2.12,0,0,0,1.62-.73A4.52,4.52,0,0,0,85.42,118.49Z"/><path d="M89.94,123.76V109.44h8.72v2.42H92.31V115h5.9v2.41h-5.9v3.88h6.56v2.43Z"/><path d="M37.48,17.32,34.66,3H37.1l1.76,9.84L41,3h2.83l2.06,10L47.7,3h2.38L47.23,17.32H44.71L42.36,6.61,40,17.32Z"/><path d="M61.18,17.32H58.61l-1-3.25h-4.7l-1,3.25H49.4L54,3h2.51Zm-4.36-5.67L55.2,6.34l-1.59,5.31Z"/><path d="M64.07,17.32V5.42H60.58V3h9.33V5.42H66.43v11.9Z"/><path d="M71.65,17.32V3h8.71V5.42H74V8.6h5.89V11H74v3.88h6.56v2.43Z"/><path d="M82.79,17.32V3h5a6.82,6.82,0,0,1,2.73.39,3,3,0,0,1,1.35,1.33A4.68,4.68,0,0,1,92.39,7a4.25,4.25,0,0,1-.81,2.71A3.6,3.6,0,0,1,89.29,11a5.76,5.76,0,0,1,1.26,1.19,17.24,17.24,0,0,1,1.36,2.33l1.43,2.8H90.51L88.79,14.2a16.94,16.94,0,0,0-1.26-2.11,1.8,1.8,0,0,0-.7-.59,3.15,3.15,0,0,0-1.19-.16h-.49v6Zm2.36-8.27h1.76a8.51,8.51,0,0,0,2-.14,1.27,1.27,0,0,0,.71-.57A2,2,0,0,0,90,7.2a1.91,1.91,0,0,0-.28-1.1,1.35,1.35,0,0,0-.74-.57A9.37,9.37,0,0,0,87,5.42H85.15Z"/><path class="cls-1" d="M91.21,75.94a27.21,27.21,0,1,1-54.42,0c0-15,20.35-25.41,27.21-50.13C69.26,50.16,91.21,60.91,91.21,75.94Z"/></svg>