<svg id="Layer_1" data-name="Layer 1" xmlns="http://www.w3.org/2000/svg" width="128" height="128" viewBox="0 0 128 128"><defs><style>.cls-1{fill:#d62525;}.cls-2{fill:#fcce05;}</style></defs><title>Artboard 38</title><path d="M45.63,123.76H43.06l-1-3.25h-4.7l-1,3.25H33.84l4.57-14.32h2.51Zm-4.36-5.67-1.62-5.31-1.59,5.31Z"/><path d="M54.59,118.49l2.29.89a6.41,6.41,0,0,1-1.78,3.51A4.48,4.48,0,0,1,52,124a4.55,4.55,0,0,1-3.72-1.77,8.55,8.55,0,0,1-1.64-5.51A9,9,0,0,1,48.31,111a4.68,4.68,0,0,1,3.86-1.79,4.46,4.46,0,0,1,3.31,1.34,5.86,5.86,0,0,1,1.38,2.84l-2.34.69a3.17,3.17,0,0,0-.89-1.78,2.24,2.24,0,0,0-1.59-.62,2.51,2.51,0,0,0-2.12,1.13,6.49,6.49,0,0,0-.82,3.74,7,7,0,0,0,.8,3.85A2.44,2.44,0,0,0,52,121.53a2.12,2.12,0,0,0,1.62-.73A4.52,4.52,0,0,0,54.59,118.49Z"/><path d="M61.75,123.76v-11.9H58.26v-2.42h9.33v2.42H64.11v11.9Z"/><path d="M69.26,123.76V109.44h2.36v14.32Z"/><path d="M77.09,123.76l-4.2-14.32h2.57l3,10.6,2.87-10.6h2.52l-4.21,14.32Z"/><path d="M85.23,123.76V109.44h8.71v2.42H87.6V115h5.89v2.41H87.6v3.88h6.56v2.43Z"/><path d="M46,17.32V3h8V5.42H48.4V8.81h4.92v2.42H48.4v6.09Z"/><path d="M56.17,17.32V3h2.36V17.32Z"/><path d="M61,17.32V3h5a6.91,6.91,0,0,1,2.74.39,3,3,0,0,1,1.35,1.33A4.68,4.68,0,0,1,70.6,7a4.24,4.24,0,0,1-.8,2.71A3.62,3.62,0,0,1,67.51,11a5.76,5.76,0,0,1,1.26,1.19,18.4,18.4,0,0,1,1.36,2.33l1.42,2.8H68.72L67,14.2a20,20,0,0,0-1.26-2.11,1.87,1.87,0,0,0-.7-.59,3.19,3.19,0,0,0-1.19-.16h-.49v6Zm2.37-8.27h1.76a8.56,8.56,0,0,0,2.05-.14,1.27,1.27,0,0,0,.71-.57,2.11,2.11,0,0,0,.27-1.14,2,2,0,0,0-.27-1.1,1.35,1.35,0,0,0-.74-.57,9.5,9.5,0,0,0-1.93-.11H63.37Z"/><path d="M73,17.32V3h8.71V5.42H75.4V8.6h5.9V11H75.4v3.88H82v2.43Z"/><path class="cls-1" d="M67.45,103.15c-10.24,0-19.33-1.49-24.33-5.24A21.65,21.65,0,0,1,34.69,81c-.11-5,.05-9.65-.82-10.73a9.87,9.87,0,0,0-7.36-3.94c3.43-2.23,9.08-1.76,14.56.83-.51-6.14-1.54-13.5-5.65-17.27,7,4.45,13.87,9.76,16.61,6.85S50.49,41.66,43.81,38.4c4.62-.51,14.56,8.57,15.76,9.76a49.75,49.75,0,0,1-1.24-9.55c0-2.36-1-9.63,3.81-14.43.17,5.83,2.4,20.56,13.7,23,.51-3.77,2.4-5,.86-7.71,4.28,2.91,8.73,8.56,9.59,14s.51,8.74,1,10.2S90.06,65,90.06,65s3.25-6.17,0-11.82c5.31,2.57,7.7,7,7.53,10.54s-1.88,6.25-2,8.47a10.22,10.22,0,0,0,5.31-5C101,71.46,103.59,85,97.08,93S77.69,103.15,67.45,103.15Z"/><path class="cls-2" d="M66.87,99.93c-8.68,0-13.63-1.86-16.58-5.26s-4.18-10.85-1.86-16.89c2.33,3.1,4.34,5.11,6.67,3.72s4.33-7.13,3.56-10.23c3.41,3.26,5.88,5.43,7.28,6.82A21.84,21.84,0,0,1,80.19,61.36c-1.39,3.87-4.49,11-2.48,16.11,3.1,1.86,8.37.77,11.93-4.49C90.1,78.09,89.48,99.93,66.87,99.93Z"/></svg>