<?xml version="1.0" encoding="utf-8"?>
<!-- Generator: Adobe Illustrator 24.1.2, SVG Export Plug-In . SVG Version: 6.00 Build 0)  -->
<svg version="1.1" id="Layer_1" xmlns="http://www.w3.org/2000/svg" xmlns:xlink="http://www.w3.org/1999/xlink" x="0px" y="0px"
	 viewBox="0 0 128 128" style="enable-background:new 0 0 128 128;" xml:space="preserve">
<style type="text/css">
	.st0{fill:#2D2D2D;}
</style>
<path class="st0" d="M123,81h5v-8.5h-5.1c0-3.1-0.1-6.1-0.1-9.2l0-0.3l-0.2-0.2c-1.7-2-3.4-4.1-5.2-6.1L117,56l-0.5,0.6l-4.9,6.4
	l-0.1,0.1l0,0.2c0.1,3.1,0.1,6.1,0.2,9.2h-6.4c0-3.1-0.1-6.1-0.1-9.2l0-0.3l-0.2-0.2c-1.7-2-3.4-4.1-5.2-6.1L99.3,56l-0.5,0.6
	L93.9,63l-0.1,0.1l0,0.2c0.1,3.1,0.1,6.1,0.2,9.2h-6.4c0-3.1-0.1-6.1-0.1-9.2l0-0.3l-0.2-0.2c-1.7-2-3.4-4.1-5.2-6.1L81.6,56
	l-0.5,0.6L76.3,63l-0.1,0.1l0,0.2c0.1,3.1,0.1,6.1,0.2,9.2H70c0-3.1-0.1-6.1-0.1-9.2l0-0.3l-0.2-0.2c-1.7-2-3.4-4.1-5.2-6.1L64,56
	l-0.5,0.6L58.6,63l-0.1,0.1l0,0.2c0.1,3.1,0.1,6.1,0.2,9.2h-6.4c0-3.1-0.1-6.1-0.1-9.2l0-0.3L52,62.8c-1.7-2-3.4-4.1-5.2-6.1
	L46.3,56l-0.5,0.6L40.9,63l-0.1,0.1l0,0.2c0.1,3.1,0.1,6.1,0.2,9.2h-6.4c0-3.1-0.1-6.1-0.1-9.2l0-0.3l-0.2-0.2
	c-1.7-2-3.4-4.1-5.2-6.1L28.6,56l-0.5,0.6L23.3,63l-0.1,0.1l0,0.2c0.1,3.1,0.1,6.1,0.2,9.2h-7c0-3.1,0.1-6.1,0.2-9.2l0-0.2L16.4,63
	l-4.9-6.4L11,56l-0.5,0.6c-1.7,2-3.4,4.1-5.2,6.1L5.2,63l0,0.3c0,3.1-0.1,6.1-0.1,9.2H0V81h5c0,4.9,0,9.9,0.1,14.8
	c0.1,3.8,0.1,7.5,0.2,11.3H0v8.5h5.5l0.1,4.2l0.3,7.8l5,0.2c1.7,0.1,3.4,0.2,5.2,0.2l0.5,0l0-0.5c0.1-4,0.2-8,0.2-11.9h6
	c0.1,4,0.1,8,0.2,11.9l0,0.5l0.5,0c1.7,0,3.5-0.1,5.2-0.2l5-0.2l0.3-7.8l0.1-4.2h6.4c0.1,4,0.1,8,0.2,11.9l0,0.5l0.5,0
	c1.7,0,3.5-0.1,5.2-0.2l5-0.2l0.3-7.8l0.1-4.2h6.4c0.1,4,0.1,8,0.2,11.9l0,0.5l0.5,0c1.7,0,3.5-0.1,5.2-0.2l5-0.2l0.3-7.8l0.1-4.2
	h6.4c0.1,4,0.1,8,0.2,11.9l0,0.5l0.5,0c1.7,0,3.5-0.1,5.2-0.2l5-0.2l0.3-7.8l0.1-4.2h6.4c0.1,4,0.1,8,0.2,11.9l0,0.5l0.5,0
	c1.7,0,3.5-0.1,5.2-0.2l5-0.2l0.3-7.8l0.1-4.2h6.4c0.1,4,0.1,8,0.2,11.9l0,0.5l0.5,0c1.7,0,3.5-0.1,5.2-0.2l5-0.2l0.3-7.8l0.1-4.2
	h5.5V107h-5.3c0.1-3.7,0.2-7.5,0.2-11.3C123,90.8,123,85.9,123,81z M126.1,74.4V79H123c0-1.6,0-3.1,0-4.7H126.1z M5,79H1.9v-4.7H5
	C5,75.9,5,77.5,5,79z M1.9,113.6v-4.7h3.5c0,1,0,1.9,0.1,2.9l0.1,1.8H1.9z M15.8,79.3c0,5.3-0.3,10.7-0.4,16
	c-0.2,5.3-0.2,10.7-0.1,16c0,5.2,0.1,10.4,0.3,15.5c-1.4,0-9.1-0.4-9.1-0.4l-0.1-7.4l0.2-8.1c0.1-5.4,0.3-10.7,0.3-16
	C6.9,89.7,7,84.4,6.9,79.1c0-5.2-0.1-10.4-0.2-15.6c1.4-1.8,2.8-3.6,4.3-5.5l4.6,5.4C15.8,68.7,15.8,74,15.8,79.3z M16.8,113.6
	c0-0.7,0-1.5,0-2.2c0-0.8,0-1.7,0-2.5h5.9c0,0.8,0,1.7,0,2.5c0,0.7,0,1.5,0,2.2H16.8z M22.9,95.4c-0.1,3.9-0.2,7.8-0.2,11.6h-5.9
	c0-3.9,0-7.8-0.2-11.6c-0.1-4.8-0.3-9.6-0.4-14.4h6.9C23.2,85.8,23.1,90.6,22.9,95.4z M23.3,79h-7c0-1.6,0-3.1,0-4.7h7
	C23.3,75.9,23.3,77.5,23.3,79z M32.9,126.7c0,0-7.3,0.3-8.8,0.3c0.2-5.2,0.2-10.4,0.3-15.5c0.1-5.3,0-10.7-0.1-16
	c-0.1-5.3-0.3-10.7-0.4-16c0-5.3,0-10.6,0.1-15.9l4.6-5.4c1.4,1.8,2.8,3.6,4.3,5.5c-0.1,5.2-0.1,10.4-0.2,15.6
	c0,5.3,0,10.6,0.1,15.9c0.1,5.3,0.2,10.6,0.3,16l0.2,8.1L32.9,126.7z M34.2,113.6l0-1.8c0-0.9,0-1.9,0.1-2.9h6.1c0,0.8,0,1.7,0,2.5
	c0,0.7,0,1.5,0,2.2H34.2z M40.6,95.4c-0.1,3.9-0.2,7.8-0.2,11.6h-6.1c0.1-3.7,0.2-7.5,0.2-11.3c0.1-4.9,0.1-9.8,0.1-14.8H41
	C40.9,85.8,40.7,90.6,40.6,95.4z M41,79h-6.3c0-1.6,0-3.1,0-4.7H41C41,75.9,41,77.5,41,79z M51,126.6c0,0-7.7,0.4-9.1,0.4
	c0.2-5.2,0.2-10.4,0.3-15.5c0.1-5.3,0-10.7-0.1-16c-0.1-5.3-0.3-10.7-0.4-16c0-5.3,0-10.6,0.1-15.9l4.6-5.4c1.4,1.8,2.8,3.6,4.3,5.5
	c-0.1,5.2-0.1,10.4-0.2,15.6c0,5.3,0,10.6,0.1,15.9c0.1,5.3,0.2,10.6,0.3,16l0.2,8.1L51,126.6z M51.9,113.6l0-1.8
	c0-0.9,0-1.9,0.1-2.9h6.1c0,0.8,0,1.7,0,2.5c0,0.7,0,1.5,0,2.2H51.9z M58.3,95.4c-0.1,3.9-0.2,7.8-0.2,11.6H52
	c0.1-3.7,0.2-7.5,0.2-11.3c0.1-4.9,0.1-9.8,0.1-14.8h6.3C58.6,85.8,58.4,90.6,58.3,95.4z M58.7,79h-6.3c0-1.6,0-3.1,0-4.7h6.4
	C58.7,75.9,58.7,77.5,58.7,79z M68.5,126.8c0,0-7.6,0.2-9,0.2c0.2-5.2,0.2-10.4,0.3-15.5c0.1-5.3,0-10.7-0.1-16
	c-0.1-5.3-0.3-10.7-0.4-16c0-5.3,0-10.6,0.1-15.9l4.6-5.4c1.4,1.8,2.8,3.6,4.3,5.5c-0.1,5.2-0.1,10.4-0.2,15.6
	c0,5.3,0,10.6,0.1,15.9c0.1,5.3,0.2,10.6,0.3,16l0.2,8.1L68.5,126.8z M69.5,113.6l0.1-1.8c0-0.9,0-1.9,0.1-2.9h6.1
	c0,0.8,0,1.7,0,2.5c0,0.7,0,1.5,0,2.2H69.5z M75.9,95.4c-0.1,3.9-0.2,7.8-0.2,11.6h-6.1c0.1-3.7,0.2-7.5,0.2-11.3
	C70,90.8,70,85.9,70,81h6.3C76.2,85.8,76,90.6,75.9,95.4z M76.3,79H70c0-1.6,0-3.1,0-4.7h6.4C76.3,75.9,76.3,77.5,76.3,79z
	 M86.3,127c0,0-7.7,0-9.1,0c0.2-5.2,0.2-10.4,0.3-15.5c0.1-5.3,0-10.7-0.1-16c-0.1-5.3-0.3-10.7-0.4-16c0-5.3,0-10.6,0.1-15.9
	l4.6-5.4c1.4,1.8,2.8,3.6,4.3,5.5c-0.1,5.2-0.1,10.4-0.2,15.6c0,5.3,0,10.6,0.1,15.9c0.1,5.3,0.2,10.6,0.3,16l0.2,8.1L86.3,127z
	 M87.2,113.6l0-1.8c0-0.9,0-1.9,0.1-2.9h6.1c0,0.8,0,1.7,0,2.5c0,0.7,0,1.5,0,2.2H87.2z M93.6,95.4c-0.1,3.9-0.2,7.8-0.2,11.6h-6.1
	c0.1-3.7,0.2-7.5,0.2-11.3c0.1-4.9,0.1-9.8,0.1-14.8h6.3C93.9,85.8,93.7,90.6,93.6,95.4z M94,79h-6.3c0-1.6,0-3.1,0-4.7H94
	C94,75.9,94,77.5,94,79z M103.6,126.8c0,0-7.4,0.2-8.8,0.1c0.2-5.2,0.2-10.4,0.3-15.5c0.1-5.3,0-10.7-0.1-16
	c-0.1-5.3-0.3-10.7-0.4-16c0-5.3,0-10.6,0.1-15.9l4.6-5.4c1.4,1.8,2.8,3.6,4.3,5.5c-0.1,5.2-0.1,10.4-0.2,15.6
	c0,5.3,0,10.6,0.1,15.9c0.1,5.3,0.2,10.6,0.3,16l0.2,8.1L103.6,126.8z M104.9,113.6l0-1.8c0-0.9,0-1.9,0.1-2.9h6.1
	c0,0.8,0,1.7,0,2.5c0,0.7,0,1.5,0,2.2H104.9z M111.2,95.4c-0.1,3.9-0.2,7.8-0.2,11.6H105c0.1-3.7,0.2-7.5,0.2-11.3
	c0.1-4.9,0.1-9.8,0.1-14.8h6.3C111.5,85.8,111.4,90.6,111.2,95.4z M111.6,79h-6.3c0-1.6,0-3.1,0-4.7h6.4
	C111.7,75.9,111.7,77.5,111.6,79z M121.7,126.9c0,0-7.7,0.1-9.2,0c0.2-5.2,0.2-10.4,0.3-15.5c0.1-5.3,0-10.7-0.1-16
	c-0.1-5.3-0.3-10.7-0.4-16c0-5.3,0-10.6,0.1-15.9l4.6-5.4c1.4,1.8,2.8,3.6,4.3,5.5c-0.1,5.2-0.1,10.4-0.2,15.6
	c0,5.3,0,10.6,0.1,15.9c0.1,5.3,0.2,10.6,0.3,16l0.2,8.1L121.7,126.9z M126.1,108.9v4.7h-3.6l0-1.8c0-0.9,0-1.9,0.1-2.9H126.1z"/>
</svg>
