<?xml version="1.0" encoding="utf-8"?>
<!-- Generator: Adobe Illustrator 24.1.2, SVG Export Plug-In . SVG Version: 6.00 Build 0)  -->
<svg version="1.1" id="Layer_1" xmlns="http://www.w3.org/2000/svg" xmlns:xlink="http://www.w3.org/1999/xlink" x="0px" y="0px"
	 viewBox="0 0 128 128" style="enable-background:new 0 0 128 128;" xml:space="preserve">
<style type="text/css">
	.st0{fill:#2D2D2D;}
</style>
<g>
	<path class="st0" d="M128,46.4c-0.1-1.3-0.4-2.4-0.7-3.5l-0.1-0.4c-0.1-0.2-0.1-0.4-0.2-0.6c-0.2-0.3-0.3-0.6-0.5-0.9
		c-0.4-0.5-0.7-1-1.1-1.4c-0.8-0.9-1.6-1.7-2.4-2.5c-1.6-1.6-3.2-3.2-4.7-4.8l0,0.1c-0.6-1-1.4-1.8-2.2-2.7
		c-0.4-0.4-0.8-0.8-1.2-1.2c-0.2-0.2-0.4-0.4-0.6-0.6c0,0,0,0,0.1,0c0.6,0,1.2,0,1.8-0.1l2.5-0.3l-2.2-1c-0.6-0.3-1.2-0.6-1.7-1
		c-0.6-0.4-1.1-0.8-1.7-1.3l-0.5-0.4c0.4-0.9,0.8-1.8,1-2.8c0.1-0.5,0.2-1.1,0.3-1.7c0.1-0.6,0.2-1.1,0.3-1.6l0.4-1.8l-1.3,1.2
		c-0.4,0.3-0.6,0.7-0.9,1c-0.3,0.3-0.5,0.7-0.7,1.1c-0.4,0.7-1.3,1.7-1.7,2.4c0.1-0.4,0.2-0.7,0.3-1.1c0.1-0.6,0.2-1.3,0.4-1.9
		l0.4-1.8l-1.4,1.1c-1.2,0.9-2.2,2.1-3,3.3c-0.2,0.3-0.4,0.7-0.6,1c-1.9,0.3-4.4,1.1-6.1,1.8c-1.8,0.7-3.6,1.5-5.3,2.3
		c-1.7,0.8-3.5,1.6-5.2,2.5c-1.7,0.9-3.4,1.8-5.1,2.7c-0.4,0.2-0.8,0.5-1.3,0.8c-0.4,0.3-0.8,0.6-1.2,0.9c-0.8,0.6-1.5,1.2-2.2,1.9
		L75.3,39c-2.8,2.5-5.8,5-9,7.1c-4,1.6-8.4,1.5-12.6,1.3c-2.2-0.1-4.3-0.4-6.5-0.7l-6.5-0.9c-2.2-0.3-4.4-0.5-6.6-0.7
		c-2.2-0.1-4.5-0.1-6.8,0.4C25.1,46,22.9,46.8,21,48c-1,0.6-1.9,1.3-2.7,2l-1.2,1.1c-0.2,0.2-0.3,0.4-0.5,0.5
		c-0.7-0.2-1.4-0.1-2.1,0c-0.8,0.1-1.5,0.3-2.2,0.5c-1.5,0.4-2.9,1-4.2,1.8c-1.4,0.8-2.6,1.7-3.7,2.9c-1.1,1.2-2,2.7-2.4,4.3
		l-0.8,3.4l2.6-2.4c0,0,0,0,0,0c-0.2,0.8-0.3,1.5-0.4,2.3c-0.1,0.8-0.2,1.6-0.2,2.4c0,0.8,0.1,1.6,0.3,2.4l0.2,0.9l0.6-0.6
		c0.1-0.1,0.4-0.3,0.6-0.4c0.1,0,0.2-0.1,0.2-0.1c0.1,0.6,0.2,1.2,0.3,1.7c0.1,0.8,0.2,1.6,0.2,2.3c0.1,1.6,0.2,3.1,0.1,4.7
		c-0.1,1.6-0.2,3.1-0.5,4.6c-0.3,1.5-0.7,3-1.4,4.2L0,93.8l5.4-6.1c0.1-0.1,0.2-0.3,0.4-0.5l-0.4,3.5C5.2,92.2,5,93.6,4.8,95
		c-0.2,1.4-0.4,2.8-0.8,3.9l-2.8,7.4l4.6-6.3c0.5-0.7,1-1.4,1.5-2c0.2-0.3,0.5-0.6,0.7-0.8c0.1,0.2,0.1,0.5,0.2,0.7
		c0.2,0.7,0.5,1.4,0.9,2c0.4,0.7,0.8,1.3,1.3,1.8c0.4,0.5,1,0.9,1.6,1.1c0.2,1.3,0.5,2.5,0.7,3.8c0.3,1.8,0.6,3.5,0.9,5.3l0.8,5.3
		c0.1,0.9,0.3,1.8,0.4,2.7c0,0.1,0,0.1,0.1,0.2l0,0l0,0c0,0,0.1,0.1,0.1,0.1c0.1,0.1,0.2,0.1,0.3,0.2l0.1,0l0,0l0.1,0l0.3,0l0.7,0
		l0.8,0c0.1,0.7,0.3,1.4,0.4,2.1c0.1,0.4,0.2,0.9,0.3,1.3c0.1,0.2,0.1,0.4,0.2,0.7c0,0,0,0.1,0.1,0.1c0,0,0.1,0.2,0.3,0.3
		c0,0,0.1,0,0.2,0.1l2.3,2.3h8.7l-3.8-4.3l-0.9-1.1c-1.6-2-2.9-4.4-3.9-6.8c-0.5-1.2-0.9-2.4-1.2-3.7c-0.2-0.6-0.3-1.3-0.4-1.9
		l-0.3-2l-0.6-4c-0.2-1.3-0.3-2.6-0.1-3.7c0.2-1.2,0.6-2.4,1.1-3.6c0.2-0.6,0.5-1.1,0.7-1.7c0.1,1.5,0.2,3,0.4,4.5
		c0.2,2.2,0.5,4.4,0.8,6.5c0.3,2.2,0.6,4.3,1,6.5c0.2,1.1,0.4,2.2,0.6,3.3l0.1,0.4l0.1,0.2l0,0.1c0,0,0,0.1,0.1,0.1l0,0l0,0.1
		l0.1,0.1c0,0,0.4,0.4,0.6,0.4c0.4,0,0.1,0,0.2,0l0,0l0,0l0.8-0.1c0.3,0,0.6-0.1,1-0.1c0.2,0.6,0.3,1.2,0.5,1.7
		c0.1,0.4,0.3,0.8,0.4,1.3c0.1,0.2,0.2,0.4,0.3,0.7c0,0,0,0,0,0c0,0.1,0.1,0.2,0.2,0.3l2.5,2.5h8.7l-5-5c-0.1-0.1-0.1-0.1-0.2-0.2
		c-2.4-2.9-4-6.5-4.7-10.1l-0.2-1.4l-0.2-1.4c-0.1-1-0.2-2-0.3-2.9c-0.2-1.9-0.6-3.9-0.5-5.6c0.1-1.7,0.8-3.4,1.5-5.2
		c0.7-1.8,1.5-3.6,2.3-5.4l2.3-5.4c0.7-1.6,1.4-3.3,2.2-4.9c1.6,1.1,3.1,2.3,4.8,3.3c1.7,1,3.7,1.8,5.6,2.3c2,0.5,4,0.9,6,1.1
		c2,0.2,4,0.4,6.1,0.4c1.1,0,2.1-0.2,3.1-0.3c1-0.1,2-0.3,3-0.5c2-0.4,3.9-0.9,5.8-1.5c1.9-0.6,3.8-1.1,5.7-2
		c0.2,1.3,0.5,2.6,0.7,3.9c0.4,2.3,0.8,4.7,1.1,7c0.1,1.2,0.2,2.3,0.1,3.4c0,0.3-0.1,0.5-0.1,0.8c-0.1,0.3-0.1,0.6-0.2,0.9
		c-0.1,0.6-0.3,1.2-0.4,1.8c-0.2,1.2-0.5,2.4-0.5,3.6c0,1.2,0.2,2.4,0.6,3.6c-0.1,2.5-0.2,5-0.3,7.5l-0.5,7.6l0,0.5l0.6,0.2
		c0.4,0.1,0.9,0.3,1.2,0.6c0.4,0.2,0.8,0.5,1.1,0.8c0.3,0.3,0.5,0.7,0.7,1c0.2,0.4,0.2,0.8,0.3,1.2l0.2,1c0,0.1,0.1,0.2,0.2,0.3
		l2.3,2.6l8.7,0.6l-2.9-3.3l8.5,0.6l-4.3-5c0,0-0.6-0.5-0.7-0.6c-0.7-0.4-1.3-0.9-1.9-1.4c-0.6-0.5-1.2-1.1-1.6-1.8
		c-0.5-0.6-0.8-1.4-0.9-2.1c-0.1-0.3-0.1-0.8,0-1.2l0-1.2c0.1-1.6,0.2-3.3,0.3-4.9c0.1-1.6,0.2-3.1,0.2-4.7c0.3-0.6,0.5-1.1,0.8-1.6
		c0.2-0.6,0.5-1.3,0.6-2c0.3-1.2,0.4-2.6,0.3-3.9c0.6-1.9,1-3.7,1.2-5.6c0.3-1.9,0.5-3.9,0.8-5.8c0.2-1.9,0.3-3.9,0.4-5.9
		c0-1,0.1-1.9,0.1-2.9c0.1-0.1,0.2-0.2,0.2-0.2c0.9-0.9,1.3-1.9,1.7-2.9c0.7-2,1-4,1.2-5.9c0.2-1.9,0-3.9,0-5.8
		c1-1.3,1.8-2.7,2.7-3.9c0.9-1.4,2-2.7,2.7-4.2c0.7-1.5,1.3-3,1.8-4.6c0.4-1.2,0.6-2.4,0.9-3.6c0.1,0.1,0.3,0.2,0.4,0.3
		c0.9,0.6,2,1.1,3,1.5c0.5,0.2,1,0.3,1.6,0.5c0.5,0.1,1.1,0.3,1.6,0.4c1,0.2,2,0.3,2.9,0.5l2.6,1.2c0.9,0.4,1.8,0.8,2.5,1.3
		c0.2,0.1,0.3,0.2,0.4,0.3l0,0l0.1,0.1l0.1,0.2c0.1,0.1,0.2,0.2,0.3,0.4c0.4,0.5,0.9,0.9,1.5,1.1c0.6,0.2,1.3,0.2,1.9-0.1
		c0.4-0.2,0.7-0.4,0.9-0.6c0.3,0.1,0.5,0.2,0.8,0.3c0.8,0.1,1.6-0.1,2.3-0.5c0.2-0.1,0.3-0.2,0.5-0.3c0.2-0.1,0.3-0.3,0.5-0.5
		c0.3-0.3,0.5-0.7,0.6-1.1C128,47.8,128,47.1,128,46.4z M112.2,19.7l0.1-0.1c-0.1,0.4-0.3,0.8-0.3,1.2c-0.1,0.6-0.1,1.2-0.1,1.7
		c0,0.3,0,0.6,0.1,0.9l-0.6-0.5l-1.3-1.1C110.6,21.2,111.6,20.3,112.2,19.7z M10.8,101.3c-0.4-0.6-0.6-1.2-0.9-1.8
		c-0.2-0.6-0.4-1.3-0.5-2c-0.1-0.7-0.3-1.4-0.3-2L9,94.6l-0.9,0.2c-0.3,0.1-0.2,0.1-0.3,0.1L7.7,95l-0.2,0.1
		c-0.1,0.1-0.2,0.2-0.3,0.2c-0.1,0-0.1,0.1-0.2,0.1c0,0,0-0.1,0-0.1c0.3-1.4,0.5-2.9,0.7-4.3c0.2-1.4,0.3-2.9,0.4-4.3
		c0.1-1.4,0.2-2.9,0.3-4.3L8.9,74l-2.2,7c0-1,0-2.1,0-3.1c-0.1-1.6-0.2-3.2-0.3-4.8L6,70.7l-0.3-2.4l-0.1-0.5L5.2,68
		c-0.3,0.1-0.6,0.2-0.8,0.4c0,0,0,0-0.1,0c0-1.2,0.2-2.4,0.5-3.6c0.2-0.7,0.4-1.4,0.6-2.1c0.2-0.7,0.5-1.4,0.8-2.1L7,58.8l-2,0.5
		c0,0,0,0,0,0c0.2-0.4,0.5-0.7,0.8-1.1c0.9-1.1,1.9-2,3.1-2.8c1.2-0.8,2.4-1.5,3.8-2.1c0.7-0.3,1.3-0.6,2-0.8
		c0.6-0.2,1.1-0.4,1.7-0.4c-0.1,0.1-0.3,0.3-0.4,0.4c0,0,0,0,0,0.1c0,0,0,0-0.1,0c-1.7,1.4-3.1,3-4.2,5c-1,2-1.6,4.3-1.5,6.5
		c0,2.3,0.6,4.5,1.3,6.5c0.7,2.1,1.4,4,1.9,6.1c0.5,2,0.8,4.1,0.7,6.1c-0.1,2-0.6,4-1.4,5.9L12,90c-0.2,0.5-0.5,1-0.7,1.6
		c-0.4,1-0.7,2.2-0.8,3.3c-0.3,2.2,0,4.5,1.2,6.5c0.1,0.3,0.1,0.7,0.2,1C11.4,102.1,11.1,101.7,10.8,101.3z M25.9,125.9h-4.3l-1-1
		c1.1-0.3,2.2-0.7,3.3-1L25.9,125.9z M35.1,121.9h-4.3l-1.3-1.3l1.7-0.6c0.5-0.2,1-0.4,1.5-0.5c0,0,0,0.1,0.1,0.1L35.1,121.9z
		 M29.5,85.5c-0.9,1.7-1.8,3.5-2.6,5.3c-0.4,0.9-0.8,1.8-1.1,2.8c-0.3,1-0.5,2.1-0.6,3.2c0,2.2,0.5,4.1,0.8,6l0.5,2.9l0.3,1.5
		c0.1,0.5,0.3,1,0.4,1.5c0.6,1.9,1.5,3.7,2.5,5.4c0.9,1.5,1.9,2.9,2.9,4.3c0,0,0,0,0,0c-0.1,0.1-0.1,0.1-0.2,0.2
		c-1.3,0.4-2.6,0.8-3.9,1.1c-0.1,0-0.1-0.1-0.2-0.1c0,0,0-0.1,0-0.1c-0.1-0.4-0.2-0.8-0.2-1.2l-0.4-2.6l-0.1-0.7l-0.8,0
		c-0.5,0-1.1,0-1.6,0h0l-0.6-3.2c-0.4-2.1-0.8-4.3-1.2-6.5c-0.4-2.2-0.9-4.3-1.4-6.4c-0.4-1.7-0.8-3.5-1.3-5.2
		c0.2-0.4,0.3-0.8,0.5-1.1c1.2-2.4,2.3-4.9,3.5-7.3c1.2-2.4,2.4-4.8,3.8-7.1c0.8-1.4,1.9-2.8,2.9-4.2c0.6,0,1.2,0.2,1.7,0.4
		c0.8,0.4,1.6,0.9,2.4,1.4C33.2,78.9,31.3,82.2,29.5,85.5z M83.6,125.9l-1.5-1.8c1.2-0.2,2.4-0.4,3.5-0.6c0,0.1,0.1,0.1,0.1,0.2
		l2.2,2.5L83.6,125.9z M91.4,120.9l2.2,2.5l-4.3-0.3l-1.3-1.5c1-0.3,2.2-0.6,3.3-0.9C91.3,120.8,91.3,120.9,91.4,120.9z M90.9,77.5
		l-1.1,5.7c-0.4,1.9-0.7,3.8-1.1,5.7c-0.4,1.9-0.8,3.8-1.3,5.5l-0.1,0.3l0,0.3c0.2,1.1,0.1,2.2-0.1,3.3c-0.1,0.6-0.3,1.1-0.4,1.7
		c-0.2,0.6-0.4,1.1-0.6,1.6l-0.1,0.3l0,0.2c0,1.7,0.1,3.3,0.2,5c0.1,1.7,0.2,3.3,0.4,5c0.1,0.8,0.1,1.6,0.3,2.5
		c0.2,0.9,0.6,1.7,1.1,2.4c0.8,1.1,1.8,2,2.8,2.8c-1.3,0.2-2.7,0.4-4,0.5c-0.5-0.4-2.3-2.2-3.2-3.7c0-0.1,0-0.1-0.1-0.2
		c0-0.2-0.1-0.7-0.1-1.1l0-1.2l0-9.6c0.3-0.5,0.5-1.1,0.7-1.6c0.2-0.6,0.4-1.3,0.6-2c0.3-1.3,0.3-2.6,0.1-4c0.5-1.9,0.8-3.7,1.1-5.6
		c0.3-1.9,0.5-3.9,0.7-5.8c0.2-1.9,0.4-3.9,0.5-5.8c0-0.1,0-0.2,0-0.3c1.1-0.9,2.2-1.8,3.2-2.8c0.3-0.2,0.5-0.5,0.8-0.7
		C91.1,76.4,91,76.9,90.9,77.5z M125.5,47.8c0,0.2-0.1,0.3-0.2,0.4c0,0.1-0.1,0.1-0.1,0.2c-0.1,0.1-0.1,0.1-0.2,0.2
		c-0.3,0.2-0.6,0.4-0.9,0.4c-0.3,0-0.8-0.1-1.2-0.3c-0.9-0.5-1.8-1.3-2.7-1.9l0,0c0,0-0.1,0-0.1,0c-0.1,0-0.1,0.1,0,0.2
		c0.6,1,1.2,2,2,2.9c0.2,0.2,0.4,0.3,0.6,0.4c-0.7,0.2-1.3,0.1-1.7-0.2c-0.3-0.2-0.5-0.5-0.7-0.9c0-0.1-0.1-0.2-0.1-0.3l-0.1-0.1
		l0-0.1l-0.1-0.1c-0.2-0.4-0.4-0.6-0.6-0.8c-0.4-0.4-0.9-0.8-1.3-1.1c-0.4-0.3-0.9-0.6-1.4-0.8c-0.9-0.5-1.9-0.9-2.9-1.3l-0.2-0.1
		l-0.1,0l-1.5,0c-0.5,0-1-0.1-1.5-0.1c-1-0.1-2-0.3-3-0.5c-1-0.2-1.9-0.6-2.7-1.1c-0.4-0.2-0.8-0.5-1.2-0.8
		c-0.2-0.2-0.3-0.3-0.5-0.5c-0.1-0.2-0.3-0.4-0.3-0.5l0,0l-0.7-3.1l-0.3-1.6l-0.1-0.8l-0.1-0.4l0-0.2c0,0,0-0.2,0-0.1
		c0,0,0-0.1,0-0.2c0,0-0.1,0-0.2,0c-0.1,0.1,0,0.1-0.1,0.2l0,0.1l0,0.2l0,0.4l0,0.8c0,0.5,0.1,1.1,0.1,1.6l0.3,3.2l0,0l0,0
		c0.3,0.8,0.7,1.4,1.2,1.9c-0.7,1.1-1.3,2.3-1.9,3.4c-0.7,1.5-1.4,2.9-2,4.4c-0.6,1.5-1,3.1-1.7,4.6c-0.6,1.5-1.5,2.9-2.6,4
		l-0.1,0.1l0,0.2c-0.2,1.9-0.7,3.8-1.1,5.7c-0.4,1.9-0.9,3.7-1.5,5.4c-0.3,0.8-0.7,1.6-1.1,2.2c-0.6,0.7-1.2,1.5-1.8,2.3
		c-0.6,0.8-1.2,1.6-1.8,2.5c0-1,0.1-2,0.1-3.1c0.7-0.6,1.3-1.3,1.8-2.1c0.8-1.2,1.1-2.6,1.4-3.9c0.3-1.3,0.6-2.6,0.8-4l0.6-4
		c0,0,0-0.1-0.1-0.1c0,0-0.1,0-0.1,0c-0.4,1.3-0.8,2.6-1.2,3.8c-0.4,1.3-0.8,2.5-1.2,3.8c-0.5,1.2-1.1,2.4-1.6,3.5
		c-0.5,1.2-1,2.3-1.8,3.4c0,0,0,0.1,0,0.1c0,0,0.1,0.1,0.1,0.1c0.3-0.1,0.6-0.3,0.9-0.4c-0.2,1.5-0.4,2.9-0.7,4.3
		c-0.1,0.3-0.1,0.7-0.1,0.9c-0.3,1.7-0.6,3.4-0.9,5.2c-0.4,1.9-0.7,3.8-1.1,5.7c-0.4,1.9-0.8,3.8-1.4,5.5l-0.1,0.2l0,0.3
		c0.1,1.1,0,2.2-0.2,3.4c-0.1,0.6-0.3,1.1-0.5,1.7c-0.2,0.5-0.5,1.1-0.7,1.6l-0.1,0.3l0,0.3c0,1.7,0,3.3,0,5c0,1.7,0,3.3,0.1,5
		l0,0.1c0,0.9-0.1,1.8-0.1,2.7l0,0.8l0.8,0.3c0.2,0.5,0.5,1,0.8,1.4c0.6,0.8,1.3,1.5,2.1,2.1c-0.9,0.2-1.8,0.4-2.7,0.6
		c-0.1-0.3-0.2-0.5-0.3-0.8c-0.3-0.6-0.7-1.1-1.2-1.4c-0.5-0.4-1-0.7-1.5-1c-0.4-0.2-0.7-0.3-1.1-0.4l0-7.1c0-2.5,0.1-5.1,0.1-7.6
		l0-0.1l0-0.1c-0.4-1.1-0.6-2.2-0.5-3.4c0.1-1.1,0.3-2.3,0.6-3.4c0.2-0.6,0.4-1.1,0.5-1.7l0.3-0.9c0.1-0.3,0.2-0.6,0.2-1
		c0.2-1.3,0.2-2.5,0.2-3.7c0-2.4-0.3-4.8-0.6-7.2c-0.3-2.4-0.8-4.7-1.3-7.1l-0.1-0.4l-0.3-0.2c-0.7-0.5-1.3-1.1-1.8-1.8
		c-0.5-0.7-1-1.5-1.3-2.3c-0.7-1.6-1.1-3.4-0.8-5c0-0.2,0.1-0.4,0.2-0.6l0.1-0.3l0.2-0.4c0.1-0.6,0.1-1.2,0-1.7
		c-0.2-1.1-0.7-1.9-1.2-2.8c-0.9-1.7-2-3.2-2.3-5.1c0-0.1-0.1-0.1-0.1-0.1c-0.1,0-0.1,0-0.1,0.1c0,1,0.2,2,0.5,2.9
		c0.3,0.9,0.7,1.8,1.1,2.7c0.4,0.9,0.7,1.7,0.8,2.6c0.1,0.4,0,0.8-0.1,1.1L72,64.3L72,64.4l-0.1,0.2c-0.1,0.3-0.2,0.5-0.3,0.8
		c-0.6,2.1-0.2,4.2,0.5,6.1c0.7,1.8,1.8,3.4,3.3,4.7c0.2,0.8,0.3,1.7,0.5,2.5c0,0,0,0,0,0l0,0c-3.9,0.4-7.9,0.8-11.8,1.4l-2.9,0.4
		c-1,0.2-2,0.3-2.8,0.4c-1.9,0.1-3.9,0.2-5.8,0.1c-3.9-0.2-7.8-0.8-11.2-2.6c-1.7-0.9-3.4-1.9-5.1-3c-0.9-0.5-1.7-1-2.7-1.4
		c-0.5-0.2-1-0.3-1.5-0.3c-0.1,0-0.1,0-0.2,0c0.5-0.7,1-1.5,1.5-2.2c0.7-1.2,1.3-2.5,1.7-3.8c0.4-1.3,0.5-2.8,0.1-4.2
		c0-0.1-0.1-0.1-0.1-0.1c-0.1,0-0.1,0.1-0.1,0.1c0.3,1.3,0,2.6-0.5,3.9c-0.5,1.2-1.2,2.3-2,3.4c-0.8,1.1-1.6,2.1-2.5,3.2
		c-0.9,1-1.8,2.1-2.6,3.2c-1.6,2.3-2.9,4.7-4.2,7.1c-1.3,2.4-2.6,4.8-3.8,7.3c-0.6,1.2-1.2,2.5-1.8,3.7c-0.6,1.3-1.1,2.7-1.3,4.2
		c-0.2,1.5-0.1,3,0.1,4.4l0.7,4l0.3,2c0.1,0.7,0.3,1.4,0.4,2.1c0.4,1.4,0.8,2.7,1.4,4c0.6,1.3,1.2,2.5,2,3.7
		c0.5,0.8,1.1,1.6,1.7,2.4l-1.2,0.4c-0.8,0.3-1.5,0.6-2.3,0.8c0,0,0,0,0-0.1c-0.1-0.4-0.3-0.8-0.4-1.2c-0.2-0.8-0.4-1.7-0.6-2.5
		l-0.1-0.5l-0.5,0l-1.3,0.1l-0.7,0l-0.1,0c-0.2-0.8-0.4-1.6-0.5-2.4c-0.3-1.8-0.7-3.5-1-5.3c-0.3-1.8-0.6-3.5-0.9-5.3
		c-0.3-1.8-0.5-3.6-0.8-5.3l0-0.1l-0.1-0.1c-0.4-0.8-0.7-1.9-0.8-2.9c-0.1-1,0-2,0.2-3c0.2-1,0.5-2,1-2.9c0.2-0.5,0.5-0.9,0.7-1.4
		l0.8-1.4c1-2,1.7-4.3,1.8-6.6c0.1-2.3-0.2-4.6-0.8-6.7c-0.5-2.1-1.4-4.2-2.2-6.2c-0.7-2-1.4-4-1.5-6c-0.1-1-0.1-2,0.1-3.1
		c0.1-0.5,0.2-1,0.3-1.5c0.1-0.5,0.3-1,0.5-1.5c0.8-1.9,2-3.7,3.5-5.3c0,0,0,0,0-0.1c0,0,0,0,0.1,0l0,0c3.5-2.7,7.4-4.7,11.6-5.2
		c2.1-0.2,4.2-0.2,6.3,0c2.1,0.2,4.3,0.5,6.4,0.8c4.3,0.6,8.8,1.1,13.2,1.2c4.4,0.1,9.1-0.5,13.1-2.5l0.1,0l0,0c3-2.4,6-4.9,9-7.2
		c1.5-1.2,3.1-2.3,4.7-3.4c1.6-1.1,3.1-2.1,4.8-3c3.4-1.8,6.7-3.7,10.1-5.5l5-2.8c0.8-0.4,1.7-0.9,2.5-1.3c0.4-0.2,0.8-0.4,1.3-0.6
		l0.6-0.3l1-0.3c-0.4,0.8-0.8,1.7-1,2.6l-0.8,1.1c0,0,0,0.1,0,0.1c0,0,0.1,0,0.1,0l1-1l0,0l0,0c0.6-1.3,1.3-2.5,2.2-3.5
		c0.4-0.5,0.8-1,1.3-1.4c-0.1,0.6-0.3,1.1-0.3,1.7c-0.1,0.6-0.2,1.3-0.2,2c0,0.7,0,1.3,0.2,2c0,0,0,0,0.1,0c0,0,0.1,0,0.1-0.1l0,0
		c0.1-0.6,0.4-1.2,0.6-1.8c0.2-0.6,0.4-1.2,0.6-1.8c0-0.1,0.1-0.3,0.1-0.4c0.4,0.4,0.7,0.9,1.1,1.3c0.5,0.5,1,1.1,1.5,1.6
		c0.5,0.5,1,0.9,1.5,1.4c-0.3,0-0.7-0.1-1-0.1c-1-0.1-2.1-0.3-3.2-0.6l0,0c0,0,0,0-0.1,0c0,0,0,0.1,0,0.1c0.4,0.5,0.9,0.8,1.4,1.1
		c0.5,0.3,1.1,0.6,1.6,0.7c0.4,0.1,0.8,0.2,1.2,0.3c0.2,0.3,0.5,0.6,0.7,0.9l1,1.3c0.7,0.9,1.3,1.8,1.8,2.7l0,0l0,0.1
		c1.3,1.9,2.9,3.6,4.3,5.3c0.7,0.9,1.4,1.7,2.1,2.6c0.3,0.4,0.6,0.9,0.9,1.3c0.1,0.2,0.2,0.4,0.3,0.6c0,0.1,0,0.2,0.1,0.2l0.1,0.4
		c0.1,0.4,0.1,0.8,0.2,1.2c-0.1-0.1-0.3-0.1-0.5-0.1c-0.7,0,0.2,1.2-1.2,1.2c-1.4,0,0.5,1.2,1.2,1.2c0.3,0,0.5-0.1,0.7-0.3
		C125.6,47.1,125.6,47.5,125.5,47.8z"/>
	<path class="st0" d="M111.6,30.4c-0.6-0.1-1.1,0.1-1.6,0.4c-0.4,0.3-0.8,0.6-1,1.1l-0.3,0.5l0.3,0.3l0,0c0.4,0.4,0.7,0.6,1.2,0.8
		c0.4,0.2,0.9,0.3,1.4,0.3c0.4-0.1,0.9-0.2,1.2-0.5c0.4-0.2,0.7-0.5,0.8-1c0-0.5-0.3-0.9-0.7-1.2C112.5,30.7,112,30.4,111.6,30.4z"
		/>
</g>
</svg>
