<svg id="Layer_1" data-name="Layer 1" xmlns="http://www.w3.org/2000/svg" width="128" height="128" viewBox="0 0 128 128"><title>Echidna line</title><path d="M31.73,91.84A3.34,3.34,0,0,0,33.46,90a4.28,4.28,0,0,0,.11-2.6,3,3,0,0,0-.65-1.22,1.26,1.26,0,0,0-.72-.42,1.1,1.1,0,0,0-.81.18,2.83,2.83,0,0,0-.88,1A5,5,0,0,0,30,88.11a6.24,6.24,0,0,1,1.66-1.57.48.48,0,0,1,.63.2,2.3,2.3,0,0,1,.42.92,4.55,4.55,0,0,1,.08,2.17A4.66,4.66,0,0,1,31.73,91.84Z"/><path d="M33.19,78.53a.92.92,0,0,0,.52,0,3.65,3.65,0,0,0,.74-.32l.69-.35a17.39,17.39,0,0,0,2.57-1.71l.08-.07,0-.06a2.85,2.85,0,0,0-.24-.3A13.24,13.24,0,0,0,35,76.3c-.43.15-.86.37-1.27.56a6.45,6.45,0,0,1-1.25.45l-.11,0,0,.12a3.79,3.79,0,0,0,.35.74A.8.8,0,0,0,33.19,78.53Z"/><path d="M44.94,84.79c.65-.27,1.31-.53,2-.84l.7-.33h-.8a23.55,23.55,0,0,0-4.18.32,14.64,14.64,0,0,0-2,.55,8,8,0,0,0-1.91,1,7.64,7.64,0,0,0,2.14.31,8.48,8.48,0,0,0,2.13-.23A16.58,16.58,0,0,0,44.94,84.79Z"/><path d="M37,83.22a15.09,15.09,0,0,0,1.62-.63c.53-.22,1.07-.43,1.6-.67l.69-.32h-.8a16.81,16.81,0,0,0-3.39.23,9.78,9.78,0,0,0-1.66.47,5.74,5.74,0,0,0-1.54.82,5.67,5.67,0,0,0,1.74.29A6.4,6.4,0,0,0,37,83.22Z"/><path d="M44.52,89.55a11,11,0,0,0,2.06.66,11.12,11.12,0,0,0,2.15.22,6.15,6.15,0,0,0,2.15-.3A9.61,9.61,0,0,0,49,89.2a12.49,12.49,0,0,0-2-.57c-.69-.12-1.39-.16-2.08-.24s-1.36-.21-2.05-.34L42.34,88l.36.38A5.63,5.63,0,0,0,44.52,89.55Z"/><path d="M37.5,89.89a3.77,3.77,0,0,0,.8.16l.76.1a17.59,17.59,0,0,0,3.08.06h.11v-.08c0-.14,0-.27,0-.38a13.31,13.31,0,0,0-2.37-.92c-.44-.12-.91-.18-1.36-.26a8.58,8.58,0,0,1-1.28-.34l-.12,0,0,.13a3.8,3.8,0,0,0-.14.8.85.85,0,0,0,.14.48A.87.87,0,0,0,37.5,89.89Z"/><path d="M59.27,95.77a2.14,2.14,0,0,0,.53.72,1.4,1.4,0,0,0,.84.36,4.13,4.13,0,0,0,.88-.07q.42,0,.84-.12A23.64,23.64,0,0,0,65.68,96c1.09-.34,2.14-.78,3.18-1.22.52-.23,1-.44,1.55-.7l.76-.39a1.42,1.42,0,0,0,.7-.61l.14-.26-.31,0c-.25,0-.52-.07-.82-.06s-.54.09-.82.13l-1.58.28c-1,.2-2.1.39-3.14.62s-2.09.49-3.12.74l-1.56.41a1.66,1.66,0,0,0-.75.37Z"/><path d="M84.59,101.34l0,.06,0,.11a2.14,2.14,0,0,0,.25.41l.15.17a.56.56,0,0,0,.3.16c.35,0,.6,0,.9,0l1.73,0c1.15,0,2.31,0,3.46-.12a20.91,20.91,0,0,0,6.75-1.62h0v0c0-.05,0-.11,0-.15a5,5,0,0,0-1.74-.25c-.57,0-1.15,0-1.72,0-1.16,0-2.31,0-3.46,0s-2.29.17-3.44.22a14.12,14.12,0,0,0-1.73.24c-.28.05-.56.11-.85.15a1.06,1.06,0,0,0-.44.21.75.75,0,0,0-.2.2.22.22,0,0,0,0,.08s0,.06,0,.08Z"/><path d="M88.51,105.92a7.14,7.14,0,0,0,.91.17c.58.1,1.16.21,1.75.29a17.33,17.33,0,0,0,3.6.21,35.19,35.19,0,0,0,3.56-.37c.59-.08,1.17-.19,1.76-.28l.88-.15a3,3,0,0,0,.87-.22l0,0v0l0-.22a19.41,19.41,0,0,0-3.54-.68c-1.2-.06-2.39,0-3.56,0s-2.36,0-3.55-.06c-.59,0-1.18-.08-1.77-.13a4,4,0,0,0-.92,0,1.11,1.11,0,0,0-.48.17.34.34,0,0,0-.12.14l0,.13a.77.77,0,0,0,0,.27A.9.9,0,0,0,88.51,105.92Z"/><path d="M81.79,98.78c-.65,0-1.33,0-2,0s-1.24.05-1.86.07c-1.24.08-2.48.22-3.72.28q-.93.06-1.86.06h-.94a3,3,0,0,0-.89.41l-.21.09.17.17c.21.21.32.52.67.76a2.65,2.65,0,0,0,.52.16c.16,0,.32.06.49.09a7.5,7.5,0,0,0,2,0c1.27-.09,2.54-.17,3.81-.29s2.53-.28,3.8-.43A17.42,17.42,0,0,0,85.47,99C84.35,99,83.12,98.85,81.79,98.78Z"/><path d="M83.1,95.86a26,26,0,0,0-3.84.73l-.05,0v0l0,.45a18.41,18.41,0,0,0,3.89.49A31.47,31.47,0,0,0,87,97.43c1.29-.13,2.56-.35,3.85-.46a24.77,24.77,0,0,1,3.85-.1l0-.33a41.1,41.1,0,0,0-7.75-.9A29.9,29.9,0,0,0,83.1,95.86Z"/><path d="M64.78,101.18a12.8,12.8,0,0,0,4.06,1.58,25.74,25.74,0,0,0,2.89.3c1,.07,1.92.13,2.88.17l.84,0-.77-.37a29.66,29.66,0,0,0-5.31-2,24.3,24.3,0,0,0-2.8-.55,15.93,15.93,0,0,0-2.87-.17,4.44,4.44,0,0,0,.47.61A2.43,2.43,0,0,0,64.78,101.18Z"/><path d="M57.18,95.73c.76-.31,1.51-.63,2.26-1l.69-.34h-.8a29.39,29.39,0,0,0-4.85.4,14.94,14.94,0,0,0-2.36.63,10.2,10.2,0,0,0-2.24,1.07,9.78,9.78,0,0,0,2.49.32,10.28,10.28,0,0,0,2.47-.27A19.11,19.11,0,0,0,57.18,95.73Z"/><path d="M56.71,101.66a13,13,0,0,0,2.39.76,13.85,13.85,0,0,0,2.49.27,8,8,0,0,0,2.5-.31,12.77,12.77,0,0,0-2.23-1,14.52,14.52,0,0,0-2.34-.66c-.8-.14-1.61-.21-2.41-.31s-1.59-.24-2.38-.38l-.5-.08.37.37A6.48,6.48,0,0,0,56.71,101.66Z"/><path d="M48.54,101.63a4.9,4.9,0,0,0,.93.18l.88.11a23.76,23.76,0,0,0,3.58.1H54v-.08c0-.16,0-.31,0-.44-.39-.2-.85-.37-1.31-.56s-1-.34-1.46-.48-1-.22-1.56-.32a9.07,9.07,0,0,1-1.49-.4l-.11,0,0,.12a3.93,3.93,0,0,0-.15.93.89.89,0,0,0,.16.54A1,1,0,0,0,48.54,101.63Z"/><path d="M94.09,102.36a8.9,8.9,0,0,0-2.35.66,14.11,14.11,0,0,0,2.38.61,13,13,0,0,0,2.42.25,15.25,15.25,0,0,0,2.43-.22,6.25,6.25,0,0,0,2.35-.7l.32-.19-.38-.12a12,12,0,0,0-2.38-.45,19.25,19.25,0,0,0-2.4-.08A21.26,21.26,0,0,0,94.09,102.36Z"/><path d="M73.61,104.81a3.38,3.38,0,0,0,1.24.39c.43,0,.85,0,1.27,0a7.53,7.53,0,0,1,1.23.21l.76.17-.66-.5a10.54,10.54,0,0,0-2.14-1.3,4,4,0,0,0-1.26-.31,2.57,2.57,0,0,0-1.3.28A1.62,1.62,0,0,0,73.61,104.81Z"/><path d="M29.35,81.67a3.81,3.81,0,0,0-1.1,1.16,2,2,0,0,0,1.6.15,4.94,4.94,0,0,0,1.46-.6c.43-.28.84-.61,1.27-.89a11.55,11.55,0,0,1,1.35-.72l.87-.42-1,.1a15.71,15.71,0,0,0-3,.55A6,6,0,0,0,29.35,81.67Z"/><path d="M95.1,69a5.33,5.33,0,0,0,.52-.54c.14-.21.24-.44.37-.64l0,0,0,0-.17-.15a4.43,4.43,0,0,0-.69.26l-.63.33-1.26.67-2.49,1.37c-1.65.94-3.31,1.86-4.93,2.85l-4.82,3c-.79.54-1.54,1.12-2.3,1.69l-1.12.88a2,2,0,0,0-.3.24,1.46,1.46,0,0,0-.2.33c-.11.23-.19.46-.29.65l-.07.14.15.08c.2.1.4.24.62.37a2.7,2.7,0,0,0,.38.17.86.86,0,0,0,.45,0c.48-.09,1-.17,1.45-.29a9.63,9.63,0,0,0,1.44-.46,9.82,9.82,0,0,0,1.32-.74,53.71,53.71,0,0,0,4.83-3.39c1.55-1.2,3-2.48,4.51-3.79.73-.65,1.44-1.32,2.16-2Z"/><path d="M87,77.59a.68.68,0,0,0-.3.68,2.79,2.79,0,0,0,.31.6,2,2,0,0,0,.42.53.92.92,0,0,0,.73.23,3.53,3.53,0,0,0,.64-.19l.59-.2c.79-.27,1.59-.52,2.36-.86a11.91,11.91,0,0,0,2.21-1.25c.69-.46,1.37-.95,2.06-1.42,1.37-.93,2.72-1.91,4.07-2.88l2-1.48A14.64,14.64,0,0,0,104,69.76l0,0,0,0-.1-.14c-1.63.52-3.12,1.21-4.66,1.85s-3.05,1.33-4.55,2-3,1.47-4.45,2.28L88.09,77C87.72,77.19,87.36,77.34,87,77.59Z"/><path d="M109.83,76.58l-.59.38-1.18.78c-.78.52-1.57,1-2.33,1.58A39.46,39.46,0,0,1,101,82.26,55.27,55.27,0,0,1,96,84.59l-2.62,1A26.85,26.85,0,0,0,90.87,87h0v0l.06.32a4.93,4.93,0,0,0,1.48.24c.49-.06,1-.12,1.46-.2a28.94,28.94,0,0,0,2.88-.61,17.4,17.4,0,0,0,2.78-1A15.43,15.43,0,0,0,102,84.25c1.58-1.14,3.13-2.33,4.74-3.44a12,12,0,0,0,3.94-4.32L111,76l-.54.28Z"/><path d="M78.1,72.3c.6-.52,1.18-1.06,1.76-1.61q.44-.41.84-.84l.42-.42a4.82,4.82,0,0,0,.35-.53c-.34.1-.77.16-1.19.29s-.74.27-1.11.43c-.72.32-1.45.63-2.16,1A44.23,44.23,0,0,0,72.88,73c-1.33.86-2.6,1.8-3.9,2.68-.65.45-1.31.89-2,1.31-.17.12-.33.2-.5.34a2.56,2.56,0,0,0-.41.47c-.24.33-.42.69-.64,1l-.06.08,0,.1.22.4.06.09h.12c.37,0,.76,0,1.2,0a1.68,1.68,0,0,0,.63-.21l.53-.27c.7-.36,1.4-.74,2.09-1.14a47,47,0,0,0,4-2.54A46.25,46.25,0,0,0,78.1,72.3Z"/><path d="M70.62,59.91l-1.87,2.24-.46.56a1.27,1.27,0,0,0-.31.73,1.39,1.39,0,0,0,.22.73,4,4,0,0,0,.45.62c.6-.65,1.31-1.41,1.86-2.11a19.9,19.9,0,0,1,1.88-2c1.3-1.33,2.61-2.64,3.86-4L80,52.52c.64-.68,1.27-1.36,1.92-2l1-1,.49-.5a6.56,6.56,0,0,0,.43-.57l.07-.09-.08-.1-.2-.24-.09-.11-.13.09a55.92,55.92,0,0,0-4.84,3.3c-1.47,1.34-2.77,2.76-4.08,4.21S71.88,58.42,70.62,59.91Z"/><path d="M64.65,60.52A11.89,11.89,0,0,0,64,61.6a11.08,11.08,0,0,0-.58,1.14l-.26.57-.19.61a5.66,5.66,0,0,0-.24,1.28A29.63,29.63,0,0,0,66.48,62c1.15-1.15,2.26-2.34,3.3-3.59s2-2.56,3-3.8A48.45,48.45,0,0,1,76.11,51l.35-.35-.48.07-.65.11a2.64,2.64,0,0,0-.62.2,7,7,0,0,0-1.17.55,17.73,17.73,0,0,0-2.1,1.44,31.89,31.89,0,0,0-3.69,3.47A29.28,29.28,0,0,0,64.65,60.52Z"/><path d="M70.06,85.86c-1.55.71-3,1.43-4.58,2.27a2.12,2.12,0,0,0,1,1,2,2,0,0,0,1.38,0c.86-.24,1.72-.48,2.56-.79a38,38,0,0,0,4.9-2.13c1.58-.83,3.07-1.81,4.63-2.65.77-.45,1.56-.84,2.34-1.26l1.19-.61a4,4,0,0,0,1.11-.81l.52-.53-.72.22q-2.43.73-4.83,1.58c-1.6.55-3.2,1.13-4.77,1.76S71.61,85.16,70.06,85.86Z"/><path d="M81.23,70.83c-.65.55-1.23,1.12-1.84,1.68C78.2,73.66,77,74.85,75.82,76c-.59.57-1.22,1.11-1.84,1.66a10.41,10.41,0,0,0-.93.86.5.5,0,0,0-.11.4.86.86,0,0,0,.15.35,5.15,5.15,0,0,0,.4.5l.08.1.13-.06a17.28,17.28,0,0,0,4.08-2.61,34.13,34.13,0,0,0,3.48-3.32c1.1-1.17,2.11-2.42,3.09-3.69a45.21,45.21,0,0,0,2.73-4c-1.18,1-2.49,2-3.85,3Z"/><path d="M77.11,60.1a35.22,35.22,0,0,0-3.71,2.71c-1.17,1-2.27,2-3.41,3.07-.56.52-1.14,1-1.71,1.52-.26.25-.66.46-.75,1A1.62,1.62,0,0,0,68,69.5l.08.11.15-.07A28.42,28.42,0,0,0,72,67.24a34.72,34.72,0,0,0,3.4-2.76c1.07-1,2.07-2.05,3-3.13a40.71,40.71,0,0,0,2.77-3.41A24.86,24.86,0,0,0,77.11,60.1Z"/><path d="M84,60.29c-.83.37-1.59.7-2.38,1.1a16.8,16.8,0,0,0-2.23,1.36c-1.43,1-2.85,2-4.25,3S72.43,67.85,71,68.85l-1,.76a9.94,9.94,0,0,0-1,.79c-.32.3-.61.63-.9.95l-.22.24a1,1,0,0,0-.19.32c-.09.21-.15.41-.24.6l-.16.36.38-.13a23.33,23.33,0,0,0,4.58-2.43c1.44-.94,2.86-1.91,4.22-3s2.71-2.12,4-3.24,2.56-2.29,3.76-3.52l0,0v0Z"/><path d="M97.82,62.26a30.68,30.68,0,0,0-4.11,1.42,14.44,14.44,0,0,0-1.92,1.07c-.62.41-1.15.87-1.73,1.31-1.12.91-2.2,1.86-3.34,2.74-.56.45-1.14.88-1.72,1.31a3.43,3.43,0,0,0-.81.76,1,1,0,0,0-.21.58c0,.19,0,.37,0,.53l0,.19h.2c.15,0,.33,0,.52,0a1.19,1.19,0,0,0,.32,0,1.06,1.06,0,0,0,.28-.13l.94-.49a19.11,19.11,0,0,0,1.84-1.11c1.15-.85,2.27-1.7,3.38-2.57s2.2-1.77,3.29-2.67c.55-.44,1.08-.91,1.62-1.36l.81-.7A4.53,4.53,0,0,1,98,62.5l0,0,0,0Z"/><path d="M62.52,58.4c-.82,1.14-1.65,2.24-2.46,3.4a12.72,12.72,0,0,0-.83,1.94l-.17.5a1,1,0,0,0-.11.56,3.9,3.9,0,0,0,.32,1l.1.26.2-.22a49.29,49.29,0,0,0,4.89-6.43,78.07,78.07,0,0,0,4-7l0,0,0,0-.27-.23-1.51,1.43-.78.77c-.24.27-.46.53-.68.8C64.26,56.21,63.37,57.29,62.52,58.4Z"/><path d="M105.66,87.78a37.88,37.88,0,0,0,4.49-1.89c-1.52.26-3.12.47-4.79.69s-3.41.5-5.07.83-3.25.59-4.9.81c-.81.14-1.63.21-2.46.34a2.05,2.05,0,0,0-1.18.55,2.52,2.52,0,0,0-.53,1.21l0,.22h.24A48.61,48.61,0,0,0,101,89.17C102.58,88.79,104.13,88.31,105.66,87.78Z"/><path d="M87.89,56.35l-3.25,1.58A6.47,6.47,0,0,0,83,58.8a4.07,4.07,0,0,0-1,1.56l-.12.28.31-.09c1.12-.31,2.24-.62,3.35-1v.1a1.39,1.39,0,0,1-.13.44l-.18.7.62-.32c1.6-.82,3.21-1.72,4.73-2.65S93.6,56,95,55.23a9.66,9.66,0,0,0-3.67-.08,11.15,11.15,0,0,0-1.78.48C89,55.83,88.44,56.11,87.89,56.35Z"/><path d="M92.74,90.79c-2.59.33-5.4.76-8.15,1.34-1.39.3-2.71.67-4.06.94-.68.15-1.36.28-2,.4-.34.07-.68.11-1,.2A1,1,0,0,0,77,94a.78.78,0,0,0-.17.28.49.49,0,0,0,.06.38,1,1,0,0,0,.21.24.73.73,0,0,0,.3.13h0c-2,.28-4,.61-6.08,1-1.31.29-2.55.64-3.83.9-.63.14-1.27.26-1.91.37-.32.07-.63.1-1,.19a.85.85,0,0,0-.48.28A.68.68,0,0,0,64,98a.43.43,0,0,0,.06.37.72.72,0,0,0,.2.23.61.61,0,0,0,.29.13l.47.13A3.88,3.88,0,0,0,66,99a18.49,18.49,0,0,0,2-.16A26.1,26.1,0,0,0,71.83,98a31.75,31.75,0,0,0,3.68-1.35c.6-.24,1.19-.52,1.79-.77l.89-.4.53-.26a1.92,1.92,0,0,0,.24,0A18.22,18.22,0,0,0,81,95.07a27,27,0,0,0,4.08-.88A35.59,35.59,0,0,0,89,92.77c.64-.26,1.27-.55,1.91-.82l.94-.42.47-.22L92.8,91l0,0v0Z"/><path d="M73.25,93a4.57,4.57,0,0,0,.93-.07l.89-.13A27.09,27.09,0,0,0,78.6,92,36,36,0,0,0,82,90.71c.55-.24,1.11-.46,1.64-.74l.81-.41a1.58,1.58,0,0,0,.73-.65l.15-.27H85c-.26,0-.55-.07-.86-.06s-.58.09-.87.14l-1.68.3c-1.11.21-2.23.41-3.33.66s-2.21.51-3.32.77l-1.64.43a1.78,1.78,0,0,0-.8.4l-.68.55a2,2,0,0,0,.56.76A1.53,1.53,0,0,0,73.25,93Z"/><path d="M124.52,87.09a25.57,25.57,0,0,0-3.7-1.07,30.52,30.52,0,0,0-3.82-.53,7.36,7.36,0,0,0-1.93.2,6,6,0,0,0-.93.32c-.3.15-.57.32-.85.47l-.07,0v.1l0,.33,0,.14.15.06a4.94,4.94,0,0,0,1.82.67c.62,0,1.22,0,1.84,0,1.22,0,2.44.13,3.66.26s2.44.28,3.66.46l1.84.24a5.19,5.19,0,0,0,1.89,0A16.76,16.76,0,0,0,124.52,87.09Z"/><path d="M123.37,81.64a23.74,23.74,0,0,0-3.32-.74,22.55,22.55,0,0,0-3.39-.24,12,12,0,0,0-1.7.13,4,4,0,0,0-.84.2,1.5,1.5,0,0,0-.76.45,1.93,1.93,0,0,0,.29.34,2.17,2.17,0,0,0,.4.17l.77.31c.51.19,1,.41,1.56.57a13.19,13.19,0,0,0,1.65.39,15.85,15.85,0,0,0,1.67.13c1.11,0,2.22,0,3.32,0s2.21.05,3.31.14l.45,0-.32-.33a4.88,4.88,0,0,0-1.48-.94A13.51,13.51,0,0,0,123.37,81.64Z"/><path d="M104.46,65.19a11.42,11.42,0,0,0-1.89.57,4.6,4.6,0,0,0-.88.46A1.79,1.79,0,0,0,101,67a15.64,15.64,0,0,0,3.8.08l3.73-.38c1.25-.08,2.49-.22,3.74-.29s2.5-.09,3.75-.08h.58l-.5-.31a9.52,9.52,0,0,0-3.79-1.11,24.62,24.62,0,0,0-3.93-.17A23.39,23.39,0,0,0,104.46,65.19Z"/><path d="M55.78,82.36c-1,.39-2,.82-3.06,1.13a4.73,4.73,0,0,0-1.47.78,4.55,4.55,0,0,0-1.06,1.29l-.15.26h.31a6.55,6.55,0,0,0,1.65,0c.55-.18,1-.35,1.53-.55,1-.37,2-.74,3-1.14s2-.83,2.94-1.26a22.75,22.75,0,0,0,2.84-1.51l0,0,0,0-.09-.21c-1.13.09-2.18.22-3.27.41A19.1,19.1,0,0,0,55.78,82.36Z"/><path d="M57.18,62c.51-.29.92-.53,1.38-.84a3.6,3.6,0,0,0,.63-.55c.18-.22.32-.42.48-.64.6-.86,1.22-1.71,1.77-2.61s1.06-1.83,1.62-2.72,1.18-1.74,1.81-2.59l.67-.9-.92.68A29.17,29.17,0,0,0,59.74,56,11.78,11.78,0,0,0,58,58.79,9,9,0,0,0,57.18,62Z"/><path d="M79.53,66a23.62,23.62,0,0,0-2.78,1.86,15.17,15.17,0,0,0-2.44,2.31,15.67,15.67,0,0,0,3.23-1,18.57,18.57,0,0,0,3-1.5,31.19,31.19,0,0,0,2.7-2c.88-.68,1.75-1.37,2.59-2.1l.68-.59-.86.3A38,38,0,0,0,79.53,66Z"/><path d="M56.78,69.35a27.68,27.68,0,0,0-2,2.09c-.63.71-1.26,1.42-1.87,2.16l-.05.06,0,.1.12.31,0,.12.14,0c.22,0,.46,0,.74,0a1,1,0,0,0,.42-.18l.3-.21c.4-.28.79-.58,1.17-.89a25,25,0,0,0,2.16-2c.68-.71,1.3-1.45,1.91-2.21a21.72,21.72,0,0,0,1.68-2.43,15.52,15.52,0,0,0-2.56,1.35A20.22,20.22,0,0,0,56.78,69.35Z"/><path d="M110.23,82.1c.79-.33,1.53-.74,2.29-1.12s1.53-.72,2.32-1l.1,0v-.14l0-.25,0-.15h-.17c-.87.05-1.74.11-2.6.2s-1.73.34-2.54.41a4.09,4.09,0,0,0-1.35.29A4.81,4.81,0,0,0,107,81a20.75,20.75,0,0,0-1.87,1.88,8.6,8.6,0,0,0,2.59-.07A12.53,12.53,0,0,0,110.23,82.1Z"/><path d="M53.3,89.76l.41.16a14.93,14.93,0,0,1,1.62.6,4.46,4.46,0,0,0,1,.65,1.71,1.71,0,0,0,1.22,0c.75-.22,1.51-.45,2.24-.73s1.46-.58,2.18-.89a14.4,14.4,0,0,0,2.12-1h0l.06,0v-.06l0-.28V88H64c-1.15,0-2.3.13-3.46.19s-2.34.7-3.31.61a20.26,20.26,0,0,0-3.48,0l-.46.09A1.54,1.54,0,0,0,53,89a.37.37,0,0,0-.16.15.28.28,0,0,0,0,.28A.93.93,0,0,0,53.3,89.76Z"/><path d="M68.25,82.23l-1,.08a21.42,21.42,0,0,0-2.74.52c-.9.22-1.8.42-2.69.67s-1.76.49-2.66.81a2.35,2.35,0,0,0-1.17.92,2.12,2.12,0,0,0-.26,1.42,11,11,0,0,0,2.58-.59,19.69,19.69,0,0,0,2.42-1c.77-.41,1.5-.88,2.26-1.31a22.88,22.88,0,0,1,2.34-1.13Z"/><path d="M70.93,82.94a14.18,14.18,0,0,0-2.44,1,22.62,22.62,0,0,0-2.23,1.33c-.72.5-1.4,1-2.11,1.54a2,2,0,0,0,.38.64.89.89,0,0,0,.72.3,1.91,1.91,0,0,0,.72-.24c.21-.1.41-.2.61-.32.81-.44,1.63-.85,2.4-1.36s1.52-1,2.31-1.51c.39-.24.8-.44,1.2-.67l.62-.31a2.34,2.34,0,0,0,.34-.18c.12-.13.16-.2.24-.28l.32-.34-.49,0A10.79,10.79,0,0,0,70.93,82.94Z"/><path d="M104.6,67.28a3.49,3.49,0,0,0-1.72.47c-1,.49-2.07,1-3.06,1.53l-1.49.85c-.48.3-1,.6-1.47.88-1,.55-2,1.06-3,1.55l-.15.07.08.17.09.22.07.15.18-.06c1-.37,2.11-.77,3.17-1.2s2.12-.85,3.14-1.31c2.06-.92,4-1.86,5.88-2.71a2.68,2.68,0,0,0-.79-.43A2.93,2.93,0,0,0,104.6,67.28Z"/><path d="M71.86,90.39a33,33,0,0,0-5.14.43,19.71,19.71,0,0,0-2.51.66,10.71,10.71,0,0,0-2.37,1.13,10.34,10.34,0,0,0,2.63.32,11,11,0,0,0,2.62-.29,17.76,17.76,0,0,0,2.48-.87c.81-.33,1.61-.66,2.4-1l.69-.34Z"/><path d="M60.39,71c-.81.65-1.57,1.37-2.35,2.06s-1.57,1.36-2.37,2l-.1.09.08.13.25.36.09.14.16-.09c1.77-1.08,3.53-2.18,5.2-3.43.83-.63,1.62-1.3,2.39-2A17,17,0,0,0,65.87,68,15,15,0,0,0,63,69.3,21.53,21.53,0,0,0,60.39,71Z"/><path d="M48.64,83.58A14.57,14.57,0,0,0,51.5,82.5,18.89,18.89,0,0,0,54.11,81c.82-.6,1.57-1.27,2.34-1.91l2.31-1.94L60,76.06l-1.48.8c-1.76.93-3.55,1.79-5.29,2.81a21.08,21.08,0,0,0-2.48,1.72A11.4,11.4,0,0,0,48.64,83.58Z"/><path d="M66.28,69.77c-.29.16-.53.32-.8.48-.52.33-1,.66-1.55,1s-1,.73-1.49,1.11l-.72.59a1,1,0,0,0-.28.44c0,.16-.1.26-.17.46l.45.25a.67.67,0,0,0,.55.1,7.94,7.94,0,0,0,.95-.28,4,4,0,0,0,.89-.47c.26-.19.51-.4.75-.61.48-.44.93-.9,1.43-1.31.25-.2.5-.39.77-.58s.31-.66.44-.91l.13-.24h-.3C67.05,69.8,66.78,69.58,66.28,69.77Z"/><path d="M46.12,69.38l-.34,1,.65-.8A57.5,57.5,0,0,0,50,64.84c.53-.83,1-1.68,1.48-2.55a16.41,16.41,0,0,0,1.15-2.75,27.5,27.5,0,0,0-2,2.18,22.71,22.71,0,0,0-1.8,2.34c-.53.84-1,1.73-1.42,2.61A26.24,26.24,0,0,0,46.12,69.38Z"/><path d="M107.36,73.23a10.32,10.32,0,0,0,1-.79,4.67,4.67,0,0,0,.44-.45l.2-.25c.07-.11.1-.23.15-.31a7.27,7.27,0,0,0-2.43.51,11,11,0,0,0-2.19,1.1c-.68.46-1.3,1-2,1.46a16.57,16.57,0,0,1-2,1.26l-.27.15.21-.25a.53.53,0,0,0-.11-.09s-.09,0-.09,0h0l-.22.06-.44.13-.87.25-1.73.52c-1.15.37-2.31.71-3.43,1.17s-2.21,1-3.29,1.56c-.54.27-1.08.54-1.61.84l-.39.21a.88.88,0,0,0-.44.28,1.75,1.75,0,0,0-.29,1,.29.29,0,0,0,.06.19.77.77,0,0,0,.12.13,1.42,1.42,0,0,0,.25.12,1,1,0,0,0,.54.09l.91-.18a7.37,7.37,0,0,0,1.77-.59c1.07-.57,2.14-1.13,3.19-1.72s2.09-1.21,3.12-1.83l1.54-1,.77-.49a1.9,1.9,0,0,0,.37-.28.34.34,0,0,0,.06-.06l.34.1a2.4,2.4,0,0,0,1.34-.06c.37-.1.74-.23,1.09-.36-1.4.66-2.77,1.33-4.14,2-.85.46-1.71.92-2.55,1.41s-1.65,1-2.5,1.47A37.8,37.8,0,0,1,88.52,83c-.91.36-1.82.66-2.75.95-.46.15-.92.25-1.4.44a1.06,1.06,0,0,0-.6.56.8.8,0,0,0,.22.83,2.09,2.09,0,0,0,.68.42,1.14,1.14,0,0,0,.43.07h.1c-.65.2-1.29.39-1.94.56s-1.22.32-1.84.47l-.47.09a.79.79,0,0,0-.44.31,9.33,9.33,0,0,0-.53.81l-.12.18.22.07a3.28,3.28,0,0,0,1,.31c.39-.06.64-.12,1-.18l1.85-.4c1.24-.27,2.47-.54,3.7-.84l1.84-.47a13.93,13.93,0,0,0,1.8-.69,15.17,15.17,0,0,0,3.22-2l0,0v0l-.1-.24c-.58.1-1.23.19-1.89.32s-1.24.25-1.86.39l-1.5.35c.21-.08.42-.16.62-.26,1.77-.86,3.48-1.76,5.16-2.74s3.34-2,5-3c.81-.55,1.57-1.16,2.33-1.76l1.13-.91a3.72,3.72,0,0,0,.56-.5c.15-.2.26-.42.4-.61l0,0,0,0-.19-.19c.41-.19.81-.38,1.2-.59A21.65,21.65,0,0,0,107.36,73.23Z"/><path d="M113.8,69a12.5,12.5,0,0,0-2.21.12,20.36,20.36,0,0,0-2.16.38l-.53.13.53.21a15,15,0,0,0,4.19,1h.16c-.35.23-.72.45-1,.69a21.73,21.73,0,0,1-2.35,1.44c-.81.43-1.64.84-2.5,1.2l-1.29.55a13,13,0,0,0-1.21.75l0,0v0l.05.17a3.46,3.46,0,0,0,.62.14h0c-.51.29-1,.61-1.52.87l-.39.19a1.66,1.66,0,0,0-.41.22,5.36,5.36,0,0,0-.5.74L103,78l.26.06a2.33,2.33,0,0,0,.95.22,7.33,7.33,0,0,0,.9-.26,8.3,8.3,0,0,0,1.64-.8,9.12,9.12,0,0,0,1.4-1.15c.25-.26.47-.5.69-.76a6.76,6.76,0,0,0,2.18-1.13c.77-.6,1.52-1.23,2.32-1.79A6.4,6.4,0,0,0,115,70.83l.77,0a11.68,11.68,0,0,0,2.15-.33,8.11,8.11,0,0,0-2-1A7.89,7.89,0,0,0,113.8,69Z"/><path d="M116.16,76.75l-.13.09-.82-.14a5.45,5.45,0,0,0-2.56.14l-.43.15.45.19a46.29,46.29,0,0,0,4.71,1.72c1.59.47,3.11.86,4.46,1.28A7.78,7.78,0,0,0,120,78.42a9.25,9.25,0,0,0-2.27-1.18l-.24-.06c1.27.11,2.55.19,3.82.2,1.66,0,3.23-.06,4.64,0a7.75,7.75,0,0,0-2.3-1.15,9.3,9.3,0,0,0-2.5-.48,14.27,14.27,0,0,0-2.54.19A5.6,5.6,0,0,0,116.16,76.75Z"/><path d="M52,71.72c-.57.43-1.15.93-1.74,1.43s-1.19,1-1.76,1.6-1.12,1.2-1.67,1.79-1.13,1.11-1.74,1.62l-.07.06,0,.1.17.4.05.11.14,0,.6-.07a1.11,1.11,0,0,0,.34-.08,1,1,0,0,0,.31-.18,10.19,10.19,0,0,0,1-.74A18.1,18.1,0,0,0,49.47,76a20,20,0,0,0,2.81-4l0-.06,0,0Z"/><path d="M81.29,58.5l-.29.27.38,0a2.11,2.11,0,0,0,.71-.09c.2-.06.41-.11.61-.19.39-.13.78-.28,1.17-.44.77-.32,1.53-.66,2.28-1s1.46-.81,2.17-1.24a8.7,8.7,0,0,0,2-1.58c-.35.1-.74.16-1.18.25s-.91.21-1.31.34c-.79.26-1.58.54-2.35.87a12.09,12.09,0,0,0-2.25,1.18A16.88,16.88,0,0,0,81.29,58.5Z"/><path d="M122.25,92.19c-.76.09-1.5.27-2.24.42l-2.22.43-.55.11.53.22a7.07,7.07,0,0,0,2.28.43,21.68,21.68,0,0,0,2.28,0,19.15,19.15,0,0,0,2.26-.3,6.7,6.7,0,0,0,2.19-.75,9.11,9.11,0,0,0-2.24-.53A10.32,10.32,0,0,0,122.25,92.19Z"/><path d="M111.08,89.56a21.76,21.76,0,0,0-2.42.55,13.8,13.8,0,0,0-2.37.86,8.12,8.12,0,0,0,2.52.35A10.93,10.93,0,0,0,111.3,91c.82-.2,1.6-.49,2.39-.72s1.6-.44,2.41-.63l1.1-.25-1.15-.09A21.77,21.77,0,0,0,111.08,89.56Z"/><path d="M81.83,85.52l-.42-.08a3.25,3.25,0,0,0-1.17,0,10.16,10.16,0,0,0-1.1.21c-.72.18-1.43.39-2.13.64a21.42,21.42,0,0,0-2,.9,9.92,9.92,0,0,0-1.91,1.19,6.49,6.49,0,0,0,2.28,0,9.14,9.14,0,0,0,2.19-.55,20.88,20.88,0,0,0,2-1c.65-.36,1.31-.71,1.94-1.13Z"/><path d="M48.68,79a10.39,10.39,0,0,0-1.74,1.17,5.78,5.78,0,0,0-1.38,1.58l0,0,0,0a1.6,1.6,0,0,0,.18.29,5.08,5.08,0,0,0,1.1-.06,5.76,5.76,0,0,0,1-.41,5.94,5.94,0,0,0,1.73-1.28c.5-.51,1-1.06,1.42-1.59s1-1,1.49-1.5l-.23-.24A32.23,32.23,0,0,1,48.68,79Z"/><path d="M40.78,71.42a5.6,5.6,0,0,0-.76,2v.05l0,0,.27.21a5.38,5.38,0,0,0,1-.43,6.43,6.43,0,0,0,.81-.73,6.06,6.06,0,0,0,1.19-1.8c.29-.65.53-1.32.79-2s.58-1.27.88-1.9h0l0,0-.31-.15A31.9,31.9,0,0,1,42,69.73,10.35,10.35,0,0,0,40.78,71.42Z"/><path d="M114.22,73.18a4.45,4.45,0,0,0-1.93.66L112,74l.34.12a10.73,10.73,0,0,0,3.85.48c.65,0,1.29-.12,1.92-.21s1.23-.18,1.92-.36a5.07,5.07,0,0,0-1.86-.86,7.44,7.44,0,0,0-2-.25A14.79,14.79,0,0,0,114.22,73.18Z"/><path d="M101.85,60.55a15.09,15.09,0,0,0-1.68,1.15,4,4,0,0,0-1.4,1.51l-.13.3.36-.08a11.8,11.8,0,0,0,1.54-.45c0,.1,0,.2.06.28.81,0,1.68,0,2.56,0s1.77,0,2.69-.13l2.73-.33a26.93,26.93,0,0,1,2.69-.14h.14v-.51l-.13,0a13.06,13.06,0,0,0-5.42-.42,29.13,29.13,0,0,0-4.54,1c.45-.2.9-.42,1.33-.66s1.1-.7,1.62-1.08a14.61,14.61,0,0,0,1.52-1.27,5.58,5.58,0,0,0-2.05.17A8.47,8.47,0,0,0,101.85,60.55Z"/><path d="M114.69,83l-.31-.21a5.18,5.18,0,0,0-2-.89,3.19,3.19,0,0,0-1.15,0c-.36.08-.71.2-1.08.3-.72.23-1.42.51-2.06.77s-1.25.49-1.81.67a13.84,13.84,0,0,0,2,.28,12.51,12.51,0,0,0,2,0,19.09,19.09,0,0,0,2-.39c.66-.15,1.32-.29,2-.46Z"/><path d="M50.62,70.17l0,.07,0,0,.28.17A26.82,26.82,0,0,0,54,67.59c.49-.56.93-1.14,1.41-1.68A2.39,2.39,0,0,0,56,63.84l0-.22-.21.12a10.08,10.08,0,0,0-3.1,2.82,16.45,16.45,0,0,0-1.12,1.77C51.22,68.93,50.91,69.55,50.62,70.17Z"/><path d="M90.08,61.06a14.87,14.87,0,0,0-1.22.86A4.56,4.56,0,0,0,87.78,63a11.9,11.9,0,0,0,3-.49,15.35,15.35,0,0,0,2.78-1.07l.16-.1a2.89,2.89,0,0,0-.41.38,12.42,12.42,0,0,0,3-.05,15.07,15.07,0,0,0,2.9-.67,28.69,28.69,0,0,0,2.72-1.19c.89-.42,1.78-.83,2.67-1.27l.47-.24-.53-.08a9.38,9.38,0,0,0-3,.19,24.7,24.7,0,0,0-5.67,1.74c-.27.11-.54.25-.8.38.34-.22.68-.44,1-.67.82-.54,1.65-1.08,2.46-1.64l.44-.3h-.54a9.64,9.64,0,0,0-2.95.62,28.71,28.71,0,0,0-2.75,1.11A27.25,27.25,0,0,0,90.08,61.06Z"/><path d="M56.49,58.83c.34-.57.65-1.17,1-1.75s.61-1.14.91-1.82a10,10,0,0,0-1.63,1.27,9,9,0,0,0-1.36,1.53,15,15,0,0,0-1,1.79c-.3.61-.6,1.23-.84,1.87l-.19.54.48-.36A10.86,10.86,0,0,0,56.49,58.83Z"/><path d="M40,79.3l0,.08,0,0c.09.07.19.12.26.17a10.94,10.94,0,0,0,1.87-1.34c.31-.28.59-.62.87-.92a5.28,5.28,0,0,1,.89-.82l.09-.08-.1-.1c-.21-.21-.41-.43-.61-.65l-.11-.12-.17.12-.23.18v0a5.19,5.19,0,0,0,.49-1,1.22,1.22,0,0,0,0-1.13l-.09-.14-.19.12a4.1,4.1,0,0,0-.78.59,4.33,4.33,0,0,0-.67.75,3.79,3.79,0,0,0-.43.91A2.5,2.5,0,0,0,41,77a2.61,2.61,0,0,0,.54-.18l.19-.11c-.18.17-.37.33-.54.51A5.2,5.2,0,0,0,40,79.3Zm1-2.36a3,3,0,0,0,.2-.29A1,1,0,0,1,41.05,76.94Z"/><path d="M47.08,71.18a4.63,4.63,0,0,0-2,1.47,6.4,6.4,0,0,0-.59,1.13L44,74.92l0,.08.09.08.21.22.11.11.15-.14a17.86,17.86,0,0,0,1.6-1.78,13.74,13.74,0,0,0,1.28-2l0-.08-.06,0Z"/><path d="M47.2,78.89l.11-.18-.16-.16a.37.37,0,0,0-.31-.08c-.07,0,0,0-.07,0l-.08,0-.13.07-.23.12-.44.28a9.68,9.68,0,0,0-.82.61c-.26.22-.52.45-.76.69a6.73,6.73,0,0,0-.71.78c0,.06,0,.11-.07.16l-.11.16-.12.17,0,.09s-.06,0,0,.17l0,0,.06,0a6.22,6.22,0,0,0,2.18-1.13A6.66,6.66,0,0,0,47.2,78.89Z"/><path d="M45,65.46l.12.09.13-.15c.63-.79,1.18-1.63,1.73-2.48a21.36,21.36,0,0,0,1.37-2.7l0-.06,0,0a1.57,1.57,0,0,0-.21-.12A6.3,6.3,0,0,0,47,61.07a7,7,0,0,0-.9,1.26c-.24.45-.42.94-.62,1.42s-.42.93-.66,1.39l-.05.1.11.08Z"/><path d="M52.21,65.9c-.3.31-.6.7-.9,1.08s-.6.82-.88,1.27-.5,1-.74,1.42A10.2,10.2,0,0,1,48.85,71l-.08.09.12.1.31.24.13.1.12-.15c.63-.8,1.2-1.63,1.75-2.48.26-.42.51-.87.74-1.32s.46-.9.66-1.37l0-.09-.07,0Z"/><path d="M49.8,62.08a6,6,0,0,0,1.12-1.31,8.07,8.07,0,0,0,.43-.89,3.77,3.77,0,0,1,.48-.8l.06-.08-.09-.08a2.88,2.88,0,0,1-.33-.28l-.1-.09-.14.15a7.44,7.44,0,0,0-.58.68c-.18.24-.37.48-.53.73a8.93,8.93,0,0,0-.82,1.6l-.06.16.1,0A2.69,2.69,0,0,0,49.8,62.08Z"/><path d="M106.34,97.83c.49-.15,1-.33,1.45-.5l.72-.25a2.82,2.82,0,0,0,.71-.32l0,0v0a1.05,1.05,0,0,0,0-.19,16.12,16.12,0,0,0-3.1-.12c-1,.12-2,.3-3,.5s-2,.33-3,.46c-.5.06-1,.11-1.52.14a3.12,3.12,0,0,0-.78.11,1.11,1.11,0,0,0-.4.21.35.35,0,0,0-.09.15l0,.12a.65.65,0,0,0,0,.24A.81.81,0,0,0,98,99c.32,0,.52,0,.79,0,.51,0,1,0,1.54,0a14.66,14.66,0,0,0,3.09-.31C104.38,98.44,105.36,98.14,106.34,97.83Z"/><path d="M110.54,97.14a4.32,4.32,0,0,0,1.16.4,6.8,6.8,0,0,0,1.18.15c.79,0,1.58,0,2.36,0a20.92,20.92,0,0,0,2.36-.15l.82-.12-.81-.28c-1.36-.47-2.79-.91-4.2-1.25s-2.79-.6-4-.83a2.28,2.28,0,0,0,.26,1.21A2.2,2.2,0,0,0,110.54,97.14Z"/><path d="M119.08,106.56c-1.67-.11-3.34-.15-5-.1H114v0c0,.11,0,.21-.07.3a8.54,8.54,0,0,0,2.4,1.14,9.69,9.69,0,0,0,2.62.32,20.23,20.23,0,0,0,2.61-.31l1.29-.23.64-.11.32-.06.17,0s0,0,.14-.05a.43.43,0,0,0,.07-.08l-.12-.29C122.4,106.85,120.74,106.69,119.08,106.56Z"/><path d="M106,105.94l.55.1c.46.08.91.17,1.37.22l1.38.1a14.87,14.87,0,0,1,2.73.48l.15,0,.06-.18a1.09,1.09,0,0,0,0-.6.91.91,0,0,0-.37-.5,7.22,7.22,0,0,0-.86-.54,8.58,8.58,0,0,0-1.88-.72,11.37,11.37,0,0,0-3.94-.18h0l0,.08c.3.21.66.51,1.07.76a1.14,1.14,0,0,1,.4.31.81.81,0,0,1-.21.26Z"/><path d="M121.3,104c-.76-.16-1.54-.27-2.28-.39l-1.09-.22a7.37,7.37,0,0,0,1.85-.9c.34-.22.68-.5,1-.77s.63-.54.91-.73l-2,.2c-.7.07-1.44.13-2.2.24s-1.53.3-2.26.45a18.32,18.32,0,0,1-2.19.31h-.18l.07.19a2.11,2.11,0,0,0,.8,1,2.47,2.47,0,0,0,1.27.32,9.46,9.46,0,0,0,1.68-.08,1.84,1.84,0,0,0,.34.85,2.5,2.5,0,0,0,1.07.75,9,9,0,0,0,2.39.68,7.39,7.39,0,0,0,2.48-.14c.38-.09.81-.22,1.24-.35s.77-.28,1.11-.36l-1.93-.52C122.75,104.36,122.05,104.15,121.3,104Z"/><path d="M118.28,100.56a15.28,15.28,0,0,0,2.14,0l.41,0-.31-.28a3.63,3.63,0,0,0-1-.56c-.31-.14-.63-.27-.95-.39-.64-.24-1.29-.47-2-.65s-1.32-.32-2-.44a8.36,8.36,0,0,0-2.08-.17,3.4,3.4,0,0,0,1.54,1.55,6.72,6.72,0,0,0,2,.76A15.5,15.5,0,0,0,118.28,100.56Z"/><path d="M118.78,94c-1-.24-2-.46-3.1-.64a13.69,13.69,0,0,0,2-.47,18.88,18.88,0,0,0,2.09-.82c.34-.15.68-.33,1-.49l.49-.27.26-.15a.67.67,0,0,0,.08-.33c-1.23.17-2.65.37-4.1.69-.74.18-1.46.42-2.17.61a17,17,0,0,1-2.12.44l-.1,0v.12l0,.35c-.4,0-.81,0-1.21-.09a20.14,20.14,0,0,1-2.33-.35l-.14,0v0a43.77,43.77,0,0,0-8.15-.93,32,32,0,0,0-4.15.22A28.08,28.08,0,0,0,93,92.7H93v.05l0,.47a20,20,0,0,0,4.12.51,35.3,35.3,0,0,0,4.12-.17c1.37-.14,2.72-.37,4.09-.49a27.82,27.82,0,0,1,4-.1l0,.07,0,.11.13.07A14.57,14.57,0,0,0,114,94.62a15.57,15.57,0,0,0,4.77-.2l.07,0v-.05A3.11,3.11,0,0,0,118.78,94Z"/><path d="M114.41,104.88a6.3,6.3,0,0,0,1.77-.11,4.77,4.77,0,0,0-1.5-1,7.16,7.16,0,0,0-1.69-.51c-.58-.08-1.18-.08-1.76-.11a8.19,8.19,0,0,0-1.78,0l-.38.07.33.24a5.11,5.11,0,0,0,1.62.74,14.27,14.27,0,0,0,1.68.43A14,14,0,0,0,114.41,104.88Z"/><path d="M104.38,101.81l.34.17c.45.2.92.37,1.38.56s.94.34,1.42.47h0v0l.05-.06a1,1,0,0,0-.1-.89,1.88,1.88,0,0,0-.68-.61,9.34,9.34,0,0,0-1.48-.75,10.35,10.35,0,0,0-1.64-.41,9.4,9.4,0,0,0-1.69-.18h-1l.93.35c.57.2,1.13.4,1.71.56a6.87,6.87,0,0,1,.8.26.45.45,0,0,1,.13.09.29.29,0,0,1-.06.15Z"/><path d="M114.49,100.57l.21,0a5.43,5.43,0,0,1,.56.09l.11,0,.74.2-.65-.52a2.91,2.91,0,0,0-1.75-.55,4.43,4.43,0,0,0-.89.12,3.53,3.53,0,0,0-.88.3l.11,0a1.88,1.88,0,0,0,.68.16,5,5,0,0,0,.75.14C113.83,100.61,114.19,100.57,114.49,100.57Z"/><path d="M23.46,89.64a1.75,1.75,0,1,0,1.74,1.75A1.74,1.74,0,0,0,23.46,89.64Z"/><path d="M117.24,118.44a8.71,8.71,0,0,1-2.51.74,2,2,0,0,0,1-1.22,4.09,4.09,0,0,1-2.73.48,10.42,10.42,0,0,1-2.81-1.18,2.3,2.3,0,0,0,.29-.59,4,4,0,0,0,.2-1.36,6.13,6.13,0,0,0,0-.62l0-.53c0-.35,0-.71,0-1.08,0-1.35,0-2.75.06-4.18l.44.19c.8.32,1.6.61,2.4.9s1.61.57,2.46.78h0v0l.08-.21a25.77,25.77,0,0,0-2.14-1.54c-.76-.44-1.52-.86-2.3-1.24l-1.19-.54a9.38,9.38,0,0,0-1.22-.48c-.42-.13-.84-.23-1.26-.34l-.63-.18a2.12,2.12,0,0,0-.69,0h-.09l-.05.1-.08.19-.06.12.13.09a7.34,7.34,0,0,0,1,.78c.41.2.78.37,1.18.54l1.62.71A14.48,14.48,0,0,0,109,113c-.31,1.59.13,3.4-.4,3.78a1.84,1.84,0,0,1-.78.34c-.34.09-.69.14-1.09.22-.77.14-1.52.32-2.27.51l-2.9.78c.52-.46,1.09-.9,1.66-1.36a14.29,14.29,0,0,0,1.62-1.4,6.18,6.18,0,0,0,1.26-1.94,10.52,10.52,0,0,0,.55-4.23l-.17,0a20.66,20.66,0,0,1-1.55,3.69,5.67,5.67,0,0,1-1.18,1.35c-.47.39-1,.75-1.59,1.17a10.64,10.64,0,0,0-3,3.2,4.6,4.6,0,0,0-.62,2.32,4.16,4.16,0,0,0,.19,1.18v0a2.35,2.35,0,0,0-1,.17,3,3,0,0,0-1.31,1.12,4,4,0,0,0-1.86.23,1.86,1.86,0,0,0-.9.81,2.13,2.13,0,0,0-.22.8,5.09,5.09,0,0,1-1.73-.45c-.64-.28-1.25-.67-1.93-1a5.31,5.31,0,0,1,.2-.56A1.16,1.16,0,0,1,91,123v-.17a1.12,1.12,0,0,0-.76.19,1.87,1.87,0,0,0-.55.57,10,10,0,0,0-.52.95,1.9,1.9,0,0,1-.9-1,2.33,2.33,0,0,1,.21-1.64,3.65,3.65,0,0,1,.47-.73l.34-.38a3.33,3.33,0,0,0,.36-.56,4.5,4.5,0,0,0,.39-2.41,15.33,15.33,0,0,0-1.1-4.22,8.29,8.29,0,0,0-1.11-2,5,5,0,0,0-2-1.49,22.46,22.46,0,0,0-4.2-.93,15.25,15.25,0,0,1-1.9-.53,17.5,17.5,0,0,0-2.09-.57,39.46,39.46,0,0,0-8.38-.79h-.13l-.1,0a9.59,9.59,0,0,0-3.46,3.59,25.66,25.66,0,0,0-2.05,4.38,26.71,26.71,0,0,0-1.28,4.63A14.35,14.35,0,0,1,61,123.19a2.7,2.7,0,0,1-1.77,1.32,3.8,3.8,0,0,1-1.18.11c-.56-.06-1.14-.14-1.74-.19a2,2,0,0,0,0-.24,1.58,1.58,0,0,0-.47-.8A1.76,1.76,0,0,0,55,123h-.11a1.21,1.21,0,0,0-.29-.48,1.59,1.59,0,0,0-1.11-.46,3.42,3.42,0,0,0-.81.08,1.56,1.56,0,0,0-.24-.35,2,2,0,0,0-.76-.5l0,0c.39-.22.8-.44,1.22-.69l.32-.19.16-.1.24-.2a1.89,1.89,0,0,0,.54-.95,7.3,7.3,0,0,0-.16-3.07l-.28-1.35a5.09,5.09,0,0,1-.14-1.2l0-.35-.24-.19a6.62,6.62,0,0,1-1.2-1.49c-.38-.58-.74-1.19-1.11-1.79a17,17,0,0,0-2.6-3.48l-.06-.07-.07,0a19.05,19.05,0,0,1-4.18-2.45c-1.15-.81-2.27-1.71-3.48-2.46a20.52,20.52,0,0,0,1.73-3.33,10.62,10.62,0,0,0,.52-3.43c.19-.24.37-.49.53-.74A6.66,6.66,0,0,0,44,92.61l.08-.2-.05-.12c-.15-.4-.33-.79-.5-1.18S43.21,90.33,43,90l-.17,0c0,.43.1.85.16,1.27l.15,1a8,8,0,0,1-.61.72,7.5,7.5,0,0,1-.56.54,1.52,1.52,0,0,0-.45.81,21.08,21.08,0,0,1-.74,2.94,19.85,19.85,0,0,1-1.21,2.39c-1.48-.3-3-.67-4.44-1.11-1.68-.5-3.35-1-5-1.64L30,96.88l-.16,0a8.51,8.51,0,0,1-2.31.2,18.26,18.26,0,0,1-2.43-.21c-.8-.11-1.62-.32-2.46-.37a17,17,0,0,0-2.37,0,12.09,12.09,0,0,0-1.34,0A2.5,2.5,0,0,0,19.61,95a3.08,3.08,0,0,0-.61-1.9,4.54,4.54,0,0,0-1.41-1.32,7.57,7.57,0,0,0-1.74-.68A34.15,34.15,0,0,0,18,88c.69-1,1.39-2.08,2.12-3.08a31.79,31.79,0,0,1,4.92-5.42,23.2,23.2,0,0,1,6.15-3.84q.69-.28,1.41-.54l.8-.26c.42-.13.85-.27,1.29-.38,1.2-.33,2.43-.6,3.67-.87l-.31,0a16.85,16.85,0,0,0,1.44-2c.43-.72.85-1.45,1.21-2.2s.68-1.53,1-2.28A17.18,17.18,0,0,1,43.09,65l.44-.63-.67.4A6.87,6.87,0,0,0,41,66.57a19.14,19.14,0,0,0-1.42,2.16,18.67,18.67,0,0,0-1.09,2.36,8.88,8.88,0,0,0-.38,1.24A3.68,3.68,0,0,0,38,73a1.29,1.29,0,0,0,.06.64,26.72,26.72,0,0,0-3.46.1l-.31,0a6,6,0,0,0,.4-1c.15-.52.24-1,.38-1.56a14.17,14.17,0,0,1,.54-1.5l.39-.92-.7.77a17,17,0,0,0-1.92,2.53,6,6,0,0,0-.63,1.5c0,.13-.06.25-.08.37a14.93,14.93,0,0,0-1.86.48l-.14,0c.11-.38.18-.78.29-1.16a8.28,8.28,0,0,1,.47-1.16l.35-.7-.64.53a11,11,0,0,0-1.74,1.8A4.13,4.13,0,0,0,28.8,75a2,2,0,0,0-.05.24,19.8,19.8,0,0,0-4.77,3A25.58,25.58,0,0,0,21.26,81a26.13,26.13,0,0,0-2.2,3.18,32.26,32.26,0,0,0-1.75,3.41l-1.44,3.19a2.06,2.06,0,0,1-.36.56,10.89,10.89,0,0,1-3.3,2.28,34.2,34.2,0,0,1-4.14,1.63c-1.41.47-2.85.86-4.28,1.28l-1.09.31a3.58,3.58,0,0,0-1.11.58A5.74,5.74,0,0,0,.15,99.31l0,.09v0a2.24,2.24,0,0,0,.17,1.74,1.4,1.4,0,0,0,.83.57,2.34,2.34,0,0,0,.87,0c1-.16,1.92-.38,2.86-.6,1.88-.45,3.75-.94,5.6-1.52s3.6-1.46,5.42-2a18,18,0,0,1,4.29-1v0a15.5,15.5,0,0,1,2.45.22c.81.11,1.58.38,2.4.57a20.72,20.72,0,0,0,2.5.43,9.86,9.86,0,0,0,2.42,0c1.6.68,3.2,1.32,4.83,1.93s3.35,1.2,5.1,1.66a44.87,44.87,0,0,1,4,2.58c.4.33.82.65,1.24,1l-.06.06A14.52,14.52,0,0,1,47.86,109a5,5,0,0,1,.33,1.08,3.29,3.29,0,0,1,.05.54l0,.58a9.68,9.68,0,0,0,.3,2.61,9.57,9.57,0,0,1,.21,1.16.89.89,0,0,1-.11.69l0,0-.09.12-.19.25a6.26,6.26,0,0,0-.39.6,2.29,2.29,0,0,0-.28.84c-1.33.43-3.2,1-3.66,1.9.92-.13,2.13-.63,2.9-.69-.8.55-1.14,1.14-1.11,1.66A26.32,26.32,0,0,1,48.45,119a2.61,2.61,0,0,0,.37.19,1.45,1.45,0,0,0-.85,1.32c.85-.49,1.59-.88,1.93-1a5.27,5.27,0,0,0,1.12,0c.2,0,.39-.06.58-.09l-.69.33a8.59,8.59,0,0,0-1.33.79,3.74,3.74,0,0,0-.66.66,2.32,2.32,0,0,0-.42,1l-.16,1.06a7.79,7.79,0,0,0-.62.76c-.38.61-.22,1.41.42,1.3.51-.84,2.33-1.64,3.22-1.92l.06.27a3.67,3.67,0,0,0-.31.31c-.72.87-1.69,1.93-1.18,2.44s.82-.06,1.64-.84a12.05,12.05,0,0,1,2.06-1.42v.06a2,2,0,0,0-1,.79,4,4,0,0,0-.63,2.36,18.87,18.87,0,0,1,3.2-2v.17l.56-.07c.69-.1,1.47-.07,2.25-.16a5.87,5.87,0,0,0,1.18-.23c1.16-.39,2.21-.54,3.47-5.17a25.77,25.77,0,0,1,1.48-4.5,26.05,26.05,0,0,1,2.19-4.15,8.81,8.81,0,0,1,3.08-3.05,38.39,38.39,0,0,1,7.95,1,16.71,16.71,0,0,1,1.89.62,16.51,16.51,0,0,0,2.06.67,27.3,27.3,0,0,1,3.86,1,4.52,4.52,0,0,1,2.16,2.62,16.9,16.9,0,0,1,1.17,3.73,3.35,3.35,0,0,1-.11,1.66,2.68,2.68,0,0,1-.18.33l-.32.42a4.17,4.17,0,0,0-.53,1.08,3.39,3.39,0,0,0,0,2.41,2.79,2.79,0,0,0,1.81,1.5l.33.09.1-.27c.08-.21.14-.42.2-.63.61.35,1.17.8,1.81,1.16a5.54,5.54,0,0,0,2.19.71l.3,0v-.3c2.45,2.29,6.07,1.88,9.54,1.93s5.88-2.32,6.15-3.58a8.88,8.88,0,0,1-2.39,1.25,8.11,8.11,0,0,0,1.31-2.42,7.68,7.68,0,0,1-2.79,1.7,1.75,1.75,0,0,0,.31-1.07c-2.69,1.28-3.72.63-4.4.07a1.57,1.57,0,0,0-1.52-.24l-.09-.45c-.1-.45-.21-.72-.27-1a3,3,0,0,1,.5-2.42,6.08,6.08,0,0,1,.62-.74c1-.09,2-.2,3-.32.69.84,5.35,2.15,8,2.15,2.91,0,6-1.51,7.11-2-.94-.07-2.35.57-4.14.76A3.79,3.79,0,0,0,117.24,118.44ZM18.7,96.61a21.23,21.23,0,0,0-3,.59c-1.89.51-3.64,1.31-5.49,1.78s-3.7,1-5.57,1.41c-.93.21-1.89.42-2.8.55-.42,0-.77,0-.9-.23a1.47,1.47,0,0,1-.09-1,7.51,7.51,0,0,1,.52-.86,3.69,3.69,0,0,1,.68-.74,2.71,2.71,0,0,1,.87-.47L4,97.28c1.43-.42,2.86-.89,4.27-1.43A31,31,0,0,0,12.38,94a9.92,9.92,0,0,0,3.45-2.8,6.32,6.32,0,0,1,1.52.93,3.94,3.94,0,0,1,1.07,1.31A4.56,4.56,0,0,1,18.76,95,5.52,5.52,0,0,1,18.7,96.61Zm30.61,21s0,0,0,0Zm1.75.72A6.44,6.44,0,0,1,50,118a2.43,2.43,0,0,1-.63-.36,1.73,1.73,0,0,1,.08-.18,5.19,5.19,0,0,1,.28-.46l.16-.25.08-.14.12-.22a2.58,2.58,0,0,0,.11-1.73c-.11-.47-.26-.86-.39-1.25a8.93,8.93,0,0,1-.5-2.26l0-.65a5,5,0,0,0-.14-.69,5.91,5.91,0,0,0-.52-1.24,12.14,12.14,0,0,0-2.51-2.86,13.37,13.37,0,0,0,1.8,1,17.71,17.71,0,0,1,2.26,3.39c.34.62.67,1.25,1,1.87a8.27,8.27,0,0,0,1.15,1.61,6.88,6.88,0,0,0,.1,1.25l.21,1.37a7,7,0,0,1,.08,2.25C52.17,118.48,51.6,118.43,51.06,118.33Z"/></svg>