<?xml version="1.0" encoding="utf-8"?>
<!-- Generator: Adobe Illustrator 23.0.0, SVG Export Plug-In . SVG Version: 6.00 Build 0)  -->
<svg version="1.1" id="Layer_1" xmlns="http://www.w3.org/2000/svg" xmlns:xlink="http://www.w3.org/1999/xlink" x="0px" y="0px"
	 viewBox="0 0 50 50" enable-background="new 0 0 50 50" xml:space="preserve">
<g>
	<path fill="#CECECE" d="M35,5.2l9.8,9.8l-3.7,3.7l-9.8-9.8L35,5.2z"/>
	<path fill="#F15642" d="M45.4,1.4l3.2,3.2c1.8,1.8,1.8,4.7,0,6.6l-2.4,2.4l-9.8-9.8l2.4-2.4C40.7-0.5,43.6-0.5,45.4,1.4z"/>
	
		<rect x="9.4" y="27.8" transform="matrix(0.7073 -0.7069 0.7069 0.7073 -13.7832 27.2238)" fill="#F9BE2B" width="33.2" height="5"/>
	
		<rect x="3.6" y="21.3" transform="matrix(0.7071 -0.7071 0.7071 0.7071 -11.364 21.3945)" fill="#FFCC3E" width="33.2" height="6.1"/>
	<polygon fill="#FBCE9D" points="4.5,45.5 5.2,47.8 14.3,45.4 4.6,35.6 2.2,44.8 	"/>
	<path fill="#535B60" d="M0,49.7l1.4-4.1l2.2,0.7l0.7,2.2L0.3,50C0.1,50,0,49.9,0,49.7z"/>
</g>
</svg>
