<?xml version="1.0" encoding="utf-8"?>
<!-- Generator: Adobe Illustrator 23.0.0, SVG Export Plug-In . SVG Version: 6.00 Build 0)  -->
<svg version="1.1" id="Layer_1" xmlns="http://www.w3.org/2000/svg" xmlns:xlink="http://www.w3.org/1999/xlink" x="0px" y="0px"
	 viewBox="0 0 50 50" enable-background="new 0 0 50 50" xml:space="preserve">
<g>
	
		<rect x="26.7" y="18.3" transform="matrix(-1 -1.224647e-16 1.224647e-16 -1 61.5214 38.5622)" fill="#AFAFAF" width="8.2" height="1.9"/>
	
		<rect x="15.6" y="18.3" transform="matrix(-1 -1.224647e-16 1.224647e-16 -1 39.5059 38.5622)" fill="#AFAFAF" width="8.2" height="1.9"/>
	<g>
		<rect x="20.5" y="14.5" fill="#F15642" width="9.5" height="9.5"/>
		<rect x="21.9" y="16" fill="#EF8C84" width="6.7" height="6.7"/>
	</g>
	
		<rect x="39.5" y="18.3" transform="matrix(-1 -1.224647e-16 1.224647e-16 -1 85.3045 38.5622)" fill="#AFAFAF" width="6.3" height="1.9"/>
	
		<rect x="4.8" y="18.3" transform="matrix(-1 -1.224647e-16 1.224647e-16 -1 15.7862 38.5622)" fill="#AFAFAF" width="6.2" height="1.9"/>
	<ellipse opacity="0.45" fill="#CFF5FF" cx="25.2" cy="19.3" rx="10.6" ry="10.6"/>
	<path fill="#647584" d="M39.7,31.5l-4.1-4.1c4.1-5.2,3.8-12.8-1.1-17.6c-5.2-5.2-13.6-5.2-18.8,0c-5.2,5.2-5.2,13.6,0,18.8
		c4.8,4.8,12.4,5.1,17.6,1.1l4.1,4.1c0.5,0.5,1.3,0.5,1.8,0l0.4-0.4C40.2,32.8,40.2,32,39.7,31.5z M17.7,26.8
		c-4.1-4.1-4.1-10.8,0-15c4.1-4.1,10.9-4.1,15,0c4.1,4.1,4.1,10.8,0,15C28.6,30.9,21.9,30.9,17.7,26.8z"/>
	<path fill="#BC7E4B" d="M47.5,43.6l2-2c0.6-0.6,0.6-1.5,0-2l-9.7-9.7c-0.6-0.6-1.5-0.6-2,0l-2,2c-0.6,0.6-0.6,1.5,0,2l9.7,9.7
		C46,44.1,47,44.1,47.5,43.6z"/>
	<g>
		<rect x="42.4" y="15.5" fill="#398136" width="7.6" height="7.6"/>
		<rect x="43.5" y="16.6" fill="#5AB208" width="5.3" height="5.3"/>
	</g>
	<g>
		<rect x="0" y="15.5" fill="#D58D0E" width="7.6" height="7.6"/>
		<rect x="1.1" y="16.6" fill="#FBD44A" width="5.3" height="5.3"/>
	</g>
</g>
</svg>
