<?xml version="1.0" encoding="utf-8"?>
<!-- Generator: Adobe Illustrator 23.0.0, SVG Export Plug-In . SVG Version: 6.00 Build 0)  -->
<svg version="1.1" id="Layer_1" xmlns="http://www.w3.org/2000/svg" xmlns:xlink="http://www.w3.org/1999/xlink" x="0px" y="0px"
	 viewBox="0 0 50 50" enable-background="new 0 0 50 50" xml:space="preserve">
<g>
	<path fill="#F15642" d="M36,8.3h-1.4V4.6c0-0.3-0.3-0.6-0.6-0.6h-6.7c-0.3,0-0.6,0.3-0.6,0.6v3.6h-3.5V4.6c0-0.3-0.3-0.6-0.6-0.6
		H16c-0.3,0-0.6,0.3-0.6,0.6v3.6H14c-0.6,0-1,0.4-1,1v15.8h24V9.3C37,8.7,36.6,8.3,36,8.3z"/>
	<g>
		<path fill="#6DAF54" d="M24,45.9H0V28.1c0-0.6,0.4-1,1-1h22c0.6,0,1,0.4,1,1V45.9z"/>
		<path fill="#598CA5" d="M50,45.9H26V28.1c0-0.6,0.4-1,1-1h22c0.6,0,1,0.4,1,1V45.9z"/>
	</g>
</g>
</svg>
