<?xml version="1.0" encoding="utf-8"?>
<!-- Generator: Adobe Illustrator 23.0.0, SVG Export Plug-In . SVG Version: 6.00 Build 0)  -->
<svg version="1.1" id="Layer_1" xmlns="http://www.w3.org/2000/svg" xmlns:xlink="http://www.w3.org/1999/xlink" x="0px" y="0px"
	 viewBox="0 0 50 50" enable-background="new 0 0 50 50" xml:space="preserve">
<g>
	<g>
		<path fill="#F15642" d="M6.5,20.7c0,1.6-1.1,3-2.7,3.4v-6.7C5.3,17.7,6.5,19.1,6.5,20.7z"/>
		<path fill="#41647D" d="M3.8,3.3v34.9c0,1.2-1,2.2-2.2,2.2H0V1.1h1.6C2.8,1.1,3.8,2.1,3.8,3.3z"/>
		<path fill="#EF7C73" d="M6.1,5.6v2.2c7.1,0,12.8,5.8,12.8,12.9c0,7.1-5.8,12.9-12.8,12.9v2.2c8.3,0,15.1-6.8,15.1-15.1
			C21.2,12.4,14.5,5.6,6.1,5.6z"/>
		<path fill="#EF7C73" d="M6.1,0v2.2c10.2,0,18.4,8.3,18.4,18.5c0,10.2-8.3,18.4-18.4,18.5v2.2c11.4,0,20.7-9.3,20.7-20.7
			C26.8,9.3,17.5,0,6.1,0z"/>
		<path fill="#F15642" d="M6.1,11.2v2.2c4,0,7.2,3.3,7.2,7.3c0,4-3.2,7.3-7.2,7.3v2.2c5.2,0,9.5-4.3,9.5-9.5
			C15.6,15.5,11.4,11.2,6.1,11.2z"/>
	</g>
	<g>
		<circle opacity="0.5" fill="#CFF5FF" cx="29.3" cy="29.3" r="8.9"/>
		<path fill="#647584" d="M41.3,39.4l-3.3-3.3c3.5-4.4,3.2-10.8-0.9-14.8c-4.4-4.4-11.5-4.4-15.8,0c-4.4,4.4-4.4,11.5,0,15.8
			c4.1,4.1,10.4,4.3,14.8,0.9l3.3,3.3c0.5,0.5,1.3,0.5,1.8,0l0.1-0.1C41.8,40.8,41.8,39.9,41.3,39.4z M22.9,35.6
			c-3.5-3.5-3.5-9.1,0-12.6c3.5-3.5,9.1-3.5,12.6,0c3.5,3.5,3.5,9.1,0,12.6C32.1,39.1,26.4,39.1,22.9,35.6z"/>
		<path fill="#BC7E4B" d="M48.2,49.6l1.4-1.4c0.6-0.6,0.6-1.5,0-2l-7.9-7.9c-0.6-0.6-1.5-0.6-2,0l-1.4,1.4c-0.6,0.6-0.6,1.5,0,2
			l7.9,7.9C46.7,50.1,47.6,50.1,48.2,49.6z"/>
	</g>
</g>
</svg>
