<?xml version="1.0" encoding="utf-8"?>
<!-- Generator: Adobe Illustrator 23.0.0, SVG Export Plug-In . SVG Version: 6.00 Build 0)  -->
<svg version="1.1" id="Layer_1" xmlns="http://www.w3.org/2000/svg" xmlns:xlink="http://www.w3.org/1999/xlink" x="0px" y="0px"
	 viewBox="0 0 50 50" enable-background="new 0 0 50 50" xml:space="preserve">
<g>
	<path fill="#617591" d="M49.4,23.5L26.5,0.6c-0.8-0.8-2.2-0.8-3.1,0L0.6,23.5c-0.8,0.8-0.8,2.2,0,3.1l22.8,22.8
		c0.8,0.8,2.2,0.8,3.1,0l22.8-22.8C50.2,25.7,50.2,24.3,49.4,23.5z M47.2,26.1L26.1,47.2c-0.3,0.3-0.7,0.5-1.1,0.5
		c-0.4,0-0.8-0.2-1.1-0.5L2.8,26.1c-0.3-0.3-0.5-0.7-0.5-1.1s0.2-0.8,0.5-1.1L23.9,2.8c0.6-0.6,1.6-0.6,2.2,0l21.1,21.1
		c0.3,0.3,0.5,0.7,0.5,1.1S47.5,25.8,47.2,26.1z"/>
	<g>
		<path fill="#617591" d="M25,18.4c-1.9,0-3.4,1.5-3.4,3.4s1.5,3.4,3.4,3.4c1.9,0,3.4-1.5,3.4-3.4C28.4,19.9,26.9,18.4,25,18.4z"/>
		<path fill="#617591" d="M45.5,24.5L25.5,4.5c-0.3-0.3-0.8-0.3-1.1,0L4.5,24.5c-0.3,0.3-0.3,0.8,0,1.1l19.9,19.9
			c0.3,0.3,0.8,0.3,1.1,0l19.9-19.9C45.8,25.2,45.8,24.8,45.5,24.5z M31.8,25.4c-1.9,4.1-5.5,8.4-6.5,9.7c-0.1,0.1-0.2,0.1-0.3,0.1
			c-0.1,0-0.2-0.1-0.3-0.1c-1.1-1.2-4.7-5.6-6.5-9.7c-0.4-1-0.7-2-0.7-3.1c0-4.1,3.4-7.5,7.5-7.5c4.1,0,7.5,3.4,7.5,7.5
			C32.5,23.4,32.3,24.4,31.8,25.4z"/>
	</g>
</g>
</svg>
