<?xml version="1.0" encoding="utf-8"?>
<!-- Generator: Adobe Illustrator 23.0.0, SVG Export Plug-In . SVG Version: 6.00 Build 0)  -->
<svg version="1.1" id="Layer_1" xmlns="http://www.w3.org/2000/svg" xmlns:xlink="http://www.w3.org/1999/xlink" x="0px" y="0px"
	 viewBox="0 0 50 50" enable-background="new 0 0 50 50" xml:space="preserve">
<g>
	<path fill="#6FAC97" d="M42.3,31.9l-11.5,10l-3.4,2.9L5.2,37.4l3.6-8h7.8c3.2,4.7,6.4,8.6,7.8,10.1c0.2,0.2,0.4,0.3,0.6,0.3
		c0.3,0,0.5-0.1,0.6-0.3c1.3-1.5,4.6-5.4,7.8-10.1h7.8L42.3,31.9z"/>
	<polygon fill="#5A8C7B" points="31.5,49.1 0,49.1 4.1,39.9 	"/>
	<polygon fill="#40ADD3" points="50,49.1 40.3,49.1 30.6,45.9 32.5,44.2 43.5,34.6 	"/>
	<polygon fill="#2D2D2D" points="30.6,45.9 40.3,49.1 31.5,49.1 4.1,39.9 5.2,37.4 27.5,44.8 30.9,41.9 42.3,31.9 42.6,32.5 
		43.4,34.4 43.5,34.6 32.5,44.2 	"/>
	<g>
		<path fill="#748DBD" d="M25,0.9c-7.3,0-13.2,5.9-13.2,13.2c0,1.9,0.4,3.7,1.2,5.4c3.3,7.2,9.7,14.9,11.5,17.1
			c0.1,0.2,0.3,0.3,0.6,0.3s0.4-0.1,0.6-0.3c1.9-2.2,8.2-9.8,11.5-17.1c0.8-1.7,1.2-3.5,1.2-5.4C38.2,6.8,32.3,0.9,25,0.9z M25,19.2
			c-3.3,0-6-2.7-6-6c0-3.3,2.7-6,6-6s6,2.7,6,6C31,16.5,28.3,19.2,25,19.2z"/>
	</g>
	<polygon fill="#F4D13B" points="30.6,45.9 40.3,49.1 31.5,49.1 4.1,39.9 5.2,37.4 27.5,44.8 30.9,41.9 42.3,31.9 42.6,32.5 
		43.4,34.4 43.5,34.6 32.5,44.2 	"/>
</g>
</svg>
