<?xml version="1.0" encoding="utf-8"?>
<!-- Generator: Adobe Illustrator 23.0.0, SVG Export Plug-In . SVG Version: 6.00 Build 0)  -->
<svg version="1.1" id="Layer_1" xmlns="http://www.w3.org/2000/svg" xmlns:xlink="http://www.w3.org/1999/xlink" x="0px" y="0px"
	 viewBox="0 0 50 50" enable-background="new 0 0 50 50" xml:space="preserve">
<g>
	<path fill="#7C4F41" d="M0.4,23.5l4.2,0.2c0,0,0.6,4.8-2.6,4.5S0.4,23.5,0.4,23.5z"/>
	<path fill="#7C4F41" d="M0.5,22.1l4.3,0.2c0,0,1-3,1.5-5.1c0.2-0.7,0.2-1.5,0.1-2.2c-0.2-1.6-0.8-3.5-2.3-3.6c-2-0.1-3.8,2.8-4,5.8
		S0.5,22.1,0.5,22.1z"/>
	<path fill="#7C4F41" d="M11.9,29.2l-3.5-2c0,0-2.9,3.7-0.2,5C11,33.6,11.9,29.2,11.9,29.2z"/>
	<path fill="#7C4F41" d="M12.8,27.8l-3.8-2c0,0,0.6-3.1,1.3-5.1c0.2-0.7,0.5-1.4,1-2c0.9-1.3,2.4-2.6,3.8-2c1.8,0.9,1.9,4.3,0.6,7
		S12.8,27.8,12.8,27.8z"/>
	<path fill="#41647D" d="M46.6,12.7L47,5.6c0-0.2-0.2-0.4-0.4-0.2L43,8.1c-4.4-4.4-10.4-7.2-17.2-7.2c-6.7,0-12.8,2.8-17.2,7.2
		l1.9,1.9c3.9-3.9,9.3-6.4,15.2-6.4C31.7,3.6,37,6,40.8,9.7l-3.3,2.5c-0.2,0.1-0.1,0.4,0.1,0.5l6.7,1.5c1.9,3.2,2.9,6.8,2.9,10.8
		c0,11.8-9.6,21.4-21.4,21.4c-5.4,0-10.3-2-14.1-5.4l2.9-3.1c0.2-0.2,0-0.4-0.2-0.4l-8.8-0.6c-0.2,0-0.3,0.1-0.3,0.3L6.4,46
		c0,0.2,0.3,0.3,0.4,0.2L9.9,43c4.3,3.8,9.9,6.1,16,6.1C39.2,49.1,50,38.3,50,25C50,20.5,48.8,16.3,46.6,12.7z"/>
</g>
</svg>
