<?xml version="1.0" encoding="utf-8"?>
<!-- Generator: Adobe Illustrator 23.0.0, SVG Export Plug-In . SVG Version: 6.00 Build 0)  -->
<svg version="1.1" id="Layer_1" xmlns="http://www.w3.org/2000/svg" xmlns:xlink="http://www.w3.org/1999/xlink" x="0px" y="0px"
	 viewBox="0 0 50 50" enable-background="new 0 0 50 50" xml:space="preserve">
<g>
	<path fill="#7C4F41" d="M1.8,25.9l4.1-0.8c0,0,1.7,4.4-1.5,4.8S1.8,25.9,1.8,25.9z"/>
	<path fill="#7C4F41" d="M1.6,24.8l4-0.8c0,0,0.2-2.9,0.2-4.9c0-0.7-0.1-1.4-0.4-2c-0.5-1.4-1.5-3-2.9-2.7c-1.9,0.3-2.9,3.4-2.4,6.1
		S1.6,24.8,1.6,24.8z"/>
	<path fill="#7C4F41" d="M13.9,28.4L10,27.5c0,0-1.8,4.1,1.2,4.6C14.1,32.6,13.9,28.4,13.9,28.4z"/>
	<path fill="#7C4F41" d="M14.3,27.2l-3.9-0.9c0,0-0.1-2.9,0-4.9c0-0.7,0.2-1.4,0.5-2c0.6-1.4,1.6-2.9,3.1-2.6
		c1.9,0.4,2.7,3.5,2.1,6.2C15.3,25.7,14.3,27.2,14.3,27.2z"/>
	<path fill="#41647D" d="M42.9,13.4C39.2,7.5,32.5,3.5,25,3.5c-7.6,0-14.3,4-17.9,10l1.7,0.9c3.3-5.4,9.4-9,16.3-9
		c6.9,0,12.9,3.6,16.3,9l-1.7,0.9l4,1.1l1.1-3.9L42.9,13.4z"/>
	<path fill="#41647D" d="M41.2,35.6c-3.3,5.4-9.4,9-16.3,9c-6.9,0-12.9-3.6-16.3-9l1.7-1l-4-1.1l-1.1,3.9L7,36.6
		c3.7,5.9,10.3,9.9,17.9,9.9c7.6,0,14.3-4,17.9-10L41.2,35.6z"/>
	<g>
		<path fill="#647584" d="M42.2,19.6c-2.7-2.7-7.2-2.7-9.9,0c-2.7,2.7-2.7,7,0,9.7c2.7,2.7,7.2,2.7,9.9,0S44.9,22.2,42.2,19.6z
			 M41.2,28.3c-2.2,2.1-5.7,2.1-7.9,0c-2.2-2.1-2.2-5.6,0-7.8c2.2-2.1,5.7-2.1,7.9,0C43.4,22.7,43.4,26.1,41.2,28.3z"/>
		<ellipse opacity="0.45" fill="#CFF5FF" cx="37.2" cy="24.4" rx="5.6" ry="5.5"/>
		<path fill="#647584" d="M44.8,31.8L44.8,31.8c0.3-0.3,0.3-0.8,0-1.2l-2.2-2.1c-0.3-0.3-0.9-0.3-1.2,0v0c-0.3,0.3-0.3,0.8,0,1.2
			l2.2,2.1C43.9,32.1,44.4,32.1,44.8,31.8z"/>
		<path fill="#BC7E4B" d="M49.5,36.5l0.1-0.1c0.6-0.5,0.6-1.4,0-2l-4.2-4.1c-0.6-0.5-1.5-0.5-2,0l-0.1,0.1c-0.6,0.5-0.6,1.4,0,2
			l4.2,4.1C48,37.1,48.9,37.1,49.5,36.5z"/>
	</g>
</g>
</svg>
