<?xml version="1.0" encoding="utf-8"?>
<!-- Generator: Adobe Illustrator 23.0.0, SVG Export Plug-In . SVG Version: 6.00 Build 0)  -->
<svg version="1.1" id="Layer_1" xmlns="http://www.w3.org/2000/svg" xmlns:xlink="http://www.w3.org/1999/xlink" x="0px" y="0px"
	 viewBox="0 0 50 50" enable-background="new 0 0 50 50" xml:space="preserve">
<g>
	<path fill="#F15642" d="M42,50H8c-0.9,0-1.7-0.8-1.7-1.7V1.7C6.3,0.8,7,0,8,0h20.3c0.9,0,1.6,0.7,1.6,1.6v10.7
		c0,0.8,0.7,1.5,1.5,1.5h10.7c0.9,0,1.6,0.7,1.6,1.6v32.9C43.8,49.2,43,50,42,50z"/>
	<path fill="#F15642" d="M43.7,11.4h-9.8c-0.9,0-1.6-0.7-1.6-1.6V0L43.7,11.4z"/>
	<g>
		<path fill="#FFFFFF" d="M10,22.3h4.9c1.2,0,2.2,0.3,2.9,0.9c0.7,0.6,1.1,1.4,1.1,2.6c0,1.1-0.3,1.9-1,2.6s-1.6,0.9-2.7,0.9H12v4.4
			h-2V22.3z M11.9,23.9v3.9h2.9c1.5,0,2.3-0.6,2.3-1.9c0-1.3-0.8-1.9-2.4-1.9H11.9z"/>
		<path fill="#FFFFFF" d="M20.6,22.3h4.3c0.8,0,1.5,0.1,2.1,0.2c0.6,0.2,1.1,0.5,1.6,0.9c1.1,1,1.7,2.4,1.7,4.3c0,2-0.5,3.5-1.6,4.6
			c-0.5,0.5-1,0.8-1.5,1c-0.5,0.2-1.3,0.3-2.2,0.3h-4.4V22.3z M22.6,24v8h2.3c1.2,0,2.1-0.4,2.6-1.1c0.5-0.7,0.8-1.7,0.8-3
			c0-1.2-0.3-2.2-0.9-2.9c-0.6-0.7-1.5-1-2.7-1H22.6z"/>
		<path fill="#FFFFFF" d="M40,22.3V24h-5.9v3.1h5.1v1.6h-5.1v5h-2V22.3H40z"/>
	</g>
</g>
</svg>
