<?xml version="1.0" encoding="utf-8"?>
<!-- Generator: Adobe Illustrator 23.0.0, SVG Export Plug-In . SVG Version: 6.00 Build 0)  -->
<svg version="1.1" id="Layer_1" xmlns="http://www.w3.org/2000/svg" xmlns:xlink="http://www.w3.org/1999/xlink" x="0px" y="0px"
	 viewBox="0 0 50 50" enable-background="new 0 0 50 50" xml:space="preserve">
<g>
	<path fill="#939DA5" d="M13.1,7.8h-1c-0.8,0-1.4-0.6-1.4-1.4v-5c0-0.8,0.6-1.4,1.4-1.4l1,0c0.8,0,1.4,0.6,1.4,1.4v5
		C14.4,7.1,13.8,7.8,13.1,7.8z"/>
	<path fill="#939DA5" d="M37.9,7.8l-1,0c-0.8,0-1.4-0.6-1.4-1.4v-5c0-0.8,0.6-1.4,1.4-1.4l1,0c0.8,0,1.4,0.6,1.4,1.4v5
		C39.3,7.1,38.7,7.8,37.9,7.8z"/>
	<path fill="#F15642" d="M48,13.4V7.7c0-1.5-1.2-2.8-2.8-2.8h-4.7v1.4c0,1.7-1.4,3.1-3.1,3.1c-1.7,0-3.1-1.4-3.1-3.1V4.9H15.7v1.4
		c0,1.7-1.4,3.1-3.1,3.1S9.5,8,9.5,6.3V4.9H4.7C3.2,4.9,2,6.2,2,7.7v5.7H48z"/>
	<path fill="#E5E5E5" d="M2,15.1v32.2C2,48.8,3.2,50,4.7,50h40.6c1.5,0,2.8-1.2,2.8-2.8V15.1H2z"/>
	<rect x="36" y="19.3" fill="#6DAF54" width="7.4" height="7.4"/>
	<rect x="6.6" y="28.9" fill="#6DAF54" width="7.4" height="7.4"/>
	<g>
		<g>
			<rect x="6.6" y="19.3" fill="#BABEBF" width="7.4" height="7.4"/>
			<rect x="16.4" y="19.3" fill="#BABEBF" width="7.4" height="7.4"/>
			<rect x="26.2" y="19.3" fill="#BABEBF" width="7.4" height="7.4"/>
			<rect x="16.4" y="28.9" fill="#BABEBF" width="7.4" height="7.4"/>
			<rect x="26.2" y="28.9" fill="#BABEBF" width="7.4" height="7.4"/>
			<rect x="36" y="28.9" fill="#BABEBF" width="7.4" height="7.4"/>
			<rect x="6.6" y="38.4" fill="#BABEBF" width="7.4" height="7.4"/>
			<rect x="16.4" y="38.4" fill="#BABEBF" width="7.4" height="7.4"/>
			<rect x="26.2" y="38.4" fill="#BABEBF" width="7.4" height="7.4"/>
		</g>
	</g>
</g>
</svg>
