<?xml version="1.0" encoding="utf-8"?>
<!-- Generator: Adobe Illustrator 23.0.0, SVG Export Plug-In . SVG Version: 6.00 Build 0)  -->
<svg version="1.1" id="Layer_1" xmlns="http://www.w3.org/2000/svg" xmlns:xlink="http://www.w3.org/1999/xlink" x="0px" y="0px"
	 viewBox="0 0 50 50" enable-background="new 0 0 50 50" xml:space="preserve">
<g>
	<path fill="none" d="M35.3,26.2c-0.9-0.9-2.1-1.5-3.3-1.8c-0.1,0.2-0.2,0.5-0.3,0.7c-1.5,3.4-3.8,6.8-5.8,9.8
		c0.1,0.1,0.2,0.3,0.4,0.4c2.5,2.5,6.6,2.5,9.1,0C37.9,32.8,37.9,28.8,35.3,26.2z"/>
	<path fill="none" d="M24.3,15.6c0-4.2-3.4-7.6-7.6-7.6c-4.2,0-7.6,3.4-7.6,7.6c0,4.2,3.4,7.6,7.6,7.6
		C20.9,23.1,24.3,19.8,24.3,15.6z"/>
	<path fill="#F15642" d="M23.4,23.4c2.6-2.6,6.2-3.5,9.5-2.8c0.3-1.3,0.5-2.6,0.5-3.9C33.4,7.5,25.9,0,16.7,0C7.5,0,0,7.5,0,16.7
		c0,2.4,0.5,4.7,1.5,6.8C5.6,32.7,13.7,42.4,16,45.1c0.2,0.2,0.4,0.3,0.7,0.3s0.5-0.1,0.7-0.3c1.1-1.2,3.3-3.9,5.8-7.2
		C19.4,33.8,19.5,27.4,23.4,23.4z M16.7,23.1c-4.2,0-7.6-3.4-7.6-7.6c0-4.2,3.4-7.6,7.6-7.6c4.2,0,7.6,3.4,7.6,7.6
		C24.3,19.8,20.9,23.1,16.7,23.1z"/>
	<path fill="#F15642" d="M32,24.5c-2-0.4-4.2,0.2-5.7,1.8c-2.4,2.4-2.5,6.2-0.4,8.7c2.1-2.9,4.3-6.4,5.8-9.8
		C31.8,24.9,31.9,24.7,32,24.5z"/>
	<circle opacity="0.5" fill="#CFF5FF" cx="30.8" cy="30.8" r="8.3"/>
	<path fill="#647584" d="M42,40.2l-3-3c3.2-4.1,2.9-10-0.8-13.8C36.7,22,34.9,21,33,20.6c-3.3-0.7-6.9,0.2-9.5,2.8
		c-4,4-4,10.3-0.3,14.4c0.1,0.1,0.2,0.2,0.3,0.3c3.8,3.8,9.7,4,13.8,0.8l3,3c0.5,0.5,1.3,0.5,1.8,0l0,0C42.4,41.5,42.4,40.7,42,40.2
		z M24.9,36.7c-0.2-0.2-0.3-0.3-0.5-0.5c-2.7-3.3-2.6-8.1,0.5-11.2c2-2,4.8-2.8,7.4-2.3c1.6,0.3,3.1,1.1,4.3,2.3
		c3.2,3.2,3.2,8.5,0,11.7C33.4,39.9,28.2,39.9,24.9,36.7z"/>
	<path fill="#BC7E4B" d="M48.4,49.6l1.1-1.1c0.6-0.6,0.6-1.5,0-2l-7.2-7.2c-0.6-0.6-1.5-0.6-2,0l-1.1,1.1c-0.6,0.6-0.6,1.5,0,2
		l7.2,7.2C47,50.1,47.9,50.1,48.4,49.6z"/>
</g>
</svg>
