<?xml version="1.0" encoding="utf-8"?>
<!-- Generator: Adobe Illustrator 23.0.0, SVG Export Plug-In . SVG Version: 6.00 Build 0)  -->
<svg version="1.1" id="Layer_1" xmlns="http://www.w3.org/2000/svg" xmlns:xlink="http://www.w3.org/1999/xlink" x="0px" y="0px"
	 viewBox="0 0 50 50" enable-background="new 0 0 50 50" xml:space="preserve">
<g>
	<g>
		<circle opacity="0.5" fill="#CFF5FF" cx="22.1" cy="22.1" r="5.6"/>
		<path fill="#647584" d="M29.7,28.5l-2-2c2.2-2.8,2-6.7-0.6-9.3c-2.7-2.7-7.2-2.7-9.9,0c-2.7,2.7-2.7,7.2,0,9.9
			c2.5,2.5,6.5,2.7,9.3,0.6l2,2c0.3,0.3,0.9,0.3,1.2,0l0,0C30,29.3,30,28.8,29.7,28.5z M18.2,26.1c-2.2-2.2-2.2-5.7,0-7.9
			c2.2-2.2,5.7-2.2,7.9,0c2.2,2.2,2.2,5.7,0,7.9C23.9,28.3,20.3,28.3,18.2,26.1z"/>
		<path fill="#BC7E4B" d="M34.4,34.5l0.1-0.1c0.6-0.6,0.6-1.5,0-2l-4.2-4.2c-0.6-0.6-1.5-0.6-2,0l-0.1,0.1c-0.6,0.6-0.6,1.5,0,2
			l4.2,4.2C32.9,35,33.8,35,34.4,34.5z"/>
	</g>
	<g>
		<path fill="#AFAFAF" d="M25,46C13.4,46,4,36.6,4,25S13.4,4,25,4s21,9.4,21,21S36.6,46,25,46z M25,5.5C14.2,5.5,5.5,14.2,5.5,25
			S14.2,44.5,25,44.5S44.5,35.8,44.5,25S35.8,5.5,25,5.5z"/>
		<rect x="20" y="40" width="10" height="10"/>
		<g>
			<rect x="40" y="20" fill="#398136" width="10" height="10"/>
			<rect x="41.5" y="21.5" fill="#5AB208" width="7" height="7"/>
		</g>
		<g>
			<rect x="20" y="40" fill="#0B7AB6" width="10" height="10"/>
			<rect x="21.5" y="41.5" fill="#CEDBEA" width="7" height="7"/>
		</g>
		<g>
			<rect y="20" fill="#D58D0E" width="10" height="10"/>
			<rect x="1.5" y="21.5" fill="#FBD44A" width="7" height="7"/>
		</g>
		<g>
			<rect x="20" y="0" fill="#F15642" width="10" height="10"/>
			<rect x="21.5" y="1.5" fill="#EF8C84" width="7" height="7"/>
		</g>
	</g>
</g>
</svg>
