<?xml version="1.0" encoding="utf-8"?>
<!-- Generator: Adobe Illustrator 23.0.0, SVG Export Plug-In . SVG Version: 6.00 Build 0)  -->
<svg version="1.1" id="Layer_1" xmlns="http://www.w3.org/2000/svg" xmlns:xlink="http://www.w3.org/1999/xlink" x="0px" y="0px"
	 viewBox="0 0 50 50" enable-background="new 0 0 50 50" xml:space="preserve">
<g>
	<rect x="21.2" y="6.5" fill="#AFAFAF" width="1.9" height="10"/>
	<polygon fill="#AFAFAF" points="24.7,34.2 26.5,33.4 32,46.6 30.3,47.4 	"/>
	<polygon fill="#AFAFAF" points="29.9,29.8 30.6,28 45.5,33.5 44.8,35.3 	"/>
	<polygon fill="#AFAFAF" points="5,14.3 6.2,12.8 15.4,20 14.3,21.5 	"/>
	<polygon fill="#AFAFAF" points="14.6,29.6 15.6,31.2 3.5,38.7 2.5,37.1 	"/>
	<polygon fill="#AFAFAF" points="36.8,16.2 37.8,17.8 30,22.7 29,21.1 	"/>
	<circle fill="#43B05C" cx="22.1" cy="4.7" r="4.7"/>
	<circle fill="#7383BF" cx="46.3" cy="34.8" r="3.7"/>
	<circle fill="#3AA1DB" cx="41" cy="14.6" r="5.3"/>
	<circle fill="#57D8AB" cx="4.4" cy="12.4" r="3.1"/>
	<circle fill="#D75A4A" cx="3.6" cy="37.8" r="3.6"/>
	<circle fill="#FBD44A" cx="30.7" cy="45.4" r="4.6"/>
	<g>
		<g>
			<g>
				<path fill="#748AA5" d="M22.1,12.9c-6.9,0-12.5,5.6-12.5,12.5c0,6.9,5.6,12.5,12.5,12.5s12.5-5.6,12.5-12.5
					C34.6,18.5,29,12.9,22.1,12.9z"/>
			</g>
		</g>
	</g>
	<g>
		<g>
			<path fill="#CEDBEA" d="M22.1,14.8c-5.8,0-10.5,4.7-10.5,10.5c0,5.8,4.7,10.5,10.5,10.5s10.5-4.7,10.5-10.5
				C32.7,19.5,28,14.8,22.1,14.8z M22.3,31.9L22.3,31.9L22.3,31.9l-5.8,0c-0.3,0-0.5-0.3-0.5-0.6c0.3-4,4-4.1,4.9-5.2v0
				c0.1-0.3-0.1-0.6-0.3-0.8c-1-0.7-1.7-2.1-1.7-3.7c0-2.4,1.5-3.9,3.4-3.9c1.9,0,3.4,1.5,3.4,3.9c0,1.6-0.7,2.9-1.7,3.7
				c-0.3,0.2-0.4,0.5-0.3,0.8l0,0.1c0.9,1.1,4.5,1.2,4.8,5.1c0,0.3-0.2,0.6-0.5,0.6L22.3,31.9z"/>
		</g>
	</g>
</g>
</svg>
