<?xml version="1.0" encoding="utf-8"?>
<!-- Generator: Adobe Illustrator 23.0.0, SVG Export Plug-In . SVG Version: 6.00 Build 0)  -->
<svg version="1.1" id="Layer_1" xmlns="http://www.w3.org/2000/svg" xmlns:xlink="http://www.w3.org/1999/xlink" x="0px" y="0px"
	 viewBox="0 0 50 50" enable-background="new 0 0 50 50" xml:space="preserve">
<g>
	
		<rect x="34" y="23.5" transform="matrix(-1.836970e-16 1 -1 -1.836970e-16 64.4441 -14.7225)" fill="#AFAFAF" width="11.1" height="2.8"/>
	
		<rect x="4.9" y="23.5" transform="matrix(-1.836970e-16 1 -1 -1.836970e-16 35.2775 14.4441)" fill="#AFAFAF" width="11.1" height="2.8"/>
	
		<rect x="19.5" y="38.2" transform="matrix(-1 -1.224647e-16 1.224647e-16 -1 50.0686 79.1667)" fill="#AFAFAF" width="11.1" height="2.8"/>
	
		<rect x="19.5" y="9" transform="matrix(-1 -1.224647e-16 1.224647e-16 -1 50.0686 20.8333)" fill="#AFAFAF" width="11.1" height="2.8"/>
	<g>
		<rect y="29.2" fill="#0B7AB6" width="20.8" height="20.8"/>
		<rect x="3.1" y="32.3" fill="#CEDBEA" width="14.6" height="14.6"/>
	</g>
	<g>
		<rect fill="#F15642" width="20.8" height="20.8"/>
		<rect x="3.1" y="3.1" fill="#EF8C84" width="14.6" height="14.6"/>
	</g>
	<g>
		<rect x="29.2" y="29.2" fill="#398136" width="20.8" height="20.8"/>
		<rect x="32.3" y="32.3" fill="#5AB208" width="14.6" height="14.6"/>
	</g>
	<g>
		<rect x="29.2" fill="#D58D0E" width="20.8" height="20.8"/>
		<rect x="32.3" y="3.1" fill="#FBD44A" width="14.6" height="14.6"/>
	</g>
</g>
</svg>
