<?xml version="1.0" encoding="utf-8"?>
<!-- Generator: Adobe Illustrator 23.0.0, SVG Export Plug-In . SVG Version: 6.00 Build 0)  -->
<svg version="1.1" id="Layer_1" xmlns="http://www.w3.org/2000/svg" xmlns:xlink="http://www.w3.org/1999/xlink" x="0px" y="0px"
	 viewBox="0 0 50 50" enable-background="new 0 0 50 50" xml:space="preserve">
<g>
	<path fill="#AFAFAF" d="M26,24.9h-2.2v-2H26c3.4,0,6.2-2.8,6.2-6.3s-2.8-6.3-6.2-6.3H9.1v-2H26c4.5,0,8.2,3.7,8.2,8.3
		S30.6,24.9,26,24.9z"/>
	<path fill="#AFAFAF" d="M9.9,22.9h2.3v2H9.9c-3.6,0-6.4,2.9-6.4,6.5S6.4,38,9.9,38h15.9v2H9.9c-4.7,0-8.5-3.8-8.5-8.6
		S5.3,22.9,9.9,22.9z"/>
	<g>
		<rect x="11.9" y="17.6" fill="#D58D0E" width="11.9" height="12"/>
		<rect x="13.7" y="19.4" fill="#FBD44A" width="8.3" height="8.4"/>
	</g>
	<g>
		<rect x="0" y="4.2" fill="#0B7AB6" width="10.6" height="10.7"/>
		<rect x="1.6" y="5.8" fill="#CEDBEA" width="7.4" height="7.5"/>
	</g>
	<g>
		<rect x="25.1" y="32.4" fill="#398136" width="13.2" height="13.4"/>
		<rect x="27.1" y="34.5" fill="#5AB208" width="9.3" height="9.4"/>
	</g>
	<g>
		<g>
			<path fill="#FBCE9D" d="M42.7,38.9l0.3,0.3l2.9-2.7l-5.3-1.7l0.8,3.9l0.4-0.1C42.1,38.5,42.4,38.7,42.7,38.9z"/>
			<path fill="#535B60" d="M41.5,40.9l-0.2-1.8l0.4-0.1c0.3-0.1,0.6,0,0.8,0.3l0.3,0.3L41.6,41C41.6,41,41.5,41,41.5,40.9z"/>
		</g>
		<polygon fill="#F9BE2B" points="46.1,35.6 40.8,34 43.7,24.7 49,26.4 		"/>
		<path fill="#F15642" d="M49.2,25.5L44,23.8l0.7-2.3c0.2-0.6,0.9-0.9,1.6-0.7l2.7,0.9c0.7,0.2,1.1,0.9,0.9,1.5L49.2,25.5z"/>
	</g>
</g>
</svg>
