<?xml version="1.0" encoding="utf-8"?>
<!-- Generator: Adobe Illustrator 23.0.0, SVG Export Plug-In . SVG Version: 6.00 Build 0)  -->
<svg version="1.1" id="Layer_1" xmlns="http://www.w3.org/2000/svg" xmlns:xlink="http://www.w3.org/1999/xlink" x="0px" y="0px"
	 viewBox="0 0 50 50" enable-background="new 0 0 50 50" xml:space="preserve">
<g>
	<path fill="#647584" d="M36.6,33.6l-5.5-5.5c5.4-6.8,4.9-16.8-1.4-23.1c-6.8-6.8-17.8-6.8-24.6,0c-6.8,6.8-6.8,17.8,0,24.6
		c6.3,6.3,16.2,6.8,23.1,1.4l5.5,5.5c0.6,0.6,1.5,0.6,2,0l0.9-0.9C37.2,35.1,37.2,34.2,36.6,33.6z"/>
	<circle fill="#CFF5FF" cx="17.4" cy="17.4" r="13.9"/>
	<path fill="#BC7E4B" d="M46.3,49.6l3.3-3.3c0.6-0.6,0.6-1.5,0-2L36.2,30.9c-0.6-0.6-1.5-0.6-2,0l-3.3,3.3c-0.6,0.6-0.6,1.5,0,2
		l13.4,13.4C44.8,50.1,45.7,50.1,46.3,49.6z"/>
</g>
</svg>
