<?xml version="1.0" encoding="utf-8"?>
<!-- Generator: Adobe Illustrator 23.0.0, SVG Export Plug-In . SVG Version: 6.00 Build 0)  -->
<svg version="1.1" id="Layer_1" xmlns="http://www.w3.org/2000/svg" xmlns:xlink="http://www.w3.org/1999/xlink" x="0px" y="0px"
	 viewBox="0 0 50 50" enable-background="new 0 0 50 50" xml:space="preserve">
<g>
	<path fill="#F15642" d="M16.7,25c0,2-1.4,3.6-3.2,4.1v-8.1C15.3,21.4,16.7,23,16.7,25z"/>
	<path fill="#41647D" d="M13.4,3.9V46c0,1.5-1.2,2.6-2.6,2.6h-2V1.3h2C12.2,1.3,13.4,2.5,13.4,3.9z"/>
	<g>
		<path fill="#EF7C73" d="M16.2,6.8v2.7c8.6,0,15.5,7,15.5,15.5c0,8.6-7,15.5-15.5,15.5v2.7c10,0,18.2-8.2,18.2-18.2
			C34.4,15,26.3,6.8,16.2,6.8z"/>
		<path fill="#EF7C73" d="M16.2,0v2.7c12.3,0,22.3,10,22.3,22.3c0,12.3-10,22.3-22.3,22.3V50c13.8,0,25-11.2,25-25
			C41.2,11.2,30,0,16.2,0z"/>
		<path fill="#F15642" d="M16.2,13.5v2.7c4.8,0,8.8,3.9,8.8,8.8c0,4.8-3.9,8.8-8.8,8.8v2.7c6.3,0,11.5-5.2,11.5-11.5
			C27.7,18.7,22.5,13.5,16.2,13.5z"/>
	</g>
</g>
</svg>
