<?xml version="1.0" encoding="utf-8"?>
<!-- Generator: Adobe Illustrator 23.0.0, SVG Export Plug-In . SVG Version: 6.00 Build 0)  -->
<svg version="1.1" id="Layer_1" xmlns="http://www.w3.org/2000/svg" xmlns:xlink="http://www.w3.org/1999/xlink" x="0px" y="0px"
	 viewBox="0 0 50 50" enable-background="new 0 0 50 50" xml:space="preserve">
<g>
	<path fill="#37474F" d="M47.2,20.1v4c0,0.5-0.4,0.9-0.9,0.9H24.3c-0.5,0-0.9-0.4-0.9-0.9v-4c0-0.5,0.4-0.9,0.9-0.9h22.1
		C46.9,19.2,47.2,19.6,47.2,20.1z"/>
	<path fill="#37474F" d="M47.2,12.3v4c0,0.5-0.4,0.9-0.9,0.9H24.3c-0.5,0-0.9-0.4-0.9-0.9v-4c0-0.5,0.4-0.9,0.9-0.9h22.1
		C46.9,11.4,47.2,11.8,47.2,12.3z"/>
	<path fill="#37474F" d="M47.2,4.4v4c0,0.5-0.4,0.9-0.9,0.9H24.3c-0.5,0-0.9-0.4-0.9-0.9v-4c0-0.5,0.4-0.9,0.9-0.9h22.1
		C46.9,3.5,47.2,3.9,47.2,4.4z"/>
	<ellipse fill="#FFAE0B" cx="12.6" cy="37.4" rx="12.6" ry="12.6"/>
	<path fill="#2196F3" d="M48.3,0h-26c-0.9,0-1.6,0.8-1.6,1.8v23.8c3.7,2.5,6.2,6.7,6.2,11.6c0,3.5-1.3,6.7-3.4,9.1H50V1.8
		C50,0.8,49.2,0,48.3,0z M35.3,36.8c-1.5,0-2.6-1.2-2.6-2.6c0-1.5,1.2-2.6,2.6-2.6c1.4,0,2.6,1.2,2.6,2.6
		C37.9,35.6,36.8,36.8,35.3,36.8z M47.2,24.1c0,0.5-0.4,0.9-0.9,0.9H24.3c-0.5,0-0.9-0.4-0.9-0.9v-4c0-0.5,0.4-0.9,0.9-0.9h22.1
		c0.5,0,0.9,0.4,0.9,0.9V24.1z M47.2,16.3c0,0.5-0.4,0.9-0.9,0.9H24.3c-0.5,0-0.9-0.4-0.9-0.9v-4c0-0.5,0.4-0.9,0.9-0.9h22.1
		c0.5,0,0.9,0.4,0.9,0.9V16.3z M47.2,8.4c0,0.5-0.4,0.9-0.9,0.9H24.3c-0.5,0-0.9-0.4-0.9-0.9v-4c0-0.5,0.4-0.9,0.9-0.9h22.1
		c0.5,0,0.9,0.4,0.9,0.9V8.4z"/>
	<path fill="#BBDEFB" d="M37.9,34.1c0,1.4-1.2,2.6-2.6,2.6c-1.5,0-2.6-1.2-2.6-2.6c0-1.5,1.2-2.6,2.6-2.6
		C36.8,31.5,37.9,32.7,37.9,34.1z"/>
	<circle fill="#FFD00D" cx="43.9" cy="6.5" r="1.2"/>
	<circle fill="#FFD00D" cx="43.9" cy="14.3" r="1.2"/>
	<circle fill="#FFD00D" cx="43.9" cy="22.1" r="1.2"/>
</g>
</svg>
