<?xml version="1.0" encoding="utf-8"?>
<!-- Generator: Adobe Illustrator 23.0.0, SVG Export Plug-In . SVG Version: 6.00 Build 0)  -->
<svg version="1.1" id="Layer_1" xmlns="http://www.w3.org/2000/svg" xmlns:xlink="http://www.w3.org/1999/xlink" x="0px" y="0px"
	 viewBox="0 0 50 50" enable-background="new 0 0 50 50" xml:space="preserve">
<g>
	<rect x="1.2" y="6.2" fill="#FFFFFF" width="29.9" height="37.8"/>
	<g>
		<rect x="14.4" y="14.5" fill="#CDD6DA" width="13.6" height="2.7"/>
		<path fill="#CDD6DA" d="M24,25.5c0.9-0.9,1.3-1.1,1.3-1.1H14.4v2.7h8.6C23.1,27.1,23.2,26.4,24,25.5z"/>
		<path fill="#CDD6DA" d="M14.4,34.3V37h8.3c0,0-0.4-0.6-0.6-1.4c-0.2-0.8-0.2-1.3-0.2-1.3H14.4z"/>
		<path fill="#5E7CAF" d="M12.1,12.3H5v7.1h7.1V12.3z M10.5,17.9h-4v-4.1h4V17.9z"/>
		<path fill="#5E7CAF" d="M5,39.2h7.1v-7.1H5V39.2z M6.5,33.6h4v4.1h-4V33.6z"/>
		<path fill="#5E7CAF" d="M12.1,22.2H5v7.1h7.1V22.2z M10.5,27.8h-4v-4.1h4V27.8z"/>
		<path fill="#465B65" d="M31.1,42.6v0.2c0,1-0.8,1.5-1.8,1.5H3.7c-1,0-1.8-0.8-1.8-1.8V9.3c0-1,0.8-1.8,1.8-1.8h25.6
			c1,0,1.8,0.8,1.8,1.8v12.2H33V6.9c0-1-0.8-1.8-1.8-1.8H1.8C0.8,5.1,0,5.9,0,6.9v38c0,1,0.8,1.8,1.8,1.8h29.5c1,0,1.8-0.8,1.8-1.8
			v-2.3H31.1z"/>
		<g>
			<path fill="#647584" d="M39.1,25.4c-3.7-3.8-9.8-3.8-13.6,0c-3.7,3.8-3.7,9.9,0,13.6c3.7,3.8,9.8,3.8,13.6,0
				C42.8,35.3,42.8,29.2,39.1,25.4z M37.7,37.7c-3,3-7.8,3-10.8,0c-3-3-3-7.9,0-10.9c3-3,7.8-3,10.8,0
				C40.7,29.8,40.7,34.7,37.7,37.7z"/>
			<ellipse opacity="0.45" fill="#CFF5FF" cx="32.3" cy="32.2" rx="7.7" ry="7.7"/>
			<path fill="#647584" d="M42.6,42.6L42.6,42.6c0.5-0.5,0.5-1.2,0-1.6l-3-3c-0.4-0.4-1.2-0.4-1.6,0l0,0c-0.4,0.4-0.4,1.2,0,1.6l3,3
				C41.5,43,42.2,43,42.6,42.6z"/>
			<path fill="#BC7E4B" d="M48.7,49.6l0.9-0.9c0.6-0.6,0.6-1.5,0-2l-6.5-6.5c-0.6-0.6-1.5-0.6-2,0l-0.9,0.9c-0.6,0.6-0.6,1.5,0,2
				l6.5,6.5C47.2,50.1,48.1,50.1,48.7,49.6z"/>
		</g>
		<path fill="#90A4AE" d="M24.4,3.3H20C19.9,1.4,18.4,0,16.5,0S13.2,1.4,13,3.3H8.6c-1,0-1.8,0.8-1.8,1.8v3.2c0,0.3,0.3,0.6,0.6,0.6
			h18.3c0.3,0,0.6-0.3,0.6-0.6V5.1C26.2,4.1,25.4,3.3,24.4,3.3z M16.5,5c-0.9,0-1.7-0.7-1.7-1.7s0.7-1.7,1.7-1.7
			c0.9,0,1.7,0.7,1.7,1.7S17.4,5,16.5,5z"/>
	</g>
</g>
</svg>
