<?xml version="1.0" encoding="utf-8"?>
<!-- Generator: Adobe Illustrator 23.0.0, SVG Export Plug-In . SVG Version: 6.00 Build 0)  -->
<svg version="1.1" id="Layer_1" xmlns="http://www.w3.org/2000/svg" xmlns:xlink="http://www.w3.org/1999/xlink" x="0px" y="0px"
	 viewBox="0 0 50 50" enable-background="new 0 0 50 50" xml:space="preserve">
<g>
	<path fill="#465B65" d="M40.8,5.4H9.2c-1.1,0-1.9,0.9-1.9,1.9v40.7c0,1.1,0.9,1.9,1.9,1.9h31.7c1.1,0,1.9-0.9,1.9-1.9V7.4
		C42.8,6.3,41.9,5.4,40.8,5.4z M40.7,45.4c0,1.1-0.9,1.9-1.9,1.9H11.3c-1.1,0-1.9-0.9-1.9-1.9V10c0-1.1,0.9-1.9,1.9-1.9h27.5
		c1.1,0,1.9,0.9,1.9,1.9V45.4z"/>
	<path fill="#90A4AE" d="M33.5,3.5h-4.8C28.6,1.5,27,0,25,0s-3.6,1.5-3.7,3.5h-4.8c-1.1,0-2,0.9-2,2v3.4c0,0.4,0.3,0.6,0.6,0.6h19.6
		c0.4,0,0.6-0.3,0.6-0.6V5.5C35.5,4.4,34.6,3.5,33.5,3.5z M25,5.3c-1,0-1.8-0.8-1.8-1.8S24,1.8,25,1.8s1.8,0.8,1.8,1.8
		S26,5.3,25,5.3z"/>
	<rect x="20.8" y="18.2" fill="#CDD6DA" width="13.9" height="1.9"/>
	<rect x="20.8" y="14.1" fill="#CDD6DA" width="16.7" height="1.9"/>
	<rect x="20.8" y="29.2" fill="#CDD6DA" width="13.9" height="1.9"/>
	<rect x="20.8" y="25.1" fill="#CDD6DA" width="16.7" height="1.9"/>
	<rect x="20.8" y="40.2" fill="#CDD6DA" width="13.9" height="1.9"/>
	<rect x="20.8" y="36.1" fill="#CDD6DA" width="16.7" height="1.9"/>
	<path fill="#5E7CAF" d="M12.7,14.1v5.9h5.9v-5.9H12.7z M17.3,18.7h-3.2v-3.2h3.2V18.7z"/>
	<path fill="#5E7CAF" d="M12.7,25.1v5.9h5.9v-5.9H12.7z M17.3,29.7h-3.2v-3.2h3.2V29.7z"/>
	<path fill="#5E7CAF" d="M12.7,36.1v5.9h5.9v-5.9H12.7z M17.3,40.7h-3.2v-3.2h3.2V40.7z"/>
</g>
</svg>
