<svg id="Layer_1" data-name="Layer 1" xmlns="http://www.w3.org/2000/svg" width="128" height="128" viewBox="0 0 128 128"><title>Artboard 89</title><path d="M16,61l-.08-.15a1.46,1.46,0,0,1-.07-.19.59.59,0,0,1,0-.27.66.66,0,0,1,.08-.26,1.85,1.85,0,0,1,.42-.51,5.08,5.08,0,0,1,.43-.38,9.58,9.58,0,0,1,.92-.65c.31-.2.62-.4.94-.58a2.85,2.85,0,0,0,.42-.26.78.78,0,0,0,.21-.37,3.91,3.91,0,0,1,.4-1.06,4.14,4.14,0,0,1,.51-.66,1.21,1.21,0,0,1-.16-.16l-.11,0-.33.14-.67.31-1.31.63c-.87.43-1.73.88-2.57,1.34a14.34,14.34,0,0,0-2.38,1.55,11.8,11.8,0,0,0-1,1c-.31.36-.61.73-.89,1.11a9.86,9.86,0,0,0-.76,1.18A2.76,2.76,0,0,0,9.54,64a.36.36,0,0,0,0,.11s0,0,0,0a.2.2,0,0,0,.1,0,2,2,0,0,0,.63,0,9.82,9.82,0,0,0,1.36-.37c.92-.3,1.81-.66,2.7-1,.44-.19.89-.39,1.32-.61l.65-.32.26-.14a2.11,2.11,0,0,1-.23-.19A2.92,2.92,0,0,1,16,61Z"/><path d="M36.31,60.38a4.1,4.1,0,0,1-.77-.18,1.33,1.33,0,0,1-.62-.4,5.82,5.82,0,0,1-1.48.36,14.17,14.17,0,0,1-3.19-.08c-.27,0-.53-.08-.79-.13l-.41-.1-1.71,1.26c-.81.56-1.62,1.12-2.48,1.63a9.6,9.6,0,0,1-2.84,1A10.64,10.64,0,0,1,19,64a1.4,1.4,0,0,1-.41-.11,1.17,1.17,0,0,1-.26-.17c-.48.65-1,1.28-1.42,1.93a8.63,8.63,0,0,0,2.2-.24,21.76,21.76,0,0,0,2.45-.78c.8-.31,1.6-.65,2.4-1l2.38-1.07.08,0h.09c.94,0,1.89,0,2.84,0,.47,0,.94,0,1.41-.07a13.43,13.43,0,0,0,1.41-.13,11,11,0,0,0,2.72-.66,10.58,10.58,0,0,0,2.21-1.26Z"/><path d="M21.16,55.54a4,4,0,0,0,1.4-.3,13.07,13.07,0,0,0,1.36-.66c.89-.49,1.73-1.08,2.58-1.66s1.71-1.16,2.6-1.69a15.05,15.05,0,0,1,1.37-.76,6.52,6.52,0,0,1,.73-.29l.72-.25a16.75,16.75,0,0,0,2.72-1.42c.65-.4,1.28-.84,1.89-1.3a2,2,0,0,1,.46-.68,2.45,2.45,0,0,0-.2.48l.36-.28c.47-.37.93-.75,1.38-1.15-.73.36-1.48.7-2.25,1a8.12,8.12,0,0,1-1.91.52,1.66,1.66,0,0,1-1.16-.23.86.86,0,0,1-.14-.13.48.48,0,0,1-.14-.25A.66.66,0,0,1,33,46a1.7,1.7,0,0,1,.35-.48,10,10,0,0,1,1.55-1.19c.53-.36,1.07-.69,1.61-1,1.07-.66,2.16-1.29,3.22-2,.36-.21.71-.44,1-.67-1.81.8-3.6,1.58-5.38,2.41-.93.44-1.86.88-2.75,1.36a14.65,14.65,0,0,0-1.29.77l-.29.21-.3.25-.62.48c-1.66,1.25-3.34,2.44-5,3.64l-2.52,1.77a8,8,0,0,0-2.12,2.07,2.83,2.83,0,0,0-.28.62,1.25,1.25,0,0,0,0,.61A.94.94,0,0,0,21.16,55.54Z"/><path d="M53.69,66.19l-.29-.06,0,0,0,.08-.22.37c-.15.26-.29.52-.43.78-.44.85-.85,1.71-1.29,2.56-.3.57-.59,1.15-.84,1.74l-.2.48,0,0a7.56,7.56,0,0,0-1,1,5.84,5.84,0,0,0-.77,1.2c-.05.11-.09.22-.13.33l-.11.34-.15.71-.31,1.44v0h0L40.57,94.78a.81.81,0,0,1-1,.45l-2.38-.85a.52.52,0,0,0-.64.25l-.67,1.6,5.4,1,4.24,2.53a2.93,2.93,0,0,0,1.47.38h2.47a1.79,1.79,0,0,0-.4-1.23c-.45-.46-3-.46-3-.46L42.79,96.1a.67.67,0,0,1-.22-.8l3.51-8.67,3.64-8.91h0c.23-.41.48-.81.74-1.2a13.7,13.7,0,0,1,.83-1.13,5.91,5.91,0,0,0,.62-1.2,9.94,9.94,0,0,0,.41-1.31v0h0l1.58-3.31.79-1.65.4-.82.2-.42,0-.12-1.09-.21Z"/><path d="M56,60.13c-.48,0-1,0-1.43-.06a7.42,7.42,0,0,1-.08,2.35,10.48,10.48,0,0,1-.9,2.24,4.56,4.56,0,0,0-.18.52s0,.06,0,.08,0,0,0,0a.21.21,0,0,0,0,.06l.07,0,.29,0,.58.11q.59.09,1.17.21l.51.1a.12.12,0,0,0,.12-.07c.12-.58.27-1.13.44-1.68a14.37,14.37,0,0,1,.62-1.7,9.81,9.81,0,0,1,.85-1.6,5.1,5.1,0,0,1,.86-1c-.3.07-.6.12-.89.17A15.94,15.94,0,0,1,56,60.13Z"/><path d="M76.1,66.68l.83-.25.19-.06,0,0a.15.15,0,0,0,0-.09c-.19-.81-.33-1.61-.45-2.43a17.74,17.74,0,0,1-.2-2.53c0-.85,0-1.67.09-2.5,0-.63.06-1.25.1-1.88l-.16.07c-.75.3-1.5.59-2.27.85a20.23,20.23,0,0,1-2.34.66,8.46,8.46,0,0,1-.86.12A16.49,16.49,0,0,1,72.46,61a27.49,27.49,0,0,1,1.27,3.26c.17.56.34,1.13.49,1.69.07.28.15.57.21.85l0,.22a.2.2,0,0,0,0,.07.12.12,0,0,0,.1,0h.05l.21-.06.42-.13Z"/><path d="M68.46,37.35a3.1,3.1,0,0,0-.22.95.46.46,0,0,0,.1.34c0,.06.15.08.3.09a3.35,3.35,0,0,0,.93-.1,13.07,13.07,0,0,0,1.9-.6c.31-.12.62-.25.91-.39a3.07,3.07,0,0,0,.77-.46l.16-.13.19,0a2.13,2.13,0,0,0,.83,0,5.92,5.92,0,0,0,.88-.27,5.59,5.59,0,0,0,.87-.38,5.77,5.77,0,0,0,.81-.48l.11-.08.09,0a1.69,1.69,0,0,0,.39-.06l.46-.14c.31-.11.61-.23.91-.36.57-.24,1.12-.51,1.67-.79a11.61,11.61,0,0,1,1.36-.81,15.44,15.44,0,0,1,2.17-.84,7.33,7.33,0,0,1,2.33-.37,3.21,3.21,0,0,1,.61.09l.11,0c-.42-.33-.85-.65-1.28-.95a12,12,0,0,0-1.28-.76l-.33-.16-.16-.07-.15-.05a6.52,6.52,0,0,0-.69-.13,14.29,14.29,0,0,0-1.48-.12c-.5,0-1,0-1.51-.06-1,0-2,0-3,0a53.59,53.59,0,0,0-6.06.6,29.52,29.52,0,0,0-3,.62,12.32,12.32,0,0,0-2.5.93,17.24,17.24,0,0,0-1.17,1.27,18.81,18.81,0,0,0-1.28,1.73,4.72,4.72,0,0,0-.46.89.7.7,0,0,0-.07.32h0s.18.19.27.3a9.55,9.55,0,0,0,.71.79,1.13,1.13,0,0,0,.51.26l.31-.18.07,0h.06a5.92,5.92,0,0,0,1.32-.29c.44-.15.88-.33,1.32-.51.88-.36,1.72-.8,2.59-1.21-.33.22-.66.44-1,.65A9.19,9.19,0,0,0,68.46,37.35Z"/><path d="M19.62,61.56l.49-.13.47-.18a5.59,5.59,0,0,0,.85-.55,9.74,9.74,0,0,0,1.5-1.51,17.24,17.24,0,0,0,1.3-1.75,10.69,10.69,0,0,1-1,2,8.78,8.78,0,0,1-1.42,1.75,5.06,5.06,0,0,1-.94.69l-.54.24-.55.18a4,4,0,0,1-1.95,0,1,1,0,0,0,.16.64,1.83,1.83,0,0,0,.47.49,1.18,1.18,0,0,0,.29.16l.3,0a8.75,8.75,0,0,0,1.42-.14c.47-.09.94-.18,1.4-.31a9.89,9.89,0,0,0,2.62-1.07c.81-.5,1.61-1.06,2.4-1.63,1.6-1.12,3.14-2.32,4.84-3.35s3.37-2,5.09-2.93c-1.55,1.2-3.15,2.33-4.77,3.45-.8.54-1.57,1.12-2.35,1.71l-.42.31.21,0,.78.11c.52.05,1,.08,1.57.09a13.55,13.55,0,0,0,1.56-.05,5.89,5.89,0,0,0,1.51-.32l.09,0,.06.09a1,1,0,0,0,.55.35,3.6,3.6,0,0,0,.73.13,9.27,9.27,0,0,0,1.49,0,10.71,10.71,0,0,0,1.49-.22,5.91,5.91,0,0,0,1.4-.47l.16-.07.11.14a1.1,1.1,0,0,0,.5.29,3.76,3.76,0,0,0,.67.12,7.28,7.28,0,0,0,1.4,0,11,11,0,0,0,1.4-.19,7.23,7.23,0,0,0,1.32-.41l.18-.08.14.15a3.08,3.08,0,0,0,1.1.61,4.34,4.34,0,0,0,1.29.25,4,4,0,0,0,1.29-.14,3.92,3.92,0,0,0,1.17-.55l.06,0,.08,0c.7-.12,1.43-.32,2.14-.51s1.43-.41,2.14-.63,1.42-.46,2.11-.71c.35-.13.69-.26,1-.41a5.15,5.15,0,0,0,.91-.47l.12-.08h.13a15.72,15.72,0,0,0,1.68,0c.57,0,1.13-.06,1.69-.12a15.67,15.67,0,0,0,1.67-.26,4.76,4.76,0,0,0,1.49-.51l.35-.21.18.34a.77.77,0,0,0,.32.19,4.44,4.44,0,0,0,.55.12,7,7,0,0,0,1.22,0,11.3,11.3,0,0,0,2.44-.4,11.17,11.17,0,0,0,2.32-.91c.52-.25,1-.52,1.52-.8a6.51,6.51,0,0,1-1.25,0,5.88,5.88,0,0,1-1.43-.36,2.35,2.35,0,0,1-.9.79,4.21,4.21,0,0,1-1.28.39,4.63,4.63,0,0,1-1.34,0,2.15,2.15,0,0,1-1.23-.56.45.45,0,0,1-.14.1,2.88,2.88,0,0,1-.63.32,6,6,0,0,1-1.3.31,8.59,8.59,0,0,1-2.48,0,6.22,6.22,0,0,1-2.09.9,2.91,2.91,0,0,1-1.28,0,2.18,2.18,0,0,1-1-.45,5.52,5.52,0,0,1-1.88.65,2.47,2.47,0,0,1-1.2-.14,2.71,2.71,0,0,1-.82-.49,5.66,5.66,0,0,1-2.25.71,3.19,3.19,0,0,1-1.33-.16,2.49,2.49,0,0,1-1-.67,6.69,6.69,0,0,1-1.21.3,6.55,6.55,0,0,1-1.4.09,5,5,0,0,1-1.38-.22,3.33,3.33,0,0,1-1.17-.63,4,4,0,0,1-1.36.4,2,2,0,0,1-.77-.06.87.87,0,0,1-.37-.21.44.44,0,0,1-.08-.11l-.44.36a3,3,0,0,1-.81.46,3.68,3.68,0,0,1-1.79.12,4.44,4.44,0,0,1-.86-.15,1.37,1.37,0,0,1-.45-.23.52.52,0,0,1-.11-.1,1.09,1.09,0,0,1-.08-.15.94.94,0,0,1,0-.16.77.77,0,0,1,0-.15,1,1,0,0,1,.23-.43,1.93,1.93,0,0,1,.27-.3,3.17,3.17,0,0,1-1.08-.15,5.17,5.17,0,0,1-1.09-.51l-.25-.17a1.15,1.15,0,0,1-.27-.27,1,1,0,0,1-.21-.74,1.87,1.87,0,0,1,.61-1.11,4.71,4.71,0,0,1,.92-.69c-.22.32-.45.61-.63.92a1.74,1.74,0,0,0-.31.9c0,.26.16.36.5.53a6.1,6.1,0,0,0,1,.4,2.69,2.69,0,0,0,.94.16,1.08,1.08,0,0,0,.41-.1l.49-.24c.66-.34,1.32-.68,2-1a12,12,0,0,1-1.71,1.48,5.78,5.78,0,0,1-.48.33,2,2,0,0,1-.53.19l-.11.15a1.48,1.48,0,0,0-.31.67c0,.1,0,.11.1.16a1,1,0,0,0,.31.09,6.39,6.39,0,0,0,.78,0,3.64,3.64,0,0,0,1.48-.2,4.58,4.58,0,0,0,1.21-.91c.36-.36.72-.79,1.07-1.21l1.06-1.27c.72-.85,1.44-1.69,2.22-2.5a27.58,27.58,0,0,1-1.74,2.86,20,20,0,0,1-2.08,2.67l0,0,.09.09a.64.64,0,0,0,.26.13,2.12,2.12,0,0,0,.67,0,3.16,3.16,0,0,0,1.34-.37l.07,0h0c.6-.53,1.18-1.06,1.76-1.6s1.35-1.26,2-1.9,1.31-1.29,2-1.94c.32-.33.64-.66,1-1a6.58,6.58,0,0,0,.85-1.1,4,4,0,0,1-.55,1.32,11.52,11.52,0,0,1-.8,1.17A18.78,18.78,0,0,1,50,51.69a20.5,20.5,0,0,1-2.16,1.81,12.33,12.33,0,0,1-2,1.23,3.9,3.9,0,0,0,2.42.71A6.89,6.89,0,0,0,50.59,55c.56-.4,1.12-.8,1.65-1.21s1.19-1,1.75-1.47,1.12-1,1.67-1.58,1.08-1.1,1.65-1.65a10.28,10.28,0,0,1-1.2,2.05,12.11,12.11,0,0,1-1.61,1.75,10.82,10.82,0,0,1-1.93,1.4A7.84,7.84,0,0,1,51,55h0a2.29,2.29,0,0,0,2.05.67,5.48,5.48,0,0,0,2.18-.83l.14-.09c.33-.28.67-.54,1-.8s.93-.74,1.38-1.12.86-.78,1.28-1.2.83-.88,1.3-1.29A7.4,7.4,0,0,1,59.54,52a6.47,6.47,0,0,1-1.25,1.42,7.6,7.6,0,0,1-1.55,1,8,8,0,0,1-1,.45,2.09,2.09,0,0,0,.75.45,2.2,2.2,0,0,0,.89.08,5.58,5.58,0,0,0,1.82-.72l.25-.13,0,0c.24-.21.48-.41.73-.59.45-.35.92-.68,1.37-1s.88-.65,1.3-1,.82-.77,1.28-1.16a5.29,5.29,0,0,1-.84,1.57A6.26,6.26,0,0,1,62,53.6a11.49,11.49,0,0,1-1.51.89l-.76.34a1.55,1.55,0,0,0,.71.36,2.5,2.5,0,0,0,1,0,5.91,5.91,0,0,0,2-.84l.12-.07h0l.49-.34c.44-.31.86-.64,1.28-1s.82-.68,1.22-1,.81-.74,1.25-1.11A5.53,5.53,0,0,1,67,52.3a6.65,6.65,0,0,1-1.19,1.24,6,6,0,0,1-1.34.84,8.55,8.55,0,0,0,1.6,0,5.57,5.57,0,0,0,1.16-.25,2.54,2.54,0,0,0,.5-.23l.2-.15a.36.36,0,0,1,.2-.13.46.46,0,0,1,.31,0h0a14.44,14.44,0,0,1,2.25-1.8,10.3,10.3,0,0,0,1.15-.92c.38-.33.74-.71,1.16-1a5,5,0,0,1-.71,1.45,4.53,4.53,0,0,1-1.16,1.15,8.92,8.92,0,0,1-1.37.78,9.83,9.83,0,0,1-1.21.48h0a.15.15,0,0,1,0,.06h0l0,0a1.54,1.54,0,0,0,.91.45,3.82,3.82,0,0,0,1.17,0,3.61,3.61,0,0,0,1.14-.29,1.71,1.71,0,0,0,.84-.72l.09-.19.18.09.18.08c.27-.21.54-.4.81-.59.44-.31.87-.61,1.26-.93a7.29,7.29,0,0,0,1.08-1.07,13,13,0,0,0,.89-1.34,3.59,3.59,0,0,1-.39,1.66,4.05,4.05,0,0,1-1.09,1.34,5.72,5.72,0,0,1-1.46.86c-.21.1-.43.17-.65.25a6.59,6.59,0,0,0,.85.21,6.33,6.33,0,0,0,1.57.13h.11l.24-.13a23.32,23.32,0,0,0,4.12-2.94,6.36,6.36,0,0,0,.81-.92l.36-.53c.12-.18.26-.35.4-.53a17.83,17.83,0,0,1,1.79-1.89c.63-.59,1.28-1.15,1.88-1.74a6.17,6.17,0,0,0,.43-.46,2,2,0,0,0,.17-.23l.16-.27c.22-.37.43-.74.63-1.12a18.48,18.48,0,0,0,1.06-2.31,6.65,6.65,0,0,0,.32-1.22,2.44,2.44,0,0,0,0-.6,1.8,1.8,0,0,0-.18-.57,7,7,0,0,0-1.56-2,5.44,5.44,0,0,0-2.16-1.26,1.54,1.54,0,0,0-.6,0l-.65.08c-.42,0-.85.08-1.28.09s-.86,0-1.29,0l-.64,0a2.7,2.7,0,0,1-.41-.07l-.7.46c-.29.17-.58.33-.89.49-.15.07-.31.14-.48.2a2.06,2.06,0,0,1-.46.12,6.52,6.52,0,0,1-.78.55,8,8,0,0,1-.93.46,4.19,4.19,0,0,1-1,.33,3,3,0,0,1-1,.06,2.25,2.25,0,0,1-.35.22l-.48.25c-.33.14-.65.28-1,.39a11,11,0,0,1-2,.5,3.74,3.74,0,0,1-1.11,0,.87.87,0,0,1-.59-.33.91.91,0,0,1-.12-.64,3.14,3.14,0,0,1,.4-1,8,8,0,0,1,.51-.74l-.16.1c-.41.25-.82.5-1.24.72a12.05,12.05,0,0,1-1.3.64,6,6,0,0,1-1.36.4,6.91,6.91,0,0,1-3,1.11,6.15,6.15,0,0,1-1.66,0,6.82,6.82,0,0,1-1.45-.41c-.56.16-1.11.39-1.73.56a3.67,3.67,0,0,1-1.06.15A3,3,0,0,1,55,39.6a5.77,5.77,0,0,1-2.41,1.52,4.72,4.72,0,0,1-1.53.29,5.64,5.64,0,0,1-1.42-.12,3.63,3.63,0,0,1-1.12.58,5.53,5.53,0,0,1-1.33.28,4.69,4.69,0,0,1-2.35-.34c-.59.43-1.19.86-1.79,1.27s-1.05.71-1.6,1c-.28.17-.55.32-.86.47l-.84.41-1.07.52c-.62.59-1.26,1.15-1.92,1.69a2.33,2.33,0,0,0,0,.91,2.29,2.29,0,0,0,.64,1.36l.14.11.15.09a3,3,0,0,0,.33.12,2.62,2.62,0,0,0,.73.13,1.33,1.33,0,0,0,.62-.22c.12-.07.24-.14.35-.22l.19-.11.15-.1c.42-.31.85-.7,1.27-1.06l1.29-1.12c.86-.75,1.73-1.48,2.64-2.18A29.23,29.23,0,0,1,43,47.53a21.28,21.28,0,0,1-2.53,2.38l-.2.13-.19.11-.38.22a1.88,1.88,0,0,1-1,.28,3,3,0,0,1-.94-.21,2.17,2.17,0,0,1-.44-.21l-.21-.15-.18-.18a2.58,2.58,0,0,1-.6-1.75,2.18,2.18,0,0,1,.13-.72c-.56.44-1.13.86-1.71,1.25A18,18,0,0,1,32,50.18c-.24.11-.49.19-.73.28a6.23,6.23,0,0,0-.69.3,14.73,14.73,0,0,0-1.32.78c-.86.56-1.7,1.14-2.55,1.73s-1.68,1.2-2.59,1.72a11.62,11.62,0,0,1-1.41.71,4.16,4.16,0,0,1-1.59.36,2.28,2.28,0,0,1-.45,0,1.79,1.79,0,0,1-.42-.2.67.67,0,0,1-.14-.09,4.79,4.79,0,0,0-.35.72,3.86,3.86,0,0,0-.24,1,1.19,1.19,0,0,1-.25.6,2.79,2.79,0,0,1-.47.37c-.29.22-.59.43-.87.65l-.83.68a3.15,3.15,0,0,0-.37.36,1.31,1.31,0,0,0-.26.33h0l0,.07,0,.08a1.59,1.59,0,0,0,.3.34,2.45,2.45,0,0,0,.81.48A3.24,3.24,0,0,0,19.62,61.56Z"/><path d="M92.09,97.66a.46.46,0,0,1-.4-.23l-5.24-9c-1.85-3.22-3.69-6.46-5.52-9.69v-.06a11.43,11.43,0,0,0-.36-1.74A8.29,8.29,0,0,0,79.16,74l0,0v0L78,70.45c-.19-.59-.36-1.18-.54-1.77l-.25-.89-.12-.45a1,1,0,0,1,0-.17l-.76.24-.83.26-.29.09a1.83,1.83,0,0,1,.14.32c.1.24.19.49.28.74.15.42.29.85.41,1.29a11.1,11.1,0,0,1,.49,3.1,5,5,0,0,1-.1.78c-.05.23-.1.47-.13.72a4.57,4.57,0,0,0,0,1.43,3.23,3.23,0,0,0,.53,1.3,5.12,5.12,0,0,0,1,1l0,0h0c1.07,1.63,2.1,3.27,3.14,4.91s2.07,3.28,3.1,4.93l5.59,8.92a.48.48,0,0,1-.36.73l-3,.27a.56.56,0,0,0-.49.71l.22.76,7.1-.49,6.79.32-.24-1.07A.78.78,0,0,0,99,97.9Z"/><path d="M98.75,13.86c-.31-.18-.61-.37-.91-.57a9.72,9.72,0,0,1-1-.78,4.39,4.39,0,0,1-.86-1A5.46,5.46,0,0,1,95.14,9V8.9l.12,0c.34-.11.69-.19,1-.27l1-.2a7.6,7.6,0,0,1,2-.06,1.22,1.22,0,0,1,2.22-.09.85.85,0,0,1,.26-.05,1.73,1.73,0,0,1,.45.05l.88.09h0l-.52-1c-.15-.28-.29-.57-.45-.84a8.72,8.72,0,0,0-3-2.84,7.73,7.73,0,0,0-2.25-.83,3.83,3.83,0,0,0-.59-.1,3.79,3.79,0,0,0-.58-.05,5.22,5.22,0,0,0-1.18.09,10.45,10.45,0,0,0-4.31,2,8.17,8.17,0,0,0-1.67,1.65,2.94,2.94,0,0,0-.47,1,2,2,0,0,0,0,.24v.12s0,.09,0,.14,0,.39.06.59a20.7,20.7,0,0,0,1.35,4.66,15.67,15.67,0,0,0,2.47,4.15c.52.61,1.11,1.23,1.6,1.92a5.78,5.78,0,0,1,.65,1.11,1.88,1.88,0,0,1,.15.68,1.05,1.05,0,0,1-.21.7,2.66,2.66,0,0,1-1.09.72,9,9,0,0,1-1.15.49,5.77,5.77,0,0,1-2.37.14l-5.61.12c-1.11,0-2.24.07-3.34.19a11.44,11.44,0,0,0-3.13,1.05c-1,.46-2,1-3.09,1.35a21.42,21.42,0,0,1-3.29.83c-1.11.2-2.22.36-3.32.55-.56.09-1.11.18-1.64.3s-1,.31-1.58.49c-2.09.74-4.17,1.57-6.23,2.44s-4.1,1.8-6,2.87c-.48.27-1,.54-1.41.85s-.92.65-1.38,1c-.93.64-1.88,1.25-2.83,1.85l-2.83,1.8-1.4.92s0,0,0,0a8.79,8.79,0,0,1-1,1c-.48.41-1,.8-1.49,1.17-1,.75-2.07,1.45-3.11,2.14l-1.55,1.07A8.86,8.86,0,0,0,33.86,46a1.5,1.5,0,0,0-.19.25,1.06,1.06,0,0,0,.63.07A7.63,7.63,0,0,0,36,45.87c1.15-.44,2.27-1,3.41-1.53l.87-.39c.27-.12.54-.27.81-.41.54-.31,1.07-.63,1.6-1,2.13-1.32,4.2-2.75,6.38-4l-3,2.3c-.4.31-.81.61-1.23.92a4.72,4.72,0,0,0,2.27.07,6.26,6.26,0,0,0,1.23-.37,3.24,3.24,0,0,0,1-.64l.06-.06a5.34,5.34,0,0,1,.49-1.24,8,8,0,0,1,1-1.44,7,7,0,0,1,1.31-1.18,4.49,4.49,0,0,1,1.59-.76c-.42.41-.82.81-1.2,1.21s-.75.82-1.12,1.24-.73.83-1.08,1.26l-.72.89a5.25,5.25,0,0,0,1.31.05,4.75,4.75,0,0,0,1.35-.32,5.37,5.37,0,0,0,1.23-.65,6,6,0,0,0,1-.91l.18-.21.07,0a5.26,5.26,0,0,1,1-1.94,8.93,8.93,0,0,1,1.74-1.68,10.65,10.65,0,0,1,2.06-1.22,7.06,7.06,0,0,1,2.28-.68c-.7.38-1.35.79-2,1.2s-1.27.86-1.88,1.32a17.67,17.67,0,0,0-1.75,1.47,10.16,10.16,0,0,0-1.35,1.56l.09,0a2.25,2.25,0,0,0,.8.17,2.83,2.83,0,0,0,.85-.13c.59-.17,1.21-.41,1.85-.58l.13,0h0a1.49,1.49,0,0,1,.09-.3,1.73,1.73,0,0,1,.39-.55,1.57,1.57,0,0,1,.59-.36,1.3,1.3,0,0,1,.71,0,3.27,3.27,0,0,1-.38.55l-.39.41c-.14.12-.28.25-.44.37l-.15.09a6.05,6.05,0,0,0,2.56.38,6.47,6.47,0,0,0,2.14-.57,1.23,1.23,0,0,1-.34-.11,4.56,4.56,0,0,1-.93-.68l-.21-.16A.78.78,0,0,1,62,37a1.25,1.25,0,0,1,0-.77,4.07,4.07,0,0,1,.52-1.09,7.92,7.92,0,0,1,1.49-1.72A5.33,5.33,0,0,1,66,32.2l0,0a13.8,13.8,0,0,1,2.12-.85,28.22,28.22,0,0,1,3-.78,52.14,52.14,0,0,1,6.09-.84c1-.08,2-.14,3.08-.17a18,18,0,0,1,3.1.18,5,5,0,0,1,.81.19l.21.08.18.1a3.9,3.9,0,0,1,.35.19,10,10,0,0,1,1.28.93,14.72,14.72,0,0,1,1.79,1.83l.61.4a9.24,9.24,0,0,1,1.77,1.59,4.74,4.74,0,0,1,1.07,2.19,7.18,7.18,0,0,1-.1,2.41,18,18,0,0,1-.58,2.3,27.78,27.78,0,0,1-1.8,4.34,15.81,15.81,0,0,1-1.4,2.24,9.32,9.32,0,0,0,1.75-.23,12.59,12.59,0,0,0,2.66-1A17.33,17.33,0,0,0,94.35,46a10.12,10.12,0,0,0,2.07-1.81l0,0,0,0a12,12,0,0,0,1.64-1.35,15.32,15.32,0,0,0,1.38-1.62c.86-1.15,1.64-2.37,2.4-3.6a16.77,16.77,0,0,0,1.89-3.82,13.74,13.74,0,0,0,.67-4.18,21.4,21.4,0,0,0-1.77-8.36C101.56,18.64,100.1,16.28,98.75,13.86Z"/><path d="M101.82,8.58l-.13,0a1.09,1.09,0,0,1,0,.26,1.24,1.24,0,1,1-2.47,0,1.32,1.32,0,0,1,.09-.48,8.83,8.83,0,0,0-2,.21c-.65.15-1.28.34-1.91.55a4.92,4.92,0,0,0,.83,2.16,6.16,6.16,0,0,0,1.83,1.6c.7.44,1.43.84,2.18,1.23.55.29,1.12.56,1.69.82-.14-.42-.28-.83-.44-1.23-.24-.6-.5-1.21-.79-1.77l-.26-.5.54.11a10.87,10.87,0,0,0,1.12.18,3.8,3.8,0,0,0,1.07,0,1.93,1.93,0,0,0,.83-.61,2.45,2.45,0,0,0,.3-.44.87.87,0,0,0,.1-.41,3.71,3.71,0,0,1-.72-.88c-.2-.31-.38-.64-.55-1a5.49,5.49,0,0,1-.9.17A1.5,1.5,0,0,1,101.82,8.58Z"/><path d="M114.47,23c-1.42-1.32-2.88-2.61-4.39-3.84s-3-2.46-4.54-3.67c-1.35-1.07-2.71-2.12-4-3.24.2.4.38.81.55,1.23a18.33,18.33,0,0,1,.65,1.89l.15.51c1,.67,2.07,1.35,3.09,2q2.13,1.44,4.23,2.92c1.4,1,2.74,2.05,4.14,3,1.09.79,2.19,1.57,3.29,2.34C116.64,25.08,115.56,24,114.47,23Z"/><path d="M118,26.46a3.83,3.83,0,0,0-.22-.62,9,9,0,0,0-.62-1.19,21.72,21.72,0,0,0-1.61-2.23c-1.16-1.45-2.4-2.83-3.65-4.19-.62-.69-1.27-1.34-1.92-2s-1.26-1.38-1.87-2.08c-1.1-1.28-2.2-2.56-3.32-3.82a1.22,1.22,0,0,1-.11.49,2.44,2.44,0,0,1-.33.54,2.25,2.25,0,0,1-1,.79,3.61,3.61,0,0,1-1.25.08l-.64-.07,1.93,1.3c.8.56,1.6,1.12,2.39,1.69q2.39,1.71,4.65,3.59a57.83,57.83,0,0,1,4.34,4A27.25,27.25,0,0,1,118,26.46l.07,0A.06.06,0,0,1,118,26.46Z"/><path d="M12.61,124.38l-2.44,0-1-3.07-4.46,0-.89,3.09-2.39,0,4.18-13.65,2.39,0ZM8.4,119.05l-1.6-5-1.45,5.06Z"/><path d="M13.82,110.76l4.46-.05a7.22,7.22,0,0,1,2.58.3,2.88,2.88,0,0,1,1.27,1.17,3.69,3.69,0,0,1,.53,1.9,3.52,3.52,0,0,1-.42,1.78,2.81,2.81,0,0,1-1.12,1.19,3,3,0,0,1,1.57,1.19,3.68,3.68,0,0,1,.58,2.07,4.36,4.36,0,0,1-.68,2.52,2.89,2.89,0,0,1-1.68,1.28,16.92,16.92,0,0,1-3.14.21l-3.79,0ZM16.09,113l0,3.14h1.49c.89,0,1.44,0,1.65-.07a1.39,1.39,0,0,0,.89-.5,1.61,1.61,0,0,0,.32-1.07,1.72,1.72,0,0,0-.28-1,1.09,1.09,0,0,0-.65-.46,13.8,13.8,0,0,0-2.15-.07Zm.06,5.41,0,3.62,2.09,0a7,7,0,0,0,1.77-.16,1.33,1.33,0,0,0,.65-.58A2,2,0,0,0,21,120.2a1.85,1.85,0,0,0-.3-1.09,1.37,1.37,0,0,0-.76-.58,6.93,6.93,0,0,0-1.92-.14Z"/><path d="M25.24,110.63l4.11,0a6.07,6.07,0,0,1,2.35.32,3.93,3.93,0,0,1,1.47,1.16,5.91,5.91,0,0,1,1.07,2.13,11.5,11.5,0,0,1,.42,3.27,10.19,10.19,0,0,1-.36,3.07,6,6,0,0,1-1,2.07,3.93,3.93,0,0,1-1.46,1.17,5.57,5.57,0,0,1-2.22.41l-4.23,0Zm2.27,2.27.11,9,1.69,0a4.48,4.48,0,0,0,1.57-.22,1.94,1.94,0,0,0,.79-.63,3.53,3.53,0,0,0,.5-1.31,11.54,11.54,0,0,0,.17-2.34,11,11,0,0,0-.23-2.38,3.2,3.2,0,0,0-.67-1.37,2.08,2.08,0,0,0-1.08-.64,8.73,8.73,0,0,0-1.83-.1Z"/><path d="M36.78,124.09l-.16-13.6,2.24,0,.16,13.6Z"/><path d="M41.34,124l-.16-13.6,3.36,0,2.14,9.26,1.9-9.31,3.39,0,.16,13.6-2.1,0-.13-10.72L47.81,124l-2.17,0L43.31,113.3,43.43,124Z"/><path d="M54.29,110.28l2.13,0,0,1.87a5.62,5.62,0,0,1-.34,2.36,2.91,2.91,0,0,1-1.5,1.43l-.43-1.08a1.8,1.8,0,0,0,.9-.72,2.5,2.5,0,0,0,.28-1.24h-1Z"/><path d="M58.44,119.4l2.19-.28q.4,2.59,2.46,2.58a2.3,2.3,0,0,0,1.6-.56,1.69,1.69,0,0,0,.57-1.33,1.4,1.4,0,0,0-.21-.78,1.52,1.52,0,0,0-.63-.53,18.29,18.29,0,0,0-2-.67,7.05,7.05,0,0,1-2.12-.92,3.65,3.65,0,0,1-1.08-1.33,4.26,4.26,0,0,1-.41-1.78,4,4,0,0,1,.48-2,3.35,3.35,0,0,1,1.38-1.36,4.8,4.8,0,0,1,2.2-.48A3.86,3.86,0,0,1,67.12,114l-2.25.15a2.42,2.42,0,0,0-.66-1.52,2,2,0,0,0-1.4-.42,2.24,2.24,0,0,0-1.4.39,1.13,1.13,0,0,0-.48.95,1.17,1.17,0,0,0,.46.93,6.22,6.22,0,0,0,2.06.81,8.22,8.22,0,0,1,2.46,1,3.41,3.41,0,0,1,1.17,1.38,4.81,4.81,0,0,1,.43,2.08,4.28,4.28,0,0,1-1.06,3A4.4,4.4,0,0,1,63.06,124Q59,124.07,58.44,119.4Z"/><path d="M73.54,119.22l2.2-.28q.39,2.59,2.46,2.58a2.27,2.27,0,0,0,1.59-.55,1.7,1.7,0,0,0,.57-1.33,1.43,1.43,0,0,0-.21-.79,1.59,1.59,0,0,0-.63-.53,17.54,17.54,0,0,0-2-.67,7.05,7.05,0,0,1-2.12-.92,3.64,3.64,0,0,1-1.07-1.33,4.12,4.12,0,0,1-.42-1.78,4,4,0,0,1,.48-2,3.35,3.35,0,0,1,1.38-1.36,4.8,4.8,0,0,1,2.2-.48,3.86,3.86,0,0,1,4.28,4.07L80,114a2.42,2.42,0,0,0-.66-1.52,2,2,0,0,0-1.4-.42,2.26,2.26,0,0,0-1.4.39,1.19,1.19,0,0,0-.48,1,1.2,1.2,0,0,0,.46.93,6.32,6.32,0,0,0,2.06.81,8.37,8.37,0,0,1,2.46,1,3.41,3.41,0,0,1,1.17,1.38,4.81,4.81,0,0,1,.43,2.08,4.28,4.28,0,0,1-1.06,3,4.38,4.38,0,0,1-3.39,1.25Q74.05,123.89,73.54,119.22Z"/><path d="M87.25,123.5l-.13-11.3-3.31,0,0-2.3,8.86-.11,0,2.3-3.31,0,.14,11.3Z"/><path d="M93.64,116.7a9.77,9.77,0,0,1,.67-4,5.48,5.48,0,0,1,1.85-2.36,5,5,0,0,1,2.81-.8,4.81,4.81,0,0,1,3.92,1.78,8,8,0,0,1,1.57,5.18,8.17,8.17,0,0,1-1.53,5.36,5.16,5.16,0,0,1-7.63.11A8,8,0,0,1,93.64,116.7Zm2.32-.12a5.79,5.79,0,0,0,.93,3.51,2.69,2.69,0,0,0,2.23,1.15,2.65,2.65,0,0,0,2.19-1.19,6,6,0,0,0,.83-3.58,5.89,5.89,0,0,0-.89-3.49,2.76,2.76,0,0,0-4.47.06A5.9,5.9,0,0,0,96,116.58Z"/><path d="M106.5,123.27l-.16-13.6,4.74-.06a6.63,6.63,0,0,1,2.6.34,2.91,2.91,0,0,1,1.3,1.26,4.42,4.42,0,0,1,.52,2.16,4,4,0,0,1-.73,2.58,3.42,3.42,0,0,1-2.16,1.25,5.69,5.69,0,0,1,1.21,1.12,15.94,15.94,0,0,1,1.31,2.19l1.39,2.64-2.69,0-1.66-2.94a20.81,20.81,0,0,0-1.22-2,1.75,1.75,0,0,0-.67-.55,3,3,0,0,0-1.14-.14h-.46l.07,5.67Zm2.15-7.87,1.67,0a9.05,9.05,0,0,0,2-.16,1.24,1.24,0,0,0,.67-.55,2.07,2.07,0,0,0,.25-1.09,1.88,1.88,0,0,0-.28-1,1.33,1.33,0,0,0-.71-.54,9.56,9.56,0,0,0-1.83-.08l-1.76,0Z"/><path d="M118,123.14l-.16-13.6,2.25,0,.07,6,4.49-6.1,3,0-4.14,5.35L128,123l-2.91,0L122,116.7l-1.8,2.3,0,4.11Z"/></svg>