<svg id="Layer_1" data-name="Layer 1" xmlns="http://www.w3.org/2000/svg" width="128" height="128" viewBox="0 0 128 128"><title>Birds glyph</title><path d="M34.55,91.86c-7.33,7.9-18.81,16.8-28.29,23.13A51.14,51.14,0,0,0,0,119.56a17.11,17.11,0,0,0,7.19-.11c16-3,28.47-10.94,45.33-29.85-.9-.53-4.75-1.27-5.63-1.85C44.15,88.84,35.05,91.7,34.55,91.86Z"/><path d="M119.25,22a3.82,3.82,0,0,1-1.8-2c-1.6-3.4-3.69-6.2-7.34-7.72-2.46-1-5.32-.9-7.77-2-7-3-7.39-5.2-12.91-10.35,1,2.66,3.22,5.64,3.14,8.09-.55.24-1.67-.35-2.14-.53a13.4,13.4,0,0,0,2.26,4.6c-1.11-.73-2.71-.35-3.91-.11,1.34,1.85,2.66,2.72,3.52,5-.3,0-1,.19-.92.26,1.5,1.65,1,3-.15,4.76a70.09,70.09,0,0,0-5.07,9.34,19,19,0,0,1-6.45,7.84s-13.95,10.33-15,12.4l-.1.22-.2.1a38.12,38.12,0,0,0-5.73,3.79c-1.84,1.43-3.63,2.92-5.36,4.49-3.48,3.13-6.76,6.49-9.93,10-1.59,1.74-3.15,3.5-4.65,5.32s-3,3.65-4.27,5.57-2.4,4-3.5,6.14c-.79,1.53-1.57,3.09-2.32,4.65,3.53-1,7.08-2.17,10.57-3.41,4.06-1.44,8.08-3,12-4.72a99.22,99.22,0,0,0,11.52-5.79,47.33,47.33,0,0,0,5.3-3.64,21.65,21.65,0,0,0,4.37-4.6l.15-.23.24-.08c4-1.21,16.83-8,16.83-8s-12.22,8.11-16.14,9.42C63.93,83.22,49.88,86.6,48.78,87,68.29,95.62,80.16,94.7,85,93.45c9.18-2.37,32.53-14.16,31.08-50.59a68.23,68.23,0,0,1,0-8.09,2.73,2.73,0,0,1,2-2.29c3.17-1.26,6.63-1.53,9.92-2.92A27.15,27.15,0,0,0,119.25,22Z"/><path d="M106.92,118.78c0-1.87-2-3.3-2.21-3.44s0-.29-.21-.48a5.77,5.77,0,0,0-4.31-1.29c-2,0-5.32.18-7.33.12a2.22,2.22,0,0,1-1.52-.64c-2.82-3.22-5.58-10.38-8.34-13.65a4.85,4.85,0,0,1-.29-4,13.29,13.29,0,0,1-3,.32,14.49,14.49,0,0,1-3.08-.2l-.08,1.24c1.35,1.42,9.36,14.15,12,17.13l-.18.48a25.36,25.36,0,0,0-4.59,1.33,11.12,11.12,0,0,0-.81.87c-1.58,1.49-3.68,1.46-4.16.69C76.19,113,72.6,104.82,70,100.51a1.7,1.7,0,0,1,0-1.22c.48-1.54.85-2.29,1.62-2.64l.82-.92a12.56,12.56,0,0,1-3.91-.29,26.71,26.71,0,0,1-3.35-.74c-.07,1-.07,1.86-.2,2.66a3.05,3.05,0,0,0,.78,2.49c3.36,4.5,10.92,19.23,11,19.73-1.35,0-5.34.67-6.32.56-.35,0-.54.58-.85.55-2.08-.2-3.58.68-4.77,3,1.25-.44,2.52-.89,3.8-1.31.31-.11.74-.25,1-.11,1.57.88,2.29,0,4.29,0a35.67,35.67,0,0,1,6,.14c1.38.34,2.66,1.37,4,1.81a11.75,11.75,0,0,1,3.7,1.83c.06,0,.39-.12.45-.06.43.35,1.37,1.78,1.69,2a5.58,5.58,0,0,0-.81-2.63c0-.05.11-.23.09-.28a16.15,16.15,0,0,0-1.74-2.51,12,12,0,0,1,5.27,1.49c.07,0,.26-.27.32-.23a7.54,7.54,0,0,1,1.25,1.83A3.63,3.63,0,0,0,93,122.16c0-.06-.14-.52-.2-.58-1.42-1.35-3.94-2.35-7.72-3.16-1.36-.35-1.6-.83-1.08-1,.08,0,.41.15.52.12a17.1,17.1,0,0,1,2.59-.36c2.7-.19,6.49-.68,9.08.76a23.75,23.75,0,0,0,3.8,1.77c.36,0,.54-.3.7-.27,1.31.23,2,.92,3.23,2.19-.3-1.94-1-2.34-2.29-3.46,0,0,.1-.25-.11-.48s-1.58-.57-1.82-.75a5.22,5.22,0,0,1,2.62-.44c.52.1,1.12.33,1.33.38s.45-.24.48-.23A9.44,9.44,0,0,1,106.92,118.78Z"/></svg>