<svg id="Layer_1" data-name="Layer 1" xmlns="http://www.w3.org/2000/svg" width="128" height="128" viewBox="0 0 128 128"><title>Artboard 86</title><path d="M14.91,123.76V109.44h8v2.42H17.27v3.39h4.92v2.42H17.27v6.09Z"/><path d="M25,123.76V109.44H27.4v14.32Z"/><path d="M29.27,119.09l2.32-.28c.26,1.83,1.11,2.75,2.56,2.75a2.42,2.42,0,0,0,1.68-.56,1.82,1.82,0,0,0,.62-1.39,1.45,1.45,0,0,0-.22-.83,1.59,1.59,0,0,0-.65-.57,18.68,18.68,0,0,0-2.13-.73,7.29,7.29,0,0,1-2.22-1,3.66,3.66,0,0,1-1.11-1.41,4.42,4.42,0,0,1,.11-4,3.53,3.53,0,0,1,1.47-1.42A5.08,5.08,0,0,1,34,109.2a4.06,4.06,0,0,1,4.46,4.33l-2.37.13a2.55,2.55,0,0,0-.68-1.61,2.11,2.11,0,0,0-1.47-.46,2.37,2.37,0,0,0-1.48.4,1.24,1.24,0,0,0,0,2,6.52,6.52,0,0,0,2.16.88,9,9,0,0,1,2.58,1.09,3.69,3.69,0,0,1,1.21,1.47,5.23,5.23,0,0,1,.42,2.2,4.52,4.52,0,0,1-1.14,3.13A4.62,4.62,0,0,1,34.08,124Q29.76,124,29.27,119.09Z"/><path d="M41,123.76V109.44h2.36v5.63H48v-5.63H50.4v14.32H48V117.5H43.38v6.26Z"/><path d="M57.81,123.76V109.44h8.71v2.42H60.17V115h5.9v2.41h-5.9v3.88h6.57v2.43Z"/><path d="M79.53,123.76H77l-1-3.25h-4.7l-1,3.25H67.75l4.57-14.32h2.51Zm-4.36-5.67-1.62-5.31L72,118.09Z"/><path d="M86.44,118.5v-2.42h5.11v5.7a6.18,6.18,0,0,1-2.19,1.57,6.79,6.79,0,0,1-2.84.65,5.58,5.58,0,0,1-3.06-.85,5.83,5.83,0,0,1-2.11-2.56,9.6,9.6,0,0,1-.78-4,9.48,9.48,0,0,1,.79-4,5.83,5.83,0,0,1,2-2.51,5.28,5.28,0,0,1,3-.83,5.06,5.06,0,0,1,3.37,1.06,5.17,5.17,0,0,1,1.63,3.14l-2.35.54a3,3,0,0,0-1-1.69,2.51,2.51,0,0,0-1.68-.58A3,3,0,0,0,84,112.84a5.75,5.75,0,0,0-.93,3.59,6.46,6.46,0,0,0,1,3.94,2.81,2.81,0,0,0,2.36,1.16,3.57,3.57,0,0,0,1.44-.33,4.37,4.37,0,0,0,1.33-.89V118.5Z"/><path d="M94,123.76v-14.2h2.36v11.77h5.9v2.43Z"/><path d="M104.17,123.76V109.44h8.71v2.42h-6.35V115h5.9v2.41h-5.9v3.88h6.56v2.43Z"/><path d="M19.76,6.58a2.88,2.88,0,0,0-.49-.91l-.48.19a12.31,12.31,0,0,0-1.21.59,2.9,2.9,0,0,0-.92.79,7.54,7.54,0,0,0-.86,2.45,3.51,3.51,0,0,0,.09,1.37c0-.07,0-.14.07-.22a3.73,3.73,0,0,1,.35-.65,2.41,2.41,0,0,1,.52-.6l.07-.06H17a8.8,8.8,0,0,0,1.15-.13,2.46,2.46,0,0,0,.55-.14A1.43,1.43,0,0,0,19.18,9l.05,0h0A6.65,6.65,0,0,1,20,8.91,8.14,8.14,0,0,0,20,7.8,5.09,5.09,0,0,0,19.76,6.58Z"/><path d="M50.26,62.46a1.23,1.23,0,0,0,.18-.68,2.65,2.65,0,0,0-.18-.94l.1,0a2.85,2.85,0,0,1,.25.63,4.58,4.58,0,0,0,1.09.27,6,6,0,0,0,1.2,0,3.38,3.38,0,0,0,1.13-.3,1.9,1.9,0,0,0,.81-.75l.06-.14.16.07a9,9,0,0,0,2.14.71,2.32,2.32,0,0,0,1-.06,1.27,1.27,0,0,0,.69-.64l.16-.31.28.24a3.68,3.68,0,0,0,2.1,1,1.79,1.79,0,0,0,1-.23,2,2,0,0,0,.77-.77l.21-.31.33.22a2.16,2.16,0,0,0,1,.24,4.9,4.9,0,0,0,1.2-.13,5,5,0,0,0,1.15-.38,2.33,2.33,0,0,0,.86-.62l.31-.45.41.41A15.71,15.71,0,0,0,70.48,61a7.49,7.49,0,0,0,1.89,1,2.42,2.42,0,0,0,1.85,0,3.07,3.07,0,0,0,1.34-1.41l.21-.41.4.16a12.63,12.63,0,0,0,1.64.55,4.88,4.88,0,0,0,1.64.17,1.31,1.31,0,0,0,1.17-.82,2.14,2.14,0,0,0,.15-.64l-.17-.1a12.68,12.68,0,0,1-1.54-1.27A30.89,30.89,0,0,1,74.51,52L74.6,52c1.77,1.86,3.37,3.84,5.21,5.5a11.53,11.53,0,0,0,1.42,1.13,4.2,4.2,0,0,0,1.49.68,1.4,1.4,0,0,0,.68-.05l.4-.17.37-.19a1.4,1.4,0,0,0,.7-1.22,7.87,7.87,0,0,0-.29-1.76c-.15-.62-.32-1.24-.44-1.88a10.68,10.68,0,0,0-1.41-3.42,31,31,0,0,0-2.07-3.19c-.37-.51-.75-1-1.14-1.52-.2-.25-.4-.49-.61-.73l-.31-.35-.15-.16c-.59-.27-1.18-.53-1.76-.84l0-.09c.5.25,1,.46,1.52.67h.09l0,0,.05,0h0l.65.27c.79.34,1.56.69,2.34,1.07a45.93,45.93,0,0,1,4.48,2.53c1.44.93,2.85,1.92,4.19,3s2.59,2.12,3.84,3.24A.84.84,0,0,0,94.7,54a1.86,1.86,0,0,0-.07-1.2,9,9,0,0,0-1.33-2.42,23.13,23.13,0,0,0-4-4,48.67,48.67,0,0,0-4.63-3.31,43.88,43.88,0,0,0-5-2.76l-.08,0-.07-.09c-.59-.63-1.22-1.23-1.86-1.82-.58-.33-1.17-.61-1.76-.89-1.33-.6-2.68-1.15-4-1.66-2.74-1-5.49-2-8.26-3-.69-.25-1.38-.49-2.08-.76a21.35,21.35,0,0,0-2-.66L59,31.35a1,1,0,0,0,.16.14c-.07,0-.13-.1-.21-.14-1.22-.33-2.48-.62-3.73-.88-1.42-.29-2.87-.55-4.31-.75a21,21,0,0,0-4.31-.24h-.06a29,29,0,0,0-5.35-.13,21.67,21.67,0,0,0-2.67.35c-.42.08-.83.18-1.25.3,1.09,1.08,2.05,2.27,3.07,3.4A13.84,13.84,0,0,0,42,35c.28.22.65.44.86.38s.15-.11.21-.26a4.12,4.12,0,0,0,.13-.53,7.08,7.08,0,0,1,.34-1.17,3.12,3.12,0,0,1,.68-1.11A.93.93,0,0,1,45,32a1,1,0,0,1,.65.52.83.83,0,0,1,.09.16l.06.11.14.22.33.44A8,8,0,0,0,48,35a5,5,0,0,0,.44.24.41.41,0,0,0,.16,0l.11,0a5,5,0,0,0,.82-.63,2.74,2.74,0,0,1,1.19-.69,1.35,1.35,0,0,1,.86.07,2.07,2.07,0,0,0,.21.08l.24.05a22.59,22.59,0,0,1,2.36.31,8.76,8.76,0,0,1,2.3,1,11.38,11.38,0,0,1,1,.7l.91.73a9.15,9.15,0,0,0,4,1.83,8.52,8.52,0,0,0,2.25.18,6.41,6.41,0,0,0,2.24-.43l0,.09a6.35,6.35,0,0,1-2.61.9c1.17.62,2.38,1.19,3.6,1.7.66.28,1.33.54,2,.76a7.77,7.77,0,0,0,2,.42,1.14,1.14,0,0,0,.71-.16c.1-.1.13-.25.07-.52a6.12,6.12,0,0,0-.79-1.73,19.27,19.27,0,0,0-1.19-1.7,9.63,9.63,0,0,0-1.44-1.55l0-.1a5.06,5.06,0,0,1,2,1.11A9.91,9.91,0,0,1,73,39.22a4.72,4.72,0,0,1,1,2.2,1.8,1.8,0,0,1-.07.75,1.35,1.35,0,0,1-.49.68,1.92,1.92,0,0,1-1.36.26,8.52,8.52,0,0,1-2.18-.63c-.69-.28-1.35-.6-2-.93-1.23-.67-2.44-1.38-3.59-2.16a10.06,10.06,0,0,1-1.82,0,9.21,9.21,0,0,1-4.55-1.72L57,36.94c-.3-.21-.59-.43-.91-.61a8.22,8.22,0,0,0-2-.88,21.47,21.47,0,0,0-2.26-.4,2.14,2.14,0,0,1-.34-.09,2.2,2.2,0,0,1-.34-.13.36.36,0,0,0-.27,0,2.16,2.16,0,0,0-.83.47A5.08,5.08,0,0,1,49,36a1.1,1.1,0,0,1-.47.08,1.28,1.28,0,0,1-.4-.11,2.93,2.93,0,0,1-.58-.33,8.61,8.61,0,0,1-1.77-1.69,4.54,4.54,0,0,1-.36-.5l-.17-.28L45.15,33a.37.37,0,0,0,0-.11.44.44,0,0,0-.2-.21c-.06,0-.15,0-.27.11a2.71,2.71,0,0,0-.55.86,7.6,7.6,0,0,0-.36,1.08,3.75,3.75,0,0,1-.17.6.86.86,0,0,1-.58.53,1,1,0,0,1-.72-.15,3.2,3.2,0,0,1-.52-.36,14.72,14.72,0,0,1-1.62-1.74c-1-1.19-1.89-2.44-2.94-3.57a9.05,9.05,0,0,0-1.19.45l0-.06v.06a12.07,12.07,0,0,0-5.89,2,4.26,4.26,0,0,0-1.72,2.43,3.22,3.22,0,0,0,0,1.48c.13.47.35,1,.54,1.47a45.46,45.46,0,0,0,2.46,5.83,20,20,0,0,0,3.76,5l0,0,.05.08A23.69,23.69,0,0,0,38.12,53c.56.66,1.14,1.3,1.75,1.91s1.22,1.22,1.88,1.79a37.34,37.34,0,0,0,4.11,3.16A42.83,42.83,0,0,0,50.26,62.46Z"/><path d="M58.05,81.42a1.53,1.53,0,0,1-.88.23h-.26c.09,1.82.17,3.65.23,5.48l.09,3c.27-.06.55-.11.82-.15s.55-.07.83-.09a19.43,19.43,0,0,1,.5-2.86c.27-1,.53-2.08.77-3.12l.72-3.13c.19-.92.42-1.86.52-2.79l-.2,0-.26,0-.34,0a1.3,1.3,0,0,1-1.11-.73,1.39,1.39,0,0,1-.1-.33l0-.27-.06-.55c0-.36-.06-.73-.08-1.08s0-.73,0-1.1a0,0,0,0,1,0,0,9.46,9.46,0,0,0-.37,1.1,11.19,11.19,0,0,0-.33,2.31,10,10,0,0,0,.08,2.32l.06.26a1.3,1.3,0,0,1,0,.52A1.33,1.33,0,0,1,58.05,81.42Z"/><path d="M30,27.9c.06.5.1,1,.12,1.51s0,1,0,1.53a8.93,8.93,0,0,1-.17,1.25,9.76,9.76,0,0,1,2.89-1.3A15.13,15.13,0,0,1,36,30.38a11.86,11.86,0,0,1,2.55-.89A22,22,0,0,1,41.18,29a29.51,29.51,0,0,1,5.4-.08,19.82,19.82,0,0,1,4.43.12c1.47.16,2.92.38,4.38.63l1.81.34a37.08,37.08,0,0,1-3.33-2.8q-2.49-2.31-4.94-4.66c-.82-.79-1.62-1.58-2.4-2.41-.41-.43-.76-.85-1.15-1.27l-1.16-1.23c-.77-.83-1.55-1.66-2.29-2.53a22.71,22.71,0,0,1-2.1-2.73l-.06-.08v-.09a11,11,0,0,0-.67-2.83,5.55,5.55,0,0,0-1.67-2.26c-.36-.32-.77-.61-1.18-.91s-.79-.63-1.19-.91a11.68,11.68,0,0,0-8.35-2.28,13.31,13.31,0,0,0-2.92.61,15,15,0,0,0-1.4.54A4.77,4.77,0,0,0,21.17,5a1.66,1.66,0,0,1,.22,0l-.12,0c.7,0,1.41,0,2.09,0l.57,0a.65.65,0,0,0,.17,0l.17-.09a6,6,0,0,1,1-.69,2.92,2.92,0,0,1,1.32-.42A3.13,3.13,0,0,1,27.94,4a2.75,2.75,0,0,1,1.71,1.93A3.59,3.59,0,0,0,28.81,5a3.22,3.22,0,0,0-1-.46,2.86,2.86,0,0,0-2.1.34h0c-.3.18-.56.4-1,.66a1.25,1.25,0,0,1-.37.16,1,1,0,0,1-.42,0,3.88,3.88,0,0,1-.61-.1A12.75,12.75,0,0,1,21.09,5c-.57.18-1.13.38-1.68.59a2,2,0,0,1,.73.78,3.43,3.43,0,0,1,.42,1.35,4.25,4.25,0,0,1-.07,1.13h.23c.48,0,1,0,1.44,0l-1.43.21a1.45,1.45,0,0,0-.28,0v0a3.88,3.88,0,0,1-.37,1h0a9,9,0,0,0,1,0q.53,0,1.08-.06a9.2,9.2,0,0,1,2.2.2l.54.16.13,0h.13a.22.22,0,0,0,.13-.12,4,4,0,0,1,.3-.54,4.57,4.57,0,0,1,1.8-1.42l.06,0h.05a3.81,3.81,0,0,0,.92-.17,2.36,2.36,0,0,0,.82-.42A1.27,1.27,0,0,0,29.74,7a2.39,2.39,0,0,0-.07-1A2,2,0,0,1,30,7a1.55,1.55,0,0,1-.4,1,2.78,2.78,0,0,1-.91.62,4,4,0,0,1-.95.29,4.42,4.42,0,0,0-1.42,1.29,3,3,0,0,0-.21.4,1,1,0,0,1-.6.58,1.14,1.14,0,0,1-.44.06l-.22-.05-.12,0L24.2,11a9.8,9.8,0,0,0-1.32-.21,9.7,9.7,0,0,1,3.4,4,12.26,12.26,0,0,1,.93,2.94c.21.94.5,1.91.81,2.85.6,1.91,1.25,3.81,1.71,5.8A14.4,14.4,0,0,1,30,27.9Zm-1.23-21a2.44,2.44,0,0,1-1.63.88,2.42,2.42,0,0,1-1.62-.88.37.37,0,0,1,0-.53,2.42,2.42,0,0,1,1.62-.88,2.44,2.44,0,0,1,1.63.88A.39.39,0,0,1,28.77,6.94Zm-2.24,6.81a26.82,26.82,0,0,0-1.87-2.2l1.33.07c.61-.14,1-.88,1.61-1.63s2-1.17,2.48-1.63A2.33,2.33,0,0,0,30.33,6c-.36-.72-1.18-2.16-1.61-2.23a3.84,3.84,0,0,1-1.29-.4,6.16,6.16,0,0,1,2.22,0c.79.26,4.27,1.3,5.59,2.74a8.18,8.18,0,0,1,3.91,6,23.56,23.56,0,0,0,2.4,3.81c.65.79,3.66,3.67,4.09,4.53a12.51,12.51,0,0,0,2.45,2.91c.75.65,4.44,3.57,5.28,4.29s2.17,1.54,2,1.61-5.34-1-6.52-1-6.38.06-7.57.18a49.07,49.07,0,0,0-6.52,1.33c-.61.29-4,1.19-4,1.19s0-4.61-.61-5.44a21.33,21.33,0,0,1-1.87-5.65C27.89,18,27.17,14.65,26.53,13.75Z"/><path d="M93.84,55.15h-.12l-.08-.08c-1.25-1.16-2.5-2.32-3.83-3.38s-2.68-2.11-4.09-3.07A46.29,46.29,0,0,0,81.32,46c-.76-.4-1.53-.76-2.3-1.12l-.24-.11L79,45c.22.23.44.47.65.71.42.47.84,1,1.24,1.46a36.84,36.84,0,0,1,2.29,3.09,17.6,17.6,0,0,1,1,1.7,6.6,6.6,0,0,1,.39.9,7.38,7.38,0,0,1,.28,1c.15.6.33,1.21.51,1.83a7.48,7.48,0,0,1,.39,2,2,2,0,0,1-.25,1.13,2.51,2.51,0,0,1-.77.87l-.26.16c2.94,2.63,5.82,5.31,8.83,7.84,1.56,1.31,3.14,2.62,4.8,3.76.43.27.85.54,1.28.76a3.83,3.83,0,0,0,.63.24c.24,0,.49.12.73.16a8.58,8.58,0,0,0,2.89.11,2.13,2.13,0,0,0,1.13-.53,1.17,1.17,0,0,0,.29-.48c.09-.26.19-.49.29-.73a4.1,4.1,0,0,0,.48-2.61,6.22,6.22,0,0,0-.3-.63,2.11,2.11,0,0,1-.19-1c.09-.69.11-.77-.1-1.15a5,5,0,0,0-.92-1l-1.1-1.08c-1.45-1.44-2.91-2.89-4.33-4.37s-2.71-2.81-4-4.26l-.16.12A1.72,1.72,0,0,1,93.84,55.15Z"/><path d="M93.68,71.77a12.41,12.41,0,0,0,2.59-.83C95.11,70,94,69.06,92.92,68.08c-2.94-2.65-5.73-5.45-8.57-8.19l-.1.06-.47.23a2.36,2.36,0,0,1-1.19.17,4.29,4.29,0,0,1-1.51-.52,3,3,0,0,1,0,.59,2.22,2.22,0,0,1-.2.48,1.41,1.41,0,0,1-.33.4l-.22.16-.23.12a1.84,1.84,0,0,1-.48.17,4.86,4.86,0,0,1-1.78,0l2.35,1.89c1.4,1.15,2.8,2.29,4.25,3.33a45.47,45.47,0,0,0,4.55,2.75,28,28,0,0,0,4.72,2Z"/><path d="M83.87,67.7c-1.42-1.15-2.76-2.38-4.08-3.61-.85-.81-1.71-1.62-2.57-2.41-.33-.06-.65-.15-1-.24a3.67,3.67,0,0,1-1.56,1.61,3.25,3.25,0,0,1-2,.22c.3.23.57.45.87.67,1.56,1.22,3.13,2.42,4.75,3.52s3.35,2,5,3a31,31,0,0,0,4.73,2.11c.84-.07,1.68-.14,2.52-.25s1.56-.22,2.32-.38a13.34,13.34,0,0,1-4.48-1.18A21.15,21.15,0,0,1,83.87,67.7Z"/><path d="M57.54,30.11l2.19.48c.72.18,1.44.36,2.17.62s1.38.45,2.08.67A86.86,86.86,0,0,1,72.26,35c1.15.51,2.29,1.07,3.41,1.68l-1.92-1.56c-1-.82-2-1.61-3.11-2.37s-2.11-1.52-3.2-2.2c-.55-.34-1.11-.69-1.67-1A18.06,18.06,0,0,0,64,28.79a38.33,38.33,0,0,0-3.72-1.18c-1.25-.34-2.53-.62-3.81-.9-.64-.14-1.27-.26-1.92-.37l-1-.16-.24,0c.27.26.53.54.79.8A42,42,0,0,0,57.54,30.11Z"/><path d="M18.27,9.88a5.9,5.9,0,0,1-1.09.24,2.31,2.31,0,0,0-.29.43.73.73,0,0,1-.05.09,2.12,2.12,0,0,0,.55.14,4.51,4.51,0,0,0,.9,0,3,3,0,0,0,1.59-.61L20,10.1c0-.32.05-.63.06-.93-.22,0-.43.08-.65.14A2.48,2.48,0,0,1,18.27,9.88Z"/><path d="M99.91,79.09A13.44,13.44,0,0,1,97.68,77c-.69-.73-1.36-1.5-2-2.29-.31-.4-.61-.8-.91-1.22a7.05,7.05,0,0,1-.73-1.29,2,2,0,0,1-.22.09,25.92,25.92,0,0,1-3.08.82l-.6.11c.65.88,1.31,1.74,2,2.54a25.59,25.59,0,0,0,2.7,2.71c1,.85,2,1.53,3,2.3s1.75,1.26,2.67,1.88a5.17,5.17,0,0,0,.94-1,4.17,4.17,0,0,0,.4-.72,5,5,0,0,1,.37-.7,3.91,3.91,0,0,1-1-.33A7.48,7.48,0,0,1,99.91,79.09Z"/><path d="M102.87,76.05c-.85-.4-1.7-.83-2.55-1.26s-1.81-1-2.7-1.47a28.66,28.66,0,0,1-2.47-1.57c-.32.14-.65.28-1,.4a13.22,13.22,0,0,0,1.92,2.18c.71.71,1.44,1.38,2.2,2s1.57,1.21,2.29,1.86,1.22,1.1,1.87,1.62a8.06,8.06,0,0,0,.7-1.37,2.74,2.74,0,0,0,.23-1.58A1.7,1.7,0,0,0,102.87,76.05Z"/><path d="M94.28,79.09a26.94,26.94,0,0,1-2.53-3c-.64-.92-1.25-1.87-1.81-2.85-.76.14-1.55.26-2.34.34s-1.42.12-2.14.12a6.2,6.2,0,0,1,1.17,1c.43.43.83.89,1.22,1.35l2.34,2.78a23.33,23.33,0,0,0,2.48,2.58,5.05,5.05,0,0,0,1.4.92,3.32,3.32,0,0,0,.8.16,7.12,7.12,0,0,1,.92.18,11,11,0,0,1,1.79.59,2.32,2.32,0,0,0,1.45.23,3.53,3.53,0,0,0,1.19-.57,10.44,10.44,0,0,1-2.94-1.24A15.39,15.39,0,0,1,94.28,79.09Z"/><path d="M111.56,75.17a11.07,11.07,0,0,0-1.55-2c-.58-.62-1.22-1.2-1.87-1.77-.48-.41-1-.8-1.48-1.17-.14.39-.29.75-.44,1.09,0,.13-.1.25-.16.38a6.29,6.29,0,0,1,2.2,1.29,7.38,7.38,0,0,1,1.93,2.61,6.91,6.91,0,0,1,.29.84l1.75.25A5.3,5.3,0,0,0,111.56,75.17Z"/><path d="M63.77,76.91a10.84,10.84,0,0,1,1.14,0l.29,0h.21a.5.5,0,0,0,.23-.09.3.3,0,0,0,.13-.18l0-.13.06-.26c.08-.36.18-.71.29-1.06a22.85,22.85,0,0,1,1.52-3.7c-.43-.17-.86-.33-1.28-.52-1.72-.72-3.4-1.54-5-2.41A16.14,16.14,0,0,1,59.7,73c-.09.18-.21.37-.29.54a.25.25,0,0,1,0,.07c0,.5.1,1,.18,1.47s.11.71.18,1.06l.1.52.06.26.07.18a.72.72,0,0,0,.63.35c.1,0,.29-.06.47-.1l.54-.11A15.77,15.77,0,0,1,63.77,76.91Z"/><path d="M106,72s0,0,0,.06a2.18,2.18,0,0,1-.54.81,2.92,2.92,0,0,1-1.62.72,9,9,0,0,1-3.2-.19c-.26-.05-.5-.11-.76-.18a4.81,4.81,0,0,1-.79-.33A13.8,13.8,0,0,1,97.68,72c-.43-.31-.86-.64-1.28-1a8.12,8.12,0,0,1-1.11.63A25.66,25.66,0,0,0,97.77,73c.91.45,1.84.86,2.78,1.27,1.87.83,3.76,1.62,5.66,2.32a21.08,21.08,0,0,0,2.86.87.89.89,0,0,0,.32,0,1.41,1.41,0,0,0,0-.24,3.7,3.7,0,0,0-.25-1.27A8.42,8.42,0,0,0,106,72Z"/><path d="M82.88,71.43a26.74,26.74,0,0,1-5-3.26c-1.6-1.21-3.11-2.5-4.61-3.81l-1.59-1.44a8.22,8.22,0,0,1-1.78-1.11,12.79,12.79,0,0,1-1.44-1.31,3.94,3.94,0,0,1-.86.49,6.68,6.68,0,0,1-1.35.39,6.42,6.42,0,0,1-1.39.09,3.57,3.57,0,0,1-.72-.1l3.83,2.95c1.55,1.22,3.13,2.42,4.75,3.53s3.35,2,5,3a32.92,32.92,0,0,0,4,1.83c.92,0,1.82,0,2.71-.09h.1c.63.05,1.29.06,2,.05A16.84,16.84,0,0,1,82.88,71.43Z"/><path d="M50.71,62.07a1.45,1.45,0,0,1-.26.76l-.07.09-.15-.05a32.58,32.58,0,0,1-4.3-2A14.5,14.5,0,0,0,47.31,65c.73,1.44,1.61,2.82,2.38,4.27,1.5,2.91,3,5.82,4.24,8.88q.24.57.45,1.17c.07.2.13.4.19.61a4.19,4.19,0,0,0,.12.49.25.25,0,0,0,.18.13h.18l.3,0c.4,0,.8,0,1.19,0a3,3,0,0,0,.87-.07.17.17,0,0,0,.08-.13.17.17,0,0,0,0-.1L57.43,80a10.65,10.65,0,0,1-.06-2.58,11.79,11.79,0,0,1,.5-2.5,9.07,9.07,0,0,1,.5-1.21,9.85,9.85,0,0,1,.68-1.07,18.75,18.75,0,0,0,1.24-2.06,17.43,17.43,0,0,0,.92-2c-1-.53-2-1.08-3-1.65C55.67,65.37,53.16,63.76,50.71,62.07Z"/><path d="M56.78,93.61l-.41-.06v-.39c0-1,0-2,.06-3l.09-3c.06-1.83.14-3.65.23-5.48h-.22c-.42,0-.83,0-1.25-.07l-.31,0-.17,0a1.14,1.14,0,0,1-.25-.06,1.11,1.11,0,0,1-.29-.14c-.11,1-.23,1.91-.36,2.87l-.49,3.34-1,6.7,0,.17-.18,0-7.74.46.39,2.3L56,95.83h.13l8.11,1.11V94.61c-1.16-.15-2.31-.28-3.47-.45Z"/><path d="M63.12,91.47l-.42-.06.06-.4,1-6.75,1-6.39h0a8.45,8.45,0,0,0-1-.07,18.46,18.46,0,0,0-2.09.13l-.17,0a23.13,23.13,0,0,1-.21,2.89c-.12,1.07-.28,2.13-.43,3.19l-.46,3.19a18.86,18.86,0,0,1-.74,3.12l-.12.39-.31,0c-.41,0-.82-.09-1.22-.15s-.55-.09-.82-.15c0,.77,0,1.56.05,2.34l3.59.37c1.32.13,2.65.3,4,.45l.49.06v1.52c1.26-.15,2.52-.25,3.79-.32.16-.77.33-1.54.51-2.32-1-.13-2-.28-3-.45Z"/><path d="M66.25,68.65A77.33,77.33,0,0,1,55.34,61.1L55,61a2.18,2.18,0,0,1-.89.71,3.57,3.57,0,0,1-1.23.26,5.14,5.14,0,0,1-1.24-.07,4.65,4.65,0,0,1-1-.29,1.42,1.42,0,0,0,0,.2.81.81,0,0,1,0,.16c2.53,1.61,5.11,3.15,7.75,4.56a75.72,75.72,0,0,0,8.22,3.85,31.19,31.19,0,0,0,7.76,2.09c-.68-.2-1.35-.43-2-.68A42.37,42.37,0,0,1,66.25,68.65Z"/><path d="M72.16,68.56c-1.58-1.21-3.1-2.5-4.59-3.81-1.31-1.17-2.6-2.35-3.91-3.5a2.62,2.62,0,0,1-.84.67,2.58,2.58,0,0,1-1.43.26,4.09,4.09,0,0,1-2.19-1,1.58,1.58,0,0,1-.82.55,2.36,2.36,0,0,1-1.26,0A6.87,6.87,0,0,1,56,61.4c1.54,1.09,3.12,2.12,4.73,3.11,1.94,1.2,3.93,2.32,5.95,3.38s4.12,1.92,6.18,2.85c1.53.69,3.07,1.33,4.66,1.88l2,0a20.11,20.11,0,0,1-2.23-.86A28.5,28.5,0,0,1,72.16,68.56Z"/></svg>