<svg id="Layer_1" data-name="Layer 1" xmlns="http://www.w3.org/2000/svg" width="128" height="128" viewBox="0 0 128 128"><title>Artboard 93</title><path d="M6.22,118.91v-2.24h4.72V122a5.79,5.79,0,0,1-2,1.44,6.15,6.15,0,0,1-2.63.61,5.12,5.12,0,0,1-2.84-.79,5.4,5.4,0,0,1-1.95-2.37,9,9,0,0,1-.71-3.71,8.8,8.8,0,0,1,.72-3.73,5.53,5.53,0,0,1,1.89-2.33,5,5,0,0,1,2.78-.76,4.71,4.71,0,0,1,3.11,1,4.76,4.76,0,0,1,1.51,2.91l-2.17.5a2.78,2.78,0,0,0-.9-1.57,2.34,2.34,0,0,0-1.55-.54,2.76,2.76,0,0,0-2.27,1.09A5.27,5.27,0,0,0,3.05,117,6,6,0,0,0,4,120.64a2.58,2.58,0,0,0,2.18,1.07,3.32,3.32,0,0,0,1.33-.3,4.12,4.12,0,0,0,1.24-.82v-1.68Z"/><path d="M12.71,117.23a9.34,9.34,0,0,1,.7-3.89,5.23,5.23,0,0,1,1.82-2.28,4.87,4.87,0,0,1,2.74-.75,4.7,4.7,0,0,1,3.8,1.77,7.78,7.78,0,0,1,1.47,5.07,7.89,7.89,0,0,1-1.56,5.2A4.53,4.53,0,0,1,18,124a4.59,4.59,0,0,1-3.72-1.63A7.79,7.79,0,0,1,12.71,117.23Zm2.25-.09a5.61,5.61,0,0,0,.87,3.43A2.62,2.62,0,0,0,18,121.71a2.57,2.57,0,0,0,2.14-1.13A5.77,5.77,0,0,0,21,117.1a5.71,5.71,0,0,0-.83-3.41,2.68,2.68,0,0,0-4.34,0A5.64,5.64,0,0,0,15,117.14Z"/><path d="M25.2,123.77V110.64h2.19v10.89h5.46v2.24Z"/><path d="M34.53,123.77V110.53h2.19v13.24Z"/><path d="M48.8,123.77H46.42l-1-3H41.12l-.9,3H37.89l4.23-13.24h2.32Zm-4-5.23-1.5-4.92-1.47,4.92Z"/><path d="M51.47,123.77v-11H48.24v-2.24h8.63v2.24H53.65v11Z"/><path d="M58.48,123.77V110.53h2.19v5.21H65v-5.21h2.18v13.24H65V118H60.67v5.79Z"/><path d="M74,123.77V110.53H76.2v5.21h4.31v-5.21H82.7v13.24H80.51V118H76.2v5.79Z"/><path d="M85.15,123.77V110.53h8.06v2.24H87.34v2.94h5.45v2.23H87.34v3.59h6.07v2.24Z"/><path d="M95.45,123.77V110.53h4.62a6.4,6.4,0,0,1,2.53.36,2.8,2.8,0,0,1,1.24,1.24,4.22,4.22,0,0,1,.49,2.11,4,4,0,0,1-.74,2.5,3.34,3.34,0,0,1-2.12,1.19,5.36,5.36,0,0,1,1.16,1.11,15.48,15.48,0,0,1,1.26,2.15l1.32,2.58h-2.62L101,120.89a17.16,17.16,0,0,0-1.17-2,1.64,1.64,0,0,0-.65-.55,3.21,3.21,0,0,0-1.1-.14h-.45v5.52Zm2.19-7.64h1.62a8,8,0,0,0,1.9-.13,1.21,1.21,0,0,0,.66-.53,1.9,1.9,0,0,0,.25-1,1.81,1.81,0,0,0-.25-1,1.3,1.3,0,0,0-.69-.53,8.24,8.24,0,0,0-1.77-.1H97.64Z"/><path d="M106.13,117.23a9.5,9.5,0,0,1,.7-3.89,5.32,5.32,0,0,1,1.83-2.28,4.87,4.87,0,0,1,2.74-.75,4.72,4.72,0,0,1,3.8,1.77,7.78,7.78,0,0,1,1.47,5.07,7.89,7.89,0,0,1-1.56,5.2,5,5,0,0,1-7.42,0A7.79,7.79,0,0,1,106.13,117.23Zm2.26-.09a5.61,5.61,0,0,0,.87,3.43,2.62,2.62,0,0,0,2.15,1.14,2.57,2.57,0,0,0,2.15-1.13,5.77,5.77,0,0,0,.85-3.48,5.71,5.71,0,0,0-.83-3.41,2.59,2.59,0,0,0-2.17-1.1,2.62,2.62,0,0,0-2.18,1.11A5.71,5.71,0,0,0,108.39,117.14Z"/><path d="M118.6,123.77V110.53h2.13l4.44,8.85v-8.85h2v13.24H125l-4.37-8.63v8.63Z"/><path d="M42.31,8.87a4.41,4.41,0,0,1,.78-1.64c-1.24.32-2.45.7-3.68,1-1.42.42-2.84.82-4.29,1.19a39.76,39.76,0,0,1-4.43.65c-1,.09-2.08.18-3.14.18a18.18,18.18,0,0,0,2.54.32,18.17,18.17,0,0,0,4.08-.32c1.36-.22,2.72-.5,4.08-.78l2.06-.39A16.06,16.06,0,0,1,42.31,8.87Z"/><path d="M43,38.6A1.28,1.28,0,0,0,43,38a4.36,4.36,0,0,0-.17-.86,14.71,14.71,0,0,0-.62-1.63c-.47-1.09-1-2.15-1.37-3.29a19.14,19.14,0,0,1-.55-7.14c.06-.6.15-1.19.26-1.78a9.45,9.45,0,0,1,.47-1.77,9.48,9.48,0,0,1,2-3A13.2,13.2,0,0,1,46,16.38a2.07,2.07,0,0,0,.94-1.33,5.41,5.41,0,0,0,.12-.58,2.48,2.48,0,0,1-.29.37C45.4,16.23,43.64,16.93,42.3,18a10.46,10.46,0,0,0-2.86,4.26,17.18,17.18,0,0,0-1.06,5.14,16.26,16.26,0,0,0,.43,5.21,10.72,10.72,0,0,0,1,2.39,11.84,11.84,0,0,0,1.59,2.1A20.11,20.11,0,0,0,43,38.6Z"/><path d="M30.62,9.57l2.19-.37c.73-.12,1.44-.24,2.15-.42,1.43-.34,2.86-.72,4.31-1a28.83,28.83,0,0,1,3.92-.63,1.67,1.67,0,0,1,.89-.49,2.53,2.53,0,0,1,.54,0,2,2,0,0,0,.42,0,8.24,8.24,0,0,0,1.76-.48c.59-.21,1.15-.49,1.75-.7a6.78,6.78,0,0,1-.9-.3c-.3-.11-.6-.21-.9-.29a8.91,8.91,0,0,0-1.12-.23.95.95,0,1,1-.22,0,4.61,4.61,0,0,0-.53,0,3.57,3.57,0,0,0-.91.13c-.32.08-.63.15-.95.21-.63.13-1.27.23-1.91.32h0L33.63,7.9l-6.08,2.18c.29,0,.59-.09.88-.15Z"/><path d="M45.12,7.1a3,3,0,0,1-.52,0,1.84,1.84,0,0,0-.41,0,1.4,1.4,0,0,0-.69.36,6.32,6.32,0,0,0-1,1.52l0,.07h-.08a32.91,32.91,0,0,0-3.6.75,19.05,19.05,0,0,0,2.88.42A9,9,0,0,0,45.05,10l.09,0,.09.06a5.26,5.26,0,0,1,1.93,2,2.44,2.44,0,0,1,.28,1.47,2,2,0,0,1-.26.74h0a6,6,0,0,1-.09.84,2.34,2.34,0,0,1-.92,1.57,14.52,14.52,0,0,0-2.66,2.26,8.93,8.93,0,0,0-1.81,2.87A15,15,0,0,0,41,25.17a20.82,20.82,0,0,0,.38,6.91c.24.85.57,1.7.88,2.56,0-.17-.08-.35-.11-.52a5.93,5.93,0,0,1-.08-1.58A4.08,4.08,0,0,1,42.56,31a4,4,0,0,1,.7-1,5.31,5.31,0,0,1-.2-.68,13.13,13.13,0,0,1-.33-2.12l-.09-1.05a6.1,6.1,0,0,1,0-1.13,8.06,8.06,0,0,1,.21-1.09,3.73,3.73,0,0,1,.51-1.06,16.39,16.39,0,0,1,1.33-1.7,75.47,75.47,0,0,1,6.09-5.79l.39-.33c.12-.11.23-.22.34-.34a7.73,7.73,0,0,0,.62-.77,11.75,11.75,0,0,0,1-1.75,11.18,11.18,0,0,0,1.14-3.85,4.68,4.68,0,0,0-1-3.66A5.73,5.73,0,0,0,49.68,3.1a14.9,14.9,0,0,0-4.11.1,7.33,7.33,0,0,0-2,.53,9,9,0,0,0-1.44.91L43,4.53l.94-.18a3.6,3.6,0,0,1,1-.11,7.22,7.22,0,0,1,1.92.33,5.91,5.91,0,0,1,1.75.8,7.69,7.69,0,0,1-1.59,1A6.06,6.06,0,0,1,45.12,7.1Z"/><path d="M61.18,66.7c.25-.6.51-1.19.78-1.78l.4-.89a3.56,3.56,0,0,1,.27-.51l-1.71-.24a.11.11,0,0,0,0,0l-.14.58-.29,1.14c-.2.76-.41,1.52-.62,2.27-.43,1.51-.88,3-1.34,4.52v0l0,0a8.79,8.79,0,0,0-1.38,2.71,17.3,17.3,0,0,0-.7,3v0l0,0c-1.59,3.49-9.83,21.1-9.83,21.1l-5.84.65a.69.69,0,0,0-.59.54l-.11.5,6.89-.54,6.43.57s.39-.7.15-1.09-4.77-.48-4.77-.48A39.91,39.91,0,0,1,51,92.09c1.72-4.07,4.54-9.18,7.4-14.61l0,0,0,0A5.61,5.61,0,0,0,59.67,76a4.13,4.13,0,0,0,.61-1.73,6.48,6.48,0,0,0-.09-1.86c0-.32-.14-.61-.19-1a4.93,4.93,0,0,1,0-1A15.61,15.61,0,0,1,61.18,66.7Z"/><path d="M61.34,60.74c0,.56,0,1.13,0,1.69.45.08.89.17,1.34.27.32-.7.64-1.4,1-2.09s.65-1.29,1-1.93c-.45-.8-.88-1.61-1.3-2.42L62.69,55c-.49-.09-1-.19-1.45-.32a18.64,18.64,0,0,1,.14,2c0,.7,0,1.4,0,2.09S61.35,60.05,61.34,60.74Z"/><path d="M69.92,100.07l-.64-.12a2.31,2.31,0,0,1-.72-.3l-.18-.12v-.22c0-.93.07-1.79.12-2.68s.12-1.77.2-2.65l.44-5.29L69.38,86l.42-2.62.86-5.24,0-.07,0,0a3.86,3.86,0,0,0,.49-.84,4.27,4.27,0,0,0,.29-.94,3.13,3.13,0,0,0,.06-1,3.5,3.5,0,0,0-.2-1v0c-.14-1-.31-2-.48-2.93l-.5-2.93c-.17-1-.31-2-.46-2.94L69.67,64l-.1-.74v-.08l-1.15.36.08.44.23,1.45c.15,1,.3,1.94.4,2.92s.21,2,.28,2.93a16.48,16.48,0,0,1,0,3v.06l-.06.06a1.87,1.87,0,0,0-.27.79,9.24,9.24,0,0,0-.1.92A5.45,5.45,0,0,0,69.15,78l0,0v0q-.36,5.49-.82,11l-.24,2.74c0,.46-.08.91-.15,1.38s-.15.93-.24,1.38a49.45,49.45,0,0,1-1,5.14l-.07,0-.09,0-4.43.34a.66.66,0,0,0-.62.66v.44l6-.33h.07c1.31.12,2.64.24,4,.33l1,0,.68,0s.17-.72,0-1-1.34,0-2-.07C70.76,100.16,70.34,100.13,69.92,100.07Z"/><path d="M100.37,57.94a16.06,16.06,0,0,0-2.2-1.71,21.66,21.66,0,0,0-3-1.41A11.21,11.21,0,0,1,92.33,53a11.53,11.53,0,0,1-2.16-2.58,27.54,27.54,0,0,0,2.49,2.15,15.18,15.18,0,0,0,2.85,1.57c.5.22,1,.45,1.52.7a9.46,9.46,0,0,1,1.45.9,9,9,0,0,1,1.74,1.75c-.29-.85-.57-1.69-.91-2.5a5.52,5.52,0,0,0-.39-.77.49.49,0,0,0-.09-.1L98.66,54l-.38-.29-1.49-1.18c-.5-.38-1-.77-1.51-1.1s-1-.74-1.56-1.12c-1-.76-2-1.53-3-2.34h0l0,0a18.51,18.51,0,0,0-2.72-2.23c-.49-.36-1-.72-1.48-1.11a17.61,17.61,0,0,0-1.45-1c-2-1.28-4.14-2.51-6.23-3.75l-1.56-.93c-.5-.27-1.07-.51-1.62-.75-1.11-.47-2.25-.92-3.38-1.35s-2.26-.86-3.4-1.33a8.11,8.11,0,0,0-1.71-.54l-.89-.2-.45-.09-.28-.08s-.07,0-.1,0l-.13,0L65,34.45l-.5-.14-1-.28c-.67-.19-1.34-.38-2-.6s-1.33-.43-2-.68a9.82,9.82,0,0,0-1.95-.62A13.57,13.57,0,0,0,53.46,32a11,11,0,0,0-1.94.59c-.64.24-1.28.51-1.91.79a4.93,4.93,0,0,1-2.16.54,3.29,3.29,0,0,1-2.13-.85,7.78,7.78,0,0,1-1.42-1.69,5.61,5.61,0,0,1-.54-1.1c-.11.31-.21.62-.3.92a10.1,10.1,0,0,0-.26,1.42c-.1.94,0,1.94-.18,3a11.72,11.72,0,0,1,.43,1.54,3.82,3.82,0,0,1,.1.9,1.38,1.38,0,0,1-.16.6c.79.7,1.62,1.35,2.47,2a12.57,12.57,0,0,1,2,1.82c.31.34.6.69.89,1a2.47,2.47,0,0,0-.05-.8c0-.27-.1-.53-.13-.8a5.28,5.28,0,0,1,0-.8,5.17,5.17,0,0,1-1.4-.73A6.49,6.49,0,0,1,45.6,39.1a12.31,12.31,0,0,1-1.74-2.85l.06,0A17,17,0,0,0,46,38.72c.39.37,2.09,2.46,3.06.91a1.31,1.31,0,0,1,.35-.3.49.49,0,0,1,.16,0l.1,0,.2,0,.8-.07c.84-.07,1.68-.12,2.52-.17a10.56,10.56,0,0,1-1.37-1L51.76,38l0-.09a3.83,3.83,0,0,1,.58-1,4,4,0,0,1,.87-.73,1.84,1.84,0,0,1,.54-.29l.56-.13c.36-.08.73-.13,1.09-.18.73-.11,1.46-.18,2.18-.27L59.78,35h.08a33.14,33.14,0,0,1,3.44.5,19.36,19.36,0,0,1,3.37.92c1.06.42,2.14.79,3.22,1.17.55.19,1.09.4,1.62.62a5.92,5.92,0,0,1,1.51.85A13.56,13.56,0,0,0,69.79,38c-1.12-.29-2.23-.61-3.32-1a22.71,22.71,0,0,0-3.3-.81c-1.11-.19-2.23-.35-3.35-.47-1.44.18-2.88.28-4.31.41-.37,0-.72.06-1.07.12a4.34,4.34,0,0,0-.52.09,1.17,1.17,0,0,0-.43.2,3.27,3.27,0,0,0-.84.6,3.62,3.62,0,0,0-.56.77c.24.24.5.48.76.7l.49.37c.17,0,.34,0,.5,0a28.88,28.88,0,0,1,3.22,0,2.76,2.76,0,0,1,.45.07l.25.09.15.07a2.94,2.94,0,0,0,.68.16c.47.07,1,.06,1.59.16l.22.06.14,0a1.94,1.94,0,0,0,.35,0c.23,0,.49,0,.76,0a14.42,14.42,0,0,1,1.62,0,6,6,0,0,1,.84.09l.39.08.38.07c.5.07,1,.12,1.54.18l.9.1s.19-.14-.52-.87a8.22,8.22,0,0,0-2-1.59,2.42,2.42,0,0,1,1.12.39,5.59,5.59,0,0,1,1.67,1.59,3.76,3.76,0,0,1,.32.55l1.68.24a14.86,14.86,0,0,1,1.59.31,4.93,4.93,0,0,1,1.62.64h0l0,0c1.16,1.08,2.36,2.12,3.57,3.14a9.9,9.9,0,0,1-.56-.87,5,5,0,0,1-.47-1.17,2.23,2.23,0,0,1,0-1.28c.15.41.72,1.92.91,2.27a14.89,14.89,0,0,1,1,1.75l.12.11c.39.31.78.61,1.18.89l.3.19a2.91,2.91,0,0,0,.3.17l.67.29c.76.31,1.55.59,2.34.85-.69-1.65-1.4-3.29-2.07-5,.92,1.73,1.8,3.5,2.7,5.25l.23.45-.51-.13c-1-.26-1.95-.54-2.91-.88q-.36-.12-.72-.27L78.49,47l-.34-.21c-.44-.28-.85-.57-1.26-.88-1.61-1.21-3.12-2.52-4.63-3.84A4.37,4.37,0,0,0,71,41.6a14.91,14.91,0,0,0-1.51-.29c-1-.16-2.07-.27-3.12-.39l-1.59-.21-.4-.07-.39-.08a5.47,5.47,0,0,0-.72-.08,13.24,13.24,0,0,0-1.54,0h-.82a2.25,2.25,0,0,1-.44,0l-.25-.05-.16,0c-.45-.1-1-.1-1.55-.19a3.87,3.87,0,0,1-.85-.24l-.21-.1-.11,0a2.36,2.36,0,0,0-.33-.07,26.4,26.4,0,0,0-3.11-.13c-1,0-2.09,0-3.15,0l-.78,0H49.6a1,1,0,0,0-.25.2,7.36,7.36,0,0,0-.91,1.21,4.49,4.49,0,0,0,0,.74c0,.26,0,.52.07.78a10,10,0,0,0,.28,1.32l0,0,.2.28a1,1,0,0,1,.12.17,2,2,0,0,1,.36.4l.36.49a5.26,5.26,0,0,0,2.79,2l.13,0,.1.19A11.17,11.17,0,0,0,54.72,50a16.79,16.79,0,0,0,2.41,2.11,21.37,21.37,0,0,0,2.77,1.66,27.55,27.55,0,0,0,2.76,1.13c-.18-.38-.37-.76-.54-1.16.56.74,1.1,1.5,1.63,2.27s1.06,1.55,1.57,2.33c1,1.43,2,2.88,2.89,4.33l.77-.23c-.3-1.23-.58-2.46-.83-3.72l-.19-1,0-.27a2.64,2.64,0,0,1,0-.28v-.54c0-.56,0-1.12,0-1.69l-.21-.11c-.22-.11-.45-.24-.63-.32a3.65,3.65,0,0,0-1.28-.3,13.54,13.54,0,0,1-2.92-.46c.49-.07,1-.11,1.46-.17s1-.11,1.49-.13a3.77,3.77,0,0,1,1.6.23c.27.11.47.22.69.33l.65.31a13.7,13.7,0,0,0,1.28.55,3,3,0,0,0,.61.13c.25,0,.53,0,.77.07a19.55,19.55,0,0,1,2.54.6l3.51-.08-.24-.13a9.74,9.74,0,0,1-1.08-.73,11.26,11.26,0,0,1-1.78-1.87,9,9,0,0,1-1.29-2.27c-.31-.8-.6-1.6-.84-2.42l.07,0c.34.78.69,1.55,1.09,2.3a8.61,8.61,0,0,0,1.39,2c.57.61,1.23,1.13,1.83,1.71l.91.87.46.43.08.07.68,0,1.64-.1c-.14-.07-.28-.14-.41-.22A6.14,6.14,0,0,1,78.63,54a12.38,12.38,0,0,1-1.09-1.44c-.17-.26-.32-.52-.46-.78a3.33,3.33,0,0,1-.36-.84h.07a8,8,0,0,0,1,1.4A12,12,0,0,0,79,53.55c.43.39.93.69,1.36,1.06s.6.47.91.71h0l1.27-.16c.35-.06.7-.1,1-.14a7.36,7.36,0,0,1-.77-.7c-.7-.73-1.3-1.5-2-2.23L81,52c.4.29.78.61,1.16.92s.74.65,1.13.94.8.51,1.17.76l.46.28a13.89,13.89,0,0,1,1.71.08c.45.06.88.15,1.28.19a7.2,7.2,0,0,0,1.22,0c.42,0,.86-.09,1.32-.09a2.65,2.65,0,0,1,1.4.28l.26.19a1.71,1.71,0,0,0,.27.14,4.53,4.53,0,0,0,.59.21c.31.08.63.14.95.19-.47-.33-.95-.67-1.42-1a16.32,16.32,0,0,1-1.79-1.52l0,0a.63.63,0,0,1-.17.24.85.85,0,0,1-.21.14,1.35,1.35,0,0,1-.73.12A2.39,2.39,0,0,1,89,54a8.7,8.7,0,0,1-1.89-.91,17.8,17.8,0,0,1-3.2-2.46c1.19.62,2.37,1.26,3.55,1.82a11.21,11.21,0,0,0,1.77.7,3.92,3.92,0,0,0,.41.07h.2a1.07,1.07,0,0,0-.08-.35,9.54,9.54,0,0,0-.86-1.68c-.33-.57-.7-1.11-1.06-1.66-.75-1.1-1.47-2.21-2.28-3.28a11.39,11.39,0,0,1,1.52,1.34c.46.48.92,1,1.35,1.5s.83,1.06,1.22,1.62a9.65,9.65,0,0,1,1,1.86,2.13,2.13,0,0,1,.12.62,1.1,1.1,0,0,1-.07.41,18.4,18.4,0,0,0,1.9,1.38c.69.46,1.39.91,2.1,1.34s1.43.86,2.14,1.28,1.35.79,2,1.12a2.75,2.75,0,0,1,.94-.4,5.31,5.31,0,0,1,.68-.1A1.55,1.55,0,0,1,100.37,57.94Z"/></svg>