<svg id="Layer_1" data-name="Layer 1" xmlns="http://www.w3.org/2000/svg" width="128" height="128" viewBox="0 0 128 128"><title>Artboard 92</title><path d="M5.7,119.05v-2.18h4.6V122a5.52,5.52,0,0,1-2,1.41,6.09,6.09,0,0,1-2.56.59A5,5,0,0,1,3,123.23a5.27,5.27,0,0,1-1.89-2.3,9.67,9.67,0,0,1,0-7.25A5.26,5.26,0,0,1,3,111.42a4.75,4.75,0,0,1,2.7-.74,4.55,4.55,0,0,1,3,1,4.62,4.62,0,0,1,1.46,2.82L8.05,115a2.76,2.76,0,0,0-.87-1.52,2.3,2.3,0,0,0-1.51-.53A2.68,2.68,0,0,0,3.46,114a5.13,5.13,0,0,0-.84,3.23,5.82,5.82,0,0,0,.91,3.54,2.51,2.51,0,0,0,2.12,1,3.18,3.18,0,0,0,1.3-.3,4,4,0,0,0,1.2-.8v-1.63Z"/><path d="M12.46,123.78V110.9H17a6.3,6.3,0,0,1,2.46.34,2.72,2.72,0,0,1,1.21,1.21,4.12,4.12,0,0,1,.48,2,3.76,3.76,0,0,1-.73,2.43,3.16,3.16,0,0,1-2.06,1.16,5.09,5.09,0,0,1,1.13,1.08,15.38,15.38,0,0,1,1.23,2.1L22,123.78H19.4L17.86,121a17.65,17.65,0,0,0-1.13-1.91,1.65,1.65,0,0,0-.63-.52A2.85,2.85,0,0,0,15,118.4h-.44v5.38Zm2.12-7.44h1.59a8.35,8.35,0,0,0,1.84-.12,1.16,1.16,0,0,0,.64-.52,1.83,1.83,0,0,0,.25-1,1.67,1.67,0,0,0-.25-1,1.26,1.26,0,0,0-.66-.52,9.15,9.15,0,0,0-1.74-.09H14.58Z"/><path d="M23.29,123.78V110.9h7.84v2.18H25.42v2.85h5.31v2.17H25.42v3.5h5.9v2.18Z"/><path d="M42.84,123.78H40.53l-.93-2.92H35.37l-.87,2.92H32.23l4.12-12.88h2.26Zm-3.92-5.1-1.46-4.78L36,118.68Z"/><path d="M45.44,123.78v-10.7H42.3V110.9h8.39v2.18H47.56v10.7Z"/><path d="M52.26,123.78V110.9H60.1v2.18H54.39v2.85H59.7v2.17H54.39v3.5H60.3v2.18Z"/><path d="M62.29,123.78V110.9h4.49a6.3,6.3,0,0,1,2.46.34,2.77,2.77,0,0,1,1.21,1.21,4.12,4.12,0,0,1,.48,2,3.82,3.82,0,0,1-.73,2.43,3.16,3.16,0,0,1-2.06,1.16,5.31,5.31,0,0,1,1.13,1.08,15.38,15.38,0,0,1,1.23,2.1l1.28,2.51H69.23L67.69,121a19.59,19.59,0,0,0-1.13-1.91,1.6,1.6,0,0,0-.64-.52,2.79,2.79,0,0,0-1.07-.15h-.44v5.38Zm2.12-7.44H66a8.35,8.35,0,0,0,1.84-.12,1.2,1.2,0,0,0,.64-.52,1.83,1.83,0,0,0,.25-1,1.67,1.67,0,0,0-.25-1,1.25,1.25,0,0,0-.67-.52,8.93,8.93,0,0,0-1.73-.09H64.41Z"/><path d="M77.4,123.78V110.9h7.84v2.18H79.53v2.85h5.31v2.17H79.53v3.5h5.91v2.18Z"/><path d="M92.34,119.05v-2.18h4.6V122a5.61,5.61,0,0,1-2,1.41,6.09,6.09,0,0,1-2.56.59,5,5,0,0,1-2.76-.77,5.14,5.14,0,0,1-1.89-2.3,8.58,8.58,0,0,1-.7-3.61,8.41,8.41,0,0,1,.71-3.64,5.32,5.32,0,0,1,1.83-2.26,4.77,4.77,0,0,1,2.7-.74,4.16,4.16,0,0,1,4.5,3.78l-2.11.49a2.76,2.76,0,0,0-.87-1.52,2.33,2.33,0,0,0-1.52-.53A2.67,2.67,0,0,0,90.1,114a5.13,5.13,0,0,0-.85,3.23,5.82,5.82,0,0,0,.92,3.54,2.51,2.51,0,0,0,2.12,1,3.14,3.14,0,0,0,1.29-.3,3.88,3.88,0,0,0,1.2-.8v-1.63Z"/><path d="M99.09,123.78V110.9h4.49a6.39,6.39,0,0,1,2.47.34,2.77,2.77,0,0,1,1.21,1.21,4.11,4.11,0,0,1,.47,2,3.82,3.82,0,0,1-.72,2.43,3.18,3.18,0,0,1-2.06,1.16,5.56,5.56,0,0,1,1.13,1.08,14.57,14.57,0,0,1,1.22,2.1l1.29,2.51H106L104.5,121a22,22,0,0,0-1.13-1.91,1.6,1.6,0,0,0-.64-.52,2.79,2.79,0,0,0-1.07-.15h-.44v5.38Zm2.13-7.44h1.58a8.46,8.46,0,0,0,1.85-.12,1.2,1.2,0,0,0,.64-.52,1.91,1.91,0,0,0,.25-1,1.75,1.75,0,0,0-.25-1,1.28,1.28,0,0,0-.67-.52,9,9,0,0,0-1.73-.09h-1.67Z"/><path d="M109.93,123.78V110.9h7.84v2.18h-5.72v2.85h5.31v2.17h-5.31v3.5H118v2.18Z"/><path d="M122.32,123.78v-10.7h-3.13V110.9h8.39v2.18h-3.13v10.7Z"/><path d="M56.66,99.65a16.16,16.16,0,0,1-3-.36c0-.06-1.4-5.5-1.4-5.5l-1.48-6.07q-.74-3-1.41-6.09l-.65-3c-.2-1-.42-2-.53-3.13v-.12l.08-.13a2.6,2.6,0,0,0,.38-1,6.75,6.75,0,0,0,.16-1.11c.06-.77,0-1.54,0-2.34,0-.2,0-.4,0-.62a2.7,2.7,0,0,1,.06-.36l.09-.28.38-1.13.74-2.25,1.54-4.48.77-2.24.38-1.12a3.38,3.38,0,0,1,.18-.44l-.67-.28-.66-.29c0,.17-.12.32-.15.49l-.29.82-.57,1.64c-.39,1.09-.75,2.19-1.16,3.28l-1.2,3.26c-.42,1.09-.82,2.17-1.25,3.25l0,0,0,0a3.65,3.65,0,0,0-.69,1.17,4.73,4.73,0,0,0-.24,1.35A6.39,6.39,0,0,0,46.24,74a7.19,7.19,0,0,0,.39,1.32v.06l2.8,12.17,1.34,6.1.64,3,.32,1.54L52,99.67a28.18,28.18,0,0,0-3.19.9c-.16.19.16.77.16.77l4.27-.61,6.43.63-.24-1a.66.66,0,0,0-.58-.5Z"/><path d="M52.5,54l-.13.33c-.18.44-.36.87-.55,1.3l-.28.65-.06.13,1.18.46,1.14.46c.15-.58.29-1.15.45-1.73v0h0a3.6,3.6,0,0,1,2.07-2.13,2.06,2.06,0,0,1,.35-.12l.3-.11a2.23,2.23,0,0,0,.55-.33c.26-.21.51-.43.78-.64v0h0l.07,0h-.27c-.8,0-1.6,0-2.39,0s-1.58-.09-2.38-.16l-.72-.07c0,.31,0,.63,0,.95a5.9,5.9,0,0,1,0,.72A1.24,1.24,0,0,1,52.5,54Z"/><path d="M20.24,45a3.06,3.06,0,0,0,1,.33,9,9,0,0,0,1.19.13,6.83,6.83,0,0,0,1.17-.82l-1,.32-.6.19.09-.62a4.05,4.05,0,0,1,.27-1,9.22,9.22,0,0,1,.39-.91l.18-.33c-.25.15-.5.29-.76.42a10.39,10.39,0,0,1-1.19.51l-.17.06a.74.74,0,0,1,.16.51,1.55,1.55,0,0,1-.21.58A4.53,4.53,0,0,1,20.24,45Z"/><path d="M90.8,7.15a2.32,2.32,0,0,0,1.28-1.47h0a27.83,27.83,0,0,0-5.24-2.33A9.06,9.06,0,0,0,85.42,3,5.82,5.82,0,0,0,84,3.08,10.59,10.59,0,0,0,81.21,4a9.89,9.89,0,0,0-1.27.72,5,5,0,0,0-.57.43,4.56,4.56,0,0,0-.48.5,12.25,12.25,0,0,0-1.53,2.48,15.22,15.22,0,0,0-1.48,5.63,10.46,10.46,0,0,0,.27,2.89,9.78,9.78,0,0,0,1,2.72A7,7,0,0,0,79,21.54a6.58,6.58,0,0,0,1.23.74,11.11,11.11,0,0,1,1.37.7,1.19,1.19,0,0,1,.51,1.59q-.27.72-.57,1.41a19.73,19.73,0,0,1-1.4,2.7,4,4,0,0,1-.47.63c-.17.18-.35.36-.52.55l-1.07,1.06c-.36.35-.73.69-1.12,1l-.58.48-.31.23a.45.45,0,0,1-.25.12c0,.54,0,1.07,0,1.6-.12-.7-.12-1.41-.19-2.11a8.36,8.36,0,0,0-.39-2,6.18,6.18,0,0,0-1-1.81,12.84,12.84,0,0,0-1.37-1.57,8,8,0,0,0-3.51-2.06,8.14,8.14,0,0,0-2-.24c-.7,0-1.41,0-2.1,0a16.1,16.1,0,0,0-4.11.47l-1,.29q-.52.13-1,.24c-.7.14-1.4.26-2.09.38-1.39.24-2.78.44-4.1.8s-2.65.88-3.95,1.37-2.61,1-3.89,1.59c-.64.29-1.27.58-1.88.9a7.48,7.48,0,0,0-.84.51l-.81.67c-1.09.9-2.21,1.79-3.39,2.58a18.25,18.25,0,0,1-1.87,1.09,17.09,17.09,0,0,1-2,.77,8.66,8.66,0,0,1-2.15.38l-1.07,0a3.47,3.47,0,0,0-1,.13,5.75,5.75,0,0,0-1.79.92c-.28.19-.55.41-.87.61s-.61.37-.92.54c-.63.34-1.26.66-1.9,1-.32.16-.64.3-1,.45a6.63,6.63,0,0,0-.93.44,11.73,11.73,0,0,0-1.68,1.21,5.58,5.58,0,0,0-.71.75,2.24,2.24,0,0,0-.42.73,5.67,5.67,0,0,0,1.07-.23,10.18,10.18,0,0,0,1.2-.45c.3-.14.6-.3.89-.46a4.56,4.56,0,0,1,.27-.39,3.86,3.86,0,0,1,.75-.71,8.81,8.81,0,0,1,1.71-.91c.58-.25,1.16-.47,1.72-.78a8,8,0,0,1-1.52,1.15,12.06,12.06,0,0,0-1.49,1.07,3.42,3.42,0,0,0-.58.63,7.69,7.69,0,0,0-.41.77c-.12.27-.24.55-.34.83,0,.07,0,.13-.07.19l.57-.15c.4-.11.8-.22,1.2-.31l1.31-1.09.68-.59a6.45,6.45,0,0,0,.65-.63,7.07,7.07,0,0,1-1,1.51c-.4.46-.81.91-1.24,1.34l0,0-.08,0-1.22.42a4.51,4.51,0,0,1-.44.54,7.84,7.84,0,0,1-.92.81,10.15,10.15,0,0,1-1,.66l-.24.13a3.32,3.32,0,0,0,1.76.49c.25,0,.69-.2,1.06-.31l1.15-.36,2.29-.68c.75-.23,1.47-.53,2.21-.84,1.46-.62,2.9-1.3,4.37-1.95a32.68,32.68,0,0,1-3.32,2.11c.38.09.77.17,1.14.27a14.51,14.51,0,0,0,1.56.34,2.74,2.74,0,0,0,1.5-.18,11.46,11.46,0,0,0,1.39-.72l1.13-.65-.86,1c-.2.22-.3.47-.21.63a1.07,1.07,0,0,0,.61.42,5.88,5.88,0,0,0,1.79.27A11.85,11.85,0,0,0,42.39,46l.21-.07.22.56s0,0,0,0h0l0,0a1.5,1.5,0,0,0,.38.18,5.68,5.68,0,0,0,1,.18,13.21,13.21,0,0,0,2.18,0,16.05,16.05,0,0,0,2.17-.26,9,9,0,0,0,2-.63L52,45.4l-.77,1.18.52,0a9.28,9.28,0,0,0,1.47-.15,18.77,18.77,0,0,0,2.91-.73A19,19,0,0,0,61.43,43l2.13-1.58-1.71,2a4.86,4.86,0,0,0-.71,1,.49.49,0,0,0,0,.37c0,.05.21.11.4.09a4,4,0,0,0,1.23-.34A9.35,9.35,0,0,0,63.9,44,16.27,16.27,0,0,0,68,40.52a15.14,15.14,0,0,1-1.76,2.08,14.84,14.84,0,0,1-2.13,1.74,9,9,0,0,1-1.2.7,4.67,4.67,0,0,1-1.37.43,1.43,1.43,0,0,1-.41,0,.74.74,0,0,1-.45-.24.71.71,0,0,1-.13-.26,2.3,2.3,0,0,1,0-.26l0-.22,0-.09a15,15,0,0,1-1.39.83,21.35,21.35,0,0,1-2.86,1.25,18.75,18.75,0,0,1-3,.79,9.33,9.33,0,0,1-1.6.16,3.06,3.06,0,0,1-.87-.09,1,1,0,0,1-.28-.11.68.68,0,0,1-.19-.19,11.47,11.47,0,0,1-1.6.43,17.34,17.34,0,0,1-2.27.26,13.64,13.64,0,0,1-2.3-.07A6.24,6.24,0,0,1,43,47.41a2.07,2.07,0,0,1-.61-.31.92.92,0,0,1-.25-.32,12.48,12.48,0,0,1-1.48.29,11.65,11.65,0,0,1-2,.08,6.12,6.12,0,0,1-2-.37,1.51,1.51,0,0,1-.86-.73.86.86,0,0,1,0-.45A6.45,6.45,0,0,1,35,46a3.09,3.09,0,0,1-1.65.1c-.54-.12-1-.29-1.55-.45l-1.15-.38-.74.4a19.43,19.43,0,0,1-2.23,1c-.4.14-.79.25-1.16.37l-1.14.35-1.09.32a3.14,3.14,0,0,0,.75.09c.54,0,1.09,0,1.63-.06,1.09-.08,2.18-.19,3.28-.24l.41,0-.26.34a.3.3,0,0,0-.06.11s0,0,0,0a.61.61,0,0,0,.26.13,3.35,3.35,0,0,0,.8.13,13.8,13.8,0,0,0,1.7,0c.57,0,1.14-.09,1.71-.16a9.52,9.52,0,0,0,1.61-.35l.19-.07.16.14a2.55,2.55,0,0,0,.73.42,8,8,0,0,0,.86.31c.6.18,1.21.34,1.82.49l1.86.44a9.26,9.26,0,0,0,1.8.36,18.77,18.77,0,0,1,1.93.23,14.18,14.18,0,0,1,1.89.52,10,10,0,0,0,1.79.46,14.29,14.29,0,0,0,1.86.13h.06c.75.15,1.54.24,2.32.32s1.57.16,2.35.21,1.57.1,2.35.12c.39,0,.79,0,1.17,0a5.42,5.42,0,0,0,.58-.06,1.64,1.64,0,0,1,.45,0,1.63,1.63,0,0,0,.17-.2,6.55,6.55,0,0,0,.45-.59,3,3,0,0,0,.34-.64,2.42,2.42,0,0,1-.24.7c-.11.23-.24.44-.37.66s-.31.48-.48.72c.66-.21,1.3-.44,1.94-.7A11.61,11.61,0,0,0,63.29,51a5.74,5.74,0,0,0,1.07-.68,16.14,16.14,0,0,0,1.82-1.87c.29-.34.59-.69.92-1a9.7,9.7,0,0,1,1.07-.89A7.94,7.94,0,0,0,70,44.78a10.93,10.93,0,0,0,.71-1.1,9.2,9.2,0,0,1,.82-1.12,13,13,0,0,1,1.94-1.92,8.67,8.67,0,0,1,2.32-1.39,10.84,10.84,0,0,0-2.08,1.66,17.23,17.23,0,0,0-1.72,2A8.43,8.43,0,0,0,71.3,44a13.05,13.05,0,0,1-.7,1.18,7.18,7.18,0,0,1-.89,1.09l-.09.09c0,.13,0,.25,0,.39a5.45,5.45,0,0,0,0,.81,4.59,4.59,0,0,0,.1.82,1.89,1.89,0,0,0,.12.38,1.09,1.09,0,0,0,.23.29,1,1,0,0,0,.72.23,3.78,3.78,0,0,0,.79-.25,11.39,11.39,0,0,0,1.54-.73A21.2,21.2,0,0,0,78.33,44c.77-.85,1.49-1.74,2.17-2.65a29.66,29.66,0,0,0,1.8-2.92q.83-1.5,1.59-3.06c.51-1,1-2.07,1.48-3.11.87-2.1,1.69-4.29,2.46-6.44l.29-.82.13-.4.1-.39a9.07,9.07,0,0,0,.17-1.66,12.92,12.92,0,0,0-.37-3.34,4,4,0,0,0-.67-1.45,1.91,1.91,0,0,0-1.39-.54c-.56,0-1.14,0-1.73-.1a4.11,4.11,0,0,1-1.72-.53,2.65,2.65,0,0,1-1.16-1.39,4.39,4.39,0,0,1-.15-1.76,4.88,4.88,0,0,1,.61-1.65c.15-.25.3-.5.47-.74s.22-.29.34-.43h0a1.17,1.17,0,0,1-.34-.22,2.69,2.69,0,0,1-.5-.57,4.11,4.11,0,0,0,.59.44,1.06,1.06,0,0,0,.31.14.59.59,0,0,0,.32,0c.47-.1,1-.24,1.44-.36A11.91,11.91,0,0,1,86,9.67a3.12,3.12,0,0,1,.44,0l.35,0a5.63,5.63,0,0,0,.71,0,13.1,13.1,0,0,0,2.86-.44l.29-.12A1.06,1.06,0,0,1,91.09,9a3,3,0,0,1,.79,0l.75.13c.16,0,.32,0,.49.09A8.53,8.53,0,0,0,90.8,7.15Zm-5-.55a.82.82,0,1,1,.82-.82A.82.82,0,0,1,85.75,6.6Z"/><path d="M101.3,9.89c-2.54-.6-5.08-1.21-7.58-2a71.51,71.51,0,0,1,7.71,1.38c1.28.3,2.55.62,3.8,1,.4.12,2.55.85,3,1-.48-.21-2.72-1-3.2-1.24-1.37-.57-2.77-1.08-4.17-1.59S98,7.53,96.57,7.1s-2.83-.82-4.25-1.27a2.1,2.1,0,0,1-.52.93,1.41,1.41,0,0,1-.46.3.84.84,0,0,1-.37.09,2.38,2.38,0,0,1,.63.23,5.41,5.41,0,0,1,.72.45,2.43,2.43,0,0,1,1,1.31c.93.1,1.87.18,2.81.26L99,9.64h0c.82.2,1.68.36,2.52.52l2.56.62c.74.13,3.22.66,4,.78-.51-.12-2.6-.73-3-.82Z"/><path d="M61.7,75.21l-.06-.13a5.88,5.88,0,0,0-.16-2.3,4.37,4.37,0,0,0-1.21-2.31s-.18-1-.18-1l-.16-1.2-.31-2.4c-.22-1.59-.44-3.18-.7-4.77-.12-.8-.25-1.59-.41-2.38-.1-.6-.25-1.18-.35-1.78a8.24,8.24,0,0,1-.77.42,5.76,5.76,0,0,1-1,.39h0a8.42,8.42,0,0,1,.33,1.29l1,4.93c.33,1.62.93,4.56,1.21,6a1.58,1.58,0,0,1-.22,1.22,1.93,1.93,0,0,0-.21,1.86,4.6,4.6,0,0,0,1.62,2.13L70.66,97.57a16.51,16.51,0,0,0-3.08.82c-.17.25.28.86.28.86l4-.92s5.26.83,7.14,1.08v-.88a.82.82,0,0,0-.72-.83l-6-.83S62.5,77.05,61.7,75.21Z"/><path d="M56.17,57.1a7.36,7.36,0,0,0,.85-.41c.29-.16.57-.32.84-.49l.42-.26.1-.07h0a.41.41,0,0,1,0-.07l-.08-.24-.17-.48c-.1-.34-.2-.63-.28-1V54c.11-.5.24-1,.4-1.51-.16.21-.33.42-.51.62a2.43,2.43,0,0,1-.56.49l-.34.17-.3.14a3.23,3.23,0,0,0-1,.82,4.28,4.28,0,0,0-.47.77,5.56,5.56,0,0,1,.39.44,2.39,2.39,0,0,1,.5,1,2.86,2.86,0,0,1,.07.28h0Z"/><path d="M56.06,57.2a0,0,0,0,0,0,0v0Z"/></svg>