<svg id="Layer_1" data-name="Layer 1" xmlns="http://www.w3.org/2000/svg" width="128" height="128" viewBox="0 0 128 128"><title>Artboard 97</title><path d="M28.66,123.76V109.44h3.81a12.22,12.22,0,0,1,2.79.2A3.22,3.22,0,0,1,37,111.06a5.19,5.19,0,0,1,.68,2.79,5.3,5.3,0,0,1-.59,2.61,3.39,3.39,0,0,1-1.46,1.47,7.68,7.68,0,0,1-3,.43H31v5.4ZM31,111.86v4.07h1.31a6,6,0,0,0,1.8-.18,1.65,1.65,0,0,0,.77-.67,2.15,2.15,0,0,0,.31-1.19,2.2,2.2,0,0,0-.32-1.21,1.54,1.54,0,0,0-.77-.65,7.11,7.11,0,0,0-2-.17Z"/><path d="M39.81,123.76V109.44h8.71v2.42H42.17V115h5.9v2.41h-5.9v3.88h6.57v2.43Z"/><path d="M51,123.76v-14.2h2.36v11.77h5.9v2.43Z"/><path d="M61.09,123.76V109.44h2.36v14.32Z"/><path d="M73.44,118.49l2.29.89A6.41,6.41,0,0,1,74,122.89,4.48,4.48,0,0,1,70.87,124a4.55,4.55,0,0,1-3.72-1.77,8.55,8.55,0,0,1-1.64-5.51A9,9,0,0,1,67.16,111,4.68,4.68,0,0,1,71,109.2a4.46,4.46,0,0,1,3.31,1.34,5.86,5.86,0,0,1,1.38,2.84l-2.34.69a3.17,3.17,0,0,0-.89-1.78,2.24,2.24,0,0,0-1.58-.62,2.51,2.51,0,0,0-2.13,1.13,6.49,6.49,0,0,0-.82,3.74,7,7,0,0,0,.8,3.85,2.44,2.44,0,0,0,2.08,1.14,2.12,2.12,0,0,0,1.62-.73A4.52,4.52,0,0,0,73.44,118.49Z"/><path d="M88.55,123.76H86l-1-3.25h-4.7l-1,3.25H76.76l4.57-14.32h2.52Zm-4.36-5.67-1.62-5.31L81,118.09Z"/><path d="M90,123.76V109.44h2.3L97.13,119v-9.56h2.21v14.32H97l-4.72-9.34v9.34Z"/><path d="M12.88,12.31V9.88H18v5.71a6.48,6.48,0,0,1-2.19,1.56A6.67,6.67,0,0,1,13,17.8,5.56,5.56,0,0,1,9.89,17a5.69,5.69,0,0,1-2.1-2.56,9.53,9.53,0,0,1-.78-4,9.39,9.39,0,0,1,.79-4,5.83,5.83,0,0,1,2-2.51,5.31,5.31,0,0,1,3-.83A5,5,0,0,1,16.2,4.07a5,5,0,0,1,1.63,3.14l-2.34.54a3,3,0,0,0-1-1.69,2.55,2.55,0,0,0-1.68-.59,3,3,0,0,0-2.45,1.18,5.66,5.66,0,0,0-.94,3.59,6.44,6.44,0,0,0,1,3.93,2.76,2.76,0,0,0,2.35,1.16A3.55,3.55,0,0,0,14.26,15a4.63,4.63,0,0,0,1.33-.89V12.31Z"/><path d="M20.38,17.56V3.24h5a6.91,6.91,0,0,1,2.74.39A3.06,3.06,0,0,1,29.46,5,4.63,4.63,0,0,1,30,7.25a4.27,4.27,0,0,1-.8,2.7,3.54,3.54,0,0,1-2.29,1.29,6,6,0,0,1,1.26,1.2,16.81,16.81,0,0,1,1.35,2.33l1.43,2.79H28.1l-1.71-3.11a20.63,20.63,0,0,0-1.26-2.12,1.84,1.84,0,0,0-.7-.58,3.15,3.15,0,0,0-1.19-.17h-.49v6ZM22.75,9.3H24.5a9.21,9.21,0,0,0,2.06-.14,1.36,1.36,0,0,0,.71-.57,2.15,2.15,0,0,0,.27-1.15,2,2,0,0,0-.27-1.1,1.45,1.45,0,0,0-.74-.57,9.93,9.93,0,0,0-1.93-.1H22.75Z"/><path d="M32.42,17.56V3.24h8.71V5.67H34.78V8.84h5.9v2.41h-5.9v3.89h6.56v2.42Z"/><path d="M54.14,17.56H51.57l-1-3.24H45.85l-1,3.24H42.36L46.93,3.24h2.51ZM49.78,11.9,48.16,6.58,46.57,11.9Z"/><path d="M57,17.56V5.67H53.54V3.24h9.33V5.67H59.39V17.56Z"/><path d="M71,17.56,68.22,3.24h2.43l1.76,9.84,2.15-9.84h2.82l2.06,10,1.82-10h2.38L80.79,17.56H78.26L75.92,6.85,73.59,17.56Z"/><path d="M85.05,17.56V3.24h2.36V8.88h4.66V3.24h2.36V17.56H92.07V11.3H87.41v6.26Z"/><path d="M97,17.56V3.24h2.36V17.56Z"/><path d="M104.48,17.56V5.67H101V3.24h9.32V5.67h-3.47V17.56Z"/><path d="M112.07,17.56V3.24h8.71V5.67h-6.35V8.84h5.9v2.41h-5.9v3.89H121v2.42Z"/><path d="M94.69,43.37l-.12-.14-.16-.17-.33-.33c-.93-.89-1.91-1.74-2.88-2.59-2-1.67-4-3.32-6-5-1-.82-2-1.64-3-2.41S80.05,31.34,79,30.66l-3.31-2.05c-1.1-.67-2.21-1.34-3.28-2.06a5.38,5.38,0,0,1-.86.62,10.66,10.66,0,0,1-1,.47,3.09,3.09,0,0,1-1,.32,2.29,2.29,0,0,1-.64,0,3.27,3.27,0,0,0-.75.78,4.57,4.57,0,0,0-.32.58l.42,0c.34,0,.68,0,1,0a10.23,10.23,0,0,1,2,.38,8.72,8.72,0,0,1,.94.36l.89.37,1.8.73c1.2.5,2.39,1,3.55,1.61.59.29,1.16.59,1.73.93.28.17.56.35.83.54l.79.54C83.88,36.16,86,37.59,88.18,39c1.06.73,2.12,1.47,3.16,2.24.53.38,1,.77,1.55,1.18.25.2.5.41.73.63l.23.23c.1,0,.29,0,.43.09a3.06,3.06,0,0,1,.45.58A1,1,0,0,0,94.69,43.37Zm-1.87-.83c-.52-.38-1-.74-1.59-1.1C90.16,40.72,89.07,40,88,39.33c-2.17-1.39-4.38-2.73-6.56-4.14a33.36,33.36,0,0,0-6.85-3.46L72.78,31l-.91-.38a6.49,6.49,0,0,0-.87-.33,8.72,8.72,0,0,0-1.83-.36,7.25,7.25,0,0,0-.93-.05,3.11,3.11,0,0,0-.85.12l-.7.24.19-.4a2.2,2.2,0,0,0-1,.21,2,2,0,0,0-.91.86A1.28,1.28,0,0,0,65,32a7.44,7.44,0,0,0,.58,1.21c.22.4.46.8.7,1.18s.5.78.75,1.17l.06.08a2.25,2.25,0,0,1-.06-.36.94.94,0,0,1,.4-.89,1.05,1.05,0,0,1,.47-.16,3.34,3.34,0,0,1,.43,0c.58,0,1.14,0,1.69,0A11.25,11.25,0,0,0,71.69,34h.08c1,.3,1.93.67,2.88,1l2.84,1.13c1.87.77,3.75,1.57,5.6,2.4s3.7,1.67,5.53,2.59l.68.38c.22.13.42.24.64.35.45.21.91.4,1.38.59l1.42.5,1,.31a1.54,1.54,0,0,0-.19-.17C93.34,42.93,93.08,42.74,92.82,42.54ZM76,52.58l-.14-.4c-.09-.26-.21-.53-.31-.8-.22-.54-.45-1.07-.68-1.61a58.65,58.65,0,0,0-3.15-6.23c-.59-1-1.22-2-1.82-3L69,39.05l-.46-.74-.24-.38a.36.36,0,0,1,0-.09l0,0L68,37.54,67.49,37c-.31-.36-.61-.72-.91-1.09s-.56-.75-.83-1.14S65.24,34,65,33.55a7.27,7.27,0,0,1-.56-1.34,3.1,3.1,0,0,1-.13-.76,2,2,0,0,1,0-.42,1.07,1.07,0,0,1,.2-.4,2.3,2.3,0,0,1,1.23-.87c.38-.09,1.21-.17,1.21-.17a6.71,6.71,0,0,1,.65-1.2,3.42,3.42,0,0,1,.59-.67,4.32,4.32,0,0,1-1.3-.7,2.74,2.74,0,0,1-.68-.76,2.43,2.43,0,0,1-.33-1l0-.22.22,0a4.68,4.68,0,0,0,1.35-.19c.47-.1.93-.21,1.41-.28a5.34,5.34,0,0,1,1.44-.06,2.4,2.4,0,0,1,.71.19l.13.07a6.3,6.3,0,0,0-.93-.78,6.73,6.73,0,0,0-2.66-1.11,7.35,7.35,0,0,0-2.88,0,6.76,6.76,0,0,0-2.61,1.2,6.52,6.52,0,0,0-1.85,2.16,4,4,0,0,0-.51,2.7,25.56,25.56,0,0,0,1.83,5.5,24.21,24.21,0,0,0,3,4.94A33.89,33.89,0,0,1,68,44.29a12.26,12.26,0,0,1,1.1,2.8c.25,1,.43,1.92.6,2.9a9.39,9.39,0,0,1,.11,3,2.91,2.91,0,0,1-.72,1.51,2.78,2.78,0,0,1-1.53.78l-.19.05-.18-.15a2.93,2.93,0,0,0-1.68-.64,5.25,5.25,0,0,0-1.94.24c-1.37.36-2.72.71-4.07,1.12s-2.68.85-4,1.37a12,12,0,0,0-3.54,2h0l0,0h0c-1.49.81-3,1.5-4.46,2.25-.74.38-1.48.76-2.17,1.17s-1.36.93-2,1.42a17.91,17.91,0,0,0-3.49,3.41,9.5,9.5,0,0,0-1.18,2.11c-.29.67-.54,1.36-.76,2.05.1-.14.21-.27.32-.4a9.73,9.73,0,0,1,.84-.86c.6-.53,1.22-1,1.87-1.49l.41-.29.09.56a.9.9,0,0,0,.32.45,4.05,4.05,0,0,0,.61.41,9.88,9.88,0,0,0,1.45.62,15.16,15.16,0,0,0,3.11.68,4.81,4.81,0,0,0,1.52-.06,1.91,1.91,0,0,0,.34-.1.52.52,0,0,0,.16-.06l.19-.09c.27-.12.53-.22.8-.32a21.2,21.2,0,0,1,3.29-.77l3.29-.52a13.56,13.56,0,0,0,3-1.14,24.51,24.51,0,0,0,2.85-1.54,10.93,10.93,0,0,0,1.32-.94,4.91,4.91,0,0,0,1.09-1.18l.08,0A3.76,3.76,0,0,1,64,66.25a9.14,9.14,0,0,1-1.24,1.17,14.47,14.47,0,0,1-2.91,1.72,11.4,11.4,0,0,1-1.62.54,8.76,8.76,0,0,1-1.69.27,15.52,15.52,0,0,0-6.36,1.55q-.36.16-.72.36l-.17.09-.22.11-.45.16a6.06,6.06,0,0,1-1.78.16,10.43,10.43,0,0,1-3.37-.73,8.17,8.17,0,0,1-1.56-.79,4.67,4.67,0,0,1-.71-.57,2.23,2.23,0,0,1-.32-.48c-.54.33-1.07.67-1.58,1-.31.23-.62.46-.91.72a4,4,0,0,0-.67.75c-.45,1.48-.77,3-1.1,4.52s-.78,3.22-1.12,4.83c-.16.8-.32,1.61-.42,2.43A8.17,8.17,0,0,0,35,85.31a1.57,1.57,0,0,0,.37,1,.64.64,0,0,0,.45.16,1.12,1.12,0,0,0,.49-.24,4.26,4.26,0,0,0,.81-.88,8.45,8.45,0,0,0,.66-1c.1-.18.2-.36.29-.54l.12-.27a.37.37,0,0,1,.2-.26.24.24,0,0,1,.1.19.47.47,0,0,1,0,.16c0,.1-.07.2-.11.3s-.18.39-.28.57-.12.2-.18.3h0c.14,0,.28-.08.41-.12l.83-.31c.54-.21,1.09-.45,1.62-.68,1.09-.47,2.15-1,3.22-1.47s2.13-1,3.18-1.53l1.59-.78c.51-.26,1.07-.54,1.52-.8l.08-.06h.1a8.4,8.4,0,0,0,2-.57,14.79,14.79,0,0,0,1.87-.93,9.7,9.7,0,0,0,1.66-1.24,5.43,5.43,0,0,0,1.2-1.56l.1-.2.22-.06a8.44,8.44,0,0,0,2.26-1c.74-.44,1.46-.92,2.17-1.43,1.41-1,2.79-2.13,4.1-3.27l0,0,0,0a1.36,1.36,0,0,0,.33-.29,4.31,4.31,0,0,0,.32-.4c.22-.27.43-.57.63-.87.39-.59.77-1.21,1.14-1.84a29,29,0,0,0,1.94-3.86,2.78,2.78,0,0,0-.1-2,15.63,15.63,0,0,0-1-1.92,1.11,1.11,0,0,0-.91-.34,6.58,6.58,0,0,0-1.07.11,15.75,15.75,0,0,0-2.1.62,13.7,13.7,0,0,1,2.07-.72,5.24,5.24,0,0,1,1.1-.17,2.32,2.32,0,0,1,.58,0,1,1,0,0,1,.51.32,17.39,17.39,0,0,1,1.09,1.93,4.06,4.06,0,0,1,.29,1.1,2.65,2.65,0,0,1-.11,1.15,29.68,29.68,0,0,1-1.83,4c-.35.64-.71,1.28-1.1,1.91-.2.31-.4.62-.63.92a3.87,3.87,0,0,1-.35.45,2.39,2.39,0,0,1-.43.4c-1.31,1.2-2.66,2.34-4.07,3.42-.71.54-1.44,1.06-2.2,1.53a10,10,0,0,1-2.31,1.1A6.3,6.3,0,0,1,56.58,77a10.75,10.75,0,0,1-1.84,1.33,12.76,12.76,0,0,1-2,.94,8.38,8.38,0,0,1-2.14.52c-.54.3-1,.52-1.53.77l-1.61.75-3.25,1.43c-1.08.46-2.18.9-3.29,1.33l-1.34.49a24.18,24.18,0,0,1-1.49,2.37A.44.44,0,0,1,38,87c1.31-.29,2.59-.64,3.89-1,.75-.2,1.54-.39,2.28-.56a15.34,15.34,0,0,0,2.05-.94c.69-.36,1.39-.72,2.11-1.07.36-.17.73-.33,1.12-.47a3.64,3.64,0,0,1,.65-.16l.3,0,.27,0c.75-.13,1.54-.32,2.34-.38a3.75,3.75,0,0,1,2.12.34c-.06-.32-.11-.64-.16-1a18.93,18.93,0,0,1-.17-2.25,18.66,18.66,0,0,0,.3,2.23c.07.37.14.73.23,1.09h0a6.22,6.22,0,0,0,.3,1,16.83,16.83,0,0,1,2.93-.07A7,7,0,0,1,60,80.69a8.07,8.07,0,0,1,.67-.64c.22-.18.44-.37.65-.57.43-.39.86-.8,1.32-1.18a7.76,7.76,0,0,1,3.2-1.75,5,5,0,0,0,1.5-.65,9.51,9.51,0,0,0,1.39-1,16.28,16.28,0,0,0,2.42-2.42,7.12,7.12,0,0,0,.49-.67,1.93,1.93,0,0,0,.19-.34l.2-.4c.27-.54.54-1,.82-1.56.54-1,1.07-2.07,1.55-3.12a17.69,17.69,0,0,0,1.17-3.21,6.62,6.62,0,0,0,.16-.82l.14-.87.27-1.73a30.84,30.84,0,0,0,.33-3.43A12.16,12.16,0,0,0,76.11,53ZM70.31,24.72a5.46,5.46,0,0,0-1.39.13c-.46.09-.92.22-1.38.35a6.49,6.49,0,0,1-1.21.23,2.36,2.36,0,0,0,.89,1.24,4.44,4.44,0,0,0,1.66.69l.23,0,.28-.09a8.24,8.24,0,0,1,1-.19,9.68,9.68,0,0,0,1.94-.62l-.15-.36L72.08,26l0-.08v0c-.2-.26-.39-.51-.6-.75a2.26,2.26,0,0,0-1.12-.38Zm-1.65,2.05a.67.67,0,1,1,.67-.67A.67.67,0,0,1,68.66,26.77ZM64.48,98.35c-1.64-.34-3.29.81-4.93.45l-.27,0,0-.26L58.52,92c-.22-2.19-.46-4.37-.66-6.56h0a3.67,3.67,0,0,1,.12-.75c0-.12.07-.24.11-.36l.06-.14a15.76,15.76,0,0,0-2.38,0,.55.55,0,0,1,0,.26,2.11,2.11,0,0,1-.09.36,6.22,6.22,0,0,1-.25.68,83.86,83.86,0,0,1,1.84,13.43,1.83,1.83,0,0,0,.94,1.48c1.77,1,5.64,1.6,6.18,1,.21-.22-1.42-1.14-1.42-1.14s2.69.74,2.84.54-1.51-1.32-1.15-1.37,1.79.57,2.13.48A2.15,2.15,0,0,0,68,99.46Zm-8.25-.26a3.78,3.78,0,0,1-.74.07,3.93,3.93,0,0,1-.6-.06,2.91,2.91,0,0,1-.58-.15l-.3-.11,0-.22c-.25-2.18-.51-5.92-1.15-12.23h0v0a5.46,5.46,0,0,1,.24-.88c0-.13.11-.26.17-.39l-.49.06c-.26,0-.53.07-.8.09a9.22,9.22,0,0,1-1.4.05c0,.36-.07.72-.12,1.09.25,1.19,1,6,1.16,7.25.13,1,.27,3.86.42,5.62a1.9,1.9,0,0,0,.56,1.17l.8.8.91.93a1.3,1.3,0,0,0,.94.4c1.43,0,2-.26,3.15-.3a4.2,4.2,0,0,1-1.32-1.32A3.79,3.79,0,0,1,56.23,98.09Zm-2.9-14.52a1.83,1.83,0,0,1,.09-.39,1.38,1.38,0,0,1,.19-.41l-.54.11c-.76.16-1.48.42-2.27.63l-.13,0a1.42,1.42,0,0,1-.05.16.59.59,0,0,1,0,.13,9.05,9.05,0,0,1,1.28-.25A5.41,5.41,0,0,1,53.33,83.57Zm-2.75.27a.5.5,0,0,1,0-.13s0,.08,0,.13Zm-11.35.83c-.27.1-.56.19-.85.27l-.43.11-.23,0h0c-.11.17-.22.33-.34.49a5.59,5.59,0,0,1-.9.92,1.42,1.42,0,0,1-.62.29,1,1,0,0,1-.69-.23,1.41,1.41,0,0,1-.39-.74c-.33.44-.62.91-.92,1.37l-.6,1,.52-.14.92-.25-.53.82c-.26.41-.52.82-.75,1.22a2,2,0,0,0-.1.21h.15L33.6,90l.3-.15c.2-.12.4-.22.59-.35a9.89,9.89,0,0,0,1.09-.87c.71-.63,1.38-1.33,2-2s1.23-1.33,1.86-2Z"/></svg>