<svg id="Layer_1" data-name="Layer 1" xmlns="http://www.w3.org/2000/svg" width="128" height="128" viewBox="0 0 128 128"><title>Artboard 94</title><path d="M15,118.5v-2.42h5.11v5.7A6.18,6.18,0,0,1,18,123.35a6.79,6.79,0,0,1-2.84.65,5.58,5.58,0,0,1-3.06-.85,5.83,5.83,0,0,1-2.11-2.56,9.6,9.6,0,0,1-.78-4,9.48,9.48,0,0,1,.79-4A5.91,5.91,0,0,1,12,110a5.28,5.28,0,0,1,3-.83,5.06,5.06,0,0,1,3.37,1.06A5.11,5.11,0,0,1,20,113.4l-2.34.54a3,3,0,0,0-1-1.69,2.51,2.51,0,0,0-1.68-.58,3,3,0,0,0-2.45,1.17,5.75,5.75,0,0,0-.93,3.59,6.46,6.46,0,0,0,1,3.94A2.81,2.81,0,0,0,15,121.53a3.57,3.57,0,0,0,1.44-.33,4.37,4.37,0,0,0,1.33-.89V118.5Z"/><path d="M22.54,123.76V109.44h5a6.86,6.86,0,0,1,2.73.39,3,3,0,0,1,1.35,1.33,4.68,4.68,0,0,1,.53,2.28,4.27,4.27,0,0,1-.81,2.71A3.6,3.6,0,0,1,29,117.44a5.76,5.76,0,0,1,1.26,1.19A17.24,17.24,0,0,1,31.66,121l1.43,2.8H30.26l-1.72-3.12a16.94,16.94,0,0,0-1.26-2.11,1.8,1.8,0,0,0-.7-.59,3.15,3.15,0,0,0-1.19-.16H24.9v6Zm2.36-8.27h1.76a8.51,8.51,0,0,0,2.05-.14,1.27,1.27,0,0,0,.71-.57,2,2,0,0,0,.28-1.14,1.91,1.91,0,0,0-.28-1.1,1.35,1.35,0,0,0-.74-.57,9.37,9.37,0,0,0-1.92-.11H24.9Z"/><path d="M34.57,123.76V109.44h8.72v2.42H36.94V115h5.9v2.41h-5.9v3.88H43.5v2.43Z"/><path d="M48.79,123.76v-6l-4.3-8.29h2.77L50,115.1l2.72-5.66h2.73l-4.32,8.31v6Z"/><path d="M61.33,123.76V109.44h2.36v5.63h4.66v-5.63h2.36v14.32H68.35V117.5H63.69v6.26Z"/><path d="M73.36,123.76V109.44h8.71v2.42H75.73V115h5.89v2.41H75.73v3.88h6.56v2.43Z"/><path d="M84.5,123.76V109.44h5a6.82,6.82,0,0,1,2.73.39,3,3,0,0,1,1.35,1.33,4.68,4.68,0,0,1,.53,2.28,4.27,4.27,0,0,1-.81,2.71A3.6,3.6,0,0,1,91,117.44a5.76,5.76,0,0,1,1.26,1.19A16.22,16.22,0,0,1,93.62,121l1.43,2.8H92.22l-1.72-3.12a18.88,18.88,0,0,0-1.25-2.11,1.89,1.89,0,0,0-.71-.59,3.12,3.12,0,0,0-1.19-.16h-.49v6Zm2.36-8.27h1.76a8.45,8.45,0,0,0,2-.14,1.27,1.27,0,0,0,.71-.57,2,2,0,0,0,.28-1.14,1.91,1.91,0,0,0-.28-1.1,1.32,1.32,0,0,0-.74-.57,9.37,9.37,0,0,0-1.92-.11H86.86Z"/><path d="M96.05,116.69a10.29,10.29,0,0,1,.75-4.22,5.77,5.77,0,0,1,2-2.46,5.17,5.17,0,0,1,3-.81,5.09,5.09,0,0,1,4.11,1.92,8.38,8.38,0,0,1,1.58,5.48,8.52,8.52,0,0,1-1.68,5.61,5.41,5.41,0,0,1-8,0A8.41,8.41,0,0,1,96.05,116.69Zm2.44-.1a6,6,0,0,0,.94,3.7,2.81,2.81,0,0,0,2.33,1.24,2.77,2.77,0,0,0,2.31-1.23,8.1,8.1,0,0,0,0-7.44,2.79,2.79,0,0,0-2.34-1.19,2.83,2.83,0,0,0-2.36,1.2A6.14,6.14,0,0,0,98.49,116.59Z"/><path d="M109.52,123.76V109.44h2.3l4.81,9.56v-9.56h2.21v14.32h-2.39l-4.72-9.34v9.34Z"/><path d="M90.68,77.66c-.29-.77-.57-1.56-.84-2.34s-.53-1.56-.78-2.35l-.39-1.18-.18-.59a1.46,1.46,0,0,1-.12-.5,2.84,2.84,0,0,1-.19-.56c-.06-.26-.13-.53-.19-.8-.12-.53-.22-1.07-.31-1.61s-.17-1.09-.23-1.65a1.09,1.09,0,0,1,0,.18,12,12,0,0,1-.13,1.33c0,.45-.16.88-.24,1.32a5.39,5.39,0,0,1-.28,1,16.29,16.29,0,0,0,.43,2.48c.22.89.46,1.78.7,2.66q.72,2.63,1.53,5.23a5,5,0,0,0,.63,1.08,1.7,1.7,0,0,0,.84.67.48.48,0,0,0,.17,0l.09,0v0a2.38,2.38,0,0,0-.07-.29,6.92,6.92,0,0,1-.31-1.38l-.1-.93.65.65a.59.59,0,0,0,.17.13.39.39,0,0,0,0-.09l0-.14,0-.06A22.86,22.86,0,0,1,90.68,77.66Zm-3.76-5.23c-.08-.46-.15-.91-.21-1.37q0-.34-.06-.69h0a.93.93,0,0,0-.05.1c0,.08-.07.16-.12.24a1.62,1.62,0,0,1-.35.44.85.85,0,0,1-.28.16.69.69,0,0,1-.35,0,1.15,1.15,0,0,1-.48-.38,7.09,7.09,0,0,1-.86-1.86,1.89,1.89,0,0,1-.81-.45,4.84,4.84,0,0,1-.61-.76c-.31-.47-.55-1-.81-1.43a3.09,3.09,0,0,1-.77-.17,4.29,4.29,0,0,1-.86-.42,3.38,3.38,0,0,1-1.24-1.25,7.29,7.29,0,0,1-1.15-.47,7.06,7.06,0,0,1-1.19-.76,6.66,6.66,0,0,1-1.72-2c-.23-.08-.45-.17-.67-.27,0,.47,0,.93.08,1.4a2.71,2.71,0,0,1,.47.6l.53.76c.36.5.73,1,1.11,1.48s.75,1,1.16,1.4c.21.22.41.44.63.63a1.9,1.9,0,0,0,.63.41l.13,0,.08.1C80,68.93,80.93,70,81.8,71.13l2.61,3.3,1.34,1.65c0,.07.09.15.14.23l.06,0a6.06,6.06,0,0,0,2.27,2.19l0,0c-.28-1.11-.54-2.22-.79-3.34C87.27,74.23,87.08,73.33,86.92,72.43ZM84.86,69.8a4.48,4.48,0,0,0,.43.91.9.9,0,0,0,.32.3A.35.35,0,0,0,86,71a1.43,1.43,0,0,0,.33-.36l.14-.22c0-.07.06-.17.2-.19h0a4.78,4.78,0,0,1,.2-1.31c.06-.44.15-.87.18-1.31a11.38,11.38,0,0,0,.08-1.31c0-.44,0-.87,0-1.31a16,16,0,0,0-.43-2.58,20.25,20.25,0,0,0-.84-2.49l-.5-1.23c-.16-.41-.31-.88-.43-1.28-.28-.83-.61-1.65-.92-2.48-.63-1.65-1.27-3.31-1.8-5-.13-.43-.25-.86-.36-1.3l-.29-1.29a10.64,10.64,0,0,0-1-2.39c-.4-.77-.87-1.53-1.3-2.31s-.83-1.6-1.18-2.42a27.11,27.11,0,0,0-2.34-4.74c-.46-.75-1-1.48-1.48-2.2l-.78-1.08-.39-.54a1.27,1.27,0,0,1-.18-.27.08.08,0,0,1-.1,0l-.13-.07-.23-.16a5.52,5.52,0,0,1-.47-.32c-.31-.23-.6-.47-.88-.72-.56-.5-1.08-1.05-1.63-1.54-.28-.27-.54-.44-.85-.36a1.92,1.92,0,0,1-.62.06,1.09,1.09,0,0,1-.59-.31,2.46,2.46,0,0,0-1.89-.73,2.24,2.24,0,0,0-1,.22,1.59,1.59,0,0,0-.43.26,4.09,4.09,0,0,0-.37.36,4.89,4.89,0,0,0-1.19,1.73,7,7,0,0,0-.29,2.11,8.86,8.86,0,0,0,.22,2.13c.08.35.19.7.27,1.11a3.18,3.18,0,0,1,.05.62,3,3,0,0,1,0,.31l0,.27c-.06.74-.09,1.47-.12,2.21a15.78,15.78,0,0,0,.08,2.18,4.64,4.64,0,0,0,.2,1l.37,1.05c.52,1.4,1,2.79,1.6,4.17a30.43,30.43,0,0,0,1.87,4l0,.06v0a12.1,12.1,0,0,0,.43,1.8,10,10,0,0,0,.69,1.72A3.7,3.7,0,0,0,69,55.88a1.36,1.36,0,0,0,.39.17l.46.11a3.25,3.25,0,0,0,.45.07h0a9.76,9.76,0,0,1-.51-2,15.92,15.92,0,0,1-.18-2.05c0-.69,0-1.37,0-2,.09.68.14,1.36.22,2a19.14,19.14,0,0,0,.33,2,10.52,10.52,0,0,0,.61,1.9,5.12,5.12,0,0,0,1.08,1.61l0,0,0,.09a2.89,2.89,0,0,0,.56.94,1.81,1.81,0,0,0,.18.21,3.91,3.91,0,0,1-.24-.65,9.87,9.87,0,0,1-.4-2.21,15.22,15.22,0,0,1,0-2.24,11.71,11.71,0,0,1,.34-2.2c.05.74.07,1.48.11,2.21s.05,1.46.11,2.19a19.41,19.41,0,0,0,.26,2.15,7,7,0,0,0,.36,1.29l.09.08a5.48,5.48,0,0,0,1.63,1l-.06-.19a7.38,7.38,0,0,1-.25-2,11.21,11.21,0,0,1,.18-2,10.17,10.17,0,0,1,.54-1.94c0,.67-.06,1.34-.1,2s-.06,1.31,0,2a12.35,12.35,0,0,0,.12,1.93c0,.15.05.29.08.43l.08,0,.08.13a6.27,6.27,0,0,0,1.64,1.88,7.42,7.42,0,0,0,1.7,1,6.41,6.41,0,0,1-.68-1.23,6.5,6.5,0,0,1-.37-1,9.05,9.05,0,0,1-.24-1,8.79,8.79,0,0,1-.09-2.11A6.55,6.55,0,0,1,78,56.29c0,.7,0,1.38,0,2.06a16.76,16.76,0,0,0,.22,2,14.81,14.81,0,0,0,.46,2c.13.5.32,1,.5,1.47l.29.11.17.05.07.15a2.8,2.8,0,0,0,1,1.11,2.93,2.93,0,0,0,.7.37,1.82,1.82,0,0,0,.3.11,4.3,4.3,0,0,1-.7-1.23,10,10,0,0,1-.54-1.9,14.37,14.37,0,0,1-.24-2,11.67,11.67,0,0,1,0-2c.3,1.28.5,2.55.75,3.81.11.63.25,1.25.4,1.87a7.3,7.3,0,0,0,.51,1.42l.2,0h.2l.09.15c.31.56.53,1.12.81,1.63a2.19,2.19,0,0,0,1.11,1.13h0c-.09-.42-.17-.84-.23-1.26-.12-.75-.2-1.5-.28-2.25s-.13-1.51-.15-2.27a21.68,21.68,0,0,1,0-2.28,21.61,21.61,0,0,1,.44,2.24c.12.75.2,1.5.28,2.25s.13,1.51.16,2.26c0,.57,0,1.15,0,1.73C84.69,69.34,84.77,69.57,84.86,69.8ZM52.9,5.71l.22,0,.45.07c.29,0,.59.08.88.14h0V6a2.32,2.32,0,0,0,.34.84,3.18,3.18,0,0,0,.67.65,9.89,9.89,0,0,0,1.69.94l.51.23-.56-.06-.83-.1c-.27,0-.55,0-.83,0a8.23,8.23,0,0,0-1.64.17,5.32,5.32,0,0,0-1.5.61,4.23,4.23,0,0,0-.61.51,1.71,1.71,0,0,0-.37.59l.1,0,.19.08.4.17q.39.15.81.27a15.37,15.37,0,0,0,1.66.38,12.71,12.71,0,0,0,3.37.14H58a14.7,14.7,0,0,0,1.75.41,7.3,7.3,0,0,0,1.75,0h.17l0,0,.15-.05.9-.29c.29-.09.57-.2.86-.32s.57-.27.89-.39a2.72,2.72,0,0,1-1.57,1.25,3.68,3.68,0,0,1-1,.18,2.46,2.46,0,0,1,.33.88,1.63,1.63,0,0,1,0,.69.89.89,0,0,1-.58.62,1.22,1.22,0,0,1-.33.07l-.29,0-.55.06-1.09.16a5.85,5.85,0,0,0-2,.65,4.3,4.3,0,0,0-.77.67c-.26.26-.49.53-.73.81a14.77,14.77,0,0,0-3.53,7.82,30.87,30.87,0,0,0-.29,4.4,28.23,28.23,0,0,0,.32,4.4,32.43,32.43,0,0,0,1,4.32c.2.71.42,1.42.66,2.12.12.35.25.7.39,1a5.85,5.85,0,0,0,.35.71c0-.25,0-.51,0-.76,0-.76,0-1.52,0-2.28L55,40.94l.3,2.26c.11.74.22,1.49.36,2.23a18.4,18.4,0,0,0,.52,2.16,14.67,14.67,0,0,0,2.18,3.84,33.91,33.91,0,0,0,2.18,2.64l-.41-3.14c-.1-.71-.17-1.42-.24-2.13a15.53,15.53,0,0,1-.14-2.15,9.36,9.36,0,0,0,.17,1.06l.21,1,.44,2.1c.09.44.17.89.26,1.33a17.26,17.26,0,0,0,2,2.63,34.72,34.72,0,0,0,2.92,2.76l3,2.75c.73.68,1.46,1.38,2.17,2.09L70.31,60c-.16-.63-.32-1.27-.5-1.89l-.26-1-.15-.46-.07-.23s0-.08,0-.13a1.89,1.89,0,0,1-.45-.17,3.89,3.89,0,0,1-1.29-1.48,10.71,10.71,0,0,1-.76-1.78,12.36,12.36,0,0,1-.43-1.82,14.35,14.35,0,0,1-1.11-1.93c-.34-.67-.67-1.35-1-2-.61-1.37-1.18-2.75-1.71-4.15l-.39-1.06A6.08,6.08,0,0,1,62,40.72a15.88,15.88,0,0,1-.1-2.28c0-.75.07-1.5.14-2.26l0-.28a2.11,2.11,0,0,0,0-.25,2.58,2.58,0,0,0,0-.48c-.06-.33-.17-.69-.26-1.07a8.59,8.59,0,0,1-.18-2.31,7.75,7.75,0,0,1,.38-2.3,4.47,4.47,0,0,1,.6-1c.25-.31.52-.58.78-.85a4.5,4.5,0,0,1,.44-.41,2.65,2.65,0,0,1,.55-.3,2.87,2.87,0,0,1,1.19-.23,3.36,3.36,0,0,1,1.18.24,2.77,2.77,0,0,1,.54.28,2.23,2.23,0,0,1,.24.19l.21.21a.72.72,0,0,0,.37.22,1.61,1.61,0,0,0,.5-.05,1,1,0,0,1,.65.1,2.1,2.1,0,0,1,.48.37c.57.52,1.06,1.07,1.61,1.57l.85.73c.14.11.28.23.43.33l.19.14h0l.17.12,0,0a1.93,1.93,0,0,1,.27.3l.41.52L74.48,33c.54.71,1.07,1.43,1.57,2.17a28.24,28.24,0,0,1,2.56,4.71c.36.79.77,1.57,1.21,2.33s.93,1.5,1.37,2.3a11.89,11.89,0,0,1,1,2.53l.3,1.3q.17.64.36,1.26c.5,1.69,1.13,3.34,1.75,5,.3.84.61,1.67.87,2.54.13.45.23.83.39,1.25s.32.82.47,1.25a20.18,20.18,0,0,1,.73,2.44l-.15-.85c-.21-1.06-.46-2.12-.73-3.17-.54-2.1-1.15-4.2-1.78-6.28s-1.49-4.07-2.32-6.07-1.69-4-2.62-6a42.8,42.8,0,0,0-3.33-5.58l-1.82-2.73a24.93,24.93,0,0,0-1.89-2.65,16.73,16.73,0,0,0-2.29-2.32,15.89,15.89,0,0,0-1.3-1,12,12,0,0,0-1.28-.67,8.34,8.34,0,0,0-2.1-.37,13,13,0,0,0-2.16.09,2.52,2.52,0,0,0-.49.13c-.14.07-.29.19-.43.28l-.87.65c-.54.41-1.07.83-1.61,1.26a6.36,6.36,0,0,1-.08.75c-.05.26-.1.52-.16.79l-.19.8a1.67,1.67,0,0,1-.25-.83,3.44,3.44,0,0,1,0-.85,4.73,4.73,0,0,1,.22-.82h0c0-.4,0-.81,0-1.21a4.32,4.32,0,0,1,.16-1.36A2.72,2.72,0,0,1,60.46,23a6.33,6.33,0,0,1,1.13-.75l.62-.29.6-.24A12.22,12.22,0,0,0,64,21.15a12.9,12.9,0,0,0,2.12-1.39A10.64,10.64,0,0,0,67.86,18a5.24,5.24,0,0,0,.61-1,6.52,6.52,0,0,0,.32-1.17,16.58,16.58,0,0,0-.05-5,6.23,6.23,0,0,0-.61-1.67,4.66,4.66,0,0,0-.66-.43,13.07,13.07,0,0,0-1.75-.77c-.6-.22-1.21-.44-1.81-.72a5.6,5.6,0,0,1-.89-.5,1.56,1.56,0,0,1-.2-.16l-.11-.08-.08-.07a.86.86,0,0,0-.33-.14,11,11,0,0,0-1.87-.16c-.32,0-.65,0-1-.07l-.51-.09a2,2,0,0,1-.5-.21c-.6-.36-1-.83-1.55-1.19a3.5,3.5,0,0,0-1.52-.68l-.69.35a10.63,10.63,0,0,0-1.06.74,4.78,4.78,0,0,0-.48.43,2.39,2.39,0,0,0-.23.22c-.06,0-.1.12-.16.17l0,0S52.86,5.71,52.9,5.71Zm3.67-.36a1,1,0,1,1-1,1A1,1,0,0,1,56.57,5.35Zm30,78.12a18.57,18.57,0,0,1-.92-2.38,11.21,11.21,0,0,1-.51-2.5,5,5,0,0,1,.26-2.27c-.21-.23-.46-.49-.68-.74L84,74.8c-.93-1.06-1.86-2.12-2.77-3.19a40.92,40.92,0,0,1-2.54-3.28,2.45,2.45,0,0,1-.79-.51,8.58,8.58,0,0,1-.66-.7c-.41-.48-.77-1-1.13-1.49.09.77.24,1.53.37,2.29a12.48,12.48,0,0,1,.18,2.44,6.74,6.74,0,0,0,.47,2.3,10.29,10.29,0,0,0,.78,1.69,30.21,30.21,0,0,0,2.74,1.94l0,0,0,0a3.23,3.23,0,0,1,.73,1.17,10.53,10.53,0,0,1,.39,1.25,15,15,0,0,0,.69,2.35,4,4,0,0,0,1.44,1.77,10.68,10.68,0,0,0,1.07.57c.37.18.74.35,1.12.49a4.11,4.11,0,0,0,.57.17l.18,0,0-.09C86.71,83.86,86.62,83.67,86.53,83.47Zm-.47-2.53c.11.28.23.56.35.84a10.39,10.39,0,0,0-.17-3.61,4.53,4.53,0,0,0-.86-1.81,5.26,5.26,0,0,0,0,2.2A13.22,13.22,0,0,0,86.06,80.94ZM73.19,99.16a.59.59,0,0,1-.5-.6c0-.6.06-1.59.09-2.14,0-.82.12-1.63.18-2.45l.41-4.88.23-2.45L74,84.22l.8-4.85v-.05l0,0a4.67,4.67,0,0,0,.46-.79,4.39,4.39,0,0,0,.27-.87,3.5,3.5,0,0,0,.07-.65,3.25,3.25,0,0,0-.21-1.15h0v0c-.13-.89-.29-1.8-.45-2.7l-.46-2.71c-.16-.9-.29-1.81-.44-2.72l-.2-1.36-.09-.68,0-.3h-.18c-.32,0-.65,0-1,0h-.06l0,.26.13.67.21,1.34c.14.9.27,1.8.37,2.7s.2,1.8.27,2.71c0,.45,0,.9.06,1.36v.37a5.9,5.9,0,0,1-.07,1v0l0,.05a1.71,1.71,0,0,0-.27.74,6.11,6.11,0,0,0-.09.86,4.94,4.94,0,0,0,.17,1.69v.09c-.22,3.38-.47,6.75-.77,10.12l-.23,2.53c0,.43-.08.84-.13,1.28S72,94,72,94.45c-.18.89-.4,1.77-.65,2.64-.11.36-.21.73-.35,1.08-.64,1.59-4.81,1.56-4.81,1.56v.92l5.67-.3h.05c1.23.11,5.07.37,5.29.37v-1C76.66,99.72,74.25,99.33,73.19,99.16Zm3.13-28.81a12.84,12.84,0,0,0-.06-2.4c-.09-.79-.19-1.59-.22-2.39-.34-.5-.66-1-1-1.52l-.48-.8L74.44,63c0,.54.07,1.07.12,1.6a1.16,1.16,0,0,1,0,.19.76.76,0,0,1-.08.21.66.66,0,0,1-.34.3h-.09l0,.28.11.67.23,1.36.46,2.7L75.18,72c.36.36.72.7,1.1,1s.75.62,1.12.92a7.52,7.52,0,0,1-.65-1.18A5.55,5.55,0,0,1,76.32,70.35ZM72.89,60.1a6.46,6.46,0,0,1-.88-.93,3.17,3.17,0,0,1-.6-1.12,5.23,5.23,0,0,1-1-1.59l-.14,0a3.87,3.87,0,0,1-.49,0l-.29-.06.1.23.19.45.37.92c.24.61.47,1.22.7,1.84A30.08,30.08,0,0,1,72,63.6a9.91,9.91,0,0,1,.17,1v.06h.37c.34,0,.68,0,1,0l.25,0h.13l0,0a0,0,0,0,0,0,0s0,0,0-.06A22.67,22.67,0,0,1,74.26,61,6.09,6.09,0,0,1,72.89,60.1Zm-5.08,3.42v.32s0,.08,0,.12a.94.94,0,0,1-.06.15c.36.42.73.84,1.1,1.24s.94,1,1.42,1.54,1,1,1.43,1.51.73,1,1.09,1.47c-.08-.73-.16-1.46-.26-2.19l-.2-1.34-.1-.67-.06-.29a.55.55,0,0,1-.18,0,.67.67,0,0,1-.41-.28.65.65,0,0,1-.11-.22.5.5,0,0,1,0-.12v-.06a7.85,7.85,0,0,0-.18-.92c-.08-.35-.17-.7-.25-1-.91-.61-1.78-1.26-2.64-1.93l-.56-.45c0,.55,0,1.09,0,1.64v1.55ZM66.52,99.09v-.36l-3.43,0,0-.17s1.28-5.83,2.06-8.72c.2-.71.43-1.45.69-2.15l.76-2.11c.51-1.4,1-2.8,1.54-4.2l.77-2.1.39-1a5.09,5.09,0,0,0,.18-.49,3.86,3.86,0,0,0,.09-.49,3.3,3.3,0,0,0-.06-1,2.05,2.05,0,0,0-.15-.42l0-.07-.12-.18c0-.11-.09-.22-.12-.31a17.15,17.15,0,0,1-.46-2.24c-.13-.74-.24-1.48-.38-2.19l-.43-2.2-.43-2.19-.22-1.09-.12-.55L67,64.57a.23.23,0,0,1,0-.14H67l-.51,0H66l-.24,0-.21,0,0,.22.15.75L66,67l.58,3,.57,3c.18,1,.37,2,.58,3l0,.08,0,.09h0a5,5,0,0,0-.35.91,5.09,5.09,0,0,0-.18,1,6.39,6.39,0,0,0,0,1,4.62,4.62,0,0,0,.14.94l0,.09,0,.09L66,84.74c-.42,1.55-.86,3.09-1.3,4.64s-1,3.08-1.57,4.6c-.37,1-1,2.87-1.37,4A5,5,0,0,1,58,100.1l-5,0a.73.73,0,0,0-.73.72v.44c2.45-.09,3.74.07,6.19,0l4.12-1.37h0c.55,0,1.1.11,1.65.18l.82.12.41.07h0v-.86l.32,0,.79-.09A.57.57,0,0,0,66.52,99.09ZM58.65,5.3a2.26,2.26,0,0,0,.85.19c.31,0,.63,0,1,0a9.76,9.76,0,0,1,2,.14,1.41,1.41,0,0,1,.55.25l.19.16.17.14a6.06,6.06,0,0,0,.79.46c.56.29,1.17.52,1.76.8a10.65,10.65,0,0,1,1.72.94,1.84,1.84,0,0,1,.22.17l0-.08a12.36,12.36,0,0,0-1.56-2,7.27,7.27,0,0,0-.93-.83c-.33-.25-.7-.49-1.06-.72A14.83,14.83,0,0,0,62,3.73,8.74,8.74,0,0,0,59.58,3a7.73,7.73,0,0,0-2.53.18,8.19,8.19,0,0,0-1.58.54,3.58,3.58,0,0,1,1.56.5C57.61,4.58,58.12,5,58.65,5.3Zm6.59,52.85c-.5-.45-1-.91-1.5-1.4S63,56,62.66,55.55c.3.93.56,1.88.84,2.81.21.65.39,1.32.61,2s.41,1.3.67,1.93c.11.31.24.62.37.93l.22.45.06.11h1l.54.06.13,0h.09v-.07l0-.26.06-.51.13-1c.09-.56.17-1.12.27-1.68l-1-.77L66,58.81C65.74,58.58,65.51,58.37,65.24,58.15ZM39.91,8.88c1.31,0,2.63,0,4,0,2.62,0,5.25.12,7.87.39A4.35,4.35,0,0,1,52.16,9a5,5,0,0,1,1.61-.61,7.58,7.58,0,0,1,1.71-.12c.28,0,.56,0,.85,0h0a5.15,5.15,0,0,1-1-.59A2.94,2.94,0,0,1,54.59,7a1,1,0,0,1-.18-1,8.24,8.24,0,0,1-.86,0l-.45,0-.23,0s-.07,0-.11,0a.46.46,0,0,0-.07-.07l-.14,0-.27,0-.54.1-1.08.21-2.15.43-4.3.85L36.79,9l1.14,0Zm11.81.4c-2.63.18-5.25.21-7.87.17-1.32,0-2.64,0-4-.12s-2.34-.14-3.51-.3h0c.28.11.57.22.85.31a13.31,13.31,0,0,0,1.63.39,12,12,0,0,0,1.69.18,15.69,15.69,0,0,0,1.68,0h.05c1.47.1,2.95.11,4.43.12h2.23a19.19,19.19,0,0,1,2.12.11A2.46,2.46,0,0,1,51.72,9.28Z"/></svg>