<svg id="Layer_1" data-name="Layer 1" xmlns="http://www.w3.org/2000/svg" width="128" height="128" viewBox="0 0 128 128"><defs><style>.cls-1{fill:#2d2d2d;}</style></defs><title>Artboard 4</title><path d="M43.17,118.49l2.3.89a6.48,6.48,0,0,1-1.79,3.51A4.48,4.48,0,0,1,40.6,124a4.55,4.55,0,0,1-3.72-1.77,8.55,8.55,0,0,1-1.64-5.51A9,9,0,0,1,36.89,111a4.68,4.68,0,0,1,3.86-1.79,4.46,4.46,0,0,1,3.31,1.34,6,6,0,0,1,1.39,2.84l-2.35.69a3.17,3.17,0,0,0-.89-1.78,2.24,2.24,0,0,0-1.58-.62,2.51,2.51,0,0,0-2.13,1.13,6.57,6.57,0,0,0-.82,3.74,7,7,0,0,0,.8,3.85,2.45,2.45,0,0,0,2.08,1.14,2.12,2.12,0,0,0,1.62-.73A4.52,4.52,0,0,0,43.17,118.49Z"/><path d="M47.7,123.76V109.44h5a6.86,6.86,0,0,1,2.73.39,3,3,0,0,1,1.35,1.33,4.68,4.68,0,0,1,.53,2.28,4.27,4.27,0,0,1-.81,2.71,3.62,3.62,0,0,1-2.29,1.29,5.76,5.76,0,0,1,1.26,1.19A17.24,17.24,0,0,1,56.82,121l1.42,2.8H55.42l-1.72-3.12a20,20,0,0,0-1.26-2.11,1.8,1.8,0,0,0-.7-.59,3.15,3.15,0,0,0-1.19-.16h-.49v6Zm2.36-8.27h1.76a8.51,8.51,0,0,0,2-.14,1.27,1.27,0,0,0,.71-.57,2.14,2.14,0,0,0,.28-1.14,2,2,0,0,0-.28-1.1,1.35,1.35,0,0,0-.74-.57,9.37,9.37,0,0,0-1.92-.11H50.06Z"/><path d="M70.32,123.76H67.75l-1-3.25H62l-1,3.25H58.53l4.57-14.32h2.51ZM66,118.09l-1.62-5.31-1.59,5.31Z"/><path d="M71.79,123.76V109.44h2.3L78.9,119v-9.56h2.2v14.32H78.72L74,114.42v9.34Z"/><path d="M83.8,123.76V109.44h8.72v2.42H86.17V115h5.9v2.41h-5.9v3.88h6.56v2.43Z"/><path d="M7.23,11.38V9.2h4.6v5.13a5.87,5.87,0,0,1-2,1.41,6.07,6.07,0,0,1-2.56.58,5,5,0,0,1-2.76-.76,5.22,5.22,0,0,1-1.89-2.31A8.55,8.55,0,0,1,2,9.64,8.37,8.37,0,0,1,2.66,6,5.32,5.32,0,0,1,4.49,3.75,4.81,4.81,0,0,1,7.2,3a4.52,4.52,0,0,1,3,1,4.61,4.61,0,0,1,1.47,2.83l-2.11.48a2.76,2.76,0,0,0-.87-1.52A2.3,2.3,0,0,0,7.2,5.22,2.71,2.71,0,0,0,5,6.28a5.17,5.17,0,0,0-.84,3.23,5.78,5.78,0,0,0,.91,3.54,2.51,2.51,0,0,0,2.12,1,3.29,3.29,0,0,0,1.29-.29,4.27,4.27,0,0,0,1.2-.8V11.38Z"/><path d="M14,16.1V3.22h4.5a6.33,6.33,0,0,1,2.46.35,2.74,2.74,0,0,1,1.21,1.2,4.14,4.14,0,0,1,.47,2.05,3.87,3.87,0,0,1-.72,2.44,3.25,3.25,0,0,1-2.06,1.16A5.52,5.52,0,0,1,21,11.49a14.57,14.57,0,0,1,1.22,2.1l1.29,2.51H20.93l-1.54-2.8a19,19,0,0,0-1.13-1.9,1.64,1.64,0,0,0-.64-.53,2.83,2.83,0,0,0-1.07-.14h-.44V16.1Zm2.13-7.43h1.58a7.58,7.58,0,0,0,1.85-.13A1.14,1.14,0,0,0,20.18,8a1.94,1.94,0,0,0,.25-1,1.81,1.81,0,0,0-.25-1,1.22,1.22,0,0,0-.67-.51,7.89,7.89,0,0,0-1.73-.1H16.11Z"/><path d="M24.82,16.1V3.22h7.84V5.4H26.94V8.26h5.31v2.17H26.94v3.49h5.91V16.1Z"/><path d="M37.61,16.1V10.68L33.74,3.22h2.5l2.48,5.09,2.45-5.09h2.45L39.74,10.7v5.4Z"/><path d="M55.65,11.37l2.07.8a5.8,5.8,0,0,1-1.61,3.16,4,4,0,0,1-2.77,1A4.1,4.1,0,0,1,50,14.73a7.68,7.68,0,0,1-1.47-5A8.06,8.06,0,0,1,50,4.62,4.22,4.22,0,0,1,53.48,3a4,4,0,0,1,3,1.21A5.26,5.26,0,0,1,57.7,6.77l-2.11.62a2.83,2.83,0,0,0-.8-1.61,2.06,2.06,0,0,0-1.43-.56,2.27,2.27,0,0,0-1.91,1,5.9,5.9,0,0,0-.74,3.37,6.23,6.23,0,0,0,.72,3.46,2.2,2.2,0,0,0,1.88,1,1.94,1.94,0,0,0,1.45-.65A4.15,4.15,0,0,0,55.65,11.37Z"/><path d="M59.73,16.1V3.22h4.49a6.26,6.26,0,0,1,2.46.35,2.69,2.69,0,0,1,1.21,1.2,4.14,4.14,0,0,1,.48,2.05,3.87,3.87,0,0,1-.73,2.44,3.25,3.25,0,0,1-2.06,1.16,5.05,5.05,0,0,1,1.13,1.07,15.38,15.38,0,0,1,1.23,2.1l1.28,2.51H66.67l-1.54-2.8A19,19,0,0,0,64,11.4a1.68,1.68,0,0,0-.63-.53,2.89,2.89,0,0,0-1.08-.14h-.44V16.1Zm2.12-7.43h1.59a7.54,7.54,0,0,0,1.84-.13A1.14,1.14,0,0,0,65.92,8a1.85,1.85,0,0,0,.25-1,1.73,1.73,0,0,0-.25-1,1.19,1.19,0,0,0-.67-.51,7.82,7.82,0,0,0-1.73-.1H61.85Z"/><path d="M70.12,9.74A9.21,9.21,0,0,1,70.8,6a5.16,5.16,0,0,1,1.78-2.22A4.67,4.67,0,0,1,75.24,3a4.59,4.59,0,0,1,3.7,1.73,7.58,7.58,0,0,1,1.43,4.93,7.75,7.75,0,0,1-1.51,5.06,4.89,4.89,0,0,1-7.23,0A7.55,7.55,0,0,1,70.12,9.74Zm2.2-.09A5.5,5.5,0,0,0,73.16,13a2.53,2.53,0,0,0,4.18,0,5.68,5.68,0,0,0,.83-3.39,5.49,5.49,0,0,0-.81-3.31,2.48,2.48,0,0,0-2.1-1.08A2.56,2.56,0,0,0,73.13,6.3,5.62,5.62,0,0,0,72.32,9.65Z"/><path d="M83.72,16.1,81.19,3.22h2.19L85,12.07l1.93-8.85h2.55l1.85,9,1.63-9h2.15L92.5,16.1H90.23L88.12,6.47,86,16.1Z"/><path d="M96.35,16.1V3.22h2.08l4.32,8.6V3.22h2V16.1h-2.15L98.34,7.7v8.4Z"/><path d="M107.17,16.1V3.22H115V5.4H109.3V8.26h5.3v2.17h-5.3v3.49h5.9V16.1Z"/><path d="M117.17,3.22h3.89a5.78,5.78,0,0,1,2.23.33,3.73,3.73,0,0,1,1.38,1.11,5.75,5.75,0,0,1,1,2,11.37,11.37,0,0,1,.36,3.1,10,10,0,0,1-.38,2.91,5.72,5.72,0,0,1-1,2,3.7,3.7,0,0,1-1.4,1.09,5.3,5.3,0,0,1-2.11.36h-4ZM119.3,5.4v8.52h1.6a4.15,4.15,0,0,0,1.49-.19,1.82,1.82,0,0,0,.76-.58,3.29,3.29,0,0,0,.48-1.24,10.13,10.13,0,0,0,.2-2.22,10.18,10.18,0,0,0-.2-2.25,3,3,0,0,0-.61-1.3,2,2,0,0,0-1-.63,9.05,9.05,0,0,0-1.73-.11Z"/><path class="cls-1" d="M87.05,33.34a7.51,7.51,0,0,0-1-.81c-.37-.24-1.32-.82-1.7-1s-.68-.33-1-.48a2.93,2.93,0,0,1-1.06-.34c-.13-.06-.24-.13-.36-.2a.58.58,0,0,1-.12.29,1.25,1.25,0,0,1,.41.28,1.33,1.33,0,0,1,.24.36,1.46,1.46,0,0,1,.1.46c0,.06,0,.12,0,.18q.6.12,1.2.27c.41.1,1.38.56,1.8.7l.64.2a4.79,4.79,0,0,1,.56.26,6.7,6.7,0,0,1,.9.6h0A2.69,2.69,0,0,0,87.05,33.34Z"/><path class="cls-1" d="M71,99.69c-.35-.18-1.4-.46-1.53-.88-1-3.16-4.32-13.52-4.32-14.14v-.08l.13-.54a2.12,2.12,0,0,0,0-1.27c-.06-.22-.14-.45-.22-.69a5.64,5.64,0,0,1-.42-1.91c0-.88.29-7.7.33-8.64h-.66a.23.23,0,0,1,0,.12c0,.27-.15,6.69-1.06,9.7.24,1.2,1.37,4.65,2.28,7.44.59,1.83,1.11,3.42,1.24,4,1.62,6.58,1.31,6.26.77,6.71a6,6,0,0,1-.51.37c-.28.19-2,.64-2.35.81-.06,0,.28.56.21.59.12,0,2.07-1,2.37-1s.62-.15.92-.24l.07,0,0,0a8.52,8.52,0,0,0,1.7.51c.58.1,4.64.81,5.19.79l-.34-1.07C74.48,100.08,71.4,99.9,71,99.69Z"/><path class="cls-1" d="M82.42,32.58a2.41,2.41,0,0,1-.13.41h0l.24-.06.15,0h.15c.37,0,2.79.66,3.11.73s.51.14.76.22l-4.24-1.67A2.9,2.9,0,0,1,82.42,32.58Z"/><path class="cls-1" d="M82.59,30.1a11.45,11.45,0,0,1,.84.86c.31.1.62.21.92.33a1.52,1.52,0,0,0,.52-1.2,4.34,4.34,0,0,0-.27-1.39,2.56,2.56,0,0,0-2-1.49,3,3,0,0,0-2.09.45,3.36,3.36,0,0,0,1.09,1.7l.49.34Z"/><path class="cls-1" d="M80.57,34.51a.65.65,0,0,0-.39.23,1.3,1.3,0,0,0-.2.55,2.76,2.76,0,0,0,0,.57,2.65,2.65,0,0,0,.1.55,5.54,5.54,0,0,0,.25.68c0-.16-.06-.32-.1-.48a4,4,0,0,1-.06-1.14A1.66,1.66,0,0,1,80.57,34.51Z"/><path class="cls-1" d="M80.84,37.53a4.06,4.06,0,0,0,.43.86h0a.65.65,0,0,0,.45-.16.66.66,0,0,0,.15-.45,1.11,1.11,0,0,0-.13-.49,4.85,4.85,0,0,0-.35-.48,4.58,4.58,0,0,1-.69-1.07,1.74,1.74,0,0,1-.08-.67,1.15,1.15,0,0,1,.16-.58h-.16a1.65,1.65,0,0,0-.29,1,3.22,3.22,0,0,0,.18,1C80.64,36.84,80.75,37.21,80.84,37.53Z"/><path class="cls-1" d="M81.81,32.59a3.28,3.28,0,0,1-.1-.7,2,2,0,0,0-.07-.49l-.12-.46a.47.47,0,0,1-.17,0,.53.53,0,0,1-.51-.55A.56.56,0,0,1,81.1,30a2.64,2.64,0,0,1-.48-.62l-.25.07a4.34,4.34,0,0,1-.52.09,3,3,0,0,1-.53,0,2.46,2.46,0,0,1-.57-.06l-.53.95c.18.46.32.92.49,1.34a3,3,0,0,0,.29.59.43.43,0,0,0,.07.1l.09.08a2.07,2.07,0,0,0,.25.19,2,2,0,0,0,.53.26,1.43,1.43,0,0,0,.28.07h.35a3.43,3.43,0,0,1,.75.16l.27.09.21-.14.2-.09A2.62,2.62,0,0,1,81.81,32.59Z"/><path class="cls-1" d="M63.76,68.8c.1.39.19.77.28,1.15,0,.2.09.39.12.59l0,.25,1.07-.07c.07-.41.15-.82.23-1.23A12.78,12.78,0,0,1,66,68a3.59,3.59,0,0,1,.38-.76,1.49,1.49,0,0,1,.3-.31l.3-.25c.18-.15.38-.29.56-.43a25.38,25.38,0,0,1-2.89.38c-.5,0-.75,0-1.25,0C63.61,67.34,63.58,68.07,63.76,68.8Z"/><path class="cls-1" d="M54.33,70.59c-.28.1-.57.19-.85.26L54,71l.55.08a1.49,1.49,0,0,0,.36,0c.23-.19.49-.44.73-.66l.81-.75.3-.26-.5.31A11.49,11.49,0,0,1,54.33,70.59Z"/><path class="cls-1" d="M64.57,66.16a25.06,25.06,0,0,0,3.23-.69,28.92,28.92,0,0,0,3.08-1.12,19.36,19.36,0,0,0,2-.95l.29-.34a10.15,10.15,0,0,0,1-1.51c.15-.26.3-.52.43-.8-.44.41-.91.78-1.38,1.14a10.87,10.87,0,0,1-2.34,1.39,12.17,12.17,0,0,0,2.22-1.56c.23-.2.46-.4.69-.62-.61.32-1.23.59-1.87.85a20.85,20.85,0,0,1-2.57.84,13.38,13.38,0,0,1-5.38.38L62.62,63l1.43-.17a9.83,9.83,0,0,0,1.58-.39c.52-.16,1.05-.34,1.57-.54a23.32,23.32,0,0,0,3-1.32,18.31,18.31,0,0,0,2.69-1.93A7.26,7.26,0,0,0,74,57.41c.08-.13.16-.24.24-.38l-.21.14a9.72,9.72,0,0,1-1.18.67,4.45,4.45,0,0,1-1.37.41,4.63,4.63,0,0,1-1.4-.11L69,57.9l1-.5a9.78,9.78,0,0,0,1.33-.77,6.07,6.07,0,0,0,1.13-1,8.48,8.48,0,0,0,1.18-1.89,13.32,13.32,0,0,1-1.51.86,24.12,24.12,0,0,1-2.5,1c-.07.06-.12.13-.19.19h0c-.24.24-.5.46-.76.68a12.86,12.86,0,0,1-1.21.88,9.91,9.91,0,0,1-1.31.73,6.64,6.64,0,0,1-1.3.44,4.73,4.73,0,0,1-.68,1.25A12.65,12.65,0,0,1,63,61.09a24.22,24.22,0,0,1-2.71,2.26c-.95.7-1.93,1.34-2.92,2a18.55,18.55,0,0,1-3.07,1.58c-1,1-2,1.88-3,2.75-.28.24-.57.47-.86.69a4.62,4.62,0,0,0,.77.1c.33,0,.67,0,1,0a10.9,10.9,0,0,0,2-.23,6.93,6.93,0,0,0,1.93-.76,6.68,6.68,0,0,0,1.61-1.34l0,0h.11a2,2,0,0,0,.54-.25L59,67.5c.39-.21.74-.48,1.12-.71s.75-.45,1.13-.67a11.25,11.25,0,0,0,1.14-.7h0a0,0,0,0,1,.06,0v0a3,3,0,0,1-.64,1A23.32,23.32,0,0,0,64.57,66.16Z"/><path class="cls-1" d="M85.09,43.89a10.43,10.43,0,0,0-.44-1.41,29.24,29.24,0,0,0-2.44-4.54.82.82,0,0,1-.3.52.86.86,0,0,1-.66.14h0a1.94,1.94,0,0,1-.44-.47c-.13-.16-.25-.34-.37-.51a6.07,6.07,0,0,1-.65-1.08,1.83,1.83,0,0,1-.15-.67,1.76,1.76,0,0,1,.14-.65,1.69,1.69,0,0,1,.36-.55,1,1,0,0,1,.57-.22h.15l.23-.47a2.27,2.27,0,0,1,.22-.32l-.68.07-.07,0-.07,0-.23,0a1.6,1.6,0,0,1-.44,0,2.21,2.21,0,0,1-.79-.33,2.85,2.85,0,0,1-.32-.27A1.08,1.08,0,0,1,78.5,33a.8.8,0,0,1-.13-.21,2.63,2.63,0,0,1-.24-.82,4.55,4.55,0,0,1,0-1.38l-.2.35a10,10,0,0,0-.72,1.53,4.39,4.39,0,0,0-.16,1.6,3.25,3.25,0,0,0,.21.76,7.91,7.91,0,0,0,.3.78,11.87,11.87,0,0,0,1.84,2.78,15.33,15.33,0,0,1,1.94,3A8,8,0,0,1,82,43.16a4.74,4.74,0,0,1,0,2,4.5,4.5,0,0,1-.76,1.77,2.71,2.71,0,0,1-1.56,1,11,11,0,0,1-3.43,0c-1.12-.14-2.23-.33-3.33-.51a5.62,5.62,0,0,0-1.42-.06l-.64.31c-.35.18-.7.36-1,.56a11,11,0,0,0-1,.64l-.22.17a7.21,7.21,0,0,1,1.91.13,4.67,4.67,0,0,1,1.37.51,2.1,2.1,0,0,1,.62.55,1.33,1.33,0,0,1,.25.94,1.64,1.64,0,0,1-.34.83c-.13.19-.26.37-.4.55l-.81,1.1c-.27.37-.56.74-.85,1.09a10.26,10.26,0,0,1-.69.79c.76-.36,1.67-.78,2.35-1.19a12.82,12.82,0,0,0,1.09-.72,7.33,7.33,0,0,0,1-.84l.74-.79L74.47,53a10.72,10.72,0,0,1-1.52,3,7,7,0,0,1-1.5,1.39,3.23,3.23,0,0,0,1.09-.35c.37-.18.75-.39,1.11-.61a9.17,9.17,0,0,0,1-.72l.53-.45.08.66a.81.81,0,0,1,0,.35,1.09,1.09,0,0,1,0,.26,3,3,0,0,1-.16.48,5,5,0,0,1-.49.81,7.94,7.94,0,0,1-1.24,1.28,16.5,16.5,0,0,1-2.86,1.93,22.92,22.92,0,0,1-3.14,1.27c-.53.17-1.07.34-1.61.48l-.4.11a14.45,14.45,0,0,0,4-.36,19.94,19.94,0,0,0,2.58-.75,21,21,0,0,0,2-.8,13.49,13.49,0,0,0,1.16-1.23l.63-.75-.31,1a10.66,10.66,0,0,1-.73,1.74q.31-.36.6-.75c.6-.79,1.13-1.62,1.7-2.46l.93-1.4-.29,1.69c-.13.72-.29,1.4-.48,2.08-.06.21-.12.42-.19.62A9.88,9.88,0,0,0,78,60.37,13.17,13.17,0,0,0,79.7,57.8l1-1.94L80.42,58A13,13,0,0,1,79,62.11c-.22.42-.44.84-.68,1.24.3-.31.59-.62.87-1,.44-.5.84-1.06,1.27-1.58a50.9,50.9,0,0,0,3.26-6.59,28.69,28.69,0,0,0,.91-2.9,20.2,20.2,0,0,0,.61-3,13,13,0,0,0,0-3A12.14,12.14,0,0,0,85.09,43.89Z"/><path class="cls-1" d="M54,71.61l-.12,0a6.31,6.31,0,0,1-.64-.31.48.48,0,0,1-.07.21c-.39.55-3.8,5.39-4.16,5.8,0,0-.1.1-.15.17a4.21,4.21,0,0,0-1.25,2.25v.06c-.32,1.17-4.61,13.82-5.18,14.83-.2.36-1.28.74-1.68,1A4.88,4.88,0,0,1,39,95.9s-.06.91-.06.95a16.35,16.35,0,0,1,1.64-.71l.24,0,.13.1a.83.83,0,0,1,.13.14l.06.11a1.11,1.11,0,0,1,.07.16c0,.1.06.19.08.28l.13.5a5.28,5.28,0,0,0,.34.94A3.64,3.64,0,0,0,43,99.8a24.49,24.49,0,0,0,3.31,1.5A1.55,1.55,0,0,0,46,99.9a18.49,18.49,0,0,1-2.94-.9,4.6,4.6,0,0,1-1.22-1.23,2.89,2.89,0,0,1,0-.88l0-.16.06-.06c1.19-1.47,5.69-14,5.9-14.38l0-.08.06,0a6.92,6.92,0,0,0,1.67-1.92,2,2,0,0,0-.09-.42,2,2,0,0,1,0-1.44C49.77,77.71,53.08,72.94,54,71.61Z"/><path class="cls-1" d="M39.84,77.45l.13-.17.27-.33.53-.64c.36-.44.72-.87,1.09-1.3.68-.81,1.38-1.62,2.09-2.42a1.35,1.35,0,0,1-.34-.47,3,3,0,0,1-.18-.72,6.3,6.3,0,0,1,0-1.44,13.17,13.17,0,0,1,.74-2.67c.31-.87.64-1.72,1-2.56s.66-1.49,1-2.21h0c-.79,1.17-1.48,2.39-2.22,3.6s-1.61,2.52-2.4,3.8S40,72.49,39.19,73.79L38,75.72l-.58,1-.29.49-.19.31.11,0a5.09,5.09,0,0,0,1.47.39,1.46,1.46,0,0,0,1.2-.34Z"/><path class="cls-1" d="M41,69.58a45,45,0,0,1,2.29-3.92c.44-.62.88-1.24,1.36-1.81a11.65,11.65,0,0,1,1.07-1.15c-.12,0-.24.08-.37.12-.32.1-.63.16-1,.23l-.37.07c-.82,1.08-1.63,2.13-2.42,3.21S40,68.47,39.17,69.57s-1.53,2.25-2.26,3.4c-.65,1-1.25,2-1.87,3l0,.44a1.49,1.49,0,0,0,.23.57,1.53,1.53,0,0,0,.43.48,1,1,0,0,0,1,.08l.06,0,2-3.92C39.57,72.24,40.28,70.9,41,69.58Z"/><path class="cls-1" d="M48.73,71.25c.25-.18.49-.38.73-.59.52-.45,1-.91,1.52-1.39,1-1,2-2,2.9-3l0,0,.07,0,3-1.62c1-.53,2-1.12,3-1.75a26.29,26.29,0,0,0,2.79-2,12,12,0,0,0,1.25-1.22,4.68,4.68,0,0,0,.66-1,2.25,2.25,0,0,1-.41.25l-.58.25c-.39.14-.77.27-1.16.37a20.89,20.89,0,0,1-2.35.5c-.79.1-1.58.2-2.38.24-.4,0-.8,0-1.21,0-.2,0-.41,0-.61-.06a2.2,2.2,0,0,1-.57-.13,9.7,9.7,0,0,1-1.13.43l-.33.1a13.66,13.66,0,0,1-1.19,3,21.19,21.19,0,0,1-1.68,2.62,19.72,19.72,0,0,1-4.3,4.35c-.41.46-.8.93-1.2,1.39a6.8,6.8,0,0,0,2.25-.3A5.37,5.37,0,0,0,48.73,71.25Z"/><path class="cls-1" d="M46.36,69.94l0,0a16.38,16.38,0,0,0,2.32-1.87,21.54,21.54,0,0,0,2-2.21,22.74,22.74,0,0,0,1.78-2.47,15.72,15.72,0,0,0,1.34-2.77l-.8.2c-.42.1-.84.17-1.27.23a5.34,5.34,0,0,1-1.2,0c-.32.19-.63.4-1,.58a10.64,10.64,0,0,1-1.08.51,7.14,7.14,0,0,1-1.16.37,2.74,2.74,0,0,1-1.11,0c-.25.8-.52,1.57-.76,2.36s-.53,1.73-.75,2.61-.37,1.77-.57,2.62A11.46,11.46,0,0,0,44,71.4a2,2,0,0,0,.08,1.07c.74-.84,1.5-1.67,2.26-2.49Z"/><path class="cls-1" d="M45.21,62.32a5.21,5.21,0,0,0,.82-.4l.1-.07.13,0a1.91,1.91,0,0,0,1-.08,7.43,7.43,0,0,0,1.06-.37c.35-.13.7-.3,1-.45l1.06-.48.1,0,.07,0a4.28,4.28,0,0,0,1.19.17,5.77,5.77,0,0,0,1.24-.1,6.72,6.72,0,0,0,2.33-.88l0,0,.11,0a2,2,0,0,0,.51,0c.19,0,.38,0,.58,0l1.15-.15c.78-.12,1.55-.24,2.32-.4s1.54-.29,2.3-.45c.38-.09.76-.17,1.13-.27l.55-.16a3.3,3.3,0,0,0,.45-.2l.1-.07h0a7.71,7.71,0,0,0,2.66-1,14.25,14.25,0,0,0,1.25-.75,9.36,9.36,0,0,0,1.06-.82c.37-.71.72-1.44,1.12-2.13.23-.41.47-.8.72-1.2.12-.19.24-.39.38-.59a1,1,0,0,0,.18-.44c0-.24-.18-.5-.51-.71a3.66,3.66,0,0,0-1.13-.45,8.21,8.21,0,0,0-2.53-.19l-.71,0,.45-.53a3.57,3.57,0,0,1,1-.81,8.48,8.48,0,0,1,1.09-.54,10.56,10.56,0,0,1,1.11-.42l.26-.08c-.47,0-.93.1-1.39.18-1.1.17-2.18.42-3.27.67s-2.17.53-3.21.87c-.51.16-1,.36-1.57.55L60,50.24c-2.09.81-4.15,1.67-6.14,2.66a20.74,20.74,0,0,0-5.5,3.67l0,0h0a4.94,4.94,0,0,0-.56.61c-.19.23-.38.47-.56.71l-1.11,1.49c-.37.5-.76,1-1.16,1.46a8.54,8.54,0,0,1-1.3,1.32l-.79.92,1.42-.46Z"/><path class="cls-1" d="M38.67,69.19A29.36,29.36,0,0,1,41,65.79a15.91,15.91,0,0,1,2.8-2.64c-.36.06-.73.11-1.1.15l-1.67,2c-.91,1.06-1.83,2.12-2.75,3.17A19.54,19.54,0,0,0,37,70a16.18,16.18,0,0,0-1.12,1.78c-.35.62-.66,1.26-1,1.91-.14.32-.27.65-.4,1a6.64,6.64,0,0,0-.28,1h0v0a.66.66,0,0,0,.11.55.13.13,0,0,0,.14.06.48.48,0,0,0,.19-.11l.26-.24c.53-1.06,1.08-2.15,1.66-3.21S37.94,70.35,38.67,69.19Z"/><path class="cls-1" d="M71,29l2.41.72.56.16-.56.16-2.21.65,3.33.47.54.08-.51.17-2.46.8,2.68-.07H75l-.09.14-1,1.48,4-3.36.51-.67a6.07,6.07,0,0,1,1.39-2.32,3.41,3.41,0,0,1,1.35-.88,3.19,3.19,0,0,1,1.47-.16l2.35-1.62L83.57,25l-.4.07.27-.34,1.42-1.83-2.31,1.17-.52.26.19-.6.67-2.08-1.8,2-.54.59v-.83l0-2.06-.83,1.95-.45,1.09L79,23.19,78.7,21.4l-.38,1.87-.25,1.23-.42-1.18-.73-2-.14,2.46,0,.86-.51-.68-1.17-1.56.53,2.26.17.72-.59-.4-1.93-1.31,1,1.86.32.58-.6-.2-1.67-.55,1.54,1.29.5.42h-2.8l2,1.2.49.29-.55.09Z"/><path class="cls-1" d="M80.15,27.91a7.35,7.35,0,0,0-1,1,1.47,1.47,0,0,1,.6-.23,1.37,1.37,0,0,1,.63.07h0a2.83,2.83,0,0,1-.06-1Z"/></svg>