<svg id="Layer_1" data-name="Layer 1" xmlns="http://www.w3.org/2000/svg" width="128" height="128" viewBox="0 0 128 128"><defs><style>.cls-1{fill:#2d2d2d;}</style></defs><title>Artboard 5</title><path d="M.83,123.8V112H2.77v4.65H6.62V112h2V123.8H6.62v-5.17H2.77v5.17Z"/><path d="M10.35,118a8.33,8.33,0,0,1,.63-3.48,4.62,4.62,0,0,1,1.63-2,4.27,4.27,0,0,1,2.44-.67,4.23,4.23,0,0,1,3.39,1.58,7,7,0,0,1,1.31,4.52,7.1,7.1,0,0,1-1.39,4.64,4.06,4.06,0,0,1-3.3,1.47,4.1,4.1,0,0,1-3.32-1.46A6.91,6.91,0,0,1,10.35,118Zm2-.08a5,5,0,0,0,.77,3,2.34,2.34,0,0,0,1.92,1A2.27,2.27,0,0,0,17,121a5.14,5.14,0,0,0,.76-3.11,5,5,0,0,0-.74-3,2.29,2.29,0,0,0-1.93-1,2.33,2.33,0,0,0-1.94,1A5.08,5.08,0,0,0,12.37,117.89Z"/><path d="M21.05,118a8.34,8.34,0,0,1,.62-3.48,4.69,4.69,0,0,1,1.63-2,4.29,4.29,0,0,1,2.44-.67,4.2,4.2,0,0,1,3.39,1.58,7,7,0,0,1,1.31,4.52,7.09,7.09,0,0,1-1.38,4.64A4.09,4.09,0,0,1,25.75,124a4.1,4.1,0,0,1-3.32-1.46A7,7,0,0,1,21.05,118Zm2-.08a5,5,0,0,0,.78,3,2.31,2.31,0,0,0,1.92,1,2.29,2.29,0,0,0,1.91-1,5.21,5.21,0,0,0,.76-3.11,5.06,5.06,0,0,0-.74-3,2.3,2.3,0,0,0-1.93-1,2.35,2.35,0,0,0-2,1A5.08,5.08,0,0,0,23.06,117.89Z"/><path d="M32.13,112h3.56a5.28,5.28,0,0,1,2,.3,3.34,3.34,0,0,1,1.27,1,5.21,5.21,0,0,1,.91,1.86,10.4,10.4,0,0,1,.33,2.84,9.26,9.26,0,0,1-.34,2.67,5.43,5.43,0,0,1-.88,1.79,3.37,3.37,0,0,1-1.29,1,4.64,4.64,0,0,1-1.93.34H32.13Zm1.95,2v7.81h1.46a3.78,3.78,0,0,0,1.37-.18,1.57,1.57,0,0,0,.69-.53,3.14,3.14,0,0,0,.45-1.13,11.82,11.82,0,0,0,0-4.11,2.7,2.7,0,0,0-.57-1.19,1.74,1.74,0,0,0-.93-.57A7.79,7.79,0,0,0,35,114Z"/><path d="M42.08,123.8V112h7.18v2H44v2.61h4.87v2H44v3.21h5.42v2Z"/><path d="M51.25,112h3.56a5.34,5.34,0,0,1,2,.3,3.41,3.41,0,0,1,1.27,1,5.21,5.21,0,0,1,.91,1.86,10.4,10.4,0,0,1,.33,2.84,8.91,8.91,0,0,1-.35,2.67,5.43,5.43,0,0,1-.87,1.79,3.44,3.44,0,0,1-1.29,1,4.64,4.64,0,0,1-1.93.34H51.25Zm2,2v7.81h1.46a3.78,3.78,0,0,0,1.37-.18,1.57,1.57,0,0,0,.69-.53,3.14,3.14,0,0,0,.45-1.13,11.82,11.82,0,0,0,0-4.11,2.81,2.81,0,0,0-.57-1.19,1.74,1.74,0,0,0-.93-.57,7.79,7.79,0,0,0-1.59-.1Z"/><path d="M67.59,123.8,64.13,112h2.12l2.45,8.74L71.07,112h2.08L69.68,123.8Z"/><path d="M74.28,112h2v6.39a15,15,0,0,0,.08,2,2,2,0,0,0,.61,1.21,2.2,2.2,0,0,0,2.4.12,1.5,1.5,0,0,0,.58-.84,9.93,9.93,0,0,0,.16-2.3V112h2v6.2a16.44,16.44,0,0,1-.25,3.44,2.88,2.88,0,0,1-1.15,1.71,3.83,3.83,0,0,1-2.35.66,4.39,4.39,0,0,1-2.36-.54,3.1,3.1,0,0,1-1.23-1.53,11.36,11.36,0,0,1-.39-3.64Z"/><path d="M84.29,123.8V112.08h1.95v9.72H91.1v2Z"/><path d="M93.85,123.8V114H91v-2h7.69v2H95.8v9.81Z"/><path d="M100.08,112h2v6.39a15.7,15.7,0,0,0,.07,2,1.94,1.94,0,0,0,.62,1.21A1.88,1.88,0,0,0,104,122a1.91,1.91,0,0,0,1.11-.3,1.5,1.5,0,0,0,.58-.84,9.93,9.93,0,0,0,.16-2.3V112h2v6.2a16.44,16.44,0,0,1-.25,3.44,2.88,2.88,0,0,1-1.15,1.71,3.82,3.82,0,0,1-2.34.66,4.42,4.42,0,0,1-2.37-.54,3.1,3.1,0,0,1-1.23-1.53,11.36,11.36,0,0,1-.39-3.64Z"/><path d="M110,123.8V112h4.12a5.56,5.56,0,0,1,2.25.32,2.5,2.5,0,0,1,1.11,1.1,3.81,3.81,0,0,1,.44,1.88,3.47,3.47,0,0,1-.67,2.23,2.94,2.94,0,0,1-1.89,1.07,4.91,4.91,0,0,1,1,1,13.44,13.44,0,0,1,1.12,1.92l1.18,2.31h-2.33L115,121.23a16.47,16.47,0,0,0-1-1.75,1.51,1.51,0,0,0-.58-.48,2.61,2.61,0,0,0-1-.13H112v4.93ZM112,117h1.45a7.86,7.86,0,0,0,1.69-.11,1.1,1.1,0,0,0,.59-.48,1.72,1.72,0,0,0,.22-.94,1.6,1.6,0,0,0-.22-.9,1.2,1.2,0,0,0-.61-.48,9,9,0,0,0-1.59-.08H112Z"/><path d="M120,123.8V112h7.19v2h-5.24v2.61h4.86v2h-4.86v3.21h5.41v2Z"/><path class="cls-1" d="M102.33,9.27l.4-.12a3.88,3.88,0,0,1,.45-.08,6.25,6.25,0,0,1,.86,0c.55,0,1.09.08,1.62.13l1.17.13a1.58,1.58,0,0,1,.12-.55,2.32,2.32,0,0,1,1.16-1.22h-.27A12.94,12.94,0,0,1,106,7.38a8.65,8.65,0,0,1-1.79-.54,12,12,0,0,1-1.52-.76l-2.77-1c-.47-.16-.94-.33-1.42-.47l-.66-.2a10.47,10.47,0,0,0-1.65.4c-.37.12-.77.23-1.15.39-.19.07-.39.15-.61.21l-.31.1c-.09,0-.19.06-.28.11a1.1,1.1,0,0,0-.6.95,6.7,6.7,0,0,1,.07,1.29,2.57,2.57,0,0,1-.25.72,2.57,2.57,0,0,1-.45.58,2.66,2.66,0,0,1-.78.52H92a3,3,0,0,1,.84.06,3,3,0,0,1,.8.31l.36.26.26.26a5.48,5.48,0,0,1,.52.6,1.05,1.05,0,0,1,.22.42.77.77,0,0,1,0,.48,3.8,3.8,0,0,1-.45.66,7.14,7.14,0,0,0-.41.65,1.43,1.43,0,0,1-.7.64,1.5,1.5,0,0,1-1-.07c-.22-.08-.42-.13-.69-.2a1.3,1.3,0,0,1-.3-.13,5.86,5.86,0,0,0,.76,1.76,4.87,4.87,0,0,0,.58.74,1.83,1.83,0,0,1,.65,1.26,1.57,1.57,0,0,1-.27.71c-.12.17-.23.29-.33.41s-.1.11-.16.16a.26.26,0,0,0-.1.19.27.27,0,0,0,.09.2c0,.06.13.09.2.19s0,0,0,0l0,.05a.53.53,0,0,1,0,.33.53.53,0,0,1-.12.26L92.6,20l-.11.08c-.13.11-.28.21-.41.3a8.33,8.33,0,0,0-.22.86,19.15,19.15,0,0,0-.36,2.25,36.47,36.47,0,0,0-.3,4.55,44.57,44.57,0,0,0,.26,4.5,13.36,13.36,0,0,0,.37,2.19,5.4,5.4,0,0,0,.39,1l.06.09a6.78,6.78,0,0,0,1.51.78,2.85,2.85,0,0,0,1.48.09,4.59,4.59,0,0,0,1.35-.57,18.16,18.16,0,0,1-1.06-3.38,25.14,25.14,0,0,1-.41-5.54,36.42,36.42,0,0,1,.5-5.52,26,26,0,0,1,.73-3.11,3,3,0,0,1,.11-.94,8,8,0,0,1,.43-1.09c.17-.35.36-.69.55-1l.57-.93.07-.12.14-.08c.44-.25.89-.49,1.35-.73L101,13c.47-.21.93-.43,1.4-.63l1.44-.56,0,0h0a8,8,0,0,0,1.06-.23,7.89,7.89,0,0,0,1-.34c.51-.2,1-.45,1.52-.67A1.21,1.21,0,0,1,107,10a.08.08,0,0,1,0-.07l-1.33,0c-.53,0-1.06,0-1.57.06-.25,0-.51,0-.74.06l-.34,0-.37.08a28.32,28.32,0,0,1-3.15.57s0,0,0,0,0,0,0-.05A12.74,12.74,0,0,1,102.33,9.27Zm2.46-1.66c.51,0,.91.19.89.36s-.43.27-.94.24-.9-.2-.9-.36S104.28,7.58,104.79,7.61ZM98,8.56a5.2,5.2,0,0,1-2.1,1.14,1.36,1.36,0,1,1,0-2.72A5.19,5.19,0,0,1,98,8,.34.34,0,0,1,98,8.56Z"/><path class="cls-1" d="M76.39,97c-.65-.31-1.3-.6-1.94-1a4.68,4.68,0,0,1-1.53-1.63,9,9,0,0,1-.84-2,11.89,11.89,0,0,1-.44-2.1,12.81,12.81,0,0,1,.09-3.86l-1.34,1-.77.57c.1.43.2.87.29,1.3.15.72.27,1.44.38,2.17s.19,1.46.23,2.19a10.78,10.78,0,0,1-.08,2.26l0,.23-.21,0c-.57.07-1.12,0-1.67.06a9.35,9.35,0,0,0-1.6.11,2.14,2.14,0,0,0-.35.1.27.27,0,0,0-.15.21,2,2,0,0,0,0,.74,5.62,5.62,0,0,0,.06.56c-.76-.38-.5-.86-.5-.86s-2.58.65-2.14,2c.62-.45,2-1.37,2.65-1.1l.09.51a5.27,5.27,0,0,1,1.6-.62,3.73,3.73,0,0,1,1.16,0,4.93,4.93,0,0,1,.58.13l.49.14,1.94.58c.62.2,1.22.41,1.82.62.3,0,.6-.09.9-.12-.76-.56-1.51-1.12-2.24-1.72a0,0,0,0,1,0-.07s0,0,.06,0c1.18.54,2.32,1.12,3.44,1.74l.36.19c.7,0,1.4.15,2.09.26.32-.41.65-.82,1-1.22A17.73,17.73,0,0,1,76.39,97Z"/><path class="cls-1" d="M56.05,81.81a2.6,2.6,0,0,1-1.41-.24,1.57,1.57,0,0,1-.55-.48l-.23.1a0,0,0,0,1,0,0c-.65.3-1.34.6-2.06.85-.28.09-.55.17-.85.24a3.24,3.24,0,0,1-1,.1,1.65,1.65,0,0,1-.69-.18,1.27,1.27,0,0,1-.52-.46l-.54.31a9.9,9.9,0,0,1-1.77.8,4.23,4.23,0,0,1-2.2.17,3.43,3.43,0,0,1-1.56-.81l-.28.08a63,63,0,0,1-4.26,5c.9-.23,1.78-.48,2.63-.78a14.87,14.87,0,0,0,2-.84,5.67,5.67,0,0,0,1.57-1.18l.2-.23.37,0a18.85,18.85,0,0,0,2.91,0c1-.07,1.94-.22,2.92-.39s1.94-.4,2.91-.65,1.77-.47,2.68-.73c.07-.24.16-.49.25-.73A2.66,2.66,0,0,1,56.05,81.81Z"/><path class="cls-1" d="M40.32,70.94a1.46,1.46,0,0,1-.62-.74,1.8,1.8,0,0,1-.06-.22l-.11,0a13.29,13.29,0,0,1-1.36,3.06,23.86,23.86,0,0,1-2.41,3.08c-.85,1-1.73,1.94-2.59,2.91a16.43,16.43,0,0,0-1.59,2l-.19,1a.78.78,0,0,0,.09.61A.81.81,0,0,0,32,83a5,5,0,0,0,1.73-.31,11.65,11.65,0,0,0,1.7-.74,6.91,6.91,0,0,0,.86-.54l.68-.73.53-.61c.21-.33.44-.66.67-1,.76-1,1.49-2.07,2.18-3.13s1.27-2.18,2-3.23c.39-.59.76-1.17,1.15-1.75A4.63,4.63,0,0,1,42,71.3,2.94,2.94,0,0,1,40.32,70.94Z"/><path class="cls-1" d="M84.62,97.2l-.08,0a2.79,2.79,0,0,0-.39.1,4.68,4.68,0,0,1-.47.11,5.08,5.08,0,0,1-1.83-.07,12.47,12.47,0,0,1-3.17-1.19c-.32.11-.64.2-1,.29s-.38.1-.57.13a2.43,2.43,0,0,1-.55.07c1.34.4,2.73.63,4.05,1l.72.2-.18.19.88.16c.47.09.93.19,1.39.3l.18,0,.08,0h0a.07.07,0,0,0,0,0s0,0,0,0a2.21,2.21,0,0,1,.13-.29A4.19,4.19,0,0,1,84.62,97.2Z"/><path class="cls-1" d="M20.11,99.37c0,.07.05,0,0,0Z"/><path class="cls-1" d="M92.06,97.37c-.41,0-.8-.08-1.2-.14s-1-.18-1.45-.29a14.24,14.24,0,0,1-1.4-.45,8.08,8.08,0,0,1-1.2-.64h-.24a7.78,7.78,0,0,1-4.39-1.34c-.15-.12-.31-.25-.45-.38a2.09,2.09,0,0,1-.4-.48,6.94,6.94,0,0,1-.43-1c-.23-.7-.45-1.39-.7-2.08a12,12,0,0,1-.63-2.09,16.83,16.83,0,0,1-.27-3.88c-.38-.32-.76-.63-1.16-.91l-.67-.47L77.13,83c-.06,0-.13-.09-.18-.12a.12.12,0,0,0-.08,0,1.11,1.11,0,0,0-.26.29,4.91,4.91,0,0,0-.35.61c-.09.16-.17.32-.26.47.57,2.13,1.06,4.26,1.51,6.42.11.55.25,1.11.32,1.68a5,5,0,0,1,.06.89,1.16,1.16,0,0,1,0,.3.8.8,0,0,1-.13.33,2.89,2.89,0,0,1-.32.42,4.91,4.91,0,0,1-1.5,1.07,3.58,3.58,0,0,1-1.48.36c.06,0,.11.11.18.16a9.21,9.21,0,0,0,1.89.84s0,0,0,0a.05.05,0,0,1,0,0h0c.17-.06.34-.17.51-.25l.51-.27c.34-.18.67-.36,1-.53l.11-.05.16.05c1.06.37,2.14.72,3.21,1a8.33,8.33,0,0,0,1.57.3l.39,0a3.73,3.73,0,0,1,.47,0,8.67,8.67,0,0,1,.89.06c1.18.15,2.26.48,3.44.72a25.2,25.2,0,0,1,2.92,1.21l.86-.63C92.41,97.86,92.23,97.62,92.06,97.37Z"/><path class="cls-1" d="M40.06,82.83a5.79,5.79,0,0,1-1.72,0,2.41,2.41,0,0,1-1-.39,1.54,1.54,0,0,1-.19-.17,10.07,10.07,0,0,1-1.14.65l-.5.21c-.68.79-1.38,1.59-2.1,2.37a44.86,44.86,0,0,1-4.33,4.28c-.82.69-1.68,1.34-2.56,2a13.08,13.08,0,0,1-2,2.58,12.42,12.42,0,0,1-1.2,1.09c-.43.33-.88.64-1.32,1a10.3,10.3,0,0,1-1.32.8,11.92,11.92,0,0,0-.5,1.41,1.81,1.81,0,0,0-.09.72,1,1,0,0,0,.2,0c.26-.09.56-.23.86-.36l.89-.43c.62-.28,1.29-.48,1.95-.72a7.83,7.83,0,0,0,1.82-1,17.93,17.93,0,0,0,1.55-1.34c1-.92,2-1.89,3-2.82,2-1.88,4-3.82,6-5.64,1.69-1.5,3.39-3,5.17-4.42A13.54,13.54,0,0,1,40.06,82.83Z"/><path class="cls-1" d="M57.39,70.28a2.36,2.36,0,0,1-1-.29,1.48,1.48,0,0,1-.49-.44,17.33,17.33,0,0,1-1,2.9,19.63,19.63,0,0,1-1.8,3.06A27.19,27.19,0,0,1,51,78.34c-.16.17-.3.35-.46.53l.15-.09-.56,1.89c0,.07,0,.16,0,.21a3.87,3.87,0,0,0,1.25-.23,29.82,29.82,0,0,0,2.9-1.17l.54-.24c.32-.53.66-1,1-1.52.79-1,1.55-2.1,2.24-3.2s1.27-2.24,1.93-3.34c.42-.71.83-1.43,1.24-2.15a6.83,6.83,0,0,1-1.89,1A4.57,4.57,0,0,1,57.39,70.28Z"/><path class="cls-1" d="M50.93,71.15a2,2,0,0,1-1.28-.92,13.78,13.78,0,0,1-1.13,3.07,20.9,20.9,0,0,1-2,3c-.73.95-1.5,1.87-2.3,2.76A16.66,16.66,0,0,0,43,80.52l.06,0,.34.37a1.94,1.94,0,0,0,1.1.66,2.79,2.79,0,0,0,1.37-.15,16.19,16.19,0,0,0,3-1.57l.82-.47c.26-.44.53-.87.83-1.29a26.07,26.07,0,0,0,1.89-2.93c.56-1,1-2.09,1.59-3.09.39-.7.79-1.38,1.23-2a7,7,0,0,1-2.43,1.14A4.19,4.19,0,0,1,50.93,71.15Z"/><path class="cls-1" d="M45.36,71.1a1.93,1.93,0,0,1-.8-.44,2.11,2.11,0,0,1-.19-.23l0,0a15.57,15.57,0,0,1-1.13,2.7A23,23,0,0,1,41,76.35c-.79,1-1.6,2-2.45,3h0c-.28.36-.55.73-.82,1.09l.24.74a.42.42,0,0,0,.16.22,1.11,1.11,0,0,0,.42.12,4.34,4.34,0,0,0,1.27-.08,20.14,20.14,0,0,0,2.79-.78h0a22,22,0,0,1,1.19-1.88c.7-1,1.39-1.92,2-2.92s1.15-2,1.79-3,1.08-1.71,1.69-2.55a6.35,6.35,0,0,1-2.35.88A3.72,3.72,0,0,1,45.36,71.1Z"/><path class="cls-1" d="M58.7,75c-.79,1.06-1.63,2.09-2.49,3.08-.33.36-.64.73-.94,1.11l0,1a.39.39,0,0,0,0,.18s0,0,.07.07a1.28,1.28,0,0,0,.64.1A6,6,0,0,0,57.79,80a7.36,7.36,0,0,0,3.1-2.2l1.43-1.87.09-.2c.2-.42.4-.83.59-1.26s.35-.84.51-1.27A11.76,11.76,0,0,1,64,71.93a16.94,16.94,0,0,1,1-1.77,5.64,5.64,0,0,1-1-.25,5,5,0,0,1-1.44-.79,3.45,3.45,0,0,1-.65-.72v0a15,15,0,0,1-1.07,3.19,14.06,14.06,0,0,1-1,1.74C59.49,73.91,59.09,74.44,58.7,75Z"/><path class="cls-1" d="M90.72,96.32c-.31-.21-.61-.41-.93-.59a6.65,6.65,0,0,0-.58-.33,1.92,1.92,0,0,0-.27-.11.15.15,0,0,0-.09,0,4.16,4.16,0,0,1-1.66.54,14.45,14.45,0,0,0,2.35.41C89.94,96.27,90.33,96.29,90.72,96.32Z"/><path class="cls-1" d="M25.87,82.62a1.08,1.08,0,0,0,.29.13,2.72,2.72,0,0,0,.95.14,2.6,2.6,0,0,0,.4,0,7.85,7.85,0,0,0,1.73-.37,7.3,7.3,0,0,0,.82-.31,2.36,2.36,0,0,0,.64-.41l.52-.54a15.49,15.49,0,0,1,1.55-2.47c.78-1,1.58-2,2.35-3.08s1.43-2.12,2.19-3.13L39,70.2a4.06,4.06,0,0,1-1.05.19,2.66,2.66,0,0,1-1.24-.23,2.51,2.51,0,0,1-.95-.78A4.51,4.51,0,0,1,35,67.26c0-.16,0-.33,0-.49-.81,1.35-1.62,2.68-2.45,4-1.11,1.77-2.23,3.53-3.38,5.28l-.69,1c-2.11,2.86-2.71,3.83-2.83,4s0,0,0,0a2.09,2.09,0,0,0-.1.85A.93.93,0,0,0,25.87,82.62Z"/><path class="cls-1" d="M18.8,90.32a26.79,26.79,0,0,1,2.5-3.11,47.23,47.23,0,0,1,4.29-4l.27-.23a1.32,1.32,0,0,1-.2-.12,1.15,1.15,0,0,1-.44-.89,1.94,1.94,0,0,1,.15-.76h0a.07.07,0,0,1,0-.06c-.44.41-.88.81-1.35,1.2-1.14,1-2.38,1.86-3.47,2.9A13.24,13.24,0,0,0,19,87a7.65,7.65,0,0,0-1.13,1.86l0,0a10.56,10.56,0,0,0-.53,1.29c-.16.45-.29.9-.4,1.34-.05.19-.09.38-.12.56l0,0Z"/><path class="cls-1" d="M81.9,77.3a.67.67,0,0,0-.56-.54,2.65,2.65,0,0,0-1.89.54c-.58.39-1.15.79-1.74,1.16s-1.16.79-1.76,1.16-1.1.62-1.69.91c.06.21.12.43.18.63.1.4.21.79.31,1.17s.18.67.28,1l.25-.3a4.52,4.52,0,0,1,.68-.61,1.9,1.9,0,0,1,.47-.25.94.94,0,0,1,.7,0,.69.69,0,0,1,.26.2l.13.15a3.44,3.44,0,0,0,.27.27,5.91,5.91,0,0,0,.63.49,7.19,7.19,0,0,0,1.14.66c.28-.27.56-.56.83-.85s.65-.65,1-1c.64-.65,1.24-1.32,1.83-2a19.65,19.65,0,0,0,1.67-2,5.74,5.74,0,0,0,.88-1.85,35.33,35.33,0,0,1-2.95,2.35l-1.12.79.19-1.23A2.21,2.21,0,0,0,81.9,77.3Z"/><path class="cls-1" d="M22.29,94.24a12.46,12.46,0,0,1,1.28-1c.37-.25.76-.5,1.15-.74,1.24-1.15,2.48-2.28,3.7-3.43,1.45-1.38,3-2.68,4.42-4.1.46-.44.89-.9,1.34-1.36a.45.45,0,0,1-.11,0,5.85,5.85,0,0,1-2.16.2,1.61,1.61,0,0,1-1.15-.63,1.41,1.41,0,0,1-.19-.47l-.2.08a8.14,8.14,0,0,1-.92.29,8.57,8.57,0,0,1-1.89.23,4.31,4.31,0,0,1-.87-.07l-.54.51c-1.41,1.33-2.72,2.74-4.11,4.07-1,.93-1.93,1.86-2.87,2.81l-1.24,2.24c-.18.31-.32.52-.48.77l-.45.7-.88,1.39c-.29.46-.56.92-.79,1.38l-.12.27.3-.15c.42-.23.86-.47,1.28-.74.86-.51,1.7-1.07,2.56-1.63a.08.08,0,0,1,.11,0,.11.11,0,0,1,0,.08,20,20,0,0,1-1.93,2.08c-.18.35-.36.68-.51,1a2.89,2.89,0,0,0-.24.62c.24-.07.5-.16.75-.26a4.8,4.8,0,0,0,1.38-.82c.82-.68,1.43-1.63,2.24-2.33C21.51,95,21.89,94.59,22.29,94.24Z"/><path class="cls-1" d="M86.64,24.2a1.18,1.18,0,0,1,.57.81,3,3,0,0,1-.15,1.41c-.08.23-.17.45-.26.66a4.6,4.6,0,0,1,.47.41,2.9,2.9,0,0,1,.61,1.06,1.87,1.87,0,0,1,0,1.1,9,9,0,0,0,.39,1.1,12.58,12.58,0,0,0,.8,1.49,13.13,13.13,0,0,0,2,2.68l0,0a9.55,9.55,0,0,1-.68-2.23,19.22,19.22,0,0,1-.07-4.67,35.36,35.36,0,0,1,.6-4.59,21.75,21.75,0,0,1,.56-2.25.56.56,0,0,0,0-.12.41.41,0,0,1-.27-.16.55.55,0,0,1-.1-.41,1.42,1.42,0,0,1,.29-.63,3.28,3.28,0,0,1,.4-.43l.1-.09s.07-.06.07-.05,0,.1.09.11.07-.13,0-.23a1.11,1.11,0,0,0-.08-.3c0-.11-.05-.23-.07-.35a.76.76,0,0,1,0-.34c.13-.4.34-.75.29-.84a.78.78,0,0,0-.13-.2c-.09-.1-.17-.16-.34-.33a3.15,3.15,0,0,1-.66-1.05A3.31,3.31,0,0,1,91,14.63a2.51,2.51,0,0,1,.19-1.09l0,0a1.3,1.3,0,0,1-.39-.46,2.46,2.46,0,0,1-.23-.86,5.3,5.3,0,0,1,0-.8,3.8,3.8,0,0,1,.13-.81,1.89,1.89,0,0,1,.09-.21.78.78,0,0,1,.14-.2c.11-.1.22-.18.32-.26a1,1,0,0,1,.19-.12h0c.27-.42.53-.71.72-1a3.91,3.91,0,0,0,.24-.51,2.65,2.65,0,0,0,.11-.52,5.5,5.5,0,0,1,.42-1.24c.1-.21.19-.42.31-.62a3.22,3.22,0,0,1,.42-.57L93.83,5l.25-.22a4.29,4.29,0,0,1,.55-.4,5.41,5.41,0,0,1,1.26-.6l.07,0a7.41,7.41,0,0,0-2.25-.73,6.17,6.17,0,0,0-3.46.56A5.12,5.12,0,0,0,87.92,6.1a10.15,10.15,0,0,0-.79,3.31,22.36,22.36,0,0,0,.06,3.47c.09,1.14.27,2.35.34,3.55a28.83,28.83,0,0,1,0,3.6,11.16,11.16,0,0,1-.21,1.81,5.19,5.19,0,0,1-.24.88,1.82,1.82,0,0,1-.48.75h0a.09.09,0,0,1,0,.09l-1,.45h.15A1.67,1.67,0,0,1,86.64,24.2Z"/><path class="cls-1" d="M99.24,45.2a6.32,6.32,0,0,0-.74-1,2.41,2.41,0,0,0-.56-.46c0,.62,0,1.23,0,1.85a9.61,9.61,0,0,1-.38,2.32c-.22.75-.5,1.48-.79,2.21s-.6,1.42-.9,2.13l-.65,1.48-.35-1.64c-.3-1.41-.46-2.84-.64-4.23a12.36,12.36,0,0,0-1-3.87,5.43,5.43,0,0,0-1.07-1.52,6.32,6.32,0,0,0-.72-.64L91,41.54l-.29-.17a.6.6,0,0,0-.51,0,2.48,2.48,0,0,0-.73.47c-.49.45-1,1-1.53,1.5a.08.08,0,0,1-.11,0,.08.08,0,0,1,0-.07v0h0A5.47,5.47,0,0,0,88,40.5a5.12,5.12,0,0,0-.93-2.36,1.23,1.23,0,0,0-.81-.5,2.11,2.11,0,0,0-.87.13,6.14,6.14,0,0,0-1.13.52c-.31.17-.64.37-1,.55l-.21.25h0a.07.07,0,0,1-.12,0s0,0,0,0a2.61,2.61,0,0,1,0-2.22l.14-.26a1.55,1.55,0,0,1,.19-.24,2.22,2.22,0,0,1,.46-.41,5.54,5.54,0,0,1,.53-.3l.55-.21A5,5,0,0,1,87,35.19a8.19,8.19,0,0,1,1.66.38,5.62,5.62,0,0,0-2.28-1.67,5.49,5.49,0,0,0-1.44-.34,9.24,9.24,0,0,0-1.49-.07L79,33.6,83.08,32c.66-.26,1.35-.44,2-.67a9.4,9.4,0,0,0,.88-.34,3.68,3.68,0,0,0,.84-.55,1.78,1.78,0,0,0,.58-.75.65.65,0,0,0-.24-.71c-.21-.18-.48-.33-.73-.53a9.09,9.09,0,0,1-.75-.66l-.37-.36.21-.4a7,7,0,0,0,.46-1,2.08,2.08,0,0,0,.19-.84c0-.09,0-.1,0-.13a.61.61,0,0,0-.29-.09,3.78,3.78,0,0,0-1,.13,16.21,16.21,0,0,0-2.16.74L82.2,26a11.26,11.26,0,0,0-1.44,1.31,7.32,7.32,0,0,0-1.21,1.84l-.06.11-.11.09a21.8,21.8,0,0,1-3.34,2c-.57.29-1.14.58-1.72.86l-1.74.8c-2.33,1-4.72,1.9-7,3.07S61.2,38.63,59.06,40s-4.23,2.81-6.35,4.22c-.54.35-1,.68-1.52,1.06s-1,.76-1.47,1.16c-1,.78-1.95,1.59-2.89,2.42L44,51.34l-2.84,2.5c-.94.82-1.9,1.67-2.81,2.5a8.8,8.8,0,0,0-1.92,2.89,24,24,0,0,0-1.21,3.46c-.09.31-.15.63-.23.94.87-1.44,1.75-2.87,2.67-4.3a16,16,0,0,1,2.15-2.46c.77-.75,1.58-1.44,2.41-2.11,1.65-1.33,3.34-2.59,5-3.88s3.32-2.59,4.92-4,3.21-2.72,4.81-4c.43-.43.87-.85,1.34-1.24s1-.76,1.52-1.12a16.24,16.24,0,0,1,3.37-1.66,15.46,15.46,0,0,1,3.66-.8,12.45,12.45,0,0,1,3.71.14.08.08,0,0,1,.06.09.11.11,0,0,1-.07.06h0a18.54,18.54,0,0,0-6.94,1.54,17.43,17.43,0,0,0-3.05,1.69,14.41,14.41,0,0,0-1.38,1.06c-.44.37-.87.77-1.28,1.18l0,0h0c-1.71,1.3-3.49,2.41-5.24,3.59a62.55,62.55,0,0,0-5.06,3.76c-1.62,1.33-3.17,2.76-4.65,4.23-.74.73-1.47,1.48-2.16,2.24a16.9,16.9,0,0,0-1.87,2.35l-3.12,5.39c-.18.31-.36.61-.55.91a8,8,0,0,0,.16.85,4.85,4.85,0,0,0,.89,1.84,2,2,0,0,0,1.71.67,4.93,4.93,0,0,0,1.9-.7l.69-.4-.09.8a.77.77,0,0,0,.35.82,2,2,0,0,0,1.13.19,4.22,4.22,0,0,0,2.35-1l.62-.55.09.79a.89.89,0,0,0,.64.73,3.29,3.29,0,0,0,1.31.14,6,6,0,0,0,1.38-.27,4.83,4.83,0,0,0,1.27-.62l.24-.17.06.27a1.27,1.27,0,0,0,.41.68,1.94,1.94,0,0,0,.75.4,3.74,3.74,0,0,0,1.76,0,6.42,6.42,0,0,0,3-1.89l.26-.28.16.36a1.26,1.26,0,0,0,1.23.64,4.34,4.34,0,0,0,1.61-.34,5.88,5.88,0,0,0,2.59-2l.51-.73.31.84A2.83,2.83,0,0,0,64.34,69a5.91,5.91,0,0,0,2.68.16,7.89,7.89,0,0,0,2.6-.9,11.09,11.09,0,0,0,2.25-1.66c.92-1.06,1.79-2.17,2.61-3.32.42-.58.8-1.17,1.18-1.77s.74-1.22,1.07-1.85a.06.06,0,0,1,.07,0,0,0,0,0,1,0,.06,16.52,16.52,0,0,1-.83,2c-.31.66-.65,1.29-1,1.91s-.74,1.24-1.16,1.83S73,66.6,72.54,67.16h0l0,0a11.09,11.09,0,0,1-2.39,1.91,8.25,8.25,0,0,1-2.94,1.07,6.52,6.52,0,0,1-1.71.06A9.75,9.75,0,0,1,65,72.32a7.74,7.74,0,0,1-.6,1.27l-.7,1.23c-.24.41-.49.81-.73,1.2-.12.2-.23.38-.34.59s-.21.39-.32.58l-.39,1.09a3.12,3.12,0,0,0-.2.83.62.62,0,0,0,.16.53,1,1,0,0,0,.66.2,3.72,3.72,0,0,0,.88-.11l.12,0h.07A4.45,4.45,0,0,0,66,79.38a11.36,11.36,0,0,0,2.29-1.25,18.79,18.79,0,0,0,2-1.63q1-.87,1.89-1.83a40.38,40.38,0,0,0,3.32-4.07,52.21,52.21,0,0,0,2.83-4.4l0,0,.06-.07a26.64,26.64,0,0,0,3.51-4.82,26.92,26.92,0,0,0,2.39-5.47A37.31,37.31,0,0,0,85.67,50c.15-1,.26-2,.35-3s.1-2,.17-3.06a.08.08,0,0,1,.08-.07.06.06,0,0,1,.06.06v0A33.59,33.59,0,0,1,86.5,50a29.57,29.57,0,0,1-1,6.1,24.39,24.39,0,0,1-1,3,25.2,25.2,0,0,1-1.36,2.82,20.79,20.79,0,0,1-3.84,4.92c-1,1.46-2,2.85-3.17,4.2S73.78,73.7,72.55,75a34.61,34.61,0,0,1-4,3.57A13.38,13.38,0,0,1,66.24,80a5.27,5.27,0,0,1-2.69.55,4.63,4.63,0,0,1-1,.19,2,2,0,0,1-1.27-.33,1.39,1.39,0,0,1-.45-.61.57.57,0,0,1,0-.14c-.17.15-.34.3-.51.43a10,10,0,0,1-1.92,1.14,7.57,7.57,0,0,1-1.5.51,11,11,0,0,0-.43,2.1,7.7,7.7,0,0,0,.23,2.49c.09-.12.17-.25.26-.38.21-.3.43-.62.68-.92a8.14,8.14,0,0,1,1.71-1.6,8.67,8.67,0,0,1,2.09-1.09c.37-.15.75-.23,1.13-.35s.77-.16,1.15-.25l.89-.19-.2,1a3.09,3.09,0,0,0,.14,1.64,7.11,7.11,0,0,0,.83,1.59,10.71,10.71,0,0,0,1.18,1.42c.21.22.44.42.66.61l.34.24.07,0c.33-.21.66-.4,1-.59s.92-.49,1.38-.72c.8-.38,1.62-.73,2.45-1a1.24,1.24,0,0,0,0-.27c0-.17-.06-.34-.1-.51-.08-.35-.16-.69-.23-1A5.58,5.58,0,0,1,72,81.57a2.49,2.49,0,0,1,.55-1.13A4,4,0,0,1,73,80c.13-.13.27-.25.4-.36A15.94,15.94,0,0,1,75.1,78.3a14.9,14.9,0,0,1,1.93-1,8.06,8.06,0,0,1,2.12-.73c.37-.08.75-.15,1.12-.2a4.65,4.65,0,0,1,1.18,0,1.87,1.87,0,0,1,.61.22,1.47,1.47,0,0,1,.5.46,2,2,0,0,1,.16.24,42.34,42.34,0,0,0,5.87-5.8A54.49,54.49,0,0,0,93.79,64a69.54,69.54,0,0,0,4.09-8.08,57.57,57.57,0,0,0,2.79-8l-.23-.46A24.88,24.88,0,0,0,99.24,45.2Z"/><path class="cls-1" d="M102,37.4a14.52,14.52,0,0,0-2-1.16c-.36-.18-.73-.36-1.1-.56-.2-.1-.39-.2-.59-.32a2.66,2.66,0,0,1-.67-.53,1.78,1.78,0,0,1-.4-.87,2.2,2.2,0,0,1,0-.85,3.33,3.33,0,0,1,.6-1.34l.49-.69.48.63a5.18,5.18,0,0,0,1.23,1.37,1.53,1.53,0,0,0,.81.22c.2,0,.42,0,.63,0-.19-.35-.38-.69-.59-1s-.59-.88-.91-1.3-.66-.82-1-1.22-.7-.81-1-1.21l-1-1.31,1.75.35c.21,0,.48.08.72.1a4.36,4.36,0,0,0,.72,0l-.38-.21c-.28-.17-.56-.36-.83-.54s-.55-.38-.79-.6a7.37,7.37,0,0,1-1.36-1.48c-.22-.33-.57-.73-.82-1.14a35,35,0,0,0,0,3.55c.07,1.81.35,3.6.59,5.38a40.72,40.72,0,0,0,1.06,5,1.35,1.35,0,0,1,.6-.29A3,3,0,0,1,99,37.3a10.35,10.35,0,0,1,1.71.27c.55.13,1.08.28,1.61.4l.3.06A4.07,4.07,0,0,0,102,37.4Z"/><path class="cls-1" d="M91.11,10.36a.31.31,0,0,0,0,.13,1.09,1.09,0,0,0,0,.17,6,6,0,0,0,.15.68c.06.23.13.45.2.68a2.61,2.61,0,0,0,.22.56.3.3,0,0,0,.09.1,1,1,0,0,0,.2.11c.21.09.49.19.73.32a1.16,1.16,0,0,0,.45.16,1,1,0,0,0,.5-.24,5.27,5.27,0,0,0,.56-.51,1.49,1.49,0,0,0,.41-.56c.12-.38-.48-.48-.91-.77L93.39,11l-.25-.2a5.3,5.3,0,0,0-.57-.33A4.47,4.47,0,0,0,91.23,10Z"/><path class="cls-1" d="M101.34,38.75l-.85-.35A11.66,11.66,0,0,0,99,37.84a1.92,1.92,0,0,0-1.36,0,.11.11,0,0,1,0,.06,16.9,16.9,0,0,1,2.65,2.76c.33.45.66.92,1,1.41q0-.48-.06-1a13,13,0,0,1,0-1.52C101.25,39.34,101.29,39,101.34,38.75Z"/><path class="cls-1" d="M113.41,10.52a3.89,3.89,0,0,0-.81-1.35A7.44,7.44,0,0,0,111.29,8a3.23,3.23,0,0,0-1.65-.45c-.33,0-.66,0-1,0a6.13,6.13,0,0,1-.36.77c-.15.3-.3.57-.4.82l-.1.3,1.07.11a9.38,9.38,0,0,1,2.57.62v0a7.49,7.49,0,0,0-.91-.59.07.07,0,0,1,0-.07l0,0a3.43,3.43,0,0,1,1.13.22,4.39,4.39,0,0,1,1,.55,7.15,7.15,0,0,1,.78.66A2.21,2.21,0,0,0,113.41,10.52Z"/><path class="cls-1" d="M111.75,10.42a9.4,9.4,0,0,0-2.92-.4l-1.08,0a1.39,1.39,0,0,0,.11.46l.12-.05.1,0,.16,0c.33.07.68.12,1.05.17s.74.08,1.11.11c.59.06,1.19.1,1.81.17l0,0C112,10.68,111.89,10.55,111.75,10.42Z"/><path class="cls-1" d="M101.34,44.51a22.79,22.79,0,0,0-3.92-6.57l0,0s0-.06,0-.09l0,0a13.19,13.19,0,0,1-.76-1.44,3,3,0,0,1-3.18,1.23,4.13,4.13,0,0,1-1.71-.86,8.66,8.66,0,0,1-1.28-1.29,14.59,14.59,0,0,1-1.9-3A14,14,0,0,1,88,30.85c-.09-.3-.17-.61-.23-.92a8.31,8.31,0,0,1-.53.85,8.68,8.68,0,0,1-.66.91,4,4,0,0,1-.69.61,5.32,5.32,0,0,1,1.1.53,4.85,4.85,0,0,1,1.33,1.26,3.65,3.65,0,0,1,.66,1.59l0,0a.07.07,0,0,1,0,.1.07.07,0,0,1-.07,0h0a8.41,8.41,0,0,0-2,.08,6.41,6.41,0,0,0-.89.21,1.81,1.81,0,0,1,.57.12,2.72,2.72,0,0,1,1.38,1.23,5.53,5.53,0,0,1,.69,3c0,.29,0,.58-.08.86l.07-.12a3,3,0,0,1,.88-.94A2,2,0,0,1,91.2,40a3,3,0,0,1,.68.29c.2.12.33.22.5.33a7.27,7.27,0,0,1,.92.76,7,7,0,0,1,1.38,1.95,13,13,0,0,1,.92,4.39c.07.87.11,1.73.17,2.58l.29-.5a13.57,13.57,0,0,0,1-2,6.54,6.54,0,0,0,.41-2.19,17.36,17.36,0,0,0-.12-2.27l0-.37.19,0-.3-.32a12.67,12.67,0,0,1-1.11-1.08c-.16-.19-.3-.39-.46-.59s-.29-.4-.48-.43l-.06,0a0,0,0,0,1,0,0h0a.31.31,0,0,1,.23-.18.88.88,0,0,1,.28,0,2.31,2.31,0,0,1,.47.12,3.81,3.81,0,0,1,.76.45,5.79,5.79,0,0,1,1,1.29c.27.39.53.8.77,1.2a2.6,2.6,0,0,1,.44.35,7.38,7.38,0,0,1,.92,1A22.1,22.1,0,0,1,101.4,47c.37.64.72,1.28,1.06,1.92,0-.26-.07-.5-.12-.76A19,19,0,0,0,101.34,44.51Z"/><path class="cls-1" d="M93.07,98.28a4.19,4.19,0,0,1-1,.87c.62-.36,2.12.36,2.78.72C95,98.81,93.07,98.28,93.07,98.28Z"/><path class="cls-1" d="M84.59,97.64s.33.44-.37.92c.62-.36,2.11.36,2.78.72C87.25,97.92,84.59,97.64,84.59,97.64Z"/><path class="cls-1" d="M79.72,98.64s.33.45-.37.93c.62-.37,2.12.36,2.78.72C82.38,98.93,79.72,98.64,79.72,98.64Z"/><path class="cls-1" d="M75,99.34s.26.49-.5.86c.66-.27,2,.64,2.65,1.1C77.59,100,75,99.34,75,99.34Z"/></svg>