<svg id="Layer_1" data-name="Layer 1" xmlns="http://www.w3.org/2000/svg" width="128" height="128" viewBox="0 0 128 128"><title>Artboard 96</title><path d="M40.19,118.5v-2.42h5.1v5.7a6.22,6.22,0,0,1-2.18,1.57,6.82,6.82,0,0,1-2.84.65,5.62,5.62,0,0,1-3.07-.85,5.83,5.83,0,0,1-2.11-2.56,9.76,9.76,0,0,1-.77-4,9.48,9.48,0,0,1,.78-4,5.92,5.92,0,0,1,2-2.51,5.23,5.23,0,0,1,3-.83,5,5,0,0,1,3.36,1.06,5.12,5.12,0,0,1,1.63,3.14l-2.35.54a3,3,0,0,0-1-1.69,2.54,2.54,0,0,0-1.68-.58,3,3,0,0,0-2.45,1.17,5.68,5.68,0,0,0-.94,3.59,6.52,6.52,0,0,0,1,3.94,2.81,2.81,0,0,0,2.36,1.16,3.57,3.57,0,0,0,1.44-.33,4.25,4.25,0,0,0,1.33-.89V118.5Z"/><path d="M47.2,116.69a10.28,10.28,0,0,1,.76-4.22,5.63,5.63,0,0,1,2-2.46,5.15,5.15,0,0,1,3-.81,5.07,5.07,0,0,1,4.1,1.92,8.38,8.38,0,0,1,1.59,5.48,8.52,8.52,0,0,1-1.68,5.61,4.92,4.92,0,0,1-4,1.79,5,5,0,0,1-4-1.77A8.41,8.41,0,0,1,47.2,116.69Zm2.45-.1a6.11,6.11,0,0,0,.93,3.7,2.83,2.83,0,0,0,2.33,1.24,2.79,2.79,0,0,0,2.32-1.23,6.27,6.27,0,0,0,.92-3.76,6.1,6.1,0,0,0-.9-3.68,2.76,2.76,0,0,0-2.34-1.19,2.84,2.84,0,0,0-2.36,1.2A6.21,6.21,0,0,0,49.65,116.59Z"/><path d="M60.17,116.69a10.29,10.29,0,0,1,.75-4.22,5.77,5.77,0,0,1,2-2.46,5.17,5.17,0,0,1,3-.81A5.09,5.09,0,0,1,70,111.12a10.25,10.25,0,0,1-.1,11.09,5.41,5.41,0,0,1-8,0A8.41,8.41,0,0,1,60.17,116.69Zm2.44-.1a6,6,0,0,0,.94,3.7,2.8,2.8,0,0,0,4.64,0,8.1,8.1,0,0,0,0-7.44,2.91,2.91,0,0,0-4.7,0A6.14,6.14,0,0,0,62.61,116.59Z"/><path d="M73,119.09l2.32-.28c.26,1.83,1.11,2.75,2.56,2.75a2.44,2.44,0,0,0,1.69-.56,1.81,1.81,0,0,0,.61-1.39,1.53,1.53,0,0,0-.21-.83,1.69,1.69,0,0,0-.66-.57,18.68,18.68,0,0,0-2.13-.73,7.1,7.1,0,0,1-2.21-1,3.68,3.68,0,0,1-1.12-1.41,4.23,4.23,0,0,1-.42-1.87,4.14,4.14,0,0,1,.54-2.11,3.45,3.45,0,0,1,1.46-1.42,5.08,5.08,0,0,1,2.32-.47,4.06,4.06,0,0,1,4.46,4.33l-2.37.13a2.54,2.54,0,0,0-.67-1.61,2.15,2.15,0,0,0-1.48-.46,2.32,2.32,0,0,0-1.47.4,1.18,1.18,0,0,0-.52,1,1.24,1.24,0,0,0,.47,1,6.52,6.52,0,0,0,2.16.88,9,9,0,0,1,2.58,1.09,3.69,3.69,0,0,1,1.21,1.47,5.23,5.23,0,0,1,.42,2.2,4.52,4.52,0,0,1-1.14,3.13A4.6,4.6,0,0,1,77.82,124Q73.5,124,73,119.09Z"/><path d="M84.76,123.76V109.44h8.71v2.42H87.12V115H93v2.41h-5.9v3.88h6.56v2.43Z"/><path d="M7.55,17.56V3.24H9.91V9.62l4.8-6.38h3.2L13.48,8.82l4.66,8.74H15.07l-3.24-6.73-1.92,2.4v4.33Z"/><path d="M19.59,17.56V3.24h2.3L26.7,12.8V3.24h2.2V17.56H26.52L21.79,8.22v9.34Z"/><path d="M31.11,10.49a10.23,10.23,0,0,1,.76-4.21,5.75,5.75,0,0,1,2-2.47,5.22,5.22,0,0,1,3-.81,5.06,5.06,0,0,1,4.1,1.92A8.4,8.4,0,0,1,42.5,10.4,8.55,8.55,0,0,1,40.82,16a4.91,4.91,0,0,1-4,1.78,5,5,0,0,1-4-1.76A8.43,8.43,0,0,1,31.11,10.49Zm2.45-.1a6.05,6.05,0,0,0,.94,3.71,2.82,2.82,0,0,0,2.32,1.23,2.78,2.78,0,0,0,2.32-1.22,6.3,6.3,0,0,0,.92-3.77,6.19,6.19,0,0,0-.89-3.68,2.91,2.91,0,0,0-4.7,0A6.14,6.14,0,0,0,33.56,10.39Z"/><path d="M44.56,3.24h4.7A7.15,7.15,0,0,1,52,3.6a3,3,0,0,1,1.32,1.24,3.77,3.77,0,0,1,.53,2,3.78,3.78,0,0,1-.46,1.87A3,3,0,0,1,52.17,10a3.18,3.18,0,0,1,1.63,1.27,3.93,3.93,0,0,1,.59,2.19,4.51,4.51,0,0,1-.75,2.64,3.05,3.05,0,0,1-1.78,1.33,17.94,17.94,0,0,1-3.31.18h-4Zm2.36,2.39V8.94h1.56c.94,0,1.52,0,1.74,0a1.53,1.53,0,0,0,1-.51,1.73,1.73,0,0,0,.34-1.13,1.72,1.72,0,0,0-.28-1,1.16,1.16,0,0,0-.67-.5,15.63,15.63,0,0,0-2.27-.09Zm0,5.69v3.82h2.2A6.91,6.91,0,0,0,51,15a1.4,1.4,0,0,0,.69-.6A2,2,0,0,0,52,13.27a2.08,2.08,0,0,0-.3-1.16,1.51,1.51,0,0,0-.79-.62,7.7,7.7,0,0,0-2-.17Z"/><path d="M55.92,13.74V11h4.42v2.74Z"/><path d="M62.25,3.24H67a7.12,7.12,0,0,1,2.71.36A3,3,0,0,1,71,4.84a3.78,3.78,0,0,1,.54,2,3.78,3.78,0,0,1-.46,1.87A3,3,0,0,1,69.86,10a3.2,3.2,0,0,1,1.64,1.27,3.93,3.93,0,0,1,.59,2.19,4.52,4.52,0,0,1-.76,2.64,3,3,0,0,1-1.77,1.33,18,18,0,0,1-3.31.18h-4Zm2.37,2.39V8.94h1.56c.94,0,1.51,0,1.74,0a1.53,1.53,0,0,0,.94-.51,1.73,1.73,0,0,0,.35-1.13,1.79,1.79,0,0,0-.28-1,1.18,1.18,0,0,0-.68-.5A15.53,15.53,0,0,0,66,5.63Zm0,5.69v3.82h2.2A7,7,0,0,0,68.68,15a1.4,1.4,0,0,0,.69-.6,2.11,2.11,0,0,0,.27-1.12,2.17,2.17,0,0,0-.29-1.16,1.53,1.53,0,0,0-.8-.62,7.7,7.7,0,0,0-2-.17Z"/><path d="M74.22,17.56V3.24h2.36V17.56Z"/><path d="M79.12,17.56V3.36h2.36V15.14h5.9v2.42Z"/><path d="M89.34,17.56V3.36H91.7V15.14h5.9v2.42Z"/><path d="M99.5,17.56V3.24h8.71V5.67h-6.35V8.84h5.9v2.41h-5.9v3.89h6.56v2.42Z"/><path d="M110.62,3.24h4.32a6.5,6.5,0,0,1,2.47.37A4.1,4.1,0,0,1,119,4.85a6.39,6.39,0,0,1,1.1,2.25,12.57,12.57,0,0,1,.4,3.45,11.1,11.1,0,0,1-.42,3.23A6.46,6.46,0,0,1,119,16a4.17,4.17,0,0,1-1.56,1.21,5.84,5.84,0,0,1-2.35.4h-4.44ZM113,5.67v9.47h1.78a4.42,4.42,0,0,0,1.65-.22,2,2,0,0,0,.84-.64,3.66,3.66,0,0,0,.54-1.37,11,11,0,0,0,.22-2.47,11.67,11.67,0,0,0-.22-2.51,3.34,3.34,0,0,0-.69-1.44,2.12,2.12,0,0,0-1.12-.7,10,10,0,0,0-1.93-.12Z"/><path d="M50.56,76.11a1.28,1.28,0,0,1-.09-.51,2.32,2.32,0,0,1,.22-.84,1.32,1.32,0,0,1-.46-.45,3.6,3.6,0,0,1-.32-.69,5.27,5.27,0,0,1-.24-1.48,3.36,3.36,0,0,1,0-.77,2.47,2.47,0,0,1,.24-.81c.27-.45.53-.82.81-1.23a17.9,17.9,0,0,1,1.84-2.25,9.35,9.35,0,0,1,.8-.74,11.93,11.93,0,0,1-2.7,1.34,13.52,13.52,0,0,1-1.53.47,12.19,12.19,0,0,1-1.51.25c-1.3.87-2.65,1.68-4,2.43-.71.38-1.43.73-2.18,1a11.43,11.43,0,0,1-1.16.42,3.66,3.66,0,0,1-1.19.15,3.59,3.59,0,0,1-.91.36,9.23,9.23,0,0,1-1,.21,15.81,15.81,0,0,1-2,.15,13.87,13.87,0,0,1-2-.08,7.8,7.8,0,0,1-2-.42l-.14-.06-.09.11a7.55,7.55,0,0,1-.59.7,5.47,5.47,0,0,1-1.52,1.1,29.1,29.1,0,0,0-3.15,1.84c-1,.67-2,1.35-3,2.06-.46.34-.94.67-1.4,1a59.91,59.91,0,0,1,6-1.55,38.61,38.61,0,0,1,4-.64,18,18,0,0,1,1.93-.08v0h.13l2,0c2.71,0,5.4.07,8.11.21a26.79,26.79,0,0,0,7.68-.52,1.47,1.47,0,0,1-.3-.31A1.74,1.74,0,0,1,50.56,76.11Z"/><path d="M59.87,60.62c.59-.54,1.18-1.07,1.84-1.57l.12-.09L62,59a3,3,0,0,0,2,.13c.65-.14,1.32-.37,2-.54a6.71,6.71,0,0,0,1-.94c.32-.36.62-.73.91-1.12a12.05,12.05,0,0,0,.8-1.21,6,6,0,0,0,.59-1.23l.12-.4.15,0a5.07,5.07,0,0,1,.4-.72,7.9,7.9,0,0,1,1.39-1.55A9,9,0,0,1,73,50.34,6.39,6.39,0,0,1,75,49.65L73.38,50.9c-.52.4-1,.82-1.52,1.24s-1,.86-1.42,1.32L70,53.9a4.15,4.15,0,0,0,1.52-.07,13.15,13.15,0,0,0,1.86-.56c1.2-.44,2.38-1,3.58-1.55A2.83,2.83,0,0,1,78,51a6.17,6.17,0,0,1,1.21-.41,12.71,12.71,0,0,1,2.44-.25c.81,0,1.61,0,2.41.09s1.32.14,2,.24a1.68,1.68,0,0,1,0-.71,1,1,0,0,1,.35-.54,1.36,1.36,0,0,1,.56-.23,2.3,2.3,0,0,1,1.1.19,6.54,6.54,0,0,1,.91.48A14,14,0,0,1,90.56,51c.27.23.54.45.8.69,0,0,0,0,0,0a2,2,0,0,0,.14-.25.85.85,0,0,0,.08-.51,2.16,2.16,0,0,0-.56-1c-.2-.23-.42-.45-.64-.67L90.16,49,90,48.84l-.17-.07-.4-.16-.84-.28c-.56-.17-1.13-.32-1.69-.46-1.15-.29-2.3-.52-3.46-.73a40.53,40.53,0,0,0-7-.77,29.71,29.71,0,0,0-3.49.36c-1.16.18-2.32.41-3.46.67a34.43,34.43,0,0,0-3.38,1A13.66,13.66,0,0,0,63,49.79l0,0-.06,0c-2.62.71-5.24,1.4-7.77,2.3-.62.23-1.24.47-1.85.73C52.14,54,51,55.17,49.81,56.28c-.66.64-1.33,1.24-2,1.88a10.55,10.55,0,0,0-1,.9,1.36,1.36,0,0,0-.28.43.55.55,0,0,0,0,.18s0,0,0,.09v0h0a.9.9,0,0,0,.34.23,4.53,4.53,0,0,0,.59.23c.41.13.85.22,1.28.31a11.8,11.8,0,0,0,2.63.2,5.45,5.45,0,0,0,1.21-.39c.42-.17.84-.36,1.25-.55s.83-.39,1.23-.6a7.94,7.94,0,0,0,.89-.52h0a1.62,1.62,0,0,1-.11-.46,4,4,0,0,1,0-.85,7.16,7.16,0,0,1,.37-1.6,6,6,0,0,1,1.8-2.63,6.39,6.39,0,0,0-1.39,2.76,6.47,6.47,0,0,0-.22,1.5,4.14,4.14,0,0,0,.05.72.81.81,0,0,0,.21.47,1.85,1.85,0,0,0,.6.09,4.65,4.65,0,0,0,.74,0,10,10,0,0,0,1.51-.28c.24-.06.49-.13.72-.21l.07,0,0,0a.21.21,0,0,0,.11-.08,2.83,2.83,0,0,0,.28-.23c.37-.34.74-.72,1.1-1.09.74-.75,1.45-1.52,2.15-2.3.36-.39.7-.78,1-1.17l.49-.6a6.79,6.79,0,0,1,.6-.6,17.39,17.39,0,0,1,2.65-1.83,16.17,16.17,0,0,1,2.89-1.35A22.24,22.24,0,0,0,69,50.57a21.12,21.12,0,0,0-2.42,2,4.92,4.92,0,0,0-.48.56l-.49.64-1,1.23c-.69.8-1.4,1.58-2.14,2.35-.37.39-.75.76-1.16,1.12a3,3,0,0,1-.33.28,1.53,1.53,0,0,1-.45.25c-.28.09-.55.16-.81.22a11.24,11.24,0,0,1-1.63.24,6,6,0,0,1-.85,0,2.16,2.16,0,0,1-.93-.26.87.87,0,0,1-.31-.39,6.14,6.14,0,0,1-.79.66c-.38.27-.77.53-1.16.77s-.8.47-1.21.69l-.63.3a3.45,3.45,0,0,1-.34.14,3.2,3.2,0,0,1-.39.1,11.5,11.5,0,0,1-4.25-.37,5.47,5.47,0,0,1-.7-.26,1.64,1.64,0,0,1-.73-.57.7.7,0,0,1-.1-.27.73.73,0,0,1,0-.25,1.67,1.67,0,0,1,.06-.5,2.08,2.08,0,0,1,.46-.71,9.29,9.29,0,0,1,1.06-1c.68-.58,1.39-1.18,2.1-1.76,1.13-.93,2.3-1.85,3.48-2.73-.47.21-.94.44-1.39.68a9,9,0,0,0-3,2.41l-.08.1-.1,0c-1.86.76-3.73,1.46-5.58,2.19-.92.37-1.84.74-2.75,1.13-.45.21-.9.41-1.33.63L38,60.6l-.35.25a.68.68,0,0,1,0,.29,1,1,0,0,1-.25.38,1.89,1.89,0,0,1-.28.23l-.29.18h0c-2.22.85-4.41,1.8-6.54,2.87-1.06.54-2.1,1.11-3.1,1.75a14.35,14.35,0,0,0-1.42,1,7.41,7.41,0,0,0-1,1c.67,0,1.35,0,2-.08s1.6-.11,2.41-.18l2.4-.21L32.75,68l.59-.06.31,0a.25.25,0,0,1,.25.06c.37-.46.74-.91,1.12-1.36-.64,1-1.29,2-1.91,2.93L32.19,71c-.14.24-.29.49-.42.74a4.93,4.93,0,0,0-.23.46,9.32,9.32,0,0,0,1.61.21c.65,0,1.31,0,2,0a18,18,0,0,0,1.94-.2A9,9,0,0,0,38,72a2.44,2.44,0,0,0,.78-.33l.14-.1.19,0a2.41,2.41,0,0,0,1-.14,9.19,9.19,0,0,0,1.08-.37c.71-.28,1.42-.63,2.12-1,1.4-.7,2.78-1.47,4.14-2.26l.07,0h.08a14.62,14.62,0,0,0,3.05-.46,14.23,14.23,0,0,0,2.88-1.06l.22-.18a4,4,0,0,1,1-.58h0c1.12-1.09,2.26-2.18,3.4-3.26C58.68,61.69,59.27,61.15,59.87,60.62Z"/><path d="M43.39,78c-1.35,0-2.7,0-4,0L35.3,78H33.43a6.34,6.34,0,0,1,.25,1.89.78.78,0,0,0,0,.19h.16c.2,0,.44,0,.67,0,.45,0,.89-.06,1.36-.11a4.43,4.43,0,0,1,1.5,0,2.67,2.67,0,0,1,.74.3,3.78,3.78,0,0,1,.33.22l.08.06.05,0,.1.06a3.78,3.78,0,0,0,1.19.3,11.53,11.53,0,0,0,1.32,0,7.5,7.5,0,0,0,2.54-.49,1.39,1.39,0,0,0,.43-.28l0,0,.07-.1c0-.07.09-.1.14-.16a3.48,3.48,0,0,1,.3-.26,8.8,8.8,0,0,1,1.23-.75,24.34,24.34,0,0,1,2.56-1.14l.22-.08c-.42.07-.84.12-1.26.17A26.42,26.42,0,0,1,43.39,78Z"/><path d="M31.31,78.07c-.94.1-1.88.26-2.81.42a13.68,13.68,0,0,1-1.36,1.18,4.44,4.44,0,0,0-.16.6,1.34,1.34,0,0,0,0,.47c0,.06,0,.05,0,0s0,0,.09,0a8.73,8.73,0,0,0,1-.35L29.12,80l2.12-.85,2.06-.8,0-.31A18,18,0,0,0,31.31,78.07Z"/><path d="M84.8,33c.07.25.16.56.25.9l-.59,0a13.27,13.27,0,0,0-.32,2,5.24,5.24,0,0,1,1.15.24c.07-.15.3-.37.42-.37s.4.25.72.49c-.3.25-.54.55-.64.51a1.2,1.2,0,0,1-.21-.13c-.49,0-1,0-1.48,0a10.27,10.27,0,0,0,.32,2.82c.07.25.15.51.24.76a9.89,9.89,0,0,1,1.56.39c-.09.12-.17.33-.26.34l-1,0a16.66,16.66,0,0,0,.81,1.57.26.26,0,0,1,.11-.07A8,8,0,0,1,87,42.22c.12.18.28.4.49.69-.5.13-.92.28-1.34.35l.41.68c.38.59.78,1.17,1.19,1.74a1.52,1.52,0,0,0,.22-.22l.55.51c-.13.1-.24.21-.33.29a21.09,21.09,0,0,0,1.38,1.62l1,1,1.53-.51a22.48,22.48,0,0,0,2.52-1,8.67,8.67,0,0,0,1.16-.65,5.75,5.75,0,0,0,1-.82,3.3,3.3,0,0,0,.76-1.26A14.43,14.43,0,0,1,96.14,43a2.64,2.64,0,0,1-.29.28c-.3,0-.37-.38,0-.64A14.83,14.83,0,0,1,94,39.13l-1,.41c.07-.73.35-1,.78-1-.12-.4-.16-.64-.17-.66a4.07,4.07,0,0,1-.49-.05c-.12,0-.24,0-.35-.07l0,.26-1.16-.8h0a2.26,2.26,0,0,1-.37-.39,3.59,3.59,0,0,0,1.12.3l.51-.06,0,.09c.11,0,.22,0,.32,0a11.58,11.58,0,0,0,1.94-.25c.48-.1,1-.23,1.45-.36a.36.36,0,0,1,0-.38.34.34,0,0,1,.45-.12c.1.08,0,.18,0,.35.31-.09.63-.19.94-.31a5.79,5.79,0,0,0,.68-.29,2.86,2.86,0,0,1-.6-.49,1.69,1.69,0,0,1-.43-.61.38.38,0,0,1,.08-.39.45.45,0,0,1,.16-.12.29.29,0,0,1,.13,0,3,3,0,0,1,.42-.14L99,33.8c.34-.11.69-.22,1-.36a1.39,1.39,0,0,0,.19-.11s0,0,0-.07.07-.48.09-.66c0-.35,0-.7.07-1.06a3.16,3.16,0,0,0-.61-1.89,9,9,0,0,0-1.91-2.36,7.42,7.42,0,0,0-1.09-.55,6.68,6.68,0,0,0-2.38-.51,23.12,23.12,0,0,0-4.81.73A7.62,7.62,0,0,0,85.9,30.2a15,15,0,0,0-1.21,2.89Zm13.67-.87c.19,0,.07.28.34.44s-.15.43-.34.43a.39.39,0,0,1-.34-.43A.4.4,0,0,1,98.47,32.14Zm-1-3.36a.33.33,0,0,1,.44-.13c.13.1-.08.23,0,.46s-.32.22-.44.12A.31.31,0,0,1,97.46,28.78Zm-5.19,6.4,0-.16,2-.24.1.56ZM93,33.93c.29.08.15-.44.34-.44s.08.28.34.44-.15.43-.34.43S92.74,33.85,93,33.93Zm2.68.56a2.39,2.39,0,0,1-.48-.08,1.62,1.62,0,0,1-.37.11.78.78,0,0,1-.4-.09.33.33,0,0,1,0-.3.49.49,0,0,1,.35-.2,5.16,5.16,0,0,1,.94.17c.11,0,.19.18.29.27A1.69,1.69,0,0,1,95.7,34.49ZM96.16,32c-.12.28-.45-.09-.48-.28s.15-.36.38-.39c.1-.3.46.09.48.27S96.28,31.66,96.16,32Zm-1.3-5.22c0,.15,0,.3,0,.45l-1,.05c0-.14,0-.29,0-.43ZM95,28.08a2.43,2.43,0,0,1,1.6.94A2.44,2.44,0,0,1,95,30a2.41,2.41,0,0,1-1.6-.93A2.4,2.4,0,0,1,95,28.08Zm-1,2.9c0,.18,0,.36,0,.54a7.32,7.32,0,0,1-1.06-.11c-.07,0-.08-.32-.11-.49Zm-1.09,1.56c.26.15-.16.43-.34.43a.39.39,0,0,1-.34-.43.4.4,0,0,1,.34-.44C92.65,32.1,92.54,32.38,92.81,32.54Zm-1.17-4.18c0-.12.22-.3.28-.28a.55.55,0,0,1,.34.31,2.66,2.66,0,0,1,.08.65C92,28.87,91.51,28.92,91.64,28.36Zm-6.41,9.37,1.23-.48.05.11-1.2.61Zm1.69.61v.08l0,0-1,.56-.13-.12a1.48,1.48,0,0,1,.21-.37,4.08,4.08,0,0,1,.33-.25V38.2c.31-.49.73-.63,1.34-.1Zm.83-1.84c-.29,0-.52-.44-.78-.69.25-.24.46-.6.76-.7s.5.27,1,.59C88.26,36.11,88,36.53,87.75,36.5Zm1.37-4.74a1.74,1.74,0,0,1-.19-.64c0-.15.23-.29.36-.44a3.2,3.2,0,0,1,.5.47s-.2.25-.32.38Zm.57,5.58a.62.62,0,0,1,0,.46,2.28,2.28,0,0,1-.47.46c-.07-.38-.42-.73.11-1C89.4,37.24,89.67,37.28,89.69,37.34ZM89,39.7c.19,0,.39.25.72.49-.31.25-.54.55-.64.51a1,1,0,0,1-.53-.54C88.54,40.05,88.86,39.7,89,39.7Zm-.88,2.58c.35-.91,1.08-.32,1.49-.72l-.13.72Zm1.31,2c0-.12.22-.3.29-.28a.64.64,0,0,1,.34.31,2.73,2.73,0,0,1,.08.65C89.82,44.82,89.32,44.87,89.45,44.31Zm1.77-.14L92,45.43C91.08,45.34,90.8,44.87,91.22,44.17ZM92,47.12a2.29,2.29,0,0,1-.47.47c-.07-.38-.42-.73.11-1,.11-.06.38,0,.4.05A.59.59,0,0,1,92,47.12Zm1.38-2.41c-.31,0-.71.1-.93-.05-.51-.35-.37-1.1.28-1.55a6.71,6.71,0,0,1,.6.9A1.77,1.77,0,0,1,93.34,44.71Zm1.3-.73a.37.37,0,0,1,.63.35c-.08.13-.23-.06-.46.07S94.56,44.11,94.64,44Zm.61,1.76-1.39,1.09c0,.13,0,.28-.08.48l-.23-.23.31-.25C94,46.27,94.17,46.18,95.25,45.74Zm-1.83-4.07a.27.27,0,0,1,.25.23h0l-2,.55-.12-.28c.18-.22.36-.43.48-.56Zm-1-1.75-.68.33c0-.33-.09-.66-.14-1l.43-.12Zm-1.41-2.47.84.6c-.65.45-.81.36-1.09-.6C91,37.45,91,37.42,91.06,37.45Zm-1-3.33c-.06,0-.39-.16-.44-.3s.31-.61.64-.68l.51.34A4.78,4.78,0,0,1,90.11,34.12ZM88.62,29l1.07.28a1.41,1.41,0,0,1-.48.3l.56.34.87.09c0,.18,0,.35,0,.52l-1-.13,0,.07-.19-.1-.24,0v-.09a3.58,3.58,0,0,1-.52-.34s.06-.18.14-.34l-.11,0C88.59,29.47,88.64,29.2,88.62,29Zm-.77,4.47c-.34-.17-.83-.12-.7-.68,0-.12.22-.3.28-.28a.58.58,0,0,1,.34.31A2.73,2.73,0,0,1,87.85,33.49Zm-1.55-3.8c.07-.11.2-.28.29-.27.35,0,.69.15,1.06.23a1.69,1.69,0,0,1-1.29.29A.3.3,0,0,1,86.3,29.69Z"/><path d="M56.22,76.55a31.55,31.55,0,0,0,3.55-.65c1.19-.26,2.39-.47,3.6-.66s2.38-.44,3.57-.69l3.57-.76,1.78-.39.9-.18.44-.1a1.57,1.57,0,0,1,.3-.05,6,6,0,0,1,.63-.27l.5-.19.49-.23c.33-.14.65-.3,1-.47s.65-.34,1-.51c1.27-.7,2.52-1.45,3.77-2.21s2.49-1.52,3.76-2.26c.63-.36,1.28-.72,1.94-1.07.34-.15.67-.33,1.05-.46l.5-.2A4.84,4.84,0,0,0,89,65a15,15,0,0,0,3.43-2.48A15.34,15.34,0,0,0,93.89,61,7.83,7.83,0,0,0,95,59.23a2.47,2.47,0,0,0,.21-.95V58l0-.24a2.89,2.89,0,0,0-.11-.51,7.88,7.88,0,0,0-.85-1.93A13.63,13.63,0,0,0,93,53.6c-.24-.28-.48-.54-.74-.79l-.62-.59c-.46-.28-.86-.62-1.3-.93a18.14,18.14,0,0,0-1.64-1.11,7.66,7.66,0,0,0-.86-.43,1.86,1.86,0,0,0-.86-.16.59.59,0,0,0-.52.45,1.35,1.35,0,0,0,.15.8l.2.43-.47-.06a27.41,27.41,0,0,0-4.7-.22,12.27,12.27,0,0,0-2.28.31,3.13,3.13,0,0,0-1.8,1l0,.08-.11,0c-1.2.58-2.42,1.16-3.71,1.64a12,12,0,0,1-2,.59,5.27,5.27,0,0,1-1.82,0,7,7,0,0,1-.57,1A12.11,12.11,0,0,1,68.44,57a13.37,13.37,0,0,1-1,1.16,7.28,7.28,0,0,1-1.16,1l0,0h-.06c-.7.16-1.39.38-2.14.51a4.93,4.93,0,0,1-1.16.06,3.21,3.21,0,0,1-1-.26c-.59.42-1.17.9-1.75,1.38l-1.83,1.53c-1.21,1-2.4,2-3.61,3l.31-.1a5.32,5.32,0,0,0-1,1c-.31.35-.59.73-.87,1.11q-.84,1.14-1.65,2.31c-.27.38-.56.79-.8,1.15a3.09,3.09,0,0,0-.33,1.2,6.87,6.87,0,0,0,0,1.36,3.13,3.13,0,0,0,.12.68,1.5,1.5,0,0,0,.26.52l0-.07a6.46,6.46,0,0,1,1.14-1.45A12.11,12.11,0,0,1,53.26,72,12,12,0,0,0,52,73.31a5.81,5.81,0,0,0-1,1.48,1.81,1.81,0,0,0-.19.81,1,1,0,0,0,.09.37,1.36,1.36,0,0,0,.21.35,1.68,1.68,0,0,0,1.49.45c.59,0,1.2-.11,1.82-.13S55.63,76.63,56.22,76.55Z"/><path d="M100.37,29.89l.07.12.07.14a1.57,1.57,0,0,1,.08.29,4.24,4.24,0,0,1,.06,1.12,9.91,9.91,0,0,1-.12,1.08c0,.18-.06.36-.1.53l0,.14a.3.3,0,0,1-.08.18,1,1,0,0,1-.27.14c-.35.13-.7.22-1,.32l-.11,0,0,0,.17.09a2.92,2.92,0,0,0,.36.17q.38.14.75.24a13.09,13.09,0,0,0,1.54.3l.39,0a.8.8,0,0,0,.35,0,1.05,1.05,0,0,0,.52-.44,1.8,1.8,0,0,0,.16-.34.5.5,0,0,1,.43-.31,1.52,1.52,0,0,1,.79.26,1.57,1.57,0,0,0,.5-.08,2.76,2.76,0,0,0,.55-.19,5.9,5.9,0,0,0,1-.53,3.18,3.18,0,0,0,.81-.73,1.9,1.9,0,0,0,.28-1,8.48,8.48,0,0,0-.19-2.29,11.33,11.33,0,0,0-.69-2.21,2.34,2.34,0,0,0-1.51-1.37,4.08,4.08,0,0,0-2.18.13,11.07,11.07,0,0,0-2.11,1,21.07,21.07,0,0,0-1.81,1.13l1,1.62Zm1.48,2.61s.55-.18.81.06a.52.52,0,1,1-.68.74C101.71,33.07,101.85,32.5,101.85,32.5Z"/><path d="M27.35,78.7c-1.31.26-2.62.55-3.92.88s-2.6.66-3.87,1.08h0a.85.85,0,0,0,.25.17,2.16,2.16,0,0,0,.63.16,6.66,6.66,0,0,0,1.34,0,8.22,8.22,0,0,0,1.32-.18,4.27,4.27,0,0,0,.61-.18c.2-.08.41-.16.61-.26.81-.37,1.62-.82,2.43-1.27l.84-.48Z"/><path d="M94.36,94.94a8.49,8.49,0,0,0,1.83.22c1.26,0,2.53-.13,3.82-.19l.52,0c-.08-.21-.16-.42-.23-.63-.68.1-1.36.18-2,.22s-1.47.09-2.18.1-1.45,0-2.18,0h-.44l.47.16A3.52,3.52,0,0,0,94.36,94.94Z"/><path d="M56.61,78.64l0,.06a1.16,1.16,0,0,0,.2.13,3.25,3.25,0,0,0,.53.23,9.76,9.76,0,0,0,1.24.3c.39.07.78.13,1.18.17l.62-.34.1,0,.14-.09a1.94,1.94,0,0,0,.29-.21l.59-.46c.4-.32.78-.67,1.17-1,.63-.55,1.26-1.09,1.92-1.6L63.51,76c-1.19.22-2.37.51-3.57.74a31,31,0,0,1-3.66.5c-.62,0-1.27,0-1.85,0l-1.35,0,.72.14a12.3,12.3,0,0,1,1.33.33,3,3,0,0,1,1.35.74l.08.09Z"/><path d="M96.17,95.85a8.44,8.44,0,0,1-2-.28,4,4,0,0,1-.49-.16,3.81,3.81,0,0,0-.44-.15c-.29-.1-.6-.18-.9-.27l-1.88-.46a6.83,6.83,0,0,1-1.88-.73l-.22-.19a1.25,1.25,0,0,1-.18-.24A4.25,4.25,0,0,0,88,93a7.72,7.72,0,0,0-.58-.73c-.41-.47-3.2-3.11-4.11-4-.45-.46-.9-.92-1.33-1.4-.22-.24-.43-.48-.64-.74a3.91,3.91,0,0,1-.46-.88,7.76,7.76,0,0,0-.94-1.63,7.12,7.12,0,0,0-.62-.72l-.35-.32,0,0c-.3.08-2.71.64-3.07.71,0,0,0,0,0,0a7,7,0,0,0,2.23,3.66h0s1.55,1.79,2.34,2.65l2.41,2.58L84,93.44l.59.65.08.09,0,.06v0h0s0,0,0,.06a.24.24,0,0,1,0,.14,1.54,1.54,0,0,1,0,.19l0,.43a14.17,14.17,0,0,0,0,1.72s0,.09,0,.14h.94l0-2v-.66l.49.45A12.9,12.9,0,0,0,90,97.17a5.12,5.12,0,0,0,1.07.28,3.27,3.27,0,0,0,.54,0l.57,0c.77,0,1.55-.12,2.33-.22,1.55-.19,8.37-.72,9-.6v-1l-3.42.11C98.78,95.75,97.49,95.91,96.17,95.85Z"/><path d="M108.41,36.14a1.46,1.46,0,0,0-.86-.94c-.2-.08-.45-.1-.7-.17l-.72-.23-.69-.27-.35-.12-.17-.06a.24.24,0,0,1-.1-.05,1.48,1.48,0,0,1-.31,0h-.21l0,0a1.32,1.32,0,0,0-.64-.26.23.23,0,0,0-.18.14,1.56,1.56,0,0,1-.18.37,1.33,1.33,0,0,1-.7.53,1.08,1.08,0,0,1-.44,0l-.4-.06a13.58,13.58,0,0,1-1.56-.36,6.09,6.09,0,0,1-.75-.28c-.12-.06-.25-.11-.36-.18a1.07,1.07,0,0,1-.28-.19l-.3.08a2.84,2.84,0,0,1-.42.08s-.08,0-.11.07a.38.38,0,0,0-.11.11.26.26,0,0,0,0,.27,1.55,1.55,0,0,0,.42.51,2.51,2.51,0,0,0,1.21.62c.45.1.95.17,1.41.32a12,12,0,0,0,1.38.27c.94.12,1.89.24,2.84.33l.69.08a3.78,3.78,0,0,0,.67,0,10.39,10.39,0,0,0,1.36-.21l.25-.05.09.2a1.15,1.15,0,0,0,.08.15l.11.18h0A1.37,1.37,0,0,0,108.41,36.14Z"/><path d="M102.67,50l0-.22a.25.25,0,0,0,0,.08v0l0-.08-.14-.19-.3-.36c-.21-.24-.43-.48-.66-.71-.45-.47-.92-.88-1.43-1.32A24.53,24.53,0,0,1,97.87,45a3.28,3.28,0,0,1-.57,1.31A6.08,6.08,0,0,1,95,48.12a11.25,11.25,0,0,1-2.72.89,13.11,13.11,0,0,1-1.38.2c.15.15.3.31.44.47A2.32,2.32,0,0,1,92,50.86a1.26,1.26,0,0,1-.14.7,2.75,2.75,0,0,1-.19.28l-.05.07a3.73,3.73,0,0,1,.26.3,3.51,3.51,0,0,1,.59.42c.28.24.54.5.8.77a13.6,13.6,0,0,1,1.38,1.73,8.54,8.54,0,0,1,1,2,3.68,3.68,0,0,1,.15.57l0,.28v.3a2.93,2.93,0,0,1-.2,1.18,8,8,0,0,1-1.17,1.95A15.73,15.73,0,0,1,93,63.08a15.92,15.92,0,0,1-3.6,2.68,5.22,5.22,0,0,1-.54.24l-.52.2c-.31.11-.63.28-1,.43-.64.33-1.27.68-1.9,1l-3.81,2.18c-1.28.71-2.56,1.41-3.88,2.06-.33.17-.66.32-1,.47s-.67.31-1,.45l-.51.21-.53.18a1.93,1.93,0,0,1-.68.15c-.09.07-.2.06-.3.1l-.44.13-.87.25-1.77.48-3.55.89-2.25.52c-.57.68-1.14,1.36-1.74,2-.34.39-.71.76-1.08,1.13-.16.16-.32.31-.5.46.54.11,1.08.23,1.62.38a7.5,7.5,0,0,1,1.24.47,3.69,3.69,0,0,1,.62.38,2.23,2.23,0,0,1,.26.27c.79-.45,1.58-.9,2.37-1.32s1.85-1,2.8-1.41c-.82.66-1.66,1.27-2.51,1.87l-.47.32c2.12,0,4.24-.1,6.35-.25,1.16-.09,2.33-.18,3.47-.35a9.9,9.9,0,0,0,1.67-.37,3.17,3.17,0,0,0,.37-.15l.17-.11.21-.12q.3-.15.6-.27a.21.21,0,0,1,.1-.06s0,0,0,0l.14-.06c2.17-.89,4.36-1.7,6.44-2.7.52-.26,1-.53,1.5-.83a6.5,6.5,0,0,0,.65-.49c.17-.16.38-.41.58-.62a25.79,25.79,0,0,1,2.66-2.36c.93-.73,1.9-1.4,2.89-2,.49-.32,1-.63,1.5-.93s1-.59,1.5-.89a11.92,11.92,0,0,0,2.61-2.14,14.07,14.07,0,0,0,2-2.75,23.7,23.7,0,0,0,1.42-3.12,14.15,14.15,0,0,0,.51-1.61,6,6,0,0,0,.11-1.65,11.92,11.92,0,0,0-.73-3.3A19.65,19.65,0,0,0,102.67,50Z"/><path d="M84.75,94.51h0a0,0,0,0,0,0,0A0,0,0,0,1,84.75,94.51Z"/><path d="M68.75,99.49a7.62,7.62,0,0,1-1.49-.2,9.81,9.81,0,0,1-1.43-.42,8.57,8.57,0,0,1-2.62-1.46,3.49,3.49,0,0,1-1-1.25,2.79,2.79,0,0,1-.18-.76c0-.25-.06-.49-.09-.74-.08-1-.13-1.93-.17-2.89-.08-1.93-.09-3.86-.09-5.79v0l0,0A18.66,18.66,0,0,0,62.57,84a7.53,7.53,0,0,0,.31-1,3.74,3.74,0,0,0,.09-.66,1.27,1.27,0,0,0,0-.34v0l0,0a1.73,1.73,0,0,1,1-.67,3.09,3.09,0,0,1,.53-.09A2.23,2.23,0,0,0,64,81a7,7,0,0,0-1.12-.4c-.7-.22-1.44-.38-2.18-.55l-.09.11-.29.33a8.58,8.58,0,0,0-.53.7A5,5,0,0,0,59,82.66,1.67,1.67,0,0,0,59,83l0,.46,0,.91c0,.6,0,1.21,0,1.81v3.62c0,1.2,0,2.41-.07,3.61v.12l-.07.07-1.77,1.81-.44.45-.18.2a5.42,5.42,0,0,0,.41.72l1.55-.9.61-.35,0,.71c0,.35,0,.71,0,1a4.67,4.67,0,0,0,.1,1,0,0,0,0,1,0,0h.09a2.8,2.8,0,0,0,.45.11.48.48,0,0,0,.28-.08,1.54,1.54,0,0,0,.3-.28l.26-.32.33.27a10,10,0,0,0,1.54,1,17.33,17.33,0,0,0,1.7.77,9.05,9.05,0,0,0,3.55.75c1.27,0,2.55,0,3.82-.09l3.23-.12-.34-.75C72.47,99.56,70.62,99.58,68.75,99.49Z"/><path d="M68.79,98.79c1.55.06,3.12,0,4.69,0-.07-.26-.14-.52-.22-.77a11.6,11.6,0,0,1-2.11.34,13.82,13.82,0,0,1-2.32,0c-1.14-.08-2.28-.17-3.43-.35.22.09.43.18.65.25A9.26,9.26,0,0,0,68.79,98.79Z"/><path d="M84.36,94.27s0,0,0,0h0S84.37,94.27,84.36,94.27Z"/><path d="M77.79,81.92c.29-.07.57-.12.86-.17,0-.23.11-.46.18-.68a7.9,7.9,0,0,1,.35-.92,2.82,2.82,0,0,1,.23-.46l-.31.11a10.08,10.08,0,0,1-1.77.35c-1.17.15-2.34.21-3.52.25l-.92,0c.65.69,1.29,1.57,1.84,2.25.65-.18,1.3-.35,2-.51C77.05,82.07,77.42,82,77.79,81.92Z"/></svg>