<svg id="Layer_1" data-name="Layer 1" xmlns="http://www.w3.org/2000/svg" width="128" height="128" viewBox="0 0 128 128"><defs><style>.cls-1{fill:#2d2d2d;}</style></defs><title>Artboard 6</title><path d="M32.85,123.78,29.07,110.9h2.31l2.68,9.53,2.59-9.53h2.27l-3.79,12.88Z"/><path d="M40.15,110.9h2.13v7a15.74,15.74,0,0,0,.08,2.12,2.1,2.1,0,0,0,.67,1.32,2.35,2.35,0,0,0,2.61.14,1.65,1.65,0,0,0,.64-.92,11.53,11.53,0,0,0,.17-2.51V110.9h2.13v6.76a17.48,17.48,0,0,1-.28,3.75,3.13,3.13,0,0,1-1.25,1.87,4.18,4.18,0,0,1-2.56.72,4.83,4.83,0,0,1-2.58-.59,3.37,3.37,0,0,1-1.34-1.67,12.54,12.54,0,0,1-.42-4Z"/><path d="M51.06,123.78V111h2.13v10.6H58.5v2.18Z"/><path d="M61.5,123.78v-10.7H58.36V110.9h8.39v2.18H63.63v10.7Z"/><path d="M68.3,110.9h2.12v7A17.73,17.73,0,0,0,70.5,120a2.16,2.16,0,0,0,.68,1.32,2.35,2.35,0,0,0,2.61.14,1.7,1.7,0,0,0,.64-.92A11.53,11.53,0,0,0,74.6,118V110.9h2.12v6.76a18.34,18.34,0,0,1-.27,3.75,3.17,3.17,0,0,1-1.25,1.87,4.2,4.2,0,0,1-2.56.72,4.83,4.83,0,0,1-2.58-.59,3.39,3.39,0,0,1-1.35-1.67,12.94,12.94,0,0,1-.41-4Z"/><path d="M79.15,123.78V110.9h4.5a6.36,6.36,0,0,1,2.46.34,2.77,2.77,0,0,1,1.21,1.21,4.11,4.11,0,0,1,.47,2,3.82,3.82,0,0,1-.72,2.43A3.16,3.16,0,0,1,85,118.09a5.56,5.56,0,0,1,1.13,1.08,14.57,14.57,0,0,1,1.22,2.1l1.29,2.51H86.1L84.56,121a19.59,19.59,0,0,0-1.13-1.91,1.6,1.6,0,0,0-.64-.52,2.79,2.79,0,0,0-1.07-.15h-.44v5.38Zm2.13-7.44h1.58a8.4,8.4,0,0,0,1.85-.12,1.2,1.2,0,0,0,.64-.52,1.91,1.91,0,0,0,.25-1,1.78,1.78,0,0,0-.25-1,1.28,1.28,0,0,0-.67-.52,9,9,0,0,0-1.73-.09H81.28Z"/><path d="M90,123.78V110.9h7.84v2.18H92.11v2.85h5.31v2.17H92.11v3.5H98v2.18Z"/><path d="M1.65,17.56V3.36H4V15.14H9.91v2.42Z"/><path d="M22.4,17.56H19.83l-1-3.24H14.1l-1,3.24H10.61L15.18,3.24h2.51ZM18,11.9,16.42,6.58,14.83,11.9Z"/><path d="M23.84,17.56V3.24h3.81a11.31,11.31,0,0,1,2.78.21,3.1,3.1,0,0,1,1.72,1.42,5.1,5.1,0,0,1,.68,2.79,5.29,5.29,0,0,1-.58,2.6,3.44,3.44,0,0,1-1.47,1.48,7.63,7.63,0,0,1-3,.42H26.2v5.4ZM26.2,5.67V9.74h1.31a5.51,5.51,0,0,0,1.8-.19,1.53,1.53,0,0,0,.78-.67,2.21,2.21,0,0,0,.3-1.19,2.16,2.16,0,0,0-.31-1.2,1.56,1.56,0,0,0-.77-.66,7.25,7.25,0,0,0-1.95-.16Z"/><path d="M35,17.56V3.24h3.81a11.36,11.36,0,0,1,2.78.21,3.1,3.1,0,0,1,1.72,1.42A5.1,5.1,0,0,1,44,7.66a5.29,5.29,0,0,1-.58,2.6,3.49,3.49,0,0,1-1.47,1.48,7.69,7.69,0,0,1-3,.42H37.34v5.4ZM37.34,5.67V9.74h1.31a5.55,5.55,0,0,0,1.8-.19,1.61,1.61,0,0,0,.78-.67,2.21,2.21,0,0,0,.3-1.19,2.16,2.16,0,0,0-.31-1.2,1.54,1.54,0,0,0-.78-.66,7.11,7.11,0,0,0-1.94-.16Z"/><path d="M46.12,17.56V3.24h8.71V5.67H48.49V8.84h5.9v2.41h-5.9v3.89h6.56v2.42Z"/><path d="M59.9,17.56V5.67H56.41V3.24h9.33V5.67H62.26V17.56Z"/><path d="M72.25,17.56V3.24h8V5.67H74.61V9.05h4.93v2.43H74.61v6.08Z"/><path d="M92.15,17.56H89.58l-1-3.24h-4.7l-1,3.24H80.36L84.93,3.24h2.51ZM87.79,11.9,86.17,6.58,84.58,11.9Z"/><path d="M101.11,12.3l2.29.89a6.41,6.41,0,0,1-1.78,3.51,4.48,4.48,0,0,1-3.08,1.1A4.54,4.54,0,0,1,94.82,16a8.57,8.57,0,0,1-1.64-5.51A9,9,0,0,1,94.83,4.8,4.69,4.69,0,0,1,98.69,3,4.46,4.46,0,0,1,102,4.35a5.82,5.82,0,0,1,1.38,2.84L101,7.87a3.2,3.2,0,0,0-.89-1.78,2.29,2.29,0,0,0-1.59-.62A2.53,2.53,0,0,0,96.44,6.6a6.53,6.53,0,0,0-.82,3.74,7,7,0,0,0,.8,3.85,2.44,2.44,0,0,0,2.08,1.14,2.14,2.14,0,0,0,1.62-.72A4.6,4.6,0,0,0,101.11,12.3Z"/><path d="M105.63,17.56V3.24h8.72V5.67H108V8.84h5.9v2.41H108v3.89h6.56v2.42Z"/><path d="M116.75,3.24h4.32a6.53,6.53,0,0,1,2.48.37,4.08,4.08,0,0,1,1.53,1.24,6.4,6.4,0,0,1,1.11,2.25,13,13,0,0,1,.4,3.45,11.1,11.1,0,0,1-.42,3.23A6.46,6.46,0,0,1,125.1,16a4.14,4.14,0,0,1-1.55,1.21,5.84,5.84,0,0,1-2.35.4h-4.45Zm2.37,2.43v9.47h1.77a4.45,4.45,0,0,0,1.66-.22,2.05,2.05,0,0,0,.84-.64,3.65,3.65,0,0,0,.54-1.38,11.49,11.49,0,0,0,.22-2.46,11.67,11.67,0,0,0-.22-2.51,3.34,3.34,0,0,0-.69-1.44,2.11,2.11,0,0,0-1.13-.7,9.84,9.84,0,0,0-1.92-.12Z"/><path class="cls-1" d="M63.78,101.65c-.65-.21-1.29-.46-1.92-.7s-1.25-.52-1.86-.82a4.78,4.78,0,0,1-.45-.23,2.63,2.63,0,0,1-.44-.3,3.61,3.61,0,0,1-.66-.81,6,6,0,0,1-.78-1.86,13.17,13.17,0,0,1-.38-2,14.25,14.25,0,0,1,0-2,9.25,9.25,0,0,1,.14-1.29,2.06,2.06,0,0,1-.71-.24,3.12,3.12,0,0,1-.56-.41,1.79,1.79,0,0,0-.37-.21,1.16,1.16,0,0,0-.42-.07h-.07s0,0,0,0a.58.58,0,0,0-.1.32,8.27,8.27,0,0,0,0,1.13c0,.1,0,.21,0,.31.13.38.25.76.36,1.15.17.63.33,1.27.47,1.91s.26,1.28.35,1.93c0,.32.07.66.09,1a5.21,5.21,0,0,1,0,1l0,.19-.18,0a11.5,11.5,0,0,1-1.31,0,5.08,5.08,0,0,0-1.25.09.4.4,0,0,0-.2.11.9.9,0,0,0-.07.23,2.92,2.92,0,0,0,0,.59c0,.25.06.5.1.75a4,4,0,0,1,1.15-.44,2.75,2.75,0,0,1,.91,0,2.54,2.54,0,0,1,.44.13l.36.13c.47.16,1,.34,1.43.52l1.32.52.64-.08c-.55-.48-1.09-1-1.61-1.47a0,0,0,0,1,0-.06,0,0,0,0,1,0,0c.88.47,1.73,1,2.56,1.5l.24.16c1.19.16,2.36.34,3.53.54.24-.33.49-.66.75-1C64.71,101.91,64.24,101.79,63.78,101.65Z"/><path class="cls-1" d="M84.7,47.81v0a17.5,17.5,0,0,0-.62-2.52,5.18,5.18,0,0,0-.53-1.11,2.52,2.52,0,0,0-.35-.43l-.51-.4A12.56,12.56,0,0,0,80.35,42a19.89,19.89,0,0,0-2.26-.87,3.26,3.26,0,0,1-.48.2l-.33.07a2.14,2.14,0,0,1,1,.79l.15.22-.15.2a4.39,4.39,0,0,1-.61.61,6.08,6.08,0,0,1-.66.47,6.65,6.65,0,0,1-1.48.69,5.64,5.64,0,0,1-1.41.25,5.45,5.45,0,0,1,.55.25,3.4,3.4,0,0,1,1,.77,3.48,3.48,0,0,1,.65,1.06,3.59,3.59,0,0,1,.2,1.22v1.1l-.74-.85A3.76,3.76,0,0,0,74,47c-.66-.23-1.39-.36-2.13-.55,0,.37,0,.75,0,1.12a7.55,7.55,0,0,1-.1,1.15,3,3,0,0,1-.17.61,2.49,2.49,0,0,1-.34.55c-.21.28-.4.58-.6.9-.1.15-.22.31-.35.48a1.84,1.84,0,0,1-.54.48,1,1,0,0,1-.47.12,1.12,1.12,0,0,1-.47-.11,2.14,2.14,0,0,1-.55-.45,6.56,6.56,0,0,1-.67-1l-.06-.12,0-.12a7.6,7.6,0,0,0,0-2.38,7.81,7.81,0,0,0-.82-2.28c-.13-.26-.28-.51-.44-.77a6,6,0,0,1-1.22,1.76,4.17,4.17,0,0,1-1,.76,2.49,2.49,0,0,1-1.4.27l-.18,0-.1-.17A2.72,2.72,0,0,1,62,46a3,3,0,0,1,.19-1.26,3.57,3.57,0,0,1,.64-1.06l0-.06-.18.09a3,3,0,0,1-1.39.23l-.21,0L61,43.72c-.07-.16-.14-.33-.2-.49a4.28,4.28,0,0,1-.15-.51,3.41,3.41,0,0,1-.07-1.06,2.71,2.71,0,0,1,.3-1,1.84,1.84,0,0,1,.61-.69,2.5,2.5,0,0,1,.21-.35,5.23,5.23,0,0,1-1,.25l-.38,0A5.48,5.48,0,0,1,60,41a5.36,5.36,0,0,1-.71,1.13,2.88,2.88,0,0,1-1,.93,2.37,2.37,0,0,1-.34.13l0,0a6,6,0,0,1,1.59,1.7,12.24,12.24,0,0,1,1.74,5,12.77,12.77,0,0,1,.1,2.62,11.88,11.88,0,0,1-.16,1.32c-.09.45-.23.86-.35,1.28-.94,2.77-2.11,5.41-3.28,8.06l.14-.12a3.7,3.7,0,0,0,.28-.28c.17-.2.34-.41.5-.62.32-.42.62-.86.91-1.3a17.82,17.82,0,0,0,1.56-2.7c.23-.47.45-.94.64-1.43s.41-1,.6-1.46c.3-.77.61-1.54.89-2.33,0-.43,0-.87-.09-1.31a11.83,11.83,0,0,0-.21-1.69,7.38,7.38,0,0,1,.61,1.62,16.53,16.53,0,0,1,.35,1.7,12.5,12.5,0,0,1,.16,1.74c0,.1,0,.2,0,.3a6.1,6.1,0,0,0,.41-.7,6,6,0,0,0,.66-2.06,7.92,7.92,0,0,0-.07-2.22,9,9,0,0,0-.5-2.22,6.73,6.73,0,0,1,.92,2.15c.1.38.2.74.27,1.14a6,6,0,0,1,.06,1.2A6.15,6.15,0,0,1,65,54.84a7.56,7.56,0,0,1-.82,1.36,5.35,5.35,0,0,1,.63.53,3.7,3.7,0,0,1,.65.9,2.26,2.26,0,0,1,.21,1.13c-.07.69-.08,1.34-.1,2.05,0,.25,0,.51-.06.77.26-.29.5-.61.73-.92a19.66,19.66,0,0,0,1.31-2.18c.06-.1.12-.2.19-.3a1.77,1.77,0,0,1,.15-.18.58.58,0,0,1,.2-.12.44.44,0,0,1,.39.06.56.56,0,0,1,.18.26.82.82,0,0,1,.06.19,1.64,1.64,0,0,0,.07.25.24.24,0,0,0,.26.16,1.42,1.42,0,0,0,.51-.18,3.86,3.86,0,0,0,.95-.81,3.75,3.75,0,0,0,.38-.51A1.71,1.71,0,0,0,71,57a11.34,11.34,0,0,1-.22-1.64,8.6,8.6,0,0,1,.17-2.48,14.82,14.82,0,0,0,.29,2.42,13.48,13.48,0,0,0,.67,2.33,13.87,13.87,0,0,0,1,2.18c.17.3.35.59.55.89l0-.29c0-.55,0-1.11-.08-1.67s0-1.11,0-1.67l0-1.67a28.68,28.68,0,0,1,.64,3.3c.08.55.16,1.11.22,1.66s.14,1.11.19,1.66l.12,1.32-.84-1a12.6,12.6,0,0,1-1.46-2.11,11.42,11.42,0,0,1-1-2.35c-.06-.21-.12-.44-.17-.65a3.07,3.07,0,0,1-.35.73,3.52,3.52,0,0,1-.91,1,1.59,1.59,0,0,1-.69.33.81.81,0,0,1-.5-.06.78.78,0,0,1-.36-.33s0-.1-.07-.14v0a15.9,15.9,0,0,1-1.27,2.31,10.37,10.37,0,0,1-1.8,2l-1,.88.36-1.27a11,11,0,0,0,.39-2,18.43,18.43,0,0,1,.3-2.07,2.28,2.28,0,0,0-.57-1.76,6.66,6.66,0,0,0-.5-.56c-.13.17-.26.34-.4.5l-1,1.2.26-1.52c.06-.34.1-.68.13-1h0c0-.19,0-.4,0-.6s0-.55,0-.83c-.09.44-.19.87-.3,1.31a16.87,16.87,0,0,1-1.11,3,11.91,11.91,0,0,1-.81,1.43,12.8,12.8,0,0,1-1,1.3,12.66,12.66,0,0,1-1.14,1.18,4.12,4.12,0,0,1-.65.52,2.16,2.16,0,0,1-.6.32c-.2.43-.39.88-.59,1.32l-1,2.33c-.34.73-.63,1.47-1,2.2a5.65,5.65,0,0,1-.38,1.48,12.94,12.94,0,0,1-.72,1.61,12.46,12.46,0,0,1-.91,1.52,7.51,7.51,0,0,1-.54.72c-.11.12-.2.24-.31.35a2.06,2.06,0,0,1-.3.28c-.18.65-.41,1.22-.64,1.82s-.52,1.25-.78,1.88-.65,1.46-1,2.19l.37.93c.14.37.3.73.45,1.1s.32.71.49,1a4.19,4.19,0,0,0,.6.86l.11.11,0,.17a7.5,7.5,0,0,1,.1,1.12c0,.35,0,.71,0,1.06s0,.69,0,1a3.85,3.85,0,0,0,.15.94l0,.11v0a2.81,2.81,0,0,0,.48,1.47,4.09,4.09,0,0,0,.5.66,3.87,3.87,0,0,0,.62.54l.07,0v.07a2.4,2.4,0,0,0,.6.94,1.74,1.74,0,0,0,.42.32l.12,0s0,0,0,0a1.15,1.15,0,0,0,0-.45c0-.17-.06-.37-.1-.56a6.19,6.19,0,0,1-.17-1.28,1.72,1.72,0,0,1,.21-.83,1.14,1.14,0,0,1,.44-.4,1.6,1.6,0,0,1,.54-.14,2.68,2.68,0,0,1,.83.09,2.16,2.16,0,0,1,.73.35c.21.13.35.24.46.29a.49.49,0,0,0,.29.06c.08,0,.35,0,.53-.07a5,5,0,0,0,.56-.11A2.62,2.62,0,0,0,59.6,90a.86.86,0,0,0,.44-.57,1.43,1.43,0,0,0,0-.44c0-.21,0-.42,0-.63,0-.41,0-.82.08-1.22a19.79,19.79,0,0,1,.37-2.43,10,10,0,0,1,.33-1.19,2.84,2.84,0,0,1,.27-.59.84.84,0,0,1,.22-.25c0-.07,0-.13,0-.2.14-.64.26-1.28.37-1.92l.16-1,.08-.48,0-.24v-.18s0,0,0,0,0,0,0,0,0,0,.06,0,0,.07,0,.1v.43l0,.5v1c0,.66-.06,1.31-.12,2,0,.24,0,.48-.05.71a1.84,1.84,0,0,1,0,.33c0,.35,0,.7,0,1,0,.69,0,1.4,0,2a5.94,5.94,0,0,0,.07,1,1.79,1.79,0,0,0,.25.77.53.53,0,0,0,.19.18l.12.05a.08.08,0,0,1,.07,0l.16,0a1.92,1.92,0,0,1,.68.27,1.07,1.07,0,0,1,.37.39,1.17,1.17,0,0,1,.11.42c0,.1,0,.13,0,.13s0,0,0,0l.11.06.28.14a3.94,3.94,0,0,1,.4.26L65,90a1.77,1.77,0,0,1,0-.3.77.77,0,0,1,.19-.39.62.62,0,0,1,.47-.15,2.29,2.29,0,0,1,.32.06,6.84,6.84,0,0,0,1,.2,1,1,0,0,1,.61.28.44.44,0,0,1,.1.19h0s0,0,0,0c.11.62.2,1.24.29,1.85a4.15,4.15,0,0,0,1-1.53,1.55,1.55,0,0,0,.09-.49.86.86,0,0,0,0-.23c0-.11,0-.24,0-.37a4.71,4.71,0,0,1,.19-1.43A13.24,13.24,0,0,0,70,85.34V85a4.16,4.16,0,0,1,.08-.43,5,5,0,0,1,.25-.69c.2-.42.41-.82.62-1.2.43-.76.88-1.49,1.28-2.23a11.1,11.1,0,0,0,1-2.25c0-.14.06-.28.09-.42s0-.33.06-.43v-.31c0-.42,0-.84,0-1.25a7.4,7.4,0,0,0-.51-2.46.06.06,0,0,1,0-.08.08.08,0,0,1,.08,0,4.76,4.76,0,0,1,.66,1.16A8,8,0,0,1,74,75.7a7.08,7.08,0,0,1,.16.9c.34-1.27.65-2.55.9-3.83.39-1.91.7-3.83.91-5.75s.24-3.87.32-5.8c.07-1.31.06-2.62,0-3.93l-.46-.43a10.7,10.7,0,0,1-1.3-1.39,8,8,0,0,1-1-1.61A7,7,0,0,1,73,52.09a5.85,5.85,0,0,1,0-1.82A8.27,8.27,0,0,0,73.41,52a8.82,8.82,0,0,0,.73,1.59,10.24,10.24,0,0,0,1,1.43c.17.19.34.38.53.57l-.09-.78c-.06-.6-.16-1.19-.24-1.79s-.18-1.19-.3-1.79c0-.3-.11-.59-.18-.89a3.45,3.45,0,0,0-.12-.43l-.07-.22c0-.07-.07-.13-.1-.2a2.7,2.7,0,0,1,.51.78c.13.28.25.57.36.86.21.58.4,1.17.55,1.76s.27,1.2.39,1.81c0,.3.09.61.12.92s0,.31,0,.48v.21a14.73,14.73,0,0,1,.33,2c.06.49.12,1,.16,1.47l0,1.48a33.83,33.83,0,0,1-.49,5.86c-.29,1.94-.69,3.86-1.17,5.76-.36,1.41-.78,2.81-1.24,4.19l0,.29a2.14,2.14,0,0,1,0,.36,4.17,4.17,0,0,1-.06.71,14.63,14.63,0,0,1-1.79,4.38,19.06,19.06,0,0,0,2-2.47,23,23,0,0,0,2-3.72,29.46,29.46,0,0,0,1.35-4,25.53,25.53,0,0,0,.73-4.08l.13-1.49.95,1.15.05.07c.14-.41.28-.82.43-1.23.33-1,.65-1.92,1-2.89s.6-1.93.85-2.9a13.53,13.53,0,0,0,.5-2.86l.07-3.06,1,2.85a6.35,6.35,0,0,1,.24,1q.08.5.12,1c0,.11,0,.23,0,.35a18.4,18.4,0,0,0,.65-1.94A23.94,23.94,0,0,0,85.07,55,53.11,53.11,0,0,0,84.7,47.81ZM52.62,77.58l1.49-2.17A12.64,12.64,0,0,0,55,73.79c.27-.57.52-1.15.76-1.74s.47-1.17.7-1.77.45-1.2.72-1.79c-.11.63-.22,1.26-.36,1.88s-.29,1.25-.48,1.87-.32,1-.52,1.52l.14-.13c.54-.61,1.08-1.24,1.56-1.89a20.14,20.14,0,0,0,1.35-2,12.23,12.23,0,0,0,1-2.23,8.47,8.47,0,0,1-.62,2.41,14.35,14.35,0,0,1-1.17,2.23,17.7,17.7,0,0,1-1.52,2,13.63,13.63,0,0,1-1.86,1.78Zm8.14.86a7.13,7.13,0,0,1-1.08,1.5,16,16,0,0,1-1.33,1.27L57,82.38l-2.37,2,1.74-2.53c.26-.38.5-.77.74-1.16s.44-.8.64-1.22.4-.83.57-1.25a7.48,7.48,0,0,0,.44-1.31,2,2,0,0,1,0,.69c0,.24-.06.48-.09.71a11.2,11.2,0,0,1-.36,1.38c-.08.24-.17.48-.27.71.38-.31.77-.62,1.13-1a9.6,9.6,0,0,0,1.21-1.26,5.4,5.4,0,0,0,.84-1.53A3.58,3.58,0,0,1,60.76,78.44Zm6.5-.49a9,9,0,0,1-.81,1.65c-.32.51-.66,1-1,1.49l-1.6,2.2.87-2.54a9.33,9.33,0,0,0,.39-3c0-.52,0-1-.06-1.55s-.09-1-.09-1.57c.16.5.34,1,.46,1.51a11.9,11.9,0,0,1,.3,1.58,8,8,0,0,1,.06,1.39,11,11,0,0,0,.84-1.44,7.49,7.49,0,0,0,.56-1.61c.12-.56.19-1.14.26-1.73a6.65,6.65,0,0,1,.18,1.78A5.87,5.87,0,0,1,67.26,78Zm1.12-13.24a12.78,12.78,0,0,1-.62,2.11,14.76,14.76,0,0,1-1,2,11.67,11.67,0,0,1-1.27,1.85l-1.81,2.15,1.1-2.54c.19-.46.35-1,.51-1.44s.29-1,.43-1.51l.39-1.53c.14-.51.26-1,.42-1.54a22.45,22.45,0,0,1-.21,3.18c0,.23-.07.46-.11.69.3-.51.6-1,.85-1.58a19,19,0,0,0,.83-2,12,12,0,0,0,.56-2.08A7.41,7.41,0,0,1,68.38,64.71Zm3,11.32c-.41-.39-.84-.76-1.22-1.19a6.11,6.11,0,0,1-1-1.42,3.64,3.64,0,0,1-.39-1.72A5.12,5.12,0,0,1,69.06,70c0,.21,0,.42,0,.63l1.19,1.53c0,.08,0,.19,0,.31a7.22,7.22,0,0,1,0-.81c.09.35.19.69.31,1s.25.66.39,1c.29.64.61,1.27,1,1.88l.58,1.19Z"/><path class="cls-1" d="M70.3,98.75a10,10,0,0,0,1.88.66c.47.12.95.23,1.43.33a6.41,6.41,0,0,1-.55-.49,4.32,4.32,0,0,1-.45-.51,4.55,4.55,0,0,1-.28-.43c-.46,0-.91,0-1.37,0H69.59a1.31,1.31,0,0,0,.27.19A4.53,4.53,0,0,0,70.3,98.75Z"/><path class="cls-1" d="M74,100.48c-.65-.21-1.29-.45-1.92-.7s-1.25-.51-1.86-.81l-.45-.24a1.81,1.81,0,0,1-.44-.3,3.56,3.56,0,0,1-.66-.8,6,6,0,0,1-.78-1.87,13,13,0,0,1-.38-1.94,14.4,14.4,0,0,1,0-2c0-.21,0-.44,0-.65s0-.59-.08-.88l0-.26a.22.22,0,0,0,0-.13A.65.65,0,0,0,67,89.8c-.16,0-.35,0-.53,0a4.76,4.76,0,0,1-.56-.07,1.61,1.61,0,0,0-.22,0c-.06,0,0,0,0,0s0,0,0,.09a1.8,1.8,0,0,0,0,.22c0,.16,0,.32.06.5a1,1,0,0,1,0,.3.86.86,0,0,1,0,.21.82.82,0,0,1-.06.16s0,0,0,0c.13.45.24.91.35,1.37.14.63.26,1.27.36,1.91s.19,1.28.24,1.94a9.61,9.61,0,0,1,0,2l0,.19h-.17a9.77,9.77,0,0,1-1.32,0,5.08,5.08,0,0,0-1.25.09.4.4,0,0,0-.2.11.64.64,0,0,0-.06.23,2.33,2.33,0,0,0,0,.59c0,.11,0,.23,0,.34l.18.35a3.77,3.77,0,0,1,1-.38,2.77,2.77,0,0,1,.91,0,2.44,2.44,0,0,1,.45.12l.36.13,1.43.53c.44.16.88.35,1.32.52l.64-.09c-.55-.47-1.09-1-1.61-1.46,0,0,0,0,0-.06h.05c.87.47,1.73,1,2.55,1.51l.25.16c1.18.15,2.36.34,3.53.53.24-.33.49-.65.74-1C74.89,100.75,74.42,100.63,74,100.48Z"/><path class="cls-1" d="M50.44,76.63a16.5,16.5,0,0,0,.53-1.9l0-.12.13-.09a1.6,1.6,0,0,0,.23-.26,2,2,0,0,0,.24-.33c.16-.23.31-.47.46-.71.3-.49.59-1,.91-1.47l.92-1.47.06-.1c-.3.33-.62.65-.95,1s-.66.58-1,.85a5.39,5.39,0,0,1-.54.4,3.18,3.18,0,0,1-.61.37l-.43.19,0-.47v-.11a4.05,4.05,0,0,0-.37.5,8.43,8.43,0,0,0-.77,1.49l-.27.69-.21-.3a30.19,30.19,0,0,1,.27,3.9A17.26,17.26,0,0,1,49,80.81a.59.59,0,0,1,0-.08v-.06s0,0,0,0c.25-.7.51-1.39.74-2.09S50.23,77.27,50.44,76.63Z"/><path class="cls-1" d="M60.12,99.92a9.94,9.94,0,0,0,1.88.65c.37.1.74.18,1.11.26a1.34,1.34,0,0,0,0-.2c-.07-.07-.15-.14-.22-.22a4.41,4.41,0,0,1-.46-.51c-.1-.14-.19-.28-.28-.43-.45,0-.91,0-1.37,0H59.4a2.83,2.83,0,0,0,.28.2A4.56,4.56,0,0,0,60.12,99.92Z"/><path class="cls-1" d="M41.5,76.25l.55-.5a40.37,40.37,0,0,1,0-5.82c.06-1,.19-2,.32-3s.31-2,.49-3a96.65,96.65,0,0,1,2.72-11.75s0,0,0,0a.05.05,0,0,1,0,.05c-.47,1.95-.86,3.92-1.21,5.9s-.67,4-.92,5.93-.4,4-.64,6-.43,3.74-.7,5.61l.07-.07c.45-.44.88-.89,1.3-1.35l.48-.53a18.24,18.24,0,0,1,.15-4.11,43.41,43.41,0,0,1,.9-4.37q.52-2.16,1.08-4.32c.39-1.44.79-2.87,1.21-4.29a0,0,0,0,1,.08,0q-.47,2.17-.87,4.35c-.3,1.45-.57,2.91-.83,4.36s-.43,2.93-.73,4.37c-.25,1.23-.5,2.46-.74,3.69l.48-.58a9.15,9.15,0,0,0,1-1.49l.87-1.79.11,2a1.09,1.09,0,0,0,.23.65,2.82,2.82,0,0,0,.65.54c.26.18.55.35.85.57a3.66,3.66,0,0,1,.39.32l.14-.26c.16-.26.33-.51.51-.76a3.45,3.45,0,0,1,.67-.73.66.66,0,0,1,.4-.15A.44.44,0,0,1,51,72a.08.08,0,0,1,0,0l.12-.07.53-.36c.34-.25.69-.51,1-.79A8.72,8.72,0,0,0,54.37,69c.4-.72.75-1.51,1.09-2.28s.67-1.56,1-2.35c.54-1.35,1-2.71,1.51-4.08a5.51,5.51,0,0,1-.68.6,7.8,7.8,0,0,1-.87.59,5.39,5.39,0,0,1-.48.25l-.28.1h-.05a6.49,6.49,0,0,1-.45,1.07A10.13,10.13,0,0,1,54.42,64a8.87,8.87,0,0,1-.9,1.06,5.06,5.06,0,0,1-1.19.83l-.26.09-.15-.16a1.07,1.07,0,0,1-.29-.54,2.4,2.4,0,0,1-.07-.5,5.52,5.52,0,0,1,.1-.93A8.66,8.66,0,0,1,52,62.76a9.17,9.17,0,0,1-1.09,1.17l-.21.15a.78.78,0,0,1-.31.16.36.36,0,0,1-.21,0l-.09-.07A.38.38,0,0,1,50,64a.56.56,0,0,1,0-.29V63.6a4.42,4.42,0,0,1-1,.87l-.33.21-.2-.28a2.33,2.33,0,0,1-.17-.26c0-.09,0-.15-.09-.23a4.19,4.19,0,0,1-.1-.42,4.59,4.59,0,0,1-.07-.81,13.6,13.6,0,0,1,0-1.57c0-.52.11-1,.18-1.55s.18-1,.32-1.52c.07,1,.09,2.06.14,3.08,0,.51,0,1,.1,1.51,0,.13,0,.25,0,.37s0,.24.06.36l0,.15a5.17,5.17,0,0,0,.76-.79,14.9,14.9,0,0,0,1-1.37c.31-.48.6-1,.88-1.46a10.06,10.06,0,0,0,.75-1.55A5.6,5.6,0,0,1,52,60.05a13.38,13.38,0,0,1-.68,1.61,11.55,11.55,0,0,1-.94,1.52v0a2.24,2.24,0,0,0,0,.5.22.22,0,0,0,0,.08l0,0,.14-.16c.18-.22.35-.47.51-.71s.34-.49.5-.75c.32-.49.65-1,1-1.5.15-.25.3-.5.44-.76a3.72,3.72,0,0,0,.33-.72l0-.09c.17-.35.35-.69.54-1s.39-.68.61-1a10.45,10.45,0,0,1-.23,1.14c-.09.36-.19.72-.3,1.07a2.88,2.88,0,0,1-.27.94,6,6,0,0,1-.42.84,13.19,13.19,0,0,1-1,1.49c0,.49-.09,1-.1,1.45a5.75,5.75,0,0,0,.05.84,1.82,1.82,0,0,0,.09.37,4.79,4.79,0,0,0,.68-.6,8.24,8.24,0,0,0,.8-1,10.82,10.82,0,0,0,.67-1.08,6.78,6.78,0,0,0,.52-1.1l.06-.18.34-.1h.13l.2,0a2.75,2.75,0,0,0,.45-.17c.3-.12.6-.27.89-.42s.58-.33.85-.51l.28-.2a1.46,1.46,0,0,1,.07-.19c.55-1.6,1.08-3.21,1.53-4.81a10.91,10.91,0,0,0,.42-2.38A15.2,15.2,0,0,0,60.06,50a13.6,13.6,0,0,0-.5-2.38,10.52,10.52,0,0,0-1-2.22A5.27,5.27,0,0,0,57,43.63a3.55,3.55,0,0,0-2.29-.4c-1.64.23-4.66,2.15-4.68,2.17a11.27,11.27,0,0,1-2.09,1l-1.07.42c-.18.07-.37.14-.51.21a4.6,4.6,0,0,0-.39.33A10.44,10.44,0,0,0,43.65,51a18.32,18.32,0,0,0-.95,4.22c-.08.72-.15,1.45-.19,2.17s0,1.47-.1,2.23c-.25,3-.64,5.91-1,8.83a18,18,0,0,0-.19,2.15l0,2.21A19.2,19.2,0,0,0,41.26,75,4.4,4.4,0,0,0,41.5,76.25Zm15-26.33a3.37,3.37,0,0,1,.32-.94,3.71,3.71,0,0,1,.56-.8,3,3,0,0,1,.75-.62,17.46,17.46,0,0,0-.62,1.68,4.44,4.44,0,0,0-.21,1.17h0l.52-.18.54-.21a4.32,4.32,0,0,0,.53-.26,1.57,1.57,0,0,1-.34.51,2.92,2.92,0,0,1-.44.42,3.93,3.93,0,0,1-.52.35,2.33,2.33,0,0,1-.66.22l-.38.07-.06-.4A2.46,2.46,0,0,1,56.54,49.92Zm-6.22-2a3.68,3.68,0,0,1,.4-1,4,4,0,0,1,.64-.89,4.08,4.08,0,0,1,.85-.69,7.83,7.83,0,0,0-.9,1.81,5.28,5.28,0,0,0-.21.92,1.41,1.41,0,0,0,0,.2c.36-.24.72-.47,1.1-.69s.61-.35.94-.51a2.53,2.53,0,0,1,1-.29,3.83,3.83,0,0,0-.81.63l-.78.69a16.48,16.48,0,0,1-1.69,1.26l-.62.38,0-.68A3.78,3.78,0,0,1,50.32,48ZM50,54.67a2.6,2.6,0,0,1,.16-.58,1.36,1.36,0,0,1,.3-.52,2.1,2.1,0,0,0,0,.56c0,.19,0,.37.05.54a3.06,3.06,0,0,0,.12.48l.05.1h0l.2-.13.42-.3.85-.66.85-.67a5.11,5.11,0,0,0,.82-.73,2.23,2.23,0,0,1-.44,1,6,6,0,0,1-.71.87,7,7,0,0,1-.85.77l-.48.33-.28.15-.17.07-.23.06-.12,0-.1-.06a.9.9,0,0,1-.47-.69A1.75,1.75,0,0,1,50,54.67Zm-6.37-2.74a7.56,7.56,0,0,1,1-1.94,8.28,8.28,0,0,1,1.5-1.57A9.48,9.48,0,0,1,48,47.25a8.91,8.91,0,0,1,2-.74,16.46,16.46,0,0,0-1.82,1.08,12.51,12.51,0,0,0-1.59,1.3,8.12,8.12,0,0,0-1.29,1.53,5.57,5.57,0,0,0-.52.92c.31-.11.61-.22.92-.31s.63-.18.94-.27a9.16,9.16,0,0,1,1-.19l.52-.08L48,51c-.21.59-.42,1.2-.61,1.8S47,54,46.86,54.58A11.09,11.09,0,0,1,47,52.67c.07-.46.16-.91.26-1.36l-.4.12-.89.31c-.59.22-1.18.43-1.76.68l-.86.36Z"/><path class="cls-1" d="M46.25,72.74l-.15,3.72-.22,3.86c-.08,1.28-.1,2.57-.3,3.85a27.79,27.79,0,0,1-.64,3.09c-.11,1.26-.19,2.51-.28,3.77a32.41,32.41,0,0,0,1.94-3.56,10,10,0,0,0,1.15-4.25c0-1.53-.09-3.08.06-4.61a29.64,29.64,0,0,1,.68-4.27,5.65,5.65,0,0,0-1.42-1A4.25,4.25,0,0,1,46.25,72.74Z"/><path class="cls-1" d="M42.51,81.51a38.05,38.05,0,0,1,1.3-6c-.23.25-.46.5-.7.74a14.22,14.22,0,0,1-1.5,1.34l-.53.39-.33-.57c0-.09-.11-.19-.15-.28q.23,2.38.63,4.71c.22,1.12.4,2.24.66,3.35.15.69.31,1.37.47,2.05a17.64,17.64,0,0,1-.18-2.18,15.56,15.56,0,0,1,.09-1.81C42.34,82.71,42.41,82.1,42.51,81.51Z"/><path class="cls-1" d="M45.21,80.25l.47-3.82.48-3.79s0,0,0,0c-.17.26-.34.5-.51.75-.38.52-.8,1-1.22,1.51l-.36.41q-.3,1.36-.48,2.76c-.19,1.17-.32,2.35-.4,3.54S43.11,84,43,85.13s-.15,2.35-.31,3.56h0c.26,1,.56,2.1.88,3.13a1,1,0,0,0,0,.16,40.8,40.8,0,0,1,1-4.87c0-1,0-2,.11-3C44.82,82.8,45.05,81.53,45.21,80.25Z"/><path class="cls-1" d="M73,34.27a5.65,5.65,0,0,1,.73-.23L74,34l-.24-.19a2.44,2.44,0,0,0-.79-.3,2.81,2.81,0,0,0-1.7.27c0,.35,0,.71,0,1.08,0,.17,0,.34,0,.52l.44-.37a3,3,0,0,1,.68-.42A7,7,0,0,1,73,34.27Z"/><path class="cls-1" d="M76.54,28.77a2.39,2.39,0,0,1-1.07.68,2.62,2.62,0,0,1-1,.1h0a.83.83,0,0,1-.31,0,1.43,1.43,0,0,1-.43-.12l-.52-.24a.81.81,0,0,1-.45.23,1.33,1.33,0,0,1-.64-.11,2,2,0,0,1-.53-.36,5.37,5.37,0,0,1-.45.35,2.93,2.93,0,0,1-1,.35,3.49,3.49,0,0,1-1,0,3.28,3.28,0,0,1-.84-.25c-.19.3-.38.58-.56.87L67.3,31a1.56,1.56,0,0,1,.62.75,1.63,1.63,0,0,1,.14.59c0,.22,0,.35,0,.53s0,.65.07,1a2.88,2.88,0,0,0,.17.82s0,0,0,0v0l0,0,.16.15a.92.92,0,0,0,.26.15.73.73,0,0,0,.59-.3,1.8,1.8,0,0,0,.5-.73,1.33,1.33,0,0,0,0-.88s0,0,0,0a2.86,2.86,0,0,0-.12.27c-.17.31-.35.59-.6,1h0a0,0,0,0,1-.06,0h0a1,1,0,0,1-.22-.75,1,1,0,0,1,.35-.74,1.5,1.5,0,0,1,.38-.19l.34-.14a1.79,1.79,0,0,0,.52-.47,2.51,2.51,0,0,1,.52-.51l.1-.08c-.61,0-1.22,0-1.84,0A20.58,20.58,0,0,1,71.76,31c.43-.09.86-.15,1.28-.23l.32,0,.36,0a3.39,3.39,0,0,1,.71,0,5.45,5.45,0,0,1,1.33.36c.2.08.43.19.6.28a3.38,3.38,0,0,0,.54.21,9.93,9.93,0,0,0,2.09.31.62.62,0,0,0-.13-.27.29.29,0,0,0-.18-.11,10.11,10.11,0,0,1-1.06,0,1.3,1.3,0,0,1-.37-.11,1.5,1.5,0,0,1-.26-.15L76.54,31a3.8,3.8,0,0,0-1.8-.57c-.71,0-1.42-.05-2.14-.08s-1.42-.09-2.13-.16a0,0,0,0,1,0,0s0,0,0,0c.71-.09,1.42-.17,2.12-.22s1.42-.12,2.13-.16a4.32,4.32,0,0,1,2.24.54,4.92,4.92,0,0,0,.81.39c.22.05.61,0,1,0h.07a1.28,1.28,0,0,1,.68.45,1.51,1.51,0,0,1,.28.63,1.1,1.1,0,0,1,0,.16,3.22,3.22,0,0,0,.46-.75,2,2,0,0,0,.19-.84,2.58,2.58,0,0,0-.16-.89,3.78,3.78,0,0,0-.87-1.23,4.9,4.9,0,0,0-1.29-.88,9.63,9.63,0,0,0-1.33-.51,1.65,1.65,0,0,1,.19.79A1.91,1.91,0,0,1,76.54,28.77Z"/><path class="cls-1" d="M74.17,26.79l.36.48a2.4,2.4,0,0,1,.56,1.31,1.22,1.22,0,0,1,0,.42,4.15,4.15,0,0,0,.85-.74,2.18,2.18,0,0,0,.43-.76,6.85,6.85,0,0,0,.22-.79c-.47-.15-1-.29-1.42-.46h0l0,0L74,25.62a1.52,1.52,0,0,0-.09.25.69.69,0,0,0,0,.47A1.65,1.65,0,0,0,74.17,26.79Zm1.12.5c0-.35.16-.64.29-.63s.2.31.17.67-.17.64-.3.63S75.25,27.65,75.29,27.29Z"/><path class="cls-1" d="M60.19,33.19a1.54,1.54,0,0,1,.83.29l.32.24-.25.31a12,12,0,0,1-.89,1l-.05,0,.47-.16a2.36,2.36,0,0,0,.48-.25l.85-.65-.2,1a1,1,0,0,1-.09.25l-.09.14-.19.21L61,36l-.69.63a7.81,7.81,0,0,0-.64.65,3.49,3.49,0,0,0-.26.35,3.86,3.86,0,0,0,.9,0,2.4,2.4,0,0,0,1.15-.35l1.39-1.06-.94,1.4a1.54,1.54,0,0,1-.35.34l-.33.22-.63.41a5,5,0,0,0-1,.78,1.93,1.93,0,0,0,1,.18A4.65,4.65,0,0,0,62,39.25l.46-.16-.34.33a3.9,3.9,0,0,0-.66.88c0,.15-.07.31-.1.47a4.51,4.51,0,0,0,0,.9,6.49,6.49,0,0,0,.16.88l.13.44c0,.08,0,.17.08.24a1.29,1.29,0,0,0,.28,0,3.86,3.86,0,0,0,.58,0c.2,0,.4-.05.6-.08a3.34,3.34,0,0,0,.43-.1l.18-.11s0,0,0,.06l0,0-.1.14a7.17,7.17,0,0,0-.76,1.85A2.85,2.85,0,0,0,63,46.7a1.81,1.81,0,0,0,.74-.15,4.66,4.66,0,0,0,1-.54,9,9,0,0,0,1.54-1.43c-.27-.44-.55-.88-.8-1.33a13,13,0,0,1-1-2.32,10.35,10.35,0,0,1-.56-1.68,11.24,11.24,0,0,1-.33-1.73,3.93,3.93,0,0,1,0-.91l0-.22a1.21,1.21,0,0,0,0-.19,1.67,1.67,0,0,0-.06-.38c-.15-.52-.49-1-.69-1.62v-.13A6.6,6.6,0,0,0,62.91,33V31.77l0-1.18c0-.39,0-.78-.09-1.14v0a6.52,6.52,0,0,1-.18-1.23,11.52,11.52,0,0,1-1.17-.8l-.59-.53c.07.19.15.37.23.56a5.34,5.34,0,0,0,.64,1.12l.44.59-.72-.27a2,2,0,0,0-.75-.11h-.2l.28.6a2,2,0,0,0,.66.88l1.32.7-1.52-.12c-.24,0-.45-.07-.63-.09a2.22,2.22,0,0,0-.51,0,0,0,0,0,1,0,0,2.56,2.56,0,0,1,1,.8l.2.27L61,32a1.52,1.52,0,0,1-.26.16l-.19.11-.36.22a5.55,5.55,0,0,0-.66.47,2.62,2.62,0,0,0-.3.28l.19-.06A4.6,4.6,0,0,1,60.19,33.19Z"/><path class="cls-1" d="M75.68,41.06a4.56,4.56,0,0,1,1.34.27h0a3.68,3.68,0,0,0,.93-.72,6.26,6.26,0,0,0,.6-.67l-.11-.06c-.16-.06-.32-.16-.49-.21l-.25-.09-.25-.08a3.37,3.37,0,0,0-.53-.12,4.83,4.83,0,0,0-1.08-.06,8.55,8.55,0,0,0-1.08.16,2.13,2.13,0,0,1,.07.27l.07.42L74.52,40a3.43,3.43,0,0,0-.75-.17,4.41,4.41,0,0,0-.81-.05,3.59,3.59,0,0,0-.8.11.93.93,0,0,0-.54.33,3.32,3.32,0,0,1,.08.89,3.6,3.6,0,0,1-.25,1.17l0,.07,0,0s0,0,0,.05a1.77,1.77,0,0,0,0,.22c0,.17,0,.35,0,.53l.26,2.16c0,.35.07.7.1,1a9.45,9.45,0,0,1,1.07-.09,5.8,5.8,0,0,1,1.24.09,3.88,3.88,0,0,1,1.21.46l.09.06a3.15,3.15,0,0,0-.4-.88,4.3,4.3,0,0,0-.67-.82,6.67,6.67,0,0,0-.7-.57,4.43,4.43,0,0,1-1.37-.24,7.17,7.17,0,0,0,1.54-.07,6.29,6.29,0,0,0,1.43-.46,6.2,6.2,0,0,0,1.27-.74,5.3,5.3,0,0,0,.83-.72,2.76,2.76,0,0,0-.64-.37,6.11,6.11,0,0,0-1.14-.31c-.81-.17-1.65-.25-2.52-.38a6.32,6.32,0,0,1,1.29-.28A7.37,7.37,0,0,1,75.68,41.06Z"/><path class="cls-1" d="M71.22,38.9c.09.35.2.69.31,1a2.33,2.33,0,0,1,.07.25,1.14,1.14,0,0,1,.5-.42,3,3,0,0,1,.82-.23,5,5,0,0,1,.87-.06l.41,0a3.13,3.13,0,0,0-.91-.94,4.11,4.11,0,0,0-1.61-.66l-.4-.06.08-.4a1.17,1.17,0,0,1,.27-.5,1.24,1.24,0,0,1,.42-.31,2.76,2.76,0,0,1,.88-.24l.45,0-.23-.14c-.22-.13-.44-.24-.66-.35a5.32,5.32,0,0,0-.67-.28l-.6-.18c0,.15,0,.31,0,.46a5.5,5.5,0,0,1-.2,1h0a2.75,2.75,0,0,0,0,1A7.23,7.23,0,0,0,71.22,38.9Z"/><path class="cls-1" d="M63.51,29.33v0a4.23,4.23,0,0,1,.05.5A5.2,5.2,0,0,1,64.81,31a4.52,4.52,0,0,1,.85,1.83,7.36,7.36,0,0,1-.1,2,5,5,0,0,0,.18,1.85,4.94,4.94,0,0,0,.33.86,3.7,3.7,0,0,0,1.73,1.86,3.29,3.29,0,0,0,.79.3,1.5,1.5,0,0,0,.75,0,3.45,3.45,0,0,0,.79-.43L70.6,39c-.06-.34-.11-.69-.15-1a3.38,3.38,0,0,1,.09-1.17h0a6.18,6.18,0,0,0,.25-.92c0-.33.11-.66.15-1,.09-.6.16-1.69.22-2.39a3.53,3.53,0,0,1-.46.15,1.47,1.47,0,0,0-.62.32.65.65,0,0,0-.13.16,1.44,1.44,0,0,1,.36,1,2.07,2.07,0,0,1-.41,1.07,2,2,0,0,1-.44.43,1.16,1.16,0,0,1-.73.23,1.39,1.39,0,0,1-.7-.26l-.25-.2,0-.05-.08-.08-.12-.16a3,3,0,0,1-.29-1.14,9.19,9.19,0,0,1,0-1.05,2.84,2.84,0,0,0,0-.89,1.11,1.11,0,0,0-.16-.35,1.07,1.07,0,0,0-.26-.26l-.31-.21.19-.2c.26-.27.52-.55.77-.83a5,5,0,0,0,.66-.89l.07-.1.11.05a1.93,1.93,0,0,0,.86.18,2.19,2.19,0,0,0,.85-.18,2.85,2.85,0,0,0,.72-.41,5.3,5.3,0,0,0,.6-.56l.39-.41.23.47a1.38,1.38,0,0,0,.48.51.6.6,0,0,0,.27.1.21.21,0,0,0,.19-.07l.17-.19.16.09a4.18,4.18,0,0,1,.69.48,1.25,1.25,0,0,0,.37.21.48.48,0,0,0,.2-.29,1,1,0,0,0-.09-.44,3.27,3.27,0,0,0-.55-1c-.11-.17-.23-.36-.34-.57a1.83,1.83,0,0,1-.21-.74,1,1,0,0,1,.3-.73l.21-.18c-.38-.22-.77-.41-1.15-.62l-1.24-.61a11.27,11.27,0,0,0-1.28-.5l-.07,0h0c-.27-.26-.55-.5-.84-.75a5.22,5.22,0,0,0-.81.65,2,2,0,0,0-.25.34,2.06,2.06,0,0,0-.16.37,5.29,5.29,0,0,0-.32,1c-.06.35,0,.71-.09,1.11a1.29,1.29,0,0,1-.22.62,1.18,1.18,0,0,1-.32.26,3.15,3.15,0,0,1-.29.13.4.4,0,0,0-.18.2,2.3,2.3,0,0,0-.12.37c-.16.59-.2,1.3-.34,2a.05.05,0,0,1,0,0s0,0,0,0a3.22,3.22,0,0,1-.42-1.06,2.85,2.85,0,0,1,0-1.17,1.76,1.76,0,0,1,.26-.63,1.14,1.14,0,0,1,.66-.48l.23-.05a.42.42,0,0,0,.14-.06.91.91,0,0,0,.29-.32,2,2,0,0,0,.25-1c0-.36-.11-.71-.1-1.11a1.39,1.39,0,0,1,.7-1.09,1.79,1.79,0,0,1,.8-.25,4.44,4.44,0,0,0-.62-.1,2,2,0,0,0-1,.13h-.09a3.23,3.23,0,0,0-1,.19,3.93,3.93,0,0,0-.93.49.58.58,0,0,0-.12.1l0,.13a2.14,2.14,0,0,0,0,.62,4.2,4.2,0,0,0,.08.62c0,.22.07.44.09.67a3.71,3.71,0,0,1,0,1.37,6.88,6.88,0,0,1-.47,1.26.06.06,0,0,1-.07,0h0A2.55,2.55,0,0,1,64.2,27c0-.42.16-.82.18-1.25,0-.21,0-.42,0-.64a4,4,0,0,1,.06-.69c0-.13.06-.26.1-.38a3.07,3.07,0,0,0-.25.26,5,5,0,0,0-.58.84,6.93,6.93,0,0,0-.42,2.06,6.66,6.66,0,0,0,.19,2.09Zm6-2.93a.85.85,0,0,1,.49.17l1.33.51c.25.28,0,.28-.41.29a4.27,4.27,0,0,0-.78.3.83.83,0,0,1-.67.3.8.8,0,0,1-.8-.81A.79.79,0,0,1,69.53,26.4Zm-3.27,7.84c.06-.19.11-.3.16-.46s.1-.29.14-.43a3.13,3.13,0,0,0,.16-.93h0a0,0,0,0,1,0-.05l0,0a1.49,1.49,0,0,1,.43,1,2.44,2.44,0,0,1,0,.54,2.27,2.27,0,0,1-.08.5c-.06.3-.14.59-.18.9s-.09.6-.12.92a1.18,1.18,0,0,0,.27.88,1.44,1.44,0,0,0,.8.39,2.29,2.29,0,0,0,.79,0,4.91,4.91,0,0,0,1-.19h0s0,0,0,0v0a1.6,1.6,0,0,1-.84.73,1.42,1.42,0,0,1-1.24,0,2.42,2.42,0,0,1-.75-.86,7.66,7.66,0,0,1-.5-.94,2.54,2.54,0,0,1-.23-1A3.74,3.74,0,0,1,66.26,34.24Z"/><path class="cls-1" d="M70.65,42.17a.25.25,0,0,1,0-.09l0-.06a3.1,3.1,0,0,0,.24-.94,2.62,2.62,0,0,0-.09-1c-.08-.27-.14-.55-.21-.83a2.34,2.34,0,0,1-.24.31,2.7,2.7,0,0,1-.79.7,2,2,0,0,1-1.19.17,3.2,3.2,0,0,1-1.06-.33,3.55,3.55,0,0,1-1.54-1.48,4.28,4.28,0,0,1-.48-1.94c0-.65,0-1.28-.13-1.91l-.14-.94c0-.16,0-.31-.07-.45s-.06-.28-.08-.43a8.46,8.46,0,0,0-1.35-2.79c0,.13,0,.25,0,.37q0,.6,0,1.2A12.1,12.1,0,0,1,63.55,33a7,7,0,0,1-.17,1.15c.12.47.44,1,.56,1.59a2,2,0,0,1,.05.48,2.13,2.13,0,0,1,0,.25l-.05.21a3.27,3.27,0,0,0,0,.83,9.86,9.86,0,0,0,.27,1.7,8.52,8.52,0,0,0,.54,1.64h0a11,11,0,0,0,1.08,2.24c.43.72,1,1.38,1.44,2.11a7.72,7.72,0,0,1,1.05,2.38,7.1,7.1,0,0,1,.11,2.47,4.66,4.66,0,0,0,.53.74,1.28,1.28,0,0,0,.31.26l.08,0a.08.08,0,0,0,.06,0,2.21,2.21,0,0,0,.56-.69c.2-.31.39-.63.61-1a1.32,1.32,0,0,0,.24-.37,2,2,0,0,0,.12-.45,5.62,5.62,0,0,0,.08-1,19.21,19.21,0,0,0-.1-2.13c-.06-.71-.15-1.43-.21-2.16,0-.19,0-.37,0-.57s0-.2,0-.31A.64.64,0,0,1,70.65,42.17Z"/><path class="cls-1" d="M64.9,90.73a.16.16,0,0,0,0,0Z"/><path class="cls-1" d="M76,100.83a10.77,10.77,0,0,1-.83,1,2.57,2.57,0,0,1,2.56.87A1.9,1.9,0,0,0,76,100.83Z"/><path class="cls-1" d="M65.81,101.93s-.31.34-1,.91A2.51,2.51,0,0,1,67.3,104,1.86,1.86,0,0,0,65.81,101.93Z"/><path class="cls-1" d="M53.08,100.31s-2.73,0-3,1.89c.66-.38,1.65-1.24,3.09-.57C52.63,100.81,53.08,100.31,53.08,100.31Z"/><path class="cls-1" d="M70.26,101.4a9.36,9.36,0,0,1-.84.56c1,0,1.37.77,1.65,1.17A1.39,1.39,0,0,0,70.26,101.4Z"/><path class="cls-1" d="M60.64,102.45a7.74,7.74,0,0,1-.84.56,1.9,1.9,0,0,1,1.66,1.17A1.39,1.39,0,0,0,60.64,102.45Z"/></svg>