<svg id="Layer_1" data-name="Layer 1" xmlns="http://www.w3.org/2000/svg" width="128" height="128" viewBox="0 0 128 128"><title>Openbill stork</title><path d="M26.61,9.74A9.05,9.05,0,0,1,27.29,6a5.09,5.09,0,0,1,1.78-2.22A4.67,4.67,0,0,1,31.73,3a4.6,4.6,0,0,1,3.7,1.73,7.58,7.58,0,0,1,1.42,4.93,7.69,7.69,0,0,1-1.51,5.06,4.41,4.41,0,0,1-3.6,1.6,4.46,4.46,0,0,1-3.62-1.59A7.55,7.55,0,0,1,26.61,9.74Zm2.19-.09A5.42,5.42,0,0,0,29.65,13a2.53,2.53,0,0,0,4.18,0,5.68,5.68,0,0,0,.83-3.39,5.49,5.49,0,0,0-.81-3.31,2.51,2.51,0,0,0-2.11-1.08A2.55,2.55,0,0,0,29.62,6.3,5.62,5.62,0,0,0,28.8,9.65Z"/><path d="M38.7,16.1V3.22h3.43a10.82,10.82,0,0,1,2.51.18,2.89,2.89,0,0,1,1.55,1.28,4.73,4.73,0,0,1,.61,2.51,4.76,4.76,0,0,1-.53,2.34A3,3,0,0,1,45,10.86a6.71,6.71,0,0,1-2.72.38h-1.4V16.1ZM40.83,5.4V9.06H42a5.32,5.32,0,0,0,1.62-.16,1.46,1.46,0,0,0,.7-.61,2,2,0,0,0,.27-1.07,1.93,1.93,0,0,0-.28-1.08,1.41,1.41,0,0,0-.7-.59,6.32,6.32,0,0,0-1.75-.15Z"/><path d="M48.74,16.1V3.22h7.84V5.4H50.86V8.26h5.31v2.17H50.86v3.49h5.91V16.1Z"/><path d="M58.78,16.1V3.22h2.07l4.33,8.6V3.22h2V16.1H65L60.76,7.7v8.4Z"/><path d="M69.58,3.22h4.24a6.54,6.54,0,0,1,2.43.32,2.68,2.68,0,0,1,1.19,1.11,3.47,3.47,0,0,1,.48,1.81,3.44,3.44,0,0,1-.41,1.69,2.75,2.75,0,0,1-1.08,1.11A2.8,2.8,0,0,1,77.9,10.4a3.47,3.47,0,0,1,.53,2,4.07,4.07,0,0,1-.67,2.38,2.86,2.86,0,0,1-1.6,1.2,17.46,17.46,0,0,1-3,.15h-3.6Zm2.13,2.14v3h1.41c.84,0,1.36,0,1.56,0a1.32,1.32,0,0,0,.85-.46,1.53,1.53,0,0,0,.31-1,1.52,1.52,0,0,0-.25-.92A1.06,1.06,0,0,0,75,5.45a12.46,12.46,0,0,0-2-.09Zm0,5.13v3.43h2a6.4,6.4,0,0,0,1.68-.13,1.27,1.27,0,0,0,.62-.54,1.91,1.91,0,0,0,.25-1,1.85,1.85,0,0,0-.27-1,1.37,1.37,0,0,0-.72-.56,6.86,6.86,0,0,0-1.81-.15Z"/><path d="M80.35,16.1V3.22h2.13V16.1Z"/><path d="M84.76,16.1V3.33h2.13V13.92H92.2V16.1Z"/><path d="M94,16.1V3.33h2.13V13.92h5.3V16.1Z"/><path d="M38.31,119.25l2.08-.24c.24,1.65,1,2.47,2.3,2.47a2.15,2.15,0,0,0,1.52-.51,1.61,1.61,0,0,0,.56-1.25,1.4,1.4,0,0,0-.2-.75,1.38,1.38,0,0,0-.58-.5,18,18,0,0,0-1.92-.66,6.77,6.77,0,0,1-2-.9,3.35,3.35,0,0,1-1-1.27,3.84,3.84,0,0,1-.38-1.69,3.74,3.74,0,0,1,.48-1.89,3.1,3.1,0,0,1,1.33-1.28,4.61,4.61,0,0,1,2.08-.43,3.66,3.66,0,0,1,4,3.9l-2.14.12a2.28,2.28,0,0,0-.61-1.45,1.9,1.9,0,0,0-1.32-.42,2.19,2.19,0,0,0-1.33.36,1.11,1.11,0,0,0,0,1.78,5.81,5.81,0,0,0,1.94.79,7.94,7.94,0,0,1,2.32,1,3.47,3.47,0,0,1,1.1,1.33,4.68,4.68,0,0,1,.37,2,4,4,0,0,1-1,2.82,4.15,4.15,0,0,1-3.23,1.15Q38.74,123.68,38.31,119.25Z"/><path d="M51.25,123.46V112.75H48.11v-2.18h8.4v2.18H53.38v10.71Z"/><path d="M57.38,117.09a9.21,9.21,0,0,1,.68-3.79,5.16,5.16,0,0,1,1.78-2.22,4.67,4.67,0,0,1,2.66-.73,4.57,4.57,0,0,1,3.7,1.73A7.58,7.58,0,0,1,67.63,117a7.75,7.75,0,0,1-1.51,5.06,4.87,4.87,0,0,1-7.23,0A7.55,7.55,0,0,1,57.38,117.09Zm2.2-.09a5.5,5.5,0,0,0,.84,3.34,2.54,2.54,0,0,0,2.1,1.11,2.51,2.51,0,0,0,2.08-1.1,5.68,5.68,0,0,0,.83-3.39,5.49,5.49,0,0,0-.81-3.31,2.48,2.48,0,0,0-2.1-1.07,2.53,2.53,0,0,0-2.12,1.08A5.49,5.49,0,0,0,59.58,117Z"/><path d="M69.49,123.46V110.57H74a6.26,6.26,0,0,1,2.46.35,2.74,2.74,0,0,1,1.21,1.2,4.14,4.14,0,0,1,.48,2,3.87,3.87,0,0,1-.73,2.44,3.25,3.25,0,0,1-2.06,1.16,5.31,5.31,0,0,1,1.13,1.08,15.1,15.1,0,0,1,1.23,2.09L79,123.46H76.43l-1.54-2.81a19,19,0,0,0-1.13-1.9,1.78,1.78,0,0,0-.63-.53,3.15,3.15,0,0,0-1.08-.14h-.44v5.38ZM71.61,116H73.2a7.54,7.54,0,0,0,1.84-.13,1.14,1.14,0,0,0,.64-.51,1.85,1.85,0,0,0,.25-1,1.73,1.73,0,0,0-.25-1,1.19,1.19,0,0,0-.67-.51,7.82,7.82,0,0,0-1.73-.1H71.61Z"/><path d="M80.34,123.46V110.57h2.12v5.74l4.32-5.74h2.88l-4,5,4.2,7.87H87.11l-2.92-6.06-1.73,2.16v3.9Z"/><path d="M72.22,101.89l-.26-.06-.11-.26-3.12-7.21q-1.55-3.61-3-7.26l0-.09v-.09c0-.28-.06-.58-.11-.88s-.09-.58-.15-.86a7.08,7.08,0,0,0-.24-.82,1.55,1.55,0,0,0-.31-.54l-.17-.13,0-.17c-.06-.34-.09-.61-.12-.9l-.08-.84-.13-1.69c-.08-1.12-.14-2.24-.21-3.36s-.13-2.25-.17-3.37c0-.9-.07-1.79-.1-2.7l-.12.08a1.36,1.36,0,0,1-1,0l0,0c.17,1.3.32,2.6.47,3.9.16,1.46.3,2.94.43,4.4s.25,2.94.31,4.44a5.6,5.6,0,0,1,0,.59l0,.28v.23a3.52,3.52,0,0,0,.17,1,3.58,3.58,0,0,0,.39.89,1.55,1.55,0,0,0,.55.58l.18.08.07.16c.28.62.52,1.19.76,1.8s.48,1.2.71,1.79L68,94.42,69.4,98c.46,1.2.94,2.39,1.42,3.58l.07.17-.17.06-2.4.89.17.82c1.22-.36,2.43-.75,3.64-1.12h.13l4.83.74-.08-.35Z"/><path d="M60.85,100,59,99.89l-1,0-.51,0H57.2v0l.19,0,.7.16,1.44.31,2.06.41-.06,0a2.86,2.86,0,0,1-.41-.36C61,100.22,60.93,100.11,60.85,100Z"/><path d="M59.33,101.3,57.88,101l-.74-.16-.37-.09-.2-.06-.12,0-.09,0-.08-.06a.28.28,0,0,1-.09-.07.39.39,0,0,1-.1-.14.64.64,0,0,1-.05-.23v-.06l0-.13v0l0-.09,0-.21.08-.42.15-.86.28-1.75.53-3.5.57-3.5.31-1.76.16-.87.09-.44.05-.23,0-.13v0l0-.06a.69.69,0,0,1,.05-.13l0-.12.12-.08a2.27,2.27,0,0,0,.74-1.29,4,4,0,0,0,.12-.84,1.94,1.94,0,0,0-.07-.75l0-.45h0l0-.07.06-.17c0-.12.06-.25.1-.38l.19-.78c.12-.53.23-1.07.34-1.6l.64-3.21c.21-1.07.41-2.15.63-3.22l.58-2.91a1,1,0,0,1-.34.19,1.9,1.9,0,0,1-.75,0l-.11,0-.06,0-.09.48-.18,1-.34,2.08c-.25,1.38-.5,2.76-.8,4.14-.14.69-.29,1.38-.47,2.06a19.61,19.61,0,0,1-.63,2.08,2.5,2.5,0,0,1-.29.56c-.09.15-.17.25-.24.39a3.49,3.49,0,0,0-.31.85,3.05,3.05,0,0,0,.22,1.76l.08.18-.07.22a4.86,4.86,0,0,0-.2.78c-.06.29-.11.59-.16.88-.11.59-.22,1.18-.31,1.77-.22,1.19-.43,2.38-.62,3.57l-.58,3.58c-.19,1.19-.35,2.39-.5,3.59v.11h-.13l-2,.53-1.74.49.21.54,4-.73h.05l.06,0c2.11.34,4.22.66,6.32,1l-.13-.4Z"/><path d="M83.45,40.23l-.89-.68-.48-.35c-.09-.07-.14-.08-.25-.16a1.48,1.48,0,0,1-.27-.21,17,17,0,0,1-1.73-1.77,20.66,20.66,0,0,1-1.51-2c-.11-.18-.23-.35-.33-.54a4.47,4.47,0,0,1-.28-.59c-.15-.37-.31-.72-.49-1.07-.35-.69-.77-1.38-1.19-2l-2.61-4.07-1-1.64,1.35,1.38c1.13,1.15,2.22,2.31,3.37,3.44.57.56,1.16,1.1,1.75,1.63l.45.39.22.2a2.61,2.61,0,0,1,.24.22c.29.31.54.63.79.94,1,1.28,1.84,2.63,2.7,4s1.57,2.62,2.29,4l-.3-.76c-.74-1.59-1.51-3.16-2.36-4.7s-1.77-3-2.64-4.56a44.93,44.93,0,0,0-2.84-4.39L75,23.61a.78.78,0,0,0-.41-.31l-.19-.08a.67.67,0,0,0-.39,0,.38.38,0,0,0-.25.17,1.15,1.15,0,0,0,0,.85l.25.7-.6-.44a1.45,1.45,0,0,0-.5-.19,3.82,3.82,0,0,0-.59-.09,4.15,4.15,0,0,0-.61,0l-.3,0h0a5,5,0,0,1,.32.81c.13.42.24.85.34,1.29a9.07,9.07,0,0,1,.14.91,3.89,3.89,0,0,1,0,.49c0,.09,0,.19,0,.29a.61.61,0,0,1-.12.32h0c.66.61,1.31,1.24,1.92,1.9a19.9,19.9,0,0,1,1.87,2.2h0l0,0a17.53,17.53,0,0,0,2,2.91c.75.92,1.51,1.85,2.28,2.77l.57.71a3.78,3.78,0,0,0,.55.62,6.47,6.47,0,0,0,1.44.93,19.4,19.4,0,0,0,2.49,1,6.56,6.56,0,0,1-.81-.47A10.13,10.13,0,0,1,83.45,40.23Z"/><path d="M62.8,70.14s0,0,0,0l.08,0a.77.77,0,0,0,.53,0c.11-.11.05,0,.07-.42a13.81,13.81,0,0,1,.19-1.59c.1-.53.21-1,.36-1.56.07-.26.15-.51.24-.77a3,3,0,0,1,.35-.75s0,0,0,0,0,0,0,0v0c0,.14,0,.29-.05.44a36.06,36.06,0,0,1,3.09-4.05c.14-.16.29-.33.42-.5l.38-.49a4.6,4.6,0,0,0,.4-.58c.09-.13.17-.26.25-.4a20.77,20.77,0,0,0,1.16-2.31,42.8,42.8,0,0,0,1.78-4.79c.24-.82.47-1.65.69-2.48l.31-1.24c.06-.21.09-.42.13-.62s.06-.41.09-.63c.2-1.74.49-3.45.65-5.17a10.33,10.33,0,0,0-.08-2.55,20.89,20.89,0,0,0-.64-2.47c-.11-.42-.22-.87-.32-1.26s-.23-.81-.35-1.22c-.24-.82-.51-1.65-.76-2.47-.52-1.65-1.52-5-1.91-5.09a2,2,0,0,0-.56-.13h-.61a2.57,2.57,0,0,1-.61-.09.82.82,0,0,1-.46-.53s0,0,0,0,0,0,0,0a.53.53,0,0,0,.43.32,2.32,2.32,0,0,0,.59.07,3.55,3.55,0,0,1,2.18.31,7.62,7.62,0,0,1,.89.59.17.17,0,0,0,0-.07,1.13,1.13,0,0,0,0-.26,4.6,4.6,0,0,0-.06-.52,6.34,6.34,0,0,0-.07-.75c-.09-.34-.2-.69-.32-1a4.19,4.19,0,0,0-.43-.93L70.86,24l.18-.1a1.21,1.21,0,0,1,.39-.12l.33,0c.22,0,.45,0,.67,0a5,5,0,0,1,.66.08l.19.06a.43.43,0,0,0,0-.11,1.18,1.18,0,0,1,.11-.65.84.84,0,0,1,.58-.44h0a6.36,6.36,0,0,0-2-1.54,7,7,0,0,0-3-.66,4.22,4.22,0,0,0-1.47.65,2.94,2.94,0,0,0-1,1.21,5.43,5.43,0,0,0-.09,3.3,22.27,22.27,0,0,0,1,3.38c.2.57.43,1.12.63,1.69s.46,1.56.46,1.57.79,3,1,4.48a10.21,10.21,0,0,1,.07,2.35,4.31,4.31,0,0,1-.26,1.2,3.56,3.56,0,0,1-.27.6,2.32,2.32,0,0,1-.21.29l-.21.23a7.18,7.18,0,0,1-.92.82,5,5,0,0,1-.54.35l-.3.15-.24.11c-.62.33-1.28.72-1.93,1.08-1.27.72-4.42,3-4.79,3.27s-.72.57-1.09.85-.73.56-1.1.82-.75.53-1.08.77l-.07.05a3,3,0,0,0-.39.23l-.42.27c-.28.19-.56.38-.83.59a9.67,9.67,0,0,0-1.46,1.4,10.76,10.76,0,0,0-1.15,1.64c-.29.55-.57,1.16-.84,1.77s-.51,1.22-.76,1.84l-.11.27c.26-.51.52-1,.8-1.53L52,55.08c.1-.19.21-.37.32-.56l.17-.27a1.47,1.47,0,0,1,.2-.28,0,0,0,0,1,.07,0s0,0,0,0l0,.05-.22.56-.24.59-.47,1.18c-.3.79-.63,1.57-.94,2.36l-1,2.35L49,63.44l0,.06-.05.06a15.59,15.59,0,0,0-1.22,2c-.37.71-.71,1.45-1,2.19S46,69.26,45.7,70A19.19,19.19,0,0,0,45,72.09,2.48,2.48,0,0,0,46.16,72a5.18,5.18,0,0,0,1.33-.71,5.76,5.76,0,0,0,1.11-1,3.4,3.4,0,0,0,.7-1.29l.06-.27.24.17a.56.56,0,0,0,.55,0,2.32,2.32,0,0,0,.59-.37,6.43,6.43,0,0,0,1-1.07,11.47,11.47,0,0,0,.85-1.25,5,5,0,0,0,.58-1.29l.67-.2s-.08,0-.06,0l.1,0,.33-.14A6.51,6.51,0,0,0,54.9,64a13.51,13.51,0,0,0,1.31-1.09,15.08,15.08,0,0,0,1.18-1.22,6.82,6.82,0,0,0,.49-.64,3.49,3.49,0,0,0,.18-.31.42.42,0,0,0,.06-.18l.65-.55L59,60a1.33,1.33,0,0,0,.3-.17,3.61,3.61,0,0,0,.63-.52A9.85,9.85,0,0,0,61,57.92a10.55,10.55,0,0,0,.9-1.51,5.39,5.39,0,0,0,.31-.77,1.55,1.55,0,0,0,.11-.61l.32-.67h0l0,0,.1-.11c.07-.09.15-.18.22-.29s.21-.33.33-.5a14,14,0,0,0,1.38-3.15,4.84,4.84,0,0,0,.22-1.53,1.44,1.44,0,0,0-.14-.64.88.88,0,0,0-.45-.42,2.3,2.3,0,0,0-1.46-.16,8.25,8.25,0,0,0-3,1.33h0s-.07,0-.08,0a.09.09,0,0,1,0-.07,9.15,9.15,0,0,1,1.37-1A6.38,6.38,0,0,1,62.74,47a2.93,2.93,0,0,1,1.87.06,1.69,1.69,0,0,1,.45.25,1.45,1.45,0,0,1,.37.41,2.23,2.23,0,0,1,.32,1,5.48,5.48,0,0,1-.14,1.82,12.16,12.16,0,0,1-.5,1.69,17.46,17.46,0,0,1-.72,1.6,8.07,8.07,0,0,1-.47.78,4.14,4.14,0,0,1-.28.39l-.15.17a3,3,0,0,1-.14.83,4.93,4.93,0,0,1-.37,1,12.32,12.32,0,0,1-1,1.69,10.13,10.13,0,0,1-1.29,1.5,6.12,6.12,0,0,1-.83.65,4.54,4.54,0,0,1-.54.26l-.21,0-.06.13a2.72,2.72,0,0,1-.27.44,6.18,6.18,0,0,1-.59.74,14.37,14.37,0,0,1-1.32,1.27,17.87,17.87,0,0,1-1.46,1.09,9.18,9.18,0,0,1-.82.46,2.45,2.45,0,0,1-.5.17,2.36,2.36,0,0,1-.29,0,6.36,6.36,0,0,1-.56,1,11.3,11.3,0,0,1-1,1.33A7.4,7.4,0,0,1,51,68.8a2.58,2.58,0,0,1-.73.4,1.33,1.33,0,0,1-.45.08,1,1,0,0,1-.25-.06,4,4,0,0,1-.72,1.2,6.78,6.78,0,0,1-1.16,1.11,6.47,6.47,0,0,1-1.4.81,3.51,3.51,0,0,1-.8.23,17.7,17.7,0,0,1-.28,2.1A14,14,0,0,1,44.6,77c-.14.39-.28.76-.38,1.15A5.58,5.58,0,0,0,44,79.31a.81.81,0,0,0,.15.49.53.53,0,0,0,.18.16.17.17,0,0,0,.15,0,.87.87,0,0,0,.33-.28,3.72,3.72,0,0,0,.33-.45l.26-.38.28.42c.08.11.15.13.18.13a.63.63,0,0,0,.3-.14,3.48,3.48,0,0,0,.68-.74l.3-.44.39.5c.05.07,0,0,.11.06a1.06,1.06,0,0,0,.36-.13,2,2,0,0,0,.68-.69l.18-.34.07.14s.17-.08.25-.25a2.36,2.36,0,0,0,.24-.56c.12-.34.23-.92.33-1.35L49,76a.05.05,0,0,1-.08,0s0-.06,0-.07L51.17,74c.74-.64,1.49-1.28,2.21-1.93h0l.06,0a15.74,15.74,0,0,0,2-1.37c.65-.49,1.24-1,1.87-1.56s1.29-1,2-1.45,1.33-.91,2-1.41c-.1-.56-.21-1.12-.32-1.67h0s0,0,0,0a.05.05,0,0,1,0,0c.34,1,.58,2,.88,3,.15.51.3,1,.47,1.5.08.25.17.5.27.73a2.25,2.25,0,0,0,.16.31S62.79,70.13,62.8,70.14Zm8-48.22a.8.8,0,1,1-.8.8A.8.8,0,0,1,70.76,21.92Z"/><path d="M76.48,101.8a3.47,3.47,0,0,1-.34-.32c-.1-.1-.18-.22-.27-.33-.62,0-1.24-.06-1.87-.09L73,101Z"/><path d="M61.11,69.11a2.24,2.24,0,0,0,.11.31.21.21,0,0,1,0,.06l.4.12a.49.49,0,0,0,.21,0l.08,0c-.05-.15-.09-.29-.13-.44-.13-.52-.24-1-.35-1.56s-.15-.81-.23-1.21a5.46,5.46,0,0,1-.43.7c0,.44.1.89.17,1.33C61,68.66,61.06,68.89,61.11,69.11Z"/></svg>