<svg id="Layer_1" data-name="Layer 1" xmlns="http://www.w3.org/2000/svg" width="128" height="128" viewBox="0 0 128 128"><title>Artboard 66</title><path d="M75.24,70.18a8.9,8.9,0,0,0,2.51-6l-.15.07a30.29,30.29,0,0,1-7.26,2c-.62.09-1.24.21-1.86.28s-1.29.07-1.88.12a3.87,3.87,0,0,0-1.65.57,8.25,8.25,0,0,0-1.05.86,10.85,10.85,0,0,1-4.12,3.35c-.37.18-.74.36-1.12.52l0,.07-.06,0a25.21,25.21,0,0,1-4.15,1.37c-.47.11-.94.21-1.41.28s-1,.09-1.44.13a3.62,3.62,0,0,0-2.31,1,5.5,5.5,0,0,0-.83,1,4.34,4.34,0,0,0-.5,1.21,17.23,17.23,0,0,0-.36,2.74v.09C47,81.36,46.37,82.69,45.74,84l-1.94,4c-.66,1.34-1.33,2.67-2,4l-1.05,2c-.23.39-.63,1-.92,1.52a1,1,0,0,1-1,.46L36,95.63a.85.85,0,0,0-.62.14c-.34.25-1,.48-.92.65a7.55,7.55,0,0,0,1.9,0,3.23,3.23,0,0,1,1.11.18l.66.22c.09.26,0,.3-.13.3l-.87.23c-1.2.33-2.41.68-3.6,1.05s-1.18,1-2.24,1.7-3,1.38-4,2.05a1.26,1.26,0,0,0,.58.49,4.37,4.37,0,0,0,.93.23c1-.35,4.91-1.21,5.91-1.39,0,0,2.86-.52,4.59-.88a2.18,2.18,0,0,0,1.59-1.35c.72-1.84,1.51-3.61,2.29-5.41l2.93-6.59c1-2.2,1.93-4.36,3.11-6.55A9.16,9.16,0,0,1,51.81,78a24.91,24.91,0,0,1,3.13-1.91,20.46,20.46,0,0,1,7-2.22c2.44-.21,4.83-.13,7.16-.55A10.46,10.46,0,0,0,75.24,70.18Z"/><path d="M95.48,27.94c-.83-1.65-1.78-3.26-2.72-4.87l-1.41-2.42a10.53,10.53,0,0,1-.66-1.3,7.93,7.93,0,0,1-.44-1.41,15.26,15.26,0,0,1,.08-5.72l0-.13.07-.08a21.08,21.08,0,0,0,1.43-1.84L92,10h.22a3.17,3.17,0,0,0,1.36-.19,6.13,6.13,0,0,0,.64-.3,3.93,3.93,0,0,0,.57-.41L94.84,9l.07,0,2.44-.67-2.46-.64-.07,0,0-.06L93.56,6.32a4.57,4.57,0,0,0-1.42-1A4.44,4.44,0,0,0,90.47,5,2.66,2.66,0,0,0,89,5.67c-.89.77-1,2-1.27,3.19a26.67,26.67,0,0,0-.37,3.57,14.84,14.84,0,0,0,1.08,7c1,2.17,2.21,4.22,3.39,6.33a16.45,16.45,0,0,1,1.88,7.08A21.28,21.28,0,0,1,92.23,40a10.91,10.91,0,0,1-2,3.13,18.42,18.42,0,0,1-2.63,2.52,19.9,19.9,0,0,1-3,2A11.91,11.91,0,0,1,81.28,49l-.4-.08a5.7,5.7,0,0,0,1.88-.76,8,8,0,0,0-2-.71c-.75-.22-1.52-.38-2.29-.54-1.54-.32-3.1-.54-4.66-.74a28.86,28.86,0,0,0-9.32-.08,13.12,13.12,0,0,0-2.25.66c-.75.28-1.51.51-2.27.75-1.5.5-3,1-4.55,1.45-.75.22-1.52.41-2.28.61a6.28,6.28,0,0,0-2.09.81,18.26,18.26,0,0,0-1.73,1.53c-.54.49-1,1-1.67,1.48.54.27,1.23.64,1.75.94l-.43.21c-1.74-.64-3.48-1.27-5.23-1.86a44.31,44.31,0,0,0-5.27-1.52,10.07,10.07,0,0,0-5.31.62,14.59,14.59,0,0,0-4.5,2.77,4.4,4.4,0,0,0,1.87,1.61,16.41,16.41,0,0,0,2.58,1c1.8.56,3.66.92,5.52,1.32.91.2,1.84.38,2.75.5a4.86,4.86,0,0,0,1.32,0,3.32,3.32,0,0,1,.42,0,2.6,2.6,0,0,1,.45.08,6.86,6.86,0,0,1,.7.27,4,4,0,0,0,2.61.37c.42-.11.88-.29,1.34-.41.23-.07.47-.14.7-.19a2.08,2.08,0,0,1,.36-.06.76.76,0,0,1,.6.27,6.13,6.13,0,0,0-.85.13l-.66.27a13.44,13.44,0,0,1-1.32.59,3.44,3.44,0,0,1-1.39.18,7.94,7.94,0,0,1,.89,1.77c.29.76.55,1.51.8,2.25a6,6,0,0,0,1,2.11,10.32,10.32,0,0,0,2,1.39,10.6,10.6,0,0,1,2,1.43c.32.28.61.76.77.84a2.09,2.09,0,0,0,.9.26c.74.11,1.51,0,2.44.17a5.61,5.61,0,0,1,1.79,1c.45-.17.89-.36,1.33-.56a11.76,11.76,0,0,0,3.68-2.46,6.42,6.42,0,0,1-1.27,1,4.7,4.7,0,0,1-2,.56A2.94,2.94,0,0,1,58,69.59,3.8,3.8,0,0,1,56.89,68a4.19,4.19,0,0,1-1.65-1.36,4.78,4.78,0,0,1-.81-2,2.62,2.62,0,0,1-1-2.33A3,3,0,0,1,54.72,60l.07.08a2.92,2.92,0,0,0-.9,2.17,2.17,2.17,0,0,0,1,1.84l.13.08,0,.17a4.18,4.18,0,0,0,.81,1.76,3.74,3.74,0,0,0,1.53,1.1l.17.07.08.19a3.33,3.33,0,0,0,.87,1.36,2.08,2.08,0,0,0,1.44.4,3.83,3.83,0,0,0,1.62-.39,8.5,8.5,0,0,0,1.45-1,7.88,7.88,0,0,1,1.59-1.1,4.29,4.29,0,0,1,1.91-.48A14,14,0,0,0,70.29,66a41.73,41.73,0,0,0,7-2.47c1.07-.49,2.45-.94,2.24-2-.08-.55-.34-1.17-.44-1.8a6.12,6.12,0,0,1,0-1.91h.09a7.18,7.18,0,0,0,.35,1.8c.18.59.46,1.12.63,1.79A1.54,1.54,0,0,1,80,62.47a2.18,2.18,0,0,1-.72.83A5.39,5.39,0,0,1,78.1,64a9.13,9.13,0,0,1-2.31,6.35,15.32,15.32,0,0,1-1.22,1c1.23-.27,2.41-.68,3.67-1a5.3,5.3,0,0,1,2.19-.1,4.42,4.42,0,0,1,1,.47,3.2,3.2,0,0,0,.81.38,1,1,0,0,0,.72-.13c.25-.13.55-.37.89-.53.64-.32,1.29-.5,1.87-.85a7.19,7.19,0,0,0,2.66-3c.64-1.21,1.33-2.4,2-3.58a7.28,7.28,0,0,0,1.17-3.58A7.66,7.66,0,0,0,91,57.74c-.24-.62-.52-1.24-.81-1.84a21.07,21.07,0,0,0-2.08-3.48l0-.59c.55.77.76,1,1.19,1.24,1-1.48,1.86-2.79,2.78-4.34s1.87-3.22,2.66-4.9a19.85,19.85,0,0,0,1.61-5.25,27.37,27.37,0,0,0,.48-5.48,12.34,12.34,0,0,0-.31-2.67A14.31,14.31,0,0,0,95.48,27.94ZM91.29,7.24A1.22,1.22,0,0,1,92,6.82a1.27,1.27,0,0,1,.79.3.16.16,0,0,1,0,.23,1.25,1.25,0,0,1-.74.42,1.3,1.3,0,0,1-.8-.3A.16.16,0,0,1,91.29,7.24Z"/><path d="M100.3,96.5a1.29,1.29,0,0,0-.53-.53,7.3,7.3,0,0,0-.79-.41c-.56-.26-1.14-.5-1.72-.84a3.77,3.77,0,0,1-.84-.63,2.29,2.29,0,0,1-.35-.48c-.11-.23-.12-.32-.18-.43a.52.52,0,0,0-.42-.32,2.13,2.13,0,0,1-1.07-.36,4.06,4.06,0,0,1-.37-.38l-.33-.33c-.21-.23-.44-.47-.65-.72a6.85,6.85,0,0,1-.58-.83,2.34,2.34,0,0,0-.44-.67A3,3,0,0,0,90.55,89c-2.43-.45-4.94-.67-7.42-1-1.24-.17-2.49-.36-3.73-.59a26.73,26.73,0,0,1-3.71-.91l-.15-.06-.07-.14A2.79,2.79,0,0,0,73.8,84.7l0,0h0a3.65,3.65,0,0,1-1-1.32,8.13,8.13,0,0,1-.56-1.46,13.24,13.24,0,0,1-.46-3c-.08-1-.12-2-.15-3a25.27,25.27,0,0,1,0-2.61,14.09,14.09,0,0,1-2.38.69,17.22,17.22,0,0,1-1.75.28,51.88,51.88,0,0,1,1.42,5.2,37.24,37.24,0,0,1,.9,5.46,10.49,10.49,0,0,0,0,2.63,1.64,1.64,0,0,0,1.69,1.26c.84,0,1.76-.15,2.74-.1a4.65,4.65,0,0,1,.73.08l.66.12,1.34.23c1.81.29,3.62.56,5.42,1a23.2,23.2,0,0,1,2.66.75c.87.3,1.74.59,2.6,1A10.38,10.38,0,0,1,90,93.1,3.39,3.39,0,0,1,91,94.19a11.44,11.44,0,0,1,.47,1.31,10.56,10.56,0,0,0,.44,1.27,1.22,1.22,0,0,0,.91.78,7.25,7.25,0,0,0,1.33,0h1c-.6-.79-1.21-1.57-1.82-2.34l-.53-.66.76.36c.81.38,1.61.77,2.4,1.18.4.21.79.42,1.18.65a8.52,8.52,0,0,1,1.06.71,21.46,21.46,0,0,0,2.53.25A3.37,3.37,0,0,0,100.3,96.5Z"/><path d="M27.49,116.69a10.29,10.29,0,0,1,.75-4.22,5.77,5.77,0,0,1,2-2.46,5.17,5.17,0,0,1,3-.81,5.09,5.09,0,0,1,4.11,1.92,8.38,8.38,0,0,1,1.58,5.48,8.52,8.52,0,0,1-1.68,5.61,4.91,4.91,0,0,1-4,1.79,5,5,0,0,1-4-1.77A8.41,8.41,0,0,1,27.49,116.69Zm2.44-.1a6,6,0,0,0,.94,3.7,2.8,2.8,0,0,0,4.64,0,8.1,8.1,0,0,0,0-7.44,2.91,2.91,0,0,0-4.7,0A6.14,6.14,0,0,0,29.93,116.59Z"/><path d="M40.33,119.09l2.32-.28c.26,1.83,1.11,2.75,2.56,2.75A2.44,2.44,0,0,0,46.9,121a1.81,1.81,0,0,0,.61-1.39,1.53,1.53,0,0,0-.21-.83,1.62,1.62,0,0,0-.66-.57,18.68,18.68,0,0,0-2.13-.73,7.21,7.21,0,0,1-2.21-1,3.68,3.68,0,0,1-1.12-1.41,4.23,4.23,0,0,1-.42-1.87,4.14,4.14,0,0,1,.54-2.11,3.41,3.41,0,0,1,1.47-1.42,5,5,0,0,1,2.31-.47,4.06,4.06,0,0,1,4.46,4.33l-2.37.13a2.54,2.54,0,0,0-.67-1.61,2.15,2.15,0,0,0-1.48-.46,2.32,2.32,0,0,0-1.47.4,1.18,1.18,0,0,0-.52,1,1.24,1.24,0,0,0,.47,1,6.52,6.52,0,0,0,2.16.88,9,9,0,0,1,2.58,1.09,3.61,3.61,0,0,1,1.21,1.47,5.23,5.23,0,0,1,.42,2.2,4.52,4.52,0,0,1-1.14,3.13A4.6,4.6,0,0,1,45.14,124Q40.82,124,40.33,119.09Z"/><path d="M54.71,123.76v-11.9H51.23v-2.42h9.32v2.42H57.08v11.9Z"/><path d="M62.3,123.76V109.44h5a6.89,6.89,0,0,1,2.73.39,3,3,0,0,1,1.35,1.33,4.68,4.68,0,0,1,.53,2.28,4.27,4.27,0,0,1-.81,2.71,3.62,3.62,0,0,1-2.29,1.29,5.76,5.76,0,0,1,1.26,1.19A18.4,18.4,0,0,1,71.42,121l1.42,2.8H70l-1.72-3.12A20,20,0,0,0,67,118.53a1.8,1.8,0,0,0-.7-.59,3.19,3.19,0,0,0-1.19-.16h-.49v6Zm2.36-8.27h1.76a8.51,8.51,0,0,0,2-.14,1.27,1.27,0,0,0,.71-.57,2.14,2.14,0,0,0,.27-1.14,2,2,0,0,0-.27-1.1,1.35,1.35,0,0,0-.74-.57,9.37,9.37,0,0,0-1.92-.11H64.66Z"/><path d="M74.25,123.76V109.44h2.37v14.32Z"/><path d="M86.6,118.49l2.3.89a6.48,6.48,0,0,1-1.79,3.51A4.47,4.47,0,0,1,84,124a4.55,4.55,0,0,1-3.72-1.77,8.55,8.55,0,0,1-1.64-5.51A9,9,0,0,1,80.32,111a4.69,4.69,0,0,1,3.87-1.79,4.45,4.45,0,0,1,3.3,1.34,6,6,0,0,1,1.39,2.84l-2.35.69a3.11,3.11,0,0,0-.89-1.78,2.22,2.22,0,0,0-1.58-.62,2.48,2.48,0,0,0-2.12,1.13,6.48,6.48,0,0,0-.83,3.74,7,7,0,0,0,.8,3.85A2.45,2.45,0,0,0,84,121.53a2.15,2.15,0,0,0,1.63-.73A4.61,4.61,0,0,0,86.6,118.49Z"/><path d="M91.13,123.76V109.44h2.36v5.63h4.66v-5.63h2.36v14.32H98.15V117.5H93.49v6.26Z"/></svg>