<svg id="Layer_1" data-name="Layer 1" xmlns="http://www.w3.org/2000/svg" width="128" height="128" viewBox="0 0 128 128"><title>Artboard 84</title><path d="M7.68,123.76v-11.9H4.19v-2.42h9.33v2.42H10v11.9Z"/><path d="M24.65,123.76H22.08l-1-3.25h-4.7l-1,3.25H12.86l4.57-14.32h2.51Zm-4.37-5.67-1.62-5.31-1.59,5.31Z"/><path d="M26.86,123.76,24,109.44h2.44l1.76,9.84,2.14-9.84h2.83l2.06,10,1.81-10h2.38l-2.85,14.32H34.09l-2.35-10.71-2.32,10.71Z"/><path d="M40.9,123.76V109.44h2.3L48,119v-9.56h2.21v14.32H47.83l-4.73-9.34v9.34Z"/><path d="M56,123.76v-6l-4.3-8.29h2.77l2.76,5.66,2.72-5.66h2.73l-4.32,8.31v6Z"/><path d="M68.53,123.76V109.44h8.71v2.42H70.89V115h5.9v2.41h-5.9v3.88h6.56v2.43Z"/><path d="M90.25,123.76H87.68l-1-3.25H82l-1,3.25H78.46L83,109.44h2.51Zm-4.36-5.67-1.62-5.31-1.59,5.31Z"/><path d="M97.16,118.5v-2.42h5.11v5.7a6.37,6.37,0,0,1-2.19,1.57,6.82,6.82,0,0,1-2.84.65,5.64,5.64,0,0,1-3.07-.85,5.81,5.81,0,0,1-2.1-2.56,9.6,9.6,0,0,1-.78-4,9.33,9.33,0,0,1,.79-4,5.83,5.83,0,0,1,2-2.51,5.23,5.23,0,0,1,3-.83,4.61,4.61,0,0,1,5,4.2l-2.34.54a3.08,3.08,0,0,0-1-1.69,2.54,2.54,0,0,0-1.68-.58,3,3,0,0,0-2.45,1.17,5.68,5.68,0,0,0-.94,3.59,6.45,6.45,0,0,0,1,3.94,2.79,2.79,0,0,0,2.35,1.16,3.57,3.57,0,0,0,1.44-.33,4.25,4.25,0,0,0,1.33-.89V118.5Z"/><path d="M104.72,123.76v-14.2h2.36v11.77H113v2.43Z"/><path d="M114.88,123.76V109.44h8.71v2.42h-6.34V115h5.89v2.41h-5.89v3.88h6.56v2.43Z"/><path d="M26.09,65.07a2.83,2.83,0,0,1-.64-.69c-1.59.72-3.14,1.54-4.69,2.36l-5,2.62q-4.6,2.42-9.26,4.74a5.28,5.28,0,0,0-.31.78,1.75,1.75,0,0,0,.22,1.74,3,3,0,0,0,1.67.78,11.24,11.24,0,0,0,1.84.17c1.83-1.14,3.67-2.29,5.52-3.4s3.81-2.26,5.72-3.39S25,68.58,27,67.5c.83-.46,1.67-.91,2.51-1.36h0A5.2,5.2,0,0,1,26.09,65.07Z"/><path d="M40.36,64.36a6.84,6.84,0,0,1-1.5-1.07,8.18,8.18,0,0,1-.63-.68,1.09,1.09,0,0,1-.2-.42c-.76.47-1.53.94-2.31,1.38s-1.85,1-2.8,1.46c-.44.85-.88,1.7-1.29,2.56-.34.69-.66,1.38-.93,2.08a10.51,10.51,0,0,0-.32,1v.09a3.47,3.47,0,0,0,.65-.31c.32-.17.65-.36,1-.56.64-.4,1.27-.84,1.9-1.27s1.28-.86,2-1.27A7.37,7.37,0,0,1,37,66.74a1.29,1.29,0,0,1,.3-.06,1,1,0,0,1,.25,0,.84.84,0,0,1,.67,1.13,1.07,1.07,0,0,1-.17.33,3.92,3.92,0,0,1-.52.54c-.65.53-1.27,1-1.84,1.43a7.54,7.54,0,0,0-.76.71l-.11.13H35a6.26,6.26,0,0,0,1-.27c.68-.25,1.38-.55,2.07-.87,2.58-1.21,5.11-2.63,7.71-3.92-.69-.08-1.37-.18-2-.32A11.87,11.87,0,0,1,40.36,64.36Z"/><path d="M23.74,62.69a1.79,1.79,0,0,1-.44-.51,4,4,0,0,1-.57-2A7.12,7.12,0,0,1,23,58.34c.08-.28.17-.56.26-.82-.43.32-.87.64-1.31.94-.92.65-1.84,1.27-2.78,1.88-1.87,1.23-3.78,2.39-5.59,3.63a24.42,24.42,0,0,0-4.64,4.51A22.31,22.31,0,0,0,7,71.09a10.34,10.34,0,0,0-.69,1.37l-.06.16c3-1.45,6-2.89,9.05-4.26q2.57-1.15,5.18-2.23c1.64-.63,3.26-1.33,4.95-1.8a1.85,1.85,0,0,1-.27-.83,1.6,1.6,0,0,1,.05-.39,3.09,3.09,0,0,1-.87-.11A2,2,0,0,1,23.74,62.69Z"/><path d="M28.3,49.64l.12-.13c.79-.85,1.61-1.62,2.46-2.38a53.6,53.6,0,0,1,5.31-4.21,32.31,32.31,0,0,1,2.92-1.76,10.8,10.8,0,0,1,2.61-1,35,35,0,0,1,4.89-3.72,52,52,0,0,1,5.48-3c1.79-.86,3.62-1.59,5.47-2.31a90.16,90.16,0,0,1,10-5.13,41.71,41.71,0,0,1,12.1-3.55,14.05,14.05,0,0,1,1.6-.08,14.25,14.25,0,0,1,1.61,0c1,.06,2.09.12,3.13.24,1.31.15,2.62.33,3.93.56A1.62,1.62,0,0,1,90,23a.57.57,0,0,1,.11-.11l0,0,0,0a14.63,14.63,0,0,0,2.46-3,14.56,14.56,0,0,0,1.7-3.42,21.06,21.06,0,0,1-1.77,1.38,17.94,17.94,0,0,1-1.78,1.08,10.26,10.26,0,0,1-1,.44l-.48.21-.06,0a.68.68,0,0,1-.29,0,.68.68,0,0,1-.5-1.08l.11-.11,0,0,.05,0a14.93,14.93,0,0,0,2.45-3A17.09,17.09,0,0,0,92.43,13c-1.36,1-2.79,2-4.23,2.9-.75.47-1.51.94-2.3,1.37-.38.22-.78.43-1.17.63s-1,.49-1.17.55l-.79.36-1.58.71c-1,.46-2.12.9-3.19,1.32-2.14.87-4.31,1.64-6.49,2.38L68.23,24.3c-1.11.36-2.18.67-3.23,1.1a67.68,67.68,0,0,0-6.15,2.93c-2,1.06-4,2.17-6.05,3.26-1,.55-2,1.09-3.07,1.61s-2.09,1-3.19,1.45l-1.6.61c-.51.21-1,.44-1.51.7a23.65,23.65,0,0,0-2.83,1.8,47.06,47.06,0,0,1-5.72,4h0A28.25,28.25,0,0,0,31.14,44c-1.2.84-2.36,1.74-3.5,2.66s-2.25,1.9-3.33,2.9c-.53.5-1,1-1.55,1.54-.25.25-.47.52-.7.78l2.87-1.05C26.06,50.42,27.17,50,28.3,49.64Z"/><path d="M68,60.41l2.88-.85,1.43-.45c.31-.1.61-.19.92-.27l-.41-.11a7.49,7.49,0,0,1-1.72-.8,7.46,7.46,0,0,1-3.35.24,6.57,6.57,0,0,1-3.46-1.77c-.31.19-.62.37-.94.53a10,10,0,0,1-3.53,1A6.46,6.46,0,0,1,58,57.84a4.11,4.11,0,0,1-.9-.29,1.28,1.28,0,0,1-.61-.56c-.36.16-.73.32-1.1.46a7.58,7.58,0,0,1-4.21.4,3.3,3.3,0,0,1-1.92-1.12,2.56,2.56,0,0,1-.36-.67,7.45,7.45,0,0,1-1.78.41,5.26,5.26,0,0,1-1,0c-1.56,1.29-3.18,2.49-4.84,3.63-.88.61-1.77,1.2-2.67,1.76a1.24,1.24,0,0,1,.28.22,5.89,5.89,0,0,0,.58.54,6.3,6.3,0,0,0,1.37.82,13.34,13.34,0,0,0,3.15.94,40.74,40.74,0,0,0,6.68.46c1.89-.34,3.8-.9,5.73-1.34s3.88-.95,5.81-1.47Z"/><path d="M46.42,47.58c-1,.65-2.08,1.27-3.17,1.85-.29.14-.57.28-.88.4a3.84,3.84,0,0,1-.52.19,3.29,3.29,0,0,1-.36.07h-.16a.8.8,0,0,1-.21,0q-1.86,1.34-3.73,2.6c-1.46,1-3,2-4.38,3-.73.5-1.46,1-2.17,1.5s-1.42,1-2.15,1.53c-1.29,1-2.57,2-3.84,3a1.3,1.3,0,0,0,.5,0,7,7,0,0,0,1.49-.27,38,38,0,0,0,6.05-2.62c3.56-1.85,7-3.87,10.54-5.94h-.06l-.26.07-.21,0a.76.76,0,0,1-.2,0l-.2,0a.8.8,0,0,1-.38-.34A.89.89,0,0,1,42,52a.54.54,0,0,1,.07-.23l.1-.19a2.29,2.29,0,0,1,.17-.23,16.17,16.17,0,0,1,1.2-1.26c.81-.77,1.63-1.53,2.48-2.23Z"/><path d="M43.68,52.83a96.1,96.1,0,0,1-10.25,7,34.31,34.31,0,0,1-6.2,2.95,7.93,7.93,0,0,1-1.68.36,1.08,1.08,0,0,0,0,.36,1.76,1.76,0,0,0,.92,1,4.82,4.82,0,0,0,2.86.5,9.86,9.86,0,0,0,2.79-1.13c1-.48,1.89-1,2.83-1.54l5.68-3.17c1.71-.94,3.43-1.86,5.21-2.7a3.07,3.07,0,0,1-1.49-.66,3.26,3.26,0,0,1-.84-1.11,2,2,0,0,1-.06-1.46Z"/><path d="M14.28,61.16c1.05-.26,2.1-.53,3.16-.78l1.31-.7c1.56-.83,3.12-1.63,4.63-2.54a20.63,20.63,0,0,1,1-2.06,29.14,29.14,0,0,1,1.89-2.88c.34-.46.69-.91,1-1.36l.53-.66c.09-.12.2-.24.3-.36-1,.49-2,1-3,1.45l-3.89,1.85c-2.59,1.22-5.2,2.41-7.73,3.69-.63.32-1.27.65-1.86,1L9.79,58.89a26.38,26.38,0,0,0-3.48,2.33,14.54,14.54,0,0,0-2.79,3,12.37,12.37,0,0,0-1,1.61c.75-.48,1.5-1,2.27-1.42a15.41,15.41,0,0,1,4.67-2C11.09,62,12.68,61.54,14.28,61.16Z"/><path d="M91.4,55.79a29.56,29.56,0,0,1-3.68,1.76,17.57,17.57,0,0,1-4,1.09,7.89,7.89,0,0,1-2.12,0A3.47,3.47,0,0,1,79.8,58a13,13,0,0,1-4.52,1.09,7.4,7.4,0,0,1-1.76-.16,5.24,5.24,0,0,1-1.08.55l-.9.36a6.85,6.85,0,0,0-.32,1.26c-.09.56-.15,1.12-.19,1.68a29.15,29.15,0,0,0,0,3.37,24.43,24.43,0,0,0,1.23,6.52A13.56,13.56,0,0,0,76,77.91c.8.76,1.67,1.47,2.53,2.3a8.44,8.44,0,0,1,1.54,1.94A14,14,0,0,1,83,79.36a4.79,4.79,0,0,1,2.69-.93,3.36,3.36,0,0,1,1.74.47,19.71,19.71,0,0,0-.15-2.29c-.13-1.12-.36-2.25-.56-3.41a17,17,0,0,1-.27-3.5,7.23,7.23,0,0,1,.2-1.46,18.76,18.76,0,0,0-2,3.5,13.27,13.27,0,0,1,2.56-6.09,19.75,19.75,0,0,1,2.2-2.54c.4-.39.82-.75,1.24-1.12s.88-.71,1.24-1A21.17,21.17,0,0,0,95.66,56a56.94,56.94,0,0,1,3.17-5,21.71,21.71,0,0,1-4.19,2.46A16.56,16.56,0,0,1,91.4,55.79Z"/><path d="M104.15,30.05A3.64,3.64,0,0,1,103,29.5a2.75,2.75,0,0,1-1.11-1.29,29.12,29.12,0,0,0-9.93-3.4c-2-.35-4-.61-6.1-.76a33.44,33.44,0,0,0-6.07-.12A48.31,48.31,0,0,0,68,27.06c-3.58,1.33-7.1,2.86-10.66,4.34-1.49,1.12-3.1,2.07-4.66,3.05-1.75,1.08-3.52,2.12-5.23,3.23s-3.41,2.22-5,3.43a20.61,20.61,0,0,0-4.32,4.28,12.9,12.9,0,0,1,3.52-5.12c-.28.12-.56.25-.83.39a13.94,13.94,0,0,0-1.44.85,30.43,30.43,0,0,0-2.67,2c-1.73,1.41-3.37,2.92-5,4.48-.78.78-1.56,1.58-2.29,2.4l-.5.61-.49.68c-.34.44-.66.9-1,1.35a19.8,19.8,0,0,0-3,5.69,3.49,3.49,0,0,0,.13,2.7c.07.12.06.09.1.12s.05,0,.09.06A19.89,19.89,0,0,1,28,57.74a36.47,36.47,0,0,1,4.21-3.36,44,44,0,0,1,4.64-2.73,34.44,34.44,0,0,1,4-1.75.31.31,0,0,1-.09-.07.28.28,0,0,1-.07-.09l0,0,0-.06a1.18,1.18,0,0,1-.18-.48,1.64,1.64,0,0,0,0-.23,1.36,1.36,0,0,0,0-.2,2.87,2.87,0,0,1,.18-.62,5,5,0,0,1,.54-.91,18.83,18.83,0,0,1,2.57-2.76A41.78,41.78,0,0,1,49.6,40c-1.68,1.77-3.4,3.48-5,5.24A24,24,0,0,0,42.33,48l-.18.29a4,4,0,0,0,.42-.2c1.06-.52,2.1-1.14,3.14-1.74l3.15-1.8c2.11-1.2,4.23-2.39,6.43-3.48-1.57,1.36-3.22,2.62-4.91,3.82-1.14,1.31-2.32,2.58-3.52,3.83-.6.64-1.21,1.26-1.81,1.89,1.56-.65,3.13-1.34,4.71-2,2.05-.84,4.11-1.64,6.24-2.33a64,64,0,0,1-5.75,3.38c-1.87,1-3.76,1.91-5.74,2.74a2.35,2.35,0,0,0-.31.91c-.09.65.34,1.1.9,1.48a2.74,2.74,0,0,0,1.82.24,8.27,8.27,0,0,0,2-.63,26.3,26.3,0,0,0,4-2.21c1.28-.85,2.54-1.77,3.89-2.64a19.63,19.63,0,0,1-3.19,3.56,15.72,15.72,0,0,1-4.08,2.67l-.18.06a1.65,1.65,0,0,0,.37.33,2.84,2.84,0,0,0,1.59.49A9,9,0,0,0,54.85,56a28.65,28.65,0,0,0,3.46-1.55c.58-.29,1.13-.63,1.72-.92s1.14-.66,1.76-.94a16,16,0,0,1-1.32,1.52,17.57,17.57,0,0,1-1.54,1.32A13.16,13.16,0,0,1,56.49,57a1.31,1.31,0,0,0,.69.19,4.5,4.5,0,0,0,.82,0,11.07,11.07,0,0,0,1.62-.33,17.58,17.58,0,0,0,3.08-1.21,30.08,30.08,0,0,0,2.91-1.65L68.53,52a10.88,10.88,0,0,1-2.2,2.85,11.76,11.76,0,0,1-1.94,1.49,11.23,11.23,0,0,0,3.47.68,9.36,9.36,0,0,0,3.51-.77,21.69,21.69,0,0,0,3.31-1.78c.28-.16.54-.35.8-.53l.82-.54c.55-.37,1.07-.76,1.66-1.1a16.88,16.88,0,0,1-1.17,1.64,14.94,14.94,0,0,1-1.41,1.46,11.83,11.83,0,0,1-3.45,2.23c-.24.1-.49.18-.74.27a7.58,7.58,0,0,0,4,.64A15.12,15.12,0,0,0,79.69,57l.26-.12.24.21c.82.68,2.18.62,3.38.4a18.62,18.62,0,0,0,3.66-1.19,28.05,28.05,0,0,0,3.45-1.77,14.78,14.78,0,0,0,3-2.24l.1-.1.14-.06a22.48,22.48,0,0,0,6.11-4.09,35.16,35.16,0,0,0,4.85-5.67c.37-.52.67-1,1-1.56a9.72,9.72,0,0,0,.7-1.66,7.94,7.94,0,0,0,.31-3.56A10.63,10.63,0,0,0,104.15,30.05Z"/><path d="M125.41,11a5.6,5.6,0,0,0-1.18-2.58A4.21,4.21,0,0,0,121.81,7c-1-.3-2-.33-3-.58a3.54,3.54,0,0,0,.46,0,4.36,4.36,0,0,0-1.64-1.91,7.48,7.48,0,0,0-2.4-1A23.77,23.77,0,0,0,110,3a18.09,18.09,0,0,0-5.12.55,11.12,11.12,0,0,0-4.41,2.31c-1.29,1.07-2.4,2.36-3.75,3.63a49.05,49.05,0,0,1-3.9,3.2,9.56,9.56,0,0,1-1,3.13,12.41,12.41,0,0,1-1.2,2l1.41-.69c1.19-.62,2.36-1.29,3.55-1.95a15,15,0,0,1-1.26,1.26,8.55,8.55,0,0,1-1,3.89,12.8,12.8,0,0,1-1.2,2l1.41-.69c1-.5,1.9-1,2.86-1.57.14-.27.29-.56.42-.84a11.93,11.93,0,0,0,.94-2.87,6.61,6.61,0,0,1-.16,3.15,10.48,10.48,0,0,1-.84,2.13c.18-.07.38-.14.56-.19a9,9,0,0,1,2.91-.41,3.87,3.87,0,0,0,.51-1.9,2.5,2.5,0,0,1,.28,1.48,4.63,4.63,0,0,1-.4,1.49,6,6,0,0,1-.36.72c.25-.12.5-.24.76-.34a8.41,8.41,0,0,1,2.87-.63c-.86.47-1.7.91-2.49,1.4-.39.25-.79.49-1.15.77l-.54.41-.26.21-.13.11-.09.07a.69.69,0,0,1-.28.11.66.66,0,0,1-.55-.18.69.69,0,0,1-.18-.58c.08-.27.09-.21.11-.26l.09-.16.21-.32.4-.6c.29-.39.55-.77.81-1.15.11-.17.22-.35.32-.53-.86.39-1.69.76-2.5,1.15-.45.21-.89.45-1.33.67l-.33.18-.16.09h0l-.14,0a.58.58,0,0,1-.32,0,.65.65,0,0,1-.46-.37.64.64,0,0,1,0-.64l.1-.12.11-.14.22-.27c.23-.33.44-.68.64-1a18.92,18.92,0,0,1-2,1.63,18.48,18.48,0,0,1-1.77,1.07l-.43.21.33.07a31.8,31.8,0,0,1,6,2,20,20,0,0,1,4.09,2.54,3.68,3.68,0,0,1,1.23.58c.75.52,1.21,1.23,1.11,1.31a.34.34,0,0,1-.16,0A11.65,11.65,0,0,1,106,31.92a9.72,9.72,0,0,1,1.63,3.56,8.29,8.29,0,0,1,.13.87c.49-2.18,1.08-4.34,1.72-6.49.17-.62.35-1.23.55-1.85l.15-.46a17.53,17.53,0,0,1-1,1.72,10.34,10.34,0,0,1-.64.84l-.33.4,0,.06a.69.69,0,0,1-.24.17.67.67,0,0,1-.67-.08A.69.69,0,0,1,107,30a.46.46,0,0,1,0-.15l0,0v-.06a14.94,14.94,0,0,0,.8-3.78,20,20,0,0,0,.09-2.06,15.54,15.54,0,0,1-1.41,1.72c-.4.42-.84.81-1.28,1.19-.23.18-.47.35-.71.52l-.37.24,0,0a.85.85,0,0,1-.27.1.65.65,0,0,1-.67-.94.49.49,0,0,1,.08-.13v0l0,0a12.56,12.56,0,0,0,1.56-2.82,12.46,12.46,0,0,0,.93-3.2,6.85,6.85,0,0,1-.11,3.48,9.67,9.67,0,0,1-.53,1.54l.8-.6,2-1.57a11.8,11.8,0,0,0-.16-1.43,7.33,7.33,0,0,1,.51,1.15l.06.19a10.11,10.11,0,0,1,.4,2.68,12.76,12.76,0,0,1-.15,2.3c.31-.42.62-.84.93-1.28.45-.64.88-1.29,1.31-2,.16-.84.3-1.7.42-2.56.21-1.26.38-2.53.62-3.82.12-.63.26-1.27.44-1.93l.15-.5a3.17,3.17,0,0,1,.25-.53,2.36,2.36,0,0,1,.42-.5,2,2,0,0,1,.44-.35c2.29-1.41,4.72-1.61,7-2.54a3.86,3.86,0,0,0-1.88-.28,7.52,7.52,0,0,1-2,.3,9.66,9.66,0,0,0,1.95-.57,3.83,3.83,0,0,1,2.1.12,5.78,5.78,0,0,0,1.93.2,5.47,5.47,0,0,0,.93-.16,2.21,2.21,0,0,0,.77-.36l.16-.15c-.1-.21-.26-.41-.43-.44a1.86,1.86,0,0,0-.76.06l-.85.17a5.51,5.51,0,0,1-1.83.12,14.56,14.56,0,0,0-1.69-.23,20.3,20.3,0,0,0-3.4,0,7.74,7.74,0,0,1-3.48-.28,11.5,11.5,0,0,0,3.41-.29,13.53,13.53,0,0,1,3.54-.14,12,12,0,0,1,1.73.28,5.94,5.94,0,0,0,1.63,0l.88-.08a2.28,2.28,0,0,1,1,.08,1,1,0,0,1,.51.74l.17.27a4.32,4.32,0,0,1,.25.55c0,.12.07.25.11.37A3.71,3.71,0,0,0,125.41,11ZM115,6.6a14.29,14.29,0,0,0-1.73,0l-.55,0c.39.36.6.81.54,1a1.9,1.9,0,0,1-1.86.79A2,2,0,0,1,110,7.12a8.76,8.76,0,0,1-1.73-.07l-.07-.13a2.71,2.71,0,0,1,1.49-1.25,3.91,3.91,0,0,1,1.86-.11,10.88,10.88,0,0,1,1.8.28,10.28,10.28,0,0,1,1.68.62Z"/><path d="M73.71,77.39A22.56,22.56,0,0,1,71.13,73a21.7,21.7,0,0,1-.85-6.91c0-.33,0-.67.06-1-1.43,1.09-2.91,2.14-4.4,3.15,0,1.17-.14,2.35-.12,3.49a15.62,15.62,0,0,0,.45,3.94,16,16,0,0,0,3,5C70.27,80,72.19,77.91,73.71,77.39Z"/><path d="M70.61,62.7a10.83,10.83,0,0,1,.84-2.86L71,60l-2.83,1.07c-1.88.7-3.77,1.37-5.69,2l-2,.66A11.3,11.3,0,0,1,59,66.26a11.72,11.72,0,0,1-1,1l1.32-.42,3.49-1.13,1.72-.55-.83,1.6L62.63,69l1-.58c2.18-1.18,4.4-2.32,6.67-3.35C70.4,64.24,70.48,63.47,70.61,62.7Z"/><path d="M87.26,85.55a1.52,1.52,0,0,1-.28-.09l-.18-.08-.08,0a.17.17,0,0,1-.06-.06s0,0-.07-.13a.43.43,0,0,1,0-.18v0a9,9,0,0,0,0-1l-.18-4.12a2.16,2.16,0,0,0-.72-.1,3.64,3.64,0,0,0-1.93.78A11.16,11.16,0,0,0,82,82.08c-.2.22-.39.46-.58.69l.36.71c.3.59.63,1.18.95,1.76l.15.28-.23,0c-1.5-.17-3-.39-4.47-.64-.64-.11-1.27-.22-1.91-.36a5.36,5.36,0,0,1-.54-.14l-.28-.08a.51.51,0,0,1-.18-.09l-.08-.05a.17.17,0,0,1-.06-.06s0,0-.07-.13a.38.38,0,0,1,0-.17v0a8.93,8.93,0,0,0,0-1l-.19-4.13a2.1,2.1,0,0,0-.71-.09,3.62,3.62,0,0,0-1.93.77,11.24,11.24,0,0,0-1.71,1.61c-.2.22-.39.45-.58.68.12.24.23.48.35.71.31.6.64,1.19,1,1.77l.16.3-.35.08c-1.39.34-2.78.66-4.17,1a.38.38,0,0,0-.28.49l.35,1.21a.39.39,0,0,0,.45.27c1.74-.35,7.16-1.62,7.16-1.62l5.18.53-1.43.34A.34.34,0,0,0,78,87l.16,1.11a.33.33,0,0,0,.38.28c1.74-.28,7.25-1.12,7.25-1.12L95,88.42a.39.39,0,0,0,.42-.26c.08-.24.2-.56.29-.83a.39.39,0,0,0-.31-.52C93.63,86.54,87.42,85.6,87.26,85.55Z"/></svg>