<svg id="Layer_1" data-name="Layer 1" xmlns="http://www.w3.org/2000/svg" width="128" height="128" viewBox="0 0 128 128"><defs><style>.cls-1{fill:#2a2a2a;}</style></defs><title>Artboard 11</title><path d="M32.85,123.78,29.07,110.9h2.31l2.68,9.53,2.59-9.53h2.27l-3.79,12.88Z"/><path d="M40.15,110.9h2.13v7a15.74,15.74,0,0,0,.08,2.12,2.1,2.1,0,0,0,.67,1.32,2.35,2.35,0,0,0,2.61.14,1.65,1.65,0,0,0,.64-.92,11.53,11.53,0,0,0,.17-2.51V110.9h2.13v6.76a17.48,17.48,0,0,1-.28,3.75,3.13,3.13,0,0,1-1.25,1.87,4.18,4.18,0,0,1-2.56.72,4.83,4.83,0,0,1-2.58-.59,3.41,3.41,0,0,1-1.34-1.67,12.54,12.54,0,0,1-.42-4Z"/><path d="M51.06,123.78V111h2.13v10.6H58.5v2.18Z"/><path d="M61.5,123.78v-10.7H58.36V110.9h8.39v2.18H63.63v10.7Z"/><path d="M68.3,110.9h2.12v7A17.73,17.73,0,0,0,70.5,120a2.16,2.16,0,0,0,.68,1.32,2.35,2.35,0,0,0,2.61.14,1.7,1.7,0,0,0,.64-.92A11.53,11.53,0,0,0,74.6,118V110.9h2.12v6.76a18.34,18.34,0,0,1-.27,3.75,3.17,3.17,0,0,1-1.25,1.87,4.2,4.2,0,0,1-2.56.72,4.83,4.83,0,0,1-2.58-.59,3.43,3.43,0,0,1-1.35-1.67,12.94,12.94,0,0,1-.41-4Z"/><path d="M79.15,123.78V110.9h4.5a6.36,6.36,0,0,1,2.46.34,2.77,2.77,0,0,1,1.21,1.21,4.11,4.11,0,0,1,.47,2,3.82,3.82,0,0,1-.72,2.43A3.16,3.16,0,0,1,85,118.09a5.56,5.56,0,0,1,1.13,1.08,14.57,14.57,0,0,1,1.22,2.1l1.29,2.51H86.1L84.56,121a19.59,19.59,0,0,0-1.13-1.91,1.6,1.6,0,0,0-.64-.52,2.79,2.79,0,0,0-1.07-.15h-.44v5.38Zm2.13-7.44h1.58a8.4,8.4,0,0,0,1.85-.12,1.2,1.2,0,0,0,.64-.52,1.91,1.91,0,0,0,.25-1,1.75,1.75,0,0,0-.25-1,1.28,1.28,0,0,0-.67-.52,9,9,0,0,0-1.73-.09H81.28Z"/><path d="M90,123.78V110.9h7.84v2.18H92.11v2.85h5.31v2.17H92.11v3.5H98v2.18Z"/><path d="M3.46,17.2.72,3.24H3.09l1.72,9.59L6.9,3.24H9.65l2,9.75,1.77-9.75h2.32L13,17.2H10.51L8.22,6.76,6,17.2Z"/><path d="M17.13,17.2v-14h2.3V8.73H24V3.24h2.31v14H24V11.09H19.43V17.2Z"/><path d="M28.79,17.2v-14h2.3v14Z"/><path d="M36.07,17.2V5.6h-3.4V3.24h9.1V5.6H38.38V17.2Z"/><path d="M43.47,17.2v-14H52V5.6H45.77V8.69h5.75v2.36H45.77v3.78h6.4V17.2Z"/><path d="M59,3.24h4.58a7.1,7.1,0,0,1,2.64.34,2.92,2.92,0,0,1,1.29,1.21,3.71,3.71,0,0,1,.52,2,3.76,3.76,0,0,1-.45,1.83,2.86,2.86,0,0,1-1.16,1.2A3,3,0,0,1,68,11a3.81,3.81,0,0,1,.58,2.13,4.41,4.41,0,0,1-.74,2.58A3,3,0,0,1,66.08,17a18.42,18.42,0,0,1-3.23.17H59Zm2.3,2.32V8.79h1.53c.91,0,1.48,0,1.69,0a1.42,1.42,0,0,0,.92-.5,1.63,1.63,0,0,0,.34-1.1,1.69,1.69,0,0,0-.27-1,1.1,1.1,0,0,0-.66-.48,13,13,0,0,0-2.21-.1Zm0,5.55v3.72h2.15a6.75,6.75,0,0,0,1.81-.14,1.33,1.33,0,0,0,.67-.58,2,2,0,0,0,.28-1.1,2,2,0,0,0-.29-1.12,1.5,1.5,0,0,0-.78-.61,7.34,7.34,0,0,0-2-.17Z"/><path d="M81,17.2h-2.5l-1-3.16H72.93L72,17.2H69.53L74,3.24h2.45Zm-4.25-5.53L75.19,6.49l-1.55,5.18Z"/><path d="M89.76,12.06l2.24.87a6.23,6.23,0,0,1-1.75,3.42,4.34,4.34,0,0,1-3,1.08,4.42,4.42,0,0,1-3.63-1.72A8.32,8.32,0,0,1,82,10.34a8.71,8.71,0,0,1,1.61-5.59A4.56,4.56,0,0,1,87.4,3a4.38,4.38,0,0,1,3.23,1.31A5.85,5.85,0,0,1,92,7.08l-2.29.67A3.07,3.07,0,0,0,88.82,6a2.21,2.21,0,0,0-1.54-.6,2.45,2.45,0,0,0-2.07,1.1,6.4,6.4,0,0,0-.8,3.65,6.76,6.76,0,0,0,.78,3.75,2.39,2.39,0,0,0,2,1.12,2.12,2.12,0,0,0,1.58-.71A4.62,4.62,0,0,0,89.76,12.06Z"/><path d="M94.19,17.2v-14H96.5V9.45l4.68-6.21h3.11L100,8.68l4.55,8.52h-3l-3.16-6.56L96.5,13V17.2Z"/><path d="M105.91,17.2v-14h8.49V5.6h-6.19V8.69H114v2.36h-5.75v3.78h6.4V17.2Z"/><path d="M116.75,3.24H121a6.42,6.42,0,0,1,2.41.35,4,4,0,0,1,1.5,1.21A6.11,6.11,0,0,1,126,7a12.3,12.3,0,0,1,.39,3.36,10.89,10.89,0,0,1-.41,3.15,6.45,6.45,0,0,1-1,2.12,3.94,3.94,0,0,1-1.52,1.17,5.68,5.68,0,0,1-2.28.4h-4.34Zm2.3,2.36v9.23h1.74a4.52,4.52,0,0,0,1.61-.2,2,2,0,0,0,.82-.64,3.61,3.61,0,0,0,.53-1.33,11.13,11.13,0,0,0,.21-2.41,11,11,0,0,0-.22-2.44,3.1,3.1,0,0,0-.67-1.41A2.13,2.13,0,0,0,122,5.72a9.48,9.48,0,0,0-1.88-.12Z"/><path class="cls-1" d="M73.27,101.26a0,0,0,0,1,0,0,15,15,0,0,1-2.35-.68c-.5-.19-1-.38-1.49-.59A9.88,9.88,0,0,1,68,99.25,3.42,3.42,0,0,1,66.82,98a6.07,6.07,0,0,1-.58-1.57,6.4,6.4,0,0,1-.12-1.63,7.47,7.47,0,0,1,.11-1.06,6.59,6.59,0,0,1-1.25,0l-.63,0c.13.36.25.72.35,1.09s.24,1,.34,1.46.18,1,.23,1.49a6.72,6.72,0,0,1,0,1.55l0,.19-.16,0a11.5,11.5,0,0,1-1.29.09,5.2,5.2,0,0,0-1.21.16.32.32,0,0,0-.19.13.54.54,0,0,0-.05.24,3,3,0,0,0,0,.6,7.09,7.09,0,0,0,.14.78,3.72,3.72,0,0,1,1.1-.52,2.61,2.61,0,0,1,.89-.06,1.89,1.89,0,0,1,.44.1l.36.11,1.43.46c.44.14.89.31,1.33.46l.64-.12c-.57-.46-1.13-.93-1.68-1.42,0,0,0,0,0-.06a0,0,0,0,1,0,0c.88.43,1.75.9,2.58,1.4l.24.14c1,.07,1.94.18,2.91.29.22-.35.45-.71.69-1l-.16,0Z"/><path class="cls-1" d="M88,59a4.5,4.5,0,0,0-1.73-.36,7.39,7.39,0,0,1,.42,1,7.75,7.75,0,0,1,.23,1.08c.06.35.1.7.14,1a11.81,11.81,0,0,1,.06,2.15,6.75,6.75,0,0,1-1.61,4c-.94,1.05-1.88,2.06-2.74,3.15-.44.55-.85,1.1-1.23,1.67a11.18,11.18,0,0,0-1,1.72c-.08.14-.1.28-.17.43a5.67,5.67,0,0,1-.24.55c-.18.34-.38.64-.58.95-.4.58-.83,1.15-1.28,1.69a33.32,33.32,0,0,1-2.86,3.08c-.32.31-.66.61-1,.9A2.89,2.89,0,0,0,75,82a4,4,0,0,0,1.21-.47l0,0h.13A3.44,3.44,0,0,0,78,80.92a10.29,10.29,0,0,0,1.51-1.16,17.85,17.85,0,0,0,1.37-1.38c.23-.24.43-.46.66-.73s.46-.51.69-.75c.93-1,1.87-1.94,2.77-2.91l1.36-1.46c.22-.25.44-.51.65-.77a9.65,9.65,0,0,0,.62-.78,12.44,12.44,0,0,0,1.87-3.5,13.24,13.24,0,0,0,.63-3.84,5.78,5.78,0,0,0-.8-3.51A3.38,3.38,0,0,0,88,59Z"/><path class="cls-1" d="M71.67,98a11.76,11.76,0,0,1-1.55-.68,3.73,3.73,0,0,1-1.31-1.19A5.92,5.92,0,0,1,68,92.84v-.16h-.08a1.82,1.82,0,0,1-.44.58,2.19,2.19,0,0,1-.84.41l-.07,0c.21.88.36,1.74.53,2.58a8.8,8.8,0,0,0,.37,1.45A3.22,3.22,0,0,0,68.14,99l1.43-.21c.52-.08,1.05-.12,1.57-.2l.11,0,.16.12a4.31,4.31,0,0,1,.48.39,3.54,3.54,0,0,1,.41.45,4.7,4.7,0,0,1,.56.92l.17,0,.77.08a3,3,0,0,1,.33-.35,2.86,2.86,0,0,1,1.45.49c.16-.46.33-.92.5-1.38a19.89,19.89,0,0,1-2.83-.72C72.72,98.43,72.19,98.22,71.67,98Z"/><path class="cls-1" d="M71.27,83.52a4.26,4.26,0,0,0-.75.31c-.42.22-.83.47-1.24.72l-.12.37a9.66,9.66,0,0,0-.29,1.44l-.18,1.5c-.12,1-.24,2-.38,3l0,.24h0l0,0,.15.67a5.14,5.14,0,0,0,.48-1l.44-1.13a3.89,3.89,0,0,1,.66-1.14l.07-.07h0a1.18,1.18,0,0,0,.58-.4,2.56,2.56,0,0,0,.39-.66,11.75,11.75,0,0,0,.37-1.53,5,5,0,0,1,.2-.76c.06-.25.14-.5.22-.75l.21-.64-.09,0-.65.36,0-.66A.26.26,0,0,0,71.27,83.52Z"/><path class="cls-1" d="M63.37,93a1.43,1.43,0,0,1,.51-.07l.4,0L65,93a5.06,5.06,0,0,0,1.38-.13,1,1,0,0,0,.79-.67c.11-.43.2-1,.28-1.43l.46-3c.08-.5.16-1,.26-1.51a9.27,9.27,0,0,1,.38-1.51,55.36,55.36,0,0,1,2.58-5.37c-.28.19-.57.38-.86.55a6.94,6.94,0,0,1-2.17.94,9.35,9.35,0,0,1-1.3.81c-.45.25-.92.48-1.4.7a11.85,11.85,0,0,1-1.48.55,3.52,3.52,0,0,1-.81.16,1.81,1.81,0,0,1-.46,0,.72.72,0,0,1-.27-.12q-2.53,1.81-5.09,3.58c-1.05.74-2.13,1.46-3.2,2.18-.13.47-.26,1-.37,1.42-.06.31-.13.63-.18.93a3.33,3.33,0,0,0,0,.88s0,0,0,0l.09,0a1.4,1.4,0,0,0,.36-.19,5.45,5.45,0,0,0,.72-.57c.23-.21.45-.44.67-.66a7.16,7.16,0,0,0,.58-.7l1.32-2-.75,2.28a5.2,5.2,0,0,0-.22,1.64,12.57,12.57,0,0,0,.13,1.72c.1.84.26,1.68.34,2.55.35-.6.7-1.2,1.07-1.79.28-.43.56-.87.88-1.29a7,7,0,0,1,.5-.61,1.7,1.7,0,0,1,.67-.48l.19-.07,0,.2a15.22,15.22,0,0,0-.2,3.24,14.45,14.45,0,0,0,.16,1.6,5.09,5.09,0,0,0,.19.77.58.58,0,0,0,0,.14,16.89,16.89,0,0,1,1-2.3A9.08,9.08,0,0,1,62,94.07,3.12,3.12,0,0,1,63.37,93Z"/><path class="cls-1" d="M25,87.68l.75-.11c.51-.55,1-1.08,1.55-1.6s1.3-1.28,1.93-1.94,1.31-1.27,1.95-1.91c.33-.32.67-.63,1-1l.95-1c1.26-1.32,2.48-2.68,3.62-4.11A39.32,39.32,0,0,0,39.67,72a6.9,6.9,0,0,1,.17-1.22c.06-.28.13-.56.2-.83a19,19,0,0,1-1.64,2.14,31.48,31.48,0,0,1-2.64,2.53C34.85,75.4,33.93,76.2,33,77l-1.13.91a.06.06,0,0,1,0,.08l-.06.08,0,.06-.1.11-.19.19-.4.37-.14.13-4,4.43c-.72.81-1.47,1.63-2.15,2.45a1.92,1.92,0,0,0-.47,1.26.84.84,0,0,0,.2.5A.49.49,0,0,0,25,87.68Z"/><path class="cls-1" d="M42.79,84.08c1.71-1.63,3.35-3.31,5-5,.43-.4.84-.82,1.26-1.24s.84-.83,1.27-1.23.84-.83,1.26-1.24c.13-.11.25-.23.37-.35l-.37.11a5.19,5.19,0,0,1-1.71.13,5.05,5.05,0,0,1-1.68-.45,2.86,2.86,0,0,1-.76-.52,1.22,1.22,0,0,1-.3-.37,0,0,0,0,0,0,0c-.48.78-1,1.56-1.49,2.31s-1.27,1.77-2,2.62a54.86,54.86,0,0,1-4.45,4.82c-1.56,1.52-3.17,3-4.87,4.38A46.81,46.81,0,0,1,30,91.25l.36.49h0a.77.77,0,0,0,.17.13,2.32,2.32,0,0,0,.65.25,5,5,0,0,0,.77.15,3.69,3.69,0,0,0,.73,0l.14,0,0,0c1.6-1.12,3.13-2.32,4.64-3.56C39.31,87.25,41.07,85.69,42.79,84.08Z"/><path class="cls-1" d="M84.44,63.5a3.54,3.54,0,0,1,.2-.71,1.37,1.37,0,0,0,.19-.53,3.07,3.07,0,0,0,0-1.28,3.77,3.77,0,0,0-.5-1.16,3.14,3.14,0,0,0-.28-.38.35.35,0,0,0-.15-.09.38.38,0,0,0-.19,0,1.64,1.64,0,0,0-.83.41,4.71,4.71,0,0,1,.42,2.68,6.17,6.17,0,0,1-.25,1.32h0a2.16,2.16,0,0,0,.5.5,3.49,3.49,0,0,0,.48.28l.07,0h0a1.48,1.48,0,0,0,.16-.41C84.35,63.92,84.39,63.71,84.44,63.5Z"/><path class="cls-1" d="M103.34,29.57a3.85,3.85,0,0,0-1.5-1,8,8,0,0,0-1.77-.48l-.13,0L99.87,28a2.37,2.37,0,0,0-.48-.4,3.75,3.75,0,0,0-.61-.27,6.81,6.81,0,0,0-1.3-.27h0a9.62,9.62,0,0,0,.29,1.58,3.53,3.53,0,0,0,.32.75,2.68,2.68,0,0,0,.18.28,4.22,4.22,0,0,1,.49,0c.2,0,.39.08.58.12q.57.14,1.11.3a17,17,0,0,1,2.16.8l.28.12a1.73,1.73,0,0,1,.31.19,1.49,1.49,0,0,1,.46.57,2.38,2.38,0,0,1,.15.5,2,2,0,0,0,.24-1A3.06,3.06,0,0,0,103.34,29.57Z"/><path class="cls-1" d="M84.14,33.28c0-.11.06-.21.1-.32s.17-.32.24-.48.18-.31.25-.47.14-.32.21-.47c.12-.33.17-.7.32-1a1.68,1.68,0,0,1,.3-.45,2.79,2.79,0,0,1,.39-.38,2.18,2.18,0,0,1,.94-.46c0-.07,0-.15,0-.21a4.14,4.14,0,0,1,.33-2,2.66,2.66,0,0,1,.57-.67,5.45,5.45,0,0,0-.62.35,6.93,6.93,0,0,0-2.48,2.65,6.87,6.87,0,0,0-.56,3.49C84.12,33,84.13,33.14,84.14,33.28Z"/><path class="cls-1" d="M82,54.21A8.92,8.92,0,0,0,81.89,53a3.16,3.16,0,0,1-.4.58,3.25,3.25,0,0,1-.93.7,1.41,1.41,0,0,1-1.17.1,6.91,6.91,0,0,1-1.72.61l-.31,0,.61.49a8.73,8.73,0,0,1,.76.73,2.63,2.63,0,0,1,.66.85,2.07,2.07,0,0,1,.13.61,8.11,8.11,0,0,1,1.14.26,4.65,4.65,0,0,1,1.22.61c0-.09,0-.18.07-.28,0-.92,0-1.78,0-2.64C82,55.15,82,54.68,82,54.21Z"/><path class="cls-1" d="M87.35,52.38c.24-.17.49-.33.73-.51.39-.29.77-.59,1.13-.9-.45.25-.93.46-1.41.67a12.58,12.58,0,0,1-1.22.43,4.91,4.91,0,0,1-1.31.17A4.62,4.62,0,0,1,83,51.6a.92.92,0,0,1-.49,0,2.12,2.12,0,0,1-.19.4l-.25.51-.14.29a2.79,2.79,0,0,1,.68,1.25,4.85,4.85,0,0,1,.16,1.55,6.51,6.51,0,0,1-.13,1.07c.12-.2.24-.38.38-.57a3.6,3.6,0,0,1,.39-.4l.31-.3a31.08,31.08,0,0,1,2.83-2.51C86.81,52.75,87.1,52.56,87.35,52.38Z"/><path class="cls-1" d="M74.5,80.27c.94-1,1.86-2,2.78-3,.46-.51.89-1,1.31-1.56.2-.26.4-.53.57-.8s.13-.25.2-.37a5.2,5.2,0,0,1,.26-.53,10.31,10.31,0,0,1,1.32-1.72c.47-.53,1-1,1.44-1.53a24.36,24.36,0,0,0,2.67-3.17,7.14,7.14,0,0,0,1-3.75c0-.66,0-1.33,0-2a17.17,17.17,0,0,0-.2-2,12.1,12.1,0,0,0-1.65-3.57c-.08,0-.15.11-.24.16a1.5,1.5,0,0,0-.3.24,6.24,6.24,0,0,0-.6.65,8.79,8.79,0,0,0-1,1.37,3.49,3.49,0,0,1,.75.83,1.63,1.63,0,0,1,.19-.34,1.3,1.3,0,0,1,.65-.47,1,1,0,0,1,.46,0,.88.88,0,0,1,.43.19,1.28,1.28,0,0,1,.46.69,6.69,6.69,0,0,1,.14,1.39c0,.44.1.88.16,1.33a1.8,1.8,0,0,1,0,.76c0,.14,0,.37,0,.58a5.94,5.94,0,0,1-.08.68,1.59,1.59,0,0,1-.33.78l-.1.11-.15.1a.85.85,0,0,1-.35.08,1.45,1.45,0,0,1-.3-.06l-.22-.11a2.48,2.48,0,0,1-.55-.52,2.88,2.88,0,0,1-.22-.38c-.08.22-.16.44-.25.65a20.14,20.14,0,0,1-1.08,2.3,42.38,42.38,0,0,1-2.66,4.27c-.48.68-1,1.35-1.53,2a14.14,14.14,0,0,1-1.73,1.82,11,11,0,0,1-1.59,1.73c-.58.54-1.2,1-1.82,1.52-.31.24-.63.46-1,.69-.34,1-.73,1.88-1.1,2.82-.27.68-.54,1.36-.78,2,.27-.26.54-.5.82-.74a3.84,3.84,0,0,1,.79-.51,1.13,1.13,0,0,1,.61-.13.55.55,0,0,1,.23.07.05.05,0,0,1,0,0,15.25,15.25,0,0,0,1.18-1.11C73.56,81.27,74,80.76,74.5,80.27Z"/><path class="cls-1" d="M69.36,52.62a2.2,2.2,0,0,1,.41-.12l.52-.11,2-.33c.33-.06.65-.11,1-.19a5.07,5.07,0,0,0,.88-.26l.77-.34-.2.78a1.27,1.27,0,0,0,0,.32c0,.12,0,.24,0,.37a2.73,2.73,0,0,0,.15.7,1.33,1.33,0,0,0,.35.53,1.07,1.07,0,0,0,.59.23h.15l0,.08a1.12,1.12,0,0,0,.71.3,5,5,0,0,0,1,0,7.4,7.4,0,0,0,1.9-.4h0a2.87,2.87,0,0,0,.69-.46c.25-.21.49-.46.74-.7s.54-.45.8-.7a1.55,1.55,0,0,0,.51-.87l0-.14.16,0a.5.5,0,0,0,.42-.18,1.43,1.43,0,0,0,.25-.43,1.27,1.27,0,0,0,.1-.46.44.44,0,0,0-.09-.3l.34-.67a.14.14,0,0,0-.09,0l.06-.08a2.26,2.26,0,0,0,.15-.31,5.07,5.07,0,0,0,.24-.75,5.39,5.39,0,0,0,.16-.8,1.62,1.62,0,0,0,0-.62,4.46,4.46,0,0,0-.85-1.08A5.21,5.21,0,0,0,82,44.87a6,6,0,0,0-1.86-.57l.11.16a1.57,1.57,0,0,1,.18.39l.15.46h-.5c-.74,0-1.48,0-2.22.08-.35,0-.72.06-1.08.11l-.42.09a1.69,1.69,0,0,1,.28.12.67.67,0,0,1,.29.29l0,.1-.1.07-1.64,1.18-.84.57c-.28.19-.61.36-.86.52A13,13,0,0,0,72,49.74c-.47.47-1,.93-1.42,1.41l-.68.73a3.73,3.73,0,0,0-.55.72Zm11.2-1.71a12.42,12.42,0,0,0-1.38.12,18.14,18.14,0,0,0-2.77.66,3.3,3.3,0,0,1,1.18-1,4.38,4.38,0,0,1,1.47-.48,4,4,0,0,1,3,.67C81.5,50.92,81,50.88,80.56,50.91Zm-5.29-2.26a8.84,8.84,0,0,1,1.83-1.31,6.41,6.41,0,0,1,2.16-.77,4.58,4.58,0,0,1,1.17,0,4.85,4.85,0,0,1,1.13.31,4.21,4.21,0,0,1,1.75,1.39,5,5,0,0,0-3.92-.93,7.68,7.68,0,0,0-1.92.71l-.36.21a2.75,2.75,0,0,1,.5,0,1.22,1.22,0,0,1,.73.17,1.43,1.43,0,0,0-.71,0l-.69.22c-.46.16-.92.35-1.35.54l-1.7.73Z"/><path class="cls-1" d="M29.88,78.82c.32-.17.64-.32,1-.47l.29-.14c.54-.51,1.07-1,1.59-1.55.87-.84,1.74-1.68,2.58-2.55s1.63-1.78,2.5-2.61c.68-.67,1.38-1.32,2.09-2a8.79,8.79,0,0,1-1.76.32,3.45,3.45,0,0,1-.64,0,1.14,1.14,0,0,1-.61-.26.68.68,0,0,1-.18-.64,1.93,1.93,0,0,1,.16-.46c-.58.46-1.16.92-1.72,1.4a25.1,25.1,0,0,0-1.87,1.68l.15.08a1.66,1.66,0,0,0,.51.07,6.32,6.32,0,0,0,1.13-.13h0a0,0,0,0,1,.06,0s0,.05,0,.07l-.23.09a23.67,23.67,0,0,0-2.59,2.37,15,15,0,0,0-1.07,1.34c-.31.43-.61.88-.88,1.34a1.12,1.12,0,0,1-.1.52,2.78,2.78,0,0,1-.33.49,10.33,10.33,0,0,1-.74.74c-.49.46-1,.91-1.44,1.38l.26-.14C28.61,79.47,29.24,79.13,29.88,78.82Z"/><path class="cls-1" d="M36.85,69a.56.56,0,0,0,.16.49,1.65,1.65,0,0,0,1.11.14,7.06,7.06,0,0,0,1.17-.27c.39-.11.78-.24,1.15-.38l.4-.16-.12.43a15.36,15.36,0,0,0-.33,1.64,6.2,6.2,0,0,0,0,1.6.78.78,0,0,0,.23.51.57.57,0,0,0,.48,0,5.19,5.19,0,0,0,1.31-.86l1-.83c.22-.28.43-.57.64-.86.52-.7,1-1.42,1.49-2.15s.88-1.5,1.4-2.2A19.74,19.74,0,0,1,48.54,64s.05,0,.06,0,0,0,0,0a10.64,10.64,0,0,1-1,2.46A15.64,15.64,0,0,1,46,68.61c-.55.7-1.12,1.37-1.71,2-.34.36-.67.72-1,1.07l-.31.81a.8.8,0,0,0,.37.85,2.2,2.2,0,0,0,1.17.41A4.16,4.16,0,0,0,47.1,73l.37-.23c.19-.22.36-.43.53-.65.41-.51.8-1,1.16-1.6s.65-1.14,1-1.67a16.06,16.06,0,0,1,1.23-1.58s0,0,.06,0,0,0,0,0a5.6,5.6,0,0,1-.61,2,5.42,5.42,0,0,1-.54.86c-.22.26-.43.53-.65.78-.44.52-.9,1-1.38,1.49L47.7,73l0,.33c0,.32.4.65.82.86a4.5,4.5,0,0,0,1.41.41,3.76,3.76,0,0,0,2.79-.65l.26-.22s.77-.86,1.12-1.33c.49-.65,1-1.31,1.41-2s.8-1.42,1.26-2.08a20.8,20.8,0,0,1,1.49-2,0,0,0,0,1,0,0,0,0,0,0,1,0,0,8.86,8.86,0,0,1-.87,2.35,11.89,11.89,0,0,1-1.43,2c-.51.65-1,1.27-1.62,1.88-.42.43-.85.85-1.3,1.25l.07.09a3.73,3.73,0,0,0,1.33,1.11,4.94,4.94,0,0,0,1.72.54,3.84,3.84,0,0,0,1.78-.21,4,4,0,0,0,1.51-1l.1-.11a16.85,16.85,0,0,0,1.25-1.32c.47-.59.9-1.2,1.31-1.83s.72-1.32,1.12-1.94c.22-.31.41-.63.64-.93a9.86,9.86,0,0,1,.71-.92,0,0,0,0,1,0,0,0,0,0,0,1,0,0,7.64,7.64,0,0,1-.72,2.21,10.29,10.29,0,0,1-1.3,1.92,20.8,20.8,0,0,1-1.53,1.73,14.85,14.85,0,0,1-1.41,1.22,2.39,2.39,0,0,0,1.6.65A7.05,7.05,0,0,0,63.3,75a8.37,8.37,0,0,0,1.8-.56,2.9,2.9,0,0,0,1.35-1.07,23.26,23.26,0,0,0,1.75-1.84c.59-.78,1.14-1.6,1.65-2.43s.91-1.72,1.4-2.55.94-1.69,1.49-2.54h0s0,0,.05,0,0,0,0,0a8.28,8.28,0,0,1-.31,1.48c-.07.24-.16.47-.24.72l-.29.69a13.88,13.88,0,0,1-1.59,2.54c-.59.81-1.21,1.58-1.87,2.33-.49.53-1,1-1.51,1.53a1.59,1.59,0,0,0,1.07.33,4.63,4.63,0,0,0,1.31-.23,6.36,6.36,0,0,0,1.24-.58,3.33,3.33,0,0,0,1-.85,13.79,13.79,0,0,0,1.51-1,14,14,0,0,0,1.53-1.65c.48-.58.84-1.24,1.27-1.84s.81-1.24,1.3-1.87h0a0,0,0,0,1,.06,0s0,0,0,0a6,6,0,0,1-1.35,3.25c-.27.29-.53.59-.81.86a16,16,0,0,1-1.76,1.54c-.37.26-.75.5-1.13.74a2.92,2.92,0,0,0,1.32.46,7,7,0,0,0,1.71,0,7.67,7.67,0,0,0,1.69-.39,4.15,4.15,0,0,0,1-.55l.3-.45a41,41,0,0,0,2.41-4.28c.36-.74.7-1.48,1-2.24a9.14,9.14,0,0,0,.59-2.25,3.8,3.8,0,0,0-.32-2.12,2.71,2.71,0,0,0-1.61-1.25,8.2,8.2,0,0,0-2.3-.37c-.8,0-1.62,0-2.46,0l-5,.17c-1.66,0-3.33.1-5,.12-.83,0-1.66,0-2.51,0a1.77,1.77,0,0,1-.32,0,.92.92,0,0,1-.37-.13.28.28,0,0,1-.08-.3.55.55,0,0,1,.12-.16,1.65,1.65,0,0,1,.27-.21,7,7,0,0,1,1.13-.57.06.06,0,0,1,.08,0,.07.07,0,0,1,0,.08,6.59,6.59,0,0,0-1,.65,1.21,1.21,0,0,0-.2.19.25.25,0,0,0,0,.08l.21,0h.3c.82,0,1.65-.09,2.47-.16l5-.38c1.66-.12,3.32-.25,5-.34a25.17,25.17,0,0,1,3.26-.06,1.34,1.34,0,0,0-.11-.14,7,7,0,0,1-.46-.86c-.33-.52-.67-1.05-1-1.57a4.78,4.78,0,0,1-.54,0,1.65,1.65,0,0,1-1-.3,1.51,1.51,0,0,1-.86-.27,1.83,1.83,0,0,1-.62-.77,3.07,3.07,0,0,1-.26-.88,2.83,2.83,0,0,1,0-.29l-.46.14c-.34.08-.68.16-1,.22-.67.13-1.34.22-2,.33l-.48.08c-.17,0-.23.07-.5.12a1.07,1.07,0,0,1-.4,0,.67.67,0,0,1-.27-.11.66.66,0,0,1-.22-.27.81.81,0,0,1,0-.51,1.8,1.8,0,0,1,.14-.31,4.71,4.71,0,0,1,.69-.85c.18-.19.36-.35.53-.52-1.19.65-2.42,1.25-3.67,1.8-.85.37-1.73.7-2.63,1l-.7.2-.71.15c-.42.09-.85.2-1.29.32-.86.26-1.74.52-2.61.8s-1.76.56-2.62.89-1.71.69-2.54,1.09c-.41.21-.82.43-1.2.66l-.57.37-.58.4c-1.55,1-3.09,2.07-4.66,3-.78.5-1.56,1-2.32,1.49a5.71,5.71,0,0,0-.54.38,1.66,1.66,0,0,0-.24.18l-.05,0-.07.06-.14.13c-.37.31-.72.61-1.09.89-1.45,1.15-2.92,2.27-4.37,3.39l-.28.23h0A2.42,2.42,0,0,0,36.85,69Z"/><path class="cls-1" d="M50.26,85.05c1.92-1.57,3.81-3.19,5.72-4.77a60.91,60.91,0,0,0,5.51-4.89h-.11a4.81,4.81,0,0,1-1-.23,1.84,1.84,0,0,1-.74-.5A4.32,4.32,0,0,1,56.35,76a20.72,20.72,0,0,1-2,2.46c-.78.85-1.61,1.65-2.45,2.44-1.68,1.58-3.49,3-5.28,4.45s-3.58,2.87-5.4,4.29c-1.43,1.11-2.87,2.19-4.31,3.28l.16.25a.82.82,0,0,0,.54.37,1.86,1.86,0,0,0,.89-.06,6,6,0,0,0,1-.36c.33-.15.67-.32,1-.51l.21-.11q1.84-1.39,3.68-2.84C46.37,88.14,48.32,86.61,50.26,85.05Z"/><path class="cls-1" d="M46.18,84.85c1.73-1.51,3.41-3.07,5.15-4.55s3.28-2.8,4.83-4.32a5.3,5.3,0,0,1-1.83-.46,4.66,4.66,0,0,1-1.4-1,2.57,2.57,0,0,1-.41.26,61.62,61.62,0,0,1-4.13,4.86c-1.61,1.74-3.4,3.3-5.17,4.87s-3.61,3.07-5.49,4.5c-1.56,1.17-3.14,2.31-4.78,3.34l.4.36,0,0a.9.9,0,0,0,.25.1,3.58,3.58,0,0,0,.84.08c.31,0,.63,0,.95,0s.63-.06,1.05-.07h.21c1.42-1.18,2.83-2.35,4.23-3.54C42.7,87.84,44.45,86.36,46.18,84.85Z"/><path class="cls-1" d="M38.79,83.27c.73-.8,1.47-1.59,2.16-2.42l2.13-2.46c.37-.4.71-.81,1.06-1.23s.71-.82,1.07-1.22l1.5-1.73a5.89,5.89,0,0,1-.58.24,4.54,4.54,0,0,1-1.65.21A2.93,2.93,0,0,1,42.86,74a1.84,1.84,0,0,1-.57-.76.34.34,0,0,1,0-.12l0,0a50.67,50.67,0,0,1-2.76,4.5c-1.14,1.64-2.36,3.23-3.64,4.77a48.65,48.65,0,0,1-4.07,4.42,38.23,38.23,0,0,1-3.88,3.19l.12.17a1.77,1.77,0,0,0,.74.59,7,7,0,0,0,1.15.27l0,0a45.27,45.27,0,0,0,4.22-3.35C35.76,86.36,37.3,84.84,38.79,83.27Z"/><path class="cls-1" d="M72,78.27a21.32,21.32,0,0,0,1.76-1.52A9.18,9.18,0,0,0,75.24,75l0,0,0,0a14.89,14.89,0,0,0,1.59-1.85c.28-.38.54-.76.81-1.14a5.85,5.85,0,0,1-.63.38,7.1,7.1,0,0,1-1.74.57,7.58,7.58,0,0,1-1.85.13L73,73l-.06.25-.15.62c-.1.41-.21.81-.35,1.22a13.56,13.56,0,0,1-1.06,2.33,9,9,0,0,1-1.54,2.08,9.32,9.32,0,0,1-.9.74,12.27,12.27,0,0,0,1.19-.62A19.18,19.18,0,0,0,72,78.27Z"/><path class="cls-1" d="M102.27,31.64c-.7-.25-1.43-.47-2.13-.73A14.17,14.17,0,0,0,98,30.25c-.36-.06-.73-.11-1.1-.14a7.13,7.13,0,0,0-1.13-.05h0s0,0,0,0l0,0a6.19,6.19,0,0,1,2.09-.34.94.94,0,0,1-.1-.1,2.43,2.43,0,0,1-.45-.82,2.81,2.81,0,0,1-.11-.91,2.37,2.37,0,0,1,.16-.79h0s0,0,0,0l-.76-.24-.86-.29-.85-.28A5.42,5.42,0,0,0,94,26h0L94,26a4.3,4.3,0,0,0-.8-.18,8.78,8.78,0,0,0-.88-.1,14.94,14.94,0,0,0-1.77,0l-.56.07c-.3.16-.59.33-.88.51s-.49.34-.71.52a5.59,5.59,0,0,0-.6.59A3.08,3.08,0,0,0,87.12,29a4.56,4.56,0,0,0,.28,1.83c.1.29.22.58.33.86a8.65,8.65,0,0,0,.38.81,9,9,0,0,0,1.07,1.4,6.64,6.64,0,0,0,1.32,1.17,2.61,2.61,0,0,0,.76.35,1.23,1.23,0,0,0,.33,0,7.46,7.46,0,0,1,.14-.93,3.64,3.64,0,0,1,.35-1l0-.1.07,0a4.23,4.23,0,0,1,1.17-.55c.38-.12.76-.22,1.15-.31a18.36,18.36,0,0,1,2.32-.37s1-.1,1.41-.18a6.56,6.56,0,0,0,1.37-.37l0,0h.09a8.42,8.42,0,0,0,.87,0,8.42,8.42,0,0,1,.87,0l.85.11.17,0h0ZM94.43,28.2a.74.74,0,1,1-.74-.74.72.72,0,0,1,.29.06,5.86,5.86,0,0,1,2.38.69c-.57-.06-1.41-.22-2-.22A.66.66,0,0,1,94.43,28.2Z"/><path class="cls-1" d="M31.18,86.29l2.09-2.12c.71-.69,1.38-1.42,2.06-2.15q2-2.2,3.81-4.58A48.93,48.93,0,0,0,42,73.31a3.57,3.57,0,0,1-.68.33,1.85,1.85,0,0,1-.54.09,1,1,0,0,1-.62-.2A1.18,1.18,0,0,1,39.8,73a1.88,1.88,0,0,1-.11-.5c0-.12,0-.23,0-.34a39.28,39.28,0,0,1-2.62,4.12c-1.08,1.49-2.25,2.91-3.46,4.3a46.35,46.35,0,0,1-3.81,4c-.68.62-1.39,1.2-2.11,1.78-.55.44-1.13.85-1.72,1.25l-.6.72a2.23,2.23,0,0,0-.26.45c-.09.17-.16.35-.24.54-.15.38-.29.76-.41,1.15a14.74,14.74,0,0,0-.46,1.7,2.67,2.67,0,0,0,.36-.14,7.2,7.2,0,0,0,1-.53,11.59,11.59,0,0,0,1.8-1.4l.47-.45.11.16,1.39-1.42C29.78,87.7,30.51,87,31.18,86.29Z"/><path class="cls-1" d="M72,74.93c.17-.38.34-.76.49-1.15l.22-.58.09-.24-.3-.07a2,2,0,0,1-.59-.28,4,4,0,0,1-.94.82,6.52,6.52,0,0,1-1.38.67,4.67,4.67,0,0,1-1.55.27,2.41,2.41,0,0,1-1.18-.3,19.1,19.1,0,0,1-1,3.44,16,16,0,0,1-2.06,3.34c-.37.47-.78.91-1.18,1.35l0,.25c0,.07.21.14.44.13a3.72,3.72,0,0,0,.71-.11,9.72,9.72,0,0,0,1.43-.5c.47-.19.93-.41,1.39-.65a8.54,8.54,0,0,0,1.18-.7c.47-.59,1-1.13,1.4-1.69s1.1-1.2,1.58-1.87A13.24,13.24,0,0,0,72,74.93Z"/><path class="cls-1" d="M58.09,85.06l1-.83c.49-.43,1-.81,1.45-1.25a30.9,30.9,0,0,0,2.8-2.56,15,15,0,0,0,2.19-3.1A18,18,0,0,0,66.8,74h0a3,3,0,0,1-.56.46,5,5,0,0,1-.93.45,7.7,7.7,0,0,1-1.94.45,8.06,8.06,0,0,1-1.77,0,18.37,18.37,0,0,1-2.38,2.9c-.85.91-1.78,1.75-2.71,2.59-1.86,1.67-3.87,3.16-5.86,4.66s-4,3-6,4.43l-3.34,2.36.12.71a1.13,1.13,0,0,0,.58.8.81.81,0,0,0,.45.09,3.42,3.42,0,0,0,.63-.16,21.77,21.77,0,0,0,2.82-1.33c1.87-1,3.7-2.12,5.53-3.22s3.64-2.25,5.45-3.39Z"/><path class="cls-1" d="M92.08,39.36a5.07,5.07,0,0,1-.3-.93,8.59,8.59,0,0,1-.17-1,9.32,9.32,0,0,1,0-1.67,1.86,1.86,0,0,1-.34.06,2.5,2.5,0,0,1-1-.19,5.1,5.1,0,0,1-1.66-1.15,6.28,6.28,0,0,1-1.13-1.65A6.11,6.11,0,0,1,87,30.94c0-.52-.08-1-.09-1.54-.36.52-.67,1-1,1.45a.59.59,0,0,1,.37.62c0,.35-.19.63-.43.63s-.43-.28-.43-.63c0,0,0-.07,0-.11a1.15,1.15,0,0,0-.2.29,1.54,1.54,0,0,0-.19.46,2.74,2.74,0,0,0-.08.5c0,.49-.07,1-.1,1.43a.48.48,0,0,1,.27-.42,1.11,1.11,0,0,1,0-.19c0-.41.2-.73.43-.73s.44.32.44.73-.2.73-.44.73h0c0,.3-.14.55-.32.55s-.33-.24-.33-.55a.17.17,0,0,1,0-.07l0,.49c0,.24-.06.47-.1.71.12.3.26.61.4.91l.06.11a.46.46,0,0,1,.26-.47c.23-.07.5.14.6.48.15,0,.34.18.42.46s0,.59-.13.64-.35-.14-.45-.41l-.07,0a.34.34,0,0,1-.3-.06L86,38a.31.31,0,0,1,.2-.25c.23-.07.52.21.64.63s0,.8-.19.87h-.1l.14.39a4.07,4.07,0,0,1,.19,1.09,6.66,6.66,0,0,1-.08,1,9.57,9.57,0,0,1-.46,1.9,8.36,8.36,0,0,1-.84,1.76,3.85,3.85,0,0,1-1.3,1.27,1,1,0,0,1,.15.24,1.86,1.86,0,0,1,.16.45,3.25,3.25,0,0,1,.07.93,3.84,3.84,0,0,1-.15.94,2.05,2.05,0,0,1-.22.48A1.21,1.21,0,0,1,84,50a1.24,1.24,0,0,1,0,.43,1.69,1.69,0,0,1-.3.7,1.47,1.47,0,0,1-.55.47,4.57,4.57,0,0,0,2.09.32,6,6,0,0,0,2.28-.79c.72-.39,1.37-.9,2.08-1.31l1.69-1c.18-.23.34-.47.5-.72a15.88,15.88,0,0,0,.88-1.57,4.91,4.91,0,0,0,.45-1.71,10.49,10.49,0,0,0-.44-3.64C92.51,40.53,92.3,39.94,92.08,39.36Zm-2.46,0a1,1,0,0,1,0-.18c0-.35.2-.63.43-.63s.43.28.43.63-.19.64-.43.64h0c0,.26-.14.47-.32.47s-.33-.21-.33-.47S89.46,39.35,89.62,39.32Zm.93,2.73a.35.35,0,0,1-.32.38.38.38,0,0,1,0-.75A.35.35,0,0,1,90.55,42.05ZM88,44.83c-.24,0-.44-.28-.44-.63s.2-.63.44-.63.43.28.43.63S88.24,44.83,88,44.83Zm.66-7.62c-.23,0-.43-.28-.43-.63s.2-.63.43-.63.44.28.44.63S88.9,37.21,88.66,37.21Zm1,8.22c-.19,0-.34-.27-.34-.58s.15-.59.34-.59.33.27.33.59S89.86,45.43,89.68,45.43Zm.73,1.78c-.24,0-.43-.28-.43-.63s.19-.63.43-.63.43.28.43.63S90.65,47.21,90.41,47.21Zm.25-6.75c0-.35.19-.63.43-.63s.43.28.43.63-.19.64-.43.64S90.66,40.81,90.66,40.46Zm1.74,4.89c-.08.25-.26.41-.41.37s-.21-.28-.14-.53.26-.42.41-.38S92.47,45.1,92.4,45.35Zm-.2-1.78a.32.32,0,0,1-.29-.21.28.28,0,0,1-.22.1c-.24,0-.43-.28-.43-.63s.19-.63.43-.63.43.28.43.63h0l.08,0a.36.36,0,0,1,.33.38A.37.37,0,0,1,92.2,43.57Z"/><path class="cls-1" d="M84.15,64.54h0s0,0,0,0S84.14,64.54,84.15,64.54Z"/><path class="cls-1" d="M64.75,99l.39,0c-.59-.84-.29-1.13-.29-1.13l-.27,0c-.61.09-2.08.45-2.28,1.7A4.19,4.19,0,0,1,64.75,99Z"/></svg>