<svg id="Layer_1" data-name="Layer 1" xmlns="http://www.w3.org/2000/svg" width="128" height="128" viewBox="0 0 128 128"><defs><style>.cls-1{fill:#2a2a2a;}</style></defs><title>Artboard 12</title><path d="M32.85,123.78,29.07,110.9h2.31l2.68,9.53,2.59-9.53h2.26l-3.78,12.88Z"/><path d="M40.15,110.9h2.13v7a15.74,15.74,0,0,0,.08,2.12,2.1,2.1,0,0,0,.67,1.32,2.35,2.35,0,0,0,2.61.14,1.65,1.65,0,0,0,.64-.92,11.53,11.53,0,0,0,.17-2.51V110.9h2.13v6.76a17.48,17.48,0,0,1-.28,3.75,3.13,3.13,0,0,1-1.25,1.87,4.18,4.18,0,0,1-2.56.72,4.83,4.83,0,0,1-2.58-.59,3.41,3.41,0,0,1-1.34-1.67,12.54,12.54,0,0,1-.42-4Z"/><path d="M51.06,123.78V111h2.13v10.6H58.5v2.18Z"/><path d="M61.5,123.78v-10.7H58.36V110.9h8.39v2.18H63.62v10.7Z"/><path d="M68.3,110.9h2.12v7A17.73,17.73,0,0,0,70.5,120a2.16,2.16,0,0,0,.68,1.32,2.35,2.35,0,0,0,2.61.14,1.7,1.7,0,0,0,.64-.92A11.53,11.53,0,0,0,74.6,118V110.9h2.12v6.76a18.34,18.34,0,0,1-.27,3.75,3.17,3.17,0,0,1-1.25,1.87,4.2,4.2,0,0,1-2.56.72,4.83,4.83,0,0,1-2.58-.59,3.43,3.43,0,0,1-1.35-1.67,12.94,12.94,0,0,1-.41-4Z"/><path d="M79.15,123.78V110.9h4.5a6.36,6.36,0,0,1,2.46.34,2.77,2.77,0,0,1,1.21,1.21,4.11,4.11,0,0,1,.47,2,3.82,3.82,0,0,1-.72,2.43A3.16,3.16,0,0,1,85,118.09a5.56,5.56,0,0,1,1.13,1.08,14.57,14.57,0,0,1,1.22,2.1l1.29,2.51H86.1L84.56,121a19.59,19.59,0,0,0-1.13-1.91,1.6,1.6,0,0,0-.64-.52,2.79,2.79,0,0,0-1.07-.15h-.44v5.38Zm2.13-7.44h1.58a8.4,8.4,0,0,0,1.85-.12,1.2,1.2,0,0,0,.64-.52,1.91,1.91,0,0,0,.25-1,1.75,1.75,0,0,0-.25-1,1.28,1.28,0,0,0-.67-.52,9,9,0,0,0-1.73-.09H81.28Z"/><path d="M90,123.78V110.9h7.84v2.18H92.11v2.85h5.31v2.17H92.11v3.5H98v2.18Z"/><path d="M3.9,17,1.15,3H3.53l1.71,9.59L7.34,3h2.75l2,9.75L13.87,3h2.32L13.41,17H11L8.66,6.52,6.4,17Z"/><path d="M17.56,17V3h2.31V8.49h4.54V3h2.3V17h-2.3V10.85H19.87V17Z"/><path d="M29.22,17V3h2.31V17Z"/><path d="M36.51,17V5.36h-3.4V3h9.1V5.36H38.82V17Z"/><path d="M43.9,17V3h8.5V5.36H46.21v3.1H52v2.35H46.21V14.6h6.4V17Z"/><path d="M59.41,17V3h2.3V8.49h4.54V3h2.31V17H66.25V10.85H61.71V17Z"/><path d="M71.14,17V3h8.49V5.36H73.45v3.1H79.2v2.35H73.45V14.6h6.39V17Z"/><path d="M92.32,17h-2.5l-1-3.16H84.23L83.29,17H80.83L85.29,3h2.44Zm-4.25-5.52L86.49,6.26l-1.55,5.18Z"/><path d="M93.72,3h4.21a6.19,6.19,0,0,1,2.41.36,4,4,0,0,1,1.5,1.2,6.19,6.19,0,0,1,1.07,2.2,12.3,12.3,0,0,1,.39,3.36,10.92,10.92,0,0,1-.4,3.15,6.45,6.45,0,0,1-1,2.12,4,4,0,0,1-1.52,1.17,5.53,5.53,0,0,1-2.29.4H93.72ZM96,5.36V14.6h1.73a4.53,4.53,0,0,0,1.62-.21,2,2,0,0,0,.82-.64,3.62,3.62,0,0,0,.52-1.33,11.13,11.13,0,0,0,.21-2.41,11.12,11.12,0,0,0-.21-2.44A3.2,3.2,0,0,0,100,6.16a2.12,2.12,0,0,0-1.1-.68,9.36,9.36,0,0,0-1.87-.12Z"/><path d="M105.47,17V3H114V5.36h-6.19v3.1h5.76v2.35h-5.76V14.6h6.4V17Z"/><path d="M116.31,3h4.21a6.28,6.28,0,0,1,2.42.36,3.94,3.94,0,0,1,1.49,1.2,6.2,6.2,0,0,1,1.08,2.2,12.3,12.3,0,0,1,.39,3.36,10.89,10.89,0,0,1-.41,3.15,6.26,6.26,0,0,1-1,2.12,4,4,0,0,1-1.51,1.17,5.6,5.6,0,0,1-2.29.4h-4.34Zm2.3,2.36V14.6h1.74a4.47,4.47,0,0,0,1.61-.21,1.91,1.91,0,0,0,.82-.64,3.61,3.61,0,0,0,.53-1.33,11.13,11.13,0,0,0,.21-2.41,10.45,10.45,0,0,0-.22-2.44,3.19,3.19,0,0,0-.66-1.41,2.16,2.16,0,0,0-1.1-.68,9.48,9.48,0,0,0-1.88-.12Z"/><path class="cls-1" d="M93.49,33.36a2,2,0,0,1-.35,0,2.9,2.9,0,0,1-.38-.12l-.34-.09c-.47-.12-1-.22-1.44-.31s-1-.15-1.46-.2a8.92,8.92,0,0,0-1,0,1.76,1.76,0,0,0,.35,1c.12.13.65,0,1.09.08s.92.12,1.39.11c.22,0,.46,0,.69,0a5.17,5.17,0,0,1,.73-.07,3.69,3.69,0,0,1,.82.13,1.16,1.16,0,0,1-.07-.37Z"/><path class="cls-1" d="M57.41,89l0,0,0,0L57,88.34l-.27-.65a5.56,5.56,0,0,1-.35-1.39,3.73,3.73,0,0,1,.08-1.45,1.86,1.86,0,0,1,.81-1.18.05.05,0,0,1,.07,0,.06.06,0,0,1,0,.07l0,0a1.4,1.4,0,0,0-.3.52,2.71,2.71,0,0,0-.13.63A4,4,0,0,0,57,86.18a8.14,8.14,0,0,0,.46,1.19l.31.57.31.49a1.39,1.39,0,0,0,1.09.41,1.91,1.91,0,0,0,.33-.06l.17,0,.28-.06a1.77,1.77,0,0,1,1.14.26,1.72,1.72,0,0,1,.7.95.93.93,0,0,1,0,.29.86.86,0,0,1,0,.21,2.58,2.58,0,0,0,.06.37,3.63,3.63,0,0,0,.16.65c.16-.41.32-.83.46-1.25s.21-.72.29-1.09a3.33,3.33,0,0,1,.39-1.12,2.72,2.72,0,0,1,.82-.9,1.29,1.29,0,0,1,.6-.24,1,1,0,0,1,.67.14,3.58,3.58,0,0,1,.9.83c.09.12.18.25.26.38l.81-1.65c.37-.77.73-1.53,1-2.3l.24-.59c.08-.21.17-.42.26-.62.2-.4.41-.79.62-1.18.43-.75.9-1.48,1.35-2.2a22.8,22.8,0,0,0,1.26-2.13,11.75,11.75,0,0,0,.44-1.14c.14-.4.27-.8.4-1.21.47-1.48.93-3,1.41-4.49l0,0a1.87,1.87,0,0,1-1.55,0,2.6,2.6,0,0,1-.86-.78l-.11,0-.36,0a6,6,0,0,1-.73,0,4.68,4.68,0,0,1-.74,0,1.83,1.83,0,0,1-.39-.09,1.2,1.2,0,0,1-.21-.09,10.22,10.22,0,0,1-.94.72c-.38.27-.78.52-1.18.76a12.33,12.33,0,0,1-1.23.68c-.22.1-.44.19-.67.27a1.9,1.9,0,0,1-.36.09.94.94,0,0,1-.29,0c-.21.34-.42.62-.64.94l-.74,1c-.5.67-1,1.34-1.53,2s-1.06,1.32-1.64,2c-.29.31-.59.62-.91.91a4.12,4.12,0,0,1-1,.71l-.08.1-.15.21-.3.39-.61.76c-.4.5-.82,1-1.24,1.47-.85,1-1.71,1.94-2.61,2.86-.25.27-.52.54-.79.8.14.76.22,1.51.3,2.27a22.35,22.35,0,0,1,.13,2.31A9.45,9.45,0,0,0,53,93.25a4.7,4.7,0,0,0,.35,1.1,3.71,3.71,0,0,0,.56.93,1.28,1.28,0,0,0,.35.29.56.56,0,0,0,.36.06,1.21,1.21,0,0,0,.73-.45,7.52,7.52,0,0,0,1-1.91c.49-1.27.86-2.62,1.24-4A1.84,1.84,0,0,0,57.41,89Z"/><path class="cls-1" d="M83.6,54.29c-.6,1.28-1.2,2.56-1.87,3.81-.16.32-.34.63-.51.94a7.65,7.65,0,0,1-.59.93,6.29,6.29,0,0,1-.74.81,3.87,3.87,0,0,1-.45.35.83.83,0,0,1-.29.1.23.23,0,0,1-.18,0,.11.11,0,0,1,0,0c-.26,1-.53,2-.83,3q-.34,1.17-.78,2.34c-.15.39-.3.78-.48,1.17-.09.19-.18.39-.28.57s-.2.37-.32.55a6.26,6.26,0,0,1-.81,1,4,4,0,0,1-.88.68c-.17,1.62-.42,3.23-.75,4.84a21.45,21.45,0,0,1-.54,2.13c.3-.4.59-.81.88-1.23.76-1.13,1.49-2.29,2.19-3.47s1.43-2.35,2.09-3.55c.16-.3.31-.6.44-.89a4.52,4.52,0,0,1,.61-1c.46-.59,1-1,1.41-1.57a14.49,14.49,0,0,0,3.71-7.22,47.33,47.33,0,0,0,.66-8.24l0,.05C84.71,51.69,84.17,53,83.6,54.29Z"/><path class="cls-1" d="M88.69,37.58A10.28,10.28,0,0,0,87,36.92l-.41.29c-.08.21-.15.42-.23.64l-.28.74-.26.69.46.87a17.53,17.53,0,0,1,.88,2,4.8,4.8,0,0,1,.27,1.07,2.81,2.81,0,0,1,0,.58c0,.19-.09.36-.13.54l-.64,2a1.59,1.59,0,0,1-.07.2l.57.53c.12.12.22.23.34.34,0-.17.07-.34.09-.52s.08-.64.11-1,0-.65.06-1l.05-1V43.8l.09-.09a.8.8,0,0,1,.31-.2,1,1,0,0,1,.3,0,.91.91,0,0,1,.49.14l.07,0,0-.45a7.51,7.51,0,0,0,0-1.16,3.93,3.93,0,0,0-.29-1.12,2.12,2.12,0,0,0-.29-.48,1.22,1.22,0,0,0-.41-.35l0,0L88,40a.58.58,0,0,1,0-.47,1.65,1.65,0,0,1,.24-.33,4.18,4.18,0,0,1,.57-.47,3.94,3.94,0,0,1,.63-.36l.17-.07a2.61,2.61,0,0,0-.24-.23A3.44,3.44,0,0,0,88.69,37.58Z"/><path class="cls-1" d="M67.88,99a22.83,22.83,0,0,0,2.32.51c-.15-.09-.29-.19-.42-.28a4.6,4.6,0,0,1-.47-.41c-.12-.12-.22-.25-.33-.38l-1.41-.07-1.3-.1a.94.94,0,0,0,.12.09c.16.08.31.18.48.25A6.81,6.81,0,0,0,67.88,99Z"/><path class="cls-1" d="M44.47,81.81a3.69,3.69,0,0,0,1.1,0,4.15,4.15,0,0,0,2-1h.05c.36-.64.73-1.28,1.1-1.91.23-.38.46-.76.68-1.14l.63-1a1.55,1.55,0,0,1-2.47-1c-.39.63-.78,1.25-1.2,1.85-.93,1.34-1.92,2.64-3,3.88l.12.07A2.67,2.67,0,0,0,44.47,81.81Z"/><path class="cls-1" d="M51.7,64.58a8.15,8.15,0,0,1-1.9.63,3.38,3.38,0,0,1-1.06,0,1.56,1.56,0,0,1-.81-.36l-.14.09c-.48,1.34-1,2.64-1.62,3.93s-1.37,2.82-2.1,4.21A3.66,3.66,0,0,0,47.7,74c.39-.6.78-1.19,1.15-1.79,1-1.65,2-3.32,3-5,.75-1.33,1.49-2.67,2.19-4-.19.15-.38.29-.58.42A14.62,14.62,0,0,1,51.7,64.58Z"/><path class="cls-1" d="M48.45,80.72A2.2,2.2,0,0,0,49,80.4a8,8,0,0,0,1.07-1c.68-.72,1.32-1.51,2-2.31l.26-.32.13-.18a1.34,1.34,0,0,1-.75-1c-.29.49-.59,1-.91,1.43a37.74,37.74,0,0,1-2.89,3.75h.48s0,0,0,0A.5.5,0,0,0,48.45,80.72Z"/><path class="cls-1" d="M43.38,74.41c-.53,1-1.09,2-1.71,2.93s-1.38,2-2.15,3l-.21.86c0,.16.15.47.45.67a2.42,2.42,0,0,0,1,.38,2.55,2.55,0,0,0,1.1-.08,2.86,2.86,0,0,0,1-.56l.29-.25h0c.82-1.41,1.69-2.79,2.54-4.18.3-.49.62-1,.93-1.45C45.1,76.92,43.43,76.07,43.38,74.41Z"/><path class="cls-1" d="M43.68,72.55c.74-1.26,1.46-2.53,2.15-3.82s1.25-2.41,1.8-3.65a5.11,5.11,0,0,1-1,.49,4.15,4.15,0,0,1-1.78.16,4.43,4.43,0,0,1-1.64-.6,4,4,0,0,1-.7-.53,1.77,1.77,0,0,1-.3-.31,1.31,1.31,0,0,1-.17-.24c-.06.25-.14.5-.22.75a5.29,5.29,0,0,1-.41.91c-.07.15-.18.29-.26.43a3.07,3.07,0,0,0-.23.39,7,7,0,0,0-.62,1.77,5.78,5.78,0,0,1-.69,1.89,1.78,1.78,0,0,1-.36.42l-.36.3a1.56,1.56,0,0,0-.16.2A5.12,5.12,0,0,0,43.68,72.55Z"/><path class="cls-1" d="M36.27,80.1a4.92,4.92,0,0,0,.26,1,2.29,2.29,0,0,0,.1.23l0,.1a.1.1,0,0,0,0,.06.39.39,0,0,0,.27.13.91.91,0,0,0,.39-.07,3.81,3.81,0,0,0,.45-.19,2.45,2.45,0,0,0,.73-.61l.79-.9c.16-.29.31-.59.48-.88.37-.7.77-1.38,1.17-2.07s.82-1.36,1.22-2c.3-.46.58-.92.86-1.39-2.47,2.77-5.45,1.6-5.35-.76-.34.76-.66,1.55-1,2.32-.13.29-.27.59-.41.88-.06.66-.12,1.3-.15,2A12.46,12.46,0,0,0,36.27,80.1Z"/><path class="cls-1" d="M39.18,86.35l.93-1.69c.24-.47.51-1,.73-1.43l-.21,0a3.17,3.17,0,0,1-1.43-.63,2.28,2.28,0,0,1-.56-.63.56.56,0,0,1,0-.08,2.75,2.75,0,0,1-.41.24,4.62,4.62,0,0,1-.6.19,1.71,1.71,0,0,1-.7,0,1.16,1.16,0,0,1-.67-.41,1,1,0,0,1-.11-.17.69.69,0,0,0-.07-.15c0-.1-.07-.2-.1-.3a5.29,5.29,0,0,1-.19-1.17,10.84,10.84,0,0,1,.14-2.28,17.9,17.9,0,0,1,.36-1.77c-.12.24-.24.48-.37.72s-.32.57-.47.86-.3.54-.43.82c-.53,1.14-1,2.32-1.45,3.52-.89,2.39-1.67,4.83-2.46,7.28l-.31.92-.31.9c-.19.59-.35,1.2-.5,1.82-.3,1.23-.57,2.48-.82,3.73l-.17.94,0,.23a4.17,4.17,0,0,0,.52,0,6.27,6.27,0,0,0,.86-.09,4.73,4.73,0,0,0,3-1.59c.72-1,1.39-2.1,2-3.19s1.32-2.2,2-3.31Z"/><path class="cls-1" d="M87.05,43.71a1.92,1.92,0,0,0,0-.48,3.43,3.43,0,0,0-.27-1,8.43,8.43,0,0,0-1.07-1.77l-.27-.35h0s0,0,0,0h0l-1-1.23a1.2,1.2,0,0,0-.64-.36,7.54,7.54,0,0,0-.95-.13l-.53-.06-.28,0-.13,0h-.09a3.29,3.29,0,0,0-.91.07c-1.22.21-3,.78-4.28,1.14a3.72,3.72,0,0,1-.49.78l-.21.24-.26-.22a1.66,1.66,0,0,1-.32-.38c-.44.41-.92.77-1.38,1.13-.62.45-1.25.88-1.9,1.28a31.93,31.93,0,0,1-4,2.18,17.84,17.84,0,0,1-2.19.8,7.62,7.62,0,0,1-1.21.23,2.45,2.45,0,0,1-.7,0l-.28-.07a1.3,1.3,0,0,0-.21,0,2.63,2.63,0,0,0-1.78.7,9.92,9.92,0,0,0-1.57,1.6,6.74,6.74,0,0,1,1.17-2,4.23,4.23,0,0,1,.93-.8,2.5,2.5,0,0,1,1.27-.39,1.35,1.35,0,0,1,.35,0l.17,0a.23.23,0,0,0,.11,0,2.22,2.22,0,0,0,.43,0,5.74,5.74,0,0,0,1-.27c.68-.23,1.37-.51,2-.81,1.35-.61,2.7-1.26,4.06-1.9l2-1,1.58-.76a2.38,2.38,0,0,1-.24-.58A5,5,0,0,1,74.86,38a6.41,6.41,0,0,1,.1-1.16l.06-.28-.13,0L74,37c-.3.14-.6.3-.89.46a6.51,6.51,0,0,0-.8.51l-.54.44-.06-.65a1.77,1.77,0,0,1,0-.23c0-.08,0-.12,0-.19a2.84,2.84,0,0,1,.08-.34c.07-.21.15-.4.23-.59s.09-.18.14-.27c-2.44,1-5.27,2.18-7.55,3.35a26.74,26.74,0,0,0-3.42,2.06c-1.06.78-2.1,1.68-3.13,2.54S56,45.86,55,46.75s-2,1.81-3,2.72-2,1.86-2.89,2.83a20.23,20.23,0,0,0-2.54,3.1v0h0c-.37.48-.76.92-1.15,1.36s-.79.87-1.17,1.31-.75.89-1.07,1.37a3.61,3.61,0,0,0-.68,1.5v0h0c-.12.61-.15,1.26-.24,1.9A10.87,10.87,0,0,1,42,64a1.15,1.15,0,0,0,.21.23,2.16,2.16,0,0,0,.33.27,5.2,5.2,0,0,0,.72.42,4.12,4.12,0,0,0,1.59.41,3.63,3.63,0,0,0,1.57-.26,4.84,4.84,0,0,0,1.35-.88L48,64l.21.29c.25.34.87.32,1.42.18a7.38,7.38,0,0,0,1.67-.67,12.65,12.65,0,0,0,1.56-1,7.13,7.13,0,0,0,1.31-1.18l.49-.6.37.7a1,1,0,0,0,.46.46,1.72,1.72,0,0,0,.74.13A5.28,5.28,0,0,0,58,61.91a8.89,8.89,0,0,0,1.66-.9A6.94,6.94,0,0,0,61,59.82l.37-.47.44.37a2,2,0,0,0,1.54.16,8.18,8.18,0,0,0,1.84-.63,13,13,0,0,0,1.74-1,9.46,9.46,0,0,0,.78-.6,3,3,0,0,0,.6-.65l.4-.66.42.59a1.58,1.58,0,0,0,1.29.34,6,6,0,0,0,1.67-.39,8.29,8.29,0,0,0,1.58-.78,3.56,3.56,0,0,0,1.18-1.2l.17-.33.27.23a1.78,1.78,0,0,0,.91.27,5.7,5.7,0,0,0,1.09,0,12.63,12.63,0,0,0,2.19-.42,13.3,13.3,0,0,0,2.1-.79,7.2,7.2,0,0,0,1-.58l.23-.18c.47-1.06.95-2.11,1.43-3.15.3-.65.59-1.29.9-1.92l.94-1.89c.31-.64.61-1.27.86-1.93C87,44,87,43.87,87.05,43.71Z"/><path class="cls-1" d="M77.42,37.59c-.13.28-.24.57-.36.86l-.27.67c.58-.31,1.34-.65,1.78-.86L77.75,37A2.67,2.67,0,0,0,77.42,37.59Z"/><path class="cls-1" d="M90.73,30.74c-.36.24-.72.54-1.09.83l-.59.44a3.37,3.37,0,0,1-.52.35,8,8,0,0,1,2.53-.19,13.29,13.29,0,0,1,1.53.18l.39.08.33.09a1.08,1.08,0,0,0,.59-.06h0l.19-.16c.27-.23.56-.45.84-.66l.23-.16.09-.06.07-.08a3.37,3.37,0,0,0,.27-.42l.49-.93A8.74,8.74,0,0,0,95,29.67c-.62-.13-1.24-.29-1.84-.48a12.9,12.9,0,0,1-1.2.83C91.53,30.27,91.11,30.5,90.73,30.74Zm1.81-.41a.54.54,0,0,1,.58-.48c.12,0,.08.15,0,.28a.89.89,0,0,0-.11.64c0,.12,0,.23-.11.21A.53.53,0,0,1,92.54,30.33Z"/><path class="cls-1" d="M92,34a5.23,5.23,0,0,0-.68,0c-.46.06-.91.22-1.37.29a2.47,2.47,0,0,1-.72,0h-.18l-.24,0a1,1,0,0,1-.42-.3,1.28,1.28,0,0,1-.21-.83,1.72,1.72,0,0,1,.15-.58l-.3,0h0s0,0,0,0,0,0,0,0l.39-.14a5.37,5.37,0,0,1,1.91-2.3,6.25,6.25,0,0,1,1.38-.61,6.16,6.16,0,0,1,1.42-.28c-.36-.11-1.18-.33-1.21-.33h0A20.65,20.65,0,0,1,87.8,28c-.36-.12-.65-.25-1-.34a3.34,3.34,0,0,0-1-.18,3.26,3.26,0,0,0-1.94.61,8.9,8.9,0,0,0-.83.66,2.13,2.13,0,0,1-.49.35,3.58,3.58,0,0,0-.42.25,3.09,3.09,0,0,0-.7.64.78.78,0,0,0-.22.62,1.84,1.84,0,0,1,.06.68A1.6,1.6,0,0,1,81,32a2,2,0,0,1-.46.46l-.23.17,0,0a0,0,0,0,0,0,0s0,0,0,0a3.21,3.21,0,0,0-.18,1,9.45,9.45,0,0,0,0,1.06h0s0,0,0,0,0,0,0,0a2,2,0,0,1-.19-.52,4.88,4.88,0,0,1-.12-.55,3.57,3.57,0,0,1-.07-.56,2,2,0,0,1,.06-.63.6.6,0,0,1,.09-.21.44.44,0,0,1,.09-.11l.06-.06.18-.17a1.31,1.31,0,0,0,.27-.33.91.91,0,0,0,0-.73,1.29,1.29,0,0,1,0-.78,2.16,2.16,0,0,1,.37-.57,3.57,3.57,0,0,1,.94-.72,4.27,4.27,0,0,1,.53-.24,2.62,2.62,0,0,0,.43-.2,9.89,9.89,0,0,1,1-.51,8.07,8.07,0,0,1,2.09-.66,4.66,4.66,0,0,1,1.12-.06,4.89,4.89,0,0,1,1.08.25c.71.22,1.41.44,2.1.7l-1.26-.62c-1-.48-2-1-3-1.36a10.7,10.7,0,0,0-3.3-.46,21.82,21.82,0,0,0-3.26.32,2.1,2.1,0,0,0-.73.75,3,3,0,0,0-.33,1.08,17.08,17.08,0,0,0,0,2.49c0,.43,0,.84,0,1.3s-.07.88-.11,1.3a8.58,8.58,0,0,0,.06,2.53s0,0,0,0,0,0,0,0a6.15,6.15,0,0,1-.55-2.57c0-.21,0-.43,0-.64a8.05,8.05,0,0,0-1.44-1,6,6,0,0,0-1.51-.56,7.17,7.17,0,0,0-1.6-.15,1.88,1.88,0,0,0-.41,0c.08,0,.16.07.24.12a10,10,0,0,1,1.26.81l.6.45-.72.14a9.75,9.75,0,0,0-1.26.33,6.07,6.07,0,0,0-1.19.53,3.84,3.84,0,0,0-1,.81,2.58,2.58,0,0,0-.52.89,12.32,12.32,0,0,1,2-.71,11.46,11.46,0,0,1,1.19-.28l.6-.1a2.26,2.26,0,0,1,.69,0l.54.11-.51.33a2.87,2.87,0,0,0-.72.78,8.61,8.61,0,0,0-.62.95,10.58,10.58,0,0,0-.49,1l-.06.16.13-.08c.3-.18.6-.35.92-.51a9.05,9.05,0,0,1,.94-.45l.48-.21a2.92,2.92,0,0,1,.57-.19l.92-.2L76,36a1.61,1.61,0,0,0-.15.4,4.54,4.54,0,0,0-.12.5,5.69,5.69,0,0,0-.12,1,3.11,3.11,0,0,0,.28,1.48,3.14,3.14,0,0,0,.24-.39c.14-.26.29-.54.43-.82s.29-.56.45-.84a3.74,3.74,0,0,1,.27-.42,1.26,1.26,0,0,1,.41-.38l.16-.08.07.15c.25.52.5,1,.74,1.54l0,0a12.11,12.11,0,0,1,2-.77,3.58,3.58,0,0,1,1.18-.17h.16l.12,0,.25,0,.51,0a7.13,7.13,0,0,1,1.13.16,2.46,2.46,0,0,1,.6.27,2.59,2.59,0,0,1,.51.48c.06.08.12.18.17.26a.28.28,0,0,0,0-.09,5.84,5.84,0,0,1,.18-.83,4.74,4.74,0,0,1,.3-.79l0-.08a2.89,2.89,0,0,1-.72,0,3.83,3.83,0,0,1-1.54-.57c-.23-.15-.45-.32-.65-.48s-.38-.34-.58-.55a1.75,1.75,0,0,1-.42-.78,1.15,1.15,0,0,1,.09-.84,1.69,1.69,0,0,0,.76,1.14c.4.28.82.59,1.22.85a7.14,7.14,0,0,0,1.26.65,5.79,5.79,0,0,0,1,.29l.56-.28a7.17,7.17,0,0,1,1-.36A9.31,9.31,0,0,0,89.74,35c.3-.16.59-.35.9-.49a4,4,0,0,1,1-.32,4.76,4.76,0,0,1,1.13-.1l0,0A1.87,1.87,0,0,0,92,34ZM82.9,32.21a.51.51,0,0,1-.57.38.77.77,0,0,1-.48-.45,4.47,4.47,0,0,1-.24-.49.73.73,0,0,1,0-.64.71.71,0,0,1,1.06-.26.52.52,0,0,1,.18.32,2.5,2.5,0,0,1,0,.58A3,3,0,0,1,82.9,32.21ZM88,29.61s0,0,0,.06a.54.54,0,0,1-.05.11,1.48,1.48,0,0,1-.13.21,2.17,2.17,0,0,1-.32.36,1.54,1.54,0,0,1-.42.28,1,1,0,0,1-.55.12,1.91,1.91,0,0,1-.94-.44,1.4,1.4,0,0,1-.58-.85,1.05,1.05,0,0,1,.1-.6,1.27,1.27,0,0,1,.4-.43,1.62,1.62,0,0,1,.51-.25,1.52,1.52,0,0,1,.57-.05,1.7,1.7,0,0,1,.94.54,2.25,2.25,0,0,1,.3.39,2,2,0,0,1,.12.21l.05.11,0,.06,0,.08Z"/><path class="cls-1" d="M99.07,33a4.66,4.66,0,0,0-.13-.73,3.38,3.38,0,0,0-.11-.34c0-.11-.11-.21-.16-.31a3.09,3.09,0,0,0-1-.95,7.68,7.68,0,0,0-1.5-.72,3.87,3.87,0,0,1-.23,1.06,2,2,0,0,1-.26.52l-.1.13-.13.1-.21.16c-.25.17-.49.34-.75.5l.35.08c.25.06.5.11.74.19.49.13,1,.27,1.48.45a3.15,3.15,0,0,1,.73.44,2.13,2.13,0,0,1,.57.66,2.23,2.23,0,0,1,.29.95,2.92,2.92,0,0,0,.32-.72A4,4,0,0,0,99.07,33Z"/><path class="cls-1" d="M96.77,33.88c-.45-.14-.94-.25-1.42-.36l-.73-.16a1.31,1.31,0,0,0-.58-.07l-.26.05c0,.1.1.2.14.3a1.45,1.45,0,0,1,.11.29l.11,0c.44.15.85.28,1.27.4a8.37,8.37,0,0,0,2.44.36l-.06-.1A2.16,2.16,0,0,0,96.77,33.88Z"/><path class="cls-1" d="M79,61h0c.08.11.2,0,.32-.1a2.33,2.33,0,0,0,.31-.38,7.81,7.81,0,0,0,.52-.88c.29-.6.5-1.27.77-1.93.5-1.32,1-2.63,1.57-3.94l.24-.55-.1.1a6.64,6.64,0,0,1-.94.66,10.13,10.13,0,0,1-1.28.63v0c-.33,1.55-.64,3.19-1,4.76C79.23,59.93,79.09,60.47,79,61Z"/><path class="cls-1" d="M50.39,88.21a17.17,17.17,0,0,1-1.58,1.19c-.19.12-.38.24-.58.35l-5,10.66a2.37,2.37,0,0,0,1.5.35,2.3,2.3,0,0,0,.15-.35l.18-.49c.24-.66.52-1.33.81-2s.64-1.31,1-1.94a23.57,23.57,0,0,1,2.48-3.53,21,21,0,0,1,2.73-2.68c0-.39,0-.78,0-1.17a12.17,12.17,0,0,1,.2-2.17C51.67,87,51.05,87.64,50.39,88.21Z"/><path class="cls-1" d="M74.72,59.13a23.89,23.89,0,0,1-1.28,3.74c-.25.61-.54,1.2-.81,1.81s-.62,1.16-1,1.72-.75,1.08-1.15,1.6-.65.76-1,1.14a1,1,0,0,0,.46.1,3.54,3.54,0,0,0,.65,0l.66-.08.32-.07.16,0,.08,0,.49.13a2,2,0,0,0,.75.63,1,1,0,0,0,.81,0,2.67,2.67,0,0,0,.79-.63,6.58,6.58,0,0,0,.67-.88,25.24,25.24,0,0,0,1.84-4.38c.52-1.53,1-3.08,1.52-4.63.25-.77.5-1.55.76-2.32l.38-1.17c.07-.19.14-.39.2-.58s.11-.3.18-.46c-.21.09-.44.17-.66.25a11.21,11.21,0,0,1-2.23.56,7.5,7.5,0,0,1-1.17.08,2.31,2.31,0,0,1-.94-.18c0,.07-.07.14-.11.2a9.4,9.4,0,0,1-.06,1.59C75,57.84,74.87,58.49,74.72,59.13Z"/><path class="cls-1" d="M56.27,80.5l.63-.71.31-.36.14-.18.12-.15.13-.18.15,0a3.25,3.25,0,0,0,.9-.55c.31-.24.61-.51.91-.79.6-.56,1.18-1.16,1.74-1.78s1.11-1.24,1.63-1.88q.41-.49.78-1c.2-.26.27-.34.44-.6a3.41,3.41,0,0,1-1,.57,2.34,2.34,0,0,1-.69.18,1.33,1.33,0,0,1-.59-.07,5.36,5.36,0,0,1-.78.86,7,7,0,0,1-1,.76,5.61,5.61,0,0,1-1.2.53,2.63,2.63,0,0,1-.7.13,1.21,1.21,0,0,1-.41,0l-.07,0a8.58,8.58,0,0,1-.92.89A14.62,14.62,0,0,1,55.5,77a8.26,8.26,0,0,1-1.42.73,3.48,3.48,0,0,1-.81.25,2.33,2.33,0,0,1-.6,0,23.4,23.4,0,0,1-1.8,2.18,10.62,10.62,0,0,1-1.19,1.12,3.51,3.51,0,0,1-.79.47,1.54,1.54,0,0,1-.57.14l-.28,0a5.44,5.44,0,0,1-2.26,1,4.89,4.89,0,0,1-1.43,0,3.62,3.62,0,0,1-1.09-.3,3.6,3.6,0,0,1-1.07.5,3.46,3.46,0,0,1-1.2.12c-.18.53-.4,1-.63,1.54s-.53,1.17-.8,1.76c-.54,1.17-1.12,2.31-1.7,3.46s-1.18,2.29-1.79,3.43l-.55,1a1.25,1.25,0,0,0,.47,0,4.63,4.63,0,0,0,.94-.35c.62-.31,1.2-.68,1.79-1s1.15-.78,1.72-1.2,1.1-.83,1.7-1.26l.3-.2.29.28a.91.91,0,0,0,.76.22,3.29,3.29,0,0,0,1-.29,6.35,6.35,0,0,0,1-.56,4.12,4.12,0,0,0,.45-.35,2.42,2.42,0,0,0,.36-.34l.15-.19.27,0a2.43,2.43,0,0,0,.68-.24,7.57,7.57,0,0,0,.75-.46c.49-.34,1-.74,1.45-1.14.95-.81,1.86-1.69,2.76-2.57s1.78-1.81,2.65-2.75Z"/><path class="cls-1" d="M55,63.15a2.15,2.15,0,0,1-.52-.39l-.27.25c-1.46,3.27-3.1,6.45-4.87,9.56L48.3,74.45a3.11,3.11,0,0,0,2.69.69l.49-.77c.48-.74.93-1.5,1.39-2.26.89-1.53,1.74-3.09,2.53-4.68.67-1.35,1.31-2.72,1.87-4.12a4.91,4.91,0,0,1-1,.12A2.7,2.7,0,0,1,55,63.15Z"/><path class="cls-1" d="M47.91,89.91a3.79,3.79,0,0,1-.88.3c-.13.13-.26.23-.38.33s-.37.26-.55.38a8.37,8.37,0,0,1-1.15.6l-4,8.56a1.71,1.71,0,0,0,1.79.35c.92-1.83,4.41-8.75,5.42-10.65Z"/><path class="cls-1" d="M43.54,91.85a1.23,1.23,0,0,1-.27,0c-.33.77-.69,1.53-1.06,2.28-.48,1-1,1.92-1.49,2.86s-1,1.83-1.56,2.7c.18.28.6.46,1.29.26l4.45-8.4A4,4,0,0,1,43.54,91.85Z"/><path class="cls-1" d="M53.08,77a2.37,2.37,0,0,0,.36-.09,2.85,2.85,0,0,1-.42,0l-.11.14Z"/><path class="cls-1" d="M74.08,56.67a7.45,7.45,0,0,1-1.68,1,7.15,7.15,0,0,1-1.9.54,3.84,3.84,0,0,1-.59,0,24.14,24.14,0,0,1-1.24,3.49c-.6,1.35-1.26,2.68-2,4-.34.66-.72,1.29-1.08,1.94s-.77,1.26-1.19,1.87-.88,1.19-1.34,1.77-.77.9-1.17,1.34a1.4,1.4,0,0,0,1.19.07,7.06,7.06,0,0,0,1.42-1l.15.1s.12,0,.22,0a2,2,0,0,0,.31-.07,5.32,5.32,0,0,0,.61-.26A10.75,10.75,0,0,0,67,70.83c.38-.25.76-.52,1.12-.79a6.5,6.5,0,0,0,1-.9l.19-.23s.53-.79.77-1.21c.31-.58.62-1.14.94-1.71.6-1.14,1.32-2.21,1.88-3.38A22.82,22.82,0,0,0,74.34,59a15.12,15.12,0,0,0,.49-1.87A9.71,9.71,0,0,0,75,55.75,5.06,5.06,0,0,1,74.08,56.67Z"/><path class="cls-1" d="M58.4,63a6.73,6.73,0,0,1-1,.32c-.48,1.47-1.06,2.9-1.67,4.33-.71,1.63-1.5,3.23-2.33,4.81l-.92,1.7a4.89,4.89,0,0,0,1.22.56c.12-.19.23-.36.31-.5.44-.74.91-1.46,1.36-2.19s.92-1.46,1.37-2.2c.87-1.48,1.69-3,2.45-4.55.61-1.21,1.19-2.45,1.69-3.72-.2.16-.41.31-.62.46A12.34,12.34,0,0,1,58.4,63Z"/><path class="cls-1" d="M62.38,61.1a2.74,2.74,0,0,1-.81-.2,5.25,5.25,0,0,1-.49.46c-.44,1.37-1,2.72-1.53,4-.69,1.59-1.46,3.15-2.26,4.69a48,48,0,0,1-2.62,4.5l-.18.26A5.67,5.67,0,0,0,57,74.71c.09-.09.19-.18.27-.27l.12-.15c.23-.41.46-.82.71-1.22.37-.64.74-1.26,1.13-1.89.76-1.26,1.63-2.44,2.39-3.69s1.5-2.53,2.17-3.83a26.65,26.65,0,0,0,1.41-3.19,9.73,9.73,0,0,1-1.63.54A4.64,4.64,0,0,1,62.38,61.1Z"/><path class="cls-1" d="M68.85,58a5,5,0,0,1-.45.47,9.72,9.72,0,0,1-.86.7,12.23,12.23,0,0,1-1.87,1.13l-.31.13a23.37,23.37,0,0,1-1.23,3.43q-.9,2-2,4c-.34.66-.72,1.29-1.07,1.94s-.78,1.26-1.2,1.87-.88,1.19-1.34,1.77l-.24.28-.43.76a.36.36,0,0,0,.27.07,1.91,1.91,0,0,0,.52,0,5.17,5.17,0,0,0,1.1-.39,5.22,5.22,0,0,0,1.9-1.41q.45-.87,1-1.71t1.14-1.89c.76-1.26,1.63-2.44,2.39-3.69s1.5-2.53,2.16-3.83a24.42,24.42,0,0,0,1.46-3.32,2.15,2.15,0,0,1-.34-.05A1.82,1.82,0,0,1,68.85,58Z"/><path class="cls-1" d="M71.71,100.66s-.43.62-.7,1a4.6,4.6,0,0,1,3,.63A2.17,2.17,0,0,0,71.71,100.66Z"/><path class="cls-1" d="M73.61,99.81c.16-.47.33-.94.51-1.4a20.25,20.25,0,0,1-3.23-.86c-.59-.2-1.18-.43-1.76-.66l-.43-.19c-.15-.06-.29-.14-.43-.21a2.67,2.67,0,0,1-.78-.6,4.73,4.73,0,0,1-1-1.71,9.55,9.55,0,0,1-.46-1.88,12.24,12.24,0,0,1-.11-1.91,10.58,10.58,0,0,1,.16-1.6,2,2,0,0,0-.08-.26,3.88,3.88,0,0,0-.22-.46,3,3,0,0,0-.68-.78,1.51,1.51,0,0,0-.18-.09c0,1.46.13,2.89.2,4.33s.13,2.93.34,4.37A5.49,5.49,0,0,0,66.05,98l.11.13,1.42-.2c.52-.08,1-.11,1.58-.19l.11,0,.15.11c.16.13.33.26.48.4a4.49,4.49,0,0,1,.41.46,4.94,4.94,0,0,1,.58.94l.11,0c.28,0,.55.06.82.09a.2.2,0,0,0,.06-.07c-.15.21-.36.52-.52.77h0a20.59,20.59,0,0,1-3.51-1.15c-.34-.15-.69-.28-1-.45-.17-.07-.34-.17-.51-.26a1.44,1.44,0,0,1-.45-.4,4.18,4.18,0,0,1-.56-1A9.19,9.19,0,0,1,64.89,96a19.6,19.6,0,0,1-.54-4.48,21.18,21.18,0,0,1,.11-2.25,11.84,11.84,0,0,1,.38-2.11.85.85,0,0,0-.56.15,2.22,2.22,0,0,0-.71.75,3,3,0,0,0-.32,1c0,.39-.13.76-.21,1.14-.15.75-.33,1.5-.53,2.24l-.12.41c.11.32.21.64.29,1,.13.49.24,1,.34,1.5s.18,1,.23,1.51a9.87,9.87,0,0,1,0,1.09c-.27-.42-.67-1-.67-1a2.15,2.15,0,0,0-2.31,1.68,4.64,4.64,0,0,1,3-.64,3,3,0,0,1,0,.42l0,.18-.15,0a11.79,11.79,0,0,1-1.3.11,4.79,4.79,0,0,0-1.22.16.39.39,0,0,0-.2.13.55.55,0,0,0-.05.25,3.12,3.12,0,0,0,0,.61c0,.27.09.55.15.82a3.63,3.63,0,0,1,1.12-.54,2.33,2.33,0,0,1,.88-.06,1.89,1.89,0,0,1,.44.1l.36.11c.48.15,1,.3,1.44.47l1.34.47.69-.14c-.59-.47-1.17-1-1.73-1.46a0,0,0,0,1,0,0s0,0,0,0c.89.44,1.75.93,2.6,1.44l.22.13c1,.08,2,.19,3,.31.23-.38.46-.74.7-1.1h-.08a4.57,4.57,0,0,1,2.92.64A2.09,2.09,0,0,0,73.61,99.81Zm-1.51-.45,0,0a2.5,2.5,0,0,1,.68.12A2.68,2.68,0,0,0,72.1,99.36Z"/><path class="cls-1" d="M74.44,98.62s-.44.62-.71,1a4.54,4.54,0,0,1,3,.64A2.16,2.16,0,0,0,74.44,98.62Z"/><path class="cls-1" d="M57.45,101.49a4.58,4.58,0,0,1,3-.63c-.27-.43-.71-1-.71-1A2.16,2.16,0,0,0,57.45,101.49Z"/></svg>