<svg id="Layer_1" data-name="Layer 1" xmlns="http://www.w3.org/2000/svg" width="128" height="128" viewBox="0 0 128 128"><title>Artboard 88</title><path d="M5.53,16.1,3,3.22H5.18l1.59,8.85L8.7,3.22h2.54l1.86,9,1.63-9h2.14L14.31,16.1H12L9.92,6.47,7.83,16.1Z"/><path d="M17.7,9.74A9.21,9.21,0,0,1,18.38,6a5.24,5.24,0,0,1,1.78-2.22A4.7,4.7,0,0,1,22.83,3a4.57,4.57,0,0,1,3.69,1.73A7.58,7.58,0,0,1,28,9.66a7.69,7.69,0,0,1-1.51,5.06,4.44,4.44,0,0,1-3.61,1.6,4.48,4.48,0,0,1-3.62-1.59A7.6,7.6,0,0,1,17.7,9.74Zm2.2-.09A5.42,5.42,0,0,0,20.75,13a2.53,2.53,0,0,0,4.18,0,5.68,5.68,0,0,0,.82-3.39A5.56,5.56,0,0,0,25,6.3a2.61,2.61,0,0,0-4.23,0A5.55,5.55,0,0,0,19.9,9.65Z"/><path d="M29.37,9.74A9.21,9.21,0,0,1,30.05,6a5.16,5.16,0,0,1,1.78-2.22A4.67,4.67,0,0,1,34.49,3a4.59,4.59,0,0,1,3.7,1.73,7.58,7.58,0,0,1,1.43,4.93,7.75,7.75,0,0,1-1.51,5.06,4.44,4.44,0,0,1-3.61,1.6,4.47,4.47,0,0,1-3.62-1.59A7.55,7.55,0,0,1,29.37,9.74Zm2.2-.09A5.5,5.5,0,0,0,32.41,13a2.54,2.54,0,0,0,2.1,1.11A2.51,2.51,0,0,0,36.59,13a5.68,5.68,0,0,0,.83-3.39,5.49,5.49,0,0,0-.81-3.31,2.48,2.48,0,0,0-2.1-1.08A2.53,2.53,0,0,0,32.39,6.3,5.55,5.55,0,0,0,31.57,9.65Z"/><path d="M41.53,16.1V3.33h2.13V13.92H49V16.1Z"/><path d="M52.09,16.1V10.68L48.22,3.22h2.5L53.2,8.31l2.45-5.09H58.1L54.22,10.7v5.4Z"/><path d="M57.92,12.67V10.2h4v2.47Z"/><path d="M63.65,16.1V3.22h2.07L70,11.82V3.22h2V16.1H69.89L65.63,7.7v8.4Z"/><path d="M74.46,16.1V3.22H82.3V5.4H76.59V8.26H81.9v2.17H76.59v3.49h5.9V16.1Z"/><path d="M91.24,11.37l2.07.8a5.8,5.8,0,0,1-1.61,3.16,4,4,0,0,1-2.77,1,4.1,4.1,0,0,1-3.35-1.59,7.68,7.68,0,0,1-1.47-5,8.06,8.06,0,0,1,1.48-5.16A4.23,4.23,0,0,1,89.07,3a4,4,0,0,1,3,1.21,5.26,5.26,0,0,1,1.25,2.56l-2.11.62a2.83,2.83,0,0,0-.8-1.61A2.06,2.06,0,0,0,89,5.22a2.27,2.27,0,0,0-1.91,1,5.9,5.9,0,0,0-.74,3.37A6.23,6.23,0,0,0,87,13.07a2.2,2.2,0,0,0,1.88,1,2,2,0,0,0,1.46-.65A4.15,4.15,0,0,0,91.24,11.37Z"/><path d="M95.33,16.1V3.22h2.13V9l4.32-5.74h2.88l-4,5,4.2,7.86h-2.76l-2.92-6.05-1.73,2.16V16.1Z"/><path d="M106.15,16.1V3.22H114V5.4h-5.71V8.26h5.3v2.17h-5.3v3.49h5.9V16.1Z"/><path d="M116.16,3.22H120a5.78,5.78,0,0,1,2.23.33,3.73,3.73,0,0,1,1.38,1.11,5.59,5.59,0,0,1,1,2,11.37,11.37,0,0,1,.36,3.1,10,10,0,0,1-.38,2.91,5.72,5.72,0,0,1-1,2,3.63,3.63,0,0,1-1.4,1.09,5.3,5.3,0,0,1-2.11.36h-4Zm2.12,2.18v8.52h1.6a4.15,4.15,0,0,0,1.49-.19,1.82,1.82,0,0,0,.76-.58,3.45,3.45,0,0,0,.49-1.24,10.89,10.89,0,0,0,.19-2.22,10.18,10.18,0,0,0-.2-2.25,3,3,0,0,0-.61-1.3,2,2,0,0,0-1-.63,9.05,9.05,0,0,0-1.73-.11Z"/><path d="M35.36,119.09l2.31-.28c.26,1.83,1.11,2.75,2.56,2.75a2.44,2.44,0,0,0,1.69-.56,1.81,1.81,0,0,0,.61-1.39,1.41,1.41,0,0,0-.87-1.39,16.45,16.45,0,0,0-2.12-.74,7.29,7.29,0,0,1-2.22-1,3.68,3.68,0,0,1-1.12-1.41,4.23,4.23,0,0,1-.41-1.87,4.14,4.14,0,0,1,.53-2.11,3.41,3.41,0,0,1,1.47-1.42,5.14,5.14,0,0,1,2.31-.47,4.06,4.06,0,0,1,4.46,4.33l-2.37.13a2.54,2.54,0,0,0-.67-1.61,2.15,2.15,0,0,0-1.48-.46,2.32,2.32,0,0,0-1.47.4,1.18,1.18,0,0,0-.52,1,1.24,1.24,0,0,0,.47,1,6.52,6.52,0,0,0,2.16.88,9,9,0,0,1,2.58,1.09,3.68,3.68,0,0,1,1.22,1.48,5.15,5.15,0,0,1,.42,2.19,4.53,4.53,0,0,1-1.15,3.13A4.6,4.6,0,0,1,40.16,124Q35.84,124,35.36,119.09Z"/><path d="M49.74,123.76v-11.9H46.25v-2.42h9.33v2.42H52.1v11.9Z"/><path d="M56.55,116.69a10.29,10.29,0,0,1,.75-4.22,5.77,5.77,0,0,1,2-2.46,5.22,5.22,0,0,1,3-.81,5.09,5.09,0,0,1,4.11,1.92,10.25,10.25,0,0,1-.1,11.09,5.41,5.41,0,0,1-8,0A8.41,8.41,0,0,1,56.55,116.69Zm2.44-.1a6,6,0,0,0,.94,3.7,2.8,2.8,0,0,0,4.64,0,6.27,6.27,0,0,0,.92-3.76,6.17,6.17,0,0,0-.89-3.68,2.91,2.91,0,0,0-4.7,0A6.14,6.14,0,0,0,59,116.59Z"/><path d="M70,123.76V109.44h5a6.86,6.86,0,0,1,2.73.39,3,3,0,0,1,1.35,1.33,4.68,4.68,0,0,1,.53,2.28,4.27,4.27,0,0,1-.81,2.71,3.62,3.62,0,0,1-2.29,1.29,5.76,5.76,0,0,1,1.26,1.19A17.24,17.24,0,0,1,79.12,121l1.42,2.8H77.72L76,120.64a18.36,18.36,0,0,0-1.26-2.11,1.8,1.8,0,0,0-.7-.59,3.15,3.15,0,0,0-1.19-.16h-.49v6Zm2.36-8.27h1.76a8.51,8.51,0,0,0,2-.14,1.27,1.27,0,0,0,.71-.57,2,2,0,0,0,.28-1.14,1.91,1.91,0,0,0-.28-1.1,1.35,1.35,0,0,0-.74-.57,9.37,9.37,0,0,0-1.92-.11H72.36Z"/><path d="M82.05,123.76V109.44h2.37v6.37l4.8-6.37h3.19L88,115l4.66,8.74H89.58L86.34,117l-1.92,2.4v4.33Z"/><path d="M37.81,84.42a9.06,9.06,0,0,1-.17,1.18c-.08.42-.18.83-.28,1.24s-.21.81-.3,1.22c0,.06,0,.12,0,.18l0,0c.24-.27.47-.58.7-.87.39-.51.79-1,1.2-1.54q0-.63.06-1.23c.09-.92.23-1.83.4-2.73-.38.7-.8,1.39-1.24,2.06C38.06,84.07,37.94,84.25,37.81,84.42Z"/><path d="M51.33,54.85a8.33,8.33,0,0,0-1.21.67c-.27.18-.54.37-.79.57a9.09,9.09,0,0,0-.74.63c-.11.11-.21.22-.31.34a2.09,2.09,0,0,0-.14.17l-.12.2c-.19.3-.39.57-.59.84s-.39.52-.56.79a2.64,2.64,0,0,0-.37.76.35.35,0,0,0,0,.14.53.53,0,0,0,0,.13,2.69,2.69,0,0,0,.19.38c.15.22.29.33.47.33a1.7,1.7,0,0,0,.72-.36l.84-.53,1.71-1.06c.44-.25.88-.52,1.34-.75h0a1.36,1.36,0,0,1-1.08-.79,1.75,1.75,0,0,1,0-1.26A4.7,4.7,0,0,1,51.33,54.85Z"/><path d="M42.05,66.62l.06,0,.24.19a3.76,3.76,0,0,0,.5.31l.13.06h0l.43-.5c.31-.33.61-.66.93-1s.66-.61,1-.9a5.49,5.49,0,0,1,.87-.58c-.14-.24-.27-.48-.4-.72l-.09-.15,0-.06,0,0a.4.4,0,0,1-.07-.16.69.69,0,0,1,0-.33,1.86,1.86,0,0,1,.1-.2,4.25,4.25,0,0,1,.44-.64c.15-.19.31-.38.47-.56l-.13-.06a1.67,1.67,0,0,1-.46-.46,2.58,2.58,0,0,1-.27-.52,1.18,1.18,0,0,1-.07-.71A2.37,2.37,0,0,1,46,59c-.31.38-.6.78-.89,1.18s-.74,1.06-1.1,1.6l-.87,1.28c-.28.86-.69,1.65-1,2.44a4.78,4.78,0,0,0-.15.6.82.82,0,0,0,0,.45Z"/><path d="M76.65,25.4a1.73,1.73,0,0,1-.71.37l-.17,0c2.74,1.06,5.42,2.26,8.07,3.5,1.42.67,2.83,1.35,4.23,2.06,1,.5,2,1,2.91,1.54-.19-.17-.38-.34-.59-.5-.58-.48-1.22-.83-1.88-1.29-1.24-.85-2.56-1.65-3.85-2.46l-3.9-2.42-2-1.2c-.34-.2-.61-.49-.93-.67a3.47,3.47,0,0,0-1-.36,1,1,0,0,1,.19.67A1.12,1.12,0,0,1,76.65,25.4Z"/><path d="M44.86,60a11.24,11.24,0,0,1,1.22-1.17c0-.08.09-.14.13-.21.2-.3.41-.57.61-.83s.43-.52.6-.78l.16-.21c.06-.08.13-.14.19-.21a3.33,3.33,0,0,1,.4-.36,7.82,7.82,0,0,1,1.76-1.07,5.87,5.87,0,0,1,1.52-.49q.19-.24.39-.45a6,6,0,0,1,.8-.71c.32-.21.6-.34.88-.52s.64-.42.95-.65a2.12,2.12,0,0,1-.34,0l-.12,0-.15-.07a.68.68,0,0,1-.23-.18.92.92,0,0,1-.25-.5,1.15,1.15,0,0,1,.12-.7q-1,.59-2.07,1.08a15.88,15.88,0,0,1-2.77,1c-.26.33-.5.69-.74,1s-.67,1-1,1.49c-.66,1-1.3,2-1.92,3s-1.21,2.06-1.75,3.11c-.13.26-.26.51-.38.76l.72-.9C44,61,44.42,60.49,44.86,60Z"/><path d="M52,58.11c-1,.75-1.9,1.54-2.87,2.27l-.8.61-.43.31a1.43,1.43,0,0,1-.61.22.93.93,0,0,1-.37,0c-.12.23-.24.46-.35.69a5.32,5.32,0,0,0-.3.65.83.83,0,0,0,0,.15h0l.06.08.11.16a9.91,9.91,0,0,0,.86,1.12c.19.17.11.12.3.11a2.54,2.54,0,0,0,.58-.25c.4-.21.81-.49,1.22-.75a3.92,3.92,0,0,0,1-1c.3-.37.6-.77.92-1.16a4,4,0,0,1,1.14-1,6.6,6.6,0,0,0-.82,1.21c-.22.39-.43.79-.67,1.19a4.12,4.12,0,0,0,1,0,1.58,1.58,0,0,0,.9-.4,6.7,6.7,0,0,0,.77-.87,5,5,0,0,1,.7-.77l-.17-.1c-.14-.08-.28-.15-.42-.24a4.84,4.84,0,0,1-.81-.58,1.92,1.92,0,0,1-.57-.91,1.2,1.2,0,0,1,.13-.84A1.75,1.75,0,0,1,52,58.11Z"/><path d="M71.05,46.16a4,4,0,0,0-1.23-1.07,1.32,1.32,0,0,0-.69-.18,3.09,3.09,0,0,0-.78.2,13.53,13.53,0,0,1-1.63.69,9.79,9.79,0,0,1-1.76.35h-.1l-.08-.08a1.65,1.65,0,0,0-1.22-.39,3.14,3.14,0,0,0-1.33.45c-.88.49-1.76,1-2.64,1.42L57,49c-.44.23-.88.47-1.31.72l-.64.37-.18.1a1.87,1.87,0,0,0-.66.82.67.67,0,0,0,0,.43.17.17,0,0,0,.16.13,1.64,1.64,0,0,0,.53,0l.64-.12c.44-.08.89-.18,1.38-.24a4.19,4.19,0,0,1-1.17.84,5.2,5.2,0,0,1-.69.27l-.25,0a10.09,10.09,0,0,1-1,1c-.25.24-.57.42-.79.62a7.2,7.2,0,0,0-.64.71,5.33,5.33,0,0,0-.91,1.64,1.15,1.15,0,0,0,0,.73.61.61,0,0,0,.49.32,2.85,2.85,0,0,0,1.67-.45A4.58,4.58,0,0,0,55,55.71c.36-.54.73-1.13,1.14-1.68a6,6,0,0,1,1.41-1.47,7.84,7.84,0,0,0-1.08,1.69l-.94,1.8a3.51,3.51,0,0,1-.73.84,5.35,5.35,0,0,1-.87.63,4.05,4.05,0,0,1-1,.45,3.59,3.59,0,0,1-.47.12,1.24,1.24,0,0,0,.15.71,1.77,1.77,0,0,0,.59.56c.24.14.5.28.78.41l.42.2.23.12.07,0,0,0h0s.07,0,.17,0a2.49,2.49,0,0,0,.32-.21c.22-.17.43-.39.65-.6.4-.4.79-.83,1.23-1.24A.53.53,0,0,1,57,57.9l0-.16,0-.16a1.65,1.65,0,0,1,.32-1.06,2.94,2.94,0,0,1,.72-.69,5.73,5.73,0,0,0-.36.87,1.27,1.27,0,0,0-.06.78.68.68,0,0,0,.43.43,1.35,1.35,0,0,0,.7.12A2.35,2.35,0,0,0,60,57.2c.37-.38.73-.83,1.16-1.21a1.77,1.77,0,0,1-.58-.51,1.26,1.26,0,0,1,.09-1.58,1.32,1.32,0,0,0,.39,1.17,1.69,1.69,0,0,0,.49.28l.14,0h0l.15-.08a6.38,6.38,0,0,0,1-.88l.59-.6a1.07,1.07,0,0,1-.41-.18,1.25,1.25,0,0,1-.49-.61,2.05,2.05,0,0,1,0-1.34A3,3,0,0,0,63,52.81a.9.9,0,0,0,.36.3,1.28,1.28,0,0,0,.45,0,1,1,0,0,0,.77-.4,2.42,2.42,0,0,0,.36-1l0-.27.22,0a.8.8,0,0,0,.35-.2,3.76,3.76,0,0,0,.38-.41c.25-.3.48-.64.74-1a4.91,4.91,0,0,1-.33,1.22,2.6,2.6,0,0,1-.34.57,1.27,1.27,0,0,1-.37.36,2.43,2.43,0,0,1-.41,1.2,1.57,1.57,0,0,1-.63.51,1.66,1.66,0,0,1-.78.14h0a4.54,4.54,0,0,1-.41.93,3.42,3.42,0,0,1-1,1.18.9.9,0,0,1-.22.11.93.93,0,0,1-.28.08.62.62,0,0,1-.19,0l-.1,0-.05,0a1.21,1.21,0,0,1-.2-.09h0a8,8,0,0,1-.76,1.55,3.58,3.58,0,0,1-.69.78,1.9,1.9,0,0,1-1.64.43,2.55,2.55,0,0,1-.54-.22,1.18,1.18,0,0,1-.24-.17,1,1,0,0,1-.22-.23l-.05-.06a7.22,7.22,0,0,1-.79,1.57,5,5,0,0,1-.64.77,2.4,2.4,0,0,1-.45.34,1.17,1.17,0,0,1-.3.12,1,1,0,0,1-.42,0,.51.51,0,0,1-.17-.07c-.1.34-.19.66-.32,1A3,3,0,0,1,53.24,63a1.73,1.73,0,0,1-1.45.43,2,2,0,0,1-1-.53,4.06,4.06,0,0,1-1,1.18,13.25,13.25,0,0,1-1.27.83,3.17,3.17,0,0,1-.79.31,1.31,1.31,0,0,1-.58,0,1.29,1.29,0,0,1-.16-.09l-.1-.08a1.29,1.29,0,0,1-.17-.16,3.68,3.68,0,0,1-.37-.51c-.24.25-.44.52-.66.78l-.82,1-.81,1-.42.52A.81.81,0,0,1,43,68a.87.87,0,0,1-.32-.06l-.09,0c-.49,1.27-1,2.53-1.58,3.76-.12,1.1-.2,2.2-.28,3.29,0,.67-.08,1.33-.1,2,0,.33,0,.65,0,1,0,.16,0,.32,0,.48a1.17,1.17,0,0,0,.06.35.31.31,0,0,0,.15.15,1.06,1.06,0,0,0,.34.08,2.55,2.55,0,0,0,.82-.12.45.45,0,0,0,.14-.07h0l0,0,.06-.06c.09-.13.19-.26.28-.4l.57-.82c.76-1.1,1.53-2.19,2.37-3.24-.55,1.23-1.18,2.42-1.84,3.58l-.51.87-.28.44-.1.13-.06.07a.6.6,0,0,1-.08.08,1.81,1.81,0,0,1-.3.16,3,3,0,0,1-1.15.19,1.61,1.61,0,0,1-.62-.15,1,1,0,0,1-.43-.34c-.14.86-.21,1.73-.28,2.59A1.16,1.16,0,0,0,40,82a1.85,1.85,0,0,0,.54.09A7.07,7.07,0,0,0,41.68,82c.38-.05.76-.11,1.13-.18l.28-.06.1,0,.07,0a1.24,1.24,0,0,0,.32-.3,5.82,5.82,0,0,0,.59-.92c.2-.33.37-.67.56-1a22.77,22.77,0,0,1,1.18-2.07,14.23,14.23,0,0,1-.6,2.33A7.51,7.51,0,0,1,44.19,82a1.8,1.8,0,0,1-.57.47.7.7,0,0,1-.2.08l-.19,0-.31,0a8.11,8.11,0,0,1-1.21.06,4.75,4.75,0,0,1-1.23-.18,1.6,1.6,0,0,1-.57-.28l-.13-.12c-.07.85-.12,1.69-.15,2.53,0,.45,0,.9,0,1.34,0,.11,0,.21,0,.32a2.34,2.34,0,0,0,.05.3l0,.15a.59.59,0,0,1,0,.08.09.09,0,0,0,0,0l.05.07.09.15c.13.19.24.38.36.53a.74.74,0,0,0,.37.3,1.9,1.9,0,0,0,.55.11l.68.07a6.13,6.13,0,0,0,1.27.05,1.09,1.09,0,0,0,.47-.14l.07,0s0,0,0-.08l.17-.28c.46-.77.88-1.58,1.33-2.37C46.1,83.6,47,82,47.72,80.34A19,19,0,0,1,46.88,83c-.3.77-.63,1.53-1,2.29a3.15,3.15,0,0,0,2-1.46,4.59,4.59,0,0,0,.33-.62c.09-.21.19-.46.28-.69.2-.47.41-.92.6-1.38l1.23-2.75c.41-.92.8-1.83,1.19-2.78a12.67,12.67,0,0,1-.6,3c-.14.49-.33,1-.5,1.44s-.39.95-.59,1.41-.42.92-.66,1.37v0a3.52,3.52,0,0,0,.78-.24,9.15,9.15,0,0,0,2.17-1.29,4.58,4.58,0,0,0,.46-.42,1.07,1.07,0,0,0,.31-.48l0-.07.07,0a4.87,4.87,0,0,0,1.19-.48c.39-.21.76-.44,1.12-.68a10.51,10.51,0,0,0,1-.79,3.82,3.82,0,0,0,.45-.45,1.18,1.18,0,0,0,.17-.24.25.25,0,0,0,.05-.17L57,77.3l.26-.07a1.13,1.13,0,0,0,.37-.2,3.68,3.68,0,0,0,.37-.32c.24-.23.48-.47.7-.72.45-.5.88-1,1.3-1.56s.81-1.09,1.2-1.65a17,17,0,0,0,1.05-1.7l.07-.13.15,0a2.48,2.48,0,0,0,.93-.6,10.31,10.31,0,0,0,.88-.87c.14-.15.27-.32.41-.48a1.53,1.53,0,0,1-.46.14A2.27,2.27,0,0,1,63,68.86a2.44,2.44,0,0,1-.64-.51c-.3.73-.61,1.47-.91,2.21h0a3.52,3.52,0,0,1-.71,1,4.1,4.1,0,0,1-1,.71,2,2,0,0,1-.62.19.91.91,0,0,1-.76-.2.79.79,0,0,1-.14-.18L58,72.3a3.23,3.23,0,0,1-1.06.94,1.18,1.18,0,0,1-.2.07l-.21,0a1.36,1.36,0,0,1-.4,0,1.14,1.14,0,0,1-.71-.46,2.07,2.07,0,0,1-.2-.43c-.08.17-.16.34-.26.51a3.51,3.51,0,0,1-.47.69,2,2,0,0,1-.73.49,1.82,1.82,0,0,1-.86.09,1.19,1.19,0,0,1-.83-.38,1.21,1.21,0,0,1-.22-.89,2.9,2.9,0,0,1,.07-.34,2.89,2.89,0,0,1-1.2.13,3,3,0,0,1-.82-.2,1.31,1.31,0,0,1-.67-.54,1.36,1.36,0,0,1-.19-.83,3,3,0,0,1,.18-.8,10.28,10.28,0,0,1,.69-1.46,13.44,13.44,0,0,0-.57,1.49,3,3,0,0,0-.12.78,1.23,1.23,0,0,0,.19.69,1.8,1.8,0,0,0,1.33.55,2.19,2.19,0,0,0,1.4-.34l.17-.13c.06-.26.14-.52.22-.77s.26-.65.37-1a5.89,5.89,0,0,0,.27-1,6.19,6.19,0,0,0,.16-1h0a7.14,7.14,0,0,1-.16,2.16,4.23,4.23,0,0,1-.31,1,4.1,4.1,0,0,1-.23.4l-.24.58c-.18.41-.27,1,0,1.24a.76.76,0,0,0,.54.2,1.51,1.51,0,0,0,.64-.09,1.86,1.86,0,0,0,.91-1c.23-.43.41-.91.68-1.4l.18-.3.07-.4c.07-.34.22-.66.32-1,.2-.67.4-1.34.59-2h0c-.08.7-.18,1.4-.32,2.09a6.18,6.18,0,0,1-.25,1,2.34,2.34,0,0,1-.09.24l0,.5a2,2,0,0,0,.2,1.07.55.55,0,0,0,.35.22.63.63,0,0,0,.24,0l.11,0s.06,0,.1,0a2.93,2.93,0,0,0,.84-.78,2.74,2.74,0,0,0,.53-1h0c.05-.23.13-.46.19-.69a15.54,15.54,0,0,0,.31-1.68h0a10,10,0,0,1,0,1.73,5.52,5.52,0,0,1-.1.71l.13,0h0a2,2,0,0,0,0,.48.59.59,0,0,0,.1.31c.09.11.45.06.74-.09a3.36,3.36,0,0,0,1.45-1.39c.33-.76.66-1.52,1-2.26,0-.19,0-.37.07-.55,0-.34.14-.66.2-1a15,15,0,0,0,.22-2h0a10.22,10.22,0,0,1,.06,2.07,5,5,0,0,1-.13,1l.1.18a1.84,1.84,0,0,0,1.68,1,1.31,1.31,0,0,0,.87-.47,3.63,3.63,0,0,0,.55-.94c0-.36.06-.71.11-1.07s.15-.76.2-1.15c.11-.78.18-1.56.22-2.36h0a15.87,15.87,0,0,1,.06,2.39,6,6,0,0,1-.13,1.2,4.19,4.19,0,0,1-.34.89,2.73,2.73,0,0,0,.93-.17h0a4.12,4.12,0,0,0,.47-.38,6.65,6.65,0,0,0,.94-1.1l0,0,0,0a10,10,0,0,0,1.24-1.14,8.2,8.2,0,0,0,.81-1.46c.23-.52.48-1.08.65-1.6.09-.26.15-.54.24-.81s.13-.56.18-.85a57.3,57.3,0,0,0,.81-7c.08-1.17.14-2.36.18-3.51A5.12,5.12,0,0,0,71.05,46.16Z"/><path d="M40,79.1a1.85,1.85,0,0,1-.11-.63,3.17,3.17,0,0,1,0-.53,8.77,8.77,0,0,1,0-1c.06-.67.12-1.34.24-2a22.9,22.9,0,0,1,.49-2.44c-.31.58-.65,1.13-.9,1.67a4.13,4.13,0,0,0-.19.52c0,.1,0,.16-.06.28s-.06.24-.09.33c-.14.41-.28.8-.44,1.18L38,78.71c-.31.76-.62,1.51-.89,2.27-.12.38-.26.76-.35,1.12a7.56,7.56,0,0,0-.18,1.16,7.75,7.75,0,0,0,0,1.18c0,.22,0,.45,0,.68l.45-.47c.28-.3.55-.62.82-.94.5-.63,1-1.26,1.5-1.91a19.94,19.94,0,0,1,.64-2.53A1,1,0,0,1,40,79.1Z"/><path d="M91.39,33.27c-1.18-.48-2.35-1-3.51-1.48q-2.16-.95-4.29-1.95c-2.68-1.27-5.34-2.57-7.93-4l-.12,0c0,.23.08.45.1.68a3.25,3.25,0,0,1,0,.54,1.26,1.26,0,0,1-.05.28l0,.09,1.76.64,5,2c1.65.65,3.3,1.32,5,1.94.41.16.82.3,1.24.43l1.27.42c.42.13.84.26,1.26.37l.4.1Z"/><path d="M61.31,101.59l0-.27,0-.52L61,93.57l-.41-7.25v-.07L61,85a4.11,4.11,0,0,0,.2-.59,3.27,3.27,0,0,0,0-.62,14.18,14.18,0,0,0-.63-2.53V81.2c.28-1.67.57-3.34.87-5,.15-.84.31-1.67.47-2.5.1-.5.2-1,.31-1.48-.2.3-.41.59-.63.89-.4.55-.81,1.09-1.24,1.62l-.06.32c-.09.52-.16,1-.22,1.54-.13,1-.23,2.06-.39,3.09-.05.25-.09.51-.16.77a1.46,1.46,0,0,1-.14.38c0,.13-.11.22-.15.35A5.68,5.68,0,0,0,59,82.67a9.77,9.77,0,0,0,0,1.53,3.31,3.31,0,0,0,.39,1.4l0,.05v.06c0,1.3.05,2.64.09,4l.17,4,.18,4,.09,2c0,.66.08,1.32.07,2v.23l-.22,0-3.34.49.11.61,4-.64h.08c3.05.33,6.11.65,9.16,1v-.93l-8.3-.81Z"/><path d="M59.51,101.41c0-1.24-.09-2.5-.12-3.75l-.13-4-.1-4c0-1.32-.08-2.62,0-4a3.47,3.47,0,0,1-.4-1.5,9.61,9.61,0,0,1,0-1.42,2.8,2.8,0,0,0-.25-.41,5.43,5.43,0,0,0-.49-.57l-.05,0v-.11c0-.41,0-.82,0-1.23s0-.82,0-1.23.07-.82.13-1.23a7.89,7.89,0,0,1,.18-1l0,0a3.47,3.47,0,0,1-.42.34,1.38,1.38,0,0,1-.38.21,1,1,0,0,1-.09.27c-.07.11-.15.21-.22.3a4.6,4.6,0,0,1-.46.43c0,1,0,2.08-.07,3.11v0a7.58,7.58,0,0,0,0,1.78,4.14,4.14,0,0,0,.51,1.64l0,0v0c.23,1.3.42,2.59.61,3.88s.37,2.6.56,3.89c.35,2.6.69,5.19,1,7.79l0,.23-.22,0-2.46.36-2.34.33.28,1,1.4-.23-.06-.35,0-.27.28,0Z"/><path d="M79.46,37.66A15.42,15.42,0,0,0,78.05,34l-.85-1.74c-.14-.29-.27-.55-.4-.85s-.29-.6-.44-.88v0h0l-.21-.32a3.34,3.34,0,0,0-.25-.34,6.31,6.31,0,0,0-.55-.61,10.64,10.64,0,0,0-1.22-1c-.42-.3-.86-.59-1.25-.9a2.24,2.24,0,0,1-.87-1.1,1.34,1.34,0,0,0,.3-.12l0,0,.06,0a7.16,7.16,0,0,0,1.18.57c.4.17.82.33,1.23.49l.65.23a1.09,1.09,0,0,0-.07-.3c0-.16-.11-.31-.17-.47-.11-.32-.22-.65-.31-1l-.09-.34.36,0A2.61,2.61,0,0,0,76.34,25a1,1,0,0,0,.47-.88.62.62,0,0,0,0-.13h0a1.11,1.11,0,0,1-.08-.21l-.08-.25c-.06-.16-.12-.31-.19-.47a5,5,0,0,0-.5-.87,3.11,3.11,0,0,0-.23-.28,5.54,5.54,0,0,1-.07.57.47.47,0,0,1-.21.37.6.6,0,0,1-.43,0c-.26-.07-.45-.18-.67-.22a2.82,2.82,0,0,0-.64-.09,2.43,2.43,0,0,0-.61.07.83.83,0,0,0-.44.27l-.39.57-.19.29a2.66,2.66,0,0,1-.24.32,1,1,0,0,1-.19.16l-.22.1a2,2,0,0,1-.4.08h-.27a3.9,3.9,0,0,1-.18.67.93.93,0,0,0,0,.89.83.83,0,0,0,.79.33,2.09,2.09,0,0,0,.5-.08,2.36,2.36,0,0,0,.72,1.33c.36.4.74.74,1.12,1.1s.73.7,1.06,1.07a4.9,4.9,0,0,1,.45.57,3.11,3.11,0,0,1,.2.3l.18.31c.15.29.28.55.42.84s.3.6.45.87l1,1.69A14.18,14.18,0,0,1,79,37.78a12.37,12.37,0,0,1,.3,1.87,11.94,11.94,0,0,1,0,1.89A11.51,11.51,0,0,1,78.54,45c-.19-.34-.39-.69-.59-1.06,0-.09-.09-.2-.12-.29a1.13,1.13,0,0,0-.09-.2,3.3,3.3,0,0,0-.27-.42,5.6,5.6,0,0,0-.7-.77,5.35,5.35,0,0,0-.8-.64,1.21,1.21,0,0,0-.82-.26A.9.9,0,0,1,74,41.17a3,3,0,0,0-.88-.53,45.4,45.4,0,0,0-4.8-1.4c.73-.28,1.45-.56,2.16-.85l.31-.13.33-.15a1.65,1.65,0,0,0,.64-.53,1.69,1.69,0,0,0,.24-.83A3.16,3.16,0,0,0,71.9,36a7.79,7.79,0,0,0-.44-1.34,3.52,3.52,0,0,0-.34-.67,5.28,5.28,0,0,0-.47-.57c-.33-.34-.68-.63-1-.93s-.65-.6-1-.91A14.19,14.19,0,0,1,67,29.51,6.65,6.65,0,0,1,66,27.14a7,7,0,0,1-.1-2.62,4.67,4.67,0,0,1,.13-.65,2.12,2.12,0,0,1,.22-.61,3.25,3.25,0,0,1,.92-.85,2.56,2.56,0,0,1,.87.09,2.27,2.27,0,0,1,1.24.84,1.73,1.73,0,0,0,1.06.49,2.15,2.15,0,0,0,.62,0,1.28,1.28,0,0,0,.28-.07.32.32,0,0,0,.17-.1l.19-.26.2-.28c.14-.19.25-.36.41-.57a1.36,1.36,0,0,1,.76-.44,2,2,0,0,1,.77,0,2.24,2.24,0,0,1,.73.18,6.19,6.19,0,0,1,.63.31c.38.26.44-.32.59-.72a2.42,2.42,0,0,0-.42-.37,3.48,3.48,0,0,0-.9-.4,8.53,8.53,0,0,0-2-.31,8.34,8.34,0,0,0-1,0h-.25l-.23,0a3.56,3.56,0,0,0-.47.1,11.7,11.7,0,0,0-1.88.67,9.32,9.32,0,0,0-1.39.75l0,0a4.12,4.12,0,0,0-1,.87,2.4,2.4,0,0,0-.28.64c-.07.22-.12.44-.17.66a7.22,7.22,0,0,0-.06,2.74,7,7,0,0,0,1,2.57A15.1,15.1,0,0,0,68.23,32q.45.51.93,1c.32.33.64.63.91.95a3.94,3.94,0,0,1,.37.49,3.9,3.9,0,0,1,.26.54,10.11,10.11,0,0,1,.42,1.2,1.48,1.48,0,0,1,0,1c-.11.26-.51.43-.92.66-.72.41-1.43.85-2.12,1.32a4.92,4.92,0,0,0-.69-.12,8.16,8.16,0,0,0-1.64.19,5.18,5.18,0,0,0-1.5.6A2.85,2.85,0,0,0,63.19,41l0,0-.05,0c-.71.6-1.4,1.24-2.09,1.88l-1,1-.53.48-.27.23a2.06,2.06,0,0,1-.39.24,8.63,8.63,0,0,1-1.43.37,10.47,10.47,0,0,0-1.31.36,4.61,4.61,0,0,0-1.46.81l.6,0,.76-.08.74-.12,2-.42L57,46.85c-.79.53-1.59,1-2.43,1.47a11,11,0,0,1-1.31.59,12.41,12.41,0,0,0-1.22.59A15.77,15.77,0,0,0,49.76,51a7.57,7.57,0,0,0-1.51,1.59,10.16,10.16,0,0,0,1.3-.3,18.24,18.24,0,0,0,1.76-.6c.59-.22,1.16-.47,1.73-.74l.57-.27h0a1.49,1.49,0,0,1,.86-.59,2.34,2.34,0,0,1,.35-.29l.64-.39c.43-.26.87-.51,1.31-.75.87-.48,1.76-.95,2.64-1.41s1.77-.93,2.64-1.41a3.55,3.55,0,0,1,1.47-.52,2,2,0,0,1,1.46.41,9.42,9.42,0,0,0,1.59-.37,12.68,12.68,0,0,0,1.58-.71,3.52,3.52,0,0,1,.91-.26,1.85,1.85,0,0,1,1,.22,4.57,4.57,0,0,1,1.43,1.18,6.56,6.56,0,0,1,1,1.57,4.69,4.69,0,0,1,.44,1.83c0,1.21,0,2.36-.11,3.55A52.36,52.36,0,0,1,72.19,59c.06.22.11.45.15.68a4.74,4.74,0,0,1,.08,1.19A8.54,8.54,0,0,0,73,59.9c.23-.44.45-.88.67-1.33.42-.89.81-1.81,1.19-2.72l.25-.6.26.59a1.71,1.71,0,0,1,.09.27l.23-.64c.22-.63.43-1.27.63-1.9l.3-1,.15-.47.07-.24v0l0-.06a.47.47,0,0,1,.2-.22.5.5,0,0,1,.55.06.46.46,0,0,1,.14.23c.11-.55.2-1.12.29-1.69l.14-.94.08-.48a4.45,4.45,0,0,1,.11-.52.78.78,0,0,1,.05-.12l0,0a.27.27,0,0,1,.06-.09l.07,0,0,0,.07,0a.46.46,0,0,1,.4.07.45.45,0,0,1,.14.15l.07.13,0-.41a5.07,5.07,0,0,0-.39-2c-.1-.25-.22-.49-.35-.74a11.37,11.37,0,0,0,1-3.53,10.71,10.71,0,0,0,.06-2A11.88,11.88,0,0,0,79.46,37.66ZM73.87,23a.69.69,0,0,1,.68.69.69.69,0,0,1-1.37,0A.69.69,0,0,1,73.87,23Z"/></svg>