<svg id="Layer_1" data-name="Layer 1" xmlns="http://www.w3.org/2000/svg" width="128" height="128" viewBox="0 0 128 128"><title>Artboard 87</title><path d="M6.62,16.1V10.68L2.75,3.22h2.5L7.73,8.31l2.45-5.09h2.45L8.75,10.7v5.4Z"/><path d="M13.88,16.1V3.22h7.84V5.4H16V8.26h5.31v2.17H16v3.49h5.91V16.1Z"/><path d="M24,16.1V3.33h2.13V13.92h5.31V16.1Z"/><path d="M33.15,16.1V3.33h2.13V13.92h5.31V16.1Z"/><path d="M41.86,9.74A9.05,9.05,0,0,1,42.54,6a5.09,5.09,0,0,1,1.78-2.22A4.67,4.67,0,0,1,47,3a4.6,4.6,0,0,1,3.7,1.73A7.58,7.58,0,0,1,52.1,9.66a7.69,7.69,0,0,1-1.51,5.06,4.41,4.41,0,0,1-3.6,1.6,4.46,4.46,0,0,1-3.62-1.59A7.55,7.55,0,0,1,41.86,9.74Zm2.19-.09A5.49,5.49,0,0,0,44.9,13a2.53,2.53,0,0,0,4.18,0,5.68,5.68,0,0,0,.83-3.39A5.49,5.49,0,0,0,49.1,6.3,2.51,2.51,0,0,0,47,5.22,2.55,2.55,0,0,0,44.87,6.3,5.62,5.62,0,0,0,44.05,9.65Z"/><path d="M55.46,16.1,52.93,3.22h2.18l1.59,8.85,1.93-8.85h2.54l1.86,9,1.63-9H66.8L64.24,16.1H62L59.86,6.47l-2.1,9.63Z"/><path d="M67.17,12.67V10.2h4v2.47Z"/><path d="M72.87,3.22H77.1a6.6,6.6,0,0,1,2.44.32,2.66,2.66,0,0,1,1.18,1.11,3.39,3.39,0,0,1,.49,1.81,3.44,3.44,0,0,1-.42,1.69,2.67,2.67,0,0,1-1.07,1.11,2.88,2.88,0,0,1,1.47,1.14,3.55,3.55,0,0,1,.53,2A4.07,4.07,0,0,1,81,14.75a2.83,2.83,0,0,1-1.6,1.2,17.46,17.46,0,0,1-3,.15H72.87ZM75,5.36v3H76.4c.84,0,1.37,0,1.57,0a1.35,1.35,0,0,0,.85-.46,1.59,1.59,0,0,0,.31-1,1.52,1.52,0,0,0-.26-.92,1,1,0,0,0-.6-.45,12.64,12.64,0,0,0-2-.09Zm0,5.13v3.43h2a6.36,6.36,0,0,0,1.67-.13,1.23,1.23,0,0,0,.62-.54,1.82,1.82,0,0,0,.25-1,1.85,1.85,0,0,0-.27-1,1.35,1.35,0,0,0-.71-.56,7,7,0,0,0-1.82-.15Z"/><path d="M83.64,16.1V3.22h2.13V16.1Z"/><path d="M88.05,16.1V3.33h2.12V13.92h5.31V16.1Z"/><path d="M97.24,16.1V3.33h2.13V13.92h5.31V16.1Z"/><path d="M106.39,16.1V3.22h7.84V5.4h-5.71V8.26h5.3v2.17h-5.3v3.49h5.9V16.1Z"/><path d="M116.4,3.22h3.88a5.78,5.78,0,0,1,2.23.33,3.73,3.73,0,0,1,1.38,1.11,5.75,5.75,0,0,1,1,2,11.37,11.37,0,0,1,.36,3.1,10,10,0,0,1-.38,2.91,5.72,5.72,0,0,1-1,2,3.7,3.7,0,0,1-1.4,1.09,5.3,5.3,0,0,1-2.11.36h-4Zm2.12,2.18v8.52h1.6a4.15,4.15,0,0,0,1.49-.19,1.82,1.82,0,0,0,.76-.58,3.29,3.29,0,0,0,.48-1.24,10.13,10.13,0,0,0,.2-2.22,10.18,10.18,0,0,0-.2-2.25,2.92,2.92,0,0,0-.62-1.3,1.9,1.9,0,0,0-1-.63,9.05,9.05,0,0,0-1.73-.11Z"/><path d="M35.36,119.09l2.31-.28c.26,1.83,1.11,2.75,2.56,2.75a2.44,2.44,0,0,0,1.69-.56,1.81,1.81,0,0,0,.61-1.39,1.41,1.41,0,0,0-.87-1.39,16.45,16.45,0,0,0-2.12-.74,7.29,7.29,0,0,1-2.22-1,3.68,3.68,0,0,1-1.12-1.41,4.23,4.23,0,0,1-.41-1.87,4.14,4.14,0,0,1,.53-2.11,3.41,3.41,0,0,1,1.47-1.42,5.14,5.14,0,0,1,2.31-.47,4.06,4.06,0,0,1,4.46,4.33l-2.37.13a2.54,2.54,0,0,0-.67-1.61,2.15,2.15,0,0,0-1.48-.46,2.32,2.32,0,0,0-1.47.4,1.18,1.18,0,0,0-.52,1,1.24,1.24,0,0,0,.47,1,6.52,6.52,0,0,0,2.16.88,9,9,0,0,1,2.58,1.09,3.68,3.68,0,0,1,1.22,1.48,5.15,5.15,0,0,1,.42,2.19,4.53,4.53,0,0,1-1.15,3.13A4.6,4.6,0,0,1,40.16,124Q35.84,124,35.36,119.09Z"/><path d="M49.74,123.76v-11.9H46.25v-2.42h9.33v2.42H52.1v11.9Z"/><path d="M56.55,116.69a10.29,10.29,0,0,1,.75-4.22,5.77,5.77,0,0,1,2-2.46,5.22,5.22,0,0,1,3-.81,5.09,5.09,0,0,1,4.11,1.92,10.25,10.25,0,0,1-.1,11.09,5.41,5.41,0,0,1-8,0A8.41,8.41,0,0,1,56.55,116.69Zm2.44-.1a6,6,0,0,0,.94,3.7,2.8,2.8,0,0,0,4.64,0,6.27,6.27,0,0,0,.92-3.76,6.17,6.17,0,0,0-.89-3.68,2.91,2.91,0,0,0-4.7,0A6.14,6.14,0,0,0,59,116.59Z"/><path d="M70,123.76V109.44h5a6.86,6.86,0,0,1,2.73.39,3,3,0,0,1,1.35,1.33,4.68,4.68,0,0,1,.53,2.28,4.27,4.27,0,0,1-.81,2.71,3.62,3.62,0,0,1-2.29,1.29,5.76,5.76,0,0,1,1.26,1.19A17.24,17.24,0,0,1,79.12,121l1.42,2.8H77.72L76,120.64a18.36,18.36,0,0,0-1.26-2.11,1.8,1.8,0,0,0-.7-.59,3.15,3.15,0,0,0-1.19-.16h-.49v6Zm2.36-8.27h1.76a8.51,8.51,0,0,0,2-.14,1.27,1.27,0,0,0,.71-.57,2,2,0,0,0,.28-1.14,1.91,1.91,0,0,0-.28-1.1,1.35,1.35,0,0,0-.74-.57,9.37,9.37,0,0,0-1.92-.11H72.36Z"/><path d="M82.05,123.76V109.44h2.37v6.37l4.8-6.37h3.19L88,115l4.66,8.74H89.58L86.34,117l-1.92,2.4v4.33Z"/><path d="M31.24,57.48a11.22,11.22,0,0,0-2.06,1.42q-.62.52-1.23,1c1.17-1.57,2.29-3.17,3.38-4.79a3.17,3.17,0,0,0,.64.68,2.62,2.62,0,0,0,.93.51.76.76,0,0,0,.31,0,.7.7,0,0,0,.3-.09A3.12,3.12,0,0,0,34,56a9.21,9.21,0,0,0,.76-.61,2.26,2.26,0,0,0,.23.31,2.92,2.92,0,0,0,.53.46l.11.07a9,9,0,0,1-2,.57l-.58.1-.28.05-.32.07A6.73,6.73,0,0,0,31.24,57.48Z"/><path d="M37.06,58.83a7.91,7.91,0,0,0,.41,1,18.15,18.15,0,0,0-2.29.66,12.86,12.86,0,0,0-2.54,1.16l-.31.22-.26.2c-.17.14-.36.26-.54.39-.36.26-.74.49-1.12.72a12,12,0,0,1-1.18.61,3.17,3.17,0,0,1-.85.24c.69-.59,1.38-1.17,2.09-1.74.52-.42,1.05-.84,1.58-1.22a16.84,16.84,0,0,1,1.69-1c1-.54,2.12-1,3.2-1.51Z"/><path d="M30,61.69c-1.08.8-2.13,1.66-3.15,2.56a24.39,24.39,0,0,0-2.22,2.32,6.27,6.27,0,0,1,.11-1,9.4,9.4,0,0,1,.63-1.8c.43-.91.95-1.78,1.44-2.67a2.46,2.46,0,0,0,.34-.29l.43-.5c.61-.35,1.2-.76,1.78-1.14a11,11,0,0,1,2.08-1.16,5,5,0,0,1,1.11-.27l.6-.08a4.61,4.61,0,0,0,.62-.14A5.17,5.17,0,0,0,35,57a3.16,3.16,0,0,0,.81-.69h0a1.87,1.87,0,0,0,.35.16,1.66,1.66,0,0,0,.8.05,2.75,2.75,0,0,0,1.31-.74c.17-.16.33-.33.48-.5a2.05,2.05,0,0,0,.41.16,2.89,2.89,0,0,0,.83.08l.39,0c-.4.26-.79.52-1.2.76s-.69.4-1,.58l-.53.25-.26.11-.14.05-.06,0,0,0-.07,0a.58.58,0,0,0-.3.55.94.94,0,0,0,0,.16l0,.08,0,.13.06.16a25.43,25.43,0,0,0-3.38,1.16,12.6,12.6,0,0,0-1.83.93C31.12,60.89,30.59,61.29,30,61.69Z"/><path d="M55.05,61.52l.65.13-.19.35-.42.83-.82,1.65L52.61,67.8,51,71.13c-.54,1.1-1.08,2.22-1.64,3.31l0,.06,0,.07a6.53,6.53,0,0,1,.15,1.4c0,.19,0,.38,0,.57a4.41,4.41,0,0,1-.19,1,1.22,1.22,0,0,1-.46.7l-.1.06v.1l-.38,5.77L48.11,87,48,88.43a128.81,128.81,0,0,0,.15,13v.08c1.15,1.6,6.62,1.21,6.92,1.41s.14.71.22,1.07a24.85,24.85,0,0,1-9.49-1.2s-3.77,1.08-4,1V103A19.93,19.93,0,0,0,46,101.26a67.48,67.48,0,0,0,.72-9.53c0-1.21.08-2.39.1-3.6s0-2.4,0-3.6l0-7.19v0l0,0a4.41,4.41,0,0,1,0-2.14,4.32,4.32,0,0,1,.3-1s0-.06,0-.09l.09-.12.16-.25c.11-.16.21-.33.3-.49.79-1.32,1.42-2.73,2.27-3.93a17,17,0,0,0,1.12-2c.33-.69.66-1.38,1-2.08s.62-1.39.9-2.1l.45-1,.23-.52a.3.3,0,0,1,0-.08h.23C54.24,61.39,54.64,61.44,55.05,61.52Z"/><path d="M54.77,58.42a23.05,23.05,0,0,0,3,.21,4.54,4.54,0,0,0-1.26,1.64c-.05.11-.09.21-.13.32l-.09.35,0,.1a8.3,8.3,0,0,0-1.09-.28,9.68,9.68,0,0,0-1.32-.14l-.47,0a3.42,3.42,0,0,0,.45-1,2.58,2.58,0,0,0,0-1A7.21,7.21,0,0,0,54.77,58.42Z"/><path d="M44.09,57.78a33.46,33.46,0,0,1-4.24,2.11,2.32,2.32,0,0,1-1,.24.74.74,0,0,1-.35-.16,1.94,1.94,0,0,1-.32-.37,5.59,5.59,0,0,1-.5-1c-.08-.19-.15-.37-.24-.57l-.07-.14v0l.06,0,.14-.07.28-.14c.18-.1.36-.2.53-.31.34-.23.68-.46,1-.71a13.42,13.42,0,0,0,1.34-1.16l.1,0a1.9,1.9,0,0,0,.71-.41,1.53,1.53,0,0,0,.7-.5,3.85,3.85,0,0,0,.31-.43.92.92,0,0,0,.27.16,1.42,1.42,0,0,0,.65,0,2,2,0,0,0,1-.51,1.1,1.1,0,0,0,.31.2,1.35,1.35,0,0,0,.52.06,2.56,2.56,0,0,0,1-.24,5.62,5.62,0,0,0,1.42-.93,2.7,2.7,0,0,0,1.16.05,4.75,4.75,0,0,0,1.23-.38,6.12,6.12,0,0,0,1.64-1.12l.08.09a1.31,1.31,0,0,0,.27.21,1.46,1.46,0,0,0,.3.16,3.36,3.36,0,0,0,1.19.21,4.5,4.5,0,0,0,1.16-.15,3.39,3.39,0,0,0,.78-.3,1.76,1.76,0,0,0,.39.38,1.87,1.87,0,0,0,1.73.19,3,3,0,0,0,.58-.34,5.22,5.22,0,0,0,.54.38,2.1,2.1,0,0,0,.81.31,1.24,1.24,0,0,0,.43,0c-.31.21-.62.4-1,.58h0a31,31,0,0,1-3.95,1.19,8.44,8.44,0,0,0-1,.38,8.19,8.19,0,0,0-.9.54,14.73,14.73,0,0,1-1.85.8c-.63.25-1.27.48-1.92.7s-1.3.43-1.95.65-1.31.41-2,.58l-.88.23a19.72,19.72,0,0,0,1.79-1.37A6.63,6.63,0,0,0,47.92,55a8.35,8.35,0,0,1-1.81,1.55C45.46,57,44.78,57.38,44.09,57.78Z"/><path d="M60.25,57.09c.13.34.28.68.43,1a10.39,10.39,0,0,1-1.36.06c-.5,0-1-.06-1.51-.11-1-.11-2-.26-3-.41H54.7l-.09,0a10.45,10.45,0,0,1-1.72.4,9.72,9.72,0,0,1-1.79.08A16.07,16.07,0,0,1,49.29,58l-1.06-.17a30,30,0,0,0,3.34-1,13.5,13.5,0,0,0,1.94-.9,8.13,8.13,0,0,1,.84-.56,8.25,8.25,0,0,1,.9-.42A28.1,28.1,0,0,0,58,53.75l1,0h.46a7,7,0,0,0,.18,1.37A14.1,14.1,0,0,0,60.25,57.09Z"/><path d="M67.85,50.08a15.14,15.14,0,0,1-4.14,2.33,13.31,13.31,0,0,1-3.6.72l.53-.39a13.76,13.76,0,0,0,1.29-1.24,11.46,11.46,0,0,0,.81-1,4.57,4.57,0,0,0,1.84-.39,2.38,2.38,0,0,0,.89-.67,2.24,2.24,0,0,0,.41-.72,5.61,5.61,0,0,0,.71,0,5.44,5.44,0,0,0,1-.21,5.74,5.74,0,0,0,1.78-.9,7,7,0,0,0,1.71-1.9c-.1.25-.2.49-.31.73A9.12,9.12,0,0,1,67.85,50.08Z"/><path d="M63.81,59.64c-.5.18-1,.41-1.46.59-.34-.48-.65-1-1-1.49s-.63-1.15-.91-1.75a15.28,15.28,0,0,1-.7-1.85,8.47,8.47,0,0,1-.27-1.33A13,13,0,0,0,64,53.13a14.07,14.07,0,0,0,4.34-2.48,8.45,8.45,0,0,0,1.75-1.83,10.84,10.84,0,0,0,1-1.89,2.1,2.1,0,0,0,1.19,0,3.07,3.07,0,0,0,1.26-.82A7.72,7.72,0,0,0,75,43.61a15.07,15.07,0,0,0,.75-2.74A16.63,16.63,0,0,0,76,38.05c-.32.89-.58,1.79-.86,2.67s-.54,1.76-.88,2.61c-.16.42-.34.84-.54,1.24a6.78,6.78,0,0,1-.68,1.13,2.89,2.89,0,0,1-.95.86,2.12,2.12,0,0,1-1,.29c0-.09.08-.17.11-.26a13.53,13.53,0,0,0,.68-2.39,18.65,18.65,0,0,0,.31-2.45,23.87,23.87,0,0,1-.86,3.17,10.66,10.66,0,0,1-.86,1,7.55,7.55,0,0,1-1.43,1.17,5.67,5.67,0,0,1-1.65.69,4.46,4.46,0,0,1-1.73.11l-.33,0-.1.32a2.39,2.39,0,0,1-.37.73,2.86,2.86,0,0,1-.62.58c-.41.28-.91.51-1.4.8L63,50.1a4.25,4.25,0,0,0,.74-1.6,2.43,2.43,0,0,1-.39.77c-.17.24-.34.47-.53.69a12.93,12.93,0,0,1-1.19,1.26,12.64,12.64,0,0,1-1.33,1.09,1.47,1.47,0,0,1-.75,0,3.13,3.13,0,0,1-1.24-.87l-.12-.11-.16.1a2.09,2.09,0,0,1-.62.3,1.39,1.39,0,0,1-.64,0,1.19,1.19,0,0,1-.56-.25,1,1,0,0,1-.32-.46l-.14-.44-.39.28a2.18,2.18,0,0,1-.85.35,4,4,0,0,1-1,.09,2.29,2.29,0,0,1-.92-.17.7.7,0,0,1-.47-.48L52,49.91l-.5.61a5.25,5.25,0,0,1-1.75,1.34,4.38,4.38,0,0,1-1,.37,2.1,2.1,0,0,1-1,0l-.21-.07-.13.14a5.23,5.23,0,0,1-1.35,1,2.57,2.57,0,0,1-.76.27.92.92,0,0,1-.37,0,.62.62,0,0,1-.28-.17l-.16-.18-.12.18a1.78,1.78,0,0,1-.9.67,1.15,1.15,0,0,1-.58,0,.88.88,0,0,1-.27-.1l.12-.19a12.36,12.36,0,0,0,.66-1.38c.19-.47.36-.94.53-1.4a11.17,11.17,0,0,1,.58-1.38,4.63,4.63,0,0,0-1,1.17c-.27.43-.52.87-.75,1.31s-.46.87-.7,1.29a4.84,4.84,0,0,1-.38.58,1,1,0,0,1-.35.32l-.15,0-.06.07a1.49,1.49,0,0,1-.49.38,3.81,3.81,0,0,1-.67.24,6,6,0,0,1-.74.11h-.33c.11-.15.23-.29.34-.43.53-.74,1-1.49,1.49-2.27a19.14,19.14,0,0,0,1.24-2.43c-.62.68-1.19,1.38-1.74,2.09s-1.08,1.44-1.62,2.15a8.84,8.84,0,0,1-.81,1,2.45,2.45,0,0,1-.94.66,1.45,1.45,0,0,1-1.12-.13,2.76,2.76,0,0,1-.86-.51,16.92,16.92,0,0,0,1.39-1.42c.22-.26.43-.53.64-.8s.38-.53.59-.79c.82-1,1.69-2,2.55-3.06s1.71-2,2.57-3.08a29.44,29.44,0,0,0-3,2.67,36.83,36.83,0,0,0-2.72,3c-.2.26-.41.56-.6.82s-.38.52-.58.78c-.41.52-.85,1-1.29,1.49-.23.23-.46.46-.7.67a4.5,4.5,0,0,1-.37.28.37.37,0,0,1-.16.07H33a2.56,2.56,0,0,1-.87-.32,3.8,3.8,0,0,1-.74-.52c.55-.81,1.09-1.62,1.62-2.44-.87,1.2-1.78,2.36-2.68,3.53s-1.8,2.35-2.73,3.48a9.37,9.37,0,0,1-.73.8,1.28,1.28,0,0,1-.78.44,1.82,1.82,0,0,1-.86-.35L25,60.42a1.24,1.24,0,0,1-.18-.14.82.82,0,0,1-.24-.33,1.49,1.49,0,0,1,0-.88,9,9,0,0,1,.39-1c.07-.17.14-.36.21-.5a5.05,5.05,0,0,1,.25-.45,8.28,8.28,0,0,1,.61-.89c.86-1.16,1.81-2.3,2.71-3.48l.67-.89.33-.45.32-.39a13.9,13.9,0,0,1,1.66-1.37c1.19-.85,2.45-1.63,3.7-2.4.63-.38,1.26-.76,1.9-1.13l1-.56.47-.28.28-.19c.24-.17.43-.38.65-.57l.85-.77c.56-.49,1.13-1,1.7-1.45a2.71,2.71,0,0,0-.51.85,1.24,1.24,0,0,0-.09.58.6.6,0,0,0,.1.32.53.53,0,0,0,.33.21,1,1,0,0,0,.63-.16l.45-.28.88-.58c.59-.38,1.16-.78,1.74-1.17s1.15-.82,1.72-1.19c1.14-.76,2.34-1.48,3.53-2.19.35-.2.7-.41,1-.6a.86.86,0,0,0,.07.79,1.57,1.57,0,0,0,.74.63,3.84,3.84,0,0,0,1.89.24,7.24,7.24,0,0,0,.95-.14c.31-.07.62-.14.91-.23s.61-.19.9-.31l.58-.24a1.31,1.31,0,0,0,.4.31,1.67,1.67,0,0,0,.75.12,3.4,3.4,0,0,0,1.26-.34,8.13,8.13,0,0,0,1.08-.61q.44-.3.84-.63a6.4,6.4,0,0,0,2.36-.25,12.65,12.65,0,0,1,2.34-.37,8.18,8.18,0,0,0,2.43-.54,19.38,19.38,0,0,1,2.29-.79,13.8,13.8,0,0,0-2.39.45,8.57,8.57,0,0,1-2.34.32,10.73,10.73,0,0,0-2.47.24,6,6,0,0,1-2.23.17l-.19,0L62.1,37a10.41,10.41,0,0,1-1.88,1.25,3,3,0,0,1-1,.29c-.32,0-.56-.06-.65-.26l-.13-.34-.34.16-.82.38-.84.34-.85.28c-.29.06-.58.17-.87.2a3.78,3.78,0,0,1-1.74,0,1.42,1.42,0,0,1-.72-.46.83.83,0,0,1-.16-.72l.73-.41a9.82,9.82,0,0,1,1.89-.88,7,7,0,0,0-2,.53c-.65.25-1.3.54-1.93.85a33.29,33.29,0,0,0-3.68,2.07c-1.17.82-2.27,1.65-3.37,2.51l-.83.66-.4.33a.69.69,0,0,1-.34.16c-.08,0-.15-.07-.19-.21a1.24,1.24,0,0,1,0-.47,3.44,3.44,0,0,1,.34-.94h0q.87-.75,1.77-1.47a19,19,0,0,1,1.82-1.35l0,0,0,0a9.75,9.75,0,0,1,2.17-1.64q1.2-.7,2.46-1.29a50.65,50.65,0,0,1,5.13-2.1h0l0,0a19.93,19.93,0,0,1,3.09-1.24c1.06-.35,2.15-.64,3.24-.9s2.19-.49,3.29-.66a16.84,16.84,0,0,1,3.3-.24,11.18,11.18,0,0,1,3.19.73,21.13,21.13,0,0,1,3,1.39,21.66,21.66,0,0,1,2.8,1.82c.43.33.84.73,1.31,1.08a7.88,7.88,0,0,0,.73.51,4.13,4.13,0,0,0,.42.22l.26.08a.47.47,0,0,0,.17,0h.12l.08,0,0,0,.09,0a.83.83,0,0,0,.28-.31,1.06,1.06,0,0,0,.11-.38,2.25,2.25,0,0,0-.06-.61,7.47,7.47,0,0,0-.33-1c-.26-.64-.54-1.25-.8-1.86s-.54-1.22-.76-1.84a19,19,0,0,1-.55-1.9,10.82,10.82,0,0,1-.37-3.86A5.85,5.85,0,0,1,79,23.48a6.87,6.87,0,0,1,1-1.61,7.31,7.31,0,0,1,1.46-1.25l.85-.51a3.32,3.32,0,0,1,.41-.22l.43-.13a5.51,5.51,0,0,1,1.9,0,5.41,5.41,0,0,1,1.81.63,3.46,3.46,0,0,1,1.08,1,3.73,3.73,0,0,0-2.41.6,4,4,0,0,0-1,1A3.79,3.79,0,0,0,84,24.34a4,4,0,0,1-.18.61.78.78,0,0,1-.12.19l-.06,0-.07,0-.1.06a1.5,1.5,0,0,0-.54.72,2.5,2.5,0,0,0-.15.78A7.32,7.32,0,0,0,83.1,29L83,28.91a7.91,7.91,0,0,1-1.2-.81,2.69,2.69,0,0,0,.85,1.3,4.19,4.19,0,0,0,.63.48,4.53,4.53,0,0,1,.52.4c.65.59,1.24,1.32,2,2a1.62,1.62,0,0,0,.25.53l.45.67.91,1.32c.23.34.47.67.7,1a13.28,13.28,0,0,1-.87,3.87A7,7,0,0,1,86,41.53l-.17.2-.2.18a5.31,5.31,0,0,1-.42.38,5.77,5.77,0,0,0-.78.86,16.59,16.59,0,0,0-1.18,2,3.16,3.16,0,0,1-.66.79,2.55,2.55,0,0,1-.41.3,1.55,1.55,0,0,1-.22.12l-.25.13a31.72,31.72,0,0,1-4,1.88,8,8,0,0,1-1,.3l-.51.08a3.22,3.22,0,0,0-.62.11,2.89,2.89,0,0,0-.6.24l-.49.28-1,.56c-1.31.74-2.59,1.53-3.86,2.34-.63.4-1.26.82-1.88,1.26-.31.22-.62.45-.92.69a3.19,3.19,0,0,0-.82,1,5.77,5.77,0,0,0-.51,2.33c0,.38,0,.76,0,1.13a6.66,6.66,0,0,1-.06.79,2.56,2.56,0,0,0-.68,0A6.47,6.47,0,0,0,63.81,59.64Z"/><path d="M90,25.26a8.21,8.21,0,0,0-.81-1.79c-.33-.58-.69-1.15-1-1.75,0-.09-.1-.16-.15-.24a3.57,3.57,0,0,0-2.27.78,3.4,3.4,0,0,0-.86,1,3.2,3.2,0,0,0-.35,1.23,4.24,4.24,0,0,1-.14.73,1.5,1.5,0,0,1-.21.42,1.84,1.84,0,0,1-.2.19l-.06,0h0l0,0a1.6,1.6,0,0,0-.36,1c-.1.71,0,1.5-.12,2.3a1,1,0,0,0,.18.09,3,3,0,0,1,.68.47,5.11,5.11,0,0,1,1,1.22,5.28,5.28,0,0,1,.36.76,2.44,2.44,0,0,0,.17-.8,7.75,7.75,0,0,1,.1-.93,4.58,4.58,0,0,1,.25-.93,2.78,2.78,0,0,1,.57-.88,4.13,4.13,0,0,1,1.65-1A3.12,3.12,0,0,1,90.1,27,4,4,0,0,0,90,25.26Zm-3.38.16a.85.85,0,0,1-1.57-.52.75.75,0,0,1,1-.37A.77.77,0,0,1,86.63,25.42Z"/><path d="M90.13,27.83c.06.31.13.61.21.91.15.59.32,1.19.49,1.78.35,1.18.72,2.35,1.09,3.52l.54,1.75c.18.58.33,1.18.53,1.78.41,1.17.9,2.3,1.38,3.43A56.06,56.06,0,0,1,97,47.82a14.77,14.77,0,0,1,.61,3.52,6.84,6.84,0,0,1-.23,2.12s0,0,0-.05a12.2,12.2,0,0,0-.09-1.81,22.08,22.08,0,0,0-.68-3.21,40.39,40.39,0,0,0-2.36-6.11c-.93-2-2-3.89-3.07-5.76-.57-.94-1.13-1.87-1.72-2.78s-1.2-1.81-1.82-2.71c1,1.91,2.13,3.79,3.15,5.71s2,3.83,2.94,5.79a56.81,56.81,0,0,1,2.46,6A22,22,0,0,1,97,51.65c.06.3.11.61.15.91-.09-.31-.19-.63-.29-.94-.35-1-.75-2-1.15-3l-.6-1.49c-.22-.52-.47-1-.72-1.48-.52-1-1-1.89-1.6-2.82-1.08-1.85-2.17-3.71-3.36-5.52l-1.71-2.73c-.29-.46-.58-.9-.89-1.35l-.47-.66a1.34,1.34,0,0,0-.64-.49,3,3,0,0,0-.11-.32,1.63,1.63,0,0,0,.54-.75c.12-.29.22-.58.32-.86s.21-.55.33-.8a2.92,2.92,0,0,1,.45-.63,6,6,0,0,1,1.34-1A5.13,5.13,0,0,1,90.07,27a.58.58,0,0,0,0,.34C90.07,27.53,90.09,27.68,90.13,27.83Z"/><path d="M103.5,99v.08l0,.05a.23.23,0,0,1-.14.13.21.21,0,0,1-.11,0l-.25,0-.5-.12c-.67-.2-1.34-.42-2-.67-1.33-.49-4.12-1.78-4.44-1.47s1.43,1.49,2.06,2c.31.26.62.52.9.79l.41.42c.08.1.08.1.08.12a.06.06,0,0,1,0,.07c-.08.12,0,.16-.47,0a10.84,10.84,0,0,1-1-.6,22.23,22.23,0,0,0-2.34-1.49l-1.28-.66a1.31,1.31,0,0,0,.13,1A9.75,9.75,0,0,0,95.61,100c0,.08,0,.06,0,.08v0s0,0-.07,0h0l-.08,0c-.1,0-.2-.07-.3-.12a5.32,5.32,0,0,1-2-1.55,3.53,3.53,0,0,1-.58-1.1A3.8,3.8,0,0,0,91.83,96a19.5,19.5,0,0,0-2.73-2.28l.44,3.15a.65.65,0,0,1-.49.73c-.42.11-.65.36-.91.24s-.32-4.43-.4-5.06l0-.09-.06-.05a10.22,10.22,0,0,0-1.17-.88c-.39-.27-18.57-10.51-18.57-10.51l-1.26-.65L66,80.23a.83.83,0,0,1-.37-.37.85.85,0,0,1-.1-.53c0-.24,0-.48,0-.73,0-.48,0-1,0-1.43-.08-1.92-.26-3.81-.43-5.71-.09-.93-.17-1.9-.31-2.84s-.29-1.89-.47-2.83S64,63.92,63.76,63c-.12-.46-.24-.93-.38-1.38-.08-.23-.14-.46-.23-.69L63,60.59a.2.2,0,0,0,0-.08l1-.36a5.93,5.93,0,0,1,.81-.19,2,2,0,0,1,.42,0c0,.2,0,.4.05.6l.12,1.07.26,2.14L66.2,68c.2,1.42.39,2.84.62,4.26l.35,2.12c.13.71.25,1.42.45,2.13a6.71,6.71,0,0,0,.94,2,7.25,7.25,0,0,0,1.59,1.54c1.17.86,11.11,6.56,11.11,6.56,2.5,1.38,5,2.75,7.46,4.21l.9.57c.13.11.26.19.4.3l.42.35c.57.45,1.15.88,1.75,1.29s1.19.8,1.8,1.19,1.19.78,1.84,1.14a38.63,38.63,0,0,0,4,1.75l2,.74,1,.35.51.17a.2.2,0,0,1,.14.14A.42.42,0,0,1,103.5,99Z"/></svg>