<?xml version="1.0" encoding="utf-8"?>
<!-- Generator: Adobe Illustrator 23.0.0, SVG Export Plug-In . SVG Version: 6.00 Build 0)  -->
<svg version="1.1" id="Layer_1" xmlns="http://www.w3.org/2000/svg" xmlns:xlink="http://www.w3.org/1999/xlink" x="0px" y="0px"
	 viewBox="0 0 32 32" style="enable-background:new 0 0 32 32;" xml:space="preserve">
<style type="text/css">
	.st0{fill:#41647D;}
	.st1{fill:#5E8EAD;}
</style>
<g>
	<path class="st0" d="M12,15.3c0.6,2.1,2.2,3.6,4,3.6c1.8,0,3.3-1.5,4-3.6c0.4-0.2,0.8-0.6,0.9-1.2c0.3-0.8,0-1.6-0.5-2
		c0.1-0.3,0.2-0.7,0.2-1.1c0-1.5-0.8-2.6-1.8-2.6c-0.1,0-0.3,0-0.4,0.1c0,0-0.1-0.1-0.1-0.1c-0.1-0.3-0.3-0.5-0.5-0.7
		c-1.1-1.1-3.2-0.9-4.7,0.4c-1.2,1.1-1.7,2.6-1.3,3.7c0,0.1,0,0.1,0,0.2c0,0,0,0,0,0c-0.7,0.2-1,1.2-0.7,2.1
		C11.3,14.7,11.6,15.1,12,15.3z"/>
	<path class="st1" d="M10.3,10.8C10.3,10.8,10.3,10.8,10.3,10.8c0-0.1,0-0.1,0-0.2c-0.4-1,0-2.4,1.2-3.4c0-1.1-0.3-2.3-1.3-2.4
		c-0.1-0.8-1.1-1.1-2.1-1.1c-2.5,0-3.6,1.7-3.4,3.8c0,0,0,0,0,0C4,7.7,3.8,8.5,4,9.2c0.1,0.5,0.4,0.8,0.8,1c0.5,1.8,1.8,3,3.3,3
		c0.6,0,1.1-0.2,1.6-0.5C9.4,11.9,9.7,11,10.3,10.8z"/>
	<path class="st1" d="M32,18.9l-1.1-3.3c-0.2-0.7-0.8-1.2-1.5-1.4l-1.4-0.5c-0.1,0-0.3,0-0.3,0.1c-0.2,0.6-1.1,2.5-3,2.5
		c-1.3,0-2.4-0.9-2.9-1.7c-0.3,0.9-0.7,2-1.9,3.1c1.1,0,1.5,0.1,3,0.5c1.5,0.4,2.8,1.3,3.4,2.7c2.9-0.2,4.6-0.9,5.4-1.3
		C31.9,19.6,32.1,19.2,32,18.9z"/>
	<path class="st1" d="M0,18.9l1.1-3.3c0.2-0.7,0.8-1.2,1.5-1.4l1.7-0.5c0.1,0,0.2,0,0.3,0.1c0.3,0.4,1.7,2.1,2.6,3
		c0.3,0.3,0.8,0.3,1.1,0c0.6-0.7,1.6-1.7,2-2.2c0.3,0.9,0.7,2,1.9,3.1c-1.1,0-1.5,0.1-3,0.5c-1.5,0.4-2.8,1.3-3.4,2.7
		c-2.9-0.2-4.6-0.9-5.4-1.3C0.1,19.6-0.1,19.2,0,18.9z"/>
	<path class="st1" d="M28.3,10.5c-0.2-0.4-0.1-1.4,0-1.9c0.2-0.9,0.2-2-0.4-2.8c0-2.1-3.2-2.1-3.2-2.1c0,0-2.7-0.2-3.3,2.6
		c-0.2,0.5-0.2,0.9-0.2,1.4c0.5,0.5,0.8,1.3,0.8,2.2c0,0.3,0,0.6-0.1,0.9c0,0.1,0.1,0.2,0.1,0.3c0.1,0.1,0.2,0.2,0.3,0.4
		c0.6,0.9,1.6,1.5,2.6,1.5c0.8,0,1.5-0.3,2-0.8c0.2,0.3,0.6,0.7,1.2,0.7c1.4,0,1.5-1.6,1.5-1.6S28.7,11.7,28.3,10.5z"/>
	<path class="st0" d="M26.1,25.5l-1-3c-0.5-1.6-1.8-2.7-3.5-3.1L19.5,19c-0.2,0-0.5,0.1-0.6,0.3C18.4,20.5,16.9,24,16,24
		c-0.9,0-2.4-3.5-2.9-4.6C13,19.1,12.7,19,12.5,19l-2.1,0.4c-1.6,0.3-2.9,1.5-3.5,3l-1,3c-0.1,0.4,0.1,0.9,0.5,1.1
		c1.3,0.6,4.4,1.7,9.7,1.7c5.3,0,8.4-1.1,9.6-1.7C26.1,26.3,26.3,25.9,26.1,25.5z"/>
</g>
</svg>
