<svg xmlns="http://www.w3.org/2000/svg" viewBox="0 0 25.6 40"><path d="M25.1,19.7l-.5-.2a2.5,2.5,0,0,1-1.5-.8l-.8-.5s.1-.4-.7-.7-.2-.2-1.4-.3H19s-.7,0-.9-.4a3.3,3.3,0,0,1-.6-1.9,2.6,2.6,0,0,1,.7-1.8l.9-1.4a2.5,2.5,0,0,0,.6-1.7C19.6,3.3,17.2.3,17.2.3s-.3.2-.3.2a56.5,56.5,0,0,1-.1,6.1,4.5,4.5,0,0,1-1.3,2.8,11.4,11.4,0,0,0-1.8,3.2,7.4,7.4,0,0,0-.4,1.4,7.2,7.2,0,0,1-.9,2l-.7,1.3-1.2.4-1,.4-1.1.5-.9.2A2.2,2.2,0,0,0,6,19l-.4.2-.2.3-.3.3c-.4.5.1.9.6,1.1A3.7,3.7,0,0,0,7,20.7a23.9,23.9,0,0,0,3.8.7,13.7,13.7,0,0,0-.8,8.5,4.8,4.8,0,0,1,0,3.4,53.2,53.2,0,0,1-2.7,6.2s-.7.9.3.3,3.8-1.9,6.9-8.5a2.7,2.7,0,0,0,.1-1.9l-.3-2a12.2,12.2,0,0,1,0-2.7,6.4,6.4,0,0,1,.6-1.8c.2-.5.4-1.2.9-1.4l1.4-.3,1.9-.5a10.4,10.4,0,0,0,1.6-.6c.2-.1.5-.4.8-.4a3.1,3.1,0,0,1,1.1.2l1.6.4.7.2.3.2h.1a.7.7,0,0,0,.3-.4A.6.6,0,0,0,25.1,19.7Z"/><path d="M8.1,12.7v-4H4.2v1.5H6v1.7c-.3.4-.8.5-1.6.5a1.8,1.8,0,0,1-1.7-.8,3.7,3.7,0,0,1-.6-2.3V8.6a4.6,4.6,0,0,1,.5-2.3,1.9,1.9,0,0,1,1.6-.8,2.5,2.5,0,0,1,1.3.4,2.3,2.3,0,0,1,.6,1.3h2A4.5,4.5,0,0,0,6.9,4.7a4.7,4.7,0,0,0-2.8-.8,4.3,4.3,0,0,0-2.2.6A3.6,3.6,0,0,0,.5,6.1,7.1,7.1,0,0,0,0,8.7v.7a6.6,6.6,0,0,0,.5,2.5A4.6,4.6,0,0,0,2,13.5a4.4,4.4,0,0,0,2.3.6,7.8,7.8,0,0,0,2.2-.4A4.9,4.9,0,0,0,8.1,12.7Z"/></svg>
