<svg xmlns="http://www.w3.org/2000/svg" viewBox="0 0 24.3 40"><path d="M23.9,19.7l-.6-.2a2.5,2.5,0,0,1-1.5-.8l-.7-.5s.1-.4-.7-.7a3.8,3.8,0,0,0-1.5-.3H17.7a1.2,1.2,0,0,1-.9-.4,6,6,0,0,1-.6-1.9,4,4,0,0,1,.7-1.8l.9-1.4a3,3,0,0,0,.7-1.7C18.4,3.3,16,.3,16,.3s-.4.2-.4.2-.1,6.1-.1,6.1a4.5,4.5,0,0,1-1.3,2.8,20.2,20.2,0,0,0-1.8,3.2c-.1.5-.3.9-.4,1.4a7,7,0,0,1-.8,2l-.8,1.3-1.2.4-1,.4-1.1.5-.8.2a2.2,2.2,0,0,0-1.5.2.5.5,0,0,0-.4.2l-.3.3-.3.3c-.3.5.2.9.6,1.1s1.1,0,1.3-.2a23.9,23.9,0,0,0,3.8.7,13.2,13.2,0,0,0-.7,8.5,5.6,5.6,0,0,1,0,3.4s-2,5.3-2.8,6.2-.6.9.3.3,3.8-1.9,6.9-8.5a3,3,0,0,0,.2-1.9,6.9,6.9,0,0,1-.3-2,8.2,8.2,0,0,1,0-2.7,12.1,12.1,0,0,1,.5-1.8c.2-.5.5-1.2.9-1.4l1.5-.3,1.8-.5a7.6,7.6,0,0,0,1.6-.6c.2-.1.6-.4.8-.4a3.1,3.1,0,0,1,1.1.2l1.6.4a1.4,1.4,0,0,1,.7.2l.4.2h0a.4.4,0,0,0,.3-.4A.6.6,0,0,0,23.9,19.7Z"/><path d="M6.6,13.3a2.5,2.5,0,0,0,1-2,2.6,2.6,0,0,0-.8-1.9A5.8,5.8,0,0,0,4.3,8.1L2.8,7.5a1,1,0,0,1-.5-.8c0-.4.2-.6.5-.9a1.6,1.6,0,0,1,1.1-.3,2.1,2.1,0,0,1,1.2.4A1.4,1.4,0,0,1,5.5,7H7.6a2.8,2.8,0,0,0-.5-1.6A2.4,2.4,0,0,0,5.8,4.3a3.6,3.6,0,0,0-1.9-.4,3.4,3.4,0,0,0-1.8.4,2.5,2.5,0,0,0-1.3.9A2.7,2.7,0,0,0,.3,6.7,2.8,2.8,0,0,0,2,9.1l1.7.7a3.8,3.8,0,0,1,1.4.6,1,1,0,0,1,.4.9c0,.4-.1.7-.4.8a1.6,1.6,0,0,1-1.1.3c-1.3,0-2-.5-2-1.6H0a3.4,3.4,0,0,0,.5,1.7,2.6,2.6,0,0,0,1.4,1.1,4.6,4.6,0,0,0,2.1.5A4,4,0,0,0,6.6,13.3Z"/></svg>
