<svg xmlns="http://www.w3.org/2000/svg" viewBox="0 0 35.3 40"><path d="M34.9,19.7l-.6-.2a2.5,2.5,0,0,1-1.5-.8l-.7-.5s.1-.4-.7-.7a3.8,3.8,0,0,0-1.5-.3H28.8a1.4,1.4,0,0,1-1-.4,6,6,0,0,1-.6-1.9,4,4,0,0,1,.7-1.8l.9-1.4a3,3,0,0,0,.7-1.7C29.4,3.3,27,.3,27,.3s-.4.2-.4.2-.1,6.1-.1,6.1a4.5,4.5,0,0,1-1.3,2.8,14.1,14.1,0,0,0-1.7,3.2A7.8,7.8,0,0,0,23,14a7,7,0,0,1-.8,2l-.8,1.3-1.2.4-1,.4-1.1.5-.8.2a2.2,2.2,0,0,0-1.5.2.5.5,0,0,0-.4.2l-.3.3-.3.3c-.3.5.2.9.6,1.1s1.1,0,1.3-.2a23.9,23.9,0,0,0,3.8.7,13.2,13.2,0,0,0-.7,8.5,4.8,4.8,0,0,1,0,3.4s-2,5.3-2.8,6.2-.6.9.3.3,3.8-1.9,6.9-8.5a3,3,0,0,0,.2-1.9,13.8,13.8,0,0,1-.3-2,8.2,8.2,0,0,1,0-2.7,12.1,12.1,0,0,1,.5-1.8c.2-.5.5-1.2.9-1.4l1.5-.3,1.8-.5a7.6,7.6,0,0,0,1.6-.6,2.5,2.5,0,0,1,.9-.4,2.7,2.7,0,0,1,1,.2l1.6.4.8.2.3.2h0a.4.4,0,0,0,.3-.4A.6.6,0,0,0,34.9,19.7Z"/><polygon points="6 10.6 2 4 0 4 0 13.9 2 13.9 2 7.4 6 13.9 8 13.9 8 4 6 4 6 10.6"/><path d="M17.5,13.9h0l-2.1-4a3.5,3.5,0,0,0,1.3-1.1A2.9,2.9,0,0,0,17.1,7a2.8,2.8,0,0,0-.9-2.2A4.6,4.6,0,0,0,13.5,4H9.8v9.9h2V10.3h1.7l1.8,3.6ZM14.7,8.3a2.1,2.1,0,0,1-1.2.4H11.8v-3h1.7a1.6,1.6,0,0,1,1.2.4,1.4,1.4,0,0,1,.4,1.1A2.1,2.1,0,0,1,14.7,8.3Z"/></svg>
