<svg xmlns="http://www.w3.org/2000/svg" viewBox="0 0 26.7 40"><path d="M26.3,19.7l-.6-.2a2.5,2.5,0,0,1-1.5-.8l-.7-.5s.1-.4-.8-.7-.2-.2-1.4-.3H20.1s-.7,0-.9-.4a6,6,0,0,1-.6-1.9,4,4,0,0,1,.7-1.8l.9-1.4a2.5,2.5,0,0,0,.6-1.7c0-6.6-2.5-9.6-2.5-9.6s-.3.2-.3.2-.1,6.1-.1,6.1a4.5,4.5,0,0,1-1.3,2.8,20.2,20.2,0,0,0-1.8,3.2c-.1.5-.3.9-.4,1.4a11.9,11.9,0,0,1-.8,2l-.8,1.3-1.2.4-1,.4-1.1.5-.8.2a2.2,2.2,0,0,0-1.5.2.5.5,0,0,0-.4.2l-.3.3-.3.3c-.3.5.2.9.6,1.1s1.1,0,1.3-.2a23.9,23.9,0,0,0,3.8.7,13.2,13.2,0,0,0-.7,8.5,5.6,5.6,0,0,1,0,3.4,56.9,56.9,0,0,1-2.8,6.2s-.6.9.3.3,3.8-1.9,6.9-8.5a2.7,2.7,0,0,0,.1-1.9,13.6,13.6,0,0,1-.2-2,12.2,12.2,0,0,1-.1-2.7l.6-1.8c.2-.5.5-1.2.9-1.4l1.5-.3,1.8-.5a10.4,10.4,0,0,0,1.6-.6c.2-.1.6-.4.8-.4a3.1,3.1,0,0,1,1.1.2l1.6.4.7.2.4.2h0a.4.4,0,0,0,.3-.4A.6.6,0,0,0,26.3,19.7Z"/><path d="M7.1,13.9H9.3L5.6,4H3.7L0,13.9H2.2l.6-2H6.4ZM3.4,10.2,4.6,6.5l1.3,3.7Z"/></svg>
