<svg xmlns="http://www.w3.org/2000/svg" viewBox="0 0 40 23.39"><defs><style>.b2554e41-7a02-4996-b30c-85f75f40a0d9{fill-rule:evenodd;}</style></defs><g id="b9bdf5f2-7b7c-4c06-aaa4-26fff6323227" data-name="Layer 2"><g id="b87ec5a7-333a-41f8-80e3-745d2052c2c2" data-name="Icons"><path class="b2554e41-7a02-4996-b30c-85f75f40a0d9" d="M10.19,8.1c-.68.29-1.47.29-2.45.69,0-.74,1-1,1.75-1.24S11,7,11.74,6.7C16.93,5,16.15.94,13.72.2,13,0,9-.21,8.3.51c1,.63,3.93-.07,5.43,1.56,0,.32-.08.13-.19.36s.05.52-.14,1c-.26-.14-.23-.34-.6-.44-.43.47-.27.38-.54.92-1.17.2-.59-.11-1.24-.51-.29.27-.51.6-.73.84-.3-.13-.16-.27-.46-.48-1.06.74-.74.15-1.26.67s-.43.62-1.28.59-.61.43-1.24.83a2.92,2.92,0,0,1-1.81.16l0,.09c-.7,1.19-1.25.31-1.89.87-.43.38.24.32-.58.6-.35.13-.67.23-1,.34l.16.83C0,9.55-.32,9.65.38,10.35c-.55,1.27,0,1.57.24,2.48.13.47-.49,1.64-.6,2.26A4,4,0,0,0,.66,17.3L2,18.91c.38-.45,0-.24.62-.67l.93.57c.21-.27-.06.09.15-.29l0-.09.15-.25a1.65,1.65,0,0,0,.83.29c.26-.24,0,0,.14-.25l.37-.41s0,0,.07,0c-.45-.92-.2-.58-1-1.11-1.17-.75-1.09-.86-.92-1.42,3.27,1.49,1.48,2.07,8,3.42.29,1,.1,1,.8,1.69s.95.53,1.19,1.28a1.44,1.44,0,0,0-.78.55l.63.06-.35.53,1.6-.32c.23.68.19.58.64.95l0-.07.33-.56a2.41,2.41,0,0,0,.92.34l-.06-.9,1.05.34a1.76,1.76,0,0,0-.73-1.21l-.23-1.62a10.49,10.49,0,0,1,2.32.22c.53.16.42.23,1,.09.81-.2.37,0,1,.1l1.86-.18c.73,0,1.1.63,1.69.94.24-.35.07-.32.47-.53.61.2.68.45,1.57.5L26.1,20c.36-.12.31,0,.74,0l-.3-.65a8.26,8.26,0,0,0,1.63-.88l.36-.35a6.27,6.27,0,0,1,2.92,0,7.42,7.42,0,0,0,1.7.34,31.83,31.83,0,0,0,6.12-.32C40,17.9,40,17.74,40,17l-.87-.1L39,16.07c-.6.25-.17.33-.57.48s-1.12-.18-2-.07A1.25,1.25,0,0,0,36,15.8c-.32-.35-.13-.06-.62-.42l-.13-.12c-.55.48-.08.25-.46.14l-.06,0h-.22a4.34,4.34,0,0,1-1.68-.18c-1.18-.48-1.69-.81-1.58-2.16a1.33,1.33,0,0,0,1-.37,2,2,0,0,1,.76-.56c1.56-.61,1.34.05,1.61.43.19-.19.14-.1.28-.44.07-.17.1-.33.17-.51.29-.08.1.08.55-.14.27-.14.25.09.37-.39.33.27.16.3.54.51l.15-.77c.36.19.27.08.79-.53l.48.26.17-.46c.22-.42.35-.11.78.09a.37.37,0,0,0,0-.09A.19.19,0,0,0,39,10c.16-.76.7-.61.62-1.12s-1.84-1.16-3,0-1.5.67-3,1.19c-1.68.58-2-.49-3.5-.17-2.05.43-2.67.16-3,1.11-1,.09-1.2.18-1.68.77-.49-.21-.39-.36-1.05-.27-.88.11-.14,0-.86-.14-.52.28-.15.33-.67.33-.33,0-.31-.12-.82,0s-.86.41-1.36.54c-.48-.49-.56-1.05-1.67-1-.48-.76-.09-.4-1-.77s-.24-.41-1.45-.38c-.1-.35-.13-.57-.47-.68s-.26,0-.52-.07l-.19-.05-.17-.08a8.4,8.4,0,0,1-2-.61c-.78-.36-.62-.09-1.28-.2a1.7,1.7,0,0,0-.95,0c-.89.1-.15.07-.8-.25Z"/></g></g></svg>
