<svg xmlns="http://www.w3.org/2000/svg" viewBox="0 0 35.4 40"><path d="M4.4,6.4a.9.9,0,0,0-.1-1,1.4,1.4,0,0,0-.8-.8l-.8-.2a4.2,4.2,0,0,1-1.6-.5A2.4,2.4,0,0,1,0,2.4,3.1,3.1,0,0,1,1.2.1s.3-.1.2.3S.7,1.4.9,2A1.6,1.6,0,0,0,2.7,3.1a9.9,9.9,0,0,1,1.8,0s.5,0,1.1.9.4.4.4.7.2.2.3,0A3.6,3.6,0,0,1,7,3.8a2.2,2.2,0,0,1,1.6-.7,8.4,8.4,0,0,0,1.6,0,2.1,2.1,0,0,0,1.3-1.3A5.8,5.8,0,0,0,11.7.4s-.1-.8.2-.1a6.4,6.4,0,0,1,.4,1,2.4,2.4,0,0,1,0,1.3,2.5,2.5,0,0,1-1.1,1.3,3,3,0,0,1-1.4.4,1.8,1.8,0,0,0-1,.4s-.8.4-.9,1a1.7,1.7,0,0,0,.4,1.2s.1.1.2-.2.1-.5.4-.6a5.5,5.5,0,0,0,1.3-.5c.4-.3.8-.3.8-.2a2.3,2.3,0,0,1-.2,1.1,4.2,4.2,0,0,1-.7,1.3l-.8.5a1.4,1.4,0,0,1-.8.8,7,7,0,0,0,1.1,1.7,6.8,6.8,0,0,0,2.2,1.4h1.9a13.6,13.6,0,0,1,2.9,0,13.2,13.2,0,0,1,2.9,1.5,3.2,3.2,0,0,0,1.3.2,65.8,65.8,0,0,1,7.5.1,10.3,10.3,0,0,1,3.4,1.5S33.9,17,34.2,18s.1.2-.1,1a11.3,11.3,0,0,0,.3,3.2,10.9,10.9,0,0,1,0,1.9.5.5,0,0,0,.1.5,8.7,8.7,0,0,1,.5,1.2,24.4,24.4,0,0,1,.1,2.9s-.6-2.2-1.1-2.5-.3-.1-.1.3a1.3,1.3,0,0,1,.4,1.2h0a2.5,2.5,0,0,0,.1,1.8,5.9,5.9,0,0,1,.5,1.3c.1.7.5.6.5.6s-.4.7-.7.7a2.1,2.1,0,0,1-1-1.6,17.2,17.2,0,0,1-.5-2.9,6.6,6.6,0,0,1,.3-2.4,11.6,11.6,0,0,0,.1-3.3c-.1-.9-.2-.4-.2-.3l-.7,2a5.5,5.5,0,0,0-.4,2.6,23.5,23.5,0,0,0,.7,2.3,1.8,1.8,0,0,1,.1.6s.8.3.5,1.4a66.1,66.1,0,0,0,0,8.9V40H31.9a7.8,7.8,0,0,0,.3-3.3l-.4.9V39H29.6v-.5l.5-.6.8-2.3s.7-3,.7-3.4a8.8,8.8,0,0,0-1-1.9s-1.9-2.5-2.4-3.4a17,17,0,0,1-1.5-2.1,2.9,2.9,0,0,1-2.3,1,21.5,21.5,0,0,1-4.8-.4,9.8,9.8,0,0,0-3.4-.2,33.3,33.3,0,0,0,.5,5.5,4,4,0,0,1,.1,1.8l.9,6.4-1.3.6-1,.2.2-.7.5-1.1-.3-3.5-.3,4.3-.4.6H13.9v-.6l.7-1.2V32.8a5.1,5.1,0,0,1-.6-3V27.9l-.8-2.5s-1.2.3-2.6-1.3a4.3,4.3,0,0,1-.8-1.8,36.2,36.2,0,0,0-2.2-2.9,6.6,6.6,0,0,1-1.8-2.9s-.6,0-.8-.2a2.2,2.2,0,0,1-.3-1.6l.2-.9a1,1,0,0,0-.1-.9,5.9,5.9,0,0,1-.6-3.1.7.7,0,0,0-.3-.7l-.5-.5a.7.7,0,0,0-.6-.3A3.5,3.5,0,0,1,1.5,7.2,2.6,2.6,0,0,1,.9,5.8s-.2-.2.3-.1l1.3.4a1.2,1.2,0,0,1,1.2.7s.2.4.5.4A4.5,4.5,0,0,1,4.4,6.4Z"/></svg>
