<svg xmlns="http://www.w3.org/2000/svg" viewBox="0 0 35.4 40"><path d="M31,6.4s-.4-.4.1-1a1.4,1.4,0,0,1,.7-.8l.9-.2a4.2,4.2,0,0,0,1.6-.5,2.4,2.4,0,0,0,1.1-1.5A3.6,3.6,0,0,0,34.2.1s-.3-.1-.2.3.7,1,.4,1.6a1.5,1.5,0,0,1-1.7,1.1,11.1,11.1,0,0,0-1.9,0s-.4,0-1,.9a2.5,2.5,0,0,0-.5.7s-.1.2-.2,0a3.6,3.6,0,0,0-.7-.9,2.2,2.2,0,0,0-1.6-.7,8.4,8.4,0,0,1-1.6,0,2.1,2.1,0,0,1-1.3-1.3A3,3,0,0,1,23.7.4s.1-.8-.3-.1l-.3,1a2.4,2.4,0,0,0,0,1.3,2.6,2.6,0,0,0,1,1.3,3.9,3.9,0,0,0,1.5.4,1.6,1.6,0,0,1,.9.4s.9.4,1,1a2.5,2.5,0,0,1-.4,1.2s-.2.1-.3-.2-.1-.5-.3-.6a4.3,4.3,0,0,1-1.3-.5c-.5-.3-.8-.3-.8-.2a4.5,4.5,0,0,0,.1,1.1,9.1,9.1,0,0,0,.8,1.3l.8.5a1.4,1.4,0,0,0,.7.8,5.5,5.5,0,0,1-1,1.7,6.5,6.5,0,0,1-2.3,1.4H21.7a13.7,13.7,0,0,0-2.9,0,13.3,13.3,0,0,0-3,1.5,2.9,2.9,0,0,1-1.2.2,65.8,65.8,0,0,0-7.5.1,9.4,9.4,0,0,0-3.4,1.5S1.4,17,1.1,18s0,.2.1,1a11.3,11.3,0,0,1-.3,3.2,10.9,10.9,0,0,0,0,1.9.5.5,0,0,1-.1.5,4,4,0,0,0-.4,1.2,21.9,21.9,0,0,0-.2,2.9s.7-2.2,1.2-2.5.2-.1.1.3a1.3,1.3,0,0,0-.4,1.2h0A3.2,3.2,0,0,1,1,29.5a5.3,5.3,0,0,0-.6,1.3c0,.7-.4.6-.4.6s.4.7.6.7.9-.7,1-1.6a16.2,16.2,0,0,0,.6-2.9,10.1,10.1,0,0,0-.3-2.4,16.2,16.2,0,0,1-.2-3.3c.1-.9.2-.4.2-.3l.8,2a5.5,5.5,0,0,1,.4,2.6,23.5,23.5,0,0,1-.7,2.3,1.8,1.8,0,0,0-.1.6,1.2,1.2,0,0,0-.6,1.4,52.9,52.9,0,0,1,0,8.9l.2.6H3.4a7,7,0,0,1-.2-3.3l.3.9V39H5.7v-.5L5.2,38l-.8-2.3s-.7-3-.7-3.4a7,7,0,0,1,.9-1.9s2-2.5,2.5-3.4a17,17,0,0,0,1.5-2.1,2.9,2.9,0,0,0,2.3,1,21.5,21.5,0,0,0,4.8-.4,9.6,9.6,0,0,1,3.4-.2,49.9,49.9,0,0,1-.5,5.5,4,4,0,0,0-.1,1.8L17.6,39l1.2.6,1.1.2-.2-.7L19.2,38l.3-3.5.3,4.3.4.6h1.3v-.6l-.7-1.2V32.8a6.2,6.2,0,0,0,.6-3V27.9l.8-2.5s1.2.3,2.6-1.3a5.4,5.4,0,0,0,.9-1.8,21.1,21.1,0,0,1,2.2-2.9,5.9,5.9,0,0,0,1.7-2.9,2,2,0,0,0,.9-.2,2.2,2.2,0,0,0,.3-1.6l-.3-.9a1.2,1.2,0,0,1,.2-.9,7.2,7.2,0,0,0,.6-3.1s-.2-.5.2-.7l.5-.5a1.1,1.1,0,0,1,.7-.3,3.5,3.5,0,0,0,1.2-1.1,2.6,2.6,0,0,0,.6-1.4s.2-.2-.3-.1l-1.4.4a1.1,1.1,0,0,0-1.1.7s-.3.4-.5.4A4.5,4.5,0,0,0,31,6.4Z"/></svg>
