<svg xmlns="http://www.w3.org/2000/svg" viewBox="0 0 40 38"><path d="M39.5,3.9a.8.8,0,0,0,.1-.4l.3-.9A1.6,1.6,0,0,0,39.2.8a1.7,1.7,0,0,1,0,1.9l-.7.4-.8.6c-.3.2-.5.6-.9.8a.9.9,0,0,1-1,.1c-.4-.3-.3-.9-.5-1.3s-.9-.6-1.1-1.1a3.4,3.4,0,0,1-.1-1A1.8,1.8,0,0,0,33.6,0a3.1,3.1,0,0,1-.4,2.3l-1,1.2a2.5,2.5,0,0,0-.6,1.4v.6c0,.6-.6,1-.8,1.5a3.4,3.4,0,0,0-.1,1A14.6,14.6,0,0,1,30,9.9a3.2,3.2,0,0,1-1.9,1.9l-.8.2a5.1,5.1,0,0,0-1.5.7c-3,.5-6.2-.7-9.3-.9a16.8,16.8,0,0,0-4.5.6,9.5,9.5,0,0,0-2.5,1.1c-1-.2-2.2.3-3.2-.3l-.6-.5A6.3,6.3,0,0,1,3.8,8.8,8.8,8.8,0,0,0,3.7,6a2.9,2.9,0,0,1-.3,1V6.5l-.5.8a6.3,6.3,0,0,0-1,3,5.2,5.2,0,0,0,.2,1.1,5.3,5.3,0,0,0,1.1,2.1l1,.7a8.1,8.1,0,0,0,2.1,1,2.9,2.9,0,0,0,1.3.1,10.3,10.3,0,0,0-1.7,4.5,12.9,12.9,0,0,1-.8,4,4.8,4.8,0,0,1-3.5,3,2.5,2.5,0,0,0-.9.4,1.6,1.6,0,0,0-.5,1,7.5,7.5,0,0,0-.1,2.6h0a10.9,10.9,0,0,0,.3,2.6,2.8,2.8,0,0,0,.3,1.3,3.5,3.5,0,0,0,.5.8l.6,1.1a1.4,1.4,0,0,0,.8.7h.5a11.3,11.3,0,0,0,3.2-.6h.1c.1,0,.1-.1,0-.2A2.3,2.3,0,0,0,6,35.3a1.4,1.4,0,0,0-1.2-.7c-.2,0-.4.1-.6,0a1,1,0,0,1-.4-.5,6,6,0,0,1-.1-3.5h.2l.8-.7A5.4,5.4,0,0,1,6.6,29a12.9,12.9,0,0,0,5.5-3.3A5.8,5.8,0,0,1,11,31.2a1,1,0,0,0-.4.7l.2.4a10.6,10.6,0,0,0,1.7,2h.1c.1,0,.1.1.2.2l2.3,2.2a2.6,2.6,0,0,0,1.6.9,11.3,11.3,0,0,0,1.8-.3h.2l1.5-.2h.3a.6.6,0,0,0,0-.6,3.9,3.9,0,0,0-.8-1.4h-.5c-.2.1-.3,0-.4-.1s-.3-.1-.9-.2a1.7,1.7,0,0,1-1.2-.6,5.5,5.5,0,0,1-1.6-1.8A8,8,0,0,1,16.6,28a5.7,5.7,0,0,0,1.1-1.6,1.4,1.4,0,0,0,.2-.6V26l.2-.3v.5l.8-.4v.4c.6-.3.9-.1,1.3-.5v.5c.2-.3.7-.2,1-.5V26a1,1,0,0,0,.7-.2c0,.2,0,.5-.2.6l.2.6-.3-.2c.8,1.2.7,2.7.7,4.2a13.7,13.7,0,0,0,1.6,6.3,1.5,1.5,0,0,0,.5.6h3.4l.7-.3c1.4-.7,3.2-.3,4.7-.7a3.5,3.5,0,0,0-.6-1.7l-.4-.3h-.7c-.5-.2-.6-.7-.6-1.2a18.1,18.1,0,0,1,.5-5.7,10.5,10.5,0,0,1,1.9-4,6.4,6.4,0,0,0,1-1.8,4.1,4.1,0,0,0,.1-2.2,4.1,4.1,0,0,0,.1-1.1c.1-1.2-.2-2.5.3-3.6l1-1.2.3.2h1.2c.4,0,.9,0,1-.4s0-.2.1-.2.5-.4.6-.8v-.3l.4-.4c.2-.2.1-.6,0-.8s-.3-.5-.4-.8a4.7,4.7,0,0,1,.2-2,3.4,3.4,0,0,0-.8-2.1c.5-.5.2-1.3.4-1.9S39.5,4.1,39.5,3.9Z"/></svg>
