<?xml version="1.0" encoding="utf-8"?>
<!-- Generator: Adobe Illustrator 27.1.1, SVG Export Plug-In . SVG Version: 6.00 Build 0)  -->
<svg version="1.1" id="Layer_1" xmlns="http://www.w3.org/2000/svg" xmlns:xlink="http://www.w3.org/1999/xlink" x="0px" y="0px"
	 viewBox="0 0 40 40" style="enable-background:new 0 0 40 40;" xml:space="preserve">
<path d="M2.96,14.36c-0.05-0.07-0.11-0.13-0.15-0.18c-0.33-0.37-0.32-0.93-0.35-1.42c-0.02-0.42-0.24-1.06-0.39-1.38
	c-0.13-0.28-0.22-1.17-0.17-1.34c0,0,0.74-0.24,1.1-0.02c0.56,0.35,0.99,0.86,1.08,0.86c0.09,0,0.58-0.11,1.1-0.15
	c0.47-0.04,1.06,0.06,1.14,0.02s0.35-0.69,0.69-0.86c0.36-0.18,1.24-0.34,1.3-0.13c0.15,0.54,0.06,1.4-0.02,1.75
	c-0.09,0.35-0.18,0.93-0.11,1.36c0.03,0.21,0.04,0.46-0.01,0.72c0.77,0.15,1.98,0.61,2.45,0.9c0,0,0.93,0.67,1.58,0.8
	c0.65,0.13,4.23,0.35,5.87,0.22c1.64-0.13,5.44-1.68,6.56-1.81c1.12-0.13,4.66-0.35,6.3,0.86c1.64,1.21,2.72,3.58,3.28,5.48
	c0.56,1.9,0.52,2.5,1.3,3.5s2.29,2.68,3.11,3.54s0.17,1.73-0.69,1.21s-1.71-1.63-2.57-2.61c-0.95-1.08-2.02-2.15-2.37-3.58
	c-0.43-1.73-1.32-2.66-1.53-2.7c-0.22-0.04-0.73,1.04-0.6,1.64c0.13,0.6,0.37,1.27,0.84,1.83c0.47,0.56,1.45,0.97,1.58,1.53
	s0.22,1.3,0.3,2.16c0.09,0.86,0.22,2.59,0.17,2.85c-0.04,0.26-1.34,0.65-1.86,0.52c-0.52-0.13-0.78-0.43-0.69-0.78
	s0.65-0.43,0.65-0.69c0-0.26-0.5-2.57-0.5-2.57s-0.15,1.53-0.15,1.83s0.13,0.86-0.09,1.04c-0.22,0.17-1.38,0.45-1.64,0.47
	c-0.28,0.02-0.94-0.06-0.97-0.45c-0.09-0.99,1.17-0.6,1.08-0.95c-0.09-0.35-0.26-1.99-0.91-2.5c-0.65-0.52-1.41-1.27-2.37-1.86
	c-1.21-0.73-2.09-0.84-2.91-1.27c-0.35-0.18-2.98,1.64-5.66,1.77s-4.36-0.17-4.97-0.09c-0.6,0.09-0.69,2.16-0.65,2.68
	c0.04,0.52,0,2.59,0,3.02s-0.15,0.67-0.5,0.71c-0.35,0.04-1.06,0.09-1.08-0.04c-0.04-0.39-0.13-0.47-0.13-0.47s0.15,0.67-0.28,0.71
	s-1.68,0.17-2.29,0.09c-0.6-0.09-0.67-0.15-0.76-0.41C7,29.9,7,29.42,7.34,29.25c0.31-0.15,0.6,0.04,0.86,0.04s0.28-2.57,0.32-3.73
	c0.04-1.17,0.09-2.68-0.35-3.19c-0.43-0.52-1.94-2.63-2.37-3.28c-0.43-0.65-0.69-1.47-0.78-1.73c-0.07-0.2-0.23-0.75-0.31-1
	c-0.28-0.15-0.52-0.35-0.64-0.47c-0.1-0.1-0.31-0.39-0.53-0.71L2.96,14.36z"/>
</svg>
