<?xml version="1.0" encoding="utf-8"?>
<!-- Generator: Adobe Illustrator 27.1.1, SVG Export Plug-In . SVG Version: 6.00 Build 0)  -->
<svg version="1.1" id="Layer_1" xmlns="http://www.w3.org/2000/svg" xmlns:xlink="http://www.w3.org/1999/xlink" x="0px" y="0px"
	 viewBox="0 0 40 40" style="enable-background:new 0 0 40 40;" xml:space="preserve">
<path d="M36.12,13.87c0.32-0.35,0.31-0.89,0.33-1.37c0.02-0.41,0.23-1.01,0.37-1.32c0.13-0.27,0.21-1.12,0.17-1.28
	c0,0-0.71-0.23-1.05-0.02c-0.54,0.33-0.95,0.83-1.03,0.83s-0.56-0.1-1.05-0.14c-0.45-0.04-1.01,0.06-1.1,0.02
	c-0.08-0.04-0.33-0.66-0.66-0.83c-0.34-0.17-1.19-0.32-1.24-0.12c-0.14,0.52-0.06,1.34,0.02,1.68c0.08,0.33,0.17,0.89,0.1,1.3
	c-0.03,0.2-0.03,0.44,0.01,0.69c-0.74,0.14-1.9,0.59-2.34,0.86c0,0-0.89,0.64-1.51,0.77s-4.05,0.33-5.63,0.21
	c-1.57-0.12-5.21-1.61-6.29-1.74c-1.08-0.12-4.47-0.33-6.04,0.83s-2.61,3.43-3.14,5.25s-0.5,2.4-1.24,3.35s-2.19,2.56-2.98,3.39
	s-0.17,1.65,0.66,1.16s1.64-1.56,2.46-2.5c0.91-1.03,1.93-2.06,2.28-3.43c0.41-1.65,1.26-2.54,1.47-2.59
	c0.21-0.04,0.7,0.99,0.58,1.57C9.13,21,8.9,21.64,8.45,22.18c-0.46,0.54-1.39,0.93-1.51,1.47c-0.12,0.54-0.21,1.24-0.29,2.07
	s-0.21,2.48-0.17,2.73c0.04,0.25,1.28,0.62,1.78,0.5s0.74-0.41,0.66-0.74c-0.08-0.33-0.62-0.41-0.62-0.66
	c0-0.25,0.48-2.46,0.48-2.46s0.14,1.47,0.14,1.76s-0.12,0.83,0.08,0.99c0.21,0.17,1.32,0.44,1.57,0.46c0.27,0.02,0.9-0.05,0.93-0.43
	c0.08-0.95-1.12-0.58-1.03-0.91c0.08-0.33,0.25-1.9,0.87-2.4s1.35-1.22,2.28-1.78c1.16-0.7,2.01-0.81,2.79-1.22
	c0.33-0.17,2.85,1.57,5.42,1.7s4.18-0.17,4.76-0.08c0.58,0.08,0.66,2.07,0.62,2.56c-0.04,0.5,0,2.48,0,2.9s0.14,0.64,0.48,0.68
	c0.33,0.04,1.02,0.09,1.03-0.04c0.04-0.37,0.12-0.46,0.12-0.46s-0.14,0.64,0.27,0.68s1.61,0.17,2.19,0.08
	c0.58-0.08,0.64-0.14,0.72-0.39c0.08-0.25,0.08-0.7-0.25-0.87c-0.3-0.15-0.58,0.04-0.83,0.04c-0.25,0-0.27-2.46-0.31-3.58
	c-0.04-1.12-0.08-2.56,0.33-3.06c0.41-0.5,1.86-2.52,2.28-3.14c0.41-0.62,0.66-1.41,0.74-1.65c0.06-0.19,0.22-0.72,0.29-0.95
	c0.27-0.15,0.5-0.34,0.62-0.45c0.1-0.1,0.29-0.38,0.51-0.68C35.41,14.82,36,14,36.12,13.87z"/>
</svg>
