<svg xmlns="http://www.w3.org/2000/svg" viewBox="0 0 40 39.6"><path d="M4.5,13.5a4,4,0,0,0,2.2.6A8.5,8.5,0,0,0,9,13.7a5.6,5.6,0,0,0,1.5-1v-4H6.6v1.5H8.5v1.7a2.2,2.2,0,0,1-1.7.5,1.9,1.9,0,0,1-1.7-.8,3.7,3.7,0,0,1-.6-2.3V8.6a3.7,3.7,0,0,1,.6-2.3,1.8,1.8,0,0,1,1.6-.8,2.1,2.1,0,0,1,1.2.4,2.3,2.3,0,0,1,.6,1.3h2A3.5,3.5,0,0,0,9.3,4.7a4.1,4.1,0,0,0-2.7-.8,3.8,3.8,0,0,0-2.2.6A3.6,3.6,0,0,0,3,6.1a5.5,5.5,0,0,0-.5,2.6v.7A5.1,5.1,0,0,0,3,11.9,3.3,3.3,0,0,0,4.5,13.5Z"/><path d="M14.2,10.4H16a3.8,3.8,0,0,0,2.7-.8,2.8,2.8,0,0,0,1-2.3,3.3,3.3,0,0,0-.4-1.7A3.7,3.7,0,0,0,18,4.4,6.5,6.5,0,0,0,16,4H12.2v9.9h2Zm0-4.7h1.9a1.4,1.4,0,0,1,1.1.5,1.3,1.3,0,0,1,.5,1.1,1.3,1.3,0,0,1-.5,1.1,1.5,1.5,0,0,1-1.2.4H14.2Z"/><path d="M34.2,9.7A27.3,27.3,0,0,0,39.1,5s1.7-2.7.4-5c0,0-1.4-.5-5,3.1L31.3,6.3a23.7,23.7,0,0,1-4.8,4.1,11.8,11.8,0,0,0-3.9,3.8,17,17,0,0,1-2.3,3.2l-2.9,1-2.3.9a8.7,8.7,0,0,1-1.7.7c-.7.1-1.3-.2-1.9,0s-1.2.9-1.9,1.2-1.3.3-1.8.7-.9,1.5-.3,1.8a9.4,9.4,0,0,0,1.9,0h1.3l.8.3a25.6,25.6,0,0,0-2,2.6A25.4,25.4,0,0,1,7.2,30L4.7,32.6C3,34.2,1,36,.2,38.2L0,39.6a27.6,27.6,0,0,0,4.7-2,20.6,20.6,0,0,0,4-2.5c2.1-1.6,3.7-3.8,5.6-5.7a9.4,9.4,0,0,0,1-1c.2-.2.5-.9.8-1s2.2-2.6,2.8-2.7a90.8,90.8,0,0,0,10.4-.4,9,9,0,0,0,3.2-1,5.6,5.6,0,0,1,2.2-.1,1.8,1.8,0,0,1,1,.4l.9.8.6.4h.1a1,1,0,0,0,.5-.7s.1-.7-.3-1l-.6-.3v-.3s.1-.3-.3-.4l-1.2-1a.6.6,0,0,1-.1-.4,1.2,1.2,0,0,0-.3-1,7.7,7.7,0,0,0-2-1l-2-.3a2,2,0,0,1-1.7-1,2.7,2.7,0,0,1,.1-1.8A17.5,17.5,0,0,1,34.2,9.7Z"/></svg>
