<svg xmlns="http://www.w3.org/2000/svg" viewBox="0 0 40 39"><path d="M1.4,25.2a3.4,3.4,0,0,1,.9-1.7A1.4,1.4,0,0,0,3,22.1,26.2,26.2,0,0,1,3,17s.3-3,.8-3.7a5.4,5.4,0,0,1,.7-.9A8,8,0,0,1,8.9,9.2a32.9,32.9,0,0,1,5.3-.1,18.3,18.3,0,0,1,4,.7,16.8,16.8,0,0,0,3.5.2l-.2-.5c-.2-.3-.1-.4-.1-.4S22.7,9,22.7,9l2.1-.3,2.8-.3a2.7,2.7,0,0,1,1.4,0l1.2-.2L31.6,8,31,7.1a4.2,4.2,0,0,1-.5-1.2,13.9,13.9,0,0,0-.3-1.7c-.1-.4.3-.2.3-.2l1.3,1.5a14.6,14.6,0,0,1,1.6,2.1,6.8,6.8,0,0,0-.1-1.2,28.3,28.3,0,0,0-1.1-4L31.6.3c-.3-.5.3-.2.3-.2a14.3,14.3,0,0,1,1.3,3c.5,1.2,1.4,5.2,1.4,5.2s.6.8.6.8.3-.8.3-.8l1.4-4.2c.2-.5.8-2.5.8-2.5A7.8,7.8,0,0,0,37.8.3c0-.5.3-.2.3-.2s.2,1.1.2,1.1a7.8,7.8,0,0,1-.7,2.9c-.2.7-.8,3.2-.8,3.2v.3a15.9,15.9,0,0,1,1.5-2.1L39.7,4s.3-.2.3.2a13.9,13.9,0,0,0-.3,1.7,4.2,4.2,0,0,1-.5,1.2L37.8,9.3l-.5.6a1.8,1.8,0,0,1,.1.6.7.7,0,0,1-.3.5,7.3,7.3,0,0,0-.4,1.6,4.2,4.2,0,0,1-.2,1.9.6.6,0,0,1-.2,1l-.4.3c-.3.6-.7.6-.7.6a6.6,6.6,0,0,1-2.1,3.9c-.1.2-1.2.5-1.4.6s-.4.1-.3.3a3.5,3.5,0,0,1-.1.7s-.2,0-.5.8A1.9,1.9,0,0,1,29.7,24l-1.8.3V26c0,.3-.1,3.2-.1,3.2a19.4,19.4,0,0,1-.4,2.4v3.6a5.9,5.9,0,0,0,.4,1.5,9.4,9.4,0,0,1,1.4,1.6c.5.5.1.5.1.5H27.9c-.4,0-.3-.2-.3-.2a1.1,1.1,0,0,0-.5-1,1.6,1.6,0,0,1-.7,0c-.3-.1-.2-.8-.2-.8s0-4.2,0-4.2a6.8,6.8,0,0,0-.2-1.7,4.3,4.3,0,0,1-.3-1.5l-.2-2.1c0-.5-.1-.2-.1-.2s-.7,2.7-.7,2.7a7,7,0,0,0-.6,1.7l-.4,2.4a14.5,14.5,0,0,0-.1,2.8l.5.9c.1.3,1.3,1,1.3,1a.3.3,0,0,1-.3.4H23.2c-.5-.1-.5-.3-.5-.3v-1a.4.4,0,0,0-.2-.4c-.5.1-.6-.1-.6-.1a10.6,10.6,0,0,1,.4-2.9,20.7,20.7,0,0,0,.5-4c-.1-1.2.1-1.5.1-1.5l.8-5.2-3.5.7a9.4,9.4,0,0,1-5.7-.2,8.5,8.5,0,0,1-3.1-2.2,8,8,0,0,0-.9,1.4,40.6,40.6,0,0,1-2,3.8,6.7,6.7,0,0,0-1,3.4c-.1.5.3,4.6.3,4.6s.3,1.5.3,1.5S9,38,9,38s.1.5.1.5-1.9.3-1.8-.1h0a1.1,1.1,0,0,0-.2-.8c-.1-.2-.4,0-.4,0a1.1,1.1,0,0,1-.5-.4,7.2,7.2,0,0,0,0-1.5,49.6,49.6,0,0,0-.7-6.1c-.1-.3-.4-1.8-.4-1.8s-.1.1-.1.1v.5a2.4,2.4,0,0,0-.4,1.1,12.1,12.1,0,0,0-.7,2.4,27.9,27.9,0,0,0-.3,3.9A2.9,2.9,0,0,0,4,37.1c.5,1,.2,1.1.2,1.1A4.2,4.2,0,0,1,2.6,38c-.5-.1-.4-.4-.4-.4s-.2-1-.2-1a.6.6,0,0,1-.1-.7c.6-.7,1-6.6,1-6.6a4.3,4.3,0,0,0,0-2c-.1-.8.2-1,.2-1a5.3,5.3,0,0,0,1.2-2.8h0a22.5,22.5,0,0,0-.4-5.1c-.1-.4-.1-.8-.2-1.1A16.3,16.3,0,0,0,3.4,21a6.2,6.2,0,0,1,.5,2.4,1.3,1.3,0,0,1-.8,1.2.8.8,0,0,0-.5.7s-.1,1.1-1.6.9c0,0-1,0-1-.3S1.2,25.6,1.4,25.2Z"/></svg>
