<?xml version="1.0" encoding="utf-8"?>
<!-- Generator: Adobe Illustrator 27.2.0, SVG Export Plug-In . SVG Version: 6.00 Build 0)  -->
<svg version="1.1" id="Layer_1" xmlns="http://www.w3.org/2000/svg" xmlns:xlink="http://www.w3.org/1999/xlink" x="0px" y="0px"
	 viewBox="0 0 22 22" style="enable-background:new 0 0 22 22;" xml:space="preserve">
<g>
	<path d="M7.5,5.8H4.7C4.3,5.8,3.9,5.5,3.9,5V4.9c0-0.4,0.3-0.8,0.8-0.8h2.8c0.4,0,0.8,0.3,0.8,0.8V5C8.3,5.5,7.9,5.8,7.5,5.8z"/>
	<path d="M3.8,10.8H3.3c-0.1,0-0.1-0.1-0.1-0.1v-0.5c0-0.1-0.1-0.1-0.1-0.1H1.7c-0.1,0-0.1,0.1-0.1,0.1V15c0,0.1,0.1,0.1,0.1,0.1H3
		c0.1,0,0.1-0.1,0.1-0.1v-0.5c0-0.1,0.1-0.1,0.1-0.1h0.5c0.1,0,0.1-0.1,0.1-0.1L4,11C4,10.9,3.9,10.8,3.8,10.8z"/>
	<path d="M7.2,6.5H5c-0.1,0-0.3,0.1-0.3,0.3v8.9c0,0.1,0.1,0.3,0.3,0.3h4.2c0.1,0,0.3-0.1,0.3-0.3V9.2c0-0.1-0.1-0.3-0.3-0.3H8.4
		C8.3,8.9,8.2,9,8.2,9.2v3c0,0.1-0.1,0.3-0.3,0.3H7.7c-0.1,0-0.3-0.1-0.3-0.3l0-5.4C7.4,6.7,7.3,6.5,7.2,6.5z"/>
	<path d="M18.5,6.9h-6.8c-0.7,0.2-1.2,0.6-1.5,1.4l0,8.1c0.5,0.8,1.1,1.3,2,1.4h5.9c1.4-0.2,2.2-0.9,2.3-2.3V8.8
		C20.1,7.7,19.5,7.1,18.5,6.9z M17.9,17.1h-5.1c-0.1,0-0.2-0.1-0.2-0.2v-0.7c0-0.1,0.1-0.2,0.2-0.2h4.3c0.1,0,0.2-0.1,0.2-0.2v-1.2
		c0-0.1-0.1-0.2-0.2-0.2h-4.3c-0.1,0-0.2-0.1-0.2-0.2v-1.1c0-0.1,0.1-0.2,0.2-0.2h4.3c0.1,0,0.2-0.1,0.2-0.2v-1.2
		c0-0.1-0.1-0.2-0.2-0.2h-4.3c-0.1,0-0.2-0.1-0.2-0.2V9.9c0-0.1,0.1-0.2,0.2-0.2h4.3c0.1,0,0.2-0.1,0.2-0.2V8.3
		c0-0.1-0.1-0.2-0.2-0.2h-4.3c-0.1,0-0.2-0.1-0.2-0.2l0,0c0-0.1,0.1-0.2,0.2-0.2h5.1C18,7.7,18,7.8,18,7.9v9
		C18,17,18,17.1,17.9,17.1z"/>
</g>
</svg>
