<svg xmlns="http://www.w3.org/2000/svg" viewBox="0 0 22 11.15"><g id="af4b135a-ad18-44ed-bff4-7ae9dc033d1f" data-name="Layer 2"><g id="e1ac20d8-faab-4daa-9190-530c327d76a2" data-name="Icons"><path d="M14.26,3.14a.7.7,0,0,0-.26.54.71.71,0,0,0,.15.44,2.33,2.33,0,0,1,0,2.91.7.7,0,1,0,1.09.87,3.74,3.74,0,0,0,0-4.65.7.7,0,0,0-1-.11Z"/><path d="M17.83,9.34a6.69,6.69,0,0,0,0-7.53.69.69,0,0,0-1-.18.7.7,0,0,0-.18,1,5.27,5.27,0,0,1,0,6,.71.71,0,0,0-.12.39.73.73,0,0,0,.3.58.7.7,0,0,0,1-.18Z"/><path d="M19.49.11a.7.7,0,0,0-.21,1A8.21,8.21,0,0,1,20.6,5.57a8.22,8.22,0,0,1-1.32,4.5.67.67,0,0,0-.11.38.69.69,0,0,0,1.28.38A9.6,9.6,0,0,0,22,5.57,9.57,9.57,0,0,0,20.45.32a.7.7,0,0,0-1-.21Z"/><path d="M8,3.68a.7.7,0,0,0-1.24-.43,3.74,3.74,0,0,0,0,4.65A.7.7,0,0,0,7.85,7a2.33,2.33,0,0,1,0-2.91A.71.71,0,0,0,8,3.68Z"/><path d="M5.14,9.52a.73.73,0,0,0,.3-.58.71.71,0,0,0-.12-.39,5.27,5.27,0,0,1,0-6,.7.7,0,0,0-.18-1,.69.69,0,0,0-1,.18,6.69,6.69,0,0,0,0,7.53.7.7,0,0,0,1,.18Z"/><path d="M2.51,11a.7.7,0,0,0,.32-.59.67.67,0,0,0-.11-.38A8.22,8.22,0,0,1,1.4,5.57,8.21,8.21,0,0,1,2.72,1.08.7.7,0,1,0,1.55.32,9.57,9.57,0,0,0,0,5.57a9.6,9.6,0,0,0,1.55,5.26.71.71,0,0,0,1,.21Z"/><path d="M13,5.58a2,2,0,1,0-2,2,2,2,0,0,0,2-2Z"/></g></g></svg>
