<svg xmlns="http://www.w3.org/2000/svg" viewBox="0 0 40.16 18.54"><g id="ae9162e8-93b2-42f2-9801-8f3f2a9884a9" data-name="Layer 2"><g id="b981478c-d1da-4069-98d1-c176340e7d2e" data-name="Icons"><path d="M5.62,10.79A3.88,3.88,0,1,0,9.5,14.67,3.88,3.88,0,0,0,5.62,10.79Zm0,5.77a1.9,1.9,0,1,1,1.9-1.89A1.89,1.89,0,0,1,5.62,16.56Z"/><path d="M30.62,10.79a3.88,3.88,0,1,0,3.87,3.88A3.88,3.88,0,0,0,30.62,10.79Zm0,5.77a1.9,1.9,0,1,1,1.89-1.89A1.89,1.89,0,0,1,30.62,16.56Z"/><path d="M39.76.39a1,1,0,0,0-.71-.31c-.09,0-22.78-.16-23.4,0-.87.2-1.12.9-1.57,1.57s-.9,1.31-1.34,2L11.8,5c-.05.07-.32.6-.41.6l-9.61.6c-.25,0-.39.55-.39.55l-1,2.64L0,10.45v1.47H1.85l.84-2.13C3.22,8.8,4,8.93,4,8.93H6.84c1.81,0,2,1.93,2.83,3.14s1.72,1.12,2.9,1.12H23.81c.76,0,1.91.18,2.52-.39a1.51,1.51,0,0,0,.29-.45c.29-.65.4-1.39.7-2a1.4,1.4,0,0,1,1.3-1H32.5c1.24,0,1.41,1.22,2,2.05a1.85,1.85,0,0,0,1.38.86h4.25l.08-6.47C40.12,5.09,40.1.81,39.76.39Zm-20,8.14a.65.65,0,0,1-.52-.22h-1.6a.44.44,0,1,1,0-.88h1.6a.62.62,0,0,1,.51-.23A.67.67,0,0,1,19.75,8.53Zm.88-3.83a.65.65,0,0,1-.62.66H14.07c-.35,0-.43-.3-.19-.66L16,1.49c.31-.45.44-.48.79-.48H20a.65.65,0,0,1,.62.66Z"/></g></g></svg>
