<svg xmlns="http://www.w3.org/2000/svg" viewBox="0 0 38.7 40"><path d="M38.1,28l-.6-.4a1.2,1.2,0,0,1-.7-1.4,3.4,3.4,0,0,1,.1-1,4.5,4.5,0,0,0,.3,1.1,2.5,2.5,0,0,0,.4.7l.3.3c.1,0,.4.1.4.2s-.6-1.9-.8-2.8a5.7,5.7,0,0,1-.1-2.9c.1-.5.5-1,.5-1.6a1.9,1.9,0,0,0-.5-1.4,2.4,2.4,0,0,1-.6-.9,3.4,3.4,0,0,1-.6-1.2,6.1,6.1,0,0,1-.5-1.1,4.3,4.3,0,0,0-.1-.5h0a2.6,2.6,0,0,0-.7-1,9.6,9.6,0,0,0-2.3-1.6l-1.5-.7-.7-.4a2.5,2.5,0,0,0-1.2-.1H28L26.1,11a30.6,30.6,0,0,0-4,.1c-2.5.2-3.2-.5-3.2-.5C16.5,9,14.8,9.5,14.8,9.5a2.6,2.6,0,0,0-2,1.1c-.3.5-.6.5-.6.5a3.1,3.1,0,0,1-2-.6,5.8,5.8,0,0,1-1.1-1V9.2h0c.4-.1.5-.5.8-.6h.8c.6,0,1-.5,1.4-.8A8.7,8.7,0,0,0,13,6.6c.1-.1.6-.7.4-.8s-.5.4-.5.4a3,3,0,0,1-1,.4l-1.3.2L9.7,7H9.1l-.3-.2,2.4-2.4A2.4,2.4,0,0,0,12,2.5C12.1,1.3,10.6.2,10.6.2s-.1.3-.1.3A2.4,2.4,0,0,1,11,2.9,16.7,16.7,0,0,1,9.5,4.3,14.1,14.1,0,0,0,7.3,6a1.7,1.7,0,0,1-.7.4,1.7,1.7,0,0,1-.9-.3,2,2,0,0,0-1.2-.8A12.4,12.4,0,0,1,2.4,3.9,2.1,2.1,0,0,1,2,2.4,3.5,3.5,0,0,1,2.5.8c.3-.8-.3,0-.3,0a3.5,3.5,0,0,0-.7,3.7A7.5,7.5,0,0,0,3.4,6.1l.9.8H3.6L3,6.8A17,17,0,0,1,.8,6.4L.4,6.1C.3,6,.2,5.8,0,5.8s.6,1,.6,1.1l.3.4c.5.4,1.1,1.2,1.8,1.2s1,0,1.1.3l.4.4a1.5,1.5,0,0,0,.5.9,1.1,1.1,0,0,1,0,.6,4.8,4.8,0,0,0,.4,1.8,3,3,0,0,0,.3.9,1.6,1.6,0,0,1,.1.4l-.2,1.6a1.5,1.5,0,0,0,.4,1c.5.8,1,.5,1,.5v.2a20.8,20.8,0,0,0,1.9,2.3,7.1,7.1,0,0,1,1,1.4,6.4,6.4,0,0,1,.8,1.4l.3,1.2a31.2,31.2,0,0,0,.5,3.9,26.1,26.1,0,0,1,.1,4.9,6,6,0,0,1-.7,2.9l-.8.9-.9.9H9c-.3.1.5.4.6.5a2.9,2.9,0,0,0,1.3,0c.4-.1.5-.4.5-.8a1,1,0,0,1,.5-1.1s.7,0,.6-1,0-8.3.3-9.5h.1a7.6,7.6,0,0,1,.4,1.1,3.8,3.8,0,0,1,.8,1.6,3.1,3.1,0,0,0,.9,2.6L16.4,36s.2,1.8-.3,2.4l-1.3,1.1s-.4.4.7.5a7.6,7.6,0,0,0,1.9-.2,6.1,6.1,0,0,1,0-1.4,1.5,1.5,0,0,1,.5-.8,3.3,3.3,0,0,0,0-1.5,41.4,41.4,0,0,1-1.5-5s-.3-1.2-.6-3.1L15,24.4a1.9,1.9,0,0,0,1.3-.1c.6-.2,1.2-.7,1.9-.6l.7.3,1.4.4a11.4,11.4,0,0,0,4.5.3,5.8,5.8,0,0,0,2.5-.9,31.5,31.5,0,0,0,1.9,4.7,5.6,5.6,0,0,1,0,2.4l-.3,1s-1.6,4.2-1.9,4.6l-1.7,2.2s-1.1.3-.6.7,1.2.7,1.9.1a1.6,1.6,0,0,1,1.1-1.2l.7-1.5c.2-.5.1-.4.1-.3l2.9-6.6s.8-.6,0-2.4a10,10,0,0,1-.7-2.7h.1l.6,1.4s1.7,2.6,1.7,2.8a31.7,31.7,0,0,1-.5,5.8s-.1,2.2-.6,2.7l-1.4,1.3s-1.1.5,0,.6a2.2,2.2,0,0,0,1.2,0s.7-.9,1-.9.8.3.9-.8a82.4,82.4,0,0,1,1.1-8.6,2.8,2.8,0,0,0,.5-1.1,2.2,2.2,0,0,0-.7-1.2,11.2,11.2,0,0,1-1.5-3.4h0c.2-.8.5-1.6.5-1.6l2.1-4.8a8.3,8.3,0,0,1,.5,2v1.6L35.9,22a4.7,4.7,0,0,0-.3,1.7,8.8,8.8,0,0,0,.2,2.8,3.5,3.5,0,0,0,.6,1.4,2.9,2.9,0,0,0,1.3.5h1Z"/></svg>
