<svg xmlns="http://www.w3.org/2000/svg" viewBox="0 0 40 18.43"><g id="bfe9c886-bb29-4a01-b64f-5462ba6a63eb" data-name="Layer 2"><g id="b1b29848-3482-4b42-8da1-0cda0053ee57" data-name="Icons"><path d="M5.6,10.71a3.86,3.86,0,1,0,3.86,3.86A3.86,3.86,0,0,0,5.6,10.71Zm0,5.74a1.89,1.89,0,1,1,1.89-1.88A1.89,1.89,0,0,1,5.6,16.45Z"/><path d="M30.5,10.71a3.86,3.86,0,1,0,3.86,3.86A3.86,3.86,0,0,0,30.5,10.71Zm0,5.74a1.89,1.89,0,1,1,1.89-1.88A1.89,1.89,0,0,1,30.5,16.45Z"/><path d="M22.28,5.79c0-1.28,0-5-.11-5.21a.54.54,0,0,0-.1-.18A1,1,0,0,0,21.5.06c-.45-.1-5,0-5.67,0a1.68,1.68,0,0,0-.89.19,1.83,1.83,0,0,0-.45.62c-.55.93-1.2,1.81-1.8,2.71l-.94,1.39c0,.07-.32.6-.4.6l-9.58.59c-.25,0-.39.55-.39.55l-1,2.63-.36,1v1.47H1.84l.84-2.12c.53-1,1.26-.86,1.26-.86H6.81c1.8,0,2,1.93,2.82,3.13s1.71,1.11,2.89,1.11h11.2c.76,0,1.9.18,2.51-.38a1.41,1.41,0,0,0,.28-.45c.3-.65.41-1.39.71-2a1.38,1.38,0,0,1,1.29-1h3.86c1.24,0,1.41,1.22,2,2a1.81,1.81,0,0,0,1.37.86h4.23L40,5.75ZM19.67,8.46a.64.64,0,0,1-.51-.22h-1.6a.45.45,0,0,1,0-.89h1.6a.64.64,0,0,1,.51-.22A.67.67,0,0,1,19.67,8.46Zm.88-3.82a.65.65,0,0,1-.62.66H14c-.34,0-.42-.3-.18-.66L16,1.44c.32-.44.45-.48.79-.48h3.18a.65.65,0,0,1,.62.67Z"/></g></g></svg>
