<svg id="Layer_1" data-name="Layer 1" xmlns="http://www.w3.org/2000/svg" width="128" height="128" viewBox="0 0 128 128"><title>Artboard 100</title><path d="M39.5,127H38a20.21,20.21,0,0,1-1.87-4.65,18.78,18.78,0,0,1-.65-4.76,18.43,18.43,0,0,1,.65-4.86,19.34,19.34,0,0,1,1.89-4.5h1.53a34.41,34.41,0,0,0-1.52,5.1,23.17,23.17,0,0,0-.39,4.33,24.2,24.2,0,0,0,.55,5A29.41,29.41,0,0,0,39.5,127Z"/><path d="M40.45,112.42H41.7v-.78a5.65,5.65,0,0,1,.27-2,2.07,2.07,0,0,1,.87-1,2.86,2.86,0,0,1,1.49-.36,5.35,5.35,0,0,1,1.88.35l-.3,1.91a3.56,3.56,0,0,0-1-.16.83.83,0,0,0-.7.28,1.89,1.89,0,0,0-.21,1.07v.74h1.68v2.16H44v8.21H41.7v-8.21H40.45Z"/><path d="M48.78,115.57l-2-.44A4,4,0,0,1,48,112.86a3.9,3.9,0,0,1,2.46-.68,4.71,4.71,0,0,1,2.18.4,2.3,2.3,0,0,1,1.07,1.09,6.51,6.51,0,0,1,.32,2.5l0,3.21a13.82,13.82,0,0,0,.11,2,7,7,0,0,0,.4,1.4H52.25L52,121.66a4.17,4.17,0,0,1-1.23,1,3,3,0,0,1-1.41.35,2.68,2.68,0,0,1-2-.84A3.15,3.15,0,0,1,46.5,120a3.51,3.51,0,0,1,.32-1.53,2.66,2.66,0,0,1,.91-1,6,6,0,0,1,1.88-.69,10.53,10.53,0,0,0,2.18-.68,3,3,0,0,0-.13-1.13.92.92,0,0,0-.45-.44,1.91,1.91,0,0,0-.92-.17,1.51,1.51,0,0,0-.95.27A1.94,1.94,0,0,0,48.78,115.57Zm3,2.24a10.29,10.29,0,0,1-1.34.41,3.14,3.14,0,0,0-1.37.61,1.2,1.2,0,0,0-.32.86,1.53,1.53,0,0,0,.35,1,1.15,1.15,0,0,0,.9.4,1.66,1.66,0,0,0,1-.33,1.75,1.75,0,0,0,.64-.78,4.64,4.64,0,0,0,.19-1.63Z"/><path d="M56.42,122.79V108.47h2.26v14.32Z"/><path d="M61.18,122.79V108.47h2.26v14.32Z"/><path d="M65.41,117.46a6.23,6.23,0,0,1,.61-2.78,4.49,4.49,0,0,1,1.58-1.88,4,4,0,0,1,2.2-.62A3.74,3.74,0,0,1,73,113.79a6.2,6.2,0,0,1,1.17,3.76,6.62,6.62,0,0,1-.61,2.89,4.52,4.52,0,0,1-1.6,1.94,3.82,3.82,0,0,1-2.17.66,4,4,0,0,1-3.15-1.45A6.16,6.16,0,0,1,65.41,117.46Zm2.31.15a3.89,3.89,0,0,0,.61,2.38,1.84,1.84,0,0,0,1.49.81,1.78,1.78,0,0,0,1.46-.81,4,4,0,0,0,.61-2.4,3.89,3.89,0,0,0-.62-2.37,1.74,1.74,0,0,0-2.94,0A3.94,3.94,0,0,0,67.72,117.61Z"/><path d="M77.77,122.79l-2.71-10.37h2.18l1.6,6.8,1.48-6.8h2.15l1.42,6.8,1.64-6.8h2.22L85,122.79H82.85l-1.47-6.67-1.45,6.67Z"/><path d="M88.5,127a29.19,29.19,0,0,0,1.33-4.29,24.7,24.7,0,0,0,.56-5,23.17,23.17,0,0,0-.39-4.33,34.41,34.41,0,0,0-1.52-5.1H90a19.27,19.27,0,0,1,1.9,4.55,17.54,17.54,0,0,1,.64,4.68,19.08,19.08,0,0,1-.64,4.82A19.8,19.8,0,0,1,90,127Z"/><path d="M16.13,103.21H13.57l-1-3.24H7.84l-1,3.24H4.35L8.92,88.89h2.51Zm-4.36-5.67-1.62-5.31L8.56,97.54Z"/><path d="M23,98V95.53h5.11v5.71A6.29,6.29,0,0,1,26,102.8a6.79,6.79,0,0,1-2.84.65,5.5,5.5,0,0,1-3.06-.85A5.77,5.77,0,0,1,18,100,10.71,10.71,0,0,1,18,92a6,6,0,0,1,2-2.51,5.28,5.28,0,0,1,3-.83,5,5,0,0,1,3.37,1.07A5.15,5.15,0,0,1,28,92.86l-2.35.53a3,3,0,0,0-1-1.68A2.46,2.46,0,0,0,23,91.12a3,3,0,0,0-2.45,1.18,5.72,5.72,0,0,0-.93,3.58,6.52,6.52,0,0,0,1,3.94A2.81,2.81,0,0,0,23,101a3.72,3.72,0,0,0,1.44-.32,4.77,4.77,0,0,0,1.33-.89V98Z"/><path d="M30.55,103.21V88.89h5a6.86,6.86,0,0,1,2.73.39,3,3,0,0,1,1.35,1.34,4.63,4.63,0,0,1,.53,2.28,4.22,4.22,0,0,1-.81,2.7,3.56,3.56,0,0,1-2.29,1.29,5.57,5.57,0,0,1,1.26,1.2,16.6,16.6,0,0,1,1.36,2.33l1.43,2.79H38.27l-1.72-3.12A17.8,17.8,0,0,0,35.29,98a1.89,1.89,0,0,0-.7-.59,3.37,3.37,0,0,0-1.19-.16h-.49v6ZM32.91,95h1.76a9.1,9.1,0,0,0,2-.14,1.33,1.33,0,0,0,.71-.58,2,2,0,0,0,.28-1.14,1.93,1.93,0,0,0-.28-1.1,1.45,1.45,0,0,0-.74-.57,9.37,9.37,0,0,0-1.92-.11H32.91Z"/><path d="M42.51,103.21V88.89h2.36v14.32Z"/><path d="M54.85,98l2.3.88a6.34,6.34,0,0,1-1.79,3.51,4.46,4.46,0,0,1-3.07,1.11,4.57,4.57,0,0,1-3.72-1.76,8.54,8.54,0,0,1-1.65-5.51,9,9,0,0,1,1.66-5.73,4.68,4.68,0,0,1,3.86-1.8A4.44,4.44,0,0,1,55.74,90a5.78,5.78,0,0,1,1.39,2.84l-2.34.68a3.15,3.15,0,0,0-.9-1.78,2.26,2.26,0,0,0-1.58-.62,2.52,2.52,0,0,0-2.12,1.13A6.51,6.51,0,0,0,49.37,96a6.9,6.9,0,0,0,.8,3.85A2.43,2.43,0,0,0,52.25,101a2.15,2.15,0,0,0,1.62-.73A4.61,4.61,0,0,0,54.85,98Z"/><path d="M59.35,88.89h2.36v7.76A18.72,18.72,0,0,0,61.8,99a2.42,2.42,0,0,0,.75,1.46,2.63,2.63,0,0,0,2.9.16,1.82,1.82,0,0,0,.71-1,12.3,12.3,0,0,0,.19-2.79V88.89h2.37v7.52a20.29,20.29,0,0,1-.31,4.17A3.58,3.58,0,0,1,67,102.66a4.68,4.68,0,0,1-2.84.79,5.3,5.3,0,0,1-2.87-.66,3.7,3.7,0,0,1-1.49-1.85,14,14,0,0,1-.47-4.41Z"/><path d="M71.48,103.21V89h2.36v11.78h5.9v2.42Z"/><path d="M83.07,103.21V91.31H79.59V88.89h9.32v2.42H85.44v11.9Z"/><path d="M90.63,88.89H93v7.76A18.72,18.72,0,0,0,93.08,99a2.32,2.32,0,0,0,.75,1.46,2.25,2.25,0,0,0,1.56.52,2.33,2.33,0,0,0,1.34-.36,1.92,1.92,0,0,0,.71-1,13,13,0,0,0,.19-2.79V88.89H100v7.52a19.59,19.59,0,0,1-.31,4.17,3.52,3.52,0,0,1-1.38,2.08,4.69,4.69,0,0,1-2.85.79,5.32,5.32,0,0,1-2.87-.66,3.76,3.76,0,0,1-1.49-1.85,14,14,0,0,1-.46-4.41Z"/><path d="M102.69,103.21V88.89h5a6.91,6.91,0,0,1,2.74.39,3,3,0,0,1,1.34,1.34,4.63,4.63,0,0,1,.53,2.28,4.22,4.22,0,0,1-.81,2.7,3.56,3.56,0,0,1-2.29,1.29,5.57,5.57,0,0,1,1.26,1.2,15.66,15.66,0,0,1,1.36,2.33l1.43,2.79h-2.83l-1.72-3.12A20,20,0,0,0,107.44,98a1.91,1.91,0,0,0-.71-.59,3.34,3.34,0,0,0-1.19-.16h-.49v6ZM105.05,95h1.76a9,9,0,0,0,2-.14,1.35,1.35,0,0,0,.72-.58,2.09,2.09,0,0,0,.27-1.14,2,2,0,0,0-.27-1.1,1.47,1.47,0,0,0-.75-.57,9.37,9.37,0,0,0-1.92-.11h-1.86Z"/><path d="M114.73,103.21V88.89h8.71v2.42h-6.35v3.18H123V96.9h-5.9v3.89h6.56v2.42Z"/><path d="M90.06,69l0-.25-1.33-4.4a.54.54,0,0,0-.41-.38l-6-1a.47.47,0,0,0-.52.3c-.64,1.43-3,6.65-3.87,8.64a.63.63,0,0,0,.57.87l6.53.68,4.7-.77Z"/><path d="M94.52,68.25l-1.79-.34a.48.48,0,0,0-.45.17L90.8,69.84a.58.58,0,0,0-.14.39l0,1.59a9,9,0,0,0,1.44.2c.38,0,2.08-.1,3-.16a.48.48,0,0,0,.47-.58l-.62-2.61A.54.54,0,0,0,94.52,68.25Z"/><path d="M90.48,73.62a.3.3,0,0,0-.2.08s-1.09.89-1.09,1.08c.44.46,2.53.2,2.67,0s-.35-1.16-.35-1.16Z"/><path d="M44.64,73.1c-.58-.89-2.36-.86-3.73-.71.32-1,3.75-1.59,4.43-1.33-1-1.12-3.56-.94-4.68-.08.32-3.47,1.62-4.7,3.31-6.65-1.25.28-4.09,3.31-4.59,4.46a14.52,14.52,0,0,1,1.69-7.26c-3.81,2.66-3.33,7.21-3,8.75-.64-1-2.86-1.86-4.91-1.65a6.25,6.25,0,0,1,4.31,3.27c-1.71-1.1-2.69-.87-5,.81a10.73,10.73,0,0,1,3.7,0,3.5,3.5,0,0,1,1.92,1.26h2.26C40.59,73.49,42.9,72.76,44.64,73.1Z"/><path d="M36.47,68.73a2.27,2.27,0,0,1,.81.41,6.66,6.66,0,0,1-.49-3.08A4.69,4.69,0,0,0,36.47,68.73Z"/><path d="M102.56,78.38c-.3-1.66-.69-3.3-1.09-4.93-.79-3.26-2.12-6.38-3.23-9.57S96,57.52,94.88,54.35c-1-2.78-1.5-5.56-2.54-8.33.06,0,17.77.08,21.47-.28V45c-1.78-.17-14.17-.32-16-.44a4.45,4.45,0,0,0,.08-1.36c-.12-1.11-1.75-1.29-1.75-1.29a1.38,1.38,0,0,0-.6-1.75c-.4-.23-1.09.11-1.68.36a.48.48,0,0,1-.61-.23c-.63-1.54-1.27-2.36-2.75-1.38a1.6,1.6,0,0,0-.11-.19,2.39,2.39,0,0,0-4-.37.84.84,0,0,1-.26.14,1.11,1.11,0,0,1-.3,0,2.59,2.59,0,0,0-3,2.3.85.85,0,0,1-.35.51,3,3,0,0,0-1.56,2.54h0c-5.25-.13-10.51,0-15.76.12A2.65,2.65,0,0,0,62,44h0a5.59,5.59,0,0,1,3.85-2.89c-1.85-.19-3.5-.06-4.07.83.31-1.38.95-3.95-2.49-6.35,1.19,3.2,1.15,5,1,5.66a6,6,0,0,0-3.27-2.73c1.53,1.76,1.83,1.58,2.12,4.71-1-.78-3.31-.94-4.22.07a6.23,6.23,0,0,1,3.62.77l-22,.37-4.95,0-.06-.78c.29-.58.56-1.16.8-1.76a28.94,28.94,0,0,0,1.11-3.25A18.24,18.24,0,0,0,34,35.35c.06-.56.08-1.16.13-1.7l.09-.76.17-.76c.54-2,2-3.78,3.4-5.66a16.93,16.93,0,0,0,1.77-3,14.66,14.66,0,0,0,1-3.66l-.27.32A13.26,13.26,0,0,1,39,23.2a17,17,0,0,1-2,2.71c-.75.87-1.56,1.72-2.31,2.65a12.25,12.25,0,0,0-1.85,3.12c-.1.29-.2.58-.29.87l-.2.9c-.13.57-.21,1.09-.34,1.63-.23,1.08-.44,2.16-.62,3.26-.11.68-.21,1.36-.32,2a.5.5,0,0,0,0-.12l-.21-1c-.15-.66-.27-1.33-.45-2a34,34,0,0,0-1.24-3.9l-1.44-3.74c-.24-.61-.4-1.25-.6-1.88a18.45,18.45,0,0,1-.52-1.9,44.34,44.34,0,0,1-1.2-7.78c-.09-1-.13-2.07-.16-3.1a5.81,5.81,0,0,0,1.14-1.13l0-.06a1.8,1.8,0,0,0,2-.06,4.23,4.23,0,0,1,1.94-1.11,4.4,4.4,0,0,0-2.29-.18,5.13,5.13,0,0,0-1.07.37c.11-.2.21-.41.33-.62.3-.56.58-1.13.87-1.7s.53-1.15.83-1.7l-.06,0c-.39.52-.72,1.06-1.08,1.6s-.69,1.07-1.05,1.6-.77,1-1.08,1.57c-.19.31-.38.63-.56,1,0-1.43,0-2.87.11-4.3.17-2.63,1.07-7.72,1.06-7.86A.77.77,0,0,0,26.24,2a56.18,56.18,0,0,0-1.55,8.12,54.68,54.68,0,0,0-.37,8,45.93,45.93,0,0,0,.92,8c.06.38.15.75.24,1.12a22,22,0,0,0-2.55-2.31c-1-.77-1.83-2-2.74-2.8a28.75,28.75,0,0,1-2.25-2.42l-.41-.35a26.35,26.35,0,0,0,2,3.1A34.73,34.73,0,0,0,22,25.27c.86.9,1.58,1.88,2.39,2.63a9.58,9.58,0,0,1,2,2.7h0l1.11,3.25c.09.24.17.49.25.74a7.34,7.34,0,0,0-1.33-.9A6.59,6.59,0,0,0,23,33.08a21.17,21.17,0,0,1,2.33,2.37,2.66,2.66,0,0,0,2.89.9l.3,1.28c.14.63.22,1.28.33,1.92l.15,1c.05.32.07.65.1,1l.21,1.94,0,1.08-15.21.06v.67l15.27.35c.05.58.05,1.17.07,1.75s.07,1.3,0,2a116.34,116.34,0,0,1-1.06,15.76h.05c-2.45,2.67-5,5.28-7.2,8.13-1.28,1.63-2.55,3.28-3.75,5s0,2.57,1.54,1.1,3-3,4.39-4.51S26.32,71.62,27.6,70l3.84-4.91.45-.58.57-.09a1.44,1.44,0,0,0,1.19-1.5l-.06-.56c1.86-2.35,3.72-4.7,5.55-7.07q1.89-2.48,3.75-5c1-1.45,2.12-2.87,3.08-4.39l12.73.22c2.22,0,4,.09,6.18.14a81.71,81.71,0,0,0-5,6.72,88.69,88.69,0,0,0-6.17,10c-.46.86-.89,1.74-1.33,2.61s-.86,1.68-1.34,2.51c-.93,1.65-1.86,3.31-2.76,5l-2.72,5.07c-.9,1.71.43,2.48,1.68.94a57.83,57.83,0,0,0,3.48-4.79,35.47,35.47,0,0,0,2.8-5.18c.41-.89.76-1.81,1.12-2.71s.71-1.76,1.09-2.63a85.45,85.45,0,0,1,5.33-10.15,83.48,83.48,0,0,1,5-7.36c3.31.08,6.06.15,9.37.15-.74,2.42-.87,4.85-1.55,7.29a63.31,63.31,0,0,0-2.1,10,37.67,37.67,0,0,1-1,4.79c-.39,1.61-.75,3.24-1,4.89s-.53,3.3-.71,5,1.33,2,1.91.38,1.07-3.21,1.52-4.84a39.65,39.65,0,0,0,1-5c.11-.84.21-1.68.3-2.53,0-.43.09-.85.12-1.29l0-.64v-.69a34.09,34.09,0,0,1,.46-4.86c.23-1.65.5-3.3.78-4.94.41-2.52.88-5,1.34-7.54,1.44,0,2.88,0,4.32,0,3.5-.09,7-.19,10.49-.35.7,2.89,1.44,5.77,2.16,8.65q1.24,4.89,2.56,9.74C97,67.68,97.62,71,98.8,74.14c.59,1.58,1.19,3.16,1.88,4.72S102.87,80,102.56,78.38ZM42.2,49.83C40.82,51.4,39.44,53,38,54.5c-1.59,1.8-3.2,3.58-4.81,5.37-.62-3.83-1.63-8.72-1.57-10.55,0-1.22,0-2.45,0-3.68l4.88.11,8.14.16C44.56,46,42.2,49.83,42.2,49.83Z"/><path d="M17.09,19.25a1.88,1.88,0,0,0-.54-2.63A27.61,27.61,0,0,1,14.23,15a4,4,0,0,0,.53,2.63C15.55,18.8,16.77,19.42,17.09,19.25Z"/><path d="M18.12,26c1.29.4,2.53.19,2.64-.1s-.67-1.4-2-1.55a9.78,9.78,0,0,0-2.64.09A4.14,4.14,0,0,0,18.12,26Z"/><path d="M31.85,7.87a4.74,4.74,0,0,0,1.46-2.41S32,6,30.56,6.58,28.88,8.76,29.11,9,30.69,8.84,31.85,7.87Z"/><path d="M40.28,19.53c.3.12,1.37-.73,2-2.06a4.49,4.49,0,0,0,.23-2.74s-.92,1-2,2.06A2,2,0,0,0,40.28,19.53Z"/><path d="M32.61,25.92c.44,1.38,1.4,2.34,1.72,2.26a2,2,0,0,0,.11-2.75l-1.71-2.26A4.48,4.48,0,0,0,32.61,25.92Z"/><path d="M33.78,39.2a2.38,2.38,0,0,0,2.65-1.28,13.17,13.17,0,0,1,1.28-2.49,5.54,5.54,0,0,0-2.66,1.28C34,37.76,33.54,39,33.78,39.2Z"/></svg>