<svg id="Layer_1" data-name="Layer 1" xmlns="http://www.w3.org/2000/svg" width="128" height="128" viewBox="0 0 128 128"><defs><style>.cls-1{fill:#d62525;}.cls-2{fill:#77d37d;}</style></defs><title>Artboard 4</title><path d="M108.1,102.12,65.83,42.6,73.28,32a1.5,1.5,0,0,0-2.45-1.73L64,40l-6.83-9.72A1.5,1.5,0,1,0,54.72,32l7.45,10.6L19.9,102.12H49.69V79.81H78.31v22.31Z"/><path d="M48.26,118.49l2.3.89a6.48,6.48,0,0,1-1.79,3.51A4.48,4.48,0,0,1,45.69,124,4.55,4.55,0,0,1,42,122.23a8.55,8.55,0,0,1-1.64-5.51A9,9,0,0,1,42,111a4.68,4.68,0,0,1,3.86-1.79,4.46,4.46,0,0,1,3.31,1.34,6,6,0,0,1,1.39,2.84l-2.35.69a3.17,3.17,0,0,0-.89-1.78,2.24,2.24,0,0,0-1.58-.62,2.51,2.51,0,0,0-2.13,1.13,6.57,6.57,0,0,0-.82,3.74,7,7,0,0,0,.8,3.85,2.45,2.45,0,0,0,2.08,1.14,2.12,2.12,0,0,0,1.62-.73A4.52,4.52,0,0,0,48.26,118.49Z"/><path d="M63.37,123.76H60.8l-1-3.25h-4.7l-1,3.25H51.59l4.57-14.32h2.51ZM59,118.09l-1.62-5.31-1.59,5.31Z"/><path d="M64.78,123.76V109.44h3.55l2.13,9.77,2.12-9.77h3.56v14.32H73.93V112.48l-2.34,11.28H69.31L67,112.48v11.28Z"/><path d="M78.68,123.76V109.44h3.8a12.22,12.22,0,0,1,2.79.2A3.22,3.22,0,0,1,87,111.06a5.19,5.19,0,0,1,.68,2.79,5.3,5.3,0,0,1-.59,2.61,3.39,3.39,0,0,1-1.46,1.47,7.68,7.68,0,0,1-3,.43H81v5.4ZM81,111.86v4.07h1.31a6,6,0,0,0,1.8-.18,1.65,1.65,0,0,0,.77-.67,2.15,2.15,0,0,0,.31-1.19,2.2,2.2,0,0,0-.32-1.21,1.5,1.5,0,0,0-.77-.65,7.06,7.06,0,0,0-2-.17Z"/><path class="cls-1" d="M23.05,17.56V3.24h3.81a11.36,11.36,0,0,1,2.78.21,3.1,3.1,0,0,1,1.72,1.42A5.1,5.1,0,0,1,32,7.66a5.29,5.29,0,0,1-.58,2.6A3.44,3.44,0,0,1,30,11.74a7.65,7.65,0,0,1-3,.42H25.41v5.4ZM25.41,5.67V9.74h1.31a5.55,5.55,0,0,0,1.8-.19,1.53,1.53,0,0,0,.78-.67,2.21,2.21,0,0,0,.3-1.19,2.16,2.16,0,0,0-.31-1.2,1.54,1.54,0,0,0-.78-.66,7.11,7.11,0,0,0-1.94-.16Z"/><path class="cls-1" d="M33.71,10.49a10.2,10.2,0,0,1,.75-4.21,5.75,5.75,0,0,1,2-2.47,5.25,5.25,0,0,1,3-.81,5.09,5.09,0,0,1,4.11,1.92,8.4,8.4,0,0,1,1.58,5.48A8.55,8.55,0,0,1,43.41,16a4.9,4.9,0,0,1-4,1.78,4.94,4.94,0,0,1-4-1.76A8.43,8.43,0,0,1,33.71,10.49Zm2.44-.1a6.07,6.07,0,0,0,.94,3.71,2.82,2.82,0,0,0,2.33,1.23,2.76,2.76,0,0,0,2.31-1.22,6.23,6.23,0,0,0,.92-3.77,6.19,6.19,0,0,0-.89-3.68,2.91,2.91,0,0,0-4.7,0A6.14,6.14,0,0,0,36.15,10.39Z"/><path class="cls-1" d="M57.75,17.56H55.18l-1-3.24h-4.7l-1,3.24H46L50.53,3.24H53ZM53.38,11.9,51.76,6.58,50.17,11.9Z"/><path class="cls-1" d="M66.71,12.3l2.29.89a6.41,6.41,0,0,1-1.79,3.51,4.45,4.45,0,0,1-3.07,1.1A4.54,4.54,0,0,1,60.42,16a8.51,8.51,0,0,1-1.64-5.51A9,9,0,0,1,60.43,4.8,4.68,4.68,0,0,1,64.29,3a4.44,4.44,0,0,1,3.3,1.35A5.82,5.82,0,0,1,69,7.19l-2.34.68a3.15,3.15,0,0,0-.9-1.78,2.26,2.26,0,0,0-1.58-.62A2.52,2.52,0,0,0,62,6.6a6.53,6.53,0,0,0-.82,3.74,6.88,6.88,0,0,0,.8,3.85,2.43,2.43,0,0,0,2.08,1.14,2.17,2.17,0,0,0,1.62-.72A4.78,4.78,0,0,0,66.71,12.3Z"/><path class="cls-1" d="M71.23,17.56V3.24h2.36V8.88h4.66V3.24h2.37V17.56H78.25V11.3H73.59v6.26Z"/><path class="cls-1" d="M83.27,17.56V3.24H92V5.67H85.63V8.84h5.9v2.41h-5.9v3.89h6.56v2.42Z"/><path class="cls-1" d="M94.4,17.56V3.24h5a6.89,6.89,0,0,1,2.73.39A3,3,0,0,1,103.48,5,4.63,4.63,0,0,1,104,7.25a4.21,4.21,0,0,1-.8,2.7,3.54,3.54,0,0,1-2.29,1.29,6,6,0,0,1,1.26,1.2,17.68,17.68,0,0,1,1.36,2.33L105,17.56h-2.83l-1.71-3.11a20.63,20.63,0,0,0-1.26-2.12,1.77,1.77,0,0,0-.7-.58,3.15,3.15,0,0,0-1.19-.17h-.49v6ZM96.77,9.3h1.76a9.16,9.16,0,0,0,2-.14,1.36,1.36,0,0,0,.71-.57,2.15,2.15,0,0,0,.27-1.15,2,2,0,0,0-.27-1.1,1.45,1.45,0,0,0-.74-.57,9.85,9.85,0,0,0-1.93-.1H96.77Z"/><path class="cls-2" d="M49.78,61.81a7.48,7.48,0,0,1,.73-3.34,5.31,5.31,0,0,1,1.89-2.25A4.81,4.81,0,0,1,55,55.47a4.52,4.52,0,0,1,3.87,1.93,7.44,7.44,0,0,1,1.4,4.51,8.06,8.06,0,0,1-.73,3.48,5.56,5.56,0,0,1-1.92,2.33,4.65,4.65,0,0,1-2.61.78,4.77,4.77,0,0,1-3.77-1.74A7.36,7.36,0,0,1,49.78,61.81Zm2.77.17a4.61,4.61,0,0,0,.74,2.86,2.16,2.16,0,0,0,1.78,1,2.13,2.13,0,0,0,1.75-1A4.74,4.74,0,0,0,57.55,62a4.64,4.64,0,0,0-.74-2.83,2.18,2.18,0,0,0-1.77-1,2.15,2.15,0,0,0-1.76,1A4.68,4.68,0,0,0,52.55,62Z"/><path class="cls-2" d="M62.92,68.2V51h2.7V68.2Z"/><path class="cls-2" d="M78.22,68.2H75.71V66.38A4.49,4.49,0,0,1,74.25,68a3.17,3.17,0,0,1-1.74.54,3.67,3.67,0,0,1-3-1.71,8.06,8.06,0,0,1-1.27-4.88,7.86,7.86,0,0,1,1.24-4.82,3.72,3.72,0,0,1,3-1.62,3.12,3.12,0,0,1,1.6.43,4.38,4.38,0,0,1,1.36,1.3V51h2.71ZM71,61.71a8.23,8.23,0,0,0,.29,2.52,2.56,2.56,0,0,0,.82,1.25,1.79,1.79,0,0,0,2.74-.55,5.16,5.16,0,0,0,.66-2.9,5.78,5.78,0,0,0-.64-3.1A1.9,1.9,0,0,0,73.27,58a1.93,1.93,0,0,0-1.59.92A4.86,4.86,0,0,0,71,61.71Z"/></svg>