<svg id="Layer_1" data-name="Layer 1" xmlns="http://www.w3.org/2000/svg" width="128" height="128" viewBox="0 0 128 128"><defs><style>.cls-1{fill:#d62525;}</style></defs><title>Artboard 5</title><path d="M111.06,98.38,65.59,18.91,73,6.11a1.38,1.38,0,0,0-.5-1.88,1.37,1.37,0,0,0-1.87.5L64,16.15v0l0,0L57.37,4.73A1.37,1.37,0,1,0,55,6.11l7.4,12.82L16.94,98.38H9.68v3.74H118.32V98.38Zm-69.22,0,5.74-7.52a91.29,91.29,0,0,0,15-29.79L64,56.34l1.38,4.73a91.29,91.29,0,0,0,15,29.79l5.74,7.52Z"/><path class="cls-1" d="M10.25,51.41V22.78H15V51.41Z"/><path class="cls-1" d="M20.28,22.78h8.65a12.81,12.81,0,0,1,4.94.73A8.28,8.28,0,0,1,37,26a12.83,12.83,0,0,1,2.2,4.51,25,25,0,0,1,.8,6.9,22.13,22.13,0,0,1-.84,6.45A13.16,13.16,0,0,1,37,48.19a8.22,8.22,0,0,1-3.12,2.41,11.62,11.62,0,0,1-4.69.81h-8.9ZM25,27.62v19h3.56a9.2,9.2,0,0,0,3.31-.43,4.07,4.07,0,0,0,1.68-1.3,7.6,7.6,0,0,0,1.08-2.74,22.63,22.63,0,0,0,.43-4.94,22.62,22.62,0,0,0-.44-5,6.61,6.61,0,0,0-1.37-2.89A4.36,4.36,0,0,0,31,27.88a18.61,18.61,0,0,0-3.85-.26Z"/><path class="cls-1" d="M111.48,44h-4.09V42.78A10.6,10.6,0,0,1,108,38.7a11.24,11.24,0,0,1,2.58-3.44,18,18,0,0,0,2.56-2.89,3.79,3.79,0,0,0,.43-1.82,3.76,3.76,0,0,0-3.89-3.88q-3.61,0-4.45,4.8l-4.13-.62a8.78,8.78,0,0,1,2.53-6,8,8,0,0,1,5.91-2.34,8.22,8.22,0,0,1,6,2.36,8,8,0,0,1,2.4,5.9,7.29,7.29,0,0,1-.84,3.41,21.09,21.09,0,0,1-3.61,4.4,8.07,8.07,0,0,0-1.77,2.32A9.29,9.29,0,0,0,111.48,44Zm-4.09,7.38V45.92h4.5v5.49Z"/><path class="cls-1" d="M15.69,118.49l2.29.89a6.41,6.41,0,0,1-1.79,3.51A4.46,4.46,0,0,1,13.12,124a4.55,4.55,0,0,1-3.72-1.77,8.49,8.49,0,0,1-1.64-5.51A9,9,0,0,1,9.41,111a4.67,4.67,0,0,1,3.86-1.79,4.42,4.42,0,0,1,3.3,1.34A5.78,5.78,0,0,1,18,113.38l-2.34.69a3.12,3.12,0,0,0-.9-1.78,2.2,2.2,0,0,0-1.58-.62A2.5,2.5,0,0,0,11,112.8a6.49,6.49,0,0,0-.82,3.74,6.9,6.9,0,0,0,.8,3.85,2.44,2.44,0,0,0,2.08,1.14,2.15,2.15,0,0,0,1.62-.73A4.7,4.7,0,0,0,15.69,118.49Z"/><path class="cls-1" d="M30.8,123.76H28.23l-1-3.25H22.5l-1,3.25H19l4.57-14.32h2.51Zm-4.36-5.67-1.62-5.31-1.59,5.31Z"/><path class="cls-1" d="M32.21,123.76V109.44h3.54l2.14,9.77L40,109.44h3.57v14.32H41.36V112.48L39,123.76H36.74l-2.32-11.28v11.28Z"/><path class="cls-1" d="M46.1,123.76V109.44h3.81a12.05,12.05,0,0,1,2.78.2,3.24,3.24,0,0,1,1.73,1.42,5.19,5.19,0,0,1,.67,2.79,5.3,5.3,0,0,1-.58,2.61A3.36,3.36,0,0,1,53,117.93a7.59,7.59,0,0,1-3,.43H48.46v5.4Zm2.36-11.9v4.07h1.31a5.9,5.9,0,0,0,1.8-.18,1.63,1.63,0,0,0,.78-.67,2.24,2.24,0,0,0,.3-1.19,2.2,2.2,0,0,0-.31-1.21,1.59,1.59,0,0,0-.77-.65,7.11,7.11,0,0,0-2-.17Z"/><path class="cls-1" d="M71.71,123.76H69.15l-1-3.25h-4.7l-1,3.25H59.93l4.57-14.32H67Zm-4.36-5.67-1.62-5.31-1.59,5.31Z"/><path class="cls-1" d="M80.67,118.49l2.3.89a6.41,6.41,0,0,1-1.79,3.51A4.46,4.46,0,0,1,78.11,124a4.55,4.55,0,0,1-3.72-1.77,8.49,8.49,0,0,1-1.64-5.51A9,9,0,0,1,74.4,111a4.66,4.66,0,0,1,3.86-1.79,4.43,4.43,0,0,1,3.3,1.34A5.87,5.87,0,0,1,83,113.38l-2.34.69a3.12,3.12,0,0,0-.9-1.78,2.22,2.22,0,0,0-1.58-.62A2.5,2.5,0,0,0,76,112.8a6.49,6.49,0,0,0-.82,3.74,6.9,6.9,0,0,0,.8,3.85,2.43,2.43,0,0,0,2.08,1.14,2.15,2.15,0,0,0,1.62-.73A4.61,4.61,0,0,0,80.67,118.49Z"/><path class="cls-1" d="M87.84,123.76v-11.9H84.35v-2.42h9.33v2.42H90.2v11.9Z"/><path class="cls-1" d="M95.34,123.76V109.44h2.37v14.32Z"/><path class="cls-1" d="M103.18,123.76,99,109.44h2.57l3,10.6,2.88-10.6h2.52l-4.21,14.32Z"/><path class="cls-1" d="M111.32,123.76V109.44H120v2.42h-6.35V115h5.9v2.41h-5.9v3.88h6.56v2.43Z"/></svg>