<svg id="Layer_1" data-name="Layer 1" xmlns="http://www.w3.org/2000/svg" width="128" height="128" viewBox="0 0 128 128"><defs><style>.cls-1{fill:#61ce63;}</style></defs><title>Artboard 6</title><path d="M111.06,98.38,65.59,18.91,73,6.11a1.38,1.38,0,0,0-.5-1.88,1.37,1.37,0,0,0-1.87.5L64,16.15v0l0,0L57.37,4.73A1.37,1.37,0,1,0,55,6.11l7.4,12.82L16.94,98.38H9.68v3.74H118.32V98.38Zm-69.22,0,5.74-7.52a91.29,91.29,0,0,0,15-29.79L64,56.34l1.38,4.73a91.29,91.29,0,0,0,15,29.79l5.74,7.52Z"/><path class="cls-1" d="M10.25,51.41V22.78H15V51.41Z"/><path class="cls-1" d="M20.28,22.78h8.65a12.81,12.81,0,0,1,4.94.73A8.28,8.28,0,0,1,37,26a12.83,12.83,0,0,1,2.2,4.51,25,25,0,0,1,.8,6.9,22.13,22.13,0,0,1-.84,6.45A13.16,13.16,0,0,1,37,48.19a8.22,8.22,0,0,1-3.12,2.41,11.62,11.62,0,0,1-4.69.81h-8.9ZM25,27.62v19h3.56a9.2,9.2,0,0,0,3.31-.43,4.07,4.07,0,0,0,1.68-1.3,7.6,7.6,0,0,0,1.08-2.74,22.63,22.63,0,0,0,.43-4.94,22.62,22.62,0,0,0-.44-5,6.61,6.61,0,0,0-1.37-2.89A4.36,4.36,0,0,0,31,27.88a18.61,18.61,0,0,0-3.85-.26Z"/><path class="cls-1" d="M111.48,44h-4.09V42.78A10.6,10.6,0,0,1,108,38.7a11.24,11.24,0,0,1,2.58-3.44,18,18,0,0,0,2.56-2.89,3.79,3.79,0,0,0,.43-1.82,3.76,3.76,0,0,0-3.89-3.88q-3.61,0-4.45,4.8l-4.13-.62a8.78,8.78,0,0,1,2.53-6,8,8,0,0,1,5.91-2.34,8.22,8.22,0,0,1,6,2.36,8,8,0,0,1,2.4,5.9,7.29,7.29,0,0,1-.84,3.41,21.09,21.09,0,0,1-3.61,4.4,8.07,8.07,0,0,0-1.77,2.32A9.29,9.29,0,0,0,111.48,44Zm-4.09,7.38V45.92h4.5v5.49Z"/><path class="cls-1" d="M28.23,118.49l2.29.89a6.41,6.41,0,0,1-1.79,3.51A4.44,4.44,0,0,1,25.66,124a4.55,4.55,0,0,1-3.72-1.77,8.49,8.49,0,0,1-1.64-5.51A9,9,0,0,1,22,111a4.67,4.67,0,0,1,3.86-1.79,4.42,4.42,0,0,1,3.3,1.34,5.78,5.78,0,0,1,1.39,2.84l-2.34.69a3.12,3.12,0,0,0-.9-1.78,2.2,2.2,0,0,0-1.58-.62,2.51,2.51,0,0,0-2.12,1.13,6.49,6.49,0,0,0-.82,3.74,7,7,0,0,0,.8,3.85,2.44,2.44,0,0,0,2.08,1.14,2.13,2.13,0,0,0,1.62-.73A4.52,4.52,0,0,0,28.23,118.49Z"/><path class="cls-1" d="M43.34,123.76H40.77l-1-3.25H35l-1,3.25H31.55l4.57-14.32h2.51ZM39,118.09l-1.62-5.31-1.59,5.31Z"/><path class="cls-1" d="M44.75,123.76V109.44h3.54l2.14,9.77,2.12-9.77h3.56v14.32H53.9V112.48l-2.34,11.28H49.28L47,112.48v11.28Z"/><path class="cls-1" d="M58.64,123.76V109.44h3.81a12.05,12.05,0,0,1,2.78.2A3.24,3.24,0,0,1,67,111.06a5.19,5.19,0,0,1,.68,2.79,5.3,5.3,0,0,1-.59,2.61,3.36,3.36,0,0,1-1.47,1.47,7.59,7.59,0,0,1-3,.43H61v5.4ZM61,111.86v4.07h1.32a5.82,5.82,0,0,0,1.79-.18,1.63,1.63,0,0,0,.78-.67,2.24,2.24,0,0,0,.3-1.19,2.2,2.2,0,0,0-.31-1.21,1.59,1.59,0,0,0-.77-.65,7.11,7.11,0,0,0-2-.17Z"/><path class="cls-1" d="M73.78,116.69a10.29,10.29,0,0,1,.75-4.22,5.77,5.77,0,0,1,2-2.46,5.25,5.25,0,0,1,3-.81,5.09,5.09,0,0,1,4.11,1.92,8.38,8.38,0,0,1,1.58,5.48,8.52,8.52,0,0,1-1.68,5.61,5.41,5.41,0,0,1-8,0A8.41,8.41,0,0,1,73.78,116.69Zm2.44-.1a6,6,0,0,0,.94,3.7,2.81,2.81,0,0,0,2.33,1.24,2.77,2.77,0,0,0,2.31-1.23,8.1,8.1,0,0,0,0-7.44,2.79,2.79,0,0,0-2.34-1.19,2.83,2.83,0,0,0-2.36,1.2A6.14,6.14,0,0,0,76.22,116.59Z"/><path class="cls-1" d="M87.29,123.76v-14.2h2.36v11.77h5.9v2.43Z"/><path class="cls-1" d="M97.43,109.44h4.32a6.28,6.28,0,0,1,2.47.37,4.07,4.07,0,0,1,1.54,1.23,6.2,6.2,0,0,1,1.1,2.26,12.45,12.45,0,0,1,.4,3.44,11.05,11.05,0,0,1-.42,3.23,6.36,6.36,0,0,1-1.06,2.17,4.07,4.07,0,0,1-1.56,1.21,5.78,5.78,0,0,1-2.34.41H97.43Zm2.36,2.42v9.47h1.78a4.79,4.79,0,0,0,1.66-.21,2,2,0,0,0,.84-.65,4,4,0,0,0,.54-1.37,11.69,11.69,0,0,0,.21-2.47,11.12,11.12,0,0,0-.22-2.51,3.22,3.22,0,0,0-.68-1.44,2.19,2.19,0,0,0-1.13-.69,8.87,8.87,0,0,0-1.92-.13Z"/></svg>