<svg id="Layer_1" data-name="Layer 1" xmlns="http://www.w3.org/2000/svg" width="128" height="128" viewBox="0 0 128 128"><title>Artboard 7</title><path d="M42.56,118.49l2.29.89a6.41,6.41,0,0,1-1.79,3.51A4.44,4.44,0,0,1,40,124a4.55,4.55,0,0,1-3.72-1.77,8.49,8.49,0,0,1-1.64-5.51A9,9,0,0,1,36.28,111a4.67,4.67,0,0,1,3.86-1.79,4.42,4.42,0,0,1,3.3,1.34,5.78,5.78,0,0,1,1.39,2.84l-2.34.69a3.12,3.12,0,0,0-.9-1.78,2.2,2.2,0,0,0-1.58-.62,2.51,2.51,0,0,0-2.12,1.13,6.49,6.49,0,0,0-.82,3.74,7,7,0,0,0,.8,3.85A2.44,2.44,0,0,0,40,121.53a2.13,2.13,0,0,0,1.62-.73A4.52,4.52,0,0,0,42.56,118.49Z"/><path d="M57.67,123.76H55.1l-1-3.25h-4.7l-1,3.25H45.88l4.57-14.32H53Zm-4.36-5.67-1.62-5.31-1.59,5.31Z"/><path d="M59.14,123.76V109.44h2.3L66.25,119v-9.56h2.21v14.32H66.07l-4.72-9.34v9.34Z"/><path d="M70.67,116.69a10.29,10.29,0,0,1,.75-4.22,5.77,5.77,0,0,1,2-2.46,5.22,5.22,0,0,1,3-.81,5.09,5.09,0,0,1,4.11,1.92,10.25,10.25,0,0,1-.1,11.09,5.41,5.41,0,0,1-8,0A8.41,8.41,0,0,1,70.67,116.69Zm2.44-.1a6,6,0,0,0,.94,3.7,2.81,2.81,0,0,0,2.33,1.24,2.77,2.77,0,0,0,2.31-1.23,8.1,8.1,0,0,0,0-7.44,2.79,2.79,0,0,0-2.34-1.19,2.82,2.82,0,0,0-2.36,1.2A6.14,6.14,0,0,0,73.11,116.59Z"/><path d="M84.12,123.76V109.44h8.71v2.42H86.48V115h5.9v2.41h-5.9v3.88H93v2.43Z"/><path d="M125,87.19a26.85,26.85,0,0,1-8.3,1.29H38.37L28,69.68a2,2,0,0,0,.6-.4,2.05,2.05,0,0,0,0-2.9L23.28,61l-1-1.89,0-.86V58L31,56.74a2,2,0,0,0-.59-4.05l-8.27,1.2L18.88,53l-1.95-3.55a5.19,5.19,0,1,0-2.38-4.36s0,0,0,0l-3.1-5.64-1.28.7,6.93,12.62a3.36,3.36,0,0,0-2.91,3.31V71c0,2.37,2.14,7.8,2.14,7.8L14.2,88.19a2.85,2.85,0,0,0,0,.29H0a7.42,7.42,0,0,0,2.82,5.91C7.51,98,13.38,97,19.18,97c30.54-.14,61.07,0,91.61.09,7.53,0,13.77-1.83,17.21-10.78C127,86.53,126,86.86,125,87.19Zm-98.13.35s-3.06-10.4-4.78-16.27h0l.09-5.6,3.61,3.61a2.06,2.06,0,0,0,.64.43L36.71,88.48H26.89A2.73,2.73,0,0,0,26.83,87.54Zm-7.49.65,1-4.47c.65,2.23,1.18,4,1.4,4.76H19.31A2.85,2.85,0,0,0,19.34,88.19Z"/></svg>