<svg id="Layer_1" data-name="Layer 1" xmlns="http://www.w3.org/2000/svg" width="128" height="128" viewBox="0 0 128 128"><title>Artboard 10</title><path d="M40.38,12.3l2.29.89a6.47,6.47,0,0,1-1.78,3.51,4.48,4.48,0,0,1-3.08,1.1A4.54,4.54,0,0,1,34.09,16a8.57,8.57,0,0,1-1.64-5.51A9,9,0,0,1,34.1,4.8,4.68,4.68,0,0,1,38,3a4.43,4.43,0,0,1,3.3,1.35,5.74,5.74,0,0,1,1.39,2.84l-2.34.68a3.15,3.15,0,0,0-.9-1.78,2.25,2.25,0,0,0-1.58-.62A2.53,2.53,0,0,0,35.71,6.6a6.53,6.53,0,0,0-.82,3.74,7,7,0,0,0,.8,3.85,2.44,2.44,0,0,0,2.08,1.14,2.14,2.14,0,0,0,1.62-.72A4.6,4.6,0,0,0,40.38,12.3Z"/><path d="M55.49,17.56H52.92l-1-3.24h-4.7l-1,3.24H43.7L48.27,3.24h2.51ZM51.13,11.9,49.51,6.58,47.92,11.9Z"/><path d="M58.38,17.56V5.67H54.89V3.24h9.32V5.67H60.74V17.56Z"/><path d="M68.59,17.56V5.67H65.11V3.24h9.32V5.67H71V17.56Z"/><path d="M76.24,17.56V3.36H78.6V15.14h5.9v2.42Z"/><path d="M86.4,17.56V3.24h8.71V5.67H88.76V8.84h5.9v2.41h-5.9v3.89h6.56v2.42Z"/><path d="M37.63,123.76v-11.9H34.15v-2.42h9.32v2.42H40v11.9Z"/><path d="M45.22,123.76V109.44h5a6.89,6.89,0,0,1,2.73.39,3,3,0,0,1,1.35,1.33,4.68,4.68,0,0,1,.53,2.28,4.27,4.27,0,0,1-.81,2.71,3.62,3.62,0,0,1-2.29,1.29A5.76,5.76,0,0,1,53,118.63,18.4,18.4,0,0,1,54.34,121l1.42,2.8H52.94l-1.72-3.12A20,20,0,0,0,50,118.53a1.8,1.8,0,0,0-.7-.59,3.15,3.15,0,0,0-1.19-.16h-.49v6Zm2.36-8.27h1.76a8.51,8.51,0,0,0,2-.14,1.27,1.27,0,0,0,.71-.57,2.14,2.14,0,0,0,.28-1.14,2,2,0,0,0-.28-1.1,1.35,1.35,0,0,0-.74-.57,9.37,9.37,0,0,0-1.92-.11H47.58Z"/><path d="M67.84,123.76H65.27l-1-3.25h-4.7l-1,3.25H56.05l4.57-14.32h2.51Zm-4.36-5.67-1.62-5.31-1.59,5.31Z"/><path d="M69.21,123.76V109.44h2.36v14.32Z"/><path d="M74.11,123.76v-14.2h2.36v11.77h5.9v2.43Z"/><path d="M83.66,119.09l2.32-.28c.26,1.83,1.11,2.75,2.56,2.75a2.42,2.42,0,0,0,1.68-.56,1.82,1.82,0,0,0,.62-1.39,1.53,1.53,0,0,0-.21-.83,1.6,1.6,0,0,0-.66-.56,16.21,16.21,0,0,0-2.13-.74,7.1,7.1,0,0,1-2.21-1,3.59,3.59,0,0,1-1.12-1.41,4.23,4.23,0,0,1-.42-1.87,4.14,4.14,0,0,1,.54-2.11,3.45,3.45,0,0,1,1.46-1.42,5.08,5.08,0,0,1,2.32-.47,4.06,4.06,0,0,1,4.46,4.33l-2.37.13a2.55,2.55,0,0,0-.68-1.61,2.11,2.11,0,0,0-1.47-.46,2.32,2.32,0,0,0-1.47.4,1.18,1.18,0,0,0-.52,1,1.21,1.21,0,0,0,.47,1,6.52,6.52,0,0,0,2.16.88,9,9,0,0,1,2.58,1.09,3.69,3.69,0,0,1,1.21,1.47,5.23,5.23,0,0,1,.42,2.2,4.52,4.52,0,0,1-1.14,3.13A4.62,4.62,0,0,1,88.47,124Q84.15,124,83.66,119.09Z"/><path d="M128,37.55V29.7s-26.19-.08-26.88,0l-.88.07-.78.43c-5.22,2.92-28.68,16.12-38,22.73a122.5,122.5,0,0,0-12.38-9.47c-10.24-7-11.17-6.71-13.37-7.13a8.83,8.83,0,0,0-2-.16c-2,0-6,0-12.61-.12a13.1,13.1,0,0,0-4.36.65,9.59,9.59,0,0,1-3,.49,6.66,6.66,0,0,0-4,1.32,14.21,14.21,0,0,0-3.59-1.54L0,35.27v8.29l4.06,1.1A6.57,6.57,0,0,1,6.5,46a4.37,4.37,0,0,0,1.1,1.25,20,20,0,0,0,3.07,1.87c2.87,1.51,5.82,3.07,8.46,10.52l.35,1,.12,2.12-.87.17C8.19,64,6.61,64.88,3.14,66.13A25.6,25.6,0,0,1,0,66.64v8.6s6.68-1,7.74-1.69c1.64-.54,6.92-1.72,11.61-2.66l9.48,2.61c-5.7,3-12.87,6.92-17.24,9.52C8.49,84.87,0,89.89,0,89.89v8.65H0v2s17.38-10.88,22.79-14.1l1.31-.78a25.49,25.49,0,0,1,4.62,2.59c3,2.61,5.21,6.52,9.75,8.35a16.46,16.46,0,0,0,6.16,1.17,15.93,15.93,0,0,0,1.95-.11l2-.22c11.77-1.31,25.1-2.79,33-10.14l0,0L83,85.7c.31.23.6.46.91.71C90.05,91.22,94,94.2,96.76,94.94l.42.12.44,0c.52,0,1.24,0,2.12,0,2.72,0,7-.09,11.74-.2,5.13-.12,16.52-.27,16.52-.27v-8h-2c-4.25,0-9.59.14-14.75.26-5.38.12-10.29-.41-12.54-.45-1.76-.81-6.52-5.54-9.42-7.95,1.75-1.8,3.59-3.59,5.29-5.24,2.08-2,3.94-3.84,5.36-5.39,4.27-.35,8.86-.46,12-.5l1,.37c1,.38,15,3.29,15,3.29V62.6s-8.48-1.07-11.2-2c-2-2.55-7.8-9.29-13.85-12.19-3.94-1.89-8.81-2.7-14.06-3,4.82-2.8,9.62-5.54,13.7-7.82C105.65,37.39,128,37.55,128,37.55ZM18.65,44.65A11,11,0,0,1,21,44c4.46.09,7.7.15,10.08.16a15.82,15.82,0,0,1,8.53,2.53A161.72,161.72,0,0,1,54.79,57.66c-7.11,4.51-14.26,8-16.77,8H38a51.41,51.41,0,0,0-9-7.76c-1-.7-1.85-1.32-2.61-1.93a.21.21,0,0,1,0-.06C24,49.91,21.22,46.67,18.65,44.65ZM76,81.6l0,0c-6,5.41-16.39,6.88-26.81,8h0L46,89.73h0A10.84,10.84,0,0,1,40.8,87c-3.11-2.35-5-2.6-7.65-4.91a7,7,0,0,0-1.34-.9C39,77,46.51,72.72,46.63,72.66a1.49,1.49,0,0,0,.45-.36c1-.46,2.1-1,3.26-1.62,2.68-1.46,6.79-5.05,8.81-6.32a.11.11,0,0,1,.16,0c4,6.57,12.23,12.84,17.41,16.35Zm23.48-26a24.43,24.43,0,0,1,5.66,4.14c-2.28,0-4.85.09-7.31.23A4,4,0,0,0,95,61.47h0c-1.19,1.47-3.48,3.7-5.91,6.06-2.27,2.21-4.76,4.64-7.07,7.11-6.41-4.27-13.92-10.48-16.23-15,2.12-1.53,5.65-3.78,9.85-6.34C84.68,53.14,94,53,99.49,55.64Z"/></svg>