<svg id="Layer_1" data-name="Layer 1" xmlns="http://www.w3.org/2000/svg" width="128" height="128" viewBox="0 0 128 128"><title>Artboard 11</title><path d="M40.27,118.49l2.29.89a6.47,6.47,0,0,1-1.78,3.51A4.48,4.48,0,0,1,37.7,124,4.55,4.55,0,0,1,34,122.23a8.49,8.49,0,0,1-1.64-5.51A9,9,0,0,1,34,111a4.67,4.67,0,0,1,3.86-1.79,4.42,4.42,0,0,1,3.3,1.34,5.78,5.78,0,0,1,1.39,2.84l-2.34.69a3.12,3.12,0,0,0-.9-1.78,2.2,2.2,0,0,0-1.58-.62,2.51,2.51,0,0,0-2.12,1.13,6.49,6.49,0,0,0-.82,3.74,7,7,0,0,0,.8,3.85,2.44,2.44,0,0,0,2.08,1.14,2.12,2.12,0,0,0,1.62-.73A4.52,4.52,0,0,0,40.27,118.49Z"/><path d="M55.38,123.76H52.81l-1-3.25h-4.7l-1,3.25H43.59l4.57-14.32h2.51ZM51,118.09l-1.62-5.31-1.59,5.31Z"/><path d="M58.27,123.76v-11.9H54.78v-2.42H64.1v2.42H60.63v11.9Z"/><path d="M68.48,123.76v-11.9H65v-2.42h9.32v2.42H70.85v11.9Z"/><path d="M76.13,123.76v-14.2h2.36v11.77h5.9v2.43Z"/><path d="M86.29,123.76V109.44H95v2.42H88.65V115h5.9v2.41h-5.9v3.88h6.56v2.43Z"/><path d="M15.53,96.63c-.83.16-3.21.48-4.69.67a4.71,4.71,0,0,1,0,.92c-.13,1.67.29,2.24,1.86,2.26a16,16,0,0,1,3.32.14c.51.1,1.14.18,1.45-.39a1.37,1.37,0,0,0-.42-1.62A12.88,12.88,0,0,1,15.53,96.63Z"/><path d="M117.34,9c-2.24,2.63-1.91,4.47-4,6.17s-4.25,1.75-6.72.51a8.72,8.72,0,0,0-8.15.69c-3.46,2.18-6.32-3.16-6.59-6-.19-1.86,1.67-3.71,1.37-5.58A14.46,14.46,0,0,0,91.46,0c-.1.1-.2.19-.2.23C92.77,7.17,89.09,8.79,89,11.46c-.19,3.73,2.1,6.23,4.1,7.85a2.77,2.77,0,0,0-1.9.75,9,9,0,0,1,.67.86l2.5.58-.16.36s-1.66-.59-2.44-.82l-.08,0-.06-.1a10.93,10.93,0,0,0-1.92-2,7.5,7.5,0,0,0-1.12-.71c-.42-.2-.86-.36-1.31-.53a9.1,9.1,0,0,0-2.76-.6,4.07,4.07,0,0,0-1.4.14,1.42,1.42,0,0,0-.91.62,3.7,3.7,0,0,0,.58.86c.26.31.56.62.85.93.59.61,1.23,1.18,1.85,1.78.31.28.67.67.89.83a2.87,2.87,0,0,0,1,.36,7.74,7.74,0,0,0,2.44-.12l.27-.05.07.21c.18.68.4,2.09.4,2.09h0a.78.78,0,0,1,0,.16l-.4.2c-.14-.38-.21-.84-.33-1.21s-.16-.6-.25-.9a5.87,5.87,0,0,1-2,.18,3.46,3.46,0,0,1-1.37-.34,6.69,6.69,0,0,1-1-.88q-.3-.27-.6-.57a18.07,18.07,0,0,0-6.93,2.66c-4.67.31-9.62-1.4-14.24-.31a13.57,13.57,0,0,1-3.7.37c-8.24-.32-16.87-3.29-25-5.12-5.51-1.26-10.53-.22-16.06.09-2.51.13-4.14,2.22-5.41,4.29-1.39,2.25-1.58,5.37-1.82,8-.65,6.77-.12,13.55,0,20.33.05,2.48.39,4.9-1.64,6.57a5.12,5.12,0,0,0-1.7,3.82C8,64.1,8,65.85,7.8,68A5.89,5.89,0,0,0,10,66c0,.19,0,.36,0,.54s0,.31,0,.48c.12-.18.24-.36.35-.54a17.93,17.93,0,0,0,2.06-4.77c.24-.77.46-1.54.73-2.3.05-3.78-.22-7.76-.28-11.46-.08-4.14-.18-8.28-.2-12.42a34.85,34.85,0,0,1,.78-5.09l-.18,2.21c-.27,3-.72,6.1.06,9a46.3,46.3,0,0,1,1.12,9.93,22.25,22.25,0,0,1-.8,6.45c.18-.47.39-.94.62-1.4a11.74,11.74,0,0,1,3.35-4.17l.06.07a11.56,11.56,0,0,0-3,4.29A33,33,0,0,0,13,61.88c-.22.86-.43,1.73-.72,2.6-.17.43-.33.85-.53,1.28A8.77,8.77,0,0,1,11,66.94a11,11,0,0,1-1.14,1.41c-.2,5,0,11.4-.26,16-.17,3-.29,6.85-.77,9.78-.16.83.05,1.44,1,1.31.67-.09.85.33.91.88l4.06-.94a7.68,7.68,0,0,1-.63-2.72,60.93,60.93,0,0,1,.46-12.3A7.49,7.49,0,0,1,16,77.08a20.82,20.82,0,0,1,1.77-4.82,21.25,21.25,0,0,1,2.44-3.69,18.84,18.84,0,0,1,3.19-3.12,5,5,0,0,1,.48-.32c.2-.1.33-.18.47-.26a9.09,9.09,0,0,0,.86-.61c.54-.45,1.07-1,1.57-1.46,1-1,2-2.09,2.93-3.19.47-.55.93-1.12,1.36-1.69h0l.15-.32a3,3,0,0,1,.42-.77,2.05,2.05,0,0,1,.66-.68l.05,0a3.77,3.77,0,0,0,.39-.51,3.39,3.39,0,0,0,.23-.34c1.34-2.16,2.38-6.26,2.85-7.1.61-1.15-.2-9.68-.32-10.85l2.11,11.41L33,57.13c.28.07,2.88,2.2,4.8,3.24A1.11,1.11,0,0,0,39,60.28a8.39,8.39,0,0,1,4.63-1.68c2.61-.19,15.89,5.1,25.92,3.26-1.85-3.34-5.31-9.69-5.58-10s3.56-7.4,4-8.17a78.49,78.49,0,0,0-2,8.17c-.12,1.69,4.69,8.53,5.06,10a.06.06,0,0,1,0,0,1.19,1.19,0,0,1,0,.22.11.11,0,0,1,0,0h0a2.62,2.62,0,0,1,0,.41c0,4.24,0,11.78,0,16a4.9,4.9,0,0,0,.62,2.94,2,2,0,0,1,.29,1.2c-.09,3.89-.4,8.59-2,12.18a3.67,3.67,0,0,0-.32,1.2c-.1,1.17.32,1.6,1.39,1.22.79-.29,1.38-.44,1.38-.44l4.18-1.41c-.61-.69-.54-2.69-.73-3.71a43.57,43.57,0,0,1-.36-7.22c0-2.89,1.07-5.55,1.27-8.39a84.25,84.25,0,0,1,1.08-9.37,1.11,1.11,0,0,1,.32-.66c1.72-2.87,5.14-11.11,5.63-14.52,0,5-1.63,8.49-2.23,10.41-1.21,1.82-2,3.3-2,3.92.09,4,.8,7.2.85,9.86a4.84,4.84,0,0,0,.68,2.92,2.08,2.08,0,0,1,.31,1.2c0,3.89-.23,8.59-1.78,12.21a3.53,3.53,0,0,0-.3,1.2c-.07,1.19.36,1.61,1.42,1.2.79-.3,1.37-.47,1.37-.47l4.29-1.39c-.62-.68-.74-2.78-.94-3.79A42.56,42.56,0,0,1,85,81.72c0-2.88,1-5.56,1.09-8.41a87.37,87.37,0,0,1,.89-9.4,1.05,1.05,0,0,1,.31-.65c.52-.92,1.19-2.37,1.9-4a13.93,13.93,0,0,0,2.58-6.12,8.8,8.8,0,0,1,1.87-4.4C95,47,96.4,45.31,97.84,43.66A4,4,0,0,1,99,42.58L95.8,38.69V30.85l1.25,7.09s2.57,2.49,4.59,4.26c2.56.5,5.07,3,5.5,3.39,1.73,1.62,3.24,1.46,4.86-.26a1.9,1.9,0,0,1,.42-.31c.57-.36,1.57-.24,1.64-1.16a14.19,14.19,0,0,0,.1-2.15,2.86,2.86,0,0,0-.3.59c-.44.7-.88.81-1.09.45a1.22,1.22,0,0,1,.15-1.18,2.62,2.62,0,0,1,1.1-.66,3.74,3.74,0,0,0-.76-1.32c-2-2.22-3.27-7.72-3-11,.08-.91-.79-2.27-.14-2.85,1.43-1.31,3.48-2,4.26-3.81.37-.86,1-1.8.23-2.55a3.27,3.27,0,0,0-1.92-.94,9.74,9.74,0,0,0,2.94-2.75c1.18-1.64,1.1-3.39,2.06-5.27.48-1,1.62-1.56,2.5-2.56A4.17,4.17,0,0,0,117.34,9ZM101.46,29.18A2.1,2.1,0,0,1,99.9,29a2,2,0,0,1-.64-1.44.35.35,0,0,1,.28-.38,1.6,1.6,0,0,1,2.2,1.63A.37.37,0,0,1,101.46,29.18Zm8-9.38.4-.16c-.12.27-.29.61-.52,1s-.5.07-.51-.29S109.2,19.91,109.46,19.8Zm.73,23a1.2,1.2,0,0,1,.59,1c-.06.41-.51.48-1.17,0,0,0-.53-.55-.69-.46a.34.34,0,0,1-.34-.57C108.86,42.39,109.93,42.67,110.19,42.8Z"/><path d="M26.94,95a6.4,6.4,0,0,1-.4-.51c-.82.3-3.63,1.07-5,1.45.64,2.34.89,2.38,3.78,2.65,1.05.09,2.45.43,3-.47s-.74-1.74-1.1-2.67A1.74,1.74,0,0,0,26.94,95Z"/><path d="M28.08,63.19c-.51.52-1,1-1.59,1.53a6.45,6.45,0,0,1-.91.7c-.35.23-.59.34-.88.57a23.84,23.84,0,0,0-5.25,6.69,22.56,22.56,0,0,0-1.85,4.14A27.05,27.05,0,0,1,19.1,85c.17,2.59.23,6.07.38,8.68,0,.71,0,1.61,1.09.73.32-.25.59-.13.67.31l0,.1.47-.06,4-1.54c-1.81-3-2.62-6.88-3.11-10.21a15,15,0,0,1,1.08-9.14c2-4,5.48-10,7.64-14.54l-.4.51C30,61,29.09,62.12,28.08,63.19Z"/><path d="M77.14,97.06c-.89.16-3.43.51-5,.71a5.35,5.35,0,0,1,0,1c-.15,1.79.3,2.4,2,2.42a16.74,16.74,0,0,1,3.54.14c.55.11,1.22.19,1.55-.42s0-1.26-.45-1.73A14.55,14.55,0,0,1,77.14,97.06Z"/><path d="M86.7,94.39c-.89.17-3.43.51-5,.72a5.24,5.24,0,0,1,0,1c-.15,1.79.3,2.4,2,2.42a16.74,16.74,0,0,1,3.54.15c.55.11,1.22.19,1.55-.42s0-1.26-.45-1.73A13.46,13.46,0,0,1,86.7,94.39Z"/></svg>