<svg id="Layer_1" data-name="Layer 1" xmlns="http://www.w3.org/2000/svg" width="128" height="128" viewBox="0 0 128 128"><title>Artboard 13 copy</title><path d="M46.21,109.44h4.32a6.28,6.28,0,0,1,2.47.37A4.07,4.07,0,0,1,54.54,111a6.36,6.36,0,0,1,1.1,2.26,12.45,12.45,0,0,1,.4,3.44,11.05,11.05,0,0,1-.42,3.23,6.36,6.36,0,0,1-1.06,2.17A4.07,4.07,0,0,1,53,123.35a5.81,5.81,0,0,1-2.34.41H46.21Zm2.36,2.42v9.47h1.78a4.69,4.69,0,0,0,1.65-.21,1.93,1.93,0,0,0,.84-.65,3.82,3.82,0,0,0,.55-1.37,11.69,11.69,0,0,0,.21-2.47,11.12,11.12,0,0,0-.22-2.51,3.33,3.33,0,0,0-.68-1.44,2.19,2.19,0,0,0-1.13-.69,8.87,8.87,0,0,0-1.92-.13Z"/><path d="M57.77,116.69a10.28,10.28,0,0,1,.76-4.22,5.7,5.7,0,0,1,2-2.46,5.15,5.15,0,0,1,3-.81,5.06,5.06,0,0,1,4.1,1.92,8.38,8.38,0,0,1,1.59,5.48,8.52,8.52,0,0,1-1.68,5.61,4.92,4.92,0,0,1-4,1.79,5,5,0,0,1-4-1.77A8.41,8.41,0,0,1,57.77,116.69Zm2.45-.1a6.11,6.11,0,0,0,.93,3.7,2.83,2.83,0,0,0,2.33,1.24,2.79,2.79,0,0,0,2.32-1.23,6.27,6.27,0,0,0,.92-3.76,6.1,6.1,0,0,0-.9-3.68,2.76,2.76,0,0,0-2.34-1.19,2.81,2.81,0,0,0-2.35,1.2A6.14,6.14,0,0,0,60.22,116.59Z"/><path d="M76.69,118.5v-2.42h5.1v5.7a6.18,6.18,0,0,1-2.19,1.57,6.79,6.79,0,0,1-2.84.65,5.58,5.58,0,0,1-3.06-.85,5.83,5.83,0,0,1-2.11-2.56,9.6,9.6,0,0,1-.77-4,9.48,9.48,0,0,1,.78-4,6,6,0,0,1,2-2.51,5.29,5.29,0,0,1,3-.83A5,5,0,0,1,80,110.26a5.12,5.12,0,0,1,1.63,3.14l-2.35.54a3.07,3.07,0,0,0-1-1.69,2.54,2.54,0,0,0-1.68-.58,3,3,0,0,0-2.46,1.17,5.75,5.75,0,0,0-.93,3.59,6.52,6.52,0,0,0,1,3.94,2.81,2.81,0,0,0,2.36,1.16,3.57,3.57,0,0,0,1.44-.33,4.37,4.37,0,0,0,1.33-.89V118.5Z"/><path d="M32.7,75.41C30,78.07,28,80,26.54,81.49l7.87,18.6h8.26c-.29-1.24-1-3.32-3.42-3.32a1,1,0,0,1-.85-.48c-.29-.38-.57-.66-.95-1.14-1.9-2.09-4.75-5.31-4-14.33a4.29,4.29,0,0,1,2.38-3.51c3.6-1.9,13.09-7,13.38-15.47A48.94,48.94,0,0,0,38.78,60.7C39.35,63.07,39.54,68.77,32.7,75.41Z"/><path d="M72.56,75a10.07,10.07,0,0,0,1-1,24.34,24.34,0,0,0,3.7-3.89,70.49,70.49,0,0,1-13.48-2.18c.29,3.32-.09,12.14-.09,12.24,0,.28.57,6.74.95,10.91.09.38,1.42,3.32,2.56,6l1.52,2.18a2,2,0,0,0,1.52.76h6.83A3.72,3.72,0,0,0,76,97.62a3.15,3.15,0,0,0-2.37-.85,1.07,1.07,0,0,1-.76-.29c-3.8-3.6-3.89-13.57-2.37-18.6A18.49,18.49,0,0,1,72.56,75Z"/><path d="M124,23.21a10.91,10.91,0,0,0-3.32-2,4,4,0,0,1-3-4.17,4.75,4.75,0,0,0-1-3.14c-2.18-2.46-7-5-7-5a.94.94,0,0,1-.38-1.32L111.57,3c-3.7,1.61-10.63,4.84-13.57,7.5-2.66,2.37-5.51,6.74-8,10.53-2.19,3.42-4.08,6.36-5.79,7.88-4,3.51-13,7.31-26.29,7.31a81.93,81.93,0,0,1-12.81-1.43c-8.07-1.33-15.57-2.65-22,.76a12.14,12.14,0,0,0-5.41,5.89C17.42,42,17,43,16.57,43.9a33.9,33.9,0,0,0-1.9,5.41c-.09.38-.19.76-.28,1C12.58,55,8.5,61.75,3.28,69.43A64.69,64.69,0,0,0,15.05,53a.1.1,0,0,1,.1-.1.09.09,0,0,1,.09-.09.3.3,0,0,1,.19-.1s.1,0,.1-.09h.09c.1,0,.1,0,.19.09s.1,0,.19.1h0l.1.09c.09,0,.09.1.19.19s.09.09.09.19.1.09.1.19v.28l-.86,17.47v.09L14.1,79.78A12.68,12.68,0,0,0,14,83.57l2.18,16.71a1.57,1.57,0,0,0,1.61,1.33h7.31c-.47-1.33-1.42-3.23-3.23-3.23a.94.94,0,0,1-.94-.66c-.57-2-.38-6.93-.1-10.73a7.68,7.68,0,0,1,2-4.55c1.33-1.43,3.8-4.09,8.45-8.55,6.26-6,6-11,5.51-12.9h0c0-.1-.1-.19-.1-.29a7.67,7.67,0,0,0-1.61-3.32,1,1,0,0,1-.1-1.33A1,1,0,0,1,36.41,56a11.05,11.05,0,0,1,1.7,2.84h.48c4.17,0,14.61.67,21.64,5.41,4.17,3,13.85,3.71,18.12,4a19.16,19.16,0,0,1-3-6.93,1,1,0,0,1,.85-1.14,1,1,0,0,1,1.14.76,16.73,16.73,0,0,0,3.89,7.59c.85.48,1.8,2.38,1.33,13.29,0,.29.57,6.74,1,10.92.09.37,1.42,3.32,2.56,6l1.52,2.19a2,2,0,0,0,1.52.76h6.83a3.72,3.72,0,0,0-1.14-2.38,3.15,3.15,0,0,0-2.37-.85,1.07,1.07,0,0,1-.76-.29c-4-3.89-2.85-19.93-1-24.29a33.85,33.85,0,0,1,3.23-5c2.56-3.51,5.79-7.78,6.55-13.57,1-8.07,2.46-25,2.65-28.28A9.08,9.08,0,0,1,100,24.07a.93.93,0,0,1,.48-1.33,1,1,0,0,1,1.33.38,7.77,7.77,0,0,0,2.84,2.37l6.46,2.75a7,7,0,0,0,3.13.48l7.31-.57A2.52,2.52,0,0,0,123.43,27l.57-1A1.78,1.78,0,0,0,124,23.21Zm-10.44-4.46a1.72,1.72,0,0,1-1.8-1.7,1.78,1.78,0,0,1,1.8-1.71,1.73,1.73,0,0,1,1.81,1.71A1.78,1.78,0,0,1,113.56,18.75Z"/></svg>