<svg id="Layer_1" data-name="Layer 1" xmlns="http://www.w3.org/2000/svg" width="128" height="128" viewBox="0 0 128 128"><title>Artboard 13 copy 2</title><path d="M29,109.44h4.32a6.28,6.28,0,0,1,2.47.37A4.07,4.07,0,0,1,37.34,111a6.36,6.36,0,0,1,1.1,2.26,12.45,12.45,0,0,1,.4,3.44,11.05,11.05,0,0,1-.42,3.23,6.36,6.36,0,0,1-1.06,2.17,4.07,4.07,0,0,1-1.56,1.21,5.81,5.81,0,0,1-2.34.41H29Zm2.36,2.42v9.47h1.78a4.69,4.69,0,0,0,1.65-.21,1.93,1.93,0,0,0,.84-.65,3.82,3.82,0,0,0,.55-1.37,11.69,11.69,0,0,0,.21-2.47,11.12,11.12,0,0,0-.22-2.51,3.33,3.33,0,0,0-.68-1.44,2.19,2.19,0,0,0-1.13-.69,8.87,8.87,0,0,0-1.92-.13Z"/><path d="M40.58,116.69a10.29,10.29,0,0,1,.75-4.22,5.77,5.77,0,0,1,2-2.46,5.15,5.15,0,0,1,3-.81,5.09,5.09,0,0,1,4.11,1.92,10.25,10.25,0,0,1-.1,11.09,4.92,4.92,0,0,1-4,1.79,5,5,0,0,1-4-1.77A8.4,8.4,0,0,1,40.58,116.69Zm2.44-.1a6,6,0,0,0,.94,3.7,2.8,2.8,0,0,0,4.64,0,6.27,6.27,0,0,0,.92-3.76,6.17,6.17,0,0,0-.89-3.68,2.91,2.91,0,0,0-4.7,0A6.14,6.14,0,0,0,43,116.59Z"/><path d="M54.05,123.76V109.44h2.3L61.16,119v-9.56h2.2v14.32H61l-4.73-9.34v9.34Z"/><path d="M66.08,123.76V109.44h2.37v6.37l4.79-6.37h3.2L72,115l4.66,8.74H73.61L70.37,117l-1.92,2.4v4.33Z"/><path d="M78.1,123.76V109.44h8.71v2.42H80.46V115h5.9v2.41h-5.9v3.88H87v2.43Z"/><path d="M92.31,123.76v-6L88,109.44h2.77l2.76,5.66,2.72-5.66H99l-4.31,8.31v6Z"/><path d="M127.86,43.9a12.93,12.93,0,0,0-.91-2.69c-.4-.89-.87-1.77-1.36-2.64-.24-.44-.49-.87-.76-1.3l-.2-.32a3.6,3.6,0,0,1-.22-.37l-.15-.29A15.64,15.64,0,0,1,123,38.75a7.58,7.58,0,0,1-1.18,1.49,4.8,4.8,0,0,1-.79.62,4.16,4.16,0,0,1-.47.24l-.4.18a33,33,0,0,0-3.06,1.78q-.77.44-1.5.9a8.66,8.66,0,0,0-1.06.77c.43.16.87.31,1.31.45l.58.18.29.09a1.23,1.23,0,0,1,.47.24,3.33,3.33,0,0,1,.83,1.21c.36.79.59,1.58.9,2.31a3.18,3.18,0,0,0,.53.94s.05,0,.07.06l.12.06a1.3,1.3,0,0,0,.25.1,2,2,0,0,0,.54.1,2.9,2.9,0,0,0,2-.8l0,0c-.23-.46-.46-.92-.67-1.39-.44-.93-.87-1.87-1.25-2.83a.1.1,0,0,1,.06-.13.09.09,0,0,1,.11,0c.68.78,1.33,1.59,2,2.41q.48.62.93,1.23l.45.6.1,0,.32-.15c.21-.1.41-.21.61-.33a7.5,7.5,0,0,0,1.12-.79,7.67,7.67,0,0,0,.94-1c.14-.17.27-.35.4-.53l.18-.28.12-.22A4.31,4.31,0,0,0,127.86,43.9Zm-2,2.64c-.37.05-.76-.63-.88-1.52s.09-1.65.46-1.69,0,1.14.88,1.52S126.26,46.49,125.89,46.54Z"/><path d="M116.39,42a8.39,8.39,0,0,1,1.66-.91,18.9,18.9,0,0,1,1.77-.67l.45-.14a2.67,2.67,0,0,0,.36-.14,3.65,3.65,0,0,0,.69-.44,8,8,0,0,0,1.22-1.25A15.64,15.64,0,0,0,124.12,36l-.06-.15c-.79-2-1.31-3.93-2-5.87a46.27,46.27,0,0,1-1.94-5.9c-.06-.25-.1-.51-.15-.77s-.08-.44-.14-.67a7.7,7.7,0,0,0-.45-1.3,9.45,9.45,0,0,0-1.5-2.38A8.07,8.07,0,0,0,113,16.12c-.24.69-.49,1.38-.79,2.07a.1.1,0,0,1-.13,0,.1.1,0,0,1-.06-.09,38.32,38.32,0,0,1,.11-4.16c.11-1.37.25-2.74.44-4.1s.47-2.7.75-4c.23-1.1.46-2.2.71-3.28a2.6,2.6,0,0,0-1,.48,6.4,6.4,0,0,0-1.53,1.66A14.74,14.74,0,0,0,109.7,9l-1.36,4.34a35.78,35.78,0,0,1-1.7,4.39.1.1,0,0,1-.13.05.11.11,0,0,1-.06-.09,17.47,17.47,0,0,1,0-1.92l-1.76,1c-1,.58-2,1.16-3.06,1.69S99.59,19.55,98.52,20c-.54.24-1.07.48-1.63.7s-1,.41-1.58.65c-2.06.93-4.06,2.06-6.08,3.19-1,.58-2,1.13-3.06,1.68a34.48,34.48,0,0,1-3.23,1.54,20.52,20.52,0,0,1-3.55.76c-1.17.17-2.33.29-3.5.4-2.33.2-4.66.33-7,.48s-4.65.28-7,.39-4.66.23-7,.17a48.24,48.24,0,0,1-7-.69c-2.31-.36-4.6-.78-6.89-1.26s-4.56-1-6.83-1.48c-1.14-.25-2.27-.53-3.4-.81l-1.7-.43c-.57-.15-1.12-.27-1.74-.48-1.19-.4-2.22-.9-3.24-1.21a7.32,7.32,0,0,0-3-.33,7.58,7.58,0,0,0-1.53.32l-1.65.52c-1.1.35-2.18.71-3.25,1.11a29.26,29.26,0,0,0-6.1,3A14.07,14.07,0,0,0,6,30.42a8.07,8.07,0,0,0-1.69,2.87s0,0,0,0A21.59,21.59,0,0,0,5,40.42,64.31,64.31,0,0,0,7.16,47.3C8,49.57,8.89,51.79,9.83,54s2,4.41,3,6.58l.07.15v.14a17.64,17.64,0,0,1,.1,2.94,6.37,6.37,0,0,1-1,3c-1,1.52-1.76,3.23-2.64,4.91a20.8,20.8,0,0,1-1.45,2.48,4.56,4.56,0,0,0-.55,2.49,11.33,11.33,0,0,0,.36,2.71A11.18,11.18,0,0,0,8.68,82l0,.06v.08c0,1.3.12,2.62.23,3.93s.25,2.62.4,3.93c.29,2.54.61,5.09.94,7.62.61.66,1.2,1.34,1.8,2l3.83-1.09-1.27-1.79-.12-.17,0-.22c-.65-4.14-1.36-8.19-1.73-12.45l0-.42a5,5,0,0,1,0-.54,3.52,3.52,0,0,1,.11-.53L13,82c.19-.54.39-1,.6-1.52.42-1,.85-1.93,1.29-2.88l1.31-2.82.32-.75a6.23,6.23,0,0,1,.49-.8c.33-.46.68-.87,1-1.28,1.41-1.61,2.88-3.09,4.35-4.58.74-.75,1.49-1.46,2.14-2.23s1.32-1.58,1.93-2.41c.31-.41.6-.83.88-1.26a8,8,0,0,0,.73-1.29c.39-1,.82-1.93,1.23-2.89s.82-1.91,1.2-2.88a18.65,18.65,0,0,0,1-2.92h0a.1.1,0,0,1,.11-.08.11.11,0,0,1,.08.11,19.46,19.46,0,0,1-.82,3c-.33,1-.68,1.94-1,2.9a62,62,0,0,0,9,5.06,33.7,33.7,0,0,0,10.06,3,88.79,88.79,0,0,0,10.56.34,13,13,0,0,0,5.06-1.08,24.74,24.74,0,0,0,2.33-1.23c.58-.33,1.64-.86,2.43-1.3.14-1,.3-2,.49-2.94.32-1.53.67-3.1,1.09-4.57v0a.09.09,0,0,1,.12-.06.1.1,0,0,1,.07.1c-.14,1.6-.33,3.12-.43,4.69s-.21,3.1-.26,4.65,0,3.09,0,4.62a35.68,35.68,0,0,0,.53,4.53v.09a32.59,32.59,0,0,1,.17,3.31,6.93,6.93,0,0,1-.21,1.84,2.93,2.93,0,0,1-.52,1l-.27.33s0,0,0,.06h0s0,0,0,0a4.67,4.67,0,0,0-.15,1.31c0,.5,0,1,.08,1.54a13,13,0,0,0,.62,3l.07.18,0,.12c-.16.94-.27,2-.39,2.93s-.19,2-.28,3l-.2,3-.13,2.83c.82.75,1.63,1.5,2.46,2.24l4.45-.81v0c-.84-.64-1.69-1.29-2.52-1.94L73.74,97l0-.38c-.08-1.61-.16-3.22-.21-4.83L73.34,87v-.21l.1-.22c.64-1.45,1.21-3,1.74-4.46.26-.75.5-1.5.68-2.24.08-.37.16-.74.21-1.08a3.38,3.38,0,0,0,0-.81l0-.55.13-.24A30.86,30.86,0,0,0,77.68,74c.46-1.08.9-2.17,1.31-3.28s.79-2.22,1.12-3.34c.16-.56.31-1.12.43-1.68a7.84,7.84,0,0,0,.2-1.57l0-.33.18-.19a20.4,20.4,0,0,0,1.52-1.92c.49-.68,1-1.38,1.44-2.08,1-1.38,1.9-2.8,2.86-4.2a.11.11,0,0,1,.14,0,.1.1,0,0,1,0,.12c-.72,1.54-1.51,3-2.29,4.55-.41.75-.83,1.49-1.26,2.23s-.78,1.3-1.26,2a7.69,7.69,0,0,1,0,1.28,27.09,27.09,0,0,0,5.34-5.91l1.21-1.75A21.42,21.42,0,0,1,90,56.05a3.35,3.35,0,0,1,.54-.5,1.27,1.27,0,0,0,.25-.22,3.29,3.29,0,0,0,.47-.73c.3-.58.6-1.26.92-1.92a42.8,42.8,0,0,1,4.73-7.57,17.12,17.12,0,0,1,3.27-3,22.42,22.42,0,0,1,2.76-1.73,9.26,9.26,0,0,1-1-1.14,9.15,9.15,0,0,1-1.24-2.48,6,6,0,0,1-.26-2.71.1.1,0,0,1,.12-.08.11.11,0,0,1,.08.07,9.18,9.18,0,0,0,1.11,2.24,12.13,12.13,0,0,0,1.52,1.88,7.78,7.78,0,0,0,3.74,2.3l.42.09.19.23a11.37,11.37,0,0,0,3.72,2.61c.92.45,1.88.84,2.85,1.2a3.73,3.73,0,0,1,.77-1.34A7.59,7.59,0,0,1,116.39,42Zm-2.48-14a5.78,5.78,0,0,1-.9-.62c.23-.06.72-.25,1.12-.41a1.59,1.59,0,0,1,1.68-.53,1.66,1.66,0,0,1,1.13.93,4.72,4.72,0,0,1,1.48,2.15,13.82,13.82,0,0,0-1.56-1,1.59,1.59,0,0,1-1.76.64A1.63,1.63,0,0,1,113.91,28Z"/><path d="M82,66c-.09.62-.21,1.22-.34,1.82-.27,1.19-.59,2.36-1,3.52s-.75,2.31-1.2,3.44-.84,2-1.36,3a5,5,0,0,1,0,1.17,10.64,10.64,0,0,1-.25,1.32c-.21.84-.47,1.64-.75,2.43s-.58,1.56-.91,2.32-.6,1.38-.93,2.08l0,4.6c0,1.5,0,3,0,4.5l1.63,1.44,4.6-.83c-.14-.08-2.35-2.52-2.35-2.52L79,94.2V94l-.46-9.66v-.14l.07-.17c.62-1.47,1.19-3,1.68-4.51.23-.76.45-1.52.6-2.28a9.06,9.06,0,0,0,.17-1.09,2.66,2.66,0,0,0,0-.82L81,74.83l.16-.3c.53-1,1-2,1.51-3.11s.94-2.16,1.39-3.25.88-2.2,1.29-3.31l.23-.66A12.16,12.16,0,0,1,82,66S82,66,82,66Z"/><path d="M27.32,63.23c-.57.89-1.17,1.76-1.81,2.6s-1.35,1.65-2,2.44c-1.37,1.57-2.77,3.13-4,4.73-.32.4-.62.8-.89,1.2a3.58,3.58,0,0,0-.31.54l-.27.7c-.4,1-.81,1.94-1.23,2.9s-.83,1.9-1.21,2.85c-.19.47-.37,1-.52,1.4a2.1,2.1,0,0,0-.12,1.15c.15,2,.46,4.08.7,6.13l.78,6,1.14,1.69c.72-.35,1.44-.67,2.18-1,.53-.21,1.07-.4,1.61-.59l-.38-.52c-.34-.46-.66-.94-1-1.43l-.11-.18,0-.1c-.26-1.41-.29-2.84-.42-4.26a42.12,42.12,0,0,0-.64-4.2A22.26,22.26,0,0,1,18.15,81a5,5,0,0,1,.16-1.23,9.92,9.92,0,0,1,.38-1.09c.28-.69.58-1.35.91-2A20,20,0,0,1,22,73a10.54,10.54,0,0,1,.8-.87c.4-.35.59-.47.86-.71.5-.44,1-.91,1.49-1.4a29.94,29.94,0,0,0,2.72-3.12,10.94,10.94,0,0,0,1.61-2.81A14.93,14.93,0,0,1,28.08,62C27.84,62.41,27.58,62.82,27.32,63.23Z"/><path d="M5.47,58.06a17,17,0,0,0-.66-2.69,6.12,6.12,0,0,0-1.13-2.21L3.48,53l0-.19a15.33,15.33,0,0,1-.28-3.3c0-1.06.06-2.11.13-3.16s.19-2.09.37-3.13a20.85,20.85,0,0,1,.49-2.35c0-.07,0-.15,0-.22a26.47,26.47,0,0,1-.32-3.67,14.42,14.42,0,0,1,.26-3.15,8.79,8.79,0,0,0-.7,1.74c-.23.76-.41,1.54-.59,2.32s-.32,1.57-.46,2.36l-.4,2.38c-.22,1.59-.44,3.18-.56,4.76-.06.79-.13,1.58-.14,2.36a9.62,9.62,0,0,0,.1,2.19l.07.35-.12.22a10.59,10.59,0,0,0-.93,3A20.16,20.16,0,0,0,0,58.75a16.79,16.79,0,0,0,.28,3.32,9.87,9.87,0,0,0,1.08,3.09l0,0v.06A8.6,8.6,0,0,1,1.45,69c0,.1-.06.21-.09.31A14,14,0,0,0,3.19,68,7.82,7.82,0,0,0,5.8,63.55a8.66,8.66,0,0,0,.06-1.29c0-.47,0-.93-.05-1.4C5.74,59.92,5.62,59,5.47,58.06Z"/><path d="M113.05,15.9a6.29,6.29,0,0,1,3.06.34c.66-1.3,1.38-2.5,2.08-3.69l1.15-2c.38-.64.78-1.26,1.11-1.91a12.43,12.43,0,0,0,.8-2,4,4,0,0,0,.21-1,2.62,2.62,0,0,0,0-.28A4.76,4.76,0,0,0,121,6a8.13,8.13,0,0,0-.64,1c-.39.68-.67,1.43-1,2.16v0l-.21.18a14.18,14.18,0,0,1-1.37,1.05c-.49.31-1,.62-1.49.91a23.28,23.28,0,0,1-2.12,1.06q-.24.95-.51,1.89C113.41,14.8,113.24,15.35,113.05,15.9Z"/><path d="M82.37,26.28c1-.43,2-1,3-1.55l3-1.67A56.28,56.28,0,0,1,94.75,20c.54-.22,1.15-.42,1.67-.59S97.5,19,98,18.82c1.07-.41,2.14-.84,3.21-1.28l3.2-1.34,2.09-.9c.07-.79.18-1.57.31-2.35.08-.42.16-.83.26-1.24-2.11.94-4.25,1.77-6.38,2.58-2.47,1-5.12,1.51-7.5,2.69s-4.44,2.86-6.76,4.24A15.81,15.81,0,0,1,82.7,23a8.54,8.54,0,0,1-3.59.22c-.06.74-.13,1.49-.22,2.23s-.16,1.27-.26,1.91l.54-.11A23.56,23.56,0,0,0,82.37,26.28Z"/><path d="M59.54,66.46A66.55,66.55,0,0,1,48.88,66a34.13,34.13,0,0,1-10.13-3.26C35.64,61.23,32.48,60,29.68,58c-.35,1-.53,1.41-.86,2.36a9,9,0,0,1-.63,1.44c.43.31.73.58,1.1.88l1.07.89c.72.58,1.43,1.15,2.16,1.7s1.46,1.08,2.22,1.58L37,68.31a17.32,17.32,0,0,0,4.91,2.38,12,12,0,0,0,2.73.36,20.1,20.1,0,0,0,2.77-.21q2.76-.41,5.5-.85c1.83-.29,3.64-.67,5.47-1,3.47-.56,6.94-1.14,10.49-1.57,0-1.17.09-2.34.22-3.5,0-.52.13-1,.2-1.54a44.43,44.43,0,0,1-4.53,2.74A13.09,13.09,0,0,1,59.54,66.46Z"/><path d="M18.52,102.16,17,100c-1.33.33-2.66.64-4,1l.49,1.58h5.36l-.31-.41Z"/><path d="M21.69,97.39c-.57.11-1.14.2-1.71.28-.73.1-1.48.18-2.23.23l.2.3a.85.85,0,0,1,.26.24l1.61,2.21H24l-2.19-3Z"/><path d="M124,49.57l0,.07s0,0,0,0,0,0,0,0S124,49.58,124,49.57Z"/><polygon points="72.96 100.68 73.55 102.58 78.9 102.58 77.18 100.23 72.96 100.68"/><path d="M77.71,98.51l2.2,2.15H84.2S82,97.52,81.86,97.34Z"/></svg>