<svg id="Layer_1" data-name="Layer 1" xmlns="http://www.w3.org/2000/svg" width="128" height="128" viewBox="0 0 128 128"><defs><style>.cls-1{fill:#2d2d2d;}</style></defs><title>Artboard 2</title><path d="M4.62,109.44H8.94a6.28,6.28,0,0,1,2.47.37A4.07,4.07,0,0,1,13,111a6.2,6.2,0,0,1,1.1,2.26,12.45,12.45,0,0,1,.4,3.44A11.05,11.05,0,0,1,14,120,6.36,6.36,0,0,1,13,122.14a4.07,4.07,0,0,1-1.56,1.21,5.78,5.78,0,0,1-2.34.41H4.62ZM7,111.86v9.47H8.76a4.69,4.69,0,0,0,1.65-.21,1.88,1.88,0,0,0,.84-.65,3.82,3.82,0,0,0,.55-1.37,11.69,11.69,0,0,0,.21-2.47,11.12,11.12,0,0,0-.22-2.51,3.33,3.33,0,0,0-.68-1.44A2.19,2.19,0,0,0,10,112a8.87,8.87,0,0,0-1.92-.13Z"/><path d="M16.67,123.76V109.44h5a6.91,6.91,0,0,1,2.74.39,3,3,0,0,1,1.35,1.33,4.68,4.68,0,0,1,.52,2.28,4.32,4.32,0,0,1-.8,2.71,3.62,3.62,0,0,1-2.29,1.29,5.76,5.76,0,0,1,1.26,1.19A17.46,17.46,0,0,1,25.79,121l1.43,2.8H24.39l-1.71-3.12a20,20,0,0,0-1.26-2.11,1.87,1.87,0,0,0-.7-.59,3.19,3.19,0,0,0-1.19-.16H19v6ZM19,115.49h1.75a8.61,8.61,0,0,0,2.06-.14,1.27,1.27,0,0,0,.71-.57,2.14,2.14,0,0,0,.27-1.14,2,2,0,0,0-.27-1.1,1.35,1.35,0,0,0-.74-.57,9.5,9.5,0,0,0-1.93-.11H19Z"/><path d="M31.19,123.76v-6l-4.3-8.29h2.78l2.75,5.66,2.73-5.66h2.72l-4.32,8.31v6Z"/><path d="M39.17,123.76V109.44h2.37v14.32Z"/><path d="M44,123.76V109.44h2.31l4.8,9.56v-9.56h2.21v14.32H51l-4.72-9.34v9.34Z"/><path d="M61.51,118.5v-2.42h5.1v5.7a6.22,6.22,0,0,1-2.18,1.57,6.83,6.83,0,0,1-2.85.65,5.52,5.52,0,0,1-3.06-.85,5.83,5.83,0,0,1-2.11-2.56,9.76,9.76,0,0,1-.77-4,9.48,9.48,0,0,1,.78-4,6,6,0,0,1,2-2.51,5.29,5.29,0,0,1,3-.83,4.61,4.61,0,0,1,5,4.2l-2.35.54a3,3,0,0,0-1-1.69,2.54,2.54,0,0,0-1.68-.58A3,3,0,0,0,59,112.84a5.68,5.68,0,0,0-.94,3.59,6.52,6.52,0,0,0,1,3.94,2.81,2.81,0,0,0,2.36,1.16,3.57,3.57,0,0,0,1.44-.33,4.25,4.25,0,0,0,1.33-.89V118.5Z"/><path d="M73.77,123.76V109.44h5a6.91,6.91,0,0,1,2.74.39,3,3,0,0,1,1.34,1.33,4.58,4.58,0,0,1,.53,2.28,4.32,4.32,0,0,1-.8,2.71,3.62,3.62,0,0,1-2.29,1.29,6.25,6.25,0,0,1,1.26,1.19A17.46,17.46,0,0,1,82.89,121l1.43,2.8H81.49l-1.71-3.12a20,20,0,0,0-1.26-2.11,1.82,1.82,0,0,0-.71-.59,3.12,3.12,0,0,0-1.19-.16h-.48v6Zm2.37-8.27h1.75a8.45,8.45,0,0,0,2-.14,1.29,1.29,0,0,0,.72-.57,2.14,2.14,0,0,0,.27-1.14,2,2,0,0,0-.27-1.1,1.37,1.37,0,0,0-.75-.57,9.37,9.37,0,0,0-1.92-.11H76.14Z"/><path d="M96.39,123.76H93.82l-1-3.25H88.1l-1,3.25H84.61l4.57-14.32h2.51ZM92,118.09l-1.62-5.31-1.59,5.31Z"/><path d="M105.35,118.49l2.3.89a6.48,6.48,0,0,1-1.79,3.51,4.46,4.46,0,0,1-3.07,1.11,4.58,4.58,0,0,1-3.73-1.77,8.55,8.55,0,0,1-1.64-5.51A8.91,8.91,0,0,1,99.08,111a4.66,4.66,0,0,1,3.86-1.79,4.45,4.45,0,0,1,3.3,1.34,5.87,5.87,0,0,1,1.39,2.84l-2.34.69a3.18,3.18,0,0,0-.9-1.78,2.22,2.22,0,0,0-1.58-.62,2.48,2.48,0,0,0-2.12,1.13,6.49,6.49,0,0,0-.82,3.74,6.9,6.9,0,0,0,.8,3.85,2.43,2.43,0,0,0,2.08,1.14,2.15,2.15,0,0,0,1.62-.73A4.61,4.61,0,0,0,105.35,118.49Z"/><path d="M109.9,123.76V109.44h2.36v6.37l4.8-6.37h3.2L115.83,115l4.66,8.74h-3.07L114.18,117l-1.92,2.4v4.33Z"/><path class="cls-1" d="M72.83,85.37a7.22,7.22,0,0,1-2.28,2.19A9.5,9.5,0,0,1,67.2,88.8a13.77,13.77,0,0,1-1.92.22l-.4.11c1.63.51,3.24,1,4.83,1.61a.32.32,0,0,0,.09,0,14,14,0,0,1,2.33-1.41,9.74,9.74,0,0,1,1.35-.54l.64-.21a1.52,1.52,0,0,0,.48-.31,1.55,1.55,0,0,0,.13-2.13A2.17,2.17,0,0,0,72.83,85.37Z"/><path class="cls-1" d="M56.06,78.56a6.2,6.2,0,0,1-1.12-1.64,9.33,9.33,0,0,1-.64-1.84c0-.08,0-.15-.06-.22A14,14,0,0,0,53,78.64a9.06,9.06,0,0,0,0,2.75A7.24,7.24,0,0,0,53.9,84a7.82,7.82,0,0,0,1.81,2.09,11.61,11.61,0,0,0,2.4,1.49,14.39,14.39,0,0,0,1.58.62,5.22,5.22,0,0,1-.82-.67A3.9,3.9,0,0,1,58,86.22a4.14,4.14,0,0,1,0-3,6,6,0,0,1,.66-1.31,5.33,5.33,0,0,1,.94-1.15,2.34,2.34,0,0,1,0,.26c0,.07,0,.14,0,.23s.06.29.1.44a4,4,0,0,0,.33.83,2.52,2.52,0,0,0,1.13,1.17A3.34,3.34,0,0,0,62.82,83a3.63,3.63,0,0,0,1-1.38,7.2,7.2,0,0,0,.48-1.72,9.09,9.09,0,0,0,.09-1.8l0-1.59.78,1.37A13.71,13.71,0,0,1,66,79.6a18.25,18.25,0,0,1,.63,1.75A13.81,13.81,0,0,1,67,83.18,8.58,8.58,0,0,1,67,84.43l.25-.25a10.22,10.22,0,0,0,.66-.79c.22-.27.42-.55.62-.84l.61-.88.26-.38.08.45c.08.47.18.94.24,1.42a4,4,0,0,1-.06,1.47A5.91,5.91,0,0,1,69.17,86a5.27,5.27,0,0,1-.85,1.19,6.61,6.61,0,0,1-2,1.42c.27-.06.53-.11.79-.18a9.81,9.81,0,0,0,3.12-1.36,6.64,6.64,0,0,0,2.2-2.48,8.9,8.9,0,0,0,.9-3.2A13.68,13.68,0,0,0,73.2,78c0-.28-.11-.56-.17-.83s-.12-.56-.19-.87a8.72,8.72,0,0,1-.16-.89,9,9,0,0,1-.1-.91A11.51,11.51,0,0,1,73.44,69a6.12,6.12,0,0,0-.64.5,7.56,7.56,0,0,0-1.49,2A14.19,14.19,0,0,0,70,76.63l-.12,1.21L69.05,77c-.94-1.06-2-2-3-3.16-.25-.27-.46-.6-.7-.9l-.29-.51-.14-.25-.11-.27a5.25,5.25,0,0,1-.22-.55l-.14-.57c0-.1,0-.19-.07-.29l0-.27,0-.58a11.09,11.09,0,0,1,1-4.36c.25-.69.6-1.33.91-2,.16-.31.32-.63.49-.94-.43.3-.87.6-1.29.94-.7.56-1.42,1.11-2.07,1.74a24.59,24.59,0,0,0-1.89,1.93,17.89,17.89,0,0,0-1.62,2.16,13.19,13.19,0,0,0-2,4.94,11.28,11.28,0,0,0,.4,5.23l.24.77-.76-.3A4.89,4.89,0,0,1,56.06,78.56Z"/><path class="cls-1" d="M55.21,92.79l-.38.18-.57.27-.14.07-.11.06a1,1,0,0,0-.2.12A1.53,1.53,0,0,0,53.17,95a1.45,1.45,0,0,0,.47.78,1.88,1.88,0,0,0,.88.44,2.07,2.07,0,0,0,1-.06l.78-.28a2.5,2.5,0,0,0,.27-.93c0-.22,0-.43,0-.65a1.45,1.45,0,0,0-.2-.66A2.12,2.12,0,0,0,55.21,92.79Z"/><path class="cls-1" d="M56,92.39a2.74,2.74,0,0,1,1.13.75,3.07,3.07,0,0,1,.56,1,2,2,0,0,1,0,1.15,1,1,0,0,1-.09.21L59,94.92l4.23-1.49L58,91.22A23.05,23.05,0,0,1,56,92.39Z"/><path class="cls-1" d="M71.89,92.56c-.83-.37-1.66-.72-2.47-1.11-1.61-.72-3.21-1.49-4.8-2.28A6.26,6.26,0,0,1,61.48,89a2.24,2.24,0,0,1-.34-.11l-.39-.06a14.13,14.13,0,0,1-2.85-.77,10.14,10.14,0,0,1-4.14-2.93,1.62,1.62,0,0,0-.7.43,2.82,2.82,0,0,0-.32.57l-.28.61a5.74,5.74,0,0,0-.26.6,1.11,1.11,0,0,0,0,.6,1.28,1.28,0,0,0,.86.8l5.05,1.92,10.1,3.9,1.94.75a1.82,1.82,0,0,1,0-1,2.7,2.7,0,0,1,.56-1,2.55,2.55,0,0,1,1.15-.76Z"/><path class="cls-1" d="M74.35,93.62,72.8,93l-.11,0a2.07,2.07,0,0,0-1.22.9,1.34,1.34,0,0,0-.2.66,3.53,3.53,0,0,0,0,.65,2.87,2.87,0,0,0,.14.6L72,96l.64.24a1.58,1.58,0,0,0,.51.14,1,1,0,0,0,.81-.26A.44.44,0,0,0,74.1,96s0-.06.05-.08l.07-.16.3-.6.14-.3a2.9,2.9,0,0,0,.13-.27.64.64,0,0,0,0-.36A.82.82,0,0,0,74.35,93.62Z"/><path class="cls-1" d="M105.75,3V8.87c-3.1.72-6.31,1.3-9.46,1.73-1.28.19-2.56.35-3.83.5l.06-.75c0-.51.11-1,.15-1.5a.78.78,0,0,0-.83-1l-.79,0-.44,0-.08.48-.42,2.54-.08.54c-1.49.16-3,.3-4.48.42-4.42.37-8.83.59-13.26.69l-.06-.37L72,10.54l0-.1v0a.79.79,0,0,0,0-.13.46.46,0,0,0-.05-.1,1,1,0,0,0-.3-.34l-.13-.07a.38.38,0,0,0-.11-.05.58.58,0,0,0-.37,0h0l-.1,0a3.62,3.62,0,0,0-.48,0,1.15,1.15,0,0,0-.59.3l-.18.06a1.78,1.78,0,0,0-.3.14.88.88,0,0,0-.24.26.7.7,0,0,0-.07.31,1.59,1.59,0,0,0,.09.5l.1.38.21.82c-1.8,0-3.61,0-5.42,0H53.09c-3.31,0-6.61-.05-9.91-.2,0-.11,0-.21,0-.31l.05-1.11c0-.74.09-1.48.16-2.22l0-.39-.37.07-.13-.11a1.13,1.13,0,0,0-.38-.19A2,2,0,0,0,42.19,8l-.3,0a1.68,1.68,0,0,0-.38,0,.78.78,0,0,0-.3.12.84.84,0,0,0-.25.29,1.5,1.5,0,0,0-.11.45l0,.32c0,.78-.07,1.55-.07,2.32v.67a74,74,0,0,1-9.13-1.3c-3.12-.6-6.31-1.36-9.44-2V3H16.72V97.5h5.46V40.14c3.07.82,6.26,1.45,9.38,2,1.11.2,2.23.38,3.34.57-.07.45-.15.89-.24,1.33v.11h0a1.58,1.58,0,0,0-.31.09,1.9,1.9,0,0,0-.9.8c-.09.12-.16.26-.21.34a1.05,1.05,0,0,1-.16.2c-.07.08-.18.21-.26.32a3.82,3.82,0,0,0-.26.33,1.43,1.43,0,0,0-.17.31,1,1,0,0,0,0,.1v.06l0,.09-.1.39L32,48l-.19.76a4.52,4.52,0,0,0-.13.82c0,.54-.07,1-.12,1.5l-.14,1.5a6.75,6.75,0,0,0-.06.84,3.67,3.67,0,0,0,.13.88,4.32,4.32,0,0,0,.3.79l.33.69c.22.46.45.93.72,1.39s.53.88.81,1.3.57.86.85,1.28a1.4,1.4,0,0,0,.67.57,1.63,1.63,0,0,0,.45.09l.23,0,.11,0h0a1.78,1.78,0,0,1,.31.09l.37.12.73.24.18.06,0,0h.1a.51.51,0,0,0,.18,0,1.34,1.34,0,0,0,.46-.25,1.53,1.53,0,0,0,.51-.8l.39-1.46.1-.37a1.6,1.6,0,0,1,.11-.29l.16-.34a1.82,1.82,0,0,0,.09-.24,1.11,1.11,0,0,0,0-.23v0a3.09,3.09,0,0,0,.16-.54l.05-.57a9.48,9.48,0,0,1,.18-1,1.12,1.12,0,0,0,.06-.43,1.86,1.86,0,0,0,0-.39l-.07-.28a1.85,1.85,0,0,1,0-.23,5.7,5.7,0,0,1-.12-1A3.7,3.7,0,0,1,40,52c0-.19,0-.39.05-.58,0-.38,0-.75,0-1.1V50a.22.22,0,0,1,0-.08,1,1,0,0,1,0-.14s.08-.16.11-.26a1.66,1.66,0,0,0,.15-.76,1.21,1.21,0,0,0-.4-.79l-.19-.17-.2,0h0l-.15-.07a3,3,0,0,1-.4-.24,1.86,1.86,0,0,1-.56-.73,3.12,3.12,0,0,1-.17-.46L38.19,46a.91.91,0,0,0-.18-.31,2.32,2.32,0,0,0-.44-.39l-.25-.14-.12-.07s-.08,0-.09,0c0-.25.08-.45.1-.68a2.73,2.73,0,0,1,.08-.67c.06-.19.11-.38.17-.57,1.62.23,3.24.46,4.88.64,3.89.48,7.81.8,11.73,1l0,.34a1.41,1.41,0,0,0-.22.06,2.35,2.35,0,0,0-1.08,1c-.21.36-.35.7-.48,1s-.3.57-.44.87c0,.06,0,0,0,0h0l-.07,0a1.44,1.44,0,0,0-.65.7,1.22,1.22,0,0,0-.1.54c0,.21,0,.2,0,.25a.57.57,0,0,1,0,.14.18.18,0,0,1,0,.06c0,.07,0,.14,0,.22a2.05,2.05,0,0,0,.08.77,2.09,2.09,0,0,0,.11.3l.12.29.08.18,0,.5,0,1c0,.17,0,.33,0,.52l0,.46a.92.92,0,0,0-.06.24.34.34,0,0,0,0,.1v.2l.05.46a6,6,0,0,0,.21.91l.26.83.12.38c0,.12,0,.27.08.44l0,.09a.75.75,0,0,0,.08.14l.09.11h0v0l0,0,0,.09.21.36a6,6,0,0,1,.37.76c.05.12.1.26.14.38s.07.25.12.42a2,2,0,0,0,.51.83,1.38,1.38,0,0,0,.92.38,2.07,2.07,0,0,0,.5-.06,2.71,2.71,0,0,1,.41-.09q.41-.08.84-.12a7.54,7.54,0,0,0,.88-.11,1.33,1.33,0,0,0,.87-.6l.48-.71c.14-.23.34-.48.5-.74A8,8,0,0,0,59.4,58c.26-.54.45-1.1.66-1.63a8.22,8.22,0,0,0,.55-1.75,2.79,2.79,0,0,0,0-.58,3.27,3.27,0,0,0-.11-.52c-.07-.26-.16-.53-.24-.79-.15-.53-.25-1.1-.4-1.67a11.62,11.62,0,0,0-.59-1.69,13.9,13.9,0,0,0-.78-1.6,9.62,9.62,0,0,0-1-1.44,2.54,2.54,0,0,0-.7-.56,2.26,2.26,0,0,0-.41-.15c-.11,0-.11-.15-.08-.3l.06-.41c2.54.12,5.08.19,7.61.23,1.81,0,3.62,0,5.43,0S73,45,74.82,44.93c3.61-.19,7.22-.42,10.82-.84,1.76-.2,3.52-.43,5.27-.68v.18l0,.82-.21.07a2.17,2.17,0,0,0-1.07,1c-.21.37-.34.7-.48,1s-.29.56-.43.85c0,.06,0,0,0,0h0l0,0h0l-.08.05a1.53,1.53,0,0,0-.64.7,1.55,1.55,0,0,0-.1.54c0,.21,0,.18,0,.25a.53.53,0,0,1,0,.13s0,0,0,.07a1.52,1.52,0,0,0,0,.21,1.89,1.89,0,0,0,.07.77c0,.11.07.21.1.29s.06.15.12.29l.09.17,0,.5-.06,1c0,.17,0,.33,0,.51l0,.45a.5.5,0,0,0-.06.24.27.27,0,0,0,0,.09v.09l0,.11,0,.45a4.68,4.68,0,0,0,.2.9l.26.82c0,.13.09.29.12.39s0,.26.08.43l0,.1A.6.6,0,0,0,89,57l.1.11h0v0l0,.09.2.36a7.6,7.6,0,0,1,.37.76c0,.12.1.25.14.38a3.44,3.44,0,0,1,.11.41,2,2,0,0,0,.51.82,1.44,1.44,0,0,0,.92.39,1.85,1.85,0,0,0,.48-.07l.4-.09q.42-.08.84-.12A7.29,7.29,0,0,0,94,60a1.32,1.32,0,0,0,.86-.59l.46-.71c.15-.22.35-.47.51-.73a7.69,7.69,0,0,0,.42-.8c.26-.55.46-1.09.66-1.62a8.69,8.69,0,0,0,.56-1.74,2.7,2.7,0,0,0,0-.57,2.44,2.44,0,0,0-.11-.52c-.07-.26-.16-.52-.24-.79-.15-.51-.24-1.07-.4-1.65a11.34,11.34,0,0,0-.58-1.67A14.27,14.27,0,0,0,95.34,47a10.07,10.07,0,0,0-1-1.43,2.33,2.33,0,0,0-.69-.55,2.26,2.26,0,0,0-.41-.15c-.1,0-.1-.15-.07-.29l.09-.62v0l0,0c-.07-.07-.06-.26-.06-.41s0-.3,0-.45a92.8,92.8,0,0,0,12.65-2.93V97.5h5.46V3ZM93.15,42.23v-.17c0-.65.09-1.31.16-2l0-.4-.36.07a.39.39,0,0,0-.1-.08,1,1,0,0,0-.35-.18,1.16,1.16,0,0,0-.34,0l-.26,0a2.37,2.37,0,0,0-.35,0,.67.67,0,0,0-.28.11.7.7,0,0,0-.24.28,2.25,2.25,0,0,0-.14.7c0,.66-.06,1.32-.08,2-1.79.2-3.59.36-5.39.52s-3.59.26-5.38.38-3.59.17-5.38.23c-3.59.11-7.18.18-10.78.13l-2.69,0-2.7-.08c-.75,0-1.51,0-2.27-.07l0-.84c0-.66.09-1.32.16-2l0-.4-.36.07-.1-.09a1,1,0,0,0-.35-.18,1.64,1.64,0,0,0-.34,0l-.27,0a1.42,1.42,0,0,0-.35,0,.93.93,0,0,0-.28.11.66.66,0,0,0-.24.29,2.21,2.21,0,0,0-.13.7c-.05.69-.08,1.38-.09,2.08v.2c-.28,0-.56,0-.85,0-1.8-.07-3.59-.21-5.38-.31s-3.59-.26-5.38-.44c-1.58-.14-3.15-.3-4.72-.47L38,41l.09-.34a1.51,1.51,0,0,0,.09-.46.66.66,0,0,0-.07-.29.62.62,0,0,0-.22-.25.92.92,0,0,0-.29-.13l-.14-.06a1.25,1.25,0,0,0-.55-.28,2.68,2.68,0,0,0-.43,0l-.08,0h0a.63.63,0,0,0-.35,0,.44.44,0,0,0-.12.06l-.12.07a1.14,1.14,0,0,0-.28.32.58.58,0,0,0-.07.23v.13l-.25,1.4c0,.22-.08.42-.11.64l-3.38-.42c-3.15-.4-6.36-.91-9.49-1.5V8.94c1.33.4,2.73.82,4.07,1.19,1.73.5,3.48,1,5.23,1.43a67.9,67.9,0,0,0,9.3,1.69l0,.45a2.15,2.15,0,0,0-1.45,1.17c-.23.4-.38.78-.53,1.09l-.5,1c0,.07,0,0,0,0l0,0s0,0,0,0h0l-.08,0a1.56,1.56,0,0,0-.7.75,1.49,1.49,0,0,0-.1.57,2.26,2.26,0,0,1,0,.28v.16l0,.08c0,.08,0,.15,0,.23a2,2,0,0,0,.08.84l.11.33c0,.09.07.18.12.32l.12.22h0l0,.57-.08,1.14c0,.2,0,.38,0,.58l0,.52a.93.93,0,0,0-.07.27v.2l0,.13,0,.5a6.24,6.24,0,0,0,.23,1l.28.92c.05.15.11.32.14.43s.05.31.09.49l0,.1a.53.53,0,0,0,.08.15l.11.11s0,0,0,0h0l0,0,.06.1.22.41a6.78,6.78,0,0,1,.41.86c.06.15.12.29.16.43s.08.29.13.48a2,2,0,0,0,.57.91,1.57,1.57,0,0,0,1,.43,1.64,1.64,0,0,0,.54-.07l.46-.11c.31-.06.63-.09.95-.14a9.5,9.5,0,0,0,1-.12,1.49,1.49,0,0,0,1-.67l.52-.79c.17-.26.39-.54.56-.84s.33-.6.47-.9c.28-.61.49-1.23.73-1.83a9.46,9.46,0,0,0,.61-2,2.56,2.56,0,0,0,0-.62,2.7,2.7,0,0,0-.13-.57c-.09-.31-.17-.6-.27-.9-.16-.59-.27-1.22-.43-1.87a14,14,0,0,0-.64-1.89,15.46,15.46,0,0,0-.86-1.79A10.59,10.59,0,0,0,44.54,15a2.6,2.6,0,0,0-.77-.63,1.8,1.8,0,0,0-.46-.16c-.13-.05-.12-.19-.09-.35l.05-.37c6.91.5,13.82.44,20.7.49,1.93,0,3.86,0,5.79-.06.09.3.17.6.26.91a2.5,2.5,0,0,1,.08.75c0,.26.08.49.11.77,0,0-.07,0-.12.05l-.13.07-.27.16a3.49,3.49,0,0,0-.49.45.92.92,0,0,0-.19.34l-.06.31a2.45,2.45,0,0,1-.18.54,2.11,2.11,0,0,1-.63.83,5,5,0,0,1-.45.29l-.19.09h-.07l-.2,0-.19.16a1.29,1.29,0,0,0-.43.85,1.83,1.83,0,0,0,.16.83c0,.1.11.24.13.29a.85.85,0,0,1,0,.17.25.25,0,0,1,0,.09v.45c0,.4,0,.82,0,1.25,0,.21,0,.42.06.64a5,5,0,0,1,0,.54A6.28,6.28,0,0,1,67,25.77l0,.26-.08.31a1.75,1.75,0,0,0,0,.43,1.47,1.47,0,0,0,.07.46c.08.36.15.73.2,1.12l0,.63a3.09,3.09,0,0,0,.18.61v0a.75.75,0,0,0,0,.24c0,.13.06.17.09.26l.18.38a2.69,2.69,0,0,1,.12.34l.11.41.43,1.64a1.64,1.64,0,0,0,.56.88,1.1,1.1,0,0,0,.49.27.39.39,0,0,0,.19,0l.1,0h.05l.21-.07.82-.27.41-.13.36-.1h0l.12,0a1,1,0,0,0,.25,0,1.64,1.64,0,0,0,.49-.1,1.53,1.53,0,0,0,.74-.63c.32-.47.65-1,1-1.43s.61-1,.9-1.47a15.34,15.34,0,0,0,.8-1.56l.36-.78a4.58,4.58,0,0,0,.33-.88,3.91,3.91,0,0,0,.14-1c0-.33,0-.67-.07-.93l-.17-1.69c-.07-.56-.1-1.08-.15-1.69a5.73,5.73,0,0,0-.14-.91l-.22-.85-.22-.85-.11-.43,0-.1,0-.06,0-.1a1.6,1.6,0,0,0-.19-.33c-.11-.17-.23-.28-.28-.36l-.3-.36a1,1,0,0,1-.18-.23c-.06-.1-.14-.25-.23-.39a3.37,3.37,0,0,0-.36-.45,1.75,1.75,0,0,0-.61-.4,1.69,1.69,0,0,0-.35-.1h0v-.18c-.09-.46-.17-.94-.25-1.42l2.28-.08c3.62-.2,7.25-.43,10.84-.85,1.41-.16,2.82-.34,4.22-.54,0,.34-.12.67-.19,1l0,.26.14.24s0,.09,0,.27l-.18.1-.75.39-.37.2a1.57,1.57,0,0,0-.56.49,1.4,1.4,0,0,0-.23.91.53.53,0,0,1,0,.12,3.46,3.46,0,0,1-.33.56c0,.07-.08.14-.13.24a3.21,3.21,0,0,0-.12.31l-.11.37A.78.78,0,0,1,87,18h-.19l-.87,0,.14.84c.14.73.27,1.48.43,2.21.08.37.15.73.22,1.09l.2,1.05a9.41,9.41,0,0,1,0,1.05c0,.15,0,.35,0,.58a1.65,1.65,0,0,0,.05.38,2.63,2.63,0,0,0,.08.3c.28.78.46,1.34.68,2.15a4.56,4.56,0,0,0,.55,1.08c.21.32.4.63.58.94a4.57,4.57,0,0,1,.43,1,1.8,1.8,0,0,0,.75,1,1.54,1.54,0,0,0,1.26.11l1-.43c.35-.15.66-.25,1.07-.44a2.15,2.15,0,0,0,.52-.39,2.29,2.29,0,0,0,.37-.52,12.76,12.76,0,0,0,1-2.09c.27-.7.54-1.4.79-2.11.13-.36.25-.68.38-1.08a4.61,4.61,0,0,0,.16-1.29,3.72,3.72,0,0,0-.08-.67c0-.11,0-.21-.08-.32l-.08-.25c-.08-.3-.12-.68-.21-1.07a16.59,16.59,0,0,0-.55-2.24c-.14-.37-.29-.73-.44-1.07s-.29-.66-.45-1a2.41,2.41,0,0,0-.81-1l-.14-.1,0,0a1.56,1.56,0,0,0-.14-.19,3,3,0,0,0-1-.76l-.28-.12c-.06,0-.05,0-.07,0l0,0v-.19l0-.28.06-.56.07-.78c0-.22,0-.45,0-.67a96.47,96.47,0,0,0,13.37-3V40.06h0c-3.14.75-6.37,1.32-9.57,1.77C95.17,42,94.16,42.11,93.15,42.23Z"/></svg>