<svg id="Layer_1" data-name="Layer 1" xmlns="http://www.w3.org/2000/svg" width="128" height="128" viewBox="0 0 128 128"><title>Artboard 15</title><path d="M20.56,109.44h4.32a6.31,6.31,0,0,1,2.47.37A4.07,4.07,0,0,1,28.89,111,6.36,6.36,0,0,1,30,113.3a12.45,12.45,0,0,1,.4,3.44A11.05,11.05,0,0,1,30,120a6.36,6.36,0,0,1-1.06,2.17,4.07,4.07,0,0,1-1.56,1.21,5.83,5.83,0,0,1-2.35.41H20.56Zm2.36,2.42v9.47H24.7a4.69,4.69,0,0,0,1.65-.21,2,2,0,0,0,.84-.65,3.66,3.66,0,0,0,.54-1.37,11,11,0,0,0,.22-2.47,11.12,11.12,0,0,0-.22-2.51,3.34,3.34,0,0,0-.69-1.44,2.13,2.13,0,0,0-1.12-.69,9,9,0,0,0-1.93-.13Z"/><path d="M34.27,123.76l-2.81-14.32h2.43l1.76,9.84,2.15-9.84h2.82l2.06,10,1.82-10h2.38L44,123.76H41.5l-2.34-10.71-2.33,10.71Z"/><path d="M48.29,123.76V109.44H57v2.42H50.65V115h5.9v2.41h-5.9v3.88h6.56v2.43Z"/><path d="M59.49,123.76v-14.2h2.36v11.77h5.9v2.43Z"/><path d="M69.71,123.76v-14.2h2.36v11.77H78v2.43Z"/><path d="M79.79,123.76V109.44h2.36v14.32Z"/><path d="M84.65,123.76V109.44H87L91.76,119v-9.56H94v14.32H91.58l-4.73-9.34v9.34Z"/><path d="M102.12,118.5v-2.42h5.11v5.7a6.27,6.27,0,0,1-2.19,1.57,6.79,6.79,0,0,1-2.84.65,5.56,5.56,0,0,1-3.07-.85,5.88,5.88,0,0,1-2.1-2.56,9.6,9.6,0,0,1-.78-4,9.33,9.33,0,0,1,.79-4,5.83,5.83,0,0,1,2-2.51,5.28,5.28,0,0,1,3-.83,4.59,4.59,0,0,1,5,4.2l-2.34.54a3.08,3.08,0,0,0-1-1.69,2.54,2.54,0,0,0-1.68-.58,3,3,0,0,0-2.45,1.17,5.75,5.75,0,0,0-.94,3.59,6.45,6.45,0,0,0,1,3.94,2.79,2.79,0,0,0,2.35,1.16,3.54,3.54,0,0,0,1.44-.33,4.3,4.3,0,0,0,1.34-.89V118.5Z"/><path d="M97.54,32c-1.14-1.14-2.19-2.2-3.06-3.12-2.62-2.76-4.4-5-6.28-7.36-.79-1-1.61-2-2.5-3.11a58.89,58.89,0,0,1-4.56-6.36C78,7,71.43,3,68,3S56.39,8.78,44.35,20.17c-10.5,9.93-16.63,28.9-16.89,29.7l-.07.21V84.57C25,85.29,21,86.82,18.63,89.2a5,5,0,0,0,1.7,8.12c9.48,3.92,34.12,1.76,42,.94a94.32,94.32,0,0,0,13.17,1.16c22.51,0,32.23-13.68,32.64-14.26l.25-.37V54.61c1.55-1.27,2.45-2.63,2.45-4C110.82,45.38,103.46,38,97.54,32Zm-27,46.61V96.34c-8.89-.71-20.15-3-28.68-5A26.17,26.17,0,0,1,38.83,90a97.86,97.86,0,0,1-8.57-5.32V54.19c6.73,2.43,29,10.13,41.36,10.13,1.34,0,2.81-.07,4.36-.19C70.61,68.62,70.56,78.63,70.56,78.63Zm35,5.23a33.76,33.76,0,0,1-12.85,9.32V75.61c0-2.15.68-10.5-6.17-13,7.09-1.38,14.31-3.54,19-6.14ZM71.62,61.45c-12.41,0-36.36-8.49-41.36-10.31v-.6c.69-2.09,6.65-19.39,16.06-28.28C59.09,10.17,65.87,5.87,68,5.87c2.34,0,8,3.31,10.76,7.72a64.71,64.71,0,0,0,4.77,6.67c.89,1.07,1.7,2.08,2.48,3.07,1.92,2.41,3.74,4.69,6.44,7.54.89.94,1.95,2,3.11,3.17C100.46,39,108,46.56,108,50.59,108,54.42,86.59,61.45,71.62,61.45Z"/><path d="M59.16,18.1a13.39,13.39,0,0,0,4.16,1,40,40,0,0,0,4.2.47,24.09,24.09,0,0,0,4.24-.09l0-.24a33.81,33.81,0,0,1-4-.9q-2-.54-3.93-1.17c-1.29-.43-2.48-1.11-3.77-1.4a28.12,28.12,0,0,0-4.1-.72l-.13.21A8.08,8.08,0,0,0,59.16,18.1Z"/><path d="M49.44,30.13a18.8,18.8,0,0,0,4.28,2A28.39,28.39,0,0,0,63,33.24a56.91,56.91,0,0,0,9.14-.85A67.43,67.43,0,0,0,80.88,30l-.07-.24a75.26,75.26,0,0,1-8.89,1.38,53,53,0,0,1-8.9.1,61.24,61.24,0,0,1-8.63-1.49l-1.06-.24-1-.3c-.72-.15-1.37-.44-2.07-.64a20.32,20.32,0,0,1-3.94-1.95l-.19.17A10.62,10.62,0,0,0,49.44,30.13Z"/><path d="M73.13,48.6a76.07,76.07,0,0,1-12.63-.42A108.47,108.47,0,0,1,48.18,45.8c-2-.44-4-1-6-1.66a43.09,43.09,0,0,1-5.81-2.44l-.16.2a20.91,20.91,0,0,0,5.28,3.84,37.79,37.79,0,0,0,6.05,2.46,51.7,51.7,0,0,0,12.82,2,78.13,78.13,0,0,0,12.89-.32,78.63,78.63,0,0,0,12.58-2.48l-.06-.24A85.34,85.34,0,0,1,73.13,48.6Z"/></svg>