<svg id="Layer_1" data-name="Layer 1" xmlns="http://www.w3.org/2000/svg" width="128" height="128" viewBox="0 0 128 128"><defs><style>.cls-1{fill:#2d2d2d;}</style></defs><title>Artboard 3</title><path d="M12.18,123.76V109.44h8v2.42H14.54v3.39h4.92v2.42H14.54v6.09Z"/><path d="M22.31,123.76V109.44h2.36v14.32Z"/><path d="M26.54,119.09l2.32-.28c.26,1.83,1.11,2.75,2.56,2.75A2.42,2.42,0,0,0,33.1,121a1.82,1.82,0,0,0,.62-1.39,1.45,1.45,0,0,0-.22-.83,1.51,1.51,0,0,0-.65-.56,16.21,16.21,0,0,0-2.13-.74,7.29,7.29,0,0,1-2.22-1,3.66,3.66,0,0,1-1.11-1.41,4.42,4.42,0,0,1,.11-4A3.53,3.53,0,0,1,29,109.67a5.08,5.08,0,0,1,2.32-.47,4.06,4.06,0,0,1,4.46,4.33l-2.37.13a2.55,2.55,0,0,0-.68-1.61,2.11,2.11,0,0,0-1.47-.46,2.37,2.37,0,0,0-1.48.4,1.24,1.24,0,0,0,0,2,6.52,6.52,0,0,0,2.16.88,9,9,0,0,1,2.58,1.09,3.69,3.69,0,0,1,1.21,1.47,5.23,5.23,0,0,1,.42,2.2,4.52,4.52,0,0,1-1.14,3.13A4.62,4.62,0,0,1,31.35,124Q27,124,26.54,119.09Z"/><path d="M38.29,123.76V109.44h2.36v5.63h4.66v-5.63h2.36v14.32H45.31V117.5H40.65v6.26Z"/><path d="M50.24,123.76V109.44h2.37v14.32Z"/><path d="M55.1,123.76V109.44h2.31l4.8,9.56v-9.56h2.21v14.32H62l-4.72-9.34v9.34Z"/><path d="M72.58,118.5v-2.42h5.1v5.7a6.22,6.22,0,0,1-2.18,1.57,6.82,6.82,0,0,1-2.84.65,5.53,5.53,0,0,1-3.07-.85,5.83,5.83,0,0,1-2.11-2.56,9.76,9.76,0,0,1-.77-4,9.48,9.48,0,0,1,.78-4A5.92,5.92,0,0,1,69.54,110a5.23,5.23,0,0,1,3-.83,4.61,4.61,0,0,1,5,4.2l-2.35.54a3,3,0,0,0-1-1.69,2.54,2.54,0,0,0-1.68-.58,3,3,0,0,0-2.45,1.17,5.68,5.68,0,0,0-.94,3.59,6.45,6.45,0,0,0,1,3.94,2.78,2.78,0,0,0,2.35,1.16A3.57,3.57,0,0,0,74,121.2a4.25,4.25,0,0,0,1.33-.89V118.5Z"/><path d="M84.86,123.76V109.44h2.31L92,119v-9.56h2.21v14.32H91.79l-4.72-9.34v9.34Z"/><path d="M96.88,123.76V109.44h8.71v2.42H99.24V115h5.9v2.41h-5.9v3.88h6.56v2.43Z"/><path d="M110.65,123.76v-11.9h-3.48v-2.42h9.32v2.42H113v11.9Z"/><path class="cls-1" d="M115.41,59.57a.68.68,0,0,0-.89.07L95.08,78.27a1,1,0,0,0-.23.67.84.84,0,0,0,.45.52L100,81.6a14.35,14.35,0,0,1-12.65,7.69A14.63,14.63,0,0,1,81.47,88a14.27,14.27,0,0,1-7-18.86l1.11-2.51C85,64.52,91.16,65.11,94.71,66c-.22,1.18.74,2.59,2.36,3.4a5,5,0,0,0,2,.52,2.24,2.24,0,0,0,2.29-1.26c.59-1.33-.37-3-2.22-3.84a4.91,4.91,0,0,0-2-.52,3,3,0,0,0-1.19.22c-1.7-1-5.1-3.47-11.09-18.34a.07.07,0,0,0-.07-.07l7.69-16.93a10.77,10.77,0,0,0,10.79-14.5,10.63,10.63,0,0,0-5.62-6,10.25,10.25,0,0,0-4.43-1,10.72,10.72,0,0,0-7.54,18.34L81.1,36.13c-1.48-4.51-6.28-18.71-5.17-26.25a3.8,3.8,0,0,0,2.66-2.37c.81-1.85.51-3.77-.82-4.36A3.38,3.38,0,0,0,76.89,3a3.6,3.6,0,0,0-3,2.37,3.9,3.9,0,0,0,0,3.62c-.08.07-.15.07-.22.15a29.47,29.47,0,0,1-5.33,5.1,2.93,2.93,0,0,0-1.55-.52,2.86,2.86,0,0,0-1.55.45L61,17.05a2.84,2.84,0,0,0-1.11,3.18C58.18,21,56,22,53.59,23a2.89,2.89,0,0,0-2.29-1.26,4.67,4.67,0,0,0-1,.15l-5,1.77a2.67,2.67,0,0,0-1.56,1.41,2.55,2.55,0,0,0-.22,1.48l-2.29.74A31.15,31.15,0,0,1,37,28.51a2.82,2.82,0,0,0-2.88-1.77L29,27.25a2.67,2.67,0,0,0-1.85,1,2.79,2.79,0,0,0-.52,1,31.77,31.77,0,0,1-7.32-.51h-.14A3.66,3.66,0,0,0,16.77,26a5,5,0,0,0-2-.52,2.31,2.31,0,0,0-2.29,1.26c-.59,1.33.37,3,2.22,3.84a5,5,0,0,0,2,.52,3.22,3.22,0,0,0,1.18-.22c5,5.25,9.76,13.82,14.05,25.66,5.69,15.75,6.43,24.32,6,28.91a4,4,0,0,0-2.59,2.36c-.81,1.85-.52,3.77.81,4.37a1.8,1.8,0,0,0,.82.22A3.59,3.59,0,0,0,39.91,90c.74-1.62.52-3.33-.44-4.14,2.66-3.7,9.39-10.35,25.36-16.12.52-.22,1-.37,1.48-.52A21.65,21.65,0,0,0,78,95.58a20.73,20.73,0,0,0,8.94,1.92h0a21.69,21.69,0,0,0,19.75-12.79l8.94-24.48C115.78,60.08,115.63,59.71,115.41,59.57ZM32.59,32.8l.45-.07.07.07,6,2.81-2.73,6.06-6.44-3L32.59,33C32.52,33,32.59,32.87,32.59,32.8Zm19.53-5.32-1.41,3.1-3.11-1.4Zm-.74,5,6,2.81-2.89,6-5.91-2.81ZM65.57,20.89l.3-.22,5.84,2.74-3,6.36-6-2.81L65.5,21A.23.23,0,0,0,65.57,20.89ZM62.62,46.7l6.13,2.88-2.88,6.14-6.14-2.88Zm-4.15,5.55-6.06-2.89,2.88-6.13,6.07,2.88Zm10.87-4-6.21-2.88,2.81-6.06L71.78,42l.15.74Zm3-3,.88,4.88-2.58-1.25Zm-2.3,5,3.55,1.7.15.74-2.59,5.69-4-1.92ZM96.41,17.35a3.31,3.31,0,0,1-.08,2.51,3.23,3.23,0,0,1-3,1.92A3,3,0,0,1,92,21.49a3.32,3.32,0,0,1-1.62-4.37,3.24,3.24,0,0,1,3-1.92,2.83,2.83,0,0,1,1.33.3A3.22,3.22,0,0,1,96.41,17.35ZM76.89,45.81l-1.48-2.07,2,1ZM73,40.49l-.15-.22a.69.69,0,0,0-.88-.22.83.83,0,0,0-.37.37l-5-2.37,2.88-6.29,6.21,3Zm-4.8-9.39-2.89,6.28-6.06-2.81,3-6.28Zm-3.55,7.61-2.81,6.07-6.07-2.89,2.81-6Zm-10.8,3.85L51,48.7l-5.92-2.81,2.81-6.07ZM50.41,50l-2.88,6.14-6-2.81,2.89-6.22Zm-6.65-4.81-6.14-2.88,2.74-6.07,6.21,3ZM37,43.67l6.14,2.88-2.89,6.21-6.06-2.88Zm3.92,11,6,2.81-3,6.28L38,61Zm7.25,3.4L54.33,61l-2.88,6.36-6.21-2.88Zm.66-1.33,2.89-6.14,6.13,2.88-2.81,6.14Zm10.28-2.59,6.14,2.88-2.81,6.07-6.14-2.89Zm7.47,3.55,4,1.92L67.79,65.7l-4.07-1.92ZM76.29,65l1-2.22,3.1,1.48A32.17,32.17,0,0,0,76.29,65Zm1.63-3.55,2.89-6.36,3.25,1.55L81.1,63ZM92,62.89c.45.52.89,1,1.26,1.34-.52-.08-1.11-.23-1.77-.3Zm-1-1.33-1,2.22a36.13,36.13,0,0,0-6.87.15l-.74-.37,3-6.29,4.21,2C90.05,60.16,90.57,60.9,91,61.56Zm-2.66-4.51L86,55.94l.89-1.84A21.34,21.34,0,0,0,88.35,57.05Zm-2.29-4.66-1.41,3L81.4,53.8l2.66-5.92C84.8,49.51,85.39,51.06,86.06,52.39Zm-5.7-14.34-2.44,5.32L74.08,41.6l.07-.08L77,35.39l2.74,1.33A5.39,5.39,0,0,1,80.36,38.05Zm-1.18-3.4L77.7,34l.74-1.55C78.66,33.17,79,34,79.18,34.65Zm-1.41-4.29h0l-1.4,3-6.21-3,3-6.36,3.4,1.55C76.89,27.25,77.33,28.88,77.77,30.36ZM75.11,19.64c.22,1.4.59,2.81.89,4.14l-2.29-1.11Zm-.74-9a30,30,0,0,0,0,3.55L72,13.06C72.89,12.24,73.63,11.43,74.37,10.62Zm-6,8.35a2.78,2.78,0,0,0,.89-3.62c.52-.45,1-.81,1.48-1.26l3.7,1.7c.07.45.07.82.14,1.26l-.07.07L72.23,22l-5-2.36Zm-7.76,2.59a2.61,2.61,0,0,0,1.92.74,2.44,2.44,0,0,0,.81-.15l-1.92,4.07L56,23.78C57.73,23,59.29,22.23,60.62,21.56Zm-5.69,3.33,6,2.81L58,34l-6-2.81ZM43.76,29l6.28,3-2.81,6-6.21-3Zm-7.17,2.59a3.53,3.53,0,0,0,.59-1.4,40.81,40.81,0,0,0,4.58-1.26c.15-.07.3-.07.52-.15l-2.59,5.55-4.21-2A2.32,2.32,0,0,0,36.59,31.54ZM19.14,30.43a31.85,31.85,0,0,0,3.84.45l-1.26,2.66A36.39,36.39,0,0,0,19.14,30.43Zm3.62,4.44.07-.07L24.61,31h1.92a2.79,2.79,0,0,0,2.74,2.15h.29L31,33,28.6,38l-5.47-2.59A1.3,1.3,0,0,1,22.76,34.87Zm1.85,2.88,3.33,1.56-1.11,2.36C26.09,40.27,25.35,38.94,24.61,37.75Zm3.1,5.55L29.27,40l6.43,3.11-2.88,6.28-3-1.4C29.12,46.26,28.45,44.78,27.71,43.3Zm3.92,8.8-.88-2.22,1.55.74Zm1.56,4.14c-.3-.74-.52-1.48-.82-2.22l1.26-2.73,6.06,2.81-3,6.28L34.29,59.2C33.93,58.24,33.56,57.27,33.19,56.24ZM35.48,63c-.22-.59-.37-1.25-.59-1.85l1.18.6Zm.59,2.07,1.26-2.73,6,2.81-3,6.28-3-1.4C37,68.44,36.59,66.81,36.07,65.11Zm2.51,10.21c-.22-1.11-.44-2.22-.66-3.48l1.92.89Zm.82,8.43V81.82l1.18.6C40.14,82.86,39.77,83.3,39.4,83.75ZM47,77h0a44.59,44.59,0,0,0-5.32,4.29L39.25,80.2c-.07-.74-.15-1.48-.22-2.29l2.14-4.52,6.21,2.89Zm-5.32-5,3-6.28,6.21,2.88L48,75Zm7.54,3.48,2.89-6.29,4.8,2.22C54,72.88,51.45,74.21,49.23,75.54Zm9.47-4.81-5.92-2.81,2.88-6.28,6.14,2.88-2.88,6.14A.27.27,0,0,0,58.7,70.73Zm5.62-2.22c-1.19.45-2.3.89-3.41,1.34l2.22-4.74L67.2,67c-.07.14-.15.37-.22.51C66.09,67.85,65.2,68.14,64.32,68.51Z"/></svg>