<svg id="Layer_1" data-name="Layer 1" xmlns="http://www.w3.org/2000/svg" width="128" height="128" viewBox="0 0 128 128"><defs><style>.cls-1{fill:#dbdbdb;}.cls-2{fill:#61ce63;}.cls-3{fill:#fff;}</style></defs><title>Artboard 22</title><rect class="cls-1" width="128" height="128"/><rect class="cls-2" width="128" height="128"/><polygon class="cls-3" points="95.94 57.36 95.94 70.43 85.63 76.39 85.63 88.41 74.31 94.94 64 88.98 53.68 94.94 42.37 88.41 42.37 76.38 32.06 70.43 32.06 57.36 42.38 51.4 42.38 39.59 53.7 33.06 64.01 39.02 74.32 33.06 85.64 39.59 85.64 51.42 95.94 57.36"/><path d="M85.64,51.42V39.59L74.32,33.06,64,39l-10.31-6L42.38,39.59V51.4l-10.32,6V70.43l10.31,5.95v12l11.31,6.53L64,89l10.31,6,11.32-6.53v-12l10.31-6V57.36ZM65,40.75l9.31-5.38,9.32,5.38V51.4l-9.33,5.39L65,51.42Zm-20.63,0,9.32-5.38L63,40.75V51.4l-9.32,5.39-9.31-5.37ZM34.06,69.27V58.52l9.24-5.34,9.39,5.43V69.27l-9.32,5.38ZM63,87.25l-9.32,5.38-9.31-5.38V76.5l9.31-5.38L63,76.5Zm-8.31-18V58.62L64,53.23l9.3,5.38V69.27L64,74.65Zm28.94,18-9.32,5.38L65,87.25V76.5l9.31-5.38,9.32,5.38Zm10.31-18-9.31,5.38-9.32-5.38V58.62l9.4-5.43,9.23,5.33Z"/><path d="M27.15,123.76V109.44h2.37v5.63h4.66v-5.63h2.36v14.32H34.18V117.5H29.52v6.26Z"/><path d="M39.16,109.44h2.36v7.75a18.81,18.81,0,0,0,.09,2.36,2.42,2.42,0,0,0,.75,1.46,2.28,2.28,0,0,0,1.56.52,2.21,2.21,0,0,0,1.34-.37,1.76,1.76,0,0,0,.71-1,12.36,12.36,0,0,0,.19-2.79v-7.92h2.37V117a20.11,20.11,0,0,1-.31,4.16,3.55,3.55,0,0,1-1.39,2.08A4.69,4.69,0,0,1,44,124a5.3,5.3,0,0,1-2.87-.66,3.69,3.69,0,0,1-1.49-1.85,14,14,0,0,1-.47-4.41Z"/><path d="M51.25,123.76V109.44h2.3L58.36,119v-9.56h2.2v14.32H58.18l-4.73-9.34v9.34Z"/><path d="M65.9,123.76v-11.9H62.41v-2.42h9.33v2.42H68.26v11.9Z"/><path d="M73.4,123.76V109.44h2.37v14.32Z"/><path d="M78.26,123.76V109.44h2.31l4.8,9.56v-9.56h2.21v14.32H85.2l-4.73-9.34v9.34Z"/><path d="M95.74,118.5v-2.42h5.11v5.7a6.37,6.37,0,0,1-2.19,1.57,6.82,6.82,0,0,1-2.84.65,5.53,5.53,0,0,1-3.07-.85,5.74,5.74,0,0,1-2.1-2.56,9.6,9.6,0,0,1-.78-4,9.48,9.48,0,0,1,.78-4,5.92,5.92,0,0,1,2-2.51,5.23,5.23,0,0,1,3-.83,4.61,4.61,0,0,1,5,4.2l-2.34.54a3.08,3.08,0,0,0-1-1.69,2.54,2.54,0,0,0-1.68-.58,3,3,0,0,0-2.45,1.17,5.68,5.68,0,0,0-.94,3.59,6.45,6.45,0,0,0,1,3.94,2.79,2.79,0,0,0,2.35,1.16,3.57,3.57,0,0,0,1.44-.33,4.25,4.25,0,0,0,1.33-.89V118.5Z"/><path d="M35,18.56V4.24H37.4V9.88h4.66V4.24h2.36V18.56H42.06V12.3H37.4v6.26Z"/><path d="M46.58,11.49a10.19,10.19,0,0,1,.76-4.21,5.61,5.61,0,0,1,2-2.47,5.22,5.22,0,0,1,3-.81,5.06,5.06,0,0,1,4.1,1.92A8.4,8.4,0,0,1,58,11.4,8.55,8.55,0,0,1,56.29,17a4.91,4.91,0,0,1-4,1.78,5,5,0,0,1-4-1.76A8.43,8.43,0,0,1,46.58,11.49Zm2.44-.1A6.14,6.14,0,0,0,50,15.1a2.85,2.85,0,0,0,2.33,1.23,2.78,2.78,0,0,0,2.32-1.22,6.3,6.3,0,0,0,.92-3.77,6.12,6.12,0,0,0-.9-3.68,2.79,2.79,0,0,0-2.34-1.19,2.84,2.84,0,0,0-2.36,1.2A6.21,6.21,0,0,0,49,11.39Z"/><path d="M60.05,18.56V4.24h2.31l4.8,9.56V4.24h2.21V18.56H67L62.26,9.22v9.34Z"/><path d="M72.07,18.56V4.24h8.71V6.67H74.43V9.84h5.9v2.41h-5.9v3.89H81v2.42Z"/><path d="M86.28,18.56v-6L82,4.24h2.77l2.76,5.67,2.72-5.67H93l-4.31,8.31v6Z"/></svg>