<svg id="Layer_1" data-name="Layer 1" xmlns="http://www.w3.org/2000/svg" width="128" height="128" viewBox="0 0 128 128"><defs><style>.cls-1{fill:#e29b29;}</style></defs><title>Artboard 99</title><path d="M8.91,123.76V109.44h2.37v5.63h4.65v-5.63H18.3v14.32H15.93V117.5H11.28v6.26Z"/><path d="M20.46,116.69a10.11,10.11,0,0,1,.76-4.22,5.63,5.63,0,0,1,2-2.46,5.14,5.14,0,0,1,2.95-.81,5.09,5.09,0,0,1,4.11,1.92,8.38,8.38,0,0,1,1.59,5.48,8.52,8.52,0,0,1-1.68,5.61,4.94,4.94,0,0,1-4,1.79,5,5,0,0,1-4-1.77A8.41,8.41,0,0,1,20.46,116.69Zm2.44-.1a6,6,0,0,0,.94,3.7,2.81,2.81,0,0,0,4.65,0,6.27,6.27,0,0,0,.92-3.76,6.1,6.1,0,0,0-.9-3.68,2.79,2.79,0,0,0-2.34-1.19,2.83,2.83,0,0,0-2.36,1.2A6.21,6.21,0,0,0,22.9,116.59Z"/><path d="M33.93,123.76V109.44h2.31L41,119v-9.56h2.21v14.32H40.87l-4.73-9.34v9.34Z"/><path d="M46,123.76V109.44h8.71v2.42H48.31V115h5.9v2.41h-5.9v3.88h6.56v2.43Z"/><path d="M60.16,123.76v-6l-4.29-8.29h2.77l2.76,5.66,2.72-5.66h2.72l-4.31,8.31v6Z"/><path d="M80.21,118.49l2.3.89a6.48,6.48,0,0,1-1.79,3.51A4.48,4.48,0,0,1,77.64,124a4.55,4.55,0,0,1-3.72-1.77,8.55,8.55,0,0,1-1.64-5.51A9,9,0,0,1,73.93,111a4.68,4.68,0,0,1,3.86-1.79,4.46,4.46,0,0,1,3.31,1.34,6,6,0,0,1,1.39,2.84l-2.35.69a3.17,3.17,0,0,0-.89-1.78,2.24,2.24,0,0,0-1.58-.62,2.51,2.51,0,0,0-2.13,1.13,6.57,6.57,0,0,0-.82,3.74,7,7,0,0,0,.8,3.85,2.45,2.45,0,0,0,2.08,1.14,2.12,2.12,0,0,0,1.62-.73A4.52,4.52,0,0,0,80.21,118.49Z"/><path d="M95.32,123.76H92.75l-1-3.25H87l-1,3.25H83.54l4.57-14.32h2.51ZM91,118.09l-1.62-5.31-1.59,5.31Z"/><path d="M96.73,123.76V109.44h3.55l2.13,9.77,2.12-9.77h3.56v14.32h-2.21V112.48l-2.34,11.28h-2.28l-2.32-11.28v11.28Z"/><path d="M110.63,123.76V109.44h3.8a12.22,12.22,0,0,1,2.79.2,3.22,3.22,0,0,1,1.72,1.42,5.19,5.19,0,0,1,.68,2.79,5.3,5.3,0,0,1-.59,2.61,3.39,3.39,0,0,1-1.46,1.47,7.68,7.68,0,0,1-3,.43H113v5.4Zm2.36-11.9v4.07h1.31a6,6,0,0,0,1.8-.18,1.65,1.65,0,0,0,.77-.67,2.15,2.15,0,0,0,.31-1.19,2.2,2.2,0,0,0-.32-1.21,1.5,1.5,0,0,0-.77-.65,7.11,7.11,0,0,0-2-.17Z"/><path d="M108.1,100.24,65.83,40.72l7.45-10.6a1.5,1.5,0,1,0-2.45-1.72L64,38.11,57.17,28.4a1.5,1.5,0,1,0-2.45,1.72l7.45,10.6L19.9,100.24H49.69V77.93H78.31v22.31Z"/><path class="cls-1" d="M26.85,56.48v-3h2.7v3Zm0,14.14V58.17h2.7V70.62Z"/><path class="cls-1" d="M42.08,70.62h-2.7V64.26a13.31,13.31,0,0,0-.16-2.55,1.69,1.69,0,0,0-.57-1,1.41,1.41,0,0,0-.94-.34,1.9,1.9,0,0,0-1.23.44,2.31,2.31,0,0,0-.77,1.21A12.31,12.31,0,0,0,35.48,65v5.65h-2.7V58.17h2.51V60a4.77,4.77,0,0,1,1.5-1.58,3.36,3.36,0,0,1,1.86-.53,3.24,3.24,0,0,1,2,.61,3.17,3.17,0,0,1,1.12,1.59,9.55,9.55,0,0,1,.31,2.8Z"/><path class="cls-1" d="M47.32,62l-2.45-.54a4.82,4.82,0,0,1,1.47-2.72,4.61,4.61,0,0,1,2.95-.82,5.67,5.67,0,0,1,2.61.48,2.86,2.86,0,0,1,1.29,1.31,7.89,7.89,0,0,1,.39,3l0,3.84a17.14,17.14,0,0,0,.13,2.41,8.91,8.91,0,0,0,.48,1.69H51.49l-.35-1.36a5.05,5.05,0,0,1-1.48,1.23,3.55,3.55,0,0,1-1.68.42,3.19,3.19,0,0,1-2.44-1,3.74,3.74,0,0,1-.95-2.67A4.13,4.13,0,0,1,45,65.39a3.07,3.07,0,0,1,1.09-1.25,7.28,7.28,0,0,1,2.25-.84,12.32,12.32,0,0,0,2.61-.8,3.94,3.94,0,0,0-.15-1.37,1.2,1.2,0,0,0-.54-.53,2.51,2.51,0,0,0-1.1-.2,1.81,1.81,0,0,0-1.15.33A2.34,2.34,0,0,0,47.32,62Zm3.61,2.68a12.69,12.69,0,0,1-1.61.49,3.88,3.88,0,0,0-1.64.73,1.42,1.42,0,0,0-.38,1,1.76,1.76,0,0,0,.42,1.2,1.38,1.38,0,0,0,1.08.49,2,2,0,0,0,1.13-.39,2.09,2.09,0,0,0,.78-.94,5.8,5.8,0,0,0,.22-2Z"/><path class="cls-1" d="M65.64,61.84,63,62.42c-.2-1.3-.82-2-1.85-2a1.91,1.91,0,0,0-1.62.84,5,5,0,0,0-.61,2.86,5.92,5.92,0,0,0,.61,3.14,1.88,1.88,0,0,0,1.63.92,1.66,1.66,0,0,0,1.26-.53,3.47,3.47,0,0,0,.7-1.84l2.66.55c-.54,3-2.12,4.5-4.72,4.5a4.07,4.07,0,0,1-3.7-1.9,8.34,8.34,0,0,1-1.21-4.58,7.57,7.57,0,0,1,1.37-4.88,4.41,4.41,0,0,1,3.58-1.67,4.36,4.36,0,0,1,2.93.95A5.4,5.4,0,0,1,65.64,61.84Z"/><path class="cls-1" d="M72.82,58.17V60.8H71v5a11.67,11.67,0,0,0,.08,1.89.65.65,0,0,0,.67.47,3,3,0,0,0,1.08-.32L73,70.42a4.45,4.45,0,0,1-2.12.49,2.55,2.55,0,0,1-1.65-.49A2.39,2.39,0,0,1,68.44,69a14.48,14.48,0,0,1-.17-2.77V60.8H67V58.17h1.24V55.7L71,53.78v4.39Z"/><path class="cls-1" d="M75.19,56.48v-3h2.7v3Zm0,14.14V58.17h2.7V70.62Z"/><path class="cls-1" d="M84,70.62,79.83,58.17h2.82l1.93,6.35.56,2.12.57-2.12,2-6.35h2.76L86.36,70.62Z"/><path class="cls-1" d="M98.49,66.67l2.69.55A5.28,5.28,0,0,1,99.5,70a4.74,4.74,0,0,1-6.27-.61,7.51,7.51,0,0,1-1.45-4.93,8,8,0,0,1,1.46-5,3.91,3.91,0,0,1,3.21-1.58,4.09,4.09,0,0,1,3.44,1.62A8.86,8.86,0,0,1,101.32,65v.37H94.54a3.75,3.75,0,0,0,.67,2.3,1.9,1.9,0,0,0,1.54.81C97.62,68.45,98.2,67.85,98.49,66.67Zm.14-3.34a3.6,3.6,0,0,0-.62-2.2,1.72,1.72,0,0,0-1.39-.73,1.75,1.75,0,0,0-1.44.76,3.41,3.41,0,0,0-.59,2.17Z"/><path d="M120.51,13.35V4.75L112.28,0l-7.5,4.33L97.29,0,89.06,4.75v8.59l-7.51,4.33v9.5l7.5,4.33v8.75L97.27,45l7.51-4.33L112.27,45l8.23-4.74V31.51l7.5-4.34v-9.5Zm-15-7.76,6.77-3.91,6.78,3.91v7.75l-6.79,3.91-6.76-3.9Zm-15,0,6.78-3.91,6.77,3.91v7.75l-6.78,3.91-6.77-3.9ZM83,26.33V18.51l6.71-3.88,6.83,3.95v7.75l-6.78,3.91Zm21,13.07-6.78,3.92L90.5,39.4V31.59l6.77-3.92,6.78,3.92ZM98,26.33V18.59l6.77-3.92,6.77,3.91v7.75l-6.77,3.91Zm21,13.07-6.78,3.92L105.5,39.4V31.59l6.77-3.92,6.78,3.92Zm7.5-13.07-6.77,3.91L113,26.33V18.59l6.83-3.95,6.72,3.87Z"/></svg>