<svg id="Layer_1" data-name="Layer 1" xmlns="http://www.w3.org/2000/svg" width="128" height="128" viewBox="0 0 128 128"><defs><style>.cls-1{fill:#d62525;}</style></defs><title>Artboard 98</title><path d="M8.91,123.76V109.44h2.37v5.63h4.65v-5.63H18.3v14.32H15.93V117.5H11.28v6.26Z"/><path d="M20.46,116.69a10.11,10.11,0,0,1,.76-4.22,5.63,5.63,0,0,1,2-2.46,5.14,5.14,0,0,1,2.95-.81,5.09,5.09,0,0,1,4.11,1.92,8.38,8.38,0,0,1,1.59,5.48,8.52,8.52,0,0,1-1.68,5.61,4.93,4.93,0,0,1-4,1.79,5,5,0,0,1-4-1.77A8.41,8.41,0,0,1,20.46,116.69Zm2.44-.1a6.11,6.11,0,0,0,.94,3.7,2.81,2.81,0,0,0,4.65,0,6.27,6.27,0,0,0,.92-3.76,6.1,6.1,0,0,0-.9-3.68,2.77,2.77,0,0,0-2.34-1.19,2.83,2.83,0,0,0-2.36,1.2A6.21,6.21,0,0,0,22.9,116.59Z"/><path d="M33.93,123.76V109.44h2.31L41,119v-9.56h2.21v14.32H40.87l-4.73-9.34v9.34Z"/><path d="M46,123.76V109.44h8.71v2.42H48.31V115h5.9v2.41h-5.9v3.88h6.57v2.43Z"/><path d="M60.16,123.76v-6l-4.29-8.29h2.77l2.76,5.66,2.72-5.66h2.72l-4.31,8.31v6Z"/><path d="M80.21,118.49l2.3.89a6.48,6.48,0,0,1-1.79,3.51A4.47,4.47,0,0,1,77.64,124a4.55,4.55,0,0,1-3.72-1.77,8.55,8.55,0,0,1-1.64-5.51A9,9,0,0,1,73.93,111a4.68,4.68,0,0,1,3.86-1.79,4.46,4.46,0,0,1,3.31,1.34,6,6,0,0,1,1.39,2.84l-2.35.69a3.17,3.17,0,0,0-.89-1.78,2.24,2.24,0,0,0-1.58-.62,2.51,2.51,0,0,0-2.13,1.13,6.57,6.57,0,0,0-.82,3.74,7,7,0,0,0,.8,3.85,2.45,2.45,0,0,0,2.08,1.14,2.12,2.12,0,0,0,1.62-.73A4.52,4.52,0,0,0,80.21,118.49Z"/><path d="M95.32,123.76H92.75l-1-3.25H87l-1,3.25H83.54l4.57-14.32h2.51ZM91,118.09l-1.62-5.31-1.59,5.31Z"/><path d="M96.73,123.76V109.44h3.55l2.13,9.77,2.12-9.77h3.56v14.32h-2.21V112.48l-2.34,11.28h-2.28l-2.32-11.28v11.28Z"/><path d="M110.63,123.76V109.44h3.8a12.22,12.22,0,0,1,2.79.2,3.22,3.22,0,0,1,1.72,1.42,5.19,5.19,0,0,1,.68,2.79,5.3,5.3,0,0,1-.59,2.61,3.39,3.39,0,0,1-1.46,1.47,7.68,7.68,0,0,1-3,.43H113v5.4Zm2.36-11.9v4.07h1.31a6,6,0,0,0,1.8-.18,1.65,1.65,0,0,0,.77-.67,2.15,2.15,0,0,0,.31-1.19,2.2,2.2,0,0,0-.32-1.21,1.5,1.5,0,0,0-.77-.65,7,7,0,0,0-2-.17Z"/><path d="M108.1,100.24,65.83,40.72l7.45-10.6a1.5,1.5,0,1,0-2.45-1.72L64,38.11,57.17,28.4a1.5,1.5,0,1,0-2.45,1.72l7.45,10.6L19.9,100.24H49.69V77.93H78.31v22.31Z"/><path class="cls-1" d="M38.09,62l-2.45-.54a4.82,4.82,0,0,1,1.47-2.72,4.63,4.63,0,0,1,3-.82,5.67,5.67,0,0,1,2.61.48A2.77,2.77,0,0,1,44,59.67a7.89,7.89,0,0,1,.39,3l0,3.84a15.72,15.72,0,0,0,.13,2.41,7.64,7.64,0,0,0,.48,1.69H42.26l-.35-1.36a4.93,4.93,0,0,1-1.48,1.23,3.55,3.55,0,0,1-1.68.42,3.2,3.2,0,0,1-2.44-1,3.74,3.74,0,0,1-1-2.67,4.13,4.13,0,0,1,.39-1.85,3.15,3.15,0,0,1,1.09-1.25,7.49,7.49,0,0,1,2.25-.84,12.32,12.32,0,0,0,2.61-.8,3.94,3.94,0,0,0-.15-1.37A1.13,1.13,0,0,0,41,60.6a2.59,2.59,0,0,0-1.11-.2,1.76,1.76,0,0,0-1.14.33A2.27,2.27,0,0,0,38.09,62Zm3.61,2.68a12.43,12.43,0,0,1-1.6.49,3.76,3.76,0,0,0-1.64.73,1.43,1.43,0,0,0-.39,1,1.72,1.72,0,0,0,.43,1.2,1.34,1.34,0,0,0,1.07.49,2,2,0,0,0,1.14-.39,2.13,2.13,0,0,0,.77-.94,5.8,5.8,0,0,0,.22-2Z"/><path class="cls-1" d="M56.41,61.84l-2.66.58c-.2-1.3-.82-2-1.85-2a1.91,1.91,0,0,0-1.62.84,5,5,0,0,0-.61,2.86,5.92,5.92,0,0,0,.61,3.14,1.88,1.88,0,0,0,1.63.92,1.66,1.66,0,0,0,1.26-.53,3.47,3.47,0,0,0,.71-1.84l2.66.55c-.55,3-2.12,4.5-4.73,4.5a4.08,4.08,0,0,1-3.7-1.9,8.43,8.43,0,0,1-1.21-4.58,7.57,7.57,0,0,1,1.37-4.88,4.42,4.42,0,0,1,3.58-1.67,4.36,4.36,0,0,1,2.93.95A5.4,5.4,0,0,1,56.41,61.84Z"/><path class="cls-1" d="M63.59,58.17V60.8H61.75v5a11.67,11.67,0,0,0,.08,1.89.66.66,0,0,0,.67.47,3,3,0,0,0,1.08-.32l.23,2.56a4.45,4.45,0,0,1-2.12.49A2.55,2.55,0,0,1,60,70.42,2.44,2.44,0,0,1,59.21,69,14.48,14.48,0,0,1,59,66.23V60.8H57.8V58.17H59V55.7l2.71-1.92v4.39Z"/><path class="cls-1" d="M66,56.48v-3h2.7v3Zm0,14.14V58.17h2.7V70.62Z"/><path class="cls-1" d="M74.73,70.62,70.6,58.17h2.82l1.93,6.35.56,2.12.57-2.12,2-6.35H81.2L77.13,70.62Z"/><path class="cls-1" d="M89.26,66.67l2.69.55A5.28,5.28,0,0,1,90.27,70,4.74,4.74,0,0,1,84,69.39a7.57,7.57,0,0,1-1.45-4.93,8,8,0,0,1,1.46-5,3.92,3.92,0,0,1,3.22-1.58,4.08,4.08,0,0,1,3.43,1.62A8.86,8.86,0,0,1,92.09,65v.37H85.32a3.68,3.68,0,0,0,.66,2.3,1.92,1.92,0,0,0,1.55.81C88.4,68.45,89,67.85,89.26,66.67Zm.15-3.34a3.67,3.67,0,0,0-.63-2.2,1.72,1.72,0,0,0-1.39-.73,1.75,1.75,0,0,0-1.44.76,3.41,3.41,0,0,0-.59,2.17Z"/><path d="M120.51,13.35V4.75L112.28,0l-7.5,4.33L97.29,0,89.06,4.75v8.59l-7.51,4.33v9.5l7.5,4.33v8.75L97.27,45l7.51-4.33L112.27,45l8.23-4.74V31.51l7.5-4.34v-9.5Zm-15-7.76,6.77-3.91,6.78,3.91v7.75l-6.79,3.91-6.76-3.9Zm-15,0,6.78-3.91,6.77,3.91v7.75l-6.78,3.91-6.77-3.9ZM83,26.33V18.51l6.71-3.88,6.83,3.95v7.75l-6.78,3.91Zm21,13.07-6.78,3.92L90.5,39.4V31.59l6.77-3.92,6.78,3.92ZM98,26.33V18.59l6.77-3.92,6.77,3.91v7.75l-6.77,3.91Zm21,13.07-6.78,3.92L105.5,39.4V31.59l6.77-3.92,6.78,3.92Zm7.5-13.07-6.77,3.91L113,26.33V18.59l6.83-3.95,6.72,3.87Z"/></svg>