<svg id="Layer_1" data-name="Layer 1" xmlns="http://www.w3.org/2000/svg" width="128" height="128" viewBox="0 0 128 128"><title>Human glyph</title><path d="M13.57,119.48A8.58,8.58,0,0,0,22.2,128H64.84c6.18,0,10.89-6.5,7-12.33L53.59,95.13l14.92-4.7,17.65,32.83a9.25,9.25,0,0,0,12,3.89,9,9,0,0,0,4.34-12.25L81.52,72.28a7.9,7.9,0,0,0-9.52-4L50.8,75.12l7-20.54,13.68,6.27a7.76,7.76,0,0,0,10.37-4l9.8-24.69a6.82,6.82,0,0,0,0-5.32h2.3a.9.9,0,0,0,.88-.92V22.15l11.54.79V8.76l-11.54.8V5.44a.9.9,0,0,0-.88-.92H88.24a.63.63,0,0,1-.53-.94L89.13.89A.6.6,0,0,0,88.62,0L80.17,3.87a2.47,2.47,0,0,0-1.41,2.25V25.94a.9.9,0,0,0,.18.54c-.06.13-.13.25-.18.39L71.43,45.24,48.17,35.48a9.84,9.84,0,0,0-13.23,6.16l-12.06,40a13.65,13.65,0,0,0,3.38,12.25l18,17.07H22.2a8.58,8.58,0,0,0-8.63,8.53Z"/><ellipse cx="57.8" cy="17.21" rx="15.82" ry="15.62"/><path d="M111.81,8.25l-3.39.22V23.23l3.39.23a1.65,1.65,0,0,0,1.76-1.67V9.92A1.63,1.63,0,0,0,111.81,8.25Z"/></svg>