<svg id="Layer_1" data-name="Layer 1" xmlns="http://www.w3.org/2000/svg" width="128" height="128" viewBox="0 0 128 128"><title>Artboard 101</title><path d="M2.42,123.76v-14.2H4.78v11.77h5.9v2.43Z"/><path d="M12.09,116.69a10.11,10.11,0,0,1,.76-4.22,5.69,5.69,0,0,1,2-2.46,5.17,5.17,0,0,1,3-.81,5.09,5.09,0,0,1,4.11,1.92,8.38,8.38,0,0,1,1.59,5.48,8.52,8.52,0,0,1-1.68,5.61,4.94,4.94,0,0,1-4,1.79,5,5,0,0,1-4-1.77A8.41,8.41,0,0,1,12.09,116.69Zm2.44-.1a6,6,0,0,0,.94,3.7,2.81,2.81,0,0,0,4.65,0,6.27,6.27,0,0,0,.91-3.76,6.1,6.1,0,0,0-.89-3.68,2.79,2.79,0,0,0-2.34-1.19,2.83,2.83,0,0,0-2.36,1.2A6.14,6.14,0,0,0,14.53,116.59Z"/><path d="M31,118.5v-2.42h5.11v5.7a6.37,6.37,0,0,1-2.19,1.57,6.79,6.79,0,0,1-2.84.65,5.64,5.64,0,0,1-3.07-.85,5.81,5.81,0,0,1-2.1-2.56,9.56,9.56,0,0,1-.78-4,9.33,9.33,0,0,1,.79-4A5.83,5.83,0,0,1,28,110a5.25,5.25,0,0,1,3-.83,5.08,5.08,0,0,1,3.37,1.06A5.11,5.11,0,0,1,36,113.4l-2.34.54a3.08,3.08,0,0,0-1-1.69,2.54,2.54,0,0,0-1.68-.58,3,3,0,0,0-2.45,1.17,5.68,5.68,0,0,0-.94,3.59,6.45,6.45,0,0,0,1,3.94,2.79,2.79,0,0,0,2.35,1.16,3.57,3.57,0,0,0,1.44-.33,4.25,4.25,0,0,0,1.33-.89V118.5Z"/><path d="M43.26,109.44H48a7.45,7.45,0,0,1,2.71.35A3.06,3.06,0,0,1,52,111a3.87,3.87,0,0,1,.53,2,3.76,3.76,0,0,1-.46,1.87,3,3,0,0,1-1.19,1.24,3.18,3.18,0,0,1,1.63,1.27,3.93,3.93,0,0,1,.59,2.19,4.51,4.51,0,0,1-.75,2.64,3.09,3.09,0,0,1-1.78,1.33,18,18,0,0,1-3.31.18h-4Zm2.36,2.38v3.31h1.56a15.07,15.07,0,0,0,1.74,0,1.46,1.46,0,0,0,.95-.51,1.77,1.77,0,0,0,.34-1.13,1.74,1.74,0,0,0-.28-1,1.17,1.17,0,0,0-.67-.49,15,15,0,0,0-2.27-.1Zm0,5.7v3.81h2.2a6.91,6.91,0,0,0,1.86-.15,1.43,1.43,0,0,0,.69-.59,2.15,2.15,0,0,0,.28-1.13,2,2,0,0,0-.3-1.15,1.51,1.51,0,0,0-.79-.62,7.32,7.32,0,0,0-2-.17Z"/><path d="M55.3,123.76V109.44H64v2.42H57.66V115h5.9v2.41h-5.9v3.88h6.57v2.43Z"/><path d="M66.44,123.76V109.44h8.71v2.42H68.8V115h5.9v2.41H68.8v3.88h6.56v2.43Z"/><path d="M77.58,123.76V109.44h2.36v5.63H84.6v-5.63H87v14.32H84.6V117.5H79.94v6.26Z"/><path d="M89.53,123.76V109.44H91.9v14.32Z"/><path d="M97.37,123.76l-4.2-14.32h2.57l3,10.6,2.88-10.6h2.52L99.9,123.76Z"/><path d="M105.51,123.76V109.44h8.71v2.42h-6.35V115h5.9v2.41h-5.9v3.88h6.57v2.43Z"/><path d="M116,119.09l2.32-.28c.26,1.83,1.11,2.75,2.56,2.75a2.42,2.42,0,0,0,1.68-.56,1.79,1.79,0,0,0,.62-1.39,1.53,1.53,0,0,0-.21-.83,1.69,1.69,0,0,0-.66-.57,18.68,18.68,0,0,0-2.13-.73,7.1,7.1,0,0,1-2.21-1,3.59,3.59,0,0,1-1.12-1.41,4.42,4.42,0,0,1,.11-4,3.53,3.53,0,0,1,1.47-1.42,5.21,5.21,0,0,1,2.32-.47,4.06,4.06,0,0,1,4.46,4.33l-2.37.13a2.55,2.55,0,0,0-.68-1.61,2.11,2.11,0,0,0-1.47-.46,2.32,2.32,0,0,0-1.47.4,1.18,1.18,0,0,0-.52,1,1.21,1.21,0,0,0,.47,1,6.52,6.52,0,0,0,2.16.88,9,9,0,0,1,2.58,1.09,3.69,3.69,0,0,1,1.21,1.47,5.23,5.23,0,0,1,.42,2.2,4.52,4.52,0,0,1-1.14,3.13,4.62,4.62,0,0,1-3.59,1.27Q116.53,124,116,119.09Z"/><path d="M30.08,42,14.24,64.41c-.92-.67-1.86-1.33-2.79-2,1.49-1.59,3-3.2,4.39-4.86l4.44-5.22,4.46-5.21c1.45-1.7,2.89-3.42,4.38-5.08Z"/><path d="M18.82,63.93c-.14-.1-2.09-.74-2.53-.88L30.17,42,31,42q-1.71,2.72-3.37,5.46C26.49,49.33,18.82,63.93,18.82,63.93Z"/><path d="M24.28,64.92l-4.6-.51L31.1,42h.39c-.51.91-.93,1.86-1.37,2.79Z"/><path d="M32.74,42c-.52,1.93-2.37,22.46-2.37,22.46l-4.76,0L31.92,42l.8,0Z"/><path d="M32.72,41.88l-3.9-.1,0-1.75a1.73,1.73,0,0,1,.14-.84,5.19,5.19,0,0,1,.54-.72l.58-.75a1.49,1.49,0,0,1,.28-.32,1.15,1.15,0,0,1,.33-.21,1.19,1.19,0,0,1,.38-.11h.43l1,0,.94,0a1.7,1.7,0,0,1,.79.13,1.31,1.31,0,0,1,.54.51l.54.78a7.16,7.16,0,0,1,.49.72,1.58,1.58,0,0,1,.12.77c0,.53,0,1.07.06,1.61-.49,0-1,.06-1.47.09S33.31,41.82,32.72,41.88Z"/><path d="M32.39,62.3l0-2.54V54.7c0-1.69,0-3.39,0-5.08,0-1.51-.06-3-.1-4.55.18-1,.36-1.94.52-2.92L36.3,64.4l-3.94,0V62.3Z"/><path d="M37,64.18,32.83,42,33,42c.37,1.9.72,3.74,1.2,5.6s1,3.73,1.61,5.57l3.36,11Z"/><path d="M40.91,63.93,33.05,42l.47,0c.76,1.85,1.55,3.69,2.35,5.53s2,3.65,2.83,5.51c1.61,3.57,4,7.16,5.66,10.69Z"/><path d="M47.07,63.36l-2.8-4.44-3-4.62c-1-1.54-2-3.07-3-4.6s-2-3.05-3-4.57l0,0c-.52-1-1.06-2.08-1.6-3.11l.55.05,15.29,21Z"/><path d="M34.74,85.11l1.14.16c0,1,0,1.44-.05,2.44-.36-.1-.73-.18-1.1-.27C34.68,86.53,34.72,86.3,34.74,85.11Z"/><path d="M42.22,84.68v2.87c-.42,0-4.84,0-5.81.16-.08-1.12-.07-1.28-.17-2.4Z"/><path d="M40.09,77.13a3.3,3.3,0,0,0-1.71-.85c.35.17,1.29,1.15,1.29,3.32s-.92,3.12-1.38,3.28a3,3,0,0,0,1.9-.71,4,4,0,0,0,1-2.7A3.17,3.17,0,0,0,40.09,77.13Zm0,0a3.3,3.3,0,0,0-1.71-.85c.35.17,1.29,1.15,1.29,3.32s-.92,3.12-1.38,3.28a3,3,0,0,0,1.9-.71,4,4,0,0,0,1-2.7A3.17,3.17,0,0,0,40.09,77.13Zm0,0a3.3,3.3,0,0,0-1.71-.85c.35.17,1.29,1.15,1.29,3.32s-.92,3.12-1.38,3.28a3,3,0,0,0,1.9-.71,4,4,0,0,0,1-2.7A3.17,3.17,0,0,0,40.09,77.13Zm0,0a3.3,3.3,0,0,0-1.71-.85c.35.17,1.29,1.15,1.29,3.32s-.92,3.12-1.38,3.28a3,3,0,0,0,1.9-.71,4,4,0,0,0,1-2.7A3.17,3.17,0,0,0,40.09,77.13Zm8.29,18a32.23,32.23,0,0,1-1.82-4.39,36.3,36.3,0,0,1-1.72-9.34c-.13-3.15-.1-6.27-.08-9.41s.07-4.59.26-7.67l-1.18.42L39.4,65a19.45,19.45,0,0,1,.17,2.58s.09,2.73.14,3.33a3.92,3.92,0,0,1-.85-1.56,6.46,6.46,0,0,1-.28-1.74,17.28,17.28,0,0,1,.3-2.49c-1.17.07-3.17.28-5.9.25,0,1-.14,2-.09,2.94a28.38,28.38,0,0,1-.07,3.45c-.11,1.14-.25,2.28-.47,3.4a27,27,0,0,1-.86,3.32l.42-3.39c.13-1.13.25-2.25.34-3.38s.15-2.26.2-3.39,0-2,0-3a18.65,18.65,0,0,0-3,.08,13.41,13.41,0,0,1-.26,2.6c-.14.86-.3,1.72-.51,2.56a17.56,17.56,0,0,1-.85,2.47l-.09,0A26.28,26.28,0,0,0,28.36,68c0-.85.11-2.21.11-2.21h-.86l-3.81,0-1.83,0a40.17,40.17,0,0,1,0,4.39,36.91,36.91,0,0,1-.29,4.92,38.65,38.65,0,0,1-.28-4.92c0-1.46.1-4.38.1-4.38l-.24,0-1.89-.41c.24,5.55.38,11.11.39,16.67,0,2.87,0,5.74-.18,8.61-.07,1.42-.18,2.86-.34,4.29-.08.71-1.74,3-1.88,3.69a11,11,0,0,1-.41,1.54c.65-.18,2.88-1.9,3.54-2a6.91,6.91,0,0,0,1.58-2.24,17.16,17.16,0,0,0,1.06-3.15A54.28,54.28,0,0,0,24.33,86c.25-2.27.39-4.54.49-6.82s.14-4.57.36-6.86h.1c-.08,2.28,0,4.57,0,6.86s0,4.58-.2,6.87a31.45,31.45,0,0,1-1,6.86,13.8,13.8,0,0,1-1.4,3.23A6.82,6.82,0,0,1,21.07,98a11.84,11.84,0,0,1,1.79-.23,8.6,8.6,0,0,1,2.57.28,20.76,20.76,0,0,1,2.3.8,53.11,53.11,0,0,0,.94-7.34c.08-.86.13-1.73.16-2.6h.1a40.11,40.11,0,0,1-.35,10.25,10.66,10.66,0,0,0,4,.63,8.77,8.77,0,0,0,4.32-.93c0-.12,0-.25-.07-.38a13.36,13.36,0,0,1,0-5.08c.23,1.69.75,5.18.77,5.28.64.06,1.26.21,1.83.28a13.27,13.27,0,0,1,.14-3.27c.11,1.12.22,2.23.37,3.32a2.14,2.14,0,0,0,.85-.13,3.18,3.18,0,0,0,.32-.16c.13-.08.28-.17.42-.24a5.86,5.86,0,0,1,.89-.39,13.16,13.16,0,0,1,2.42-.41A55.8,55.8,0,0,1,43.54,91c.16.6.33,1.2.53,1.79s1.2,4.86,1.27,4.87a13.8,13.8,0,0,1,2.72.43c.58.17,1.13.32,1.7.43a5.9,5.9,0,0,0,.81.09A22.48,22.48,0,0,1,48.38,95.08ZM35.81,77A3.5,3.5,0,0,1,37,76.09a3.18,3.18,0,0,1,1.42-.3,3.1,3.1,0,0,1,2.45,1.3,4.21,4.21,0,0,1,.84,2.57,4,4,0,0,1-.82,2.51,3.3,3.3,0,0,1-2.47,1.09,3.36,3.36,0,0,1-2.49-1.09A4,4,0,0,1,35.81,77ZM41,88.33c-.54,0-1.07,0-1.61,0-1,0-2-.08-2.92-.18l0,.28-.39-.05c-.59-.08-1.2-.14-1.78-.24L34,88.08v-.31a17.25,17.25,0,0,1,.27-3.39l1.81.08h.11v.09L42.69,84,43,88.24S41.5,88.33,41,88.33Zm-2.68-5.45a3,3,0,0,0,1.9-.71,4,4,0,0,0,1-2.7,3.17,3.17,0,0,0-1.09-2.34,3.3,3.3,0,0,0-1.71-.85c.35.17,1.29,1.15,1.29,3.32S38.75,82.72,38.29,82.88Zm1.8-5.75a3.3,3.3,0,0,0-1.71-.85c.35.17,1.29,1.15,1.29,3.32s-.92,3.12-1.38,3.28a3,3,0,0,0,1.9-.71,4,4,0,0,0,1-2.7A3.17,3.17,0,0,0,40.09,77.13Zm0,0a3.3,3.3,0,0,0-1.71-.85c.35.17,1.29,1.15,1.29,3.32s-.92,3.12-1.38,3.28a3,3,0,0,0,1.9-.71,4,4,0,0,0,1-2.7A3.17,3.17,0,0,0,40.09,77.13Zm0,0a3.3,3.3,0,0,0-1.71-.85c.35.17,1.29,1.15,1.29,3.32s-.92,3.12-1.38,3.28a3,3,0,0,0,1.9-.71,4,4,0,0,0,1-2.7A3.17,3.17,0,0,0,40.09,77.13Zm0,0a3.3,3.3,0,0,0-1.71-.85c.35.17,1.29,1.15,1.29,3.32s-.92,3.12-1.38,3.28a3,3,0,0,0,1.9-.71,4,4,0,0,0,1-2.7A3.17,3.17,0,0,0,40.09,77.13Z"/><path d="M54.09,61.24,51.43,62.8l-15.82-19L34.27,42.1l.23,0,1.5.08.07.08.27.32.55.63L38,44.49,40.3,47c1.52,1.66,3.07,3.28,4.61,4.92s3.12,3.24,4.7,4.83Z"/><path d="M59.74,6.11l-10,14.05L48,18.91c.94-1,1.87-2,2.76-3.05l2.79-3.28,2.8-3.26c.91-1.07,1.81-2.16,2.75-3.2Z"/><path d="M52.67,19.86c-.08-.06-1.31-.47-1.59-.55L59.8,6.11l.52,0C59.6,7.23,58.9,8.37,58.2,9.52S52.67,19.86,52.67,19.86Z"/><path d="M56.1,20.48l-2.89-.32S59.76,7.29,60.38,6.09h.25c-.33.57-.59,1.16-.87,1.75Z"/><path d="M61.41,6.07c-.32,1.21-1.49,14.1-1.49,14.1l-3,0,4-14.12.5,0Z"/><path d="M61.4,6,59,6l0-1.11a1.1,1.1,0,0,1,.08-.52,3.84,3.84,0,0,1,.34-.46l.36-.47.18-.2a.74.74,0,0,1,.21-.13A.84.84,0,0,1,60.39,3h.86l.6,0a1.05,1.05,0,0,1,.49.08.86.86,0,0,1,.34.32l.34.49c.1.16.26.34.31.45a1,1,0,0,1,.07.48c0,.34,0,.68,0,1l-.92,0Z"/><path d="M61.19,18.84l0-1.59V14.06c0-1.06,0-2.12,0-3.18S61.14,9,61.11,8l.33-1.83,2.21,14-2.48,0V18.84Z"/><path d="M64.06,20,61.47,6.07l.08,0c.23,1.19.46,2.34.76,3.51s.64,2.34,1,3.5L65.43,20Z"/><path d="M66.54,19.86,61.61,6.08l.29,0c.48,1.16,1,2.32,1.47,3.47s1.27,2.3,1.79,3.47c1,2.24,2.48,4.48,3.54,6.7Z"/><path d="M70.41,19.5l-1.76-2.79-1.87-2.9c-.61-1-1.25-1.92-1.88-2.89L63,8.06h0l-1-2,.35,0,9.6,13.22Z"/><path d="M62.67,33.16l.71.1c0,.62,0,.9,0,1.53l-.69-.17A14.46,14.46,0,0,1,62.67,33.16Z"/><path d="M67.36,32.89v1.8c-.27,0-3,0-3.65.1-.05-.7,0-.8-.11-1.51Z"/><path d="M66,28.15A2.13,2.13,0,0,0,65,27.61a2.37,2.37,0,0,1,.81,2.09c0,1.37-.58,2-.86,2.06a2,2,0,0,0,1.19-.44,2.57,2.57,0,0,0,.62-1.71A2,2,0,0,0,66,28.15Zm0,0A2.13,2.13,0,0,0,65,27.61a2.37,2.37,0,0,1,.81,2.09c0,1.37-.58,2-.86,2.06a2,2,0,0,0,1.19-.44,2.57,2.57,0,0,0,.62-1.71A2,2,0,0,0,66,28.15Zm0,0A2.13,2.13,0,0,0,65,27.61a2.37,2.37,0,0,1,.81,2.09c0,1.37-.58,2-.86,2.06a2,2,0,0,0,1.19-.44,2.57,2.57,0,0,0,.62-1.71A2,2,0,0,0,66,28.15Zm0,0A2.13,2.13,0,0,0,65,27.61a2.37,2.37,0,0,1,.81,2.09c0,1.37-.58,2-.86,2.06a2,2,0,0,0,1.19-.44,2.57,2.57,0,0,0,.62-1.71A2,2,0,0,0,66,28.15Zm5.2,11.27a20,20,0,0,1-1.14-2.76A22.6,22.6,0,0,1,69,30.8c-.08-2-.06-3.94-.05-5.91s0-2.88.16-4.82l-.74.27-2.79.2a13.29,13.29,0,0,1,.11,1.62s.06,1.71.08,2.09a2.53,2.53,0,0,1-.53-1,4.52,4.52,0,0,1-.18-1.1,11.89,11.89,0,0,1,.2-1.56c-.74.05-2,.18-3.71.16,0,.63-.09,1.23-.06,1.85a17.31,17.31,0,0,1,0,2.16,19.32,19.32,0,0,1-.3,2.14A16.68,16.68,0,0,1,60.63,29l.26-2.12c.08-.71.16-1.42.21-2.13s.1-1.42.13-2.13,0-1.23,0-1.85a12.7,12.7,0,0,0-1.89.05,8.13,8.13,0,0,1-.17,1.63c-.08.54-.18,1.08-.31,1.61a10.53,10.53,0,0,1-.54,1.55l-.06,0a15.49,15.49,0,0,0,.42-3.18c0-.53.07-1.38.07-1.38h-.54L55.8,21l-1.15,0c.1.92,0,1.84,0,2.76a22.84,22.84,0,0,1-.19,3.08,24.56,24.56,0,0,1-.17-3.08c0-.92.06-2.75.06-2.75l-.15,0L53,20.73c.15,3.48.24,7,.25,10.47,0,1.8,0,3.6-.12,5.4,0,.89-.11,1.79-.21,2.69-.05.45-1.09,1.87-1.18,2.32a7,7,0,0,1-.26,1c.41-.12,1.81-1.2,2.23-1.29a4.5,4.5,0,0,0,1-1.41,11,11,0,0,0,.67-2,33.84,33.84,0,0,0,.76-4.18c.16-1.42.25-2.85.31-4.28s.09-2.87.22-4.31h.06c0,1.43,0,2.87,0,4.31s0,2.87-.13,4.31A19.79,19.79,0,0,1,56,38.07a9.11,9.11,0,0,1-.88,2,4.45,4.45,0,0,1-1,1.12,8.16,8.16,0,0,1,1.12-.15,5.81,5.81,0,0,1,1.61.18,9.42,9.42,0,0,1,1.44.51,32.59,32.59,0,0,0,.59-4.61c.06-.55.08-1.09.11-1.64H59a25.42,25.42,0,0,1-.22,6.43,6.71,6.71,0,0,0,2.51.4A5.66,5.66,0,0,0,64,41.76a2,2,0,0,1,0-.24,8.55,8.55,0,0,1,0-3.19c.15,1.05.47,3.24.48,3.31.4,0,.79.14,1.15.18a8.36,8.36,0,0,1,.09-2.06c.07.71.14,1.4.24,2.09a1.46,1.46,0,0,0,.52-.08l.21-.1.26-.16a3.93,3.93,0,0,1,.56-.24A8.63,8.63,0,0,1,69,41a35.37,35.37,0,0,1-.83-4.17c.1.38.21.75.33,1.12s.76,3,.8,3.06a8.48,8.48,0,0,1,1.71.27c.36.1.71.2,1.07.27a4.45,4.45,0,0,0,.5,0A15.12,15.12,0,0,1,71.23,39.42ZM63.34,28.05A2,2,0,0,1,65,27.3a2,2,0,0,1,1.54.82A2.7,2.7,0,0,1,67,29.74a2.52,2.52,0,0,1-.51,1.57A2.07,2.07,0,0,1,65,32a2.1,2.1,0,0,1-1.56-.68,2.5,2.5,0,0,1-.64-1.61A2.53,2.53,0,0,1,63.34,28.05Zm3.23,7.13h-1c-.6,0-1.22,0-1.83-.11l0,.17-.25,0c-.37-.05-.75-.09-1.12-.15l-.19,0v-.19a11.28,11.28,0,0,1,.17-2.13l1.14,0h.07v.06l4.1-.36.16,2.67S66.91,35.18,66.57,35.18ZM64.9,31.76a2,2,0,0,0,1.19-.44,2.57,2.57,0,0,0,.62-1.71A2,2,0,0,0,66,28.15,2.13,2.13,0,0,0,65,27.61a2.37,2.37,0,0,1,.81,2.09C65.76,31.07,65.18,31.66,64.9,31.76ZM66,28.15A2.13,2.13,0,0,0,65,27.61a2.37,2.37,0,0,1,.81,2.09c0,1.37-.58,2-.86,2.06a2,2,0,0,0,1.19-.44,2.57,2.57,0,0,0,.62-1.71A2,2,0,0,0,66,28.15Zm0,0A2.13,2.13,0,0,0,65,27.61a2.37,2.37,0,0,1,.81,2.09c0,1.37-.58,2-.86,2.06a2,2,0,0,0,1.19-.44,2.57,2.57,0,0,0,.62-1.71A2,2,0,0,0,66,28.15Zm0,0A2.13,2.13,0,0,0,65,27.61a2.37,2.37,0,0,1,.81,2.09c0,1.37-.58,2-.86,2.06a2,2,0,0,0,1.19-.44,2.57,2.57,0,0,0,.62-1.71A2,2,0,0,0,66,28.15Zm0,0A2.13,2.13,0,0,0,65,27.61a2.37,2.37,0,0,1,.81,2.09c0,1.37-.58,2-.86,2.06a2,2,0,0,0,1.19-.44,2.57,2.57,0,0,0,.62-1.71A2,2,0,0,0,66,28.15Z"/><path d="M74.82,18.17l-1.68,1L63.21,7.25l-.84-1.1h.15c.31,0,.62,0,.94.06l0,0,.17.2.35.4.71.79,1.43,1.56c1,1,1.93,2.06,2.89,3.09s2,2,3,3Z"/><path d="M101.14,29.57l13.1,18.52,2.31-1.64c-1.23-1.32-2.46-2.65-3.63-4l-3.68-4.32-3.68-4.31c-1.21-1.41-2.4-2.84-3.63-4.21Z"/><path d="M110.45,47.7c.11-.09,1.73-.62,2.1-.73l-11.49-17.4-.69,0c.95,1.49,1.88,3,2.79,4.51S110.45,47.7,110.45,47.7Z"/><path d="M105.93,48.52l3.81-.43-9.45-18.54H100c.42.75.77,1.54,1.13,2.31Z"/><path d="M98.93,29.52c.43,1.59,2,18.58,2,18.58l3.94,0L99.61,29.53l-.66,0Z"/><path d="M99,29.45l3.23-.08,0-1.45a1.42,1.42,0,0,0-.11-.7,6.23,6.23,0,0,0-.45-.6L101.1,26a1.47,1.47,0,0,0-.23-.26,1,1,0,0,0-.27-.17.9.9,0,0,0-.32-.09.85.85,0,0,0-.16,0h-1l-.78,0a1.27,1.27,0,0,0-.65.11,1.13,1.13,0,0,0-.45.42l-.45.65a6.92,6.92,0,0,0-.4.59,1.33,1.33,0,0,0-.1.64c0,.44,0,.89,0,1.33l1.22.07Z"/><path d="M99.22,46.35l0-2.1V40.06c0-1.4,0-2.8,0-4.2s0-2.51.08-3.77c-.15-.8-.29-1.61-.43-2.41L96,48.09l3.26,0V46.35Z"/><path d="M95.44,47.91l3.42-18.39-.12,0c-.3,1.57-.59,3.1-1,4.64s-.85,3.08-1.33,4.61l-2.78,9.05Z"/><path d="M92.17,47.7l6.51-18.16-.39,0c-.63,1.54-1.28,3.06-2,4.58s-1.66,3-2.34,4.56c-1.33,3-3.28,5.92-4.68,8.84Z"/><path d="M87.07,47.22l2.32-3.67,2.46-3.82c.81-1.28,1.65-2.54,2.48-3.81S96,33.4,96.85,32.14l0,0c.43-.87.88-1.73,1.32-2.58l-.45,0L85.1,47Z"/><path d="M97.28,65.22l-1,.13c0,.83,0,1.2,0,2l.92-.21C97.33,66.4,97.29,66.21,97.28,65.22Z"/><path d="M91.09,64.87v2.37c.34,0,4,0,4.8.13.07-.92.06-1.06.14-2Z"/><path d="M92,60.55a3.23,3.23,0,0,0,.82,2.24,2.49,2.49,0,0,0,1.57.59c-.38-.13-1.14-.91-1.14-2.71s.77-2.61,1.07-2.75a2.72,2.72,0,0,0-1.42.7A2.62,2.62,0,0,0,92,60.55Zm0,0a3.23,3.23,0,0,0,.82,2.24,2.49,2.49,0,0,0,1.57.59c-.38-.13-1.14-.91-1.14-2.71s.77-2.61,1.07-2.75a2.72,2.72,0,0,0-1.42.7A2.62,2.62,0,0,0,92,60.55Zm0,0a3.23,3.23,0,0,0,.82,2.24,2.49,2.49,0,0,0,1.57.59c-.38-.13-1.14-.91-1.14-2.71s.77-2.61,1.07-2.75a2.72,2.72,0,0,0-1.42.7A2.62,2.62,0,0,0,92,60.55Zm0,0a3.23,3.23,0,0,0,.82,2.24,2.49,2.49,0,0,0,1.57.59c-.38-.13-1.14-.91-1.14-2.71s.77-2.61,1.07-2.75a2.72,2.72,0,0,0-1.42.7A2.62,2.62,0,0,0,92,60.55ZM84.18,76.37a4.07,4.07,0,0,0,.67-.08c.47-.09.93-.21,1.41-.35a11.39,11.39,0,0,1,2.24-.36c.06,0,.9-3.54,1.06-4s.31-1,.43-1.48a46.32,46.32,0,0,1-1.08,5.51,10.59,10.59,0,0,1,2,.34,3.6,3.6,0,0,1,.73.32,2.43,2.43,0,0,1,.35.2,1.69,1.69,0,0,0,.27.13,1.75,1.75,0,0,0,.7.1c.12-.9.22-1.82.3-2.74a10.68,10.68,0,0,1,.12,2.71c.47-.06,1-.19,1.52-.24,0-.08.44-3,.64-4.36a11.19,11.19,0,0,1,0,4.2l-.06.32a7.32,7.32,0,0,0,3.57.76,8.62,8.62,0,0,0,3.3-.52,33.24,33.24,0,0,1-.29-8.48h.09c0,.73.06,1.44.13,2.16a44.15,44.15,0,0,0,.78,6.08,14.2,14.2,0,0,1,1.9-.67,7,7,0,0,1,2.13-.23,9.22,9.22,0,0,1,1.48.19,5.62,5.62,0,0,1-1.32-1.48,11.49,11.49,0,0,1-1.16-2.67,25.6,25.6,0,0,1-.86-5.68c-.13-1.9-.17-3.79-.17-5.69s.09-3.79,0-5.67h.08c.18,1.89.19,3.79.3,5.67s.2,3.77.4,5.64a47.54,47.54,0,0,0,1,5.52,14.06,14.06,0,0,0,.88,2.61,5.69,5.69,0,0,0,1.3,1.85c.56.13,2.4,1.54,2.94,1.7a8.65,8.65,0,0,1-.34-1.28c-.12-.59-1.49-2.46-1.56-3-.13-1.19-.22-2.37-.28-3.55-.12-2.38-.14-4.75-.15-7.12,0-4.6.13-9.21.32-13.8l-1.56.34-.2,0s.07,2.42.08,3.62a30.76,30.76,0,0,1-.23,4.07,32.57,32.57,0,0,1-.24-4.07c0-1.2-.15-2.41,0-3.63l-1.51,0-3.15,0h-.71s.06,1.12.08,1.83a21.21,21.21,0,0,0,.56,4.19l-.08,0a15.35,15.35,0,0,1-.71-2c-.17-.69-.3-1.4-.41-2.12a10.32,10.32,0,0,1-.22-2.15,17.37,17.37,0,0,0-2.49-.07c0,.82,0,1.63,0,2.45s.08,1.87.16,2.8.18,1.87.28,2.8l.35,2.81A21.76,21.76,0,0,1,99.26,57a26.56,26.56,0,0,1-.39-2.82,22.6,22.6,0,0,1-.06-2.85c0-.82-.07-1.61-.07-2.44-2.26,0-3.92-.14-4.89-.2a14.14,14.14,0,0,1,.25,2.06,5,5,0,0,1-.23,1.44,3.25,3.25,0,0,1-.7,1.29c0-.49.11-2.76.11-2.76a16.8,16.8,0,0,1,.14-2.13l-3.67-.26-1-.35c.15,2.55.21,3.8.22,6.34s0,5.18-.07,7.8a30,30,0,0,1-1.42,7.72A26.72,26.72,0,0,1,86,73.47,18.69,18.69,0,0,1,84.18,76.37Zm13-15.69a3.2,3.2,0,0,1-.84,2.11,2.78,2.78,0,0,1-4.1,0,3.58,3.58,0,0,1,0-4.2,2.54,2.54,0,0,1,2-1.08,2.71,2.71,0,0,1,1.19.25,2.84,2.84,0,0,1,1,.73A3.32,3.32,0,0,1,97.15,60.68Zm-6.66,7.13.21-3.53,5.39.49v-.08h.09l1.51-.06a14.78,14.78,0,0,1,.21,2.8v.26l-.26,0c-.48.08-1,.13-1.47.2l-.32,0v-.23c-.8.08-1.61.13-2.41.15-.45,0-.89,0-1.33,0S90.49,67.81,90.49,67.81Zm2.71-7.14c0-1.8.77-2.61,1.07-2.75a2.72,2.72,0,0,0-1.42.7,2.62,2.62,0,0,0-.9,1.93,3.23,3.23,0,0,0,.82,2.24,2.49,2.49,0,0,0,1.57.59C94,63.25,93.2,62.47,93.2,60.67ZM92,60.55a3.23,3.23,0,0,0,.82,2.24,2.49,2.49,0,0,0,1.57.59c-.38-.13-1.14-.91-1.14-2.71s.77-2.61,1.07-2.75a2.72,2.72,0,0,0-1.42.7A2.62,2.62,0,0,0,92,60.55Zm0,0a3.23,3.23,0,0,0,.82,2.24,2.49,2.49,0,0,0,1.57.59c-.38-.13-1.14-.91-1.14-2.71s.77-2.61,1.07-2.75a2.72,2.72,0,0,0-1.42.7A2.62,2.62,0,0,0,92,60.55Zm0,0a3.23,3.23,0,0,0,.82,2.24,2.49,2.49,0,0,0,1.57.59c-.38-.13-1.14-.91-1.14-2.71s.77-2.61,1.07-2.75a2.72,2.72,0,0,0-1.42.7A2.62,2.62,0,0,0,92,60.55Zm0,0a3.23,3.23,0,0,0,.82,2.24,2.49,2.49,0,0,0,1.57.59c-.38-.13-1.14-.91-1.14-2.71s.77-2.61,1.07-2.75a2.72,2.72,0,0,0-1.42.7A2.62,2.62,0,0,0,92,60.55Z"/><path d="M81.26,45.47l2.21,1.29L96.56,31.07l1.11-1.44h-.19l-1.25.08,0,.06L96,30l-.46.53-.93,1-1.88,2.06c-1.26,1.37-2.54,2.72-3.82,4.07s-2.58,2.68-3.89,4Z"/></svg>