<svg id="Layer_1" data-name="Layer 1" xmlns="http://www.w3.org/2000/svg" width="128" height="128" viewBox="0 0 128 128"><defs><style>.cls-1{fill:#fcce05;}</style></defs><title>Artboard 28</title><path class="cls-1" d="M36.75,101.64H34V89.19h2.51V91a5.59,5.59,0,0,1,1.15-1.65,1.86,1.86,0,0,1,1.18-.41,3,3,0,0,1,1.77.62l-.84,2.87a2.08,2.08,0,0,0-1.27-.54,1.39,1.39,0,0,0-1,.42,2.78,2.78,0,0,0-.61,1.51,27.21,27.21,0,0,0-.19,4Z"/><path class="cls-1" d="M48.22,97.69l2.69.55A5.34,5.34,0,0,1,49.23,101a4.75,4.75,0,0,1-6.27-.6,7.55,7.55,0,0,1-1.45-4.93,8,8,0,0,1,1.46-5,3.9,3.9,0,0,1,3.21-1.59,4.1,4.1,0,0,1,3.44,1.62A8.88,8.88,0,0,1,51.05,96l0,.38H44.27a3.73,3.73,0,0,0,.67,2.29,1.9,1.9,0,0,0,1.54.81C47.35,99.47,47.93,98.88,48.22,97.69Zm.14-3.34a3.59,3.59,0,0,0-.62-2.19,1.73,1.73,0,0,0-1.39-.74,1.76,1.76,0,0,0-1.44.77,3.38,3.38,0,0,0-.59,2.16Z"/><path class="cls-1" d="M62.62,92.86,60,93.45c-.19-1.31-.81-2-1.85-2a1.88,1.88,0,0,0-1.61.85,5,5,0,0,0-.62,2.85,5.88,5.88,0,0,0,.62,3.14,1.87,1.87,0,0,0,1.63.92,1.65,1.65,0,0,0,1.26-.52,3.51,3.51,0,0,0,.7-1.85l2.66.55c-.54,3-2.12,4.5-4.72,4.5a4.07,4.07,0,0,1-3.7-1.9,8.32,8.32,0,0,1-1.21-4.58,7.59,7.59,0,0,1,1.37-4.88A4.8,4.8,0,0,1,61,89.85,5.49,5.49,0,0,1,62.62,92.86Z"/><path class="cls-1" d="M71.07,97.69l2.69.55A5.28,5.28,0,0,1,72.08,101a4.75,4.75,0,0,1-6.27-.6,7.55,7.55,0,0,1-1.45-4.93,8,8,0,0,1,1.46-5A3.9,3.9,0,0,1,69,88.9a4.1,4.1,0,0,1,3.44,1.62A8.88,8.88,0,0,1,73.9,96l0,.38H67.12a3.73,3.73,0,0,0,.67,2.29,1.9,1.9,0,0,0,1.54.81C70.2,99.47,70.78,98.88,71.07,97.69Zm.14-3.34a3.59,3.59,0,0,0-.62-2.19,1.73,1.73,0,0,0-1.39-.74,1.76,1.76,0,0,0-1.44.77,3.38,3.38,0,0,0-.59,2.16Z"/><path class="cls-1" d="M85.85,101.64H83.14V95.28A13.74,13.74,0,0,0,83,92.73a1.72,1.72,0,0,0-.57-1,1.43,1.43,0,0,0-.94-.34,1.91,1.91,0,0,0-1.23.44,2.31,2.31,0,0,0-.78,1.22A13,13,0,0,0,79.25,96v5.64H76.54V89.19h2.51V91a5,5,0,0,1,1.51-1.58,3.44,3.44,0,0,1,1.86-.53,3.21,3.21,0,0,1,2,.62,3.14,3.14,0,0,1,1.13,1.58,9.59,9.59,0,0,1,.31,2.8Z"/><path class="cls-1" d="M93.74,89.19v2.63H91.9v5A10.5,10.5,0,0,0,92,98.73a.64.64,0,0,0,.67.47,2.88,2.88,0,0,0,1.07-.31l.24,2.55a4.48,4.48,0,0,1-2.12.49,2.6,2.6,0,0,1-1.66-.49,2.44,2.44,0,0,1-.83-1.42,14.69,14.69,0,0,1-.16-2.77V91.82H88V89.19h1.24V86.72L91.9,84.8v4.39Z"/><path d="M116.15,53a6,6,0,0,0-2-1.18,6.85,6.85,0,0,0,3-5.82,7,7,0,0,0-2.28-5.27,5.42,5.42,0,0,0-4-1.4,7.11,7.11,0,0,0,1.6-4.57,7,7,0,0,0-2.28-5.27,5.73,5.73,0,0,0-1.58-1A6.93,6.93,0,0,0,111.41,23,7,7,0,0,0,109.55,18l1.37-.1c3.06-.19,5.49-2.93,5.67-6.37a7,7,0,0,0-2-5.38,5.44,5.44,0,0,0-4.23-1.59L37,8.88a.29.29,0,0,0-.1,0h-.25c-2.8.25-4.41,4.23-4.11,7.65A8.47,8.47,0,0,0,34.28,21l.12.14-9.46.66h-.09l-.06,0-.33,0a1,1,0,0,0-.55.23,4.87,4.87,0,0,0-2.14,2.83,12.34,12.34,0,0,0-.66,4.27,3,3,0,0,0-2.18-.73c-1.25.11-2.3,1.06-3,2.68A10.64,10.64,0,0,0,15.33,36c0,.25,0,.43,0,.57s0,.18,0,.26l-.66.06a2.91,2.91,0,0,0-1-.1c-1.28.12-2.37,1.08-3.08,2.72A9.58,9.58,0,0,0,9.91,44c.26,3,2.23,6,4.79,6H15a2.9,2.9,0,0,0,.65-.14l.12.08a8.09,8.09,0,0,0,1.43,3.37,7.41,7.41,0,0,0-2.1,6.07c.27,3.11,2.41,5.6,4.75,5.6h.27c5-.35,7.09-.52,8-.64a.41.41,0,0,1,0,.11c.28,3.15,2.62,5.95,4.9,5.95h.23l.14,0a.8.8,0,0,0,.15,0h.09l79.13-7.11A5.93,5.93,0,0,0,116.15,53ZM110.49,6.51a3.45,3.45,0,0,1,2.69,1,5,5,0,0,1,1.41,3.85c-.12,2.42-1.76,4.35-3.8,4.48l-4.71.32a5.07,5.07,0,0,0-1,0L41.2,20.65a8.54,8.54,0,0,0,1-4.94,9.38,9.38,0,0,0-1.73-4.62c-.1-.14-.21-.27-.31-.39ZM36.86,10.9H37a2.82,2.82,0,0,1,2,1.37,7.57,7.57,0,0,1,1.35,3.61c.21,2.43-.93,4.84-2.37,5h-.06a2.53,2.53,0,0,1-2-1.15,6.43,6.43,0,0,1-1.28-3.34C34.33,13.79,35.49,11,36.86,10.9Zm1,12h.28l1-.07L106,18.2a3.53,3.53,0,0,1,1.93.95A5,5,0,0,1,109.41,23c-.07,2.42-1.66,4.38-3.71,4.55l-76.6,7.4a10.42,10.42,0,0,0,1-5.63A11.7,11.7,0,0,0,28,23.57ZM23.65,25.56c.36-1,.88-1.7,1.33-1.77h.12c1,0,2.74,2.56,3,5.68s-.88,5.5-2,5.59c-.53.05-1.16-.43-1.73-1.29a8.52,8.52,0,0,1-1.26-3.86A10.71,10.71,0,0,1,23.65,25.56Zm-5.84,6.3c.36-.87.84-1.41,1.3-1.45s1,.41,1.53,1.2a8.68,8.68,0,0,1,1.18,3.78c0,.34,0,.59,0,.78l-4.49.43c0-.05,0-.11,0-.18s0-.35,0-.63A8.68,8.68,0,0,1,17.81,31.86Zm-1.5,14.87c-.4.81-.95,1.3-1.5,1.34-1.14.09-2.69-1.75-2.91-4.21a7.87,7.87,0,0,1,.55-3.6c.39-.9.93-1.47,1.43-1.51H14c1.12,0,2.71,2.21,2.93,4.68A6.35,6.35,0,0,1,16.31,46.73Zm.8-8.1,89-8.51a3.5,3.5,0,0,1,2.74.89,5,5,0,0,1,1.6,3.77c0,2.43-1.53,4.44-3.54,4.67L66.77,43.27,24.94,47h0a2.68,2.68,0,0,0-1.16.37l-5.84.55c0-.09.11-.18.16-.28a8.44,8.44,0,0,0,.77-4.39A9.1,9.1,0,0,0,17.11,38.63Zm4.09,11c-.06,1.62-.66,2.85-1.21,3.14a3.28,3.28,0,0,0-.69-.1,4.67,4.67,0,0,1-1.51-2.71Zm.28,12.19A2.19,2.19,0,0,1,20,63c-1.3.11-2.69-1.71-2.87-3.77s.75-4.26,1.84-4.57a2.45,2.45,0,0,0,.81.13h.07a3.19,3.19,0,0,1,1.07,1,6.18,6.18,0,0,1,1.19,3A5.35,5.35,0,0,1,21.48,61.8Zm2.21-11.3a3.39,3.39,0,0,1,.81-1.2l1.29-.13a6.21,6.21,0,0,1,2.33,4.48A6.39,6.39,0,0,1,27.54,57a2.12,2.12,0,0,1-1.49,1.34c-1.14.1-2.7-1.76-2.91-4.22A7.7,7.7,0,0,1,23.69,50.5ZM29,60a8.89,8.89,0,0,0-.71,2.35c-.45.07-2.57.25-5,.43l0,0a7.13,7.13,0,0,0,.84-3,3.41,3.41,0,0,0,1.87.58h.28a3.62,3.62,0,0,0,2.62-1.64l.45,0a.93.93,0,0,0,.2.48A8,8,0,0,0,29,60Zm1.16-6.56a9.24,9.24,0,0,0-1.71-4.54L67,45.25l43.81-3.89a3.44,3.44,0,0,1,2.75.89,5,5,0,0,1,1.6,3.77c0,2.42-1.53,4.43-3.52,4.66L29.81,56.59A9,9,0,0,0,30.11,53.47Zm3,15c-1.11.08-2.76-1.89-3-4.13a6.94,6.94,0,0,1,.62-3.44c.42-.88,1-1.47,1.44-1.51h.07a2.37,2.37,0,0,1,1.6,1.12,6.31,6.31,0,0,1,1.19,3.12C35.27,66,34.11,68.37,33.1,68.46Zm79.49-7.11L36.1,68.22a8.8,8.8,0,0,0,.95-4.78,8.29,8.29,0,0,0-1.58-4.15l-.12-.14,76.41-5.62a3.89,3.89,0,0,1,3.06,1,3.93,3.93,0,0,1-2.23,6.84Z"/><path d="M25.79,123.76v-14.2h2.37v11.77h5.89v2.43Z"/><path d="M35.47,116.69a10.29,10.29,0,0,1,.75-4.22,5.77,5.77,0,0,1,2-2.46,5.22,5.22,0,0,1,3-.81,5.09,5.09,0,0,1,4.11,1.92,10.25,10.25,0,0,1-.1,11.09,4.92,4.92,0,0,1-4,1.79,5,5,0,0,1-4-1.77A8.41,8.41,0,0,1,35.47,116.69Zm2.44-.1a6,6,0,0,0,.94,3.7,2.8,2.8,0,0,0,4.64,0,6.27,6.27,0,0,0,.92-3.76,6.17,6.17,0,0,0-.89-3.68,2.91,2.91,0,0,0-4.7,0A6.14,6.14,0,0,0,37.91,116.59Z"/><path d="M54.38,118.5v-2.42h5.1v5.7a6.22,6.22,0,0,1-2.18,1.57,6.87,6.87,0,0,1-2.85.65,5.52,5.52,0,0,1-3.06-.85,5.83,5.83,0,0,1-2.11-2.56,9.76,9.76,0,0,1-.77-4,9.48,9.48,0,0,1,.78-4,6,6,0,0,1,2-2.51,5.29,5.29,0,0,1,3-.83,5,5,0,0,1,3.36,1.06,5.12,5.12,0,0,1,1.63,3.14l-2.35.54a3,3,0,0,0-1-1.69,2.54,2.54,0,0,0-1.68-.58,3,3,0,0,0-2.45,1.17,5.68,5.68,0,0,0-.94,3.59,6.52,6.52,0,0,0,1,3.94,2.81,2.81,0,0,0,2.36,1.16,3.57,3.57,0,0,0,1.44-.33,4.25,4.25,0,0,0,1.33-.89V118.5Z"/><path d="M67.34,118.5v-2.42h5.11v5.7a6.37,6.37,0,0,1-2.19,1.57,6.79,6.79,0,0,1-2.84.65,5.56,5.56,0,0,1-3.07-.85,5.88,5.88,0,0,1-2.1-2.56,9.6,9.6,0,0,1-.78-4,9.33,9.33,0,0,1,.79-4,5.83,5.83,0,0,1,2-2.51,5.25,5.25,0,0,1,3-.83,4.59,4.59,0,0,1,5,4.2l-2.34.54a3.08,3.08,0,0,0-1-1.69,2.54,2.54,0,0,0-1.68-.58,3,3,0,0,0-2.45,1.17,5.75,5.75,0,0,0-.94,3.59,6.45,6.45,0,0,0,1,3.94,2.79,2.79,0,0,0,2.35,1.16,3.57,3.57,0,0,0,1.44-.33,4.42,4.42,0,0,0,1.34-.89V118.5Z"/><path d="M74.77,123.76V109.44h2.36v14.32Z"/><path d="M79.62,123.76V109.44h2.31l4.8,9.56v-9.56h2.21v14.32H86.56l-4.73-9.34v9.34Z"/><path d="M97.1,118.5v-2.42h5.11v5.7a6.37,6.37,0,0,1-2.19,1.57,6.79,6.79,0,0,1-2.84.65,5.56,5.56,0,0,1-3.07-.85,5.81,5.81,0,0,1-2.1-2.56,9.6,9.6,0,0,1-.78-4,9.33,9.33,0,0,1,.79-4,5.83,5.83,0,0,1,2-2.51,5.28,5.28,0,0,1,3-.83,4.59,4.59,0,0,1,5,4.2l-2.34.54a3.08,3.08,0,0,0-1-1.69,2.54,2.54,0,0,0-1.68-.58,3,3,0,0,0-2.45,1.17,5.68,5.68,0,0,0-.94,3.59,6.45,6.45,0,0,0,1,3.94A2.79,2.79,0,0,0,97,121.53a3.57,3.57,0,0,0,1.44-.33,4.25,4.25,0,0,0,1.33-.89V118.5Z"/></svg>