<svg id="Layer_1" data-name="Layer 1" xmlns="http://www.w3.org/2000/svg" width="128" height="128" viewBox="0 0 128 128"><defs><style>.cls-1{fill:#d62525;}</style></defs><title>Artboard 25</title><path d="M108.1,100.24,65.83,40.72l7.45-10.6a1.5,1.5,0,1,0-2.45-1.72L64,38.11,57.17,28.4a1.5,1.5,0,1,0-2.45,1.72l7.45,10.6L19.9,100.24H49.69V77.93H78.31v22.31Z"/><path d="M48.26,118.49l2.3.89a6.48,6.48,0,0,1-1.79,3.51A4.48,4.48,0,0,1,45.69,124,4.55,4.55,0,0,1,42,122.23a8.55,8.55,0,0,1-1.64-5.51A9,9,0,0,1,42,111a4.68,4.68,0,0,1,3.86-1.79,4.46,4.46,0,0,1,3.31,1.34,6,6,0,0,1,1.39,2.84l-2.35.69a3.17,3.17,0,0,0-.89-1.78,2.24,2.24,0,0,0-1.58-.62,2.51,2.51,0,0,0-2.13,1.13,6.57,6.57,0,0,0-.82,3.74,7,7,0,0,0,.8,3.85,2.45,2.45,0,0,0,2.08,1.14,2.12,2.12,0,0,0,1.62-.73A4.52,4.52,0,0,0,48.26,118.49Z"/><path d="M63.37,123.76H60.8l-1-3.25h-4.7l-1,3.25H51.59l4.57-14.32h2.51ZM59,118.09l-1.62-5.31-1.59,5.31Z"/><path d="M64.78,123.76V109.44h3.55l2.13,9.77,2.12-9.77h3.56v14.32H73.93V112.48l-2.34,11.28H69.31L67,112.48v11.28Z"/><path d="M78.68,123.76V109.44h3.8a12.22,12.22,0,0,1,2.79.2A3.22,3.22,0,0,1,87,111.06a5.19,5.19,0,0,1,.68,2.79,5.3,5.3,0,0,1-.59,2.61,3.39,3.39,0,0,1-1.46,1.47,7.68,7.68,0,0,1-3,.43H81v5.4ZM81,111.86v4.07h1.31a6,6,0,0,0,1.8-.18,1.65,1.65,0,0,0,.77-.67,2.15,2.15,0,0,0,.31-1.19,2.2,2.2,0,0,0-.32-1.21,1.5,1.5,0,0,0-.77-.65,7.06,7.06,0,0,0-2-.17Z"/><path class="cls-1" d="M25.79,17.56V3.36h2.37V15.14h5.89v2.42Z"/><path class="cls-1" d="M35.47,10.49a10.2,10.2,0,0,1,.75-4.21,5.75,5.75,0,0,1,2-2.47,5.22,5.22,0,0,1,3-.81,5.09,5.09,0,0,1,4.11,1.92,8.46,8.46,0,0,1,1.58,5.48A8.55,8.55,0,0,1,45.17,16a4.91,4.91,0,0,1-4,1.78,4.94,4.94,0,0,1-4-1.76A8.43,8.43,0,0,1,35.47,10.49Zm2.44-.1a6.07,6.07,0,0,0,.94,3.71,2.82,2.82,0,0,0,2.32,1.23,2.77,2.77,0,0,0,2.32-1.22,6.3,6.3,0,0,0,.92-3.77,6.19,6.19,0,0,0-.89-3.68,2.91,2.91,0,0,0-4.7,0A6.14,6.14,0,0,0,37.91,10.39Z"/><path class="cls-1" d="M54.38,12.31V9.88h5.1v5.71a6.34,6.34,0,0,1-2.18,1.56,6.72,6.72,0,0,1-2.85.65A5.52,5.52,0,0,1,51.39,17a5.77,5.77,0,0,1-2.11-2.56,9.69,9.69,0,0,1-.77-4,9.55,9.55,0,0,1,.78-4,6,6,0,0,1,2-2.51,5.37,5.37,0,0,1,3-.83A5,5,0,0,1,57.7,4.07a5.1,5.1,0,0,1,1.63,3.14L57,7.75a3,3,0,0,0-1-1.69,2.55,2.55,0,0,0-1.68-.59,3,3,0,0,0-2.45,1.18A5.66,5.66,0,0,0,51,10.24a6.51,6.51,0,0,0,1,3.93,2.78,2.78,0,0,0,2.36,1.16A3.55,3.55,0,0,0,55.76,15a4.63,4.63,0,0,0,1.33-.89V12.31Z"/><path class="cls-1" d="M67.34,12.31V9.88h5.11v5.71a6.48,6.48,0,0,1-2.19,1.56,6.64,6.64,0,0,1-2.84.65A5.56,5.56,0,0,1,64.35,17a5.75,5.75,0,0,1-2.1-2.56,9.53,9.53,0,0,1-.78-4,9.39,9.39,0,0,1,.79-4,5.83,5.83,0,0,1,2-2.51,5.33,5.33,0,0,1,3-.83,5.08,5.08,0,0,1,3.37,1.07,5.09,5.09,0,0,1,1.62,3.14L70,7.75a3,3,0,0,0-1-1.69,2.55,2.55,0,0,0-1.68-.59,3,3,0,0,0-2.45,1.18,5.66,5.66,0,0,0-.94,3.59,6.44,6.44,0,0,0,1,3.93,2.76,2.76,0,0,0,2.35,1.16A3.55,3.55,0,0,0,68.72,15a4.63,4.63,0,0,0,1.33-.89V12.31Z"/><path class="cls-1" d="M74.77,17.56V3.24h2.36V17.56Z"/><path class="cls-1" d="M79.62,17.56V3.24h2.31l4.8,9.56V3.24h2.21V17.56H86.56L81.83,8.22v9.34Z"/><path class="cls-1" d="M97.1,12.31V9.88h5.11v5.71A6.48,6.48,0,0,1,100,17.15a6.64,6.64,0,0,1-2.84.65A5.56,5.56,0,0,1,94.11,17,5.75,5.75,0,0,1,92,14.39a9.53,9.53,0,0,1-.78-4,9.39,9.39,0,0,1,.79-4,5.83,5.83,0,0,1,2-2.51,5.33,5.33,0,0,1,3-.83,5.08,5.08,0,0,1,3.37,1.07,5.09,5.09,0,0,1,1.62,3.14l-2.34.54a3,3,0,0,0-1-1.69,2.55,2.55,0,0,0-1.68-.59,3,3,0,0,0-2.45,1.18,5.66,5.66,0,0,0-.94,3.59,6.44,6.44,0,0,0,1,3.93A2.76,2.76,0,0,0,97,15.33,3.55,3.55,0,0,0,98.48,15a4.63,4.63,0,0,0,1.33-.89V12.31Z"/><path class="cls-1" d="M38.37,62l-2.45-.54a4.7,4.7,0,0,1,1.47-2.72,4.59,4.59,0,0,1,3-.82,5.67,5.67,0,0,1,2.61.48,2.86,2.86,0,0,1,1.29,1.31,7.94,7.94,0,0,1,.38,3l0,3.84a15.72,15.72,0,0,0,.13,2.41,8.91,8.91,0,0,0,.48,1.69H42.54l-.35-1.36a5,5,0,0,1-1.49,1.23,3.49,3.49,0,0,1-1.68.42,3.22,3.22,0,0,1-2.43-1,3.7,3.7,0,0,1-1-2.67A4.13,4.13,0,0,1,36,65.39a3.15,3.15,0,0,1,1.09-1.25,7.49,7.49,0,0,1,2.25-.84A12.66,12.66,0,0,0,42,62.5a3.94,3.94,0,0,0-.15-1.37,1.2,1.2,0,0,0-.54-.53,2.53,2.53,0,0,0-1.11-.2,1.8,1.8,0,0,0-1.14.33A2.27,2.27,0,0,0,38.37,62ZM42,64.64a12.69,12.69,0,0,1-1.61.49,3.82,3.82,0,0,0-1.64.73,1.43,1.43,0,0,0-.39,1,1.78,1.78,0,0,0,.43,1.2,1.36,1.36,0,0,0,1.07.49A2,2,0,0,0,41,68.2a2.23,2.23,0,0,0,.78-.94,6.07,6.07,0,0,0,.22-2Z"/><path class="cls-1" d="M56.68,61.84,54,62.42c-.19-1.3-.81-2-1.85-2a1.9,1.9,0,0,0-1.61.84,5,5,0,0,0-.62,2.86,6,6,0,0,0,.61,3.14,1.9,1.9,0,0,0,1.64.92,1.66,1.66,0,0,0,1.26-.53,3.47,3.47,0,0,0,.7-1.84l2.66.55q-.83,4.5-4.72,4.5a4.06,4.06,0,0,1-3.7-1.9,8.34,8.34,0,0,1-1.21-4.58,7.51,7.51,0,0,1,1.37-4.88,4.8,4.8,0,0,1,6.51-.72A5.45,5.45,0,0,1,56.68,61.84Z"/><path class="cls-1" d="M63.87,58.17V60.8H62v5a10.5,10.5,0,0,0,.08,1.89.65.65,0,0,0,.67.47,2.89,2.89,0,0,0,1.07-.32l.24,2.56a4.48,4.48,0,0,1-2.12.49,2.6,2.6,0,0,1-1.66-.49A2.47,2.47,0,0,1,59.48,69a14.76,14.76,0,0,1-.16-2.77V60.8H58.08V58.17h1.24V55.7L62,53.78v4.39Z"/><path class="cls-1" d="M66.23,56.48v-3h2.71v3Zm0,14.14V58.17h2.71V70.62Z"/><path class="cls-1" d="M75,70.62,70.87,58.17H73.7l1.93,6.35.56,2.12.57-2.12,1.95-6.35h2.77L77.41,70.62Z"/><path class="cls-1" d="M89.54,66.67l2.68.55A5.33,5.33,0,0,1,90.55,70a4.74,4.74,0,0,1-6.27-.61,7.51,7.51,0,0,1-1.46-4.93,7.91,7.91,0,0,1,1.47-5,3.91,3.91,0,0,1,3.21-1.58,4.07,4.07,0,0,1,3.43,1.62A8.8,8.8,0,0,1,92.36,65v.37H85.59a3.81,3.81,0,0,0,.66,2.3,1.93,1.93,0,0,0,1.55.81C88.67,68.45,89.25,67.85,89.54,66.67Zm.14-3.34a3.6,3.6,0,0,0-.62-2.2,1.73,1.73,0,0,0-2.84,0,3.41,3.41,0,0,0-.58,2.17Z"/></svg>