<svg id="Layer_1" data-name="Layer 1" xmlns="http://www.w3.org/2000/svg" width="128" height="128" viewBox="0 0 128 128"><title>Artboard 29</title><path d="M64.84,42.76c-4.44-.19-9,.49-12.3,5.36a18.58,18.58,0,0,0-3.8,11.42c-.45,10.69,4.7,19.79,15.2,19.75s14.83-7,15.27-17.51c.21-5,.11-9.46-2.6-13.2C73.73,44.59,69.29,42.94,64.84,42.76Zm6.58,20.36C71,66.8,68.65,71,63.77,70.84s-7.24-2.54-7-9.27c.14-3.46.32-6.46,2.31-8.77,1.72-2,7.45-4.92,11.1.77C71.87,56.13,71.81,59.43,71.42,63.12Z"/><path d="M93.39,44.46c-.8-5.31-11.63-8.33-16.14-9.5-7.63-1.55-20.72-2.34-24-2.05-3.77.34-8.5.59-11.61,4.21s-5.38,6.55-6.49,13.13-1.64,15.71.13,23C39.21,84.6,44.06,86.59,47.08,89c4.38,3.44,13,5.4,14.09,5.64h.12c7.38.89,12.2.84,16.73-1.88,12.25-7.12,13.64-18.86,14.42-23.09C94.08,60.74,94.16,49.59,93.39,44.46ZM82.28,71.94c-.32,1.42-2.08,4.42-4,7.35-1.39,2.17-2.46,4.29-5.1,5.73-4.14,2.25-10.2,1.85-11.1,1.78H62c-1.1-.12-6.63-1-9.68-3.54-4.44-3.84-9-10.34-9.44-13.37s.24-11.41.15-15.94c-.15-7.34,6.29-13,8.81-14.36s10.86-.35,10.86-.35h0A71.34,71.34,0,0,1,72.86,40.4c4.66.88,12.06,1.87,13.22,9.05C86.79,53.86,82.85,69.47,82.28,71.94Z"/><path d="M14,124V109.68h3.55l2.13,9.78,2.12-9.78h3.56V124H23.14V112.72L20.8,124H18.52L16.2,112.72V124Z"/><path d="M38.48,124H35.91l-1-3.24h-4.7l-1,3.24H26.69l4.58-14.32h2.51Zm-4.36-5.66L32.5,113l-1.59,5.32Z"/><path d="M40,124V109.68h2.3l4.81,9.56v-9.56h2.21V124H46.88l-4.72-9.34V124Z"/><path d="M56,120.18v-2.74h4.43v2.74Z"/><path d="M67.11,124V109.68h3.54l2.14,9.78,2.11-9.78h3.57V124H76.26V112.72L73.92,124H71.64l-2.33-11.28V124Z"/><path d="M91.59,124H89l-1-3.24H83.3l-1,3.24H79.81l4.57-14.32h2.51Zm-4.36-5.66L85.61,113,84,118.34Z"/><path d="M93,109.68h4.32a6.5,6.5,0,0,1,2.47.37,4.1,4.1,0,0,1,1.54,1.24,6.48,6.48,0,0,1,1.1,2.25,12.52,12.52,0,0,1,.4,3.45,11.1,11.1,0,0,1-.42,3.23,6.55,6.55,0,0,1-1.06,2.17,4.15,4.15,0,0,1-1.56,1.2,5.83,5.83,0,0,1-2.35.41H93Zm2.36,2.43v9.47h1.78a4.42,4.42,0,0,0,1.65-.22,2,2,0,0,0,.84-.65,3.52,3.52,0,0,0,.54-1.37,10.87,10.87,0,0,0,.22-2.46,11.67,11.67,0,0,0-.22-2.51,3.44,3.44,0,0,0-.69-1.45,2.13,2.13,0,0,0-1.12-.69,10,10,0,0,0-1.93-.12Z"/><path d="M105.08,124V109.68h8.71v2.43h-6.35v3.17h5.9v2.41h-5.9v3.89H114V124Z"/><path d="M11.37,17.56,8.56,3.24H11l1.76,9.84L14.9,3.24h2.82l2.06,10,1.82-10H24L21.13,17.56H18.6L16.26,6.85,13.93,17.56Z"/><path d="M35.08,17.56H32.51l-1-3.24h-4.7l-1,3.24H23.29L27.86,3.24h2.51ZM30.72,11.9,29.1,6.58,27.51,11.9Z"/><path d="M38,17.56V5.67H34.48V3.24H43.8V5.67H40.33V17.56Z"/><path d="M45.55,17.56V3.24h8.71V5.67H47.91V8.84h5.9v2.41h-5.9v3.89h6.56v2.42Z"/><path d="M56.68,17.56V3.24h5a6.91,6.91,0,0,1,2.74.39A3,3,0,0,1,65.75,5a4.52,4.52,0,0,1,.53,2.28,4.27,4.27,0,0,1-.8,2.7,3.54,3.54,0,0,1-2.29,1.29,6.58,6.58,0,0,1,1.26,1.2,16.81,16.81,0,0,1,1.35,2.33l1.43,2.79H64.4l-1.71-3.11a20.63,20.63,0,0,0-1.26-2.12,1.84,1.84,0,0,0-.7-.58,3.17,3.17,0,0,0-1.2-.17h-.48v6ZM59.05,9.3H60.8a9,9,0,0,0,2.05-.14,1.34,1.34,0,0,0,.72-.57,2.15,2.15,0,0,0,.27-1.15,2,2,0,0,0-.27-1.1,1.45,1.45,0,0,0-.74-.57,9.93,9.93,0,0,0-1.93-.1H59.05Z"/><path d="M73.48,17.56V3.24h2.36V8.88H80.5V3.24h2.36V17.56H80.5V11.3H75.84v6.26Z"/><path d="M85,10.49a10.2,10.2,0,0,1,.75-4.21,5.75,5.75,0,0,1,2-2.47,5.25,5.25,0,0,1,3-.81,5.09,5.09,0,0,1,4.11,1.92,8.4,8.4,0,0,1,1.58,5.48A8.55,8.55,0,0,1,94.73,16a5.43,5.43,0,0,1-8,0A8.43,8.43,0,0,1,85,10.49Zm2.44-.1a6.07,6.07,0,0,0,.94,3.71,2.82,2.82,0,0,0,2.33,1.23,2.76,2.76,0,0,0,2.31-1.22A6.23,6.23,0,0,0,94,10.34a6.19,6.19,0,0,0-.89-3.68,2.91,2.91,0,0,0-4.7,0A6.14,6.14,0,0,0,87.47,10.39Z"/><path d="M98.5,17.56V3.24h2.3l4.81,9.56V3.24h2.21V17.56h-2.39l-4.72-9.34v9.34Z"/><path d="M110.51,17.56V3.24h8.72V5.67h-6.35V8.84h5.9v2.41h-5.9v3.89h6.56v2.42Z"/></svg>