<svg id="Layer_1" data-name="Layer 1" xmlns="http://www.w3.org/2000/svg" width="128" height="128" viewBox="0 0 128 128"><defs><style>.cls-1{fill:#61ce63;}</style></defs><title>Artboard 31</title><rect x="40.37" y="41.95" width="9.63" height="48.02" rx="0.52" transform="translate(59.87 -12.63) rotate(45)"/><rect x="70.65" y="32.66" width="9.63" height="6.01" rx="0.52" transform="translate(47.33 -42.92) rotate(45)"/><path d="M42.4,29.61s15.11-4,29.1,10S82.15,69.36,82.15,69.36s-5.25-10.9-17.36-23S42.4,29.61,42.4,29.61Z"/><polygon points="73.65 80.26 81.68 73.5 96.47 78.66 83.48 85.82 73.65 80.26"/><polygon points="85.92 88.26 98.88 80.68 102.99 98.91 83.09 98.91 85.92 88.26"/><polygon points="82.5 87.74 79.88 98.91 62.95 98.91 71.93 82.35 82.5 87.74"/><path d="M67.82,79.4H59.48a1.16,1.16,0,1,1,0-2.31h8.34a1.16,1.16,0,0,1,0,2.31Z"/><path d="M71.91,72.56a1.17,1.17,0,0,1-.81-.33l-5.58-5.44a1.16,1.16,0,0,1,0-1.64,1.14,1.14,0,0,1,1.63,0l5.59,5.45a1.16,1.16,0,0,1,0,1.63A1.18,1.18,0,0,1,71.91,72.56Z"/><path d="M89.74,69.84a1.16,1.16,0,0,1-.48-.11,1.15,1.15,0,0,1-.57-1.53l2.87-6.28a1.16,1.16,0,0,1,2.11,1l-2.88,6.28A1.14,1.14,0,0,1,89.74,69.84Z"/><path class="cls-1" d="M49.78,13.78a7.46,7.46,0,0,1,.73-3.33A5.34,5.34,0,0,1,52.4,8.19,4.81,4.81,0,0,1,55,7.44a4.52,4.52,0,0,1,3.87,1.93,7.47,7.47,0,0,1,1.4,4.52,8,8,0,0,1-.73,3.47,5.56,5.56,0,0,1-1.92,2.33,4.65,4.65,0,0,1-2.61.78,4.8,4.8,0,0,1-3.77-1.73A7.37,7.37,0,0,1,49.78,13.78Zm2.77.18a4.63,4.63,0,0,0,.74,2.86,2.16,2.16,0,0,0,1.78,1,2.14,2.14,0,0,0,1.75-1,4.74,4.74,0,0,0,.73-2.88,4.66,4.66,0,0,0-.74-2.83,2.17,2.17,0,0,0-1.77-1,2.14,2.14,0,0,0-1.76,1A4.7,4.7,0,0,0,52.55,14Z"/><path class="cls-1" d="M62.92,20.18V3h2.7V20.18Z"/><path class="cls-1" d="M78.22,20.18H75.71V18.35a4.61,4.61,0,0,1-1.46,1.59,3.25,3.25,0,0,1-1.74.53,3.67,3.67,0,0,1-3-1.71,8,8,0,0,1-1.27-4.87A7.84,7.84,0,0,1,69.5,9.07a3.7,3.7,0,0,1,3-1.63,3.13,3.13,0,0,1,1.6.44,4.27,4.27,0,0,1,1.36,1.3V3h2.71ZM71,13.69a8.23,8.23,0,0,0,.29,2.52,2.53,2.53,0,0,0,.82,1.24,1.79,1.79,0,0,0,2.74-.54A5.2,5.2,0,0,0,75.53,14a5.74,5.74,0,0,0-.64-3.09,1.84,1.84,0,0,0-3.21,0A4.84,4.84,0,0,0,71,13.69Z"/><path d="M13.87,123.76V109.44h3.54l2.14,9.77,2.12-9.77h3.56v14.32H23V112.48l-2.34,11.28H18.4l-2.32-11.28v11.28Z"/><path d="M27.69,123.76V109.44h2.37v14.32Z"/><path d="M32.55,123.76V109.44h2.3L39.66,119v-9.56h2.21v14.32H39.48l-4.72-9.34v9.34Z"/><path d="M44.49,123.76V109.44h2.36v14.32Z"/><path d="M49.35,123.76V109.44h2.3L56.46,119v-9.56h2.2v14.32H56.28l-4.73-9.34v9.34Z"/><path d="M66.82,118.5v-2.42h5.11v5.7a6.18,6.18,0,0,1-2.19,1.57,6.79,6.79,0,0,1-2.84.65,5.56,5.56,0,0,1-3.07-.85,5.88,5.88,0,0,1-2.1-2.56,9.6,9.6,0,0,1-.78-4,9.48,9.48,0,0,1,.79-4,5.83,5.83,0,0,1,2-2.51,5.28,5.28,0,0,1,3-.83,4.59,4.59,0,0,1,5,4.2l-2.34.54a3.08,3.08,0,0,0-1-1.69,2.54,2.54,0,0,0-1.68-.58,3,3,0,0,0-2.45,1.17,5.75,5.75,0,0,0-.94,3.59,6.45,6.45,0,0,0,1,3.94,2.79,2.79,0,0,0,2.35,1.16,3.5,3.5,0,0,0,1.44-.33,4.3,4.3,0,0,0,1.34-.89V118.5Z"/><path d="M78.48,119.09l2.32-.28c.26,1.83,1.11,2.75,2.55,2.75A2.43,2.43,0,0,0,85,121a1.82,1.82,0,0,0,.62-1.39,1.45,1.45,0,0,0-.22-.83,1.51,1.51,0,0,0-.65-.56,16.21,16.21,0,0,0-2.13-.74,7.29,7.29,0,0,1-2.22-1,3.66,3.66,0,0,1-1.11-1.41,4.42,4.42,0,0,1,.11-4,3.53,3.53,0,0,1,1.47-1.42,5.08,5.08,0,0,1,2.32-.47,4.06,4.06,0,0,1,4.46,4.33l-2.37.13a2.55,2.55,0,0,0-.68-1.61,2.11,2.11,0,0,0-1.47-.46,2.37,2.37,0,0,0-1.48.4,1.24,1.24,0,0,0,0,2,6.52,6.52,0,0,0,2.16.88,9,9,0,0,1,2.58,1.09,3.69,3.69,0,0,1,1.21,1.47,5.23,5.23,0,0,1,.42,2.2,4.52,4.52,0,0,1-1.14,3.13A4.62,4.62,0,0,1,83.29,124Q79,124,78.48,119.09Z"/><path d="M90.15,123.76V109.44h2.36v14.32Z"/><path d="M97.62,123.76v-11.9H94.14v-2.42h9.32v2.42H100v11.9Z"/><path d="M105.21,123.76V109.44h8.71v2.42h-6.35V115h5.9v2.41h-5.9v3.88h6.56v2.43Z"/></svg>