<svg id="Layer_1" data-name="Layer 1" xmlns="http://www.w3.org/2000/svg" width="128" height="128" viewBox="0 0 128 128"><title>Artboard 102</title><path d="M22.84,109.44h4.7a7.45,7.45,0,0,1,2.71.35A3.06,3.06,0,0,1,31.57,111a3.87,3.87,0,0,1,.53,2,3.76,3.76,0,0,1-.46,1.87,3,3,0,0,1-1.19,1.24,3.18,3.18,0,0,1,1.63,1.27,3.93,3.93,0,0,1,.59,2.19,4.51,4.51,0,0,1-.75,2.64,3.09,3.09,0,0,1-1.78,1.33,17.94,17.94,0,0,1-3.31.18h-4Zm2.36,2.38v3.31h1.56a15.07,15.07,0,0,0,1.74,0,1.46,1.46,0,0,0,.95-.51,1.71,1.71,0,0,0,.34-1.13,1.74,1.74,0,0,0-.28-1,1.14,1.14,0,0,0-.67-.49,15,15,0,0,0-2.27-.1Zm0,5.7v3.81h2.2a6.91,6.91,0,0,0,1.86-.15,1.43,1.43,0,0,0,.69-.59,2.39,2.39,0,0,0,0-2.28,1.51,1.51,0,0,0-.79-.62,7.27,7.27,0,0,0-2-.17Z"/><path d="M34.88,123.76V109.44h8.71v2.42H37.25V115h5.89v2.41H37.25v3.88h6.56v2.43Z"/><path d="M46,123.76V109.44h8.71v2.42H48.38V115h5.9v2.41h-5.9v3.88H55v2.43Z"/><path d="M57.16,123.76V109.44h2.36v5.63h4.66v-5.63h2.36v14.32H64.18V117.5H59.52v6.26Z"/><path d="M69.11,123.76V109.44h2.37v14.32Z"/><path d="M77,123.76l-4.2-14.32h2.57l3,10.6,2.88-10.6h2.52l-4.21,14.32Z"/><path d="M85.09,123.76V109.44H93.8v2.42H87.45V115h5.9v2.41h-5.9v3.88H94v2.43Z"/><path d="M95.62,119.09l2.32-.28c.26,1.83,1.11,2.75,2.56,2.75a2.44,2.44,0,0,0,1.69-.56,1.81,1.81,0,0,0,.61-1.39,1.53,1.53,0,0,0-.21-.83,1.69,1.69,0,0,0-.66-.57,18.68,18.68,0,0,0-2.13-.73,7.1,7.1,0,0,1-2.21-1,3.59,3.59,0,0,1-1.12-1.41,4.42,4.42,0,0,1,.11-4,3.53,3.53,0,0,1,1.47-1.42,5.21,5.21,0,0,1,2.32-.47,4.06,4.06,0,0,1,4.46,4.33l-2.37.13a2.55,2.55,0,0,0-.68-1.61,2.11,2.11,0,0,0-1.47-.46,2.32,2.32,0,0,0-1.47.4,1.18,1.18,0,0,0-.52,1,1.21,1.21,0,0,0,.47,1,6.52,6.52,0,0,0,2.16.88,9,9,0,0,1,2.58,1.09,3.69,3.69,0,0,1,1.21,1.47,5.23,5.23,0,0,1,.42,2.2,4.52,4.52,0,0,1-1.14,3.13,4.62,4.62,0,0,1-3.59,1.27Q96.11,124,95.62,119.09Z"/><path d="M28.29,17.56V3.24h3.55L34,13l2.12-9.78h3.56V17.56h-2.2V6.28L35.1,17.56H32.82L30.5,6.28V17.56Z"/><path d="M41.71,10.49a10.24,10.24,0,0,1,.75-4.21,5.75,5.75,0,0,1,2-2.47,5.25,5.25,0,0,1,3-.81,5.09,5.09,0,0,1,4.11,1.92,8.4,8.4,0,0,1,1.58,5.48A8.6,8.6,0,0,1,51.42,16a5.44,5.44,0,0,1-8,0A8.43,8.43,0,0,1,41.71,10.49Zm2.44-.1a6.05,6.05,0,0,0,.94,3.71,2.82,2.82,0,0,0,2.33,1.23,2.76,2.76,0,0,0,2.31-1.22,6.23,6.23,0,0,0,.92-3.77,6.19,6.19,0,0,0-.89-3.68,2.91,2.91,0,0,0-4.7,0A6.14,6.14,0,0,0,44.15,10.39Z"/><path d="M55.14,3.24h4.32a6.56,6.56,0,0,1,2.48.37,4.16,4.16,0,0,1,1.53,1.24,6.22,6.22,0,0,1,1.1,2.25,12.57,12.57,0,0,1,.4,3.45,11.1,11.1,0,0,1-.42,3.23A6.46,6.46,0,0,1,63.49,16a4.22,4.22,0,0,1-1.55,1.21,5.87,5.87,0,0,1-2.35.4H55.14ZM57.5,5.67v9.47h1.78a4.52,4.52,0,0,0,1.66-.22,2,2,0,0,0,.84-.64,4,4,0,0,0,.54-1.37,11.75,11.75,0,0,0,.21-2.47,11.06,11.06,0,0,0-.22-2.51,3.22,3.22,0,0,0-.68-1.44,2.15,2.15,0,0,0-1.13-.7,9.84,9.84,0,0,0-1.92-.12Z"/><path d="M67.2,17.56V3.24h8.71V5.67H69.56V8.84h5.9v2.41h-5.9v3.89h6.56v2.42Z"/><path d="M78.33,17.56V3.24h5a6.91,6.91,0,0,1,2.74.39A3.11,3.11,0,0,1,87.41,5a4.63,4.63,0,0,1,.52,2.28,4.27,4.27,0,0,1-.8,2.7,3.54,3.54,0,0,1-2.29,1.29,6.58,6.58,0,0,1,1.26,1.2,16.81,16.81,0,0,1,1.35,2.33l1.43,2.79H86.05l-1.71-3.11a20.63,20.63,0,0,0-1.26-2.12,1.84,1.84,0,0,0-.7-.58,3.17,3.17,0,0,0-1.2-.17H80.7v6ZM80.7,9.3h1.75a9,9,0,0,0,2-.14,1.34,1.34,0,0,0,.72-.57,2.15,2.15,0,0,0,.27-1.15,2,2,0,0,0-.27-1.1,1.45,1.45,0,0,0-.74-.57,9.93,9.93,0,0,0-1.93-.1H80.7Z"/><path d="M90.39,17.56V3.24h2.3L97.5,12.8V3.24h2.21V17.56H97.32L92.6,8.22v9.34Z"/><polygon points="19.54 91.64 20.5 92.05 20.5 96.26 19.52 95.66 19.54 91.64"/><polygon points="20.82 92.19 22.23 92.79 21.79 95.95 20.82 96.32 20.82 92.19"/><polygon points="26.57 94.64 27.52 95.05 27.52 99.05 26.55 98.45 26.57 94.64"/><path d="M19.2,61.16c-.55.14-1.06.41-1.65.62.05-.9.08-2,.11-2.86.82-.35,1.63-.71,2.44-1.09l2.61-1.22c1.69-.78,3.38-1.54,5.06-2.33l.08,3.43-4,1.59Z"/><path d="M28.47,91.89l-9.28-2.53-.12-21.51c3.12-.67,6.24-1.32,9.36-2,0,.39,0,.78,0,1.17l0,4.71v4.72l0,1.94c-3.09-.24-6.16-.19-9.24-.4v.44c3.08.33,6.16.66,9.25,1Z"/><polygon points="22.61 92.48 22.61 92.47 22.55 92.46 19.2 91.06 19.19 89.83 28.47 92.79 28.49 94.93 22.61 92.48"/><path d="M28.44,64.74c-3.13.77-6.25,1.94-9.37,2.72l0-5.64,9.48-3.91C28.47,60.42,28.46,62.24,28.44,64.74Z"/><path d="M29,95.31h.33l-.48,3.44-1,.37V95.18l.78.34.34.14Z"/><path d="M43.94,94.45l.82-.08v2.72l-.54-.35Z"/><path d="M46.3,82.92c0,2.55,0,4.47,0,7-1.39.14-2.78.3-4.17.45l-4.47.49-4.46.53-4.2.52.06-12.53,8.52-.25q2.26-.09,4.53-.27c1.41-.11,2.82-.24,4.23-.4Z"/><path d="M36.34,74.09l0,.37-.57-.2v-.48Z"/><path d="M36.67,74l5-.21.05.43c-1.34.1-4.39.26-5,.3Z"/><path d="M42.13,66.18c-1.49,0-3-.07-4.47-.13L29,65.51c0,.41,0,1.1,0,1.51,0,1.57,0,3.14,0,4.71v4.71l0,1.91,8.49-.5c1.51-.07,3-.12,4.53-.13s2.84,0,4.26,0l0-2.73,0-8.85C45,66.2,43.56,66.19,42.13,66.18Zm-6.52,6.66a1,1,0,0,1,.84-1l5,0a1,1,0,0,1,.85,1l-6.65.08Zm6.74,1.67H42.2c-.18,0-5.38.32-5.66.32h-.15l-.88-.33v-.82l0,0,.13-.3a3.47,3.47,0,0,1,.76.36l5.17-.21a2.54,2.54,0,0,0-.39-.21l.15-.29s.43.23.9.52l.1.07Z"/><path d="M45.09,94.34l1.35-.16v3H45.09Z"/><path d="M46.41,65.33c-.64-.07-4.1,0-7.9-.34-4.58-.42-9.48-.31-9.48-.31,0-2.57,0-4.12-.08-6.7l17.5,1.34Z"/><path d="M46.65,91.17h.16c0,.44,0,1.13,0,1.49s-.05.69-.07,1c-1.46,0-2.91.11-4.36.23l-4.55.45c-2.94.27-5.88.57-8.83.87l0-2.61c1.41-.09,2.82-.2,4.23-.3L37.7,92l4.48-.39C43.67,91.44,45.16,91.32,46.65,91.17Z"/><path d="M28.19,57.68l.06-3.51c.8.14,1.37.23,2.17.34s1.7.24,2.54.34c1.7.21,3.4.37,5.1.49l10.1.78.15,3.11-1.52-.07V59L29,57.58v-.3Z"/><polygon points="53.79 47.46 54.43 47.73 54.43 50.57 53.77 50.17 53.79 47.46"/><polygon points="54.65 47.83 55.6 48.23 55.3 50.36 54.65 50.61 54.65 47.83"/><polygon points="58.52 49.48 59.17 49.75 59.17 52.45 58.51 52.05 58.52 49.48"/><path d="M53.56,26.92c-.37.1-.72.28-1.11.42,0-.6,0-1.32.07-1.93.55-.23,1.1-.47,1.64-.73l1.77-.82,3.4-1.57.06,2.31-2.72,1.07Z"/><path d="M59.8,47.63l-6.25-1.7-.08-14.5c2.1-.45,4.21-.89,6.31-1.35,0,.27,0,.53,0,.79,0,1.06,0,2.12,0,3.18v4.48c-2.08-.16-4.15-.13-6.22-.27v.3l6.23.65Z"/><polygon points="55.85 48.03 55.85 48.02 55.82 48.01 53.56 47.07 53.55 46.24 59.81 48.23 59.81 49.68 55.85 48.03"/><path d="M59.78,29.34c-2.11.51-4.21,1.3-6.31,1.83l0-3.8,6.38-2.64C59.8,26.42,59.79,27.65,59.78,29.34Z"/><path d="M60.14,49.93h.22L60,52.24l-.65.25V49.85l.53.22.22.1Z"/><path d="M70.23,49.35l.55-.05v1.83l-.37-.24Z"/><path d="M71.82,41.59c0,1.71,0,3,0,4.72-.94.09-1.88.2-2.81.3l-3,.33-3,.35-2.83.36.05-8.45L65.93,39c1,0,2-.11,3.06-.18s1.9-.16,2.85-.28Z"/><path d="M65.11,35.64v.24l-.39-.13v-.32A3.78,3.78,0,0,1,65.11,35.64Z"/><path d="M65.33,35.57l3.36-.14,0,.29-3.38.2Z"/><path d="M69,30.31c-1,0-2,0-3-.09l-5.81-.36c0,.27,0,.74,0,1,0,1.06,0,2.12,0,3.18v4.46l5.71-.34q1.53-.08,3.06-.09c1,0,1.91,0,2.87,0l0-1.85,0-6C70.93,30.32,70,30.31,69,30.31Zm-4.4,4.48a.65.65,0,0,1,.57-.7l3.34,0a.65.65,0,0,1,.58.7l-4.49.06Zm4.54,1.13h-.1c-.12,0-3.62.21-3.81.21h-.1l-.59-.22v-.59l.09-.2a2.81,2.81,0,0,1,.51.24l3.48-.14a1.19,1.19,0,0,0-.26-.14l.1-.19s.29.15.61.35l.06,0Z"/><path d="M71,49.28l.91-.11v2.06H71Z"/><path d="M71.89,29.74c-.43-.06-2.76,0-5.32-.24-3.09-.28-6.39-.2-6.39-.2,0-1.74,0-2.78,0-4.52l11.79.9Z"/><path d="M72.05,47.15h.11c0,.29,0,.75,0,1s0,.46,0,.69c-1,0-2,.08-2.94.16l-3.06.3c-2,.18-4,.39-6,.59V48.12l2.85-.2,3-.24,3-.27C70,47.32,71.05,47.25,72.05,47.15Z"/><path d="M59.62,24.58l0-2.37c.54.1.93.16,1.47.23s1.14.16,1.71.23c1.14.15,2.29.25,3.44.33l6.8.53.1,2.09-1,0v-.11l-12-1v-.2Z"/><polygon points="108.75 78.58 107.93 78.93 107.93 82.53 108.77 82.02 108.75 78.58"/><polygon points="107.65 79.05 106.44 79.56 106.82 82.26 107.65 82.58 107.65 79.05"/><polygon points="102.74 81.14 101.92 81.49 101.92 84.92 102.76 84.41 102.74 81.14"/><path d="M109,52.52c.47.12.91.35,1.41.53,0-.76-.07-1.68-.09-2.44-.7-.3-1.4-.61-2.09-.94l-2.24-1-4.31-2-.08,2.93,3.45,1.37Z"/><path d="M101.12,78.79l7.93-2.16.1-18.39c-2.66-.57-5.34-1.12-8-1.71v1c0,1.35,0,2.69,0,4v5.69c2.63-.2,5.26-.16,7.9-.34v.38c-2.63.28-5.27.56-7.9.82Z"/><polygon points="106.13 79.3 106.13 79.28 106.17 79.28 109.04 78.09 109.05 77.03 101.11 79.56 101.1 81.39 106.13 79.3"/><path d="M101.14,55.59c2.68.65,5.34,1.65,8,2.32l0-4.82-8.1-3.35C101.12,51.89,101.13,53.44,101.14,55.59Z"/><path d="M100.68,81.72h-.27l.41,2.94.82.32V81.61l-.67.29-.28.12Z"/><path d="M87.89,81l-.7-.06v2.32l.46-.3Z"/><path d="M85.87,71.13c0,2.17,0,3.82,0,6l3.57.38,3.81.42,3.82.45c1.2.15,2.4.29,3.59.45l0-10.72-7.28-.21c-1.29,0-2.58-.13-3.88-.23s-2.41-.2-3.62-.34Z"/><path d="M94.38,63.58v.31l.49-.17v-.41C94.73,63.37,94.54,63.49,94.38,63.58Z"/><path d="M94.1,63.49l-4.26-.18,0,.37c1.14.08,3.75.22,4.29.25Z"/><path d="M85.78,56.8l0,7.56,0,2.34c1.22,0,2.43,0,3.64,0s2.59,0,3.88.11l7.26.43,0-1.63v-4c0-1.34,0-2.68,0-4V56.24l-7.37.46c-1.28.06-2.55.1-3.83.11S87,56.83,85.78,56.8ZM95,62.55l-5.69-.07a.83.83,0,0,1,.73-.89l4.24,0a.83.83,0,0,1,.72.9Zm-5.76.59.09-.06a8.42,8.42,0,0,1,.76-.44l.13.25a1.49,1.49,0,0,0-.33.17l4.42.18a4.07,4.07,0,0,1,.65-.31l.11.26v.74l-.74.29h-.14c-.23,0-4.68-.26-4.83-.27h-.13Z"/><path d="M86.91,80.88l-1.16-.13v2.61h1.16Z"/><path d="M85.78,56.09c.54-.07,3.5,0,6.75-.29,3.92-.36,8.11-.26,8.11-.26,0-2.21,0-3.53.06-5.74L85.74,51Z"/><path d="M85.57,78.18h-.14c0,.38,0,1,0,1.27s0,.59.06.88c1.25,0,2.49.1,3.73.2l3.88.38q3.78.36,7.55.75V79.42l-3.62-.26-3.82-.3-3.83-.34C88.12,78.41,86.85,78.31,85.57,78.18Z"/><path d="M101.35,49.55l0-3c-.68.12-1.17.19-1.86.29l-2.17.29c-1.45.18-2.9.31-4.36.42l-8.63.66-.13,2.66,1.3-.06v-.13l15.24-1.22V49.2Z"/></svg>