<svg id="Layer_1" data-name="Layer 1" xmlns="http://www.w3.org/2000/svg" width="128" height="128" viewBox="0 0 128 128"><title>Artboard 32</title><path d="M120.22,90.34c-2.92-7.79-4.84-19-5.27-30.83a74.57,74.57,0,0,0-6.89-25.06,1.9,1.9,0,0,0-.45-.66,2.16,2.16,0,0,0-.9-.16c-.11,0-62.26.37-69.74,0a1.61,1.61,0,0,0-.54.07,1.31,1.31,0,0,0-.45.24C29.37,39,8.94,61.27,8.08,62.22a1.5,1.5,0,1,0,2.21,2c.2-.23,20.25-22.07,27.1-27.6,1.68.07,4.46.11,8,.14-19,15.47-31.65,35.1-31.78,35.31A1.51,1.51,0,0,0,14,74.17a1.48,1.48,0,0,0,.8.23,1.5,1.5,0,0,0,1.27-.69c.14-.21,13.84-21.46,34.06-36.89h6C33.58,58.31,16.84,88.35,16.67,88.67a1.49,1.49,0,0,0,.58,2,1.47,1.47,0,0,0,.73.19,1.49,1.49,0,0,0,1.31-.77c.18-.32,17.86-32.06,41.24-53.28H68c-3.52,4.78-11.78,16-19.82,27.06A48.5,48.5,0,0,0,42,75.53c-3.47,9.33-7.77,12.6-7.83,12.65A1.5,1.5,0,0,0,36,90.61c.21-.15,5.05-3.73,8.88-14a45.67,45.67,0,0,1,5.79-10.93C60,52.8,69.61,39.74,71.76,36.82l4,0c-2.84,5.64-11.58,23.11-16,33.24-6.49,13.45-4.95,20.17-4.88,20.45a1.49,1.49,0,0,0,1.45,1.14,1.45,1.45,0,0,0,.35,0,1.51,1.51,0,0,0,1.12-1.8c0-.06-1.28-6.13,4.68-18.5,4.89-11.18,15-31.31,16.65-34.5h3.24c-1.82,6.61-8.1,29.15-11.07,36.08l-.05.13a37.59,37.59,0,0,0-.82,19.35,1.47,1.47,0,0,0,1.41,1,1.41,1.41,0,0,0,.45-.07,1.51,1.51,0,0,0,1-1.86A35.25,35.25,0,0,1,74,74c3.24-7.6,9.92-31.79,11.4-37.22l4.4,0c-.56,2.84-1.92,9.54-4.86,23.17-2.47,11.73-2.78,22.66-.91,32.47.05.27.09.46.1.57a1.5,1.5,0,0,0,3-.08A6.28,6.28,0,0,0,87,91.82c-1.79-9.42-1.48-19.95.9-31.29,3.19-14.78,4.51-21.36,5-23.81l6.14,0C95.68,45.88,95,54.83,94.33,63.5l-.17,2.26C93,80,97.12,90.47,97.53,91a1.51,1.51,0,0,0,1.21.61,1.49,1.49,0,0,0,.89-.3,1.51,1.51,0,0,0,.43-1.93A56.52,56.52,0,0,1,97.15,66l.18-2.27c.67-8.8,1.37-17.89,4.93-27.07l3.52,0a73.21,73.21,0,0,1,6.18,23c.44,12.08,2.42,23.63,5.45,31.71a1.52,1.52,0,0,0,1.41,1,1.46,1.46,0,0,0,.53-.1A1.5,1.5,0,0,0,120.22,90.34Z"/><path d="M42,124V109.8h2.36v11.78h5.9V124Z"/><path d="M62.72,124H60.15l-1-3.24h-4.7l-1,3.24H50.94l4.57-14.32H58Zm-4.36-5.66L56.74,113l-1.59,5.32Z"/><path d="M64.19,124V109.68H66.5l4.8,9.56v-9.56h2.21V124H71.13l-4.73-9.34V124Z"/><path d="M76.19,109.68h4.32a6.47,6.47,0,0,1,2.47.37,4.1,4.1,0,0,1,1.54,1.24,6.14,6.14,0,0,1,1.1,2.25A12.52,12.52,0,0,1,86,117a11.1,11.1,0,0,1-.42,3.23,6.55,6.55,0,0,1-1.06,2.17,4.15,4.15,0,0,1-1.56,1.2,5.78,5.78,0,0,1-2.34.41H76.19Zm2.36,2.43v9.47h1.78a4.52,4.52,0,0,0,1.66-.22,2,2,0,0,0,.84-.65,3.87,3.87,0,0,0,.54-1.37,11.58,11.58,0,0,0,.21-2.46,11.06,11.06,0,0,0-.22-2.51,3.32,3.32,0,0,0-.68-1.45,2.19,2.19,0,0,0-1.13-.69,9.84,9.84,0,0,0-1.92-.12Z"/><path d="M32.51,12.3l2.3.89A6.48,6.48,0,0,1,33,16.7a4.46,4.46,0,0,1-3.08,1.1A4.54,4.54,0,0,1,26.22,16a8.57,8.57,0,0,1-1.64-5.51A9,9,0,0,1,26.23,4.8,4.69,4.69,0,0,1,30.09,3,4.46,4.46,0,0,1,33.4,4.35a5.91,5.91,0,0,1,1.39,2.84l-2.35.68a3.2,3.2,0,0,0-.89-1.78A2.28,2.28,0,0,0,30,5.47,2.54,2.54,0,0,0,27.84,6.6,6.62,6.62,0,0,0,27,10.34a7,7,0,0,0,.8,3.85,2.45,2.45,0,0,0,2.08,1.14,2.14,2.14,0,0,0,1.62-.72A4.6,4.6,0,0,0,32.51,12.3Z"/><path d="M37.1,17.56V3.36h2.36V15.14h5.9v2.42Z"/><path d="M47.26,17.56V3.24H56V5.67H49.62V8.84h5.9v2.41h-5.9v3.89h6.56v2.42Z"/><path d="M69,17.56H66.41l-1-3.24h-4.7l-1,3.24H57.19L61.76,3.24h2.51ZM64.62,11.9,63,6.58,61.41,11.9Z"/><path d="M70.43,17.56V3.24h5a6.82,6.82,0,0,1,2.73.39A3,3,0,0,1,79.5,5,4.63,4.63,0,0,1,80,7.25a4.22,4.22,0,0,1-.81,2.7,3.51,3.51,0,0,1-2.29,1.29,6,6,0,0,1,1.26,1.2,15.66,15.66,0,0,1,1.36,2.33L81,17.56H78.15l-1.72-3.11a19.41,19.41,0,0,0-1.25-2.12,1.79,1.79,0,0,0-.71-.58,3.08,3.08,0,0,0-1.19-.17h-.49v6ZM72.79,9.3h1.76a9,9,0,0,0,2-.14,1.32,1.32,0,0,0,.71-.57,2.06,2.06,0,0,0,.28-1.15,1.93,1.93,0,0,0-.28-1.1,1.41,1.41,0,0,0-.74-.57,9.72,9.72,0,0,0-1.92-.1H72.79Z"/><path d="M82.47,17.56V3.24h8.71V5.67H84.83V8.84h5.9v2.41h-5.9v3.89h6.56v2.42Z"/><path d="M93.58,3.24h4.33a6.5,6.5,0,0,1,2.47.37,4.1,4.1,0,0,1,1.54,1.24A6.57,6.57,0,0,1,103,7.1a12.57,12.57,0,0,1,.4,3.45,11.1,11.1,0,0,1-.42,3.23A6.65,6.65,0,0,1,101.94,16a4.17,4.17,0,0,1-1.56,1.21,5.84,5.84,0,0,1-2.35.4H93.58ZM96,5.67v9.47h1.78a4.42,4.42,0,0,0,1.65-.22,2.05,2.05,0,0,0,.84-.64,3.65,3.65,0,0,0,.54-1.38,10.87,10.87,0,0,0,.22-2.46,11.67,11.67,0,0,0-.22-2.51,3.34,3.34,0,0,0-.69-1.44A2.12,2.12,0,0,0,99,5.79,10,10,0,0,0,97,5.67Z"/></svg>