<svg id="Layer_1" data-name="Layer 1" xmlns="http://www.w3.org/2000/svg" width="128" height="128" viewBox="0 0 128 128"><title>Artboard 33</title><path d="M34.35,123.76V109.44h2.36v5.63h4.66v-5.63h2.36v14.32H41.37V117.5H36.71v6.26Z"/><path d="M46.35,109.44h2.37v7.75a18.81,18.81,0,0,0,.09,2.36,2.36,2.36,0,0,0,.74,1.46,2.62,2.62,0,0,0,2.91.15,1.86,1.86,0,0,0,.71-1,13,13,0,0,0,.19-2.79v-7.92h2.36V117a19.42,19.42,0,0,1-.31,4.16A3.5,3.5,0,0,1,54,123.2a4.64,4.64,0,0,1-2.84.8,5.3,5.3,0,0,1-2.87-.66,3.8,3.8,0,0,1-1.49-1.85,14,14,0,0,1-.47-4.41Z"/><path d="M58.38,123.76V109.44h3.54l2.14,9.77,2.12-9.77h3.56v14.32H67.53V112.48l-2.34,11.28H62.91l-2.32-11.28v11.28Z"/><path d="M82.87,123.76H80.3l-1-3.25h-4.7l-1,3.25H71.08l4.57-14.32h2.51Zm-4.36-5.67-1.62-5.31-1.59,5.31Z"/><path d="M84.34,123.76V109.44h2.3L91.45,119v-9.56h2.2v14.32H91.27l-4.73-9.34v9.34Z"/><g id="SVGRepo_iconCarrier" data-name="SVGRepo iconCarrier"><path d="M47.9,66.46a3.82,3.82,0,0,0,3.82-3.82V40.29a.39.39,0,0,1,.39-.4h.81a.4.4,0,0,1,.4.4V97.81a4.94,4.94,0,0,0,9.87,0V67.26c0-.28.13-.4.4-.4h.8c.28,0,.41.12.41.4V97.81a4.93,4.93,0,1,0,9.86,0V40.29a.4.4,0,0,1,.4-.4h.81a.39.39,0,0,1,.39.4V62.64a3.83,3.83,0,0,0,7.65,0V37.06a9.07,9.07,0,0,0-9.06-9.26H53.13a9.07,9.07,0,0,0-9.06,9.26V62.64A3.82,3.82,0,0,0,47.9,66.46Z"/></g><circle cx="64" cy="15" r="10"/></svg>