<svg id="Layer_1" data-name="Layer 1" xmlns="http://www.w3.org/2000/svg" width="128" height="128" viewBox="0 0 128 128"><title>Artboard 118</title><path d="M21.33,123.76V109.44h5a6.82,6.82,0,0,1,2.73.39,3,3,0,0,1,1.35,1.33,4.68,4.68,0,0,1,.53,2.28,4.27,4.27,0,0,1-.81,2.71,3.6,3.6,0,0,1-2.29,1.29,5.76,5.76,0,0,1,1.26,1.19A16.22,16.22,0,0,1,30.45,121l1.43,2.8H29.05l-1.72-3.12a18.88,18.88,0,0,0-1.25-2.11,1.89,1.89,0,0,0-.71-.59,3.15,3.15,0,0,0-1.19-.16h-.49v6Zm2.36-8.27h1.76a8.45,8.45,0,0,0,2.05-.14,1.27,1.27,0,0,0,.71-.57,2,2,0,0,0,.28-1.14,1.91,1.91,0,0,0-.28-1.1,1.35,1.35,0,0,0-.74-.57,9.37,9.37,0,0,0-1.92-.11H23.69Z"/><path d="M32.88,116.69a10.29,10.29,0,0,1,.75-4.22,5.77,5.77,0,0,1,2-2.46,5.17,5.17,0,0,1,3-.81,5.09,5.09,0,0,1,4.11,1.92,8.38,8.38,0,0,1,1.58,5.48,8.52,8.52,0,0,1-1.68,5.61,4.91,4.91,0,0,1-4,1.79,5,5,0,0,1-4-1.77A8.41,8.41,0,0,1,32.88,116.69Zm2.44-.1a6,6,0,0,0,.94,3.7,2.81,2.81,0,0,0,2.33,1.24,2.77,2.77,0,0,0,2.31-1.23,8.1,8.1,0,0,0,0-7.44,2.79,2.79,0,0,0-2.34-1.19,2.82,2.82,0,0,0-2.36,1.2A6.14,6.14,0,0,0,35.32,116.59Z"/><path d="M53.84,118.49l2.29.89a6.41,6.41,0,0,1-1.78,3.51A4.48,4.48,0,0,1,51.27,124a4.55,4.55,0,0,1-3.72-1.77,8.55,8.55,0,0,1-1.64-5.51A9,9,0,0,1,47.56,111a4.68,4.68,0,0,1,3.86-1.79,4.46,4.46,0,0,1,3.31,1.34,5.86,5.86,0,0,1,1.38,2.84l-2.34.69a3.17,3.17,0,0,0-.89-1.78,2.24,2.24,0,0,0-1.58-.62,2.51,2.51,0,0,0-2.13,1.13,6.49,6.49,0,0,0-.82,3.74,7,7,0,0,0,.8,3.85,2.45,2.45,0,0,0,2.08,1.14,2.12,2.12,0,0,0,1.62-.73A4.52,4.52,0,0,0,53.84,118.49Z"/><path d="M58.38,123.76V109.44h2.37v6.37l4.8-6.37h3.19L64.31,115,69,123.76H65.91L62.67,117l-1.92,2.4v4.33Z"/><path d="M85.15,123.76H82.58l-1-3.25H76.86l-1,3.25H73.36l4.58-14.32h2.51Zm-4.36-5.67-1.62-5.31-1.59,5.31Z"/><path d="M86.6,123.76V109.44h5a6.91,6.91,0,0,1,2.74.39,3,3,0,0,1,1.34,1.33,4.58,4.58,0,0,1,.53,2.28,4.32,4.32,0,0,1-.8,2.71,3.62,3.62,0,0,1-2.29,1.29,6.25,6.25,0,0,1,1.26,1.19A17.46,17.46,0,0,1,95.72,121l1.43,2.8H94.32l-1.71-3.12a20,20,0,0,0-1.26-2.11,1.87,1.87,0,0,0-.7-.59,3.21,3.21,0,0,0-1.2-.16H89v6ZM89,115.49h1.75a8.45,8.45,0,0,0,2-.14,1.29,1.29,0,0,0,.72-.57,2.14,2.14,0,0,0,.27-1.14,2,2,0,0,0-.27-1.1,1.37,1.37,0,0,0-.75-.57,9.37,9.37,0,0,0-1.92-.11H89Z"/><path d="M101.27,123.76v-11.9H97.79v-2.42h9.32v2.42h-3.47v11.9Z"/><path d="M65.23,90.52a5.28,5.28,0,0,1,.13-1.68,5.25,5.25,0,0,0-.54,1.65c-.1.58-.19,1.15-.25,1.73-.08.78-.14,1.55-.19,2.33h1.39c-.15-.77-.28-1.56-.38-2.34A15.84,15.84,0,0,1,65.23,90.52Z"/><path d="M109.9,27.11l-3.56,1.19L99,22.8l7.3,3.44,3.31-.69C107.82,14.4,105.82,3,105.82,3L30.66,7.69a5.29,5.29,0,0,0-4,2.25l-25.61,37a5.21,5.21,0,0,0-.9,3.67c1.07,8.25,5.07,39.23,4.78,41l5.5.23,1.1-2.26-.33-7.08s1.21,6,1.3,6.57A7.86,7.86,0,0,1,12,91.9l39.14,2.65S49.24,90.9,48.77,90c.1-.88.45-4.38.52-5.25.55-1,2.86-5.46,3.07-5.87.25.39,4.07,5.61,4.07,5.61l-.36.91s-.35,4.41-.33,5a10.88,10.88,0,0,0,.17,1.81A10.63,10.63,0,0,1,56,90.41c.08-.59.61-2.93.77-3.5l.57-1.86a41.29,41.29,0,0,0,4.15.53c.76.06,1.53.12,2.28.2s1.51.19,2.26.31h0C67.68,86,69.25,86,70.83,86c.78,0,4.89-.15,4.89-.15l.16-.13,2.9-2.45c.26-.21.5-.44.75-.67,1.1.09,5.67.25,5.67.25l2.29-2.09c.43,1.35.86,2.69,1.3,4,.08,1.31.2,2.62.28,3.92-.38,1-1.8,4.92-2.13,5.87l15,2s9.94-48.3,10.61-49.91C112.84,45.9,111.48,36.81,109.9,27.11ZM16.05,74.59A15.33,15.33,0,0,0,15.47,77s.34,1.34.58,2.21c0,0-2.39.35-2.54.35a22.22,22.22,0,0,0-1.67-2.41,11.14,11.14,0,0,1-2.12-2.23c-.34-.68-1.61-1.14-1.9-1.5s-.33-.72.29-1.07.91,1.55,2,1.4-1.72-3.88-.72-4.18,1.48,3.27,2.39,3.18-.37-3.86,1.1-3.71c.76.07-.09,3.69.67,3.75s1.05-2.77,2-2.62-.86,3.34,0,3.52,1.2-2,1.77-1.76S16.28,74.15,16.05,74.59Zm14.28,1.68c-1.41,2.19-2.51,6.33-2.74,6.33s-4.14-.93-4.14-.93c.39-2.27.94-5.79.94-5.79a60.74,60.74,0,0,0-.94-6.17c-.39-1.17-2.89-6.41-2-7.11s1.49,5.08,2.9,4.61-1.49-8.83,0-9.22,1.95,7,3.2,6.87-.15-9.64,1.09-9.84c2.41-.39.32,9.48,1.81,9.72s2.26-9.1,3.9-8.32S31.5,67,33.22,67.36s2.19-4.61,3.2-3.67a2.12,2.12,0,0,1,.47,2.82c-.47.93-2.55,2.14-3.09,3.94S31.73,74.09,30.33,76.27ZM42,82.18c.42.85,2.06-2.12,2.25-1.58s-1.34,2.92-1.58,3.1a19.43,19.43,0,0,0-2.92,3.77,26.56,26.56,0,0,1-1.94,3.46,1.72,1.72,0,0,1-2,.44c-1.09-.5-.06-3.66.31-3.9A9.14,9.14,0,0,0,37,84.92c.67-2.68.55-4.07.91-5.29s.24-4.19.91-3.95-.49,3.77.36,3.89,1.22-5.16,1.89-5-1,4.79-.43,5.16,1.28-5.28,2-4.85-1.16,4.67-.61,4.85S44.19,76,44.49,76.6,41.57,81.33,42,82.18ZM38.55,48.09a2.25,2.25,0,0,1,.32-1.18,2.37,2.37,0,0,1,2.05-1.19,2.37,2.37,0,1,1,0,4.74,2.36,2.36,0,0,1-2.05-1.18A2.31,2.31,0,0,1,38.55,48.09Zm7.34,6.64a1.36,1.36,0,0,1,1.18-2,1.36,1.36,0,1,1,0,2.72A1.36,1.36,0,0,1,45.89,54.73Zm6,17.05a2.37,2.37,0,0,1-4.42-1.18,2.41,2.41,0,0,1,.32-1.19,2.37,2.37,0,0,1,4.1,0A2.39,2.39,0,0,1,51.87,71.78Zm.06-35.64a6.75,6.75,0,0,1-2,1.44,11.31,11.31,0,0,1-4.72.91,30.47,30.47,0,0,1-4.68-.4A16.48,16.48,0,0,1,36,36.73,15.05,15.05,0,0,1,32.14,34c-.29-.27-.56-.55-.83-.84l-.4-.43-.4-.5a6.93,6.93,0,0,1-1-2.28,9.51,9.51,0,0,1-.25-2.43,12,12,0,0,1,.25-2.4,10.82,10.82,0,0,1,1.9-4.42,10.14,10.14,0,0,1,3.71-3,21.47,21.47,0,0,1,2.16-.91c.73-.26,1.46-.51,2.21-.73a14.19,14.19,0,0,1,2.33-.2c.78,0,1.56,0,2.34,0a6.22,6.22,0,0,1,2.35.46,9.26,9.26,0,0,1,2.09,1.21A19.13,19.13,0,0,1,51.93,21c.49.61,1,1.24,1.41,1.87s.91,1.24,1.36,2a7.36,7.36,0,0,1,.88,2.4,6.21,6.21,0,0,1-.15,2.58,19.25,19.25,0,0,1-2.1,4.32A9,9,0,0,1,51.93,36.14ZM85,82.06c-.91-.15-5.87-.8-5.87-.8l-3.87,3.39s-7.56,1-9.12,1.08c-.74-.12-7.29-1.57-8.74-1.77-.37-.45-4.52-5-4.88-5.31,1-.35,11.66-4.38,12.15-4.53L66.85,74c1.14.35,14.87,5.4,15.48,5.57s3.82.91,4.81,1.12C86.84,80.86,85.37,81.78,85,82.06ZM98.4,52.78c-1.19,1.08,1.93,10.75.42,11S96.7,57,96.34,55s-3.19-1.52-4.29-1.19.22,11.44-1.77,10.94,1-11.51-2.41-11.82-2.18,11.13-4,10.65,1.9-10.87-1.08-11.79-2.17,11.08-3.93,10.66,1.26-12.16.77-13.13-.41-1.29-.48-3.69-1.72-6.86-2.37-9.53-1.21-1.9-1.88-1.89a8.77,8.77,0,0,1-3.81.14c-2.05-.46-.07-1.29,1-1.39.86-.08,1.68-.33,2.85-.47a6.8,6.8,0,0,0,2.2-.69c.56-.29,1.08-.76,1.49-1,2.48-1.45,5.81-1,7.16-.73s4,3.44,4.26,3.94,1.06,2.44.07,2.69-1.23-1.12-1.53-2.16S87,32.66,85.3,31.43s-6-.5-6.12.82,1.31-.16,3.75.5a5.81,5.81,0,0,1,4,4.34c.2,1.37-.93,2.36-1.74,2s-.49-1-.15-1.79-.89-1.93-2.65-2.73a2.15,2.15,0,0,0-3,2.14c.23,1.17,1.28,5.89,3,7.27S86,45.47,89,46.77s4.73,3.25,6.71,3.79,7.15-2.07,8-.67S99.59,51.69,98.4,52.78Z"/><path d="M54.25,27.44a6.17,6.17,0,0,0-.72-1.94c-.35-.6-.82-1.26-1.25-1.89L51,21.72a26.46,26.46,0,0,0-2.9-3.49,6.42,6.42,0,0,0-3.93-2,16.19,16.19,0,0,0-4.61-.06A18.3,18.3,0,0,0,35.28,18a9.23,9.23,0,0,0-3.21,3.12,10.81,10.81,0,0,0-.92,2,16,16,0,0,0-.54,2.17,12.77,12.77,0,0,0-.07,4.4,6.39,6.39,0,0,0,.71,2l.3.44.36.45c.24.29.48.59.74.87a11.89,11.89,0,0,0,3.53,2.85,13.3,13.3,0,0,0,4.37,1.3,22,22,0,0,0,2.3.18,21.82,21.82,0,0,0,2.29-.05,11.07,11.07,0,0,0,4.3-1.11,5.64,5.64,0,0,0,1.67-1.31,8.75,8.75,0,0,0,1.19-1.83,18.6,18.6,0,0,0,1.85-4.07A5.17,5.17,0,0,0,54.25,27.44ZM51,29.09a7.4,7.4,0,0,1-1.47,3.17,10.55,10.55,0,0,1-1.13,1.26l-.58.57-.35.31-.37.26a6.94,6.94,0,0,1-3.27,1,8.81,8.81,0,0,1-3.31-.43,13.52,13.52,0,0,1-3-1.42,15.56,15.56,0,0,1-1.33-1A10.12,10.12,0,0,1,35,31.72a8.14,8.14,0,0,1-1.73-2.94,7.74,7.74,0,0,1,1-6.61,5.64,5.64,0,0,1,1.21-1.23A5.87,5.87,0,0,1,37,20.2c1-.36,2.08-.64,3.1-1a7,7,0,0,1,1.64-.12,9.18,9.18,0,0,1,1.64.15,11.78,11.78,0,0,1,3.11,1.2,9.71,9.71,0,0,1,2.65,2.1,8.07,8.07,0,0,1,1.7,3A7.56,7.56,0,0,1,51,29.09Z"/><path d="M48.2,23.31A13.16,13.16,0,0,0,46,21.13a11.53,11.53,0,0,0-1.31-.88,7.5,7.5,0,0,0-1.43-.68,6.72,6.72,0,0,0-1.56-.29,5.28,5.28,0,0,0-1.59,0,24.35,24.35,0,0,0-3,1.17,5.1,5.1,0,0,0-1.29.86A5.46,5.46,0,0,0,35,22.6a8.83,8.83,0,0,0-.82,2.91,8.59,8.59,0,0,0,.17,3,8,8,0,0,0,1.25,2.77,10.49,10.49,0,0,0,2.26,2.2,9.61,9.61,0,0,0,2.86,1.35,7.12,7.12,0,0,0,3.11.15l.38-.07.37-.1a6.13,6.13,0,0,0,.72-.25,6.32,6.32,0,0,0,1.3-.73l.28-.23.25-.24.54-.6a12.24,12.24,0,0,0,1-1.2,6.36,6.36,0,0,0,1.13-2.69,6.68,6.68,0,0,0-.2-2.91A7.5,7.5,0,0,0,48.2,23.31ZM46.05,30a9.63,9.63,0,0,1-1.25,1.31,5.47,5.47,0,0,1-1.61,1,3.84,3.84,0,0,1-2,.18,3.54,3.54,0,0,1-1-.35,2.56,2.56,0,0,1-.45-.27l-.21-.15-.18-.15a7.11,7.11,0,0,1-1.27-1.41,6.42,6.42,0,0,1-.83-1.73,3.94,3.94,0,0,1-.08-2,3,3,0,0,1,.38-.92,3.37,3.37,0,0,1,.64-.71,15.25,15.25,0,0,1,1.46-1,5.93,5.93,0,0,1,3.46-1,4,4,0,0,1,3.22,1.94A5.24,5.24,0,0,1,47,26.51a4.37,4.37,0,0,1,0,1.87,2.79,2.79,0,0,1-.37.87A9,9,0,0,1,46.05,30Z"/><path d="M46.31,26.71a5.6,5.6,0,0,0-.84-1.37A5.66,5.66,0,0,0,43,23.59a3.89,3.89,0,0,0-1.63-.23,3.31,3.31,0,0,0-1.61.53A5,5,0,0,0,38.45,25,2.08,2.08,0,0,0,38,26.52a4.6,4.6,0,0,0,.4,1.47,6.76,6.76,0,0,0,.78,1.35,8,8,0,0,0,1,1.21,2.84,2.84,0,0,0,1.2.73,4.11,4.11,0,0,0,2.95-.56,5.46,5.46,0,0,0,1.33-1,5.38,5.38,0,0,0,.53-.65,1.81,1.81,0,0,0,.29-.75A2.8,2.8,0,0,0,46.31,26.71Z"/><path d="M115,24.45h3.43l2-1.1c-1.38-5.6-2.62-10.58-3.2-12.89a3.62,3.62,0,0,0-1.55-2.15l-7-4.56,4.1,21.17Z"/><path d="M126.19,47.62c.15,0-2.61-11.75-5.12-21.92l-1.69,1.07-3.3-.69-2.86,1,3.61,19.16S107,96.55,106.35,96.55l21.54-4.85S125.91,47.56,126.19,47.62Z"/></svg>