<svg id="Layer_1" data-name="Layer 1" xmlns="http://www.w3.org/2000/svg" width="128" height="128" viewBox="0 0 128 128"><title>Artboard 34</title><path d="M21.3,12.89l2.31-.27c.26,1.83,1.12,2.74,2.56,2.74a2.38,2.38,0,0,0,1.69-.56,1.81,1.81,0,0,0,.62-1.39A1.45,1.45,0,0,0,27.61,12a19.5,19.5,0,0,0-2.13-.74,7.07,7.07,0,0,1-2.22-1,3.84,3.84,0,0,1-1.12-1.41A4.41,4.41,0,0,1,21.73,7a4.26,4.26,0,0,1,.53-2.11,3.45,3.45,0,0,1,1.47-1.41A5,5,0,0,1,26,3a4.48,4.48,0,0,1,3.24,1.12,4.52,4.52,0,0,1,1.23,3.22l-2.38.12a2.52,2.52,0,0,0-.67-1.61A2.19,2.19,0,0,0,26,5.39a2.44,2.44,0,0,0-1.48.4,1.23,1.23,0,0,0-.52,1,1.27,1.27,0,0,0,.47,1,7,7,0,0,0,2.16.88A8.77,8.77,0,0,1,29.2,9.73a3.82,3.82,0,0,1,1.22,1.48,5.15,5.15,0,0,1,.42,2.19,4.51,4.51,0,0,1-1.15,3.14A4.62,4.62,0,0,1,26.1,17.8C23.23,17.8,21.62,16.17,21.3,12.89Z"/><path d="M43.63,17.56H41.06l-1-3.24h-4.7l-1,3.24H31.84L36.41,3.24h2.51ZM39.27,11.9,37.65,6.58,36.06,11.9Z"/><path d="M45.14,17.56V3.36H47.5V15.14h5.9v2.42Z"/><path d="M56.73,17.56V5.67H53.25V3.24h9.32V5.67H59.1V17.56Z"/><path d="M69.13,17.56V3.36H71.5V15.14h5.9v2.42Z"/><path d="M79.22,17.56V3.24h2.36V17.56Z"/><path d="M91.57,12.3l2.29.89a6.41,6.41,0,0,1-1.79,3.51A4.45,4.45,0,0,1,89,17.8,4.54,4.54,0,0,1,85.28,16a8.51,8.51,0,0,1-1.64-5.51A9,9,0,0,1,85.29,4.8,4.68,4.68,0,0,1,89.15,3a4.43,4.43,0,0,1,3.3,1.35,5.82,5.82,0,0,1,1.39,2.84l-2.34.68a3.15,3.15,0,0,0-.9-1.78A2.25,2.25,0,0,0,89,5.47,2.52,2.52,0,0,0,86.9,6.6a6.53,6.53,0,0,0-.82,3.74,6.88,6.88,0,0,0,.8,3.85A2.43,2.43,0,0,0,89,15.33a2.17,2.17,0,0,0,1.62-.72A4.78,4.78,0,0,0,91.57,12.3Z"/><path d="M96.11,17.56V3.24h2.36V9.62l4.8-6.38h3.2L102,8.82l4.66,8.74h-3.07l-3.23-6.73-1.93,2.4v4.33Z"/><path d="M117.6,35.39c.52-.17,10.4-2.45,10.4-2.45V25.46H117.41a5.87,5.87,0,0,0-2.49.72c-2.9,1.58-11.28,6.57-17.31,10.29C94.3,38,90.73,38.61,86.7,39.75S73.79,46,71.88,47.26c-.58.38-2.81.52-5.24.35C65.42,45,60,44.49,60,44.49l-.51-7.21a5.41,5.41,0,0,0-3.25-5.58,95.13,95.13,0,0,1-8.78-4.32,6.94,6.94,0,0,0-6.37-.3,4.32,4.32,0,0,0-2.51,3,4.43,4.43,0,0,0,2.16,4.67A33.62,33.62,0,0,0,45.13,37c1.79.71,2.79,1,3.58,2.19.61,1,.91,2.37,2.79,7.18-5.92.87-7.8,2.47-9.37,4.39-2.26-.35-14-6.38-14-6.38s-11.85-5.66-15.78-7.23S0,35.66,0,35.66v7.73s5.4-.2,7.47-.37c1-.06,2.14,1.84,3.36,2.75s-.38,2.82-2.32,4.55S0,56.53,0,56.53V69.44S8.33,65.18,9.86,62s8.27-8.59,10.61-9.81A7.75,7.75,0,0,0,22.17,51c.26.18.49.32.66.42C23.89,53,27,55.49,32.87,55c1.48,1.74,4.29,3.93,3.94,6.71a17.21,17.21,0,0,0,.65,9.18c1.19,3.57,4.48,5.27,6.39,7.22a12.44,12.44,0,0,1-7.53,1.49C32,79.12,25.16,81,22.17,82.54s-9.8,4.07-10.43,6.82-1.12,3.91-4.63,6.54C4.58,97.8,0,97.42,0,97.42v11s8.07.07,10.31-1.8,7.11-6.49,7.36-8.61,3.41-6.09,5.08-5.47.87,2.85,1.52,5.22,1.41,2.49,1.87,6.43c.61,5.32.86,8.3-.14,10.55S16.68,128,16.68,128H29.91a15.59,15.59,0,0,0,5.46-9.14A24.94,24.94,0,0,1,36,115.8c1.21-4.28.32-10,0-12.4-.37-2.64-1.74-11.62.88-12.87s11.6-3.11,13.85-2.93a1.81,1.81,0,0,0,.65-.07,19.94,19.94,0,0,0,4.36.6A16.56,16.56,0,0,0,58.7,88c-.16,3.23-1.07,7.54.4,9.8,1.8,2.77,4.48,8.76,7.94,10.56-.42,4.71-.3,19.62-.3,19.62h8.7s-.79-16.08,1.15-16.77c2,5.5,2.92,7.71,4.65,10.14C83.73,123.45,85,128,85,128H99.26s-18-21.87-20.36-24.64c-4.57-2.77-5.72-2.57-8.08-6S67.39,91.09,68.08,89s2.38-5.59,4.59-6.56a5.28,5.28,0,0,0,1.79-1.59l1.91-.54c1,.89,2.18,1.88,3.33,3,4.24,4,6.5,7.62,9.19,11.44s8.18,10.42,11.88,11.88,8.07,6.39,9.08,8.85,12,12.56,12,12.56H128v-8.63l-11.2-9.25-.67-6.45s-5.83-1.62-6.95-2.07c-.68-.27-2.38-2.49-3.81-4.79a4,4,0,0,1,2.11-.24c3.24.49,6.65-2.11,6.93-2.81.44-1.1,5.58-6.59,7.27-7.6,2.72-1.64,6.32-2.54,6.32-2.1V68s-7-7.16-9.62-10-6.06-8-9.15-10.46c-.9-.72-2-1.66-3-2.62a2.16,2.16,0,0,0,.12-.77C106.83,43.75,117.07,35.57,117.6,35.39ZM110,64c.22,1.76,8.6,7,8.49,8.39s4.62,5.28,2.09,6.38-9.06,3.07-9.72,4.94-1.78,2.47-5.34,4c-2.16,1-3.94.39-5.83-.29-.3-.28-.61-.55-.93-.82-1.5-1.23-11-9.79-16.12-14.71a6.08,6.08,0,0,0,1.56-3.64c.18-3.48-1.8-8.12-3-9.17a3.46,3.46,0,0,1-.05-4.82c2.09-2.17,3.06-1.3,7.78-1.68,5.5-.44,8.77.42,11.1-1.72a44,44,0,0,1,3.82,5.41C105.6,59.1,109.78,62.24,110,64Z"/></svg>