<svg id="Layer_1" data-name="Layer 1" xmlns="http://www.w3.org/2000/svg" width="128" height="128" viewBox="0 0 128 128"><title>Artboard 35</title><path d="M30.63,119.09l2.32-.28c.26,1.83,1.11,2.75,2.56,2.75A2.44,2.44,0,0,0,37.2,121a1.81,1.81,0,0,0,.61-1.39,1.41,1.41,0,0,0-.87-1.39,16.21,16.21,0,0,0-2.13-.74,7.21,7.21,0,0,1-2.21-1,3.68,3.68,0,0,1-1.12-1.41,4.23,4.23,0,0,1-.42-1.87,4.14,4.14,0,0,1,.54-2.11,3.41,3.41,0,0,1,1.47-1.42,5,5,0,0,1,2.31-.47,4.06,4.06,0,0,1,4.46,4.33l-2.37.13a2.54,2.54,0,0,0-.67-1.61,2.15,2.15,0,0,0-1.48-.46,2.32,2.32,0,0,0-1.47.4,1.18,1.18,0,0,0-.52,1,1.24,1.24,0,0,0,.47,1,6.52,6.52,0,0,0,2.16.88,9,9,0,0,1,2.58,1.09,3.61,3.61,0,0,1,1.21,1.47,5.23,5.23,0,0,1,.42,2.2A4.52,4.52,0,0,1,39,122.73,4.6,4.6,0,0,1,35.44,124Q31.12,124,30.63,119.09Z"/><path d="M42.38,123.76V109.44h2.36v5.63H49.4v-5.63h2.36v14.32H49.4V117.5H44.74v6.26Z"/><path d="M53.92,116.69a10.28,10.28,0,0,1,.76-4.22,5.7,5.7,0,0,1,2-2.46,5.22,5.22,0,0,1,3-.81,5.06,5.06,0,0,1,4.1,1.92,8.38,8.38,0,0,1,1.59,5.48,8.52,8.52,0,0,1-1.68,5.61,4.92,4.92,0,0,1-4,1.79,5,5,0,0,1-4-1.77A8.41,8.41,0,0,1,53.92,116.69Zm2.45-.1a6.11,6.11,0,0,0,.93,3.7,2.83,2.83,0,0,0,2.33,1.24A2.79,2.79,0,0,0,62,120.3a6.27,6.27,0,0,0,.92-3.76,6.1,6.1,0,0,0-.9-3.68,2.76,2.76,0,0,0-2.34-1.19,2.81,2.81,0,0,0-2.35,1.2A6.14,6.14,0,0,0,56.37,116.59Z"/><path d="M78,123.76H75.39l-1-3.25H69.67l-1,3.25H66.18l4.57-14.32h2.51Zm-4.36-5.67L72,112.78l-1.59,5.31Z"/><path d="M80.85,123.76v-11.9H77.36v-2.42h9.33v2.42H83.21v11.9Z"/><path d="M87.83,119.09l2.31-.28c.26,1.83,1.11,2.75,2.56,2.75a2.44,2.44,0,0,0,1.69-.56,1.81,1.81,0,0,0,.61-1.39,1.53,1.53,0,0,0-.21-.83,1.48,1.48,0,0,0-.66-.56,16.21,16.21,0,0,0-2.13-.74,7.33,7.33,0,0,1-2.21-1,3.68,3.68,0,0,1-1.12-1.41,4.23,4.23,0,0,1-.42-1.87,4.14,4.14,0,0,1,.54-2.11,3.41,3.41,0,0,1,1.47-1.42,5,5,0,0,1,2.31-.47A4.06,4.06,0,0,1,97,113.53l-2.37.13a2.54,2.54,0,0,0-.67-1.61,2.15,2.15,0,0,0-1.48-.46A2.32,2.32,0,0,0,91,112a1.18,1.18,0,0,0-.52,1,1.24,1.24,0,0,0,.47,1,6.52,6.52,0,0,0,2.16.88,9,9,0,0,1,2.58,1.09A3.72,3.72,0,0,1,97,117.4a5.23,5.23,0,0,1,.42,2.2,4.53,4.53,0,0,1-1.15,3.13A4.6,4.6,0,0,1,92.63,124Q88.31,124,87.83,119.09Z"/><path d="M16.79,51.47a16.9,16.9,0,0,1-.33-5.32,5,5,0,0,1,.38-1.34,6.79,6.79,0,0,1,.69-1.17,12.28,12.28,0,0,1,.9-1.1A23.64,23.64,0,0,0,15.81,45,24.25,24.25,0,0,0,14,47.25a7.1,7.1,0,0,0-.7,1.23,3.88,3.88,0,0,0-.23,1.4c.09,1.95,1.2,3.64,2.07,5.37.58,1.14,1.12,2.29,1.6,3.47,0-.37.05-.74.1-1.11a10.77,10.77,0,0,1,.71-2.8C17.27,53.7,17,52.59,16.79,51.47Z"/><path d="M46.57,92a6.62,6.62,0,0,0-.3-.78,4.86,4.86,0,0,0-.87-1.33,2.33,2.33,0,0,0-.28-.26c-.12-.12-.26-.25-.36-.37s-.36-.5-.51-.75A16.7,16.7,0,0,1,43.39,87c-.53-1-1-1.33-1.48-2.4s-.9-2.13-1.28-3.23c-.2-.55-.39-1.1-.56-1.66A7.07,7.07,0,0,1,39.7,78a17.66,17.66,0,0,1,.28-3.5,12.3,12.3,0,0,1,.69-2.21l-1.27-.11a10.53,10.53,0,0,1-4.1-1.22,14.21,14.21,0,0,1-1.89-1.18,14.58,14.58,0,0,1,.39,2.54c0,.6,0,1.2,0,1.82a4.24,4.24,0,0,1-.17,1c-.13.33-.24.55-.36.83a9.59,9.59,0,0,0-.57,1.63,1.73,1.73,0,0,0,0,.37.53.53,0,0,0,.09.29c.13.24.3.49.46.74A34.41,34.41,0,0,1,35.11,82a31.55,31.55,0,0,0,1.68,3.14c.6,1,1.2,1.31,1.82,2.33s1.24,2,1.83,3.09a5.42,5.42,0,0,1,.4.84l.23.86.3,1.12a.62.62,0,0,0,.62.46l1,0a.68.68,0,0,1,.48.16l.71.57a26.22,26.22,0,0,1,3-1.14Z"/><path d="M75.49,94.24l-.34-.36a17.86,17.86,0,0,1-1.25-1.59,12.45,12.45,0,0,1-1.06-1.76,7.85,7.85,0,0,1-.67-2c-.34-1.26-.79-1.77-1.06-3.12a11.7,11.7,0,0,1-.22-2.06c0-.7.06-1.35.12-2a14.07,14.07,0,0,0,.1-3.87,1.73,1.73,0,0,0-.15-.42,3.63,3.63,0,0,0-.23-.41c-.18-.3-.34-.59-.49-.89-.31-.6-.6-1.21-.87-1.82a16.31,16.31,0,0,1-1-2.86L67.64,71c-.26,0-.51-.12-.76-.18a3.64,3.64,0,0,0-.72-.13,5.76,5.76,0,0,0-2.84.51,10,10,0,0,0-1.08.55c.39,1,.42,1.3.77,2.28a7.86,7.86,0,0,0,1.65,3.12,4.72,4.72,0,0,1,.9,1.75c.2.6.35,1.2.49,1.8l.44,1.77a3.68,3.68,0,0,0,.67,1.49l.08.07,0,.08c.26.72.7,1.54,1,2.35a3.91,3.91,0,0,1,.5,1.84c0,.46-.07.87-.1,1.3s-.05.85-.05,1.28c0,.65,0,1.31,0,2a.53.53,0,0,0,.53.49H70a.48.48,0,0,1,.39.16l1.75,1.78c1.28-.13,2.23-.67,3.48-.9Z"/><path d="M93.7,18a28.17,28.17,0,0,0,2.8,3.19c.26,0,.53,0,.79-.09a6.89,6.89,0,0,0,1.3-.34,3.93,3.93,0,0,0,1.13-.66c.24-.18.46-.37.7-.58-.3-.2-.62-.38-.94-.55s-.78-.44-1.17-.64L96,17.08l-2.3-1.32c-.6-.34-1.19-.67-1.8-1a7.24,7.24,0,0,0,.61,1.41A15.32,15.32,0,0,0,93.7,18Z"/><path d="M94,15.09l.06,0c.79.4,1.57.83,2.34,1.3s1.51,1,2.24,1.48a15,15,0,0,1,1.92,1.57l.26-.23a6.64,6.64,0,0,1,.73-.55c-.63-.31-1.25-.64-1.85-1a21.68,21.68,0,0,1-2.06-1.43L93.86,13.4a6.93,6.93,0,0,0,0,1C93.89,14.65,93.92,14.87,94,15.09Z"/><path d="M114.51,35.48a7.31,7.31,0,0,0-.66-1.14l-.19-.28-.09-.16-.06-.09a.39.39,0,0,1-.07-.16s0,0,0,0c0-.21,0-.06,0,0v0l-.09-.11-.22-.26c-1.22-1.36-2.51-2.7-3.76-4.06l-.08-.08a13.94,13.94,0,0,0-4.59-9.42,3,3,0,0,0-.61-.32,3.09,3.09,0,0,0-.59-.18,2.29,2.29,0,0,0-1.19.12,14.86,14.86,0,0,0-2.18,1.6,4.5,4.5,0,0,1-1.33.67,8.06,8.06,0,0,1-1.43.24,9.61,9.61,0,0,1-1.42,0,4.56,4.56,0,0,0-1.45.27l0,.1c0,.2,0,.32,0,.44a1.54,1.54,0,0,0,0,.37,2.24,2.24,0,0,0,.67,1.31,3.87,3.87,0,0,0,.62.5,3.43,3.43,0,0,1,.68.49l0,.06A3.63,3.63,0,0,0,95.7,25,3.73,3.73,0,0,1,95,24.6a2.59,2.59,0,0,1-1-1.49,3.11,3.11,0,0,1-.08-.44,2.94,2.94,0,0,0,0-.39,1.06,1.06,0,0,0-.31-.54,6,6,0,0,0-1.27-.86,18.69,18.69,0,0,0-2.9-1.45,15.67,15.67,0,0,0-1.5-.51,1,1,0,0,0-1.1.54,5.66,5.66,0,0,0,.08,3.18,7.27,7.27,0,0,0,.67,1.47,2.58,2.58,0,0,0,1.17.91,17.75,17.75,0,0,0,3.11.86l.4.08a1.49,1.49,0,0,1,.46.16,2.92,2.92,0,0,1,.71.53,2.87,2.87,0,0,1,.88,1.46l-.08,0A3.25,3.25,0,0,0,93.1,27a3.4,3.4,0,0,0-.66-.38.74.74,0,0,0-.34-.06l-.41-.06A13.93,13.93,0,0,1,89.5,26l-1.56,1.18c.46,1.28,1.34,3.76,0,4.09-1.5.37-4.27.14-5.16,1C79.33,35.89,79.65,43.18,76.66,47c-1.53,2-2.85,5.3-4.17,7.84a1.32,1.32,0,0,1-2.22.21,13.61,13.61,0,0,0-1-1.24c-.33-.31,1-1.14,1.23-1.56.73-1.64-.18-3.3,1-3.82,4.53-1.93,5.74-4.36,5.22-8.86-.26-2.22,3.21-4.82,3.91-6L75,36.05a12.29,12.29,0,0,1-3.54,1c-1.22.1-2.42.06-3.61.12a13,13,0,0,0-3.47.59H64.3a41.91,41.91,0,0,1-10.57.44,25.17,25.17,0,0,1-2.59-.57c-.85-.2-1.7-.39-2.56-.55-1.71-.34-3.44-.63-5.16-.92s-3.46-.53-5.19-.77l-2.6-.31A10.85,10.85,0,0,0,33.09,35a21.25,21.25,0,0,0-4.94,1.37,22.83,22.83,0,0,0-2.34,1.11,8.72,8.72,0,0,0-1.06.68l-1,.84c-1.37,1.09-2.74,2.18-4,3.38A17.06,17.06,0,0,0,18,44.26a4.84,4.84,0,0,0-1,2.25,16.23,16.23,0,0,0,.26,5.14c.29,1.71.71,3.41,1.11,5.12s.77,3.25,1.09,4.91c.26-1.34.89-2.75,1.85-3.14,1.39-.57,3-1,4.34-.3,1.8,1,2.18,3.81,2.1,5.74a10.83,10.83,0,0,1-1.2,4.76h0a6.1,6.1,0,0,0,1.15-1.3,4,4,0,0,0,.54-1.63v0l0,0c.34-.67.67-1.38,1-2s.59-1,.91-1.56a7.66,7.66,0,0,0,.09-1.64,16.06,16.06,0,0,0-.13-1.81c-.21-1.22-.61-2.44-.95-3.67l.08,0a24.83,24.83,0,0,1,1.46,3.56,5.42,5.42,0,0,1,.3,2A4.71,4.71,0,0,1,31,61a9.66,9.66,0,0,1,1-1.14,3.45,3.45,0,0,1,2-1.07v.08c-.46.44-.88.88-1.35,1.36a9.85,9.85,0,0,0-1.26,1.54,21.1,21.1,0,0,0-1.37,2.41c-.23.45-.43.9-.64,1.36a33.21,33.21,0,0,1,2.74,2.06,19.25,19.25,0,0,0,3.44,2.26,13.87,13.87,0,0,0,3.87,1.23l1.35.22h0c.92.16,1.85.31,2.78.44a56.79,56.79,0,0,0,8.33.57c1.39,0,2.77-.09,4.15-.21a34.74,34.74,0,0,0,4-.55A10.35,10.35,0,0,1,62.78,70a6.44,6.44,0,0,1,3.2-.43,5.47,5.47,0,0,1,.8.19l.66.21c.47.15.94.28,1.41.38a12.71,12.71,0,0,0,2.06.41c-.26-.88-.35-2-.58-2.89-.39-.27-2.35-1.76-2.35-1.76s-.13-1.51-.17-2.2l-.13-2.07c0-.68-.07-1.37-.08-2.06a4.18,4.18,0,0,1,.61-2.07l.08,0a10.74,10.74,0,0,0,.12,2l.26,2,.29,2c.09.64.21,1.28.28,1.91.38.39.73.79,1.07,1.2s.73.92,1.06,1.42l1.4,4.3a24,24,0,0,1,.87,2.39c.23.82.39,1.64.59,2.46a16.53,16.53,0,0,0,.71,2.36,3.65,3.65,0,0,0,.56,1,1.17,1.17,0,0,0,.19.2,2,2,0,0,1,.23.27,3.33,3.33,0,0,1,.37.58,14.72,14.72,0,0,1,.88,2.42,5.1,5.1,0,0,0,1,2.13l.06.06,0,.06c.26.75.7.79,1,1.61a7.7,7.7,0,0,1,.53,2.57c0,.89-.14,1.71-.13,2.57,0,.62,0,1.23.06,1.84a.65.65,0,0,0,.65.6,2.66,2.66,0,0,1,.9,0c.18.09,1.92,1.93,1.92,1.93.71-.07,3.55-.68,3.55-.68h0A19,19,0,0,1,84.37,94a8,8,0,0,1-1-2.12c-.19-.75-.37-1.43-.6-2.15A11.14,11.14,0,0,1,81.9,86c0-1.54.22-3,.3-4.49a4,4,0,0,0-.32-2c-.39-.62-.78-1.29-1.12-2A21,21,0,0,1,79,73.4c-.19-.72-.38-1.45-.51-2.19a13,13,0,0,1-.18-2.32A17.18,17.18,0,0,0,79.89,67,18.73,18.73,0,0,0,81,64.89a8.22,8.22,0,0,0,.38-1.12,5.66,5.66,0,0,0,.13-.56c0-.21.07-.41.12-.62a12.09,12.09,0,0,1,.78-2.36l1-2.26v0l-.14-1.26c-.08-.63-.09-1.28-.2-1.93a16.66,16.66,0,0,0-.45-1.92c-.16-.64-.39-1.26-.57-1.92h.07a5.88,5.88,0,0,1,1,1.62,15.45,15.45,0,0,1,.68,1.91,6.62,6.62,0,0,1,.37,2v.11c.19-.32.4-.63.6-.93,1-1.35,1.88-2.36,2.93-3.59.53-.6,1.06-1.22,1.53-1.85l1.39-2,2.82-4c.47-.67.9-1.34,1.39-2a7.93,7.93,0,0,1,2-1.44l.54-.28a2.38,2.38,0,0,0,.29-.13l.17-.05s.15,0,.13,0h0c.35-.09.76-.24,1.14-.35l.66-.18c-.53,0-1.06-.13-1.58-.23-.9-.22-1.77-.53-2.67-.76l-.16,0,0-.13c-.21-.73-.5-1.93-.66-2.66l-.08-.36a4,4,0,0,1-.13-1.05l.07,0a4.76,4.76,0,0,0,.26,1l.34,1,.66,1.78c.86.16,1.73.29,2.58.49a13.61,13.61,0,0,1,2.26.82,9.27,9.27,0,0,1,.92-.14h0l.07,0a11.79,11.79,0,0,0,3.32.66,8,8,0,0,0,.85,0c.28,0,.47-.06.85-.1a9.66,9.66,0,0,1,1.81.12c.58.09,1.16.19,1.74.31a3.69,3.69,0,0,0,1.62,0,2.73,2.73,0,0,0,1.34-.91,4.85,4.85,0,0,0,.7-1.24,1.1,1.1,0,0,0-.26,0,13.76,13.76,0,0,1-1.45-.28,11,11,0,0,1-2.74-1l0-.07a14.32,14.32,0,0,0,2.79.66,13.65,13.65,0,0,0,1.42.14,8.33,8.33,0,0,0,1.12,0A4.56,4.56,0,0,0,114.51,35.48ZM32.84,50c.52-2,2.52-2.78,6.12-2.78s4.82.26,4.59,3.06-3.9,6.07-6.48,4.28C34.72,52.89,32.32,52,32.84,50Zm9.65,17.92c-1.07,2.08-3.69.77-4.32-.4s.28-2.88,2-3.83,3.68-.76,4.31.4S43.56,65.82,42.49,67.89ZM62.13,43.58s2.27-.64,2.19.81-.63.82-2.66,1.06S60.1,44.54,62.13,43.58Zm-6,3.61a3.26,3.26,0,0,1,2.7,0c1.11.7-1,1.12-1.84,2.56s-1,.46-2.84,0S54.12,48.39,56.1,47.19Zm4,11.44c-2.42,3.36-4.86,9-10.76,7.5a.71.71,0,0,1-.53-.81c.87-4.82,5.22-9.65,10.89-8.83C60.38,56.58,60.52,58.12,60.15,58.63Zm5.17,7.19c-1.11.46-.9.78-.9,1.93s-1.05.66-1.77.93c-1.28.49-2.26.59-1.64-1.56s.86-2.1.88-2.1c1.22-1.59,2.22-2.39,3.43-1.71A1.34,1.34,0,0,1,65.32,65.82Zm2.93-18.07c-1.67,1.11-2.52.5-3.49,1.29s-.68.19-1.79,1.46-.75,4.55-2.26,3.68-6.11,1-4-.77c2.4-2,5.66-4.39,5.66-4.39A26.44,26.44,0,0,0,65,46.48a3,3,0,0,1,2.46-.95C68,45.77,69.92,46.64,68.25,47.75Zm22.08-9.4c-1.13.9-1,.14-2.3-1s.53-2.07,1.6-.65C89.63,36.69,91.46,37.44,90.33,38.35Zm12.86-9.73a1.78,1.78,0,0,1-1.25.47,1.75,1.75,0,0,1-1.11-.72.28.28,0,0,1,0-.38,1.89,1.89,0,0,1,1.25-.47,1.79,1.79,0,0,1,1.11.72A.28.28,0,0,1,103.19,28.62ZM26,69.7c-1.24,1.71-1.93,3.27-3.55,4.59s-3,2.71-3.57,1.24L18.64,75a9.28,9.28,0,0,1-1.29,2.18,14.21,14.21,0,0,0,0,2.16c0,.73.11,1.46.17,2.2.12,1.45.28,2.91.46,4.37a32.73,32.73,0,0,1,1.52,4.84,8.15,8.15,0,0,1,.13,3A5.89,5.89,0,0,0,20,96.31a.41.41,0,0,0,.5.27l2.89-.81a.25.25,0,0,0,.16-.33,20.4,20.4,0,0,1-1-3.16A18.45,18.45,0,0,1,22,87.66a22.56,22.56,0,0,1,.4-3.86l.36-2.27A12.39,12.39,0,0,0,23,79.32v-.1c.25-.9.55-1.76.84-2.63l.9-2.59.91-2.59c.3-.86.61-1.73.89-2.59A6.78,6.78,0,0,1,26,69.7ZM22.35,60c-2,.23-1.73,3.3-1.2,4.69.28.71.51,2-.42,1a8.31,8.31,0,0,1-.75-.9,18.62,18.62,0,0,1,.13,2.37,36.4,36.4,0,0,1-.61,5.1c.12-.09.27-.18.42-.27a9,9,0,0,0,3.68-3.75,9,9,0,0,0,1.47-4.79C25.07,61.9,24.92,59.67,22.35,60Z"/><path d="M83.65,98.76,84,100s4.15,0,4.25,0-1.16-2.21-1.16-2.21Z"/><path d="M72.86,96.2l.37,1.23s4.15,0,4.25,0-1.16-2.2-1.16-2.2Z"/><path d="M44.42,95.42l.37,1.23s4.15,0,4.25,0-1.16-2.21-1.16-2.21Z"/><path d="M20.62,97.66,21,98.89s4.16,0,4.26,0-1.16-2.21-1.16-2.21Z"/></svg>