<svg id="Layer_1" data-name="Layer 1" xmlns="http://www.w3.org/2000/svg" width="128" height="128" viewBox="0 0 128 128"><defs><style>.cls-1{fill:#fcce05;}</style></defs><title>Artboard 13 copy 7</title><path class="cls-1" d="M37.87,101.77H35.16V89.33h2.51V91.1a5.32,5.32,0,0,1,1.15-1.65A1.81,1.81,0,0,1,40,89a2.89,2.89,0,0,1,1.77.62l-.84,2.87A2.08,2.08,0,0,0,39.66,92a1.42,1.42,0,0,0-1,.41,2.78,2.78,0,0,0-.61,1.51,27.3,27.3,0,0,0-.19,4Z"/><path class="cls-1" d="M49.34,97.82l2.68.56a5.37,5.37,0,0,1-1.67,2.78,4.35,4.35,0,0,1-2.77.91,4.26,4.26,0,0,1-3.5-1.52,7.53,7.53,0,0,1-1.45-4.93,7.89,7.89,0,0,1,1.46-5A3.89,3.89,0,0,1,47.3,89a4.09,4.09,0,0,1,3.43,1.61,8.82,8.82,0,0,1,1.43,5.47v.38H45.39a3.78,3.78,0,0,0,.66,2.29,1.94,1.94,0,0,0,1.55.82C48.47,99.61,49.05,99,49.34,97.82Zm.14-3.34a3.59,3.59,0,0,0-.62-2.19,1.71,1.71,0,0,0-2.84,0,3.47,3.47,0,0,0-.58,2.16Z"/><path class="cls-1" d="M63.74,93l-2.66.58c-.19-1.3-.81-2-1.85-2a1.9,1.9,0,0,0-1.61.84A5,5,0,0,0,57,95.33a6,6,0,0,0,.61,3.14,1.89,1.89,0,0,0,1.64.91,1.65,1.65,0,0,0,1.26-.52,3.59,3.59,0,0,0,.7-1.84l2.66.55q-.82,4.5-4.72,4.5a4.07,4.07,0,0,1-3.7-1.91,8.29,8.29,0,0,1-1.21-4.57,7.55,7.55,0,0,1,1.36-4.88A4.83,4.83,0,0,1,62.12,90,5.52,5.52,0,0,1,63.74,93Z"/><path class="cls-1" d="M72.19,97.82l2.68.56a5.37,5.37,0,0,1-1.67,2.78,4.35,4.35,0,0,1-2.77.91,4.26,4.26,0,0,1-3.5-1.52,7.53,7.53,0,0,1-1.45-4.93,7.89,7.89,0,0,1,1.46-5A3.89,3.89,0,0,1,70.15,89a4.09,4.09,0,0,1,3.43,1.61A8.82,8.82,0,0,1,75,96.12v.38H68.24a3.71,3.71,0,0,0,.67,2.29,1.91,1.91,0,0,0,1.54.82C71.32,99.61,71.9,99,72.19,97.82Zm.14-3.34a3.59,3.59,0,0,0-.62-2.19,1.71,1.71,0,0,0-2.84,0,3.47,3.47,0,0,0-.58,2.16Z"/><path class="cls-1" d="M87,101.77H84.26V95.41a13.54,13.54,0,0,0-.15-2.54,1.75,1.75,0,0,0-.57-1,1.49,1.49,0,0,0-.94-.34,1.91,1.91,0,0,0-1.23.44,2.35,2.35,0,0,0-.78,1.22,12.41,12.41,0,0,0-.22,2.92v5.64H77.66V89.33h2.51v1.81a5,5,0,0,1,1.51-1.58A3.4,3.4,0,0,1,83.53,89a3.14,3.14,0,0,1,3.13,2.19A10,10,0,0,1,87,94Z"/><path class="cls-1" d="M94.85,89.33V92H93v5a10.17,10.17,0,0,0,.09,1.89.64.64,0,0,0,.66.47A3,3,0,0,0,94.84,99l.24,2.55a4.52,4.52,0,0,1-2.13.5,2.6,2.6,0,0,1-1.65-.5,2.41,2.41,0,0,1-.83-1.42,14.61,14.61,0,0,1-.16-2.77V92H89.06V89.33h1.25V86.86L93,84.93v4.4Z"/><path d="M26.92,124l-2.81-14.32h2.43l1.76,9.84,2.15-9.84h2.82l2.06,10,1.81-10h2.39L36.67,124H34.15l-2.34-10.71L29.48,124Z"/><path d="M40.86,124V109.68h2.36V124Z"/><path d="M45.76,124V109.8h2.36v11.78H54V124Z"/><path d="M55.9,109.68h4.32a6.47,6.47,0,0,1,2.47.37,4.1,4.1,0,0,1,1.54,1.24,6.31,6.31,0,0,1,1.1,2.25,12.47,12.47,0,0,1,.4,3.45,11.15,11.15,0,0,1-.42,3.23,6.55,6.55,0,0,1-1.06,2.17,4.15,4.15,0,0,1-1.56,1.2,5.81,5.81,0,0,1-2.34.41H55.9Zm2.36,2.43v9.47H60a4.42,4.42,0,0,0,1.65-.22,2,2,0,0,0,.84-.65,3.59,3.59,0,0,0,.54-1.37,10.87,10.87,0,0,0,.22-2.46,11.06,11.06,0,0,0-.22-2.51,3.43,3.43,0,0,0-.68-1.45,2.19,2.19,0,0,0-1.13-.69,9.89,9.89,0,0,0-1.93-.12Z"/><path d="M68,124V109.68H76v2.43H70.33v3.38h4.92v2.43H70.33V124Z"/><path d="M78.09,124V109.68h2.37V124Z"/><path d="M82.93,124V109.68h5a6.91,6.91,0,0,1,2.74.39A3.11,3.11,0,0,1,92,111.41a4.63,4.63,0,0,1,.52,2.28,4.27,4.27,0,0,1-.8,2.7,3.54,3.54,0,0,1-2.29,1.29,6,6,0,0,1,1.26,1.2,16.81,16.81,0,0,1,1.35,2.33L93.48,124H90.65l-1.71-3.12a21.25,21.25,0,0,0-1.26-2.11,2,2,0,0,0-.7-.59,3.44,3.44,0,0,0-1.2-.16H85.3v6Zm2.37-8.26h1.75a9.21,9.21,0,0,0,2.06-.14,1.36,1.36,0,0,0,.71-.57,2.15,2.15,0,0,0,.27-1.15,2,2,0,0,0-.27-1.1,1.45,1.45,0,0,0-.74-.57,9.93,9.93,0,0,0-1.93-.1H85.3Z"/><path d="M95,124V109.68h8.71v2.43H97.33v3.17h5.9v2.41h-5.9v3.89h6.56V124Z"/><path d="M79.92,62.79a.39.39,0,0,0-.43-.27.39.39,0,0,0-.31.39,6.49,6.49,0,0,1-1.69,3.46c.59-5.3-2-14.37-4.9-19.47a.44.44,0,0,0-.51-.16.37.37,0,0,0-.2.48c1,2.62-.59,7.69-1.81,9.14C63.6,48.51,64,34.38,64,34.23a.49.49,0,0,0-.27-.4.42.42,0,0,0-.43.12c-.87,1.1-2.48,6.83-3.22,13.66a19.9,19.9,0,0,1-6.24,12.56c-.16-1.57-.55-5.07-1.22-6.09a.37.37,0,0,0-.43-.15.41.41,0,0,0-.27.39c.15,2.08-.71,3.77-1.69,5.73a20.66,20.66,0,0,0-2.71,10.16,12.14,12.14,0,0,0,5,10.2A17.86,17.86,0,0,0,63.36,84h0A17.93,17.93,0,0,0,76,78.84a17.05,17.05,0,0,0,2.63-3.25C81,72,80.71,65.34,79.92,62.79Zm-24.33,7a4.29,4.29,0,0,0,3.65,2.82.43.43,0,0,0,.44-.35c.27-4,2.15-9.18,3.37-12.12a17.83,17.83,0,0,0,2.83,10.28.37.37,0,0,0,.47.11,8.69,8.69,0,0,0,4.31-4.47c1.89,5.42.71,9-.66,11a8.17,8.17,0,0,1-6.36,3.69c-2.75,0-4.83-.87-6.16-2.51C55.44,75.74,55.4,72,55.59,69.82Z"/><path d="M15.11,69.77a3.23,3.23,0,0,1-1.75.34c-1.32-.42-.71-2-.71-2S9.79,71.47,11,73.38a5.62,5.62,0,0,1-3.39-3.7,5.45,5.45,0,0,1,1-5c.14.23.4,1.42,1.17,1.42s1.11-1,1.17-1.34c.09-.53-1.32-3.09,2.11-5.88-.33,2.35,1.06,2.36,2.43,3.9a9.66,9.66,0,0,1,2.78,5.39,5.11,5.11,0,0,1-2.91,5C16.07,71.84,15.93,71.11,15.11,69.77Z"/><path d="M120.74,76.19s-1.25.65-2,.4c-1.54-.48-.82-2.29-.82-2.29s-3.33,3.87-2,6.08A6.49,6.49,0,0,1,112,76.1a6.34,6.34,0,0,1,1.2-5.82c.17.27.47,1.63,1.36,1.63s1.28-1.13,1.35-1.54c.1-.61-1.52-3.59,2.45-6.82-.38,2.73,1.23,2.73,2.82,4.52a11.18,11.18,0,0,1,3.22,6.25A5.94,5.94,0,0,1,121,80.18C121.85,78.6,121.69,77.74,120.74,76.19Z"/><path d="M16.59,77.68c-1.46-.06-2.91-.1-4.37-.11S7,77.38,5.5,77.25.59,74.7,0,73.22l.15-.14a49.53,49.53,0,0,0,5.53,2.59c1.3.34,5.2.21,6.64.45s2.88.53,4.3.91Z"/><path d="M35.93,56.67c-1-1.26-2.06-2.51-3-3.79S31.39,50.23,30.58,49a21,21,0,0,1-2-4h0c-.19-1.1-.4-2.2-.68-3.3-.26-.89-.52-1.86-.79-2.67s-.56-1.64-.78-2.48L25.63,34l-.56-2.56c-.71-3.55-1.19-6.93-1.6-10.39-.1-.77-.18-1.55-.27-2.33.37.42.75.82,1.12,1.22C26.27,22,27.2,25.1,29.2,27.05l.16-.09c-1.53-2.23-2.2-5.59-3.78-7.73-.79-1.07-1.35-2.22-2-3.26-.29-.47-.55-.93-.79-1.42-.44-4.83-.72-9.68-1-14.55l-.51,0c-.35,7-.54,14.09-.3,21.15.12,2.64-.14,5.27.13,7.91a16.58,16.58,0,0,1-.33,1.76A26.81,26.81,0,0,1,19.51,35l-1.8,4.17c-.55,1.42-.31,2.61-.72,4.05l.18,0c.71-1.36.65-2.49,1.43-3.81l2.33-4c.25-.44.49-.89.72-1.34l.06.38.49,2.66c.17.89.43,1.78.64,2.67s.36,1.66.54,2.5c1.14,6.68.11,13.67-.08,20.6l-.48,10.48c-.16,3.51-2.5,7.1-2.47,10.66a6.17,6.17,0,0,0,3.76,0A11,11,0,0,1,29,84c1.42-3.38-.61-17.3-.11-20.84a63.68,63.68,0,0,0,.5-10.7c0-.29-.05-.59-.07-.89a28.1,28.1,0,0,0,2,2.22c1.17,1.22,2.41,2.36,3.65,3.49s.86,1.77,2.08,2.92l.21-.11C36.32,58.76,36.92,58,35.93,56.67Z"/><path d="M43.28,79.62c-.39-.14-4.72-1.73-5-1.73s-.64.5-.55.67,2,.59,3.67,1.29c-2,.26-3.76.52-4.29.62a18.58,18.58,0,0,1-4.59.37l0,.19a16.66,16.66,0,0,0,4.73.43c1.59-.08,3.16-.28,4.71-.48s3.09-.22,4.57-.52,3-.54,4.55-.94l0-.2C50.25,78.94,46.64,79.23,43.28,79.62Z"/><path d="M117.24,44.06a29.18,29.18,0,0,1,3.05-.74c.28,0,.32.3.24.48s0-.37-.78.73a26.62,26.62,0,0,0,3.63,0A18,18,0,0,0,128,45l0,.2a17.07,17.07,0,0,1-4.73.43c-1.59-.08-3.16-.29-4.71-.48s-10.18-1-10.18-1l1-.58S116.36,44,117.24,44.06Z"/><path d="M110,12.35l-2,9.5s-6.22,5-7.89,6.21c-.11-3.17-.18-6.33-.22-9.5s0-6.18,0-9.28S99.93,3.1,100,0L96.1.09c.14,6.53.16,12.86.05,19.08l0,1.2L82.46,10,76.76,0H76l5.53,11,5.63,5.46a.44.44,0,0,1-.36.74L80.51,17V18.5l7.1,0A6.37,6.37,0,0,1,91.74,20c1.55,1.31,3.61,3.23,4.27,4.63,0,1.27-.07,2.53-.13,3.79-.1,3.07-.25,6.12-.47,9.15s-.59,6-1,9L93.34,55.7c-.68,6.1-2,17.79-2,17.79a13.13,13.13,0,0,0,6.87-.17,13.09,13.09,0,0,1,6.86-.17s-2.12-5.18-2.41-8.27-.58-6.17-.83-9.25L101,46.37c-.24-3.09-.42-6.18-.6-9.26,0-1.08-.09-2.16-.13-3.23,2-3.7,8.38-10,8.38-10l1.72-11.27Z"/></svg>