<svg id="Layer_1" data-name="Layer 1" xmlns="http://www.w3.org/2000/svg" width="128" height="128" viewBox="0 0 128 128"><title>Artboard 83</title><path d="M19.91,109.44h4.7a7.37,7.37,0,0,1,2.71.35A3.06,3.06,0,0,1,28.64,111a4,4,0,0,1,.08,3.88,3.06,3.06,0,0,1-1.2,1.24,3.2,3.2,0,0,1,1.64,1.27,3.93,3.93,0,0,1,.59,2.19,4.52,4.52,0,0,1-.76,2.64,3.07,3.07,0,0,1-1.77,1.33,18,18,0,0,1-3.31.18h-4Zm2.36,2.38v3.31h1.57a15.3,15.3,0,0,0,1.74,0,1.44,1.44,0,0,0,.94-.51,1.71,1.71,0,0,0,.34-1.13,1.81,1.81,0,0,0-.27-1,1.16,1.16,0,0,0-.68-.49,13.58,13.58,0,0,0-2.27-.1Zm0,5.7v3.81h2.21a7,7,0,0,0,1.86-.15,1.43,1.43,0,0,0,.69-.59,2.46,2.46,0,0,0,0-2.28,1.53,1.53,0,0,0-.8-.62,7.27,7.27,0,0,0-2-.17Z"/><path d="M42.54,123.76H40l-1-3.25h-4.7l-1,3.25H30.76l4.57-14.32h2.51Zm-4.36-5.67-1.62-5.31L35,118.09Z"/><path d="M45.43,123.76v-11.9H41.94v-2.42h9.33v2.42H47.79v11.9Z"/><path d="M53,123.76V109.44h8.71v2.42H55.37V115h5.9v2.41h-5.9v3.88h6.57v2.43Z"/><path d="M64.21,123.76v-14.2h2.36v11.77h5.9v2.43Z"/><path d="M74.37,123.76V109.44h8.71v2.42H76.73V115h5.9v2.41h-5.9v3.88h6.56v2.43Z"/><path d="M85.48,109.44h2.36v7.75a18.81,18.81,0,0,0,.09,2.36,2.32,2.32,0,0,0,.75,1.46,2.61,2.61,0,0,0,2.9.15,1.86,1.86,0,0,0,.71-1,12.36,12.36,0,0,0,.19-2.79v-7.92h2.36V117a19.42,19.42,0,0,1-.31,4.16,3.49,3.49,0,0,1-1.38,2.08,4.7,4.7,0,0,1-2.85.8,5.32,5.32,0,0,1-2.87-.66,3.8,3.8,0,0,1-1.49-1.85,14,14,0,0,1-.46-4.41Z"/><path d="M97.54,123.76V109.44h5a6.91,6.91,0,0,1,2.74.39,3,3,0,0,1,1.34,1.33,4.58,4.58,0,0,1,.53,2.28,4.32,4.32,0,0,1-.8,2.71,3.62,3.62,0,0,1-2.29,1.29,6.25,6.25,0,0,1,1.26,1.19,17.46,17.46,0,0,1,1.35,2.33l1.43,2.8h-2.83l-1.71-3.12a20,20,0,0,0-1.26-2.11,1.82,1.82,0,0,0-.71-.59,3.12,3.12,0,0,0-1.19-.16h-.48v6Zm2.37-8.27h1.75a8.45,8.45,0,0,0,2-.14,1.29,1.29,0,0,0,.72-.57,2.14,2.14,0,0,0,.27-1.14,2,2,0,0,0-.27-1.1,1.37,1.37,0,0,0-.75-.57,9.37,9.37,0,0,0-1.92-.11H99.91Z"/><path d="M47.3,75.4a5.33,5.33,0,0,0,.74-.61,3.44,3.44,0,0,0,.48-.59,38.74,38.74,0,0,0-.13-4.44l.16,0a23.84,23.84,0,0,1,.51,2.78l.32,2.78c.11.92.22,1.84.37,2.73a7.73,7.73,0,0,0,.72,2.38,2,2,0,0,0,1.21.67c.31.07.71.11,1.16.2,0-.16.1-.31.14-.46.13-.41.22-.83.31-1.25a22.15,22.15,0,0,0,.36-2.66l.15,0a6.86,6.86,0,0,1,.69,2.77,8.54,8.54,0,0,1-.14,2.08l.09,0c.34-.16.68-.31,1-.48a4.83,4.83,0,0,0,1.49-1.11l.35-.41.53.13a.65.65,0,0,0,.4,0,1.61,1.61,0,0,0,.6-.41,6.2,6.2,0,0,0,1-1.55A15.5,15.5,0,0,0,60.54,76c.11-.33.21-.66.29-1A3.82,3.82,0,0,1,60.07,74a7.88,7.88,0,0,1-.5-1.35,9,9,0,0,1-.32-2.84l.16,0A16.15,16.15,0,0,1,61,72.05c.22.39.45.77.64,1.14l.2.37a4.22,4.22,0,0,0,.15-.59c.11-.64.18-1.34.27-2a19.1,19.1,0,0,1,.8-3.58c-.65-.42-1.31-.85-2-1.29-1.73-1.18-3.42-2.43-5.08-3.71a26.59,26.59,0,0,1-7.45-1.84,48.65,48.65,0,0,1-7.15-3.31,17.61,17.61,0,0,1-3.3-2.35c-1-.85-1.9-1.75-2.85-2.63a76.63,76.63,0,0,1-5.46-5.64,33.61,33.61,0,0,1-2.41-3.12,13.12,13.12,0,0,1-1.8-3.61,8.37,8.37,0,0,1-.29-4.07,6.68,6.68,0,0,1,1.89-3.6A5.48,5.48,0,0,1,28.88,31a6.61,6.61,0,0,1,2-.38h1a4.15,4.15,0,0,1,1.33-1.73A4.51,4.51,0,0,1,35,28c2.46-.64,3.35-.77,16.69.28a27.11,27.11,0,0,1-2.64-2c-1.1-.94-2.15-1.91-3.19-2.9s-2-2-3-3.07a5.35,5.35,0,0,1-2-4.39L41,14.84l1.14.53a.4.4,0,0,0,.33,0h0L41.93,14,41.49,13c-.08-.19-.13-.29-.2-.44L41,12.08a17.84,17.84,0,0,0-2.87-3.29,23.78,23.78,0,0,0-7.5-4.69A15.36,15.36,0,0,0,26.38,3,10.52,10.52,0,0,0,22,3.6a11.22,11.22,0,0,0-3.76,2.34,10.7,10.7,0,0,0-2.14,2.78l-.21-.16a6.9,6.9,0,0,0-.36.89,3.48,3.48,0,0,0-.76.41,3.43,3.43,0,0,0-1.26,1.87,3.36,3.36,0,0,0-1.41,1.07,4.36,4.36,0,0,0-.87,1.63,4.07,4.07,0,0,0-.07,1.9A4.58,4.58,0,0,0,12,18.08l.72,1V17.85c0-.47,0-.92.06-1.36,0-.08.56.16.88.2a2.19,2.19,0,0,0,1-.1,2.41,2.41,0,0,0,1.23-1l1.08,0a12.05,12.05,0,0,1,2.51,2.57,13.08,13.08,0,0,1,1.21,4.08,6.58,6.58,0,0,1-.21,2.18c-.16.68-.37,1.36-.57,2l-.6,2a.05.05,0,0,1,0,0l.56-.88c1.31-2.12,1.77-.54,1.77-.54,0,1.19.23,2.43.3,3.73a13.28,13.28,0,0,1,0,2c-.1.71-.19,1.21-.22,1.82a31.16,31.16,0,0,0-.07,3.62,20.8,20.8,0,0,0,.19,2.09A4.34,4.34,0,0,1,23.05,38a4.82,4.82,0,0,1,1.12-.82c-.38.83-.77,1.61-1.1,2.43-.19.45-.36.9-.54,1.35,1,3.41,1.92,6.85,3.12,10.17.33.85.65,1.71,1.05,2.51a5.19,5.19,0,0,0,.68,1.08l.88,1.07c1.18,1.42,2.39,2.81,3.61,4.19a65.17,65.17,0,0,0,7.89,7.62C41.18,68.77,42.62,70,44,71.25A15.58,15.58,0,0,1,47.3,75.4ZM12.55,14.85a1.81,1.81,0,0,0-.46.79,5.19,5.19,0,0,0-.13.64s0-.07,0-.11a4,4,0,0,1-.07-1.61A4.54,4.54,0,0,1,12.43,13a6.58,6.58,0,0,1,1.11-1.2.1.1,0,0,1,.08,0l.46.58a7,7,0,0,0,1.35,1.31,1.65,1.65,0,0,0-.32.06l-.07,0-.07.1a1.57,1.57,0,0,1-.88.74,2.35,2.35,0,0,1-.6,0,2.51,2.51,0,0,0-.42,0A1,1,0,0,0,12.55,14.85ZM25,14.23l-.3,0a8.57,8.57,0,0,1-3.11-.22l.28.22a1.74,1.74,0,0,1,.37.46.41.41,0,0,1-.06.43.58.58,0,0,1-.33.18,18.18,18.18,0,0,1-2.16.14l-.67,0,.66-.73a9.55,9.55,0,0,0-2.14,0,4.66,4.66,0,0,0-1.76.6c-.51.15-.9.66-1.33.8a13.91,13.91,0,0,1-1.61.05,1.51,1.51,0,0,1,.28-.77c0-.16.67,0,1.21-.18a2,2,0,0,0,1.09-1A4.27,4.27,0,0,1,16.53,14a10.19,10.19,0,0,1,1.35,0,6.09,6.09,0,0,0-1.34-.32,5.16,5.16,0,0,0-.68,0,1.89,1.89,0,0,0-.17-.54,3,3,0,0,0-.5-.71,2.79,2.79,0,0,0-.71-.51,1.45,1.45,0,0,0-.83-.18A3.27,3.27,0,0,1,14.92,10,3.32,3.32,0,0,1,17,9.47h.05l.05,0-.3-.22.17,0a19.94,19.94,0,0,1,3-2,10.27,10.27,0,0,1,1.71-.71,4.32,4.32,0,0,1,1.87-.2,2.46,2.46,0,0,1,2.32,1,3,3,0,0,1,.63,2.52,1.72,1.72,0,0,1-.35.65c-.14.18-.24.29-.35.44a4.43,4.43,0,0,0-.55.9A5.42,5.42,0,0,0,25,13.92Z"/><path d="M84.37,54.73a1.24,1.24,0,0,1,0,.91,2.35,2.35,0,0,1-1.25,1.2,10.24,10.24,0,0,1-3,.88A21.73,21.73,0,0,1,77,58c-.52,0-1,0-1.56,0a9.54,9.54,0,0,1-1.32-.19,4.9,4.9,0,0,1-1.82.51,12.13,12.13,0,0,1-2.09,0,13.78,13.78,0,0,1-2-.36,6.79,6.79,0,0,1-1.66-.63,8.31,8.31,0,0,1-3.92,1,10.51,10.51,0,0,1-2.17-.14,6.59,6.59,0,0,1-1.91-.63,9.56,9.56,0,0,1-1.67.82,12.5,12.5,0,0,1-2,.59,8.28,8.28,0,0,1-2,.17,4.36,4.36,0,0,1-1-.18C53.24,59.89,54.65,61,56.1,62c1.71,1.25,3.46,2.47,5.25,3.61a56.69,56.69,0,0,0,5.49,3.18,16.73,16.73,0,0,0,5.89,1.87h.15l.12.09a18.85,18.85,0,0,0,2.91,1.89A14.1,14.1,0,0,0,79.1,74a16.35,16.35,0,0,0,3.41.45,4.6,4.6,0,0,0,1.59-.25,14.66,14.66,0,0,1,1.79-.46l.2,0,.18.09a4.05,4.05,0,0,0,2.39.24,9.13,9.13,0,0,0,2.48-.81l.38-.19.33.27a4.7,4.7,0,0,0,2,1,2.32,2.32,0,0,0,1.86-.39l.5-.38.47.49a2.18,2.18,0,0,0,.44.38,1.3,1.3,0,0,0,.48.19,1.26,1.26,0,0,0,.51,0,1.86,1.86,0,0,0,.46-.17l.59-.36.43.54a14.43,14.43,0,0,0,1.19,1.29,4.93,4.93,0,0,0,1.06.76c-.09-.21-.21-.43-.36-.7l-.12-.26a1.46,1.46,0,0,1-.14-.49,1.34,1.34,0,0,1,0-.37,1,1,0,0,1,.4-.5.85.85,0,0,1,.44-.14.76.76,0,0,1,.23,0h.07a.83.83,0,0,0,.33-.63,1.45,1.45,0,0,0,0-.62,1.42,1.42,0,0,0-.1-.29l-.08-.12-.14-.22c-.69-1.1-1.35-2.17-2.06-3.2A12.41,12.41,0,0,0,98,66.35c-.12-.08-.15-.08-.28-.16a4,4,0,0,1-.55-.3c-.29-.19-.58-.4-.83-.6-.53-.41-1-.83-1.52-1.24-2-1.68-3.83-3.47-5.72-5.22-1.73-1.59-3.42-3.23-5.15-4.81l.07.15A1.66,1.66,0,0,1,84.37,54.73Z"/><path d="M37.49,28.61a15.25,15.25,0,0,0-1.79.75,15.48,15.48,0,0,1-1.66,1,7.18,7.18,0,0,1-1,.31l1.81.09c2.6.15,5.19.4,7.78.46v.16c-2.61.05-5.21-.09-7.8-.13A38.12,38.12,0,0,0,31,31.3a5.59,5.59,0,0,0-1.78.4,4.71,4.71,0,0,0-1.43,1.06A5.87,5.87,0,0,0,26.2,36a7.41,7.41,0,0,0,.38,3.57,12.2,12.2,0,0,0,1.75,3.25,28.28,28.28,0,0,0,2.44,2.93C32,47,33.21,48.19,34.5,49.37l.14,0a3.65,3.65,0,0,0,2.17-.62A3.29,3.29,0,0,0,38.14,47a3.87,3.87,0,0,0,0-2.21l-.27-.93.7.69A10.11,10.11,0,0,0,42.12,47a2.82,2.82,0,0,0,2,.05,2.2,2.2,0,0,0,1.13-1.47l.25-.92.51.83a3.53,3.53,0,0,0,1.2,1.09,6.62,6.62,0,0,0,1.56.69,4.26,4.26,0,0,0,1.61.2.65.65,0,0,0,.26-.09s0,0,0,0a.81.81,0,0,0-.16-.48L49,44.55l2.22,1.65a13.93,13.93,0,0,0,1.61,1.06,3.48,3.48,0,0,0,1.69.48l1,0c.07,0,.1,0,.1,0s0,0,0-.11a3.58,3.58,0,0,0-.23-1.6l-.67-2,1.65,1.28a18.66,18.66,0,0,0,1.72,1.18,8.24,8.24,0,0,0,1.8.87,2.1,2.1,0,0,0,.42.09h.1a1.09,1.09,0,0,0,.11-.4,5.71,5.71,0,0,0-.16-1.85l-1-4.27,2.37,3.72a10.5,10.5,0,0,0,1.42,1.77,5.6,5.6,0,0,0,1.72,1.2,1.85,1.85,0,0,0,1.58-.06A1.26,1.26,0,0,0,67,47a2.67,2.67,0,0,0,.19-.86l.08-3,1.49,2.54a5.33,5.33,0,0,0,1.44,1.56,3.61,3.61,0,0,0,1.92.73,1.37,1.37,0,0,0,.53,0,1,1,0,0,0,0-.57,7.91,7.91,0,0,0-1-2l-2.92-4.62,3.87,3.79a35.16,35.16,0,0,0,4,3.42,22.94,22.94,0,0,0,2.17,1.47,12.84,12.84,0,0,0,2.34,1.1l-1.22-1.72C78.5,46.93,77.21,45,75.92,43a20.83,20.83,0,0,0-2.25-2.49c-.81-.82-1.65-1.62-2.51-2.39a64.75,64.75,0,0,0-5.38-4.42c-.94-.67-1.91-1.31-2.9-1.9a13.12,13.12,0,0,0-3.09-1.37,42.91,42.91,0,0,0-6.85-1.27c-4.51-.57-9.07-.84-13.62-1.18C38.69,28.21,38.08,28.38,37.49,28.61Z"/><path d="M76.09,48.65c-.72-.43-1.41-.9-2.09-1.39a2.8,2.8,0,0,1,.09.62,1.71,1.71,0,0,1-.31,1,2.22,2.22,0,0,1-.46.41,3.23,3.23,0,0,1-.49.18,2.8,2.8,0,0,1-.84.07,5.32,5.32,0,0,1-2.78-.91,6.2,6.2,0,0,1-.83-.69A2.7,2.7,0,0,1,67.49,49a3,3,0,0,1-1.63.49,4.12,4.12,0,0,1-1.53-.29,6.72,6.72,0,0,1-2.27-1.62,1.27,1.27,0,0,0-.11-.13,2.52,2.52,0,0,1-.19.59,1.59,1.59,0,0,1-.68.71,1.75,1.75,0,0,1-.95.13,5.41,5.41,0,0,1-.64-.17,9.76,9.76,0,0,1-2.06-1.07l-.55-.37a2.18,2.18,0,0,1-.09.69,1.33,1.33,0,0,1-.47.72,1.36,1.36,0,0,1-.84.25l-1-.09a4.4,4.4,0,0,1-2.12-.66c-.27-.15-.51-.32-.75-.48a1.06,1.06,0,0,1-.48.52,1.56,1.56,0,0,1-.61.2,5.08,5.08,0,0,1-2-.28,7.66,7.66,0,0,1-1.76-.83,5.52,5.52,0,0,1-1-.82,2.72,2.72,0,0,1-1.33,1.24,3.54,3.54,0,0,1-2.47-.11,9.61,9.61,0,0,1-3.18-2.19,4,4,0,0,1-.18,1.68A3.65,3.65,0,0,1,37,49.05a4,4,0,0,1-2.22.59L36.33,51c1,.87,2,1.69,2.9,2.6a17.19,17.19,0,0,0,3,2.21A75.38,75.38,0,0,0,49,59.5c1.15.56,2.34,1.08,3.54,1.54a21,21,0,0,0,3.11,1c-1.59-1.23-3.15-2.51-4.74-3.74l.05-.06,0-.07a3.11,3.11,0,0,0,1.86.5,7.59,7.59,0,0,0,1.94-.29,12.16,12.16,0,0,0,1.86-.68,8.28,8.28,0,0,0,1.66-1l.17-.14.23.12a5.6,5.6,0,0,0,1.87.49,9.46,9.46,0,0,0,2,0A7.14,7.14,0,0,0,66.18,56l.32-.25.39.27a5.38,5.38,0,0,0,1.59.53,12.22,12.22,0,0,0,1.81.2,8.85,8.85,0,0,0,1.8-.11,3.38,3.38,0,0,0,1.42-.51l.3-.24.47.12a11,11,0,0,0,1.3.18c.47,0,1,.08,1.44.1,1,.06,2,.06,2.94,0A13.14,13.14,0,0,0,82.8,56a2,2,0,0,0,1.08-.62,1.08,1.08,0,0,0,0-1.06c-.67-.87-1.31-1.75-2-2.63l-.78-1.1,0,.13a11.23,11.23,0,0,1-2.58-.82A18.28,18.28,0,0,1,76.09,48.65Z"/><path d="M62.3,93.31,56,92l.11-4.15c0-.41,0-.81,0-1.22l-.09,0c-.34-.08-.66-.17-1-.28s-.83-.28-1.24-.45c0,1.92,0,4.22.06,6.15,0,0,6.6,1.9,6.59,2s-.32,1.25-.35,1.34l1.48.41a.24.24,0,0,0,.3-.16c.17-.59.43-1.52.54-2A.23.23,0,0,0,62.3,93.31Z"/><path d="M85.92,74.88c-.5.09-1,.21-1.49.35a5.55,5.55,0,0,1-1.94.26,16.6,16.6,0,0,1-3.65-.55,15.43,15.43,0,0,1-3.39-1.44,20.85,20.85,0,0,1-2.9-2,17.23,17.23,0,0,1-6-2.09c-1.11-.59-2.19-1.24-3.25-1.91A13.37,13.37,0,0,0,63.15,69c0,.68,0,1.36,0,2s0,1.37,0,2.09a4.6,4.6,0,0,1-.18,1.2,1.7,1.7,0,0,1-.14.35,1.83,1.83,0,0,1-.26.36,3,3,0,0,1-.39.31,3.43,3.43,0,0,1-.45.16l-.3.1-.22-.18-.06.78A11.46,11.46,0,0,1,60.8,78a12,12,0,0,0,2.59.81,22.38,22.38,0,0,0,3.16.4,27.72,27.72,0,0,0,3.16,0,11.72,11.72,0,0,0,3-.57l.33-.13.27.28a2.83,2.83,0,0,0,1.8.61,9.81,9.81,0,0,0,2.22-.13,15.39,15.39,0,0,0,2.24-.48A16.82,16.82,0,0,0,81.69,78l.29-.13.33.11a7.9,7.9,0,0,0,2.38.51,3.63,3.63,0,0,0,2.1-.83l.3-.21.27.07a6.63,6.63,0,0,0,2.4.3,3.67,3.67,0,0,0,2-.83c-1.21-.62-2.43-1.21-3.68-1.74A4.93,4.93,0,0,1,85.92,74.88Z"/><path d="M57.28,82.89V82.8c0-.27-.05-.54-.07-.81l-.08.06a5.15,5.15,0,0,1-1.28.41,5.77,5.77,0,0,1-1.24.07l-.43,0v0l-.22.75.06.22a9,9,0,0,1,1.77.84,5.74,5.74,0,0,1,.47.35c0-.12,0-.23,0-.36l0-1.13,1,.53a13.34,13.34,0,0,0,2.43,1.38c.29-.06.29-.18.29-.44A11.3,11.3,0,0,0,57.4,83Z"/><path d="M116.25,81.76c-.67-.66-1.37-1.29-2.06-1.92-1.42-1.27-2.86-2.49-4.38-3.64l.1-.13c.48.28,1,.57,1.42.88a1.79,1.79,0,0,1,.7-.38,4.61,4.61,0,0,1,.73-.19c-.41-.37-.84-.71-1.29-1.06a12.1,12.1,0,0,0-2.65-1.54c-.95-.44-1.95-.82-2.94-1.26-.68-.3-1.36-.61-2-1v0l.17.28a3.56,3.56,0,0,1,.25.61,3.49,3.49,0,0,1,.09,1.29,2.74,2.74,0,0,1-.51,1.28,2.19,2.19,0,0,1-.69.59c.06.14.13.29.19.45a2.5,2.5,0,0,1,.18.66,1.41,1.41,0,0,1-.27,1,1.21,1.21,0,0,1-.16.16c.54.36,1.07.73,1.58,1.12a12.15,12.15,0,0,1,3.41.31,33.76,33.76,0,0,1,3.58,1c1.16.38,2.29.88,3.42,1.37l1.68.71.09,0C116.68,82.21,116.47,82,116.25,81.76Z"/><path d="M108.82,84.38c-1.08-1.18-2.18-2.33-3.29-3.48-.89-.93-1.8-1.86-2.72-2.76a1.73,1.73,0,0,1-1.27.08,3.22,3.22,0,0,1-1.08-.57,7.72,7.72,0,0,1-.8-.68,11.81,11.81,0,0,1-1-1.06l-.37.1a2.75,2.75,0,0,1-1.07,0,3,3,0,0,1-1-.41L96,75.32a3.72,3.72,0,0,1-2.45.26,5.52,5.52,0,0,1-2.18-1.08,9.69,9.69,0,0,1-2.5.71l-.37,0c2.38.89,4.67,2,7,3.06s4.78,2.31,7.13,3.57c.59.32,1.17.62,1.77,1s1.1.75,1.65,1.13l3.28,2.25c1,.7,2,1.39,3.07,2.06-.12-.13-.23-.27-.34-.4C111,86.73,109.91,85.53,108.82,84.38Z"/><path d="M58.52,94.08c-1.06-.25-4-1-5.37-1.33l-.5-.13v-.49c.08-2.33.19-4.64.31-7l0-.72.62.33a14.83,14.83,0,0,0,2.58,1.15c.14-.08.11-.47,0-.67s-.45-.41-.69-.59a9.3,9.3,0,0,0-1.67-1l-.07,0V83.6l0-.34-.67-.21c-.46-.14-1.09-.17-1.85-.39a3.46,3.46,0,0,1-.76-.35c.14,1.49.22,3,.28,4.51l.06,2.57A23.41,23.41,0,0,1,50.76,92a.41.41,0,0,1,0,.1,1.18,1.18,0,0,1-.07.2c0,.15-.16.19-.25.26a1.41,1.41,0,0,1-.22.11l-.15.08-.61.26-1.21.49c-.8.32-1.61.62-2.41.91l-3.94,1.44a.44.44,0,0,0-.29.49l.08.46a.45.45,0,0,0,.57.36c1.48-.43,3-.85,4.46-1.25l5.74-1.57.25-.07.24.09,4.9,1.76a.38.38,0,0,0,.49-.23c.13-.38.33-1,.45-1.34A.38.38,0,0,0,58.52,94.08Z"/><path d="M23.11,7.3c-.89.33-1.47,1.56-1.25,2a2.18,2.18,0,0,0,2.23.6A1.57,1.57,0,0,0,25.2,8,1.57,1.57,0,0,0,23.11,7.3Z"/><path d="M16.44,11.24s-.08.68.14.89a1,1,0,0,0,1.11,0l-.8-.3Z"/></svg>