<svg id="Layer_1" data-name="Layer 1" xmlns="http://www.w3.org/2000/svg" width="128" height="128" viewBox="0 0 128 128"><title>Artboard 85</title><path d="M4.79,109.44h4.7a7.37,7.37,0,0,1,2.71.35A3.06,3.06,0,0,1,13.52,111a4,4,0,0,1,.08,3.88,3.06,3.06,0,0,1-1.2,1.24A3.2,3.2,0,0,1,14,117.42a3.93,3.93,0,0,1,.59,2.19,4.45,4.45,0,0,1-.76,2.64,3.07,3.07,0,0,1-1.77,1.33,18,18,0,0,1-3.31.18h-4Zm2.37,2.38v3.31H8.72a15.18,15.18,0,0,0,1.74,0,1.42,1.42,0,0,0,.94-.51,1.72,1.72,0,0,0,.35-1.13,1.81,1.81,0,0,0-.28-1,1.16,1.16,0,0,0-.68-.49,13.58,13.58,0,0,0-2.27-.1Zm0,5.7v3.81h2.2a7,7,0,0,0,1.86-.15,1.43,1.43,0,0,0,.69-.59,2.46,2.46,0,0,0,0-2.28,1.53,1.53,0,0,0-.8-.62,7.27,7.27,0,0,0-2-.17Z"/><path d="M16.9,123.76v-14.2h2.36v11.77h5.9v2.43Z"/><path d="M37.64,123.76H35.07l-1-3.25h-4.7l-1,3.25H25.86l4.57-14.32h2.51Zm-4.36-5.67-1.62-5.31-1.59,5.31Z"/><path d="M46.6,118.49l2.3.89a6.48,6.48,0,0,1-1.79,3.51A4.47,4.47,0,0,1,44,124a4.55,4.55,0,0,1-3.72-1.77,8.55,8.55,0,0,1-1.64-5.51A8.91,8.91,0,0,1,40.33,111a4.66,4.66,0,0,1,3.86-1.79,4.45,4.45,0,0,1,3.3,1.34,6,6,0,0,1,1.39,2.84l-2.35.69a3.11,3.11,0,0,0-.89-1.78,2.22,2.22,0,0,0-1.58-.62,2.48,2.48,0,0,0-2.12,1.13,6.48,6.48,0,0,0-.83,3.74,6.89,6.89,0,0,0,.81,3.85A2.43,2.43,0,0,0,44,121.53a2.15,2.15,0,0,0,1.62-.73A4.61,4.61,0,0,0,46.6,118.49Z"/><path d="M51.15,123.76V109.44h2.36v6.37l4.8-6.37H61.5L57.08,115l4.66,8.74H58.67L55.43,117l-1.92,2.4v4.33Z"/><path d="M67.93,123.76V109.44h8.71v2.42H70.29V115h5.9v2.41h-5.9v3.88h6.56v2.43Z"/><path d="M89.65,123.76H87.08l-1-3.25h-4.7l-1,3.25H77.86l4.57-14.32h2.51Zm-4.36-5.67-1.62-5.31-1.59,5.31Z"/><path d="M96.56,118.5v-2.42h5.11v5.7a6.37,6.37,0,0,1-2.19,1.57,6.82,6.82,0,0,1-2.84.65,5.64,5.64,0,0,1-3.07-.85,5.74,5.74,0,0,1-2.1-2.56,9.6,9.6,0,0,1-.78-4,9.33,9.33,0,0,1,.79-4,5.83,5.83,0,0,1,2-2.51,5.23,5.23,0,0,1,3-.83,4.61,4.61,0,0,1,5,4.2l-2.34.54a3.08,3.08,0,0,0-1-1.69,2.54,2.54,0,0,0-1.68-.58,3,3,0,0,0-2.45,1.17,5.68,5.68,0,0,0-.94,3.59,6.45,6.45,0,0,0,1,3.94,2.79,2.79,0,0,0,2.35,1.16,3.57,3.57,0,0,0,1.44-.33,4.25,4.25,0,0,0,1.33-.89V118.5Z"/><path d="M104.12,123.76v-14.2h2.36v11.77h5.9v2.43Z"/><path d="M114.28,123.76V109.44H123v2.42h-6.34V115h5.89v2.41h-5.89v3.88h6.56v2.43Z"/><path d="M34.26,10.1a1.12,1.12,0,0,1,.3-.44A1.75,1.75,0,0,1,35,9.38a2.63,2.63,0,0,1,.88-.3,6.38,6.38,0,0,1,1.75,0l.5.05,0-.06s0,0,0,0L38,9l-.14-.27c-.09-.18-.2-.36-.31-.54s-.21-.36-.32-.53A2.46,2.46,0,0,1,36.93,7a1.79,1.79,0,0,1,.24-1.28l-.08,0a4.39,4.39,0,0,0-2.22,1.32,5.28,5.28,0,0,0-.73,1.06,2.54,2.54,0,0,0-.24,1.19,4.62,4.62,0,0,0,.25,1.26A2.29,2.29,0,0,1,34.26,10.1Z"/><path d="M37.57,9.36a7.56,7.56,0,0,0-1.66.11,2.11,2.11,0,0,0-.72.3A1.21,1.21,0,0,0,35,10a6.93,6.93,0,0,0,1.43.26A5,5,0,0,0,38,10.18h.06l.07,0h0c0-.11,0-.22,0-.33s0-.35-.08-.53Z"/><path d="M43.17,10.37a.24.24,0,0,1,.09-.06c-.61-.08-1.21-.2-1.81-.33-.78-.18-1.55-.41-2.33-.67l-.55,0a3.72,3.72,0,0,1-.08.57,1.13,1.13,0,0,1-.13.33h0c.84.19,1.7.39,2.54.64.45.14.91.28,1.36.45l.44.18a1,1,0,0,1,0-.54A1.38,1.38,0,0,1,43.17,10.37Z"/><path d="M37.73,7.33c.14.18.25.37.38.56s.21.4.3.6.08.22.11.33l0,.1a.6.6,0,0,1,0,.12v.18l.41,0-.1,0a4.26,4.26,0,0,1,1.38-.07,10.21,10.21,0,0,1,1.33.21,9.26,9.26,0,0,1,2,.72,4.57,4.57,0,0,0-.85-1,16,16,0,0,0-1.39-1,6.27,6.27,0,0,1-1.27-1.25,3.7,3.7,0,0,1-.45-.77,2.06,2.06,0,0,1-.14-.44c0-.14-.12-.29,0-.41-.79.18-1.5.32-2.28.49a2.87,2.87,0,0,0,.17,1.12A2.58,2.58,0,0,0,37.73,7.33Z"/><path d="M53.12,71a2.63,2.63,0,0,1-1,0,2.32,2.32,0,0,1-.49-.16,2.73,2.73,0,0,1-.42-.23,11.77,11.77,0,0,1-1.33-1,43.51,43.51,0,0,1-4.33-4.69L44.81,64A18.88,18.88,0,0,1,46,67.28c.24.91.44,1.83.61,2.75s.35,1.78.59,2.59a6.23,6.23,0,0,1,.95,1.79,18.24,18.24,0,0,1,.59,2c.17.66.31,1.31.44,2,.06.33.12.66.17,1l.06.42,2.43-.22,2.61-.2.16-1.6c-.06-.71-.1-1.41-.11-2.12a13.78,13.78,0,0,1,.1-2.21,1.84,1.84,0,0,1,.07-.3l.08-.26a2.26,2.26,0,0,0,.1-.48c0-.14.08-1.05.09-1.06,0-.51,0-1,0-1.55-.06.08-.11.17-.18.25A2.82,2.82,0,0,1,53.12,71Z"/><path d="M52,80.71l-1.51.16-.21,2.8-4.93,0a.46.46,0,0,0-.44.6l.31,1a.47.47,0,0,0,.47.32l7.89-.59c.07,0,1.8.38,2.87.63a.66.66,0,0,0,.78-.43c.14-.39.46-.71.33-.93a26.21,26.21,0,0,0-3.72-1s.35-2,.52-2.81Z"/><path d="M72.57,67.44a7.9,7.9,0,0,1-.84-1.29c0,.09.08.18.11.28.41,1,.83,2,1.22,3h0v.05c0,.21.1.42.15.63a9.65,9.65,0,0,1,.32-1.86A4,4,0,0,1,72.57,67.44Z"/><path d="M75.8,43a2.67,2.67,0,0,1-.4,0,2.72,2.72,0,0,1-.38-.11,1.45,1.45,0,0,1-.49-.46,8.25,8.25,0,0,1-.08,3.39,7.18,7.18,0,0,1-.77,2.08c.24.25.48.5.72.72a4.57,4.57,0,0,0,1.18.89l.13,0h.13a2.61,2.61,0,0,0,.14-.39,11.11,11.11,0,0,0,.22-1.49c.17-1.67.24-3.39.45-5.12l-.12.11a1.36,1.36,0,0,1-.34.23A2.5,2.5,0,0,1,75.8,43Z"/><path d="M76.38,52.26a12.63,12.63,0,0,1,0-1.63l0-.21,0,0a.91.91,0,0,1-.43.13.94.94,0,0,1-.34,0,1.33,1.33,0,0,1-.28-.1l-.24-.13A4,4,0,0,1,73.93,49c-.16-.28-.29-.56-.42-.85a4.19,4.19,0,0,1-.83.92,2.18,2.18,0,0,1-.49.29,7.1,7.1,0,0,1-.54,1.79,16.21,16.21,0,0,1-.86,1.78c-.29.59-.66,1.17-.93,1.71a3,3,0,0,1-1.61,1.58c.45.84.88,1.66,1.3,2.5.54,1.09,1.07,2.2,1.56,3.31s1,2.26,1.41,3.4c.21.58.39,1.15.63,1.68a6,6,0,0,0,.49.89,2.38,2.38,0,0,1,.11-.38A27.88,27.88,0,0,1,75,64.51c.46-1,.91-1.92,1.34-2.87.11-1,.17-2,.25-3.06s.11-2.11.1-3.16a13,13,0,0,0-.1-1.54A14.06,14.06,0,0,1,76.38,52.26Z"/><path d="M77,52.19c.1.52.22,1,.37,1.54a9.38,9.38,0,0,1,.28,1.64,29.58,29.58,0,0,1,.11,3.25c0,1.09-.1,2.16-.19,3.24V62l0,.09c-.44,1-1,2-1.43,3s-1,1.93-1.35,2.92a12.25,12.25,0,0,0-.82,3l0,.51c.73.62,1.46,1.25,2.17,1.88.09-.16.18-.33.26-.51a18.85,18.85,0,0,0,.89-2.3,26.78,26.78,0,0,0,1.2-4.74c.27-3.23.33-6.59.52-9.89.1-1.67.19-3.32.37-5a10.59,10.59,0,0,0,.12-1.2c0-.4,0-.8,0-1.21,0-.82,0-1.64,0-2.46-.08-1.64-.2-3.29-.38-4.92-.09-.82-.2-1.64-.33-2.45-.07-.39-.15-.79-.25-1.18a3,3,0,0,0-.4-1l-.1-.15,0-.11a3.14,3.14,0,0,0,0-1.29,9,9,0,0,0-.39-1.32c-.16-.4-.35-.8-.54-1.2L77,33a21.77,21.77,0,0,1-.07,4,5.54,5.54,0,0,1,.33,1.13,8.24,8.24,0,0,1,.16,1.3A6,6,0,0,1,77,41.93a17.9,17.9,0,0,1,.38,2.51,18.3,18.3,0,0,1,0,3.31,7.86,7.86,0,0,1-.33,1.73c-.06.14-.13.3-.21.45s-.11.17-.17.26,0,.29,0,.44A13.62,13.62,0,0,0,77,52.19Z"/><path d="M72.48,88.36a1.09,1.09,0,0,0-.13-.27,6.69,6.69,0,0,0-.87-.93c-.34-.31-.69-.58-1.08-1a12.89,12.89,0,0,1-1-1.1,31.78,31.78,0,0,1-3.21-4.79c-.46-.85-.88-1.72-1.25-2.6a11.69,11.69,0,0,1-.8-2.58c-.22-.21-.44-.44-.64-.67-.92-1.08-1.67-2.23-2.51-3.35.48.51,1,1,1.41,1.54s.92,1,1.4,1.52a6.89,6.89,0,0,0,1.61,1.2,6.74,6.74,0,0,0,1.86.65h.1l.08.08c2.09,1.93,4.19,3.84,6.34,5.68,1.07.91,2.16,1.81,3.29,2.62.28.19.57.39.85.56a3.28,3.28,0,0,0,.82.38l.07,0,.27-.21a1.42,1.42,0,0,0,.36-.64,2.5,2.5,0,0,0-.27-1.65,7.87,7.87,0,0,0-1.08-1.66,25.59,25.59,0,0,1-2.44-3.6l-1-1.87-.51-.92c-.14-.23-.27-.49-.39-.74,0,0,0,0,0,0l-.1-.21a15.13,15.13,0,0,1-1.17-4.19l-.93-3.11L71,65l-.18-.61c-.29-.62-.58-1.24-.84-1.88-.48-1.13-.92-2.28-1.3-3.45A23.89,23.89,0,0,1,68,56.28a3,3,0,0,1-1,0c0,.53,0,1-.06,1.57L66.77,59c0,.18,0,.36-.08.54l0,.28a1.69,1.69,0,0,1-.11.36A1.8,1.8,0,0,1,65.4,61a4.87,4.87,0,0,1-.6.16,7.16,7.16,0,0,1-.86,1.73,2.06,2.06,0,0,1-.44.5,1.4,1.4,0,0,1-.34.21,1,1,0,0,1-.51,0l-.14,0h0l-.06,0,0,0a2.34,2.34,0,0,0-.25.3,3.61,3.61,0,0,1-.34.38c.44.71.77,1.46,1.14,2.19s.77,1.55,1.19,2.29a9.57,9.57,0,0,0,1.43,2,2.71,2.71,0,0,0,.85.6,1.4,1.4,0,0,0,.76.06,3.48,3.48,0,0,0,.45-1A5.15,5.15,0,0,0,67.72,69c0-1-.26-2-.41-3.09a12.1,12.1,0,0,1,1.18,3,5.32,5.32,0,0,1,.08,1.7,3.89,3.89,0,0,1-.64,1.68l-.08.12-.19.08a2.37,2.37,0,0,1-1.68,0,3.52,3.52,0,0,1-1.32-.86,8.25,8.25,0,0,1-1.53-2.35,15.56,15.56,0,0,1-.9-2.53c-.22-.79-.36-1.6-.51-2.4l-.11.1a1.7,1.7,0,0,1-.78.3,2.67,2.67,0,0,1-.4,0h-.24a2.89,2.89,0,0,0-.49.07,20,20,0,0,0-2.18.64,11.48,11.48,0,0,1-1.19.29,4.25,4.25,0,0,1-1.37.09,2.32,2.32,0,0,1-1.31-.75,5.31,5.31,0,0,1-.74-1c-.76-1.41-1.4-2.78-2.15-4.19a1.11,1.11,0,0,1-.19.27.85.85,0,0,1-.25.17.93.93,0,0,1-.24,0,1,1,0,0,1-.63-.17,3.68,3.68,0,0,1-1-1.11,14.8,14.8,0,0,1-1.21-2.29c0,.29,0,.58,0,.88a6,6,0,0,1-.08.84,4.5,4.5,0,0,1-.1.44,1.42,1.42,0,0,1-.17.41,1.54,1.54,0,0,1-.17.19l-.16.14-.2-.07a3.33,3.33,0,0,1-.8-.4,1.7,1.7,0,0,1-.59-.74,7.26,7.26,0,0,1-.28-1.61c.27.46.46,1,.72,1.37a1.35,1.35,0,0,0,.78.49c0-.09,0-.21,0-.31s0-.5,0-.76c0-.51-.06-1-.1-1.55l-.23-3.14c-.06-1.06-.11-2.11-.14-3.17s0-2.13,0-3.2a26.29,26.29,0,0,1,.8,3.11c.2,1,.37,2.09.49,3.15l.15,1.59c0,.38,0,.75.06,1.13s.34.56.52.84a21.17,21.17,0,0,0,1.48,2.09,4.72,4.72,0,0,0,.53.56s0,0,0-.08a16.33,16.33,0,0,0-.45-2.47c-.36-1.68-.81-3.37-1.16-5.08a16.68,16.68,0,0,1-.42-5.27,38.38,38.38,0,0,0,1.35,5c.54,1.65,1,3.33,1.43,5a16.26,16.26,0,0,1,.41,2.69,2.19,2.19,0,0,1-.11.86s0,0,0,.07a25,25,0,0,1,3,3.67c.45.61.92,1.16,1.4,1.17a4.16,4.16,0,0,0,1-.11,10.39,10.39,0,0,0,1-.28,4,4,0,0,1-.78-.54A7.18,7.18,0,0,1,54.89,62a11.52,11.52,0,0,1-.92-2,15.5,15.5,0,0,1-.54-2.16,8.22,8.22,0,0,1,1.41,1.74c.4.61.76,1.22,1.11,1.83s.7,1.2,1.09,1.76a7.36,7.36,0,0,0,.8,1,13.16,13.16,0,0,1,1.67-.41,3.83,3.83,0,0,1,.68,0l.35,0c.06,0,.13,0,.19,0,.22,0,.38-.09.65-.36a2,2,0,0,1,.62-.49,1,1,0,0,1,.54-.05.84.84,0,0,1,.21.08l.09,0h0s0,0,.07,0,.11,0,.18-.07a1.87,1.87,0,0,0,.4-.32,10.16,10.16,0,0,0,1.1-1.31l-.36,0a12.89,12.89,0,0,1-2.24,0,6.33,6.33,0,0,1-1.21-.19,3.93,3.93,0,0,1-1.08-.65,9.93,9.93,0,0,1-1.53-1.67c-.89-1.17-1.56-2.42-2.36-3.62a25.83,25.83,0,0,1,3.09,3,11.92,11.92,0,0,0,1.51,1.37,2.81,2.81,0,0,0,.76.43,5.63,5.63,0,0,0,.92.11,12.84,12.84,0,0,0,2,.06,4.12,4.12,0,0,0,1-.11,1.28,1.28,0,0,0,.6-.28,1.3,1.3,0,0,0,.14-.39L66,58.8l.3-1c.14-.5.3-1,.46-1.5a1.71,1.71,0,0,1-.51-.22,2.13,2.13,0,0,1-.48-.4,6.91,6.91,0,0,1-1.16-1.75,12.66,12.66,0,0,1-.7-1.72,4.33,4.33,0,0,1-2.43,1.87,1.92,1.92,0,0,1-1,.12A2.09,2.09,0,0,1,59.9,54a2.2,2.2,0,0,1-.46-.23,5.22,5.22,0,0,1-1.36-1.23,15,15,0,0,1-1.81-2.89,32.66,32.66,0,0,1-1.33-3.09,19.44,19.44,0,0,1,2.15,2.59c.65.9,1.27,1.8,1.94,2.61a5.39,5.39,0,0,0,1,1,.91.91,0,0,0,.28.17.57.57,0,0,0,.27.11.59.59,0,0,0,.26,0,1.09,1.09,0,0,0,.34,0A5.61,5.61,0,0,0,63.83,52a8.51,8.51,0,0,1-.36-1.94,28.48,28.48,0,0,0,2,3.37,8.56,8.56,0,0,0,1.14,1.4,3.19,3.19,0,0,0,.29.22l.12.06s0,0,.11,0a1.78,1.78,0,0,0,.7-.06,1.55,1.55,0,0,0,.6-.36,1.76,1.76,0,0,0,.24-.29l.11-.16.12-.21c.38-.6.74-1.11,1.13-1.65.72-1,1.49-2,2.13-3a2.81,2.81,0,0,1-1.45.23,4.55,4.55,0,0,1-1.8-.59A3.88,3.88,0,0,1,67,46.13l-.35,0A2.91,2.91,0,0,1,66,46a1.31,1.31,0,0,1-.57-.32,3,3,0,0,1-.53-.94l-.1-.27a1.81,1.81,0,0,1-.47.13l-.26.05-.18,0a1.87,1.87,0,0,0-.7.48,6.92,6.92,0,0,1-1.85,1.5,4.3,4.3,0,0,1-1.2.38,2.21,2.21,0,0,1-.69,0,2.45,2.45,0,0,1-.66-.16,5.29,5.29,0,0,1-1.93-1.45,14.84,14.84,0,0,1-1.37-1.81c-.79-1.21-1.45-2.48-2.12-3.73a1.4,1.4,0,0,1-.1.16,1.53,1.53,0,0,1-1,.51,3.52,3.52,0,0,1-1-.05,5.35,5.35,0,0,1-1.89-.7,4.43,4.43,0,0,1-2.05-3.47,9.68,9.68,0,0,1,.11-1.91,3.55,3.55,0,0,0-.1-1.65,15.32,15.32,0,0,0-.63-1.7,7,7,0,0,1,1.19,1.46,3.94,3.94,0,0,1,.5,1.93c0,.62,0,1.23.07,1.75A4.16,4.16,0,0,0,49,37.72a4.32,4.32,0,0,0,2.5,1.89,1.77,1.77,0,0,0,1.42,0,1.08,1.08,0,0,0,.37-.64,6.26,6.26,0,0,0,.15-.9,3.57,3.57,0,0,1,.19.93,1.64,1.64,0,0,1-.16.83C54.31,41,55.1,42.21,56,43.3a14.91,14.91,0,0,0,1.46,1.6A5,5,0,0,0,59.15,46,1.47,1.47,0,0,0,60,46a3.27,3.27,0,0,0,.91-.32,5.48,5.48,0,0,0,1.4-1.24,5.16,5.16,0,0,1-.47-.24L61.4,44,61,43.79a6.2,6.2,0,0,1-1.65-1.31,7.08,7.08,0,0,1-.64-.83l-.56-.8c-.7-1.09-1.38-2.2-2-3.35a18.43,18.43,0,0,1-1.57-3.61c.81,1,1.62,2,2.38,3.1s1.5,2.11,2.23,3.19l.52.81a8.12,8.12,0,0,0,.52.74A6.59,6.59,0,0,0,61.48,43l.4.28c.14.1.27.21.39.31a2.59,2.59,0,0,0,.56.39,2.26,2.26,0,0,1,.7-.39,1.4,1.4,0,0,1,.35-.1l.28-.06a1,1,0,0,0,.13-.25.81.81,0,0,1,0,.22,1.06,1.06,0,0,0,.25-.09,1.94,1.94,0,0,0,1-1.32,2.93,2.93,0,0,0-.19-1.81,8.41,8.41,0,0,0-1.08-1.74,24,24,0,0,0-3-3.18c-.54-.5-1.1-1-1.67-1.42s-1.19-.88-1.76-1.39A15.76,15.76,0,0,1,54.94,29,20.36,20.36,0,0,0,58.22,32c.58.44,1.21.78,1.85,1.21s1.07.76,1.59,1.16c-1-.92-1.9-1.81-2.23-2.22a14.7,14.7,0,0,0-2.13-2.56c-.76-.6-.71-.95-1.31-1.86S54,26.41,52.88,26s-.13-.69.81-.75A5.66,5.66,0,0,1,56.5,26a25.24,25.24,0,0,1,2.91,3.53,37.27,37.27,0,0,0,2.43,3.21c.66.63,1.24,1.18,1.7,1.18.22,0,.4-2.4,1.21-3.63a11.77,11.77,0,0,1,1.19-2c.61-.65,2-1.77,2.71-1.7s0,1.41-.34,2.42c-.47,1.26,0,1.61-1,2.8a25.81,25.81,0,0,0-3,4.94c.28.31.56.62.83,1a9,9,0,0,1,1.28,2,4.13,4.13,0,0,1,.27,2.54,3.16,3.16,0,0,1-1.6,2.1,2.43,2.43,0,0,0,.14.2,3.29,3.29,0,0,0,.64.65,1.26,1.26,0,0,0,.76.09l1-.08.5-.05h.25l.11,0a1.32,1.32,0,0,0,.47-.44,6.56,6.56,0,0,0,.81-1.61c.47-1.18.83-2.44,1.19-3.7l.27-.94.14-.48a1.08,1.08,0,0,0,0-.39,3,3,0,0,0-.64-1.75A2.72,2.72,0,0,1,72,37.47a1.56,1.56,0,0,1,.06.59l0,.5c0,.34-.08.67-.13,1a18.5,18.5,0,0,1-1,3.94,7.26,7.26,0,0,1-1.05,1.89,2.21,2.21,0,0,1-1.08.74,1.24,1.24,0,0,1-.38,0h-.24l-.51,0-.62,0a4.94,4.94,0,0,0,2.3,2,4.86,4.86,0,0,0,1.47.29,2,2,0,0,0,1.18-.37,6.2,6.2,0,0,0,1.6-2.55,25.46,25.46,0,0,0,1-3.17l0-.05A2.72,2.72,0,0,1,74.22,41a5.68,5.68,0,0,1,.15-1.24,4.32,4.32,0,0,0,.52,2.28.69.69,0,0,0,.79.27.87.87,0,0,0,.57-.63,5.31,5.31,0,0,0,.13-2.23,6.48,6.48,0,0,0-.57-2.15l-.09-.16,0-.17a27,27,0,0,0,0-3.92l0-1a3.22,3.22,0,0,0-.17-.84,5.82,5.82,0,0,0-.79-1.65,10.91,10.91,0,0,0-2.61-2.77,5.53,5.53,0,0,0-.83-.46,4.62,4.62,0,0,0-.91-.29,4.4,4.4,0,0,1-1.77-1,16.93,16.93,0,0,0-3.59-3.53c-1.31-1.06-2.68-2-4-3.15a10,10,0,0,1-1-.89,3.7,3.7,0,0,1-.24-.29s-.08-.13-.12-.19l-.08-.13a4.37,4.37,0,0,0-.31-.44,15.76,15.76,0,0,0-1.87-1.59,6.13,6.13,0,0,1-.51-.51l-.12-.14a1.62,1.62,0,0,1-.13-.19c-.07-.13-.12-.24-.17-.35-.19-.46-.3-.87-.43-1.29-.22-.82-.44-1.62-.7-2.41a9.86,9.86,0,0,0-2.31-4.15,9.29,9.29,0,0,0-4.16-2.29A13.37,13.37,0,0,0,46.5,3a10.11,10.11,0,0,0-2.45.13,10.6,10.6,0,0,0-2.4.68A5.7,5.7,0,0,0,39.59,5.2c.06,0,.17.53.33.75a5.4,5.4,0,0,0,.56.61,9.15,9.15,0,0,0,1.27,1.06c.21.16.46.32.7.51a5.31,5.31,0,0,1,.65.6,2.94,2.94,0,0,1,.79,1.52,2.39,2.39,0,0,1,.22.12,5.19,5.19,0,0,1-.68,0,1.14,1.14,0,0,0-.15.16A1.16,1.16,0,0,0,43,11a.72.72,0,0,0,.14.53,1.79,1.79,0,0,0,.46.4l-.18.27a5.26,5.26,0,0,1,.44.49,3.17,3.17,0,0,0,.7.44,4.77,4.77,0,0,0,1.56.51,14.89,14.89,0,0,0,1.64.06l1.69,0,0,.05a3.88,3.88,0,0,1-1.69.52A5,5,0,0,1,46,14.16a5.25,5.25,0,0,1-1.62-.72,12.27,12.27,0,0,1,1.24,2.35,13.28,13.28,0,0,1,.75,2.47,12.48,12.48,0,0,1,.31,2.59,8.48,8.48,0,0,1,0,1.33c0,.23-.07.45-.13.69s-.07.24-.1.36l-.12.3a17.85,17.85,0,0,1-1.17,2.31c-.33.53-.67,1-1,1.55a10.63,10.63,0,0,1,2.37-1.27,13.77,13.77,0,0,1,2.75-.73A10.2,10.2,0,0,1,52,25.31a12.21,12.21,0,0,0-2.76.36,12.54,12.54,0,0,0-2.59.94,10.48,10.48,0,0,0-2.29,1.46,6.4,6.4,0,0,0-1.62,2.05l-.14.29-.35-.07a2.94,2.94,0,0,0-1.75.41A5.51,5.51,0,0,0,39,32a5.77,5.77,0,0,0-1,1.68,9.13,9.13,0,0,0-.5,2,42.55,42.55,0,0,0-.5,8.44,30.81,30.81,0,0,0,.42,4.19c.12.68.27,1.37.42,2.08l.44,2.11a15.46,15.46,0,0,0,1.21,4,7.65,7.65,0,0,0,1.15,1.69,10.68,10.68,0,0,0,1.49,1.35,1.28,1.28,0,0,0,.1-.25,3.69,3.69,0,0,0,.1-.7,12.21,12.21,0,0,0,0-1.48,14.32,14.32,0,0,0-.5-3,12.27,12.27,0,0,1,.8,2.92c.06.41.11.81.14,1.22a3.7,3.7,0,0,0,.7-.74,1.58,1.58,0,0,0,.24-.85c0-.62-.11-1.35-.16-2.09a18.4,18.4,0,0,1-.05-2.23,11.19,11.19,0,0,1,.32-2.26,11.66,11.66,0,0,1,.65,2.19,20.43,20.43,0,0,1,.3,2.22,6.79,6.79,0,0,1-.12,2.35,1.91,1.91,0,0,1-.77,1.1,2.45,2.45,0,0,1-1.11.35c0,.09,0,.18,0,.27a4.41,4.41,0,0,1-.05.8,1.49,1.49,0,0,1-.15.45.6.6,0,0,1-.26.23h-.07l4,4.22c.74.75,1.45,1.52,2.2,2.26S49.93,68,50.7,68.67a9.49,9.49,0,0,0,1.14.93l.28.17.25.09a1.82,1.82,0,0,0,.57,0,2,2,0,0,0,1.54-1.68.84.84,0,0,0-.09-.53A5.06,5.06,0,0,0,54,67a15.45,15.45,0,0,0-.89-1.28c-.61-.85-1.27-1.67-1.92-2.51a23.87,23.87,0,0,1,2.38,2.12,13.87,13.87,0,0,1,1.09,1.2,3.93,3.93,0,0,1,.48.7,2.07,2.07,0,0,1,.21.47,1.87,1.87,0,0,1,0,.52A2.7,2.7,0,0,1,55,69.65c.1.54.19,1.09.24,1.65,0,.23,0,.45.05.67.23.39.48.77.73,1.15.51.8,1.05,1.57,1.58,2.36l3.24,4.65C62,81.68,63,83.27,64,84.85c.54.77,1,1.56,1.63,2.29a9.28,9.28,0,0,0,2,1.91,4.27,4.27,0,0,0,2.52.83,2.67,2.67,0,0,0,1.19-.37,3.08,3.08,0,0,0,1-.73.45.45,0,0,0,.11-.25.83.83,0,0,1-.08-.12Zm-20.24-36a8.43,8.43,0,0,0,.59.91,3.88,3.88,0,0,0,.73.73,2.55,2.55,0,0,0,.37.22.4.4,0,0,0,.22.05s0,0,.09-.08a1.27,1.27,0,0,0,.15-.35,5.36,5.36,0,0,0,0-2.06c-.11-.75-.28-1.51-.41-2.28-.31-1.53-.62-3.07-.8-4.65a39.45,39.45,0,0,1,1.72,4.41c.25.76.45,1.52.63,2.31a6.22,6.22,0,0,1,.09,2.6,2.4,2.4,0,0,1-.34.73,1.44,1.44,0,0,1-.87.55,1.63,1.63,0,0,1-.91-.14,2.64,2.64,0,0,1-.63-.41,5.07,5.07,0,0,1-.86-1,6.06,6.06,0,0,1-.58-1.13,22.94,22.94,0,0,1-1.32-4.57C50.83,49.6,51.5,51,52.24,52.37ZM46.52,7a.39.39,0,0,1,0,.53,2.46,2.46,0,0,1-1.64.88,2.38,2.38,0,0,1-1.59-.84.43.43,0,0,1,0-.61,2.91,2.91,0,0,1,1-.73c-.18,0-1.07.08-1.67.13a3.67,3.67,0,0,1,2.22-.87,4.92,4.92,0,0,1,2.48.87,9.85,9.85,0,0,0-2-.16A3.12,3.12,0,0,1,46.52,7Z"/><path d="M79.82,89.35c-1.28-1-2.68-2-3.93-3.24a14.27,14.27,0,0,1-1.69-2,9.25,9.25,0,0,1-.54-.92L73,82.63c-2.1-1.89-4.11-3.88-6.06-5.92a7.34,7.34,0,0,1-1.89-.81,6.36,6.36,0,0,1-.66-.5,33.38,33.38,0,0,0,2.64,4.37c1.07,1.55,2.19,3.06,3.34,4.51.29.36.58.72.88,1s.66.64,1,1a6.53,6.53,0,0,1,1,1.22,1.78,1.78,0,0,1,.28,1,1.25,1.25,0,0,1-.08.42A18.64,18.64,0,0,0,77,90.22a6.4,6.4,0,0,0,2.41.41,1.77,1.77,0,0,0,.57-.14.85.85,0,0,0,.37-.31.51.51,0,0,0-.15-.4A2.38,2.38,0,0,0,79.82,89.35Z"/><path d="M75.89,74s-.15-.1-.13-.14c-.64-.7-1.28-1.42-1.91-2.14,0,.17,0,.34,0,.5a13.19,13.19,0,0,0,.56,1.27,9.59,9.59,0,0,0,.51.88l.17.27,0,0,.38.61,1.09,1.84A27.08,27.08,0,0,0,79,80.47a9.36,9.36,0,0,1,1.26,1.9,3.86,3.86,0,0,1,.42,2.16c.94.67,1.85,1.36,2.77,2,.56.43,1.14.84,1.72,1.22a6.18,6.18,0,0,0,1.76.85,1.07,1.07,0,0,0,.7,0c.09,0,.06,0,.08-.09a.5.5,0,0,0,0-.26A5.41,5.41,0,0,0,87,86.54a28.16,28.16,0,0,0-2.44-3.36c-.45-.55-.9-1.05-1.39-1.56l-1.48-1.53-3-3.08C77.78,76,76.83,75,75.89,74Z"/><path d="M111.52,83.57a4.1,4.1,0,0,0-.71-1.29,2.08,2.08,0,0,0-1.42-.8,2.51,2.51,0,0,0-1.55.45c-.22.14-.42.3-.57.4a4.4,4.4,0,0,1-.52.3,11.39,11.39,0,0,1-5,.7,53.62,53.62,0,0,1-5.34-.53c-3.57-.51-7.14-1.15-10.74-1.6l1.56,2,1.2,3.83.19,3L83.46,87.7l-3.22.74a6.82,6.82,0,0,0,1.47.48c.5.12,7.24,2.29,7.24,2.29.48.1,1.21-.61,1.6-.44s.89.39,1.34.6c3.61,1.78,7.21,3.65,10.84,5.44l.61.3.26-.62c.37-.9.77-1.81,1.22-2.66.11-.21.23-.42.35-.62l.18-.27.09-.11,0,0a.62.62,0,0,0,.09-.12.77.77,0,0,0,.12-.34.84.84,0,0,0-.13-.52,1.36,1.36,0,0,0-.2-.25,3.18,3.18,0,0,0-.36-.3,6.49,6.49,0,0,0-.69-.43,30,30,0,0,0-2.8-1.25l-1.39-.52c3.06-.54,6.11-1.07,9.18-1.51l1.35-.2.34-.06a.72.72,0,0,0,.41-.2,1.43,1.43,0,0,0,.36-.7A5.33,5.33,0,0,0,111.52,83.57Z"/><path d="M62.5,83.42a30.86,30.86,0,0,0-4,0L58,85.64a.68.68,0,0,1-.79.52l-2.27-.42-4.34-.14L45,86.21l-.52-1.09c-2,.26-3.32.71-5.23,1.13s-3.83.85-5.7,1.43l-1.41.45-.7.22a2,2,0,0,0-.77.42,1.79,1.79,0,0,0-.53,1.58,1.83,1.83,0,0,0,.33.75l.4.61c1.08,1.64,2,3.36,3,5.07l.23.41.39-.36A38.29,38.29,0,0,1,39,93.19q1.2-.82,2.46-1.56c.83-.51,1.69-1,2.55-1.43a53.13,53.13,0,0,1,5.31-2.44c1.82-.73,7.18-.8,9.08-1.37a42.8,42.8,0,0,1,5,.3c.67.07,1,.11,1.25.11L62.47,84Z"/></svg>