<svg id="Layer_1" data-name="Layer 1" xmlns="http://www.w3.org/2000/svg" width="128" height="128" viewBox="0 0 128 128"><title>Artboard 91</title><path d="M36.12,123.76V109.44h8.72v2.42H38.49V115h5.9v2.41h-5.9v3.88h6.56v2.43Z"/><path d="M52.72,118.5v-2.42h5.11v5.7a6.37,6.37,0,0,1-2.19,1.57,6.79,6.79,0,0,1-2.84.65,5.64,5.64,0,0,1-3.07-.85,5.88,5.88,0,0,1-2.1-2.56,9.6,9.6,0,0,1-.78-4,9.33,9.33,0,0,1,.79-4,5.83,5.83,0,0,1,2-2.51,5.28,5.28,0,0,1,3-.83,4.59,4.59,0,0,1,5,4.2l-2.34.54a3.08,3.08,0,0,0-1-1.69,2.54,2.54,0,0,0-1.68-.58,3,3,0,0,0-2.45,1.17,5.75,5.75,0,0,0-.94,3.59,6.45,6.45,0,0,0,1,3.94,2.79,2.79,0,0,0,2.35,1.16,3.54,3.54,0,0,0,1.44-.33,4.3,4.3,0,0,0,1.34-.89V118.5Z"/><path d="M60.23,123.76V109.44h5a6.89,6.89,0,0,1,2.73.39,3,3,0,0,1,1.35,1.33,4.68,4.68,0,0,1,.53,2.28,4.27,4.27,0,0,1-.81,2.71,3.62,3.62,0,0,1-2.29,1.29A5.76,5.76,0,0,1,68,118.63,18.4,18.4,0,0,1,69.35,121l1.42,2.8H67.94l-1.71-3.12A20,20,0,0,0,65,118.53a1.8,1.8,0,0,0-.7-.59,3.19,3.19,0,0,0-1.19-.16h-.49v6Zm2.36-8.27h1.76a8.56,8.56,0,0,0,2.05-.14,1.27,1.27,0,0,0,.71-.57,2.14,2.14,0,0,0,.27-1.14,2,2,0,0,0-.27-1.1,1.35,1.35,0,0,0-.74-.57,9.43,9.43,0,0,0-1.93-.11H62.59Z"/><path d="M72.26,123.76V109.44H81v2.42H74.63V115h5.89v2.41H74.63v3.88h6.56v2.43Z"/><path d="M86,123.76v-11.9H82.55v-2.42h9.33v2.42H88.4v11.9Z"/><path d="M28.89,61.93a10.81,10.81,0,0,1,.79-2,24,24,0,0,1,2.24-3.59,39.86,39.86,0,0,1,2.68-3.25,36.23,36.23,0,0,1,2.79-2.75,3.23,3.23,0,0,1-.59-.22,1.42,1.42,0,0,1-.58-.51.57.57,0,0,1-.09-.38v0l-.26.19c-.43.33-.86.67-1.27,1l-.62.53-.12.11c-.28.42-.64.79-1,1.19s-.78,1-1.16,1.46c-.77,1-1.51,2-2.24,3s-1.46,2-2.22,3c-.08.12-.18.23-.26.34A9.46,9.46,0,0,0,27.3,62c.16.67.45,1.41.94,1.56a2.4,2.4,0,0,0,.48.1A4.18,4.18,0,0,1,28.89,61.93Z"/><path d="M37.25,59.38c.38-.61.72-1.23,1-1.87.47-.92.94-1.85,1.39-2.79s.91-1.87,1.39-2.8.82-1.59,1.3-2.35a8.57,8.57,0,0,1-1.23.56,6.71,6.71,0,0,1-2.91.38,5.24,5.24,0,0,1-.79-.15c-.74,1.09-1.53,2.14-2.31,3.18s-1.68,2.22-2.49,3.34-1.63,2.24-2.36,3.4a15.76,15.76,0,0,0-1,1.8,4.58,4.58,0,0,0-.47,1.58,6.41,6.41,0,0,0,1.38,0,5.11,5.11,0,0,0,1-.2,4.9,4.9,0,0,0,.88-.45,43.19,43.19,0,0,0,3.62-2.36C36.23,60.22,36.75,59.81,37.25,59.38Z"/><path d="M47.48,60.77l-.56,1-.33,1L46,64.61c-.42,1.29-.84,2.57-1.29,3.85-.22.64-.44,1.28-.69,1.91-.13.32-.26.63-.41.94l-.13.24a.93.93,0,0,1-.22.25,1,1,0,0,0-.32.29,4.8,4.8,0,0,0-.81,1.76,5.3,5.3,0,0,0-.17,1.25,3.23,3.23,0,0,0,.07.69v.07a21.12,21.12,0,0,0-.29,2.52c-.06.85-.11,1.71-.15,2.56-.09,1.69-.13,3.42-.26,5.12s-.3,3.41-.35,5.12a33.45,33.45,0,0,1-.6,4.69.76.76,0,0,1-.74.66c-1.1,0-3.25,0-3.72,0v1.38l5.53-.73s7,.78,7.1.73-.07-.38-.11-.62a.59.59,0,0,0-.51-.48l-1.68-.2-4.3-.47s-.15-3.32-.17-4.84A28.47,28.47,0,0,1,42,86.72l.61-4.52.33-2.27c.13-.75.23-1.49.41-2.27v0l0-.05a4,4,0,0,0,.55-1.23,13.54,13.54,0,0,0,.33-1.4c.09-.47.15-1,.2-1.43,0-.27,0-.56,0-.84a3.38,3.38,0,0,0,0-.56l0-.08,0-.06a11.17,11.17,0,0,0,.7-1.43c.22-.49.43-1,.64-1.5.41-1,.81-2,1.21-3l1.17-3,.56-1.53.27-.77.13-.39v0a2.86,2.86,0,0,1-.95-.35Q47.86,60.33,47.48,60.77Z"/><path d="M56.22,55v-.77a2,2,0,0,0,0-.24,2.57,2.57,0,0,0-.2-.45l-.09-.13-.93.36a17.86,17.86,0,0,1-2.8.78,8.88,8.88,0,0,1-1.65,1,6.3,6.3,0,0,1-1.89.5,11.07,11.07,0,0,1-3.1,1.62,8.77,8.77,0,0,1-1.74.4,3.78,3.78,0,0,1-.89,0,1.31,1.31,0,0,1-.79-.3,1.64,1.64,0,0,1-.75.49,2.3,2.3,0,0,1-.94.12c-1.34-.15-1.55-.47-1.56-.47a1,1,0,0,1-.12.16,11.87,11.87,0,0,1-2.59,3.06,21.11,21.11,0,0,1-2.26,1.73,4.83,4.83,0,0,0-.16.5,2.3,2.3,0,0,0-.1.63.68.68,0,0,0,.13.44A2.83,2.83,0,0,0,35.27,64a15.13,15.13,0,0,0,1.46-1c.47-.37.92-.76,1.36-1.16S39,61,39.4,60.61l1.53-1.55-.87,2c-.15.36-.3.75-.43,1.13-.07.19-.12.38-.17.57v.08a2.59,2.59,0,0,0,.6-.19,12.07,12.07,0,0,0,1.11-.6,22.13,22.13,0,0,0,2.09-1.55l1-.78-.26,1.19a11.58,11.58,0,0,0-.18,1.18,5.28,5.28,0,0,0,0,.56.75.75,0,0,0,0,.21,4.2,4.2,0,0,0,1.33-.65A14.18,14.18,0,0,0,46.61,61c.48-.44,1-.89,1.4-1.36s.91-.94,1.34-1.43c-.34.55-.72,1.08-1.11,1.59a6,6,0,0,0,1.41-.07,9.64,9.64,0,0,0,1.49-.4,9.87,9.87,0,0,0,2.68-1.43l0,0,1.29-.77.64-.41a4.68,4.68,0,0,0,.4-.27Z"/><path d="M63.31,97.41l-2.71-9.3-1.41-4.78c-.47-1.59-.93-3.19-1.43-4.77l0-.07.05-.07a3.5,3.5,0,0,0,.47-2.2,9.12,9.12,0,0,0-.46-2.3v0c.06-1.16.16-2.32.25-3.47l.32-3.47c.11-1.15.24-2.3.37-3.46L59,61.75l.13-.87a1.42,1.42,0,0,1,.08-.41l-.21,0c-.31,0-.63,0-1,0l-.5,0-.2,0a3.39,3.39,0,0,1,0,.78l-.08,1.2-.14,2.39-.3,4.79c0,.8-.11,1.6-.18,2.41,0,.4-.08.8-.14,1.21,0,.1,0,.21-.07.32a.89.89,0,0,1-.06.2l0,.11a2.65,2.65,0,0,0-.11.52,9.35,9.35,0,0,0,.06,2.3A10.24,10.24,0,0,0,56.78,79c.53,1.54.93,3.08,1.38,4.62l1.29,4.62,2.42,9.11-4.17.34a.55.55,0,0,0-.51.49l-.08.55,5.08-.33s6.91.53,7,.4a2.58,2.58,0,0,0,.05-1.38C69.11,97.27,63.31,97.41,63.31,97.41Z"/><path d="M44.91,48c-.39.27-.78.53-1.2.77s-.76.46-1.15.66a27.83,27.83,0,0,1-.84,2.73,28.74,28.74,0,0,1-1.22,2.93A23.41,23.41,0,0,1,39,57.78c1.23.94,3.13-.15,3.13-.15l0,0a1.12,1.12,0,0,0,.76.29,4.17,4.17,0,0,0,.86,0,8.84,8.84,0,0,0,1.68-.44,10.31,10.31,0,0,0,3-1.72l0,0h.05a5.73,5.73,0,0,0,1.81-.54,8.46,8.46,0,0,0,1.58-1.07l0,0,.06,0a18.06,18.06,0,0,0,2.74-.85c.45-.18.89-.37,1.31-.58a4.7,4.7,0,0,0,1.13-.74l.23-.23.23.21A.57.57,0,0,0,58,52a2.37,2.37,0,0,0,.45,0,5.81,5.81,0,0,0,1-.26,12.07,12.07,0,0,0,1.87-.85A12.34,12.34,0,0,0,63,49.7a4.33,4.33,0,0,0,1.23-1.41l.6-.25a.82.82,0,0,0,.37-.06,3.25,3.25,0,0,0,.57-.27,9,9,0,0,0,1.11-.79,18.57,18.57,0,0,0,2-1.92,20.92,20.92,0,0,0,1.81-2.18,10.87,10.87,0,0,0,1.36-2.41,20.15,20.15,0,0,0,.52-3.48,24.88,24.88,0,0,0,0-3.56,14.87,14.87,0,0,0-.23-1.76,15,15,0,0,0-.48-1.71,4.67,4.67,0,0,0-.76-1.57,5.91,5.91,0,0,0-.6-.63l-.34-.28a1,1,0,0,1-.22-.18h0l-.21-.16-.44-.29a6.89,6.89,0,0,0-.93-.49,8.24,8.24,0,0,0-2-.57l-.52-.08a4.75,4.75,0,0,0-.51,0,4.51,4.51,0,0,0-1,.16,12.91,12.91,0,0,0-2,.74,37.09,37.09,0,0,0-3.71,2c-.61.38-1.2.77-1.78,1.17-.3.2-.58.4-.85.61s-.6.43-.89.63A68,68,0,0,0,48.29,36a7,7,0,0,0-.71.73,2.88,2.88,0,0,0-.3.39c-.11.15-.21.3-.33.45a17.7,17.7,0,0,1-1.43,1.67c-1,1-2.07,2-3.18,2.9a11.55,11.55,0,0,0-1.87,2.56,11,11,0,0,1-2,2.67,12.61,12.61,0,0,1-1.29,1c-.32.22-.64.46-1,.7v.09a.52.52,0,0,0,.15.27,1.45,1.45,0,0,0,.55.29,4.55,4.55,0,0,0,1.33.12,7.69,7.69,0,0,0,2.59-.59,8.4,8.4,0,0,0,1.2-.6L43.27,48l1.22-.7.64-.35a2.31,2.31,0,0,1,.38-.15l.19,0a3.08,3.08,0,0,1,.28-.61,5.63,5.63,0,0,1,.54-.72,4.54,4.54,0,0,1,1.39-1.09,4.92,4.92,0,0,0-.57.64c-.17.23-.33.46-.48.71a.35.35,0,0,1,0,.08,3.1,3.1,0,0,0,.51.11,2.59,2.59,0,0,0,.73,0,1.82,1.82,0,0,0,.67-.21,1.55,1.55,0,0,0,.45-.47h0a2.41,2.41,0,0,1,.42-.54c.15-.15.3-.3.46-.44a11.06,11.06,0,0,1,1-.81,9.85,9.85,0,0,1,1.07-.7,4.3,4.3,0,0,1,1.07-.45,3.12,3.12,0,0,1,1-1.07,5.3,5.3,0,0,1,.7-.38,6.29,6.29,0,0,1,.65-.26l.73-.56.76-.63q.77-.64,1.5-1.32l.12-.11h.18a9.62,9.62,0,0,0,2.41-.23,3.67,3.67,0,0,0,2-1.14,5.16,5.16,0,0,0,.94-2.22c.18-.82.28-1.68.43-2.53,0,.86,0,1.72-.06,2.59A5.22,5.22,0,0,1,63.75,37a4.21,4.21,0,0,1-2.27,1.51l-.65.17-.66.09a8.74,8.74,0,0,1-1.14.08c-.46.42-.91.84-1.38,1.25l-.79.65c-.27.21-.53.41-.84.62l-.05,0-.06,0a5.41,5.41,0,0,0-.63.24,5,5,0,0,0-.6.32,2.22,2.22,0,0,0-.86.83l-.1.23-.23,0a3.64,3.64,0,0,0-1,.36c-.35.17-.7.38-1.05.59s-.68.45-1,.69l-.47.38a2.26,2.26,0,0,0-.38.38v0a1.79,1.79,0,0,1-.67.55,1.87,1.87,0,0,1-.81.14,3.29,3.29,0,0,1-1.27-.34c-.11.2-.22.4-.31.6a2.33,2.33,0,0,0-.17.72v.33h-.38C45.72,47.48,45.3,47.8,44.91,48Z"/><path d="M84.5,9.7l.09-.22a1.69,1.69,0,0,0,.1-.83.63.63,0,0,0-.51-.51,12.41,12.41,0,0,0-1.81.12l-.9.13a6.93,6.93,0,0,0-.87.21l-.5.17.31-.43L80.7,8a1.15,1.15,0,0,1,0-2.19c-.25-.26-.34-.4-.16-.5s2.65.35,3.33.4a5.61,5.61,0,0,0,1,0,2.67,2.67,0,0,0,.84-.22,9.45,9.45,0,0,0-4.47-2.3,8.8,8.8,0,0,0-5.15.46,11.9,11.9,0,0,0-4.18,3.09,11,11,0,0,0-1.5,2.15,9.26,9.26,0,0,0-.88,2.44,7.7,7.7,0,0,0-.1,2.58,23,23,0,0,0,.39,2.62A8.22,8.22,0,0,0,72.19,21a6.81,6.81,0,0,0,2.16,1.3l.3.12a2.32,2.32,0,0,1,.36.16,2,2,0,0,1,.6.56,1.9,1.9,0,0,1,.26,1.59,3.83,3.83,0,0,1-.3.67,6.11,6.11,0,0,1-.36.61,4.66,4.66,0,0,1-1,1.08,2.69,2.69,0,0,1-1.38.62,2.6,2.6,0,0,1-1.49-.29l-.11-.05-.06-.11a6.6,6.6,0,0,0-2.37-2.75,3.75,3.75,0,0,0-.82-.35c-.29-.09-.6-.19-.9-.26-.62-.15-1.24-.28-1.86-.38a16.5,16.5,0,0,0-3.77-.18,6.47,6.47,0,0,0-3.37,1.17l0,0h0c-1,.61-2,1.27-2.89,1.94-.47.34-.92.69-1.36,1.06a8.15,8.15,0,0,0-1.19,1.15l-.05.07-.07,0c-1.83,1.14-3.63,2.39-5.4,3.65s-3.55,2.53-5.23,3.9c-.21.17-.42.34-.62.52l-.59.53a5.52,5.52,0,0,0-.53.56l-.5.64c-.67.86-1.31,1.74-1.94,2.63S36.46,43.05,35.9,44a11.77,11.77,0,0,0-1.37,2.87l0,.08,0,.06c-1.65,1.85-3.27,3.76-4.79,5.72-.77,1-1.5,2-2.18,3-.17.26-.34.52-.49.79a8.94,8.94,0,0,0-.44.8,8.21,8.21,0,0,0-.35.83c-.08.29-.14.6-.21.9s-.12.61-.16.91,0,.61.11.67l0,0,.13-.1c.1-.1.2-.22.3-.33s.39-.48.58-.73c.75-1,1.48-2,2.23-3s1.51-2,2.29-3c.39-.49.79-1,1.2-1.45.25-.28.49-.58.77-.85a2.42,2.42,0,0,1,.37-.42c.19-.19.39-.38.6-.56.41-.36.82-.72,1.24-1.07s.85-.69,1.28-1a10.11,10.11,0,0,0,1.2-1.06A10.76,10.76,0,0,0,40,44.44a11.65,11.65,0,0,1,1.87-2.79h0l0,0a40.34,40.34,0,0,0,3-3,20.07,20.07,0,0,0,1.35-1.6l.29-.42a5.92,5.92,0,0,1,.35-.48,9.91,9.91,0,0,1,.77-.81,29.82,29.82,0,0,1,3.4-2.7c1.18-.84,2.37-1.63,3.57-2.4l.87-.58c.3-.22.6-.42.9-.61.62-.39,1.23-.75,1.86-1.11A35.63,35.63,0,0,1,62.14,26a15.53,15.53,0,0,1,2.06-.68,4.42,4.42,0,0,1,1.1-.12,7.54,7.54,0,0,1,1.09.14,8.06,8.06,0,0,1,2.07.66,6.33,6.33,0,0,1,.94.54,4.46,4.46,0,0,1,.43.33l.21.17a.48.48,0,0,1,.12.16,4.43,4.43,0,0,1,2,2.57,15.83,15.83,0,0,1,.54,1.73A15.52,15.52,0,0,1,73,33.33,25.9,25.9,0,0,1,73.07,37a19.33,19.33,0,0,1-.43,3.61v0h0a11.3,11.3,0,0,1-1.36,2.63,25.34,25.34,0,0,1-1.8,2.3,22.61,22.61,0,0,1-2.1,2,12,12,0,0,1-1.2.88,4.84,4.84,0,0,1-.72.36,1.77,1.77,0,0,1-.44.11h-.13a3.55,3.55,0,0,1-.53.71,6.62,6.62,0,0,1-.85.75,12.11,12.11,0,0,1-1.87,1.16,13.23,13.23,0,0,1-2,.84,5.66,5.66,0,0,1-1.1.24,2.94,2.94,0,0,1-.6,0,1.49,1.49,0,0,1-.44-.11,5.45,5.45,0,0,1-1.13.66l-.35.16.09.08a1.8,1.8,0,0,1,.31.45,1.08,1.08,0,0,1,.1.27l.06.27.08.53c.1.7.17,1.4.22,2.1s.09,1.4.11,2.11v.39s0,0,0,0a.09.09,0,0,0,.06.06h.06l.26,0,.55-.06a5.86,5.86,0,0,1,1.11,0l.28,0,.15,0,.11,0s0,0,0,0l0,0,0-.24.08-.51.16-1c.1-.7.22-1.39.33-2.08l.2-1,.12-.52a3.63,3.63,0,0,1,.19-.55h0a1.11,1.11,0,0,1,.17-.3A1.32,1.32,0,0,1,61.2,53a1.44,1.44,0,0,1,.63-.34,1.61,1.61,0,0,0-.51.46,1,1,0,0,0-.17.28,1.32,1.32,0,0,0-.1.3l0,.05c0,.09-.05.3-.07.45l0,.52,0,.68L63,54.52a11.82,11.82,0,0,0,2.33-1.17,16.67,16.67,0,0,0,2.08-1.57,9.73,9.73,0,0,0,1.71-1.92l0,0,0,0a19.23,19.23,0,0,0,2.42-2.19c.76-.8,1.49-1.62,2.19-2.47a44.38,44.38,0,0,0,3.86-5.34c.28-.48.51-.93.77-1.45s.53-1,.82-1.48c.57-1,1.15-1.9,1.66-2.86a23.23,23.23,0,0,0,2.28-6.11,13.92,13.92,0,0,0-.13-6.42,13.77,13.77,0,0,0-.52-1.53,5.22,5.22,0,0,0-.78-1.33,5.85,5.85,0,0,0-2.54-1.75,4.68,4.68,0,0,0-1.52-.27,1.51,1.51,0,0,1-1-.29,1.81,1.81,0,0,1-.56-.82,3.19,3.19,0,0,1,0-1.81,3,3,0,0,1,.37-.85,2.15,2.15,0,0,1,.68-.63.92.92,0,0,1,.52-.17l.42,0,.81,0a8.79,8.79,0,0,0,1.62-.14,5.22,5.22,0,0,0,1.52-.5,3.61,3.61,0,0,0,.66-.44,3.83,3.83,0,0,0,.29-.28l.14-.15.06-.08a.29.29,0,0,1,.13-.1h0a6.75,6.75,0,0,0,1.66-.26,3.25,3.25,0,0,0,1.26-.66,10.5,10.5,0,0,0-1.58.2Z"/><path d="M83.87,6c-.69-.07-1.36-.17-2-.26h-.15l-.15,0-.29,0L81,5.6a.86.86,0,0,0-.23,0,.86.86,0,0,1,.13.14l.19,0a1.16,1.16,0,0,1,0,2.31l-.11,0v0a1.47,1.47,0,0,0-.06.14l.55-.07L82.35,8a14.15,14.15,0,0,1,1.85-.1h0l.14,0a43.63,43.63,0,0,1,4.42-.24c1.67,0,3.33,0,5,.1s3.32.2,5,.4c.83.09,1.65.21,2.48.36l.77.17a14.59,14.59,0,0,0-2.65-.83c-.72-.17-1.46-.27-2.21-.39L94.88,7.2l-4.5-.67c-1.49-.25-3-.46-4.46-.77a2.86,2.86,0,0,1-1,.27A9.33,9.33,0,0,1,83.87,6Z"/><path d="M101.17,8.93c-.82-.07-1.65-.12-2.47-.17l-5-.25-5-.25-4.22-.2a1,1,0,0,1,.13.09.78.78,0,0,1,.25.45,1.41,1.41,0,0,1,0,.5,1.84,1.84,0,0,1,0,.25,11.24,11.24,0,0,1,2.16-.23c.79,0,1.57,0,2.37,0C91,9.05,92.58,9,94.16,9h1.2c.38,0,.77,0,1.16,0l2.37,0c.86,0,2.43.12,3.3.11Z"/></svg>