<svg id="Layer_1" data-name="Layer 1" xmlns="http://www.w3.org/2000/svg" width="128" height="128" viewBox="0 0 128 128"><title>Artboard 95</title><path d="M40.19,118.5v-2.42h5.1v5.7a6.22,6.22,0,0,1-2.18,1.57,6.82,6.82,0,0,1-2.84.65,5.62,5.62,0,0,1-3.07-.85,5.83,5.83,0,0,1-2.11-2.56,9.76,9.76,0,0,1-.77-4,9.48,9.48,0,0,1,.78-4,5.92,5.92,0,0,1,2-2.51,5.23,5.23,0,0,1,3-.83,4.61,4.61,0,0,1,5,4.2l-2.35.54a3,3,0,0,0-1-1.69,2.54,2.54,0,0,0-1.68-.58,3,3,0,0,0-2.45,1.17,5.68,5.68,0,0,0-.94,3.59,6.52,6.52,0,0,0,1,3.94,2.81,2.81,0,0,0,2.36,1.16,3.57,3.57,0,0,0,1.44-.33,4.25,4.25,0,0,0,1.33-.89V118.5Z"/><path d="M47.2,116.69a10.28,10.28,0,0,1,.76-4.22,5.63,5.63,0,0,1,2-2.46,5.15,5.15,0,0,1,3-.81,5.06,5.06,0,0,1,4.1,1.92,8.38,8.38,0,0,1,1.59,5.48,8.52,8.52,0,0,1-1.68,5.61,4.92,4.92,0,0,1-4,1.79,5,5,0,0,1-4-1.77A8.41,8.41,0,0,1,47.2,116.69Zm2.45-.1a6.11,6.11,0,0,0,.93,3.7,2.83,2.83,0,0,0,2.33,1.24,2.79,2.79,0,0,0,2.32-1.23,6.27,6.27,0,0,0,.92-3.76,6.1,6.1,0,0,0-.9-3.68,2.76,2.76,0,0,0-2.34-1.19,2.84,2.84,0,0,0-2.36,1.2A6.21,6.21,0,0,0,49.65,116.59Z"/><path d="M60.17,116.69a10.29,10.29,0,0,1,.75-4.22,5.77,5.77,0,0,1,2-2.46,5.17,5.17,0,0,1,3-.81A5.09,5.09,0,0,1,70,111.12a10.25,10.25,0,0,1-.1,11.09,5.41,5.41,0,0,1-8,0A8.41,8.41,0,0,1,60.17,116.69Zm2.44-.1a6,6,0,0,0,.94,3.7,2.81,2.81,0,0,0,2.33,1.24,2.77,2.77,0,0,0,2.31-1.23,8.1,8.1,0,0,0,0-7.44,2.79,2.79,0,0,0-2.34-1.19,2.82,2.82,0,0,0-2.36,1.2A6.14,6.14,0,0,0,62.61,116.59Z"/><path d="M73,119.09l2.32-.28c.26,1.83,1.11,2.75,2.56,2.75a2.44,2.44,0,0,0,1.69-.56,1.81,1.81,0,0,0,.61-1.39,1.53,1.53,0,0,0-.21-.83,1.62,1.62,0,0,0-.66-.57,18.68,18.68,0,0,0-2.13-.73,7.21,7.21,0,0,1-2.21-1,3.68,3.68,0,0,1-1.12-1.41,4.23,4.23,0,0,1-.42-1.87,4.14,4.14,0,0,1,.54-2.11,3.41,3.41,0,0,1,1.47-1.42,5,5,0,0,1,2.31-.47,4.06,4.06,0,0,1,4.46,4.33l-2.37.13a2.54,2.54,0,0,0-.67-1.61,2.15,2.15,0,0,0-1.48-.46,2.32,2.32,0,0,0-1.47.4,1.18,1.18,0,0,0-.52,1,1.24,1.24,0,0,0,.47,1,6.52,6.52,0,0,0,2.16.88,9,9,0,0,1,2.58,1.09,3.69,3.69,0,0,1,1.21,1.47,5.23,5.23,0,0,1,.42,2.2,4.52,4.52,0,0,1-1.14,3.13A4.6,4.6,0,0,1,77.82,124Q73.5,124,73,119.09Z"/><path d="M84.76,123.76V109.44h8.71v2.42H87.12V115H93v2.41h-5.9v3.88h6.56v2.43Z"/><path d="M22.64,17.56V3.24h8.71V5.67H25V8.84h5.9v2.41H25v3.89h6.56v2.42Z"/><path d="M39.23,12.31V9.88h5.11v5.71a6.29,6.29,0,0,1-2.19,1.56,6.64,6.64,0,0,1-2.84.65A5.56,5.56,0,0,1,36.24,17a5.82,5.82,0,0,1-2.1-2.56,9.53,9.53,0,0,1-.78-4,9.54,9.54,0,0,1,.79-4,5.83,5.83,0,0,1,2-2.51,5.36,5.36,0,0,1,3-.83,5.08,5.08,0,0,1,3.37,1.07,5.09,5.09,0,0,1,1.62,3.14l-2.34.54a3,3,0,0,0-1-1.69,2.55,2.55,0,0,0-1.68-.59,3,3,0,0,0-2.45,1.18,5.73,5.73,0,0,0-.94,3.59,6.44,6.44,0,0,0,1,3.93,2.76,2.76,0,0,0,2.35,1.16A3.48,3.48,0,0,0,40.61,15,4.68,4.68,0,0,0,42,14.12V12.31Z"/><path d="M49.81,17.56v-6L45.52,3.24h2.77l2.76,5.67,2.72-5.67h2.72l-4.31,8.31v6Z"/><path d="M57.86,17.56V3.24h3.81a11.47,11.47,0,0,1,2.79.21,3.13,3.13,0,0,1,1.72,1.42,5.19,5.19,0,0,1,.68,2.79,5.29,5.29,0,0,1-.59,2.6,3.47,3.47,0,0,1-1.46,1.48,7.72,7.72,0,0,1-3,.42H60.23v5.4ZM60.23,5.67V9.74h1.31a5.55,5.55,0,0,0,1.8-.19,1.55,1.55,0,0,0,.77-.67,2.13,2.13,0,0,0,.31-1.19,2.17,2.17,0,0,0-.32-1.2,1.48,1.48,0,0,0-.77-.66,7.2,7.2,0,0,0-1.95-.16Z"/><path d="M71.65,17.56V5.67H68.16V3.24h9.33V5.67H74V17.56Z"/><path d="M79.15,17.56V3.24h2.37V17.56Z"/><path d="M94.58,17.56H92l-1-3.24h-4.7l-1,3.24H82.79L87.36,3.24h2.51ZM90.22,11.9,88.6,6.58,87,11.9Z"/><path d="M96.05,17.56V3.24h2.3l4.81,9.56V3.24h2.2V17.56H103L98.25,8.22v9.34Z"/><path d="M76.7,36.7a13.85,13.85,0,0,0,.66,1.68l0,.11v0a12.7,12.7,0,0,1,2.14.17c.42.06.84.17,1.25.27l.61.19a2.09,2.09,0,0,0,.5.08,3.51,3.51,0,0,0,2-.86c.58-.4,1.15-.91,1.81-1.28a4.49,4.49,0,0,1-.54-.53,3.75,3.75,0,0,1-.54-1,7.47,7.47,0,0,1-.38-2.06,1.54,1.54,0,0,1,.3-1.08,2.33,2.33,0,0,1,.85-.66c.63-.32,1.29-.46,1.87-.82s1.06-.69,1.63-1a1.25,1.25,0,0,1-.43-.63.81.81,0,0,1,0-.55,2.49,2.49,0,0,1,.24-.4,1.59,1.59,0,0,0,.41-1.21,3.4,3.4,0,0,0-.27-.68,2.56,2.56,0,0,1-.16-.45.74.74,0,0,1,0-.34.76.76,0,0,1,.14-.3,1.76,1.76,0,0,1,.76-.55,2.25,2.25,0,0,1,.84-.2,10.43,10.43,0,0,0-2.7-2.27,4.58,4.58,0,0,0-1.66-.55,5.17,5.17,0,0,0-.88,0l-.92,0a13.52,13.52,0,0,0-3.52.62,8,8,0,0,0-.78.35,5.67,5.67,0,0,0-.69.5,9.16,9.16,0,0,0-1.25,1.24,7.43,7.43,0,0,0-1.49,3.11,14.91,14.91,0,0,0-.37,3.55c0,1.22,0,2.45.15,3.65A10,10,0,0,0,76.7,36.7ZM81.51,25h0a4.22,4.22,0,0,1,1-1.84,3,3,0,0,1,1.15-.77A3.17,3.17,0,0,1,85,22.24a4.73,4.73,0,0,1,2.27.59,4.82,4.82,0,0,1,1.63,1.67h0a10.44,10.44,0,0,1-1.3,1.85,3.56,3.56,0,0,1-2.15,1,3.63,3.63,0,0,1-2.26-.72A5.74,5.74,0,0,1,81.54,25l0,0,0,0S81.52,25,81.51,25Z"/><path d="M84.31,38.83a5.25,5.25,0,0,1-1,.79,2.68,2.68,0,0,1-1.38.36,2.22,2.22,0,0,1-.72-.12l-.58-.2c-.39-.14-.78-.25-1.18-.38l-2-.63c-.17.77-.51,1.46-.71,2.12a1.63,1.63,0,0,0-.08.94,3.55,3.55,0,0,0,.51.89c.22.3.45.6.67.92l.15.27a14,14,0,0,1,2.19.71,5,5,0,0,0,1.76-1.33c.27-.29.53-.6.79-.91a8.48,8.48,0,0,1,.87-.93,22.09,22.09,0,0,1,2-1.57c.6-.44,1.23-.85,1.8-1.33L86,37.3l-.16-.14C85.31,37.71,84.88,38.3,84.31,38.83Z"/><path d="M84.89,22.82a2.54,2.54,0,0,0-1.87.51A11.6,11.6,0,0,0,81.55,25a16.14,16.14,0,0,0,1.87,1.14,4.06,4.06,0,0,0,1.92.47,3.72,3.72,0,0,0,1.82-.71,20.94,20.94,0,0,0,1.68-1.39,9.22,9.22,0,0,0-1.9-1.16A6.34,6.34,0,0,0,84.89,22.82ZM86,24.91a1.07,1.07,0,0,1-1.88,0,.29.29,0,0,1,0-.39,1.06,1.06,0,0,1,1.88,0A.29.29,0,0,1,86,24.91Z"/><path d="M37.76,74a2.39,2.39,0,0,1,1,.07c.23-.29.59-.76.9-1.13H39.6a17.12,17.12,0,0,1-2.15-.13l-.35,0,.13-.31a2.26,2.26,0,0,0,.07-.82c0-.31,0-.63,0-1v-.32c-.67.44-1.31.91-1.93,1.4a25.26,25.26,0,0,0-1.92,1.65,13.58,13.58,0,0,0-1.65,1.84A5.58,5.58,0,0,0,31,76.62c.41-.14.84-.32,1.25-.5l2.12-1a20.84,20.84,0,0,1,2.2-.85A6.71,6.71,0,0,1,37.76,74Z"/><path d="M89.85,25.22a1.82,1.82,0,0,0-.45.55c0,.1,0,.06,0,.15l.16.3a2.76,2.76,0,0,1,.37.85,1.38,1.38,0,0,1,0,.54,1.76,1.76,0,0,1-.15.49,2.6,2.6,0,0,1-.4.55,9.39,9.39,0,0,0,1.75.28c.69.05,1.38.07,2.08.08h1a5.57,5.57,0,0,1,1.08.11,3.41,3.41,0,0,1,1,.36A2.22,2.22,0,0,1,97,30a1.22,1.22,0,0,0-.14-.34,1.75,1.75,0,0,0-.38-.39,1.38,1.38,0,0,0-.24-.14c-.08,0-.14-.05-.27-.1a7.48,7.48,0,0,1-1.3-.64c-.4-.23-.77-.49-1.16-.71l0,0,0,0a8.18,8.18,0,0,0-.74-.68c-.27-.22-.55-.42-.83-.63l-.43-.3-.22-.13a.69.69,0,0,1-.24-.18,1.44,1.44,0,0,1-.23-.51,1.63,1.63,0,0,0-.23-.43l0,0A4.73,4.73,0,0,0,89.85,25.22Z"/><path d="M92.06,45.17c-.63-1.19-1.31-2.36-2-3.53-.17-.3-.34-.62-.5-.86A8.46,8.46,0,0,0,89,40c-.44-.48-.93-.94-1.43-1.39l-.19-.16a12.15,12.15,0,0,1-1.53,1.68c-.6.57-1.21,1.11-1.78,1.69a9.68,9.68,0,0,0-.78.9,10.76,10.76,0,0,1-.85.94,6.19,6.19,0,0,1-1,.84,3.3,3.3,0,0,1-1.24.54l-.11,0L80,45l-2-1.14s.06.1.08.15a.88.88,0,0,1,.06.64c-.13.37-.24.72-.4,1.07a2.94,2.94,0,0,1-.39.6,22,22,0,0,1,3,.52,12,12,0,0,1,2.6,1.26c.8.5,1.58,1,2.34,1.57s1.5,1.14,2.22,1.73a26.57,26.57,0,0,1,2.1,1.86A51.44,51.44,0,0,0,85,50.12c-.78-.5-1.58-1-2.39-1.41a11.55,11.55,0,0,0-2.47-1.07,27.53,27.53,0,0,0-5.46-.51,28.35,28.35,0,0,0-5.46.45,26.69,26.69,0,0,0-5.24,1.63c-1.71.68-3.38,1.48-5,2.33-.82.43-1.63.88-2.41,1.37-.2.11-.38.24-.57.37s-.36.25-.56.4c-.38.29-.76.56-1.15.82l-.7.44-.26.31a11.08,11.08,0,0,0-.71,1.12,7,7,0,0,0-.84,2.45,1,1,0,0,0,.06.54.57.57,0,0,0,.34.27,3.19,3.19,0,0,0,1.21.11,15.11,15.11,0,0,0,2.57-.41l.23-.06.17.22a1.26,1.26,0,0,0,.46.37,2.17,2.17,0,0,0,.65.09,7.94,7.94,0,0,0,1.52-.26l.42-.1a1.72,1.72,0,0,1,.54,0,1.18,1.18,0,0,1,.6.26,1.85,1.85,0,0,1,.36.39,4.54,4.54,0,0,1,.45.79c.12.24.23.53.33.71l0,0a.63.63,0,0,0,.21.13,1.88,1.88,0,0,0,.51.06,5.86,5.86,0,0,0,1.2-.19,9,9,0,0,0,2.3-1l.29-.18.28.2a2.79,2.79,0,0,0,1,.35,6,6,0,0,0,1.2.06,6.91,6.91,0,0,0,1.21-.16,3.6,3.6,0,0,0,1.06-.41l.22-.14.23.08a2.63,2.63,0,0,0,1.6,0,2.9,2.9,0,0,0,1.4-.84l.31-.37c.12-.14.23-.26.35-.38s.51-.46.76-.66A4.29,4.29,0,0,0,77,57.15l.16-.38.36.16a1.83,1.83,0,0,0,1.24,0,3.5,3.5,0,0,0,1.2-.72l.18-.16.19.11a1.22,1.22,0,0,0,.85.16,2.05,2.05,0,0,0,.85-.42,5.79,5.79,0,0,0,1.35-1.59l.1-.16.14.1a1.06,1.06,0,0,0,.81.1,3.24,3.24,0,0,0,.87-.31c.29-.13.58-.28.88-.4A1.89,1.89,0,0,1,87,53.4a1.81,1.81,0,0,0-.83.3l-.83.48a3.85,3.85,0,0,1-.9.4,1.4,1.4,0,0,1-.88,0,6.18,6.18,0,0,1-1.25,1.69,2.47,2.47,0,0,1-1.07.58,1.69,1.69,0,0,1-1-.07,3.79,3.79,0,0,1-1.25.79,2.62,2.62,0,0,1-1.43.17,2.79,2.79,0,0,1-.49.61c-.24.25-.49.46-.73.67s-.47.42-.69.64l-.29.33-.3.38a3.83,3.83,0,0,1-1.83,1.17,3.69,3.69,0,0,1-2,.06,5.38,5.38,0,0,1-1.15.43,7.5,7.5,0,0,1-1.4.2,6.23,6.23,0,0,1-1.42-.07,3.42,3.42,0,0,1-1.14-.36,8.31,8.31,0,0,1-1,.48,12.93,12.93,0,0,1-1.33.44,6.09,6.09,0,0,1-1.43.2,2.67,2.67,0,0,1-.82-.1,1.3,1.3,0,0,1-.78-.69c-.15-.29-.22-.51-.33-.74a4,4,0,0,0-.35-.65.66.66,0,0,0-.32-.3,3.91,3.91,0,0,0-.66.1,6.54,6.54,0,0,1-1.71.24,2.78,2.78,0,0,1-1-.19,1.82,1.82,0,0,1-.62-.48,12.9,12.9,0,0,1-2.48.27,3.82,3.82,0,0,1-1.43-.23,1,1,0,0,1-.62-.6,1.6,1.6,0,0,1,0-.78,7.19,7.19,0,0,1,1.08-2.52,8.26,8.26,0,0,1,.81-1.06c-1.2.76-3.26,2.42-3.35,2.48-1.84,1.15-3.79,2-5.73,3-.26.13-.51.26-.78.38a4.08,4.08,0,0,1-.42.17l-.37.15c-.51.21-1,.45-1.51.7s-1,.5-1.45.78l-.51.36a6,6,0,0,0,.72-.12c.54-.1,1.08-.25,1.62-.38,1.09-.28,2.16-.62,3.23-1,.53-.17,1.07-.35,1.59-.54l1.57-.64c1-.41,2.11-.83,3.18-1.21-1,.58-2,1.12-3,1.67l-1.51.79c-.52.26-1,.47-1.58.68-1.06.43-2.14.79-3.24,1.13-.55.17-1.1.31-1.67.44-.29.06-.58.11-.89.15a2.72,2.72,0,0,1-.5,0,1.25,1.25,0,0,1-.31,0,.56.56,0,0,1-.21-.08L37.9,64a.42.42,0,0,1-.1-.12,16.22,16.22,0,0,0-2.62,2,2.25,2.25,0,0,0-.48.63c-.12.28-.24.54-.33.81a2.35,2.35,0,0,0-.14.75.58.58,0,0,0,.23.49,1.17,1.17,0,0,0,.62.21,4.46,4.46,0,0,0,.81,0,11.08,11.08,0,0,0,1.68-.33,14.85,14.85,0,0,0,3.24-1.23C41.87,66.57,43,66,44,65.51a33.92,33.92,0,0,0,3.18-1.62c2.07-1.19,4.16-2.34,6.32-3.41-1.93,1.43-3.92,2.78-5.93,4.1a29.61,29.61,0,0,1-3.14,1.8c-1.07.54-2.13,1.07-3.16,1.65a15.26,15.26,0,0,1-3.49,1.27l-.36.07a10.1,10.1,0,0,0,.11,1.35l.15.93a5.24,5.24,0,0,1,0,.7c.6,0,1.21,0,1.81-.06.35,0,.69-.06,1-.11a5.43,5.43,0,0,0,.94-.22H42l.29,0c.2,0,.41-.09.61-.14.41-.11.82-.24,1.22-.37.82-.28,1.63-.57,2.42-.92a20.05,20.05,0,0,0,2.27-1.14c.68-.43,1.39-1,2.09-1.5,1.39-1,2.79-2.11,4.23-3.12a12.18,12.18,0,0,1,2.29-1.37c.79-.36,1.6-.7,2.41-1q-1.11.7-2.25,1.38c-.18.12-.38.23-.53.34a6.41,6.41,0,0,0-.52.39c-.34.26-.67.54-1,.82-1.34,1.11-2.67,2.24-4,3.34-.34.28-.69.55-1.05.82s-.7.53-1.09.79a15.62,15.62,0,0,1-2.42,1.21l-.58.23a2.58,2.58,0,0,0,0,.38.62.62,0,0,0,.16.45.58.58,0,0,0,.45.13,3.54,3.54,0,0,0,.94-.39l.93-.51L49,71.5l-.06.34a3.07,3.07,0,0,0-.08.79.52.52,0,0,0,0,.14,1.44,1.44,0,0,0,.26-.12,13.82,13.82,0,0,0,1.39-.91l.48-.34L51,72a2.25,2.25,0,0,0,0,.83.28.28,0,0,0,.11.17.51.51,0,0,0,.19-.09,3.48,3.48,0,0,0,.68-.56c.22-.22.43-.45.62-.68l.66-.78,0,1a3.17,3.17,0,0,0,.06.76,1.06,1.06,0,0,0,.1.25,2.48,2.48,0,0,0,.54-.36c.19-.18.39-.38.56-.57l.62-.7.11.94a2,2,0,0,0,.23.76l.06.07h0a1.57,1.57,0,0,0,.28-.09,5.88,5.88,0,0,0,.8-.46c.14-.09.27-.19.39-.28l.18-.15.09-.08h0l0,0,0-.06.09-.13.17-.21c.11-.14.23-.27.34-.4s.47-.51.72-.76a7.49,7.49,0,0,1,1.7-1.33,1.87,1.87,0,0,1,.62-.2l.54-.06,1-.06,2-.08c.66,0,1.34-.05,2-.11l.45-.06.53-.09c.34,0,.69-.08,1-.12,1.34-.12,2.69-.19,4-.37a21.22,21.22,0,0,0,3.8-1.05,12,12,0,0,0,1.79-.79c.55-.32,1.14-.7,1.71-1L81.55,64l.84-.54.41-.28.35-.26.41-.38,0,.5c0,.08,0,.1.07.14a.62.62,0,0,0,.29,0,1.49,1.49,0,0,0,.36-.05l.17-.06,0,0h0l.06-.05a13,13,0,0,1,1.17-1.18,5.39,5.39,0,0,1,1.42-.89,3.09,3.09,0,0,1,1.64-.2,3,3,0,0,0-1.58.34,5.23,5.23,0,0,0-1.3,1,14.54,14.54,0,0,0-1.08,1.24l-.08.09-.08,0,0,0-.21.08a2.37,2.37,0,0,1-.46.11,1.24,1.24,0,0,1-.52-.06.75.75,0,0,1-.18-.13l-.17.13-.41.3-.82.59-1.67,1.16c-.57.37-1.09.75-1.69,1.12a14.63,14.63,0,0,1-1.87.91,20.57,20.57,0,0,1-4,1.19c-1.36.23-2.71.31-4,.44l-1,.11-.47.08a3.71,3.71,0,0,1-.54.08c-.71.08-1.38.11-2,.14l-2,.06-1,0-.46,0a1,1,0,0,0-.34.1,7.19,7.19,0,0,0-1.47,1.15c-.23.23-.46.46-.68.7l-.33.36-.15.18-.05.06s0,0,0,0l0,0-.06.09c-.11.12-.17.16-.25.24l-.22.16-.43.31a7.92,7.92,0,0,1-1,.52,1.69,1.69,0,0,1-.68.14,1,1,0,0,1-.75-.47,2.48,2.48,0,0,1-.17-.38l-.11.09a2.22,2.22,0,0,1-.92.51.64.64,0,0,1-.44,0,.83.83,0,0,1-.31-.27,1.54,1.54,0,0,1-.21-.54.38.38,0,0,0,0-.1l-.11.11a5,5,0,0,1-.83.62l-.29.12a.72.72,0,0,1-.43,0,.81.81,0,0,1-.44-.57,1.6,1.6,0,0,1-.06-.52c-.21.12-.42.24-.64.35q-.41.57-.75,1.17a4.9,4.9,0,0,0-.38.76,1.34,1.34,0,0,0-.11.36.4.4,0,0,0,0,.11l0,0,0,.54,0,0,0,0,0,0-.15.2-.31.42-.6.89-.74,1.12,1.37-.36,2.38-.6,2.37-.62,1.14-.35a4.77,4.77,0,0,0,1-.41l.76.25c0-.06.05,0,.18.12a2.61,2.61,0,0,0,.41.2,6.18,6.18,0,0,0,1,.34c.68.2,1.38.35,2.09.5s1.42.26,2.13.36a15.6,15.6,0,0,0,2.11.19h.15l.07.06a4.7,4.7,0,0,0,1,.76,6.94,6.94,0,0,0,1,.45c0-.53,0-1.05,0-1.57a38.6,38.6,0,0,1,.77,4.11l.08.52,0,.13h0l0,0,.49-.23a9.21,9.21,0,0,1,2.09-.64,4.46,4.46,0,0,1,1.16,0,2.37,2.37,0,0,1,.62.13l.1,0,0-.09.12-.51q.12-.53.27-1a30.33,30.33,0,0,1,1.45-3.93c-.08.66-.19,1.32-.3,2a11,11,0,0,1,1.32-.57c.64-.24,1.29-.44,1.9-.71,1.23-.56,2.45-1.17,3.65-1.81A21.18,21.18,0,0,0,83,73c1.06-.82,2.09-1.71,3.1-2.61s2-1.82,3-2.74l.37-.35.33-.33a6.18,6.18,0,0,0,.59-.76,9.73,9.73,0,0,0,.93-1.71A12.15,12.15,0,0,0,92,62.66c.12-.62.26-1.33.42-2s.34-1.34.53-2a13.78,13.78,0,0,0,.45-1.93,29.29,29.29,0,0,0,.36-4,21.46,21.46,0,0,0-.23-3.95A14.26,14.26,0,0,0,92.06,45.17Z"/><path d="M58.14,72.35a.21.21,0,0,0,0-.06v-.05A.43.43,0,0,1,58.14,72.35Z"/><path d="M95.31,29.53a20.56,20.56,0,0,0-2.08,0,13.7,13.7,0,0,1-2.12-.2,5.5,5.5,0,0,1-1.76-.61s-.07.08-.11.11a2.85,2.85,0,0,0-.25.27.36.36,0,0,0-.11.25A1.58,1.58,0,0,0,89,30l.06,0L89,30h0a11.63,11.63,0,0,1,1.77-.14c.6,0,1.21,0,1.81,0,0,0,2.36.2,2.65.18l1-.09c.22.08.44,0,.65.1l0,0a1.89,1.89,0,0,0-.66-.34A4,4,0,0,0,95.31,29.53Z"/><path d="M47.33,76l.37-.41.2-.21.06-.05,0,0A.72.72,0,0,1,48,75a1.94,1.94,0,0,1,.2-.46,5.8,5.8,0,0,1,.53-.74,10,10,0,0,1,.77-.82l-.12.06a1.29,1.29,0,0,1-.49.15.26.26,0,0,1-.13,0,.31.31,0,0,1-.11-.08.56.56,0,0,1-.09-.17,1.18,1.18,0,0,1,0-.26,2.18,2.18,0,0,1,.08-.57l-.69.32a3.51,3.51,0,0,1-1.05.35.77.77,0,0,1-.53-.21.73.73,0,0,1-.15-.54c0-.12,0-.24.06-.36-.61.24-1.24.47-1.87.65-.43.13-.86.25-1.3.34l-.67.13a2.21,2.21,0,0,1-.37,0h-.2l-.13,0a6.7,6.7,0,0,1-1,.16l-.91,0a51.52,51.52,0,0,1-2.91,4.91,6.06,6.06,0,0,1-.47.59A4.63,4.63,0,0,0,36,79a8.28,8.28,0,0,0-.68,1.15,7.32,7.32,0,0,0-.51,1.2,2.19,2.19,0,0,0-.11.57.58.58,0,0,0,0,.2H35a5,5,0,0,0,.63-.09,12.6,12.6,0,0,0,1.3-.36,19.19,19.19,0,0,0,2.54-1A6.79,6.79,0,0,0,40.65,80a9.49,9.49,0,0,0,1-.95,27.16,27.16,0,0,1,2.09-1.92L42,79.33l-.42.56a2.61,2.61,0,0,1-.49.58,3.84,3.84,0,0,1-.45.37A12.12,12.12,0,0,0,40,82.16a6.17,6.17,0,0,0-.29,1,1.48,1.48,0,0,0,0,.46.4.4,0,0,0,0,.17s0,0,0,0a.46.46,0,0,0,.24,0,2,2,0,0,0,.42-.13c.3-.13.6-.29.91-.46s.59-.36.89-.55l.44-.3.15-.09c.05,0,0,0,0,0l0,0,.13-.17c.8-1.16,1.61-2.37,2.45-3.53.43-.58.86-1.16,1.3-1.73Z"/><path d="M64.47,81.81l.46-1.87-1.85-1-1.46-.33-.86-.46s-.26,1.59-.59,3.66A7,7,0,0,1,64.47,81.81Z"/><path d="M77.75,98.64l-.61-.06,1.55-.44a.27.27,0,0,0,0-.48,4.87,4.87,0,0,0-1.5-.56,7,7,0,0,0-2.16.65A5,5,0,0,1,73.79,96c-.25-.53-.54-1-.78-1.57a25.25,25.25,0,0,1-1.18-3.29,30.81,30.81,0,0,1-.71-3.41C71,87.19,71,86.61,70.93,86a5.66,5.66,0,0,1,.1-1.69,3.38,3.38,0,0,1,0-1.88c-.18,0-1.39.18-1.57.21a19.89,19.89,0,0,0-2.36.7,11.43,11.43,0,0,1,.26,1.32c0,1.24.58,1.54.58,1.54s1.41,3.39,2.08,5.08c.33.86.67,1.69,1,2.58a10.31,10.31,0,0,1,.31,1.37l.29,1.49-.48.65c-.54-.46-2.61-.28-2.61-.28a4.81,4.81,0,0,1-1.27-1.71c-.25-.53-.54-1-.78-1.57a25.79,25.79,0,0,1-1.18-3.29c-.3-1.13-.52-2.26-.71-3.41-.08-.57-.15-1.15-.19-1.73a5.75,5.75,0,0,1,.1-1.7,2,2,0,0,1-.1-1.32,7.85,7.85,0,0,0-3.81.35,10.29,10.29,0,0,1,.26,1.32c0,1.24.58,1.54.58,1.54s1.42,3.39,2.08,5.09c.33.85.67,1.69,1,2.58a12.41,12.41,0,0,1,.3,1.36l.29,1.5-1.56,2.12.28.39,1.76-1.52s.43,2.51,1.59,3.08a26.63,26.63,0,0,0,5.59.62,4.89,4.89,0,0,1-.7-2.54l-.37-.14h0l.45-.39s.43,2.51,1.59,3.08,8.7.73,8.7.73c-.21-.68.39-1.53,1.28-2.33-.57-.17-1.17-.31-1.76-.43C80.9,98.59,78.76,98.75,77.75,98.64Zm-7-.73,0,.06h-.11Z"/></svg>