<svg id="Layer_1" data-name="Layer 1" xmlns="http://www.w3.org/2000/svg" width="128" height="128" viewBox="0 0 128 128"><title>Artboard 56</title><path d="M37.35,82.85a4.7,4.7,0,0,1-1.64-.39l-.3.09c-.93.26-1.86.49-2.8.67l-.58.11c-.68.6-1.37,1.18-2.08,1.76-1,.84-2.11,1.65-3.21,2.44S24.5,89,23.36,89.73c-.57.35-1.17.71-1.73,1a2.24,2.24,0,0,0-.9,1.49,4.23,4.23,0,0,0,2.45.64,5.49,5.49,0,0,0,2.49-.76A40.39,40.39,0,0,0,30,88.86c1.43-1.17,2.89-2.3,4.34-3.44,1.11-.89,2.24-1.73,3.38-2.58A2.84,2.84,0,0,1,37.35,82.85Zm25.14,1A30.26,30.26,0,0,1,62,80.6a17.65,17.65,0,0,1-2,.48c-.56.1-1.1.16-1.65.24a35.46,35.46,0,0,1,1.64,3.54l.09.23c0,.09.07.16.09.16a.17.17,0,0,0,.14.07.21.21,0,0,0,.12,0c.13-.06.31-.16.47-.22A3.73,3.73,0,0,1,62,84.82a2,2,0,0,1,.73.08Zm-1.32,17.47c.27-.3,3.72-.84,5.32-1.46a2.1,2.1,0,0,1-.78-.28,1.64,1.64,0,0,1-.63-.77c-.12-.3-.2-.57-.29-.86-.33-1.11-.62-2.24-.9-3.36s-.55-2.26-.76-3.39a32.41,32.41,0,0,1-.45-3.48v-.11a5.93,5.93,0,0,0,.14-2.36h0v0a5.19,5.19,0,0,0-1.47.69l-.43.24a1.11,1.11,0,0,1-.72.07c.37,1.52.83,3,1.24,4.57s.9,3.34,1.29,5c.19.86.37,1.7.49,2.59a4.91,4.91,0,0,1,.06.68,1.94,1.94,0,0,1,0,.4A.87.87,0,0,1,63,100a4.27,4.27,0,0,1-1.27.68c-1.49.55-4.36.55-4.59.88s.23.91.23.91a21.56,21.56,0,0,1,3.86-.43C61.15,101.87,60.9,101.63,61.17,101.34Zm12.3-.77a14.84,14.84,0,0,1-2.34-.64A1.84,1.84,0,0,1,69.92,99a11.52,11.52,0,0,1-.46-1.12c-.56-1.48-1.09-3-1.6-4.45l-.73-2.25a19.81,19.81,0,0,1-.61-2.33v-.06a3.64,3.64,0,0,0,.25-1.91h0a9.2,9.2,0,0,0-2.41-.26,1.35,1.35,0,0,1-.81-.3c.49,1.59,1,2.91,1.56,4.48l1,2.46a25.63,25.63,0,0,0,1.13,2.38,13,13,0,0,1,1,2.54,3.37,3.37,0,0,1,.12.73,1.41,1.41,0,0,1-.23.9,1.93,1.93,0,0,1-.69.5,6.06,6.06,0,0,1-.65.28c-1.66.53-4.72.71-5,1s.23.75.35,1.12c0,0,6.61-1.22,7-1.25a3.84,3.84,0,0,1,1.07,0c2.58.23,5.12.58,7.66,1v-1.28A42.07,42.07,0,0,1,73.47,100.57ZM95,32.47a14.78,14.78,0,0,0-2.32-.39,14,14,0,0,1-2.41-.37l0-.09c.8,0,1.6,0,2.4,0a12,12,0,0,1,2.46.16,19.11,19.11,0,0,1,4.69,1.48,33.34,33.34,0,0,1,4.25,2.39A34.7,34.7,0,0,1,107.27,38a7.55,7.55,0,0,0-1.1-1.71,11.41,11.41,0,0,0-2.19-2c-.82-.58-1.67-1.12-2.53-1.62l-2.59-1.48-.16-.09,0-.15a1.26,1.26,0,0,0-.37-.51,1.35,1.35,0,0,0-.26-.15,2.78,2.78,0,0,0-.38-.12c-1.62-.35-1.67-.64-2-1.06a7.42,7.42,0,0,0-1.09-1,4.46,4.46,0,0,0-1.6-.91,21.08,21.08,0,0,0-3.79-.38H89l-.12-.09a4,4,0,0,0-2.85-1,8.79,8.79,0,0,0-3.13.67,4.75,4.75,0,0,0-2.37,1.89c-.28.45-.51.95-.81,1.48a5.71,5.71,0,0,0-.5,1.48c-.49,2.18-.76,4.44-1.14,6.69s-.83,4.47-1.29,6.71a17.11,17.11,0,0,1-.41,1.68,6,6,0,0,1-.32.82,1.44,1.44,0,0,1-.63.66,7.83,7.83,0,0,1-3.41.66c-.57,0-1.15,0-1.71,0a8.3,8.3,0,0,0-1.65.14c-1.1.19-2.19.45-3.28.75s-2.2.6-3.21,1a12.69,12.69,0,0,0-2.81,1.7,18.38,18.38,0,0,0-2.44,2.31,13.9,13.9,0,0,0-1.7,2.33c1.45-1.24,2.9-2.48,4.47-3.62a10.29,10.29,0,0,1,1.9-1.14c.69-.29,1.35-.51,2-.75,1.35-.49,2.7-1,4.12-1.35A8.73,8.73,0,0,1,70,49.4c.73,0,1.45,0,2.17,0,1.41,0,5.78.19,4.36.51a25.83,25.83,0,0,1-4.35.34,18.68,18.68,0,0,0-4.2.27c-1.36.35-2.72.8-4.07,1.26l-2,.69a10.9,10.9,0,0,0-1.83,1c-2.24,1.51-4.36,3.27-6.61,4.82a2.55,2.55,0,0,0-.54.5c-.8,1.06-1.64,2.07-2.5,3.08-1,1.19-2.06,2.33-3.11,3.49S45.16,67.61,44,68.69c-.58.55-1.19,1-1.69,1.57A8.65,8.65,0,0,0,41,72.06l0,.06,0,0a28.47,28.47,0,0,0-3.35,3.24A19,19,0,0,0,36.27,77a6.81,6.81,0,0,0-1,1.95v0a15.44,15.44,0,0,1-1.11,2.23c-.19.3-.37.58-.57.87.53-.14,1.06-.29,1.57-.45a14.72,14.72,0,0,0,3.26-2.15l1-1,2-2,4.23-3.76c.67-.67,1.35-1.33,2-2S49,69.34,49.59,68.6l.07.06a40.41,40.41,0,0,1-3.53,4.5c-1.26,1.43-2.74,2.58-4,4l-2,2.07-1,1-.49.5a9.06,9.06,0,0,1-1.89,1.42c.19,0,.39,0,.57,0A3.9,3.9,0,0,0,39,81.5a19.87,19.87,0,0,0,1.67-1.15,12.57,12.57,0,0,0,1.47-1.45A28.37,28.37,0,0,1,45,76a21.53,21.53,0,0,1,3.37-2.39l0,.07a21.23,21.23,0,0,1-2.75,3.08,30.56,30.56,0,0,1-3.22,2.55,12.45,12.45,0,0,0-1.6,1.3,11.94,11.94,0,0,0-.89,1c-.19.3-.33.71,0,.91a1.66,1.66,0,0,0,1,.23,4.69,4.69,0,0,0,2-.51,3.33,3.33,0,0,0,.78-.65l.76-.8L46,79.19c1-1.1,1.92-2.23,3-3.26A34.47,34.47,0,0,1,52.3,73l.07.06a32.09,32.09,0,0,1-2.72,3.5c-.48.55-1,1.08-1.52,1.59l-2.87,2.74a4.53,4.53,0,0,0,2.44-.34l.92-.85L50.43,78,54,74.46c1.21-1.17,2.38-2.34,3.63-3.51l0,.08-3.38,3.72-3.44,3.68c-.58.61-1.15,1.22-1.75,1.81l-.91.9-.47.44-.12.09.21,0c.4.05.81.08,1.21.09a12,12,0,0,0,2.33-.15c.88-.61,1.8-1.38,2.67-2.12s1.8-1.55,2.69-2.34l5.32-4.78,0,0h0c1.23-.77,2.47-1.5,3.76-2.18a13.11,13.11,0,0,1,2-.91,13,13,0,0,1,2.18-.41A33.87,33.87,0,0,0,74.25,68a7.1,7.1,0,0,0,3.42-2.22,52.24,52.24,0,0,0,5-6.21A6.58,6.58,0,0,0,84,55.63c0-1.41,0-4.38,0-4.38a11.57,11.57,0,0,1,.86,4.26,7.27,7.27,0,0,1-1.35,4.12,75.33,75.33,0,0,1-5.36,6.76,14.19,14.19,0,0,1-1.59,1.51,5.42,5.42,0,0,1-2,1,33.23,33.23,0,0,1-4.29.74,16,16,0,0,0-2,.43,13,13,0,0,0-1.86.87c-1.24.68-2.45,1.42-3.63,2.18q-2.61,2.44-5.28,4.78c-.91.79-1.8,1.57-2.73,2.34l-.7.59c.4-.06.79-.12,1.19-.16.8-.09,1.61,0,2.42,0s1.61,0,2.42-.06a14.87,14.87,0,0,0,2-.18c-.07-.81-.11-1.62-.11-2.44H62a28.78,28.78,0,0,1,1.28,5.77l.09,1.48,0,.34a.32.32,0,0,0,.1.19.33.33,0,0,0,.24.09l.41.11a3.41,3.41,0,0,0,1.44.22c.61,0,1.29.07,1.34,0s.15-.15.27-.42.21-.46.32-.68c.21-.45.44-.88.68-1.31.47-.87.93-1.74,1.41-2.58L71.1,78.7a12.31,12.31,0,0,0,1.26-2.61h.1A7.76,7.76,0,0,1,71.77,79a.08.08,0,0,0,0,0,4,4,0,0,0,1.11-.26c.44-.21,1-.51,1.42-.76a5.51,5.51,0,0,0,1.16-1c.36-.4.73-.8,1.07-1.22.68-.83,1.36-1.69,2-2.56s1.29-1.67,2-2.53a12,12,0,0,1,1.38-2.91c.57-.92,1.2-1.79,1.73-2.71A19.07,19.07,0,0,0,86,59.17,25.91,25.91,0,0,0,86.44,56c.09-1.05.18-2.11.18-3.16a21.22,21.22,0,0,0-.61-6,2.26,2.26,0,0,1-.26,0,1.33,1.33,0,0,1-1-.83A11.82,11.82,0,0,1,84,43.91c-.16-.71-.3-1.42-.47-2.12s-.37-1.41-.57-2.11a18.53,18.53,0,0,0-.67-2,9.87,9.87,0,0,1-.71-2.13,7.11,7.11,0,0,1-.2-1.12,3.09,3.09,0,0,1,.08-1.26.8.8,0,0,1,.31-.37,1.3,1.3,0,0,1,.33-.14,2.68,2.68,0,0,1,.6-.1,10.63,10.63,0,0,1,1.13,0,6.37,6.37,0,0,1,1.87.44,3.3,3.3,0,0,1,.5-1.47l.08,0c-.18.91-.21,2.22.59,2.08.94.06,2,0,2.94.13s2,.29,3,.46c.5.08,1,.24,1.47.33s1,.16,1.46.23A40.49,40.49,0,0,1,101.58,36a24.14,24.14,0,0,1,3.65,1.41,49.82,49.82,0,0,0-5.8-3.21A24.59,24.59,0,0,0,95,32.47Zm-7.55-3.69a2,2,0,0,1-1.23.75A2,2,0,0,1,84.92,29a.28.28,0,0,1,0-.4,1.57,1.57,0,0,1,2.54-.2A.29.29,0,0,1,87.47,28.78Zm2.6,9.4a7.35,7.35,0,0,0-.52-.89,7.54,7.54,0,0,0-1.37-1.55,3.19,3.19,0,0,0-.42-.26,4,4,0,0,1-.52-.25.91.91,0,0,1-.39-.47.77.77,0,0,1,0-.37h-.07a1.18,1.18,0,0,1-.85-.47,1.31,1.31,0,0,1-.22-.73,7.91,7.91,0,0,0-1.89-.12,5.8,5.8,0,0,0-1,.11c-.32,0-.72.21-.65.26a2.41,2.41,0,0,0,0,.91,8.13,8.13,0,0,0,.22,1,19.4,19.4,0,0,0,.64,2,39.93,39.93,0,0,1,1.31,4.23,11.6,11.6,0,0,0,1.31,4.06c.18.29.43.48.62.46a.66.66,0,0,0,.35-.14l.48-.24a6.31,6.31,0,0,0,1.26-1,2.29,2.29,0,0,0,.57-.67,1.22,1.22,0,0,0,0-.17l.06-.27.16-.55c.2-.71.53-1.42.7-2a8.2,8.2,0,0,0,.33-2A1.42,1.42,0,0,0,90.07,38.18Z"/><path d="M33.74,12.31V9.88h5.11v5.71a6.48,6.48,0,0,1-2.19,1.56,6.64,6.64,0,0,1-2.84.65A5.56,5.56,0,0,1,30.75,17a5.75,5.75,0,0,1-2.1-2.56,9.53,9.53,0,0,1-.78-4,9.39,9.39,0,0,1,.79-4,5.83,5.83,0,0,1,2-2.51,5.33,5.33,0,0,1,3-.83,5,5,0,0,1,3.36,1.07,5,5,0,0,1,1.63,3.14l-2.34.54a3,3,0,0,0-1-1.69,2.55,2.55,0,0,0-1.68-.59,3,3,0,0,0-2.45,1.18,5.66,5.66,0,0,0-.94,3.59,6.44,6.44,0,0,0,1,3.93,2.76,2.76,0,0,0,2.35,1.16A3.55,3.55,0,0,0,35.12,15a4.63,4.63,0,0,0,1.33-.89V12.31Z"/><path d="M41.24,17.56V3.24h5A6.91,6.91,0,0,1,49,3.63,3.06,3.06,0,0,1,50.32,5a4.63,4.63,0,0,1,.52,2.28A4.21,4.21,0,0,1,50,10a3.54,3.54,0,0,1-2.29,1.29A6,6,0,0,1,49,12.44a17.68,17.68,0,0,1,1.36,2.33l1.42,2.79H49l-1.71-3.11A20.63,20.63,0,0,0,46,12.33a1.77,1.77,0,0,0-.7-.58,3.15,3.15,0,0,0-1.19-.17h-.49v6ZM43.61,9.3h1.76a9.16,9.16,0,0,0,2.05-.14,1.36,1.36,0,0,0,.71-.57,2.15,2.15,0,0,0,.27-1.15,2,2,0,0,0-.27-1.1,1.45,1.45,0,0,0-.74-.57,9.85,9.85,0,0,0-1.93-.1H43.61Z"/><path d="M52.79,10.49a10,10,0,0,1,.76-4.21,5.61,5.61,0,0,1,2-2.47,5.22,5.22,0,0,1,3-.81,5.07,5.07,0,0,1,4.1,1.92,8.4,8.4,0,0,1,1.59,5.48A8.55,8.55,0,0,1,62.5,16a5.44,5.44,0,0,1-8,0A8.43,8.43,0,0,1,52.79,10.49Zm2.44-.1a6.14,6.14,0,0,0,.94,3.71,2.83,2.83,0,0,0,2.33,1.23,2.78,2.78,0,0,0,2.32-1.22,6.3,6.3,0,0,0,.92-3.77,6.12,6.12,0,0,0-.9-3.68A2.8,2.8,0,0,0,58.5,5.47a2.84,2.84,0,0,0-2.36,1.2A6.21,6.21,0,0,0,55.23,10.39Z"/><path d="M66.21,3.24h2.37V11a18.61,18.61,0,0,0,.09,2.35,2.41,2.41,0,0,0,.74,1.47,2.67,2.67,0,0,0,2.91.15A1.88,1.88,0,0,0,73,14a13,13,0,0,0,.19-2.79V3.24h2.36v7.52a19.59,19.59,0,0,1-.31,4.17A3.56,3.56,0,0,1,73.89,17,4.69,4.69,0,0,1,71,17.8a5.4,5.4,0,0,1-2.87-.65,3.78,3.78,0,0,1-1.49-1.86,14,14,0,0,1-.47-4.41Z"/><path d="M78.3,17.56V3.24h2.3l4.81,9.56V3.24h2.21V17.56H85.23L80.51,8.22v9.34Z"/><path d="M90.3,3.24h4.32a6.47,6.47,0,0,1,2.47.37,4.1,4.1,0,0,1,1.54,1.24,6.39,6.39,0,0,1,1.1,2.25,12.57,12.57,0,0,1,.4,3.45,11.1,11.1,0,0,1-.42,3.23A6.46,6.46,0,0,1,98.65,16a4.17,4.17,0,0,1-1.56,1.21,5.82,5.82,0,0,1-2.34.4H90.3Zm2.36,2.43v9.47h1.78a4.42,4.42,0,0,0,1.65-.22,2.05,2.05,0,0,0,.84-.64,3.65,3.65,0,0,0,.54-1.38,10.87,10.87,0,0,0,.22-2.46,11.06,11.06,0,0,0-.22-2.51,3.45,3.45,0,0,0-.68-1.44,2.15,2.15,0,0,0-1.13-.7,10,10,0,0,0-1.93-.12Z"/><path d="M21.8,123.76V109.44h2.36v5.63h4.66v-5.63h2.36v14.32H28.82V117.5H24.16v6.26Z"/><path d="M33.34,116.69a10.28,10.28,0,0,1,.76-4.22,5.63,5.63,0,0,1,2-2.46,5.15,5.15,0,0,1,3-.81,5.06,5.06,0,0,1,4.1,1.92,8.38,8.38,0,0,1,1.59,5.48,8.52,8.52,0,0,1-1.68,5.61,4.92,4.92,0,0,1-4,1.79,5,5,0,0,1-4-1.77A8.41,8.41,0,0,1,33.34,116.69Zm2.45-.1a6.11,6.11,0,0,0,.93,3.7,2.83,2.83,0,0,0,2.33,1.24,2.79,2.79,0,0,0,2.32-1.23,6.27,6.27,0,0,0,.92-3.76,6.1,6.1,0,0,0-.9-3.68,2.76,2.76,0,0,0-2.34-1.19,2.84,2.84,0,0,0-2.36,1.2A6.21,6.21,0,0,0,35.79,116.59Z"/><path d="M46.8,123.76V109.44h5a6.89,6.89,0,0,1,2.73.39,3,3,0,0,1,1.35,1.33,4.68,4.68,0,0,1,.53,2.28,4.27,4.27,0,0,1-.81,2.71,3.62,3.62,0,0,1-2.29,1.29,5.76,5.76,0,0,1,1.26,1.19A18.4,18.4,0,0,1,55.92,121l1.42,2.8H54.52l-1.72-3.12a20,20,0,0,0-1.26-2.11,1.8,1.8,0,0,0-.7-.59,3.19,3.19,0,0,0-1.19-.16h-.49v6Zm2.36-8.27h1.76a8.56,8.56,0,0,0,2-.14,1.27,1.27,0,0,0,.71-.57,2.14,2.14,0,0,0,.27-1.14,2,2,0,0,0-.27-1.1,1.35,1.35,0,0,0-.74-.57,9.43,9.43,0,0,0-1.93-.11H49.16Z"/><path d="M58.85,123.76V109.44h2.31L66,119v-9.56h2.21v14.32H65.78l-4.72-9.34v9.34Z"/><path d="M70.86,109.44h4.7a7.41,7.41,0,0,1,2.71.35A3.06,3.06,0,0,1,79.59,111a4,4,0,0,1,.07,3.88,3,3,0,0,1-1.19,1.24,3.18,3.18,0,0,1,1.63,1.27,3.93,3.93,0,0,1,.59,2.19,4.51,4.51,0,0,1-.75,2.64,3.06,3.06,0,0,1-1.78,1.33,17.94,17.94,0,0,1-3.31.18h-4Zm2.36,2.38v3.31h1.56a15.07,15.07,0,0,0,1.74,0,1.44,1.44,0,0,0,1-.51,1.71,1.71,0,0,0,.34-1.13,1.74,1.74,0,0,0-.28-1,1.14,1.14,0,0,0-.67-.49,13.58,13.58,0,0,0-2.27-.1Zm0,5.7v3.81h2.2a6.91,6.91,0,0,0,1.86-.15,1.35,1.35,0,0,0,.69-.59,2.39,2.39,0,0,0,0-2.28,1.51,1.51,0,0,0-.79-.62,7.27,7.27,0,0,0-2-.17Z"/><path d="M82.83,123.76V109.44h2.36v14.32Z"/><path d="M87.72,123.76v-14.2h2.37v11.77H96v2.43Z"/><path d="M97.94,123.76v-14.2h2.37v11.77h5.89v2.43Z"/></svg>