<svg id="Layer_1" data-name="Layer 1" xmlns="http://www.w3.org/2000/svg" width="128" height="128" viewBox="0 0 128 128"><title>Artboard 90</title><path d="M41.8,110.17h4.11a6.11,6.11,0,0,1,2.34.34,4,4,0,0,1,1.46,1.18,5.87,5.87,0,0,1,1,2.14,11.77,11.77,0,0,1,.38,3.28,10.37,10.37,0,0,1-.4,3.06,6.06,6.06,0,0,1-1,2.07,3.84,3.84,0,0,1-1.48,1.14,5.42,5.42,0,0,1-2.22.39H41.8Zm2.24,2.3v9h1.69a4.32,4.32,0,0,0,1.58-.21,1.84,1.84,0,0,0,.79-.61,3.58,3.58,0,0,0,.52-1.31,11.23,11.23,0,0,0,.2-2.34,10.59,10.59,0,0,0-.21-2.38,3.07,3.07,0,0,0-.65-1.37,2,2,0,0,0-1.07-.66,8.83,8.83,0,0,0-1.82-.12Z"/><path d="M53.22,110.17h2.25v7.36a19.83,19.83,0,0,0,.08,2.24,2.3,2.3,0,0,0,.71,1.39,2.18,2.18,0,0,0,1.49.49A2.1,2.1,0,0,0,59,121.3a1.78,1.78,0,0,0,.68-1,11.91,11.91,0,0,0,.18-2.65v-7.52h2.24v7.14a19.31,19.31,0,0,1-.29,4,3.34,3.34,0,0,1-1.32,2,4.39,4.39,0,0,1-2.7.76,5,5,0,0,1-2.73-.63,3.48,3.48,0,0,1-1.41-1.76,13,13,0,0,1-.45-4.19Z"/><path d="M71.82,118.77l2.18.84A6.14,6.14,0,0,1,72.3,123a4.24,4.24,0,0,1-2.92,1,4.32,4.32,0,0,1-3.53-1.68,8.11,8.11,0,0,1-1.56-5.23,8.5,8.5,0,0,1,1.57-5.45,4.44,4.44,0,0,1,3.67-1.7,4.19,4.19,0,0,1,3.13,1.28,5.52,5.52,0,0,1,1.32,2.7l-2.22.64a3.09,3.09,0,0,0-.85-1.69,2.17,2.17,0,0,0-1.51-.59,2.38,2.38,0,0,0-2,1.08,6.2,6.2,0,0,0-.78,3.55,6.59,6.59,0,0,0,.76,3.66,2.31,2.31,0,0,0,2,1.08,2,2,0,0,0,1.54-.69A4.29,4.29,0,0,0,71.82,118.77Z"/><path d="M76.14,123.77v-13.6h2.24v6l4.56-6h3l-4.21,5.3,4.43,8.3H83.29l-3.08-6.39-1.83,2.28v4.11Z"/><path d="M12.48,16.83,9.81,3.23h2.31l1.67,9.35,2-9.35h2.68l2,9.51,1.72-9.51h2.27l-2.71,13.6h-2.4L17.12,6.66,14.91,16.83Z"/><path d="M25.8,16.83V3.23H28V8.58h4.43V3.23h2.24v13.6H32.47V10.89H28v5.94Z"/><path d="M37.16,16.83V3.23H39.4v13.6Z"/><path d="M44.26,16.83V5.53H41V3.23h8.86v2.3H46.5v11.3Z"/><path d="M51.46,16.83V3.23h8.28v2.3h-6v3h5.6v2.29h-5.6v3.69h6.23v2.3Z"/><path d="M66.57,16.83V3.23h7.65v2.3h-5.4V8.75H73.5v2.3H68.82v5.78Z"/><path d="M85.48,16.83H83l-1-3.08H77.59l-.92,3.08H74.28l4.34-13.6H81Zm-4.15-5.38-1.54-5-1.51,5Z"/><path d="M94,11.83l2.18.85A6.1,6.1,0,0,1,94.47,16a4.26,4.26,0,0,1-2.92,1A4.35,4.35,0,0,1,88,15.38a8.15,8.15,0,0,1-1.55-5.23A8.53,8.53,0,0,1,88,4.71,4.47,4.47,0,0,1,91.69,3a4.25,4.25,0,0,1,3.14,1.28A5.61,5.61,0,0,1,96.15,7l-2.23.65a2.93,2.93,0,0,0-.85-1.69,2.09,2.09,0,0,0-1.5-.59,2.39,2.39,0,0,0-2,1.07A6.14,6.14,0,0,0,88.77,10a6.54,6.54,0,0,0,.77,3.65,2.29,2.29,0,0,0,2,1.09A2,2,0,0,0,93.05,14,4.42,4.42,0,0,0,94,11.83Z"/><path d="M98.29,16.83V3.23h8.27v2.3h-6v3h5.61v2.29h-5.61v3.69h6.24v2.3Z"/><path d="M108.85,3.23H113a6.18,6.18,0,0,1,2.35.35,4,4,0,0,1,1.46,1.17,6.07,6.07,0,0,1,1,2.15,11.7,11.7,0,0,1,.38,3.27,10.39,10.39,0,0,1-.4,3.07,6,6,0,0,1-1,2.06,3.91,3.91,0,0,1-1.47,1.15,5.69,5.69,0,0,1-2.23.38h-4.23Zm2.25,2.3v9h1.68a4.6,4.6,0,0,0,1.58-.2,1.86,1.86,0,0,0,.79-.62,3.52,3.52,0,0,0,.52-1.3,10.68,10.68,0,0,0,.2-2.35,10.65,10.65,0,0,0-.21-2.38A3.07,3.07,0,0,0,115,6.31a2.18,2.18,0,0,0-1.08-.66,8.83,8.83,0,0,0-1.82-.12Z"/><path d="M84.14,61.27c1.06.16,2.12.35,3.17.57l.9.2.45.11.23.07.11,0h0v0h0l0-.07a2.87,2.87,0,0,0,.15-.37,2.84,2.84,0,0,0,.1-.57l-2.41-1.34L84.3,58.43,83,57.76c-.44-.2-.89-.39-1.35-.56a17.11,17.11,0,0,0-2.38-.68c.24.14.48.28.72.44a20.81,20.81,0,0,1,2.33,1.78,9.65,9.65,0,0,1,1,1.07,3.51,3.51,0,0,1,.76,1.4Z"/><path d="M82.5,63.16c1.17.7,2.35,1.36,3.51,2l1.81,1c.6.35,1.2.68,1.8,1a18.1,18.1,0,0,0,1.83.89,2.28,2.28,0,0,0,.87.22,5.25,5.25,0,0,1,1.11.13c.18,0,.36.12.5.15l.1,0s0,0,.09-.06a5,5,0,0,0,.43-.87c.21-.52.4-1,.62-1.57l-1.23-.33-1.58-.42a7.16,7.16,0,0,1-.84-.26,2.76,2.76,0,0,1-.8-.5c-.45-.44-.7-.9-1.09-1.26a3.78,3.78,0,0,0-.56-.49h0a.71.71,0,0,1-.21,0l-.12-.05-.21-.07-.44-.14-.88-.28c-1-.32-2-.64-3-1l0,.06a3.64,3.64,0,0,1-1,1.37A2.31,2.31,0,0,1,82.5,63.16Z"/><path d="M82.35,63.22a2.11,2.11,0,0,1-.45.1h-.29l-.21,0a22.89,22.89,0,0,1-3-1c-1-.37-1.89-.77-2.83-1.18-.74-.32-1.47-.66-2.19-1A21.89,21.89,0,0,1,74.66,62c.16.28.32.57.46.86a7.66,7.66,0,0,1,2,0,9,9,0,0,1,2.21.67,12.34,12.34,0,0,1,2,1,5.78,5.78,0,0,1,1.66,1.57l0,0a5.8,5.8,0,0,0-1.77-1.34A11.87,11.87,0,0,0,79.19,64c-.71-.23-1.44-.34-2.15-.52l-1.83-.44a4.74,4.74,0,0,1,.34,1.16,1.27,1.27,0,0,1,0,.28,8.06,8.06,0,0,0,1.18.66c.55.27,1.11.51,1.67.73,1.13.46,2.27.87,3.43,1.26l1.73.56.87.27.42.14a.69.69,0,0,0,.35,0,.81.81,0,0,0,.33-.14l.33-.3a.82.82,0,0,0,.27-.68.81.81,0,0,0-.12-.37l-.25-.38c-.16-.26-.32-.5-.47-.76a21.77,21.77,0,0,1-2.83-2.33Z"/><path d="M97.18,66.6c-.66-.11-1.3-.26-1.93-.42-.11.56-.21,1.11-.35,1.66,0,.12-.06.24-.1.36A37.58,37.58,0,0,0,99,69.66a23.17,23.17,0,0,0,2.3.53,12.22,12.22,0,0,0,2,.21c-.87-1.1-1.71-2.2-2.6-3.25-.49-.56-1-1.12-1.51-1.64L98.65,65a2.43,2.43,0,0,1,.14.86,1,1,0,0,1-.17.51.78.78,0,0,1-.54.28A4.37,4.37,0,0,1,97.18,66.6Z"/><path d="M67.3,56.75c1.26.63,2.53,1.26,3.74,2a12.13,12.13,0,0,1,1.81,1.29C72.16,59,71.41,58,70.62,57a6.77,6.77,0,0,0-1-.91A7.36,7.36,0,0,0,66.89,55a2.33,2.33,0,0,1,.32.36,1,1,0,0,1,.14.24.9.9,0,0,1,.06.22,1.25,1.25,0,0,1,0,.43A1.54,1.54,0,0,1,67.3,56.75Z"/><path d="M93.05,70.05c.73.25,1.45.51,2.17.73s1.5.45,2.26.62a22.32,22.32,0,0,0,2.28.43c.54.07,1.07.12,1.61.15l0-.06a7.31,7.31,0,0,0-.41-.66,9.78,9.78,0,0,0-.93-1.13c-.34-.09-.69-.19-1-.3a39.07,39.07,0,0,1-4.17-1.62,2.72,2.72,0,0,1-.28.68.63.63,0,0,1-.3.28.86.86,0,0,1-.41,0l-.51-.11a5.13,5.13,0,0,0-1,0H92l-.3,0-.54-.16a15.06,15.06,0,0,1-2-.89,34.34,34.34,0,0,1-3.57-2.22l-.19-.13c.16.17.31.35.46.53l.3.35a1.12,1.12,0,0,1,.21.47,1.06,1.06,0,0,1-.31,1c-.12.12-.2.22-.33.34a1.16,1.16,0,0,1-.49.26,1.14,1.14,0,0,1-.55,0l-.45-.13-.86-.3-1.72-.64c-1.14-.43-2.27-.88-3.39-1.38-.56-.25-1.11-.51-1.64-.8a8.25,8.25,0,0,1-1.13-.71,1.34,1.34,0,0,1-.08.37,2.3,2.3,0,0,1-.36.58,3.67,3.67,0,0,1-1,.81,2.55,2.55,0,0,1-.64.23,1.35,1.35,0,0,1-.79,0,1.3,1.3,0,0,1-.38-.24l-.19-.16-.43-.34c-.94-.73-1.92-1.46-2.85-2.24l.13.33a7.22,7.22,0,0,1,.42,2.43H70a11.89,11.89,0,0,1,2.21.21,5.94,5.94,0,0,0,2.11.13,6.18,6.18,0,0,1,2.25.27,8.66,8.66,0,0,1,3.59,2.66l.23.26,1.41.12c.72.05,1.43.08,2.13.06A16.21,16.21,0,0,0,86,69.85,18.47,18.47,0,0,0,88,69.4l.26-.08.16.21a3.18,3.18,0,0,0,2.11,1.15,3.51,3.51,0,0,0,1.29-.05A3,3,0,0,0,93,70.06l0,0,.07,0Z"/><path d="M64.4,65.48c.24.19.46.38.68.58s.39.37.63.56c.68-.11,1.36-.19,2.05-.25l1.52-.06a17.41,17.41,0,0,0-.88-2.18q-.65-1.18-1.41-2.31c-.51-.75-1.08-1.46-1.64-2.18l-.13-.16a1.07,1.07,0,0,1-.14.39A1.18,1.18,0,0,1,65,60a1.27,1.27,0,0,1-.1.12,5.34,5.34,0,0,1-.89.76,4,4,0,0,1-1.09.55,1.86,1.86,0,0,1-.34,0,1.34,1.34,0,0,1-.36,0,5.17,5.17,0,0,1-.54-.11,9.52,9.52,0,0,1-1.08-.29,12.62,12.62,0,0,1-2-.89l-.06,0s.05.08.07.13a4.91,4.91,0,0,1,.55,2c0,.18,0,.35,0,.52a3,3,0,0,1-.09.52,1.79,1.79,0,0,1-.26.6,11.2,11.2,0,0,1,2.89.67,2,2,0,0,1,.41.24,1,1,0,0,1,.23.23.7.7,0,0,1,.11.47,1.23,1.23,0,0,1-.27.53,3,3,0,0,1-.31.31,6.56,6.56,0,0,1-.88.64l.49-.09a8,8,0,0,1,1.1-.1,3.62,3.62,0,0,1,1.19.12,1.33,1.33,0,0,1,.24.12,8.46,8.46,0,0,1,1.19-.34,2.48,2.48,0,0,1-.39-.1,3.59,3.59,0,0,1-.86-.48,3.76,3.76,0,0,1-.69-.69,2.74,2.74,0,0,1-.47-.88,3.88,3.88,0,0,1,.9.39A7.34,7.34,0,0,1,64.4,65.48Z"/><path d="M66.3,58.47c-.58-.32-1.21-.53-1.81-.8l-.82-.37.52.54.07.07a12,12,0,0,1,1.56,1.29,13.55,13.55,0,0,1,1.85,2.15,12.74,12.74,0,0,1,1,1.76,28.45,28.45,0,0,1,3.52,2c.16.11.32.22.48.35s.16.13.24.19,0,0,.06,0,0,0,0,0a1.12,1.12,0,0,0,.75-.13,2.63,2.63,0,0,0,.8-.56,1.36,1.36,0,0,0,.26-.36.28.28,0,0,0,0-.16.59.59,0,0,0,0-.23,5.8,5.8,0,0,0-.69-2c-.18-.34-.37-.67-.57-1s-.68-.61-1-.89c-.56-.46-1.12-.92-1.72-1.34-1.15-.8-2.38-1.51-3.59-2.24a2.11,2.11,0,0,1-.18.27,1.11,1.11,0,0,1-.42.28,1.58,1.58,0,0,1-.43.09c-.22,0-.43,0-.64,0a10.65,10.65,0,0,1,1,.58,9.07,9.07,0,0,1,1.58,1.32,5.36,5.36,0,0,1,1.1,1.73l-.06,0A6.94,6.94,0,0,0,66.3,58.47Z"/><path d="M49.67,52.62c-.1.18-.19.36-.28.54l-.13.28a2,2,0,0,1-.18.32,3.28,3.28,0,0,1-1,.9l-.14.5c0,.19-.06.36-.06.53a4.41,4.41,0,0,0,0,.52,5.66,5.66,0,0,0,.7,2.06A7.29,7.29,0,0,0,50.13,60,7,7,0,0,0,52,61.28a8.73,8.73,0,0,1,2,.36,8,8,0,0,1,2.23,1,2.47,2.47,0,0,1,.27.21l.06,0a.59.59,0,0,1,.14.18.59.59,0,0,1,0,.43.65.65,0,0,1-.21.33,15,15,0,0,1,2,.08h0a3.62,3.62,0,0,0,0-1.57A6.67,6.67,0,0,0,58,60.56a5.57,5.57,0,0,0-1.11-1.49,4.14,4.14,0,0,0-1.67-.93,2.94,2.94,0,0,1,2,.55,3.81,3.81,0,0,1,.87.83l.67.27a16.89,16.89,0,0,0,2,.62c.34.08.68.16,1,.21l.52.07a.38.38,0,0,0,.18,0l.19,0a4,4,0,0,0,1.57-1.09l.08-.09,0-.06a.21.21,0,0,0,0-.07.19.19,0,0,0,0-.08s0,0,0,0h0l0,0-.72-.81-1.42-1.62c-1-1.08-1.86-2.2-2.88-3.23a13.08,13.08,0,0,1,1.75,1.31c.55.47,1.08,1,1.6,1.46.1.1.19.2.29.29a9.79,9.79,0,0,0,1.94.17,10.07,10.07,0,0,0,1.25-.09c.22,0,.27-.06.35-.14a.77.77,0,0,0,.12-.36.6.6,0,0,0,0-.23.36.36,0,0,0,0-.1s0,0,0,0a3.61,3.61,0,0,0-.39-.43c-.3-.3-.63-.58-1-.86a20.57,20.57,0,0,0-2.08-1.61A7.19,7.19,0,0,1,65.59,54a9.32,9.32,0,0,1,1.09.81,7,7,0,0,1,3.18.86c.21.12.42.25.62.39a8.56,8.56,0,0,1,2.26.11,12.75,12.75,0,0,1,2.52.8,17.21,17.21,0,0,1,2.36,1.16,6.57,6.57,0,0,1,2,1.69l0,0a6.64,6.64,0,0,0-2.1-1.45,16,16,0,0,0-2.39-1c-.82-.27-1.66-.43-2.48-.66l-1.76-.44a2.86,2.86,0,0,1,.56.59,3.61,3.61,0,0,1,.67,1.57c.38.45.75.91,1.11,1.39.89.2,1.76.45,2.62.72s2,.62,2.91,1l1.44.48a14.43,14.43,0,0,0,1.41.46l.17,0,.09,0a2.07,2.07,0,0,0,.3-.05,1.61,1.61,0,0,0,.56-.27,2.8,2.8,0,0,0,.76-1,3,3,0,0,0-.56-1,9.29,9.29,0,0,0-.94-1,21.77,21.77,0,0,0-2.21-1.84c-.78-.57-1.58-1.1-2.41-1.6-.42-.24-.84-.48-1.27-.69a6.77,6.77,0,0,0-1.15-.47,2.29,2.29,0,0,1,.31.74,4.55,4.55,0,0,0-1.11-1,9,9,0,0,0-1.3-.76,9.46,9.46,0,0,0-1.37-.57,3.72,3.72,0,0,0-1.34-.22l-.27,0-.14-.2a2.78,2.78,0,0,0-.61-.72,4.06,4.06,0,0,0-.83-.53,7,7,0,0,0-1-.4l-1-.35a6.34,6.34,0,0,1,2.2.21,3.76,3.76,0,0,1,1.06.49,3.17,3.17,0,0,1,.71.66,3.62,3.62,0,0,1,1.46.25,7.43,7.43,0,0,1,1.47.72,6.28,6.28,0,0,1,1.25,1,3.62,3.62,0,0,1,.42.53,6.42,6.42,0,0,1,1.3.44c.45.19.89.4,1.32.62s1.11.61,1.65,1a11,11,0,0,1,2.68.31,14.2,14.2,0,0,1,2.84,1c.91.42,1.8.89,2.68,1.36s1.73,1,2.58,1.51l.19.12v.18A2.81,2.81,0,0,1,89.89,62a4,4,0,0,1-.21.47l-.08.13a.75.75,0,0,1-.15.16l0,0c.16.09.33.18.49.29.48.32.87.79,1.25,1.08a3,3,0,0,0,1.39.49c.55.1,1.09.25,1.63.39l1.59.46c.52.17,1,.32,1.56.46a4.85,4.85,0,0,0,.74.15c.11,0,.15,0,.2,0a.45.45,0,0,0,.13-.25,2,2,0,0,0,0-.77,2.34,2.34,0,0,0,0-.26c-.28-.25-.57-.48-.86-.7a43,43,0,0,0-3.71-2.5,23.57,23.57,0,0,0-3.93-2l-.07,0,0-.05A20.23,20.23,0,0,0,86,57.09c-1.33-.69-2.71-1.3-4.1-1.91h0l0,0a29.28,29.28,0,0,0-6.51-2.67c-1.14-.38-2.26-.81-3.37-1.28-.56-.24-1.09-.48-1.63-.68A16.34,16.34,0,0,0,68.65,50a30,30,0,0,0-7-.75c-1.19,0-2.38.06-3.56.17-.59.06-1.18.14-1.76.24l-.88.16L55,50l-.21.06h0s0,0,0,0h0a4.75,4.75,0,0,1-.54.14l-.77.2a13.12,13.12,0,0,1-1.54.31,4.43,4.43,0,0,0-1.48,1A5.12,5.12,0,0,0,49.67,52.62Zm10-3.21a6.86,6.86,0,0,1,2.85.25,13,13,0,0,1,2.62,1.13,20.6,20.6,0,0,1,2.42,1.48A9.26,9.26,0,0,1,69.6,54.2l0,0a9.11,9.11,0,0,0-2.19-1.71,19.32,19.32,0,0,0-2.47-1.29c-.85-.38-1.73-.66-2.59-1a20.49,20.49,0,0,0-2.66-.79Z"/><path d="M65.12,98.37a1.36,1.36,0,0,0,.85-1A3,3,0,0,0,66,97c0-.36.06-.7.11-1,.09-.69.2-1.38.32-2.06.24-1.36.52-2.72.79-4.07.13-.68.26-1.36.37-2,0-.34.1-.68.13-1a.79.79,0,0,1,.19-.5A.92.92,0,0,0,68,86s0-.06,0-.1c-.11-.31-.23-.63-.36-.94v0a11.64,11.64,0,0,0,0-1.32l0-.65,0-.32v-.07h0l-.12-.11c-.11-.1-.3-.23-.46-.35l-.51-.36-.35-.22-.08.15a3.2,3.2,0,0,0-.17.43,6.59,6.59,0,0,0-.23.9,7.2,7.2,0,0,0-.11,1.85,2.86,2.86,0,0,0,.2.85,2.07,2.07,0,0,1,.1.26,2.7,2.7,0,0,1,0,.28,4.38,4.38,0,0,1,0,.51,14.94,14.94,0,0,1-.3,1.93c-.28,1.26-.64,2.49-1,3.72S63.9,94.82,63.48,96l-.08.25h-.27c-1.37,0-2.74,0-4.11.16-.68,0-1.36.1-2,.19l-.73.1a2.49,2.49,0,0,1,.67.55,1.81,1.81,0,0,1,.47,1.21s0,0,0,0l.21,0c.35,0,.7-.09,1.06-.12a5.31,5.31,0,0,1,1.12,0,1.61,1.61,0,0,1,.6.19,1.05,1.05,0,0,1,.3.22.89.89,0,0,1,.21.33,1,1,0,0,1,.06.22l.25,0,1-.17a16.25,16.25,0,0,0,2-.45A7.41,7.41,0,0,0,65.12,98.37Z"/><path d="M84,75.67l.32-.11.13,0,0,0a5.79,5.79,0,0,0,.46-1,2.88,2.88,0,0,0-.28-.33,4.31,4.31,0,0,0-.46-.39,5.55,5.55,0,0,0-1.06-.6,16.4,16.4,0,0,0-2.43-.78,27.26,27.26,0,0,0-5.08-.79l-1-.06.82-.62a6.28,6.28,0,0,1,2.13-1.07,11.13,11.13,0,0,1,1.69-.31,7.4,7.4,0,0,0-2.88-2.13,5.71,5.71,0,0,0-2.07-.29c-.36,0-.72,0-1.1,0a3.7,3.7,0,0,1-.57-.07c-.19,0-.38-.1-.54-.14A12.53,12.53,0,0,0,70,66.61l-.54,0v.1a.29.29,0,0,1,0-.1c-.54,0-1.07,0-1.61,0-.72,0-1.45.09-2.16.19a10.21,10.21,0,0,0-1.57.35l.11.11a.69.69,0,0,1,.08.21.91.91,0,0,1,0,.17.41.41,0,0,1,0,.14l0,.11a2.2,2.2,0,0,1-.34.57,5.1,5.1,0,0,1-.81.8,5.73,5.73,0,0,1-.93.61A2.74,2.74,0,0,1,61,70.2a7.84,7.84,0,0,0,1.55-1.43,9.08,9.08,0,0,0,.63-.79,1.34,1.34,0,0,0,.14-.26,5.09,5.09,0,0,0-.85-.1c-.35,0-.7,0-1,0l-1.56,0c-.29.12-.58.23-.87.32a3.88,3.88,0,0,1-1.55.21,5.52,5.52,0,0,0,1.39-.58c.44-.24.86-.51,1.27-.79a8.59,8.59,0,0,0,1.14-.91l.21-.23,0-.08a1.29,1.29,0,0,0-.24-.13,9.16,9.16,0,0,0-1.37-.45c-.48-.13-1-.24-1.47-.36L56.14,64l-.07,0a9.3,9.3,0,0,1-1.16.39,5.32,5.32,0,0,1-2.41.11,12.9,12.9,0,0,0,2.2-.73c.35-.16.7-.31,1-.49l.07,0h0a17.88,17.88,0,0,0-2-1.08l-2.1-1a7.51,7.51,0,0,1-1.83-.93,8.06,8.06,0,0,1-1.78-1.72,4.09,4.09,0,0,1-1-2.38,5.08,5.08,0,0,1,.07-.67,4.09,4.09,0,0,1,.18-.49l-.47.23a23.12,23.12,0,0,0-2.23,1.09A7.61,7.61,0,0,0,42.84,58a9.14,9.14,0,0,0-1.38,2,7,7,0,0,0-.68,4.12,29,29,0,0,0,1.44,2.62,16.18,16.18,0,0,0,3.21,3.82,10.19,10.19,0,0,0,1,.74c.34.22.7.43,1.08.64l2.22,1.25c1.47.83,3,1.66,4.46,2.43a31.07,31.07,0,0,0,4.61,2c.78.25,1.62.44,2.44.66a15.3,15.3,0,0,1,2.49.8A21.93,21.93,0,0,1,66,80.35l1.06.72.53.37c.15.11.27.2.42.33l1.71,0h.88a.05.05,0,0,1,0,0c.07-.15.14-.29.22-.44a8,8,0,0,1,1.1-1.6,2.25,2.25,0,0,1,.39-.36,1.64,1.64,0,0,1,.26-.16,1.48,1.48,0,0,1,.28-.09l.88-.25c1.18-.35,2.36-.71,3.53-1.1a28.12,28.12,0,0,0,3.41-1.35l.07,0h.08l.65.06c.21-.05.43-.09.64-.15.43-.11.86-.25,1.29-.39Zm-11.45-3.3a10.45,10.45,0,0,1-1.47.34,8.86,8.86,0,0,1-1.37.07,3.62,3.62,0,0,1-1.41.68,7.5,7.5,0,0,1-1.61.18c-.53,0-1.06,0-1.57,0a5.77,5.77,0,0,0-1.55.08,3.77,3.77,0,0,1,1.52-.49c.52-.09,1-.16,1.54-.23a9.68,9.68,0,0,0,1.46-.3,2.86,2.86,0,0,0,1.2-.62l.14-.13.17,0a9.24,9.24,0,0,0,1.39,0,13.59,13.59,0,0,0,1.41-.18A19,19,0,0,0,75.22,71a6.84,6.84,0,0,1-1.26.79A11.3,11.3,0,0,1,72.56,72.37Z"/><path d="M71.83,96l-.23-4.8-.1-2.4a17.32,17.32,0,0,1,.16-2.41,6.61,6.61,0,0,0,0-1.17,1.6,1.6,0,0,0-.14-.53l-.22-.56-.46-1.11c-.06-.17-.14-.34-.21-.51h0c-.33,0-.64,0-1,0l-1.72,0v0a1.84,1.84,0,0,1,0,.33c0,.23,0,.45,0,.67,0,.44-.08.87-.11,1.3.24.53.46,1.07.65,1.62a7.21,7.21,0,0,1,.41,1.75l0,3.52.1,7V99l-.17.08a30.17,30.17,0,0,1-4.57,1.59c-.39.1-.79.19-1.19.27l-.09,0a2.58,2.58,0,0,1,.87.69,1.86,1.86,0,0,1,.35.67,1.65,1.65,0,0,1,0,.38v.08h0l.59-.1a10.21,10.21,0,0,1,1.26-.1,3.34,3.34,0,0,1,.68.07,1.5,1.5,0,0,1,.74.36,1.08,1.08,0,0,1,.23.34,36.55,36.55,0,0,0,3.24-3.11l.4-.44.19-.21a2.14,2.14,0,0,0,.13-.19A1.17,1.17,0,0,0,72,99a.64.64,0,0,0,0-.24l0-.3Z"/><path d="M103.24,79.07c-.24-.3-.51-.59-.78-.88-.54-.59-1.1-1.17-1.66-1.74l-.84-.88-.41-.44L99.44,75l0-.06,0,0a.31.31,0,0,1,0-.35.31.31,0,0,1,.48-.11h0l0,0,0,0,.11.07a1.5,1.5,0,0,0,1,.18,2.08,2.08,0,0,0,.85-.37c-.09-.14-.19-.29-.3-.43l-.43-.59-.5-.67c-.31,0-.62,0-.93-.07a13.92,13.92,0,0,1-2.38-.47A13.75,13.75,0,0,1,95,71.29a12.63,12.63,0,0,1-2-1.22,2.48,2.48,0,0,1-1.07.87,3.62,3.62,0,0,1-1.42.31,3.76,3.76,0,0,1-1.47-.31,3.64,3.64,0,0,1-1-.71,11.8,11.8,0,0,1-1.94.43,11,11,0,0,1-2.22.09A13.5,13.5,0,0,1,80.35,70l-.45,0a10.21,10.21,0,0,0-2.15.4,4.8,4.8,0,0,0-.93.39,21.31,21.31,0,0,1,4.12.66,14.63,14.63,0,0,1,2.53.89,5.76,5.76,0,0,1,1.18.75,5.9,5.9,0,0,1,.51.49,3.68,3.68,0,0,1,.44.61l.08.14-.07.13a6.68,6.68,0,0,1-.71,1.26.48.48,0,0,1-.27.18l-.15.05-.33.08-.67.18c-.41.1-.83.16-1.25.23a35.76,35.76,0,0,0,5.24.45c1.13,0,2.25.07,3.37.06a8.89,8.89,0,0,0,3.11-.5,14.61,14.61,0,0,1-1.72-1.19,23,23,0,0,0,2.88,1.37c1,.4,2,.75,3,1.07,1.73.55,3.48,1,5.24,1.43Z"/><path d="M40.88,59.68a9,9,0,0,1,1.36-2.24,8,8,0,0,1,2-1.74,20.31,20.31,0,0,1,2.33-1.09,5.21,5.21,0,0,0,2-1.23,1.7,1.7,0,0,0,.15-.22l.15-.28a6.65,6.65,0,0,1,.36-.56,5.89,5.89,0,0,1,.9-1,4.2,4.2,0,0,1,1.19-.69,2.45,2.45,0,0,1-1.11-.2,3.1,3.1,0,0,1-.7-.48,2.48,2.48,0,0,1-.54-.66,3,3,0,0,1-.29-.89,6.76,6.76,0,0,1-1.26-2A10.31,10.31,0,0,1,47,45.09c-.1-.45-.17-.92-.26-1.34a12.26,12.26,0,0,0-.92-2.49,11.37,11.37,0,0,0-1.26-2,1.7,1.7,0,0,1-.31.29,2.63,2.63,0,0,1-.54.3,1.28,1.28,0,0,1-.36.11,1,1,0,0,1-.38-.06,2.75,2.75,0,0,1-.52-.31h0c-.19.82-.38,1.63-.58,2.45-.18.66-.36,1.32-.56,2A16.83,16.83,0,0,1,40.51,46a28.47,28.47,0,0,0-1.46,3.77,14,14,0,0,0-.37,2c-.09.67-.16,1.35-.21,2a26.62,26.62,0,0,0-.08,3.79,33.12,33.12,0,0,0,2.1,5.95,5.56,5.56,0,0,1-.13-1.22A6.7,6.7,0,0,1,40.88,59.68Z"/><path d="M30.18,32.45l2.86-1c.82-.29,1.65-.58,2.49-.86a3.23,3.23,0,0,1-.43-.29,3.83,3.83,0,0,1-.91-1.25,5.26,5.26,0,0,1-.41-1.44,4.68,4.68,0,0,1,0-1c0,.09-.1.14-.13.22a2.16,2.16,0,0,0-.17.34,2.2,2.2,0,0,1-.36.74,3.22,3.22,0,0,1-.63.54l-.62.49a22.59,22.59,0,0,1-2.6,1.91,12.84,12.84,0,0,1-1.45.7,15.1,15.1,0,0,0-1.39.71,7.55,7.55,0,0,0-1.22.9,2.8,2.8,0,0,0-.44.55,1.71,1.71,0,0,0-.12.41l.08,0a26.18,26.18,0,0,0,2.59-.72Z"/><path d="M38.83,32.7h.23c.51,0,1.77-.18,2.63-.28a1.3,1.3,0,0,1,.3.13,1.09,1.09,0,0,1,.25.22,2.84,2.84,0,0,1,.58,1,3.07,3.07,0,0,1,.13.5,6.31,6.31,0,0,1,.82.35.69.69,0,0,0,.24,0l.29,0a.77.77,0,0,1,.33,0,.62.62,0,0,1,.3.23,1.29,1.29,0,0,1,.16.64c0,.19,0,.39,0,.58A11.3,11.3,0,0,1,45,37.25l-.13,1.14a1.69,1.69,0,0,1-.18.65l-.12.15A7.17,7.17,0,0,1,46.21,41a9.09,9.09,0,0,1,1.1,2.58c.12.48.16.92.25,1.35s.19.87.31,1.3a11.06,11.06,0,0,0,.75,1.87c0-.15,0-.3,0-.45,0-.55,0-1.07,0-1.61,0-1.06.1-2.12.18-3.18s.19-2.13.35-3.18.28-2.09.38-3.13a27.48,27.48,0,0,0,.17-3.13,20.17,20.17,0,0,0-.27-3.1c-.16-1-.4-2.05-.65-3.07s-.54-2-.88-3a5.2,5.2,0,0,0-1.58-2.46A4.86,4.86,0,0,0,45,21.15a6.72,6.72,0,0,0-.72-.27,2.52,2.52,0,0,0-.63-.09,4.18,4.18,0,0,1-1.16,1c-.27-.05-.4-.06-.63.45-.37.77.58,2.88.15,3.55a6.15,6.15,0,0,0-.88,2.49c-.07.8-.4,2.8-.07,3.27l.33.47s-2.06.73-2.67.48a5.06,5.06,0,0,0-1.09-.33,2.26,2.26,0,0,0-.15-1.56c-.4-.59-.51-.48-1.23-1a2.56,2.56,0,0,1-1.34-1.71c-.15-.76-.3-1.93-.3-1.93.22-.8.11-1.71.7-1.92s1.92-1.39,2.28-1.57a21.1,21.1,0,0,1,2.47-.83c.26,0,2.47-.62,2.33-.51s.21.44,1.14-.4a13.32,13.32,0,0,0-3,.38c-.51.1-1,.22-1.54.34l-.39.09-.38.08a2.84,2.84,0,0,0-.68.29c-.44.26-.87.57-1.3.87-.22.16-.43.31-.66.46a2.84,2.84,0,0,1-.34.22,1.58,1.58,0,0,0-.29.22,3.56,3.56,0,0,0-.63,1.38l-.23.77a3,3,0,0,1-.14.39,6.23,6.23,0,0,0,.29,1.24,8.59,8.59,0,0,0,.53,1.28,4.84,4.84,0,0,0,.78,1.06,2.75,2.75,0,0,0,1.1.63l.09,0,0,0a2,2,0,0,1,.34.43.91.91,0,0,1,.15.56.6.6,0,0,1-.3.49.82.82,0,0,1-.5.13c.32-.09.58-.36.53-.62a.79.79,0,0,0-.17-.36,3.58,3.58,0,0,0-.28-.26,2.43,2.43,0,0,1-.87-.26,21.93,21.93,0,0,1-2.4,1.26c-.93.43-1.88.8-2.84,1.15a26.63,26.63,0,0,1-2.93.86,12.64,12.64,0,0,1-2.3.34l.58,0a10.64,10.64,0,0,0,1.38,0c.47,0,.94-.1,1.39-.18s.92-.2,1.38-.31c.92-.24,1.84-.48,2.76-.74s1.84-.51,2.73-.81h0l1.33-.1-1.3.23-.27.1A4.31,4.31,0,0,0,37,32.7c.33,0,.67-.09,1-.1a2,2,0,0,1,.54.06A1.24,1.24,0,0,0,38.83,32.7Z"/><path d="M36.88,26.11s.85.84,1.62.65,1.16-1.31,1.16-1.31-.85-.83-1.62-.65S36.88,26.11,36.88,26.11Z"/></svg>