<svg xmlns="http://www.w3.org/2000/svg" viewBox="0 0 32 19.38"><g id="e20b9b6c-5350-45e8-a957-6e3b728f6856" data-name="Layer 2"><g id="b0014a86-d3f4-45e6-90b8-8b7d625f6af6" data-name="Icons"><path d="M6.11,0Z"/><path d="M15.89,3.81C16.07,1.55,10.58.29,6.33,0h.24L7.85.12c.56.05,1.23.11,2,.2s1.46.19,2.29.34h1.24c-.32-.07-.63-.12-.93-.17C11.51.35,10.63.26,9.86.19l-2-.13L6.57,0H6.11S21.26-.24,21.38,3.75,13.48,9.18,14,12.56c.52,3.22,16.4,6.49,17.93,6.8.07,0,.07,0,0,0H15.51l-.29-.14c-.5-.23-1.09-.53-1.76-.89A25.13,25.13,0,0,1,11.28,17L11.19,17H9.31l.09.08c.4.35.81.66,1.21,1a24.79,24.79,0,0,0,2.12,1.37H4.6a.33.33,0,0,1-.2-.09C3.3,18.17-2.48,13.9,1.22,10S15.71,6.1,15.89,3.81ZM15.47,1.2c-.31-.11-.62-.2-.93-.28H13.42a15.68,15.68,0,0,1,1.94.58l.52.22h.8A9,9,0,0,0,15.47,1.2Zm2.27,1.29a4.59,4.59,0,0,0-.41-.36h-.68l.17.11a3.48,3.48,0,0,1,.62.53,2.11,2.11,0,0,1,.19.23h.51A2.91,2.91,0,0,0,17.74,2.49ZM18,5.22a1.73,1.73,0,0,0,.27-.43,1.54,1.54,0,0,0,.14-.52.57.57,0,0,0,0-.13V4.08h0V3.89a.59.59,0,0,0,0-.13.29.29,0,0,0,0-.09h-.46a.9.9,0,0,1,0,.16.38.38,0,0,1,0,.1v.16h0v0a.28.28,0,0,1,0,.09,1,1,0,0,1-.11.36,1.19,1.19,0,0,1-.22.33,1.07,1.07,0,0,1-.14.16l-.15.15-.08.07-.05,0H18A.76.76,0,0,0,18,5.22Zm-2.7,2c.41-.22.82-.45,1.22-.7.23-.15.46-.3.68-.47h-1c-.52.3-1.08.58-1.64.84l-.7.33Zm-4.1,2.11.26-.15c.55-.3,1.11-.58,1.68-.87L14,7.84H12.45c-.44.2-.87.4-1.3.62a16.56,16.56,0,0,0-1.49.82ZM10.13,10H8.68a6.68,6.68,0,0,0-.75.66,4.86,4.86,0,0,0-.63.79,2.53,2.53,0,0,0-.12.23,2.56,2.56,0,0,0-.11.24L7,12l0,.14,0,.07v.06l0,.11v0h1s0-.05,0-.08l0-.09L8,12a1.3,1.3,0,0,1,.08-.17,3.76,3.76,0,0,1,.48-.65,7.49,7.49,0,0,1,1.35-1.13ZM6.88,13.44a3.3,3.3,0,0,0,.3,1,6,6,0,0,0,1,1.45H9.68A8.57,8.57,0,0,1,9,15.18,5.27,5.27,0,0,1,8.09,14a2.69,2.69,0,0,1-.24-.65h-1Z"/></g></g></svg>
