<svg xmlns="http://www.w3.org/2000/svg" viewBox="0 0 32 19.61"><g id="bbc9e77d-94b2-4158-90a3-58a285a158fb" data-name="Layer 2"><g id="e691e716-7904-4a05-9396-ebb6c5840cd4" data-name="Icons"><path d="M22.82,11.16c-.17,0-.58-.16-.66-.34a.32.32,0,0,0,0-.09c-.05-.12-.24-.18-.35-.21a5.17,5.17,0,0,1-.68-.16.22.22,0,0,1-.14-.21.67.67,0,0,1-.47.09c-.07,0-.14-.07-.21-.09a.9.9,0,0,0-.4,0,.69.69,0,0,0,0-.13,1.54,1.54,0,0,1-.28.09c-.13,0-.12-.23-.26-.31a1.54,1.54,0,0,0-1-.07,1.15,1.15,0,0,0-.4.26c-.31.28-.53.64-.83.92L15.89,12A11.25,11.25,0,0,0,15,13a2.31,2.31,0,0,0-.54,1.65A4.66,4.66,0,0,0,15,16.45c.12.25.27.48.4.73a.16.16,0,0,0,.16.09.69.69,0,0,1,.38.17.32.32,0,0,1,.13.27c0,.16,0,.32.06.49v.06c0,.17,0,.22-.18.27l-.32.13a.46.46,0,0,1-.26,0l-.68-.2a1.12,1.12,0,0,1-.68-.58,5,5,0,0,1-.29-.76l-.78-2.56a2.33,2.33,0,0,1-.08-.36.77.77,0,0,1,.08-.45l.06-.09a2.45,2.45,0,0,0,.38-1.14l.06-.44a.11.11,0,0,0,0-.06l-.3.17c-.26.15-.53.3-.79.47a4.58,4.58,0,0,0-.43.34,1.76,1.76,0,0,0-.32.4c-.07.14-.16.28-.24.41a.38.38,0,0,0-.08.27,13.31,13.31,0,0,0,.12,1.54.9.9,0,0,0,.2.47.27.27,0,0,0,.07.08,2.65,2.65,0,0,1,.48.83c.09.22.06.3-.17.39a1.15,1.15,0,0,1-.66.08c-.15,0-.31,0-.47-.08a.57.57,0,0,1-.22-.11,1.4,1.4,0,0,1-.53-.85,5,5,0,0,1-.09-1c0-.27,0-.54,0-.81a1.17,1.17,0,0,0-.1-.41,2.56,2.56,0,0,1-.24-.93.83.83,0,0,1,.27-.74q.21-.18.42-.33a1.87,1.87,0,0,0,.5-.51,19,19,0,0,0,1.36-2.4c.05-.1.09-.21.13-.31V9l-.22-.09a.46.46,0,0,0,.1-.45A.26.26,0,0,1,12,8.1c0-.13.08-.26.12-.39l.06-.12c-.17,0-.27.15-.42.17s-.14.26-.17.31a3,3,0,0,1-.34.37l-.06.06-.23.23A4,4,0,0,0,10,10a2.19,2.19,0,0,1-.34.64l-.07-.15A9.83,9.83,0,0,0,9,11.3a3.39,3.39,0,0,1,0-.45,3.61,3.61,0,0,0-.72.74,3,3,0,0,1-1,1,.24.24,0,0,1-.23,0,.22.22,0,0,1-.07-.19c0,.11-.22.38-.28.48a.5.5,0,0,1-.22.18c0-.07,0-.13,0-.21a1.42,1.42,0,0,1-.11.18.5.5,0,0,1-.43.21s0,0,0,0,0,0,0,0v-.22a3.11,3.11,0,0,1-.69.21v-.37a2,2,0,0,1-1.14-.28,3.56,3.56,0,0,1-1.19.58.14.14,0,0,1,0-.16c0-.11.07-.22.11-.33a.13.13,0,0,0,0-.12,1.55,1.55,0,0,1-.66.29c-.05,0-.09,0-.09-.08a.16.16,0,0,1,0-.1l.13-.26-.12,0a3.59,3.59,0,0,1,.17-.34,13.19,13.19,0,0,0-1.37.18c-.45,0,0-.39,0-.57a1.18,1.18,0,0,0-.42,0,.55.55,0,0,1-.48-.26c-.24-.45.47-.65.69-.89-.06.06-.44-.23-.48-.27s0-.05,0-.07,0,0,0,0,.38-.2.37-.3,0-.08-.06-.11L.35,9.33a.41.41,0,0,1,.29-.1l1.5-.09.76-.05c.25,0,.36,0,.32-.27l.94.06a1.15,1.15,0,0,0,.64-.05.61.61,0,0,0-.21-.18,2,2,0,0,1,.54-.08,2.14,2.14,0,0,0,.49-.07l-.06-.09C6,8.27,6.42,8.18,6.83,8A.36.36,0,0,0,7,7.91c0-.06,0-.16,0-.18a.75.75,0,0,1,.44-.15s.08,0,.11,0,0-.07,0-.12c.09-.5.44-.72.84-1a.26.26,0,0,0-.09-.05A.85.85,0,0,1,8,6.2c-.16-.22.51-.41.66-.47a11.8,11.8,0,0,0,2.17-1A11.7,11.7,0,0,1,15.09,3a9.38,9.38,0,0,1,2.42-.23c.31,0,.63,0,.95.07s.76.09,1.13.16.77.15,1.15.22.56.11.85.15l1.43.2,1.49.22.75.13.1,0c0-.14,0-.27,0-.4a.3.3,0,0,1,.13-.23c-.19-.13-.24-.36-.37-.52l.16-.11.12-.13a.16.16,0,0,0,0-.08.61.61,0,0,1,0-.42l.15-1a2.56,2.56,0,0,1,.17-.6A.64.64,0,0,1,25.93.1a.42.42,0,0,1,.43,0,1.78,1.78,0,0,1,.27.17l.62.45a1.9,1.9,0,0,1,.58.55L28,1.12l.08.12h.17l.05-.06a.2.2,0,0,1,.29-.05,1.14,1.14,0,0,1,.17.15l.05-.41c.09.05.18.18.31.46l0,0A1.2,1.2,0,0,1,29.47,1l.4-.24a2.54,2.54,0,0,0,.51-.37l.28-.22A.56.56,0,0,1,30.83,0a.36.36,0,0,1,.43.11c.51.57.26,1.24.23,1.91,0,.22.12.3.28.4l0,0a.07.07,0,0,1,0,.06.25.25,0,0,0,0,.22c0,.09.14.13.17.21s.08.19.08.23a.31.31,0,0,1-.05.1c-.07.12-.18.23-.24.36a.58.58,0,0,0-.07.21s0,.12,0,.17a1.24,1.24,0,0,0-.17.5,3.42,3.42,0,0,0-.07.9.38.38,0,0,0-.47.19,1.06,1.06,0,0,0-.07.56L30.64,6c-.12.28-.14.85-.42,1a4,4,0,0,0-.52.31c-.25.17-.14.41-.17.68a1.28,1.28,0,0,1-.4-.14,4.84,4.84,0,0,0-.18.49c-.08.32.05.62-.06.94l-.18-.2a1.64,1.64,0,0,1-.06.58l-.19-.21a1.07,1.07,0,0,1-.1.4s0,0,0,0,0,0-.05,0l-.19-.11s-.12.42-.3.3a1.49,1.49,0,0,1-.61.68l-.13.1a5.63,5.63,0,0,0-.12.65l-.24-.14a7.3,7.3,0,0,0-.5,1.11,4.45,4.45,0,0,0-.29,1.57c0,.32,0,.64,0,1a4.75,4.75,0,0,0,.33,2,1.27,1.27,0,0,0,.46.59l.34.25a.61.61,0,0,1,.25.38.56.56,0,0,1,0,.36s0,.06,0,.08a.36.36,0,0,1,0,.11A.72.72,0,0,1,27,19a1.71,1.71,0,0,1-1.57-.3A.94.94,0,0,1,25,18a4.55,4.55,0,0,1,0-.52,7.86,7.86,0,0,0-.16-1.28,6.34,6.34,0,0,1-.15-1.38c0-.21,0-.42,0-.62s0-.25,0-.4a.37.37,0,0,0,0,.11,10.38,10.38,0,0,0-.36,1.56c0,.3-.08.6-.1.9a8.72,8.72,0,0,0,0,.89,2.71,2.71,0,0,0,0,.41.72.72,0,0,0,.29.47c.11.09.24.16.36.24a3.13,3.13,0,0,1,.3.2,1,1,0,0,1,.18.17.59.59,0,0,1,.05.68l0,0-.11,0-.11.19-.09-.05a.16.16,0,0,0-.15,0,.32.32,0,0,1-.3,0,1.39,1.39,0,0,0-.35-.09l-.45-.1a.72.72,0,0,1-.56-.56,4.46,4.46,0,0,1-.07-.51c0-.27,0-.53-.06-.79s-.11-.52-.16-.78a12.46,12.46,0,0,1-.22-1.61,1.72,1.72,0,0,1,.16-.92,1.69,1.69,0,0,0,.08-1.27,2.58,2.58,0,0,1-.14-.67c0-.26,0-.52.05-.77S22.8,11.27,22.82,11.16Z"/></g></g></svg>
