<svg xmlns="http://www.w3.org/2000/svg" viewBox="0 0 40.01 39.94"><defs><style>.b6fa1615-8cf0-44da-99d7-62a81dc35a93{fill-rule:evenodd;}</style></defs><g id="b93082e1-4f60-4d35-bae1-ef58c0b1eee5" data-name="Layer 2"><g id="bc4a30de-e442-481e-958d-bba2056c3b09" data-name="Icons"><path class="b6fa1615-8cf0-44da-99d7-62a81dc35a93" d="M32.58,11.42a1.05,1.05,0,0,0,.82-.35,1.49,1.49,0,0,0,.32-1V6.86H35.8A4.79,4.79,0,0,0,39,6,3.18,3.18,0,0,0,40,3.37a3.9,3.9,0,0,0-.26-1.45A2.9,2.9,0,0,0,39,.84,3,3,0,0,0,37.79.2a7.69,7.69,0,0,0-2-.2H32.88a1.58,1.58,0,0,0-1.09.32,1.42,1.42,0,0,0-.35,1.07v8.66a1.51,1.51,0,0,0,.32,1A1.05,1.05,0,0,0,32.58,11.42Zm1.14-9.71h1.53a2.88,2.88,0,0,1,2,.5,1.69,1.69,0,0,1,.43,1.21,1.62,1.62,0,0,1-.28,1A1.52,1.52,0,0,1,36.6,5a4.67,4.67,0,0,1-1.35.17H33.72Z"/><path class="b6fa1615-8cf0-44da-99d7-62a81dc35a93" d="M32.4,24.73a7.67,7.67,0,0,0-2,.28L26.7,15.64s0-.05,0-.08a.77.77,0,0,0-.71-.48H22.14a.76.76,0,0,0-.76.76V16a.76.76,0,0,0,.76.76h3.22l1.46,3.72-11.74,0-.45-1.16a.77.77,0,0,0,.69-.76v-.11a.77.77,0,0,0-.76-.76H11a.76.76,0,0,0-.75.76v.11a.76.76,0,0,0,.75.76h1.84l.63,1.6-2.85,4.5a7.6,7.6,0,1,0,4.41,8.33l3.67.24L19,34a1.44,1.44,0,0,0,1.44-1.45,1.43,1.43,0,0,0-.09-.5l8-7.63.48,1.21a7.6,7.6,0,1,0,3.55-.88ZM7.6,38.29A5.95,5.95,0,1,1,9.76,26.8l-3.1,4.91a1,1,0,0,0,.72,1.53l6,.38A6,6,0,0,1,7.6,38.29Zm1.1-6.77,2.48-3.92a5.92,5.92,0,0,1,2.27,3.72Zm6.42-.27a7.59,7.59,0,0,0-3-5.05l2.17-3.43,3.27,8.38Zm4.05-.34-3.45-8.83,11.74,0,.27.71ZM32.4,38.28a5.95,5.95,0,0,1-2.94-11.11l2.15,5.51a.86.86,0,0,0,1.11.53A.84.84,0,0,0,33.11,32L31,26.56a6.15,6.15,0,0,1,1.43-.17,5.95,5.95,0,1,1,0,11.89Z"/></g></g></svg>
