<svg xmlns="http://www.w3.org/2000/svg" viewBox="0 0 32 24.51"><g id="b2e919fa-103b-4333-9abc-e8130138f9eb" data-name="Layer 2"><g id="b4d5f475-5bd4-45af-8959-9762ce784c2b" data-name="Icons"><path d="M31.81,18.91h0l-.05-.07h0l0,0a.43.43,0,0,0,0-.07l-.06-.08-.06-.08-.05-.08-.09-.11-.05-.07-.07-.09-.08-.11h0L31.15,18l-.07-.09h0L31,17.81l-.11-.13-.09-.11-.09-.11h0l-.09-.11-.09-.1-.06-.07h0l-.08-.09L30.28,17l0,0,0-.05-.06-.07L30,16.66l-.16-.16h0l-.16-.17h0L29,15.72a17.11,17.11,0,0,0-6.24-3.43l-.67-.2-.11,0-.11,0-.14,0-.09,0-.13,0-.09,0h0l-.11,0-.08,0-.11,0h0l-.07,0h-.06l-.16,0-.09,0h-.05l-.15,0-.16,0h0l-.14,0-.16,0h0l-.16,0-.75-.1a25.06,25.06,0,0,0-6.24,0l-.67.1H12l-.09,0-.12,0h0l-.12,0h0l-.08,0h0l-.1,0h0l-.1,0h-.12l-.12,0-.17,0-.13,0-.17,0-.1,0h0l-.09,0-.09,0-.1,0-.09,0H10l-.14,0-.67.2A17.73,17.73,0,0,0,3,15.84c-.24.2-.46.41-.68.62h0l-.08.08a.6.6,0,0,0-.08.08l-.08.08L2,16.78l-.08.08-.08.08L1.74,17l-.07.08-.16.16h0l-.15.16-.07.08-.07.09-.09.1-.06.07L1,17.86.93,18,.86,18l-.1.12h0l-.05.06,0,.06,0,.05,0,0-.07.09-.06.08-.08.1,0,0,0,0h0l-.07.09-.05.07v0a1.12,1.12,0,0,0,0,1.23,1.11,1.11,0,0,0,1,.54H4.53A3,3,0,0,0,6.44,20,15.48,15.48,0,0,1,16,16.28a14.82,14.82,0,0,1,9.54,3.66,3,3,0,0,0,2,.73h3.39a1.13,1.13,0,0,0,.95-1.76Z"/><path d="M2.3,15.53V13.05l0,0a21,21,0,0,1,7.54-4.1v2.49a19.15,19.15,0,0,1,2.3-.49V8.37l.14,0A19.65,19.65,0,0,1,16,8a17.77,17.77,0,0,1,3.68.38h.12v2.52a23.38,23.38,0,0,1,2.3.47V8.91a20.79,20.79,0,0,1,7.54,4.15l0,0v2.32a17.14,17.14,0,0,1,2.29,2.52V6.74c0-.89-.51-1.6-1.14-1.6s-1.15.71-1.15,1.6V7.5a21.54,21.54,0,0,0-7.33-3.75,1.07,1.07,0,0,0-.25,0V1.6c0-.88-.52-1.6-1.15-1.6s-1.15.72-1.15,1.6V3.23a18.82,18.82,0,0,0-3.87-.39,19.7,19.7,0,0,0-3.71.34V1.6C12.18.72,11.67,0,11,0a1,1,0,0,0-.81.47A1.94,1.94,0,0,0,9.88,1.6V3.74a1,1,0,0,0-.24,0A22.6,22.6,0,0,0,2.3,7.48V6.74c0-.89-.51-1.6-1.14-1.6S0,5.85,0,6.74V18A18.17,18.17,0,0,1,2.3,15.53ZM22.06,5.09A20.57,20.57,0,0,1,29.6,9.24l0,0v2.06a21.49,21.49,0,0,0-7.32-3.75l-.26,0Zm-9.88-.55h.11a18.83,18.83,0,0,1,3.6-.35,17.92,17.92,0,0,1,3.74.4h.13V7A18.76,18.76,0,0,0,16,6.66,20.3,20.3,0,0,0,12.18,7ZM2.3,9.24l.05,0a21.16,21.16,0,0,1,7.53-4.1V7.55a.66.66,0,0,0-.24,0,22.23,22.23,0,0,0-4.4,1.8A23.41,23.41,0,0,0,2.3,11.29Z"/><path d="M23,21.74l-1.79-.53a5.56,5.56,0,0,0-2.89-.07l-1.11.28a4.6,4.6,0,0,1-2.33,0l-.76-.21a5.44,5.44,0,0,0-2.86,0L9,21.74a.45.45,0,1,0,.23.86L11.45,22a4.61,4.61,0,0,1,2.39,0l.76.21a5.61,5.61,0,0,0,2.79,0L18.5,22a4.69,4.69,0,0,1,2.41.06l1.79.53.13,0a.46.46,0,0,0,.43-.32A.45.45,0,0,0,23,21.74Z"/><path d="M23,23.63l-1.79-.54A5.56,5.56,0,0,0,18.28,23l-1.11.27a4.6,4.6,0,0,1-2.33,0l-.76-.21a5.55,5.55,0,0,0-2.86,0L9,23.62a.46.46,0,0,0-.32.55.45.45,0,0,0,.55.32l2.18-.57a4.51,4.51,0,0,1,2.39,0l.76.21a5.5,5.5,0,0,0,2.79,0l1.11-.27a4.48,4.48,0,0,1,2.41.06l1.79.53.13,0a.46.46,0,0,0,.43-.33A.44.44,0,0,0,23,23.63Z"/></g></g></svg>
