<svg xmlns="http://www.w3.org/2000/svg" viewBox="0 0 26.53 32"><g id="b4416ced-e8cd-49ad-b9bd-7b4d8817e0c3" data-name="Layer 2"><g id="b8f2f32e-d403-495c-a1bd-6980e568f37c" data-name="Icons"><path d="M10,30.62h0a.78.78,0,0,0,1.2-.36,5.06,5.06,0,0,0,1,0c.07,0,.13-.24.24-.63a11.19,11.19,0,0,0,.21-1.43c.06-.5-.05-.88,0-1.33,0-.16.18-.34.21-.53s-.22-.69-.34-.9a2.9,2.9,0,0,0-2.31,1.91A8.25,8.25,0,0,1,10,29.52a3.68,3.68,0,0,0,0,1.1Zm9.45-6.51c-1.64.6-3.39,2-5.19,1.38,0,.25-.18,1-.21,1.17s-.26.44-.35.69a15.78,15.78,0,0,0-.42,1.74,6.62,6.62,0,0,0-.28,1.8c0,.44.54.64.41,1.11-.56-.39-1.22,0-1.75-.31a13.41,13.41,0,0,0-1.61-.8h0a3.06,3.06,0,0,0,.3.83,5.08,5.08,0,0,1-1.22-.14c-.45,0-.86-.06-1.32-.06a12.64,12.64,0,0,1-1.38-.05c-.34,0-.93.11-1.2-.11a1.58,1.58,0,0,1,1-.42c-.15,0-.16-.12-.21-.31.86-.34,2.61.83,3-.44s-.2-2.92-.23-4.16c-.17-.12.07,0-.14-.29-.06.14-.2.22-.26.31a13.77,13.77,0,0,1-.91-1.8c-.26-.41-.35-.37-.69-.68-.84-.76-1.8-1.36-2.69-2a5.22,5.22,0,0,1-2.24-3.74,15.72,15.72,0,0,1,0-5c.26-1.37,1.47-2.07,2-3.33a7.41,7.41,0,0,0,.26-5.36h0a1.37,1.37,0,0,0,1.1-.19A3.09,3.09,0,0,0,6,1.4C5.23,0,3.77,3.33,2.4,3.4a5.31,5.31,0,0,0-1.2-.23,4,4,0,0,1-.69,0c-.17,0-.25-.06-.41.05-.22-.11,0-.6.09-.72a2.73,2.73,0,0,1,.6-.4c.27-.2.55-.38.83-.58a.53.53,0,0,0,.24-.37A1.12,1.12,0,0,1,2,.75,2.87,2.87,0,0,1,5.24.29C6.53.86,6.89,2,7.17,3.37a27.88,27.88,0,0,1,.68,4.52c.05.91-.57,3.35,0,3.92a27.67,27.67,0,0,0,4.65.77,14.29,14.29,0,0,1,2.65,1A16.71,16.71,0,0,1,18,14.74c1.2.8,1.6,2.39,2.5,3.37a24,24,0,0,0,3.36,3.17,10.13,10.13,0,0,0,1.67.95c-1.4.42-1.85.09-3.11,0,.92.26,4.12,1.68,4.13,2.75a3.29,3.29,0,0,1-1.87-.52c.2.32.55.54.76.84a2.53,2.53,0,0,1-1.5-.45l-.45-.43a2.06,2.06,0,0,0,.45.43,10.35,10.35,0,0,1,1,1.09A5.33,5.33,0,0,1,23.14,25c.07.11.08.25.14.37-.56.19-1.19-.36-1.66-.68a5.74,5.74,0,0,1,.61.6,16.47,16.47,0,0,1-2.6-1.2l-.19,0Z"/></g></g></svg>
