<svg xmlns="http://www.w3.org/2000/svg" viewBox="0 0 32 28.16"><defs><style>.b10315ed-f8bf-4643-bc8e-a41d1e1a6d45{fill-rule:evenodd;}</style></defs><g id="b4ea4c4b-910d-4ae1-b87b-5213f40734a0" data-name="Layer 2"><g id="e9dc3938-33f5-4058-aa5e-c992dcf5ebc7" data-name="Icons"><path class="b10315ed-f8bf-4643-bc8e-a41d1e1a6d45" d="M16.58,15.43a7.62,7.62,0,0,0,4.7.44,9.53,9.53,0,0,0,2.28-.75.65.65,0,0,0,.22-.11,10.78,10.78,0,0,1,0-1.8,7.73,7.73,0,0,0,.51,2,6.32,6.32,0,0,0,1.4,1.89c.62.59,1.3,1.12,2,1.64A7.82,7.82,0,0,1,28.83,20a4.59,4.59,0,0,1,.88,2.1c.09.6.05,1.21.13,1.85a2.76,2.76,0,0,1,.05,1.53,4,4,0,0,0-.37.71.58.58,0,0,0,0,.41c0,.07.07.11.09.16a1.09,1.09,0,0,1-.24.35,3.09,3.09,0,0,1-.6.39,1,1,0,0,0-.3.4.6.6,0,0,0-.09.22H31a1.76,1.76,0,0,0,.07-.6c0-.17-.09-.37-.11-.54a1.06,1.06,0,0,1,0-.25A.23.23,0,0,0,31,26.6a.57.57,0,0,0,.2-.33,1.36,1.36,0,0,0-.11-.62,5.62,5.62,0,0,1-.09-.92,16.65,16.65,0,0,1,0-1.73,15.45,15.45,0,0,0,.22-1.78c0-.18,0-.35,0-.53l-.7-1A6.55,6.55,0,0,1,29.45,18a5.4,5.4,0,0,1-.13-2.09c0-1.1,0-2.15,0-3.2v-1c.18.18.35.35.51.53a4.16,4.16,0,0,1,.88,2,3.87,3.87,0,0,1,0,1.27c-.05.25-.11.49-.18.73a2.47,2.47,0,0,0,0,.9,1.64,1.64,0,0,0,.29.74,2.85,2.85,0,0,0,.59.66,3.14,3.14,0,0,0,.44-.74,2.53,2.53,0,0,0-.07-1.65,6,6,0,0,0-.28-.72c0-.24-.05-.51-.07-.75-.07-.44-.09-.9-.2-1.34a7.7,7.7,0,0,0-1.07-2.17c-.6-.86-1.23-1.67-1.85-2.5a7.61,7.61,0,0,0-2.08-2.28c-.33-.2-.73-.36-1.08-.53a19.08,19.08,0,0,1-2.55-2.11A3.18,3.18,0,0,0,21.08,3a3.83,3.83,0,0,0-1.95.33A9,9,0,0,0,17,4.5a12.83,12.83,0,0,1-1.51,1.18c-.55.31-1.19.44-1.78.73a3,3,0,0,0-1.17.88c-.37.48-.61,1.14-1.07,1.47a2.79,2.79,0,0,1-.64.24,4.35,4.35,0,0,1-.53,0,2.69,2.69,0,0,1-1.6-.6A2.46,2.46,0,0,1,7.91,7a11.1,11.1,0,0,1-.38-2.56A15.18,15.18,0,0,0,7.23,2c-.07-.22-.14-.46-.2-.7A1,1,0,0,0,7.58,1,1,1,0,0,0,7.71.37c0-.13,0-.24-.07-.37a2.59,2.59,0,0,1-.41,0,4.41,4.41,0,0,0-.62.09A1.26,1.26,0,0,0,6.15.5c-.2,0-.4-.1-.62-.13A3.64,3.64,0,0,0,4.17.5a5.42,5.42,0,0,1-1,.36c-.33.08-.82.15-1.15.22a1.73,1.73,0,0,0-.37.11,2.34,2.34,0,0,1-.55.15c-.15,0-.31,0-.42.06a1.23,1.23,0,0,0-.63.75A.82.82,0,0,0,0,2.48a.38.38,0,0,0,.07.24.86.86,0,0,0,.22,0,.68.68,0,0,0,.35-.06c.13-.07.26-.2.39-.18s.16.07.24.11,0,.05-.06.05l-.16,0a.79.79,0,0,0-.41.15A.45.45,0,0,0,.51,3a.93.93,0,0,0,.21.31.92.92,0,0,0,.73,0,1.28,1.28,0,0,1,.7,0,2.8,2.8,0,0,1,.6.39,1.1,1.1,0,0,0,.68.25,2.34,2.34,0,0,0,.83-.16,26.59,26.59,0,0,0,0,4.37,7.23,7.23,0,0,0,1.1,3.25,5.51,5.51,0,0,0,2.51,1.82,10.38,10.38,0,0,0,3,.5l1.05.07a13.89,13.89,0,0,0,1.12,2,13.84,13.84,0,0,0,1,1.08,4.64,4.64,0,0,1,1,1.86,6.93,6.93,0,0,1,.26,1.5c0,.46.07.92.11,1.38.11.88.35,1.73.4,2.63a2.42,2.42,0,0,1-.16,1.14,8.26,8.26,0,0,0-.39.79,1.13,1.13,0,0,0-.07.55c0,.09,0,.2,0,.31l-.48.26c-.15.11-.33.2-.48.33a.44.44,0,0,0-.24.29c0,.06,0,.15,0,.24H17a.71.71,0,0,0,0-.2,2,2,0,0,0-.09-.29,3,3,0,0,1-.08-.41,1.2,1.2,0,0,0,.24-.46,1,1,0,0,0-.05-.51c-.06-.24-.08-.46-.13-.7s0-.61-.06-.92c0-.81,0-1.63,0-2.42,0-.54-.08-1.09-.13-1.64,0-.35,0-.7-.09-1.06-.06-.54-.19-1.07-.26-1.62a5.51,5.51,0,0,1,0-1.8,1.87,1.87,0,0,0,.18-.61Z"/><path class="b10315ed-f8bf-4643-bc8e-a41d1e1a6d45" d="M13.22,19.9c.09-.65.09-1.31.22-1.95a5.09,5.09,0,0,1,.22-.83l-.53-.57-.26-.31a.67.67,0,0,0-.13-.15.87.87,0,0,0-.11-.18l-.2-.26a1.57,1.57,0,0,1-.18-.31,1,1,0,0,1-.15-.24,4.52,4.52,0,0,1,0,.52A6.72,6.72,0,0,1,12,17.36a21.81,21.81,0,0,1-.77,2.28A5.77,5.77,0,0,0,10.85,21c0,.46,0,.92,0,1.36a6.47,6.47,0,0,1-.35,2.13,3.07,3.07,0,0,1-.79,1.41,2.62,2.62,0,0,1-.53.33c-.06,0-.13.08-.15.15a.32.32,0,0,0,0,.33s0,.06,0,.09c-.2.11-.4.19-.62.3a4,4,0,0,0-.68.6.68.68,0,0,0-.09.17.41.41,0,0,0,0,.24l3.14,0a1.26,1.26,0,0,0,0-.27.79.79,0,0,0,0-.2.57.57,0,0,1-.09-.24,1.13,1.13,0,0,0,.26,0,.3.3,0,0,0,.22-.19c0-.05,0-.14.07-.2a5.42,5.42,0,0,1-.07-.81,5.57,5.57,0,0,1,.09-1.47,10.4,10.4,0,0,1,1-2.09,8.86,8.86,0,0,0,.86-2.79Z"/><path class="b10315ed-f8bf-4643-bc8e-a41d1e1a6d45" d="M25.94,19.84a5.66,5.66,0,0,1,.13,1.8,9.55,9.55,0,0,1-.13,1.09,9.42,9.42,0,0,1-1.23,2.51,2.38,2.38,0,0,1-.62.74,2.17,2.17,0,0,0-.42.27,1.08,1.08,0,0,0-.15.52c0,.13.07.16.09.27a6.36,6.36,0,0,0-.62.19l-.52.22a1.12,1.12,0,0,0-.4.29.51.51,0,0,0-.09.33h3a.68.68,0,0,0,0-.2,1.5,1.5,0,0,0-.08-.55c.17,0,.37-.06.43-.17s0-.36,0-.55A1.32,1.32,0,0,1,25.5,26a9.31,9.31,0,0,1,1.4-2.33,12.53,12.53,0,0,0,.79-1,1.61,1.61,0,0,0,.38-1,3.12,3.12,0,0,0-.33-1,3.29,3.29,0,0,1-.16-1.4c-.24-.18-.46-.33-.68-.51A13.65,13.65,0,0,1,25,17.07a11.11,11.11,0,0,1-.77-1,4.16,4.16,0,0,0,.51,1.53,12.25,12.25,0,0,1,1.23,2.22Z"/></g></g></svg>
