<svg xmlns="http://www.w3.org/2000/svg" viewBox="0 0 40 21.25"><defs><style>.a833a533-ccb3-4229-894f-0cb61a545192{fill-rule:evenodd;}</style></defs><g id="b16bcf5c-9ea9-47fa-8f4f-cbd02c774798" data-name="Layer 2"><g id="b5e430d6-6d6a-4a55-b206-8659b9e02bc6" data-name="Icons"><path class="a833a533-ccb3-4229-894f-0cb61a545192" d="M31.06,17.91a6.62,6.62,0,0,1,.26.79.89.89,0,0,0,.09.29c.06.07.17.06.24.11a3,3,0,0,0,.39.31,3.74,3.74,0,0,0,.74.23c.13,0,.53.11.64,0a.85.85,0,0,0,.73-.09c.34.07.79.1.7-.4a.76.76,0,0,0-.25-.43c-.37-.34-.74-.24-1.13-.43a1.78,1.78,0,0,1-.67-1,6.36,6.36,0,0,1-.1-1.24,17.76,17.76,0,0,1,0-1.93c0-.48.19-1,.26-1.42a4.85,4.85,0,0,1,.19-.92c.19-.32.54-.54.74-.86a4.82,4.82,0,0,0,.37-.91,8.79,8.79,0,0,0,.42-1.22c.07-.32,0-.65.07-1a2,2,0,0,1,.31-.65,13.32,13.32,0,0,1,1-1.37c.18-.22.16-.29.41-.42a.82.82,0,0,1,.58-.16,2.48,2.48,0,0,1,.66.15c.18.07.42.13.6.18a.82.82,0,0,0,.44,0,.69.69,0,0,0,.31-.25c.06-.09,0-.21,0-.32s.27,0,.34-.11A1.73,1.73,0,0,0,40,4a.72.72,0,0,0,0-.5c-.12-.24-.38-.38-.55-.59a1.53,1.53,0,0,1-.21-.4,5,5,0,0,0-.08-.56,1.57,1.57,0,0,0-.34-.51,3.33,3.33,0,0,0-.51-.4,2.74,2.74,0,0,0-.34-.19c0-.15,0-.21,0-.35s0-.28-.1-.28a1.33,1.33,0,0,0-.46.16c-.11.06-.17.12-.28.19a5.16,5.16,0,0,0-1.92,0,1.69,1.69,0,0,0-.28-.26,1.31,1.31,0,0,0-.4-.23C34.36,0,34.12,0,34,0s-.11.37-.11.53a5.15,5.15,0,0,0,0,.56c-.36.24-1,.58-1.35.85s-.55.65-.9.85a9.41,9.41,0,0,1-1.28.38,4.2,4.2,0,0,0-.8.45,3.49,3.49,0,0,1-1.1.64,6.28,6.28,0,0,1-1.81.26c-1.08,0-2.06,0-3.14-.16S21.3,4.16,20.18,4s-2-.43-3-.5a8.54,8.54,0,0,0-2.2.11,8.31,8.31,0,0,0-4,1.72c-.74.62-1.29,1.43-2,2.1A9.8,9.8,0,0,1,7,9.18a5.89,5.89,0,0,1-2.44.63,3.63,3.63,0,0,1-1.89-.43A2.88,2.88,0,0,1,1.57,8.12a2.75,2.75,0,0,1-.16-1.53A2,2,0,0,1,2,5.44a1.23,1.23,0,0,1,1.82.12c.26.29.41,1.54,1.14.76a1.2,1.2,0,0,0,.25-.9A2,2,0,0,0,3.35,3.48,3,3,0,0,0,.27,5.56,3.94,3.94,0,0,0,.16,8.12a4.14,4.14,0,0,0,1.41,2,4.3,4.3,0,0,0,2.11,1A6.63,6.63,0,0,0,6.48,11,10.45,10.45,0,0,0,9,9.68c.66-.41,1.25-.94,1.88-1.41a15.88,15.88,0,0,1-.3,2.07,10.54,10.54,0,0,1-.77,1.84,7.71,7.71,0,0,1-1.91,2.46,1,1,0,0,0-.28.54,4.7,4.7,0,0,0,.07,1.24c.1.58.3,1.14.42,1.72a8.53,8.53,0,0,0,.23,1.43c.08.22.35.32.48.51s.14.44.28.62a.93.93,0,0,0,.48.35,3.13,3.13,0,0,0,.81,0,6.28,6.28,0,0,0,1,0c.14,0,.32-.07.37-.21a.75.75,0,0,0-.08-.6,1.13,1.13,0,0,0-.93-.5,1.49,1.49,0,0,0-.44.17,7.94,7.94,0,0,1-.29-1,7.3,7.3,0,0,1-.08-1.55,2.73,2.73,0,0,1,.23-1.06,2.84,2.84,0,0,1,.68-.75c.56-.54,1.16-1,1.74-1.54l1.59-1.34a9.65,9.65,0,0,1,.34,2.45c0,.32-.36,1.75-.34,1.8a3.15,3.15,0,0,0,.74,1.15,12,12,0,0,0,1,1c.37.35.72.72,1.1,1.06a2.5,2.5,0,0,1,.38.35c.5.64.17.64,1,.71a7.75,7.75,0,0,0,1,.07,1.27,1.27,0,0,0,.75-.12c.7-.35.31-.84,0-1.1a1,1,0,0,0-.51-.14c-.25,0-.34.12-.56,0a2.32,2.32,0,0,1-.89-.79A10.05,10.05,0,0,1,17,17.49a1.36,1.36,0,0,1-.29-.9,13.83,13.83,0,0,1,.95-1.83,19.4,19.4,0,0,0,.73-1.92c.14-.42.2-1.07.33-1.49.32.28.63.56,1,.82a2.63,2.63,0,0,0,1.91.68c1.15.07,2.3.06,3.45.09l2.81.11.14.67c.11.54.24,1.08.34,1.62s.12,1.2.23,1.79.27,1,.41,1.56a3,3,0,0,0,.22.68c0,.07.2.06.24.13.18.29.12.85.36,1.05s.51.33.63.42a2,2,0,0,0,.74.23c.14.05.53.11.65,0a1,1,0,0,0,.63,0l.09,0c.32.06.78,0,.7-.44a.76.76,0,0,0-.25-.43,3.35,3.35,0,0,0-1-.53c-.14-.07-.32-.09-.4-.21a2,2,0,0,1-.35-.65,4.64,4.64,0,0,1-.11-1Z"/></g></g></svg>
