<svg xmlns="http://www.w3.org/2000/svg" viewBox="0 0 31.4 32"><path d="M31,6.4c-1-.9-2.9-1.3-2.9-1.6s-.6-1.7-1.6-2.9h0S24-.3,21.6,0a7.1,7.1,0,0,0-3.4,1c-1.7.7-1.7,1.7-2.5,2.2s-5,.9-5.8,1S6.1,5.9,5.6,7s-6-.7-5.6.6S.8,13,3.9,13.8c.7.2,1.3,2.1,3.3,3.2a5.5,5.5,0,0,0,2.4.6A26,26,0,0,1,8.3,20a19.3,19.3,0,0,0,0,2.5,55.8,55.8,0,0,1,.5,7.3c-.1,1.3.1.9-.4,1.4s.8.5,1,.4l1.2-.2,3.8.2s-.8.2,0,.3,1.1-.2,1.7-.2l2.6.3a6.8,6.8,0,0,0,2.9-.3,1.6,1.6,0,0,1,.9.1c.3.2-.6-.7-.9-.7a8.5,8.5,0,0,1-4.9-.6,39.1,39.1,0,0,1-2.2-6c-.5-2.3.1-2.1-.2-3.5a14.2,14.2,0,0,1,1-3.9,12.8,12.8,0,0,0,8.6-6.6s2.9-.7,3.7-2.9a7.6,7.6,0,0,1,3-.3C31.6,7.3,31.5,6.9,31,6.4ZM12.7,22a5.6,5.6,0,0,0,.5,1.9,21.2,21.2,0,0,1,1.7,5.5c.2,1.6.4,1.2,0,1.4s-3.9,0-4.3-.8-.8-.7-.8-1.7-.2-5.1.2-6a3.1,3.1,0,0,0,.1-1.6,14.7,14.7,0,0,1,1.1-3.1,11.8,11.8,0,0,0,2.6-.2,11.5,11.5,0,0,1-.6,2.1C12.6,21.2,12.6,21.4,12.7,22Z"/></svg>
