<svg xmlns="http://www.w3.org/2000/svg" viewBox="0 0 32 29.58"><g id="f8cada91-3e76-4ec7-8545-569ae2f3493a" data-name="Layer 2"><g id="b6498d7f-a324-4a06-b9d5-6ea881850a5b" data-name="Icons"><path d="M18.65,24.75c-.1-.52-.93-1.05-1.63-1.48l-.07,0,3.66.22.66-.56-2.2-.19.85-.46L19.59,22l-1.27.59-2.6,0c-1-.6-1.83-1.27-.8-1.92a12.33,12.33,0,0,1,4.74-1.07l2.74-.22a44.43,44.43,0,0,0-8.06-.43c.05-1.12-.05-2.21,0-2.83,0-.89.5-1.15,1.32-1.07a2.6,2.6,0,0,0,1.31-.08,3.19,3.19,0,0,1,3.07.13c.23.11.55.3.8.14s.3-.36.61-.3a2,2,0,0,1,.45.19.47.47,0,0,0,.46,0,1.33,1.33,0,0,0,.14-.19,1,1,0,0,1,.6-.32c.42-.08.86-.11,1.28-.18a2.28,2.28,0,0,0,.63-.18c.14-.06.24-.18.4-.21s.16,0,.24,0a.33.33,0,0,0,.15-.32,1.27,1.27,0,0,0-.32-.75c-.08-.09.11-.54.15-.64.12-.41.21-.84.32-1.26a.58.58,0,0,0,0-.23.88.88,0,0,0-.92-.71c-.14,0-.42.08-.54,0s-.07-.18,0-.33a1.24,1.24,0,0,0,0-.89c-.1-.17-.27-.28-.37-.44a3,3,0,0,1-.33-.7,3.57,3.57,0,0,1-.14-1.42.82.82,0,0,0,0-.27.57.57,0,0,0-.27-.32l-.94-.64A.12.12,0,0,1,22.3,5a.29.29,0,0,1,0-.09,1.37,1.37,0,0,0-.75-1.68,1.19,1.19,0,0,0-.46,0,5.86,5.86,0,0,0-2.27.68c-.19-.29-.37-.59-.55-.89a2,2,0,0,0-.59-.73.62.62,0,0,1-.18-.14A.61.61,0,0,1,17.45,2a.91.91,0,0,0-.07-.14,2.17,2.17,0,0,0-1-.83A1.74,1.74,0,0,0,15,1c-.18.07-.49-.19-.73-.32S13.54,0,13.17,0a2.82,2.82,0,0,0-.61.18l-.63.18a3.49,3.49,0,0,0-2.1,1.4c-.27.47,0-.58-.88-.5s-.41.17-1,.51C7.59,2,7.1,1.82,6.78,2a2.93,2.93,0,0,0-.87,1,2.32,2.32,0,0,1-.21.25,1.48,1.48,0,0,1-.3.21c-.4.24-.8.48-1.2.7s-1.32.54-1.47,1.12a.37.37,0,0,0,0,.18c0,.16.19.24.25.39.24.54-.6.93-.85,1.29A2.15,2.15,0,0,0,2,8.18,3.55,3.55,0,0,0,1.91,9c0,.1.11.28-.09.22A1.75,1.75,0,0,0,1,9.06c-.24,0-.41.29-.55.48a2,2,0,0,0-.43.89,1.8,1.8,0,0,0,.14.82A1.64,1.64,0,0,0,.59,12c.13.1.29.17.42.27s.2.41.21.66a1.63,1.63,0,0,0,.31.9,1.38,1.38,0,0,0,1,.52c.32,0,.63,0,1,0,.49,0,1,.13,1.45.15s.59-.3,1-.43a1,1,0,0,1,.77.09,7.27,7.27,0,0,1,.74.61c.23.19.68.43,1,.22s.18-.28.26-.43a1.22,1.22,0,0,1,.71-.52,7.57,7.57,0,0,1,1.26-.12c.54-.07.95-.09,1.27.42a3.14,3.14,0,0,1,.39,1.2c.08.55.16,1.49-.34,1.89-.21.17-.25.84-.23,1.64A45.41,45.41,0,0,0,0,21.84v7.69H9.47L10.86,29c2.1-.87,4.1-1.79,6.07-2.71C17.81,25.86,18.77,25.33,18.65,24.75ZM16.73,13.56c.15.39.44.32.57.64A2.13,2.13,0,0,1,14.68,14C15.44,13.73,16,13.84,16.73,13.56Z"/><path d="M23.73,19.55c-1.92.42-3.88,1-2.67,1.49,1.47.58,3.53.76,4.89,1.41a3.54,3.54,0,0,1,2.11,2.14.17.17,0,0,0,0,.07l-5.69,2L20,26.38l-.47.67,1.66.28L17.44,29l1.35.56,8.59-2.38a16.17,16.17,0,0,1-2.11,2.33H32V21.84A45.86,45.86,0,0,0,23.73,19.55Z"/></g></g></svg>
