<svg xmlns="http://www.w3.org/2000/svg" viewBox="0 0 34 27.3"><path d="M18,22.7a2.2,2.2,0,0,0-.5-1.4,2,2,0,0,0-1.4-.6H3.6a2,2,0,0,0-1.4.6,1.8,1.8,0,0,0-.6,1.4v.8H18Z"/><path d="M30.6,16,19.7,9.7l-1.6,2.8L29,18.8c.1-.1.1-.3.2-.4l1.2-2.1c0-.1.1-.2.2-.3Z"/><path d="M20.6,6.5,14.7,3h-.2l-5,8.4h.3l5.9,3.5.3.2,4.9-8.5h-.3Z"/><path d="M33.2,16.2h-.3a.8.8,0,0,0-.7-.2,1.3,1.3,0,0,0-1.3.7l-1.2,2a1.7,1.7,0,0,0-.2,1.2,1.6,1.6,0,0,0,.7.9l.3.2.8.2a1.7,1.7,0,0,0,1.3-.7l1.2-2.1a1.1,1.1,0,0,0,.1-1.1,1.4,1.4,0,0,0-.7-1Z"/><path d="M15.4,15.4,9.5,11.9a1.2,1.2,0,0,0-1-.1,1,1,0,0,0-.8.6,1.4,1.4,0,0,0-.2,1.1,1.3,1.3,0,0,0,.7.8l5.9,3.4.7.2a1.4,1.4,0,0,0,1-.5,1.1,1.1,0,0,0,.3-1.1,1.3,1.3,0,0,0-.7-.9Z"/><path d="M15,2.5,20.9,6h1.4l.5-.5a2,2,0,0,0,.1-1.1,1.6,1.6,0,0,0-.6-.8L16.3.2,15.7,0a1.6,1.6,0,0,0-1.1.5,2,2,0,0,0-.3,1.1,1.3,1.3,0,0,0,.7.9Z"/><path d="M19.7,25.2a.9.9,0,0,0-.4-.8.9.9,0,0,0-.8-.4H1.2a.9.9,0,0,0-.8.4.9.9,0,0,0-.4.8v2.1H19.7Z"/></svg>
