<svg xmlns="http://www.w3.org/2000/svg" viewBox="0 0 28 28.2"><path d="M27.6,26.7v1.1a.4.4,0,0,1-.4.4H.8a.4.4,0,0,1-.4-.4V26.7a.9.9,0,0,1,.9-.9H26.7a.9.9,0,0,1,.9.9Z"/><path d="M24.7,13.2V23H25a.9.9,0,0,1,.8.8v1.1H20.2V23.8A.8.8,0,0,1,21,23h.2V13.2H21a.8.8,0,0,1-.8-.9V11.2h5.6v1.1a.9.9,0,0,1-.8.9Z"/><path d="M15.7,13.2V23h.2a.9.9,0,0,1,.9.8v1.1H11.1V23.8a.9.9,0,0,1,.8-.8h.3V13.2h-.3a.9.9,0,0,1-.8-.9V11.2h5.7v1.1a.9.9,0,0,1-.9.9Z"/><path d="M6.8,13.2V23H7a.8.8,0,0,1,.8.8v1.1H2.2V23.8A.9.9,0,0,1,3,23h.3V13.2H3a.9.9,0,0,1-.8-.9V11.2H7.8v1.1a.8.8,0,0,1-.8.9Z"/><path d="M27.8,7.6,14.2.1h-.4L.2,7.6,0,8V9.9a.5.5,0,0,0,.4.5H27.6a.5.5,0,0,0,.4-.5V8l-.2-.4ZM14,7.8a2.1,2.1,0,0,1-2.1-2.1,2.1,2.1,0,0,1,4.2,0A2.1,2.1,0,0,1,14,7.8Z"/></svg>
