<svg xmlns="http://www.w3.org/2000/svg" viewBox="0 0 32 23.37"><g id="fe372095-a66e-40d9-bacc-c75d9b153b44" data-name="Layer 2"><g id="f0ad5ff9-bec5-44c7-9bfa-94464c140adc" data-name="Icons"><path id="b18e5f76-468f-47f1-bbf3-d6e017790b75" data-name="path6898" d="M11.81,23a3.85,3.85,0,0,0,.39-.42,9.52,9.52,0,0,0-1.74,0c-.27,0-.37,0-.46-.06s-.13-.11.15-.33a1.28,1.28,0,0,1,.69-.3l.44-.07a1.7,1.7,0,0,0,.35-.52l-.77.06c-.41.05-.88.08-1,.08a4.42,4.42,0,0,0-.87.16,5.73,5.73,0,0,1-.67.15c-.09,0-.1-.3,0-.4a6,6,0,0,1,1.75-.5,5.55,5.55,0,0,0,.82-.18s.07,0-.79-.29a4,4,0,0,1-.62-.22L9.75,20l.33-.13.69.16.74.16A8.32,8.32,0,0,0,13,17.9l.6-1.21V15.6l-.27-.21c-.36-.26-.33-.25-2-.71a8.41,8.41,0,0,1-2.57-1,14.72,14.72,0,0,1-3.17-2.26,3.22,3.22,0,0,1-1-1.27,4.24,4.24,0,0,1-.5-1.53A3.36,3.36,0,0,0,3.5,7a8.52,8.52,0,0,1-.86-1.85L2.5,4.71H2.11a7.19,7.19,0,0,0-.94.1,4.76,4.76,0,0,1-.86.06L0,4.83.1,4.6a1.15,1.15,0,0,1,.71-.67,6.13,6.13,0,0,0,.79-.45,1.26,1.26,0,0,0,.65-.72A1.88,1.88,0,0,0,2.44,2,1.46,1.46,0,0,1,3,.82c.41-.4.68-.51,1.82-.74A4.66,4.66,0,0,1,6.13,0,2.58,2.58,0,0,1,7.27.3a6.78,6.78,0,0,1,2,1.84l.46.57.36,0c.19,0,.6.06.92.07a9.19,9.19,0,0,1,2.48.73C17.67,5.08,17.55,5,19.24,6.6a11,11,0,0,0,2.39,2c.45.26,4.71,2.26,6.24,2.93a5.6,5.6,0,0,0,1.88.53,7.13,7.13,0,0,1,2.08.47c.06.07,0,.1-.09.13s-.2.13.06.22.21.1.2.15a1.16,1.16,0,0,1-.33.22c-.3.16-.34.16-1.69.16-.76,0-1.8-.05-2.3-.08a8,8,0,0,0-2.23.08,9.11,9.11,0,0,0-3,.66,5.75,5.75,0,0,1-1,.31,9.15,9.15,0,0,0-1.2.41l-1,.42-.54,0a4.85,4.85,0,0,0-1.42.12,9.37,9.37,0,0,1-1.88.15h-1l.44.85.44.85-.09.49a6.89,6.89,0,0,1-.2.89c-.07.23-.28,1-.47,1.65l-.35,1.24.1.47c.1.43.1.48,0,.69s-.13.24-.73.16c-.33,0-.37,0-1,.26a3.4,3.4,0,0,1-.91.34l-.29,0L11.8,23h0Zm1.58-1.8A8.19,8.19,0,0,0,14,19.32c.25-1,.28-1.16.23-1.35a2.63,2.63,0,0,1,0-.59c0-.34-.3.2-1,1.59-.81,1.58-.88,1.76-.91,2.14a3.85,3.85,0,0,1-.07.51c0,.08,0,.12.32.2l.41.1a4.63,4.63,0,0,0,.42-.73Z"/></g></g></svg>
