<svg xmlns="http://www.w3.org/2000/svg" viewBox="0 0 31.3 30"><path d="M15.3,9.3a4.1,4.1,0,0,0,.2,1.9c.1.1-.1.2-.2.1a2.5,2.5,0,0,0-.4-.7,5.4,5.4,0,0,0,.5,2.2c0,.2-.2.2-.2.1h-.1a8.1,8.1,0,0,1-.1,1.6c.1-.1.2-.3.4-.4h.3c.1-.4.1-.9.2-1.4a29.2,29.2,0,0,1,1-4A18.5,18.5,0,0,1,18.8,5a13.1,13.1,0,0,1,2.5-3.2h.1a26,26,0,0,0-2.5,3.3,25.3,25.3,0,0,0-1.8,3.7,24.9,24.9,0,0,0-.9,3.7.5.5,0,0,0,.2.4,4.5,4.5,0,0,1,.5-1.9h.2c0,.2.1.3.1.5A4.6,4.6,0,0,1,18,9.7h.2a.8.8,0,0,0,.1.4A4.6,4.6,0,0,1,19,8.6c-.1.1-.2-.1-.1-.1a3.5,3.5,0,0,0,1.3-1.4h-.7c-.1,0-.1-.1,0-.2l1.4-.9h-.7c-.1,0-.1-.2,0-.2a2.6,2.6,0,0,0,1.4-1.1h-.9c-.1,0-.1-.1-.1-.2h.3l.6-.3a1,1,0,0,0,.5-.4.5.5,0,0,0,.3-.5l-.7.2c-.1.1-.2-.1-.1-.1A7.1,7.1,0,0,0,23.1.5,13.4,13.4,0,0,0,20,2.2c0,.1-.1,0-.1-.1s.1-.2.1-.3a2.9,2.9,0,0,0-1.1,1.9c0,.1-.2.1-.2-.1s-.1-.4-.1-.6A4.9,4.9,0,0,0,18,4.7h-.2V4.2a3.2,3.2,0,0,0-.5,1.9c0,.1-.1.1-.2,0a2.5,2.5,0,0,0-.2-.7,3.1,3.1,0,0,0-.1,1.9c0,.1-.1.2-.2.1l-.3-.6a3.7,3.7,0,0,0,.1,1.8c0,.1-.1.2-.2.1L15.9,8a3.1,3.1,0,0,0,0,1.9c0,.1-.1.2-.2.1h0Z"/><path d="M10,3h0l-.7-.3.3.5a1.2,1.2,0,0,0,.5.5l.6.3H11a.1.1,0,0,1-.1.1H10a2.5,2.5,0,0,0,1.3,1.2c.1,0,.1.2,0,.2h-.7l1.4,1c.1.1,0,.2-.1.2h-.6a4.1,4.1,0,0,0,1.2,1.4c.1,0,0,.2-.1.2H12a5.1,5.1,0,0,1,.9,1.8c0-.1.1-.2.1-.4h.2a4.4,4.4,0,0,1,.7,1.9c0-.2.1-.3.2-.5h.2l.3,1h.2v.2a5.5,5.5,0,0,1-.1-1.8c-.2-.6-.3-1.2-.5-1.8a24.3,24.3,0,0,0-1.6-3.7,30.7,30.7,0,0,0-2.4-3.5h.1a15.5,15.5,0,0,1,2.4,3.3,25.9,25.9,0,0,1,1.7,3.8,14.6,14.6,0,0,1,.5,2l.2.2a4.3,4.3,0,0,1,0-1.6h.1l.3.4V7.7l-.4.7H15a3.7,3.7,0,0,0,.2-1.8l-.3.6c-.1.1-.2,0-.2-.1a3.1,3.1,0,0,0-.1-1.9,1.4,1.4,0,0,1-.2.7c-.1.1-.2.1-.2,0a3.4,3.4,0,0,0-.4-2,.7.7,0,0,1-.1.5c0,.2-.2.1-.2,0A3.4,3.4,0,0,0,13,2.6a2,2,0,0,1-.1.7c0,.1-.2.1-.2,0a3.2,3.2,0,0,0-1-1.9.4.4,0,0,0,.1.3c0,.1-.1.2-.2.1A17.5,17.5,0,0,0,8.7,0a5.7,5.7,0,0,0,1.4,2.8C10.2,2.9,10.1,3,10,3Z"/><path d="M6,14.2H6a.6.6,0,0,0,0,.6l.7-.9h.2v.6a1.6,1.6,0,0,0,.8-.6h.2a.4.4,0,0,1-.1.3h.4l.3-.3h.1c-.1-.1,0-.1,0-.2a3.8,3.8,0,0,1,1.5.1l-.3-.4c-.1,0,0-.1,0-.1a1.9,1.9,0,0,1,1.3.2H11l-.4-.2h-.1l-2.1-.3a9.5,9.5,0,0,0-7.1,3.1H1.2a9.1,9.1,0,0,1,7.1-3.2,9.9,9.9,0,0,1,2.4.3l.5-.2-1.5-.3c-.1,0-.1-.2,0-.2L10,12H8.6c-.1-.1-.2-.2-.1-.2l.5-.4H7.9l.3.3c.1.1,0,.2-.2.1a2.8,2.8,0,0,0-1.3-.4l.2.3c.1.1,0,.2-.1.2a3.3,3.3,0,0,0-1.7-.1l.3.2c.1,0,.1.1,0,.2h0l-1.7.2h.2c.2,0,.2.2,0,.2a3.3,3.3,0,0,0-1.3.4h.2c.1,0,.2.2.1.2a3,3,0,0,0-1.1.7H2c.1,0,.1.1,0,.2a2.1,2.1,0,0,0-1.1.8l.4-.2c.1,0,.2.1.1.2A3.8,3.8,0,0,0,.3,17.4l1.3-.7h.1c.1-.1.2-.2.2-.3H2l.4-.5h.1a1.4,1.4,0,0,1-.2.6,3.1,3.1,0,0,0,.9-1.1h.2a.7.7,0,0,1-.1.5,4.4,4.4,0,0,0,.8-1.1c.1,0,.3,0,.2.1a2.4,2.4,0,0,0-.2.8A4.7,4.7,0,0,0,5,14.6h.1c0,.3-.1.5,0,.7a4.1,4.1,0,0,0,.7-1.1Z"/><path d="M24.5,6.3a4,4,0,0,0-1.9,1.5c0,.1-.2,0-.2-.1h0l.3-.8a11.2,11.2,0,0,0-2,1.8c0,.1-.1,0-.1-.1s.1-.5.1-.8a2.5,2.5,0,0,0-1.1,1.6h-.2V8.5a3.5,3.5,0,0,0-1,2.1h-.2A1.4,1.4,0,0,0,18,10a3.6,3.6,0,0,0-.6,2c0,.2-.2.2-.2.1l-.3-.7a4.9,4.9,0,0,0-.3,2.1h-.2l-.3-.5a5,5,0,0,0,.2,1.7c0-.3.1-.5.1-.8h.2c.1.1.1.3.2.4a3.5,3.5,0,0,1,.6-1.4h.2a16.4,16.4,0,0,1,2.9-3,15.3,15.3,0,0,1,4-2.1A11.6,11.6,0,0,1,29,7.5h0a16.3,16.3,0,0,0-4.4.8,12,12,0,0,0-3.9,2,11,11,0,0,0-2.2,2.1h0v.3a3.4,3.4,0,0,1,1.6-1.3h.1a.7.7,0,0,1-.1.5,2.1,2.1,0,0,1,1-.6c.1-.1.2,0,.2.1a.4.4,0,0,0-.1.3,3,3,0,0,1,1.5-.7h.2c0,.1-.1.1-.1.2l.7-.3-.4-.3c-.1-.1,0-.2.1-.1h.1a4.2,4.2,0,0,0,1.6.1l-.5-.5c-.1-.1,0-.3.1-.2a4,4,0,0,0,1.9.2l-.6-.6c-.1-.1,0-.2.1-.2a4.1,4.1,0,0,0,1.9.2l-.5-.5c-.1,0-.1-.2.1-.2h1.2l-.9-.4h1.2l.9-.4a4.2,4.2,0,0,1,1.5-.4,3.3,3.3,0,0,0-1.9-.8,2.9,2.9,0,0,0-2.4.1c-.1.1-.2-.1-.1-.2l.4-.6a5,5,0,0,0-1.9,1c-.1,0-.3-.1-.1-.2a2.1,2.1,0,0,0,.4-.6l-1.4.8h0c-.1.1-.2,0-.2-.1A1.6,1.6,0,0,0,24.5,6.3Z"/><path d="M29.5,14.3h0c-.1,0-.1-.1,0-.1h.4a2.4,2.4,0,0,0-1.2-.7c-.1-.1,0-.2.1-.2H29a2.7,2.7,0,0,0-1.2-.6c-.1,0,0-.2.1-.2h.2a3.5,3.5,0,0,0-1.4-.3c-.1,0-.1-.2,0-.2H25.2l.2-.2a3,3,0,0,0-1.6.2c-.1,0-.3-.1-.2-.2s.2-.2.2-.4a3.1,3.1,0,0,0-1.3.6c-.1.1-.2,0-.1-.1a.5.5,0,0,0,.2-.4,3.6,3.6,0,0,0-1.5.8c-.1.1-.2,0-.2-.1s.1-.2.1-.4a2.8,2.8,0,0,0-1,.9h-.2l.2-.7a2.9,2.9,0,0,0-1.5,1.4h-.2v-.4a2.4,2.4,0,0,0-.6,1.1h-.2c0-.2-.1-.3-.1-.5a3.4,3.4,0,0,0-.5,1.4c0,.1-.1.1-.2,0a.8.8,0,0,0-.2-.4,3.6,3.6,0,0,1-.2,1h-.1V15h-.1a1,1,0,0,0-.4-.5,1.9,1.9,0,0,1,.1.8h-.2c0-.3-.1-.7-.1-1s-.1.6-.2.9h-.1a1.3,1.3,0,0,1,.1-.6l-.5.5c0,.1-.2,0-.1-.1a11.1,11.1,0,0,0,.2-1.9l-.3.5h-.2a5,5,0,0,0-.2-2.1l-.3.7c0,.1-.2.1-.2-.1a3.6,3.6,0,0,0-.6-2,.8.8,0,0,1-.2.5c0,.2-.2.1-.2,0a2.8,2.8,0,0,0-.8-2c0,.2-.1.5-.1.8s-.2.1-.2,0a2.7,2.7,0,0,0-1-1.6,2.2,2.2,0,0,0,.1.8c0,.1-.1.2-.2.1A17,17,0,0,0,8.6,6.6a2.4,2.4,0,0,1,.2.8c.1.1-.1.2-.2.1A3.7,3.7,0,0,0,6.9,5.9a.9.9,0,0,0,.3.7c0,.1-.1.2-.2.1H7L5.7,5.9c0,.2.2.4.4.6s-.1.2-.2.1A6.9,6.9,0,0,0,4,5.6l.5.7s-.1.2-.2.1a3.3,3.3,0,0,0-2.4-.2A4,4,0,0,0,0,6.9l1.4.5,1,.4c.3.2.7.1,1.1.1h0c.1,0,.1.1,0,.1l-.8.4H3.9c.1,0,.2.2,0,.2l-.5.4a3.1,3.1,0,0,0,1.9,0c.1-.1.2.1.1.2l-.6.6a4.1,4.1,0,0,0,1.9-.2c.1-.1.2.1.1.2l-.6.5a4.9,4.9,0,0,0,1.7-.1H8s.1.1,0,.1l-.6.6a3,3,0,0,0,2.1-.1c.1,0,.2.1.1.2l-.8.6a3.7,3.7,0,0,0,1.8-.1.2.2,0,0,1,.1.3l-.7.4,1.7.2c.1,0,.2.2.1.2l-.7.3a1.8,1.8,0,0,1,1.2.5.5.5,0,0,0-.2-.4h.1a2.5,2.5,0,0,1,1.3.9h0a11.7,11.7,0,0,0-3-3.7A14.1,14.1,0,0,0,6.7,7.9,13.8,13.8,0,0,0,2.3,7c-.1,0-.1-.1,0-.1a11,11,0,0,1,4.4.7,14.4,14.4,0,0,1,4,2.3A13,13,0,0,1,14,14a2.9,2.9,0,0,1,.7,1.2h-.1L13.8,14a.9.9,0,0,0,.1.5h-.2a2.7,2.7,0,0,0-1.3-1.3,2.1,2.1,0,0,0,.4.6c0,.1-.1.2-.2.1a2.1,2.1,0,0,0-1.5-.7l.4.6h-.1a2.4,2.4,0,0,0-1.4-.5l.5.5v.2a3,3,0,0,0-1.6-.2l.8.5c.1,0,0,.2-.1.1a3.7,3.7,0,0,0-1.8-.1,1,1,0,0,0,.7.4c.1.1.1.2,0,.2h-1c.1.2.3.2.5.2s.1.2.1.2H7.9a2,2,0,0,0-1.2.6h.6c.1,0,.1.2,0,.2a2.1,2.1,0,0,0-1,.6h.6a3.9,3.9,0,0,0-1,.8h.5c.1,0,.1.1.1.2a6.1,6.1,0,0,0-.7,1l.4-.2c.1-.1.2,0,.1.1a2.8,2.8,0,0,0-.4,1.5c.1-.1.2-.3.4-.4h0a4.9,4.9,0,0,0,.5,2.9C7.2,22,8.6,20.8,8,19.4s.1-.2.2-.1a4.3,4.3,0,0,0,.4.7,4.3,4.3,0,0,0,0-1.6c0-.1.2-.2.2-.1a1.8,1.8,0,0,0,.5.7,8.3,8.3,0,0,1,.4-1.5.4.4,0,0,1-.1-.3h.2a3.6,3.6,0,0,0,.4.9,10.7,10.7,0,0,0,.7-1.9c0-.1.2,0,.2.1a1.1,1.1,0,0,0,.2.8,3.3,3.3,0,0,0,.7-1.3h.2c0,.2.1.4.1.7l1-1.1.4.3.6.4a1.5,1.5,0,0,0-.1.7h0v.6h0a.5.5,0,0,0-.4-.3,3.6,3.6,0,0,1,.4,1.1v.4h0a.2.2,0,0,0-.2-.2c.1.3.1.6.2.9v.4l-.2-.2a1.4,1.4,0,0,0,.2.7V21a.2.2,0,0,0-.2-.2,1.4,1.4,0,0,1,.2.7v.7L14,22c0,.3.1.6.1.9h.1a.9.9,0,0,0-.1.5H14c-.1-.2-.1-.3-.2-.4a4,4,0,0,0,0,1.1.4.4,0,0,1,.1-.3H14c.1,0,.1,0,.1.1a.4.4,0,0,1-.1.3h0c-.1.2-.1.4-.2.5a.1.1,0,0,1-.1.1h0c-.1-.1-.1-.2-.2-.2a5.4,5.4,0,0,0,.3,1h0v.2l-.4-.3a1.4,1.4,0,0,0,.2.7c0,.1-.1.2-.1.3l-1.1-1.5a5.3,5.3,0,0,1,.4,1.6l-1.1-.9.4.9h-.5a3.5,3.5,0,0,0,.8,1,5.4,5.4,0,0,0-2.6-.7c.3.4.7.5.9.9s-1.5,1.7-1.5,1.8,2.9.9,6.4.7,5.8-.9,7.4-1c-.8-1.2-2.8-1-1-2.7H20.8c.2-.1.2-.7.3-.9l-1.4,1.1c-.9-.2-.5-.2.4-.7l-1.1.2a7.5,7.5,0,0,1,1.1-1.3c-.6.6-1.3.9-1.8,1.5a5.1,5.1,0,0,1,.9-1.6,8.7,8.7,0,0,0-1.6,1.7.4.4,0,0,0-.1-.3,1.3,1.3,0,0,0,.3-.8l-.4.2v-.2l.3-.9c-.1,0-.1.1-.2.2h-.2a4.3,4.3,0,0,1-.1-.5h-.1v-.3h.2a.4.4,0,0,1,.1.3V22.9a.5.5,0,0,0-.2.4H17v-.7a.4.4,0,0,0,.1.3,2.8,2.8,0,0,1,.1-.9c-.1.1-.1.2-.2.2h-.1v-.7h0l.3-.8-.3.2v-.4a3.2,3.2,0,0,0,.3-.9l-.3.3h0v-.4h0l.3-1.1a.2.2,0,0,0-.2.2h-.1v-.5h0a3.7,3.7,0,0,1,.5-1.1.5.5,0,0,0-.4.3h-.1a4.9,4.9,0,0,0,.1-1.2l.7-.4c.1,0,.2.1.1.2v.3l.6.4c0-.2,0-.4-.2-.5l.2-.2,1,.9c0-.2.1-.4.1-.7h.2a3.2,3.2,0,0,0,.8,1.2,1,1,0,0,0,.1-.9h.2l.9,1.8a3.8,3.8,0,0,0,.3-1h.2v.2l.5,1.5a1.6,1.6,0,0,0,.4-.7h.2a7.8,7.8,0,0,0,.2,1.6l.4-.7c0-.1.2,0,.1.1s1.2,2.4,1.8,3.6a5.7,5.7,0,0,0,.1-2.9h0a.1.1,0,0,1,0-.2c.1.2.3.3.4.4a2,2,0,0,0-.6-1.4c-.1-.1,0-.2.1-.1l.4.2a2.5,2.5,0,0,0-.8-1c0-.1,0-.2.1-.2H26a1.9,1.9,0,0,0-1.1-.7c-.1,0-.1-.2,0-.2h.6a1.6,1.6,0,0,0-1.1-.5c-.1,0-.2-.1,0-.2l.5-.2c-.3-.3-.7-.3-1.2-.4h-.1a.1.1,0,0,1,0-.2.7.7,0,0,0,.6-.3h-1c-.1,0-.2-.2-.1-.2a1.8,1.8,0,0,0,.7-.5,4.8,4.8,0,0,0-1.8.3c-.1.1-.2-.1-.1-.1l.7-.6a3.7,3.7,0,0,0-1.5.3c-.1.1-.2,0-.2-.1a1,1,0,0,0,.4-.5,1.9,1.9,0,0,0-1.3.6c0,.1-.1,0-.1-.1l.3-.6a2.4,2.4,0,0,0-1.4.9c0,.1-.2,0-.1-.1a1.4,1.4,0,0,0,.2-.6,2.6,2.6,0,0,0-1.1,1.4c0,.1-.2.1-.1,0v-.5A5.4,5.4,0,0,0,17,16h-.1a2.4,2.4,0,0,1,.9-1.5h.1v.2a2.5,2.5,0,0,1,1.2-1.1h.1a9,9,0,0,1,3.2-.9,8.7,8.7,0,0,1,7.3,2.6h-.1a9.7,9.7,0,0,0-7.3-2.4l-1.9.5h.1l-.3.4a3.3,3.3,0,0,1,1.3-.4c.1,0,.1.1.1.2l-.3.3,1.5-.2a.1.1,0,0,1,0,.2l-.3.4H23v-.2c-.1-.1.1-.1.1-.1h.9V14c0-.1.1-.2.2-.1l.8.8a1.3,1.3,0,0,0-.1-.6H25a3.9,3.9,0,0,0,.8,1,1.3,1.3,0,0,0-.1-.6c0-.2.1-.2.2-.1a3.1,3.1,0,0,0,.9,1.1,1.4,1.4,0,0,0-.2-.7c-.1-.1.1-.2.1-.1l.9,1a4.3,4.3,0,0,0-.1-.5h.2a2.4,2.4,0,0,0,1,1l-.3-.5v-.2l.5.5h.1l.3.3h0a6.9,6.9,0,0,1,1.3.5A3.7,3.7,0,0,0,29.5,14.3ZM14.3,15.9Zm.7-.2h-.1a6.3,6.3,0,0,0-2.7-1A5.2,5.2,0,0,0,9,15.8c-1.8,1.6-2,4.1-2.3,6.3H6.6c.2-2.4.5-5,2.4-6.6a4.8,4.8,0,0,1,6.1.2Zm2.1.3a4.8,4.8,0,0,1,5.5-.4c2.1,1.4,2.7,4,3.1,6.3h-.1c-.5-2.1-1-4.6-3-5.9a4.1,4.1,0,0,0-3.2-.8,6.3,6.3,0,0,0-2.4.9h.1Z"/></svg>
