<svg xmlns="http://www.w3.org/2000/svg" viewBox="0 0 32 20.47"><g id="f6949a47-3993-43d8-8581-f84ea98fe69d" data-name="Layer 2"><g id="ef284a9b-23ad-4a8d-819b-b3e3a66db57e" data-name="Icons"><path d="M18.45.11a5.61,5.61,0,0,0-2,1.56H11.88A6.14,6.14,0,0,1,15.17,0,27.38,27.38,0,0,0,0,5.69V20.47H5.76c.87-.8,1.74-1.6,2.58-2.44s1.4-1.42,2.09-2.14H21.31c-.43,1.22-.95,2.43-1.46,3.59-.14.33-.3.66-.45,1H32V5.69A28.08,28.08,0,0,0,18.45.11ZM12.81,6.4C12,5.29,11,4,11.31,2.67h5.2a.94.94,0,0,0,.09.12c1.19,1.12,2.86,1.48,4,2.71a6.5,6.5,0,0,1,.66.9Zm-.52,7.49c.32-.35.65-.7,1-1.05a4.2,4.2,0,0,0,1.4-2.9,4.69,4.69,0,0,0-.8-2h8a8.88,8.88,0,0,1,.39,1.72,10.76,10.76,0,0,1,0,1.88,14.89,14.89,0,0,1-.39,2.39Z"/></g></g></svg>
