<svg xmlns="http://www.w3.org/2000/svg" viewBox="0 0 32 20.84"><g id="e9d5183e-e469-49bf-865a-670ad94a395e" data-name="Layer 2"><g id="f7da3a5f-385f-483b-925f-9bb933a6086c" data-name="Icons"><path id="ec193cdf-d9a9-4bd1-b251-c62f5dea11c8" data-name="path6978" d="M27,20.73a3.5,3.5,0,0,0,2.07-.65c.06-.1.41-.6.79-1.13a16,16,0,0,0,2.06-4,1.54,1.54,0,0,0,.09-.63s-.64-.19-1.35-.36a5.49,5.49,0,0,1-1.82-.62c-.29-.17-.93-.5-1.41-.74-.82-.4-.87-.43-.66-.46s.2,0-.34-.25l-1.32-.58a4.23,4.23,0,0,0-1.68-.48c-.51-.07-1-.15-1.13-.18a8.7,8.7,0,0,1-.92-.52,12.1,12.1,0,0,0-1.65-.84,4.9,4.9,0,0,0-1.78-.48,13.88,13.88,0,0,0-4.64.26l-1.08.22V8.37a10.76,10.76,0,0,0-.09-1.46,15.91,15.91,0,0,1-.37-2.59A3.91,3.91,0,0,0,10.82,2,5.39,5.39,0,0,0,9.73.66,2.27,2.27,0,0,0,7.68,0a3.74,3.74,0,0,0-1.8.28A2.58,2.58,0,0,0,4.65.91,9.53,9.53,0,0,0,3,2.94,2.64,2.64,0,0,1,1.64,4.31c-1,.55-1.45.86-1.55,1.1A1.68,1.68,0,0,0,0,5.65a8.16,8.16,0,0,0,1.85-.08c.46-.06,1.33-.14,1.95-.19a9.41,9.41,0,0,1,2.25,0c1.15.12,1.35.15,1.35.27a9,9,0,0,1-.77,2.17A9.23,9.23,0,0,1,5.57,9.58a4.1,4.1,0,0,0-.84,1.57l-.19.55.11.69a8.25,8.25,0,0,0,.28,1.16,1.83,1.83,0,0,1,.13.94,1,1,0,0,0,.1.73c.14.27.14.3.06.83l-.09.56.27.63a2.18,2.18,0,0,1,.27,1.16v.52l.47.36.47.36,1.2.27a15.26,15.26,0,0,0,2.75.39,18.64,18.64,0,0,0,3.27,0l1.72-.1,1.75.23,1.74.22,1.36-.12,2.05-.19a4.94,4.94,0,0,1,2.37.32,4.19,4.19,0,0,0,2.15,0h0Z"/></g></g></svg>
