<svg xmlns="http://www.w3.org/2000/svg" viewBox="0 0 31 32"><path d="M28.1,14.4h0l-1.9-.8.4-1-1-.4-.4,1L7.6,5.8l.4-1-.9-.4-.4,1L5.7,5H5.3q-.1,0-.3.3L3.4,9.1a2.2,2.2,0,0,0,0,1.6,2,2,0,0,0,1.1,1.1l1.1.4-.4,2.3H3.1a.5.5,0,0,0-.5.5v6.2a.4.4,0,0,0,.1.3l.4.2H8.3l.3-.2c.1-.1.2-.2.2-.3V15a.5.5,0,0,0-.2-.4H6.3l.2-1.9,4.6,2-.4.8h0a3.1,3.1,0,0,0-.3,2.3A3,3,0,0,0,12,19.4l2.4,1-.8,5.2a1.9,1.9,0,0,0,.2,1.3,1.5,1.5,0,0,0,1,.9L19,29.6a2.3,2.3,0,0,0,1.8-.1,2.3,2.3,0,0,0,1-1.5l1-6.9h0a2.5,2.5,0,0,1,.8-1.6,2.8,2.8,0,0,1,1.7-.7h1.2a.5.5,0,0,0,.5-.3l1.4-3.3h0A.6.6,0,0,0,28.1,14.4ZM6.7,19.6H4.6v-1H6.7Zm0-3.1v1.1H4.6V16.5Zm7.9,2.9-2.2-1a1.7,1.7,0,0,1-1-1,1.6,1.6,0,0,1,.2-1.5l.5-.9,2.3.9a3.2,3.2,0,0,1-1.4.8l.2,1a3.2,3.2,0,0,0,1.8-1Z"/><path d="M30.8.2,30.5,0H.5A.5.5,0,0,0,0,.5V29.9A2.1,2.1,0,0,0,2.1,32H28.9A2.1,2.1,0,0,0,31,29.9V.5C31,.4,30.9.2,30.8.2Zm-.9,29.7a1.1,1.1,0,0,1-.3.8.9.9,0,0,1-.7.3H2.1a1.1,1.1,0,0,1-.8-.3,1.1,1.1,0,0,1-.3-.8V3.1H24.8V5.2a.4.4,0,0,0,.1.3l.4.2h2.1l.3-.2.2-.3V3.1h2ZM25.8,4.6V3.1h1V4.6Zm4.1-2.5H1V1H29.9Z"/><path d="M27.9,19.6h1v7.8h-1Z"/><path d="M27.9,28.4h1v1h-1Z"/></svg>
