<svg xmlns="http://www.w3.org/2000/svg" viewBox="0 0 30 30"><defs><style>.a{fill-rule:evenodd;}</style></defs><path d="M30,6.3V0H23.7V2.5H6.3V0H0V6.3H2.5V23.7H0V30H6.3V27.5H23.7V30H30V23.7H27.5V6.3Zm-5-5h3.7V5H25ZM1.2,5V1.3H5V5ZM5,28.7H1.2V25H5ZM28.7,25v3.7H25V25Zm-2.5-1.3H23.7v2.5H6.3V23.7H3.8V6.3H6.3V3.8H23.8V6.3h2.5Z"/><path d="M17,21.5l-.6-.2h0a2.2,2.2,0,0,1-1.1.1A.5.5,0,0,1,15,21a.3.3,0,0,1,.3-.3h0l.2.2H16a6.1,6.1,0,0,1-.2-1.5,1.2,1.2,0,0,1-.5-.9,7.4,7.4,0,0,1,0-2.1,2.3,2.3,0,0,1,1.4-1.7l.3-.3.5-.2.3.2v.2l.6.3h.6a2,2,0,0,1,2.2-.7l1,.5h.1l.2-.3h.5l.3.2a5.3,5.3,0,0,1,.5,1.5l.3.3a2,2,0,0,1,.4,1.8,1.1,1.1,0,0,1,.1.5,2.1,2.1,0,0,1-.7,1.7h0c0,.1-.1.3-.3.2H23a1.6,1.6,0,0,1-1.9.2h-.8c-.2.3-.7.6-1.6.1l-.2-.2-.4.3A2.1,2.1,0,0,1,17,21.5Zm-.1-.6c.2.1.3,0,.5-.1h-.5Zm4.7-.5a.1.1,0,0,1,.1.1h-.1Zm-5-.1h.2l.5-.5h-.8v.4Zm2.8-.2H20l-.3-.4-.3.2Zm-1.5-.2c-.1.1-.1.2-.2.2h0L18,20h-.1Zm2.8.2h.6l-.2-.3h-.3A.6.6,0,0,1,20.7,20.1Zm1.8-.3H23a.8.8,0,0,0,.2-.5h-.5C22.6,19.6,22.5,19.7,22.5,19.8Zm1.4-.7c-.1.2-.1.4-.2.6a1.1,1.1,0,0,0,.5-.8Zm-5.6.1a.4.4,0,0,1,.1.3l.2-.2Zm-1.8,0h.7l.4-.2a.9.9,0,0,1-.1-.5c0-.1,0-.2-.1-.2a4.9,4.9,0,0,1-.1-1.2h-.6c-.1,0-.1.1-.1.2S16.5,18.5,16.5,19.2Zm4.4,0h0v0Zm-.7-.1h.1c.1,0,.1-.1.1-.2S20.3,19.1,20.2,19.1Zm1.2-.4.3.4h.7a4,4,0,0,0,.6-2.7c0-.1-.1-.3-.1-.4h-.7l-.3.4A4.4,4.4,0,0,0,21.4,18.7Zm2.1-1.1a2.5,2.5,0,0,1-.4,1.2h.3A3.7,3.7,0,0,0,23.5,17.6Zm-5,1.1h.2a12.1,12.1,0,0,1,.3-2.5l-.2-.3a6.1,6.1,0,0,0-.5,1.2,3.6,3.6,0,0,1,.3.7A2.5,2.5,0,0,1,18.5,18.7Zm1.6-1.5a2.4,2.4,0,0,1-.2.8v.7A2.1,2.1,0,0,0,20.1,17.2Zm-3.9-1.6a1.9,1.9,0,0,0-.3.9,10.9,10.9,0,0,0-.1,1.8h.1a3.7,3.7,0,0,1,.2-1.2v-.8C16.1,16.1,16.2,15.8,16.2,15.6ZM24.1,18h0Zm-3.5-1.7c.1.2.1.4.2.6h0a1.8,1.8,0,0,1,1-1.6h.1A3.6,3.6,0,0,0,20.6,16.3Zm-3.9.2h.7l.3-.8h0c-.1-.3-.1-.5-.2-.8H17l-.2.4c-.1.3-.1.6-.2,1.1h.1Zm3-1.3a.6.6,0,0,1,.5.2l.2.3a2.9,2.9,0,0,1,1.2-1l-.5-.2a1.4,1.4,0,0,0-1.5.5v.2Zm-1.6,0c0,.1,0,.1.1.1h0A.1.1,0,0,0,18.1,15.2Zm4.8-.4.2.2v-.2Z"/><path class="a" d="M19.3,8.6l-.5.3h0l-.7.5-2.6,1.8v1.2a1.4,1.4,0,0,1-.5,1h-.2l-.2.2L12,15.6a1.3,1.3,0,0,1,.1.6c-.1.2-.1.4-.3.6s-.3.3-.4.4a.1.1,0,0,0-.1.1c.1.3.1.4-.1.6s-.3.2-.4.1-.1-.1-.2-.3h-.1a.1.1,0,0,0-.1-.1.2.2,0,0,0-.4-.1.9.9,0,0,0-.3.6.9.9,0,0,0-.1.5.4.4,0,0,1-.1.3,1.1,1.1,0,0,1-.5.9,5.2,5.2,0,0,1-1.1,1c-.1.1-.2.2-.3.1h0a4,4,0,0,1-1.9-1.7c-.1-.5.9-1.2.9-1.2h0l.4-.2,1.7-1.4A1.6,1.6,0,0,0,9.3,15a.9.9,0,0,1,.4-1h.4l-.2-.3c-.3.1-.4.3-.6.5l-.5.4h0l-.7-1h.1l.5-.2.8-.4,1.2-.9c.3-.1.5-.4.7-.6s.2-.3.4-.4h0l.7,1H12l-.7.3h-.1l.2.3L18.2,8h0l.5-.2h.5l.2.3v.5Z"/></svg>
