<svg xmlns="http://www.w3.org/2000/svg" viewBox="0 0 22.29 32"><g id="f865c8d0-fb7f-4675-961a-2868fe366f45" data-name="Layer 2"><g id="a458a34c-fc7a-4fe4-938d-c99cd52fa28f" data-name="Icons"><path id="abb1034d-08ba-4518-acc2-b5ce97d94fe3" data-name="path6964" d="M21.53,31.94c-.05,0-.81-.23-1.7-.45S18.09,31,17.93,31a1.35,1.35,0,0,0-.37-.12s-.08,0-.08-.05,0-.05-.08-.05a.55.55,0,0,1-.21-.1A8.27,8.27,0,0,0,16,30.08,0,0,0,0,1,16,30a.94.94,0,0,0-.29-.19l-.44-.25a3.5,3.5,0,0,0-.42-.26c-.31-.16-3-1.9-3.47-2.24S9.4,25.57,8.74,25a8.72,8.72,0,0,1-2.29-2.47,6.55,6.55,0,0,1-.12-.89A6,6,0,0,0,6.07,20c-.06-.08-.18-.1-1.74-.34a4.71,4.71,0,0,1-1-.21.83.83,0,0,0-.27-.1s-.09,0-.09,0-.08-.06-.18-.09A4.48,4.48,0,0,1,2.33,19c-.6-.36-.75-.38-1-.17s-.34.13-.49-.11a1.93,1.93,0,0,1-.24-1.2c0-.75.08-1,.36-1.29A7.19,7.19,0,0,1,2,15.39a2.64,2.64,0,0,0,.81-.68A.68.68,0,0,0,3,14.17a2.55,2.55,0,0,0-.52-1.31,5.21,5.21,0,0,0-1.27-1.15C.46,11.17.1,10.8,0,10.57A4.84,4.84,0,0,1,.19,8.79c.07-.32.13-.62.13-.67A17.69,17.69,0,0,1,1.68,5.51c.31-.5.6-1,.64-1.07a1.5,1.5,0,0,1,.18-.28,1.17,1.17,0,0,0,.17-.26,1.13,1.13,0,0,1,.19-.31,2.62,2.62,0,0,0,.24-.34C3.21,3,4.94.51,5.18.21L5.35,0l.08.21c.09.25.18.27.46.11a.58.58,0,0,1,.25-.1,9.58,9.58,0,0,1,.05,1.1l0,1.07.13.13a1.84,1.84,0,0,1,.34.93,3.56,3.56,0,0,1-.05,1.63c-.25.91-.26,1-.16,1.19A4.53,4.53,0,0,1,6.71,7c.08.32.18.7.23.84s.12.35.15.46a1.73,1.73,0,0,0,.28.5,13.29,13.29,0,0,0,1.87,1.88,10.3,10.3,0,0,1,2.22,2.14c.51.77.72,1,.95,1.1a6.48,6.48,0,0,0,.64.14c.28,0,.75.14,1,.22a3.28,3.28,0,0,0,1.91,0,8.48,8.48,0,0,1,1.12-.2c.37-.05.94-.12,1.27-.18a8.17,8.17,0,0,1,1.23-.1c.75,0,.74,0,1.33.56a4.49,4.49,0,0,1,1,1.5,13.3,13.3,0,0,1,.32,1.67l0,.31-.17.19a1.52,1.52,0,0,1-.85.46,1.66,1.66,0,0,0-.33.09,3.29,3.29,0,0,1-.83,0l-1.55-.09c-.42,0-1.21-.11-1.76-.19-1.53-.23-2.16-.18-2.21.18a2.18,2.18,0,0,0,.09.52,1.87,1.87,0,0,1-.09,1.3l-.13.31.14.33a6.31,6.31,0,0,1,.25.95c.25,1.36.35,1.56,1.53,3.17a3.14,3.14,0,0,1,.44.74,2.63,2.63,0,0,0,1,1l.63.45a1.89,1.89,0,0,0,.32.23,5.22,5.22,0,0,1,.47.48c.39.42.44.49.47.71a1,1,0,0,0,.12.33.26.26,0,0,1,.08.14.68.68,0,0,0,.12.16c.15.14.16.31,0,.35a1.6,1.6,0,0,1-.36,0,.5.5,0,0,0-.28.06c0,.06,0,.08.5.45.35.25,1.84,1.48,2,1.61s.06.09,0,.13a.3.3,0,0,1-.29,0h0Z"/></g></g></svg>
