<svg xmlns="http://www.w3.org/2000/svg" viewBox="0 0 32 13.6"><path d="M11.6,4.5a2.5,2.5,0,0,0-.7.8,10.2,10.2,0,0,1-3.7,4c-.3.2-.4.2-.4-.2V8.9a3.4,3.4,0,0,1-1.2,1.2V9.8L5,10V9.7H2.6c-.3-.1-.3-.3-.3-.7L.7,9.3h0L1,8.7H.5A.5.5,0,0,1,0,8.4.5.5,0,0,1,.2,8l.5-.4L.1,7.4,1,6.6.3,6.2a.4.4,0,0,1,.2-.8H.7a1.1,1.1,0,0,1,.8.2l.9.6a.8.8,0,0,0,.7.1V6.1a7.5,7.5,0,0,0,1.5,0l-.2-.2h.9V5.6h.4l.7-.2c.2,0,.2-.1.1-.3h.6A1.1,1.1,0,0,1,8,3.8l-.5-.4L8.3,3l.8-.3,1.2-.6a11.1,11.1,0,0,1,5.2-2H18l3,.4,2.4.2,1.2.2A5.1,5.1,0,0,1,27,2.6a9.1,9.1,0,0,1,1.8,2.1l.5.9.3-.2.4-.3c.2-.1.4,0,.5.3v.4a.4.4,0,0,0,.1.3h.3c.3,0,.4.1.4.3a1.3,1.3,0,0,1-.1.6,2.5,2.5,0,0,0,.2,1.2,1.8,1.8,0,0,1,.3,1.2v.8c.1.3.1.7.2,1.1s.1.4.1.6-.1.4-.3.4a1.9,1.9,0,0,1-1.5-.2l-1.3-.9L27.5,9.8h-.3c-.2,0-.2-.1-.2-.3s-.1-.3-.3-.4h-.1c-.2-.1-.2-.2-.2-.3h-.1c-.2,0-.4-.1-.4-.3h-.2L25,8c-.3-.2-.7-.1-1.1-.1h-.4A3.7,3.7,0,0,0,23.6,9c.1.3.1.6.2.8a4,4,0,0,0,.7,1.8l.5.4.3.2a.5.5,0,0,1-.3.9h-.8a.8.8,0,0,1-.8-.6c-.2-.4-.3-.8-.5-1.3s-.5-1.2-.7-1.9-.1-.6-.2-.9-.1.5-.1.7a4.5,4.5,0,0,0-.1,2,1.8,1.8,0,0,0,1,1.4l.5.2c.2.2.3.4.2.6s0,.2-.2.1h-.5l-.8-.2a1,1,0,0,1-.8-.7l-.6-1.8c-.1-.6-.3-1.2-.4-1.8s-.1-.6-.1-.8-.1-.3-.2-.4V7.7l-.2-.5c-.2-.2-.3-.2-.5-.1h-.5l-.3.3c0-.2-.1-.3-.1-.4l-.7.4a.9.9,0,0,1,.1-.5.2.2,0,0,0-.2-.2c-.4,0-.4,0-.4.4v.2a1,1,0,0,1-.6-.5c0,.1-.1.3,0,.5a1,1,0,0,1-.7.9h-.3a1.6,1.6,0,0,0-1.1,1.8,4.6,4.6,0,0,0,.7,1.6l.2.3a.5.5,0,0,0,.4.2c.3.1.4.2.4.5h0c0,.1.2.4,0,.5a.9.9,0,0,1-.7.1h-.5a1,1,0,0,1-.8-.6,2.8,2.8,0,0,0-1-1.4,1.2,1.2,0,0,1-.5-1.1A9.5,9.5,0,0,1,13,8.5V8.3l-1.3.6a1.5,1.5,0,0,0-.6.9,1.5,1.5,0,0,0,.2.9l.7,1.1.2.3c.1.2,0,.3-.1.3a2.5,2.5,0,0,1-1.2.1c-.3-.1-.4-.4-.5-.6a4.8,4.8,0,0,1-.7-2c-.1-.2-.1-.4-.2-.6s0-.4.3-.6A2.9,2.9,0,0,0,11,7.6a.6.6,0,0,0,.1-.4c0-.1.1-.1.1-.2a1.7,1.7,0,0,0,.6-1.1.5.5,0,0,0-.3-.5V5.2c0-.2.1-.3.2-.5V4.5Z"/></svg>
