<svg xmlns="http://www.w3.org/2000/svg" viewBox="0 0 32 31.4"><path d="M18.9,31.4l-1.3-.2a2.8,2.8,0,0,1-1-.6l-.7-.7a6.6,6.6,0,0,0-.1-1.1,7.1,7.1,0,0,0-.3-2.5c0-.1-.3-.4-1-1l-2-1.6-1.7-1.4-.8-.7a1,1,0,0,1,.2-.9l.5-.3.9-.7.8-.7h0a1.6,1.6,0,0,0-1,0H8.3a26.1,26.1,0,0,0-2.8,0H2.3a.1.1,0,0,1,.1-.1c0-.1,0-.1-.2-.1l-1.4.2-.7.2h0l1.5-.7,1.2-.7,1.3-.7.8-.3L8,15.2A16.1,16.1,0,0,0,11,13a13.9,13.9,0,0,1,4.3-2.9,31.8,31.8,0,0,0,3.9-2.2,10.3,10.3,0,0,0,2.4-2.1c.2-.4.5-.9.7-1.4a5.9,5.9,0,0,0,.5-1.3c.2-.7.4-1,.5-1.4A2.7,2.7,0,0,1,25.9,0a5.1,5.1,0,0,1,1.7.3,1.7,1.7,0,0,1,1,.7,1.6,1.6,0,0,1,.5,1.1c.1.2.1.3.3.4a5.5,5.5,0,0,0,1.4.9c.8.5,1.1.7,1.2.9a.1.1,0,0,1-.1.1c-.1.1-.4,0-1.2-.2l-1.9-.5c-.4,0-.6.1-1.2.5a2.3,2.3,0,0,0-1.3,1.7,7,7,0,0,0-.6,1.7,7.6,7.6,0,0,0-.2,1.6,11.2,11.2,0,0,1-.4,2.8,24.1,24.1,0,0,1-.7,2.4,4.3,4.3,0,0,0-.3,1l-.4.4-.6.5-2.2,1.5-1.2.8-1.4.9-1.1.8a2.5,2.5,0,0,0-.4.7,5.8,5.8,0,0,0-.6,1.7,2.2,2.2,0,0,1-.2,1V24a10,10,0,0,0,.2,1.6v.2h.1c.1.1.3.2.4.4a3.6,3.6,0,0,1,1,1.1,2.8,2.8,0,0,0,1,1.4l.5.4c.2.1.2.2.2.4s0,.2-.1.2l-.6-.2a4.5,4.5,0,0,1-.7-.7l-.3-.3h0c0,.1,0,.2.3.7v.3h-.5c-.2,0-.2-.2-.5-.9a10.4,10.4,0,0,1-.5-1.2h-.1c0,.1.1,1,.2,1.6a.8.8,0,0,0,.2.5l.4.3,1,.3h1.9a.4.4,0,0,1,.1.3l-.8.2h-.1q.5.2,0,.3ZM15.4,25a11.1,11.1,0,0,0-.2-1.9v-.3c0-.1,0-.1.1-.3s.6-1.3.8-1.9a4.1,4.1,0,0,0,.2-.7h-.1l-.8-.2a4.5,4.5,0,0,1-1.8-.3h-.5l-1.4,1.2c-.1.1-.2.3-.3.3v.8l.3.3,2.2,2,1.5,1.2Z"/></svg>
