<svg xmlns="http://www.w3.org/2000/svg" viewBox="0 0 31.44 32"><defs><style>.b93481b6-1b49-4b20-801b-cbf92e518002{fill-rule:evenodd;}</style></defs><g id="afbd4afe-0e89-469e-b940-659c40bb73da" data-name="Layer 2"><g id="a4d21abf-941d-4746-9411-d0efc18b1cff" data-name="Icons"><path class="b93481b6-1b49-4b20-801b-cbf92e518002" d="M17.16,31.83h9.6L18.62,25.4A36.87,36.87,0,0,1,17.16,31.83Z"/><path class="b93481b6-1b49-4b20-801b-cbf92e518002" d="M31.37,8.32a12.4,12.4,0,0,0-5.13,3.47,42,42,0,0,1,5.2-8c-3.23,2-5.78,5.86-7.76,10.21,1.12-7.91,5.8-10,5.8-10-3.3,1.12-5.3,3.89-6.47,7.33a42,42,0,0,1,1.74-10.1,18.17,18.17,0,0,0-2.83,7.93A41.26,41.26,0,0,1,22.77,0c-1.66,2.81-2.21,6.62-2.15,10.67-1.39-3.72-3.26-7-5.77-9a43,43,0,0,1,4.68,10C18,8.07,15.68,5.27,12.09,4.45c0,0,6.13,2,7.35,12.43a12.48,12.48,0,0,0-7.82-8.39c.63.27,5.49,2.58,6.88,9.54a9.46,9.46,0,0,0-5.45-3.68s3.06,1,5.29,5.29l6.55,5.17c-.27-.68-.53-1.35-.75-2,0-.25,0-.5,0-.75.11-.63.24-1.24.39-1.81,2.22-4.1,5.18-5,5.18-5a8.92,8.92,0,0,0-4.25,2.33c2.23-5.17,5.79-6.31,5.79-6.31a10,10,0,0,0-6.33,5A12.45,12.45,0,0,1,31.37,8.32Z"/><path class="b93481b6-1b49-4b20-801b-cbf92e518002" d="M9.2,13.37a.9.9,0,0,0-1.26.15l-.66.83a1.18,1.18,0,0,0-.11.19c-.4.3-.8.61-1.17,1a21.36,21.36,0,0,0-2.1,2.16,18.84,18.84,0,0,0-2,3A15.53,15.53,0,0,0,.4,24.33,14.41,14.41,0,0,0,0,28.77l0,.25A7,7,0,0,0,.33,30.7a2.89,2.89,0,0,0,.38.77c.06.09.38.53.76.53a.52.52,0,0,0,.5-.4.68.68,0,0,0,0-.31,12.09,12.09,0,0,1,0-2.17,13.05,13.05,0,0,1,.5-2.72A12.89,12.89,0,0,1,3.9,23.24a13.3,13.3,0,0,1,2.76-3.11,16.15,16.15,0,0,1,3.66-2.23L27.93,31.8a.84.84,0,0,0,.55.19.89.89,0,0,0,.71-.34l.66-.84a.86.86,0,0,0,.18-.66.87.87,0,0,0-.33-.6Z"/></g></g></svg>
