<svg xmlns="http://www.w3.org/2000/svg" viewBox="0 0 32 21.52"><g id="a34ab1bf-4a4f-4ff8-bdec-190647b53f8a" data-name="Layer 2"><g id="a617c446-309c-419a-b7e3-50f98e8b2e6a" data-name="Icons"><path id="b4592774-4f86-4a9f-857a-25f36db4018c" data-name="path7837-5" d="M19.06,21.43a1.75,1.75,0,0,1-.51-.2,2,2,0,0,0-.41-.15.49.49,0,0,1-.27-.11s-.05-.67-.06-1.39a14.42,14.42,0,0,0-.14-2.14,3.14,3.14,0,0,1,0-1.68c.11-.36.11-.36,0-.62a1.74,1.74,0,0,0-.15-.28,1.73,1.73,0,0,0-.42.06c-.32.06-.42.06-.52,0s-.23-.06-.74,0l-.61.1-.4-.21a2,2,0,0,0-.75-.25c-.4-.05-.57-.12-.45-.2s-.23-.05-.6,0c-.58,0-.72,0-.92-.13s-.25-.17-.27-.3-.05-.17-.48-.22c-.25,0-.85-.1-1.33-.16a50.41,50.41,0,0,0-6.54-.4c-1.22.08-1.82-.06-1.47-.32.16-.11.12-.18-.11-.19a.49.49,0,0,1-.23,0c-.1-.06.09-.14.78-.31.95-.23.58-.34-1-.27S-.06,12.05,0,11.8s.37-.37,1.07-.66c.54-.22.55-.23.36-.27s-.41-.06-.67-.08c-.44,0-.47,0-.47-.19s.15-.28,1-.56a7.39,7.39,0,0,1,2.32-.4c2.62-.24,2.44-.2,3.26-.73a9.36,9.36,0,0,1,3.13-1.29,17.07,17.07,0,0,0,3.13-1.25,21.07,21.07,0,0,1,3.16-1l2.74-.76L21,4c.71-.17.74-.21,1-1.28a4.91,4.91,0,0,1,.32-1A7.53,7.53,0,0,1,23.94.08c.22-.11.28-.11,1.06,0,2,.23,2.28.39,3.52,1.75l.82.9.72.19a3.35,3.35,0,0,1,1.46.61,1.3,1.3,0,0,1,.44.81l0,.24-.65,0a2.65,2.65,0,0,1-1-.19A5.82,5.82,0,0,0,28.28,4a1.52,1.52,0,0,0-.68.49A3.13,3.13,0,0,0,28,5a4.06,4.06,0,0,1,.84,1.54,2.08,2.08,0,0,1,0,1,4.14,4.14,0,0,1-.62,1.82,27.6,27.6,0,0,1-2.22,2.81,11.84,11.84,0,0,1-2.22,1.48,8.79,8.79,0,0,1-3.93,1l-.93.05-.12.24c-.16.31-.18.86,0,.94s.13.36,0,1.05a11.73,11.73,0,0,0,.13,2.56c.1.47.13.48,1.53.6a12.28,12.28,0,0,1,1.28.15c.1.09-.25.27-.55.27-.62,0-.64.09,0,.19a2,2,0,0,1,.61.18c.09.15-.1.32-.4.36s-.4.07-.54.1a1.91,1.91,0,0,1-.47.07,1.38,1.38,0,0,0-.44.09,1,1,0,0,1-.8,0h0Z"/></g></g></svg>
