<svg xmlns="http://www.w3.org/2000/svg" viewBox="0 0 32 24.4"><path d="M1.1,24.3a.6.6,0,0,1,.1-.4,9.3,9.3,0,0,1,1.2-1.8l.2-.2-.7.6-1,.8c-.3.2-.8.3-.9.2s.2-.5.7-1.1l.4-.4H.8c-.7.3-1,.1-.5-.3a8.1,8.1,0,0,1,1.6-1.4.2.2,0,0,0,.2-.2l-.6.2a2.1,2.1,0,0,1-1.5.4c-.1-.1.1-.4,1.1-.9A6.5,6.5,0,0,1,2.7,19c.2-.1.4-.2.3-.3H2.5c-.6.1-1,.1-1-.1l1.9-.9,1.1-.5,1.2-.6.7-.4a4.5,4.5,0,0,1,1.4-.7h.3l.3-.2h.1c0-.1.5-.3.9-.4a9.5,9.5,0,0,0,2.7-1.2c2.3-1.2,2.5-1.4,2.6-2.3s.2-.9.5-1h.2l.5-.2h.8c.1.1.2.1.5,0s.5-.2,1-.8l2.7-2.9a11.3,11.3,0,0,1,2.2-2.2h.2a.2.2,0,0,1,.2-.2h0a2,2,0,0,0,.5-.5l1.6-1.5C27,.6,27.2.4,27.1.9A2.4,2.4,0,0,1,26.5,2h-.1c0,.1.7-.5.7-.6A9,9,0,0,1,28.9,0c.1,0-.1.6-.2.8l-.4.5c-.2.3-.3.4-.2.4s.5-.2.4-.3L30.1.5h.4a2,2,0,0,1-.6.9c-.1.1-.1.2,0,.1l1.3-.4h.3c0,.2-.5.7-1,1s-.5.3.3.1,1.2-.2,1.2,0a2.4,2.4,0,0,1-.9.8.7.7,0,0,0-.4.5l-.6.6c-.2.2-.4.3-.4.5l-.4.5c-.2.3-.4.5-.4.7s-.1.3-.4.6-.3.3-.3.5,0,.2-.2.3l-.4.6c-.1.3-.3.5-.3.7l-.2.3a1.5,1.5,0,0,1-.3.7c-.1,0-.2.2-.2.4v.2l-.5.3c.1,0,0,.2,0,.3l-.3.3a2,2,0,0,0-.9.7V12h-.2l-.2.3c0,.2-.1.2-.3.2s-.2.1-.3.2-.1.2-.2.2-.4.1-.4.2h-.2c-.1,0-.2.1-.2.3s-.2.3-.3.3h-.2a.4.4,0,0,1-.4.4c-.1,0-.4.2-.4.4h-.2l1.4.6,1,.5h.3a3,3,0,0,1,1.1.6,1.7,1.7,0,0,1-.1,1v.2c0,.2-.2.3-.5.5s-.2.1-.2.2v.2c-.1,0-.1.4,0,.8s0,.2-.1.1h-.4c-.2.2-.4.2-.3,0s-.2-.2-.3-.1-.1.1.1.2.2.2.2.3a.4.4,0,0,0-.1.3h-.2c-.1-.1-.3.1-.3.3a.3.3,0,0,0-.1.2c-.1,0-.1.1-.1.2s0,.3-.4.3-.4,0-.4-.1l-.2-.2h-.3c-.1-.2-.2-.1-.1.2s-.1.4-.3.3l-.3.2a.3.3,0,0,1-.1.2h-.1l-.3.2c-.2.1-.2.2-.2,0s0-.1-.1-.1-.3.1-.4,0h-.3c-.2-.1-.3-.2-.4-1.2a30,30,0,0,0-.7-3.3c-.1-.1-.8.2-1.1.5s-.2.2-.3.1-.2,0-.2.1,0,.2-.1.2l-.3.2c-.1,0-.1.1-.2,0h-.3c-.2,0-.2,0-.2.2s0,.2-.2.4-1.1.8-1.1,1-.1.2-.3.3a.5.5,0,0,0-.4.2,1.1,1.1,0,0,1-.8,0c-.1-.1-.1-.1-.2.1s-.7.9-1.2.9-.5,0-.5.2-.1.1-.2,0H9.8c-.1.2-.3.2-.5.2s-.3,0-.4.1a.9.9,0,0,1-.9-.1c-.2-.2-.2-.2-.7.2l-.4.2c0-.1-.3,0-.6.2a1.1,1.1,0,0,1-.7.2H5.1l-.6.2-.9.4-.7.3a.2.2,0,0,1-.2-.2v-.2l-.3.3q-1,.9-1.2.6Z"/></svg>
