<svg xmlns="http://www.w3.org/2000/svg" viewBox="0 0 32 16.9"><path d="M1.1,4.8C.7,4.5,1,4,.8,3.6S.6,3.4.5,3.2a.2.2,0,0,1,.1-.3A2.5,2.5,0,0,1,0,1.4C0,1,.2.2.6,0S1.7.1,1.9.7A1.7,1.7,0,0,1,3.1.4L4.3.6c.2-.1.4-.5.7-.5s.6-.1.8.3S6,1.8,6,2.5a3.2,3.2,0,0,0,.6,2,4.3,4.3,0,0,0,.9,1.3l1,.6c.8.7,1.9.5,2.8.8a14.7,14.7,0,0,0,2.8.8,6.7,6.7,0,0,1,2.4.7l2,1.2c.8.5,2.1.3,3,.4a29.9,29.9,0,0,1,4.3,1,30.3,30.3,0,0,1,3.2.6l1.1.3.8.4,1,1.2c-.6-.4-.5-.5-.9-.6s1.1,1.1,1,1.6-.8-.9-1.1-1,1,1,.5,1.6a2.4,2.4,0,0,0-.6-.8l.3.7-1-.5c.1.2.8,1,.2.8l-.5-.4-.5-.2c-1-.4-1.8-.9-2.8-1.2a28.7,28.7,0,0,0-5.6-1.4,3.7,3.7,0,0,1-1.5-.4,1.1,1.1,0,0,0-.2.6,1.4,1.4,0,0,1,.3,1.7,3.5,3.5,0,0,0-.3,1.1,3.2,3.2,0,0,1-.3.9,1.1,1.1,0,0,1-1.4.5h-1c-.3.1-.1-.1-.2-.1l-.4-.2c.1-.4.6-.7.8-1s-.7.2-1,.1-1.1.4-1.3.4a6.1,6.1,0,0,1-1.9,0c0-.4.6-1,1-1.2A8.5,8.5,0,0,0,9,12.7,5.9,5.9,0,0,1,8.6,15c-.3.4-.3.8-.9,1s-2.5,0-2.1-.1l1.1-1.1c.5-.5.3-.7.2-1.3s.1-.6,0-.8-.2-.2-.5-.4a2.4,2.4,0,0,1-1.2-.7c-.3,0-.3.7-.3.9a3.6,3.6,0,0,1-.2,1.1c-.2.7-.4,1.9-1,2.2a3.6,3.6,0,0,1-1.6.2c-.1-.1-.2-.4-.3-.4s.6-.5.8-.8a1.1,1.1,0,0,0,.4-.9c-.1-.4-.3-.6-.2-1a2,2,0,0,0,.1-1.3c-.1-.7-.3-1.4-.4-2.2a20.8,20.8,0,0,0-.3-2.3A3.4,3.4,0,0,0,1.1,4.8Z"/></svg>
