<svg xmlns="http://www.w3.org/2000/svg" viewBox="0 0 32 29.88"><g id="f0496ce5-fe29-4416-990a-acf1ae3ef662" data-name="Layer 2"><g id="b62332d5-73da-481f-afdc-f52d0f6c70ef" data-name="Icons"><path id="f2f71482-5398-4a40-99c4-4711aad52277" data-name="path30854" d="M32,5.33l0-.19L32,5l-.15-.31-.16-.23-.3-.23L31.11,4l-.42-.59-.4-.67L30,2.49a2.4,2.4,0,0,1-.49-.26,3.51,3.51,0,0,0-.44-.31l-.35-.31-.24-.45L28.2.55,27.94.11S27.83,0,27.8,0s-.17.06-.19.11a1.2,1.2,0,0,0-.07.26.49.49,0,0,1,0,.22l-.12.12-.07.14-.09.07H27L26.8.87l-.15,0L26.39.67,26.22.59l-.33,0h-.72l-.2.1s-.23.24-.23.24l-.13.19a.8.8,0,0,1-.2.14,1.75,1.75,0,0,0-.25.15l-.23.2-.2.19-.49.47-.39.33-.27.48-.18.64-.1.45,0,.29-.13.49,0,.24,0,.57,0,.07-.08.53,0,.22.08.41v.48a.69.69,0,0,1,.07.24c0,.1,0,.35,0,.35s0,.24,0,.29l-.15.25a.32.32,0,0,1-.06.19c-.06.05-.47.53-.47.53l-.2.28a.37.37,0,0,1,0,.15l-.08.16c0,.41-.07.92-.08,1a1.56,1.56,0,0,0-.06.15l-.08.19-.11.15-.11.13-.33.29-.27.21-.35.28-.12.12s-.08.13-.12.14l-.41.29-.25.17-.28.24-.26.27-.37.28-.74.62-.38.3-.54.43-.47.41-.42.47-.64.69a.32.32,0,0,0-.1.17,2.38,2.38,0,0,1-.09.38c-.05.07-.3.64-.3.64s-.13.42-.13.43a4.26,4.26,0,0,0-.15.63,2.81,2.81,0,0,1-.18.63l-.15.84,0,.34a1.61,1.61,0,0,0-.06.58c0,.25,0,.62,0,.62l.09.42a3.34,3.34,0,0,0,.14.48c.05.1.15.4.16.41a3.41,3.41,0,0,1,.26.69,4.13,4.13,0,0,0,.31.87,4.44,4.44,0,0,0,.27.6c.23.61.21.42.33.78v.14l-.38.12-.41.1c-.05,0-.52.11-.52.11l-.37.09h-.42s-.18,0-.16,0a.29.29,0,0,1,.05.1h-.45l-.42.06-.46.11-.47,0-.23,0-1.1.07-1,.16-.89.07-1.06,0-.58-.09a5.2,5.2,0,0,0-.92-.06,3.91,3.91,0,0,1-.8,0l-.89.07-.77.13-.63.16L1.41,28l-.82.32.12.08L0,28.77l.54.14L1.71,29l1.52.07,1.37-.05.3,0,.66,0,1,0,.71.13.91.06h1l.76,0,.5,0,.68,0c.2.06.34,0,.57,0l.46,0,.87,0a3,3,0,0,0,.88.08l.59,0a3.21,3.21,0,0,1,.62,0,5.36,5.36,0,0,0,1,0c.34,0,.64.12,1,.1h.34a6.67,6.67,0,0,0,1.24,0,5.36,5.36,0,0,0,1.53,0l.27,0,.46-.1.48.23.44.15.28,0c.08,0,.48-.1.55-.1H23l.29,0,.61.09c.1,0,.6,0,.64,0l.29,0,.17,0,.32.14.1.06.25-.19v-.07l.2,0,.3-.09,0-.15-.08-.09.3,0,.27.07.18-.17.24.1s.07,0,0-.09a2,2,0,0,0-.24-.28l-.33-.39-.38-.15-.35-.1-.26-.1-.31,0-.15-.06-.32.07-.3.05-.18,0L24,28.15s-.2-.07-.19-.17a1.76,1.76,0,0,1,.1-.32,1.64,1.64,0,0,0,.13-.73c0-.53-.09-1-.09-1a3.18,3.18,0,0,0-.14-1v-.09a2.12,2.12,0,0,0-.35-.68L23,23.5l-.33-.45,0-.39-.07-.56v-.2l.05-.28.19-.51.27-.49.2-.34.07-.18.22,0,.14.08,0,.23-.05.41V21l-.11.34s0,.09,0,.12a.4.4,0,0,0,.13,0l0,.18v.2l0,.32.08.09.11.23s0,.18,0,.21,0,.19,0,.19h.12l.1.16.14.05s.13,0,.16,0l.21-.28.07-.24s.1.13.14.05a1.59,1.59,0,0,0,.08-.22s.06-.21.06-.21L25,22,25,21.61s0-.53,0-.61,0-.53,0-.53l.1-.12.33.23s0,.3,0,.34,0,.35,0,.39,0,.3,0,.35.14.32.14.32l.18.16a1,1,0,0,1,.06.25v.13l.21-.06.13-.19.08-.21,0-.3,0-.47s.15-.45.15-.47,0-.63,0-.63l0-.76,0-.86s0-.56,0-.61.05-.51.05-.51l0-.54a2.83,2.83,0,0,1-.09-.27s0-.36,0-.36l0-.33s.07.07.09,0,.12-.42.12-.42l.13-.46,0-.23.11-.43.1-.42.13-.35.06-.28.27-1.57.09-.54.17-1.07,0-.52-.05-.62.21-.71.1-.77.07-.4,0-.44.08-.24.1-.22.4,0,.4.05h1.28l.41-.24L31,6l.18-.11h.2l.13-.11.15-.14.21-.19.1-.07,0,0Z"/></g></g></svg>
