<svg xmlns="http://www.w3.org/2000/svg" viewBox="0 0 40 21.9"><defs><style>.a{fill-rule:evenodd;}</style></defs><path class="a" d="M31.8,21.5c1,.4,4.8.4,5.6-.2s-.3-5.9-.2-7.3,1.1-2.8,1.2-3.6c.2,1.5.9,2.3,1.4,2.3s-.5-.2-.6-1.5a22.4,22.4,0,0,0-.4-4.5C38.4,4.2,36,1.4,31.1.4S28,.8,23.7.7,17.9,0,15.5.8a12.4,12.4,0,0,0-3.8,1.7A11.6,11.6,0,0,0,6.9,3.9c0-1.1-1.9-1.4-1,.5-1,.7-.8,1.5-1,1.5S3.5,7.2,3.5,8a2.3,2.3,0,0,1-1.6,2.2c-1,.3-2.2.4-1.8,2.8s2.5,1.8,3,2.4,2.6.3,3.3-.5.5-1.2,1.1-1.4,1.8,0,3-.4,1.3-1,1.3-1,3.2,1.4,4.5,2.1c.4,2.8,1.2,4.4.6,5.4s-1.2,1.2-1.2,1.7,3.7.9,4.5.2.3-3.4.3-3.9a5.9,5.9,0,0,0,.9-2.7c2.7,1.9,7.3,1.7,10.8-.8.9,1.1,1.6,4.1,1.1,4.8s-1.9,1.3-1.5,2.6Z"/></svg>
