<svg xmlns="http://www.w3.org/2000/svg" viewBox="0 0 32 25.24"><g id="ea541afc-1868-4856-baf0-d8cc235ea731" data-name="Layer 2"><g id="f673acbb-8c25-4fd2-8596-7a29d2188753" data-name="Icons"><path id="a6007c2a-c04b-4abd-9c69-1cfe0c207e2a" data-name="path6974" d="M23.3,24c-.46,0-2.25.22-.95-.2.75-.33,2.66.17,2.65-.68a10.86,10.86,0,0,0-2.3-2.74c-.63-.1-1-.09-1.19-.47-1-.15-2.51.65-1.48,1.63.62,1.08,1.06,2.43,2.14,3.12.49.46,3.32.51,1.33.58-1.41-.21-2.78-.62-4.18,0-.54.25-1.72-.06-.52-.31.78-.09,2.71-.58,1.21-1.26-.47-.25.78,0,.09-.62-.51-1-.94-2.18-2.06-2.47.75-1.06-1.54-.62-2.23-1.17-1.28-.32-2.34-1.41-3.7-1.31a8.29,8.29,0,0,0-4,.72c-2.43,1-5,1.74-7.32,2.82,0-.61-1.5.06-.45-.55a24.11,24.11,0,0,1,3.26-1.84c1-.55,2.11-.93,3.17-1.46.54-.27,2.5-1.06.9-.63-1.51.08,2.37-1.23.23-.64-.57.21-2.43.6-.93-.14,2.07-.77,4.27-1.32,6-2.7,2.28-1.18,3.84-3.26,5.92-4.7a29,29,0,0,1,5.51-3.42c.15-1.21,1.32-2.12,1.33-3.28.6-.47-.64-2.12.17-2.13,0,.22.37-.45.34.33,1.06.5,2.83-.28,4.12.25.52-.07.44-.22.79-.49.32.52,0,1.75.39,2.59A23.67,23.67,0,0,1,32,6.8c0,2.81.16,5.88-1.52,8.31-1.11,1.82-3.09,2.81-4.82,3.82-.36-.5-2.87.49-2.07,1.38.91,1.08,2,2,2.92,3.06.74.44,2.81.14,2.86.53a28,28,0,0,1-3.77-.15"/></g></g></svg>
