<svg xmlns="http://www.w3.org/2000/svg" viewBox="0 0 32 32"><defs><style>.ae27ef49-dfff-4bcc-ad20-f352b9345540{fill-rule:evenodd;}</style></defs><g id="a5cf16db-6fff-493a-8add-efbc51c23156" data-name="Layer 2"><g id="a80932a5-d5ab-4ac3-83db-97a93f10405d" data-name="Icons"><path class="ae27ef49-dfff-4bcc-ad20-f352b9345540" d="M.75,29.6a1.11,1.11,0,1,0,1.42.68A1.11,1.11,0,0,0,.75,29.6Z"/><path class="ae27ef49-dfff-4bcc-ad20-f352b9345540" d="M11.4,30.32h0l-2.23,0-2-1.95a.78.78,0,0,0-.81-.16H6.23v0l.09.94a.66.66,0,0,1,0,.14s0,0,0,.07,0,0,0,.06l0,.08v0s0,.07,0,.1l-.06.09a.79.79,0,0,1-.53.28H5.55a.76.76,0,0,1-.77-.7l-.07-.7.18-.4,0,0L5,29.34a.52.52,0,0,0,.52.47h0a.51.51,0,0,0,.46-.56l-.17-1.91a.55.55,0,0,0-.28-.41.52.52,0,0,0-.5,0L2.73,28.33a1.19,1.19,0,0,0-.29,1l0,1.54a.53.53,0,0,0,.35.65L4.3,32l.17,0,2.27-.08h0a.53.53,0,0,0,.49-.54.52.52,0,0,0-.53-.5L4.54,31V30.7l1.29,0a5.76,5.76,0,0,1,1.41,0l1.07,1a.75.75,0,0,0,.53.22h0l2.55-.05a.78.78,0,1,0,0-1.55Z"/><path class="ae27ef49-dfff-4bcc-ad20-f352b9345540" d="M12.76,29.81,9,29.89l.22.21,2.14,0a1,1,0,0,1,1,1,1.35,1.35,0,0,1,0,.29h.39a.77.77,0,0,0,.76-.79A.76.76,0,0,0,12.76,29.81Z"/><path class="ae27ef49-dfff-4bcc-ad20-f352b9345540" d="M23.26,6.59A1.42,1.42,0,0,0,24,6.48a.81.81,0,0,0,.41-.81c-.06-.5-.8-.53-1.19-.52s-.51.26-.57.59a.71.71,0,0,0,.07.51A.77.77,0,0,0,23.26,6.59Z"/><path class="ae27ef49-dfff-4bcc-ad20-f352b9345540" d="M24.3,7.54a.31.31,0,0,0,.29,0,.22.22,0,0,1,.34,0,.33.33,0,0,0,.3,0c.09,0,.14-.19.08-.36a5.26,5.26,0,0,0-.24-.47c-.05-.09-.14-.32-.31-.22h0c-.17-.1-.26.12-.31.21a5.36,5.36,0,0,0-.24.48C24.15,7.35,24.2,7.52,24.3,7.54Z"/><path class="ae27ef49-dfff-4bcc-ad20-f352b9345540" d="M25.52,6.48a1.39,1.39,0,0,0,.75.11.77.77,0,0,0,.52-.34.76.76,0,0,0,.08-.51c-.06-.33-.22-.58-.58-.59s-1.13,0-1.19.52A.8.8,0,0,0,25.52,6.48Z"/><path class="ae27ef49-dfff-4bcc-ad20-f352b9345540" d="M24.76,14.48a7.24,7.24,0,1,0-7.24-7.24A7.24,7.24,0,0,0,24.76,14.48ZM22.17,5.23A1.71,1.71,0,0,1,22,4.15a2.35,2.35,0,0,1,.67-1.43A2.7,2.7,0,0,1,24.76,2a2.69,2.69,0,0,1,2.11.73,2.38,2.38,0,0,1,.68,1.43,1.86,1.86,0,0,1-.19,1.08.83.83,0,0,0,0,.76.78.78,0,0,1,.19.52.64.64,0,0,1-.34.53c-.2.08-.2,0-.48.06s-.34.28-.4.52-.06.43-.22.53a3.8,3.8,0,0,1-1.39.3,3.73,3.73,0,0,1-1.38-.3c-.17-.1-.17-.3-.23-.53s-.15-.48-.4-.52-.28,0-.48-.06a.63.63,0,0,1-.34-.53.74.74,0,0,1,.2-.52A.89.89,0,0,0,22.17,5.23ZM20.38,8.68c.08-.24.13-.17.29-.28s.13-.29.22-.43c.23-.31.57-.1.71.11a2.81,2.81,0,0,0,.43.44,27.19,27.19,0,0,0,2.73,1.1,26.15,26.15,0,0,0,2.73-1.1,2.42,2.42,0,0,0,.43-.44c.14-.21.48-.42.71-.11.1.14.07.33.22.43s.21,0,.29.28c.16.48-.31.68-.66.7a3.26,3.26,0,0,0-1,.09c-.31.08-.93.29-1.66.55l.68.24a3.16,3.16,0,0,0,1.46.28c.44,0,1.05-.3,1.19.39,0,.24-.28.36-.35.6a.59.59,0,0,1-.37.48c-.5.24-.63-.35-1.26-.63s-1.47-.61-2.43-1c-1,.36-1.92.73-2.43,1s-.76.87-1.26.63a.59.59,0,0,1-.37-.48c-.07-.24-.4-.36-.35-.6.14-.69.75-.44,1.19-.39A3.22,3.22,0,0,0,23,10.26l.67-.24C23,9.76,22.33,9.55,22,9.47a2.91,2.91,0,0,0-1-.08C20.69,9.36,20.22,9.16,20.38,8.68Z"/><path class="ae27ef49-dfff-4bcc-ad20-f352b9345540" d="M19.34,22.93a3,3,0,0,1,.55.06l.22,0a2,2,0,0,0,.35,0h.59a5.27,5.27,0,0,1,.74,0,5.21,5.21,0,0,1,1.33.45,5.59,5.59,0,0,1,.62.39,1.38,1.38,0,0,0,.29.2h.08a2.87,2.87,0,0,0,.53-.07h.08L25,24l.3,0a10.47,10.47,0,0,1,1.92-.19h.29a4,4,0,0,1,2.57.9,7.39,7.39,0,0,1-.13-1.07,15.21,15.21,0,0,1-.34-2.71,4.25,4.25,0,0,0-.89-2,11.57,11.57,0,0,0-2.18-2.37,5.65,5.65,0,0,0-3.82-.74s-2.8.09-3.25-.38a1.5,1.5,0,0,0-1.84-.11,19.1,19.1,0,0,1-2.19.18s-1.45-.23-1.83,0a3.91,3.91,0,0,0-1.3,1.39,4.07,4.07,0,0,0-.81,1.3,18,18,0,0,0-1,2.32l-.18.54a5.18,5.18,0,0,1-1.23.16s0,.18.71.36a2.28,2.28,0,0,1-.67,0,2.1,2.1,0,0,0,1,.31s-.13,2.62,1.9,3.45c0,0,1.91.33,1.7-1.46,0,0-.29-1-1-.51,0,0,.27.2,0,.29,0,0,.45.56,0,.67,0,0-.83.36-1.06-1.25a3,3,0,0,1,.61-2.15l.36,0,.29.22a.41.41,0,0,0,.38-.27l.4-.2s1-.05,1.12-.31c0,0-.09.8.27,1.07,0,0,1.19-.22,1.34-.45a15.54,15.54,0,0,1-.4,2.11l-.52,1.81a8.63,8.63,0,0,1-.49,1.61,5.94,5.94,0,0,0-.29,1.66s-.2.89-.54,1.1c0,0-.73.38-.33.69,0,0,2.55.51,2.28-.2,0,0-.36-.7-.27-1,0,0,.35-.83.68-1.52l0-.07a1.57,1.57,0,0,1,.44-1.25h0a1.29,1.29,0,0,1,.26-.71l.06-.07V25A1.94,1.94,0,0,1,17.7,24,1.87,1.87,0,0,1,19.34,22.93Z"/><path class="ae27ef49-dfff-4bcc-ad20-f352b9345540" d="M4.41,14.12,3,16.3l2.85-.63,2.29,1.54.72-2H11.5L10.1,13.1,13,11l-3.37-.14.64-2L8.45,10.35,7.21,7.21l-.86,3L2.67,9l1.81,3-3.17.74Zm.13-3.49,2.12.5.84-1,.7,1.16.72-.49-.09.65,1.44.44L9,13l.65,1.3-1.13.17-.82,1.37-1.49-1.3L4.73,15l.54-1.18L4.11,13l1.3-.64Z"/><path class="ae27ef49-dfff-4bcc-ad20-f352b9345540" d="M31.49,29.77a2,2,0,0,1-.6-.2c-.54-.3-.52-1.08-.53-1.61a3.84,3.84,0,0,0-.54-2.07,2.84,2.84,0,0,0-2.38-1.13,9.64,9.64,0,0,0-2,.16l-.55.1a3.2,3.2,0,0,1-1,.09c-.48-.05-.81-.47-1.23-.67a4,4,0,0,0-1.05-.37c-.55-.09-1.1,0-1.64-.05s-1-.32-1.46.46c-.18.29-.09.6-.17.91a1,1,0,0,1-.22.34c-.1.14,0,.34-.12.5s-.44.43-.4.73.17.15.2.39.4.55.44.6a.54.54,0,0,0,.63.07.24.24,0,0,1,.22,0c.2.11.24.31.37.47,0-.05.17-.05.19-.05a.49.49,0,0,1,.36.51l0-.06s.06.17.07.2l.05,0c.06.07,0,.23,0,.32a1.7,1.7,0,0,1-.19.79c-.1.35-.16.71-.49.91-.14.09-.33,0-.48,0s-.55.14-.47.36.22.18.35.2a4,4,0,0,0,.79,0,.71.71,0,0,0,.47-.34c.17-.22.32-.44.48-.66s.15-.2.24-.3l.16-.17a1.36,1.36,0,0,0,.24-.5.78.78,0,0,1,0-.14l0,0s.05.1.06.1,0-.2,0-.23a1.42,1.42,0,0,1,.11.18s.26-.31.29-.32a1.33,1.33,0,0,0,0,.2l.08-.1a.19.19,0,0,1,0,.11s.22-.06.22-.05a1.15,1.15,0,0,1,.06.17l.11-.13a.38.38,0,0,0,0,.1l.09-.11.08.15.09-.23.07.15.06-.2.09.1s0-.16,0-.24.11.21.11.26a.19.19,0,0,0,0-.11c.06,0,.06,0,.11.19,0-.07,0-.11.07-.17l0,0a1.49,1.49,0,0,1,0-.25s.1.11.11.1,0-.17,0-.21,0,0,.07.06l0-.14a1.71,1.71,0,0,0,.12.23,3.45,3.45,0,0,1,.18.77c.07.4.54,1.36,0,1.43-.16,0-.44.32-.17.44a.91.91,0,0,0,.4,0,1.68,1.68,0,0,0,.53-.06c.2-.12.19-.5.19-.68a4.79,4.79,0,0,0-.07-.51,6.67,6.67,0,0,0-.06-1,3,3,0,0,1,0-.73c0-.12.71-.1.8-.11A2.24,2.24,0,0,0,26.8,28c.06-.07.1-.07.15,0a8.07,8.07,0,0,0,.43.89,6.06,6.06,0,0,1,.72,1.44,1.18,1.18,0,0,1-.29.95s-.06,0-.08,0a.53.53,0,0,0-.41.06.25.25,0,0,0-.14.23.21.21,0,0,0,.22.2,1.3,1.3,0,0,0,.73,0,1,1,0,0,0,.36-.45,1.62,1.62,0,0,0,.1-.18,3.82,3.82,0,0,0,.38-1,.33.33,0,0,0,0-.23c-.1-.24-.3-.74-.29-.76s.06,0,.08.05a1.93,1.93,0,0,1,.94,1,2.23,2.23,0,0,1,0,.85c0,.14-.11.26-.14.4s-.09.06-.16.07a.34.34,0,0,0-.35.32.26.26,0,0,0,.24.18h.52a.4.4,0,0,0,.36-.23,3.22,3.22,0,0,0,.26-1,6.36,6.36,0,0,0,0-1.38c0-.16-.16-.25-.28-.35a1.71,1.71,0,0,1-.63-.78,2.84,2.84,0,0,1-.07-1c0-.18,0-.36,0-.53s-.06-.48.07-.53.18.2.21.25A4.5,4.5,0,0,1,30,27.64a3.78,3.78,0,0,0,.71,2.1,1.3,1.3,0,0,0,.72.42c.14,0,.41.14.48-.16S31.67,29.81,31.49,29.77Z"/></g></g></svg>
