<svg xmlns="http://www.w3.org/2000/svg" viewBox="0 0 32 32"><g id="ace05e82-829f-4a6e-a350-cb0213fc1eab" data-name="Layer 2"><g id="bc520ca3-f156-4e03-8035-103b8364a319" data-name="Icons"><path d="M23.26,6.59A1.42,1.42,0,0,0,24,6.48a.81.81,0,0,0,.41-.81c-.06-.5-.8-.53-1.19-.52s-.51.26-.58.59a.76.76,0,0,0,.08.51A.77.77,0,0,0,23.26,6.59Z"/><path d="M24.3,7.54a.31.31,0,0,0,.29,0,.22.22,0,0,1,.34,0,.33.33,0,0,0,.3,0c.09,0,.14-.19.08-.36a5.26,5.26,0,0,0-.24-.47c-.05-.09-.14-.32-.31-.22h0c-.17-.1-.26.12-.31.21a5.36,5.36,0,0,0-.24.48C24.15,7.35,24.2,7.52,24.3,7.54Z"/><path d="M25.52,6.48a1.39,1.39,0,0,0,.75.11.77.77,0,0,0,.52-.34.76.76,0,0,0,.08-.51c-.06-.33-.22-.58-.58-.59s-1.13,0-1.19.52A.8.8,0,0,0,25.52,6.48Z"/><path d="M24.76,14.48a7.24,7.24,0,1,0-7.24-7.24A7.24,7.24,0,0,0,24.76,14.48ZM22.17,5.23A1.71,1.71,0,0,1,22,4.15a2.35,2.35,0,0,1,.67-1.43A2.7,2.7,0,0,1,24.76,2a2.69,2.69,0,0,1,2.11.73,2.38,2.38,0,0,1,.68,1.43,1.86,1.86,0,0,1-.19,1.08.83.83,0,0,0,0,.76.78.78,0,0,1,.19.52.64.64,0,0,1-.34.53c-.2.08-.2,0-.48.06s-.34.28-.4.52-.06.43-.22.53a3.8,3.8,0,0,1-1.39.3,3.73,3.73,0,0,1-1.38-.3c-.17-.1-.17-.3-.23-.53s-.15-.48-.4-.52-.28,0-.48-.06a.63.63,0,0,1-.34-.53.74.74,0,0,1,.2-.52A.89.89,0,0,0,22.17,5.23ZM20.38,8.68c.08-.24.13-.17.29-.28s.13-.29.22-.43c.23-.31.57-.1.71.11a2.81,2.81,0,0,0,.43.44,27.19,27.19,0,0,0,2.73,1.1,26.15,26.15,0,0,0,2.73-1.1,2.42,2.42,0,0,0,.43-.44c.14-.21.48-.42.71-.11.1.14.07.33.22.43s.21,0,.29.28c.16.48-.31.68-.66.7a3.26,3.26,0,0,0-1,.09c-.31.08-.93.29-1.66.55l.68.24a3.16,3.16,0,0,0,1.46.28c.44,0,1.05-.3,1.19.39,0,.24-.28.36-.35.6a.59.59,0,0,1-.37.48c-.5.24-.63-.35-1.26-.63s-1.47-.61-2.43-1c-1,.36-1.92.73-2.43,1s-.76.87-1.26.63a.59.59,0,0,1-.37-.48c-.07-.24-.4-.36-.35-.6.14-.69.75-.44,1.19-.39A3.22,3.22,0,0,0,23,10.26l.67-.24C23,9.76,22.33,9.55,22,9.47a2.91,2.91,0,0,0-1-.08C20.69,9.36,20.22,9.16,20.38,8.68Z"/><path d="M12.07,14l-1.86,1.54L9,12.44l-.85,3L4.44,14.21l1.8,3L3.07,18l3.1,1.36L4.75,21.53,7.6,20.9l2.29,1.54.72-2h2.65l-1.4-2.11,2.94-2.12-3.37-.14Zm0,3.12-1.25,1.07.65,1.3-1.13.17-.82,1.37L8,19.77l-1.5.48L7,19.07l-1.16-.83,1.3-.64L6.3,15.86l2.12.49.84-1,.7,1.16.72-.49-.09.65Z"/><path d="M31.52,22.36a2.09,2.09,0,0,1-.72-.23c-.64-.36-.61-1.29-.63-1.92a4.52,4.52,0,0,0-.64-2.47,3.39,3.39,0,0,0-2.84-1.35,11.2,11.2,0,0,0-2.38.2l-.66.12a4.11,4.11,0,0,1-1.16.1c-.57-.06-1-.57-1.46-.8a4.5,4.5,0,0,0-1.26-.44c-.65-.1-1.31,0-2-.07s-1.15-.38-1.74.56c-.21.34-.11.71-.2,1.09a1.31,1.31,0,0,1-.26.4c-.13.16-.06.41-.15.59s-.52.52-.47.87.2.19.23.47a3.13,3.13,0,0,0,.53.71.63.63,0,0,0,.75.09c.09,0,.17-.07.26,0s.29.37.44.56c-.05-.06.21-.06.23-.06a.58.58,0,0,1,.43.61l.05-.08s.07.21.09.25l.05-.05c.07.09,0,.27,0,.38a2.12,2.12,0,0,1-.23.94c-.12.41-.19.85-.59,1.09-.16.1-.38,0-.57,0s-.65.17-.56.43.27.22.41.25a5.64,5.64,0,0,0,1,0,.87.87,0,0,0,.57-.4l.57-.79a3.44,3.44,0,0,1,.28-.36c.06-.08.13-.13.19-.21a1.63,1.63,0,0,0,.29-.59.49.49,0,0,1,.06-.17l.05-.05.06.13c0-.06,0-.25,0-.28a.84.84,0,0,1,.13.21c.06,0,.32-.37.35-.38a1.91,1.91,0,0,0,0,.24l.1-.12a.45.45,0,0,1,0,.13s.26-.07.27-.06,0,.13.06.21l.13-.17a.53.53,0,0,1,0,.12s.07-.07.11-.13l.1.19.11-.28L21,22l.07-.24.1.12a1.4,1.4,0,0,0,0-.29c.07,0,.13.26.14.32a.28.28,0,0,0,0-.13c.07,0,.07,0,.13.22l.09-.2.06.05a1.34,1.34,0,0,1,0-.31s.11.14.13.13,0-.21,0-.26a.19.19,0,0,1,.08.08l.06-.17a2.6,2.6,0,0,0,.15.28,4.73,4.73,0,0,1,.21.92c.08.47.65,1.62,0,1.7-.19,0-.53.38-.21.53a1.11,1.11,0,0,0,.48,0,1.93,1.93,0,0,0,.62-.07c.25-.14.24-.6.23-.81s-.06-.4-.08-.61a9.52,9.52,0,0,0-.07-1.14,3.72,3.72,0,0,1,0-.88c0-.14.84-.11.95-.13a2.61,2.61,0,0,0,1.67-.91c.08-.09.13-.09.18,0a9.56,9.56,0,0,0,.51,1.07,7.13,7.13,0,0,1,.87,1.72,1.39,1.39,0,0,1-.35,1.13s-.06,0-.1,0a.71.71,0,0,0-.49.08.3.3,0,0,0-.16.28c0,.15.11.21.26.23a1.6,1.6,0,0,0,.87-.05c.21-.1.32-.34.44-.53l.11-.22a4.57,4.57,0,0,0,.45-1.21.39.39,0,0,0-.05-.28,8.06,8.06,0,0,1-.35-.91s.07.05.1.07a2.32,2.32,0,0,1,1.12,1.19,2.76,2.76,0,0,1,0,1c0,.16-.13.31-.16.48s-.11.07-.2.08c-.32,0-.44.28-.41.38a.31.31,0,0,0,.28.22h.63a.47.47,0,0,0,.42-.27,3.69,3.69,0,0,0,.31-1.17,8.36,8.36,0,0,0,0-1.66.82.82,0,0,0-.33-.41,2.05,2.05,0,0,1-.77-.93A3.7,3.7,0,0,1,29,19.43c0-.21,0-.42,0-.63s-.07-.57.08-.64.22.25.25.31a4.91,4.91,0,0,1,.38,1.36,4.5,4.5,0,0,0,.85,2.5,1.52,1.52,0,0,0,.86.5c.16,0,.49.16.58-.18S31.73,22.41,31.52,22.36Z"/><path d="M14.56,25.65l-.06,0-.12-.22a4.39,4.39,0,0,0-.29-.51,3.47,3.47,0,0,1-.27-.38l-.05-.06a.71.71,0,0,1-.11-.21c0-.18-.27-.35-.32-.39h0a1.39,1.39,0,0,0-.25-.14.2.2,0,0,0,0-.08,1.91,1.91,0,0,0-.41-.39.3.3,0,0,0-.35.1,1,1,0,0,0,0,.43l-.17.05a1.3,1.3,0,0,1-.44.06h-.16c-.19,0-.79.08-1,.07a8.31,8.31,0,0,1-.89-.16c-.28-.05-.54-.11-.67-.12a8.83,8.83,0,0,0-1.27.13C7,23.86,6.34,24,6,24s-.78,0-1.16-.06-.58,0-.76,0l-.86,0L2,23.79a1.42,1.42,0,0,0-1.14.46A3.46,3.46,0,0,0,0,26.74a5,5,0,0,0,0,1.49.14.14,0,0,0,.12.06h0a.17.17,0,0,0,.15-.09,13.47,13.47,0,0,0,0-1.46h0a4.52,4.52,0,0,1,.1-1,1.64,1.64,0,0,0,0,.22c0,.19.08.51.14.86s.16,1,.16,1.07a2.74,2.74,0,0,1-.37.9.33.33,0,0,0,0,.37.79.79,0,0,1,0,.22c0,.49-.09,1.23-.15,1.77,0,.35-.07.6-.07.72V32H1.52v-.14a1.21,1.21,0,0,0-.12-.45,1,1,0,0,1-.14-.55,2.27,2.27,0,0,1,.15-.78,1.77,1.77,0,0,1,.12-.24,2.73,2.73,0,0,0,.22-.46.79.79,0,0,1,.09-.19.52.52,0,0,1,.12.19,11.6,11.6,0,0,1,.32,1.19c.07.27.12.5.17.65a1.41,1.41,0,0,1,.07.45,1.2,1.2,0,0,0,0,.19V32h1.3v-.14a1.22,1.22,0,0,0-.25-.56,2.12,2.12,0,0,1-.27-.49A2.47,2.47,0,0,1,3.18,30s0-.14,0-.22a1.44,1.44,0,0,0,0-.46A1.53,1.53,0,0,1,3.35,29a4.56,4.56,0,0,0,.17-.74l1.34.4a8.82,8.82,0,0,0,2.8.13,2.84,2.84,0,0,1,.17,1.19.34.34,0,0,0,0,.19.77.77,0,0,1,0,.19c-.15,1-.21,1.52-.21,1.53l0,.16H8.84v-.14a.66.66,0,0,0-.07-.32,1.28,1.28,0,0,1,0-1,1.78,1.78,0,0,1,.1-.21c0-.07.07-.15.11-.23l.05.07a.47.47,0,0,1,.11.21,5,5,0,0,1,.19,1.48l0,.16h1.17v-.14a.69.69,0,0,0-.12-.39,2.05,2.05,0,0,1-.33-1s0-.13,0-.21a2,2,0,0,0,0-.6,2.79,2.79,0,0,0-.1-.39,1.31,1.31,0,0,1-.11-.51v-.08a4.36,4.36,0,0,0,1.67-1.59,2.34,2.34,0,0,1,.72-.86l.11,0a3.17,3.17,0,0,0,.57.19,4.12,4.12,0,0,0,.57.08l.23,0,0,0a.21.21,0,0,0,.15.07c.14,0,.71-.1.84-.46A.37.37,0,0,0,14.56,25.65Z"/></g></g></svg>
