<svg xmlns="http://www.w3.org/2000/svg" viewBox="0 0 32 32"><g id="a08c997d-9370-4f63-81fb-fa30cc95ff6f" data-name="Layer 2"><g id="a456c1a4-3d03-430e-a3d1-878057470c8c" data-name="Icons"><path d="M5.91,22.45A1.45,1.45,0,0,0,5,21l-.37,0H1.27L.89,21A1.43,1.43,0,0,0,0,22.45v.16a.22.22,0,0,0,0,.08V26a.5.5,0,0,0,.52.49A.5.5,0,0,0,1,26V22.69h.39V26.2h0v5.2a.62.62,0,0,0,.63.6h0a.62.62,0,0,0,.63-.6V26.2h.55v5.2a.62.62,0,0,0,.63.6h0a.62.62,0,0,0,.63-.6V26.2h0c0-.88,0-1.76,0-2.64v-.88h.39V26a.5.5,0,0,0,.52.49A.51.51,0,0,0,5.92,26V22.69s0-.05,0-.08Z"/><path d="M4.5,19A1.54,1.54,0,1,0,3,20.55,1.53,1.53,0,0,0,4.5,19Z"/><path d="M10.21,13.1,13.15,11l-3.37-.14.64-2L8.55,10.35,7.32,7.21l-.86,3L2.78,9l1.81,3-3.17.74,3.1,1.36L3.1,16.3,6,15.67l2.29,1.54.71-2h2.66ZM8.65,14.47l-.82,1.37-1.49-1.3L4.84,15l.54-1.18L4.22,13l1.3-.64-.87-1.74,2.12.5.84-1,.7,1.16L9,10.84l-.09.65,1.44.44L9.13,13l.65,1.3Z"/><path d="M19.45,22.93A3,3,0,0,1,20,23l.22,0a2,2,0,0,0,.35,0h.59a5.27,5.27,0,0,1,.74,0,5.21,5.21,0,0,1,1.33.45,5.59,5.59,0,0,1,.62.39,1.38,1.38,0,0,0,.29.2h.08a2.87,2.87,0,0,0,.53-.07h.08l.25-.05.3,0a10.47,10.47,0,0,1,1.92-.19h.29a4,4,0,0,1,2.57.9A7.39,7.39,0,0,1,30,23.59a15.21,15.21,0,0,1-.34-2.71,4.36,4.36,0,0,0-.89-2,11.57,11.57,0,0,0-2.18-2.37,5.65,5.65,0,0,0-3.82-.74s-2.8.09-3.25-.38a1.5,1.5,0,0,0-1.84-.11,19.1,19.1,0,0,1-2.19.18s-1.45-.23-1.83,0a3.91,3.91,0,0,0-1.3,1.39,4.07,4.07,0,0,0-.81,1.3,18,18,0,0,0-1,2.32l-.18.54a5.18,5.18,0,0,1-1.23.16s0,.18.71.36a2.28,2.28,0,0,1-.67,0,2.05,2.05,0,0,0,1,.31s-.13,2.62,1.9,3.45c0,0,1.91.33,1.7-1.46,0,0-.29-1-1-.51,0,0,.27.2,0,.29,0,0,.45.56,0,.67,0,0-.83.36-1.06-1.25a3,3,0,0,1,.61-2.15l.36,0,.29.22a.41.41,0,0,0,.38-.27l.4-.2s1-.05,1.12-.31c0,0-.09.8.27,1.07,0,0,1.19-.22,1.34-.45a15.54,15.54,0,0,1-.4,2.11l-.52,1.81a8.63,8.63,0,0,1-.49,1.61A5.94,5.94,0,0,0,15,28.11s-.2.89-.54,1.1c0,0-.73.38-.33.69,0,0,2.55.51,2.28-.2,0,0-.36-.7-.27-1,0,0,.35-.83.67-1.52a.25.25,0,0,0,0-.07,1.57,1.57,0,0,1,.44-1.25h0a1.29,1.29,0,0,1,.26-.71l.06-.07V25A1.94,1.94,0,0,1,17.81,24,1.86,1.86,0,0,1,19.45,22.93Z"/><path d="M31.6,29.77a2,2,0,0,1-.6-.2c-.54-.3-.52-1.08-.53-1.61a3.84,3.84,0,0,0-.54-2.07,2.84,2.84,0,0,0-2.38-1.13,9.64,9.64,0,0,0-2,.16L25,25a3.2,3.2,0,0,1-1,.09c-.48-.05-.81-.47-1.23-.67a4,4,0,0,0-1.05-.37c-.55-.09-1.1,0-1.64-.05s-1-.32-1.46.46c-.18.29-.09.6-.17.91a1,1,0,0,1-.22.34c-.1.14-.05.34-.12.5s-.44.43-.4.73.17.15.2.39.4.55.44.6A.54.54,0,0,0,19,28a.24.24,0,0,1,.22,0c.2.11.24.31.37.47,0-.05.17-.05.19-.05a.49.49,0,0,1,.36.51l0-.06s.06.17.07.2l0,0c.06.07,0,.23,0,.32a1.7,1.7,0,0,1-.19.79c-.1.35-.16.71-.49.91-.14.09-.33,0-.48,0s-.55.14-.47.36.22.18.34.2a4.09,4.09,0,0,0,.8,0,.71.71,0,0,0,.47-.34c.17-.22.32-.44.48-.66s.15-.2.24-.3l.16-.17a1.36,1.36,0,0,0,.24-.5.78.78,0,0,1,.05-.14s0,0,0,0,.05.1.06.1a1.52,1.52,0,0,1,0-.23,1.42,1.42,0,0,1,.11.18s.26-.31.29-.32a1.33,1.33,0,0,0,0,.2l.08-.1a.19.19,0,0,1,0,.11s.22-.06.22-.05a1.15,1.15,0,0,1,.06.17l.11-.13a.38.38,0,0,0,0,.1l.09-.11.08.15c0-.07.06-.14.09-.23l.07.15.06-.2.08.1a1.17,1.17,0,0,0,0-.24c.07,0,.12.21.12.26a.19.19,0,0,0,0-.11c.06,0,.06,0,.11.19l.07-.17,0,0a1.49,1.49,0,0,1,0-.25s.1.11.11.1,0-.17,0-.21.05,0,.07.06l0-.14a1.71,1.71,0,0,0,.12.23,3.45,3.45,0,0,1,.18.77c.07.4.54,1.36,0,1.43-.16,0-.44.32-.17.44a.91.91,0,0,0,.4,0,1.58,1.58,0,0,0,.52-.06c.21-.12.2-.5.2-.68a4.79,4.79,0,0,0-.07-.51,8.51,8.51,0,0,0-.06-1,3,3,0,0,1,0-.73c0-.12.7-.1.8-.11a2.24,2.24,0,0,0,1.4-.77c.06-.07.1-.07.15,0a8.07,8.07,0,0,0,.43.89,6.06,6.06,0,0,1,.72,1.44,1.18,1.18,0,0,1-.29.95s-.06,0-.08,0a.53.53,0,0,0-.41.06.24.24,0,0,0-.14.23.21.21,0,0,0,.22.2,1.3,1.3,0,0,0,.73,0,1,1,0,0,0,.36-.45,1.62,1.62,0,0,0,.1-.18,3.82,3.82,0,0,0,.38-1,.33.33,0,0,0,0-.23c-.1-.24-.3-.74-.29-.76s.06,0,.08.05a1.93,1.93,0,0,1,.94,1,2.23,2.23,0,0,1,0,.85c0,.14-.11.26-.14.4s-.09.06-.16.07a.34.34,0,0,0-.35.32.26.26,0,0,0,.24.18h.52a.4.4,0,0,0,.36-.23,3.22,3.22,0,0,0,.26-1,7.06,7.06,0,0,0,0-1.38c0-.16-.16-.25-.28-.35a1.8,1.8,0,0,1-.64-.78,3.11,3.11,0,0,1-.06-1c0-.18,0-.36,0-.53s-.06-.48.07-.53.18.2.21.25a4.5,4.5,0,0,1,.32,1.14,3.71,3.71,0,0,0,.71,2.1,1.3,1.3,0,0,0,.72.42c.14,0,.41.14.48-.16S31.78,29.81,31.6,29.77Z"/><path d="M24.76,14.48a7.24,7.24,0,1,0-7.24-7.24A7.24,7.24,0,0,0,24.76,14.48ZM24.71,5A5,5,0,0,1,28,6.26l1.72-1.72v4.3h-4.3l1.73-1.73a3.8,3.8,0,0,0-6.07,1.73L20,8.47A5,5,0,0,1,24.71,5Z"/></g></g></svg>
