<svg xmlns="http://www.w3.org/2000/svg" viewBox="0 0 32 22.3"><path d="M8,22.2,7.2,22c-.6,0-.7,0-.5-.2l.7-.4,1.1-.3a3.5,3.5,0,0,1,1.4-.3c.9,0,1.7-.4,3.1-1.5s1.2-.9,1.2-1.4-.1-.6-.9-.7-5.8-2.5-7.5-4.5S4,10.2,3.9,8.9A6.1,6.1,0,0,0,2.8,5.8a5.2,5.2,0,0,1-.7-1.2c-.1-.7-.2-.8-1.1-1S.2,3.5.2,3.4L.9,3c1.3-.8,1.3-1-.1-1H0l1.2-.6C3.8-.1,3.6,0,5.1,0A5.5,5.5,0,0,1,7.2.3a10.6,10.6,0,0,1,3,3,9.7,9.7,0,0,0,2.9,2.5l6.1,4.7a29.9,29.9,0,0,0,5.4,3.6,10.6,10.6,0,0,1,1.9,1.1l2.6,1.4L31.6,18l.2.4h-.4c-.2.3-.2.3.1.4s.7.5.3.8l-.3.4-1.2-.7-1.2-.5a5.2,5.2,0,0,1-1.7-.6c-1.5-.7-3-1.1-3.2-.8l.5.6c.6.7.6.7-1.1-.2s-1.5-.7-4.2-.5H16.9c-.7.1-.8.1-1.1.6s-.4.5-.5.5A5.2,5.2,0,0,0,13.5,20l-.4.5.4.2,1.7.2,1.6.2c.4.2-2.7.4-3.2.2s-1.2-.1-2.6.4-2.9.7-3,.5Z"/></svg>
