<svg xmlns="http://www.w3.org/2000/svg" viewBox="0 0 32 13.2"><path d="M8.8,13l-.5-.3-.4-.2-.2.2-.2.3-.2-.2c-.1-.3-.5-.5-1.1-.9a9.1,9.1,0,0,1-2.8-2V9.6c0-.1-.1-.2-.3-.2s-.2-.1-.7.2-1.2.6-1.1.5H0a.5.5,0,0,1,.1-.3c.2-.3.3-.4,1.1-.6s.9-.5.6-.9a4.7,4.7,0,0,1-.5-3.1A5.7,5.7,0,0,1,3.6,1.8,11.7,11.7,0,0,1,8.1.1H13l1.4.3,2.8.6,4.3.4,2,.2h3l.9.3a5.3,5.3,0,0,0,1.5.5l1.2.4a4,4,0,0,1,1.7,1.7,1,1,0,0,1,.2.7,3.2,3.2,0,0,1-1.1,2.3l-.3.2h-.2l-2.1.6-1.6.4-1.1.3a4.8,4.8,0,0,0-1.5.7c-1,.8-.6,1.2,1,1.2a3.1,3.1,0,0,1,2,.5l.4.2a.5.5,0,0,1,.3.3c0,.1-.2.2-.5.1h-.2v.2l.2.2a3,3,0,0,1-1.6-.1c-.4-.1-.4-.1-.4.1s-.1.2-.3.1l-.6-.2-.7-.3L22.5,12l-1.7-.6-1.3-.5-.5-.3h-.6l-2.8.2H12.2l-2.4.5H9.2l.4.2c.4.2.5.4.5.6s0,.2-.2.1v.5H9.6c-.3-.2-.4-.2-.4.1s-.1.2-.3.1H8.8Z"/></svg>
