<svg xmlns="http://www.w3.org/2000/svg" viewBox="0 0 24.93 32"><g id="ad23bf85-9a2d-41e6-9412-5b8bc23de4bd" data-name="Layer 2"><g id="bf8fc937-794e-4276-b771-f54640d011d0" data-name="Icons"><path d="M17.55,8.67a1.24,1.24,0,0,0-1.75.16c-.69.82-1.52,1.73-2.17,2.38a4.25,4.25,0,0,0-3.22-3.54C10.14,7.6,8.84,7.29,7.89,7c-3-.83-5.23,1.65-6.13,2.73S.3,13.24,0,14.71a1.24,1.24,0,0,0,1,1.45.9.9,0,0,0,.23,0,1.25,1.25,0,0,0,1.22-1A14.9,14.9,0,0,1,3.52,11.5c0-.06.71-.79,1-1A26,26,0,0,0,3.34,17a9.44,9.44,0,0,0,.91,3.63,6.36,6.36,0,0,1,.59,2.56c-.23,1.32-1.46,5.06-1.92,6.38a1.61,1.61,0,0,0,1,2,1.58,1.58,0,0,0,.52.09A1.61,1.61,0,0,0,6,30.59c.17-.52,1.73-5.07,2.05-6.88A6.26,6.26,0,0,0,7.75,21,10,10,0,0,1,9,23.58c.22,1.1.6,5.12.73,6.58a1.6,1.6,0,0,0,1.59,1.46h.14a1.6,1.6,0,0,0,1.46-1.73c-.05-.55-.48-5.46-.78-6.94A14.79,14.79,0,0,0,10,18.64a37.55,37.55,0,0,1,1-7.41,7.61,7.61,0,0,1,.25.91,5.27,5.27,0,0,0,.55,1.62,1.37,1.37,0,0,0,1.08.65h.17c.55,0,1.52-.33,4.59-4A1.25,1.25,0,0,0,17.55,8.67Z"/><path d="M10.56,6.85A3.43,3.43,0,1,0,7.19,3.37,3.43,3.43,0,0,0,10.56,6.85Z"/><rect x="17.76" y="14.39" width="2.29" height="2.29" transform="translate(-5.32 18.97) rotate(-47.47)"/><rect x="22.17" y="29.23" width="2.29" height="2.29" transform="translate(-14.83 27.03) rotate(-47.47)"/><rect x="21.29" y="20.21" width="2.29" height="3.89" transform="translate(-6.21 8.97) rotate(-19.93)"/><rect x="17.41" y="27" width="3.89" height="2.87" transform="translate(-14.7 33.3) rotate(-63.88)"/></g></g></svg>
