<svg xmlns="http://www.w3.org/2000/svg" viewBox="0 0 21.9 32"><path d="M0,32a4.4,4.4,0,0,1,.3-.8L.9,29c.2-.9.6-2.1.8-2.7A18.8,18.8,0,0,0,2.6,23a4.6,4.6,0,0,1,.9-1.9,3.6,3.6,0,0,1,1.1-1A6.1,6.1,0,0,0,7.5,17c.3-.6.3-.6.1-1a1.7,1.7,0,0,0-.6-.7A1.8,1.8,0,0,0,5.9,15H5.2c0-.2.3-.4.6-.5l.5-.3a1.6,1.6,0,0,1,.8-.5,2.2,2.2,0,0,1,1.2-.2,1.6,1.6,0,0,0,1.2-.3c.6-.3.6-.3,1.1-1.2a8.9,8.9,0,0,0,1-2.9,4.1,4.1,0,0,1,.6-1.7l.6-.8a19.6,19.6,0,0,1,2.1-1.8l1.3-1.2,1.7-1.3A21.3,21.3,0,0,1,21.7,0c.2,0,.2,0,.2.2a3.8,3.8,0,0,1-.9.9h.3c.6,0,.7,0,.3.4a1.7,1.7,0,0,0-.2.5.8.8,0,0,1-.2.4.8.8,0,0,0-.1.4,1.6,1.6,0,0,1-.4.7.4.4,0,0,0-.1.3c.1.1-.1.4-.4.8s-.3.2-.2.3.1.4-.3.8l-.3.4c.1.2-.2.6-.4.8a.2.2,0,0,0-.2.2.5.5,0,0,1-.3.4l-.2.3c0,.1-.2.3-.3.4l-.3.2-.3.3a1.7,1.7,0,0,0-.7.9,3.7,3.7,0,0,0-.4.9l-.3.8a6.9,6.9,0,0,0-.5,1.3,2.2,2.2,0,0,1-.3.8l-.4.9a1.5,1.5,0,0,1-.5.9c-.3.3-.1.3.5,0a8.4,8.4,0,0,1,2.1-.8c.3,0,.3,0,.3.3s.1.3.2.3a.6.6,0,0,1,0,.8c-.2.3-.2.4-.1.4h.4c.2.2.2.2.1.5s-.1.4.1.6a.8.8,0,0,1,.2.4c0,.2-.4.4-1,.4h-.5l.5.4a1.7,1.7,0,0,1,.6.6.5.5,0,0,1,.1.6c-.2.1-.1.3.8,1l1.8,1.5,1.2,1.1c.2.2.3.2.1.2s-.2,0-.1.5.1.7,0,.3a.5.5,0,0,1-.1-.3l-.2-.5a5.6,5.6,0,0,0-1.7-1.1l-2-1.1c-.6-.3-.6-.3-.7-.1s-.2.1-.6,0h-.5l-.2.4c-.1.3-.2.4-.4.4a1.1,1.1,0,0,1-.6-.3l-.4-.3v.5c0,.4,0,.5-.2.7s-.5.1-.9-.4l-.2-.5v.5c0,.5-.1.7-.5.8H12c0-.1-.2-.2-.3-.2s-.2-.1-.3-.8a3.1,3.1,0,0,0-.1-1v-.3l-.2.2-.4.2h-.2a.6.6,0,0,1-.5.2c-.4,0-.5.1-.2.2s.2.1-.1.1-.9.1-.3.2.3.1.1.2l-.2.2a.7.7,0,0,1-.3.3c-.2.2-.3.3-.3.4l-.2.2H8.3c0,.1-.3.3-.6.6a2.6,2.6,0,0,0-1,1.5l-.3.9a.6.6,0,0,0-.1.4c0,.2-.1.2-.2.3s-.2.1-.3.4a.7.7,0,0,1-.4.5c-.1,0-.2.2-.3.4s-.2.5-.4.4-.2-.1-.3.2-.4.8-.6.7-.2,0-.2.2-.5.6-.6.5-.1,0-.2.1a.8.8,0,0,1-.2.5H2.2c-.2-.1-.2-.1-.3.1s-.4.6-.5.5a2,2,0,0,1-.1-.5v-.5l-.4.4a2.4,2.4,0,0,1-.8.9Z"/></svg>
