<svg xmlns="http://www.w3.org/2000/svg" viewBox="0 0 32 16.8"><path d="M7.6,16.8H7.2L4,16.3l-.7-.2-.8-.3c-.3-.1-.3-.1-.3-.3a2.9,2.9,0,0,1,.3-1.8,4.8,4.8,0,0,1,1-1.5c.3-.2,0-.3-1.2-.3H0c0-.3.1-.4.8-.8l.7-.4a2,2,0,0,0,.6-.9c.4-1,.7-1.4,1.5-1.6H5.5c.7.3.9.4,1.2.9a5.9,5.9,0,0,1,.4.8.8.8,0,0,0,.2.5,7.7,7.7,0,0,1,.1,1c0,.7,0,.7.3.5l1.7-.3,1.8-.4a6.1,6.1,0,0,1,2.2-.3,10.4,10.4,0,0,1,3.7.5h4.2l.8-.7L23.8,9,26,7a17.2,17.2,0,0,0,2.4-2.8A10.1,10.1,0,0,0,29.6.6a2.2,2.2,0,0,1,.1-.6c.1,0,.1.1.1.4a4.9,4.9,0,0,1-.1,1.1,8.2,8.2,0,0,1-.6,2,10.6,10.6,0,0,1-2.4,3.4,3.1,3.1,0,0,0-.7.9L27,7l.9-.7,1.6-1.2a9.1,9.1,0,0,0,2.2-2.2c.3-.3.4-.3.2.1L30.7,4.5l-1,.8L28.4,6.5l-.7.5a9.2,9.2,0,0,0-1.6,1.4L24.7,9.7l-.6.4h.3c.3-.1.3-.1.2.1l-.9.9-.6.4c-.2.2-.3.3-.2.3s0,.2-.3.2h-.3v.3l-.3.4a.8.8,0,0,0-.2.5c-.1.2-.1.4-.2.5l-.2.5c-.2.6-.2.6-1,1s-1.2.6-3.8,1.1H11.9c-.2-.1-.3,0-.5,0H10a18.3,18.3,0,0,1-2.4,0h0Z"/></svg>
