<svg xmlns="http://www.w3.org/2000/svg" viewBox="0 0 32 15.9"><path d="M19.9,15.9a50.6,50.6,0,0,0-5.6-.2h-9L.8,15.3l-.7-.5a.4.4,0,0,1-.1-.3,2.8,2.8,0,0,1,1.4-1.2l.3-.3.4-.4a2.8,2.8,0,0,0,1-.6,2.3,2.3,0,0,1,1.2-.6l1.8-.5a13.5,13.5,0,0,1,3.7-.7,19.8,19.8,0,0,1,8.5.7l1.3.3c.1,0,.1-.1.1-.3a17.3,17.3,0,0,1-.4-2.4,14.7,14.7,0,0,1-.2-2.8c0-2.2.3-3.2,1.6-4.4A3.8,3.8,0,0,1,23.2,0a8.3,8.3,0,0,1,4.1.9l.6.2L29.7.9,31.9.7c.1.1.1.1,0,.3A10.4,10.4,0,0,1,29,2.4l-1.3.5A10.6,10.6,0,0,0,25.2,5l-.5.5v.6a8.3,8.3,0,0,0,.7,5.3,9,9,0,0,1,.9,3.8v.3h-.3l-2.3.2H19.9Z"/></svg>
