<svg xmlns="http://www.w3.org/2000/svg" viewBox="0 0 32 11.7"><path d="M3.9,8.8H3.5a.2.2,0,0,1,0-.3h.2L4.3,8l1.2-.4,1-.5,2.7-.9L10.5,6h3.7l1,.2h1.5l2.1.6.9.2h.1c-.1-.4-.1-.8-.2-1.2a3.7,3.7,0,0,1,.3-2.5l.3-.8,1.1-1.5a3,3,0,0,1,.8-.8l.8-.3h2.2l1.3.3,1.1.4a4,4,0,0,0,1.1,0L29.8.5h.6l.8-.2.6-.2H32c0,.1,0,.2-.1.2s-.1.2-.2.3l-.5.3-1.7.8-1.1.4L27,2.9a2,2,0,0,0-.9.9l-.6.7a7,7,0,0,0-.9,1.7,3,3,0,0,0,.2,2.1,4.1,4.1,0,0,1,.3.8,3.1,3.1,0,0,1,.2.8,2.2,2.2,0,0,1-.1.8v.4H.1c-.1,0-.1,0,0-.2l.6-.6H.8a21.9,21.9,0,0,1,3-1.6Z"/></svg>
