<svg xmlns="http://www.w3.org/2000/svg" viewBox="0 0 32 31.79"><defs><style>.e14563fc-3bc4-44a7-bbcb-b73e6a3debdd{fill-rule:evenodd;}</style></defs><g id="a76f13b8-8022-4346-9955-9b5f91f8ee7a" data-name="Layer 2"><g id="b6fb61d9-eb31-4245-a5ee-334fef384e6f" data-name="Icons"><path class="e14563fc-3bc4-44a7-bbcb-b73e6a3debdd" d="M25.54,8.62a4.09,4.09,0,0,0-2.22-2.2h0a4.14,4.14,0,0,0-3.13,0A4.06,4.06,0,0,0,18,11.7v0h0a4.1,4.1,0,0,0,5.34,2.2l.12,0a4.06,4.06,0,0,0,2.1-5.26Z"/><path class="e14563fc-3bc4-44a7-bbcb-b73e6a3debdd" d="M23.71,0A12.15,12.15,0,0,0,11.52,12.11v8.24h8.29A12.15,12.15,0,0,0,32,8.23V0Zm5.06,13.06a7.61,7.61,0,0,1-14,0h0a7.52,7.52,0,0,1,4.06-9.83l0,0a7.6,7.6,0,0,1,5.81,0h0a7.54,7.54,0,0,1,4.11,4.08h0A7.5,7.5,0,0,1,28.77,13.06Z"/><path class="e14563fc-3bc4-44a7-bbcb-b73e6a3debdd" d="M0,25.89l8.11-2.16L5.94,31.79A6.9,6.9,0,0,0,11.5,25V20.36H6.79A6.92,6.92,0,0,0,0,25.89Z"/></g></g></svg>
