<svg xmlns="http://www.w3.org/2000/svg" viewBox="0 0 34 34.1"><defs><style>.a{fill-rule:evenodd;}</style></defs><path class="a" d="M6,23.2a4.9,4.9,0,0,0-3.8,8A4.1,4.1,0,0,1,6,28.7a4.3,4.3,0,0,1,3.9,2.5,5.5,5.5,0,0,0,1-3.1A4.9,4.9,0,0,0,6,23.2ZM16.4,19V14.8a.6.6,0,0,1,1.2,0V19l4.2,2.7a.6.6,0,0,1,.2.8.6.6,0,0,1-.8.1L17,19.9l-4.2,2.7a.6.6,0,0,1-.8-.1.6.6,0,0,1,.2-.8ZM6,24.1a2.2,2.2,0,1,1,0,4.3,2.1,2.1,0,0,1-2.1-2.1A2.1,2.1,0,0,1,6,24.1Zm22,0a2.1,2.1,0,0,1,2.1,2.2A2.1,2.1,0,0,1,28,28.4a2.2,2.2,0,1,1,0-4.3Zm0,4.6a4.1,4.1,0,0,1,3.8,2.5,4.9,4.9,0,1,0-8.7-3.1,5.5,5.5,0,0,0,1,3.1A4.3,4.3,0,0,1,28,28.7ZM17.1,2a2.1,2.1,0,0,1,2.1,2.2,2.1,2.1,0,1,1-4.2,0A2.1,2.1,0,0,1,17.1,2Zm0,4.6A4.3,4.3,0,0,1,21,9.1,5.5,5.5,0,0,0,22,6a4.9,4.9,0,1,0-9.8,0,5.5,5.5,0,0,0,1,3.1,4.3,4.3,0,0,1,3.9-2.5ZM6,22.1a6,6,0,0,1,6,6,5.9,5.9,0,0,1-6,6,6,6,0,0,1-6-6,6,6,0,0,1,6-6ZM17.1,0a6,6,0,0,0-6,6,6,6,0,0,0,12,0A6,6,0,0,0,17.1,0ZM28,22.1a6,6,0,0,0-6,6,5.9,5.9,0,0,0,6,6,6,6,0,0,0,6-6,6,6,0,0,0-6-6Z"/></svg>
