<svg xmlns="http://www.w3.org/2000/svg" viewBox="0 0 33.2 33.9"><defs><style>.a{fill-rule:evenodd;}</style></defs><path class="a" d="M16.2,11.7H18c1.4,0,2.5-.5,2.5-1.1V.6c0-.3-.3-.6-.8-.6s-.8.3-.8.6V3.5H16.2V2.8c0-.4-.4-.6-.8-.6s-.8.2-.8.6v.9c-.6.2-.9.5-.9.8v6.1C13.7,11.2,14.8,11.7,16.2,11.7Zm2.2-6.6a.3.3,0,0,1,.3.3.3.3,0,1,1-.6,0A.3.3,0,0,1,18.4,5.1Zm-1.3,0a.3.3,0,0,1,.3.3.3.3,0,0,1-.6,0A.3.3,0,0,1,17.1,5.1Zm-1.3,0a.3.3,0,0,1,.3.3.3.3,0,0,1-.6,0A.3.3,0,0,1,15.8,5.1Zm-.3,1.3h3.2v1H15.5Z"/><path class="a" d="M31.6,29.9H24.3c-1,.2-1.4,2.3-1.5,3.2H33.2C33.1,32.2,32.7,30.1,31.6,29.9Z"/><path class="a" d="M25.2,26.7A2.8,2.8,0,0,0,28,29.4a2.7,2.7,0,0,0,2.7-2.7v-.3c2.5-.2,2.4-.5,2.4-.5l-1.8-1.2L31.1,23c-.1-.4-1.1-1.1-3.2-1.1s-2.9.7-3,1.1l-.2,1.7-1.9,1.2a6.3,6.3,0,0,0,2.5.5C25.3,26.5,25.2,26.6,25.2,26.7Z"/><path class="a" d="M6,23.9A2.1,2.1,0,0,0,3.9,26,2.1,2.1,0,0,0,6,28.2a2.2,2.2,0,1,0,0-4.3Z"/><path class="a" d="M6,21.9a6,6,0,0,0,0,12,6,6,0,0,0,0-12ZM9.9,31A4.4,4.4,0,0,0,6,28.4H6A4.1,4.1,0,0,0,2.2,31a4.9,4.9,0,1,1,8.7-3.1A5.5,5.5,0,0,1,9.9,31Z"/><path class="a" d="M21.8,21.5l-4.2-2.7V14.6a.6.6,0,0,0-1.2,0v4.2l-4.2,2.7a.6.6,0,0,0-.2.8.6.6,0,0,0,.8.1L17,19.7l4.2,2.7a.5.5,0,0,0,.8-.2A.5.5,0,0,0,21.8,21.5Z"/></svg>
