<svg xmlns="http://www.w3.org/2000/svg" viewBox="0 0 32 29.3"><path d="M11.4,29.3c-.1,0-.1-.2-.1-.9a9.1,9.1,0,0,1,.1-1.7,12.7,12.7,0,0,1,.8-3.1,3.3,3.3,0,0,0,.5-1.7v-.6c-.1-.1-.1-.1-.1-.3a.4.4,0,0,0-.1-.3v-.4c0-.1-.1-.2-.1-.3v-.2c-.1-.2-.2-.3-1.4-.3a4.4,4.4,0,0,0-1.8.2,22,22,0,0,1-4.3.6H4.1V20H3.7l-2.9.3H0l1-.5c.2,0,.2-.1.2-.1H.1a22.8,22.8,0,0,1,3.1-1,4.1,4.1,0,0,0,2.7-1.3l.6-.5a6.1,6.1,0,0,1,2.2-.2,12.7,12.7,0,0,0,3.6-.5,4.9,4.9,0,0,0,1.8-.9c.4-.4.5-.6.4-.7v-.2a10.6,10.6,0,0,0,1-2.5,9.3,9.3,0,0,1,.5-1.4l.8-1.7L19,6.9,20.2,6a2.6,2.6,0,0,0,.5-.9l.4-.7.3-.5a3.8,3.8,0,0,1,.8-1.1l.3-.4.4-.4.6-.7L24.8,0c.2-.1.5,0,1,.3A11,11,0,0,1,29,3.7a10.4,10.4,0,0,1-.1,1.6c-.1.5-.3.8-1.3,1.5a17,17,0,0,0-1.9,2,3.5,3.5,0,0,0-.7,2.6,2.5,2.5,0,0,0,.2,1.2,2.9,2.9,0,0,0,.6,1.1,7.7,7.7,0,0,0,2.2.9,3.7,3.7,0,0,1,2.1,1.1l.3.4c0,.2.1.3.1.4l.4.2c.6.2.9.4,1,.8a.8.8,0,0,1,.1.4h-.3a2.7,2.7,0,0,0-1.4-.3,4.6,4.6,0,0,0-1.8.9,7.2,7.2,0,0,1-3.2,1.3l-1.8.3-1.6.3-.7.2-.2.4a21.6,21.6,0,0,1-2.7,3.8A19,19,0,0,1,15,27.8l-2.9,1.4Z"/></svg>
