<svg xmlns="http://www.w3.org/2000/svg" viewBox="0 0 32 30.93"><g id="f69bd800-df2d-47ac-8fcf-abeb76dc0f35" data-name="Layer 2"><g id="b53022f4-1a24-4d10-852b-8fde5555ec6a" data-name="Icons"><path d="M16.05,8.63A4.5,4.5,0,0,0,13.42,8H12.3v5.13h.86A5.15,5.15,0,0,0,16,12.53a2.22,2.22,0,0,0,.94-2A2.21,2.21,0,0,0,16.05,8.63Z"/><path d="M16.77,21.5h.34a10.57,10.57,0,0,1,1.13-2c.22-.28.91-1.16,5.73-1.19h0a20.44,20.44,0,0,1,3.82.3V3a3,3,0,0,0-3-3H3A3,3,0,0,0,0,3V24.84a3,3,0,0,0,3,3H15.27A6.4,6.4,0,0,1,15,26a3.44,3.44,0,0,1,.37-1.51,1.37,1.37,0,0,1-.47-.77,1.69,1.69,0,0,1,.3-1.38A2,2,0,0,1,16.77,21.5ZM13.3,16.15h-1V22.3H7.93V5h5.73a13.76,13.76,0,0,1,3.43.38,6.76,6.76,0,0,1,2.39,1.06,4.35,4.35,0,0,1,1.39,1.69,5.46,5.46,0,0,1,.45,2.26,6,6,0,0,1-.41,2.18,4.48,4.48,0,0,1-1.35,1.83,7.08,7.08,0,0,1-2.47,1.27A13.18,13.18,0,0,1,13.3,16.15Z"/><path d="M32,23.45c.05-.19,0-.77-.9-.84H31a1.07,1.07,0,0,0-.72.27,19.17,19.17,0,0,0-1.42-2.72c-.58-.74-4.86-.77-4.86-.77s-4.28,0-4.86.77a19.11,19.11,0,0,0-1.43,2.72A1.07,1.07,0,0,0,17,22.6h-.11c-.86.07-.94.65-.9.84s.61.4,1.08.51a3.31,3.31,0,0,0-.95,2,5.14,5.14,0,0,0,.87,2.8,1.32,1.32,0,0,0,.48.08v1.48a.59.59,0,0,0,.58.59h1.59a.59.59,0,0,0,.58-.59V28.85c1.24,0,2.63-.07,3.79-.07s2.54,0,3.78.07v1.49a.59.59,0,0,0,.58.59h1.59a.59.59,0,0,0,.59-.59V28.86a1.2,1.2,0,0,0,.47-.08,5.14,5.14,0,0,0,.87-2.8,3.31,3.31,0,0,0-.95-2C31.39,23.85,31.92,23.75,32,23.45Zm-12.17,3H17.51l.13-.73a.67.67,0,0,1,.66-.55h.06l1.46.14ZM24,23.36c-3.33,0-5.61.23-5.61.23a22.79,22.79,0,0,1,1.48-2.91C20.33,20.06,24,20,24,20s3.64,0,4.12.65a21.52,21.52,0,0,1,1.48,2.91S27.3,23.36,24,23.36Zm4.15,3.12V25.35l1.46-.14h.07a.67.67,0,0,1,.65.55l.14.73Z"/></g></g></svg>
