<svg xmlns="http://www.w3.org/2000/svg" viewBox="0 0 32 25"><path d="M28.8,19.9,25,17.3a18.2,18.2,0,0,1-3.3-3.1,25.9,25.9,0,0,0-1.8-2.1c-2.2-1.9-3.1-2.7-3.3-3.1a9.1,9.1,0,0,0-2.4-2.4L12.1,4.8A44.7,44.7,0,0,1,8.9,1.3C8.7,1,8.7.9,7.9.4S7.2.1,6.2,0H5A1.9,1.9,0,0,0,4,.3,3.7,3.7,0,0,0,1.7,2.2,6.1,6.1,0,0,1,.8,3.4L0,4.3c0,.1.3.2.6.3l.8.3.2.9a1.6,1.6,0,0,1-.2,1.4,5.6,5.6,0,0,0-.3,1.6c0,.3,0,.6-.1.7s.1,2.8.2,3.3l.4,1c.1.4.1.6.3.7a9.1,9.1,0,0,0,.7,1.4,7.9,7.9,0,0,0,1.2,1.5,5.9,5.9,0,0,0,.8.8l.5.4c.3.1,1.4,1,1.6.9l.6.4,2.1,1a3,3,0,0,0,1.5.5c.2.1,0,.3-.5.8s-1.5,1.3-2,1.3-.6,0-.6.1h-1c-2.1-.1-2-.1-2.4.3s-.3.6.1.3.6-.3.7,0,.1.2.3.2h.4c.1.5.5.7.8.5s0-.1-.1,0-.1,0-.1-.2.4-.3.6-.1h3.4c.4.1.3.3.5.4h0c.9.1,1.5.1,2-.7a2.1,2.1,0,0,1-1.5-.4,8.4,8.4,0,0,1,.6-1.8l.3-.7h.7a26.6,26.6,0,0,0,3.2-.9l.6-.2h.5c.2,0,.3,0,.3-.1a.1.1,0,0,1,.2,0c.2,0,.3,0,.3-.1s4.2-.4,5.2-.1,2.7.4,2.7.2v-.2l2,.7L31,21.6l.5.2c.2.1.4.2.5.1S31.7,21.5,28.8,19.9ZM10.3,23.6c-.4.2-.4.1.2-.4l.5-.6C11.2,22.6,10.5,23.5,10.3,23.6Z"/></svg>
