<svg xmlns="http://www.w3.org/2000/svg" viewBox="0 0 32 22.03"><g id="b377fbed-173b-4271-9c3e-3693150b9850" data-name="Layer 2"><g id="b40770b3-620e-4de3-8df2-60553fd69c4f" data-name="Icons"><path id="bee16ab0-6f0e-4227-91fd-a65bc1b2e40d" data-name="path6970" d="M.65,17.64c.17-.56,2.7-1.48.8-.87-.48.29-2.34.8-.93,0a14,14,0,0,1,4-1.86c1.37-.48,2.6-1.27,4-1.79a43.33,43.33,0,0,0,4.91-2.9C14.92,8.81,16.48,7.36,18.13,6A24.54,24.54,0,0,1,22,3.91c1.43-.75,1.48-2.69,2.94-3.42a3.65,3.65,0,0,1,4.78,1c.05,1.16,2.62.64,2.25,1.39a3.06,3.06,0,0,0-3.09,1.84c-.66,1.24-.22,2.73-.55,4a9.72,9.72,0,0,1-4.43,6.37,7.59,7.59,0,0,1-5.14,1.45c-.55,1.17,1.28,2.3,1.62,3.46.7,1.4,2.36,1.62,3.76,1.61,1.55.82-.88,0-1.57,0-1.11-.34-3.19-.27-3.8-.84.67.24,1.87.17.93-.73a23.93,23.93,0,0,0-2.4-3.54,4.88,4.88,0,0,0-4.1-.52c-1.29.34-2.4,1.4-3.75,1.4-1.34.28.57-1.32,1-1.52s1.07-.93,0-.73a14.06,14.06,0,0,0-5.82.9c-1.39.37-2.63,1.18-4,1.49h0Z"/></g></g></svg>
