<svg xmlns="http://www.w3.org/2000/svg" viewBox="0 0 32 22.48"><g id="fe83af1e-4504-4148-b677-39f24bed86f8" data-name="Layer 2"><g id="abb8e076-c32e-4be1-abee-9e090581cd28" data-name="Icons"><path d="M3.81,18.55l.3,1a.93.93,0,0,0,.7.63l11,2.31a.81.81,0,0,0,.38,0l11-2.31a.93.93,0,0,0,.7-.63l.3-1a.93.93,0,0,0-.7-1.18,51.86,51.86,0,0,0-23,0A.93.93,0,0,0,3.81,18.55Z"/><path d="M1.8,7.45,14.94,1.73a2.66,2.66,0,0,1,2.12,0L30.2,7.45A2.51,2.51,0,0,1,31,8l-.53-1.36a1.4,1.4,0,0,0-.77-.81L16.58.12a1.46,1.46,0,0,0-1.16,0L2.29,5.84a1.41,1.41,0,0,0-.78.81L1,8A2.51,2.51,0,0,1,1.8,7.45Z"/><path d="M31.9,13,30.48,9.36a1.38,1.38,0,0,0-.77-.8L16.58,2.84a1.46,1.46,0,0,0-1.16,0L2.29,8.56a1.38,1.38,0,0,0-.77.8L.1,13a1.44,1.44,0,0,0,.58,1.74L2.4,15.86a1,1,0,0,0,.76.13h0A58.39,58.39,0,0,1,16,14.46,58.53,58.53,0,0,1,28.84,16h0a1,1,0,0,0,.76-.13l1.72-1.08A1.44,1.44,0,0,0,31.9,13ZM19.79,8.32l-1.54,1.5a.33.33,0,0,0-.09.29l.36,2.11a.33.33,0,0,1-.47.35l-1.9-1a.32.32,0,0,0-.3,0l-1.9,1a.33.33,0,0,1-.47-.35l.36-2.11a.33.33,0,0,0-.09-.29l-1.54-1.5a.32.32,0,0,1,.18-.55l2.12-.31a.34.34,0,0,0,.25-.18l1-1.93a.32.32,0,0,1,.58,0l.95,1.93a.34.34,0,0,0,.24.18l2.13.31A.32.32,0,0,1,19.79,8.32Z"/></g></g></svg>
