<svg xmlns="http://www.w3.org/2000/svg" viewBox="0 0 26.6 32"><defs><style>.a{fill-rule:evenodd;}</style></defs><path d="M.5,8.9c-.3.1-.5.3-.5.5V31.5a.5.5,0,0,0,.5.5H26.1a.5.5,0,0,0,.5-.5V15.2h0c0-.2-.1-.3-.3-.4a.4.4,0,0,0-.5,0L16.6,19V15.2c0-.2-.1-.3-.3-.4a.4.4,0,0,0-.5,0L6.5,19V9.4A.5.5,0,0,0,6,8.9ZM3,23.9H7.8v3H3Zm7.9,0h4.8v3H10.9Zm7.9,0h4.8v3H18.8Z"/><path class="a" d="M17.4,1.6a3.1,3.1,0,0,1,4.1,3.7,3,3,0,0,1-4.6,1.8,3.1,3.1,0,0,1-5.9.2,3.1,3.1,0,0,1-2.6-.4A2.4,2.4,0,0,1,5.6,8.1a2.4,2.4,0,0,1-1.8-3A2.5,2.5,0,0,1,7.2,3.2a3,3,0,0,1,4.7-1.3,3,3,0,0,1,5.5-.3Z"/></svg>
