<svg xmlns="http://www.w3.org/2000/svg" viewBox="0 0 32 25.6"><path d="M31.9,1.3A2.4,2.4,0,0,0,31,.7L30,.4A4.7,4.7,0,0,0,28.3,0a2.8,2.8,0,0,0-2.1,1,4.5,4.5,0,0,0-1,2.7c-.1.3-.2.9-.3,1.1l-.4,1.1a5.1,5.1,0,0,1-.4,1,10.4,10.4,0,0,1-3.5,1.9l-1.8.3a11.7,11.7,0,0,0-4.3,1.1l-1.4.7a41.6,41.6,0,0,0-4,3c-.8.9-2,2.2-3.1,3.6a6.1,6.1,0,0,1-1.8,2L1.5,21.8C.7,22.5.1,23.2.1,23.5s.1,0,.5-.4.4-.3-.2.4l-.4.4H.3c.2.1.2.1.7,0l1.1-.8a5.7,5.7,0,0,1,2.1-1l1-.5.5-.3H7c1.2,0,1.3,0,1.6-.2l.4-.2.5-.4c.3-.3.4-.3.5-.3l3.4.4,1.8.2a14.8,14.8,0,0,1,.1,1.6c.1,1.7.1,1.8.6,2.3s.9.8,2.3.8h4.1c1.3,0,1.3,0,1.3-.2s-.6-.5-1.2-.5l-.8-.2h-.8l-.7-.2a5.8,5.8,0,0,1-1.5-2.4,1.8,1.8,0,0,1,1-1.6A6.5,6.5,0,0,0,22.5,19a12.1,12.1,0,0,0,3-3A8.1,8.1,0,0,0,27,12.9c.8-2.1.8-2.3.9-5.4V5l.3-.6.5-.8c.2,0,.5-.3.8-.6a2.9,2.9,0,0,1,1.6-1.1C32,1.7,32.1,1.7,31.9,1.3ZM18.6,24.4a.3.3,0,0,0,.1.2h-.9c-1,0-1.6-.5-1.5-1.3s.2-1.9.6-1.7A11.7,11.7,0,0,1,18.6,24.4Z"/></svg>
