<svg xmlns="http://www.w3.org/2000/svg" viewBox="0 0 34 24.9"><rect x="4.2" width="7.8" height="3.03" rx="1.2"/><path d="M4,12.2H3.1c-.1,0-.2-.1-.2-.3V11c0-.1-.1-.2-.3-.2H.2L0,11v8.6c0,.1.1.3.2.3H2.5a.3.3,0,0,0,.3-.3v-.9a.2.2,0,0,1,.2-.2H4c.1,0,.2-.2.2-.3V12.4C4.3,12.3,4.2,12.2,4,12.2Z"/><path d="M10.1,4.4h-4a.5.5,0,0,0-.4.5v16a.4.4,0,0,0,.4.4h7.6a.4.4,0,0,0,.4-.4V9.1a.4.4,0,0,0-.4-.4H12.4a.5.5,0,0,0-.5.4v5.5a.5.5,0,0,1-.5.5h-.3c-.2,0-.5-.2-.5-.4V4.9A.5.5,0,0,0,10.1,4.4Z"/><path d="M30.5,5.1H18.3a3.5,3.5,0,0,0-2.6,2.5V22.3a5.1,5.1,0,0,0,3.6,2.6H29.9c2.6-.3,3.9-1.7,4.1-4.1V8.5A4.2,4.2,0,0,0,30.5,5.1ZM29.4,23.5H20.2c-.2,0-.3-.2-.3-.4V21.9c0-.2.1-.4.3-.4h7.9a.3.3,0,0,0,.3-.3V18.9a.3.3,0,0,0-.3-.3H20.2c-.2,0-.3-.2-.3-.4v-2a.3.3,0,0,1,.3-.3H28c.2,0,.3-.2.3-.4V13.3A.3.3,0,0,0,28,13H20.3a.4.4,0,0,1-.4-.4V10.5a.4.4,0,0,1,.4-.4H28a.3.3,0,0,0,.3-.3V7.6c0-.2-.1-.4-.3-.4H20.2a.3.3,0,0,1-.3-.3h0c0-.2.1-.4.3-.4h9.2c.2,0,.3.2.3.4V23.1C29.7,23.3,29.6,23.5,29.4,23.5Z"/></svg>
