<svg xmlns="http://www.w3.org/2000/svg" viewBox="0 0 32 16.66"><g id="b81f2994-ba31-48bf-ba39-f569b6ed6581" data-name="Layer 2"><g id="b597708c-bd2d-4797-b7fc-31deb9c48b82" data-name="Icons"><path d="M32,8.76a2.24,2.24,0,0,0-.53-.24,1.36,1.36,0,0,1-.35-.21,2.72,2.72,0,0,0-.56-.22,9.19,9.19,0,0,0-1.18-.27l-.74-.15-.77-.14a10.89,10.89,0,0,1-1.14-.21c-.24-.05-.48-.09-.71-.16S25.73,7,25.6,7s-.33-.06-.41-.2-.25-.12-.42-.12-.32,0-.42,0l-.06-.08a.26.26,0,0,0-.12,0,2.84,2.84,0,0,0-.42-.09s-.18,0-.15,0a1.17,1.17,0,0,1,.4,0,1.07,1.07,0,0,0,.63-.15.77.77,0,0,0-.36-.28c-.15,0,0-.11.07-.12s.05,0,.07,0-.39-.19-.53-.25-.47-.17-.71-.24A12.7,12.7,0,0,0,21.78,5c-.29,0-.55-.17-.84-.24l-.33-.09A2.61,2.61,0,0,0,20,4.54a1.64,1.64,0,0,1-.67-.13.44.44,0,0,0-.19-.07L19,4.28A7.81,7.81,0,0,0,18,4l-1.12-.34q-1.1-.3-2.22-.54L14.31,3a.73.73,0,0,1-.23,0,2,2,0,0,1-.47-.23A14.7,14.7,0,0,0,12,1.83l-.56-.28a6.65,6.65,0,0,0-2.47-.37A4.86,4.86,0,0,1,7.37,1,.91.91,0,0,1,7.11.84,4,4,0,0,0,6.49.38a2,2,0,0,0-.73-.1l-.49,0c-.59,0-1.17.09-1.76,0a1.92,1.92,0,0,1-.7-.19A.77.77,0,0,0,2.51,0a1.14,1.14,0,0,0-.32,0s-.07,0-.09,0a.09.09,0,0,0,0,.05A.1.1,0,0,1,2,.12,4.49,4.49,0,0,0,1,.21,2.06,2.06,0,0,0,.37.49C.14.66,0,.87,0,.94s0,0,.21,0A3.7,3.7,0,0,1,1,.87a2.66,2.66,0,0,1,.51,0,2.55,2.55,0,0,1,1.34.59.6.6,0,0,1,.11.1l-.35,0a9.59,9.59,0,0,0-1.32,0,3,3,0,0,0-1,.28C0,2,0,2.06.18,2.1a9.79,9.79,0,0,1,1.69.29A3.31,3.31,0,0,1,3.19,3.47,6.21,6.21,0,0,0,4.45,5a4,4,0,0,1,.48.32.64.64,0,0,0,.26.18V5.47l.32.24s-.09-.23-.09-.26c.2.1.37.27.57.38s.54.35.75.24a.15.15,0,0,1,.07,0l.06,0a7.55,7.55,0,0,1,1.4,1.25A11.44,11.44,0,0,0,9.71,9l.33.27a9.74,9.74,0,0,0,1.38.92c.33.18,1,.34,1.15.7,0,.06.27.32.34.25a.13.13,0,0,0,0,.19.44.44,0,0,0,.2.08,1.1,1.1,0,0,1,.4.17.14.14,0,0,1,0-.09,9.36,9.36,0,0,0,1,.44,3.1,3.1,0,0,1,.47.26c.11.08.31.21.35.35v.12l-.05.46c0,.38-.48.49-.76.67s-.6.38-.91.54l-.24.14-.28.21a2,2,0,0,1-1.13.44,7.23,7.23,0,0,1-.93,0L10.33,15a.5.5,0,0,0-.31.09.72.72,0,0,0-.29.21c0,.06-.05.11,0,.11l.08-.06c.09-.08.11-.09.27-.07a.36.36,0,0,0,.22,0,.13.13,0,0,1,.17.05.23.23,0,0,1,0,.12c0,.07,0,.09,0,.12s.09.07.18,0a2.08,2.08,0,0,1,.69.09c.26,0,.53.08.79.1a2.61,2.61,0,0,0,.56,0,2.4,2.4,0,0,0,.52-.16c.06,0,.34-.18.29,0s-.15.12-.2.15a1.93,1.93,0,0,1-.56.18,1.57,1.57,0,0,1-1-.13.19.19,0,0,0-.08,0,.35.35,0,0,0-.11,0c-.19.11-.34.18-.41.38h-.36c-.42,0-.41,0-.52.11s-.12.16-.07.16a.44.44,0,0,0,.16-.09s0,0,.16,0l.37,0,0,.26.5,0c.17,0,.33,0,.5-.05s.19-.09.29-.13a.69.69,0,0,1,.32,0,5.83,5.83,0,0,0,.73.1c.34,0,.67,0,1-.08a3.29,3.29,0,0,0,1.27-.31.25.25,0,0,0,.11-.12c0-.1-.06-.22,0-.31s.43-.07.54,0,.26.18.37.14-.26-.36-.28-.39-.27-.57-.51-.57c-.07,0-.06-.05,0-.12a1.79,1.79,0,0,1,.79-.45.86.86,0,0,0,.21-.07c.16-.08.21-.26.3-.4a1.17,1.17,0,0,0,.27-.5.93.93,0,0,0,0-.37c-.06-.24.13-.16.32-.17h.17l.14,0a2.74,2.74,0,0,0,.64.08c.22,0,.31,0,.36-.28s.14-.3.36-.18a.43.43,0,0,0,.5-.1s.08-.1.13-.12h.12c.3,0,.59.08.88.14l.46.09c.09,0,.25.09.34,0l0,0c.09-.05.26,0,.34.08l.46.16a5.15,5.15,0,0,0,.56.16,1.27,1.27,0,0,0,.42.09c.15,0,.12-.19.09-.3s-.2-.18-.27-.32a.17.17,0,0,1,0-.1c.05-.09.13,0,.16.07s.07,0,.28.06a16.48,16.48,0,0,1,2.31.43,1.19,1.19,0,0,1,.63.27.14.14,0,0,0,.07.06l.59.18.07,0,0,0,.05,0a6.14,6.14,0,0,1,1.07.49,2.73,2.73,0,0,0,.47.28l.47.22a.8.8,0,0,0,.55,0L30,14.05a1.78,1.78,0,0,1-.39-.35s-.09-.08-.51-.29a5.57,5.57,0,0,1-.72-.4.3.3,0,0,0-.17-.08,1.33,1.33,0,0,1-.36-.17l-.28-.15c-.2-.1-.27-.14-.27-.16s.08,0,.28.1a7.84,7.84,0,0,0,.9.37.29.29,0,0,1,.1.05,1.9,1.9,0,0,0,.44.16,1.72,1.72,0,0,1,.46.18l.09,0s0-.08,0-.12a3.7,3.7,0,0,0-1.09-.54l-1.2-.58a21.74,21.74,0,0,1-2.37-1.29c-.21-.13-.42-.25-.86-.48s-.35-.19-.32-.2H24a14.34,14.34,0,0,1,3.19.51c.38.09.77.18,1.15.3a2.87,2.87,0,0,0,.94.26h0c.12-.06-.3-.38-.34-.42a1.85,1.85,0,0,0-.58-.37c-.93-.38-1.87-.69-2.82-1a4.79,4.79,0,0,1-1-.45c-.29-.18-.47-.54-.77-.68a.63.63,0,0,1-.18-.14L23.43,8l-.06,0h.11c.13,0,.44,0,1.09.06.24,0,.7-.1.88.09A1.81,1.81,0,0,1,26.14,8a7.09,7.09,0,0,1,.93.06l.58.06.35,0c.16,0,.21,0,.53.05a14.25,14.25,0,0,1,1.58.16l.5.11a7.58,7.58,0,0,1,1.18.29c.09,0,.2.05.21,0ZM11.57,16.19h-.05l0,0a0,0,0,0,0-.05,0l0,.06h-.05s0,0,0,0a.28.28,0,0,1,.15-.08l0,0a.06.06,0,0,0,.06,0h0l0,0s0,0,0,0,.17,0,.22,0l0,0A1.28,1.28,0,0,0,11.57,16.19Z"/></g></g></svg>
