<svg xmlns="http://www.w3.org/2000/svg" viewBox="0 0 25.51 32"><g id="e74663d6-b2fb-43fc-b945-61f4d2d7c169" data-name="Layer 2"><g id="bdb66abb-78e3-4c83-842c-768b53d251a3" data-name="Icons"><path d="M25.27,17.44h0a.83.83,0,0,0-.68-.34H7.2a.87.87,0,0,1-.78-.49h0a2.09,2.09,0,0,1-.21-.91l.09-13a.51.51,0,0,0-.51-.52H.55A.51.51,0,0,0,0,2.68V16.13a.58.58,0,0,0,.58.58h.2a.25.25,0,0,1,.25.29c-.2,1.25,1.4,1.83,2.28,2.05a1.3,1.3,0,0,1,.79.59,10.07,10.07,0,0,0,2.94,2.67,1.58,1.58,0,0,1,.66.88,4.26,4.26,0,0,1-1.29,4.28,3.8,3.8,0,0,0-.53.61,4.45,4.45,0,0,0-.87,2.82C5,32.05,8.46,32,8.46,32H22.3c.95,0,1-.19,1-.27s0-.08,0-.13v-.26a1.77,1.77,0,0,0-.6-1.23l-.43-.38a1.67,1.67,0,0,1-.58-1.23L21.56,24a.67.67,0,0,1,.37-.62,4.16,4.16,0,0,0,2.49-2.72,1.49,1.49,0,0,1,.42-.79l.27-.27a1.41,1.41,0,0,0,.4-1v-.43A1.25,1.25,0,0,0,25.27,17.44Z"/><path d="M9.31,16.68H24.89A.12.12,0,0,0,25,16.5a1,1,0,0,0-.88-.72H10.05a.89.89,0,0,0-.48.13.91.91,0,0,0-.39.62A.13.13,0,0,0,9.31,16.68Z"/><path d="M.46,1.83H6a.49.49,0,0,0,.45-.7h0A1.34,1.34,0,0,0,6.09.18h0A.55.55,0,0,0,5.68,0H.58A.58.58,0,0,0,0,.58v.8A.46.46,0,0,0,.46,1.83Z"/></g></g></svg>
