<svg xmlns="http://www.w3.org/2000/svg" viewBox="0 0 32 16.3"><g id="fcc2b5ec-ae9f-4565-b582-37d3496f078e" data-name="Layer 2"><g id="e0b8a8fd-c390-4e82-9682-507bb9df652c" data-name="Icons"><path id="bcb786b7-75f9-4bba-8259-c4bf3489f8d6" data-name="path6956" d="M17,16.28a1.16,1.16,0,0,1-.22-.19l-.18-.17s-.06,0-.07.06-.09.1-.17.1a.86.86,0,0,1-.62-.36,1,1,0,0,1-.05-.41c0-.09,0-.16,0-.15a3.49,3.49,0,0,0-.21.47.43.43,0,0,1-.09.17s-.06,0-.11,0a1.05,1.05,0,0,1-.66-.35c-.14-.18-.14-.27,0-1l0-.27s-.06,0-.13,0-.3-.18-.45-.62a2.06,2.06,0,0,0-.1-.25.16.16,0,0,0-.13-.1.58.58,0,0,1-.28-.17l-.11-.1,0,0,0,.13c0,.13-.1.15-.39.14s-.25,0-.33-.18a1,1,0,0,1-.08-.28c0-.06,0-.1,0-.09s0,0,0,.05A1.51,1.51,0,0,1,12,13l-.06,0,0,0a3.73,3.73,0,0,1-.24-.34,2.16,2.16,0,0,1-.13-.78c0-.14,0-.25,0-.26h-.1a.47.47,0,0,1-.3,0,.59.59,0,0,1-.23-.24,1.61,1.61,0,0,1-.16-.64c0-.14,0-.22-.09-.25a.2.2,0,0,0-.1,0,.76.76,0,0,1-.32-.11c-.13-.07-.19-.13-.21-.2A.92.92,0,0,1,10,10a1.68,1.68,0,0,0,0-.4.55.55,0,0,0-.25-.25,1,1,0,0,1-.35-.67c0-.07,0-.14,0-.16l-.06,0C9.1,8.45,9,8.24,9,8a.61.61,0,0,0,0-.15.33.33,0,0,0-.13-.14.44.44,0,0,1-.21-.29,1.77,1.77,0,0,1,0-.45c0-.18,0-.24-.05-.27l-.1,0c-.1,0-.68-.13-1.27-.21a4.9,4.9,0,0,1-.8-.16c-.11,0-.76-.21-.89-.24s-.07,0-.27.11c-.45.22-.31.21-2.31.27l-1.3,0-.83,0H.53L.35,6.37C.14,6.24,0,6.15,0,6.07A.12.12,0,0,1,0,6s.05-.09.2-.23a1.29,1.29,0,0,0,.32-.4.5.5,0,0,1,.07-.13A1,1,0,0,1,1,4.94c.22-.13,1.36-.7,1.63-.82a12.55,12.55,0,0,1,1.66-.65c.14,0,.17-.05.16-.09a.7.7,0,0,0-.11-.17,1.15,1.15,0,0,1-.19-.3c-.06-.17,0-.26.16-.34S4.86,2.28,5.36,2s.77-.44,1.17-.64c.57-.3,1-.52,1.36-.78A7.18,7.18,0,0,1,8.55.19L8.74.12,8.9.06A14.72,14.72,0,0,1,10.83,0a8.57,8.57,0,0,1,1.65.09l.72.12c.3.05,1.31.26,1.37.29l.06,0a1.68,1.68,0,0,1,0,.33V1l.19.05c.34.1.64.21.76.26l.18.07A12.25,12.25,0,0,1,17,1.89a3.53,3.53,0,0,0,1.65.53A31.36,31.36,0,0,0,23,2.59a32.39,32.39,0,0,0,3.41,0,.92.92,0,0,0,.27-.09,3,3,0,0,1,1-.27,4,4,0,0,1,.73-.06,10.7,10.7,0,0,1,1.08.12.67.67,0,0,1,.38.25,1.09,1.09,0,0,0,.4.32c.11.07.76.4,1,.53a1.39,1.39,0,0,1,.43.28.91.91,0,0,1,.21.3A.16.16,0,0,1,32,4a.53.53,0,0,1-.21.18,4.48,4.48,0,0,1-1.29.15,17.54,17.54,0,0,1-1.77,0,2.56,2.56,0,0,1-.58-.06l-.71-.11A3.53,3.53,0,0,1,26.34,4c-.08,0-.09,0-.27-.05h-.73L23.85,4l-.46,0c-.9,0-1.57.1-1.82.14s-1.7.15-2.27.17a3.48,3.48,0,0,1-.49,0,2.41,2.41,0,0,0-.68,0c-.18.05-.3.12-.33.21a1.31,1.31,0,0,0-.06.44A14.2,14.2,0,0,0,18,7.6a25.69,25.69,0,0,1,.22,3.26c0,1.5,0,4.08,0,4.59A.65.65,0,0,1,18,16c-.1.1-.22.12-.45.1s-.15,0-.28.11-.17.14-.21.14a.19.19,0,0,1-.09,0h0Z"/></g></g></svg>
