<svg xmlns="http://www.w3.org/2000/svg" viewBox="0 0 32 17.74"><g id="b2b617a5-276b-4b9a-82e6-d6c5cb73472f" data-name="Layer 2"><g id="b1e6d99b-4420-42ab-bba8-cac0bd563762" data-name="Icons"><path id="b37bd513-ea8e-4bbf-a018-20a0acad68d6" data-name="path6966" d="M26.4,17.61a17.75,17.75,0,0,0-1.95-.87,6.9,6.9,0,0,1-1.63-.82,1.44,1.44,0,0,1-.35-.67,30.38,30.38,0,0,0-1.37-2.91l-.37-.71c0-.05-.16,0-.66.13a19.86,19.86,0,0,1-5.38,1l-.83,0-.23.22a1,1,0,0,1-.32.25c-.13,0-.19.28-.29,1.14-.07.51-.11.7-.17.74a10.18,10.18,0,0,1-2,.35,8.72,8.72,0,0,0-2.8.67c-.12.09-.14.12-.11.26s0,.15-.13.11a.93.93,0,0,0-.82.05,8.66,8.66,0,0,1-2.35.72s.06-.12.23-.23a1.6,1.6,0,0,0,.26-.2l-.43.1a3.88,3.88,0,0,1-.74.15c-.29,0-.31,0-.22,0a4.83,4.83,0,0,1,.48-.28,1.09,1.09,0,0,0,.36-.23,1.25,1.25,0,0,0-.33,0c-.18,0-.51.06-.73.07-.37,0-.41,0-.33,0a1.51,1.51,0,0,1,.34-.14L5.19,16a9.31,9.31,0,0,1,2.67-.65A15.9,15.9,0,0,0,10.28,15c1.22-.32,1.76-.63,2-1.19.15-.31.15-.5,0-.69A1.68,1.68,0,0,1,12,12.4a.49.49,0,0,0-.1-.25l-.9-.44A13.51,13.51,0,0,1,9.65,11a13.7,13.7,0,0,1-3-2.88,3.3,3.3,0,0,1-.55-1.42,2.4,2.4,0,0,0-.29-.76,2.35,2.35,0,0,0-.86-.73A13.13,13.13,0,0,0,1.75,6.43,9.5,9.5,0,0,1,0,7.18c-.1,0,.13-.32.45-.66A18.74,18.74,0,0,1,3.69,4.2c.66-.41.68-.42.68-.87a3.33,3.33,0,0,1,.77-1.84A5.11,5.11,0,0,1,6.51.37,5.76,5.76,0,0,1,11.4.8a3,3,0,0,0,1.24.34A24.87,24.87,0,0,1,19.45,3c2.08.94,4.07,1.94,4.79,2.39l.28.18,1.29-.18A27.54,27.54,0,0,1,29.37,5h.45l-.16.09a5.33,5.33,0,0,1-.66.25l-.52.19s.56,0,1.28.06a11.56,11.56,0,0,1,1.64.1c.38.09.49.15.37.23a3.62,3.62,0,0,1-.75.18l-.12,0a2.87,2.87,0,0,0,.42.12,2.83,2.83,0,0,1,.56.18c.14.07.15.09.06.15a1.08,1.08,0,0,1-.3.09,1.37,1.37,0,0,0-.44.18,14.06,14.06,0,0,1-2.57.94c-2.55.83-3.37,1.16-3.9,1.63a10.77,10.77,0,0,1-2.2,1.36l-.88.44A18,18,0,0,0,22.14,13a5.13,5.13,0,0,0,1,2,2.24,2.24,0,0,0,1.55.74,4.41,4.41,0,0,1,1.41.4c.37.17.5.3.28.26L26,16.33c-.25,0-.27,0,.28.35a1.4,1.4,0,0,1,.39.37c.07.14.07.15,0,.15a.83.83,0,0,1-.31-.08L26.18,17l.25.29c.23.26.31.41.22.41a1.85,1.85,0,0,1-.26-.14h0Z"/></g></g></svg>
