<svg xmlns="http://www.w3.org/2000/svg" viewBox="0 0 18.49 32"><g id="e7937660-d26e-46d6-bde3-9de7bf9ca10f" data-name="Layer 2"><g id="fd3993a0-dcec-406d-b64a-9c712a1632be" data-name="Icons"><path id="e229e4e4-13e8-4ce4-a222-cc295d6c54d9" data-name="path6960" d="M13.7,32a.47.47,0,0,1-.23-.09,2.06,2.06,0,0,1-.07-.47c-.07-.69-.39-3.13-.48-3.68-.05-.33-.06-.41-.09-.79a1.93,1.93,0,0,0-.27-1l-.1-.19,0-.13a3.29,3.29,0,0,0,0-.69,19.64,19.64,0,0,0-.6-1.9l-.22-.6-.17-.22c-.21-.26-.39-.51-.6-.81a1.83,1.83,0,0,0-.19-.26,6.2,6.2,0,0,0-.38.67,4,4,0,0,0-.33,1,1.22,1.22,0,0,1-.12.34,1.44,1.44,0,0,0-.09.21s0,.22-.05.42-.06.63-.09,1A7.26,7.26,0,0,0,9.6,26v.2l0,.1a.77.77,0,0,1-.31.31,2.36,2.36,0,0,1-.67.27,6.2,6.2,0,0,0-1,.35A24.23,24.23,0,0,0,5.18,28.4a20.09,20.09,0,0,0-1.81,1A1.42,1.42,0,0,0,2.8,30a.41.41,0,0,1-.21.22l-.07,0v-.06s0-.06,0-.06-.17.12-.31.3a1.46,1.46,0,0,1-.33.36,1.59,1.59,0,0,0-.35.44.5.5,0,0,1-.09.12.29.29,0,0,1-.11,0,.22.22,0,0,0-.18.08.11.11,0,0,0,0,.13l0,.05s-.06,0-.09,0,0-.05,0-.2v-.17l-.05,0a.12.12,0,0,1-.1,0c-.07,0-.1,0-.1.11s0,.09-.06,0a.25.25,0,0,1,0-.22,2.67,2.67,0,0,1,.44-.53c.39-.41.44-.47.37-.47a1.27,1.27,0,0,0-.34.27l-.15.13,0-.06s0-.06,0-.06-.06.08-.08.17a.43.43,0,0,1-.16.3,1.29,1.29,0,0,0-.36.43.27.27,0,0,1-.18.18c-.07,0-.09,0-.14.14s-.07.12-.09.09a.52.52,0,0,1,0-.26,2.66,2.66,0,0,1,.23-.36c.12-.16.26-.36.31-.44a8.61,8.61,0,0,1,.6-.71,1.76,1.76,0,0,1,.3-.23c.12-.07.28-.19.37-.25a2,2,0,0,1,.6-.31A16.18,16.18,0,0,0,4,28.57c.32-.15.78-.39,1-.51l1.78-.91,1.41-.72a.91.91,0,0,0,.4-.37A.24.24,0,0,1,8.65,26,.78.78,0,0,0,9,25.53a7.1,7.1,0,0,0,.22-1.27c0-.13,0-.41,0-.61a2.12,2.12,0,0,0,0-.8c0-.08,0-.21,0-.29-.05-.34-.1-.62-.14-.84-.07-.4-.09-.55-.14-.94a6.49,6.49,0,0,1-.08-1.09c0-.22,0-.52,0-.68s0-.28,0-.35-.52-.55-1-1a4.09,4.09,0,0,1-.32-.33,5.14,5.14,0,0,1-.34-.65L7,16.32c0-.12-.13-.36-.19-.53a4.77,4.77,0,0,1-.31-1.11,5.52,5.52,0,0,0-.31-1.22,1.22,1.22,0,0,1-.12-.34A.22.22,0,0,0,6,13c-.06,0-.07-.1-.06-.24a.35.35,0,0,0,0-.15s0-.05-.07-.07l-.07,0v-.13c0-.28,0-1.18,0-1.33l0-.14-.12-.12-.13-.12,0-.25A6.39,6.39,0,0,0,5.7,9.14,9.75,9.75,0,0,0,5.61,8c0-.43-.08-.73-.11-.89s0-.32-.06-.56-.13-1.3-.22-2a3.2,3.2,0,0,0-.07-.41c-.06-.29-.09-.49-.13-.83a1.68,1.68,0,0,0-.11-.55,2.32,2.32,0,0,0-.49-.6,2.57,2.57,0,0,0-.7-.16,2.58,2.58,0,0,1-.37-.06,2.44,2.44,0,0,0-.6,0A17.94,17.94,0,0,0,1,2.15c-.39.09-.72.12-.72.06s0-.08.15-.15a4.29,4.29,0,0,1,1.1-.54c.43-.18.49-.2.9-.39L2.93.91,3.25.77,3.5.55A1.54,1.54,0,0,1,4.22.09,1.32,1.32,0,0,1,4.86,0c.34,0,.41.08.9.56L6,.84l0,.2a8.56,8.56,0,0,1,.12,2.15c0,1.12,0,1.15,0,1.4a8.87,8.87,0,0,0,.86,3,8,8,0,0,0,.79,1.5c.42.66.87,1.31,1.3,1.89a13.26,13.26,0,0,0,1.26,1.49,4.33,4.33,0,0,0,1.09.82,10.88,10.88,0,0,1,1.67,1.2c.06.06.25.21.42.34a4.91,4.91,0,0,1,.43.35l.53.55a6,6,0,0,1,.71.78,2.64,2.64,0,0,1,.28.47l.07.16.19.12a2.86,2.86,0,0,1,.48.37l.28.24a6.18,6.18,0,0,1,1.57,1.66,2.33,2.33,0,0,1,.22.77c0,.12.05.29.07.38a3.38,3.38,0,0,1,0,.39c0,.26,0,1.83,0,1.92s0,.05,0,0,0,0-.07.12a1,1,0,0,0-.1.64c0,.13,0,.11-.08.23a.37.37,0,0,0-.08.26c0,.05,0,.11,0,.13l-.12.15a1.11,1.11,0,0,0-.16.24,2,2,0,0,1-.31.42.13.13,0,0,1-.08,0s-.05,0-.05,0,0-.05,0-.05l-.16.2c-.24.31-.24.3-.29.29s0,0,0-.14,0,0-.09.07a.5.5,0,0,1-.12.1s-.1-.06-.1-.09a2.73,2.73,0,0,1,.06-.3L16.7,25v-.55a4.6,4.6,0,0,1,0-.57s0,0-.07-.09a.88.88,0,0,1-.2-.32l0-.08,0-.11a.57.57,0,0,0,0-.34l0-.09-.17-.14a4.41,4.41,0,0,0-.47-.36,2,2,0,0,1-.25.28s0,0,0-.05a.08.08,0,0,0,0,0s-.07,0-.24.14a1,1,0,0,1-.41.21,1.12,1.12,0,0,0-.29.12c-.05,0-.12,0-.22,0l-.09,0a1.52,1.52,0,0,1,.19-.23c.19-.22.23-.28.22-.3a1.92,1.92,0,0,0-.41.13.84.84,0,0,0-.21.11l-.1.07h-.11a.47.47,0,0,1-.3-.08l0,0,.09-.07c.14-.11.16-.2,0-.2s-.17-.05-.17-.1a.28.28,0,0,1,.05-.09l.06-.06v-.21c0-.11,0-.22,0-.25s0,0,.11-.12l.16-.11s0,0,0,0l-.11,0c-.07,0-.17.05-.19,0s0,0,.1-.11.08-.06.08-.07,0,0-.26-.07-.27-.06-.31-.19a.85.85,0,0,1,0-.15A.55.55,0,0,0,13,20.6s-.05,0-.11,0-.07,0-.18-.06a.45.45,0,0,0-.26-.09c-.11,0-.18.06-.2.2s0,.12-.06.12,0,.15,0,1.19l0,.59.16.43a16.73,16.73,0,0,0,.83,2l.14.29v.23c0,.12,0,.42,0,.66a7,7,0,0,0,0,1.22c0,.2,0,.55.07.78a35.78,35.78,0,0,0,.41,3.56c0,.16.05.3.05.32s0,0-.15,0h0ZM1.23,31.11c.13-.1.29-.26.24-.26l-.09.06a2.43,2.43,0,0,0-.25.26l.1-.06Z"/></g></g></svg>
