<svg xmlns="http://www.w3.org/2000/svg" viewBox="0 0 32 16.21"><g id="a5cc4378-8e99-4d16-b431-2aef9a4430d8" data-name="Layer 2"><g id="a520ad49-2701-42f7-ac85-171f45dd572b" data-name="Icons"><path d="M20.74,4.56a1,1,0,0,0-.38.8,1,1,0,0,0,.22.63,3.39,3.39,0,0,1,0,4.23,1,1,0,0,0,1.59,1.27,5.43,5.43,0,0,0,0-6.76,1,1,0,0,0-1.43-.17Z"/><path d="M25.94,13.58a9.7,9.7,0,0,0,0-10.94,1,1,0,0,0-1.41-.27,1,1,0,0,0-.27,1.41,7.67,7.67,0,0,1,0,8.66,1,1,0,0,0-.17.57,1,1,0,0,0,1.85.57Z"/><path d="M28.35.16A1,1,0,0,0,28,1.57a12,12,0,0,1,0,13.08,1,1,0,0,0,1.71,1.1,14.11,14.11,0,0,0,0-15.29,1,1,0,0,0-1.4-.3Z"/><path d="M11.64,5.36a1,1,0,0,0-1.81-.63,5.43,5.43,0,0,0,0,6.76,1,1,0,1,0,1.59-1.27,3.39,3.39,0,0,1,0-4.23,1,1,0,0,0,.22-.63Z"/><path d="M7.47,13.85A1,1,0,0,0,7.91,13a1,1,0,0,0-.17-.57,7.67,7.67,0,0,1,0-8.66,1,1,0,0,0-.27-1.41,1,1,0,0,0-1.41.27,9.7,9.7,0,0,0,0,10.94,1,1,0,0,0,1.41.27Z"/><path d="M3.65,16.05A1,1,0,0,0,4,14.65,12,12,0,0,1,4,1.57,1,1,0,0,0,3.65.16a1,1,0,0,0-1.4.3,14.11,14.11,0,0,0,0,15.29,1,1,0,0,0,1.4.3Z"/><path d="M18.85,8.12A2.87,2.87,0,1,0,16,11a2.86,2.86,0,0,0,2.87-2.86Z"/></g></g></svg>
