<svg xmlns="http://www.w3.org/2000/svg" viewBox="0 0 25 32"><path d="M24.3,5.9h0L19.9,1a2.9,2.9,0,0,0-2.2-1H2.9A2.9,2.9,0,0,0,0,2.9V29.1A2.9,2.9,0,0,0,2.9,32H22.1A2.9,2.9,0,0,0,25,29.1V7.9A3.1,3.1,0,0,0,24.3,5.9ZM13.2,5h1.1a.1.1,0,0,1,.1.1l1.8,3.3c0,.1.1.2.1.3v.3a.4.4,0,0,0,.1-.3l.2-.3,1.7-3.3h1.2v6h-.9V6.6L16.9,10c-.1.2-.2.2-.4.2h-.2c-.1,0-.3,0-.3-.2L14.1,6.6a.4.4,0,0,1,.1.3V11h-1Zm.9,8.1v4.4H10.6V13.1ZM10.4,5h1.1v6H10.4ZM7.8,8.9q0-.2-.3-.3H7.1l-.5-.2-.5-.2-.4-.3a1,1,0,0,1-.4-.5c0-.1-.1-.4-.1-.6A1.9,1.9,0,0,1,5.4,6a.9.9,0,0,1,.3-.5l.6-.4H8.1l.8.5-.3.5a.1.1,0,0,1-.1.1H7.9l-.3-.2H6.8l-.3.2-.2.2v.3a.6.6,0,0,0,.1.4l.3.2.4.2h.5l.5.2.5.3.3.5c.1.1.1.4.1.6s-.1.5-.1.8l-.4.6-.7.4H6.4l-.5-.2-.5-.2a.8.8,0,0,1-.4-.4l.3-.5h.5l.3.2H7l.7-.2A.9.9,0,0,0,8,9.3.5.5,0,0,0,7.8,8.9ZM4.6,15.1a2,2,0,0,1,1.9-2H9.3v4.4H4.6Zm0,3.6H14a1.4,1.4,0,0,0,1.4-1.4V13.1h3.1a2,2,0,0,1,2,1.9v6.4H4.6Zm4.9,8.4h-3a2,2,0,0,1-1.9-2h0V22.7H9.5Zm4.8,0H10.8V22.7h3.5Zm6.2-2a2,2,0,0,1-2,2h-3V22.7h5Z"/></svg>
