<svg xmlns="http://www.w3.org/2000/svg" viewBox="0 0 32 30.17"><g id="b68f0425-624e-4c59-951a-b075239c496b" data-name="Layer 2"><g id="bb7b5bef-861a-4980-90b7-87d2df41bbe6" data-name="Icons"><path id="eaa8b278-effd-4dbf-a14b-467036f688db" data-name="path2272-3-7" d="M20.16,30.06c.16-.09.27-.25.45-.6.08-.18.13-.22.63-.53a3.44,3.44,0,0,0,.34-.26c.22-.2.24-.29.28-1.1l0-.57-.22-.33a1.2,1.2,0,0,1-.19-.35,1.29,1.29,0,0,1,.31.13l.31.15a.41.41,0,0,0,0-.17c0-.17,0-.2-.41-.57a3.2,3.2,0,0,1-.47-.53c-.15-.29-.17-.6-.11-2l.05-1.31.11,0a4.16,4.16,0,0,0,.83-.28,5.65,5.65,0,0,1,.75-.26A16.63,16.63,0,0,1,26.1,21a1.91,1.91,0,0,1,.87.15,4.21,4.21,0,0,0,2.73.37c.74-.13.92-.19.88-.29a13.44,13.44,0,0,0-1.12-.79c-.6-.39-1.18-.8-1.29-.9s-.34-.41-.29-.46.54.19,1.54.94a7.69,7.69,0,0,0,1.44,1c.06,0,.08,0,.08-.1,0-.44-.83-1.13-2.55-2.13-.84-.49-1-.56-.92-.61a1.75,1.75,0,0,1,.74.28l.27.16v-.11a.34.34,0,0,0-.07-.22c-.16-.21-.15-.22.59-.19a7.22,7.22,0,0,1,2.59.47l.38.14c.05,0,0-.33-.07-.46a4.64,4.64,0,0,0-2.81-1.28,6.24,6.24,0,0,1-.79-.17c-.24-.07-.7-.18-1-.25A14.42,14.42,0,0,1,25.23,16a23.83,23.83,0,0,1-3-1.13l-1.53-.68a13.45,13.45,0,0,1-2.61-1.43,12.89,12.89,0,0,0-3.72-1.52A19.47,19.47,0,0,0,10,10.67l-1.09,0-.2-.2a2.33,2.33,0,0,1-.58-.88,5.39,5.39,0,0,1,0-2.23A10.5,10.5,0,0,0,8.39,5.2a8.13,8.13,0,0,0-.76-3.57A6.68,6.68,0,0,0,6.91.52,2.19,2.19,0,0,0,5.34,0,2.71,2.71,0,0,0,4.13.21c-.26.12-.48.32-1.29,1.18a3.66,3.66,0,0,1-.64.53l-.6.38a4.72,4.72,0,0,1-.92.47c-.38.14-.73.51-.67.7s.45.27,2,.36C4.25,4,4.59,4,5,4.35l.15.13V7.07l-.43.86a14.22,14.22,0,0,0-1,2.46,3.55,3.55,0,0,0-.13,1.28A6.58,6.58,0,0,0,3.92,14c.09.38.21,1,.27,1.34A7.33,7.33,0,0,0,4.61,17a8.06,8.06,0,0,0,1.46,2.46,16.4,16.4,0,0,0,1.66,1.45,10.76,10.76,0,0,0,3,1.51c1.18.44,1.36.53,1.49.72a7.08,7.08,0,0,1,.59,3.75,5,5,0,0,1-.54,2.2l-.16.26-.55,0-1.32,0c-.73,0-.76,0-.76.08s.06.12.13.17a6.46,6.46,0,0,0,2.67.33c1,0,1.06,0,1.18-.09s.17-.12.4,0,.3.08.34-.11,0-.25-.32-.61l-.2-.23,0-1a5.31,5.31,0,0,1,.16-1.45c.07-.26.16-.75.21-1.07a12,12,0,0,1,.25-1.53A10.64,10.64,0,0,1,15.78,23a3.15,3.15,0,0,1,.89-.25,16.11,16.11,0,0,1,2.83-.41H20l0,.11c0,.15,0,2.28,0,2.71a4.2,4.2,0,0,0,0,1.47,8.4,8.4,0,0,1,.08,1.2,3.25,3.25,0,0,1-.39,1.91c-.13.18-.17.36-.08.44s.33.06.51-.05h0Z"/></g></g></svg>
