<svg xmlns="http://www.w3.org/2000/svg" viewBox="0 0 29.22 32"><g id="bdc3aa04-3b2c-43df-b7f3-f4ef728b0c28" data-name="Layer 2"><g id="ea58a0f6-296e-4198-abb5-2599ddd5ddaf" data-name="Icons"><path id="e2378eb6-e161-41ca-9d2b-4bd2e5b7ba9b" data-name="path6872" d="M1.1,32c-.16-.06-.12-.25.13-.55s.21-.27.07-.21c-.46.19-.5.18-.46-.11s0-.27,0-.27L.47,31l-.4.13L0,30.86c-.06-.32.13-.65.72-1.23.34-.33.42-.47.38-.62s0-.44.63-1.17a2.76,2.76,0,0,0,.45-.72.52.52,0,0,0-.2-.29.76.76,0,0,1-.14-1,13.26,13.26,0,0,1,2.26-3,20.5,20.5,0,0,0,1.66-2,5.91,5.91,0,0,1,1.57-1.74,8.23,8.23,0,0,0,1.24-1.53c.81-1.19,1.48-2.09,3-4.06a12.6,12.6,0,0,1,3.15-2.94A8.26,8.26,0,0,0,16.6,9,14.76,14.76,0,0,0,18,7.42a4.36,4.36,0,0,0,.21-1.54A6.06,6.06,0,0,1,18.48,4a6,6,0,0,1,1.81-2.84A4.5,4.5,0,0,1,23,.05a5.24,5.24,0,0,1,4,1.07,4.41,4.41,0,0,1,1.83,2.5,11.77,11.77,0,0,1,.38,3.66,1.24,1.24,0,0,0-.15.57c0,.28-.09.51-.13.51s-.08.23-.08.51,0,.56-.19.7-.18.2,0,.43.12.37.06,1.19a5.35,5.35,0,0,0,0,1.42,8.82,8.82,0,0,1-.28,3.22,1.58,1.58,0,0,0-.16.6,3.36,3.36,0,0,1-.18.81,3.9,3.9,0,0,0-.16.83,1.73,1.73,0,0,1-.08.49,10.21,10.21,0,0,0-.23,1.1A11.58,11.58,0,0,1,27.29,21c-.34,1.28-.92,3.17-1.1,3.55s-.27.62-.37.86-.34.79-.54,1.25c-.32.7-.4.82-.52.74s-.18,0-.36.41-.22.5-.22.51a1.83,1.83,0,0,0,.33.13c.74.23,1.3.79,1.3,1.3,0,.13,0,.23,0,.23l-.84-.14A17.3,17.3,0,0,0,22,29.71H20l-.81.29a5.66,5.66,0,0,0-1.1.5c-.36.26-.68.22-1.11-.16a4.88,4.88,0,0,0-2.43-.89c-.35-.05-.81-.51-1.3-1.26a2,2,0,0,0-.81-.84,3.36,3.36,0,0,0-2.07.47A9.82,9.82,0,0,1,9,28.34a2.51,2.51,0,0,0-1.4.73,2.62,2.62,0,0,1-1,.55,5.79,5.79,0,0,0-1.09.51c-.33.19-1,.54-1.41.75s-.94.48-1.1.58l-.28.19,0-.22c.07-.26,0-.29-.29-.09a.42.42,0,0,1-.32.08c-.09,0-.29.08-.54.28a1,1,0,0,1-.5.3Z"/></g></g></svg>
