<svg xmlns="http://www.w3.org/2000/svg" viewBox="0 0 15.68 32"><g id="aa6e7c05-6e00-4f93-b12e-1f195aee802f" data-name="Layer 2"><g id="bdf9f316-7519-45dc-9fbc-f40290b645df" data-name="Icons"><path id="f5fda1de-02bc-404a-8316-64c779bbc203" data-name="path24998-2-6-6-7-0" d="M10.18,31.88c-.11-.18-.52-.29-1.32-.34l-.8-.06,0-.28c0-.24-.07-.3-.35-.37a4,4,0,0,0-1.82.05c-.62.24-.8.25-1,0s-.22-.57,0-1.67a7.24,7.24,0,0,0-.41-4,6.43,6.43,0,0,0-.92-.92A3.5,3.5,0,0,1,2.18,22a7.2,7.2,0,0,1,.15-2.61c.08-.21.28-.89.44-1.5a5.2,5.2,0,0,1,1.49-2.65,3.6,3.6,0,0,0,.49-.54A8,8,0,0,0,5,13.46c.09-.62.32-1.68.48-2.34.71-2.81.82-4.72.34-6.17-.25-.77-.55-1-1.71-1.4a6.27,6.27,0,0,0-2.45-.38A9.82,9.82,0,0,1,.19,3.06,1.79,1.79,0,0,1,0,2.19,1.2,1.2,0,0,1,.39,2,10.11,10.11,0,0,0,2.51.89,3.57,3.57,0,0,1,5,0C6.54.13,7.35,1,8,3.11a14.61,14.61,0,0,1,.49,4.34c0,2.64.16,3.59.87,5s.81,1.49,1.84,1.81a10,10,0,0,1,1.23.49,6.27,6.27,0,0,1,1.54,1.63,15.25,15.25,0,0,1,1.6,3.52,2.69,2.69,0,0,1-.18,2.17A4.65,4.65,0,0,1,13.72,24a5.49,5.49,0,0,0-1.53,1.6,7.9,7.9,0,0,0-.61,2.74c-.05,1.28,0,1.32,1.27,1.88a.84.84,0,0,1,.5.49,3.25,3.25,0,0,0,.26.48c.09.14.08.18,0,.25a.9.9,0,0,1-.88-.09.88.88,0,0,0-1.22.14c-.42.42-1.15.63-1.3.38h0ZM9.11,30.21a3.49,3.49,0,0,0,1.33-1.36c.16-.32.19-.53.22-1.77l0-1.4-.25,0-1.28.21-1,.16-1-.24c-.52-.13-1-.23-1-.23-.2,0-.3.68-.2,1.37A2.09,2.09,0,0,0,7.3,29a2,2,0,0,0,1,.28c.46,0,.78.17.78.4a1.17,1.17,0,0,1-.39.43c-.37.3-.52.58-.32.58a4.94,4.94,0,0,0,.75-.44h0Z"/></g></g></svg>
