<svg xmlns="http://www.w3.org/2000/svg" viewBox="0 0 32 19.66"><g id="b370f5bb-65c4-41da-8215-93ca310888d9" data-name="Layer 2"><g id="f61890eb-ce31-4ea5-a609-900b501b2d53" data-name="Icons"><path d="M20.23.38C13.45-.83,6.61.86,0,5.48V19.66H7c.92-.67,1.85-1.35,2.76-2.06.23-.17.44-.36.67-.53a11,11,0,0,0-.26-1.9A11.08,11.08,0,0,0,8.91,12.1,6.09,6.09,0,0,1,7.58,7.71a6.39,6.39,0,0,1,3.5-4.59c.5-.24,1.2-.66,1.44-.16s-.47.45-1.24,1.25A8.08,8.08,0,0,0,9.56,8a4.3,4.3,0,0,0,1,3,7.65,7.65,0,0,0,2.31,1.8c.54.34,1.09.65,1.66.95l.46-.38a5.94,5.94,0,0,0,2-2.71,9.36,9.36,0,0,0,.11-3.28c-.17-1.7-.8-4.13.66-5.73A3.93,3.93,0,0,1,20.23.38Z"/><path d="M23.29,1.14C22,1.63,20.51,3,20.85,4.22c.45,1.56,1.36,2.35,2,3.82a6.9,6.9,0,0,1,.26,4.82,11.58,11.58,0,0,1-2.06,3.5c-.4.51-.81,1-1.21,1.54-.21.28-.43.55-.64.84-.08.11-.55.92-.65.92H32V5.48A31.65,31.65,0,0,0,23.29,1.14Z"/></g></g></svg>
