<svg xmlns="http://www.w3.org/2000/svg" viewBox="0 0 32.9 27.3"><path d="M2.9,27.1a1.5,1.5,0,0,1-1.6-1.5A1.5,1.5,0,0,1,2.9,24a20.6,20.6,0,0,0,20-16.6L18,11.9a1.8,1.8,0,0,1-2.2-.1A1.7,1.7,0,0,1,16,9.6l7.8-7.3a1.6,1.6,0,0,1,2.4.2l5.7,9a1.9,1.9,0,0,1-.4,2.3.9.9,0,0,1-.9.4,1.7,1.7,0,0,1-1.2-.7L26,8.1A23.5,23.5,0,0,1,2.9,27.1Z"/><path d="M31.4,27.3a1.5,1.5,0,0,1-1.1-.4l-2.1-2.1-2.1,2.1a1.7,1.7,0,0,1-2.2,0,1.5,1.5,0,0,1,0-2.2L26,22.6l-2.1-2.1A1.6,1.6,0,0,1,25,17.8h0a1.6,1.6,0,0,1,1.1.5l2.1,2.1,2.1-2.1a1.4,1.4,0,0,1,1.1-.5h0a1.4,1.4,0,0,1,1,.5h0a1.4,1.4,0,0,1,0,2.2l-2.1,2.1,2.1,2.1a1.4,1.4,0,0,1,0,2.2A1.3,1.3,0,0,1,31.4,27.3Z"/><path d="M7.9,9.5A1.5,1.5,0,0,1,6.8,9l-2-2.1L2.7,9a1.4,1.4,0,0,1-1.1.5A1.3,1.3,0,0,1,.5,9h0A1.5,1.5,0,0,1,0,7.8a1.2,1.2,0,0,1,.5-1L2.6,4.7.5,2.7A1.4,1.4,0,0,1,.5.5,1.4,1.4,0,0,1,2.7.5L4.8,2.6,6.8.5A1.6,1.6,0,0,1,9,.5a1.6,1.6,0,0,1,.5,1.1A1.6,1.6,0,0,1,9,2.7l-2.1,2L9,6.8a1.6,1.6,0,0,1,.5,1.1A1.6,1.6,0,0,1,9,9,1.2,1.2,0,0,1,7.9,9.5Z"/><path d="M5,21.3H5a4.9,4.9,0,1,1,4.9-4.8,4.9,4.9,0,0,1-1.5,3.4A4.8,4.8,0,0,1,5,21.3Zm0-6.6a1.8,1.8,0,0,0-1.8,1.8A1.8,1.8,0,0,0,5,18.2a1.7,1.7,0,0,0,1.7-1.7A1.7,1.7,0,0,0,5,14.7Z"/></svg>
