<svg xmlns="http://www.w3.org/2000/svg" viewBox="0 0 23.77 32"><g id="e1b9a4b0-91b7-4426-b545-d88a4f7bf7f7" data-name="Layer 2"><g id="a3611aa6-4e52-4082-bae2-b70668003706" data-name="Icons"><path d="M5.09,26.54a1.8,1.8,0,0,0,0,.22l2.64-.17c.13-.85.48-3.07.84-5a19.2,19.2,0,0,0,.16-4.22l-2-.49a1.74,1.74,0,0,1-.67-.32A19.92,19.92,0,0,1,6,21.09C5.54,23.6,5.09,26.51,5.09,26.54Z"/><path d="M18,11.39a1,1,0,1,0-.28-2l-.18,0-.06-.6a.51.51,0,0,0-.55-.45.5.5,0,0,0-.45.55l.06.64c-.85.11-1.76.23-2.25.27-.12-.16-.27-.39-.39-.57C13.1,8.13,12,6.4,10.07,6.35l-.92,0c-2.31-.1-4.51,2-5.41,2.87-.2.17-.67.58-1.65,4.57A1,1,0,0,0,2.83,15l.24,0a1,1,0,0,0,1-.76,25.74,25.74,0,0,1,1.09-3.61c0-.05.63-.6,1-.89a16.94,16.94,0,0,0-.32,4.89,3.93,3.93,0,0,0,.19.69,1.31,1.31,0,0,0,.92.87l1.77.44a33,33,0,0,1,4.12,1.18c.16.88.34,3.53.42,5.79l2.56-.86a31.48,31.48,0,0,0-.62-6.1c-.38-.94-1.55-1.45-4-2.07a28.21,28.21,0,0,1,.53-4.85c.16.22.31.45.44.65.55.83,1,1.49,1.77,1.49.46,0,1.74-.16,2.75-.29l1.08,10.78h.1a.36.36,0,0,0,.27-.12l.56-.63-1-10.17Z"/><path d="M9.67,5.54A2.77,2.77,0,1,0,7,2.64,2.77,2.77,0,0,0,9.67,5.54Z"/><path d="M23.14,19.87l-2.6.88a1.09,1.09,0,0,0-.44.29l-1.46,1.64a1,1,0,0,1-.77.34h-.65a1.26,1.26,0,0,0-.33.05l-4.2,1.41a1,1,0,0,0-.38.22L10,26.87a1,1,0,0,1-.64.28l-4.87.32a1.12,1.12,0,0,0-.37.09l-3,1.4a1,1,0,0,0-.55.63L0,31.39A.47.47,0,0,0,.47,32H23.29a.48.48,0,0,0,.48-.47V20.32A.48.48,0,0,0,23.14,19.87Z"/></g></g></svg>
