<svg xmlns="http://www.w3.org/2000/svg" viewBox="0 0 32 19.28"><g id="b328d1ee-4cdd-4dde-aafd-86ec500e1195" data-name="Layer 2"><g id="bb9add43-c0e3-4a7c-b36f-b30ff60ecb43" data-name="Icons"><path d="M20.75,16a.62.62,0,0,0,0,.13l1.58-.1c.08-.51.3-1.85.51-3a11.33,11.33,0,0,0,.1-2.54l-1.19-.29a1.16,1.16,0,0,1-.4-.2,11.47,11.47,0,0,1-.05,2.75C21,14.22,20.75,16,20.75,16Z"/><path d="M19.39,9l.14,0a.62.62,0,0,0,.59-.46,17,17,0,0,1,.65-2.18s.39-.36.59-.53a10.17,10.17,0,0,0-.19,3,1.83,1.83,0,0,0,.12.41.81.81,0,0,0,.55.53l1.07.26a19.2,19.2,0,0,1,2.48.71c.1.53.2,2.13.25,3.49l1.54-.52A18.25,18.25,0,0,0,26.81,10c-.23-.57-.94-.88-2.38-1.25a16.51,16.51,0,0,1,.32-2.92c.1.13.19.27.27.39.32.5.58.9,1.06.9.28,0,1.05-.1,1.66-.18l.65,6.5h.06a.21.21,0,0,0,.16-.08L29,13l-.61-6.13.16,0A.61.61,0,0,0,29,6.18a.6.6,0,0,0-.68-.51h-.11l0-.36a.3.3,0,1,0-.6.06l0,.39-1.36.16L26,5.59c-.45-.69-1.14-1.73-2.28-1.76l-.56,0C21.8,3.74,20.48,5,19.93,5.53c-.12.11-.4.36-1,2.76A.61.61,0,0,0,19.39,9Z"/><path d="M23.51,3.34a1.68,1.68,0,0,0,1.75-1.59,1.67,1.67,0,0,0-3.34-.16A1.68,1.68,0,0,0,23.51,3.34Z"/><path d="M31.62,12l-1.56.53a.71.71,0,0,0-.27.18l-.88,1a.64.64,0,0,1-.46.21h-.39a.64.64,0,0,0-.2,0l-2.53.85a.53.53,0,0,0-.23.13l-1.41,1.31a.6.6,0,0,1-.38.17l-2.93.19a.46.46,0,0,0-.23.06l-1.78.84a.6.6,0,0,0-.33.38l-.34,1.08a.28.28,0,0,0,.27.37H31.72A.29.29,0,0,0,32,19V12.24A.29.29,0,0,0,31.62,12Z"/><path d="M7.17,15.52H6.33a3.18,3.18,0,0,0-1.08-2l.67-1L7.26,15c.11-.45.2-.92.29-1.35L6.67,12h1.1a19.67,19.67,0,0,0-2.55-.83l.22.42-.93,1.46a3.27,3.27,0,0,0-1.33-.29,3.19,3.19,0,1,0,3.15,3.63H7.58a.92.92,0,0,1-.24-.28A1.08,1.08,0,0,1,7.17,15.52Zm-4,2.74A2.3,2.3,0,1,1,4,13.83l-1.21,1.9a.44.44,0,0,0,.37.68H5.44A2.3,2.3,0,0,1,3.18,18.26ZM4,15.52l.78-1.21a2.38,2.38,0,0,1,.67,1.21Z"/><path d="M13.43,12.78a3.3,3.3,0,0,0-.89.13l-1.8-4a.44.44,0,0,0-.4-.26H9.92a.59.59,0,0,0-.33-.24,8.22,8.22,0,0,1-1.83-.69L6.84,6c.09-.66,0-1.58-1.11-1.73S4.45,4.6,4,5.83A8.24,8.24,0,0,0,3.85,10c.1.33.28.63.48.65a17.21,17.21,0,0,1,3.83,1.17,24.11,24.11,0,0,1-.61,3.56.75.75,0,0,0,.56.91.88.88,0,0,0,.28,0A.78.78,0,0,0,9,15.72c.93-4,.62-4.46.47-4.7A5.81,5.81,0,0,0,6.74,9.67c0-.36,0-.84,0-1.35l0,0c.08.15.34.6,2.52,1.22l.17,0a.58.58,0,0,0,.26-.06h.36l.72,1.6H9.93A2.43,2.43,0,0,1,10,12h.49l-.56.8c-.07.52-.18,1.2-.37,2.07l1.76-2.51.41.9a3.17,3.17,0,1,0,1.69-.5Zm0,5.48A2.3,2.3,0,0,1,11.14,16a2.26,2.26,0,0,1,1-1.87l.92,2a.45.45,0,0,0,.4.26.43.43,0,0,0,.19,0,.45.45,0,0,0,.22-.59l-.93-2a2.24,2.24,0,0,1,.52-.06,2.3,2.3,0,1,1,0,4.59Z"/><path d="M6.06,3.91a1.58,1.58,0,1,0-1.55-1.6A1.58,1.58,0,0,0,6.06,3.91Z"/></g></g></svg>
