<svg xmlns="http://www.w3.org/2000/svg" viewBox="0 0 32 28.97"><g id="a009a6e1-0a62-4fc8-81b2-83377c255bc3" data-name="Layer 2"><g id="e8890575-b359-4e83-9728-feeaa4ab513c" data-name="Icons"><path d="M11.3,21.9a11.92,11.92,0,0,1-1.47-1,6.13,6.13,0,0,1-1.3-1.21,8.76,8.76,0,0,0-.73-.84A10.74,10.74,0,0,1,6.5,17.6a3.17,3.17,0,0,0-.92-.91,6.71,6.71,0,0,1-.8-.72A13.15,13.15,0,0,1,3.51,14.6a1.21,1.21,0,0,0-.42-.38,1.07,1.07,0,0,0-.66-.15,2,2,0,0,0-.47,0,1.44,1.44,0,0,0-.37.07,1.42,1.42,0,0,0-.91.75,1.81,1.81,0,0,1-.37.48,1.87,1.87,0,0,0-.31.35s.1.07.24.11a.62.62,0,0,1,.3.12,1.16,1.16,0,0,1,.09.36.77.77,0,0,1-.08.55,2,2,0,0,0-.11.63.91.91,0,0,1,0,.27,11.3,11.3,0,0,0,.08,1.29c0,.09.08.27.13.41s.06.21.12.27.14.35.3.56.21.36.45.56a3.1,3.1,0,0,0,.32.33,2.3,2.3,0,0,0,.2.16,5.86,5.86,0,0,0,.62.35,1,1,0,0,0,.26.15,8.77,8.77,0,0,0,.81.39,1.57,1.57,0,0,0,.61.2c0,.05,0,.12-.21.3-.43.4-.59.51-.81.51a.68.68,0,0,0-.22,0,1.24,1.24,0,0,1-.41,0c-.8,0-.79,0-.93.1s-.12.25,0,.12.24-.11.28,0,.06.09.14.07l.13,0a0,0,0,0,1,0,0c0,.17.2.28.3.17s0,0,0,0,0,0,0,0a.13.13,0,0,1,.22,0,5.63,5.63,0,0,1,.94-.05c0,.05.14.05.36.05s.14.09.23.14h0c.32.06.59,0,.76-.28a.72.72,0,0,1-.57-.15,1.92,1.92,0,0,1,.23-.71l.12-.27h.28a6.42,6.42,0,0,0,1.25-.36A.45.45,0,0,0,6.61,22a.57.57,0,0,1,.22,0c.06,0,.11,0,.11,0s0,0,.1,0,.09,0,.09,0a5.06,5.06,0,0,1,2.06,0,2.62,2.62,0,0,0,1.08.1l0-.1a8.4,8.4,0,0,0,.81.27c.59.25,1.09.45,1.12.45a.71.71,0,0,1,.21.08c.09,0,.17.06.18,0S12.45,22.53,11.3,21.9ZM4,23.33c-.17.1-.15,0,0-.17a2.54,2.54,0,0,1,.23-.22S4.11,23.29,4,23.33Z"/><path d="M9,6.93a3.1,3.1,0,0,1,.75.68,1.45,1.45,0,0,1,.3.78.42.42,0,0,1-.09.32,1.57,1.57,0,0,1-.48.41,4,4,0,0,0-.65.49c-.16.15-.21.32-.21.76a1.21,1.21,0,0,0,.15.72c.09.14.16.16.29.06s.27-.11.62.1a1.37,1.37,0,0,0,.26.14c.06,0,.1,0,.1.06s0,0,.06,0a.54.54,0,0,1,.16.06,3.91,3.91,0,0,0,.61.13c.92.14,1,.15,1,.2a3.53,3.53,0,0,1,.15,1c0,.22.06.47.07.53a5.57,5.57,0,0,0,1.36,1.47c.39.35,1.27,1,1.54,1.25s1.88,1.24,2.06,1.33l.26.15.26.15c.08.05.16.09.16.11s0,0,0,0a4.89,4.89,0,0,1,.7.34.27.27,0,0,0,.12.06,0,0,0,0,1,0,0l.05,0a.85.85,0,0,1,.22.07,11.37,11.37,0,0,0,1.13.32l1,.26,0,0a.17.17,0,0,0,.17,0s0,0,0-.07a14.83,14.83,0,0,0-1.16-1c-.3-.21-.32-.23-.3-.27a.42.42,0,0,1,.17,0l.21,0c.1,0,.09-.12,0-.21a.21.21,0,0,1-.07-.09.15.15,0,0,0,0-.08.34.34,0,0,1-.07-.2c0-.13-.05-.17-.28-.42a2.1,2.1,0,0,0-.28-.28l-.19-.13-.37-.27a1.56,1.56,0,0,1-.57-.58,2.87,2.87,0,0,0-.26-.44A3.38,3.38,0,0,1,17.06,13a2.41,2.41,0,0,0-.15-.57l-.08-.2.08-.19a1,1,0,0,0,.05-.77,2,2,0,0,1-.05-.31c0-.22.41-.24,1.31-.11l1.05.11.92.05a2.28,2.28,0,0,0,.49,0l.2-.05a.9.9,0,0,0,.49-.28l.11-.1,0-.19a7.15,7.15,0,0,0-.19-1,2.68,2.68,0,0,0-.58-.89c-.34-.33-.34-.33-.78-.33a4.23,4.23,0,0,0-.73.06l-.76.1c-.21,0-.51.08-.66.12a1.89,1.89,0,0,1-1.13,0A4.56,4.56,0,0,0,16,8.36l-.38-.08c-.13-.06-.25-.2-.56-.66a5.89,5.89,0,0,0-1.32-1.26,9.06,9.06,0,0,1-1.11-1.12,1.5,1.5,0,0,1-.16-.3l-.09-.27a4.38,4.38,0,0,1-.14-.5,1.85,1.85,0,0,0-.14-.45c-.06-.12,0-.17.1-.7a2.1,2.1,0,0,0,0-1A1,1,0,0,0,12,1.5l-.08-.08V.79a6,6,0,0,0,0-.65s-.08,0-.15,0-.21.08-.27-.07l0-.12-.1.12c-.15.18-1.17,1.67-1.24,1.8a.9.9,0,0,1-.14.2.87.87,0,0,0-.11.18.37.37,0,0,1-.1.16s-.07.12-.1.17a7.13,7.13,0,0,1-.38.64,10.57,10.57,0,0,0-.8,1.54,3.78,3.78,0,0,1-.09.39,3.29,3.29,0,0,0-.08,1.06C8.32,6.4,8.54,6.61,9,6.93Z"/><path d="M32,19.57c-.06-.15-.33-.34-.95-.68a1.58,1.58,0,0,1-.82-.83,5.83,5.83,0,0,0-1-1.24,1.57,1.57,0,0,0-.75-.39,2.41,2.41,0,0,0-1.09-.16c-.72,0-.81,0-1.25.4a3.24,3.24,0,0,0-.66.78,2.38,2.38,0,0,0-.57,1.44,9.76,9.76,0,0,1-.22,1.58,6.41,6.41,0,0,0-.06.89v.56l-.66-.13a8.23,8.23,0,0,0-2.82-.15,2.88,2.88,0,0,0-1.08.28,6.25,6.25,0,0,0-1,.52,3.22,3.22,0,0,1-.56.31l-.68.12a2.48,2.48,0,0,0-1,.29,8.27,8.27,0,0,1-.81.35c-.32.13-.33.14-.21.16s.1,0-.4.28c-.29.14-.68.35-.85.45a3.58,3.58,0,0,1-1.11.37c-.43.11-.81.2-.82.22a.88.88,0,0,0,0,.37,9.14,9.14,0,0,0,1.26,2.43l.48.68c.11.18.57.33,1.25.4l0,0a2.42,2.42,0,0,0,1.31,0,3.08,3.08,0,0,1,1.44-.2l1.25.12.82.07,1.07-.14,1.06-.14,1,.06a10.81,10.81,0,0,0,2,0,10.09,10.09,0,0,0,1.68-.24l.73-.16.28-.22.28-.22v-.31a1.38,1.38,0,0,1,.17-.71l.16-.39L28.83,26c0-.33,0-.34,0-.51a.68.68,0,0,0,.06-.45,1.11,1.11,0,0,1,.08-.56,5,5,0,0,0,.16-.71l.07-.42-.11-.34a2.61,2.61,0,0,0-.51-.95A6,6,0,0,1,28,21.05a5.31,5.31,0,0,1-.47-1.32c0-.07.13-.09.82-.16a6.28,6.28,0,0,1,1.37,0l1.18.11a4.87,4.87,0,0,0,1.13.05Z"/></g></g></svg>
