<?xml version="1.0" encoding="utf-8"?>
<!-- Generator: Adobe Illustrator 27.2.0, SVG Export Plug-In . SVG Version: 6.00 Build 0)  -->
<svg version="1.1" id="Layer_1" xmlns="http://www.w3.org/2000/svg" xmlns:xlink="http://www.w3.org/1999/xlink" x="0px" y="0px"
	 viewBox="0 0 40 40" style="enable-background:new 0 0 40 40;" xml:space="preserve">
<g>
	<path d="M21.56,9.58l-3.11-5.4c-0.63-1.1-2.21-1.1-2.85,0l-3.11,5.4c-0.63,1.1,0.16,2.46,1.42,2.46h6.23
		C21.4,12.04,22.19,10.67,21.56,9.58z M17.49,5.29L17.37,9h-0.88l-0.13-3.72H17.49z M17.36,10.55c-0.11,0.11-0.25,0.16-0.43,0.16
		c-0.18,0-0.32-0.05-0.43-0.16c-0.11-0.11-0.16-0.24-0.16-0.4s0.05-0.3,0.16-0.4c0.11-0.11,0.25-0.16,0.43-0.16
		c0.18,0,0.32,0.05,0.43,0.16c0.11,0.11,0.16,0.24,0.16,0.41C17.52,10.31,17.47,10.44,17.36,10.55z"/>
	<path d="M2.71,14.79c0.52,2.54,1.74,5.63,4,6.98c0.17,0.37,0.87,0.84,1.19,0.77c-0.03,0.45,1.91,2.13,2.29,2.13
		c2.52,1.3,4.85,3.13,6.53,5.13c0.18-0.26,0.21,1.2,0.09,1.09c0.04,0.16-0.43,0.19-0.43,0.19c-0.06-0.09-0.17-0.25-0.3-0.13
		c-0.17-0.16-0.4-0.26-0.45-0.52c-0.81-0.48-1.24-0.55-1.84,0.01c-0.4,0.4-1.23,1.13-0.94,1.13c-0.52,0.47-1.42,1.25-0.77,1.96
		c-0.04-0.62,0.77-0.86,1.32-0.85c0.32,0.14,1.38,0.35,1.65,0.42c0.5,0.01,0.65,0.42,0.96,0.46c0.09,0.13,0.27,0.18,0.4-0.02
		c0.23,0.18,0.89,0.33,0.63,0.2c0.46,0.09,0.91-0.02,1.53-0.24c1.7,0.32,5.98,0.37,6.19,0.43c0.67-0.08,1.25-0.11,2.23,0.03
		c1.16-0.36,2.28,0.22,3.19,0.8c-0.02,0.16,0.14,0.33,0.22,0.47c0.12,0.02,0.27-0.04,0.3,0.11c0.21,0.31,0.45,0.57,0.66,0.9
		c0.18,0.09,0.37,0.39,0.59,0.39c0.35,0,0.49-0.09,0.06-0.14c-0.62-0.26,0.1-0.13-0.15-0.49c-0.07-0.1-0.37-0.35-0.45-0.44
		c0.13-0.22-0.58-0.64-0.13-0.49c0.13,0.18,0.68,0,0.82,0.11c0.2,0.15,0.82,0.56,0.91,0.11c-0.51,0.14-0.21,0.01-0.22-0.26
		c-0.29-0.45-0.53-0.58-0.84-0.67c-0.14,0.01-0.28-0.05-0.37-0.18c-0.2-0.09-0.1-0.35-0.34-0.52c0.38-0.05,1.62,0.5,2.06,0.49
		c0.4,0.15,1.61,0.76,1.68,0.39c-0.01-0.01,0.51,0.18,0.41-0.02c0,0,0.26,0.11,0.33,0.1c0.07-0.01-0.09-0.21-0.09-0.21
		c0.17,0.09,0.81,0.1,0.96,0.04c-0.42-0.26-1.9-0.77-3.26-1.38c-0.44-0.29-1.63-0.68-2.64-1.08c-0.11-0.04-2.28-0.74-2.5-1.59
		c-0.34-1.27,0.5-2.75,1.75-2.92c0.18-0.02,1.08-0.94,2.09-1.09c0.44-0.06,1.43-0.31,1.77-0.61c0.1-0.09,0.25-0.12,0.37-0.07
		c0.59,0.24,1.13-0.8,1.11-0.83c-0.15-0.14,0.17-0.48,0.77-0.82c0.38-0.24,0.68-0.8-0.05-0.91c0.05-0.71,1.33-1.12-0.34-1.11
		c0.11-0.1,0.3-0.15,0.22-0.27c0.05,0.07,0.29-0.03,0.33-0.06c0,0-0.02-0.15-0.02-0.15c0.17,0.23,0.82-0.59,0.89-0.7
		C37.02,20.77,35.12,21,35.12,21c0.33-0.11,0.64-0.41,0.91-0.69c0.12,0.12,0.83-0.24,0.65-0.42c0-0.02,0.1,0.06,0.17,0.01
		c2.4-1.64-4.13,1.68-2.87,0.25c0.92-0.52,2.57-1.44,3.35-2.1c-1.07,0.14-3.04,1.69-4.11,1.88c-1.14,0.51-1.49,0.9-0.68-0.42
		c0.58-0.55,1.05-0.77,1.01-1.24c0.33,0.57,2.13-2.69,1.32-2.14c-0.5,0.45-5,5.36-4.44,3.61c0.71-1.02,1.92-2.75,1.93-4.09
		c0-0.02-0.57,0.58-0.62,0.59c0.2-0.12,0.87-1.17,0.45-1.47c-0.19,0.11-4.07,7.66-3.69,5.26c0.69-0.73,1.4-3.37,0.79-5
		c-0.11,0.51-0.12-0.52-0.19-0.61c-0.03,0.25-0.3-0.67-0.39-0.71c-0.11,0.4-0.27-0.18-0.29-0.2c-0.66,0.44-0.07,4.09-0.62,5.51
		c-0.11,0.55-0.71,2.03-0.99,2.28c-0.09-0.96,0.32-0.72,0.4-2.63c-0.03-2.53-0.14-1.91-0.54-3.59c-0.32,0.23-0.07-0.14-0.1-0.28
		c-1.68-3.13-0.56,2.44-0.67,3.38c0.11,0.9,0,4-0.44,3.81c0.6-0.96-2.49-8.5-2.18-5.36c0.36,2.24,1.58,4.94,1.13,7.02
		c-0.38,0.49-3.71,0.23-3.82,0.2c-0.02-0.5-1.59-1.35-1.9-1.45c0.21-0.55-0.65-1.16-1.09-1.19c0.25-0.23-3.4-1.83-3.47-1.91
		c-0.51-0.59-0.68-0.75-0.82-1.47c-0.13-0.65-1.1-0.97-1.7-1.2c-1.09-0.42,0.36-0.04-1.84-0.83c0.02-0.35-0.46-0.35-1.17,0.55
		C9.07,16.18,8.32,14.1,8,14.67c0.25-0.32-0.09-0.66-0.4-0.96c-0.24,0.32-1.12-0.11-1.11-0.29c-0.37,0.11-0.19-1.49-1.02-0.27
		c0.1-0.04,0.18-0.56,0.21-0.62c-0.13-0.3-0.9-0.78-1.14-0.94c-0.39-0.05,0.06,1.5,0.02,1.46c-0.01-0.04-1.69-2.32-1.63-1.72
		c-0.13,0.62,1.63,5.11,0.96,4.02c-0.02-0.05-0.52-0.78-0.78-1.1C2.49,13.61,2.58,14.07,2.71,14.79z M29.58,32.86
		c0.04,0.01,0.07,0.03,0.11,0.04C29.62,32.9,29.47,32.93,29.58,32.86z M29.89,32.98c-0.11,0.01-0.22,0.01-0.22,0.01
		C29.74,32.93,29.81,32.94,29.89,32.98z M29.19,33.33c0.29-0.04,0.29-0.01,0.06-0.07c0.07-0.02,0.49-0.05,0.1-0.12
		c0,0,0.44,0.04,0.44,0.04c-0.86-0.28,0.72-0.07,0.77,0.06c0.75,0.37-0.14,0.06-0.37,0.12C29.87,33.32,29.48,33.58,29.19,33.33z"/>
</g>
</svg>
