<svg id="Layer_1" data-name="Layer 1" xmlns="http://www.w3.org/2000/svg" width="128" height="128" viewBox="0 0 128 128"><title>Cockatoo gliph</title><path d="M76.46,36.11c-.17-.53-.58-2.69-.77-3.1a12.55,12.55,0,0,1-2.07.41,8.06,8.06,0,0,1-1.9,0A7.53,7.53,0,0,1,69.87,33a5.25,5.25,0,0,1-1.48-.86,5.65,5.65,0,0,0-3.14,1.75A6.89,6.89,0,0,0,64,36.82a11.81,11.81,0,0,0-.15,3.2c.08,1.08.19,2.16.31,3.24.24,2.16.55,4.3,1,6.43.22,1.05.45,2.11.76,3.12a8,8,0,0,0,.58,1.42l.18.31.23.44a3.85,3.85,0,0,1,.29.89,12.48,12.48,0,0,1,.09,3.44c-.08,1.11-.22,2.2-.33,3.26a12.6,12.6,0,0,0-.08,3,4.2,4.2,0,0,0,.53,1.29c.24.46.52.92.81,1.38s.58.9.87,1.36l.8,1.19s.07,0,.12,0a.07.07,0,0,0,.06,0l0,0,0-.09.09-.18.74-1.46,1.47-2.93c.5-1,1-2,1.41-2.94l.14,0a48.66,48.66,0,0,1-2.1,6.24.19.19,0,0,1,0,.07c0,1.12-.18,2.23-.22,3.33a12,12,0,0,0,0,2.08,2.19,2.19,0,0,0,.25.85A.47.47,0,0,0,72,76l.49.32a15.54,15.54,0,0,0,1.77,1.18,2.74,2.74,0,0,0,.78.35.62.62,0,0,0,.47,0,.79.79,0,0,0,.25-.17l.38-.4c.27-.26.53-.52.82-.76s.5-.41.77-.62h0a31.89,31.89,0,0,1,.42-3.52,14.91,14.91,0,0,1,1-3.42l.13,0a16,16,0,0,0-.48,3.44c0,.93,0,3.34,0,3.47,0,1.17.11,2.33.2,3.51,0,.14,0,.29,0,.44s0,.15,0,.26v.11a1.35,1.35,0,0,0,.18.25c.26.31.58.66.89,1,.44,0,.88,0,1.33,0,.62,0,1.19,0,1.81,0h.08a6,6,0,0,1-.8-2.25A7.69,7.69,0,0,1,82.63,77a12.64,12.64,0,0,1,.48-2.26,7.31,7.31,0,0,1,1-2l.13.07a7.44,7.44,0,0,0-.45,2.12,17.5,17.5,0,0,0,0,2.17,16,16,0,0,1,.16,2.17,9.81,9.81,0,0,1-.42,2.31c1,0,2,0,3-.06a51.25,51.25,0,0,1-.81-5.67c-.11-1-.17-1.92-.19-2.89a16.42,16.42,0,0,1,.16-3,32.9,32.9,0,0,0,.1-5.54q-.13-2.83-.4-5.67c-.09-.94-.18-1.89-.3-2.83a20.66,20.66,0,0,0-.43-2.74,40.92,40.92,0,0,0-2.12-5.23C80.87,44.47,77,37.23,76.82,37A6.85,6.85,0,0,1,76.46,36.11Z"/><path d="M46.61,82.68c.14-.3.27-.6.41-.88a17.71,17.71,0,0,1,2-3.1c-.35-1.44-.69-2.88-1-4.33-.13-.77-.26-1.52-.34-2.31s-.08-1.57-.11-2.33A11.9,11.9,0,0,0,47,65.54a2.42,2.42,0,0,0-.5-.72,1.51,1.51,0,0,0-.32-.22l-.54-.33a9,9,0,0,1-1.84-1.62,17,17,0,0,1-2.55-4,25.56,25.56,0,0,1-1.63-4.34,22.09,22.09,0,0,1-.78-4.56,9.28,9.28,0,0,1,.59-4.37l-1-.17A4.44,4.44,0,0,1,36,44.17,2.86,2.86,0,0,1,35.25,43,4.22,4.22,0,0,1,35,41.73l-.18,1c-.14.92-.26,1.86-.35,2.8-.19,1.86-.32,3.74-.35,5.61,0,.93,0,1.86,0,2.79a15.21,15.21,0,0,0,.29,2.73,21.68,21.68,0,0,0,2.11,5.09c.86,1.65,1.82,3.29,2.67,5a23.74,23.74,0,0,1,1.15,2.68c.16.45.27.94.41,1.4s.23.88.37,1.32c.53,1.75,1.26,3.47,2,5.21.36.88.71,1.75,1,2.65.16.45.31.89.44,1.36a3.09,3.09,0,0,1,.13,1.29C45.34,82.69,46,82.69,46.61,82.68Z"/><path d="M69.7,91.53a3.29,3.29,0,0,1-.74.69l1.16,1.41A5.24,5.24,0,0,0,72,95.17a6.16,6.16,0,0,0,2.4.41c.22,0,.43,0,.64,0l.57-.06a5.39,5.39,0,0,0,1.1-.41,11.43,11.43,0,0,0,3.67-3.35,31.42,31.42,0,0,0,2-3c-1,.11-1.91.25-2.85.41a11.36,11.36,0,0,1-3.79.31A8.36,8.36,0,0,1,74,88.89a3.8,3.8,0,0,0-.74-.18l-.88,0c-1.07,0-2.15,0-3.23,0l0,.36.84,0,1,.06-.33.82A5.88,5.88,0,0,1,69.7,91.53Z"/><path d="M54.28,82.53c-.06.07-.12.19-.2.3l1.64-.06a2.81,2.81,0,0,0-1-.44A.41.41,0,0,0,54.28,82.53Z"/><path d="M69.52,82.2a4.43,4.43,0,0,0-.65,1.15c.56-.06,1.12-.17,1.69-.27A13,13,0,0,1,69.52,82.2Z"/><path d="M58,94.14s0,0,0,0v0Z"/><path d="M34.43,19.5a13.38,13.38,0,0,0,1,1.51,11.6,11.6,0,0,0,1.14,1.38l.09.09a12.26,12.26,0,0,1-.34-1.39,5,5,0,0,1-.11-1.67,1.3,1.3,0,0,1,.11-.31,1.18,1.18,0,0,1,.13-.18l.15-.1a3.1,3.1,0,0,1,.42-.2c.26-.09.5-.16.75-.23a23.19,23.19,0,0,0,2.85-.9,2.88,2.88,0,0,0,.58-.4l.58-.49,1.13-1c-.31.41-.62.8-1,1.19l-.5.57a2.91,2.91,0,0,1-.6.55,7,7,0,0,1-1.41.68c-.47.2-1,.38-1.42.55l-.69.27a1.29,1.29,0,0,0-.24.13v0a4.4,4.4,0,0,0,.18,1.31c0,.11.06.22.09.33.39.27.78.56,1.16.81a2,2,0,0,0,1.47.32,6.9,6.9,0,0,0,.79-.19l.84-.22c.56-.12,1.1-.21,1.6-.37a2.16,2.16,0,0,0,1.11-.78,1.59,1.59,0,0,0,.24-.61c0-.22.08-.53.12-.79.17-1,.3-2.09.43-3.13-.16-.26-.34-.55-.53-.81a9.19,9.19,0,0,0-.74-.89,3.46,3.46,0,0,0-1.75-1.12H42l-.06,0c-1.12-.62-2.3-1.2-3.49-1.72-.6-.25-1.19-.51-1.81-.71a8.23,8.23,0,0,0-1.94-.37,2.29,2.29,0,0,1,.09.31,6.06,6.06,0,0,0-.49,1.55,6.14,6.14,0,0,1-.12,1,8.17,8.17,0,0,0-.2.9,9.69,9.69,0,0,0,0,3.56A5.68,5.68,0,0,0,34.43,19.5Z"/><path d="M34.65,10.57a6.84,6.84,0,0,1,2,.06,14.21,14.21,0,0,1,1.95.47c.63.2,1.26.42,1.88.67s1.2.49,1.78.78a3.35,3.35,0,0,1,1.24.46,5.32,5.32,0,0,1,1,.84,7.77,7.77,0,0,1,.84,1,7.94,7.94,0,0,1,.71,1.07l.1.15,0,.17c-.14,1.12-.32,2.22-.51,3.33-.06.29-.1.53-.17.86a2.63,2.63,0,0,1-.42.92,2.69,2.69,0,0,1-1.39,1,8.24,8.24,0,0,1,.92,1.65,2.81,2.81,0,0,1,.18,1.45,2.31,2.31,0,0,1-.28.73,5.2,5.2,0,0,0-.34.55c-.4.75-.74,1.61-1.15,2.42a18.48,18.48,0,0,1-1.35,2.41A26.45,26.45,0,0,1,40,33.71c-.15.17-.27.32-.4.49a5.07,5.07,0,0,0,.08.58,2.87,2.87,0,0,0,.55,1.31.9.9,0,0,0,1,.24,6.09,6.09,0,0,0,1.41-.49,32.16,32.16,0,0,0,2.92-1.49,19.05,19.05,0,0,0,2.83-1.81,4.74,4.74,0,0,1-.92,1.5,9.76,9.76,0,0,1-1.27,1.22,12.19,12.19,0,0,1-3,1.89,6,6,0,0,1-1.83.53,2.4,2.4,0,0,1-1.16-.17,1.8,1.8,0,0,1-.88-.79A2.87,2.87,0,0,1,39,35l-.63.76a17.72,17.72,0,0,0-1.45,2.13c-.38.66-.78,1.34-1.21,2,.14.57.25,1.13.39,1.65a6.9,6.9,0,0,0,.83,1.89,2.92,2.92,0,0,0,1.61,1.36,5,5,0,0,0,2.34.09c.78-.15,1.54-.31,2.29-.48s1.48-.4,2.18-.64c1.39-.5,2.84-1,3.59-2.38l.15,0a3,3,0,0,1-1,2.4,6.42,6.42,0,0,1-2.21,1.38,9,9,0,0,1-2.49.55,8.81,8.81,0,0,1-2.51-.07l-1.46-.24a7,7,0,0,0-.29,2.08,12.74,12.74,0,0,0,.18,2.23,24.91,24.91,0,0,0,1.12,4.36,22.9,22.9,0,0,0,4.31,7.71,7.86,7.86,0,0,0,1.61,1.35l.45.25a2.74,2.74,0,0,1,.62.43A3.55,3.55,0,0,1,48.23,65a8,8,0,0,1,.64,2.4A20.79,20.79,0,0,1,49,69.7c0,.77,0,1.52.08,2.22s.17,1.47.3,2.21c.23,1.32.46,2.63.74,3.94,1.11,0,2.23-.07,3.37,0a9.5,9.5,0,0,1,1,.11,3.3,3.3,0,0,1,1.06.39,5,5,0,0,1,.85.62l.19.17.15.15s0,0,.06,0a.12.12,0,0,0,.08,0v-.4a8.51,8.51,0,0,1,.1-1,6.74,6.74,0,0,0,.15-.9,3.9,3.9,0,0,0-.09-.89,18.46,18.46,0,0,0-1.48-3.48,14.29,14.29,0,0,1,1.92,3.36,3.63,3.63,0,0,1,.21,1,6.12,6.12,0,0,1-.05,1c0,.31,0,.62,0,.92v.36a.75.75,0,0,1,0,.21.88.88,0,0,1-.57.63.94.94,0,0,1-.5,0l-.25,1a2.61,2.61,0,0,1-.16.64,1.62,1.62,0,0,1-.37.42,3.79,3.79,0,0,1,.3.4c2.8-.08,6.34-.14,7.21-.15,0-.09,0-.18.06-.28a3.1,3.1,0,0,1,.41-.86A3.58,3.58,0,0,1,66,80a6.51,6.51,0,0,0-1.88-.24l0-.13a6,6,0,0,1,4.06,0A3.36,3.36,0,0,1,70.85,83l1.47-.29L75.9,82c.93-.15,1.87-.28,2.81-.38a2.53,2.53,0,0,1-.37-.18,3.18,3.18,0,0,1-.46-.34,1.39,1.39,0,0,1-.39-.83l.05-.9.14-2.09-.51.75-.3.44a2.39,2.39,0,0,1-.55.55,2,2,0,0,1-.84.3,2.05,2.05,0,0,1-.8-.09,3.45,3.45,0,0,1-1.18-.6c-.63-.47-1.15-1-1.67-1.46l-.4-.32a1.6,1.6,0,0,1-.51-.63A3,3,0,0,1,70.68,75a12.41,12.41,0,0,1,.2-2.23c.1-.6.23-1.2.35-1.79l-.08.19,0,.09-.08.15a1.3,1.3,0,0,1-.53.51,1.37,1.37,0,0,1-1.44-.1,1,1,0,0,1-.27-.26l-.15-.18-.24-.33-.5-.66c-.33-.45-.65-.91-1-1.37s-.61-.94-.89-1.44a5.34,5.34,0,0,1-.72-1.72,7.85,7.85,0,0,1,0-1.8c0-.58.11-1.13.18-1.67.16-1.1.34-2.17.47-3.23A12.3,12.3,0,0,0,66,56.1a2.55,2.55,0,0,0-.19-.66l-.14-.29-.22-.42a9.23,9.23,0,0,1-.6-1.63c-.29-1.08-.5-2.16-.68-3.24s-.33-2.22-.46-3.32a.56.56,0,0,0,0,.08,4.34,4.34,0,0,1-.84.87,8.39,8.39,0,0,1-2,1.12,15.36,15.36,0,0,1-4.48.8A12.48,12.48,0,0,1,51.76,49a6.56,6.56,0,0,1-2-1,4.14,4.14,0,0,1-.83-.79,2.11,2.11,0,0,1-.47-1h.14a1.92,1.92,0,0,0,.56.85,4.34,4.34,0,0,0,.84.64,6.36,6.36,0,0,0,2,.72,11.75,11.75,0,0,0,4.22-.07c1.43-.23,2.79-.7,4.15-1a18.27,18.27,0,0,0,2-.63,3.48,3.48,0,0,0,1.35-.88c-.08-.8-.17-1.61-.23-2.42-.07-1.09-.14-2.18-.16-3.28a11.92,11.92,0,0,1,.3-3.31,5.51,5.51,0,0,1,1.47-3c2-1.85,2.36-1.64,3.51-1.76v0a12,12,0,0,1,1.56-.08c.6,0,1.19.05,1.78.11s1.17.14,1.77.26c.44.09,1.22.2,1.86.37a6.31,6.31,0,0,0-.34-.63c-.43-.71-.94-1.28-1.51-2.05a2.91,2.91,0,0,1-.37-.79,1.63,1.63,0,0,1-.06-.56c0-.09,0-.19,0-.29l0-.17a2.36,2.36,0,0,0,.06-.5,10.07,10.07,0,0,1-2.47,1.56,8.58,8.58,0,0,1-1.43.48l-.74.17a6,6,0,0,1-.86.13,4.58,4.58,0,0,1-3.07-1.18,5.55,5.55,0,0,1-1-1.19,2.06,2.06,0,0,1-.34-1.52l.15,0a1.86,1.86,0,0,0,.55,1.22,4.72,4.72,0,0,0,1.1.89,3.72,3.72,0,0,0,2.51.62A10.89,10.89,0,0,0,69,28.38a9.26,9.26,0,0,1,1.4-.49,12.05,12.05,0,0,1,2.94-.44c0-.08,0-.15,0-.22A7.05,7.05,0,0,0,72.64,25,8.56,8.56,0,0,0,72,23.9c-.23-.36-.49-.75-.71-1.13-.45-.75-.86-1.53-1.26-2.29l-2.35-4.65.12-.07c1,1.44,1.91,2.92,2.85,4.36.56.88.87,1.35,1.21,1.83A2.7,2.7,0,0,0,72,20.1a7.84,7.84,0,0,0-.81-1.4,32.21,32.21,0,0,0-2-2.64c-.36-.42-.72-.89-1.06-1.27A13.64,13.64,0,0,0,67,13.66a32.84,32.84,0,0,0-2.57-2.08c-.87-.67-1.78-1.34-2.69-2s-1.8-1.33-2.69-2L58.36,7c-.22-.17-.41-.34-.64-.49-.44-.32-.9-.61-1.37-.9-.94-.58-1.91-1.11-2.91-1.6a38.07,38.07,0,0,0-6.19-2.39A18.36,18.36,0,0,0,44,1a8.81,8.81,0,0,0-3.19.32A13.7,13.7,0,0,0,35.33,4.9a4.2,4.2,0,0,0-1,1.2A3.18,3.18,0,0,0,34,7.66a7.5,7.5,0,0,0,.26,1.62C34.35,9.71,34.51,10.12,34.65,10.57Zm29.44,22A6.44,6.44,0,0,0,62,34,18.45,18.45,0,0,1,60,35.61c-.67.48-1.31,1-2,1.53a9.8,9.8,0,0,1-2.44,1.29,9.21,9.21,0,0,1-2.74.46A4.21,4.21,0,0,1,50,38a4,4,0,0,1-1.28-2.5,8.22,8.22,0,0,1,0-2.62,14.9,14.9,0,0,0,.66,2.43,4.31,4.31,0,0,0,.53,1,2.62,2.62,0,0,0,.76.76,3.19,3.19,0,0,0,2.07.41A8.91,8.91,0,0,0,55,37.09c1.48-.45,2.74-1.6,4.36-2.43.74-.38,1.47-.81,2.21-1.25A5,5,0,0,1,64.09,32.54ZM49.47,24.23l1.35-.16a19.16,19.16,0,0,0,2.59-.44,4.56,4.56,0,0,0,.56-.19l.22-.12s.08-.06.08-.08a2.17,2.17,0,0,1,.15-.49,3.17,3.17,0,0,1,.47-.73,8.61,8.61,0,0,1,2.26-1.8l.08,0-.55-.34a27.23,27.23,0,0,1-2.32-1.48l.08-.11a19.68,19.68,0,0,1,2.67.67,8.74,8.74,0,0,1,1.35.57l.2.14.12.11s.06.08.08.12a.4.4,0,0,1,.08.15.73.73,0,0,1,.06.28.85.85,0,0,1-.11.38,1.51,1.51,0,0,1-.21.23l-.06,0-.14.11-.55.38A18.23,18.23,0,0,0,56,23a1.67,1.67,0,0,0-.32.37c0,.06,0,.07-.07.13a1.32,1.32,0,0,1-.32.6,2,2,0,0,1-.83.5,5.11,5.11,0,0,1-.75.18,17.83,17.83,0,0,1-2.78.25l-1,0a6.06,6.06,0,0,1-.16,1.54c0,.23-.07.53,0,.59a.93.93,0,0,0,.54.08A12,12,0,0,0,51.8,27c.51-.1,1-.23,1.52-.37a13,13,0,0,0,2.84-1.13A3.78,3.78,0,0,0,58,23.62l.15-.42.43-.07c1-.16,1.88-.19,2.73-.33a2.81,2.81,0,0,0,2.16-1.19l.14,0A2,2,0,0,1,62.94,23a3.87,3.87,0,0,1-1.33.85,8.83,8.83,0,0,1-1.42.43c-.34.08-.66.13-1,.19a3.63,3.63,0,0,1-1,1.13,7.43,7.43,0,0,1-1.52.89,14.75,14.75,0,0,1-3.18.92,15.28,15.28,0,0,1-3.26.33,1.86,1.86,0,0,1-.45-.06.78.78,0,0,1-.47-.31.74.74,0,0,1-.08-.53,3.84,3.84,0,0,1,.11-.4A6.2,6.2,0,0,0,49.74,25h-.2a9.73,9.73,0,0,1-1.44,0,1.28,1.28,0,0,1-.79-.38,1.43,1.43,0,0,1-.34-.77,6.56,6.56,0,0,1,0-1.41,11.66,11.66,0,0,0,.06-2.64l.14,0a10.21,10.21,0,0,1,.24,2.69,6.49,6.49,0,0,0,.09,1.28.62.62,0,0,0,.65.56A9.4,9.4,0,0,0,49.47,24.23ZM45.41,8.05C46.73,7.86,48,9.28,48,9.28S47.2,11,45.88,11.19,43.25,10,43.25,10,44.08,8.26,45.41,8.05Z"/><path d="M87.6,91.86l-2-3.31a41.39,41.39,0,0,1-.14,4.32c-.15,1.89-.38,3.77-.64,5.64l-.06.39c.84.46,1.67.93,2.49,1.44a2.38,2.38,0,0,0,1.44-.51,2.75,2.75,0,0,0,.89-1.32,4.87,4.87,0,0,0-.29-3.33A24.34,24.34,0,0,0,87.6,91.86Z"/><path d="M83,88.69l-.22,0a16,16,0,0,1-1.68,3.52,10.54,10.54,0,0,1-3.89,3.84,6.13,6.13,0,0,1-1.39.46l-.74.07c-.25,0-.46,0-.7,0a6.68,6.68,0,0,1-2.73-.69,5.08,5.08,0,0,1-2-2c-.32-.54-.6-1.08-.88-1.63a2.09,2.09,0,0,1-.84.28,2.25,2.25,0,0,1-.52,0,3.18,3.18,0,0,1-.55-.14,1.3,1.3,0,0,1-.76-1,7.73,7.73,0,0,1-.07-.87,2.58,2.58,0,0,0,0-.4,2.73,2.73,0,0,1-1.41-.39,4.41,4.41,0,0,1-.84-.67l0,.1c-.62-.11-7.21-.22-11.65-.27l-.1.39a1,1,0,0,1-.11.28.69.69,0,0,1-.21.21,1,1,0,0,1-.36.21,4.09,4.09,0,0,1-1.25.16,6.14,6.14,0,0,1,.2.66,3.24,3.24,0,0,1,.09.9v.28l-.42,0A4.48,4.48,0,0,1,48.21,92c.58.89,1.08,1.8,1.65,2.63a2.81,2.81,0,0,0,2.34,1.56,11.32,11.32,0,0,0,3.22-.27,6.11,6.11,0,0,0,1.51-.57A2.26,2.26,0,0,0,58,94.14a12,12,0,0,1-1.48-2.09,13,13,0,0,1-1.19-2.76c.67.76,1.28,1.53,1.89,2.3s1.22,1.51,1.88,2.17a5.21,5.21,0,0,0,1,.89,2.65,2.65,0,0,0,.52.28,2.28,2.28,0,0,0,.6.09,6.53,6.53,0,0,0,2.7-.81,4.28,4.28,0,0,1-2.64,1.64,2.83,2.83,0,0,1-.87,0,3.06,3.06,0,0,1-.85-.32,6.65,6.65,0,0,1-1.25-1,3.59,3.59,0,0,1-.32-.36,2.1,2.1,0,0,1-.76,1.58,5,5,0,0,1-1.56,1,8.75,8.75,0,0,1-3.56.54l-.36,0c.26.53.52,1,.76,1.56a15.5,15.5,0,0,0,1.11,2,5.45,5.45,0,0,0,1.5,1.56,5.71,5.71,0,0,0,1.74.69c.26-2.58.57-5.16,1-7.72-.08,3-.13,5.93-.26,8.89s-.27,5.92-.45,8.88l-.29,4.43a2.75,2.75,0,0,0,.4,1.83,2.66,2.66,0,0,0,.63.71l.89.67.9.67.45.34.2.15a.56.56,0,0,0,.13.07.38.38,0,0,0,.46-.27,2.37,2.37,0,0,0,0-.48l0-.55c0-.75,0-1.49-.07-2.22,0-.37,0-.75-.08-1.11l0-.35-.3-.17L60,116.5l-.23-.15a1.72,1.72,0,0,1-.28-.25,2.5,2.5,0,0,1-.55-1.14,5.4,5.4,0,0,1-.13-1.1,19.45,19.45,0,0,1,.46-4.14c.27-1.34.61-2.66,1-4s.76-2.61,1-3.93a15.48,15.48,0,0,1-.19,2l-.32,2c-.24,1.34-.47,2.67-.66,4a22.13,22.13,0,0,0-.27,3.94,5.25,5.25,0,0,0,.12.92,1.44,1.44,0,0,0,.31.67s.07,0,.1.08a1.73,1.73,0,0,0,.2.14l.44.25c.29.17.58.34.88.5a8.39,8.39,0,0,0,3.58,1.2,2.32,2.32,0,0,0,1.6-.52,3.26,3.26,0,0,0,.79-1.53,20.53,20.53,0,0,0,.53-4c.09-1.32.08-2.65.08-4a12.08,12.08,0,0,1-1.71-2,22.74,22.74,0,0,1-2.43-4.76,17.71,17.71,0,0,1-.75-2.55,6.14,6.14,0,0,1-.11-2.66,7.82,7.82,0,0,0,.61,2.51c.3.81.66,1.6,1,2.38A34.78,34.78,0,0,0,67.64,105a11.36,11.36,0,0,0,1.59,1.9l.46.37c.16.07.3.16.47.22a2.24,2.24,0,0,0,1.06,0,4,4,0,0,0,1.92-1.39,13.31,13.31,0,0,0,1.13-1.52,5.53,5.53,0,0,1-2.33-.86,6.45,6.45,0,0,1-2.13-2.44,10.92,10.92,0,0,1-1.12-6,13.83,13.83,0,0,0,1.85,5.62,6.08,6.08,0,0,0,2,2,4.6,4.6,0,0,0,2.62.69,3.49,3.49,0,0,0,2.38-1,8.86,8.86,0,0,0,1.7-2.32,28.39,28.39,0,0,0,2.13-5.61,17.18,17.18,0,0,1-1.37,6,9.32,9.32,0,0,1-1.08,1.88c.25,1.7.45,3.41.66,5.11.21,2,.38,3.88.54,5.83s.26,3.9.32,5.85c0,1,0,2,0,2.95a12.71,12.71,0,0,1-.36,3,2.05,2.05,0,0,1-.23.48,1.33,1.33,0,0,1-.3.26l-.22.11a1.83,1.83,0,0,1-.45.15,1.72,1.72,0,0,1-.44.06,4.37,4.37,0,0,1-1.65-.26A10.67,10.67,0,0,1,74,124.64l-.11-.09,0,.7a2.94,2.94,0,0,0,.23,1.27,2.31,2.31,0,0,0,2,1.31c.9.08,1.8.15,2.7.17.44,0,.89,0,1.33,0a2.39,2.39,0,0,0,1.13-.24A3.6,3.6,0,0,0,82.88,126a4.78,4.78,0,0,0,.29-2.41l-.49-5.36c-.62-7.14-1.14-14.3-1.35-21.48.5,3.36.92,6.73,1.3,10.11.1-1,.2-1.92.33-2.86.21-1.88.47-3.74.74-5.6s.56-3.73.87-5.58c.22-1.43.48-2.85.69-4.29C84.51,88.55,83.75,88.61,83,88.69Z"/><path d="M70.74,108.47a2.84,2.84,0,0,1-.82-.06,6,6,0,0,1-.74-.3l-.62-.43a.94.94,0,0,0-.1-.1,33.41,33.41,0,0,1,.44,4,17.55,17.55,0,0,1-.24,4.14,3.76,3.76,0,0,1-1,2.06,3.52,3.52,0,0,1-2.2.82,6.59,6.59,0,0,1-.91-.07c0,.82.06,1.64.15,2.42.11,1.15.46,2.38,1.33,2.55a4.08,4.08,0,0,0,.43.12,3.76,3.76,0,0,1,.48.13c.31.11.62.21.91.34.6.25,1.11.54,1.47.45a2,2,0,0,0,1.18-1,8.52,8.52,0,0,0,.59-1.88,9.6,9.6,0,0,1-.51-1.94A55,55,0,0,1,70.74,108.47Z"/><path d="M77.08,125.09a3.44,3.44,0,0,0,1.24.19.79.79,0,0,0,.28,0,.67.67,0,0,0,.25-.08l.08,0A.93.93,0,0,0,79,125a11.82,11.82,0,0,0,.33-2.74c0-1,0-1.93,0-2.91,0-1.93-.08-3.87-.12-5.81l-.43-10.9a8,8,0,0,1-.6.71,4.51,4.51,0,0,1-3.09,1.38c-.22,0-.45,0-.69,0a9.88,9.88,0,0,1-.86,1.8,4.37,4.37,0,0,1-2.1,1.89,2.74,2.74,0,0,1-.68.14c.06,1.79,0,3.58.11,5.37a35.42,35.42,0,0,0,.5,5.75,5.7,5.7,0,0,0,1,2.43,16,16,0,0,0,2.21,1.79A10.81,10.81,0,0,0,77.08,125.09Z"/><path d="M49.75,90.91l.12-.67-.6,0a5.6,5.6,0,0,1-1.93-.54l-.23-.12v-.21a4,4,0,0,1,.15-1c.07-.3.13-.58.21-.87.16-.56.32-1.12.51-1.68a20.65,20.65,0,0,1,1.29-3.26l.14.07a13.62,13.62,0,0,0-.53,1.64c-.14.56-.28,1.12-.4,1.68s-.23,1.14-.32,1.71L48,88.5c0,.15-.05.34-.06.49a5,5,0,0,0,1.38.23A4.47,4.47,0,0,0,50.87,89l0-.33.09-.9c.07-.61.14-1.22.24-1.82a10.25,10.25,0,0,1,.47-1.85c.07-.16.12-.3.2-.47l.12-.24.18-.28a1.2,1.2,0,0,1,.3-.3l.09-.07,0,0a1.46,1.46,0,0,0,.25-.25,4.85,4.85,0,0,1,.72-.74,1.35,1.35,0,0,1,.63-.28,1.12,1.12,0,0,1,.66.09,2.21,2.21,0,0,1,.65.42,1.31,1.31,0,0,1,0-.28,1.62,1.62,0,0,1,.31-.63,7.59,7.59,0,0,1,.6-.85c-.05,0-.11,0-.16-.07l-.39-.3a3.69,3.69,0,0,0-.75-.46,1.72,1.72,0,0,0-.76-.23,6.43,6.43,0,0,0-.9-.05c-1.25,0-2.54.1-3.8.21l-.54,0L49.06,79a19.72,19.72,0,0,0-1.42,3.06A25.17,25.17,0,0,0,46.44,86a6.82,6.82,0,0,0-.06,1.91,3.52,3.52,0,0,0,.6,1.56,5.08,5.08,0,0,0,2.71,1.8Z"/><path d="M68,84.14a4.1,4.1,0,0,1,.34-.92,5.58,5.58,0,0,1,1-1.17L69,81.77c-.48-.3-.83-.76-1.34-1.07a7,7,0,0,0-1.19-.52,3.43,3.43,0,0,0-2,1.66,2.06,2.06,0,0,0-.2.67q0,.38-.06.78c0,.53,0,1.07,0,1.61s.12,1.07.17,1.6c0,.27,0,.53,0,.79l.05.68a3,3,0,0,0,.64,1.16,3.37,3.37,0,0,0,.77.63c-.21-1.05-.35-2.09-.47-3.14a16.45,16.45,0,0,1-.12-3.29h.14A17.3,17.3,0,0,0,66,86.53c.22,1.06.49,2.11.77,3.16a4.85,4.85,0,0,1,.19.85c0,.28.07.56.12.74s.11.2.23.25a.92.92,0,0,0,.26,0,1.28,1.28,0,0,0,.3,0A2,2,0,0,0,69,90.45l-.52,0-.66,0-.08-.69a13.17,13.17,0,0,1-.11-1.88A17.09,17.09,0,0,1,67.7,86,9.37,9.37,0,0,1,68,84.14Z"/><path d="M57,4.55c.5.28,1,.57,1.49.9a7.21,7.21,0,0,1,.72.51l.67.49L62,7.92l.74.07a16.58,16.58,0,0,0,3-.19,16.91,16.91,0,0,0,2.91-.7,10.71,10.71,0,0,0,2.74-1.34,5.66,5.66,0,0,1-2.41,2.1,9.83,9.83,0,0,1-3.08,1,10.2,10.2,0,0,1-2.53.07c.67.51,1.35,1,2,1.54a32.26,32.26,0,0,1,2.56,2.29c.2.21.4.42.59.64a11.41,11.41,0,0,0,3.44-1.51l1.9-1.17-.09,0A13.56,13.56,0,0,1,69,10.24,20.9,20.9,0,0,0,73.59,10a11.8,11.8,0,0,0,4-1.77,9.08,9.08,0,0,0,1.65-1.41,2.12,2.12,0,0,0,.31-.39,1.12,1.12,0,0,0,.1-.18l0-.07,0-.12c.09-.36.16-.71.22-1.07a8.9,8.9,0,0,0,.15-2.18,5,5,0,0,0-.28-1.44,1.69,1.69,0,0,1-.22.29,6.41,6.41,0,0,1-.78.7L78.05,3a4.57,4.57,0,0,1-.55,1,2.9,2.9,0,0,1-1.11,1,6.5,6.5,0,0,0,.54-1.23,9.49,9.49,0,0,0,.28-1.26c.07-.43.12-.86.16-1.29,0-.1,0-.2,0-.29-.12.07-.23.16-.36.22a7.14,7.14,0,0,1-1.14.57,5.25,5.25,0,0,1-.66,1.42A7.18,7.18,0,0,1,73.8,4.68,8.16,8.16,0,0,1,72,5.76a10.3,10.3,0,0,0,1.59-1.27A7,7,0,0,0,74.81,2.9a4.88,4.88,0,0,0,.6-1.82,3.54,3.54,0,0,0,0-1.08,11.63,11.63,0,0,1-4.92,4.17,10.56,10.56,0,0,1-3.62.76,21.38,21.38,0,0,1-3.59-.22l-1.74-.2c-.6-.07-1.19-.14-1.77-.24-1.18-.2-2.33-.44-3.48-.71-.89-.21-1.78-.44-2.66-.69l.35.15C55,3.48,56,4,57,4.55Z"/><path d="M42.64,83H38.31L29.66,83,21,82.84,0,82.69l.23.88L.72,85.4c.18.62.35,1.23.55,1.83.11.35.23.74.37,1.08,4.05-.24,18.1-.43,20.55-.59,2.62-.2,5.24-.29,7.87-.35s5.25-.08,7.9,0c.67,0,1.31,0,2,.11s1.26.21,1.91.27C43,87.87,44,88,45.09,88v-.09a8.33,8.33,0,0,1,.3-2.23,23.59,23.59,0,0,1,1.1-2.8C45.2,83,43.93,83,42.64,83Z"/><path d="M63.14,84.05c-2.67,0-8.44.14-10,.27a2,2,0,0,1-.08.26c-.14.53-.25,1.11-.39,1.68l-.3,1.3c3.19,0,8.45.12,10.69.23,0-.11-.05-.23-.06-.34a5.07,5.07,0,0,1-.07-.86c0-.57,0-1.14.09-1.7Q63.08,84.47,63.14,84.05Z"/><path d="M97.79,82.21c-4.86.07-9.71.14-14.58.11-.61,0-1.25,0-1.85-.06a15,15,0,0,0-1.78,0c-1.19,0-2.4.17-3.59.32s-2.4.34-3.6.52-2.33.4-3.54.48c0,.23,0,.45,0,.68,0,.59,0,1.2.08,1.8,0,.78.13,1.56.19,2.35,1.07-.22,2.13-.39,3.22-.51l.92-.08a3.88,3.88,0,0,1,1,.09,7.57,7.57,0,0,0,1.64.4,5.55,5.55,0,0,0,1.59-.18c.56-.12,1.08-.29,1.69-.46,1.17-.33,2.37-.58,3.56-.8s2.4-.37,3.63-.49a26.66,26.66,0,0,1,3.7-.12,16.26,16.26,0,0,1,1.92.2,9,9,0,0,1,1,.23l.31.07.39,0c1.09.12,2.28.18,3.46.22,4.72.15,9.5.13,14.26.11,4.55,0,11-.11,15.68-.21l.92-5.31Z"/></svg>