<svg id="Layer_1" data-name="Layer 1" xmlns="http://www.w3.org/2000/svg" width="128" height="128" viewBox="0 0 128 128"><title>Cassowary gliph</title><path d="M61.75,124.18c.49-.09,1.64.31,2,1.95,0,0,0,.06,0,0a4.26,4.26,0,0,0-2.53-.86A9.34,9.34,0,0,1,61.75,124.18Z"/><path d="M72.1,119.11c.48-.08,1.64.31,2,2a0,0,0,0,1-.06,0,4.26,4.26,0,0,0-2.52-.85A9.89,9.89,0,0,1,72.1,119.11Z"/><path d="M61.85,122.08a2,2,0,0,1,1.72,2,0,0,0,0,1-.06,0,4.13,4.13,0,0,0-2.15-1.14A9.77,9.77,0,0,0,61.85,122.08Z"/><path d="M72.21,117.06a2,2,0,0,1,1.89,1.81,0,0,0,0,1-.06,0,4,4,0,0,0-2.24-1A9.15,9.15,0,0,0,72.21,117.06Z"/><path d="M53.09,125.44c.43.17.48,1-.08,2.54,0,0-.06,0-.07,0a4.11,4.11,0,0,0-1.21-2.15A3.23,3.23,0,0,1,53.09,125.44Z"/><path d="M63.69,119.42c.46,0,1,1,.86,2.63,0,0,0,0-.06,0a5,5,0,0,0-2-1.89A3.31,3.31,0,0,1,63.69,119.42Z"/><path d="M18.33,74.06c.59-.31,1.18-.62,1.76-.94,0,1.33-.19,2.65-.32,4-.09.75-.18,1.5-.28,2.26,0,.3-.09.59-.14.9L19,79.83c-.39-.45-.79-.93-1.24-1.39C18,77,18.15,75.52,18.33,74.06Z"/><path d="M58.7,121.12a11.52,11.52,0,0,0,2.76.75,1.53,1.53,0,0,1-.3.67,4.58,4.58,0,0,1-.34.43l-.16,0-1.95-.56a11.29,11.29,0,0,1-1.89-.71l-.07.06a5.44,5.44,0,0,0,1.72,1.23,16.26,16.26,0,0,0,1.91.84,9.82,9.82,0,0,0,1,.32l-.1.24-.19.48v0h0a0,0,0,0,1,0,0l-1,0a3.67,3.67,0,0,1-.47,0,4.3,4.3,0,0,1-.46-.07q-.48-.12-1-.27c-.65-.19-1.29-.43-1.92-.68s-1.26-.5-1.89-.79a9.68,9.68,0,0,1-1.64-.91c0-.14-.1-.28-.16-.42l-.12,0c.12.57.24,1.12.37,1.68l.2.84a.54.54,0,0,1-.12.54c-.15.14-.27.14-.6.18l-.86.11a.36.36,0,0,1-.15,0l-.1,0A.41.41,0,0,1,51,125a1.33,1.33,0,0,1-.12-.26l-.18-.39c-.44-1-.89-2.1-1.24-3.14,0-.13-.07-.26-.1-.38a.62.62,0,0,1,0-.18l0-.11.07-.22c0-.14.09-.29.13-.43.16-.56.3-1.12.44-1.68v-.17c-.07-2.24-.22-4.47-.36-6.7l-.41-6.68L48.81,98c-.14-2.23-.3-4.45-.52-6.69v-.07l-.06,0a3.59,3.59,0,0,1-.84-1.43A12.06,12.06,0,0,1,47,88c-.21-1.14-.31-2.3-.54-3.45a19,19,0,0,0,8.26.59,15.15,15.15,0,0,1-.31,1.52c-.19.71-.41,1.42-.67,2.12-.12.35-.25.7-.38,1s.09.61,0,1c-.17.73-.3,1.47-.4,2.22a21.9,21.9,0,0,0-.21,4.51c.07,1.47.07,3,.09,4.45.06,3,.08,6,.21,9,0,.75.09,1.49.18,2.26,0,.19.05.38.08.59a3.67,3.67,0,0,0,.15.62c0,.11.07.24.11.32l.12.27.24.5,1,2,.48,1a6.4,6.4,0,0,1,.36.93l.09.29.21.09c.41.18.85.43,1.31.65S58.23,120.93,58.7,121.12Z"/><path d="M61.35,124.07h0Z"/><path d="M67,116.52l-.06.07a4.44,4.44,0,0,0,1.13.9c.41.25.84.46,1.27.67a23.08,23.08,0,0,0,2.18.82l-.3.77-1.26,0-2.87-1-2.21-.83a14.58,14.58,0,0,1-2.09-.93l0,0-.09.07c.3.46,1.27,1.87,1.27,1.87a.58.58,0,0,1,.08.12.11.11,0,0,1,0,.09l-1.89.22a.53.53,0,0,1-.47-.13.3.3,0,0,1-.08-.08s-1.48-2.35-1.91-3.27c0-.11-.1-.22-.13-.31v0c.1-.28.53-1.88.66-2.41l0-.07v-.1c-.07-2.23-.22-4.47-.35-6.69L58.49,86.09s-1-.89-1.4-3.68c3-.73,7.55.1,7.55.1-.11.36-.24.71-.36,1.08s-.25.69-.39,1a7.6,7.6,0,0,0-.36,1.08,20.66,20.66,0,0,0-.41,2.22,22.65,22.65,0,0,0-.19,4.51c.06,1.48.15,10.42.28,13.42,0,.75.1,1.49.19,2.26,0,.19.05.38.09.59a3.56,3.56,0,0,0,.14.62c0,.11.08.24.12.34l.36.75,1,2,.47,1a7.35,7.35,0,0,1,.37.92l.08.29.21.09c.42.2.86.43,1.3.66s.91.42,1.39.62a12.06,12.06,0,0,0,2.75.75,1.45,1.45,0,0,1-.28.66,4.7,4.7,0,0,1-.35.43l-1.4-.39L68.31,117A7.15,7.15,0,0,1,67,116.52Z"/><path d="M92.62,13.39a9.31,9.31,0,0,1,.13-2.3A9.14,9.14,0,0,1,95,6.68a2.91,2.91,0,0,1,2.19-.6c.82,0,1.75.12,2.58.18a14.19,14.19,0,0,1,2.52.6,16.65,16.65,0,0,1,1.92.76,2.73,2.73,0,0,0-1.34.18,3.11,3.11,0,0,0-1.49,1.57,6.28,6.28,0,0,1-.48.83,2.22,2.22,0,0,1-.66.59,1.91,1.91,0,0,1-1.74.17,2.94,2.94,0,0,1-.82-.53,1.87,1.87,0,0,0-1-.39,3,3,0,0,0-2.07.49,1.92,1.92,0,0,0-.69.88c-.16.32-.26.66-.38,1a1.86,1.86,0,0,1-.49.77A1.23,1.23,0,0,1,92.62,13.39Z"/><path d="M106,33.73l0,1.38c0,.45,0,.9,0,1.36l0,1.37c0,.46-.08.91-.11,1.36-.06.91-.22,1.81-.36,2.71a31.53,31.53,0,0,1-1.45,5.24A27,27,0,0,1,101.71,52a28.91,28.91,0,0,1-3.28,4.36,37.28,37.28,0,0,1-8.51,6.89,54.61,54.61,0,0,1-10,4.65c-1.73.6-3.5,1.15-5.3,1.6l-1.34.35a3.36,3.36,0,0,0-1.35.61,11,11,0,0,0-2,2,34.89,34.89,0,0,0-3,4.72,31.8,31.8,0,0,0-2,4c-2.17-1-5.73-.42-7.6-.17.11-.33,1-3.25,1.45-4.68a12.5,12.5,0,0,1,.85-2l1.16-2,2.37-4c.78-1.33,1.54-2.68,2.25-4.06a6.09,6.09,0,0,0,.71-4.58l-.11,0A5.35,5.35,0,0,1,65.83,62a7.65,7.65,0,0,1-1,2c-.8,1.3-1.67,2.59-2.51,3.86l-2.55,3.85c-.41.66-.85,1.29-1.25,2a14.6,14.6,0,0,0-1,2.22c-.53,1.48-.93,3-1.38,4.44-.21.73-.3.76-.54,1.47-.12.36-.25.71-.39,1a1.19,1.19,0,0,1-.57.5,5.86,5.86,0,0,1-2.06.43,13.86,13.86,0,0,1-2.23,0,18.42,18.42,0,0,1-2.23-.32,7.44,7.44,0,0,1-1.9-.63c-.17-1.81-.12-4.28-.12-5.34s0-2.13-.11-3.2a8.6,8.6,0,0,0-.75-3.17,13.32,13.32,0,0,1-.87-3A27.28,27.28,0,0,1,44,65a30.15,30.15,0,0,1-.12-3.15,10.09,10.09,0,0,1,.47-3.1l-.11-.05a9.68,9.68,0,0,0-.57,3.14,28.31,28.31,0,0,0,0,3.19A31,31,0,0,0,44,68.22a14.28,14.28,0,0,0,.82,3.11,6.3,6.3,0,0,1,.51,2A10.53,10.53,0,0,1,44,72.73l-1.76-.82-1.75-.84-1.74-.81-.32-.15-.31.18a3,3,0,0,1-.71.3,8.29,8.29,0,0,1-.89.24,14.47,14.47,0,0,1-1.87.23,13.25,13.25,0,0,1-1.89,0,6.13,6.13,0,0,1-.89-.14,1.78,1.78,0,0,1-.69-.32,1.61,1.61,0,0,0-.73-.58,5,5,0,0,0-.81-.3A10.35,10.35,0,0,0,28,69.39a12.17,12.17,0,0,0-2.63-.06l0,0a4.79,4.79,0,0,0,.58-.92c.15-.3.3-.6.44-.91a31.22,31.22,0,0,0,1.49-3.71l-.1-.06C27,64.8,26.32,65.92,25.61,67l-.54.82a5.69,5.69,0,0,1-.53.71,14,14,0,0,1-1.45,1.18c-1,.77-2.1,1.54-3.19,2.28-.67.44-1.37.88-2.08,1.28l.57-1c.41-.79.8-1.59,1.17-2.39A44.38,44.38,0,0,0,21.5,65l-.11,0a45.13,45.13,0,0,1-2.29,4.75c-.42.77-.85,1.53-1.31,2.28s-.92,1.49-1.43,2.17l-.9,1.17,1.38-.55c.46-.18.89-.39,1.32-.59-.3,1.75-.6,3.51-.93,5.26-.2,1-.39,2-.61,3-.11.48-.22,1-.36,1.45a4.41,4.41,0,0,1-.23.7l0,.09a3.12,3.12,0,0,1-.15-.43c-.07-.23-.13-.47-.19-.71q-.16-.72-.3-1.47c-.17-1-.32-2-.46-3-.26-2-.47-4-.62-6s-.3-4-.36-6a29.39,29.39,0,0,1,.52-5.91,47.47,47.47,0,0,1,3.72-11.29l0,0h0A38.81,38.81,0,0,1,20.58,45c.9-1.54,1.86-3.06,2.89-4.53a46.7,46.7,0,0,1,3.3-4.21,29,29,0,0,1,3.82-3.7,16.83,16.83,0,0,1,2.18-1.45l.58-.29.61-.26c.4-.17.81-.33,1.24-.47,1.67-.6,3.41-1.09,5.16-1.54,3.48-.9,7-1.62,10.58-2.25,1.77-.31,3.56-.59,5.35-.82a33,33,0,0,1,5.34-.33c3.59.14,7.2.54,10.79.94q2.7.3,5.38.67c.89.13,1.8.23,2.67.39a19.48,19.48,0,0,1,2.54.79c1.7.6,3.38,1.27,5.08,1.91.85.32,1.7.63,2.57.9A7.55,7.55,0,0,0,92,31.1a6.41,6.41,0,0,0,1.24.07,6.35,6.35,0,0,0-.35,3.14,4.78,4.78,0,0,0,1,1.64c.21.24.46.43.68.64l.76.53.08-.1-.56-.69a6.54,6.54,0,0,1-.48-.73,5.22,5.22,0,0,1-.56-1.54,25.5,25.5,0,0,1-.08-3,9.65,9.65,0,0,0,2.62-4.89,5.49,5.49,0,0,0,.07-.72,3,3,0,0,0-.1-.75,12.91,12.91,0,0,0-.4-1.33c-.16-.38-.31-.76-.46-1.14a11.71,11.71,0,0,1,2.38.22,4.91,4.91,0,0,1,2.48,1.26,5.68,5.68,0,0,1,.47.51l.45.57a4,4,0,0,0,1.13,1.06,2.83,2.83,0,0,0,2.38.31c.22.72.42,1.44.58,2.17.2.89.29,1.81.43,2.71S106,32.81,106,33.73Z"/><path d="M104.55,10.39l-2.43,1a1.44,1.44,0,0,0,.18.33l.16.31.35.58,0,.06h.1l.55,0c-.37.19-.65.49-1,.66a5.25,5.25,0,0,0-2.45,3.75,6.5,6.5,0,0,0,.48,1.34,16.14,16.14,0,0,0,1.51,2.37,18.44,18.44,0,0,1,1.52,2.28,15,15,0,0,1,1.08,2.5,1.87,1.87,0,0,0,.07.22,2.89,2.89,0,0,1-2-.58,5.25,5.25,0,0,1-.53-.43,3.2,3.2,0,0,1-.47-.5l-.5-.55-.56-.52a5.5,5.5,0,0,0-2.75-1.2,12.74,12.74,0,0,0-2.47,0L95,20.88c-.35-.81-.68-1.6-1-2.42s-.61-1.61-.84-2.44a10.85,10.85,0,0,1-.54-2.27,1.56,1.56,0,0,0,.59-.18,2.23,2.23,0,0,0,.73-.83c.15-.32.29-.64.43-.93a2,2,0,0,1,.55-.7,2.61,2.61,0,0,1,1.72-.7,1.36,1.36,0,0,1,.87.35,3.65,3.65,0,0,0,.81.69,2.16,2.16,0,0,0,2.17,0,3.9,3.9,0,0,0,.89-.88,4.67,4.67,0,0,0,.53-.93c.08-.16.16-.32.24-.46a.81.81,0,1,0,.8-.87l-.08,0a1,1,0,0,1,.17-.13,3.5,3.5,0,0,1,1.6-.39h0a5.89,5.89,0,0,1,1.07.68l.22.23a1.43,1.43,0,0,0,.26.23,1.14,1.14,0,0,0,.3.18C106,9.44,104.88,10.21,104.55,10.39Z"/><path d="M95,4.64a6.65,6.65,0,0,1,.06-1.43A4.56,4.56,0,0,1,96.24.85a3.12,3.12,0,0,1,1-.69,3.36,3.36,0,0,1,.5-.16,1.81,1.81,0,0,1,.55.08,6.63,6.63,0,0,0,.82.16l.23,0h.54a5.06,5.06,0,0,1,1.34.3,13.22,13.22,0,0,1,2.58,1.34,19.26,19.26,0,0,1,2.39,1.74A7.9,7.9,0,0,1,108,5.93,11.75,11.75,0,0,1,109,8.45a3.75,3.75,0,0,1-2.16.36,1.4,1.4,0,0,1-.53-.27c-.15-.12-.27-.29-.45-.46a5.56,5.56,0,0,0-1.1-.79,13.89,13.89,0,0,0-2.31-1,14.39,14.39,0,0,0-2.57-.62c-.47-.07-.88-.11-1.32-.16s-.88-.1-1.33-.13a6,6,0,0,0-1.4.07,2.68,2.68,0,0,0-.75.26C95,5.34,95,5,95,4.64Z"/><path d="M109.6,11.4a6.1,6.1,0,0,1,4,1.78,6.32,6.32,0,0,0-2-.72c-.94-.2-1.89-.38-2.87-.5a12,12,0,0,0-1.48-.11,5,5,0,0,0-.76.07l-.4.09-.32.08a17.67,17.67,0,0,1-2.75.27l-.38-.43-.34-.49a9.21,9.21,0,0,0,2.35-.69l.22-.14A41,41,0,0,1,109.6,11.4Z"/><path d="M109.17,8.82a10.6,10.6,0,0,1,1.8.61,9.59,9.59,0,0,1,1.75,1,3.55,3.55,0,0,1,.73.66,2.92,2.92,0,0,1,.44.84,3.69,3.69,0,0,1,.18,1.51,4.79,4.79,0,0,0-2-1.83,9.05,9.05,0,0,0-2.41-.64,28.63,28.63,0,0,0-4.69-.39,6.09,6.09,0,0,0,.74-.51,4.51,4.51,0,0,0,.84-.85,1.52,1.52,0,0,0,.28.09A4.27,4.27,0,0,0,109.17,8.82Z"/></svg>