<svg id="Layer_1" data-name="Layer 1" xmlns="http://www.w3.org/2000/svg" width="128" height="128" viewBox="0 0 128 128"><title>Tree kangaroo gliph</title><path d="M51.85,56.54c.38-.46,1.84-1.95,1.84-1.95s-1.29-1.07-1.82-1.48-1.7-1-1.67-1.2a5,5,0,0,1,2,.62l.37.2a5.61,5.61,0,0,0,.16-.62c.06-.29.24-1,.25-1s-3.22-.8-4.3-1l-.38,0h-.48a6,6,0,0,1-1-.1,6.28,6.28,0,0,1-1.83-.57,2.12,2.12,0,0,1-1.19-1.53A6.08,6.08,0,0,1,44,46a15.84,15.84,0,0,1,1.11-3.54c.23-.57.47-1.11.71-1.66a10.63,10.63,0,0,0,.59-1.59,22.93,22.93,0,0,0,.71-3.41,14.35,14.35,0,0,0,.06-3.53c-.06-.16-.12-.34-.17-.52a8.54,8.54,0,0,0-.4,1.87l-.27,2.2A19.33,19.33,0,0,1,45.92,38a4.34,4.34,0,0,1-.39,1.13,2.19,2.19,0,0,1-.17.29,1.75,1.75,0,0,1-.23.27c-.12.11-.25.24-.37.37-.49.54-1,1.09-1.52,1.63a13,13,0,0,1-1.74,1.47,5,5,0,0,1-2.14.89c-.55.06-1.11.12-1.67.16-.33.66-.65,1.31-1,2-.4.82-.71,1.63-1,2.48s-.63,1.62-.92,2.43c.54.67,1.29,1.12,1.89,1.74s1.1,1.1,1.68,1.63a1.17,1.17,0,0,0,.6.29c.84.16,1.49.53,2.33.76s1.92.58,2.86.91a27.4,27.4,0,0,1,2.78,1.2,17.27,17.27,0,0,1,1.92,1.17.45.45,0,0,0,.54,0l1.83-1.55a.33.33,0,0,0,0-.45c-.3-.39-1.38-1.59-1.23-1.73S51.85,56.54,51.85,56.54Zm4.89-28.42c-.64,0-1.27-.06-1.89-.06-.3,0-.61,0-.91,0l-.44.07-.47.11a10.81,10.81,0,0,0-3.47,1.44,5.47,5.47,0,0,0-2.15,2.78,8.74,8.74,0,0,1,.71,3.34A11.78,11.78,0,0,1,48,37.72a12.07,12.07,0,0,1-.32,1.86,7,7,0,0,1-.44,1.26c.53-.47,1.07-.92,1.61-1.37,1.14-.9,2.28-1.76,3.42-2.65.56-.45,1.13-.89,1.62-1.36.21-.2.5-.5.77-.74a7.88,7.88,0,0,1,.92-.69,6.33,6.33,0,0,1,2.14-.9,4.51,4.51,0,0,1,2.13.09,18.66,18.66,0,0,1,0-2.48c0-.42.07-.85.14-1.27l.2-1.19C59,28.25,57.89,28.17,56.74,28.12ZM62,51.58h0a12.22,12.22,0,0,1-1.31-1A11.52,11.52,0,0,1,59,48.89a6,6,0,0,1-1.16-2.26,2.85,2.85,0,0,1-.09-.67v-.6a8.9,8.9,0,0,0-.11-1.1,45.55,45.55,0,0,0-1.13-4.5c-.36-1.27-.76-2.53-1.22-3.77l-.54.46c-.63.45-1.24.83-1.85,1.22-1.22.78-2.44,1.54-3.64,2.33-.8.52-1.6,1-2.37,1.61L46.18,43l-.42.87a6.78,6.78,0,0,1,1.93.7,10.73,10.73,0,0,1,2,1.38,7.22,7.22,0,0,1,1.63,1.81,4.7,4.7,0,0,1,.58,1.94l.55.2c.3.11.58.25.87.38l.23.12a.62.62,0,0,1,.34.49,25.65,25.65,0,0,0,4.21.84,17.46,17.46,0,0,1,2.38.33,9,9,0,0,1,1.88.68C62.23,52.34,62.13,52,62,51.58Zm11.9,3.8c-1.57-.79-3.13-1.61-4.69-2.43L69,52.84l-.06-.26c-.16-.68-.29-1.33-.43-2s-.28-1.32-.36-2a18.78,18.78,0,0,1,.12-4.18c.07-.56.15-1.08.23-1.64a.83.83,0,0,1-.49-.08,2,2,0,0,1-.58-.51,6.16,6.16,0,0,1-.68-1.29c-.35-.9-.59-1.81-.86-2.71-.12-.43-.25-.88-.39-1.3a3.15,3.15,0,0,0-.55-1.06.48.48,0,0,0-.19-.09,1.07,1.07,0,0,1-.4-.26,1.49,1.49,0,0,1-.37-.88A5.59,5.59,0,0,1,64.07,33c.17-1,.4-1.85.57-2.76a7.86,7.86,0,0,0,.15-1.35,2,2,0,0,0-.08-.61c-.07-.19-.15-.29-.27-.29a1,1,0,0,0-.54.18,3.5,3.5,0,0,0-.55.4c-.35.28-.69.61-1,.93-.54.55-1.08,1.12-1.64,1.67a20.21,20.21,0,0,1-.51,2.11c0,.15,0,.3,0,.44l.51,5.67c.09,1,.18,2,.29,3,.06.51.11,1,.2,1.5a13.31,13.31,0,0,0,.33,1.43c.53,2,1.15,3.9,1.67,5.89.14.49.26,1,.36,1.51.06.23.1.6.14.7a2.54,2.54,0,0,0,.26.56,17.23,17.23,0,0,0,1.93,2.17.58.58,0,0,1,.15.25l.49,1.76a.36.36,0,0,0,.39.26l1.31-.16a.35.35,0,0,0,.31-.34l0-1.51a.11.11,0,0,1,.2-.06c.36.58,1.21,1.88,1.56,2.42a.36.36,0,0,0,.6,0,1.41,1.41,0,0,1,.8-.55.36.36,0,0,0,.2-.54c-.25-.36-1-1.46-1.33-2a.1.1,0,0,1,.13-.14l2.77,1.28a.25.25,0,0,0,.34-.16L74,55.66A.25.25,0,0,0,73.92,55.38Zm-.2-34.16.06-.65a6.57,6.57,0,0,1,.09-.66,27.72,27.72,0,0,1,1.54-5,23,23,0,0,1,1.13-2.34A8.09,8.09,0,0,1,78,10.67a12.21,12.21,0,0,1-.84-.92c-.23-.29-.46-.61-.67-.93l-.22-.41L74.7,9.66l-.07.06-.1,0c-1.33-.44-2.69-.84-4-1.27s-2.7-.83-4-1.22S63.76,6.4,62.4,6.05s-2.72-.68-4.08-.9h0l-.06,0a37.3,37.3,0,0,0-4.72-1.28,46.75,46.75,0,0,0-4.88-.77,27.18,27.18,0,0,0-9.8.64,20.1,20.1,0,0,0-2.33.83c-.39.15-.75.34-1.13.52s-.72.38-1.07.62a32.25,32.25,0,0,0-3.94,3,44.59,44.59,0,0,0-3.54,3.47c-1.12,1.21-2.17,2.47-3.17,3.78A46.18,46.18,0,0,0,20.87,20a22.08,22.08,0,0,0-1.14,2.14,10.81,10.81,0,0,0-.44,1.09A6.43,6.43,0,0,0,19,24.31a33.92,33.92,0,0,0-.4,4.87c-.06,1.64.07,8.26.21,9.9.08.82.16,1.63.27,2.45a12.25,12.25,0,0,0,.52,2.32,47.85,47.85,0,0,0,2.09,4.48c.71,1.38,1.49,2.73,2.31,4.05l1.13-.27c1.14-.28,2.28-.55,3.43-.81l-.17,0a4,4,0,0,1-1.75-1,12.11,12.11,0,0,1-2.23-3l.12-.06a12.29,12.29,0,0,0,2.52,2.57,3.08,3.08,0,0,0,1.49.65,5.27,5.27,0,0,0,1.59-.23c3.49-.7,4.24-2.73,4.93-3.18v0a11.75,11.75,0,0,1,.64-1.28,23.35,23.35,0,0,1,1.51-2.38c.29-.39.56-.77.86-1.12.16-.18.31-.37.48-.54a3.08,3.08,0,0,1,.26-.24.91.91,0,0,1,.33-.22l0,.13a3.63,3.63,0,0,0-.34.54l-.32.61-.61,1.24c-.06.13-.12.25-.17.37.5-.16,1-.31,1.51-.45a5.23,5.23,0,0,0,1.81-1,15.75,15.75,0,0,0,1.56-1.5c.5-.53,1-1.09,1.48-1.63.13-.14.27-.28.41-.41a.88.88,0,0,0,.14-.15l.11-.18a5.53,5.53,0,0,0,.36-1c.19-.68.33-1.4.51-2.12s.31-1.44.51-2.16A7.35,7.35,0,0,1,47,31.67c0-.15-.08-.31-.11-.46a8.53,8.53,0,0,1-.09-1.42,5.58,5.58,0,0,0-.38-2.56,5,5,0,0,0-.3-.56c-.13-.18-.23-.37-.37-.53a4,4,0,0,0-.89-.9,6.62,6.62,0,0,0-2.42-1,20.33,20.33,0,0,0-5.47-.37,25.78,25.78,0,0,0-2.76.27,15.57,15.57,0,0,0-2.7.63l0-.09a15.69,15.69,0,0,1,2.69-.8c.92-.19,1.84-.33,2.78-.44a21,21,0,0,1,5.65.12,7.61,7.61,0,0,1,2.76,1,4.09,4.09,0,0,1,.61.49,5.23,5.23,0,0,1,.5.57c.15.18.28.41.43.61s.24.45.33.69a4.82,4.82,0,0,1,.3,1.48,8.45,8.45,0,0,1-.11,1.45,8.82,8.82,0,0,0-.07,2.46l0,.08a5.79,5.79,0,0,1,2-3,11.37,11.37,0,0,1,3.54-1.75l.47-.15.51-.13a8.55,8.55,0,0,1,1-.13,10.27,10.27,0,0,1,2,.05,15.92,15.92,0,0,1,3.45.83h0c.6-1,1.21-2,1.85-3,.33-.49.66-.95,1-1.42a9.15,9.15,0,0,1,1.15-1.33l.06.06a11.15,11.15,0,0,0-1,1.42c-.29.5-.58,1-.85,1.51-.54,1-1.06,2-1.55,3l-.07,1.22c0,.42-.08.85-.15,1.26l0,.17c.48-.54.94-1.09,1.42-1.63.32-.36.63-.7,1-1a5.2,5.2,0,0,1,.57-.46,1.34,1.34,0,0,1,.76-.29.72.72,0,0,1,.47.19,1,1,0,0,1,.23.38,2.36,2.36,0,0,1,.14.76,8.62,8.62,0,0,1-.09,1.45c-.13.94-.32,1.86-.44,2.76a5.11,5.11,0,0,0,0,1.29.78.78,0,0,0,.19.41.22.22,0,0,0,.12.05,1.3,1.3,0,0,1,.48.25,2.4,2.4,0,0,1,.5.7,3.93,3.93,0,0,1,.31.7c.16.45.27.92.39,1.38.2.92.36,1.84.58,2.72a7,7,0,0,0,.44,1.27,1,1,0,0,0,.76.66l0-.23a7.77,7.77,0,0,1,.8-2.08c.67-1.23,1.42-2.35,2.1-3.49a17.84,17.84,0,0,0,.93-1.7c.06-.14.11-.27.17-.43s.13-.35.21-.51a8.55,8.55,0,0,1,.51-.95C74,32,74.92,31,75.63,29.88l.27-.47a9.13,9.13,0,0,0-.82-2.06,2.91,2.91,0,0,0-.71-.89,2.06,2.06,0,0,1-.52-.57,3.11,3.11,0,0,1-.31-.7,4.84,4.84,0,0,1-.11-1.4,11.17,11.17,0,0,1,.14-1.31Q73.66,21.85,73.72,21.22ZM86.36,57.83a9.27,9.27,0,0,0-1.76-.93,6.92,6.92,0,0,0-.94-.32,6.63,6.63,0,0,1-1.06-.36,3.38,3.38,0,0,1-1-.7,7.84,7.84,0,0,1-.49-.65,1.36,1.36,0,0,1-.27-.67c-.08-.6-.24-1.82-.3-2.48-.08-.89-.18-1.79-.32-2.65s-.27-1.87-.39-2.79a6.21,6.21,0,0,1-.26.59,4.54,4.54,0,0,1-.54.91,2.28,2.28,0,0,1-.89.74l-.22.09-.19-.17a5,5,0,0,1-1.18-1.76,17.44,17.44,0,0,1-.61-1.9c-.17-.64-.31-1.28-.48-1.89l-.15-.45c0-.15-.1-.27-.17-.44a5.36,5.36,0,0,1-.26-1A5,5,0,0,1,75,39c0-.18.09-.34.14-.5l.09-.24c0-.08,0-.13.07-.2a1.84,1.84,0,0,0-.06-.86,12.3,12.3,0,0,0-.76-1.76c-.17-.34-.35-.68-.51-1a1.6,1.6,0,0,0-.1.23c-.07.14-.1.28-.16.42a3.24,3.24,0,0,1-.19.52,14.29,14.29,0,0,1-.93,1.88c-.67,1.19-1.4,2.32-2,3.47a7.68,7.68,0,0,0-.52,1.19c.45.86.83,1.76,1.21,2.64.49,1.16.82,2.37,1.29,3.52a11.47,11.47,0,0,0,.76,1.66l1,1.62a33.22,33.22,0,0,0,2.19,2.88.35.35,0,0,1,0,.41,1,1,0,0,0-.11.79s.08.21.11.27a3.15,3.15,0,0,0,.46.61c.18.2,1.93,1.92,2.64,2.56a.58.58,0,0,0,.56.11l.85-.27a.27.27,0,0,1,.29.08l1.17,1.4a.32.32,0,0,0,.29.14h.7a.38.38,0,0,0,.34-.51l-.37-1a.47.47,0,0,1,.09-.49l0,0a.48.48,0,0,1,.61-.09l1.9,1.16.22-.2A4.3,4.3,0,0,1,86.8,59a5.12,5.12,0,0,1,.57-.3A5.41,5.41,0,0,0,86.36,57.83ZM87.76,3.5a7,7,0,0,0-.09-.8A1.82,1.82,0,0,0,87.46,2a7,7,0,0,0-1-1.17,7.09,7.09,0,0,0-1.2-1l-.16-.08a4.72,4.72,0,0,0-.57.59c-.14.21-.29.46-.45.68s-.24.46-.35.69c-.44.93-.89,1.86-1.34,2.8a2.22,2.22,0,0,1,.46.54,6.06,6.06,0,0,1,3.76-.55,5.18,5.18,0,0,1,1.16.35,3,3,0,0,0,0-.6A5.45,5.45,0,0,0,87.76,3.5ZM98.6,18.92c.62,0,.26.73,1.77.73a3.4,3.4,0,0,0-.24-2,1.7,1.7,0,0,0-.23-.37l-.09-.07-.11-.11-.23-.2c-.27-.28-.55-.55-.81-.84a39.33,39.33,0,0,1-3-3.58l0-.05,0-.08a4.38,4.38,0,0,0-1-1.56,11.66,11.66,0,0,0-1.46-1.34C92.13,8.61,91,7.84,89.9,7l-.83-.63c-.27-.22-.52-.43-.79-.61a6.21,6.21,0,0,0-1.79-.83,6.12,6.12,0,0,0-3.66.2.13.13,0,0,0,0,.06,4.26,4.26,0,0,1,.4,1.27A9,9,0,0,1,83.35,9c.25.24.47.5.7.74l-.89-.66V9a10.36,10.36,0,0,0-.38-2.44,5.22,5.22,0,0,0-.45-1.08,2.21,2.21,0,0,0-.84-.67,9.84,9.84,0,0,0-2.26-.75c-.69-.16-1.4-.26-2.1-.36a13.72,13.72,0,0,0-.47,1.75,5.35,5.35,0,0,0,0,2.07,3.86,3.86,0,0,0,.16.48c.07.17.14.33.22.48.16.33.35.64.54,1a16.33,16.33,0,0,0,1.34,1.76l0,0v0c0,.19-.09.37-.15.56a4,4,0,0,1-.18.56,4,4,0,0,0,.07-.58l0-.51c-.24-.2-.45-.4-.66-.61a7.9,7.9,0,0,0-1.29,2c-.37.77-.68,1.57-1,2.37A27.37,27.37,0,0,0,74.52,20a8.57,8.57,0,0,0-.07,1.25c0,.45,0,.87-.07,1.3a10.2,10.2,0,0,0,0,2.42,1.48,1.48,0,0,0,.48.88,3.31,3.31,0,0,1,.77,1.21,6.51,6.51,0,0,1,.41,2.07,8.68,8.68,0,0,0,.45-1,17.14,17.14,0,0,0,.6-1.88,10.78,10.78,0,0,0,.35-2,3.56,3.56,0,0,0-.29-1.91l.12-.07a3.66,3.66,0,0,1,.52,2,12.78,12.78,0,0,1-.16,2.05,15.67,15.67,0,0,1-.47,2,10.05,10.05,0,0,1-.81,1.94c-.64,1.24-1.51,2.3-2.12,3.42-.08.15-.17.31-.24.46l.63,1.07A11.27,11.27,0,0,1,75.57,37a2.32,2.32,0,0,1,.14,1.06c0,.08,0,.21-.08.27s0,.15-.07.22a3.78,3.78,0,0,0-.1.46,4.34,4.34,0,0,0,0,1.83,4.39,4.39,0,0,0,.27.87c.06.12.14.3.2.46s.13.31.18.47l.62,1.87c.21.61.41,1.21.66,1.78a6,6,0,0,0,.72,1.33,2,2,0,0,0,.41-.33,5.37,5.37,0,0,0,.59-.73c.23-.31.43-.65.64-1-.1-.64-.18-1.28-.28-1.91-.07-.44-.14-.88-.23-1.32a5.42,5.42,0,0,0-.14-.65c-.05-.2-.1-.41-.15-.67a12.32,12.32,0,0,1-.12-2.83c0-.91.13-1.82.18-2.71a14.26,14.26,0,0,0,0-2.61v-.09a6.43,6.43,0,0,1,.38-1.65,10.39,10.39,0,0,0,.4-1.44,8.23,8.23,0,0,0,.1-1.49,8,8,0,0,1,0-.83,4.36,4.36,0,0,1,.14-.83,9.06,9.06,0,0,1,1.52-2.89c.31-.44.62-.86.92-1.27l.41-.64c0-.09.09-.19.13-.27l-.08,0-.34-.1a1.74,1.74,0,0,1-.33-.18,4.32,4.32,0,0,1-.89-1A12.53,12.53,0,0,1,80.29,18a21.3,21.3,0,0,1-.78-2.29c.38.71.74,1.42,1.14,2.11a15.45,15.45,0,0,0,1.29,2,3.62,3.62,0,0,0,.77.75.88.88,0,0,0,.2.09l.24.06.59.12,2.34.5q2.85.39,5.69.9c.94.15,1.88.39,2.81.52a5.09,5.09,0,0,0,1.4.07,2.11,2.11,0,0,0,.88-.45l-.17-.09L96.17,22l-1-.55-1-.5A5.14,5.14,0,0,0,93,20.64a6.85,6.85,0,0,1,2.21.64l1.07.45.53.22a4.23,4.23,0,0,0,.5.17,2.14,2.14,0,0,0,1.83-.77,8.15,8.15,0,0,0,.75-.8,2.14,2.14,0,0,0,.38-.67,1.43,1.43,0,0,1-1.06.5,1.5,1.5,0,0,1-1.14-.73C97.74,19.05,98.6,18.92,98.6,18.92Zm-5.58-4a3.79,3.79,0,0,0-.43-.24l-.23-.12a.9.9,0,0,1,.06.34,1,1,0,1,1-1.55-.75c-.28,0-.6-.05-.94-.06a1.74,1.74,0,0,1,.94-.61,2.15,2.15,0,0,1,1.18,0,2.28,2.28,0,0,1,1,.65,2.52,2.52,0,0,1,.3.48,2.29,2.29,0,0,1,.16.55A4,4,0,0,1,93,14.91ZM106.73,119a1.42,1.42,0,0,0-1.17-.42,2.3,2.3,0,0,0-.68.22l-.8.36-1.62.67c-1.08.45-2.16.87-3.27,1.27a52.85,52.85,0,0,1-13.65,3.12,34.75,34.75,0,0,1-13.92-1.57,47,47,0,0,1-6.43-2.79,45.51,45.51,0,0,1-5.91-3.77,47.69,47.69,0,0,1-9.75-10,61.72,61.72,0,0,1-6.82-12.18,88.24,88.24,0,0,1-4.38-13.25c-.57-2.25-2.56-10.86-3-12.91L33.8,68c-1.44.31-2.64.6-4.06,1,.56,2,2.38,10.65,3,12.87A101.12,101.12,0,0,0,37.42,95,72.56,72.56,0,0,0,44.13,107a57.06,57.06,0,0,0,4.3,5.39,49.46,49.46,0,0,0,5,4.74,48.4,48.4,0,0,0,5.6,4,44.47,44.47,0,0,0,6.15,3,52.83,52.83,0,0,0,6.53,2.1,52.17,52.17,0,0,0,6.76,1.25A43.6,43.6,0,0,0,92.12,127a42.68,42.68,0,0,0,12.79-4.9c.5-.29,1-.58,1.48-.89a1.36,1.36,0,0,0,.71-1A1.39,1.39,0,0,0,106.73,119Zm21.15-34.85,0-7.78c-2-.91-4-1.87-6-2.83s-20.88-6-23-7.13S94.78,64.22,92.76,63c-1.53-.92-3.06-1.84-4.53-2.85a2.47,2.47,0,0,1,0,1.61.13.13,0,0,1-.24,0A15,15,0,0,0,86.77,60l-.23.25a.48.48,0,0,1-.66.09L84.2,59.25l.4,1.2a.42.42,0,0,1-.35.55,2.31,2.31,0,0,1-.45,2,.11.11,0,0,1-.2,0c-.15-.69-.37-1.93-.58-2l0,0h-.38a.71.71,0,0,1-.51-.26l-1-1.32a.31.31,0,0,0-.2-.11,2.32,2.32,0,0,1-.39,2.2.13.13,0,0,1-.22-.05,9.69,9.69,0,0,0-.49-1.91.62.62,0,0,1-.33-.13c-.5-.43-1.68-1.46-2.31-2-.19-.2-.39-.39-.57-.59a3,3,0,0,1-.55-.7l-.06-.14a6.56,6.56,0,0,0-1.15-.2l-.08.24a2.39,2.39,0,0,1,1,1.87.12.12,0,0,1-.19.1c-.33-.25-.78-.63-1.16-.88l-.22.72a.24.24,0,0,1-.34.13L71.84,56.8l.64,1.06a.36.36,0,0,1-.1.48l-.26.17a2.32,2.32,0,0,1,.39,2.21.12.12,0,0,1-.22,0,9.88,9.88,0,0,0-1.1-1.61l-.53.37a.37.37,0,0,1-.5-.1c-.3-.47-.89-1.37-1.21-1.85l0,.86a.36.36,0,0,1-.29.36l-.55.1a2.37,2.37,0,0,1-.67,2.18.12.12,0,0,1-.21-.08A10.69,10.69,0,0,0,67,59.09l-.64.13A.37.37,0,0,1,66,59l-.78-2.18A11.19,11.19,0,0,1,63,54.63a2.78,2.78,0,0,1-.43-.8c-.11-.4-.11-.54-.18-.8,0,0,0,0,0,0A42.6,42.6,0,0,1,58,52.39l-3.65-.78a2.23,2.23,0,0,1,.81,1.14.12.12,0,0,1-.16.15,11.63,11.63,0,0,0-1.76-.61,2.62,2.62,0,0,1-.39.55,8.59,8.59,0,0,1,1.81,1.52c.08.13,0,.44-.3.72l-.21.16a2.26,2.26,0,0,1,.55,1.92.12.12,0,0,1-.21.06,15.41,15.41,0,0,0-1.25-1.35,12.81,12.81,0,0,1-1.25.77.12.12,0,0,1,.05,0,1,1,0,0,1,.13.32.84.84,0,0,1-.21.67l-.72.78a2.25,2.25,0,0,1,.46,1.83.12.12,0,0,1-.21.06c-.27-.31-.66-.78-1-1.1l-1,1.1a.45.45,0,0,1-.52.11s-3.81-2.09-5.43-2.83-5.18-2.05-5.18-2.05a1.24,1.24,0,0,1-.41-.31c-.35-.42-1.23-1.41-1.73-1.94s-1.32-1.29-2-1.91L34,51.33l0-.22c0-.26.08-.52.12-.8-1.4.33-2.8.7-4.21,1.08s-3.11.86-4.65,1.31c-.77.22-1.58.43-2.31.67s-1.5.57-2.24.87c-1.4.56-19.48,6.41-20.85,7a30.55,30.55,0,0,0,.3,3.81,25.86,25.86,0,0,0,.9,4,13.7,13.7,0,0,0,1.74,3.61A7,7,0,0,0,5.54,75c3.71-1.23,24.15-7.54,28-8.34a58.18,58.18,0,0,1,5.93-1l.75-.08.75,0,.76,0h.76a15.56,15.56,0,0,1,3.1.25,42.33,42.33,0,0,0,5.81.63c2,.11,4,.2,5.94.35a50.21,50.21,0,0,1,6,.72,16.29,16.29,0,0,1,2.94.82,9.24,9.24,0,0,1,1.41.7l.32.23.31.23c.19.15.4.3.59.46.78.63,1.53,1.3,2.26,2a10.41,10.41,0,0,0,1.07,1,2.27,2.27,0,0,0,1.21.43c.23,0,.46,0,.71,0h.76c.5,0,1,.06,1.5.11,1,.09,2,.21,3,.36a35.28,35.28,0,0,1,5.81,1.37,15.39,15.39,0,0,1,2.75,1.23c.85.52,1.7,1,2.59,1.45,3.49,1.84,7.11,3.47,10.71,5.12l2.7,1.24,18,4.59.68.33.18.09.1.06,0,0,.11.08,0,.07,0,0s0,0,0,0,0,0,0,0h0l.14.08c.84.41,1.77.79,2.68,1.17l2,.8C127.9,89,127.88,86.58,127.88,84.14Z"/></svg>