<?xml version="1.0" encoding="utf-8"?>
<!-- Generator: Adobe Illustrator 24.1.2, SVG Export Plug-In . SVG Version: 6.00 Build 0)  -->
<svg version="1.1" id="Layer_1" xmlns="http://www.w3.org/2000/svg" xmlns:xlink="http://www.w3.org/1999/xlink" x="0px" y="0px"
	 viewBox="0 0 128 128" style="enable-background:new 0 0 128 128;" xml:space="preserve">
<style type="text/css">
	.st0{fill:#2D2D2D;}
</style>
<g>
	<path class="st0" d="M33.8,77.9h6.5c0-1.6,0-3.3,0-4.9h-6.5C33.8,74.6,33.8,76.3,33.8,77.9z"/>
	<path class="st0" d="M31.9,94.6C31.8,89,31.8,83.5,31.8,78c0-5.4,0.1-10.8,0.2-16.3c-1.5-1.9-2.9-3.8-4.4-5.7l-4.7,5.6
		c-0.1,5.5-0.2,11.1-0.1,16.6c0,5.6,0.3,11.2,0.4,16.8c0.2,5.6,0.2,11.2,0.1,16.8c0,5.4-0.1,10.8-0.3,16.2c1.5,0,9-0.3,9-0.3
		l0.5-7.8l-0.2-8.5C32.1,105.7,32,100.1,31.9,94.6z"/>
	<path class="st0" d="M57.9,109.1h-6.3c0,1,0,2-0.1,3l-0.1,1.9H58c0-0.8,0-1.5,0-2.3C57.9,110.9,57.9,110,57.9,109.1z"/>
	<path class="st0" d="M50.1,94.6C50,89,50,83.5,50,78c0-5.4,0.1-10.8,0.2-16.3c-1.5-1.9-2.9-3.8-4.4-5.7l-4.7,5.6
		c-0.1,5.5-0.2,11.1-0.1,16.6c0,5.6,0.3,11.2,0.4,16.8c0.2,5.6,0.2,11.2,0.1,16.8c0,5.4-0.1,10.8-0.3,16.2c1.5,0,9.4-0.4,9.4-0.4
		l0.1-7.8l-0.2-8.5C50.3,105.7,50.2,100.1,50.1,94.6z"/>
	<path class="st0" d="M39.7,109.1h-6.3c0,1,0,2-0.1,3l-0.1,1.9h6.5c0-0.8,0-1.5,0-2.3C39.8,110.9,39.7,110,39.7,109.1z"/>
	<path class="st0" d="M21.5,109.1h-6.1c0,0.9,0,1.7,0,2.6c0,0.8,0,1.5,0,2.3h6.2c0-0.8,0-1.5,0-2.3C21.6,110.9,21.5,110,21.5,109.1z
		"/>
	<path class="st0" d="M3.6,109.1H0v4.9h3.7l-0.1-1.9C3.6,111.1,3.6,110.1,3.6,109.1z"/>
	<path class="st0" d="M52,77.9h6.5c0-1.6,0-3.3,0-4.9H52C52,74.6,52,76.3,52,77.9z"/>
	<path class="st0" d="M3.2,73H0v4.9h3.2C3.2,76.3,3.2,74.6,3.2,73z"/>
	<path class="st0" d="M14.9,77.9h7.2c0-1.6,0-3.3,0-4.9h-7.2C14.9,74.6,14.9,76.3,14.9,77.9z"/>
	<path class="st0" d="M9.4,56C8,57.9,6.5,59.8,5,61.7C5.1,67.2,5.2,72.6,5.2,78c0,5.5,0,11-0.1,16.6c-0.1,5.5-0.2,11.1-0.3,16.8
		l-0.2,8.5l0.1,7.8c0,0,7.9,0.4,9.4,0.4c-0.2-5.4-0.3-10.8-0.3-16.2c-0.1-5.6,0-11.2,0.1-16.8c0.1-5.6,0.4-11.2,0.4-16.8
		c0-5.5,0-11.1-0.1-16.6L9.4,56z"/>
	<path class="st0" d="M106.6,77.9h6.5c0-1.6,0-3.3,0-4.9h-6.5C106.6,74.6,106.6,76.3,106.6,77.9z"/>
	<path class="st0" d="M88.4,77.9h6.5c0-1.6,0-3.3,0-4.9h-6.5C88.4,74.6,88.4,76.3,88.4,77.9z"/>
	<path class="st0" d="M112.5,109.1h-6.3c0,1,0,2-0.1,3l-0.1,1.9h6.5c0-0.8,0-1.5,0-2.3C112.5,110.9,112.5,110,112.5,109.1z"/>
	<path class="st0" d="M124.8,73c0,1.6,0,3.3,0,4.9h3.2V73H124.8z"/>
	<path class="st0" d="M124.4,112.1l-0.1,1.9h3.7v-4.9h-3.6C124.4,110.1,124.4,111.1,124.4,112.1z"/>
	<path class="st0" d="M122.9,94.6c-0.1-5.5-0.1-11.1-0.1-16.6c0-5.4,0.1-10.8,0.2-16.3c-1.5-1.9-2.9-3.8-4.4-5.7l-4.7,5.6
		c-0.1,5.5-0.2,11.1-0.1,16.6c0,5.6,0.3,11.2,0.4,16.8c0.2,5.6,0.2,11.2,0.1,16.8c0,5.4-0.1,10.8-0.3,16.2c1.5,0,9.5,0,9.5,0l0-8.1
		l-0.2-8.5C123.1,105.7,123,100.1,122.9,94.6z"/>
	<path class="st0" d="M86.5,94.6C86.4,89,86.4,83.5,86.4,78c0-5.4,0.1-10.8,0.2-16.3c-1.5-1.9-2.9-3.8-4.4-5.7l-4.7,5.6
		c-0.1,5.5-0.2,11.1-0.1,16.6c0,5.6,0.3,11.2,0.4,16.8c0.2,5.6,0.2,11.2,0.1,16.8c0,5.4-0.1,10.8-0.3,16.2c1.5,0,9.4,0,9.4,0
		l0.1-8.2l-0.2-8.5C86.7,105.7,86.6,100.1,86.5,94.6z"/>
	<path class="st0" d="M76.1,109.1h-6.3c0,1,0,2-0.1,3l-0.1,1.9h6.5c0-0.8,0-1.5,0-2.3C76.1,110.9,76.1,110,76.1,109.1z"/>
	<path class="st0" d="M70.2,77.9h6.5c0-1.6,0-3.3,0-4.9h-6.5C70.2,74.6,70.2,76.3,70.2,77.9z"/>
	<path class="st0" d="M68.3,94.6C68.2,89,68.2,83.5,68.2,78c0-5.4,0.1-10.8,0.2-16.3c-1.5-1.9-2.9-3.8-4.4-5.7l-4.7,5.6
		c-0.1,5.5-0.2,11.1-0.1,16.6c0,5.6,0.3,11.2,0.4,16.8c0.2,5.6,0.2,11.2,0.1,16.8c0,5.4-0.1,10.8-0.3,16.2c1.5,0,9.3-0.2,9.3-0.2
		l0.2-8l-0.2-8.5C68.5,105.7,68.4,100.1,68.3,94.6z"/>
	<path class="st0" d="M94.3,109.1H88c0,1,0,2-0.1,3l-0.1,1.9h6.5c0-0.8,0-1.5,0-2.3C94.3,110.9,94.3,110,94.3,109.1z"/>
	<path class="st0" d="M104.7,94.6c-0.1-5.5-0.1-11.1-0.1-16.6c0-5.4,0.1-10.8,0.2-16.3c-1.5-1.9-2.9-3.8-4.4-5.7l-4.7,5.6
		c-0.1,5.5-0.2,11.1-0.1,16.6c0,5.6,0.3,11.2,0.4,16.8c0.2,5.6,0.2,11.2,0.1,16.8c0,5.4-0.1,10.8-0.3,16.2c1.5,0,9.1-0.1,9.1-0.1
		l0.4-8l-0.2-8.5C104.9,105.7,104.8,100.1,104.7,94.6z"/>
</g>
</svg>
