<?xml version="1.0" encoding="utf-8"?>
<!-- Generator: Adobe Illustrator 24.1.2, SVG Export Plug-In . SVG Version: 6.00 Build 0)  -->
<svg version="1.1" id="Layer_1" xmlns="http://www.w3.org/2000/svg" xmlns:xlink="http://www.w3.org/1999/xlink" x="0px" y="0px"
	 viewBox="0 0 128 128" style="enable-background:new 0 0 128 128;" xml:space="preserve">
<style type="text/css">
	.st0{fill:#2D2D2D;}
</style>
<g>
	<path class="st0" d="M28.7,73.3c-1.1,1.5-2.1,2.9-3,4.4c-1.4,2.4-2.7,5-4,7.5c-1.3,2.5-2.5,5.1-3.7,7.7c-0.2,0.4-0.4,0.8-0.5,1.2
		c0.5,1.8,0.9,3.6,1.3,5.4c0.5,2.2,1,4.5,1.4,6.8c0.5,2.3,0.9,4.5,1.3,6.8l0.6,3.3h0c0.6,0,1.1,0,1.7,0l0.9,0l0.1,0.7l0.4,2.7
		c0.1,0.4,0.2,0.9,0.2,1.3c0,0,0,0.1,0,0.1c0.1,0,0.1,0.1,0.2,0.1c1.4-0.3,2.8-0.7,4.1-1.2c0-0.1,0.1-0.2,0.2-0.2c0,0,0,0,0.1,0
		c-1.1-1.4-2.2-2.9-3.1-4.5c-1.1-1.8-2-3.7-2.7-5.7c-0.2-0.5-0.3-1-0.5-1.5l-0.3-1.6l-0.6-3c-0.3-2-0.9-4-0.8-6.3
		c0-1.2,0.2-2.3,0.6-3.4c0.3-1.1,0.7-2,1.2-3c0.9-1.9,1.8-3.8,2.8-5.6c1.9-3.5,3.9-6.9,6.4-10c-0.8-0.6-1.6-1.1-2.5-1.5
		C30,73.5,29.3,73.3,28.7,73.3z"/>
	<path class="st0" d="M17.2,126.6l1.1,1.1h4.5l-2.2-2.2C19.5,125.9,18.3,126.2,17.2,126.6z"/>
	<path class="st0" d="M113.6,20c0-0.3-0.1-0.6-0.1-0.9c0-0.6,0-1.2,0.1-1.8c0.1-0.4,0.2-0.8,0.3-1.2l-0.1,0.1
		c-0.6,0.6-1.6,1.6-2.3,2.2l1.4,1.1L113.6,20z"/>
	<path class="st0" d="M6.5,95.1c0.2-1.2,0.4-2.4,0.9-3.5c0.2-0.6,0.5-1.1,0.7-1.6l0.7-1.5c0.9-2,1.4-4.1,1.5-6.2
		c0.1-2.1-0.2-4.3-0.7-6.4c-0.5-2.1-1.3-4.2-2-6.4c-0.7-2.2-1.3-4.5-1.4-6.9c-0.1-2.4,0.5-4.8,1.6-6.9c1.1-2.1,2.7-3.8,4.4-5.3
		c0,0,0,0,0.1,0c0,0,0-0.1,0-0.1c0.1-0.1,0.3-0.3,0.4-0.4c-0.6,0.1-1.2,0.3-1.8,0.4c-0.7,0.3-1.4,0.5-2.1,0.9
		c-1.4,0.6-2.7,1.4-4,2.3c-1.2,0.9-2.4,1.8-3.3,3c-0.3,0.4-0.6,0.8-0.8,1.1c0,0,0,0,0,0l2.1-0.5L2,59.1c-0.3,0.7-0.5,1.4-0.8,2.2
		c-0.3,0.7-0.5,1.5-0.7,2.2C0.2,64.8,0,66.1,0,67.3c0,0,0,0,0.1,0C0.4,67.1,0.7,67,1,66.9l0.6-0.2l0.1,0.6l0.3,2.5l0.2,2.5
		c0.1,1.7,0.3,3.3,0.4,5c0,1.1,0.1,2.2,0,3.3l2.4-7.4l-0.4,9c-0.1,1.5-0.2,3-0.3,4.5c-0.1,1.5-0.3,3-0.5,4.5c-0.2,1.5-0.4,3-0.7,4.5
		c0,0,0,0.1,0,0.1c0.1,0,0.1-0.1,0.2-0.1c0.1-0.1,0.2-0.2,0.3-0.2l0.2-0.1l0.1-0.1c0.1,0,0,0,0.3-0.1L5,94.8l0.1,1
		c0.1,0.7,0.2,1.4,0.3,2.1c0.1,0.7,0.3,1.4,0.6,2.1c0.2,0.7,0.5,1.3,0.9,1.9c0.3,0.4,0.6,0.8,1,1.1c-0.1-0.4-0.1-0.7-0.2-1.1
		C6.5,99.8,6.2,97.4,6.5,95.1z"/>
	<path class="st0" d="M85.8,125.2c-1.2,0.2-2.5,0.4-3.7,0.7l1.6,1.9l4.5,0.3l-2.3-2.6C85.9,125.3,85.8,125.2,85.8,125.2z"/>
	<path class="st0" d="M29.9,121c-0.5,0.2-1,0.4-1.6,0.6l-1.8,0.7l1.3,1.3h4.5l-2.5-2.5C30,121,29.9,121,29.9,121z"/>
	<path class="st0" d="M91.8,122.3c-1.1,0.3-2.3,0.6-3.4,1l1.3,1.6l4.5,0.3l-2.3-2.6C91.8,122.4,91.8,122.3,91.8,122.3z"/>
	<path class="st0" d="M84.2,103.5c-0.2,0.6-0.4,1.1-0.7,1.7l0,10.1l0,1.3c0,0.4,0,0.9,0.1,1.1c0,0.1,0,0.2,0.1,0.2
		c0.9,1.6,2.8,3.5,3.3,3.9c1.4-0.2,2.9-0.4,4.3-0.6c-1.1-0.9-2.1-1.8-3-3c-0.5-0.7-1-1.5-1.2-2.5c-0.2-1-0.2-1.8-0.3-2.7
		c-0.1-1.7-0.3-3.5-0.4-5.2c-0.1-1.7-0.2-3.5-0.2-5.2l0-0.2l0.1-0.3c0.2-0.5,0.5-1.1,0.7-1.7c0.2-0.6,0.3-1.2,0.5-1.8
		c0.2-1.2,0.3-2.4,0.1-3.5l-0.1-0.3l0.1-0.3c0.6-1.8,1-3.8,1.4-5.8c0.4-2,0.8-4,1.2-6l1.1-6c0.1-0.6,0.2-1.2,0.3-1.8
		c-0.3,0.3-0.5,0.5-0.8,0.8c-1.1,1-2.2,2-3.4,2.9c0,0.1,0,0.2,0,0.3c-0.1,2-0.3,4.1-0.5,6.1c-0.2,2-0.4,4.1-0.8,6.1
		c-0.3,2-0.6,3.9-1.2,5.9c0.2,1.4,0.1,2.8-0.1,4.2C84.6,102.1,84.5,102.8,84.2,103.5z"/>
	<path class="st0" d="M128,44.4c-0.2,0.2-0.5,0.3-0.8,0.3c-0.7,0-2.7-1.3-1.3-1.3c1.4,0,0.6-1.3,1.3-1.3c0.2,0,0.3,0,0.5,0.1
		c-0.1-0.4-0.2-0.9-0.2-1.3l-0.1-0.5c0-0.1,0-0.1-0.1-0.2c-0.1-0.2-0.2-0.4-0.3-0.7c-0.3-0.5-0.6-0.9-0.9-1.4
		c-0.7-0.9-1.4-1.8-2.2-2.7c-1.5-1.8-3.2-3.6-4.6-5.6l0-0.1v0c-0.5-1-1.2-1.9-1.9-2.9l-1.1-1.4c-0.3-0.3-0.5-0.6-0.8-1
		c-0.4-0.1-0.9-0.1-1.3-0.3c-0.6-0.2-1.2-0.4-1.7-0.8c-0.5-0.3-1-0.7-1.4-1.2c0,0,0-0.1,0-0.1c0,0,0.1,0,0.1,0h0
		c1.2,0.3,2.3,0.5,3.4,0.6c0.4,0,0.7,0.1,1.1,0.1c-0.5-0.5-1-1-1.5-1.5c-0.5-0.5-1-1.1-1.6-1.6c-0.4-0.4-0.8-0.9-1.2-1.4
		c0,0.1-0.1,0.3-0.1,0.4c-0.2,0.6-0.4,1.3-0.7,1.9c-0.2,0.6-0.5,1.3-0.6,1.9v0c0,0-0.1,0.1-0.1,0.1c0,0,0,0-0.1-0.1
		c-0.3-0.7-0.2-1.4-0.2-2.1c0-0.7,0.1-1.4,0.2-2.1c0.1-0.6,0.2-1.2,0.4-1.8c-0.5,0.5-0.9,1-1.4,1.5c-0.9,1.1-1.7,2.4-2.3,3.7l0,0
		l0,0l-1,1.1c0,0-0.1,0-0.1,0c0,0,0-0.1,0-0.1l0.8-1.2c0.3-0.9,0.7-1.8,1.1-2.7l-1.1,0.3l-0.7,0.3c-0.5,0.2-0.9,0.4-1.4,0.7
		c-0.9,0.5-1.8,0.9-2.7,1.4l-5.3,2.9c-3.5,1.9-7.1,3.9-10.6,5.8c-1.8,0.9-3.4,2-5,3.1c-1.7,1.1-3.3,2.3-4.9,3.6
		c-3.2,2.4-6.3,5.1-9.5,7.6l0,0l-0.1,0c-4.3,2.1-9.2,2.7-13.9,2.6c-4.7-0.1-9.4-0.6-13.9-1.3c-2.3-0.3-4.6-0.7-6.8-0.9
		c-2.2-0.2-4.5-0.3-6.7,0c-4.4,0.5-8.5,2.6-12.2,5.4v0c0,0,0,0-0.1,0c0,0,0,0.1,0,0.1c-1.5,1.7-2.8,3.5-3.6,5.5
		c-0.2,0.5-0.4,1-0.5,1.5c-0.2,0.5-0.3,1-0.3,1.6c-0.1,1.1-0.2,2.1-0.1,3.2c0.2,2.2,0.8,4.2,1.6,6.3c0.8,2.1,1.7,4.2,2.3,6.5
		c0.6,2.2,1,4.6,0.8,7c-0.1,2.4-0.8,4.8-1.9,6.9l-0.9,1.5c-0.3,0.5-0.5,0.9-0.7,1.4c-0.5,1-0.8,2-1,3c-0.2,1-0.3,2.1-0.2,3.2
		c0.1,1,0.4,2.1,0.8,3l0.1,0.1l0,0.1c0.3,1.9,0.5,3.7,0.8,5.6c0.3,1.9,0.6,3.7,0.9,5.6c0.3,1.9,0.7,3.7,1,5.6
		c0.2,0.8,0.3,1.7,0.5,2.5h0.1l0.7-0.1l1.4-0.1l0.5,0l0.1,0.5c0.2,0.9,0.4,1.8,0.7,2.6c0.1,0.4,0.2,0.9,0.4,1.3c0,0,0,0,0,0.1
		c0.8-0.3,1.6-0.6,2.4-0.9l1.3-0.5c-0.6-0.8-1.2-1.6-1.8-2.5c-0.8-1.2-1.5-2.6-2.1-3.9c-0.6-1.4-1.1-2.8-1.5-4.2
		c-0.2-0.7-0.3-1.5-0.5-2.2l-0.3-2.1l-0.7-4.2c-0.2-1.4-0.4-3-0.1-4.6c0.2-1.6,0.8-3.1,1.4-4.4c0.6-1.3,1.2-2.6,1.8-3.9
		c1.3-2.6,2.6-5.1,4-7.6c1.4-2.5,2.8-5,4.5-7.4c0.9-1.2,1.8-2.3,2.7-3.4c0.9-1.1,1.8-2.2,2.6-3.3c0.8-1.1,1.6-2.3,2.1-3.6
		c0.5-1.3,0.8-2.7,0.5-4.1c0-0.1,0-0.1,0.1-0.1c0.1,0,0.1,0,0.1,0.1c0.5,1.4,0.4,3-0.1,4.4c-0.4,1.4-1.1,2.7-1.8,4
		c-0.5,0.8-1,1.6-1.5,2.3c0.1,0,0.1,0,0.2,0c0.5,0,1.1,0.2,1.6,0.3c1,0.4,1.9,0.9,2.8,1.5c1.8,1.1,3.5,2.2,5.4,3.1
		c3.6,1.9,7.8,2.5,11.8,2.7c2.1,0.1,4.1,0.1,6.2-0.1c0.9-0.1,2-0.3,3-0.4l3.1-0.5c4.1-0.6,8.3-1.1,12.4-1.5l0,0l0,0
		c-0.2-0.9-0.3-1.8-0.5-2.7c-1.6-1.4-2.7-3.1-3.5-4.9c-0.8-2-1.2-4.2-0.5-6.5c0.1-0.3,0.2-0.5,0.3-0.8l0.1-0.2l0.1-0.1l0.1-0.2
		c0.1-0.3,0.2-0.7,0.1-1.2c-0.1-0.9-0.5-1.8-0.9-2.7C70.5,57.9,70,57,69.7,56c-0.3-1-0.6-2-0.6-3c0-0.1,0.1-0.1,0.1-0.1
		s0.1,0.1,0.1,0.1c0.3,2,1.4,3.6,2.4,5.4c0.5,0.9,1,1.8,1.3,2.9c0.1,0.5,0.1,1.2,0,1.8l-0.2,0.5l-0.1,0.4c-0.1,0.2-0.1,0.4-0.2,0.6
		c-0.3,1.7,0.1,3.6,0.8,5.3c0.4,0.9,0.8,1.7,1.4,2.4c0.5,0.7,1.2,1.4,1.9,1.9l0.3,0.2l0.1,0.4c0.5,2.4,1,4.9,1.4,7.4
		c0.4,2.5,0.6,5,0.6,7.6c0,1.3,0,2.6-0.2,3.9c0,0.3-0.2,0.7-0.2,1l-0.3,0.9c-0.2,0.6-0.4,1.2-0.6,1.8c-0.3,1.2-0.6,2.4-0.7,3.6
		c-0.1,1.2,0.2,2.4,0.6,3.6l0,0.1v0.1c-0.1,2.7-0.1,5.3-0.1,8l0,7.4c0.4,0.1,0.8,0.3,1.2,0.5c0.5,0.3,1.1,0.6,1.5,1
		c0.5,0.4,0.9,0.9,1.2,1.5c0.1,0.3,0.3,0.5,0.3,0.8c0.9-0.2,1.9-0.4,2.9-0.7c-0.8-0.7-1.5-1.4-2.2-2.2c-0.3-0.5-0.6-0.9-0.9-1.5
		l-0.8-0.3l0-0.8c0.1-1,0.1-1.9,0.1-2.9l0-0.2c-0.1-1.8-0.1-3.5-0.1-5.2c0-1.7,0-3.5,0-5.2l0-0.3l0.2-0.3c0.3-0.5,0.5-1.1,0.7-1.6
		c0.2-0.6,0.4-1.2,0.5-1.8c0.3-1.2,0.4-2.4,0.2-3.5l0-0.3l0.1-0.2c0.6-1.8,1.1-3.8,1.5-5.8c0.4-2,0.8-4,1.2-6
		c0.3-1.8,0.6-3.6,0.9-5.4c0-0.1,0.1-0.6,0.2-0.9c0.3-1.5,0.5-3,0.7-4.6c-0.3,0.2-0.6,0.4-1,0.5c0,0-0.1,0-0.1-0.1c0,0,0-0.1,0-0.1
		c0.8-1.2,1.4-2.3,1.9-3.6c0.5-1.2,1.2-2.4,1.7-3.7c0.5-1.3,0.9-2.6,1.3-4c0.4-1.3,0.8-2.7,1.2-4c0,0,0.1-0.1,0.1,0
		c0,0,0.1,0,0.1,0.1l-0.6,4.2c-0.2,1.4-0.5,2.8-0.9,4.2c-0.4,1.4-0.7,2.8-1.5,4.1c-0.5,0.8-1.1,1.6-1.9,2.2c0,1.1,0,2.2-0.1,3.2
		c0.6-0.9,1.2-1.7,1.9-2.6c0.6-0.8,1.3-1.6,1.9-2.4c0.5-0.6,0.8-1.4,1.2-2.3c0.6-1.8,1.2-3.7,1.6-5.6c0.4-2,0.9-3.9,1.2-5.9l0-0.2
		l0.1-0.1c1.2-1.2,2.1-2.6,2.8-4.2c0.7-1.6,1.1-3.2,1.8-4.8c0.6-1.6,1.4-3.1,2.2-4.6c0.6-1.2,1.3-2.4,2.1-3.6c-0.5-0.5-1-1.1-1.3-2
		v0l0,0l-0.3-3.4c0-0.6-0.1-1.1-0.1-1.7l0-0.8v-0.4l0-0.2l0-0.1c0,0,0-0.1,0.1-0.2c0,0,0.1,0,0.2,0c0.1,0.1,0.1,0.1,0,0.2
		c0,0,0,0.1,0,0.1l0,0.2l0.1,0.4l0.1,0.8l0.3,1.6l0.7,3.2v0c0.1,0.1,0.2,0.4,0.3,0.5c0.1,0.2,0.3,0.4,0.5,0.5
		c0.4,0.3,0.8,0.6,1.2,0.9c0.9,0.5,1.9,0.9,2.9,1.1c1,0.3,2.1,0.4,3.1,0.5c0.5,0,1.1,0.1,1.6,0.1l1.6,0l0.1,0l0.2,0.1
		c1.1,0.4,2.1,0.8,3,1.3c0.5,0.3,1,0.5,1.4,0.9c0.5,0.3,0.9,0.7,1.4,1.1c0.2,0.2,0.5,0.5,0.7,0.9l0.1,0.1l0,0.1l0.1,0.1
		c0,0.1,0.1,0.2,0.1,0.3c0.2,0.4,0.4,0.7,0.7,0.9c0.4,0.3,1.1,0.4,1.8,0.2c-0.2-0.1-0.4-0.3-0.6-0.5c-0.9-1-1.5-2-2.1-3.1
		c0-0.1,0-0.1,0-0.2c0.1,0,0.1,0,0.1,0c1,0.7,2,1.5,2.9,2c0.4,0.3,0.9,0.4,1.2,0.3c0.4,0,0.7-0.2,1-0.4c0.1-0.1,0.2-0.1,0.2-0.2
		c0-0.1,0.1-0.1,0.1-0.2c0.1-0.1,0.1-0.3,0.2-0.4C128,45.3,128,44.9,128,44.4z M114.5,30.3c-0.4,0.3-0.8,0.4-1.3,0.5
		c-0.5,0.1-1-0.1-1.5-0.3c-0.5-0.2-0.9-0.5-1.2-0.8h0l-0.3-0.3l0.3-0.5c0.3-0.5,0.6-0.8,1.1-1.1c0.4-0.3,1.1-0.5,1.7-0.4
		c0.5,0.1,1,0.3,1.4,0.7c0.4,0.3,0.8,0.8,0.7,1.3C115.3,29.8,114.9,30.1,114.5,30.3z"/>
</g>
</svg>
