<svg id="Layer_1" data-name="Layer 1" xmlns="http://www.w3.org/2000/svg" width="128" height="128" viewBox="0 0 128 128"><title>Cuscus gliph</title><path d="M40.1,98.79a38.62,38.62,0,0,1-4.4-7.29,33.68,33.68,0,0,1-2.55-8.11,35.4,35.4,0,0,1,.5-14.21C32.17,70.86,30.58,72.45,29,74s-3.55,3.21-5.44,4.7c-.95.74-1.91,1.45-2.92,2.12-.24.17-.53.35-.73.5a7,7,0,0,0-.62.49A13.37,13.37,0,0,0,18.11,83a46.09,46.09,0,0,0-4,5.71c-1.24,2-2.39,4.07-3.53,6.14S8.33,99,7.23,101.14C5.05,105.35,3,118.41.94,122.72l-.73,1.59A2.87,2.87,0,0,0,0,125.7a2.19,2.19,0,0,0,1.54,2,1.69,1.69,0,0,0,.33,0H3.22l1.79,0,3.56,0,14.25.15,3.56,0a3.91,3.91,0,0,0,2.82-1.43,15,15,0,0,0,2-2.84c.59-1,1.14-2.07,1.7-3.12s7.26-17.37,9-19.68C41.27,100.23,40.67,99.52,40.1,98.79Zm10.65-6.37.24.46v-.46A.49.49,0,0,0,50.75,92.42ZM69.54,66.07a8.5,8.5,0,0,1,1.48.32,6,6,0,0,1,1.4.61,3.15,3.15,0,0,1,1,.88c.2-.45.37-.9.53-1.35-.38-.17-.82-.32-1.24-.46l-1.46-.47-1.46-.46a7.83,7.83,0,0,0-1.5-.37,3.82,3.82,0,0,1,1.58,0,15.7,15.7,0,0,1,1.55.29l.25.08a4.57,4.57,0,0,0,.22-.62,1.77,1.77,0,0,0,.06-.63,6.56,6.56,0,0,0-.87-.14c-.35,0-.69,0-1,0s-.7,0-1,0-.72,0-1,.07h-.1c-.82,0-1.64-.09-2.46-.2-.41,0-.83-.1-1.24-.17l-.55-.1a14.82,14.82,0,0,1-3.33,3.43,5.75,5.75,0,0,1-1.61.79,3.43,3.43,0,0,1-.46.11l-.41.06-.8.12c-1.08.15-2.14.29-3.22.39l-1.51.13.69,0a10.31,10.31,0,0,1,2.23.34,4.34,4.34,0,0,1,1.89,1c.87-.1,1.72-.15,2.57-.19s1.86-.06,2.8-.06l2.77,0a20.76,20.76,0,0,0,2.67-.15A3.84,3.84,0,0,1,69.68,69a4,4,0,0,1,1.76.58c.29.19.36.28.56.25a.42.42,0,0,0,.26-.12l.24-.3c.06-.08.11-.17.18-.25a4.37,4.37,0,0,0-.93-.43l-1.16-.43a11.07,11.07,0,0,1-2.29-1.13,8,8,0,0,1,2.52.53,6.29,6.29,0,0,1,1.16.58,2.27,2.27,0,0,1,.77.77c.22-.34.43-.69.64-1a7.65,7.65,0,0,0-1.18-.53L70.84,67c-.94-.3-1.87-.56-2.82-1A5.93,5.93,0,0,1,69.54,66.07Zm45.3-26.28a8.75,8.75,0,0,0-6.25-5.21,9.46,9.46,0,0,0-4.23.21l-4.17,1.13-8.68,2.35a6.91,6.91,0,0,0,.79.66,3.31,3.31,0,0,0,1.19.53,8,8,0,0,0,1.43.16,28.35,28.35,0,0,0,3,0l.23,0a.73.73,0,0,1,.45.14.68.68,0,0,1,.26.37,1.07,1.07,0,0,1,0,.21l0,.2a.56.56,0,0,1,0,.4.57.57,0,0,1-.26.31.43.43,0,0,1-.18.06l-.09,0-1.08.17c1-.06,2.08-.08,3.13,0l.92.05.48.08.23,0a1.14,1.14,0,0,1,.31.13.94.94,0,0,1,.36.55.78.78,0,0,1,0,.34,1.47,1.47,0,0,1-.08.25,1.17,1.17,0,0,1-.39.51.52.52,0,0,1,.13.31.93.93,0,0,1-.36.69,2.94,2.94,0,0,1-1,.56,1.39,1.39,0,0,1-.63.12L99.91,45h0l-.09.11-.46.56-.23.28a3,3,0,0,1-.27.3,1.06,1.06,0,0,1-.49.23,3,3,0,0,1-.43,0l-.72,0-2.86-.1c-1.91-.06-3.84-.15-5.72-.17h-.69a7,7,0,0,1-.8,0,11.56,11.56,0,0,1-1.49-.28,23.6,23.6,0,0,1-2.81-.9l-.57-.25C80,46,72,50.78,68.46,52.2c0,.13,0,.24,0,.35a6.75,6.75,0,0,1-.15,1.73,8.26,8.26,0,0,1-.59,1.61,47.25,47.25,0,0,1-3,5.81c-.25.39-.51.77-.78,1.15l.25-.05a12.33,12.33,0,0,1,1.24-.19,18.05,18.05,0,0,1,2.44-.13A8.65,8.65,0,0,1,69,62.42a6.49,6.49,0,0,1,1.16.1,4.92,4.92,0,0,1,2.22.82l.14.1v.09a1.2,1.2,0,0,1-.07.61,2.56,2.56,0,0,1-.23.47,2.93,2.93,0,0,1-.41.52c.38.12.76.22,1.13.36a6.7,6.7,0,0,1,1.45.71l.17.13-.09.15a5,5,0,0,1-1,1.43l.1.15L73.39,68a8.52,8.52,0,0,1-.58,1.6,1.8,1.8,0,0,1-.23.39.85.85,0,0,1-.44.33,1,1,0,0,1-.59,0l-.42-.18a3.32,3.32,0,0,0-2.87.07l-.05,0h-.07a16.25,16.25,0,0,1-2.86.37c-.94.07-1.87.07-2.8.1-1.86,0-3.72,0-5.53.14l-.31,0-.18-.22a3.6,3.6,0,0,0-1.55-1,13,13,0,0,0-2-.52c-1.16-.22-2.37-.37-3.55-.64a17.51,17.51,0,0,1-1.91-.13,33.11,33.11,0,0,0-.08,14.92,35.36,35.36,0,0,0,3.36,9l.34-.37c.26-.27.53-.54.8-.79.54-.53,1.08-1,1.65-1.51s1.14-1,1.73-1.41,1.19-.88,1.8-1.29a51.91,51.91,0,0,1,7.73-4.33c1.37-.55,2.71-1.16,4.11-1.61.69-.24,1.39-.5,2.09-.72l2.12-.6,1.06-.29,1.08-.24,2.14-.47c1.44-.27,2.9-.47,4.34-.71h.16a32.3,32.3,0,0,0,5.9.09c1-.07,2-.19,2.93-.34.82-.14,1.65-.3,2.45-.5,0-.48,0-1,0-1.43A9,9,0,0,0,92.93,74a2.39,2.39,0,0,0-.1-.29h0a1.87,1.87,0,0,1-.3.05,2.88,2.88,0,0,1-.59,0,5.72,5.72,0,0,1-2-.67l-.66-.36.56-.5,12.73-11.73,6.36-5.86,1.59-1.47a10.48,10.48,0,0,0,1.41-1.57,25.05,25.05,0,0,0,2.19-3.67,11.59,11.59,0,0,0,1.36-4A8.29,8.29,0,0,0,114.84,39.79Zm11.74-23.51a.68.68,0,0,0,.67.73,2.79,2.79,0,0,0,.14-1,2.92,2.92,0,0,0-1.31-2.36c-1-.64-1.9-1.3-2.83-2a53.25,53.25,0,0,1-5.4-4.4l0,0,0,0A15.43,15.43,0,0,0,113,2.45,15.8,15.8,0,0,0,106.55.21a10.63,10.63,0,0,0-1.69-.08l-.42,0-.4.07-.87.18C102,.63,100.85.8,99.7,1c-2.28.37-6.9,1.39-6.9,1.39a7.46,7.46,0,0,0-1.54-.16c-.52,0-1.05.06-1.58.11-1.06.09-2.12.16-3.18.19h-.09l-.1-.06a19.35,19.35,0,0,0-4-1.75A17.79,17.79,0,0,0,78,0,21.6,21.6,0,0,0,73.67.3a20,20,0,0,0-4.13,1.16l-.7,0s0,0-.08,0l-.16,0-.36-.08c-.25-.05-.5-.09-.77-.12C67,1.1,66.41,1.05,65.88,1,64.8.91,63.71.85,62.62.82c-2.17,0-4.37-.06-6.56,0A35.4,35.4,0,0,0,43.44,3.06,39.38,39.38,0,0,0,32.27,9.52a34.77,34.77,0,0,0-4.59,4.57,26.25,26.25,0,0,0-3.47,5.43,48.59,48.59,0,0,0-4,12.43,43.21,43.21,0,0,0-.71,6.51A26.54,26.54,0,0,0,20,44.94c.12.53.27,1.05.43,1.56s.37,1,.57,1.54a31.81,31.81,0,0,0,1.36,3,42.63,42.63,0,0,0,3.46,5.6,86.15,86.15,0,0,0,8.69,9.94l-.11.12.09,0A40.56,40.56,0,0,0,33.3,75,34,34,0,0,0,36.68,91,37,37,0,0,0,41.13,98a43.91,43.91,0,0,0,12.6,10.5,40.06,40.06,0,0,0,7.53,3.24,48.66,48.66,0,0,0,5.51,1.35,17.07,17.07,0,0,1-2.32-1.12,9.67,9.67,0,0,1-1.94-1.46,9.07,9.07,0,0,1-.83-.92,5.26,5.26,0,0,1-.69-1.09,22.47,22.47,0,0,1-.84-2.25,12.58,12.58,0,0,0-.91-2.09A9.08,9.08,0,0,0,58,102.33a30.26,30.26,0,0,1-3.87-3.89,32.8,32.8,0,0,1-2.92-4.17,1.44,1.44,0,0,1-.25.08v-.49a35.6,35.6,0,0,1-4-10.54,32.94,32.94,0,0,1,.7-16.67l.18,0c-.15.49-.27,1-.39,1.49a20.93,20.93,0,0,0,3-.33c1-.16,2.12-.34,3.17-.55l3.17-.62.78-.15.39-.08a3,3,0,0,0,.32-.09,4.64,4.64,0,0,0,1.24-.7,11.65,11.65,0,0,0,2.19-2.14A29.61,29.61,0,0,0,63.63,61a44.63,44.63,0,0,0,3.18-5.54,6.62,6.62,0,0,0,.57-1.41,5.56,5.56,0,0,0,.17-1.48,9.17,9.17,0,0,0-.6-3,20.73,20.73,0,0,0-3.16-5.48,6.93,6.93,0,0,0-2.4-1.94,31.14,31.14,0,0,0-2.93-1.33l-2.29-.92a31,31,0,0,1-5.7.49,29,29,0,0,1-6-.61,19.17,19.17,0,0,1-5.71-2.14A7.93,7.93,0,0,1,34.88,33a9.49,9.49,0,0,0,4.34,3.72,25.92,25.92,0,0,0,5.5,1.75c1,.22,1.91.37,2.88.52l1.45.2c.49,0,1,.1,1.47.16,1.81.17,3.61.28,5.45.41-1.16-.46-2.33-.95-3.46-1.5l.05-.13c2,.87,4,1.54,6,2.28a32.41,32.41,0,0,1,3,1.23,12.92,12.92,0,0,1,1.43.83,6.16,6.16,0,0,1,1.09,1c-.57-.76-1.06-1.59-1.66-2.36a24.44,24.44,0,0,0-2.18-2.49,15.92,15.92,0,0,0-2.52-2.17l.07-.11a15.57,15.57,0,0,1,2.88,1.79,26.34,26.34,0,0,1,2.52,2.31,12.73,12.73,0,0,1,2.19,2.66A12.31,12.31,0,0,1,66,44.41a2.89,2.89,0,0,1,.57-.84,7.3,7.3,0,0,1,1.53-1.18,20.37,20.37,0,0,1,3.29-1.6A25.87,25.87,0,0,1,74.19,40c-.43-.39-.83-.79-1.23-1.19a21.77,21.77,0,0,1-3.53-4.65c-.09-.18-.17-.38-.25-.57a8.79,8.79,0,0,1-1.6-1.15,7,7,0,0,1-1.51-2.22,8.2,8.2,0,0,1-.77-2.59C65.19,26.7,65,25,65.23,25s.8,3.38,1.72,4.7c.46.67,1.09,1.19,1.58,1.86.13.17.25.35.38.53a8.85,8.85,0,0,1,0-.89c.1-1,.25-1.91.42-2.86s.36-1.89.57-2.83l.33-1.41c.13-.48.29-1.46.42-1.41a17.16,17.16,0,0,1-.5,2.87c-.18.94-.32,1.88-.45,2.83s-.25,1.91-.3,2.85a7.89,7.89,0,0,0,0,1.38A4.22,4.22,0,0,0,70,33.81a21.29,21.29,0,0,0,3.56,4.38A19.18,19.18,0,0,0,78,41.55a37.48,37.48,0,0,0,5.22,2.21,26.23,26.23,0,0,0,2.68.77,10.91,10.91,0,0,0,1.33.23,3.55,3.55,0,0,0,.64,0h.74c1,0,1.94.08,2.9.16s1.91.17,2.87.28,1.91.22,2.85.35l.73.09c.29,0,.33.06.45,0L99.2,45c-.55-.21-1.1-.42-1.65-.65l0-.12,1.7.38c.21,0,.43-.06.65-.07l.52,0a1.15,1.15,0,0,0,.37-.14,8.11,8.11,0,0,0,.84-.48,1.31,1.31,0,0,0,.19-.17,0,0,0,0,0,0,0,1.12,1.12,0,0,0-.16-.13,8.16,8.16,0,0,0-2-.57c-.69-.14-1.39-.27-2.07-.45v-.06c.7.09,1.4.14,2.1.2a7.53,7.53,0,0,1,2.15.43.75.75,0,0,1,.21.12,2.18,2.18,0,0,0,.14-.48c0-.06,0-.14,0-.18a.22.22,0,0,0,0-.13.37.37,0,0,0-.17-.16.28.28,0,0,0-.12,0l-.2,0c-.15,0-.29-.07-.44-.09s-.59-.13-.88-.17c-.6-.09-1.2-.16-1.81-.21s-1.21-.13-1.82-.17v-.08h0l0-.07c.46-.25,1-.45,1.43-.68l.09,0a0,0,0,0,0,0,0h0s0,0,0,0l-.07-.18,0,0-.1,0a15.69,15.69,0,0,1-3.21.43,7.14,7.14,0,0,1-1.7-.14,4.53,4.53,0,0,1-1.65-.8,13.1,13.1,0,0,1-2.15-2.51l-.92-1.27L88,35.57a5.32,5.32,0,0,1-.45-.75,11.67,11.67,0,0,1-1-3.12,22.62,22.62,0,0,1-.28-3.17,14.1,14.1,0,0,1,.07-1.59,3.9,3.9,0,0,1,.49-1.53c.08.06-.22,1-.24,1.54a13.3,13.3,0,0,0,.06,1.55,21,21,0,0,0,.53,3.07l.15.59a15.59,15.59,0,0,1,2.71-1.58c1-.49,2-.94,3.06-1.37s2.07-.82,3.13-1.19a24.45,24.45,0,0,1,3.25-1c.7-.13,1.36-.24,2-.33h-.06c-.69-.12-1.36-.33-2-.49l-2-.49-.24-.05-.07-.19c-.53-1.5-1.59-4.49-1.4-4.58s1.38,2.68,2,4l1.89.22c.69.08,1.4.12,2.08.23a14.36,14.36,0,0,1,2,.51c.33.11.68.23,1,.36l1.4-.2,3.28-.46c1.09-.17,2.22-.3,3.23-.53l.12,0h.08a6.16,6.16,0,0,0,1.41-.14c.51-.09,1-.22,1.52-.34,1-.26,2-.56,3.08-.8a12.22,12.22,0,0,1,1.6-.31,5.27,5.27,0,0,0,1.46-.4,4.6,4.6,0,0,0,2-1.67,6,6,0,0,1-1.53.08l-.25,0-.21,0c-.12,0-.26,0-.39-.06a7.32,7.32,0,0,0-.81,0,10.58,10.58,0,0,0-1.68.14,8.34,8.34,0,0,0-.83.2,1.82,1.82,0,0,0-.72.32l-.11-.05a1.83,1.83,0,0,1,.74-.52,8.39,8.39,0,0,1,.84-.3,9.15,9.15,0,0,1,1.71-.37c.3,0,.6,0,.9,0l.46,0,.23,0h.17a6.43,6.43,0,0,0,1.58-.26l.8-.25a5.2,5.2,0,0,0,.74-.26,2,2,0,0,0,.94-.95c.09-.17.18-.5.27-.74l.11-.3a1.63,1.63,0,0,1-2.21-1.73C124.75,15.15,126.47,14.44,126.58,16.28ZM101.09,7.84a7.27,7.27,0,0,0-1.72-1.65,2.25,2.25,0,0,0-2.11-.34,1.84,1.84,0,0,0-1,1.7,3.92,3.92,0,0,0,.53,2.12l0,.08v.14q0,.9.09,1.8c0,.59.11,1.2.2,1.79a9.67,9.67,0,0,0,1.1,3.41l-.07.06a4.84,4.84,0,0,1-1.21-1.49,7.47,7.47,0,0,1-.7-1.8,10.44,10.44,0,0,1-.28-3.73,4.58,4.58,0,0,1-.38-2.45A2.89,2.89,0,0,1,96,6.21a2.12,2.12,0,0,1,1.09-.83,1.91,1.91,0,0,1,1.33,0,3.15,3.15,0,0,1,1.13.6,7.36,7.36,0,0,1,1.63,1.85Zm11.75,6c-1.67,0-3-2.32-3-2.32s1.35-2.33,3-2.33,3,2.33,3,2.33S114.51,13.85,112.84,13.85Zm13.59,76.64c-1.83-1.81-4.65-3.51-6-2.29a2.49,2.49,0,0,0-1,1.55c-.09,1.56,2.77,2.83,3,3.13a3.36,3.36,0,0,1-.24,4.94,35.71,35.71,0,0,1-8.08,4.31l-.22.08c-5.59,2-31.81,9.67-46,5.55a26.23,26.23,0,0,1-8.36-4.13.88.88,0,0,1,.12.15,13.88,13.88,0,0,1,1.13,2.12c.33.72.6,1.45,1,2.08a5.71,5.71,0,0,0,1.45,1.54c.58.46,1.2.89,1.81,1.34,1.14.84,2.33,1.64,3.5,2.53l.64.1a71.66,71.66,0,0,0,16.24.61l.31,0c15.35-2,26.76-4.42,37.75-12.31,1.8-1.29,3.48-2.56,4.19-5.33A6.34,6.34,0,0,0,126.43,90.49Z"/></svg>