<svg id="Layer_1" data-name="Layer 1" xmlns="http://www.w3.org/2000/svg" width="128" height="128" viewBox="0 0 128 128"><title>Echidna gliph</title><path d="M117.77,93.37a6.81,6.81,0,0,0,2.28.43,17.35,17.35,0,0,0,2.28,0,19.15,19.15,0,0,0,2.26-.3,6.92,6.92,0,0,0,2.19-.74l-.06,0s0,0,.06,0a9.21,9.21,0,0,0-2.25-.54,11.72,11.72,0,0,0-1.45-.06l-.65,0h-.19c-.76.09-1.5.26-2.24.41l-2.23.44-.55.11.08,0h-.06Z"/><path d="M128,88.75A17.14,17.14,0,0,0,124.51,87a26.86,26.86,0,0,0-3.7-1.06c-.83-.15-1.65-.3-2.5-.41a26.08,26.08,0,0,0-1.7-2.67,9.46,9.46,0,0,0,1.42.33,15.85,15.85,0,0,0,1.67.13c1.11,0,2.22,0,3.32,0s2.21.05,3.31.14l.45,0-.07-.07h.07l-.32-.32a4.8,4.8,0,0,0-1.49-1,13.45,13.45,0,0,0-1.61-.58,23.74,23.74,0,0,0-3.32-.74,21.52,21.52,0,0,0-3.4-.24l-.64,0a14.28,14.28,0,0,0-1.44-.55l.28-.12.1,0v-.07l1.38-.56-1.63,0h0c-.08-.39-.26-1.1-.38-1.5,1,.39,2.06.77,3.1,1.08,1.59.47,3.11.86,4.46,1.28l-.07-.08.06,0A7.83,7.83,0,0,0,120,78.35a9.54,9.54,0,0,0-2.22-1.15c1.18.1,2.37.17,3.54.18,1.66,0,3.23-.06,4.64,0l-.1-.07h.1a7.75,7.75,0,0,0-2.31-1.17,9.28,9.28,0,0,0-2.5-.47,13.56,13.56,0,0,0-2.55.19,5.37,5.37,0,0,0-2.42.87l-.13.09-.82-.14c-.32,0-.65-.07-1-.08a4.05,4.05,0,0,0-.23-2,12.16,12.16,0,0,0,2.25.11c.65,0,1.29-.12,1.92-.21s1.23-.18,1.92-.36L120,74h.09a5.13,5.13,0,0,0-1.86-.85,7.58,7.58,0,0,0-2-.26,14.81,14.81,0,0,0-2,.24,4.65,4.65,0,0,0-1.94.65l-.64,0c.58-.46,1.15-.91,1.75-1.34A6.23,6.23,0,0,0,115,70.83l.77,0a10.88,10.88,0,0,0,2.15-.33l-.09-.07h.07a7.78,7.78,0,0,0-2-1,7.9,7.9,0,0,0-2.15-.49,12.61,12.61,0,0,0-2.22.13c-.65.08-3.91,0-5,.15a6.61,6.61,0,0,0-1.2-.81l1-.45a2.93,2.93,0,0,0-.79-.43,2.64,2.64,0,0,0-.88-.17,3.38,3.38,0,0,0-1.72.46c-1,.5-2.07,1-3.06,1.53l-1.49.86q-.72.45-1.47.87c-1,.56-2,1.06-3,1.56l-.15.07,0,0,.15-.07c1-.49,2-1,3-1.56.5-.27,1-.57,1.48-.87l1.48-.86c1-.55,2-1,3.06-1.53a3.48,3.48,0,0,1,1.72-.46,2.38,2.38,0,0,1,.88.18,2.83,2.83,0,0,1,.75.39h0a2.68,2.68,0,0,0-.8-.42A2.23,2.23,0,0,1,105,67l3.55-.36c1.25-.09,2.49-.23,3.74-.29s2.5-.1,3.75-.09h.58l-.15-.09h.13l-.5-.3a9.7,9.7,0,0,0-3.8-1.12,25.84,25.84,0,0,0-3.93-.16,23.49,23.49,0,0,0-3.91.49,11.45,11.45,0,0,0-1.89.58,4.56,4.56,0,0,0-.88.45l-.07.06a32.51,32.51,0,0,0-4.52-3l0,0-.69.59c-.54.46-1.07.93-1.62,1.37-1.09.9-2.18,1.79-3.29,2.67S89.19,69.55,88,70.39A17.28,17.28,0,0,1,86.2,71.5l-.93.5c-.08,0-.15.08-.29.13a1.19,1.19,0,0,1-.32,0c-.19,0-.36,0-.52,0h-.2l0-.18c0-.16,0-.34,0-.54a1,1,0,0,1,.21-.57,3.46,3.46,0,0,1,.81-.77c.58-.43,1.16-.85,1.72-1.3,1.14-.88,2.22-1.84,3.34-2.74.58-.44,1.11-.9,1.73-1.32a13.33,13.33,0,0,1,1.92-1.06,25.2,25.2,0,0,1,2.46-.92l-.08,0a20.81,20.81,0,0,0-2.74-1,12.36,12.36,0,0,0,2.92-.06,15.05,15.05,0,0,0,2.9-.66c.27-.1.53-.22.79-.33a16,16,0,0,0,1.59-.35c-.51.36-.91.92-1.4,1.28a4.14,4.14,0,0,0-1.41,1.52l-.13.3.1,0,0,.12.36-.07a10.4,10.4,0,0,0,1.09-.31h.48l0,.13c.81,0,1.68,0,2.56,0s1.77-.05,2.69-.14l2.73-.33c.9-.09,1.79-.13,2.69-.14h.14v-.51h0v-.09l-.13,0a13.27,13.27,0,0,0-5.43-.43,28.53,28.53,0,0,0-4,.83c.28-.13.57-.26.84-.41.56-.33,1.1-.7,1.62-1.08a14.61,14.61,0,0,0,1.52-1.27h-.14l.1-.09a5.58,5.58,0,0,0-2,.18c-.46.12-1,.14-1.43.26a17.31,17.31,0,0,0,1.49-1.1l.78-.37.47-.23-.18,0,.14-.07-.53-.08a9.1,9.1,0,0,0-3,.19,29.08,29.08,0,0,0-2.9.69c-.94.3-1.87.65-2.78,1l-.05,0,.31-.21c.82-.54,1.65-1.08,2.46-1.64l.44-.3h-.2l.15-.1h-.54a9.35,9.35,0,0,0-3,.62,27.41,27.41,0,0,0-2.76,1.11,15.21,15.21,0,0,0-1.83,1c-.44-.44-2.6-.76-3.41-.8,1.1-.59,2.19-1.21,3.23-1.85,1.53-.92,3-1.82,4.39-2.63l-.19,0,.14-.08a9.71,9.71,0,0,0-3.68-.07,12.28,12.28,0,0,0-1.78.47c-.58.21-1.11.48-1.66.72l-.74.36a10.72,10.72,0,0,1,1.17-.91,8.19,8.19,0,0,0,2-1.58c-.35.1-.74.17-1.18.26s-.91.2-1.31.34c-.79.26-1.59.54-2.36.87a11.52,11.52,0,0,0-2.25,1.18,18.1,18.1,0,0,0-1.7,1.43l-.38-.07h0c-.83,1.14-1.7,2.16-2.61,3.2s-2,2.13-3,3.12A34.43,34.43,0,0,1,72,67.2a29.14,29.14,0,0,1-3.73,2.29l-.15.08L68,69.45a1.58,1.58,0,0,1-.51-1.14c.09-.49.49-.7.75-1,.57-.52,1.15-1,1.71-1.52,1.14-1,2.24-2.08,3.41-3.08a35.13,35.13,0,0,1,3.71-2.7,27.12,27.12,0,0,1,3.68-2,17.23,17.23,0,0,0-1.89-.2c.45-.4.92-.8,1.37-1.21,1.21-1.11,2.41-2.22,3.59-3.37l0,0,0,0-.29-.28c-1.46.85-2.81,1.74-4.19,2.67-1,.68-1.93,1.4-2.87,2.13a1.77,1.77,0,0,0-1.14-.31l.82-.88,3.74-4.13c.64-.68,1.27-1.36,1.92-2l1-1,.49-.49c.18-.19.29-.4.43-.57l.07-.1-.08-.1-.2-.23-.09-.11-.13.08a55.48,55.48,0,0,0-4.85,3.31c-1.47,1.35-2.77,2.76-4.08,4.22-.65.71-1.29,1.43-1.92,2.17a3.77,3.77,0,0,0-2-.21c.75-1,1.5-1.92,2.27-2.84,1-1.26,2.14-2.45,3.29-3.6l.35-.35-.48.08-.65.1a4.08,4.08,0,0,0-.62.2,7.87,7.87,0,0,0-1.17.56A16,16,0,0,0,71.35,53a30.26,30.26,0,0,0-3.69,3.47c-.38.41-.73.86-1.1,1.3a2,2,0,0,0-1.12-.17c1-1.71,2-3.44,2.88-5.22l0,0,0,0L68,52l-1.52,1.43-.78.77c-.24.26-.46.53-.68.8-.88,1.05-1.76,2.12-2.59,3.22a4,4,0,0,0-1.9.14c.27-.39.53-.78.77-1.18.55-.91,1.06-1.83,1.62-2.72s1.18-1.75,1.81-2.59l.67-.91-.92.69a29.64,29.64,0,0,0-4.89,4.23,11.78,11.78,0,0,0-1.75,2.77,14.85,14.85,0,0,1-2.52,1.5,15.81,15.81,0,0,0,1-1.45c.34-.57.65-1.17,1-1.76s.61-1.14.91-1.83a10.6,10.6,0,0,0-1.63,1.28A9.42,9.42,0,0,0,55.26,58a14.35,14.35,0,0,0-1,1.8l-.3.61a21.46,21.46,0,0,0-2.25,1.32l-.06.05-.25.5c-.46.87-.94,1.73-1.48,2.55a55.83,55.83,0,0,1-3.52,4.7l-.65.8.35-1a23.41,23.41,0,0,1,1.19-2.71A28.6,28.6,0,0,1,48.72,64a22.84,22.84,0,0,1,1.8-2.35c.61-.69,1.18-1.35,1.87-2a1.72,1.72,0,0,0,.07-.21,27.4,27.4,0,0,0-2,2.17c-.31.38-.63.76-.94,1.15l-.32.16c.49-.57,1.35-1.81,1.64-2.25a8.22,8.22,0,0,0,.43-.9,3.7,3.7,0,0,1,.48-.79l.06-.08-.09-.08a1.81,1.81,0,0,0-1.15.46c-.18.24-.37.47-.53.72-.32.51-1.7,2.74-1.92,3.31l-.06.17h0c-1,.48-2.06,1-2.58,1.35.49-.65.95-1.33,1.39-2a20.17,20.17,0,0,0,1.38-2.7l0-.07,0,0a1.43,1.43,0,0,0-.21-.11,6.65,6.65,0,0,0-1.18,1,7.41,7.41,0,0,0-.9,1.26c-.24.46-.42,1-.62,1.43s-.42.93-.66,1.39a16.43,16.43,0,0,1-1.76,1.54,17.38,17.38,0,0,0-1.76,1.58c.23-.5.3-.66.54-1.15a15.87,15.87,0,0,1,1.21-2l.53-.75-.67.39a7.16,7.16,0,0,0-1.88,1.84,18.88,18.88,0,0,0-1.43,2.17A19.33,19.33,0,0,0,38.33,71,9.44,9.44,0,0,0,38,72.26a4.69,4.69,0,0,1-.67,1.29,27,27,0,0,0-2.84.1l-.31,0a5.73,5.73,0,0,0,.4-1c.15-.51.24-1,.38-1.56a14.17,14.17,0,0,1,.54-1.5l.39-.92-.7.77a17.16,17.16,0,0,0-1.93,2.54,6,6,0,0,0-.63,1.5c0,.12,0,.24-.06.36-.63.13-1.27.29-1.88.48l-.14.06c.11-.39.18-.79.29-1.17a8.28,8.28,0,0,1,.47-1.16l.35-.7L31,72a11,11,0,0,0-1.74,1.8,4.13,4.13,0,0,0-.58,1.17c0,.08,0,.16,0,.24a19.46,19.46,0,0,0-4.79,3,23.34,23.34,0,0,0-4.93,6,33.1,33.1,0,0,0-1.75,3.4c-.51,1.15-1.35,4.11-1.35,4.11a32.51,32.51,0,0,1-3.55,2.53C9.49,95.68,1.7,98.32,1.37,98.58c-.65.49-1.65,1.3-1.3,2.55.65,2.29,13.78-3,15.61-3.54A38.06,38.06,0,0,1,20,96.67a16.9,16.9,0,0,1,2.46.21c.81.11,1.58.39,2.4.57a20.72,20.72,0,0,0,2.5.43,9,9,0,0,0,2.43,0c1.6.69,3.2,1.33,4.84,1.93s3.35,1.2,5.1,1.67l.53.14s2.38,1.54,3.48,2.44c.4.34.82.66,1.24,1l-.06.06A14.41,14.41,0,0,1,47.74,109a5,5,0,0,1,.33,1.09,3.27,3.27,0,0,1,0,.53l0,.59a9.72,9.72,0,0,0,.3,2.61,9.79,9.79,0,0,1,.21,1.15.92.92,0,0,1-.11.7l0,0-.09.13-.19.25a5.21,5.21,0,0,0-.39.6,2.23,2.23,0,0,0-.28.84c-1.34.42-3.21,1-3.67,1.9.93-.14,2.16-.64,2.92-.69-.79.55-1.16,1.14-1.13,1.66A24.44,24.44,0,0,1,48.33,119a2.61,2.61,0,0,0,.37.19,1.45,1.45,0,0,0-.85,1.32c.85-.49,1.59-.88,1.93-1a4.67,4.67,0,0,0,1.12,0l.58-.08-.69.33a7.25,7.25,0,0,0-1.33.79,3.74,3.74,0,0,0-.66.66,2.28,2.28,0,0,0-.42,1l-.16,1.07a9.21,9.21,0,0,0-.62.76c-.38.61-.22,1.42.42,1.31.51-.84,2.33-1.65,3.22-1.92l.06.27c-.19.17-.31.3-.31.3-.72.88-1.69,1.94-1.18,2.45s.82-.06,1.64-.85a13.31,13.31,0,0,1,2.06-1.42v.06a2,2,0,0,0-1,.8,3.92,3.92,0,0,0-.63,2.35,19.58,19.58,0,0,1,3.21-2v.18l.56-.08c.69-.09,1.47-.07,2.25-.15a6.84,6.84,0,0,0,1.18-.23,5.44,5.44,0,0,0,1.08-.69,2.47,2.47,0,0,0,.48-.49,13.74,13.74,0,0,0,1.92-4A26.34,26.34,0,0,1,64,115.4a25.63,25.63,0,0,1,2.19-4.15,8.92,8.92,0,0,1,3.1-3.07,37.75,37.75,0,0,1,8,1.06,14.92,14.92,0,0,1,1.89.62,19.19,19.19,0,0,0,2.07.67,27.3,27.3,0,0,1,3.86,1,4.55,4.55,0,0,1,2.17,2.61,17.22,17.22,0,0,1,1.17,3.75,3.3,3.3,0,0,1-.11,1.65,2.21,2.21,0,0,1-.18.34l-.32.41a4.33,4.33,0,0,0-.53,1.08,3.45,3.45,0,0,0,0,2.43,2.82,2.82,0,0,0,1.81,1.5l.33.09.1-.27c.08-.21.14-.42.2-.63.61.35,1.17.8,1.81,1.15a5.6,5.6,0,0,0,2.2.72l.3,0v-.3c2.45,2.28,6.08,1.88,9.55,1.92s5.89-2.31,6.16-3.58a8.54,8.54,0,0,1-2.4,1.26,8,8,0,0,0,1.32-2.42,7.86,7.86,0,0,1-2.78,1.69,1.71,1.71,0,0,0,.3-1.06c-2.7,1.27-3.73.62-4.41.07a1.52,1.52,0,0,0-1.52-.24l-.09-.45c-.1-.45-.21-.72-.27-1a2.94,2.94,0,0,1,.5-2.41,6.08,6.08,0,0,1,.62-.74c1-.09,2-.2,3-.32.69.84,5.36,2.15,8,2.15,2.92,0,6-1.51,7.13-2-1-.06-2.36.58-4.15.76a3.78,3.78,0,0,0,2.14-1.27,8.39,8.39,0,0,1-2.51.73,2,2,0,0,0,1-1.21,4.15,4.15,0,0,1-2.73.48,10.67,10.67,0,0,1-2.82-1.18,2.47,2.47,0,0,0,.29-.59,4.06,4.06,0,0,0,.2-1.37c0-.22,0-.42,0-.63l0-.52c0-.35,0-.72,0-1.08,0-1.34,0-2.74.06-4.17h0l.47.2c.8.32,1.6.61,2.4.9s1.61.57,2.46.78h0v0a1.8,1.8,0,0,0,.08-.21h0c-.62-.47-1.36-1.05-2.11-1.52s-1.52-.86-2.3-1.24l-1.19-.53a7.2,7.2,0,0,0-1.22-.48c-.42-.13-.84-.24-1.26-.35l-.63-.18a2.12,2.12,0,0,0-.69,0h-.09l-.05.1-.08.19,0,.1,0,0,0-.12.08-.19,0-.11h.09a2.48,2.48,0,0,1,.69,0l.63.17c.42.12.84.22,1.26.35a8.14,8.14,0,0,1,1.22.48l1,.44a12.92,12.92,0,0,0,2.41,0c.39,0,.78-.11,1.17-.18a5.76,5.76,0,0,0,1.36.54,10.12,10.12,0,0,0,2.62.33,18.61,18.61,0,0,0,2.61-.32l1.29-.22.64-.12.32-.06.17,0s0,0,.14-.06a.43.43,0,0,0,.07-.08v0h0l-.12-.29c-1.66-.24-3.32-.4-5-.53l-.81,0a14.31,14.31,0,0,0,1.54-.71,5.86,5.86,0,0,0,.73.13,7.39,7.39,0,0,0,2.48-.14c.38-.09.81-.22,1.24-.35a9.86,9.86,0,0,1,1.11-.35l-.06,0h0l-1.93-.53c-.68-.19-1.38-.39-2.13-.56s-1.54-.27-2.28-.4c-.35-.06-.69-.13-1-.21a7.34,7.34,0,0,0,1.8-.88c.34-.22.68-.5,1-.77s.63-.54.91-.73h-.08l.07,0-2,.2c-.7.07-1.45.13-2.21.25l-.32.06c-.1-.28-.24-.71-.33-1,.47,0,.94.08,1.41.11a13.89,13.89,0,0,0,2.14,0l.41,0,0,0h0l-.31-.28a3.38,3.38,0,0,0-1-.56c-.31-.15-.64-.27-1-.39a19.38,19.38,0,0,0-1.95-.65c-.65-.18-1.32-.32-2-.45l-.91-.13a1.12,1.12,0,0,0,0-.31v0l1.52,0a23.52,23.52,0,0,0,2.36-.14l.82-.12-.81-.29c-1.36-.47-2.79-.91-4.2-1.25s-2.79-.6-4-.83a2.3,2.3,0,0,0,.24,1.17h0a2.28,2.28,0,0,1-.26-1.21c1.23.22,2.61.5,4,.83.1,0-.28-.94-.09-1.3h0l.68.11a15.26,15.26,0,0,0,4.77-.2h.07v-.06a3.11,3.11,0,0,0,0-.33c-1-.24-2-.46-3.1-.63a16.92,16.92,0,0,0,2-.47,18.93,18.93,0,0,0,2.09-.83c.34-.15.68-.32,1-.49.17-.08.33-.18.49-.27l.26-.15a.67.67,0,0,0,.08-.33c-1.23.17-2.65.37-4.1.7-.74.18-1.46.41-2.17.61a19,19,0,0,1-2.12.43l-.1,0v.12l0,.36c-.35,0-1,.87-.26,1.26a13.3,13.3,0,0,1-3.42-1.17l-.13-.06,0-.12v-.07a27.82,27.82,0,0,0-4,.11c-1.37.12-2.72.35-4.08.49a35.56,35.56,0,0,1-4.13.16,19.33,19.33,0,0,1-4.12-.5l0-.47v0l0,0a26.77,26.77,0,0,1,4.07-.76,33.85,33.85,0,0,1,4.15-.23,44.63,44.63,0,0,1,8.15.93v0l.14,0a22.56,22.56,0,0,0,2.33.35c.4,0,.81.06,1.22.09l0-.35v-.13h.11a19.29,19.29,0,0,0,2.11-.44c.71-.2,1.43-.43,2.17-.61.51-.12,1-.21,1.52-.3a5.39,5.39,0,0,1-.55-1.43,12.21,12.21,0,0,1,0-1.91c.72,0,1.44.11,2.17.19,1.21.13,2.44.28,3.66.46l1.84.24a5.41,5.41,0,0,0,1.89.06l-.08,0ZM18.53,96.57l-.37.06A3.89,3.89,0,0,0,15.6,92c.07-.09.3-.28.33-.26a7.26,7.26,0,0,1,2.22,1.69A4.36,4.36,0,0,1,18.59,95,5.53,5.53,0,0,1,18.53,96.57ZM23.3,93A1.75,1.75,0,1,1,25,91.23,1.74,1.74,0,0,1,23.3,93Zm84.79-10c.65-.26,1.35-.54,2.07-.76.36-.11.71-.22,1.07-.3a3,3,0,0,1,1.15,0,5,5,0,0,1,2,.89l.31.2-.34.09c-.66.18-1.32.32-2,.47a18.6,18.6,0,0,1-2,.39,11.47,11.47,0,0,1-2,0,12.57,12.57,0,0,1-2-.27C106.84,83.45,107.44,83.22,108.09,83Zm6.59-3.61h.17v0h-.16c-.87.05-1.74.11-2.6.2s-1.73.34-2.54.41a4.09,4.09,0,0,0-1.35.29A4.81,4.81,0,0,0,107,81a18.71,18.71,0,0,0-1.83,1.84h-.06A20.88,20.88,0,0,1,107,80.94a5.21,5.21,0,0,1,1.18-.71,4.34,4.34,0,0,1,1.35-.28c.81-.07,1.65-.31,2.54-.41S113.81,79.38,114.68,79.34ZM85.47,99a16.58,16.58,0,0,1-3.71,1.15c-1.26.16-2.52.31-3.79.43s-2.54.21-3.81.3a8.06,8.06,0,0,1-2,0l-.48-.1a2,2,0,0,1-.52-.16c-.35-.24-.46-.54-.67-.75l-.17-.17h0l0,0,.21-.09a3,3,0,0,1,.89-.41h.94c.62,0,1.24,0,1.86-.07,1.24-.05,2.48-.19,3.72-.27.62,0,1.24-.07,1.86-.07s1.3,0,2,0c1.33.07,2.56.21,3.68.22l-.1,0Zm-6.75-3.76a4.32,4.32,0,0,1-.53.26l-.89.4c-.6.26-1.19.53-1.79.78A31.75,31.75,0,0,1,71.83,98a25.11,25.11,0,0,1-3.85.82A16.18,16.18,0,0,1,66,99a3.2,3.2,0,0,1-1-.11l-.48-.12a.76.76,0,0,1-.49-.37s0,0,0,0h0A.43.43,0,0,1,64,98a.81.81,0,0,1,.15-.26.91.91,0,0,1,.49-.28c.34-.09.65-.13,1-.19.64-.11,1.28-.23,1.91-.37,1.28-.26,2.52-.61,3.83-.9,2-.42,4-.76,6-1a.62.62,0,0,1-.22-.1.85.85,0,0,1-.21-.25s0,0,0-.05h0a.46.46,0,0,1-.06-.37.94.94,0,0,1,.16-.28,1,1,0,0,1,.51-.3c.36-.09.69-.13,1-.2.68-.12,1.36-.24,2-.39,1.36-.28,2.68-.64,4.06-1,2.76-.58,5.57-1,8.16-1.34l0,.05h0l.08.2v0l0,0-.46.27-.47.21c-.31.15-.63.29-.94.42-.64.28-1.27.56-1.91.82a33.69,33.69,0,0,1-3.9,1.43,28.22,28.22,0,0,1-4.08.88,18.21,18.21,0,0,1-2.09.17A1.85,1.85,0,0,1,78.72,95.24ZM49.86,96.47a10,10,0,0,1,2.23-1.08,18,18,0,0,1,2.37-.63,29.37,29.37,0,0,1,4.85-.39h.8l-.1,0h.12l-.69.34c-.75.36-1.51.67-2.27,1a20.78,20.78,0,0,1-2.33.83,10.32,10.32,0,0,1-2.47.26,9.34,9.34,0,0,1-2.49-.31l0,0ZM50,85.78l.14-.26a4.8,4.8,0,0,1,1.07-1.3,4.71,4.71,0,0,1,1.47-.77c1-.31,2-.74,3.06-1.13a19.1,19.1,0,0,1,3.17-.89A31.74,31.74,0,0,1,62.2,81l.09.21,0,0h0l0,0,0,0a25,25,0,0,1-2.84,1.51c-1,.43-2,.86-2.94,1.26s-2,.77-3,1.14c-.5.19-1,.37-1.52.55a6.55,6.55,0,0,1-1.65,0H50l0,0Zm-1.4-2.25a11.9,11.9,0,0,1,2.13-2.18,23.55,23.55,0,0,1,2.49-1.73c1.73-1,3.53-1.87,5.29-2.81L60,76l-.18.15.2-.1-1.27,1.07-2.31,1.93c-.77.65-1.52,1.32-2.34,1.91a18,18,0,0,1-2.61,1.53,14.17,14.17,0,0,1-2.86,1.07l0-.07Zm-10,1.88a8.21,8.21,0,0,1,1.92-1,14.68,14.68,0,0,1,2-.56,23.54,23.54,0,0,1,4.18-.31h.79l-.1,0h.12l-.69.33c-.64.3-1.3.57-2,.84a17.22,17.22,0,0,1-2,.74,8.52,8.52,0,0,1-2.13.22,7.34,7.34,0,0,1-2.15-.3l.05,0ZM46.81,82a5.8,5.8,0,0,1-1.1.06,2,2,0,0,1-.18-.29l0,0,0,0a5.82,5.82,0,0,1,1.38-1.59A11,11,0,0,1,48.66,79a34,34,0,0,0,3.57-2l.23.24c-.51.49-1,1-1.49,1.5s-.92,1.07-1.41,1.58a6.35,6.35,0,0,1-1.74,1.29A5.76,5.76,0,0,1,46.81,82Zm20.83-8a5.42,5.42,0,0,1-1.51,1.44,10.53,10.53,0,0,1-3.73,1.64,4.72,4.72,0,0,1-2.09.12l-.43-.09.06,0h-.08l.37-.21,1.72-1c.57-.34,1.14-.7,1.75-1a9.85,9.85,0,0,1,1.9-.63,9.38,9.38,0,0,1,2-.27l0,0Zm18-10.64.86-.3-.68.59c-.84.72-1.71,1.42-2.59,2.1s-1.75,1.38-2.69,2a20,20,0,0,1-3,1.5,17,17,0,0,1-3.23,1,15.7,15.7,0,0,1,2.44-2.32A25.8,25.8,0,0,1,79.51,66,38,38,0,0,1,85.62,63.34ZM77,70.57c.71-.36,1.44-.68,2.16-1,.37-.16.73-.3,1.11-.44s.85-.19,1.19-.28a4.74,4.74,0,0,1-.35.52l-.42.43q-.41.43-.84.84c-.58.55-1.16,1.09-1.76,1.61a46.13,46.13,0,0,1-3.77,2.91c-1.3.92-2.65,1.76-4,2.55-.69.39-1.39.77-2.09,1.13l-.53.27a1.63,1.63,0,0,1-.63.22c-.44,0-.83,0-1.2,0h-.12l-.06-.1-.22-.39-.05-.1.06-.08c.22-.31.4-.66.64-1a2.61,2.61,0,0,1,.41-.47,4.91,4.91,0,0,1,.5-.34c.66-.42,1.32-.86,2-1.31,1.3-.88,2.57-1.83,3.9-2.68A44.23,44.23,0,0,1,77,70.57ZM85.3,88.65l-.15.27a1.58,1.58,0,0,1-.73.65l-.81.4c-.53.28-1.09.5-1.64.75A36,36,0,0,1,78.6,92a27.09,27.09,0,0,1-3.53.76c-.3.06-.59.1-.89.13a4.57,4.57,0,0,1-.93.07,1.51,1.51,0,0,1-.89-.37,2.12,2.12,0,0,1-.56-.76h0l0,0,.68-.56a1.87,1.87,0,0,1,.8-.39l1.64-.43c1.11-.26,2.21-.54,3.32-.78s2.2-.45,3.3-.65h0l1.68-.31c.29,0,.53-.1.87-.13a7.41,7.41,0,0,1,.86.06h.32l0,0Zm-24.81-.5C61.65,88.08,62.8,88,64,88h.11v.09l0,.27v.07l-.06,0h0a15.46,15.46,0,0,1-2.12,1c-.72.31-1.46.59-2.18.88s-1.49.51-2.24.74a1.66,1.66,0,0,1-1.22,0,4.1,4.1,0,0,1-1-.64,14.93,14.93,0,0,0-1.62-.6l-.41-.16a.93.93,0,0,1-.43-.29.29.29,0,0,1,0-.29A.4.4,0,0,1,53,89a1.63,1.63,0,0,1,.25-.1,3.58,3.58,0,0,1,.45-.09,18.43,18.43,0,0,1,3.48,0C58.16,88.84,59.29,88.09,60.49,88.15Zm-2.54-3a2.34,2.34,0,0,1,1.17-.91c.9-.32,1.76-.57,2.66-.82s1.79-.44,2.69-.66a21.42,21.42,0,0,1,2.74-.53l1-.08-.94.38A20.89,20.89,0,0,0,65,83.68c-.76.43-1.49.9-2.26,1.32a19.06,19.06,0,0,1-2.42,1,11.54,11.54,0,0,1-2.58.59A2.16,2.16,0,0,1,58,85.18Zm6.24,6.26a16.86,16.86,0,0,1,2.51-.66,31.86,31.86,0,0,1,5.15-.43l.79,0-.69.35c-.79.39-1.59.72-2.4,1a19.15,19.15,0,0,1-2.48.87,11,11,0,0,1-2.62.29,10.81,10.81,0,0,1-2.63-.32A10.28,10.28,0,0,1,64.19,91.44Zm13.34-3.57a9.63,9.63,0,0,1-2.19.55,6.49,6.49,0,0,1-2.28,0A10,10,0,0,1,75,87.17a20.44,20.44,0,0,1,2-.89,19.19,19.19,0,0,1,2.12-.64c.36-.09.73-.16,1.1-.22a3.5,3.5,0,0,1,1.17,0l.42.08-.34.23c-.63.43-1.29.78-1.94,1.14S78.22,87.58,77.53,87.87Zm2.36-4.4c-1.56.85-3,1.83-4.63,2.65a38,38,0,0,1-4.9,2.14c-.84.3-1.7.55-2.56.78a2,2,0,0,1-1.38,0,2.12,2.12,0,0,1-1-1c1.53-.84,3-1.55,4.58-2.27s3.11-1.37,4.69-2,3.17-1.21,4.77-1.76,3.21-1.09,4.83-1.58l.73-.22-.53.52a4.26,4.26,0,0,1-1.11.82l-1.19.6C81.45,82.63,80.66,83,79.89,83.47Zm-6.22-.69-.24.28a3.25,3.25,0,0,1-.34.19l-.61.31c-.41.22-.82.43-1.21.67-.79.46-1.54,1-2.31,1.5s-1.59.93-2.39,1.37l-.62.32a1.91,1.91,0,0,1-.72.24.87.87,0,0,1-.72-.31,1.89,1.89,0,0,1-.38-.63c.71-.57,1.39-1,2.11-1.54a22.62,22.62,0,0,1,2.23-1.33,13.41,13.41,0,0,1,2.44-.95,10.32,10.32,0,0,1,2.59-.43l.49,0ZM59.89,95.2a1.76,1.76,0,0,1,.76-.38l1.55-.41c1-.25,2.07-.51,3.12-.73s2.09-.43,3.14-.62L70,92.77c.28,0,.5-.1.82-.12s.57,0,.82,0l.31,0-.14.27a1.53,1.53,0,0,1-.7.61l-.76.38c-.5.27-1,.47-1.55.71-1,.44-2.09.87-3.18,1.21a23.67,23.67,0,0,1-3.32.72q-.42.07-.84.12a4.11,4.11,0,0,1-.88.06,1.4,1.4,0,0,1-.84-.36,2,2,0,0,1-.53-.72ZM90.83,87v0l0,0c.82-.45,1.58-1,2.46-1.38l2.62-1c1.73-.7,3.42-1.47,5.07-2.33a38.29,38.29,0,0,0,4.71-3c.76-.54,1.55-1,2.33-1.57l1.18-.78.59-.38.64-.34.54-.27-.29.52a12.12,12.12,0,0,1-3.94,4.32c-1.61,1.11-3.16,2.29-4.74,3.44a14.73,14.73,0,0,1-2.53,1.54,17.45,17.45,0,0,1-2.78,1,26.31,26.31,0,0,1-2.88.6c-.49.09-1,.15-1.46.21a4.64,4.64,0,0,1-1.48-.25Zm15.83-15.12a7.6,7.6,0,0,1,2.38-.5c-.51-.51-1.1-1-1.67-1.54,1.28.27,3.12.52,4.55.69a16.22,16.22,0,0,0,1.7.26h0c-.32.2-.64.4-.94.62a22.89,22.89,0,0,1-2.36,1.44h0a9.94,9.94,0,0,0-1.24-1.41h0l0,0a1.68,1.68,0,0,1-.13.28l-.2.24a3.81,3.81,0,0,1-.44.46,10.61,10.61,0,0,1-1,.79,19.79,19.79,0,0,1-2.08,1.33c-.39.21-.79.41-1.2.59l.19.2,0,0,0,0c-.13.2-.25.41-.4.61a3.72,3.72,0,0,1-.56.5l-1.13.92c-.76.6-1.52,1.21-2.33,1.75-1.64,1.08-3.29,2.07-5,3s-3.39,1.89-5.16,2.75l-.62.26,1.5-.35c.62-.14,1.24-.26,1.86-.39s1.31-.23,1.9-.33l.09.25v0l0,0a14.79,14.79,0,0,1-3.22,2,12.61,12.61,0,0,1-1.8.69l-1.84.48c-1.23.3-2.46.56-3.7.84L82,88.87c-.32.07-.58.13-1,.18a3,3,0,0,1-1-.31l-.22-.06.12-.19c.17-.25.32-.54.53-.8a.71.71,0,0,1,.44-.31l.47-.1c.62-.14,1.23-.29,1.84-.46s1.3-.37,1.94-.56h-.1a1.14,1.14,0,0,1-.43-.08,1.91,1.91,0,0,1-.68-.41.8.8,0,0,1-.22-.83,1,1,0,0,1,.6-.56c.48-.19.94-.29,1.4-.45.93-.28,1.85-.59,2.75-.94a37.8,37.8,0,0,0,5.22-2.48c.85-.46,1.65-1,2.5-1.48s1.7-1,2.55-1.4c1.38-.71,2.75-1.38,4.14-2-.35.14-.72.26-1.09.37a2.4,2.4,0,0,1-1.34.06l-.34-.11-.06.07a1.9,1.9,0,0,1-.37.28l-.76.49-1.55,1c-1,.62-2.07,1.24-3.12,1.84s-2.12,1.15-3.19,1.72a7.34,7.34,0,0,1-1.77.58l-.91.19a1.14,1.14,0,0,1-.54-.09,1,1,0,0,1-.25-.13.45.45,0,0,1-.12-.12.3.3,0,0,1-.06-.19,1.78,1.78,0,0,1,.29-1,1,1,0,0,1,.44-.28l.39-.21c.53-.29,1.07-.56,1.61-.84,1.08-.55,2.17-1.09,3.29-1.55s2.28-.8,3.43-1.17L98.62,76l.87-.26.44-.12.22-.06,0,0s.09,0,.09,0,0,0,.11.09-.15.18-.21.25l.27-.14a18,18,0,0,0,2.05-1.27c.66-.47,1.28-1,2-1.45A11,11,0,0,1,106.66,71.89Zm-12,1.54c1.5-.73,3-1.39,4.55-2.06s3-1.33,4.66-1.85l.1.14,0,0,0,0a14.64,14.64,0,0,1-1.94,1.59l-2,1.48c-1.35,1-2.7,2-4.07,2.89-.69.47-1.37,1-2.06,1.41a11.63,11.63,0,0,1-2.2,1.26c-.78.34-1.58.59-2.37.85l-.59.2a3.53,3.53,0,0,1-.64.19.92.92,0,0,1-.73-.22,2.08,2.08,0,0,1-.42-.54,2.38,2.38,0,0,1-.31-.6.67.67,0,0,1,.3-.67c.38-.25.74-.41,1.11-.62l2.17-1.23C91.71,74.89,93.21,74.17,94.69,73.43Zm-8.89-.37c1.62-1,3.28-1.92,4.93-2.86l2.49-1.37,1.26-.66.63-.34a6.46,6.46,0,0,1,.69-.26l.17.16,0,0,0,0c-.13.21-.23.43-.37.64a3.82,3.82,0,0,1-.52.54L94,70c-.72.66-1.43,1.34-2.16,2-1.46,1.31-3,2.58-4.51,3.79a54.32,54.32,0,0,1-4.83,3.39,9.82,9.82,0,0,1-1.32.74,8.28,8.28,0,0,1-1.44.45c-.48.12-1,.2-1.45.3a.77.77,0,0,1-.45,0,1.46,1.46,0,0,1-.38-.17c-.22-.13-.42-.27-.62-.37L76.7,80l.07-.14c.11-.2.18-.42.29-.65a1.31,1.31,0,0,1,.21-.33,2.15,2.15,0,0,1,.29-.25l1.12-.87c.76-.58,1.51-1.16,2.3-1.7Zm-1.47-2.94a47,47,0,0,1-3.09,3.68,33.17,33.17,0,0,1-3.48,3.33,17.28,17.28,0,0,1-4.08,2.61l-.13.06-.08-.1a5.31,5.31,0,0,1-.4-.51.82.82,0,0,1-.15-.34.49.49,0,0,1,.11-.4,10.41,10.41,0,0,1,.93-.86c.62-.56,1.25-1.09,1.84-1.67,1.22-1.12,2.38-2.3,3.57-3.45.61-.56,1.19-1.14,1.84-1.69l2-1.63c1.36-1.07,2.68-2,3.85-3A46.74,46.74,0,0,1,84.33,70.12ZM93,61.64l.16-.07h.22a1.79,1.79,0,0,0-.14.13ZM68,71.3c.29-.31.58-.64.9-.94a8.73,8.73,0,0,1,1-.79L71,68.81c1.41-1,2.76-2.09,4.15-3.12s2.81-2,4.24-3a17.93,17.93,0,0,1,2.23-1.36c.79-.39,1.55-.73,2.38-1.1l.15.26,0,0,0,0c-1.2,1.23-2.46,2.4-3.76,3.52s-2.63,2.21-4,3.24-2.78,2-4.22,3a22.81,22.81,0,0,1-4.58,2.43l-.38.14.16-.36c.09-.19.15-.39.24-.61a1.08,1.08,0,0,1,.19-.32Zm-.71-1.54h.31l0,0h0l-.13.24c-.14.25-.14.62-.44.91a9.11,9.11,0,0,0-.77.58c-.5.4-1,.87-1.43,1.31-.24.21-.49.42-.75.61a4.54,4.54,0,0,1-.9.47,9.31,9.31,0,0,1-.94.28.66.66,0,0,1-.55-.11l-.45-.24v0l0,0a4.6,4.6,0,0,1,.17-.46.92.92,0,0,1,.28-.44l.72-.59c.49-.38,1-.76,1.48-1.11s1-.68,1.56-1l.8-.49C66.76,69.54,67,69.75,67.3,69.76ZM63,69.25a16.8,16.8,0,0,1,2.88-1.32l-.06.07.08,0a17.69,17.69,0,0,1-2.13,2.34c-.77.7-1.56,1.38-2.39,2-1.67,1.24-3.43,2.35-5.2,3.42l-.16.1-.09-.14-.25-.36-.08-.13h0l0,0,.1-.09c.8-.67,1.6-1.33,2.37-2s1.54-1.41,2.35-2.07A25.05,25.05,0,0,1,63,69.25Zm-3.92-1.67a14.79,14.79,0,0,1,2.56-1.35.43.43,0,0,1,0,.07l.06,0A22,22,0,0,1,60,68.7c-.61.76-1.23,1.51-1.91,2.21a25.36,25.36,0,0,1-2.17,2c-.37.31-.76.61-1.16.89l-.3.21a.87.87,0,0,1-.42.17c-.28,0-.52,0-.74,0h-.14l0-.11,0,0h0l-.13-.32,0-.09,0-.07c.61-.73,1.24-1.45,1.87-2.16s1.26-1.43,2-2.08A19.1,19.1,0,0,1,59.05,67.58ZM55.76,63.7l.21-.12v.05h0l0,.21a2.41,2.41,0,0,1-.61,2.08C55,66.46,54.51,67,54,67.6a29.71,29.71,0,0,1-3.11,2.85l-.28-.17,0,0v0l0,0,0-.06c.29-.63.6-1.24.94-1.85a16.32,16.32,0,0,1,1.12-1.76A10.08,10.08,0,0,1,55.76,63.7Zm-6.93,7.21a9.42,9.42,0,0,0,.84-1.28c.24-.46.47-1,.74-1.42s.58-.87.88-1.27.6-.77.9-1.09l.36.15.07,0v0l0,0,0,.1c-.2.47-.42.93-.66,1.37s-.48.89-.75,1.32a28.16,28.16,0,0,1-1.74,2.47l-.12.15-.13-.09-.31-.25-.12-.09,0,0,0,0Zm1.41,2.19c.59-.49,1.17-1,1.74-1.42l.27.19,0,0v0l0,0,0,.06a20.73,20.73,0,0,1-2.81,4,18.1,18.1,0,0,1-1.81,1.69c-.31.26-.65.5-1,.74l-.06,0,.06,0,.08,0,.07,0a.37.37,0,0,1,.31.07l.16.17-.11.18a6.79,6.79,0,0,1-1.71,1.83,6.39,6.39,0,0,1-2.18,1.13h-.06l0,0c0-.13,0-.12,0-.17l.06-.09.11-.16.11-.16s.08-.11.07-.16a6.85,6.85,0,0,1,.71-.79c.24-.24.5-.46.76-.68s.54-.42.82-.62l.44-.27,0,0a2,2,0,0,1-.33.08l-.6.07-.14,0-.05-.12-.17-.39v0h0l0-.1.07-.06c.61-.52,1.18-1.05,1.74-1.63s1.09-1.2,1.66-1.78S49.65,73.62,50.24,73.1Zm-4.31-1.37a4.18,4.18,0,0,1,1.13-.59,1.21,1.21,0,0,1,.26.15l.06,0-.05.09a13.64,13.64,0,0,1-1.28,2,18,18,0,0,1-1.6,1.79l-.14.14-.11-.11L44,75,43.89,75l0-.07.5-1.14A6.07,6.07,0,0,1,45,72.61,4.22,4.22,0,0,1,45.93,71.73ZM40,73.34a6,6,0,0,1,.76-2A11,11,0,0,1,42,69.69a33.16,33.16,0,0,0,2.68-3.06l.3.14a0,0,0,0,1,0,0h0l0,0a0,0,0,0,1,0,0c-.3.63-.61,1.25-.88,1.9s-.5,1.32-.79,2a6.06,6.06,0,0,1-1.19,1.8,6.54,6.54,0,0,1-.82.73,5.68,5.68,0,0,1-1,.43,2.38,2.38,0,0,1-.27-.22l0,0v0l0,0Zm0,5.92a5.13,5.13,0,0,1,1.19-2.09c.12-.13.24-.24.36-.35A2.55,2.55,0,0,1,41,77v-.06h0a2.48,2.48,0,0,1,.12-1,3.16,3.16,0,0,1,.43-.91,3.66,3.66,0,0,1,.66-.75,4.91,4.91,0,0,1,.78-.6l.2-.11.09.14s0,0,0,0h0a1.22,1.22,0,0,1,0,1.13,6.57,6.57,0,0,1-.44.88l.15-.12.17-.12.11.12c.2.22.4.44.61.65l.1.1h0l0,0-.1.07a6.79,6.79,0,0,0-.88.82c-.28.31-.56.65-.87.93a10.33,10.33,0,0,1-1.87,1.33,1.42,1.42,0,0,1-.26-.17l0,0v0l0,0Zm.06,2.28.8,0-.09,0h.11l-.69.31c-.53.24-1.07.45-1.6.68a13.19,13.19,0,0,1-1.62.62,6.41,6.41,0,0,1-1.74.19,5.63,5.63,0,0,1-1.74-.3l0,0-.06,0A6,6,0,0,1,35,82.24a11.67,11.67,0,0,1,1.66-.47A17.57,17.57,0,0,1,40.05,81.54ZM32.5,77.27a8.11,8.11,0,0,0,1.25-.45c.41-.19.84-.41,1.27-.56a12.5,12.5,0,0,1,2.47-.58l.23.29.05.07h0l0,0-.09.06a16.79,16.79,0,0,1-2.56,1.71l-.69.35a3.75,3.75,0,0,1-.75.33.78.78,0,0,1-.91-.33,3.19,3.19,0,0,1-.21-.41l-.15-.37,0-.13ZM29.85,83a2.09,2.09,0,0,1-1.6-.15l0,0,0,0a3.81,3.81,0,0,1,1.1-1.16A5.64,5.64,0,0,1,30.76,81a15.74,15.74,0,0,1,3-.56l1-.09-.12.06h.14l-.87.41a11.08,11.08,0,0,0-1.36.73c-.43.28-.83.61-1.27.89A5,5,0,0,1,29.85,83Zm5.75,8.07a3.89,3.89,0,0,1-2.06,2.15,5.32,5.32,0,0,0,1.31-2.38,5.53,5.53,0,0,0-.09-2.59,2.7,2.7,0,0,0-.5-1.08.55.55,0,0,0-.75-.23,7.22,7.22,0,0,0-2,1.85,5.91,5.91,0,0,1,.56-1.36,3.5,3.5,0,0,1,1-1.18,1.41,1.41,0,0,1,1-.21,1.51,1.51,0,0,1,.85.5A3.59,3.59,0,0,1,35.73,88,5.06,5.06,0,0,1,35.6,91.06Zm6.65-.85h-.11a16.67,16.67,0,0,1-3.08,0l-.76-.1a3.85,3.85,0,0,1-.81-.16.89.89,0,0,1-.42-.3.73.73,0,0,1-.11-.26,1,1,0,0,1-.05-.28,4,4,0,0,1,.14-.8l0-.12.11,0a7,7,0,0,0,1.29.34c.45.08.92.14,1.36.26a14.11,14.11,0,0,1,2.37.93v0h0c0,.11,0,.24,0,.38Zm4.33,0a11.76,11.76,0,0,1-2.06-.66,5.52,5.52,0,0,1-1.82-1.21L42.33,88h0l0,0,.5.09c.68.13,1.37.25,2,.33s1.39.13,2.08.25a10.73,10.73,0,0,1,2,.57,9.34,9.34,0,0,1,1.91.93h0l.06,0a6.69,6.69,0,0,1-2.15.3A12,12,0,0,1,46.58,90.22ZM54,102h-.11a25.15,25.15,0,0,1-3.58-.1l-.88-.11a4.9,4.9,0,0,1-.93-.18,1.07,1.07,0,0,1-.48-.33.89.89,0,0,1-.12-.29.87.87,0,0,1,0-.31,4.43,4.43,0,0,1,.14-.92l0-.13.12,0a10.19,10.19,0,0,0,1.49.4c.51.1,1,.18,1.56.32s1,.31,1.46.48.91.36,1.31.56v0h0c0,.12,0,.27,0,.43Zm7.54.68a13.84,13.84,0,0,1-2.48-.27,13.55,13.55,0,0,1-2.39-.76,6.52,6.52,0,0,1-2.12-1.38l-.36-.37h0l0,0,.49.08c.8.14,1.59.27,2.39.38s1.61.16,2.41.31a15.92,15.92,0,0,1,2.34.65,11.77,11.77,0,0,1,2.22,1h0l.06,0A7.94,7.94,0,0,1,61.58,102.7Zm7.26.07a12.82,12.82,0,0,1-2.77-.9,14.37,14.37,0,0,1-1.29-.68,3.08,3.08,0,0,1-.61-.43,4.44,4.44,0,0,1-.47-.61h0l0-.05a16.91,16.91,0,0,1,2.87.16,26.67,26.67,0,0,1,2.8.56,30.4,30.4,0,0,1,5.31,2l.76.38h-.08l.1,0-.83,0c-1,0-1.92-.1-2.88-.17A28.31,28.31,0,0,1,68.84,102.77Zm8.49,2.62a7.5,7.5,0,0,0-1.23-.2c-.42,0-.84,0-1.27,0a3.36,3.36,0,0,1-1.24-.38,1.64,1.64,0,0,1-.86-1,2.47,2.47,0,0,1,1.3-.28,3.76,3.76,0,0,1,1.26.31,11,11,0,0,1,2.14,1.29l.66.51ZM81.42,104a11,11,0,0,1-2.15.07,9.76,9.76,0,0,1-2.13-.4,5.33,5.33,0,0,1-1-.44c-.44-.27-.49-.68-.67-.94l-.07-.09v0l0,0,.06-.09.19-.28.06-.08.08,0c.65.12,1.29.23,1.94.31s1.31.14,2,.25,1.27.28,1.9.44,1.23.31,1.92.57l0,0,.07,0A5.5,5.5,0,0,1,81.42,104Zm20.4,1.54a3,3,0,0,1-.87.23l-.88.15c-.59.09-1.17.2-1.76.27-1.17.17-2.36.32-3.56.38a17.24,17.24,0,0,1-3.59-.21l-1.76-.29c-.31-.06-.55-.08-.91-.17a.91.91,0,0,1-.67-.81,1.26,1.26,0,0,1,0-.27l0-.12a.33.33,0,0,1,.13-.15,1.18,1.18,0,0,1,.48-.16,3.06,3.06,0,0,1,.91,0c.59,0,1.18.1,1.78.13,1.18,0,2.37.07,3.54.06s2.36-.07,3.56,0a20.32,20.32,0,0,1,3.54.69l0,.22v0ZM91.72,103a9.27,9.27,0,0,1,2.35-.65,19.17,19.17,0,0,1,2.39-.25,21.66,21.66,0,0,1,2.41.09,10.67,10.67,0,0,1,2.37.45l.38.11-.32.19a6.27,6.27,0,0,1-2.35.71,18,18,0,0,1-2.43.22,13.89,13.89,0,0,1-2.42-.25A13.26,13.26,0,0,1,91.72,103Zm12.64-1.2.21-.32a.25.25,0,0,0,.06-.14s0,0-.13-.09a5.38,5.38,0,0,0-.8-.26c-.58-.17-1.14-.36-1.71-.57l-.93-.34h1a9.4,9.4,0,0,1,1.68.19,10.32,10.32,0,0,1,1.64.4,9.38,9.38,0,0,1,1.48.76,1.85,1.85,0,0,1,.68.6,1.06,1.06,0,0,1,.1.9l0,.06v0h0c-.48-.14-1-.3-1.42-.47s-.93-.36-1.38-.57Zm7.88,4.89-.06.17-.15,0a15.82,15.82,0,0,0-2.72-.48l-1.39-.1c-.46,0-.91-.13-1.37-.21l-.55-.11.41-.35a1,1,0,0,0,.2-.26c0-.07-.2-.2-.39-.31-.42-.26-.78-.55-1.08-.76a.22.22,0,0,1,0-.08h0a11.37,11.37,0,0,1,3.94.17A8.42,8.42,0,0,1,111,105a7.12,7.12,0,0,1,.86.53.94.94,0,0,1,.37.51A1.09,1.09,0,0,1,112.24,106.66Zm.56-6.75a4.43,4.43,0,0,1,.89-.12,2.88,2.88,0,0,1,1.76.56l.64.52-.73-.2-.12,0-.55-.09-.21,0c-.31,0-.67,0-1,0a6,6,0,0,1-.75-.14,1.94,1.94,0,0,1-.69-.16l-.11,0A4.05,4.05,0,0,1,112.8,99.91Zm-3.36,3.24a8.78,8.78,0,0,1,1.77,0,17.15,17.15,0,0,1,1.76.12,5,5,0,0,1,.85.2,2.12,2.12,0,0,0,.62.23l.22.08a4.74,4.74,0,0,1,1.5,1,5.59,5.59,0,0,1-1.76.11,12.86,12.86,0,0,1-3.4-.63,5.14,5.14,0,0,1-1.62-.75l-.33-.24Zm-12.2-5.22a.3.3,0,0,1,.09-.15,1,1,0,0,1,.4-.21,3.12,3.12,0,0,1,.78-.11c.51,0,1-.08,1.53-.14,1-.13,2-.29,3-.47s2-.38,3-.49a15.33,15.33,0,0,1,3.1.12,1,1,0,0,1,0,.18v0l0,0a2.85,2.85,0,0,1-.71.33l-.72.25c-.48.16-1,.34-1.45.49a29.62,29.62,0,0,1-3,.83,14.67,14.67,0,0,1-3.09.32c-.52,0-1,0-1.53,0a7.42,7.42,0,0,1-.8,0,.81.81,0,0,1-.7-.62.65.65,0,0,1,0-.24Zm.94,2.41a1,1,0,0,0,0,.16v0l0,0a21.44,21.44,0,0,1-6.74,1.62c-1.16.09-2.32.11-3.47.11-.58,0-1.15,0-1.73,0a5.74,5.74,0,0,1-.9,0,.53.53,0,0,1-.3-.15l-.15-.18a2.06,2.06,0,0,1-.25-.4l0-.12,0-.06h0a.28.28,0,0,1,0-.09.34.34,0,0,1,0-.08.58.58,0,0,1,.2-.19,1.06,1.06,0,0,1,.44-.21c.29,0,.57-.1.85-.16a14.11,14.11,0,0,1,1.73-.23c1.15,0,2.29-.16,3.44-.23s2.31,0,3.46,0c.57,0,1.15,0,1.72,0A5.07,5.07,0,0,1,98.18,100.34ZM94.73,96.5v0h0l0,.32a26.07,26.07,0,0,0-3.85.1c-1.29.11-2.56.33-3.85.47a33.64,33.64,0,0,1-3.89.15,18.39,18.39,0,0,1-3.88-.48v0h0l0-.45v0h0a24.91,24.91,0,0,1,3.83-.74A30.14,30.14,0,0,1,87,95.6,41.1,41.1,0,0,1,94.73,96.5ZM101,89.12a48.52,48.52,0,0,1-9.59,1.37h-.24l0-.22a2.44,2.44,0,0,1,.53-1.21,2.07,2.07,0,0,1,1.18-.56c.83-.12,1.65-.19,2.47-.33,1.64-.23,3.26-.55,4.9-.81s3.38-.61,5.06-.83,3.27-.43,4.79-.69a37.88,37.88,0,0,1-4.49,1.89A47.63,47.63,0,0,1,101,89.12Zm2.42-.17c.74-.29,1.38-.46,2.09-.67s1.38-.38,2.09-.52a15.35,15.35,0,0,1,4.33-.25l.78.08-.71.26c-.7.25-1.4.42-2.09.62s-1.39.43-2.11.58a10.6,10.6,0,0,1-2.18.21A6.51,6.51,0,0,1,103.41,89Zm12.67.7c-.81.18-1.61.38-2.4.62s-1.58.53-2.4.73a10.93,10.93,0,0,1-2.49.28,8.13,8.13,0,0,1-2.52-.36,16.12,16.12,0,0,1,2.37-.86c.8-.21,1.6-.41,2.42-.55a21.21,21.21,0,0,1,5-.2l1.15.09Z"/><path d="M41,77v0h0Z"/></svg>